<?xml version="1.0" encoding="utf-8" ?>
<svg baseProfile="full" height="200mm" version="1.1" viewBox="0,0,200,200" width="200mm" xmlns="http://www.w3.org/2000/svg" xmlns:ev="http://www.w3.org/2001/xml-events" xmlns:xlink="http://www.w3.org/1999/xlink"><defs /><rect fill="#1a1a1a" height="200" width="200" x="0" y="0" /><rect fill="#1a1a1a" height="200" width="180" x="10" y="0" /><text alignment-baseline="middle" fill="#e1ed5e" style="dominant-baseline: central; font-size:9.0px; font-family:Arial;" text-anchor="middle" x="100.0" y="100.0">2026</text><line stroke="#e1ed5e" stroke-width="0.3" x1="100.0" x2="100.0" y1="15.0" y2="10.0" /><path d="M 100.0 14.0 a86.0,86.0 0 0,1 42.46469731375804,11.215312516191453" fill="none" id="id121" stroke="none" /><text fill="#e1ed5e" style="font-size:6.75px; font-family:Arial;" text-anchor="middle"><textPath startOffset="22.20632615414155" xlink:href="#id121">January</textPath></text><path d="M 100.0 79.0 l 0.0 -63.0 a84.0,84.0 0 0,0 1.4459219170901134,0.012445506434235476 l -1.084441437817585 62.990665870174325" fill="#4dd2ff" stroke="none" /><path d="M 100.36148047927253 79.00311137660856 l 0.6789808368364829 -39.43915598752003 a60.44500018994459,60.44500018994459 0 0,0 1.040153004966054,0.02686408336799351 l -1.3577604769974045 39.42162511200968" fill="#ffc212" stroke="none" /><path d="M 101.08401301168833 79.027996857942 l 2.0618536557646254 -39.88992833195993 a60.94317992882752,60.94317992882752 0 0,0 1.0471720087008098,0.06316827526754512 l -2.748187713305047 39.84852678731208" fill="#ffce13" stroke="none" /><path d="M 101.44485096284872 79.0497635885617 l 2.908077395376267 -42.166915829000736 a63.26707589445396,63.26707589445396 0 0,0 1.085813087748502,0.08427999334523172 l -3.63348067248711 42.110610573467035" fill="#f5ff19" stroke="none" /><path d="M 101.80526077348638 79.07773832637324 l 3.2764554938973935 -37.97282930649721 a59.11392037227165,59.11392037227165 0 0,0 1.0130292657699373,0.09619933525216653 l -3.929609886757575 37.91080442672987" fill="#ff9e0e" stroke="none" /><path d="M 102.52436894288641 79.15227682838746 l 4.678713430213082 -38.63956679836925 a59.921799569491846,59.921799569491846 0 0,0 1.0229086946175103,0.1328029062374601 l -5.3431368533384385 38.55330556896765" fill="#ffb410" stroke="none" /><path d="M 102.88285421437855 79.19881850522331 l 5.39281183413005 -38.91173447808216 a60.28365435611994,60.28365435611994 0 0,0 1.0266335605174133,0.15129909997624535 l -6.0618143750761195 38.81314089394495" fill="#ffbd11" stroke="none" /><path d="M 103.95276090670814 79.375362276772 l 7.345259039065536 -38.32594741738546 a60.02346826963448,60.02346826963448 0 0,0 1.0130634940496486,0.20321100649982024 l -8.00388894258231 38.19383245480843" fill="#ffb710" stroke="none" /><path d="M 105.36241919743992 79.69619591428918 l 10.8106331018663 -40.93245389088264 a63.3359843347524,63.3359843347524 0 0,0 1.051685305982007,0.28746532176747286 l -11.513616297072018 40.74030202828887" fill="#f4ff19" stroke="none" /><path d="M 106.0581310904928 79.89281104454417 l 12.047270441373525 -39.985391458815535 a62.76084595889205,62.76084595889205 0 0,0 1.0317124783837592,0.3205580891528412 l -12.733768292468003 39.77209323478017" fill="#fffc17" stroke="none" /><path d="M 106.40334571778207 80.00007090966166 l 12.76769778849766 -39.87806713414025 a62.87211894773663,62.87211894773663 0 0,0 1.0278608779417129,0.3388695710297437 l -13.45224148868179 39.65238383885127" fill="#ffff18" stroke="none" /><path d="M 106.74666289553966 80.11325718540242 l 13.492533595991354 -39.77115052216269 a62.997534173990225,62.997534173990225 0 0,0 1.0239139101534178,0.357223458175879 l -14.175129510208045 39.533006210814605" fill="#fcff18" stroke="none" /><path d="M 107.08798089147638 80.2323363322302 l 12.941617375877572 -36.09286530540103 a59.342931372776356,59.342931372776356 0 0,0 0.9585795791481334,0.3530529487861053 l -13.56097928079828 35.864749088808594" fill="#ffa50f" stroke="none" /><path d="M 107.4271985657038 80.35727306442388 l 13.580766509445082 -35.91708041207706 a59.39887868560324,59.39887868560324 0 0,0 0.9532581951043211,0.36984936994585293 l -14.19700786954907 35.67798833824067" fill="#ffa60f" stroke="none" /><path d="M 107.76421540070413 80.48803036053334 l 14.330173912288117 -36.01264311645516 a59.75905505284653,59.75905505284653 0 0,0 0.9524914125877767,0.3885451628296363 l -14.94794919446428 35.76063706744194" fill="#ffb010" stroke="none" /><path d="M 108.43124777332544 80.76684994638697 l 16.594030969198414 -37.8538854752473 a62.33132600558388,62.33132600558388 0 0,0 0.9789517093484841,0.43922709622726874 l -17.243164797013677 37.5626380485035" fill="#fff216" stroke="none" /><path d="M 108.76106565485865 80.91482961587045 l 15.69430416283866 -34.188588558518475 a58.61875557191326,58.61875557191326 0 0,0 0.9133968595063389,0.42885207285296756 l -16.2804792336446 33.9133715030255" fill="#ff910d" stroke="none" /><path d="M 109.08828744355905 81.06846463323043 l 16.612299896345522 -34.60457704096208 a59.38548241236524,59.38548241236524 0 0,0 0.9177283507266275,0.45032531605108833 l -17.205499514082582 34.31349656477616" fill="#ffa60f" stroke="none" /><path d="M 109.73455568895987 81.39251694778311 l 15.06243553966285 -28.791659628312537 a53.49363981672568,53.49363981672568 0 0,0 0.8122243826092072,0.43386213607815194 l -15.555804968800368 28.528118765732632" fill="#ff0000" stroke="none" /><path d="M 110.05341064243156 81.56283822128135 l 17.69198243314104 -32.44569966428589 a57.9557799149147,57.9557799149147 0 0,0 0.8717540368649682,0.4851301776872852 l -18.247860559078042 32.13635408903843" fill="#ff7f0b" stroke="none" /><path d="M 110.36928655335952 81.73862282372117 l 20.855377454716415 -36.72845878975622 a63.23655352712286,63.23655352712286 0 0,0 0.9419333605197714,0.5456286000045839 l -21.484507547701515 36.36402603236158" fill="#f6ff19" stroke="none" /><line stroke="#e1ed5e" stroke-width="0.3" x1="143.23703022742887" x2="145.7803849466894" y1="26.81831364943548" y2="22.513508569990506" /><path d="M 143.74570117128098 25.957352633546492 a86.0,86.0 0 0,1 28.547481713284135,27.462654790039103" fill="none" id="id122" stroke="none" /><text fill="#e1ed5e" style="font-size:6.75px; font-family:Arial;" text-anchor="middle"><textPath startOffset="19.985693538727396" xlink:href="#id122">February</textPath></text><path d="M 110.99172775467656 82.1063720568725 l 19.607517352764553 -31.919424155089008 a58.46070441317732,58.46070441317732 0 0,0 0.8529161986201828,0.534096045329276 l -20.154052703757 31.577183768436786" fill="#ff8d0d" stroke="none" /><path d="M 111.2981086023043 82.29822771554956 l 20.548044243742147 -32.19448607701918 a59.19302365624076,59.19302365624076 0 0,0 0.854163714827243,0.555571840233122 l -21.09917498435367 31.836015312626525" fill="#ffa10e" stroke="none" /><path d="M 111.60114157652 82.49532879139004 l 22.966145876873686 -34.653040810854364 a62.57255216938913,62.57255216938913 0 0,0 0.8926877566167019,0.6027467581398775 l -23.55923832789693 34.25258214041582" fill="#fff817" stroke="none" /><path d="M 111.90073688211348 82.69761687909136 l 22.019569297789843 -32.01407004640004 a59.85565741299428,59.85565741299428 0 0,0 0.8438760133207911,0.5911890758944863 l -22.567376450694287 31.63029612774162" fill="#ffb210" stroke="none" /><path d="M 112.19680574252982 82.90503203632743 l 24.13011349197972 -33.82061875977838 a62.54631909604141,62.54631909604141 0 0,0 0.871045903069894,0.6328518924251095 l -24.708704711403403 33.40024763253659" fill="#fff717" stroke="none" /><path d="M 112.48926042617603 83.11751280151076 l 25.282799567836015 -34.176286303659865 a63.51162781518837,63.51162781518837 0 0,0 0.8732965148905576,0.6577488296801169 l -25.867342236484955 33.736020884473895" fill="#efff19" stroke="none" /><path d="M 113.06298171725822 83.55741782278167 l 23.46738612136073 -29.538770943482216 a58.7260811670195,58.7260811670195 0 0,0 0.7860810396035726,0.6356228657540647 l -23.97237055952879 29.130441980464024" fill="#ff940d" stroke="none" /><path d="M 113.34407831869373 83.78471172551755 l 26.70481939607575 -32.45082458926606 a63.02622271273423,63.02622271273423 0 0,0 0.8317734570843041,0.6965863497840471 l -27.25945039011917 31.9863370820882" fill="#fbff18" stroke="none" /><line stroke="#e1ed5e" stroke-width="0.3" x1="172.23445277983987" x2="176.4835382374775" y1="55.19839476539836" y2="52.563006222186495" /><path d="M 173.08426987136738 54.67131705675599 a86.0,86.0 0 0,1 12.851231095245387,41.99856678651699" fill="none" id="id123" stroke="none" /><text fill="#e1ed5e" style="font-size:6.75px; font-family:Arial;" text-anchor="middle"><textPath startOffset="22.20632615414155" xlink:href="#id123">March</textPath></text><line stroke="#e1ed5e" stroke-width="0.3" x1="184.98032266829074" x2="189.97916517819016" y1="98.17113171792111" y2="98.06355123074" /><path d="M 185.9800911702706 98.14961562048488 a86.0,86.0 0 0,1 -9.607161424134198,41.387399972396054" fill="none" id="id124" stroke="none" /><text fill="#e1ed5e" style="font-size:6.75px; font-family:Arial;" text-anchor="middle"><textPath startOffset="21.466115282336823" xlink:href="#id124">April</textPath></text><line stroke="#e1ed5e" stroke-width="0.3" x1="174.80103733775053" x2="179.2010983576182" y1="140.37084112569926" y2="142.7455964860345" /><path d="M 175.68104954172406 140.8457921977663 a86.0,86.0 0 0,1 -30.038265399797805,32.042727171017184" fill="none" id="id125" stroke="none" /><text fill="#e1ed5e" style="font-size:6.75px; font-family:Arial;" text-anchor="middle"><textPath startOffset="22.206326154141568" xlink:href="#id125">May</textPath></text><line stroke="#e1ed5e" stroke-width="0.3" x1="143.8653032363475" x2="146.44561519142675" y1="172.8068346515853" y2="177.08958963109032" /><path d="M 144.38136562736335 173.6633856474863 a86.0,86.0 0 0,1 -40.68145358897372,12.25698825130547" fill="none" id="id126" stroke="none" /><text fill="#e1ed5e" style="font-size:6.75px; font-family:Arial;" text-anchor="middle"><textPath startOffset="21.466115282336833" xlink:href="#id126">June</textPath></text><line stroke="#e1ed5e" stroke-width="0.3" x1="102.19456741930631" x2="102.32365962044197" y1="184.97166512339345" y2="189.96999836594603" /><path d="M 102.22038585953345 185.97133177190398 a86.0,86.0 0 0,1 -42.740103519485714,-10.115201625700543" fill="none" id="id127" stroke="none" /><text fill="#e1ed5e" style="font-size:6.75px; font-family:Arial;" text-anchor="middle"><textPath startOffset="22.20632615414155" xlink:href="#id127">July</textPath></text><line stroke="#e1ed5e" stroke-width="0.3" x1="58.666819895761336" x2="56.23545636021788" y1="174.27360380694188" y2="178.64263932499728" /><path d="M 58.180547188652646 175.14741091055294 a86.0,86.0 0 0,1 -31.652253787137756,-30.449443065178592" fill="none" id="id128" stroke="none" /><text fill="#e1ed5e" style="font-size:6.75px; font-family:Arial;" text-anchor="middle"><textPath startOffset="22.20632615414155" xlink:href="#id128">August</textPath></text><line stroke="#e1ed5e" stroke-width="0.3" x1="26.63291911575756" x2="22.317208475507996" y1="142.92168965132927" y2="145.44649492493687" /><path d="M 25.769776987707644 143.4266507060508 a86.0,86.0 0 0,1 -11.730757126820373,-40.83630448921669" fill="none" id="id129" stroke="none" /><text fill="#e1ed5e" style="font-size:6.75px; font-family:Arial;" text-anchor="middle"><textPath startOffset="21.46611528233685" xlink:href="#id129">September</textPath></text><line stroke="#e1ed5e" stroke-width="0.3" x1="15.007084014347285" x2="10.007500721073583" y1="101.09737516637583" y2="101.16192664675087" /><path d="M 14.007167355692545 101.11028546245083 a86.0,86.0 0 0,1 10.666146001902534,-42.60595125391555" fill="none" id="id130" stroke="none" /><text fill="#e1ed5e" style="font-size:6.75px; font-family:Arial;" text-anchor="middle"><textPath startOffset="22.20632615414155" xlink:href="#id130">October</textPath></text><line stroke="#e1ed5e" stroke-width="0.3" x1="26.266209847984243" x2="21.928928074336255" y1="57.711370442889674" y2="55.22380399835377" /><path d="M 25.398753493254645 57.213857153982495 a86.0,86.0 0 0,1 29.58750427330803,-30.492523968695096" fill="none" id="id131" stroke="none" /><text fill="#e1ed5e" style="font-size:6.75px; font-family:Arial;" text-anchor="middle"><textPath startOffset="21.46611528233685" xlink:href="#id131">November</textPath></text><line stroke="#e1ed5e" stroke-width="0.3" x1="56.762969772571076" x2="54.21961505331055" y1="26.818313649435495" y2="22.513508569990535" /><path d="M 56.25429882871897 25.957352633546506 a86.0,86.0 0 0,1 42.265352541879196,-11.944610805530505" fill="none" id="id132" stroke="none" /><text fill="#e1ed5e" style="font-size:6.75px; font-family:Arial;" text-anchor="middle"><textPath startOffset="22.20632615414155" xlink:href="#id132">December</textPath></text></svg>