<?xml version="1.0" encoding="utf-8" ?>
<svg baseProfile="full" height="200mm" version="1.1" viewBox="0,0,200,200" width="200mm" xmlns="http://www.w3.org/2000/svg" xmlns:ev="http://www.w3.org/2001/xml-events" xmlns:xlink="http://www.w3.org/1999/xlink"><defs /><rect fill="#1a1a1a" height="200" width="200" x="0" y="0" /><text alignment-baseline="middle" fill="#e1ed5e" style="dominant-baseline: central; font-size:9.0px; font-family:Arial;" text-anchor="middle" x="100.0" y="100.0">2021</text><line stroke="#e1ed5e" stroke-width="0.3" x1="100.0" x2="100.0" y1="15.0" y2="10.0" /><path d="M 100.0 14.0 a86.0,86.0 0 0,1 42.46469731375804,11.215312516191453" fill="none" id="id61" stroke="none" /><text fill="#e1ed5e" style="font-size:6.75px; font-family:Arial;" text-anchor="middle"><textPath startOffset="22.20632615414155" xlink:href="#id61">January</textPath></text><path d="M 100.0 79.0 l 0.0 -19.711975511486422 a40.71197551148642,40.71197551148642 0 0,0 0.7007897342868358,0.006031918490221921 l -0.33930925501430736 19.709054969604757" fill="#ff4406" stroke="none" /><path d="M 100.36148047927253 79.00311137660856 l 0.3391742018716177 -19.701210297601996 a40.70412967703862,40.70412967703862 0 0,0 0.7004470620407565,0.018090481092388044 l -0.6782478991072419 19.69245302436725" fill="#ff4406" stroke="none" /><path d="M 100.72285384407766 79.0124445844662 l 0.6748659329098242 -19.594260002965623 a40.605878432021875,40.605878432021875 0 0,0 0.6983421549813817,0.030072082195243124 l -1.0120489202805374 19.579740194246185" fill="#ff4206" stroke="none" /><path d="M 101.08401301168833 79.027996857942 l 1.0150219837882821 -19.63725896621078 a40.663473989445485,40.663473989445485 0 0,0 0.6987106972102496,0.04214813735187008 l -1.3528947298381435 19.616877559478606" fill="#ff4306" stroke="none" /><path d="M 101.44485096284872 79.0497635885617 l 1.22475674944871 -17.758885938564305 a38.80106903739933,38.80106903739933 0 0,0 0.6659183783003724,0.051688082529930165 l -1.5302653171114233 17.73517259384591" fill="#ff2103" stroke="none" /><path d="M 101.80526077348638 79.07773832637324 l 1.685954454984217 -19.539548410435113 a40.61214915576614,40.61214915576614 0 0,0 0.6959662864773041,0.06609038492698441 l -2.0220458685517655 19.507632480992953" fill="#ff4206" stroke="none" /><path d="M 102.16513564639614 79.11191278185805 l 2.0312136155123075 -19.59607807026788 a40.70106861284119,40.70106861284119 0 0,0 0.6962466213556092,0.07823142034690429 l -2.368226940377642 19.558210696450374" fill="#ff4406" stroke="none" /><path d="M 102.52436894288641 79.15227682838746 l 2.3686806442309973 -19.561957649669438 a40.7048429347157,40.7048429347157 0 0,0 0.6948612700236686,0.09021293550105293 l -2.705056642762512 19.51828639100425" fill="#ff4406" stroke="none" /><path d="M 102.88285421437855 79.19881850522331 l 2.69793331646509 -19.466888161284494 a40.652953438708664,40.652953438708664 0 0,0 0.6923217708034173,0.10203023244605958 l -3.032624067697163 19.417563444677466" fill="#ff4306" stroke="none" /><path d="M 103.2404852339499 79.25152402106235 l 3.035155492569677 -19.433771883959817 a40.66935836528134,40.66935836528134 0 0,0 0.6907415397127368,0.11397827255449733 l -3.3692262384212888 19.378647348465698" fill="#ff4406" stroke="none" /><path d="M 103.59715602781102 79.31037775812273 l 3.37309514984167 -19.400900015616106 a40.69194485838863,40.69194485838863 0 0,0 0.6890597201645107,0.12592125950117503 l -3.706549991109082 19.33996327476419" fill="#ff4406" stroke="none" /><path d="M 103.95276090670814 79.375362276772 l 3.6953565517008564 -19.281558367885115 a40.63247699956271,40.63247699956271 0 0,0 0.685786415009498,0.137562303307273 l -4.02670937617748 19.215092108500635" fill="#ff4306" stroke="none" /><path d="M 104.307194497241 79.44645832069477 l 4.0375715838431345 -19.26692557878583 a40.68543638208534,40.68543638208534 0 0,0 0.6842075180629621,0.14954126251315086 l -4.368621826059624 19.19457081817681" fill="#ff4406" stroke="none" /><path d="M 104.66035177308747 79.52364482259891 l 4.367573173208193 -19.189963314432624 a40.68071104997474,40.68071104997474 0 0,0 0.681452883090621,0.16127788056793013 l -4.697249743261337 19.111939521723826" fill="#ff4406" stroke="none" /><path d="M 105.01212808612495 79.60689891045804 l 4.702243308619421 -19.132257095695355 a40.701633275168874,40.701633275168874 0 0,0 0.6789247786806414,0.17307304297648052 l -5.030876975985087 19.048481056550006" fill="#ff4406" stroke="none" /><path d="M 105.36241919743992 79.69619591428918 l 5.023227402664574 -19.019517368274176 a40.671676452731816,40.671676452731816 0 0,0 0.6753475918037086,0.18459800824303088 l -5.349872883691993 18.930232819204853" fill="#ff4406" stroke="none" /><path d="M 105.71112130821622 79.79150937346287 l 5.3489030024734765 -18.926800947518803 a40.66811016434646,40.66811016434646 0 0,0 0.6720110501775973,0.19617845330316935 l -5.673904270374501 18.831924165296932" fill="#ff4406" stroke="none" /><path d="M 106.0581310904928 79.89281104454417 l 5.668374408294522 -18.813570323150095 a40.64894136427513,40.64894136427513 0 0,0 0.668219482989148,0.20761904609049908 l -5.991379263994388 18.713211142177077" fill="#ff4306" stroke="none" /><path d="M 106.40334571778207 80.00007090966166 l 5.996453970096786 -18.729061256582177 a40.665584043406824,40.665584043406824 0 0,0 0.6648187402688672,0.2191802861283928 l -6.31795553260807 18.623067246194548" fill="#ff4306" stroke="none" /><path d="M 106.74666289553966 80.11325718540242 l 6.332000398666118 -18.66446647474449 a40.7093007951974,40.7093007951974 0 0,0 0.661657950638198,0.230839466983242 l -6.65234035336759 18.55270615458904" fill="#ff4406" stroke="none" /><path d="M 107.08798089147638 80.2323363322302 l 6.65457723662797 -18.558944596344496 a40.715928147780204,40.715928147780204 0 0,0 0.6576934500143281,0.24223404814362576 l -6.973053012414875 18.441647280394548" fill="#ff4406" stroke="none" /><path d="M 107.4271985657038 80.35727306442388 l 6.9732316981464875 -18.442119850907144 a40.71643337196812,40.71643337196812 0 0,0 0.6534344527391729,0.25352241594948843 l -7.2896493158853275 18.319354731067108" fill="#ff4406" stroke="none" /><path d="M 107.76421540070413 80.48803036053334 l 7.269893126477961 -18.269706164146474 a40.66299848432744,40.66299848432744 0 0,0 0.6481219763622545,0.2643852275318346 l -7.583298972428603 18.14186005043106" fill="#ff4306" stroke="none" /><path d="M 108.09893153111575 80.62456947434976 l 7.6061991647522635 -18.196645188901048 a40.72237718594373,40.72237718594373 0 0,0 0.6444146362037246,0.2759047165949215 l -7.918297558746303 18.063020944343336" fill="#ff4506" stroke="none" /><path d="M 108.43124777332544 80.76684994638697 l 7.902273084724911 -18.026466317831378 a40.68246447509755,40.68246447509755 0 0,0 0.6389430594631974,0.28667512603799494 l -8.211398262654889 17.887770861276852" fill="#ff4406" stroke="none" /><path d="M 108.76106565485865 80.91482961587045 l 8.222433021842432 -17.911809062511576 a40.70891444728899,40.70891444728899 0 0,0 0.6343258953092162,0.2978245132293276 l -8.529537128451247 17.767619566642246" fill="#ff4406" stroke="none" /><path d="M 109.08828744355905 81.06846463323043 l 8.48724789805568 -17.67952815603941 a40.61119814553004,40.61119814553004 0 0,0 0.6275952704455793,0.3079582735913114 l -8.790314435511691 17.530814722313266" fill="#ff4206" stroke="none" /><path d="M 109.41281617654863 81.2277094730956 l 8.833634194597785 -17.617208750186215 a40.70784456077338,40.70784456077338 0 0,0 0.623682002871236,0.3194741458110629 l -9.135576685057776 17.46254207906265" fill="#ff4406" stroke="none" /><path d="M 109.73455568895987 81.39251694778311 l 9.10908489305465 -17.41190334561947 a40.65069478939793,40.65069478939793 0 0,0 0.6172226378888239,0.3296989573866078 l -9.407452577471785 17.25252566173111" fill="#ff4306" stroke="none" /><path d="M 110.05341064243156 81.56283822128135 l 9.42429796641748 -17.283418775746206 a40.68588216813352,40.68588216813352 0 0,0 0.6119852424650961,0.3405691248494626 l -9.720407297954612 17.118634253336563" fill="#ff4406" stroke="none" /><path d="M 110.36928655335952 81.73862282372117 l 9.69948138954158 -17.081781582295 a40.64350277448745,40.64350277448745 0 0,0 0.6054009748530557,0.3506873205639578 l -9.992079096859964 16.912290104340993" fill="#ff4306" stroke="none" /><line stroke="#e1ed5e" stroke-width="0.3" x1="143.23703022742887" x2="145.7803849466894" y1="26.81831364943548" y2="22.513508569990506" /><path d="M 143.74570117128098 25.957352633546492 a86.0,86.0 0 0,1 28.547481713284135,27.462654790039103" fill="none" id="id62" stroke="none" /><text fill="#e1ed5e" style="font-size:6.75px; font-family:Arial;" text-anchor="middle"><textPath startOffset="19.985693538727396" xlink:href="#id62">February</textPath></text><path d="M 110.68208982089419 81.91981866633111 l 10.038458750293868 -16.990790899441734 a40.734680880873235,40.734680880873235 0 0,0 0.6006191629160711,0.36186632528325 l -10.329439979427576 16.81547796469987" fill="#ff4506" stroke="none" /><path d="M 110.99172775467656 82.1063720568725 l 10.28880920930003 -16.749334415666304 a40.65705467035183,40.65705467035183 0 0,0 0.5931687081880775,0.3714421906499723 l -10.575597069860372 16.56974788369339" fill="#ff4306" stroke="none" /><path d="M 111.60114157652 82.49532879139004 l 10.857346680582522 -16.38237776755935 a40.653607258245984,40.653607258245984 0 0,0 0.579982375714792,0.3916066890681659 l -11.137733750703855 16.193059166192516" fill="#ff4306" stroke="none" /><path d="M 111.90073688211348 82.69761687909136 l 11.129582295741775 -16.18120783310752 a40.639223228425024,40.639223228425024 0 0,0 0.5729527861640675,0.40139004170834747 l -11.406466221489493 15.98723294863524" fill="#ff4306" stroke="none" /><path d="M 112.19680574252982 82.90503203632743 l 11.475112597727314 -16.083447287649904 a40.75741596932993,40.75741596932993 0 0,0 0.567604628264163,0.41238890152658564 l -11.750262542345267 15.883539151306644" fill="#ff4506" stroke="none" /><path d="M 112.48926042617603 83.11751280151076 l 11.701091460265971 -15.81707163158068 a40.674737516929255,40.674737516929255 0 0,0 0.5592850906134058,0.4212419350541065 l -11.971622704637761 15.613313107020726" fill="#ff4406" stroke="none" /><path d="M 112.77801427241765 83.33499621200491 l 11.99214732575386 -15.640081185483847 a40.708468661240815,40.708468661240815 0 0,0 0.5524089665602953,0.43116396056614686 l -12.259588847473585 15.431338835694477" fill="#ff4406" stroke="none" /><path d="M 113.06298171725822 83.55741782278167 l 12.271642143784957 -15.446510510844588 a40.72784549480129,40.72784549480129 0 0,0 0.5451647120180544,0.44081861678747236 l -12.535710254367503 15.232985796792986" fill="#ff4506" stroke="none" /><path d="M 113.6212207817346 84.01681056812373 l 12.772488399412937 -14.987283803373021 a40.69149907234046,40.69149907234046 0 0,0 0.5291952732864582,0.45891292621719976 l -13.028577471346159 14.765205883736149" fill="#ff4406" stroke="none" /><path d="M 113.89432698308785 84.25364557470407 l 13.013417170781693 -14.74802480931832 a40.668585669464505,40.668585669464505 0 0,0 0.520923937861768,0.467690654815544 l -13.265352096239452 14.521835145733478" fill="#ff4406" stroke="none" /><path d="M 114.16331599549186 84.49514656593476 l 13.296500218994767 -14.555933592609984 a40.71476910405495,40.71476910405495 0 0,0 0.5133785653269952,0.47712942645418294 l -13.545086668116609 14.32489958008116" fill="#ff4406" stroke="none" /><path d="M 114.42810811169701 84.74124197986012 l 13.540308722924042 -14.319846560727377 a40.707814841703495,40.707814841703495 0 0,0 0.5050032324850883,0.48581270953711825 l -13.784795199021548 14.084650764427957" fill="#ff4406" stroke="none" /><path d="M 114.68862486808459 84.99185889309783 l 13.80358687383372 -14.103851207610958 a40.734680880873235,40.734680880873235 0 0,0 0.49689366348992176,0.4947598441866098 l -14.044316337490963 13.864155512774229" fill="#ff4506" stroke="none" /><path d="M 114.94478906791727 85.2469230424477 l 14.00292623195159 -13.82329636049523 a40.67652066112194,40.67652066112194 0 0,0 0.48760637517253475,0.5025212314257412 l -14.238796870827235 13.580210933519375" fill="#ff4406" stroke="none" /><path d="M 115.4437574822437 85.77008943001954 l 14.518487536840759 -13.37736489958176 a40.741843176713836,40.741843176713836 0 0,0 0.4707746352311328,0.5198411105096007 l -14.746605812687928 13.12547100180261" fill="#ff4506" stroke="none" /><path d="M 115.9244219780498 86.31012108654704 l 15.031427299348021 -12.922190827905103 a40.82238185608328,40.82238185608328 0 0,0 0.45349659139049076,0.536796924018121 l -15.25163450422563 12.661534954257876" fill="#ff4606" stroke="none" /><path d="M 116.15771136456269 86.58626213691792 l 15.056653623768993 -12.499666583190521 a40.56896734723337,40.56896734723337 0 0,0 0.44143191494027406,0.5411433322196246 l -15.269584030785676 12.238639081362795" fill="#ff4206" stroke="none" /><path d="M 116.38621287248628 86.86637796730983 l 15.371525806581404 -12.32034586517313 a40.699612378417164,40.699612378417164 0 0,0 0.4334429633257328,0.5504285466015973 l -15.581322850501103 12.053924924618492" fill="#ff4406" stroke="none" /><path d="M 116.60985879189232 87.15038557335679 l 15.590090651628689 -12.060707815747826 a40.71069759148166,40.71069759148166 0 0,0 0.42401947873891777,0.5579599310157981 l -15.79538607059172 11.790563108850993" fill="#ff4406" stroke="none" /><path d="M 117.45458315368197 88.32363383020206 l 16.374134385619424 -10.953592366921752 a40.70008788353521,40.70008788353521 0 0,0 0.3845254465391209,0.5856586358535945 l -16.56025646751647 10.670115667090483" fill="#ff4406" stroke="none" /><path d="M 117.65298651832404 88.62581576622439 l 16.581566452275016 -10.683846130908098 a40.72543825014117,40.72543825014117 0 0,0 0.3746205143198414,0.5925596883428798 l -16.763014562840816 10.39683879485101" fill="#ff4506" stroke="none" /><line stroke="#e1ed5e" stroke-width="0.3" x1="172.23445277983987" x2="176.4835382374775" y1="55.19839476539836" y2="52.563006222186495" /><path d="M 173.08426987136738 54.67131705675599 a86.0,86.0 0 0,1 12.851231095245387,41.99856678651699" fill="none" id="id63" stroke="none" /><text fill="#e1ed5e" style="font-size:6.75px; font-family:Arial;" text-anchor="middle"><textPath startOffset="22.20632615414155" xlink:href="#id63">March</textPath></text><line stroke="#e1ed5e" stroke-width="0.3" x1="184.98032266829074" x2="189.97916517819016" y1="98.17113171792111" y2="98.06355123074" /><path d="M 185.9800911702706 98.14961562048488 a86.0,86.0 0 0,1 -9.607161424134198,41.387399972396054" fill="none" id="id64" stroke="none" /><text fill="#e1ed5e" style="font-size:6.75px; font-family:Arial;" text-anchor="middle"><textPath startOffset="21.466115282336823" xlink:href="#id64">April</textPath></text><path d="M 120.99980553446 99.90962569577887 l 27.425900506299456 -0.11802950612220937 a48.42615447972523,48.42615447972523 0 0,0 -0.0035874618944311586,0.8335998024507069 l -27.42386874711552 -0.35407977453218215" fill="#ffcc13" stroke="none" /><path d="M 120.99824983174949 100.27111621757518 l 19.608256191800155 0.25316949243684395 a40.60989050645541,40.60989050645541 0 0,0 -0.01504100870132957,0.6988965718419674 l -19.60099312041382 -0.5906558800689262" fill="#ff4206" stroke="none" /><path d="M 120.9764740272857 100.99374915477107 l 19.611937644580205 0.929104978862182 a40.63393323398673,40.63393323398673 0 0,0 -0.039112384211969976,0.6983778943182777 l -19.593038909480708 -1.266554589515883" fill="#ff4306" stroke="none" /><path d="M 120.92983693683757 101.71520430193887 l 19.670611419059522 1.6120105201754442 a40.73655318227555,40.73655318227555 0 0,0 -0.06328792827867291,0.6983770148571502 l -19.639948894503775 -1.950368923581165" fill="#ff4506" stroke="none" /><path d="M 120.70491114924044 103.5080841355445 l 29.820683870901753 5.052591979001848 a51.245691796263046,51.245691796263046 0 0,0 -0.15484387901249244,0.8684467055235503 l -29.72929354955007 -5.565157435258617" fill="#fffb17" stroke="none" /><path d="M 120.64145759157962 103.86396538481128 l 50.517685805432485 9.456628167217787 a72.3951787177495,72.3951787177495 0 0,0 -0.23983511598250512,1.2229140893611663 l -50.347420756474314 -10.324805983646899" fill="#3aff92" stroke="none" /><path d="M 120.49622156327973 104.57218783832717 l 19.26946548668408 4.2985296327555895 a40.74309137764871,40.74309137764871 0 0,0 -0.1585865348308942,0.6831866414562642 l -19.192618385922632 -4.629584931560419" fill="#ff4506" stroke="none" /><line stroke="#e1ed5e" stroke-width="0.3" x1="174.80103733775053" x2="179.2010983576182" y1="140.37084112569926" y2="142.7455964860345" /><path d="M 175.68104954172406 140.8457921977663 a86.0,86.0 0 0,1 -30.038265399797805,32.042727171017184" fill="none" id="id65" stroke="none" /><text fill="#e1ed5e" style="font-size:6.75px; font-family:Arial;" text-anchor="middle"><textPath startOffset="22.206326154141568" xlink:href="#id65">May</textPath></text><path d="M 116.27256486870786 113.27417163493432 l 17.981073986956407 14.667869767863163 a44.204857794250636,44.204857794250636 0 0,0 -0.4860513566109309,0.5854801703027341 l -17.725926630451934 -14.975211195279668" fill="#ff840c" stroke="none" /><path d="M 116.0416608686014 113.55231037782055 l 29.363546955332204 24.806901566612204 a59.43956627140304,59.43956627140304 0 0,0 -0.6670180485581059,0.7758926824236952 l -28.932186397203317 -25.308671348197425" fill="#87ff25" stroke="none" /><path d="M 115.80600337817218 113.82643327865902 l 14.269753180385417 12.482585605669238 a39.95892399984716,39.95892399984716 0 0,0 -0.4573225600446614,0.5138067442533498 l -14.052771770692416 -12.726366519663454" fill="#ff3605" stroke="none" /><path d="M 115.07121518719521 114.62390073753431 l 14.115668530942198 13.696714755676716 a40.668555950394634,40.668555950394634 0 0,0 -0.4918171928122,0.49820821972943924 l -13.877810713074462 -13.93766346938682" fill="#ff4406" stroke="none" /><path d="M 114.55890576462653 115.13401014063108 l 13.670166319980895 14.210163803200587 a40.718067920811414,40.718067920811414 0 0,0 -0.5092941588399216,0.4815694157217414 l -13.423536326750165 -14.44336785566825" fill="#ff4406" stroke="none" /><path d="M 114.29624159901734 115.38237550388516 l 13.397437107989889 14.41528579084387 a40.67973032066877,40.67973032066877 0 0,0 -0.5170208738168081,0.4722863097850547 l -13.147316684706217 -14.643764867215506" fill="#ff4406" stroke="none" /><path d="M 112.63410532772338 116.77436683061366 l 11.840496627286885 15.720688464336572 a40.680889364394005,40.680889364394005 0 0,0 -0.562975136477737,0.41647554713156437 l -11.568136520390583 -15.922173960207905" fill="#ff4406" stroke="none" /><path d="M 112.34349029814194 116.9893568818739 l 11.593762708647272 15.957445382415003 a40.72448723990507,40.72448723990507 0 0,0 -0.5706716039081366,0.4071590371176163 l -11.317363776890252 -16.154648681376838" fill="#ff4506" stroke="none" /><path d="M 112.04921762599082 117.19931262002967 l 11.319648741958853 16.15791028970367 a40.72846959526872,40.72846959526872 0 0,0 -0.577652108037953,0.39731438722164353 l -11.039839749298016 -16.350365466290405" fill="#ff4506" stroke="none" /><line stroke="#e1ed5e" stroke-width="0.3" x1="143.8653032363475" x2="146.44561519142675" y1="172.8068346515853" y2="177.08958963109032" /><path d="M 144.38136562736335 173.6633856474863 a86.0,86.0 0 0,1 -40.68145358897372,12.25698825130547" fill="none" id="id66" stroke="none" /><text fill="#e1ed5e" style="font-size:6.75px; font-family:Arial;" text-anchor="middle"><textPath startOffset="21.466115282336833" xlink:href="#id66">June</textPath></text><path d="M 110.8373102113329 117.98757091392108 l 10.008933878560685 16.612646902465503 a40.39481359774815,40.39481359774815 0 0,0 -0.5986744683542293,0.35370742839437097 l -9.721491539178071 -16.78247290315362" fill="#ff3e05" stroke="none" /><path d="M 110.21172684928248 118.3499491758327 l 9.578617906898971 17.212284891723975 a40.69803726771363,40.69803726771363 0 0,0 -0.6150775538329474,0.3353893240098615 l -9.280917541197375 -17.37461486749361" fill="#ff4406" stroke="none" /><path d="M 109.89434966115114 118.52300852407294 l 9.281029560576032 17.374824576668722 a40.69827502027265,40.69827502027265 0 0,0 -0.620763225736762,0.32475398062356226 l -8.980575432312774 -17.532007976237" fill="#ff4406" stroke="none" /><path d="M 108.92500713936063 119.00905698771935 l 8.39844943889092 17.887560368247936 a40.76104169585504,40.76104169585504 0 0,0 -0.6376812725212877,0.2927281959231833 l -8.089300170602211 -18.029475634505193" fill="#ff4506" stroke="none" /><path d="M 108.59647513512805 119.15986991738527 l 8.106149635110073 18.067029811429297 a40.802202607636104,40.802202607636104 0 0,0 -0.6432745577054191,0.2819926620014018 l -7.793954402746901 -18.203887026725152" fill="#ff4606" stroke="none" /><path d="M 108.2653958097858 119.30500536409082 l 7.760874899493973 18.126625150532462 a40.71815707802105,40.71815707802105 0 0,0 -0.6466984524850231,0.2703200055875371 l -7.4477049875114885 -18.257530199139975" fill="#ff4406" stroke="none" /><path d="M 107.93186726928326 119.44442032107085 l 7.455001321628887 18.275416654190863 a40.737474473441765,40.737474473441765 0 0,0 -0.6515647186148362,0.259271048300129 l -7.139315526972185 -18.401034546897062" fill="#ff4506" stroke="none" /><path d="M 107.59598834532513 119.57807347666477 l 7.0691516108338295 18.2201924703801 a40.543498104347904,40.543498104347904 0 0,0 -0.6528078125537797,0.24683605616377968 l -6.754473577519775 -18.339176776650508" fill="#ff4106" stroke="none" /><path d="M 106.2309692047433 120.05430185196036 l 5.858760200244101 18.856351503792613 a40.74555806044859,40.74555806044859 0 0,0 -0.6715741583390102,0.20233978490071947 l -5.533311067464844 -18.95440665779906" fill="#ff4506" stroke="none" /><path d="M 105.88484417918355 120.15858648285463 l 5.526057209603984 18.92955850267887 a40.719672750584834,40.719672750584834 0 0,0 -0.6745288092813648,0.1906285791890772 l -5.199397232218013 -19.021875875206465" fill="#ff4406" stroke="none" /><path d="M 105.53697534728816 120.25689768951611 l 5.202939055945682 19.034833556320365 a40.7331057701697,40.7331057701697 0 0,0 -0.6779337981259262,0.17904847772946492 l -4.874514815008258 -19.121573383353414" fill="#ff4506" stroke="none" /><path d="M 105.18746579009965 120.34920634021253 l 4.858613625394428 19.05919676216697 a40.6687342648139,40.6687342648139 0 0,0 -0.6798393132054351,0.16708796277758273 l -4.529821027445782 -19.140005983258582" fill="#ff4406" stroke="none" /><path d="M 104.13013068566511 120.58985236759428 l 3.887343760893756 19.379491892761187 a40.76552927540662,40.76552927540662 0 0,0 -0.6891944334235539,0.1320857534622004 l -3.5531817128984975 -19.443534844571854" fill="#ff4506" stroke="none" /><path d="M 103.7750983002368 120.6578951692458 l 3.551573621685901 19.434735132074216 a40.756583835373334,40.756583835373334 0 0,0 -0.6912142501073255,0.12017645741495708 l -3.2165104001065252 -19.49299016801018" fill="#ff4506" stroke="none" /><path d="M 103.06178313531738 120.77559828337769 l 2.8716243722582693 19.485284143943872 a40.695748899333026,40.695748899333026 0 0,0 -0.6939040067186272,0.09616877246349248 l -2.535791774352812 -19.531827481899967" fill="#ff4406" stroke="none" /><path d="M 102.70371172650421 120.8252237178851 l 2.5485370999832235 19.629997806424097 a40.794743121096715,40.794743121096715 0 0,0 -0.6971483138011884,0.08441495205297073 l -2.210261363130655 -19.670958287202417" fill="#ff4606" stroke="none" /><path d="M 101.62511606390274 120.93702456842531 l 1.5013448112849022 19.342429687182797 a40.40060881637436,40.40060881637436 0 0,0 -0.6938078107803646,0.047849048753009306 l -1.1681742397256074 -19.36540708045209" fill="#ff3f05" stroke="none" /><path d="M 101.26447882468166 120.96189622390904 l 1.186684647715377 19.672263347057783 a40.70802287519264,40.70802287519264 0 0,0 -0.6998134271067407,0.03617236062760954 l -0.8478831521951566 -19.689775514447593" fill="#ff4406" stroke="none" /><line stroke="#e1ed5e" stroke-width="0.3" x1="102.19456741930631" x2="102.32365962044197" y1="184.97166512339345" y2="189.96999836594603" /><path d="M 102.22038585953345 185.97133177190398 a86.0,86.0 0 0,1 -42.740103519485714,-10.115201625700543" fill="none" id="id67" stroke="none" /><text fill="#e1ed5e" style="font-size:6.75px; font-family:Arial;" text-anchor="middle"><textPath startOffset="22.20632615414155" xlink:href="#id67">July</textPath></text><path d="M 100.54218724476979 120.99299961872073 l 0.5414491021416544 20.96441940393223 a41.97141025477734,41.97141025477734 0 0,0 -0.7223885494347038,0.012436573996955393 l -0.18050086281428282 -20.970633455208343" fill="#ff5b08" stroke="none" /><path d="M 100.18074693466247 120.99922214144158 l 0.17158728101228424 19.935051387464696 a40.935789826737825,40.935789826737825 0 0,0 -0.7046684313494657,0.0 l 0.17158728101227053 -19.935051387464696" fill="#ff4806" stroke="none" /><path d="M 98.73552117531835 120.96189622390904 l -0.9694611446730075 16.071240981725378 a37.10045470176914,37.10045470176914 0 0,0 -0.6371335979758279,-0.043940463220550965 l 1.2459575034277655 -16.05217217398854" fill="#ff0000" stroke="none" /><path d="M 98.37488393609728 120.93702456842531 l -2.399858743434421 30.91834644189732 a52.01134419353059,52.01134419353059 0 0,0 -0.8920086263428816,-0.0769662576574172 l 2.9317116875188445 -30.87245593196124" fill="#f7ff18" stroke="none" /><path d="M 96.58105272829116 120.7198165907248 l -3.2149911195863483 19.483782885409443 a40.74725204743164,40.74725204743164 0 0,0 -0.6910559869704951,-0.12014894133999088 l 3.549896078028893 -19.425555365548448" fill="#ff4506" stroke="none" /><path d="M 96.22490169976321 120.6578951692458 l -3.499767440660812 19.151244062009145 a40.46839801476614,40.46839801476614 0 0,0 -0.6841710419830715,-0.1311230085368561 l 3.8289060972155786 -19.08816385512382" fill="#ff4006" stroke="none" /><path d="M 95.86986931433489 120.58985236759428 l -4.121503561081286 20.546843747514984 a41.95613465286004,41.95613465286004 0 0,0 -0.706878032647632,-0.1481331645876899 l 4.474573055158305 -20.47285460220075" fill="#ff5b08" stroke="none" /><path d="M 95.16358092515715 120.4354850818985 l -4.267746259394994 18.03265260259283 a39.53079107918434,39.53079107918434 0 0,0 -0.6608168742785742,-0.16241271010299976 l 4.57751641841678 -17.9565186341758" fill="#ff2e04" stroke="none" /><path d="M 94.11515582081647 120.15858648285463 l -5.837115293534168 19.995090757258964 a41.829680010529046,41.829680010529046 0 0,0 -0.6894428125143193,-0.20772346382493478 l 6.180433080488734 -19.891651924328304" fill="#ff5908" stroke="none" /><path d="M 93.76903079525671 120.05430185196036 l -5.8581605742714284 18.854421614579746 a40.743537163696885,40.743537163696885 0 0,0 -0.6679585795692784,-0.21385924374136955 l 6.181840498931647 -18.75078952417867" fill="#ff4506" stroke="none" /><path d="M 93.08242187328487 119.8279376855182 l -6.798447100679811 19.486470987582717 a41.63834863865432,41.63834863865432 0 0,0 -0.6747007414006627,-0.2419236811637019 l 7.1328674027101995 -19.36655976537906" fill="#ff5507" stroke="none" /><path d="M 92.7421414339146 119.70592522655815 l -13.609544036796194 36.95148571919699 a60.37806477908118,60.37806477908118 0 0,0 -0.9721724626034312,-0.36759243986574214 l 14.243586720159907 -36.71174502922461" fill="#7aff26" stroke="none" /><path d="M 92.06813273071674 119.44442032107085 l -7.440397428264674 18.23961622646593 a40.69880996353046,40.69880996353046 0 0,0 -0.646391175586974,-0.27019156381923265 l 7.753260063349111 -18.108839619626725" fill="#ff4406" stroke="none" /><path d="M 91.7346041902142 119.30500536409082 l -7.784432933281591 18.181648283011985 a40.778011284755394,40.778011284755394 0 0,0 -0.6428931649978927,-0.2818254706465163 l 8.096246772937226 -18.044958259071016" fill="#ff4606" stroke="none" /><path d="M 91.07499286063937 119.00905698771935 l -8.29509311796829 17.667425396501564 a40.51785054704317,40.51785054704317 0 0,0 -0.6287740101495634,-0.3018497354054653 l 8.597979796118096 -17.522021384596535" fill="#ff4106" stroke="none" /><path d="M 90.7491055286396 118.85261126421891 l -7.950537496843304 16.20258378620776 a39.04812366529535,39.04812366529535 0 0,0 -0.6008689797505008,-0.3012881802823039 l 8.228260384276565 -16.063327765016155" fill="#ff2503" stroke="none" /><path d="M 90.42595943632237 118.69057910512821 l -8.864323957983178 17.305060183129847 a40.443285400719205,40.443285400719205 0 0,0 -0.616873916455606,-0.32271927782777 l 9.16088877696528 -17.14991148635736" fill="#ff3f05" stroke="none" /><line stroke="#e1ed5e" stroke-width="0.3" x1="58.666819895761336" x2="56.23545636021788" y1="174.27360380694188" y2="178.64263932499728" /><path d="M 58.180547188652646 175.14741091055294 a86.0,86.0 0 0,1 -31.652253787137756,-30.449443065178592" fill="none" id="id68" stroke="none" /><text fill="#e1ed5e" style="font-size:6.75px; font-family:Arial;" text-anchor="middle"><textPath startOffset="22.20632615414155" xlink:href="#id68">August</textPath></text><path d="M 89.7882731507175 118.34994917583269 l -11.50848090687376 20.68014967977846 a44.666721859225014,44.666721859225014 0 0,0 -0.6686209092397547,-0.3796604022001583 l 11.862750583034723 -20.47898611178367" fill="#ff8c0c" stroke="none" /><path d="M 89.4739219176387 118.17145234162733 l -10.132037438795365 17.49120935661462 a41.2138711635865,41.2138711635865 0 0,0 -0.610813374543095,-0.3608793081362739 l 10.431618684366843 -17.314211476184592" fill="#ff4e07" stroke="none" /><path d="M 89.1626897886671 117.98757091392108 l -10.516707773721437 17.45544080328886 a41.37875256326978,41.37875256326978 0 0,0 -0.6069293557305423,-0.37282558158216444 l 10.815616329384287 -17.27182675487832" fill="#ff5107" stroke="none" /><path d="M 88.54995079064634 117.60387380957326 l -10.7301523823258 16.497068706189236 a40.67967088252901,40.67967088252901 0 0,0 -0.5837054325636789,-0.38684813221880554 l 11.01253251362944 -16.30992255287911" fill="#ff4406" stroke="none" /><path d="M 88.24862548938628 117.40417183066458 l -10.915876208083878 16.166771387990885 a40.50694364839793,40.50694364839793 0 0,0 -0.5745102043163746,-0.39515335719253003 l 11.192543297023143 -15.976477241433253" fill="#ff4106" stroke="none" /><path d="M 87.65650970185807 116.9893568818739 l -12.250680524312509 16.86161518713206 a41.84210258173806,41.84210258173806 0 0,0 -0.5790449466448225,-0.4283636085182765 l 12.539110441375897 -16.64824162987402" fill="#ff5908" stroke="none" /><path d="M 87.36589467227662 116.77436683061367 l -12.020277086956348 15.95938390823592 a40.979714612017546,40.979714612017546 0 0,0 -0.559804896986834,-0.4292345237040978 l 12.29321071243667 -15.750110042704454" fill="#ff4906" stroke="none" /><path d="M 87.07902340077011 116.55440617244103 l -12.070600770814796 15.464901307642469 a40.61791465532248,40.61791465532248 0 0,0 -0.5474569716492781,-0.4349329280864766 l 12.335015235181432 -15.25483446555086" fill="#ff4306" stroke="none" /><path d="M 86.51685102203217 116.09983520530335 l -12.58739789128053 15.030244940877548 a40.60486798364602,40.60486798364602 0 0,0 -0.5319905238729514,-0.453373865732474 l 12.844253891730538 -14.811346684922123" fill="#ff4206" stroke="none" /><path d="M 86.24171649860922 115.8653595955263 l -12.961564483035138 14.946623350446798 a40.78392537966112,40.78392537966112 0 0,0 -0.5264188025068688,-0.4645033875476552 l 13.216925638448595 -14.721296821126854" fill="#ff4606" stroke="none" /><path d="M 85.44109423537348 115.13401014063109 l -13.66586015227645 14.205687533708938 a40.711856635206914,40.711856635206914 0 0,0 -0.5008528619321687,-0.4901899409544365 l 13.908362966584413 -13.968347489831931" fill="#ff4406" stroke="none" /><path d="M 85.18274418774928 114.88116024355367 l -13.8744975654735 13.934336032715356 a40.663860337353896,40.663860337353896 0 0,0 -0.4917604073382613,-0.4981506963441384 l 14.112298597867296 -13.693444842390551" fill="#ff4306" stroke="none" /><path d="M 84.43433777217949 114.09645910891817 l -14.619431071485423 13.239540295722934 a40.723417353389465,40.723417353389465 0 0,0 -0.46607204633164034,-0.5236368848494424 l 14.845161967465401 -12.985929241132627" fill="#ff4506" stroke="none" /><path d="M 83.72743513129214 113.27417163493432 l -15.216117156082808 12.412385655043364 a40.63663766934563,40.63663766934563 0 0,0 -0.4374864710169405,-0.5458316392136965 l 15.42752153915461 -12.148626182251409" fill="#ff4306" stroke="none" /><path d="M 83.50135304334701 112.99209946851258 l -25.83155242817783 20.341431600707885 a53.879217454434304,53.879217454434304 0 0,0 -0.5675102664069583,-0.7335835204847668 l 26.177869511802857 -19.893770086109868" fill="#daff1c" stroke="none" /><path d="M 82.44556493220864 111.52570212397912 l -16.45476287157222 10.803691183798035 a40.68448537184925,40.68448537184925 0 0,0 -0.3793249700864672,-0.58872077727699 l 16.638292705035735 -10.518848806599596" fill="#ff4406" stroke="none" /><path d="M 82.24976979558568 111.22182372390057 l -16.643040388021895 10.521850326070282 a40.690102276056194,40.690102276056194 0 0,0 -0.3691858713864807,-0.595245176015575 l 16.821690899076334 -10.233808818689443" fill="#ff4406" stroke="none" /><path d="M 82.05923443525364 110.91462005526583 l -16.96410150348107 10.320447130377367 a40.85679653900203,40.85679653900203 0 0,0 -0.3603552417490222,-0.6039761127661416 l 17.139237620928323 -10.026908923725115" fill="#ff4706" stroke="none" /><line stroke="#e1ed5e" stroke-width="0.3" x1="26.63291911575756" x2="22.317208475507996" y1="142.92168965132927" y2="145.44649492493687" /><path d="M 25.769776987707644 143.4266507060508 a86.0,86.0 0 0,1 -11.730757126820373,-40.83630448921669" fill="none" id="id69" stroke="none" /><text fill="#e1ed5e" style="font-size:6.75px; font-family:Arial;" text-anchor="middle"><textPath startOffset="21.46611528233685" xlink:href="#id69">September</textPath></text><path d="M 81.69416730710424 110.29060199501025 l -18.423628643537477 10.356820848039984 a42.13513261073538,42.13513261073538 0 0,0 -0.3499695770571886,-0.6352964378941022 l 18.599174630046182 -10.03815389174806" fill="#ff5e08" stroke="none" /><path d="M 81.51974371655577 109.97397251340807 l -17.39986989722783 9.39087756306172 a40.77230522333881,40.77230522333881 0 0,0 -0.32801803339868896,-0.6204865023668854 l 17.558940438851405 -9.089976045608708" fill="#ff4506" stroke="none" /><path d="M 81.02952815118164 109.00673069616217 l -17.86153403641463 8.480233289312805 a40.77242409961832,40.77242409961832 0 0,0 -0.29555228004445155,-0.6365933176505706 l 18.004860933298907 -8.171519904383407" fill="#ff4506" stroke="none" /><path d="M 80.73074385275274 108.34839909993369 l -18.05531676190717 7.822460247156799 a40.67702588530987,40.67702588530987 0 0,0 -0.27282472304576383,-0.644877054159844 l 18.187292466145244 -7.510508667330797" fill="#ff4406" stroke="none" /><path d="M 80.58989483394504 108.01547362559985 l -18.2565969059393 7.539128188170784 a40.752007098612125,40.752007098612125 0 0,0 -0.26216617251366064,-0.6506749400875775 l 18.383665692710352 -7.223753880240401" fill="#ff4506" stroke="none" /><path d="M 80.45479744820244 107.68017299344265 l -18.473450862729088 7.259034437510766 a40.84847519943619,40.84847519943619 0 0,0 -0.25152102443665586,-0.6566420265776133 l 18.595666166759255 -6.939968844099995" fill="#ff4706" stroke="none" /><path d="M 80.32549172779594 107.34259656027581 l -18.480701419723832 6.897063591045825 a40.72576515990983,40.72576515990983 0 0,0 -0.2394592356784548,-0.6588889729376612 l 18.59668491640751 -6.5779268211020465" fill="#ff4506" stroke="none" /><path d="M 80.0844068197444 106.66101706037122 l -29.37236935597388 9.8239531011125 a51.9716989543133,51.9716989543133 0 0,0 -0.27645911909749943,-0.8508536795483503 l 29.537120726087633 -9.316900521586346" fill="#f8ff18" stroke="none" /><path d="M 79.97269907076064 106.31721596034903 l -46.67127469699611 14.721530497164974 a69.93803573930433,69.93803573930433 0 0,0 -0.35226532212989625,-1.1512234546556384 l 46.91776679163213 -13.915980069957287" fill="#36ff6e" stroke="none" /><path d="M 79.76711848015287 105.62410040840567 l -28.81804840105117 8.010504960592037 a50.91066872152807,50.91066872152807 0 0,0 -0.22742989369015143,-0.8463512404181878 l 28.951666371083096 -7.51326278699831" fill="#fff517" stroke="none" /><path d="M 79.67330655649465 105.27499134158121 l -28.95842643057675 7.515017093737708 a50.91765270294941,50.91765270294941 0 0,0 -0.21285684809393282,-0.8502572993407858 l 29.083494592965742 -7.01543195499953" fill="#fff517" stroke="none" /><path d="M 79.58551787078972 104.9243191809786 l -28.835383420257394 6.955583333856472 a50.66242533083694,50.66242533083694 0 0,0 -0.1971960940537199,-0.8495156120821531 l 28.95084008024167 -6.458199064425745" fill="#fff116" stroke="none" /><path d="M 79.35854240842038 103.8639653848113 l -21.94523252938523 4.108024759345022 a43.32642152679599,43.32642152679599 0 0,0 -0.13091502793272214,-0.7342410009150258 l 22.01269399965714 -3.7296650076967826" fill="#ff740a" stroke="none" /><path d="M 79.29508885075956 103.50808413554451 l -19.380367862579817 3.283663501363398 a40.65657916523378,40.65657916523378 0 0,0 -0.1109697043534523,-0.6910084549378134 l 19.43401932129456 -2.949575816732371" fill="#ff4306" stroke="none" /><path d="M 79.18660465613746 102.79330883721812 l -22.891857125909006 3.0722535056728315 a44.097096446872925,44.097096446872925 0 0,0 -0.09449060889073609,-0.7531831229985293 l 22.941349244046588 -2.677752628386894" fill="#ff820b" stroke="none" /><path d="M 79.10278846688536 102.07522291339032 l -19.55530923906415 1.9419636800360565 a40.65149720428464,40.65149720428464 0 0,0 -0.06315578610624427,-0.6969188369956381 l 19.58583962144747 -1.605063454491852" fill="#ff4306" stroke="none" /><path d="M 79.07016306316243 101.71520430193888 l -19.67120381457043 1.6120590671054573 a40.737147563673105,40.737147563673105 0 0,0 -0.051257887087191936,-0.6993731447237949 l 19.696038260321956 -1.2732127858849018" fill="#ff4506" stroke="none" /><path d="M 79.04373962182676 101.35467743843564 l -62.86878113451971 4.064032315306924 a84.0,84.0 0 0,0 -0.08085459644987347,-1.4437131346582497 l 62.92942208185711 -2.9812474643132365" fill="#4dd2ff" stroke="none" /><path d="M 79.0235259727143 100.99374915477108 l -19.73682570449497 0.9350214834100935 a40.75896136096358,40.75896136096358 0 0,0 -0.027168501250181214,-0.7010982967455903 l 19.74999633859635 -0.5951459396505063" fill="#ff4506" stroke="none" /><path d="M 79.0095281055655 100.63252640178507 l -19.683574648832366 0.5931443899646206 a40.692509520716314,40.692509520716314 0 0,0 -0.015071608963898515,-0.7003184458020961 l 19.690868320481272 -0.25423612837239556" fill="#ff4406" stroke="none" /><line stroke="#e1ed5e" stroke-width="0.3" x1="15.007084014347285" x2="10.007500721073583" y1="101.09737516637583" y2="101.16192664675087" /><path d="M 14.007167355692545 101.11028546245083 a86.0,86.0 0 0,1 10.666146001902534,-42.60595125391555" fill="none" id="id70" stroke="none" /><text fill="#e1ed5e" style="font-size:6.75px; font-family:Arial;" text-anchor="middle"><textPath startOffset="22.20632615414155" xlink:href="#id70">October</textPath></text><path d="M 79.08570108090925 98.10471618934814 l -19.5431222759804 -1.7710258136095132 a40.623204649760766,40.623204649760766 0 0,0 0.0691036968613575,-0.6958647968438338 l 19.509741453436813 2.1071661411577773" fill="#ff4306" stroke="none" /><path d="M 79.12142395522702 97.74499172005258 l -19.633544353207977 -2.120537578149783 a40.74772755254969,40.74772755254969 0 0,0 0.08132013703015674,-0.6967012727035963 l 19.594133863174232 2.4581825891782407" fill="#ff4506" stroke="none" /><path d="M 79.26566170972629 96.67025291283419 l -19.45450933219802 -3.124218138734308 a40.70377304820009,40.70377304820009 0 0,0 0.11704881349924386,-0.690828723025985 l 19.397848657178553 3.4586326500761206" fill="#ff4406" stroke="none" /><path d="M 79.32604984820605 96.31383870115002 l -38.32028982201471 -6.832500236553412 a59.924640929952155,59.924640929952155 0 0,0 0.1898021005436783,-1.0139304105997908 l 38.19700199756117 7.491108724615775" fill="#80ff25" stroke="none" /><path d="M 79.3925641242962 95.95851677861259 l -19.365040949257285 -3.797827568163209 a40.73393790412628,40.73393790412628 0 0,0 0.14086320241678765,-0.6868990015323536 l 19.2967984509255 4.130602225858966" fill="#ff4506" stroke="none" /><path d="M 79.46518482838121 95.60439243477599 l -19.17802719350259 -4.105178484116168 a40.61247606553479,40.61247606553479 0 0,0 0.15221094400490442,-0.6823318164071646 l 19.104521862495645 4.434688470073292" fill="#ff4206" stroke="none" /><path d="M 79.54389044137918 95.25157060432595 l -19.29625347043424 -4.479194684737741 a40.80930546533695,40.80930546533695 0 0,0 0.16472812131417336,-0.6829044107734427 l 19.21629254885925 4.81068432717058" fill="#ff4606" stroke="none" /><path d="M 79.81627453868168 94.20196356495316 l -20.961977023223962 -6.021599271363106 a42.80972577789666,42.80972577789666 0 0,0 0.2095517788682248,-0.7065044245741968 l 20.85521934724403 6.381533082683842" fill="#ff6b09" stroke="none" /><path d="M 79.91906864156998 93.8553929516997 l -29.448491725190646 -9.011006839603418 a51.7962970038932,51.7962970038932 0 0,0 0.26821729810889516,-0.8503221319914375 l 29.289018943313547 9.51657913802127" fill="#fbff18" stroke="none" /><path d="M 80.2630227832202 92.82701384747504 l -18.55817788209106 -6.7445765125148665 a40.74576609393773,40.74576609393773 0 0,0 0.24524180344093763,-0.6571261066681455 l 18.439331490148493 7.063025756212353" fill="#ff4506" stroke="none" /><path d="M 80.38941819471856 92.48833698450439 l -18.503162870022106 -7.087475811809149 a40.814119954657194,40.814119954657194 0 0,0 0.2569471387575268,-0.6539024415737187 l 18.378422181382888 7.404927258278631" fill="#ff4606" stroke="none" /><path d="M 80.65960295795068 91.81776055985345 l -21.231610265640725 -8.982345011617094 a44.05349857136186,44.05349857136186 0 0,0 0.30147128612556623,-0.6958372933368454 l 21.073848269672478 9.346481449540537" fill="#ff810b" stroke="none" /><path d="M 80.803312248108 91.48605970444005 l -32.504649309678705 -14.416166326581145 a56.558094413239424,56.558094413239424 0 0,0 0.4023642029669512,-0.8865561858414592 l 32.25168278974841 14.973544521264675" fill="#b1ff20" stroke="none" /><path d="M 80.95270993114464 91.15688171328213 l -18.611390949950128 -8.640742649258664 a41.51941292100247,41.51941292100247 0 0,0 0.3065354652334449,-0.6456418660717067 l 18.45989729087493 8.959826930970902" fill="#ff5307" stroke="none" /><path d="M 81.10775173730289 90.83032412892265 l -18.537726347765314 -8.997602595101126 a41.6059251334174,41.6059251334174 0 0,0 0.3182654892615928,-0.6416038055279663 l 18.38010084555031 9.315365989128054" fill="#ff5507" stroke="none" /><path d="M 81.26839172434947 90.50648371742162 l -29.539852047545036 -14.971328797371289 a54.117118608807885,54.117118608807885 0 0,0 0.42827402939710113,-0.8272891079095303 l 29.27776858498782 15.477590627541156" fill="#d6ff1c" stroke="none" /><line stroke="#e1ed5e" stroke-width="0.3" x1="26.266209847984243" x2="21.928928074336255" y1="57.711370442889674" y2="55.22380399835377" /><path d="M 25.398753493254645 57.213857153982495 a86.0,86.0 0 0,1 29.58750427330803,-30.492523968695096" fill="none" id="id71" stroke="none" /><text fill="#e1ed5e" style="font-size:6.75px; font-family:Arial;" text-anchor="middle"><textPath startOffset="21.46611528233685" xlink:href="#id71">November</textPath></text><path d="M 85.31137513191541 84.99185889309783 l -15.561273660800012 -15.899772306926742 a43.24760655347947,43.24760655347947 0 0,0 0.536510770516114,-0.5161229361595697 l 15.285279646671471 16.165278329848626" fill="#ff730a" stroke="none" /><path d="M 85.57189188830299 84.74124197986013 l -14.499307662493965 -15.334056646151167 a42.10363039666467,42.10363039666467 0 0,0 0.5308909234596219,-0.49340525477272595 l 14.233208855239488 15.58136648699854" fill="#ff5e08" stroke="none" /><path d="M 85.83668400450813 84.49514656593479 l -13.439873785319618 -14.712887383155438 a40.92734961089246,40.92734961089246 0 0,0 0.5242384453403985,-0.4706664523560382 l 13.18462435238325 14.942052844280756" fill="#ff4806" stroke="none" /><path d="M 86.37877921826538 84.01681056812374 l -19.483563718938235 -22.862083708782254 a51.03804465502529,51.03804465502529 0 0,0 0.6735623525945057,-0.5640890996816329 l 19.08714382938462 23.1940739658577" fill="#fff717" stroke="none" /><path d="M 86.65592168130627 83.78471172551755 l -19.09042972489442 -23.198066878793217 a51.04321577318406,51.04321577318406 0 0,0 0.6832416419133772,-0.5524672248226621 l 18.688284684416544 23.523240200880014" fill="#fff717" stroke="none" /><path d="M 86.93701828274178 83.55741782278169 l -18.5835762943742 -23.391442090373523 a50.87488696139493,50.87488696139493 0 0,0 0.6903660259019888,-0.538841633620951 l 18.178177713312785 23.707862113217697" fill="#fff517" stroke="none" /><path d="M 87.22198572758235 83.33499621200491 l -17.79455717379128 -23.2075466801634 a50.24442661300252,50.24442661300252 0 0,0 0.6908700684147042,-0.520349012291362 l 17.392440951618184 23.510412281960615" fill="#ffea16" stroke="none" /><path d="M 87.80319425747018 82.90503203632743 l -17.367895665891133 -24.342735817257815 a50.90338754940795,50.90338754940795 0 0,0 0.7176622830040242,-0.5027682920194485 l 16.94630224330345 24.638088952041205" fill="#fff517" stroke="none" /><path d="M 88.09926311788651 82.69761687909137 l -25.3313873360363 -36.82909495553818 a65.69968030771975,65.69968030771975 0 0,0 0.9373007523420931,-0.632869652001793 l 24.693681889287667 37.25967651983864" fill="#32ff2f" stroke="none" /><path d="M 88.39885842347998 82.49532879139004 l -12.674656428644893 -19.12447081195574 a43.94324082211439,43.94324082211439 0 0,0 0.634107188714412,-0.4124409543788279 l 12.343582214146194 19.3398106904941" fill="#ff7f0b" stroke="none" /><path d="M 88.70189139769569 82.29822771554957 l -13.102564685899324 -20.52897742235956 a45.35397535015433,45.35397535015433 0 0,0 0.661694733860415,-0.41435318163940216 l 12.747250799666668 20.751474945321892" fill="#ff980e" stroke="none" /><path d="M 89.00827224532344 82.1063720568725 l -15.59282025227075 -25.38382776624788 a50.79051452201122,50.79051452201122 0 0,0 0.7488890463018114,-0.45119727102011575 l 15.153569139751289 25.648471646726613" fill="#fff316" stroke="none" /><line stroke="#e1ed5e" stroke-width="0.3" x1="56.762969772571076" x2="54.21961505331055" y1="26.818313649435495" y2="22.513508569990535" /><path d="M 56.25429882871897 25.957352633546506 a86.0,86.0 0 0,1 42.265352541879196,-11.944610805530505" fill="none" id="id72" stroke="none" /><text fill="#e1ed5e" style="font-size:6.75px; font-family:Arial;" text-anchor="middle"><textPath startOffset="22.20632615414155" xlink:href="#id72">December</textPath></text><path d="M 89.3179101791058 81.91981866633112 l -10.885839810784075 -18.425042388547524 a42.40055362381601,42.40055362381601 0 0,0 0.6315729389909075,-0.3658478114759919 l 10.567070139327848 18.609694357413563" fill="#ff6309" stroke="none" /><path d="M 89.63071344664047 81.73862282372117 l -14.584595087278446 -25.684967859799926 a50.53689197967216,50.53689197967216 0 0,0 0.7601612756926942,-0.42302892691383653 l 14.140309722513706 25.932212184273947" fill="#ffef16" stroke="none" /><path d="M 90.26544431104013 81.39251694778311 l -13.675840014366582 -26.14119939554693 a50.502388139543775,50.502388139543775 0 0,0 0.7737435112199912,-0.3963414788078999 l 13.223836015557827 26.372733399667336" fill="#ffef16" stroke="none" /><path d="M 91.23893434514133 80.91482961587045 l -19.43426909783116 -42.33575590401332 a67.5833343947287,67.5833343947287 0 0,0 1.0614377227152858,-0.47623616601537405 l 18.7026492566491 42.66401240054522" fill="#32ff49" stroke="none" /><path d="M 91.56875222667455 80.76684994638697 l -12.694712410985032 -28.95885819657717 a52.61915861067594,52.61915861067594 0 0,0 0.832676240844551,-0.35650851072990464 l 12.194352412350174 29.173086235269864" fill="#edff19" stroke="none" /><path d="M 91.90106846888425 80.62456947434976 l -11.151006813139475 -26.677044616189175 a49.913831679679376,49.913831679679376 0 0,0 0.7955697425637709,-0.3245328735583583 l 10.690153200987323 26.86503837593111" fill="#ffe515" stroke="none" /><path d="M 92.23578459929587 80.48803036053334 l -11.045665719494213 -27.758464061535822 a50.87539218558286,50.87539218558286 0 0,0 0.8164696977993016,-0.31677755812831343 l 10.566212856695236 27.94448432355469" fill="#fff517" stroke="none" /><path d="M 92.57280143429618 80.3572730644239 l -10.497933885367326 -27.76390679120901 a50.68233710765521,50.68233710765521 0 0,0 0.8186830722890189,-0.30152788467470515 l 10.018468487305737 27.940497943690037" fill="#fff216" stroke="none" /><path d="M 93.25333710446033 80.11325718540243 l -9.521722195362365 -28.066622474409268 a50.63778822190805,50.63778822190805 0 0,0 0.8278486923920019,-0.2729286981232097 l 9.037190680727953 28.226364896791715" fill="#fff116" stroke="none" /><path d="M 93.59665428221793 80.00007090966166 l -9.00725897669899 -28.132877525577342 a50.53962613410094,50.53962613410094 0 0,0 0.8308103904391796,-0.2581368324872033 l 8.521663213549083 28.28375449294707" fill="#ffef16" stroke="none" /><path d="M 94.28887869178378 79.79150937346287 l -5.07379619484069 -17.95335054376957 a39.65653246383826,39.65653246383826 0 0,0 0.658491265533732,-0.17999053752203414 l 4.764007040083235 18.038027622117898" fill="#ff3104" stroke="none" /><path d="M 95.33964822691252 79.52364482259891 l -5.581016214237888 -24.521511640710255 a46.14860384055295,46.14860384055295 0 0,0 0.7760816769737162,-0.16962139515294591 l 5.158091813110651 24.61394653395907" fill="#ffa60f" stroke="none" /><path d="M 95.692805502759 79.44645832069477 l -4.894741184610627 -23.357261208368676 a44.86462114554278,44.86462114554278 0 0,0 0.7572156552624458,-0.15189033693061013 l 4.491959119881045 23.438055501376496" fill="#ff8f0d" stroke="none" /><path d="M 96.04723909329186 79.375362276772 l -4.4032395051811575 -22.97513604955126 a44.393276697277315,44.393276697277315 0 0,0 0.7517364658943356,-0.13737503416362598 l 4.007107918183928 23.04752656506562" fill="#ff870c" stroke="none" /><path d="M 97.11714578562143 79.19881850522333 l -3.52439419926798 -25.43020144149554 a46.67326430017959,46.67326430017959 0 0,0 0.7967465630511614,-0.10344057066351399 l 3.086132907708961 25.48710033532319" fill="#ffaf10" stroke="none" /><path d="M 97.83486435360386 79.11191278185805 l -2.7116277391102144 -26.16035480822892 a47.300514989025174,47.300514989025174 0 0,0 0.8105841342972289,-0.07697473066197506 l 2.260918477722749 26.203155083406074" fill="#ffb911" stroke="none" /><path d="M 98.19473922651362 79.07773832637324 l -2.5649977074082355 -29.72731364622027 a50.83776784311728,50.83776784311728 0 0,0 0.872496680075215,-0.06772253458738256 l 2.0529108379706864 29.767061442996113" fill="#fff417" stroke="none" /><path d="M 98.55514903715128 79.0497635885617 l -1.6434365127461374 -23.829712790125605 a44.88631606655373,44.88631606655373 0 0,0 0.771270777361541,-0.04652515953957616 l 1.2330036865449734 23.854471219045486" fill="#ff900d" stroke="none" /><path d="M 98.91598698831166 79.02799685794201 l -1.965715034619792 -38.0299696017758 a59.080738221695775,59.080738221695775 0 0,0 1.0160738208558042,-0.04375427609411473 l 1.3108003813746636 38.058171604394104" fill="#8cff24" stroke="none" /></svg>