<?xml version="1.0" encoding="utf-8" ?>
<svg baseProfile="full" height="200mm" version="1.1" viewBox="0,0,200,200" width="200mm" xmlns="http://www.w3.org/2000/svg" xmlns:ev="http://www.w3.org/2001/xml-events" xmlns:xlink="http://www.w3.org/1999/xlink"><defs /><rect fill="#1a1a1a" height="200" width="200" x="0" y="0" /><text alignment-baseline="middle" fill="#e1ed5e" style="dominant-baseline: central; font-size:9.0px; font-family:Arial;" text-anchor="middle" x="100.0" y="100.0">2024</text><line stroke="#e1ed5e" stroke-width="0.3" x1="100.0" x2="100.0" y1="15.0" y2="10.0" /><path d="M 100.0 14.0 a86.0,86.0 0 0,1 42.35913384403234,11.155469271406648" fill="none" id="id97" stroke="none" /><text fill="#e1ed5e" style="font-size:6.75px; font-family:Arial;" text-anchor="middle"><textPath startOffset="22.145653131862478" xlink:href="#id97">January</textPath></text><path d="M 100.36049292484886 79.00309439819443 l 0.51020710178703 -29.717005841611606 a50.721385355953586,50.721385355953586 0 0,0 0.8704434273415688,0.0224195350129164 l -1.02026384319934 29.703868589248646" fill="#ffaf10" stroke="none" /><path d="M 101.08105385017728 79.02784411241856 l 1.494136732140991 -28.985853441698442 a50.02433710385053,50.02433710385053 0 0,0 0.8572162017928682,0.05156799804425009 l -1.9914972860663218 28.955933465829503" fill="#ffa20e" stroke="none" /><path d="M 101.44090949804482 79.04949213459386 l 2.0282666222782018 -29.490551544590197 a50.5602181300338,50.5602181300338 0 0,0 0.8653766679457864,0.06698562712355778 l -2.5342122849992217 29.451388150471587" fill="#ffac0f" stroke="none" /><path d="M 101.80034050326958 79.07731436759882 l 2.468121222390653 -28.683309821089374 a49.78930156605084,49.78930156605084 0 0,0 0.8509239081338527,0.08058337880252743 l -2.9601446939095184 28.636714686781662" fill="#ff9d0e" stroke="none" /><path d="M 102.15924093988457 79.11130261209362 l 2.175738664204503 -21.0482979051727 a42.160450927137916,42.160450927137916 0 0,0 0.719265520929282,0.08059520186443463 l -2.5367400867345813 21.007846942801294" fill="#ff0000" stroke="none" /><path d="M 102.87502721639298 79.19773525538626 l 3.9742695198172466 -28.755834465250786 a50.029172120628125,50.029172120628125 0 0,0 0.8497214134600065,0.12487978601470481 l -4.467316038884936 28.6833736059372" fill="#ffa20e" stroke="none" /><path d="M 103.58742460773223 79.30868818359171 l 4.987725348390616 -28.767874373084844 a50.1970546476279,50.1970546476279 0 0,0 0.8477691315025366,0.1544917764353907 l -5.480829213444206 28.67801442271809" fill="#ffa50f" stroke="none" /><path d="M 103.94208987418118 79.37332000966035 l 5.333542265143712 -27.907346871669663 a49.41243886944176,49.41243886944176 0 0,0 0.8317843237540196,0.16638016022941984 l -5.8118230744286885 27.811677314777384" fill="#ff960d" stroke="none" /><path d="M 104.29559338865022 79.4440306129975 l 5.88605396994798 -28.166899021723864 a49.775333739804466,49.775333739804466 0 0,0 0.8348925365945145,0.1819609424815381 l -6.368708923161629 28.06170662110861" fill="#ff9d0e" stroke="none" /><path d="M 104.9986988182912 79.60360301121754 l 6.856903866792107 -27.978507700693815 a49.80649273681563,49.80649273681563 0 0,0 0.8286726154881533,0.21064533835803353 l -7.336181775505655 27.85667713050051" fill="#ff9d0e" stroke="none" /><path d="M 105.3480935250658 79.69241777938227 l 7.013912959702078 -26.632969945239253 a48.54106140130213,48.54106140130213 0 0,0 0.8039754273211412,0.21912707783630006 l -7.470069787957912 26.50864237325881" fill="#ff840c" stroke="none" /><path d="M 106.04205211174951 79.88797359093562 l 8.335718025604418 -27.74689426187798 a49.9719577554266,49.9719577554266 0 0,0 0.8194434165154446,0.2538656651110007 l -8.810802074991493 27.59971200896033" fill="#ffa10e" stroke="none" /><path d="M 106.72888874123014 80.10723608172694 l 20.185030902237465 -59.67345721752114 a83.99489637117921,83.99489637117921 0 0,0 1.3618941615268265,0.47373748487815615 l -21.20643083580931 59.318161300074394" fill="#4dd2ff" stroke="none" /><path d="M 108.07796709384702 80.6158196554323 l 13.0255449936041 -31.256566201491918 a54.86204000187602,54.86204000187602 0 0,0 0.8662061032961373,0.36973187769835375 l -13.560186172070669 31.028359674134162" fill="#fffc17" stroke="none" /><path d="M 108.73861861582097 80.90454125486305 l 11.919692041483911 -26.046678272560122 a49.644519674766244,49.644519674766244 0 0,0 0.7718807603923475,0.361279170408027 l -12.365061515747763 25.83822287058156" fill="#ff9a0e" stroke="none" /><path d="M 109.06512990194946 81.05736502329252 l 18.120481140797285 -37.86483630848126 a62.97734705102349,62.97734705102349 0 0,0 0.9711699224352258,0.4750478750084981 l -18.767811312494576 37.54819468337554" fill="#79ff26" stroke="none" /><path d="M 109.3889696526874 81.21577127319529 l 16.17988895784447 -32.37061639361672 a57.189026132114485,57.189026132114485 0 0,0 0.8743733098920352,0.44646124218736555 l -16.733189489450083 32.08809719975652" fill="#d9ff1c" stroke="none" /><path d="M 109.71004243097381 81.37971332152246 l 14.297968030194648 -27.418238955649027 a51.92234980109917,51.92234980109917 0 0,0 0.7867748770167744,0.4189133067402467 l -14.766531722997982 27.168755181186206" fill="#ffc612" stroke="none" /><path d="M 110.34350942703115 81.72400993836675 l 22.216412956621 -39.254272958775246 a66.10506568204009,66.10506568204009 0 0,0 0.9827856865960035,0.5674115807119139 l -22.8869911110774 38.86711448078716" fill="#49ff2c" stroke="none" /><line stroke="#e1ed5e" stroke-width="0.3" x1="143.13028292997686" x2="145.6673583964461" y1="26.7553504044142" y2="22.446841604673864" /><path d="M 143.63769802327073 25.89364864446614 a86.0,86.0 0 0,1 29.32050498858742,28.57503671076993" fill="none" id="id98" stroke="none" /><text fill="#e1ed5e" style="font-size:6.75px; font-family:Arial;" text-anchor="middle"><textPath startOffset="20.669276256404974" xlink:href="#id98">February</textPath></text><path d="M 110.65571695917076 81.90426304109057 l 14.536569792398343 -24.68627350519829 a49.64828024337103,49.64828024337103 0 0,0 0.7306979579277468,0.4387631290780332 l -14.958200506883525 24.433096375584338" fill="#ff9a0e" stroke="none" /><path d="M 111.27062007382361 82.28071324371311 l 20.60940707260305 -32.40141104965936 a59.40050908377711,59.40050908377711 0 0,0 0.8556908309090822,0.554648458431941 l -21.16258353576914 32.04284874952352" fill="#b3ff20" stroke="none" /><path d="M 111.5731344415666 82.4767994020092 l 16.6227216741517 -25.168919263094633 a51.1627149429306,51.1627149429306 0 0,0 0.7287122833555036,0.4903101456375 l -17.052330245604203 24.879859443400015" fill="#ffb711" stroke="none" /><path d="M 111.8722381534696 82.67804972795209 l 16.716267632985897 -24.38953404823705 a50.5682764913298,50.5682764913298 0 0,0 0.7118205124628382,0.49690600046598293 l -17.132483236622498 24.098983231965942" fill="#ffac0f" stroke="none" /><path d="M 112.16784306229584 82.88440491214696 l 16.283469845610885 -22.904739572648232 a49.10299779567576,49.10299779567576 0 0,0 0.6828098954239294,0.494301707489308 l -16.67426075140878 22.62183709378585" fill="#ff900d" stroke="none" /><path d="M 112.45986205192187 83.09580414077388 l 16.9683070995956 -23.02076743833757 a49.598587015379096,49.598587015379096 0 0,0 0.6810287771492303,0.5110566907008633 l -17.360988865655596 22.726091720372693" fill="#ff990e" stroke="none" /><path d="M 112.7482090630111 83.31218511350987 l 17.70032291747802 -23.17029088697765 a50.15756867727755,50.15756867727755 0 0,0 0.6797307260394702,0.5285627238828325 l -18.095463588152715 22.863027111474025" fill="#ffa40f" stroke="none" /><path d="M 113.31354834802062 83.75963576809568 l 39.94064504406186 -48.72109269571298 a84.0,84.0 0 0,0 1.1073026633524292,0.9237512643525192 l -40.77112204157618 48.028279247448594" fill="#4dd2ff" stroke="none" /><path d="M 113.59037401385872 83.9905735841838 l 18.484412912338325 -21.774591932339394 a49.56232438954714,49.56232438954714 0 0,0 0.6438866249580063,0.5561739310039857 l -18.855479017059192 21.45407386887069" fill="#ff990e" stroke="none" /><path d="M 114.65682725009322 84.96080404539774 l 27.379212520274194 -28.093484022777474 a60.2283714009184,60.2283714009184 0 0,0 0.734235700764219,0.7279602196631242 l -27.857440141168375 27.61934379288569" fill="#a5ff21" stroke="none" /><path d="M 114.91283532996326 85.21462403516908 l 20.078621802778155 -19.907010681814974 a49.27437227923714,49.27437227923714 0 0,0 0.5903848776411724,0.6057868945288251 l -20.417393481570137 19.559401095218405" fill="#ff930d" stroke="none" /><path d="M 115.16444852881244 85.47280134310134 l 20.579745714059605 -19.714930861387238 a49.499200559395234,49.499200559395234 0 0,0 0.5825446977606376,0.618642281558739 l -20.915146245556503 19.358747119884004" fill="#ff970e" stroke="none" /><path d="M 115.41159269507618 85.73525988315684 l 20.878677112722443 -19.324991834985337 a49.4495073314033,49.4495073314033 0 0,0 0.5712649605159463,0.6279202624986042 l -21.207339774080264 18.96373399692906" fill="#ff960d" stroke="none" /><path d="M 115.6541949942343 86.00192230759917 l 32.93942603396254 -29.45463787414969 a65.18802416655652,65.18802416655652 0 0,0 0.7387632625733569,0.8405769799068529 l -33.44020036049449 28.884848616431537" fill="#57ff2a" stroke="none" /><path d="M 116.1254893667686 86.54754324733833 l 24.745038145151064 -20.64319090846386 a53.22511821061742,53.22511821061742 0 0,0 0.5792747649255552,0.7066210244499052 l -25.095759729315247 20.21536760231546" fill="#ffde14" stroke="none" /><path d="M 116.57777611688842 87.10902102172516 l 23.206440953090123 -18.045468848026125 a50.39690200776843,50.39690200776843 0 0,0 0.5252029691366138,0.6875075458416315 l -23.512795899581043 17.64444038894361" fill="#ffa90f" stroke="none" /><path d="M 116.7966241395341 87.39550010848427 l 23.552542493526786 -17.674266974030914 a50.44659523576036,50.44659523576036 0 0,0 0.5138297542762542,0.6971087455373565 l -23.852474267386867 17.267351919224684" fill="#ffaa0f" stroke="none" /><path d="M 117.01052211995028 87.68569379921539 l 25.344872178447357 -18.34773291638739 a52.28900524006668,52.28900524006668 0 0,0 0.5201135098827476,0.7316047872494128 l -25.656100786860065 17.909950902428474" fill="#ffcd13" stroke="none" /><path d="M 117.21940702142032 87.97951657250589 l 23.24894164483547 -16.22956687189518 a49.35334421993784,49.35334421993784 0 0,0 0.47898657497663755,0.6988557275781379 l -23.524117956627432 15.828076409246991" fill="#ff940d" stroke="none" /><path d="M 117.42321728460499 88.27688183743584 l 23.90654784070277 -16.085392302556333 a49.814282486068414,49.814282486068414 0 0,0 0.4712800248895798,0.713578024662457 l -24.179152304513075 15.672634399554818" fill="#ff9d0e" stroke="none" /><line stroke="#e1ed5e" stroke-width="0.3" x1="172.87174338648825" x2="177.1583165268699" y1="56.24261187166439" y2="53.66864786411523" /><path d="M 173.72905801456457 55.72781907015455 a86.0,86.0 0 0,1 12.242430191666344,42.057860355516425" fill="none" id="id99" stroke="none" /><text fill="#e1ed5e" style="font-size:6.75px; font-family:Arial;" text-anchor="middle"><textPath startOffset="22.145653131862474" xlink:href="#id99">March</textPath></text><line stroke="#e1ed5e" stroke-width="0.3" x1="184.99686870605535" x2="189.99668451229388" y1="99.2704041080226" y2="99.22748670261217" /><path d="M 185.99683186730306 99.26182062694052 a86.0,86.0 0 0,1 -10.086455211305974,41.156179273409016" fill="none" id="id100" stroke="none" /><text fill="#e1ed5e" style="font-size:6.75px; font-family:Arial;" text-anchor="middle"><textPath startOffset="21.40746469413373" xlink:href="#id100">April</textPath></text><line stroke="#e1ed5e" stroke-width="0.3" x1="174.33088141563837" x2="178.70328620479359" y1="141.23008692659167" y2="143.65538615756765" /><path d="M 175.20536237346943 141.71514677278685 a86.0,86.0 0 0,1 -30.301960400862466,31.631185727798858" fill="none" id="id101" stroke="none" /><text fill="#e1ed5e" style="font-size:6.75px; font-family:Arial;" text-anchor="middle"><textPath startOffset="22.145653131862474" xlink:href="#id101">May</textPath></text><line stroke="#e1ed5e" stroke-width="0.3" x1="143.1302829299769" x2="145.66735839644613" y1="173.24464959558577" y2="177.55315839532614" /><path d="M 143.63769802327073 174.10635135553383 a86.0,86.0 0 0,1 -40.68552437913181,11.842963189579606" fill="none" id="id102" stroke="none" /><text fill="#e1ed5e" style="font-size:6.75px; font-family:Arial;" text-anchor="middle"><textPath startOffset="21.407464694133747" xlink:href="#id102">June</textPath></text><line stroke="#e1ed5e" stroke-width="0.3" x1="101.45913802915013" x2="101.54496967792366" y1="184.9874750549273" y2="189.98673829345242" /><path d="M 101.47630435890484 185.9873277026323 a86.0,86.0 0 0,1 -42.54439059252881,-10.42667462771756" fill="none" id="id103" stroke="none" /><text fill="#e1ed5e" style="font-size:6.75px; font-family:Arial;" text-anchor="middle"><textPath startOffset="22.145653131862474" xlink:href="#id103">July</textPath></text><line stroke="#e1ed5e" stroke-width="0.3" x1="58.13341422392154" x2="55.67067388415222" y1="173.97424548756322" y2="178.32567169271397" /><path d="M 57.64086615596768 174.84453072859336 a86.0,86.0 0 0,1 -31.369924170532247,-30.572349798747897" fill="none" id="id104" stroke="none" /><text fill="#e1ed5e" style="font-size:6.75px; font-family:Arial;" text-anchor="middle"><textPath startOffset="22.145653131862474" xlink:href="#id104">August</textPath></text><line stroke="#e1ed5e" stroke-width="0.3" x1="26.387840678322732" x2="22.057713659400548" y1="142.50000000000003" y2="145.00000000000006" /><path d="M 25.521815274538298 143.00000000000003 a86.0,86.0 0 0,1 -11.493303480769221,-40.785679425670985" fill="none" id="id105" stroke="none" /><text fill="#e1ed5e" style="font-size:6.75px; font-family:Arial;" text-anchor="middle"><textPath startOffset="21.40746469413373" xlink:href="#id105">September</textPath></text><line stroke="#e1ed5e" stroke-width="0.3" x1="15.003131293944662" x2="10.003315487706104" y1="100.72959589197737" y2="100.7725132973878" /><path d="M 14.003168132696942 100.73817937305945 a86.0,86.0 0 0,1 10.791469493833604,-42.45332614584628" fill="none" id="id106" stroke="none" /><text fill="#e1ed5e" style="font-size:6.75px; font-family:Arial;" text-anchor="middle"><textPath startOffset="22.145653131862435" xlink:href="#id106">October</textPath></text><line stroke="#e1ed5e" stroke-width="0.3" x1="26.387840678322718" x2="22.05771365940052" y1="57.49999999999999" y2="54.99999999999999" /><path d="M 25.521815274538284 56.99999999999999 a86.0,86.0 0 0,1 29.574782752854787,-30.34633250058573" fill="none" id="id107" stroke="none" /><text fill="#e1ed5e" style="font-size:6.75px; font-family:Arial;" text-anchor="middle"><textPath startOffset="21.40746469413373" xlink:href="#id107">November</textPath></text><line stroke="#e1ed5e" stroke-width="0.3" x1="56.869717070023135" x2="54.33264160355391" y1="26.7553504044142" y2="22.446841604673864" /><path d="M 56.362301976729285 25.89364864446614 a86.0,86.0 0 0,1 42.16139366436587,-11.88097634709845" fill="none" id="id108" stroke="none" /><text fill="#e1ed5e" style="font-size:6.75px; font-family:Arial;" text-anchor="middle"><textPath startOffset="22.145653131862474" xlink:href="#id108">December</textPath></text></svg>