<?xml version="1.0" encoding="utf-8" ?>
<svg baseProfile="full" height="200mm" version="1.1" viewBox="0,0,200,200" width="200mm" xmlns="http://www.w3.org/2000/svg" xmlns:ev="http://www.w3.org/2001/xml-events" xmlns:xlink="http://www.w3.org/1999/xlink"><defs /><rect fill="#1a1a1a" height="200" width="200" x="0" y="0" /><text alignment-baseline="middle" fill="#e1ed5e" style="dominant-baseline: central; font-size:9.0px; font-family:Arial;" text-anchor="middle" x="100.0" y="100.0">2024</text><line stroke="#e1ed5e" stroke-width="0.3" x1="100.0" x2="100.0" y1="15.0" y2="10.0" /><path d="M 100.0 14.0 a86.0,86.0 0 0,1 42.35913384403234,11.155469271406648" fill="none" id="id97" stroke="none" /><text fill="#e1ed5e" style="font-size:6.75px; font-family:Arial;" text-anchor="middle"><textPath startOffset="22.145653131862478" xlink:href="#id97">January</textPath></text><path d="M 100.36049292484886 79.00309439819443 l 0.5102484370033611 -29.719413410735743 a50.72379327989084,50.72379327989084 0 0,0 0.870484750376222,0.022420599347706172 l -1.0203465014503244 29.70627509403799" fill="#ffaf10" stroke="none" /><path d="M 101.08105385017728 79.02784411241856 l 1.4942577819359373 -28.988201775381683 a50.02668855534709,50.02668855534709 0 0,0 0.8572564962262837,0.05157042205730446 l -1.9916586302946833 28.95827937549969" fill="#ffa20e" stroke="none" /><path d="M 101.44090949804482 79.04949213459386 l 2.0284309454311242 -29.492940767169713 a50.562612996759334,50.562612996759334 0 0,0 0.8654176579150501,0.06698880000641746 l -2.534417598121408 29.453774200168244" fill="#ffac0f" stroke="none" /><path d="M 101.80034050326958 79.07731436759882 l 2.4683211810433288 -28.685633643733937 a49.791633975780314,49.791633975780314 0 0,0 0.8509637701752942,0.08058715377929636 l -2.960384514603636 28.639034734449456" fill="#ff9d0e" stroke="none" /><path d="M 102.15924093988457 79.11130261209362 l 2.175914935032662 -21.050003165535134 a42.16216527375064,42.16216527375064 0 0,0 0.7192947680170702,0.08059847906162487 l -2.536945604650529 21.00954892596654" fill="#ff0000" stroke="none" /><path d="M 102.87502721639298 79.19773525538626 l 3.9745915014003805 -28.758164163591395 a50.03152396384104,50.03152396384104 0 0,0 0.8497613583852253,0.12488565654313293 l -4.467677965393288 28.685697433749382" fill="#ffa20e" stroke="none" /><path d="M 103.58742460773223 79.30868818359171 l 4.988129436662915 -28.77020504685719 a50.199420092103026,50.199420092103026 0 0,0 0.847809081073729,0.15449905657805219 l -5.481273251287698 28.68033781634777" fill="#ffa50f" stroke="none" /><path d="M 103.94208987418118 79.37332000966035 l 5.333974370307611 -27.909607828477448 a49.41474074705782,49.41474074705782 0 0,0 0.8318230724124556,0.16638791104632653 l -5.812293928251024 27.813930520768263" fill="#ff960d" stroke="none" /><path d="M 104.29559338865022 79.4440306129975 l 5.8865308377009615 -28.16918100654995 a49.77766501790892,49.77766501790892 0 0,0 0.8349316396309765,0.18196946480633638 l -6.369224893951072 28.063980083609895" fill="#ff9d0e" stroke="none" /><path d="M 104.9986988182912 79.60360301121754 l 6.857459389448893 -27.98077442270607 a49.80882653931435,49.80882653931435 0 0,0 0.8287114449281395,0.21065520864983672 l -7.336776127602427 27.858933982220968" fill="#ff9d0e" stroke="none" /><path d="M 105.3480935250658 79.69241777938227 l 7.014481202693015 -26.635127656432157 a48.54329268292683,48.54329268292683 0 0,0 0.8040123835710852,0.21913715042655946 l -7.470674987198793 26.510790011861456" fill="#ff840c" stroke="none" /><path d="M 106.04205211174951 79.88797359093562 l 8.336393356674202 -27.749142219369766 a49.974304963329345,49.974304963329345 0 0,0 0.8194819061834403,0.25387758930853366 l -8.811515895729274 27.601948042254588" fill="#ffa10e" stroke="none" /><path d="M 106.72888874123014 80.10723608172694 l 20.186666223690402 -59.67829175481916 a84.0,84.0 0 0,0 1.3619769118199267,0.4737662697256382 l -21.208148907555344 59.32296705252493" fill="#4dd2ff" stroke="none" /><path d="M 108.07796709384702 80.6158196554323 l 13.026600278248816 -31.259098500476345 a54.86478338734436,54.86478338734436 0 0,0 0.8662494180769273,0.3697503662026169 l -13.561284771496172 31.03087348461433" fill="#fffc17" stroke="none" /><path d="M 108.73861861582097 80.90454125486305 l 11.920657733743795 -26.04878848442767 a49.64684035476718,49.64684035476718 0 0,0 0.7719168426881474,0.36129605874436327 l -12.366063290303446 25.840316194112773" fill="#ff9a0e" stroke="none" /><path d="M 109.06512990194946 81.05736502329252 l 18.121949199562742 -37.86790398667443 a62.98074791062596,62.98074791062596 0 0,0 0.9712223668888429,0.47507352821878723 l -18.769331815713652 37.55123670835842" fill="#79ff26" stroke="none" /><path d="M 109.3889696526874 81.21577127319529 l 16.18119979653712 -32.373238949098045 a57.191958041958046,57.191958041958046 0 0,0 0.874418136389138,0.44648413091618766 l -16.734545154639836 32.09069686650903" fill="#d9ff1c" stroke="none" /><path d="M 109.71004243097381 81.37971332152246 l 14.299126402156844 -27.42046028662361 a51.924855023025756,51.924855023025756 0 0,0 0.7868128384280113,0.41893351905354537 l -14.767728056371416 27.17095629984749" fill="#ffc612" stroke="none" /><path d="M 110.34350942703115 81.72400993836675 l 22.218212853628405 -39.25745320432453 a66.108719938598,66.108719938598 0 0,0 0.9828400145208487,0.5674429469539478 l -22.888845336009652 38.87026336009441" fill="#49ff2c" stroke="none" /><line stroke="#e1ed5e" stroke-width="0.3" x1="143.13028292997686" x2="145.6673583964461" y1="26.7553504044142" y2="22.446841604673864" /><path d="M 143.63769802327073 25.89364864446614 a86.0,86.0 0 0,1 29.32050498858742,28.57503671076993" fill="none" id="id98" stroke="none" /><text fill="#e1ed5e" style="font-size:6.75px; font-family:Arial;" text-anchor="middle"><textPath startOffset="20.669276256404974" xlink:href="#id98">February</textPath></text><line stroke="#e1ed5e" stroke-width="0.3" x1="172.87174338648825" x2="177.1583165268699" y1="56.24261187166439" y2="53.66864786411523" /><path d="M 173.72905801456457 55.72781907015455 a86.0,86.0 0 0,1 12.242430191666344,42.057860355516425" fill="none" id="id99" stroke="none" /><text fill="#e1ed5e" style="font-size:6.75px; font-family:Arial;" text-anchor="middle"><textPath startOffset="22.145653131862474" xlink:href="#id99">March</textPath></text><line stroke="#e1ed5e" stroke-width="0.3" x1="184.99686870605535" x2="189.99668451229388" y1="99.2704041080226" y2="99.22748670261217" /><path d="M 185.99683186730306 99.26182062694052 a86.0,86.0 0 0,1 -10.086455211305974,41.156179273409016" fill="none" id="id100" stroke="none" /><text fill="#e1ed5e" style="font-size:6.75px; font-family:Arial;" text-anchor="middle"><textPath startOffset="21.40746469413373" xlink:href="#id100">April</textPath></text><line stroke="#e1ed5e" stroke-width="0.3" x1="174.33088141563837" x2="178.70328620479359" y1="141.23008692659167" y2="143.65538615756765" /><path d="M 175.20536237346943 141.71514677278685 a86.0,86.0 0 0,1 -30.301960400862466,31.631185727798858" fill="none" id="id101" stroke="none" /><text fill="#e1ed5e" style="font-size:6.75px; font-family:Arial;" text-anchor="middle"><textPath startOffset="22.145653131862474" xlink:href="#id101">May</textPath></text><line stroke="#e1ed5e" stroke-width="0.3" x1="143.1302829299769" x2="145.66735839644613" y1="173.24464959558577" y2="177.55315839532614" /><path d="M 143.63769802327073 174.10635135553383 a86.0,86.0 0 0,1 -40.68552437913181,11.842963189579606" fill="none" id="id102" stroke="none" /><text fill="#e1ed5e" style="font-size:6.75px; font-family:Arial;" text-anchor="middle"><textPath startOffset="21.407464694133747" xlink:href="#id102">June</textPath></text><line stroke="#e1ed5e" stroke-width="0.3" x1="101.45913802915013" x2="101.54496967792366" y1="184.9874750549273" y2="189.98673829345242" /><path d="M 101.47630435890484 185.9873277026323 a86.0,86.0 0 0,1 -42.54439059252881,-10.42667462771756" fill="none" id="id103" stroke="none" /><text fill="#e1ed5e" style="font-size:6.75px; font-family:Arial;" text-anchor="middle"><textPath startOffset="22.145653131862474" xlink:href="#id103">July</textPath></text><line stroke="#e1ed5e" stroke-width="0.3" x1="58.13341422392154" x2="55.67067388415222" y1="173.97424548756322" y2="178.32567169271397" /><path d="M 57.64086615596768 174.84453072859336 a86.0,86.0 0 0,1 -31.369924170532247,-30.572349798747897" fill="none" id="id104" stroke="none" /><text fill="#e1ed5e" style="font-size:6.75px; font-family:Arial;" text-anchor="middle"><textPath startOffset="22.145653131862474" xlink:href="#id104">August</textPath></text><line stroke="#e1ed5e" stroke-width="0.3" x1="26.387840678322732" x2="22.057713659400548" y1="142.50000000000003" y2="145.00000000000006" /><path d="M 25.521815274538298 143.00000000000003 a86.0,86.0 0 0,1 -11.493303480769221,-40.785679425670985" fill="none" id="id105" stroke="none" /><text fill="#e1ed5e" style="font-size:6.75px; font-family:Arial;" text-anchor="middle"><textPath startOffset="21.40746469413373" xlink:href="#id105">September</textPath></text><line stroke="#e1ed5e" stroke-width="0.3" x1="15.003131293944662" x2="10.003315487706104" y1="100.72959589197737" y2="100.7725132973878" /><path d="M 14.003168132696942 100.73817937305945 a86.0,86.0 0 0,1 10.791469493833604,-42.45332614584628" fill="none" id="id106" stroke="none" /><text fill="#e1ed5e" style="font-size:6.75px; font-family:Arial;" text-anchor="middle"><textPath startOffset="22.145653131862435" xlink:href="#id106">October</textPath></text><line stroke="#e1ed5e" stroke-width="0.3" x1="26.387840678322718" x2="22.05771365940052" y1="57.49999999999999" y2="54.99999999999999" /><path d="M 25.521815274538284 56.99999999999999 a86.0,86.0 0 0,1 29.574782752854787,-30.34633250058573" fill="none" id="id107" stroke="none" /><text fill="#e1ed5e" style="font-size:6.75px; font-family:Arial;" text-anchor="middle"><textPath startOffset="21.40746469413373" xlink:href="#id107">November</textPath></text><line stroke="#e1ed5e" stroke-width="0.3" x1="56.869717070023135" x2="54.33264160355391" y1="26.7553504044142" y2="22.446841604673864" /><path d="M 56.362301976729285 25.89364864446614 a86.0,86.0 0 0,1 42.16139366436587,-11.88097634709845" fill="none" id="id108" stroke="none" /><text fill="#e1ed5e" style="font-size:6.75px; font-family:Arial;" text-anchor="middle"><textPath startOffset="22.145653131862474" xlink:href="#id108">December</textPath></text></svg>