<?xml version="1.0" encoding="utf-8" ?>
<svg baseProfile="full" height="200mm" version="1.1" viewBox="0,0,200,200" width="200mm" xmlns="http://www.w3.org/2000/svg" xmlns:ev="http://www.w3.org/2001/xml-events" xmlns:xlink="http://www.w3.org/1999/xlink"><defs /><rect fill="#1a1a1a" height="200" width="200" x="0" y="0" /><text alignment-baseline="middle" fill="#e1ed5e" style="dominant-baseline: central; font-size:9.0px; font-family:Arial;" text-anchor="middle" x="100.0" y="100.0">2023</text><line stroke="#e1ed5e" stroke-width="0.3" x1="100.0" x2="100.0" y1="15.0" y2="10.0" /><path d="M 100.0 14.0 a86.0,86.0 0 0,1 42.46469731375804,11.215312516191453" fill="none" id="id85" stroke="none" /><text fill="#e1ed5e" style="font-size:6.75px; font-family:Arial;" text-anchor="middle"><textPath startOffset="22.20632615414155" xlink:href="#id85">January</textPath></text><line stroke="#e1ed5e" stroke-width="0.3" x1="143.23703022742887" x2="145.7803849466894" y1="26.81831364943548" y2="22.513508569990506" /><path d="M 143.74570117128098 25.957352633546492 a86.0,86.0 0 0,1 28.547481713284135,27.462654790039103" fill="none" id="id86" stroke="none" /><text fill="#e1ed5e" style="font-size:6.75px; font-family:Arial;" text-anchor="middle"><textPath startOffset="19.985693538727396" xlink:href="#id86">February</textPath></text><path d="M 110.99172775467656 82.1063720568725 l 7.4426339663146965 -12.115995417868438 a35.21935811921024,35.21935811921024 0 0,0 0.5138350854032594,0.32176348334019966 l -7.65008820409022 11.986087593205294" fill="#ffa40f" stroke="none" /><path d="M 112.19680574252982 82.90503203632743 l 8.18158557352605 -11.467260053488678 a35.0867453881749,35.0867453881749 0 0,0 0.4886325248892311,0.3550123098986622 l -8.377763414769069 11.32472850877334" fill="#ffa20e" stroke="none" /><path d="M 115.68641384162765 86.03803664274999 l 10.617179465632926 -9.450003815603328 a35.2136227584798,35.2136227584798 0 0,0 0.3991013680675452,0.45624185534858075 l -10.77827269727832 9.2658464040518" fill="#ffa30f" stroke="none" /><path d="M 115.9244219780498 86.31012108654704 l 10.756739064517639 -9.24733440873625 a35.185225728521814,35.185225728521814 0 0,0 0.39087332021543586,0.46267072334338083 l -10.914322998220193 9.060804735763762" fill="#ffa30f" stroke="none" /><path d="M 117.04232023915458 87.72973835380427 l 12.548903193213585 -9.035056459022991 a36.46309207663135,36.46309207663135 0 0,0 0.36235176949152337,0.5125208808087304 l -12.70256758250899 8.817709077882467" fill="#ffb410" stroke="none" /><path d="M 117.2510076193507 88.02491185347247 l 11.88599036845698 -8.25086774707522 a35.469056141254626,35.469056141254626 0 0,0 0.34383962172293353,0.5045422172975482 l -12.026254455848646 8.045047506507267" fill="#ffa70f" stroke="none" /><path d="M 117.45458315368197 88.32363383020206 l 11.799295731465795 -7.89322187148685 a35.19599701574727,35.19599701574727 0 0,0 0.3325240109455567,0.5064568818311675 l -11.933416377769277 7.6889469256780085" fill="#ffa30f" stroke="none" /><line stroke="#e1ed5e" stroke-width="0.3" x1="172.23445277983987" x2="176.4835382374775" y1="55.19839476539836" y2="52.563006222186495" /><path d="M 173.08426987136738 54.67131705675599 a86.0,86.0 0 0,1 12.851231095245387,41.99856678651699" fill="none" id="id87" stroke="none" /><text fill="#e1ed5e" style="font-size:6.75px; font-family:Arial;" text-anchor="middle"><textPath startOffset="22.20632615414155" xlink:href="#id87">March</textPath></text><path d="M 117.84615892207809 88.93136811851018 l 12.641986866686535 -7.840874862145862 a35.87612686626817,35.87612686626817 0 0,0 0.3209789265167119,0.5276049594673738 l -12.77508159148947 7.622102129471407" fill="#ffac10" stroke="none" /><path d="M 118.03404312379186 89.2402003453031 l 12.305374141866327 -7.341856705881613 a35.32916929417094,35.32916929417094 0 0,0 0.30709514588813713,0.5249251506769492 l -12.429928962224793 7.1289521428507685" fill="#ffa50f" stroke="none" /><path d="M 118.21658344932153 89.55222093294921 l 12.181048860876377 -6.986211638282097 a35.04226137080228,35.04226137080228 0 0,0 0.2955937539843322,0.5258283051007034 l -12.299500256153141 6.7754998232466" fill="#ffa10e" stroke="none" /><path d="M 118.89224826269711 90.83032412892265 l 16.472051774372012 -7.994992104821745 a39.30978941478449,39.30978941478449 0 0,0 0.2902219405032572,0.6112814225224323 l -16.607231908717026 7.7102682666587725" fill="#ffd914" stroke="none" /><path d="M 119.196687751892 91.48605970444005 l 13.213398109689624 -5.8602861108825595 a35.454647796005005,35.454647796005005 0 0,0 0.24262677464484014,0.5600160477293132 l -13.312315594177145 5.631970918566644" fill="#ffa70f" stroke="none" /><path d="M 119.34039704204932 91.81776055985345 l 11.426604981176489 -4.834193307442587 a33.407124015241,33.407124015241 0 0,0 0.21949802940983607,0.5315318886434368 l -11.508124697472521 4.636786848345847" fill="#ff8b0c" stroke="none" /><path d="M 119.47837535516314 92.15188598940014 l 8.576663028250293 -3.4556593170057606 a30.246660479079146,30.246660479079146 0 0,0 0.19041921951773905,0.4845961436555014 l -8.634875797649732 3.3075141684544747" fill="#ff5f08" stroke="none" /><path d="M 119.7369772167798 92.82701384747503 l 13.674821750439872 -4.969824202399128 a35.549910738869,35.549910738869 0 0,0 0.20406820081223453,0.5769282838156448 l -13.758343032061916 4.733698292156868" fill="#ffa80f" stroke="none" /><path d="M 119.97218684219823 93.5106431181261 l 13.767009981463922 -4.473172701212647 a35.47549093622048,35.47549093622048 0 0,0 0.18370309999736584,0.5823890283906232 l -13.841968565229493 4.235533506395605" fill="#ffa70f" stroke="none" /><path d="M 120.18372546131832 94.20196356495316 l 12.720931410076956 -3.654252231319271 a34.23539403682355,34.23539403682355 0 0,0 0.15783043131609348,0.5678000364773267 l -12.781948611959413 3.4347408914229924" fill="#ff960d" stroke="none" /><path d="M 120.28053869075195 94.5502522615342 l 13.734633721207818 -3.6907446198626155 a35.22187608245775,35.22187608245775 0 0,0 0.15229883555699125,0.5868695400060676 l -13.79612888863511 3.453778654307697" fill="#ffa40f" stroke="none" /><path d="M 120.45610955862082 95.25157060432595 l 13.97058660510493 -3.2429599538653933 a35.342038884102635,35.342038884102635 0 0,0 0.13245794452243437,0.5937829929012116 l -14.024338936629402 3.0019987914142177" fill="#ffa50f" stroke="none" /><path d="M 120.53481517161879 95.60439243477599 l 13.891244094488478 -2.9735089954205574 a35.2059289818902,35.2059289818902 0 0,0 0.12174663574435632,0.5936798333271139 l -13.940370026147832 2.7339535059300317" fill="#ffa30f" stroke="none" /><path d="M 120.6074358757038 95.95851677861258 l 14.461865853246353 -2.8362280755540534 a35.737359113961155,35.737359113961155 0 0,0 0.11319259861135804,0.6046793879420705 l -14.50854417576757 2.58687061014942" fill="#ffaa0f" stroke="none" /><path d="M 120.78858239683441 97.02765380044208 l 14.220776252618654 -2.033282955150949 a35.36539998756561,35.36539998756561 0 0,0 0.08097666315819546,0.6033701971948241 l -14.253668914834686 1.7881944158914602" fill="#ffa50f" stroke="none" /><path d="M 120.83666639777658 97.38593545837742 l 15.330886684770633 -1.9233368001020066 a36.451061807782146,36.451061807782146 0 0,0 0.07274529204802438,0.6232372374662853 l -15.361722329822245 1.6591558243108684" fill="#ffb410" stroke="none" /><path d="M 120.87857604477298 97.74499172005257 l 14.084847135532335 -1.5212458380451104 a35.16676066470677,35.16676066470677 0 0,0 0.05982179863754592,0.6023973484264664 l -14.10894605985211 1.278572958914209" fill="#ffa30f" stroke="none" /><path d="M 120.94382443527127 98.46500227214037 l 14.736581284960176 -1.080061516880247 a35.77610777060333,35.77610777060333 0 0,0 0.03972750901775274,0.6145669806929382 l -14.752989384982344 0.8262354719342735" fill="#ffab0f" stroke="none" /><path d="M 120.96714384426684 98.82574320788733 l 14.343343190602457 -0.8032933950502433 a35.365819648106864,35.365819648106864 0 0,0 0.028808646002096375,0.6081049847669275 l -14.35504544483805 0.556277303660316" fill="#ffa50f" stroke="none" /><path d="M 120.98425023603335 99.18683210126433 l 14.424097719997256 -0.5589531721265483 a35.434923750566206,35.434923750566206 0 0,0 0.01837267984462307,0.6096997987999279 l -14.431582094297523 0.3105832259016213" fill="#ffa60f" stroke="none" /><line stroke="#e1ed5e" stroke-width="0.3" x1="184.98032266829074" x2="189.97916517819016" y1="98.17113171792111" y2="98.06355123074" /><path d="M 185.9800911702706 98.14961562048488 a86.0,86.0 0 0,1 -9.607161424134198,41.387399972396054" fill="none" id="id88" stroke="none" /><text fill="#e1ed5e" style="font-size:6.75px; font-family:Arial;" text-anchor="middle"><textPath startOffset="21.466115282336823" xlink:href="#id88">April</textPath></text><path d="M 120.99513854157772 99.54816195383933 l 14.474377560145527 -0.31150423052538234 a35.47772912577382,35.47772912577382 0 0,0 0.007884490919504862,0.6106625107295006 l -14.477595058182747 0.06230546173541898" fill="#ffa70f" stroke="none" /><path d="M 120.99824983174949 100.27111621757518 l 15.507402673260342 0.2002218466242228 a36.508695188780635,36.508695188780635 0 0,0 -0.013522016315738366,0.6283149644495123 l -15.501658594259597 -0.4671266268638499" fill="#ffb510" stroke="none" /><path d="M 120.9904718944345 100.63252640178507 l 14.34126438256475 0.4321593341289889 a35.34777424483307,35.34777424483307 0 0,0 -0.023561592756420696,0.6080200154593338 l -14.331700656957127 -0.6789565966023289" fill="#ffa50f" stroke="none" /><path d="M 120.9764740272857 100.99374915477107 l 2.7440203720623972 0.12999648662899888 a23.747097903029548,23.747097903029548 0 0,0 -0.022857881164348955,0.408142823245482 l -2.741376140010519 -0.17721102620990423" fill="#ff0000" stroke="none" /><path d="M 120.95626037817324 101.35467743843564 l 14.447993131426255 0.9339629291016847 a35.47814878631507,35.47814878631507 0 0,0 -0.04464070395967122,0.6090869383252899 l -14.429775868802247 -1.1825230039237449" fill="#ffa70f" stroke="none" /><path d="M 120.89721153311464 102.0752229133903 l 13.913393543531516 1.3816864053272948 a34.98183025286213,34.98183025286213 0 0,0 -0.06466257808080877,0.5986951647657394 l -13.887548663949655 -1.6209778919778255" fill="#ffa00e" stroke="none" /><path d="M 120.8583938346157 102.4346265915055 l 14.047611655424175 1.6396607118751594 a35.14297990070254,35.14297990070254 0 0,0 -0.07530385981428407,0.6002458548484253 l -14.017306286363043 -1.8812243210109796" fill="#ffa20f" stroke="none" /><path d="M 120.76222939487914 103.15116336523771 l 14.151438632813624 2.1478182394098053 a35.31350196729757,35.31350196729757 0 0,0 -0.09638609429165174,0.6001963011618272 l -14.112370784160685 -2.3910937702648374" fill="#ffa50f" stroke="none" /><path d="M 120.70491114924044 103.5080841355445 l 14.273738562521816 2.4184347107391226 a35.477169578385485,35.477169578385485 0 0,0 -0.10719774407068874,0.6012218776192995 l -14.229994376111938 -2.6637753390916403" fill="#ffa70f" stroke="none" /><path d="M 120.41448212921028 104.9243191809786 l 13.965818635614058 3.3687922206470926 a35.3663791954952,35.3663791954952 0 0,0 -0.1478460927483346,0.5905716478654899 l -13.905761228570661 -3.6086917079099785" fill="#ffa50f" stroke="none" /><path d="M 120.32669344350535 105.2749913415812 l 13.886940383285644 3.6038075000482506 a35.34693492375057,35.34693492375057 0 0,0 -0.1579030457437646,0.5876159745873897 l -13.822849261200103 -3.842314407811189" fill="#ffa50f" stroke="none" /><path d="M 120.23288151984713 105.62410040840565 l 14.216802015078164 3.9518207992663426 a35.7558241777762,35.7558241777762 0 0,0 -0.16993783462609977,0.5915758960828984 l -14.146671543565965 -4.195954170853823" fill="#ffab0f" stroke="none" /><path d="M 120.13307415673323 105.97154293290107 l 13.766866323709127 4.0833025629146285 a35.35966462683518,35.35966462683518 0 0,0 -0.17810027860386146,0.582042015290574 l -13.694539272599133 -4.31967155075726" fill="#ffa50f" stroke="none" /><path d="M 119.9155931802556 106.66101706037122 l 14.26130596724523 4.769870597937932 a36.03783606149692,36.03783606149692 0 0,0 -0.2018276168474631,0.5866055279720203 l -14.177087519454536 -5.0146488289992535" fill="#ffae10" stroke="none" /><path d="M 119.79798401119884 107.00284435728193 l 13.955529314499344 4.936280363578616 a35.80282615839632,35.80282615839632 0 0,0 -0.21051335323854214,0.5792423362248412 l -13.868491700255577 -5.175770496809588" fill="#ffab0f" stroke="none" /><path d="M 119.67450827220406 107.3425965602758 l 13.435478124583257 5.014168288139592 a35.3406400156318,35.3406400156318 0 0,0 -0.217606996040372,0.5681032001100405 l -13.34717684894938 -5.244695055082776" fill="#ffa50f" stroke="none" /><path d="M 119.41010516605496 108.01547362559984 l 13.092395300309695 5.406552325594053 a35.16480224884759,35.16480224884759 0 0,0 -0.23585370920555582,0.5574884985025308 l -12.99739060991183 -5.631115349762747" fill="#ffa30f" stroke="none" /><path d="M 119.26925614724726 108.34839909993367 l 12.975056338724833 5.621439033871236 a35.140461937455036,35.140461937455036 0 0,0 -0.24524514207597156,0.5529630525546385 l -12.87637011191759 -5.843950422918563" fill="#ffa20f" stroke="none" /><path d="M 119.12269723197855 108.67885076344098 l 13.174315699213182 5.97917325557629 a35.46765727278379,35.46765727278379 0 0,0 -0.25709893895919306,0.5537682419227544 l -13.069442143414157 -6.205061564777875" fill="#ffa70f" stroke="none" /><path d="M 118.81262510543309 109.33194174019688 l 13.088518286398468 6.492517095814425 a35.61034185680916,35.61034185680916 0 0,0 -0.2771185445526407,0.5467811786454938 l -12.974821072059559 -6.716852486162613" fill="#ffa90f" stroke="none" /><path d="M 118.64920377521936 109.65438752849418 l 12.63083501686699 6.5387765360440415 a35.22299517723442,35.22299517723442 0 0,0 -0.2833731756190687,0.5360352563017916 l -12.516409333023029 -6.755226807431967" fill="#ffa40f" stroke="none" /><line stroke="#e1ed5e" stroke-width="0.3" x1="174.80103733775053" x2="179.2010983576182" y1="140.37084112569926" y2="142.7455964860345" /><path d="M 175.68104954172406 140.8457921977663 a86.0,86.0 0 0,1 -30.038265399797805,32.042727171017184" fill="none" id="id89" stroke="none" /><text fill="#e1ed5e" style="font-size:6.75px; font-family:Arial;" text-anchor="middle"><textPath startOffset="22.206326154141568" xlink:href="#id89">May</textPath></text><path d="M 118.30583269289576 110.29060199501025 l 12.638131235781076 7.104510386932694 a35.49815260544804,35.49815260544804 0 0,0 -0.30401294696990655,0.5300721983695929 l -12.51396629265879 -7.321002431160602" fill="#ffa70f" stroke="none" /><path d="M 118.12598468904814 110.60418214915192 l 12.745187664790178 7.45627307101387 a35.76603591761331,35.76603591761331 0 0,0 -0.31545494535267093,0.5287206333456318 l -12.614951843739279 -7.674555798245605" fill="#ffab0f" stroke="none" /><path d="M 117.94076556474637 110.91462005526583 l 13.210342865514328 8.036773718296947 a36.46295218978426,36.46295218978426 0 0,0 -0.33083246353573265,0.5334072705692552 l -13.070045762310633 -8.262977320231476" fill="#ffb410" stroke="none" /><path d="M 117.75023020441432 111.22182372390056 l 12.814649034942095 8.101513664764175 a36.160796600083486,36.160796600083486 0 0,0 -0.33714800527181144,0.5232611912571016 l -12.673296166293232 -8.32089645594273" fill="#ffb010" stroke="none" /><path d="M 117.35343817320211 111.8261652097733 l 12.202206971194682 8.315661376431901 a35.766315691307476,35.766315691307476 0 0,0 -0.3510874224170846,0.5057676173291078 l -12.057258641615462 -8.524470255948028" fill="#ffab0f" stroke="none" /><path d="M 117.14729908036423 112.12312394758627 l 12.28878852790232 8.688161662732922 a36.04986633034612,36.04986633034612 0 0,0 -0.36259334529178444,0.5036104433001096 l -12.137415390234933 -8.898405711484163" fill="#ffaf10" stroke="none" /><path d="M 116.71984013943494 112.70617746262583 l 11.76548617995417 8.941135446862091 a35.77736675222708,35.77736675222708 0 0,0 -0.3768433154038841,0.4871207841496471 l -11.609836047332218 -9.142334225124992" fill="#ffab0f" stroke="none" /><path d="M 116.27256486870786 113.27417163493432 l 11.431017582185447 9.32473095496288 a35.751907346057855,35.751907346057855 0 0,0 -0.39310754369715095,0.47352336023892794 l -11.268814038594753 -9.520115572315577" fill="#ffab0f" stroke="none" /><path d="M 116.0416608686014 113.55231037782055 l 11.074866823831728 9.356265153527145 a35.498012718600954,35.498012718600954 0 0,0 -0.3983510758328609,0.4633722962106604 l -10.912173238428089 -9.545514548899334" fill="#ffa70f" stroke="none" /><path d="M 115.80600337817218 113.82643327865902 l 10.900170384835587 9.535014952614329 a35.48206561803342,35.48206561803342 0 0,0 -0.40608573654720453,0.45624162989612044 l -10.734425798640045 -9.721230752251316" fill="#ffa70f" stroke="none" /><path d="M 115.56566222782051 114.09645910891815 l 10.744587145228532 9.730432995277004 a35.495774529047615,35.495774529047615 0 0,0 -0.41403892723162733,0.449357481828669 l -10.575501810001184 -9.913941731907007" fill="#ffa70f" stroke="none" /><path d="M 115.07121518719521 114.62390073753431 l 10.709382691859437 10.391527657244378 a35.922289525805795,35.922289525805795 0 0,0 -0.43441915212132004,0.4400643075472544 l -10.528922914682582 -10.574332458772298" fill="#ffad10" stroke="none" /><path d="M 114.81725581225074 114.88116024355365 l 11.454252913793413 11.50365325672672 a37.233728717215406,37.233728717215406 0 0,0 -0.4580635993961599,0.44831164161699005 l -11.25453936202146 -11.699115001266282" fill="#ffbe11" stroke="none" /><path d="M 114.55890576462653 115.13401014063108 l 10.779720753360833 11.205540157483055 a36.54884271389365,36.54884271389365 0 0,0 -0.457146251210785,0.43226031415011323 l -10.58523866775924 -11.38943510837909" fill="#ffb510" stroke="none" /><path d="M 114.0293411484842 115.62618273729858 l 9.953061881080721 11.08593497751048 a35.89836887495448,35.89836887495448 0 0,0 -0.46335844770174034,0.4088599563338603 l -9.760761080472394 -11.255618075616628" fill="#ffad10" stroke="none" /><path d="M 113.75828350139079 115.86535959552629 l 9.8583659418444 11.36817108586546 a36.04734836709861,36.04734836709861 0 0,0 -0.47227952445918236,0.4024868566295861 l -9.661220940808171 -11.536182332717994" fill="#ffaf10" stroke="none" /><path d="M 113.48314897796784 116.09983520530334 l 9.578770762096461 11.4377309774689 a35.91893224147579,35.91893224147579 0 0,0 -0.47743080663690884,0.39289305053834567 l -9.380469826914862 -11.600919146864426" fill="#ffad10" stroke="none" /><path d="M 113.20401910651253 116.32954008644616 l 9.101034734180601 11.255339023755296 a35.47451172829089,35.47451172829089 0 0,0 -0.4781330830572947,0.3798578383295251 l -8.905944158405955 -11.410330776089948" fill="#ffa70f" stroke="none" /><path d="M 112.63410532772338 116.77436683061366 l 9.551406519086658 12.681451716877945 a36.87603804922241,36.87603804922241 0 0,0 -0.5103205185009961,0.3775229195465025 l -9.331701030167098 -12.843984585164215" fill="#ffba11" stroke="none" /><path d="M 112.04921762599082 117.19931262002967 l 8.630941986764068 12.319992388177013 a36.04245232745068,36.04245232745068 0 0,0 -0.5111902993828153,0.35160134919751296 l -8.41759480275837 -12.46673452673962" fill="#ffaf10" stroke="none" /><path d="M 111.7513745106137 117.40417183066458 l 8.342916467346624 12.356133457872302 a35.90900027533284,35.90900027533284 0 0,0 -0.5152519202814942,0.3414808769341124 l -8.128989848325165 -12.497912355897734" fill="#ffad10" stroke="none" /><path d="M 111.1453310114006 117.79835938074945 l 7.7019552037044035 12.299515062382847 a35.51200140330933,35.51200140330933 0 0,0 -0.5208778611548721,0.3199657253101402 l -7.489098142617223 -12.430269254521365" fill="#ffa70f" stroke="none" /><line stroke="#e1ed5e" stroke-width="0.3" x1="143.8653032363475" x2="146.44561519142675" y1="172.8068346515853" y2="177.08958963109032" /><path d="M 144.38136562736335 173.6633856474863 a86.0,86.0 0 0,1 -40.68145358897372,12.25698825130547" fill="none" id="id90" stroke="none" /><text fill="#e1ed5e" style="font-size:6.75px; font-family:Arial;" text-anchor="middle"><textPath startOffset="21.466115282336833" xlink:href="#id90">June</textPath></text><path d="M 110.8373102113329 117.98757091392108 l 7.6827126365829566 12.751627079688136 a35.887177927187786,35.887177927187786 0 0,0 -0.5318687042410433,0.3142374054095014 l -7.462076061313531 -12.881983057391388" fill="#ffac10" stroke="none" /><path d="M 110.5260780823613 118.17145234162733 l 8.060245356287977 13.914618835959981 a37.08055261965876,37.08055261965876 0 0,0 -0.5550627352015759,0.31517910729498977 l -7.819533854165202 -14.0513011090496" fill="#ffbc11" stroke="none" /><path d="M 110.21172684928248 118.3499491758327 l 7.050532077616866 12.66944437472278 a35.49913181337762,35.49913181337762 0 0,0 -0.5365054588587613,0.292545553081768 l -6.8314038068894565 -12.788930579564317" fill="#ffa70f" stroke="none" /><path d="M 109.57404056367764 118.69057910512821 l 6.937099912116449 13.542705799627958 a36.21605190468154,36.21605190468154 0 0,0 -0.5572893167693409,0.2794364325645873 l -6.702956687664347 -13.660110073101848" fill="#ffb110" stroke="none" /><path d="M 109.2508944713604 118.85261126421891 l 6.574041823904685 13.397391498139738 a35.923408620582464,35.923408620582464 0 0,0 -0.5574754186523362,0.26762207867852217 l -6.342453737252116 -13.508567853317821" fill="#ffad10" stroke="none" /><path d="M 108.92500713936063 119.00905698771935 l 6.039605465401545 12.863542032234585 a35.21082502153813,35.21082502153813 0 0,0 -0.5508515673813628,0.25286893702154495 l -5.817285902252762 -12.965598039590205" fill="#ffa30f" stroke="none" /><path d="M 108.2653958097858 119.30500536409082 l 6.08815983821099 14.219761647101484 a36.46826788997345,36.46826788997345 0 0,0 -0.5792003887618308,0.24210580947698768 l -5.842487989951698 -14.322452499598445" fill="#ffb410" stroke="none" /><path d="M 107.59598834532513 119.57807347666477 l 5.138226575554946 13.243382277946422 a35.20522954765478,35.20522954765478 0 0,0 -0.5668541188110648,0.21433572395549558 l -4.909502235983607 -13.329866252008548" fill="#ffa30f" stroke="none" /><path d="M 107.2578585660854 119.70592522655815 l 5.0508677433103495 13.713689950366696 a35.6142586885275,35.6142586885275 0 0,0 -0.5770874092561153,0.20692301317267642 l -4.8140607734245 -13.798600504579333" fill="#ffa90f" stroke="none" /><path d="M 106.91757812671514 119.82793768551818 l 4.861384845083 13.934246062414951 a35.75792248048245,35.75792248048245 0 0,0 -0.5829056739215949,0.19775325293389004 l -4.620809438224178 -14.015862302246964" fill="#ffab0f" stroke="none" /><path d="M 106.2309692047433 120.05430185196036 l 4.468725753786824 14.382541818991701 a36.060777504418645,36.060777504418645 0 0,0 -0.5943589302581672,0.17907547008613584 l -4.220491849088411 -14.457332658183562" fill="#ffaf10" stroke="none" /><path d="M 105.88484417918355 120.15858648285463 l 4.2963449822432835 14.717168245692715 a36.33145855352559,36.33145855352559 0 0,0 -0.6018372403843275,0.17008521572231833 l -4.042376573754351 -14.788942254753552" fill="#ffb210" stroke="none" /><path d="M 105.18746579009965 120.34920634021253 l 3.677497707935573 14.425957240481772 a35.887317814034866,35.887317814034866 0 0,0 -0.5999107160949231,0.14744345826092503 l -3.428633707097439 -14.487121957056726" fill="#ffac10" stroke="none" /><path d="M 104.48393922423573 120.51570834832081 l 3.071614458545064 14.053791373752798 a35.38554369354567,35.38554369354567 0 0,0 -0.5961765476542992,0.12493459207695568 l -2.8292464494613867 -14.104581946556294" fill="#ffa60f" stroke="none" /><path d="M 103.7750983002368 120.6578951692458 l 2.782211671503052 15.224672969431506 a36.47680098764555,36.47680098764555 0 0,0 -0.6186309613885383,0.10755692229339896 l -2.5197317386424634 -15.270308470245912" fill="#ffb410" stroke="none" /><path d="M 103.41894727170886 120.7198165907248 l 2.452842856735769 14.864942357544018 a36.065953317760744,36.065953317760744 0 0,0 -0.6134030985654073,0.09580094872404575 l -2.1966038945618447 -14.90496161361517" fill="#ffaf10" stroke="none" /><path d="M 103.06178313531738 120.77559828337769 l 2.1533860632271633 14.611708870750663 a35.7695330887904,35.7695330887904 0 0,0 -0.6099070050329745,0.08452755341228349 l -1.9015504670073584 -14.64661098965555" fill="#ffab0f" stroke="none" /><path d="M 102.70371172650421 120.8252237178851 l 1.9735011225707535 15.200807831007992 a36.32838104288975,36.32838104288975 0 0,0 -0.6208218914872966,0.07517288526108375 l -1.7115518080320764 -15.232526244994428" fill="#ffb210" stroke="none" /><path d="M 101.98527174616119 120.90594882070398 l 1.3780932631646758 14.512042135081314 a35.577328560897406,35.577328560897406 0 0,0 -0.6101608114658733,0.052647242236073845 l -1.1280881339572608 -14.53361362959605" fill="#ffa80f" stroke="none" /><path d="M 101.62511606390274 120.93702456842531 l 1.1843474809572598 15.25842544858318 a36.304320505191356,36.304320505191356 0 0,0 -0.6234614247042419,0.04299755010359446 l -0.9215232954740875 -15.27655134320306" fill="#ffb210" stroke="none" /><path d="M 100.90346689309514 120.98055641714683 l 0.6577881088302303 15.275336189200718 a36.28949249940048,36.28949249940048 0 0,0 -0.6243169089566071,0.021502736675466566 l -0.3947508481989709 -15.284395724302279" fill="#ffb210" stroke="none" /><line stroke="#e1ed5e" stroke-width="0.3" x1="102.19456741930631" x2="102.32365962044197" y1="184.97166512339345" y2="189.96999836594603" /><path d="M 102.22038585953345 185.97133177190398 a86.0,86.0 0 0,1 -42.740103519485714,-10.115201625700543" fill="none" id="id91" stroke="none" /><text fill="#e1ed5e" style="font-size:6.75px; font-family:Arial;" text-anchor="middle"><textPath startOffset="22.20632615414155" xlink:href="#id91">July</textPath></text><path d="M 100.54218724476979 120.99299961872073 l 0.3949314312089707 15.291387735082028 a36.29648684175467,36.29648684175467 0 0,0 -0.6247149266614527,0.010755034002833374 l -0.13165681465485005 -15.29592024636402" fill="#ffb210" stroke="none" /><path d="M 100.18074693466247 120.99922214144158 l 0.13104999580341065 15.225419886926185 a36.225983870824486,36.225983870824486 0 0,0 -0.6235938609317218,0.0 l 0.13104999580340015 -15.225419886926185" fill="#ffb110" stroke="none" /><path d="M 99.81925306533755 120.99922214144158 l -0.1284890757696473 14.92789158429867 a35.928444547077476,35.928444547077476 0 0,0 -0.6183803875604651,-0.010645979167554371 l 0.38542915322278026 -14.923468127851956" fill="#ffad10" stroke="none" /><path d="M 98.73552117531835 120.96189622390904 l -0.8446714281197011 14.002539602831186 a35.027992912399746,35.027992912399746 0 0,0 -0.6015427933039548,-0.041485912952533885 l 1.0855769822025858 -13.985925345362366" fill="#ffa10e" stroke="none" /><path d="M 98.37488393609728 120.93702456842531 l -1.1221774925368164 14.457464456387093 a35.500950342389714,35.500950342389714 0 0,0 -0.6088509043517627,-0.052534217938466694 l 1.370872714630121 -14.436005986169963" fill="#ffa70f" stroke="none" /><path d="M 98.01472825383883 120.90594882070398 l -1.4337285153346886 15.097910410667515 a36.1658325265785,36.1658325265785 0 0,0 -0.6192406901513716,-0.06418682945660814 l 1.6934018020916537 -15.070994212755146" fill="#ffb010" stroke="none" /><path d="M 97.65516085044442 120.86867818915974 l -1.7250315456625211 15.352493666528417 a36.449103391922975,36.449103391922975 0 0,0 -0.6228849362726545,-0.07542269125386267 l 1.989043904986565 -15.320525446549206" fill="#ffb410" stroke="none" /><path d="M 97.2962882734958 120.8252237178851 l -1.9534918163552406 15.046687007292705 a36.17296675577977,36.17296675577977 0 0,0 -0.6167859603425708,-0.08548091393700613 l 2.2122063678846424 -15.010831527863095" fill="#ffb010" stroke="none" /><path d="M 96.58105272829116 120.7198165907248 l -2.448606788627265 14.839270550610905 a36.03993436420318,36.03993436420318 0 0,0 -0.6112218900900368,-0.10626876027814752 l 2.7036776501893516 -14.794923211811753" fill="#ffaf10" stroke="none" /><path d="M 95.86986931433489 120.58985236759428 l -2.9039964188613694 14.477231373793503 a35.765616257072054,35.765616257072054 0 0,0 -0.6025800199520014,-0.12627650195673726 l 3.1527679002427575 -14.425098891110224" fill="#ffab0f" stroke="none" /><path d="M 95.51606077576429 120.51570834832081 l -3.236071893211069 14.80624598934721 a36.155760673588475,36.155760673588475 0 0,0 -0.6068655771816132,-0.13812062958184212 l 3.490457619785545 -14.74834862618768" fill="#ffb010" stroke="none" /><path d="M 95.16358092515715 120.4354850818985 l -3.340069905127847 14.11291032941683 a35.5027688714018,35.5027688714018 0 0,0 -0.5934823997536474,-0.14586353450439876 l 3.582505589624705 -14.053325536598402" fill="#ffa70f" stroke="none" /><path d="M 94.81253420990036 120.34920634021253 l -3.5865139874872227 14.069049537198794 a35.51899574566351,35.51899574566351 0 0,0 -0.5911537368974976,-0.1561290748273344 l 3.82815816719621 -14.005229113067879" fill="#ffa80f" stroke="none" /><path d="M 94.46302465271185 120.25689768951611 l -3.966618204768393 14.511781994246943 a36.044130969615686,36.044130969615686 0 0,0 -0.5970776065278343,-0.16874009565177572 l 4.215826979400841 -14.441353105256647" fill="#ffaf10" stroke="none" /><path d="M 94.11515582081647 120.15858648285463 l -4.176038385006943 14.305056918527042 a35.90214581982574,35.90214581982574 0 0,0 -0.5917443399779622,-0.17828771548252118 l 4.42165769942515 -14.231053833938795" fill="#ffad10" stroke="none" /><path d="M 93.42475214034765 119.94407469862007 l -4.662681814483114 14.142869803369713 a35.89165430629446,35.89165430629446 0 0,0 -0.5850856954285025,-0.1984928345913409 l 4.9054372428488415 -14.060513981880248" fill="#ffad10" stroke="none" /><path d="M 92.7421414339146 119.70592522655815 l -5.092735913400961 13.827366873341443 a35.73540069810198,35.73540069810198 0 0,0 -0.5753906261472406,-0.21756350059014185 l 5.329996760308485 -13.737655122644668" fill="#ffaa0f" stroke="none" /><path d="M 92.40401165467489 119.57807347666478 l -5.5054234702136435 14.189803922794749 a36.22038839694114,36.22038839694114 0 0,0 -0.5793173847671694,-0.2305223431470988 l 5.748861931022671 -14.092934735241583" fill="#ffb110" stroke="none" /><path d="M 91.7346041902142 119.30500536409082 l -6.018236047598761 14.056444706943777 a36.29061159417716,36.29061159417716 0 0,0 -0.5721462477551453,-0.25081210118754443 l 6.25930297001165 -13.95076805246178" fill="#ffb210" stroke="none" /><path d="M 91.40352486487194 119.15986991738527 l -6.0937541498418195 13.581791953587354 a35.8861987192582,35.8861987192582 0 0,0 -0.5614173709298363,-0.25771917921071036 l 6.326639516539075 -13.474885704042569" fill="#ffac10" stroke="none" /><path d="M 91.07499286063937 119.00905698771935 l -6.390253111136662 13.610374048871595 a36.035877645637754,36.035877645637754 0 0,0 -0.5592207629622193,-0.26845995001166884 l 6.623586542099123 -13.498359822360364" fill="#ffae10" stroke="none" /><path d="M 90.42595943632237 118.69057910512821 l -7.050237382873193 13.763574390362326 a36.46421117140801,36.46421117140801 0 0,0 -0.5561818366855703,-0.29096805017692334 l 7.286110122085259 -13.640176921240686" fill="#ffb410" stroke="none" /><path d="M 90.10565033884886 118.52300852407294 l -6.956169577967245 13.022502013800208 a35.76393761490706,35.76393761490706 0 0,0 -0.5405075217487886,-0.29472779686381956 l 7.179299911584674 -12.900833565176622" fill="#ffab0f" stroke="none" /><line stroke="#e1ed5e" stroke-width="0.3" x1="58.666819895761336" x2="56.23545636021788" y1="174.27360380694188" y2="178.64263932499728" /><path d="M 58.180547188652646 175.14741091055294 a86.0,86.0 0 0,1 -31.652253787137756,-30.449443065178592" fill="none" id="id92" stroke="none" /><text fill="#e1ed5e" style="font-size:6.75px; font-family:Arial;" text-anchor="middle"><textPath startOffset="22.20632615414155" xlink:href="#id92">August</textPath></text><path d="M 89.7882731507175 118.34994917583269 l -7.043593715723201 12.656976494413065 a35.48486335497509,35.48486335497509 0 0,0 -0.531176692917566,-0.30161598909871845 l 7.2604191755619745 -12.533857339519713" fill="#ffa70f" stroke="none" /><path d="M 89.4739219176387 118.17145234162733 l -7.397217709672294 12.770016336587735 a35.75778259363537,35.75778259363537 0 0,0 -0.5299509906629236,-0.3131043864251135 l 7.6159365713636 -12.640793377868873" fill="#ffab0f" stroke="none" /><path d="M 88.54995079064634 117.60387380957326 l -8.050353451533834 12.377012857507514 a35.76477693598955,35.76477693598955 0 0,0 -0.5131824849873866,-0.3401093680640327 l 8.262210635261182 -12.236605468352163" fill="#ffab0f" stroke="none" /><path d="M 88.24862548938628 117.40417183066458 l -8.663547978716144 12.830999262988176 a36.481976800987646,36.481976800987646 0 0,0 -0.5174240774057907,-0.35588899856433437 l 8.883128940744825 -12.67996947505874" fill="#ffb410" stroke="none" /><path d="M 87.95078237400918 117.19931262002967 l -8.882085519229312 12.678480072726005 a36.48015827197556,36.48015827197556 0 0,0 -0.5111958883423705,-0.3647246932396352 l 9.099008735420568 -12.52371111764215" fill="#ffb410" stroke="none" /><path d="M 86.51685102203217 116.09983520530335 l -9.6565505603147 11.530605567496922 a36.040074251050264,36.040074251050264 0 0,0 -0.4721842215804861,-0.402405637448815 l 9.853600258472245 -11.362675539825155" fill="#ffaf10" stroke="none" /><path d="M 86.24171649860922 115.8653595955263 l -9.403609770832277 10.84376917332583 a35.353229831869335,35.353229831869335 0 0,0 -0.45632206168472067,-0.4026511637804143 l 9.588874185423585 -10.680294867773126" fill="#ffa50f" stroke="none" /><path d="M 85.97065885151581 115.62618273729859 l -9.517382374497815 10.600665746923985 a35.246216393850304,35.246216393850304 0 0,0 -0.44796338262416097,-0.4092039289178816 l 9.698445306588832 -10.435269051419528" fill="#ffa40f" stroke="none" /><path d="M 85.70375840098266 115.38237550388516 l -10.04518227265643 10.808348799421008 a35.75554440408203,35.75554440408203 0 0,0 -0.4472238208000143,-0.4228780368698493 l 10.22974192784726 -10.633836125805228" fill="#ffab0f" stroke="none" /><path d="M 85.18274418774928 114.88116024355367 l -10.804695929884243 10.851294838450668 a36.31313337655763,36.31313337655763 0 0,0 -0.4391457454564585,-0.44485232164130734 l 10.989882300396236 -10.663702022828696" fill="#ffb210" stroke="none" /><path d="M 84.43433777217949 114.09645910891817 l -11.055337713858203 10.011852611072866 a35.915015409757444,35.915015409757444 0 0,0 -0.4110407675466077,-0.46180865975187674 l 11.226037331053147 -9.820069781580125" fill="#ffad10" stroke="none" /><path d="M 84.19399662182784 113.82643327865904 l -11.521475990531815 10.078507212946196 a36.30753790267428,36.30753790267428 0 0,0 -0.40743539360990716,-0.4739394101039886 l 11.6932538937125 -9.878690703680677" fill="#ffb210" stroke="none" /><path d="M 83.95833913139862 113.55231037782056 l -11.481354540062325 9.699673965136627 a36.03014228490732,36.03014228490732 0 0,0 -0.39616685609476854,-0.47720849910173524 l 11.64661739605063 -9.50060420892113" fill="#ffae10" stroke="none" /><path d="M 83.50135304334701 112.99209946851258 l -11.58719621861764 9.124506162776457 a35.74855006172785,35.74855006172785 0 0,0 -0.37653978895203805,-0.4867284352948586 l 11.742542824787746 -8.923699733368347" fill="#ffab0f" stroke="none" /><path d="M 83.06392112726016 112.41649034213515 l -14.797615182975063 10.848700421546784 a39.34839818457959,39.34839818457959 0 0,0 -0.3957703254397224,-0.5496903669849093 l 14.982165300790394 -10.592376449110738" fill="#ffda14" stroke="none" /><path d="M 82.85270091963577 112.12312394758628 l -13.322277630577942 9.418837463714539 a37.315562522759365,37.315562522759365 0 0,0 -0.3662950574845853,-0.5276753498828685 l 13.48243359522466 -9.188120851644658" fill="#ffbf11" stroke="none" /><path d="M 82.44556493220864 111.52570212397912 l -13.567030216238134 8.907694743551696 a37.22995177234415,37.22995177234415 0 0,0 -0.34711635684438685,-0.5387322942657896 l 13.718351436459566 -8.672840849364459" fill="#ffbe11" stroke="none" /><path d="M 82.05923443525364 110.91462005526583 l -13.334034095449526 8.112023727781722 a36.60773507651588,36.60773507651588 0 0,0 -0.3228786968353996,-0.541163267844074 l 13.471693667983159 -7.881298366051538" fill="#ffb610" stroke="none" /><line stroke="#e1ed5e" stroke-width="0.3" x1="26.63291911575756" x2="22.317208475507996" y1="142.92168965132927" y2="145.44649492493687" /><path d="M 25.769776987707644 143.4266507060508 a86.0,86.0 0 0,1 -11.730757126820373,-40.83630448921669" fill="none" id="id93" stroke="none" /><text fill="#e1ed5e" style="font-size:6.75px; font-family:Arial;" text-anchor="middle"><textPath startOffset="21.46611528233685" xlink:href="#id93">September</textPath></text><path d="M 81.69416730710424 110.29060199501025 l -13.238077258436395 7.4417693273594425 a36.18639589309981,36.18639589309981 0 0,0 -0.3005600524134935,-0.5456037986992074 l 13.364213720301404 -7.212795010262413" fill="#ffb010" stroke="none" /><path d="M 81.51974371655577 109.97397251340807 l -13.336023331933934 7.197580385832592 a36.15436180511764,36.15436180511764 0 0,0 -0.29086613065260025,-0.5502091034313932 l 13.45794197081142 -6.966956267315072" fill="#ffb010" stroke="none" /><path d="M 81.18737489456691 109.33194174019688 l -13.573992989028657 6.7333352493625975 a36.15226350241138,36.15226350241138 0 0,0 -0.27173890761248526,-0.5598626360874922 l 13.687885153255861 -6.498683657309821" fill="#ffb010" stroke="none" /><path d="M 80.87730276802145 108.67885076344099 l -14.404312531588673 6.5374082586301805 a36.81840466822393,36.81840466822393 0 0,0 -0.25695549762379427,-0.5793668128714138 l 14.514709113943747 -6.288493109266071" fill="#ffb911" stroke="none" /><path d="M 80.73074385275274 108.34839909993369 l -15.485608121176414 6.709134795492534 a37.87650877956497,37.87650877956497 0 0,0 -0.25404138559346245,-0.600478792930789 l 15.598800487962183 -6.441581476895586" fill="#ffc712" stroke="none" /><path d="M 80.45479744820244 107.68017299344265 l -17.28742968905828 6.79299435613847 a39.57417555577266,39.57417555577266 0 0,0 -0.2436746323681965,-0.6361575728398176 l 17.401798601019983 -6.494413216465495" fill="#ffdd14" stroke="none" /><path d="M 80.32549172779594 107.34259656027581 l -14.518536293274543 5.418369454135018 a36.49666491993143,36.49666491993143 0 0,0 -0.21459298437301125,-0.5904677289750604 l 14.609653538652779 -5.16765392815384" fill="#ffb510" stroke="none" /><path d="M 80.20201598880116 107.00284435728193 l -15.368226630856523 5.435972626427363 a37.30129406435683,37.30129406435683 0 0,0 -0.20890353331672817,-0.6071714533947786 l 15.45952099511648 -5.170628469943288" fill="#ffbf11" stroke="none" /><path d="M 79.97269907076064 106.31721596034903 l -14.597307336131047 4.6044318806483 a36.30627892105053,36.30627892105053 0 0,0 -0.1828682047510553,-0.597623873809967 l 14.674402313388232 -4.352481034286285" fill="#ffb210" stroke="none" /><path d="M 79.76711848015287 105.62410040840567 l -14.107902314382486 3.9215501306738925 a35.64279560533258,35.64279560533258 0 0,0 -0.15922472477586577,-0.5925344339425076 l 14.173315115500126 -3.678124763555846" fill="#ffa90f" stroke="none" /><path d="M 79.67330655649465 105.27499134158121 l -14.194166987254745 3.683536044208407 a35.66433817978346,35.66433817978346 0 0,0 -0.14909168453998833,-0.5955471679031789 l 14.255469986089793 -3.438661036907836" fill="#ffa90f" stroke="none" /><path d="M 79.58551787078972 104.9243191809786 l -14.217257765674917 3.429443601523203 a35.625029975752945,35.625029975752945 0 0,0 -0.13866522804405018,-0.5973661732075797 l 14.274183559649522 -3.184208770967049" fill="#ffa90f" stroke="none" /><path d="M 79.50377843672027 104.57218783832718 l -15.104565336708974 3.3694459109207706 a36.475821779715965,36.475821779715965 0 0,0 -0.1314275294418185,-0.6139856630746906 l 15.160326904875234 -3.108946428429916" fill="#ffb410" stroke="none" /><path d="M 79.29508885075956 103.50808413554451 l -14.93893240443271 2.5311401431386846 a36.15184384187013,36.15184384187013 0 0,0 -0.0986742983628843,-0.6144449500976636 l 14.980288457156886 -2.2736159633478072" fill="#ffb010" stroke="none" /><path d="M 79.23777060512086 103.15116336523772 l -15.280682553348038 2.3192079300411685 a36.45567807373591,36.45567807373591 0 0,0 -0.08882330307028864,-0.6212299747957726 l 15.318339907434925 -2.0558324832649957" fill="#ffb410" stroke="none" /><path d="M 79.18660465613746 102.79330883721812 l -14.76099174495529 1.9810323114554143 a35.893332948459474,35.893332948459474 0 0,0 -0.07691170527528834,-0.6130619651458663 l 14.792904959477426 -1.7266525920221394" fill="#ffad10" stroke="none" /><path d="M 79.1416061653843 102.43462659150553 l -14.920177268670699 1.741508028676616 a36.02146930038813,36.02146930038813 0 0,0 -0.06658431118055151,-0.6164880265558998 l 14.947943881352302 -1.484423680235934" fill="#ffae10" stroke="none" /><path d="M 79.10278846688536 102.07522291339032 l -15.324207277898273 1.521788972765271 a36.39958344805535,36.39958344805535 0 0,0 -0.05655005263519486,-0.6240251185894992 l 15.348131926810543 -1.2577824656272056" fill="#ffb310" stroke="none" /><path d="M 79.0095281055655 100.63252640178507 l -17.164717848856345 0.5172412165479647 a38.172509347994065,38.172509347994065 0 0,0 -0.014138256422126894,-0.6569492207243602 l 17.171078167963476 -0.2217021800334757" fill="#ffcb12" stroke="none" /><line stroke="#e1ed5e" stroke-width="0.3" x1="15.007084014347285" x2="10.007500721073583" y1="101.09737516637583" y2="101.16192664675087" /><path d="M 14.007167355692545 101.11028546245083 a86.0,86.0 0 0,1 10.666146001902534,-42.60595125391555" fill="none" id="id94" stroke="none" /><text fill="#e1ed5e" style="font-size:6.75px; font-family:Arial;" text-anchor="middle"><textPath startOffset="22.20632615414155" xlink:href="#id94">October</textPath></text><path d="M 79.00175016825051 100.2711162175752 l -15.064697700943587 0.19450591798456637 a36.065953317760744,36.065953317760744 0 0,0 -0.0026718048253856277,-0.620833346853296 l 15.065813803058475 0.06483690707240501" fill="#ffaf10" stroke="none" /><path d="M 79.00019446554 99.90962569577889 l -15.149885019626925 -0.06519871412294789 a36.15002531285805,36.15002531285805 0 0,0 0.008033900515691007,-0.6222344486092537 l 15.146518111993519 0.32596942079267355" fill="#ffb010" stroke="none" /><path d="M 79.01574976396665 99.18683210126434 l -15.056331405311218 -0.583453077132143 a36.06763195992575,36.06763195992575 0 0,0 0.02938033535221282,-0.6201724433875323 l 15.044057461725506 0.8425366271426843" fill="#ffaf10" stroke="none" /><path d="M 79.08570108090925 98.10471618934814 l -14.969640112144099 -1.3565702902875392 a36.03098160598982,36.03098160598982 0 0,0 0.06129191559317642,-0.617201225543482 l 14.944071070868693 1.6140470465354515" fill="#ffae10" stroke="none" /><path d="M 79.12142395522702 97.74499172005258 l -14.968131566306242 -1.6166457207129892 a36.0551820305353,36.0551820305353 0 0,0 0.07195523577576565,-0.6164685178047916 l 14.938085977526887 1.8740579768426426" fill="#ffaf10" stroke="none" /><path d="M 79.3925641242962 95.95851677861259 l -13.971118924613238 -2.739983909614088 a35.23726363563695,35.23726363563695 0 0,0 0.12185499501185303,-0.5942082315984349 l 13.92188463368639 2.9800677973759258" fill="#ffa40f" stroke="none" /><path d="M 79.46518482838121 95.60439243477599 l -14.711015306154012 -3.1489862280927063 a36.044270856462774,36.044270856462774 0 0,0 0.13508983013440448,-0.605581220038774 l 14.65463108901757 3.40174561768144" fill="#ffaf10" stroke="none" /><path d="M 79.54389044137918 95.25157060432595 l -14.556384859356013 -3.3789399476393336 a35.94341243971543,35.94341243971543 0 0,0 0.1450867819802511,-0.6014783788511121 l 14.496065277114948 3.6290035581498423" fill="#ffad10" stroke="none" /><path d="M 79.62865764111835 94.90015583598534 l -14.385606141748022 -3.601350771851373 a35.829544546189304,35.829544546189304 0 0,0 0.1549263843909625,-0.5969945575079928 l 14.321483425486754 3.8484417549082295" fill="#ffac0f" stroke="none" /><path d="M 79.71946130924805 94.55025226153421 l -15.053289329740668 -4.045091243983306 a36.587311596841666,36.587311596841666 0 0,0 0.16867313295167055,-0.6068070032128091 l 14.981429426222636 4.303609550615057" fill="#ffb610" stroke="none" /><path d="M 79.81627453868168 94.20196356495316 l -14.450623135391542 -4.151128571814143 a36.035038324555245,36.035038324555245 0 0,0 0.1763899731960912,-0.5946993014644321 l 14.377027265083743 4.399257260025114" fill="#ffae10" stroke="none" /><path d="M 80.2630227832202 92.82701384747504 l -15.100914812077196 -5.488107507435301 a37.06726336918581,37.06726336918581 0 0,0 0.22310152412698983,-0.5978011655610979 l 15.004208699448577 5.74723181002574" fill="#ffbc11" stroke="none" /><path d="M 80.38941819471856 92.48833698450439 l -14.283775725302377 -5.471276217235521 a36.29578740751925,36.29578740751925 0 0,0 0.22850177178080655,-0.5815120853024606 l 14.187480403639878 5.7163373074337445" fill="#ffb210" stroke="none" /><path d="M 80.52162464483688 92.15188598940014 l -13.831054731734712 -5.572728343215128 a35.91151823858035,35.91151823858035 0 0,0 0.23595289085308516,-0.5713786408161622 l 13.733080153995427 5.809981554484602" fill="#ffad10" stroke="none" /><path d="M 80.803312248108 91.48605970444005 l -14.214143806590178 -6.304127737342837 a36.54940226128198,36.54940226128198 0 0,0 0.2600188578195221,-0.572917086399613 l 14.103522631807303 6.547866832584521" fill="#ffb510" stroke="none" /><path d="M 80.95270993114464 91.15688171328213 l -15.217776666663692 -7.06518347952315 a37.77788855237097,37.77788855237097 0 0,0 0.27891200352402923,-0.5874598108506407 l 15.093906469297911 7.326085706014323" fill="#ffc612" stroke="none" /><path d="M 81.26839172434947 90.50648371742162 l -56.19482482695157 -28.480548847735136 a84.0,84.0 0 0,0 0.6647622673595439,-1.284109110958658 l 55.69625312643191 29.44363068095413" fill="#4dd2ff" stroke="none" /><line stroke="#e1ed5e" stroke-width="0.3" x1="26.266209847984243" x2="21.928928074336255" y1="57.711370442889674" y2="55.22380399835377" /><path d="M 25.398753493254645 57.213857153982495 a86.0,86.0 0 0,1 29.58750427330803,-30.492523968695096" fill="none" id="id95" stroke="none" /><text fill="#e1ed5e" style="font-size:6.75px; font-family:Arial;" text-anchor="middle"><textPath startOffset="21.46611528233685" xlink:href="#id95">November</textPath></text><path d="M 81.78341655067845 89.55222093294921 l -12.990182218161221 -7.450274868152341 a35.975026867156345,35.975026867156345 0 0,0 0.31270919596521546,-0.5345213820797454 l 12.860013347725681 7.672775662585979" fill="#ffae10" stroke="none" /><path d="M 82.34701348167596 88.62581576622439 l -12.997266301594964 -8.374407429379238 a36.461553321313424,36.461553321313424 0 0,0 0.34448070757262766,-0.5246677510960008 l 12.851188958664416 8.596893244452904" fill="#ffb410" stroke="none" /><path d="M 82.54541684631803 88.32363383020206 l -12.81072705493223 -8.569825969357053 a36.412872698528304,36.412872698528304 0 0,0 0.3529890483875731,-0.5179678719479565 l 12.661313540875916 8.789071864575426" fill="#ffb310" stroke="none" /><path d="M 82.7489923806493 88.02491185347247 l -12.185570553798048 -8.458826563485923 a35.833741151601814,35.833741151601814 0 0,0 0.3560975982644639,-0.5036747991391999 l 12.038160335729705 8.66732786295691" fill="#ffac0f" stroke="none" /><path d="M 82.95767976084542 87.72973835380427 l -11.475877745572413 -8.262491291204231 a35.140881597996284,35.140881597996284 0 0,0 0.3576628679392125,-0.4878517499194746 l 11.331952265119567 8.458805484795207" fill="#ffa20f" stroke="none" /><path d="M 84.80347519578584 85.50635884689758 l -10.232053610092034 -9.75879124961879 a35.139622616372534,35.139622616372534 0 0,0 0.42123327488224255,-0.43411791721636556 l 10.062556071506673 9.933473362385278" fill="#ffa20f" stroke="none" /><path d="M 85.31137513191541 84.99185889309783 l -10.47685336555559 -10.704752492401644 a35.97852403833344,35.97852403833344 0 0,0 0.4463337324799491,-0.42937269701595365 l 10.291036389463212 10.883508276179912" fill="#ffae10" stroke="none" /><path d="M 85.57189188830299 84.74124197986013 l -10.485177873145041 -11.088826804308374 a36.261095469442495,36.261095469442495 0 0,0 0.45722153358430634,-0.42493758566377027 l 10.292748455765878 11.26766897604679" fill="#ffb110" stroke="none" /><path d="M 85.83668400450813 84.49514656593479 l -10.483232608550502 -11.476195628377202 a36.54352701370447,36.54352701370447 0 0,0 0.46808605910363366,-0.4202522855655365 l 10.284135561850897 11.654946922712018" fill="#ffb510" stroke="none" /><path d="M 86.37877921826538 84.01681056812374 l -9.534588391964524 -11.18792029478658 a35.69958966524855,35.69958966524855 0 0,0 0.47113677187505104,-0.3945634972771432 l 9.340594083130362 11.350384949457533" fill="#ffaa0f" stroke="none" /><path d="M 86.65592168130627 83.78471172551755 l -9.51917132293365 -11.56738618052908 a35.98062234103969,35.98062234103969 0 0,0 0.481620507504784,-0.3894369559409615 l 9.318647416864364 11.729529233734176" fill="#ffae10" stroke="none" /><path d="M 87.80319425747018 82.90503203632743 l -9.513700220486195 -13.33434375511031 a37.380330132959116,37.380330132959116 0 0,0 0.5270072259262748,-0.36920224057445 l 9.282761854976261 13.496130838448703" fill="#ffc011" stroke="none" /><path d="M 88.09926311788651 82.69761687909137 l -8.482648142393739 -12.332852116086364 a35.96845218534341,35.96845218534341 0 0,0 0.5131418773424633,-0.3464756861976193 l 8.269101570644736 12.477039714582649" fill="#ffae10" stroke="none" /><path d="M 89.00827224532344 82.1063720568725 l -7.987675897324802 -13.003278813579287 a36.26067580890124,36.26067580890124 0 0,0 0.5346514635723739,-0.32212152454630244 l 7.762662367534779 13.13884694758421" fill="#ffb110" stroke="none" /><line stroke="#e1ed5e" stroke-width="0.3" x1="56.762969772571076" x2="54.21961505331055" y1="26.818313649435495" y2="22.513508569990535" /><path d="M 56.25429882871897 25.957352633546506 a86.0,86.0 0 0,1 42.265352541879196,-11.944610805530505" fill="none" id="id96" stroke="none" /><text fill="#e1ed5e" style="font-size:6.75px; font-family:Arial;" text-anchor="middle"><textPath startOffset="22.20632615414155" xlink:href="#id96">December</textPath></text><path d="M 89.3179101791058 81.91981866633112 l -7.907821371593437 -13.384538676412566 a36.546044976951976,36.546044976951976 0 0,0 0.5443677278219025,-0.3153329244600022 l 7.676256911306214 13.518675758262615" fill="#ffb510" stroke="none" /><path d="M 89.63071344664047 81.73862282372117 l -7.646831939027809 -13.46685536402311 a36.48645318009433,36.48645318009433 0 0,0 0.5488186492758312,-0.30541698412865814 l 7.413889200679932 13.59648774571195" fill="#ffb410" stroke="none" /><path d="M 90.58718382345135 81.22770947309562 l -8.165664641188723 -16.285054984030378 a39.217603982556334,39.217603982556334 0 0,0 0.6060590157783752,-0.2973905269570405 l 7.884134358399922 16.42320067112225" fill="#ffd814" stroke="none" /><path d="M 90.91171255644093 81.06846463323043 l -6.541244659802606 -13.625867952439036 a36.11463394054587,36.11463394054587 0 0,0 0.5627378626802519,-0.26421297201931127 l 6.305728585822745 13.736445907098354" fill="#ffb010" stroke="none" /><path d="M 91.90106846888425 80.62456947434976 l -5.667313495831234 -13.558163627348314 a35.694973399294796,35.694973399294796 0 0,0 0.5689373033979832,-0.2320838112209764 l 5.43309232284487 13.653708324752868" fill="#ffaa0f" stroke="none" /><path d="M 92.91201910852362 80.23233633223022 l -5.201205968983122 -14.50563874760096 a36.40993507473954,36.40993507473954 0 0,0 0.5917793367569523,-0.20646019070262944 l 4.950744628162885 14.593019791475799" fill="#ffb310" stroke="none" /><path d="M 93.25333710446033 80.11325718540243 l -4.501465451985102 -13.268705894821986 a35.01148626444387,35.01148626444387 0 0,0 0.5723830787336914,-0.18870570182958996 l 4.272399551009002 13.34422532091081" fill="#ffa10e" stroke="none" /><path d="M 93.59665428221793 80.00007090966166 l -4.609625780757286 -14.3975029322755 a36.117431677487545,36.117431677487545 0 0,0 0.5937269388185515,-0.18447385000556782 l 4.361113469228005 14.474716917163594" fill="#ffb010" stroke="none" /><path d="M 94.28887869178378 79.79150937346287 l -4.324085429571233 -15.30053997384424 a36.89981881322664,36.89981881322664 0 0,0 0.6127164146397297,-0.16747854161769302 l 4.060071125707781 15.372705056288229" fill="#ffba11" stroke="none" /><path d="M 94.63758080256005 79.69619591428918 l -2.1671311003287403 -8.205439311818814 a29.486795125720526,29.486795125720526 0 0,0 0.49185534446220885,-0.12538487891949582 l 2.025566867181532 8.241527186907174" fill="#ff5407" stroke="none" /><path d="M 94.98787191387505 79.60689891045804 l -3.774120295918304 -15.355955673163791 a36.81294908118766,36.81294908118766 0 0,0 0.6166630238007699,-0.14594421415042097 l 3.5092335851550005 15.418645799455083" fill="#ffb911" stroke="none" /><path d="M 95.692805502759 79.44645832069477 l -3.1281683370242224 -14.927335725399608 a36.251583163840806,36.251583163840806 0 0,0 0.6118466087267049,-0.12273067375652745 l 2.8707553188303807 14.978970355233347" fill="#ffb110" stroke="none" /><path d="M 96.04723909329186 79.375362276772 l -3.0045666198750287 -15.677168316723012 a36.962488120720124,36.962488120720124 0 0,0 0.6259067196144964,-0.11438045231448231 l 2.734264779157639 15.72656425038823" fill="#ffbb11" stroke="none" /><path d="M 96.75951476605007 79.25152402106235 l -2.407483004598515 -15.4148529261235 a36.601719942091286,36.601719942091286 0 0,0 0.6233290676645317,-0.0918625014354129 l 2.1417849565053344 15.454009911719881" fill="#ffb610" stroke="none" /><path d="M 97.11714578562143 79.19881850522333 l -1.3772170224035742 -9.937284063074971 a31.03226501230116,31.03226501230116 0 0,0 0.5297433308548042,-0.06877588808035182 l 1.2059589630409124 9.95951827431946" fill="#ff6a09" stroke="none" /><path d="M 97.83486435360386 79.11191278185805 l -1.6190345959545525 -15.619592197735347 a36.70327779307405,36.70327779307405 0 0,0 0.6289803538644892,-0.059729263480303406 l 1.349929114999827 15.64514700573083" fill="#ffb711" stroke="none" /><path d="M 98.19473922651362 79.07773832637324 l -1.2483149526602975 -14.467478867455037 a35.52123393521685,35.52123393521685 0 0,0 0.6096286283908444,-0.04731891457523765 l 0.9990961349071188 14.486823044218738" fill="#ffa80f" stroke="none" /><path d="M 99.27714615592234 79.0124445844662 l -0.5398580110962814 -15.67439948923584 a36.68369363448233,36.68369363448233 0 0,0 0.6312623715320513,-0.016303644651267716 l 0.26996900436935106 15.681369926029468" fill="#ffb711" stroke="none" /><path d="M 99.63851952072746 79.00311137660856 l -0.260395106018766 -15.125262227590396 a36.12750353047757,36.12750353047757 0 0,0 0.621875585291298,-0.005352679495731231 l 3.705169755537928e-15 15.127503530477568" fill="#ffb010" stroke="none" /></svg>