<?xml version="1.0" encoding="utf-8" ?>
<svg baseProfile="full" height="200mm" version="1.1" viewBox="0,0,200,200" width="200mm" xmlns="http://www.w3.org/2000/svg" xmlns:ev="http://www.w3.org/2001/xml-events" xmlns:xlink="http://www.w3.org/1999/xlink"><defs /><rect fill="#1a1a1a" height="200" width="200" x="0" y="0" /><text alignment-baseline="middle" fill="#e1ed5e" style="dominant-baseline: central; font-size:9.0px; font-family:Arial;" text-anchor="middle" x="100.0" y="100.0">2016</text><line stroke="#e1ed5e" stroke-width="0.3" x1="100.0" x2="100.0" y1="15.0" y2="10.0" /><path d="M 100.0 14.0 a86.0,86.0 0 0,1 42.35913384403234,11.155469271406648" fill="none" id="id1" stroke="none" /><text fill="#e1ed5e" style="font-size:6.75px; font-family:Arial;" text-anchor="middle"><textPath startOffset="22.145653131862478" xlink:href="#id1">January</textPath></text><line stroke="#e1ed5e" stroke-width="0.3" x1="143.13028292997686" x2="145.6673583964461" y1="26.7553504044142" y2="22.446841604673864" /><path d="M 143.63769802327073 25.89364864446614 a86.0,86.0 0 0,1 29.32050498858742,28.57503671076993" fill="none" id="id2" stroke="none" /><text fill="#e1ed5e" style="font-size:6.75px; font-family:Arial;" text-anchor="middle"><textPath startOffset="20.669276256404974" xlink:href="#id2">February</textPath></text><line stroke="#e1ed5e" stroke-width="0.3" x1="172.87174338648825" x2="177.1583165268699" y1="56.24261187166439" y2="53.66864786411523" /><path d="M 173.72905801456457 55.72781907015455 a86.0,86.0 0 0,1 12.242430191666344,42.057860355516425" fill="none" id="id3" stroke="none" /><text fill="#e1ed5e" style="font-size:6.75px; font-family:Arial;" text-anchor="middle"><textPath startOffset="22.145653131862474" xlink:href="#id3">March</textPath></text><line stroke="#e1ed5e" stroke-width="0.3" x1="184.99686870605535" x2="189.99668451229388" y1="99.2704041080226" y2="99.22748670261217" /><path d="M 185.99683186730306 99.26182062694052 a86.0,86.0 0 0,1 -10.086455211305974,41.156179273409016" fill="none" id="id4" stroke="none" /><text fill="#e1ed5e" style="font-size:6.75px; font-family:Arial;" text-anchor="middle"><textPath startOffset="21.40746469413373" xlink:href="#id4">April</textPath></text><line stroke="#e1ed5e" stroke-width="0.3" x1="174.33088141563837" x2="178.70328620479359" y1="141.23008692659167" y2="143.65538615756765" /><path d="M 175.20536237346943 141.71514677278685 a86.0,86.0 0 0,1 -30.301960400862466,31.631185727798858" fill="none" id="id5" stroke="none" /><text fill="#e1ed5e" style="font-size:6.75px; font-family:Arial;" text-anchor="middle"><textPath startOffset="22.145653131862474" xlink:href="#id5">May</textPath></text><line stroke="#e1ed5e" stroke-width="0.3" x1="143.1302829299769" x2="145.66735839644613" y1="173.24464959558577" y2="177.55315839532614" /><path d="M 143.63769802327073 174.10635135553383 a86.0,86.0 0 0,1 -40.68552437913181,11.842963189579606" fill="none" id="id6" stroke="none" /><text fill="#e1ed5e" style="font-size:6.75px; font-family:Arial;" text-anchor="middle"><textPath startOffset="21.407464694133747" xlink:href="#id6">June</textPath></text><line stroke="#e1ed5e" stroke-width="0.3" x1="101.45913802915013" x2="101.54496967792366" y1="184.9874750549273" y2="189.98673829345242" /><path d="M 101.47630435890484 185.9873277026323 a86.0,86.0 0 0,1 -42.54439059252881,-10.42667462771756" fill="none" id="id7" stroke="none" /><text fill="#e1ed5e" style="font-size:6.75px; font-family:Arial;" text-anchor="middle"><textPath startOffset="22.145653131862474" xlink:href="#id7">July</textPath></text><path d="M 92.93061703081489 119.77432235084164 l -6.040807402000552 16.89721342685705 a38.94455838578433,38.94455838578433 0 0,0 -0.6275838591328083,-0.23045748601579857 l 6.329980412787479 -16.79102509183253" fill="#ffa90f" stroke="none" /><path d="M 92.59220618246901 119.65005319985036 l -11.836720745084373 31.39830806335848 a54.55535288502675,54.55535288502675 0 0,0 -0.8734772794952244,-0.33787977613786907 l 12.373970287073124 -31.19048839908257" fill="#88ff25" stroke="none" /><path d="M 92.25597844496254 119.51999308798841 l -15.247955679352655 38.434809013839015 a62.348938273307375,62.348938273307375 0 0,0 -0.991483323137313,-0.4032276360126809 l 15.90549346368041 -38.16739412124704" fill="#30ff2f" stroke="none" /><path d="M 91.26138138417905 119.09545874513695 l -2.878363121046395 6.289742881323983 a27.91706872669093,27.91706872669093 0 0,0 -0.4340589530899935,-0.20316150696750043 l 2.985910788007878 -6.239405142785956" fill="#ff0000" stroke="none" /><line stroke="#e1ed5e" stroke-width="0.3" x1="58.13341422392154" x2="55.67067388415222" y1="173.97424548756322" y2="178.32567169271397" /><path d="M 57.64086615596768 174.84453072859336 a86.0,86.0 0 0,1 -31.369924170532247,-30.572349798747897" fill="none" id="id8" stroke="none" /><text fill="#e1ed5e" style="font-size:6.75px; font-family:Arial;" text-anchor="middle"><textPath startOffset="22.145653131862474" xlink:href="#id8">August</textPath></text><path d="M 85.60350026404147 115.28858382429668 l -14.587615955116112 15.491542626113997 a42.2787789168144,42.2787789168144 0 0,0 -0.524110924574488,-0.5020864098735999 l 14.851399365555915 -15.238844085934815" fill="#ffd814" stroke="none" /><path d="M 85.34317274990678 115.03919595460226 l -18.579932724223433 19.064647777788764 a47.62094466633021,47.62094466633021 0 0,0 -0.5805403145535476,-0.5755784613385481 l 18.904464958906942 -18.742889306221556" fill="#deff1b" stroke="none" /><path d="M 85.08716467003676 114.78537596483092 l -25.100560518617673 24.886027102444267 a56.34618060402536,56.34618060402536 0 0,0 -0.6751163211768113,-0.6927288200291591 l 25.524063640945293 -24.45147559034737" fill="#73ff27" stroke="none" /><path d="M 84.58840730492382 114.26474011684316 l -31.616594172068016 29.26384755732208 a64.08110723854983,64.08110723854983 0 0,0 -0.7402963785081069,-0.8137154008181132 l 32.114288251418 -28.716794580946292" fill="#32ff46" stroke="none" /><path d="M 84.3458050057657 113.99807769240083 l -21.5578327219674 19.2771469521765 a49.919691324150335,49.919691324150335 0 0,0 -0.5657302012261913,-0.6436971193347463 l 21.885573987152185 -18.904237555030452" fill="#c1ff1e" stroke="none" /><path d="M 84.1078160697243 113.72728997021213 l -38.56101939680429 33.30809013596178 a71.95469640205965,71.95469640205965 0 0,0 -0.7994010405617025,-0.9416924157163585 l 39.127115000873104 -32.64123093779587" fill="#3cffa8" stroke="none" /><path d="M 83.64595745247003 113.17365903436017 l -8.434102904878493 6.793916281351313 a31.830114969292353,31.830114969292353 0 0,0 -0.3391173921509161,-0.42846374689151084 l 8.549486727670972 -6.648132590545122" fill="#ff3e05" stroke="none" /><path d="M 83.4222238831116 112.89097897827486 l -31.51928021926011 24.50958294115872 a60.9272423476726,60.9272423476726 0 0,0 -0.6349431672878002,-0.8311609879292106 l 31.935375363902207 -23.96490103998864" fill="#3fff2d" stroke="none" /><path d="M 83.20337586046588 112.60449989151573 l -10.2719868367599 7.708290421576482 a33.84256418313478,33.84256418313478 0 0,0 -0.34470743480367266,-0.46766183829089075 l 10.402796291147403 -7.530822274016711" fill="#ff5d08" stroke="none" /><path d="M 82.78059297857968 112.02048342749411 l -23.205952913133707 16.19955739849419 a49.30091713202395,49.30091713202395 0 0,0 -0.4784777569487454,-0.6981133468692268 l 23.480620406897778 -15.798809316554912" fill="#c9ff1d" stroke="none" /><path d="M 82.576782715395 111.72311816256416 l -25.418869865853342 17.1029500538652 a51.63706653389313,51.63706653389313 0 0,0 -0.48852491267185644,-0.7396889827114158 l 25.708719217445925 -16.664081192814724" fill="#abff21" stroke="none" /><path d="M 82.37810715431573 111.42229804090323 l -24.774845909145526 16.058755797111623 a50.524170226666335,50.524170226666335 0 0,0 -0.46550157543532794,-0.7318457943408991 l 25.046865176206744 -15.631096328092053" fill="#b9ff1f" stroke="none" /><path d="M 82.18462484594161 111.11811171558189 l -25.264237583852687 15.766752787256879 a50.78039949610863,50.78039949610863 0 0,0 -0.45516656966287,-0.7434803844486023 l 25.53117211797096 -15.33073528668372" fill="#b6ff1f" stroke="none" /><path d="M 81.99639281039703 110.81064883170644 l -24.54814793151719 14.740457507297222 a49.6337677295896,49.6337677295896 0 0,0 -0.4323486182406939,-0.734222474208851 l 24.797570259887653 -14.316883864794812" fill="#c5ff1e" stroke="none" /><line stroke="#e1ed5e" stroke-width="0.3" x1="26.387840678322732" x2="22.057713659400548" y1="142.50000000000003" y2="145.00000000000006" /><path d="M 25.521815274538298 143.00000000000003 a86.0,86.0 0 0,1 -11.493303480769221,-40.785679425670985" fill="none" id="id9" stroke="none" /><text fill="#e1ed5e" style="font-size:6.75px; font-family:Arial;" text-anchor="middle"><textPath startOffset="21.40746469413373" xlink:href="#id9">September</textPath></text><path d="M 81.29705330413844 109.54985784667822 l -37.696426973096415 19.248064210139383 a63.326216253944075,63.326216253944075 0 0,0 -0.48604404913252464,-0.9724136862658159 l 38.021290935440675 -18.598118667709816" fill="#31ff3c" stroke="none" /><path d="M 80.9802524753101 108.90220220490708 l -16.731798830221795 7.831326690593945 a39.47384014843207,39.47384014843207 0 0,0 -0.2819852025758576,-0.6161885578548664 l 16.86376849765271 -7.54294915052439" fill="#ffb010" stroke="none" /><path d="M 80.68587082218212 108.24405325689762 l -27.351165047826523 11.674585958110171 a50.73856396611562,50.73856396611562 0 0,0 -0.3350536908301234,-0.8040068859789202 l 27.547544583193133 -11.203346562689969" fill="#b7ff1f" stroke="none" /><path d="M 80.5471966667186 107.91128576633889 l -26.794230794619846 10.896980402963758 a49.92533467011109,49.92533467011109 0 0,0 -0.31605429256210743,-0.7966632792012641 l 26.97734376214808 -10.435416106548928" fill="#c1ff1e" stroke="none" /><path d="M 80.28708602549918 107.23885506374661 l -40.38355527588222 14.829400867829511 a64.0202587953515,64.0202587953515 0 0,0 -0.36997560576888594,-1.034887616403271 l 40.63217105169505 -14.133978295045319" fill="#32ff45" stroke="none" /><path d="M 80.16572619554312 106.89939002012753 l -27.433280116924855 9.542718877640153 a50.04562517060589,50.04562517060589 0 0,0 -0.275285680653803,-0.8138331997931266 l 27.593051219151025 -9.070384003372865" fill="#bfff1e" stroke="none" /><path d="M 80.05021161711548 106.5578916946017 l -27.406291383255773 9.008992335792401 a49.84903378434512,49.84903378434512 0 0,0 -0.26024823748456677,-0.8152238972432431 l 27.556904336517594 -8.537199404857766" fill="#c2ff1e" stroke="none" /><path d="M 79.48165901384964 104.47187691870673 l -34.6939178055825 7.561377908624053 a56.50834223921954,56.50834223921954 0 0,0 -0.19843116734477023,-0.9495649686359239 l 34.81860668375164 -6.96469648870272" fill="#71ff27" stroke="none" /><path d="M 79.34024301695615 103.76489593502545 l -30.249514788446305 5.512469258809973 a51.74769035660657,51.74769035660657 0 0,0 -0.1517567121412839,-0.8752923878540244 l 30.339686318079824 -4.992383838035355" fill="#aaff21" stroke="none" /><path d="M 79.2786578344484 103.40968896794605 l -28.04765816174138 4.615231477128869 a49.42483931256919,49.42483931256919 0 0,0 -0.13057220649367782,-0.8383672318702959 l 28.122751860373324 -4.133076063327124" fill="#c7ff1e" stroke="none" /><path d="M 79.17382384314188 102.69636545807758 l -37.688917232597724 4.879584894169669 a59.00348445741536,59.00348445741536 0 0,0 -0.12142892865047575,-1.0056057224219472 l 37.76712824750786 -4.231885494824323" fill="#55ff2b" stroke="none" /><path d="M 79.13060592940153 102.33845913500099 l -37.795824078634034 4.2351009225557865 a59.032359874287124,59.032359874287124 0 0,0 -0.1041994450810057,-1.0080351090421857 l 37.86295591619671 -3.585661291230669" fill="#54ff2b" stroke="none" /><path d="M 79.0935383218832 101.97986365728391 l -23.2807074913933 2.204707204295262 a44.384868508428426,44.384868508428426 0 0,0 -0.06532264250631674,-0.7591481230107755 l 23.315123756597355 -1.8047380339088248" fill="#fff517" stroke="none" /><path d="M 79.03789590574601 101.26102812881392 l -25.338496525924796 1.524301029962138 a46.38430420209005,46.38430420209005 0 0,0 -0.04099137905493374,-0.7952218027307929 l 25.360929494436302 -1.0891074338546145" fill="#efff19" stroke="none" /><line stroke="#e1ed5e" stroke-width="0.3" x1="15.003131293944662" x2="10.003315487706104" y1="100.72959589197737" y2="100.7725132973878" /><path d="M 14.003168132696942 100.73817937305945 a86.0,86.0 0 0,1 10.791469493833604,-42.45332614584628" fill="none" id="id10" stroke="none" /><text fill="#e1ed5e" style="font-size:6.75px; font-family:Arial;" text-anchor="middle"><textPath startOffset="22.145653131862435" xlink:href="#id10">October</textPath></text><path d="M 79.0935383218832 98.0201363427161 l -23.892596063444213 -2.2626536882466244 a44.99949475226189,44.99949475226189 0 0,0 0.07942969571429886,-0.7684102532245196 l 23.85023397524825 2.6724684637540568" fill="#fffd17" stroke="none" /><path d="M 79.2786578344484 96.59031103205396 l -19.788750666246017 -3.256231391627991 a41.05486713510403,41.05486713510403 0 0,0 0.12039864215940252,-0.6944273732813495 l 19.729937206594382 3.595451797829933" fill="#ffc712" stroke="none" /><path d="M 79.48165901384962 95.52812308129327 l -20.117420055581718 -4.384498067909451 a41.5896676272402,41.5896676272402 0 0,0 0.15801922609908106,-0.6962618666964747 l 20.039189967924976 4.729194268544934" fill="#ffce13" stroke="none" /><path d="M 79.64726062577567 94.8264132398404 l -35.521659797312026 -9.029467014106588 a57.65132452333493,57.65132452333493 0 0,0 0.25204752556107785,-0.9570655084555209 l 35.36142279094622 9.637913026934893" fill="#64ff29" stroke="none" /><path d="M 80.05021161711548 93.44210830539832 l -36.01459560403132 -11.838712915809198 a58.91050276671175,58.91050276671175 0 0,0 0.32404866152651113,-0.9579922881293967 l 35.806061520932445 12.455206878412756" fill="#56ff2b" stroke="none" /><path d="M 80.41425534168474 92.42381321644754 l -35.64777893709846 -13.789326694381415 a59.221848121625676,59.221848121625676 0 0,0 0.3749062362020685,-0.9450086221089741 l 35.405814025930255 14.399236333703971" fill="#52ff2b" stroke="none" /><path d="M 80.83023694016515 91.42560881287825 l -20.992057845799664 -9.389480466229879 a43.99627874302953,43.99627874302953 0 0,0 0.3142916809534336,-0.6867840435009299 l 20.827781699991185 9.74845349194548" fill="#ffef16" stroke="none" /><path d="M 81.1358732173502 90.77261029715801 l -21.274119676247185 -10.406237993384437 a44.68286209845097,44.68286209845097 0 0,0 0.3429517900464763,-0.6861333143894145 l 21.092347972988968 10.769903163937622" fill="#fff917" stroke="none" /><path d="M 81.29705330413844 90.45014215332179 l -35.11859876317102 -17.931806758398263 a60.43178505608306,60.43178505608306 0 0,0 0.4796900450614216,-0.9198689109085284 l 34.80560064913466 18.532021912411277" fill="#45ff2d" stroke="none" /><path d="M 81.46374523516351 90.13048839642627 l -33.3800797948734 -17.773012350298586 a58.81679117952741,58.81679117952741 0 0,0 0.4821706724884986,-0.8871397293641873 l 33.07006377276955 18.343406913137393" fill="#57ff2a" stroke="none" /><line stroke="#e1ed5e" stroke-width="0.3" x1="26.387840678322718" x2="22.05771365940052" y1="57.49999999999999" y2="54.99999999999999" /><path d="M 25.521815274538284 56.99999999999999 a86.0,86.0 0 0,1 29.574782752854787,-30.34633250058573" fill="none" id="id11" stroke="none" /><text fill="#e1ed5e" style="font-size:6.75px; font-family:Arial;" text-anchor="middle"><textPath startOffset="21.40746469413373" xlink:href="#id11">November</textPath></text><path d="M 81.81346652052679 89.5 l -21.006304449331893 -12.127995528501007 a45.25599105700201,45.25599105700201 0 0,0 0.3942147875455839,-0.6694628928368662 l 20.79501595165653 12.486809589631445" fill="#feff18" stroke="none" /><path d="M 81.99639281039701 89.18935116829357 l -15.45079776586491 -9.277760120924032 a39.02231906451177,39.02231906451177 0 0,0 0.34977383567543685,-0.571329274051572 l 15.28925596573408 9.541626511100148" fill="#ffaa0f" stroke="none" /><path d="M 82.576782715395 88.27688183743585 l -31.529332481540944 -21.214342002981926 a59.001935652687955,59.001935652687955 0 0,0 0.5726285730371561,-0.8354822012734437 l 31.160514171688476 21.752458939325404" fill="#55ff2b" stroke="none" /><path d="M 82.98947788004972 87.6856937992154 l -20.80810172296862 -15.06346097238184 a46.68822597572437,46.68822597572437 0 0,0 0.4755484402581779,-0.6451727909326085 l 20.54645126312662 15.41844007258331" fill="#ebff1a" stroke="none" /><path d="M 84.10781606972428 86.27271002978789 l -22.678445706219126 -19.58910126190446 a50.96739541400079,50.96739541400079 0 0,0 0.5776036289228457,-0.6572069004784791 l 22.33883101333769 19.97552044019424" fill="#b4ff20" stroke="none" /><line stroke="#e1ed5e" stroke-width="0.3" x1="56.869717070023135" x2="54.33264160355391" y1="26.7553504044142" y2="22.446841604673864" /><path d="M 56.362301976729285 25.89364864446614 a86.0,86.0 0 0,1 42.16139366436587,-11.88097634709845" fill="none" id="id12" stroke="none" /><text fill="#e1ed5e" style="font-size:6.75px; font-family:Arial;" text-anchor="middle"><textPath startOffset="22.145653131862474" xlink:href="#id12">December</textPath></text><path d="M 90.61103034731259 81.2157712731953 l -18.823628464529797 -37.659866377873755 a63.1021914414198,63.1021914414198 0 0,0 0.9730951403527426,-0.4759895955658561 l 18.174373074915 37.97744972353683" fill="#30ff39" stroke="none" /><path d="M 93.27111125876988 80.10723608172694 l -8.503770434687821 -25.139886269171658 a47.53917845813537,47.53917845813537 0 0,0 0.7752898901341302,-0.25485318610101965 l 8.07095780690593 25.282160376674707" fill="#e0ff1b" stroke="none" /><path d="M 94.6519064749342 79.69241777938228 l -16.044280575197423 -60.922746661853175 a84.0,84.0 0 0,0 1.3975788270984877,-0.35525907265894796 l 14.996096454873559 61.18919096634739" fill="#4dd2ff" stroke="none" /></svg>