<?xml version="1.0" encoding="utf-8" ?>
<svg baseProfile="full" height="200mm" version="1.1" viewBox="0,0,200,200" width="200mm" xmlns="http://www.w3.org/2000/svg" xmlns:ev="http://www.w3.org/2001/xml-events" xmlns:xlink="http://www.w3.org/1999/xlink"><defs /><rect fill="#1a1a1a" height="200" width="200" x="0" y="0" /><rect fill="#1a1a1a" height="200" width="180" x="10" y="0" /><text alignment-baseline="middle" fill="#e1ed5e" style="dominant-baseline: central; font-size:9.0px; font-family:Arial;" text-anchor="middle" x="100.0" y="100.0">2022</text><line stroke="#e1ed5e" stroke-width="0.3" x1="100.0" x2="100.0" y1="15.0" y2="10.0" /><path d="M 100.0 14.0 a86.0,86.0 0 0,1 42.46469731375804,11.215312516191453" fill="none" id="id73" stroke="none" /><text fill="#e1ed5e" style="font-size:6.75px; font-family:Arial;" text-anchor="middle"><textPath startOffset="22.20632615414155" xlink:href="#id73">January</textPath></text><path d="M 102.52436894288641 79.15227682838746 l 2.3038890991575443 -19.02687097014155 a40.16584785225095,40.16584785225095 0 0,0 0.6856602320012728,0.08901837669418655 l -2.631064059666663 18.98439427028323" fill="#ffcb12" stroke="none" /><path d="M 103.59715602781102 79.31037775812273 l 1.8599857227480623 -10.69800744850095 a31.858494843071412,31.858494843071412 0 0,0 0.5394779143102032,0.09858614058414164 l -2.0438587581611665 10.664405826566071" fill="#ff5507" stroke="none" /><path d="M 103.95276090670814 79.375362276772 l 1.5816628591026494 -8.25276920086832 a29.402967147541723,29.402967147541723 0 0,0 0.49625710563920805,0.09954450684676319 l -1.7234863742089828 8.224320737944348" fill="#ff3004" stroke="none" /><path d="M 104.307194497241 79.44645832069477 l 3.4881763438571043 -16.645261298081085 a38.00682503841444,38.00682503841444 0 0,0 0.6391612759114252,0.13969589872369007 l -3.7741803439220574 16.582751901261524" fill="#ffad10" stroke="none" /><path d="M 105.01212808612495 79.60689891045804 l 2.2139537943934937 -9.00802668264371 a30.276105654795572,30.276105654795572 0 0,0 0.5050214617194256,0.12874121536419247 l -2.3686841447979448 8.968582471110649" fill="#ff3d05" stroke="none" /><path d="M 105.36241919743992 79.69619591428918 l 3.527493313892414 -13.356198111687961 a34.81416798356719,34.81416798356719 0 0,0 0.5780844695614373,0.15801232279848984 l -3.756875672677562 13.293499248063178" fill="#ff800b" stroke="none" /><path d="M 105.71112130821622 79.79150937346287 l 1.9648115705833822 -6.9523783621832225 a28.22468334246227,28.22468334246227 0 0,0 0.4663924391187165,0.13615274230151722 l -2.0841942274255256 6.917527290963002" fill="#ff1e03" stroke="none" /><path d="M 107.4271985657038 80.35727306442388 l 2.5958769907274855 -6.865321081175808 a28.339701008803107,28.339701008803107 0 0,0 0.4548074447067889,0.17645822268863987 l -2.7136676004339413 6.819620154596621" fill="#ff2003" stroke="none" /><path d="M 107.76421540070413 80.48803036053334 l 2.8993799469035837 -7.286327153176433 a28.842000220582936,28.842000220582936 0 0,0 0.4597087003411617,0.18752672146720972 l -3.024372516833133 7.235339545525644" fill="#ff2703" stroke="none" /><path d="M 108.09893153111575 80.62456947434976 l 3.235008432501124 -7.739253121600739 a29.388165379781217,29.388165379781217 0 0,0 0.4650554611640784,0.19911247821632572 l -3.3677476514555176 7.682421115421623" fill="#ff3004" stroke="none" /><path d="M 108.76106565485865 80.91482961587045 l 4.944121637785832 -10.770311235446009 a32.850904728230525,32.850904728230525 0 0,0 0.5118824669332422,0.24033568181968126 l -5.128782316018672 10.683610570986325" fill="#ff6409" stroke="none" /><path d="M 109.08828744355905 81.06846463323043 l 4.777753651584879 -9.95239342840046 a32.03979460447074,32.03979460447074 0 0,0 0.4951349499159473,0.24296056957627704 l -4.9483598685112575 9.868677698689352" fill="#ff5808" stroke="none" /><path d="M 109.41281617654863 81.2277094730956 l 4.906396817104577 -9.784989397799738 a31.94617500508498,31.94617500508498 0 0,0 0.48944508426382505,0.2507127823101415 l -5.074102388957158 9.699084090177095" fill="#ff5608" stroke="none" /><line stroke="#e1ed5e" stroke-width="0.3" x1="143.23703022742887" x2="145.7803849466894" y1="26.81831364943548" y2="22.513508569990506" /><path d="M 143.74570117128098 25.957352633546492 a86.0,86.0 0 0,1 28.547481713284135,27.462654790039103" fill="none" id="id74" stroke="none" /><text fill="#e1ed5e" style="font-size:6.75px; font-family:Arial;" text-anchor="middle"><textPath startOffset="19.985693538727396" xlink:href="#id74">February</textPath></text><path d="M 111.90073688211348 82.69761687909136 l 10.202386031118305 -14.833164837307619 a39.003095839846466,39.003095839846466 0 0,0 0.5498858160958565,0.38523015506262115 l -10.456202986797813 14.655349839481064" fill="#ffbb11" stroke="none" /><path d="M 112.19680574252982 82.90503203632743 l 6.317551544047111 -8.854641414657387 a31.87732191735897,31.87732191735897 0 0,0 0.44393676651569786,0.3225389406188388 l -6.469033626916598 8.744583239221873" fill="#ff5507" stroke="none" /><path d="M 112.48926042617603 83.11751280151076 l 5.141431740691265 -6.949983632513867 a29.645032841834567,29.645032841834567 0 0,0 0.4076246311923231,0.30701442126920686 l -5.260302525641971 6.860452621738813" fill="#ff3404" stroke="none" /><path d="M 112.77801427241765 83.33499621200491 l 5.111758724252875 -6.666722754166508 a29.400908851778887,29.400908851778887 0 0,0 0.3989667557848532,0.3113998811958966 l -5.225758035197158 6.577744483747388" fill="#ff3004" stroke="none" /><path d="M 113.34407831869373 83.78471172551755 l 4.951372008074137 -6.01674559663291 a28.79213143735022,28.79213143735022 0 0,0 0.37997724870209854,0.31822001822733403 l -5.054206793735353 5.930624421011757" fill="#ff2703" stroke="none" /><path d="M 113.89432698308785 84.25364557470407 l 8.135429612570427 -9.219831823269251 a33.2959551817033,33.2959551817033 0 0,0 0.4264879095892642,0.3829050562073521 l -8.292928509755681 9.078427758292602" fill="#ff6a09" stroke="none" /><path d="M 114.16331599549186 84.49514656593476 l 4.955438556808687 -5.424813549968828 a28.347446722653494,28.347446722653494 0 0,0 0.35743716222401206,0.3321988873780232 l -5.048083602827546 5.338710076516165" fill="#ff2003" stroke="none" /><path d="M 114.94478906791727 85.2469230424477 l 3.779331644805207 -3.7308502883871273 a26.310611222428577,26.310611222428577 0 0,0 0.3153962423094905,0.32504355181233086 l -3.8429921508178064 3.6652425410246825" fill="#ff0000" stroke="none" /><path d="M 115.68641384162765 86.03803664274999 l 9.507262807384953 -8.46210333889044 a33.72773503050507,33.72773503050507 0 0,0 0.38226073144526856,0.4369900964909203 l -9.65151540240807 8.297197686196572" fill="#ff700a" stroke="none" /><path d="M 116.15771136456269 86.58626213691792 l 9.201414906352024 -7.638790218394424 a32.958977894430426,32.958977894430426 0 0,0 0.3586274356427457,0.4396348315126965 l -9.331540834071179 7.479271217273626" fill="#ff6509" stroke="none" /><path d="M 116.38621287248628 86.86637796730983 l 14.892590475916972 -11.93647708109247 a40.08582553076546,40.08582553076546 0 0,0 0.4269062526656186,0.5421275878766131 l -15.095850809176554 11.678357099262819" fill="#ffca12" stroke="none" /><path d="M 116.60985879189232 87.15038557335679 l 9.08516684864931 -7.028409601161021 a32.4864615173468,32.4864615173468 0 0,0 0.33836051194415223,0.4452427715451117 l -9.204803300817575 6.870982053734877" fill="#ff5e08" stroke="none" /><path d="M 116.82858285166822 87.43820079747576 l 9.178082640358083 -6.8510362523439 a32.45311742208962,32.45311742208962 0 0,0 0.330306882551712,0.45053821659419435 l -9.294652135423421 6.692035592078212" fill="#ff5e08" stroke="none" /><path d="M 117.2510076193507 88.02491185347247 l 9.444586304323641 -6.55612448833984 a32.49708566404665,32.49708566404665 0 0,0 0.3150291227746305,0.4622663651197596 l -9.556039892767005 6.392580099949674" fill="#ff5e08" stroke="none" /><path d="M 117.65298651832404 88.62581576622439 l 10.012205912100317 -6.451071296775574 a32.91052425808277,32.91052425808277 0 0,0 0.30273357522569694,0.4788518143817081 l -10.121767083571969 6.277771834679659" fill="#ff6409" stroke="none" /><line stroke="#e1ed5e" stroke-width="0.3" x1="172.23445277983987" x2="176.4835382374775" y1="55.19839476539836" y2="52.563006222186495" /><path d="M 173.08426987136738 54.67131705675599 a86.0,86.0 0 0,1 12.851231095245387,41.99856678651699" fill="none" id="id75" stroke="none" /><text fill="#e1ed5e" style="font-size:6.75px; font-family:Arial;" text-anchor="middle"><textPath startOffset="22.20632615414155" xlink:href="#id75">March</textPath></text><path d="M 118.03404312379186 89.2402003453031 l 9.950933104114215 -5.937107161305677 a32.58750668122281,32.58750668122281 0 0,0 0.2832635275138474,0.4841891897426907 l -10.051656306098389 5.764938559209091" fill="#ff6008" stroke="none" /><path d="M 118.21658344932153 89.55222093294921 l 9.941942411193251 -5.702014216796397 a32.461028969339154,32.461028969339154 0 0,0 0.2738201541763524,0.48709550060586326 l -10.038620206662035 5.53003520625574" fill="#ff5e08" stroke="none" /><path d="M 118.73160827565052 90.50648371742162 l 15.082648768346285 -7.644157915304991 a37.909152672544465,37.909152672544465 0 0,0 0.2899869425840389,0.5845959810063303 l -15.211995723883732 7.383402345799711" fill="#ffac0f" stroke="none" /><path d="M 118.89224826269711 90.83032412892265 l 15.38712942690845 -7.468406484455302 a38.10382551996734,38.10382551996734 0 0,0 0.28131837762639617,0.5925282484121365 l -15.513405998376602 7.202435820402625" fill="#ffaf10" stroke="none" /><path d="M 119.04729006885535 91.15688171328212 l 15.212286571761986 -7.0626345836725895 a37.77183561819928,37.77183561819928 0 0,0 0.2687154631142999,0.5920789033879362 l -15.331604351839633 6.799733671442591" fill="#ffaa0f" stroke="none" /><path d="M 119.196687751892 91.48605970444005 l 10.674474745265819 -4.734245920038909 a32.67722122419212,32.67722122419212 0 0,0 0.2236200126877303,0.5161458205998736 l -10.75438546779623 4.549800954852432" fill="#ff6108" stroke="none" /><path d="M 119.34039704204932 91.81776055985345 l 15.649786401395646 -6.620872324645939 a37.992697394721375,37.992697394721375 0 0,0 0.24962706176984847,0.6044917303166167 l -15.761435150051692 6.350506023876019" fill="#ffad10" stroke="none" /><path d="M 119.61058180528143 92.48833698450437 l 12.969259693536646 -4.967762269656915 a34.88813734689505,34.88813734689505 0 0,0 0.20998573697012457,0.5626573767398179 l -13.052850019008396 4.743781755887764" fill="#ff810b" stroke="none" /><path d="M 119.7369772167798 92.82701384747503 l 14.228160339725127 -5.17092338770023 a36.1386589675041,36.1386589675041 0 0,0 0.20744780962845563,0.5864828930421194 l -14.315061230163392 4.925242868231496" fill="#ff930d" stroke="none" /><path d="M 119.85752413597 93.16781622104841 l 10.870702198519687 -3.740176001700303 a32.49613338529941,32.49613338529941 0 0,0 0.17743307599580768,0.530502313119276 l -10.933472568287266 3.552500585658713" fill="#ff5e08" stroke="none" /><path d="M 119.97218684219823 93.5106431181261 l 11.258146552633233 -3.657993558027132 a32.83751581503212,32.83751581503212 0 0,0 0.1700428462647403,0.5390822910572454 l -11.319444882666179 3.4636611005434674" fill="#ff6309" stroke="none" /><path d="M 120.37134235888165 94.90015583598534 l 15.972322130971161 -3.9985756643023245 a37.465226436300895,37.465226436300895 0 0,0 0.15122963488569266,0.6269444699495511 l -16.038784566117673 3.7230459626933676" fill="#ffa60f" stroke="none" /><path d="M 120.45610955862082 95.25157060432595 l 22.294284317972682 -5.175120650757501 a43.88704845541468,43.88704845541468 0 0,0 0.1644836691121282,0.737348036623278 l -22.380062374086847 4.790594444584259" fill="#fffd17" stroke="none" /><path d="M 120.53481517161879 95.60439243477599 l 11.524903876944155 -2.4669788477079244 a32.78598294618827,32.78598294618827 0 0,0 0.11337815074624268,0.5528721284693567 l -11.565661323605394 2.268231063075156" fill="#ff6309" stroke="none" /><path d="M 120.87857604477298 97.74499172005257 l 10.843882753085508 -1.1712027363623219 a31.906947740423437,31.906947740423437 0 0,0 0.05427656590451639,0.5465576115602452 l -10.862436444672252 0.9843695940976417" fill="#ff5607" stroke="none" /><path d="M 120.91429891909075 98.10471618934814 l 10.9711087073654 -0.994217630646513 a32.01606531234802,32.01606531234802 0 0,0 0.0450138502102783,0.5492829884669572 l -10.986597041395171 0.8052207249717871" fill="#ff5708" stroke="none" /><line stroke="#e1ed5e" stroke-width="0.3" x1="184.98032266829074" x2="189.97916517819016" y1="98.17113171792111" y2="98.06355123074" /><path d="M 185.9800911702706 98.14961562048488 a86.0,86.0 0 0,1 -9.607161424134198,41.387399972396054" fill="none" id="id76" stroke="none" /><text fill="#e1ed5e" style="font-size:6.75px; font-family:Arial;" text-anchor="middle"><textPath startOffset="21.466115282336823" xlink:href="#id76">April</textPath></text><path d="M 120.99513854157772 99.54816195383933 l 10.993616672837446 -0.23659449866725818 a31.996162262630044,31.996162262630044 0 0,0 0.0071107553114339375,0.5507358351978509 l -10.996060435266596 0.04732240540894464" fill="#ff5708" stroke="none" /><path d="M 120.9904718944345 100.63252640178507 l 10.922251059307785 0.3291308645504489 a31.927208945039432,31.927208945039432 0 0,0 -0.021281563297359,0.5491825862041043 l -10.914967363159223 -0.5170906977685594" fill="#ff5607" stroke="none" /><path d="M 120.9764740272857 100.99374915477107 l 11.027105620262606 0.5224031872779513 a32.03947296978009,32.03947296978009 0 0,0 -0.030839745921886874,0.5506643804047774 l -11.016479523453189 -0.7121392840181521" fill="#ff5808" stroke="none" /><path d="M 120.95626037817324 101.35467743843564 l 10.960903702334434 0.7085466911779462 a31.983781151562876,31.983781151562876 0 0,0 -0.04024388404528495,0.5490958238831753 l -10.947083259624812 -0.8971156515578919" fill="#ff5708" stroke="none" /><path d="M 120.92983693683757 101.71520430193887 l 10.849805804588703 0.8891437447598064 a31.886177593449972,31.886177593449972 0 0,0 -0.04953806748415141,0.5466484467470257 l -10.832893140827478 -1.0757735800554027" fill="#ff5507" stroke="none" /><path d="M 120.89721153311464 102.0752229133903 l 11.226346172768917 1.1148459101571435 a32.28156592828484,32.28156592828484 0 0,0 -0.05967124253705129,0.5524815966640081 l -11.205492628730815 -1.307923828705943" fill="#ff5b08" stroke="none" /><path d="M 120.81339534386255 102.79330883721812 l 11.033179796228424 1.480732870262282 a32.132098914803905,32.132098914803905 0 0,0 -0.07828901589544647,0.5475531948302834 l -11.006056729316377 -1.6704315370729748" fill="#ff5908" stroke="none" /><path d="M 120.76222939487914 103.15116336523771 l 10.875286235493995 1.6505839965439808 a31.99983082749786,31.99983082749786 0 0,0 -0.08734162684608274,0.5438763937446507 l -10.845262854286624 -1.8375396199818366" fill="#ff5708" stroke="none" /><path d="M 120.70491114924044 103.5080841355445 l 10.875076833456205 1.8425910759667659 a32.030069719036604,32.030069719036604 0 0,0 -0.09678199408555689,0.542804820272041 l -10.841748397031461 -2.029514646972025" fill="#ff5708" stroke="none" /><path d="M 120.02730092923936 106.31721596034902 l 9.348247998735173 2.9487199332333365 a30.80227983126904,30.80227983126904 0 0,0 -0.16385015921517715,0.5042789375800985 l -9.29610558850375 -3.1091977707912304" fill="#ff4506" stroke="none" /><path d="M 119.67450827220406 107.3425965602758 l 10.596477739478606 3.9546432329827343 a32.31037327339119,32.31037327339119 0 0,0 -0.19894838536755016,0.5193914554248151 l -10.52683507451755 -4.136458255240694" fill="#ff5c08" stroke="none" /><path d="M 119.54520255179757 107.68017299344265 l 12.434285807356106 4.885979861161413 a34.35980025085302,34.35980025085302 0 0,0 -0.22104377088230637,0.5486125116621748 l -12.348339422216409 -5.099291740666402" fill="#ff7a0b" stroke="none" /><path d="M 119.41010516605496 108.01547362559984 l 12.340269792551876 5.095959357704483 a34.351069632368194,34.351069632368194 0 0,0 -0.2303959263197016,0.5445879119633728 l -12.250722885039865 -5.307621795334019" fill="#ff790b" stroke="none" /><path d="M 119.26925614724726 108.34839909993367 l 10.184360902452893 4.412371123292347 a32.099109239982965,32.099109239982965 0 0,0 -0.22401955387163233,0.505104954545491 l -10.106900263849987 -4.587024414330526" fill="#ff5808" stroke="none" /><path d="M 119.12269723197855 108.67885076344098 l 10.43360391369678 4.7352991156707835 a32.45788585834146,32.45788585834146 0 0,0 -0.23528162435024041,0.506775687214495 l -10.350547672506709 -4.914194870164109" fill="#ff5e08" stroke="none" /><path d="M 118.64920377521936 109.65438752849418 l 7.822556037555759 4.049609214430758 a29.80861610869168,29.80861610869168 0 0,0 -0.23981385356430987,0.45363743473330687 l -7.751689675766555 -4.1836616642502" fill="#ff3605" stroke="none" /><line stroke="#e1ed5e" stroke-width="0.3" x1="174.80103733775053" x2="179.2010983576182" y1="140.37084112569926" y2="142.7455964860345" /><path d="M 175.68104954172406 140.8457921977663 a86.0,86.0 0 0,1 -30.038265399797805,32.042727171017184" fill="none" id="id77" stroke="none" /><text fill="#e1ed5e" style="font-size:6.75px; font-family:Arial;" text-anchor="middle"><textPath startOffset="22.206326154141568" xlink:href="#id77">May</textPath></text><path d="M 118.48025628344425 109.97397251340804 l 10.565085047449747 5.702078274719833 a33.00561196736252,33.00561196736252 0 0,0 -0.274140826076076,0.4976452289137713 l -10.465367811922162 -5.883094022031409" fill="#ff6609" stroke="none" /><path d="M 118.30583269289576 110.29060199501025 l 15.379906523272656 8.645796091694995 a38.64344962652636,38.64344962652636 0 0,0 -0.33094987033889717,0.5770389947834558 l -15.228804656781378 -8.909254932336767" fill="#ffb610" stroke="none" /><path d="M 117.94076556474637 110.91462005526583 l 7.807638532745398 4.7499315347624576 a30.138986215272542,30.138986215272542 0 0,0 -0.2734544094556787,0.44089557782205596 l -7.724719483621756 -4.883623443949787" fill="#ff3b05" stroke="none" /><path d="M 117.75023020441432 111.22182372390056 l 9.496908128968252 6.004013903935523 a32.23563291357965,32.23563291357965 0 0,0 -0.30055143573531334,0.4664625026332351 l -9.392151829855887 -6.1665980064902115" fill="#ff5a08" stroke="none" /><path d="M 117.14729908036423 112.12312394758627 l 9.144261345386717 6.464983970926947 a32.198818388431704,32.198818388431704 0 0,0 -0.3238591002507049,0.44981196473085844 l -9.03162245276041 -6.621429541108936" fill="#ff5a08" stroke="none" /><path d="M 116.71984013943494 112.70617746262583 l 8.901105641687785 6.764360601158669 a32.17972521965517,32.17972521965517 0 0,0 -0.3389493258277866,0.43813769446134077 l -8.78334949864193 -6.916576289733262" fill="#ff5a08" stroke="none" /><path d="M 116.498646956653 112.99209946851258 l 8.65158444099582 6.812815978968975 a32.01201048414757,32.01201048414757 0 0,0 -0.3446353414084756,0.4299855785132985 l -8.533031187532488 -6.960729391060524" fill="#ff5708" stroke="none" /><path d="M 116.0416608686014 113.55231037782055 l 8.854786887335784 7.480697990662148 a32.591725205836724,32.591725205836724 0 0,0 -0.36573734146506076,0.4254351550835385 l -8.724707036299945 -7.632010244907215" fill="#ff6008" stroke="none" /><path d="M 115.80600337817218 113.82643327865902 l 8.264432245748486 7.229381033135882 a31.980199928363426,31.980199928363426 0 0,0 -0.36600752567899975,0.41121333511949604 l -8.138765870421148 -7.370568537996244" fill="#ff5708" stroke="none" /><path d="M 115.56566222782051 114.09645910891815 l 8.225210769987873 7.448854124184728 a32.09682476991091,32.09682476991091 0 0,0 -0.3743920247295982,0.4063285995210596 l -8.095772337262552 -7.589333978507122" fill="#ff5808" stroke="none" /><path d="M 115.32070863581623 114.36230785411682 l 8.094510733664041 7.588151295662458 a32.095095497708265,32.095095497708265 0 0,0 -0.38131028854974786,0.3998023130859666 l -7.962693893735328 -7.726360725330931" fill="#ff5808" stroke="none" /><path d="M 114.55890576462653 115.13401014063108 l 6.924932900364702 7.198480877041215 a30.988634672050107,30.988634672050107 0 0,0 -0.3876001842620062,0.36650016700341226 l -6.7999968817118885 -7.316615680790549" fill="#ff4806" stroke="none" /><path d="M 114.29624159901734 115.38237550388516 l 7.506037412239039 8.076296502236476 a32.02574998927371,32.02574998927371 0 0,0 -0.40703271908565386,0.3718147382321235 l -7.365905143686522 -8.204304007055184" fill="#ff5708" stroke="none" /><path d="M 113.75828350139079 115.86535959552629 l 7.328016292158479 8.450299311336103 a32.18514109116678,32.18514109116678 0 0,0 -0.42167825978184115,0.3593633611005629 l -7.181472555799591 -8.575187062659614" fill="#ff5a08" stroke="none" /><path d="M 113.48314897796784 116.09983520530334 l 7.427833917378659 8.869359983900669 a32.56884882899674,32.56884882899674 0 0,0 -0.4329018374802499,0.356248740439201 l -7.274061951353718 -8.995903843197048" fill="#ff5f08" stroke="none" /><path d="M 113.20401910651253 116.32954008644616 l 7.113436221753368 8.797256426129174 a32.31338567839106,32.31338567839106 0 0,0 -0.4355267476763354,0.3460087887020292 l -6.960951981359682 -8.91839912883633" fill="#ff5c08" stroke="none" /><path d="M 112.92097659922987 116.55440617244103 l 6.835985655712458 8.758291779615917 a32.11028238984024,32.11028238984024 0 0,0 -0.4386436922669737,0.33633327850372496 l -6.68421323495199 -8.874664399947013" fill="#ff5908" stroke="none" /><path d="M 112.63410532772338 116.77436683061366 l 6.570180306858848 8.723262292952862 a31.92074055622095,31.92074055622095 0 0,0 -0.44174509338130885,0.32679245944983215 l -6.419050243058975 -8.835064701142462" fill="#ff5607" stroke="none" /><path d="M 112.04921762599082 117.19931262002967 l 6.366824854299304 9.088142854176715 a32.096431825737795,32.096431825737795 0 0,0 -0.4552238689269992,0.31310712800084356 l -6.209444100749421 -9.196390771542651" fill="#ff5808" stroke="none" /><path d="M 111.45004920935366 117.60387380957326 l 6.201372717700783 9.534298130295745 a32.3736478062759,32.3736478062759 0 0,0 -0.4697542676521778,0.2998193992695436 l -6.036336648001675 -9.6396319583891" fill="#ff5d08" stroke="none" /><path d="M 111.1453310114006 117.79835938074945 l 5.863638049246466 9.363843673406544 a32.0482496130639,32.0482496130639 0 0,0 -0.4700727374564296,0.28875706879784085 l -5.701586111857728 -9.463389209032762" fill="#ff5808" stroke="none" /><line stroke="#e1ed5e" stroke-width="0.3" x1="143.8653032363475" x2="146.44561519142675" y1="172.8068346515853" y2="177.08958963109032" /><path d="M 144.38136562736335 173.6633856474863 a86.0,86.0 0 0,1 -40.68145358897372,12.25698825130547" fill="none" id="id78" stroke="none" /><text fill="#e1ed5e" style="font-size:6.75px; font-family:Arial;" text-anchor="middle"><textPath startOffset="21.466115282336833" xlink:href="#id78">June</textPath></text><path d="M 110.5260780823613 118.17145234162733 l 5.614480214881548 9.692428542658401 a32.20114097482197,32.20114097482197 0 0,0 -0.4820223034275994,0.27370484389555205 l -5.446809144532749 -9.787636552348582" fill="#ff5a08" stroke="none" /><path d="M 110.21172684928248 118.3499491758327 l 5.467215972134024 9.824306574456516 a32.24310678393063,32.24310678393063 0 0,0 -0.48729650322394286,0.26571290691748367 l -5.297296657041433 -9.91696013313377" fill="#ff5b08" stroke="none" /><path d="M 109.89434966115114 118.52300852407294 l 5.353324320322678 10.021848369357844 a32.362021211780885,32.362021211780885 0 0,0 -0.49361189556018764,0.2582344142181678 l -5.180021522235996 -10.11251220252073" fill="#ff5c08" stroke="none" /><path d="M 109.2508944713604 118.85261126421891 l 4.859919912472448 9.904142909502491 a32.03226487750791,32.03226487750791 0 0,0 -0.497090920897186,0.23863385019616462 l -4.68871632357503 -9.986331036198216" fill="#ff5708" stroke="none" /><path d="M 108.59647513512805 119.15986991738527 l 4.572460546784252 10.191124606499274 a32.16988881757977,32.16988881757977 0 0,0 -0.5071802421933038,0.222332913524151 l -4.396359629933195 -10.26832207331788" fill="#ff5908" stroke="none" /><path d="M 108.2653958097858 119.30500536409082 l 4.515655746416627 10.546955090009133 a32.472986032015164,32.472986032015164 0 0,0 -0.5157460779532071,0.215581902412686 l -4.333438208965958 -10.623122035441792" fill="#ff5e08" stroke="none" /><path d="M 107.93186726928326 119.44442032107085 l 3.871616487347492 9.49099824117141 a31.25029081729,31.25029081729 0 0,0 -0.4998244787185768,0.19889047528375509 l -3.707670932587049 -9.556235560861232" fill="#ff4c07" stroke="none" /><path d="M 107.59598834532513 119.57807347666477 l 3.9969977873726803 10.30195319025327 a32.05016881529109,32.05016881529109 0 0,0 -0.5160531669576334,0.19512715082918355 l -3.819074399654772 -10.369228591189085" fill="#ff5808" stroke="none" /><path d="M 107.2578585660854 119.70592522655815 l 3.8116111538554933 10.348965015875667 a32.02857454470042,32.02857454470042 0 0,0 -0.5189855913559024,0.1860897684373256 l -3.6329060018698565 -10.413042325352952" fill="#ff5708" stroke="none" /><path d="M 106.57524785965236 119.94407469862006 l 5.1938865736109046 15.754122735949968 a37.58821391587748,37.58821391587748 0 0,0 -0.6162295108282045,0.19729722948062756 l -4.92193571769176 -15.841192812090302" fill="#ffa80f" stroke="none" /><path d="M 105.88484417918355 120.15858648285463 l 2.9543638464796698 10.120199836683204 a31.542614024604568,31.542614024604568 0 0,0 -0.5225091569364987,0.1476663069531537 l -2.7797235214385654 -10.169554936974878" fill="#ff5007" stroke="none" /><path d="M 105.18746579009965 120.34920634021253 l 2.715275215332393 10.651385062185133 a31.99202998712881,31.99202998712881 0 0,0 -0.5347950972084885,0.1314396233937759 l -2.5315268333806933 -10.69654594389294" fill="#ff5708" stroke="none" /><path d="M 104.83641907484287 120.43548508189849 l 2.5504116585179752 10.77634063421963 a32.07402894580999,32.07402894580999 0 0,0 -0.5383547110089583,0.12252777949317986 l -2.3645367981161547 -10.818645147290495" fill="#ff5808" stroke="none" /><path d="M 104.48393922423573 120.51570834832081 l 2.417371667804772 11.060384547167834 a32.32147482051408,32.32147482051408 0 0,0 -0.5445530366996781,0.11411638343041951 l -2.226627169675716 -11.100356911324795" fill="#ff5c08" stroke="none" /><path d="M 104.13013068566511 120.58985236759428 l 2.2124544725996795 11.029702067046125 a32.249412539378575,32.249412539378575 0 0,0 -0.5452183744055602,0.10449239908549339 l -2.022268483622415 -11.066151664480088" fill="#ff5b08" stroke="none" /><path d="M 103.7750983002368 120.6578951692458 l 2.0434082140652547 11.181831390056214 a32.36700797769386,32.36700797769386 0 0,0 -0.548930627696573,0.09543862585717795 l -1.8506286148966318 -11.215348594434397" fill="#ff5c08" stroke="none" /><path d="M 102.70371172650421 120.8252237178851 l 1.407446905519063 10.840799479897493 a31.931781197737216,31.931781197737216 0 0,0 -0.5456876478567351,0.06607517470502149 l -1.2206318346109477 -10.863420183327865" fill="#ff5608" stroke="none" /><path d="M 102.34483914955558 120.86867818915974 l 1.2238245495875566 10.89183481526933 a31.96037463644771,31.96037463644771 0 0,0 -0.5472337580733171,0.05672301652814129 l -1.0361581949086367 -10.91128720025323" fill="#ff5608" stroke="none" /><path d="M 101.98527174616119 120.90594882070398 l 1.0356414851605211 10.905845976617144 a31.954908933965715,31.954908933965715 0 0,0 -0.5480353346961584,0.04728679469000968 l -0.847761832722821 -10.922057023585818" fill="#ff5608" stroke="none" /><path d="M 101.62511606390274 120.93702456842531 l 0.5562244393069065 7.1660634031024655 a28.18761784767156,28.18761784767156 0 0,0 -0.48407165146680103,0.03338441523875708 l -0.43279002706117514 -7.174576162857507" fill="#ff1d03" stroke="none" /><path d="M 100.90346689309514 120.98055641714683 l 0.47677572976928695 11.071816989864482 a32.08207771825973,32.08207771825973 0 0,0 -0.5519334169333023,0.019009702855144334 l -0.28612196116133226 -11.07838349114572" fill="#ff5808" stroke="none" /><line stroke="#e1ed5e" stroke-width="0.3" x1="102.19456741930631" x2="102.32365962044197" y1="184.97166512339345" y2="189.96999836594603" /><path d="M 102.22038585953345 185.97133177190398 a86.0,86.0 0 0,1 -42.740103519485714,-10.115201625700543" fill="none" id="id79" stroke="none" /><text fill="#e1ed5e" style="font-size:6.75px; font-family:Arial;" text-anchor="middle"><textPath startOffset="22.20632615414155" xlink:href="#id79">July</textPath></text><path d="M 100.54218724476979 120.99299961872073 l 0.2819755324099125 10.917837521026916 a31.921478212056325,31.921478212056325 0 0,0 -0.5494147135261943,0.00945867254558716 l -0.09400112899105019 -10.921073670851664" fill="#ff5607" stroke="none" /><path d="M 100.18074693466247 120.99922214144158 l 0.09775077577557785 11.356708531975485 a32.357129210078114,32.357129210078114 0 0,0 -0.5569954208760588,0.0 l 0.09775077577557002 -11.356708531975485" fill="#ff5c08" stroke="none" /><path d="M 99.45781275523022 120.99299961872073 l -0.2830772383135408 10.960494576939015 a31.964149492503317,31.964149492503317 0 0,0 -0.5499046041747969,-0.018939826441604326 l 0.4717021941629808 -10.953997952071315" fill="#ff5608" stroke="none" /><path d="M 99.09653310690486 120.98055641714683 l -0.47327273279752113 10.990469431744907 a32.00065477186376,32.00065477186376 0 0,0 -0.5501246757725542,-0.028435161989478274 l 0.6623854769835643 -10.980694462993227" fill="#ff5708" stroke="none" /><path d="M 98.01472825383883 120.90594882070398 l -1.042258427583428 10.975525837779971 a32.02490226921057,32.02490226921057 0 0,0 -0.548338616804747,-0.05683753965314377 l 1.2310296409937682 -10.955958929671066" fill="#ff5708" stroke="none" /><path d="M 97.2962882734958 120.8252237178851 l -2.256404241452219 17.379856981640526 a38.525717925469486,38.525717925469486 0 0,0 -0.6569027663386484,-0.09104073770289349 l 2.5552355989776987 -17.338441678445026" fill="#ffb510" stroke="none" /><path d="M 95.86986931433489 120.58985236759428 l -2.1507234396298958 10.721955665761925 a31.93553586306303,31.93553586306303 0 0,0 -0.5380507272466543,-0.1127537612637705 l 2.334965628305937 -10.683345923771615" fill="#ff5608" stroke="none" /><path d="M 95.16358092515715 120.4354850818985 l -2.5220699040431542 10.656587260535055 a31.95096747517215,31.95096747517215 0 0,0 -0.5341086753064619,-0.13127091759081946 l 2.705131864092827 -10.611595084630206" fill="#ff5608" stroke="none" /><path d="M 94.46302465271185 120.25689768951611 l -2.8751230716484906 10.518572009838469 a31.90443441005918,31.90443441005918 0 0,0 -0.5285027776433452,-0.14936016403356753 l 3.05575701739645 -10.46752305246638" fill="#ff5607" stroke="none" /><path d="M 92.06813273071674 119.44442032107085 l -4.142040117715417 10.153922941637182 a31.96625038203441,31.96625038203441 0 0,0 -0.507697944536125,-0.21221778199162347 l 4.316209521749005 -10.081120116625586" fill="#ff5608" stroke="none" /><path d="M 91.07499286063937 119.00905698771935 l -6.993405216905643 14.895006382694786 a37.45505793573397,37.45505793573397 0 0,0 -0.5812442333606049,-0.2790325541669861 l 7.24876211826649 -14.772419552028238" fill="#ffa60f" stroke="none" /><path d="M 90.7491055286396 118.85261126421891 l -4.761221240934745 9.703002609766537 a31.808213883443667,31.808213883443667 0 0,0 -0.4894619057155136,-0.24542636058824238 l 4.927537054333019 -9.619608408268993" fill="#ff5407" stroke="none" /><path d="M 90.10565033884886 118.52300852407294 l -5.192542618579525 9.720852251988283 a32.02077435349941,32.02077435349941 0 0,0 -0.4839363488620187,-0.2638806828459149 l 5.359101779310184 -9.630030917382602" fill="#ff5708" stroke="none" /><line stroke="#e1ed5e" stroke-width="0.3" x1="58.666819895761336" x2="56.23545636021788" y1="174.27360380694188" y2="178.64263932499728" /><path d="M 58.180547188652646 175.14741091055294 a86.0,86.0 0 0,1 -31.652253787137756,-30.449443065178592" fill="none" id="id80" stroke="none" /><text fill="#e1ed5e" style="font-size:6.75px; font-family:Arial;" text-anchor="middle"><textPath startOffset="22.20632615414155" xlink:href="#id80">August</textPath></text><path d="M 89.7882731507175 118.34994917583269 l -5.298407868870101 9.52096707457757 a31.89595980077454,31.89595980077454 0 0,0 -0.47745401398119436,-0.2711108499228524 l 5.461510649772502 -9.428353058860084" fill="#ff5507" stroke="none" /><path d="M 82.6465618267979 111.8261652097733 l -10.357576326414886 7.058567160378283 a33.53406389464649,33.53406389464649 0 0,0 -0.32096393837057585,-0.47979753890498356 l 10.477543370196193 -6.879232707267478" fill="#ff6e0a" stroke="none" /><line stroke="#e1ed5e" stroke-width="0.3" x1="26.63291911575756" x2="22.317208475507996" y1="142.92168965132927" y2="145.44649492493687" /><path d="M 25.769776987707644 143.4266507060508 a86.0,86.0 0 0,1 -11.730757126820373,-40.83630448921669" fill="none" id="id81" stroke="none" /><text fill="#e1ed5e" style="font-size:6.75px; font-family:Arial;" text-anchor="middle"><textPath startOffset="21.46611528233685" xlink:href="#id81">September</textPath></text><path d="M 81.87401531095188 110.60418214915194 l -9.667705407223115 5.655864266754971 a32.200595004052545,32.200595004052545 0 0,0 -0.2757720349611707,-0.48083178784881087 l 9.763629438336665 -5.488612633047854" fill="#ff5a08" stroke="none" /><line stroke="#e1ed5e" stroke-width="0.3" x1="15.007084014347285" x2="10.007500721073583" y1="101.09737516637583" y2="101.16192664675087" /><path d="M 14.007167355692545 101.11028546245083 a86.0,86.0 0 0,1 10.666146001902534,-42.60595125391555" fill="none" id="id82" stroke="none" /><text fill="#e1ed5e" style="font-size:6.75px; font-family:Arial;" text-anchor="middle"><textPath startOffset="22.20632615414155" xlink:href="#id82">October</textPath></text><line stroke="#e1ed5e" stroke-width="0.3" x1="26.266209847984243" x2="21.928928074336255" y1="57.711370442889674" y2="55.22380399835377" /><path d="M 25.398753493254645 57.213857153982495 a86.0,86.0 0 0,1 29.58750427330803,-30.492523968695096" fill="none" id="id83" stroke="none" /><text fill="#e1ed5e" style="font-size:6.75px; font-family:Arial;" text-anchor="middle"><textPath startOffset="21.46611528233685" xlink:href="#id83">November</textPath></text><path d="M 86.10567301691215 84.25364557470407 l -41.68298094926353 -47.23906327588782 a84.0,84.0 0 0,0 1.092424805412906,-0.9473400263212777 l 40.863662345203856 47.94956829562878" fill="#4dd2ff" stroke="none" /><line stroke="#e1ed5e" stroke-width="0.3" x1="56.762969772571076" x2="54.21961505331055" y1="26.818313649435495" y2="22.513508569990535" /><path d="M 56.25429882871897 25.957352633546506 a86.0,86.0 0 0,1 42.265352541879196,-11.944610805530505" fill="none" id="id84" stroke="none" /><text fill="#e1ed5e" style="font-size:6.75px; font-family:Arial;" text-anchor="middle"><textPath startOffset="22.20632615414155" xlink:href="#id84">December</textPath></text><path d="M 89.94658935756843 81.56283822128135 l -7.9926523122718045 -14.657893620742742 a37.695398658968124,37.695398658968124 0 0,0 0.5723506945477268,-0.3057299192676046 l 7.739156571195773 14.793302266512097" fill="#ffa90f" stroke="none" /><path d="M 90.26544431104013 81.39251694778311 l -5.931228847851878 -11.337470737405186 a33.795222482126256,33.795222482126256 0 0,0 0.5177742096775501,-0.2652240606562513 l 5.735194150585564 11.437887323373943" fill="#ff710a" stroke="none" /><path d="M 91.23893434514133 80.91482961587045 l -5.4304379347884675 -11.829706262776586 a34.01658966193393,34.01658966193393 0 0,0 0.5342514066325749,-0.2397030331013258 l 5.226004409689118 11.92142962639444" fill="#ff750a" stroke="none" /><path d="M 92.23578459929587 80.48803036053334 l -4.029318619664801 -10.125935270614372 a31.898163773932268,31.898163773932268 0 0,0 0.5119151522577444,-0.19861512599694028 l 3.8544203024073806 10.193793100501864" fill="#ff5507" stroke="none" /><path d="M 92.57280143429618 80.3572730644239 l -2.9513247335565502 -7.805374439180583 a29.3447101698451,29.3447101698451 0 0,0 0.4740116349853754,-0.17458248551385835 l 2.8165307727986053 7.855020192500763" fill="#ff2f04" stroke="none" /><path d="M 93.59665428221793 80.00007090966166 l -3.957201453257797 -12.359749410617916 a33.977782893658514,33.977782893658514 0 0,0 0.5585536979881001,-0.1735453528649835 l 3.7438623825589685 12.426034898365424" fill="#ff740a" stroke="none" /><path d="M 93.94186890950719 79.89281104454417 l -2.413883789766351 -8.011780655178189 a29.36752437804541,29.36752437804541 0 0,0 0.4852770590679836,-0.1416656807150881 l 2.2756165129749464 8.052144664811976" fill="#ff2f04" stroke="none" /><path d="M 94.63758080256005 79.69619591428918 l -2.91728246488791 -11.045748094076897 a32.42449508458671,32.42449508458671 0 0,0 0.5408577341432216,-0.13787667913290552 l 2.7267158420596895 11.094327769378665" fill="#ff5d08" stroke="none" /><path d="M 94.98787191387505 79.60689891045804 l -2.5981043482252026 -10.571039627101468 a31.885633881497956,31.885633881497956 0 0,0 0.5341243202712312,-0.1264099697435358 l 2.4157563409914373 10.614195508985874" fill="#ff5507" stroke="none" /><path d="M 95.692805502759 79.44645832069477 l -2.298737148675889 -10.969365285301501 a32.20763878973088,32.20763878973088 0 0,0 0.5435937647061833,-0.1090397953354305 l 2.1095769745025694 11.007309036714144" fill="#ff5a08" stroke="none" /><path d="M 96.40284397218896 79.31037775812273 l -1.8834929018111273 -10.833212774882885 a31.995728467775958,31.995728467775958 0 0,0 0.5434258034650622,-0.08966991382369416 l 1.6967378922071794 10.864028951646207" fill="#ff5708" stroke="none" /></svg>