<?xml version="1.0" encoding="utf-8" ?>
<svg baseProfile="full" height="200mm" version="1.1" viewBox="0,0,200,200" width="200mm" xmlns="http://www.w3.org/2000/svg" xmlns:ev="http://www.w3.org/2001/xml-events" xmlns:xlink="http://www.w3.org/1999/xlink"><defs /><rect fill="#1a1a1a" height="200" width="200" x="0" y="0" /><text alignment-baseline="middle" fill="#e1ed5e" style="dominant-baseline: central; font-size:9.0px; font-family:Arial;" text-anchor="middle" x="100.0" y="100.0">2021</text><line stroke="#e1ed5e" stroke-width="0.3" x1="100.0" x2="100.0" y1="15.0" y2="10.0" /><path d="M 100.0 14.0 a86.0,86.0 0 0,1 42.46469731375804,11.215312516191453" fill="none" id="id61" stroke="none" /><text fill="#e1ed5e" style="font-size:6.75px; font-family:Arial;" text-anchor="middle"><textPath startOffset="22.20632615414155" xlink:href="#id61">January</textPath></text><path d="M 100.0 79.0 l 0.0 -19.73249332057921 a40.73249332057921,40.73249332057921 0 0,0 0.7011429146422873,0.0060349584250443105 l -0.33966243536975893 19.729569738762724" fill="#ff4506" stroke="none" /><path d="M 100.36148047927253 79.00311137660856 l 0.3394938050046739 -19.719774706396556 a40.72269683675825,40.72269683675825 0 0,0 0.7007665704685068,0.018098733052435156 l -0.6788870106680486 19.711009181201764" fill="#ff4406" stroke="none" /><path d="M 100.72285384407766 79.0124445844662 l 0.6754944660386735 -19.61250902243242 a40.62413827225649,40.62413827225649 0 0,0 0.6986561887289929,0.0300856051490028 l -1.012991487156998 19.59797569075922" fill="#ff4306" stroke="none" /><path d="M 101.08401301168833 79.027996857942 l 1.0160562825193973 -19.65726916535497 a40.68351090147442,40.68351090147442 0 0,0 0.6990549866523497,0.042168905831231236 l -1.3542733180113589 19.636866990143435" fill="#ff4406" stroke="none" /><path d="M 101.44485096284872 79.0497635885617 l 1.225943640655724 -17.776095776825116 a38.81831975459313,38.81831975459313 0 0,0 0.6662144415250001,0.05171106273424243 l -1.5317482715430655 17.752359451902407" fill="#ff2103" stroke="none" /><path d="M 101.80526077348638 79.07773832637324 l 1.687546532143685 -19.557999957947924 a40.63066926147046,40.63066926147046 0 0,0 0.6962836636528573,0.06612052371403043 l -2.0239553228867866 19.526053889718714" fill="#ff4306" stroke="none" /><path d="M 102.16513564639614 79.11191278185805 l 2.03322927245103 -19.61552406572224 a40.72061879473563,40.72061879473563 0 0,0 0.6965810535598437,0.07826899770174456 l -2.370577029520599 19.577619114549893" fill="#ff4406" stroke="none" /><path d="M 102.52436894288641 79.15227682838746 l 2.3710409389197213 -19.581450351167216 a40.72447801563479,40.72447801563479 0 0,0 0.6951964551338614,0.09025645214823304 l -2.707752122561429 19.537735575854846" fill="#ff4406" stroke="none" /><path d="M 102.88285421437855 79.19881850522331 l 2.700620346129778 -19.486276374347174 a40.6725269650691,40.6725269650691 0 0,0 0.6926551089076501,0.10207935781766034 l -3.0356444354660836 19.436902532368546" fill="#ff4306" stroke="none" /><path d="M 103.2404852339499 79.25152402106235 l 3.0382097171765032 -19.453327753317005 a40.68915130125012,40.68915130125012 0 0,0 0.6910777093405858,0.11403374342350492 l -3.372616632655964 19.398147746953875" fill="#ff4406" stroke="none" /><path d="M 103.59715602781102 79.31037775812273 l 3.376481279904047 -19.420375888030538 a40.711712900352936,40.711712900352936 0 0,0 0.6893944636011178,0.12598243172458876 l -3.710270864608066 19.35937797495521" fill="#ff4406" stroke="none" /><path d="M 103.95276090670814 79.375362276772 l 3.6990953499556314 -19.301066595512573 a40.652340271135,40.652340271135 0 0,0 0.6861216631363121,0.13762955092766127 l -4.030783422559069 19.234533088507703" fill="#ff4306" stroke="none" /><path d="M 104.307194497241 79.44645832069477 l 4.041682368671427 -19.286541871330105 a40.705478774285055,40.705478774285055 0 0,0 0.6845445712358524,0.14961492928189785 l -4.373069664060808 19.21411344395234" fill="#ff4406" stroke="none" /><path d="M 104.66035177308747 79.52364482259891 l 4.371949698645706 -19.209192611632666 a40.70043210080153,40.70043210080153 0 0,0 0.6817832354024816,0.1613560642868924 l -4.70195662101071 19.131090635204906" fill="#ff4406" stroke="none" /><path d="M 105.01212808612495 79.60689891045804 l 4.7069871945330855 -19.15155878618137 a40.7215093841739,40.7215093841739 0 0,0 0.679256322695498,0.17315756092800288 l -5.0359524059136085 19.067698229084495" fill="#ff4406" stroke="none" /><path d="M 105.36241919743992 79.69619591428918 l 5.028068687728142 -19.03784799477587 a40.69063561698057,40.69063561698057 0 0,0 0.675662406117618,0.1846840588872019 l -5.355028983069471 18.948477395062376" fill="#ff4406" stroke="none" /><path d="M 105.71112130821622 79.79150937346287 l 5.354463842589718 -18.946477676360665 a40.68855757495794,40.68855757495794 0 0,0 0.6723489288206645,0.19627708934432309 l -5.67980298913381 18.85150225809764" fill="#ff4406" stroke="none" /><path d="M 106.0581310904928 79.89281104454417 l 5.674236401963737 -18.833026523849938 a40.66926147046212,40.66926147046212 0 0,0 0.6685535209836155,0.2077228333213938 l -5.99757529565807 18.732563555646024" fill="#ff4306" stroke="none" /><path d="M 106.40334571778207 80.00007090966166 l 6.0026444086054855 -18.748396200636233 a40.68588580664314,40.68588580664314 0 0,0 0.6651506423668575,0.21928970903180658 l -6.324477873214761 18.642292767345193" fill="#ff4406" stroke="none" /><path d="M 106.74666289553966 80.11325718540242 l 6.338688468469219 -18.684180506134478 a40.730118415410494,40.730118415410494 0 0,0 0.6619963043720696,0.23095751195724012 l -6.659366776904562 18.572302141005032" fill="#ff4506" stroke="none" /><path d="M 107.08798089147638 80.2323363322302 l 6.66157113532128 -18.578449874252634 a40.736649404624465,40.736649404624465 0 0,0 0.6580281650883176,0.2423573265301528 l -6.980381626182173 18.461029279916154" fill="#ff4506" stroke="none" /><path d="M 107.4271985657038 80.35727306442388 l 6.9800666459631975 -18.460196251099607 a40.7357588151862,40.7357588151862 0 0,0 0.653744595582427,0.25364274655431285 l -7.296794406545291 18.337310800654745" fill="#ff4506" stroke="none" /><path d="M 107.76421540070413 80.48803036053334 l 7.277367312940222 -18.288489272523158 a40.68321403832833,40.68321403832833 0 0,0 0.6484441893150786,0.26451666628557696 l -7.591095371843688 18.160511720054004" fill="#ff4406" stroke="none" /><path d="M 108.09893153111575 80.62456947434976 l 7.613878733013405 -18.215017358209934 a40.74228980440017,40.74228980440017 0 0,0 0.6447297450864865,0.27603962977365865 l -7.926292235890207 18.081258200473485" fill="#ff4506" stroke="none" /><path d="M 108.43124777332544 80.76684994638697 l 7.909486870639608 -18.04292222455861 a40.70043210080153,40.70043210080153 0 0,0 0.639225252046334,0.286801737624332 l -8.218894241152721 17.904100156417744" fill="#ff4406" stroke="none" /><path d="M 108.76106565485865 80.91482961587045 l 8.231155332287322 -17.930809808258946 a40.72982155226441,40.72982155226441 0 0,0 0.6346516696085783,0.2979774686310346 l -8.538585213195498 17.78646735698791" fill="#ff4506" stroke="none" /><path d="M 109.08828744355905 81.06846463323043 l 8.49580299691837 -17.697349022477784 a40.63096612461655,40.63096612461655 0 0,0 0.6279007598363749,0.308108175908649 l -8.799175023765175 17.548485686434304" fill="#ff4306" stroke="none" /><path d="M 109.41281617654863 81.2277094730956 l 8.84255348761933 -17.63499679116721 a40.72774351024178,40.72774351024178 0 0,0 0.6239868732664483,0.3196303122687211 l -9.144800848474535 17.48017395358599" fill="#ff4506" stroke="none" /><path d="M 109.73455568895987 81.39251694778311 l 9.118654760034255 -17.430196028236402 a40.67133951248474,40.67133951248474 0 0,0 0.6175360984706945,0.32986639717361566 l -9.417335905033262 17.270650904561034" fill="#ff4306" stroke="none" /><path d="M 110.05341064243156 81.56283822128135 l 9.43382164336756 -17.300884447735747 a40.705775637431145,40.705775637431145 0 0,0 0.612284474262044,0.34073564702049275 l -9.73023020670164 17.135933403155075" fill="#ff4406" stroke="none" /><path d="M 110.36928655335952 81.73862282372117 l 9.70912214478894 -17.0987599411175 a40.66302734439424,40.66302734439424 0 0,0 0.6056918010084867,0.3508557858447129 l -10.002010678262755 16.929099997882737" fill="#ff4306" stroke="none" /><line stroke="#e1ed5e" stroke-width="0.3" x1="143.23703022742887" x2="145.7803849466894" y1="26.81831364943548" y2="22.513508569990506" /><path d="M 143.74570117128098 25.957352633546492 a86.0,86.0 0 0,1 28.547481713284135,27.462654790039103" fill="none" id="id62" stroke="none" /><text fill="#e1ed5e" style="font-size:6.75px; font-family:Arial;" text-anchor="middle"><textPath startOffset="19.985693538727396" xlink:href="#id62">February</textPath></text><path d="M 110.68208982089419 81.91981866633111 l 10.04897343750153 -17.008587740188148 a40.755351782828114,40.755351782828114 0 0,0 0.6009239484099153,0.36204995513302296 l -10.340259452129084 16.83309117559651" fill="#ff4506" stroke="none" /><path d="M 110.99172775467656 82.1063720568725 l 10.299549157503366 -16.766818167226397 a40.67757363855263,40.67757363855263 0 0,0 0.5934680709914016,0.37162965160995026 l -10.58663638086703 16.587044174293503" fill="#ff4406" stroke="none" /><path d="M 111.60114157652 82.49532879139004 l 10.868782580856857 -16.39963311031647 a40.67430814394564,40.67430814394564 0 0,0 0.5802777037232323,0.39180609585778053 l -11.149464978986632 16.210115102160017" fill="#ff4406" stroke="none" /><path d="M 111.90073688211348 82.69761687909136 l 11.140885102807008 -16.19764089100315 a40.659168123495064,40.659168123495064 0 0,0 0.5732339796095204,0.4015870356867765 l -11.41805022200018 16.003469012552436" fill="#ff4306" stroke="none" /><path d="M 112.19680574252982 82.90503203632743 l 11.486845082374645 -16.099891466020395 a40.77761651878484,40.77761651878484 0 0,0 0.56788594946894,0.4125932933458858 l -11.762276348197373 15.899778937857835" fill="#ff4506" stroke="none" /><path d="M 112.48926042617603 83.11751280151076 l 11.713018218733428 -15.833193750927657 a40.69479170102583,40.69479170102583 0 0,0 0.559560839317745,0.4214496232613446 l -11.983825211809556 15.629227538160466" fill="#ff4406" stroke="none" /><path d="M 112.77801427241765 83.33499621200491 l 12.004598162977851 -15.656319487075779 a40.72893096282614,40.72893096282614 0 0,0 0.5526866375030728,0.4313806871413282 l -12.272317355640354 15.447360410711227" fill="#ff4506" stroke="none" /><path d="M 113.06298171725822 83.55741782278167 l 12.284135771944799 -15.462236438673026 a40.74793020417587,40.74793020417587 0 0,0 0.545433556948817,0.4410360040245707 l -12.548472727458106 15.248494337384326" fill="#ff4506" stroke="none" /><path d="M 113.6212207817346 84.01681056812373 l 12.785407131591368 -15.00244269015242 a40.711416037206845,40.711416037206845 0 0,0 0.5294542945539412,0.4591375469079231 l -13.041755224792073 14.780140149824827" fill="#ff4406" stroke="none" /><path d="M 113.89432698308785 84.25364557470407 l 13.026434859914085 -14.762777675515181 a40.68826071181186,40.68826071181186 0 0,0 0.5211759554908167,0.4679169187312293 l -13.278621803000892 14.536361748014656" fill="#ff4406" stroke="none" /><path d="M 114.16331599549186 84.49514656593476 l 13.309455291001102 -14.570115758195353 a40.73397763630966,40.73397763630966 0 0,0 0.5136207685605628,0.477354527963522 l -13.558283943356512 14.338856644157191" fill="#ff4506" stroke="none" /><path d="M 114.42810811169701 84.74124197986012 l 13.553592848498338 -14.333895475254362 a40.7271497839496,40.7271497839496 0 0,0 0.5052430932678929,0.48604345542013483 l -13.798319185378649 14.098468933071926" fill="#ff4506" stroke="none" /><path d="M 114.68862486808459 84.99185889309783 l 13.8178376649342 -14.118411990913806 a40.755054919682024,40.755054919682024 0 0,0 0.4971421920303415,0.4950073054664948 l -14.058815657131865 13.878468834797193" fill="#ff4506" stroke="none" /><path d="M 114.94478906791727 85.2469230424477 l 14.016773996990468 -13.836966486074132 a40.69597915361018,40.69597915361018 0 0,0 0.4878396322169992,0.502761623313935 l -14.252877892910577 13.593640667210083" fill="#ff4406" stroke="none" /><path d="M 115.4437574822437 85.77008943001954 l 14.533661632800714 -13.39134634345892 a40.762476498334266,40.762476498334266 0 0,0 0.4710130545981048,0.5201043791294847 l -14.762018328014854 13.139189177059887" fill="#ff4506" stroke="none" /><path d="M 115.9244219780498 86.31012108654704 l 15.046781241568766 -12.93539027779006 a40.84262954777847,40.84262954777847 0 0,0 0.453721523370199,0.5370631725348969 l -15.267213378426082 12.674468155626055" fill="#ff4706" stroke="none" /><path d="M 116.15771136456269 86.58626213691792 l 15.071465231849713 -12.511962818940914 a40.58821783157964,40.58821783157964 0 0,0 0.44164137992605423,0.5414001115247723 l -15.284605103852176 12.250678537808042" fill="#ff4206" stroke="none" /><path d="M 116.38621287248628 86.86637796730983 l 15.386527179593187 -12.33236953193746 a40.71883761585909,40.71883761585909 0 0,0 0.4336477083687565,0.5506885520140529 l -15.596528968555909 12.065688585970367" fill="#ff4406" stroke="none" /><path d="M 116.60985879189232 87.15038557335679 l 15.605451467965837 -12.072591153811313 a40.730118415410494,40.730118415410494 0 0,0 0.42422175499862763,0.5582261028630197 l -15.810949163188578 11.80218027506726" fill="#ff4506" stroke="none" /><path d="M 117.45458315368197 88.32363383020206 l 16.390705588087574 -10.964677789368587 a40.72002506844345,40.72002506844345 0 0,0 0.38471380866137256,0.5859455242885662 l -16.577016032106872 10.680914201102347" fill="#ff4406" stroke="none" /><path d="M 117.65298651832404 88.62581576622439 l 16.59822766519426 -10.694581294904564 a40.74525843586107,40.74525843586107 0 0,0 0.3748028339826207,0.5928480742652349 l -16.779858095422835 10.407285572925122" fill="#ff4506" stroke="none" /><line stroke="#e1ed5e" stroke-width="0.3" x1="172.23445277983987" x2="176.4835382374775" y1="55.19839476539836" y2="52.563006222186495" /><path d="M 173.08426987136738 54.67131705675599 a86.0,86.0 0 0,1 12.851231095245387,41.99856678651699" fill="none" id="id63" stroke="none" /><text fill="#e1ed5e" style="font-size:6.75px; font-family:Arial;" text-anchor="middle"><textPath startOffset="22.20632615414155" xlink:href="#id63">March</textPath></text><line stroke="#e1ed5e" stroke-width="0.3" x1="184.98032266829074" x2="189.97916517819016" y1="98.17113171792111" y2="98.06355123074" /><path d="M 185.9800911702706 98.14961562048488 a86.0,86.0 0 0,1 -9.607161424134198,41.387399972396054" fill="none" id="id64" stroke="none" /><text fill="#e1ed5e" style="font-size:6.75px; font-family:Arial;" text-anchor="middle"><textPath startOffset="21.466115282336823" xlink:href="#id64">April</textPath></text><path d="M 120.99980553446 99.90962569577887 l 27.423072899082705 -0.11801733729357879 a48.423326846323846,48.423326846323846 0 0,0 -0.003587252420290834,0.8335511280376728 l -27.42104134937291 -0.35404326894777877" fill="#ffcc13" stroke="none" /><path d="M 120.99824983174949 100.27111621757518 l 19.646843519392753 0.2536677077827449 a40.64848105023584,40.64848105023584 0 0,0 -0.015055301788495078,0.6995607154389409 l -19.63956615491925 -0.5918182390118008" fill="#ff4306" stroke="none" /><path d="M 120.9764740272857 100.99374915477107 l 19.636847733260176 0.9302850808916647 a40.658871260348974,40.658871260348974 0 0,0 -0.039136388426943496,0.6988065057017494 l -19.617924993945703 -1.2681633029288375" fill="#ff4306" stroke="none" /><path d="M 120.92983693683757 101.71520430193887 l 19.694377023692354 1.6139581162043777 a40.760398456311634,40.760398456311634 0 0,0 -0.06332497407354487,0.6987858121165859 l -19.663677453341734 -1.9527253168695342" fill="#ff4506" stroke="none" /><path d="M 120.70491114924044 103.5080841355445 l 29.84723301557062 5.057090266029201 a51.27261932249233,51.27261932249233 0 0,0 -0.15492524317145687,0.8689030389366047 l -29.755761330059975 -5.570112055699024" fill="#fffb17" stroke="none" /><path d="M 120.64145759157962 103.86396538481128 l 50.527164814054274 9.45840258460253 a72.40482237688425,72.40482237688425 0 0,0 -0.239867064078332,1.2230769920134943 l -50.35686781700028 -10.326743303683969" fill="#3aff92" stroke="none" /><path d="M 120.49622156327973 104.57218783832717 l 19.295918849628077 4.304430707934836 a40.7701949401326,40.7701949401326 0 0,0 -0.15869203149083225,0.6836411183061731 l -19.218966252206695 -4.635940483589574" fill="#ff4506" stroke="none" /><line stroke="#e1ed5e" stroke-width="0.3" x1="174.80103733775053" x2="179.2010983576182" y1="140.37084112569926" y2="142.7455964860345" /><path d="M 175.68104954172406 140.8457921977663 a86.0,86.0 0 0,1 -30.038265399797805,32.042727171017184" fill="none" id="id65" stroke="none" /><text fill="#e1ed5e" style="font-size:6.75px; font-family:Arial;" text-anchor="middle"><textPath startOffset="22.206326154141568" xlink:href="#id65">May</textPath></text><path d="M 116.27256486870786 113.27417163493432 l 17.99260961086032 14.677279830311958 a44.21974469769436,44.21974469769436 0 0,0 -0.48621504449447156,0.5856773429031773 l -17.737298566472305 -14.984818430328906" fill="#ff840c" stroke="none" /><path d="M 116.0416608686014 113.55231037782055 l 29.376288158558314 24.817665585507847 a59.45624567074579,59.45624567074579 0 0,0 -0.6672052211957715,0.7761104064871276 l -28.944740427791764 -25.319653091156503" fill="#87ff25" stroke="none" /><path d="M 115.80600337817218 113.82643327865902 l 14.278648564153745 12.490366916808949 a39.97074248771316,39.97074248771316 0 0,0 -0.4574578204717629,0.5139587107770843 l -14.061531894033644 -12.7342997973269" fill="#ff3605" stroke="none" /><path d="M 115.07121518719521 114.62390073753431 l 14.135562582615512 13.716018350862928 a40.69627601675627,40.69627601675627 0 0,0 -0.49215241998965814,0.49854780309034485 l -13.897369537570318 -13.957306647933938" fill="#ff4406" stroke="none" /><path d="M 114.55890576462653 115.13401014063108 l 13.687164706798962 14.227833658520623 a40.74258666754626,40.74258666754626 0 0,0 -0.5096008348472021,0.48185939702837643 l -13.440228037560951 -14.46132769229492" fill="#ff4506" stroke="none" /><path d="M 114.29624159901734 115.38237550388516 l 13.416178549763682 14.435451083438567 a40.707259953161596,40.707259953161596 0 0,0 -0.5173707629270627,0.4726059251914816 l -13.165708237369754 -14.66424977521663" fill="#ff4406" stroke="none" /><path d="M 112.63410532772338 116.77436683061366 l 11.854933007953496 15.739855721433656 a40.704885047992875,40.704885047992875 0 0,0 -0.5633072082062566,0.41672120585760936 l -11.582240829328676 -15.941586876031035" fill="#ff4406" stroke="none" /><path d="M 112.34349029814194 116.9893568818739 l 11.6103340057832 15.980253816191649 a40.75268001451331,40.75268001451331 0 0,0 -0.5710666688185804,0.407440905441594 l -11.333540009115735 -16.17773898347746" fill="#ff4506" stroke="none" /><path d="M 112.04921762599082 117.19931262002967 l 11.318380475303305 16.156099938577864 a40.72625919451133,40.72625919451133 0 0,0 -0.5776207579118666,0.3972928243190556 l -11.038602832768557 -16.348533552262012" fill="#ff4406" stroke="none" /><line stroke="#e1ed5e" stroke-width="0.3" x1="143.8653032363475" x2="146.44561519142675" y1="172.8068346515853" y2="177.08958963109032" /><path d="M 144.38136562736335 173.6633856474863 a86.0,86.0 0 0,1 -40.68145358897372,12.25698825130547" fill="none" id="id66" stroke="none" /><text fill="#e1ed5e" style="font-size:6.75px; font-family:Arial;" text-anchor="middle"><textPath startOffset="21.466115282336833" xlink:href="#id66">June</textPath></text><path d="M 110.8373102113329 117.98757091392108 l 10.17140129103934 16.882307366747963 a40.70963485833031,40.70963485833031 0 0,0 -0.6033403012673967,0.35646408472142477 l -9.879293118743561 -17.05489002376314" fill="#ff4406" stroke="none" /><path d="M 110.21172684928248 118.3499491758327 l 9.592197103197021 17.23668601071154 a40.72596233136524,40.72596233136524 0 0,0 -0.6154995908891444,0.3356194522629622 l -9.294074700439229 -17.399246114734275" fill="#ff4406" stroke="none" /><path d="M 109.89434966115114 118.52300852407294 l 9.286381856282533 17.3848444993913 a40.70963485833031,40.70963485833031 0 0,0 -0.6209364952356046,0.3248446270361344 l -8.985754458520432 -17.542118545372148" fill="#ff4406" stroke="none" /><path d="M 108.92500713936063 119.00905698771935 l 8.41016192097748 17.91250636951993 a40.78860045519015,40.78860045519015 0 0,0 -0.6381124122564555,0.2929261110295302 l -8.100581512953603 -18.054619550883537" fill="#ff4606" stroke="none" /><path d="M 108.59647513512805 119.15986991738527 l 8.117351645250636 18.091996911750375 a40.82956756935053,40.82956756935053 0 0,0 -0.6437059849941061,0.2821817870462829 l -7.804724985598776 -18.22904325209111" fill="#ff4606" stroke="none" /><path d="M 108.2653958097858 119.30500536409082 l 7.770139621050409 18.148264223053594 a40.74169607810799,40.74169607810799 0 0,0 -0.6470723062156843,0.27047627647727396 l -7.456595855337263 -18.27932554255084" fill="#ff4506" stroke="none" /><path d="M 107.93186726928326 119.44442032107085 l 7.461193085906258 18.29059533318924 a40.75386746709766,40.75386746709766 0 0,0 -0.6518269119991027,0.25937538045878333 l -7.145245097865289 -18.416317558054093" fill="#ff4506" stroke="none" /><path d="M 107.59598834532513 119.57807347666477 l 7.074589402599212 18.23420795880551 a40.558531516970675,40.558531516970675 0 0,0 -0.653049871815273,0.24692758226428874 l -6.759669310023664 -18.353283791176427" fill="#ff4106" stroke="none" /><path d="M 106.2309692047433 120.05430185196036 l 5.866598776879334 18.88157987144576 a40.77197611900914,40.77197611900914 0 0,0 -0.6720095845863678,0.20247097525719235 l -5.54071421785272 -18.979766215808677" fill="#ff4506" stroke="none" /><path d="M 105.88484417918355 120.15858648285463 l 5.528901215151114 18.939300669171967 a40.72982155226441,40.72982155226441 0 0,0 -0.6746969260330512,0.19067609066237656 l -5.202073121013457 -19.031665553172864" fill="#ff4506" stroke="none" /><path d="M 105.53697534728816 120.25689768951611 l 5.210213468052852 19.061446826664525 a40.760695319457724,40.760695319457724 0 0,0 -0.6783929796094827,0.17916975173270774 l -4.881330045631872 -19.148307927700817" fill="#ff4506" stroke="none" /><path d="M 105.18746579009965 120.34920634021253 l 4.8653437172318466 19.085597327111337 a40.69597915361018,40.69597915361018 0 0,0 -0.6802947526682671,0.16719989871675975 l -4.5360956798203675 -19.166518484142127" fill="#ff4406" stroke="none" /><path d="M 104.13013068566511 120.58985236759428 l 3.8926986255521365 19.406187385266346 a40.79275653923541,40.79275653923541 0 0,0 -0.6896547458247835,0.1321739734294488 l -3.5580762651556483 -19.470318557044262" fill="#ff4606" stroke="none" /><path d="M 103.7750983002368 120.6578951692458 l 3.556421916855439 19.461265718934854 a40.78355378170663,40.78355378170663 0 0,0 -0.6916716488752278,0.12025598205372708 l -3.220901296508161 -19.51960027950959" fill="#ff4606" stroke="none" /><path d="M 103.06178313531738 120.77559828337769 l 2.8756399247101037 19.51253150306047 a40.723290563050426,40.723290563050426 0 0,0 -0.6943736201628342,0.09623385660773212 l -2.539337713360439 -19.559139925160803" fill="#ff4406" stroke="none" /><path d="M 102.70371172650421 120.8252237178851 l 2.5505363459409214 19.64539691274449 a40.8102714648547,40.8102714648547 0 0,0 -0.6974136803126251,0.08444708424191236 l -2.211995242576916 -19.686389525711753" fill="#ff4606" stroke="none" /><path d="M 101.62511606390274 120.93702456842531 l 1.5275565680323302 19.680126302946075 a40.73932117293927,40.73932117293927 0 0,0 -0.699624586454728,0.04825020765970262 l -1.188569220798672 -19.703504855122063" fill="#ff4506" stroke="none" /><path d="M 101.26447882468166 120.96189622390904 l 1.1867102100913332 19.67268710731503 a40.70844740574594,40.70844740574594 0 0,0 -0.6998207252303151,0.0361727378572362 l -0.8479014164475385 -19.690199651934467" fill="#ff4406" stroke="none" /><line stroke="#e1ed5e" stroke-width="0.3" x1="102.19456741930631" x2="102.32365962044197" y1="184.97166512339345" y2="189.96999836594603" /><path d="M 102.22038585953345 185.97133177190398 a86.0,86.0 0 0,1 -42.740103519485714,-10.115201625700543" fill="none" id="id67" stroke="none" /><text fill="#e1ed5e" style="font-size:6.75px; font-family:Arial;" text-anchor="middle"><textPath startOffset="22.20632615414155" xlink:href="#id67">July</textPath></text><path d="M 100.54218724476979 120.99299961872073 l 0.5371848527819931 20.799311526450698 a41.80624731998549,41.80624731998549 0 0,0 -0.7195458569409225,0.01238763446769906 l -0.17907930594840266 -20.805476638197558" fill="#ff5808" stroke="none" /><path d="M 100.18074693466247 120.99922214144158 l 0.1694338027886837 19.684859771885744 a40.685588943497045,40.685588943497045 0 0,0 -0.7003614749022647,0.0 l 0.16943380278867012 -19.684859771885744" fill="#ff4406" stroke="none" /><path d="M 98.73552117531835 120.96189622390904 l -0.9697958357302336 16.076789322331564 a37.10601312794802,37.10601312794802 0 0,0 -0.6372290539506643,-0.043947046423453484 l 1.246387650459828 -16.057713931391824" fill="#ff0000" stroke="none" /><path d="M 98.37488393609728 120.93702456842531 l -2.4005609014478053 30.9273926262922 a52.02041758749216,52.02041758749216 0 0,0 -0.8921642375044354,-0.07697968444321368 l 2.9325694566937828 -30.881488689570322" fill="#f7ff18" stroke="none" /><path d="M 96.58105272829116 120.7198165907248 l -3.21887137762136 19.507298379630548 a40.77108552957087,40.77108552957087 0 0,0 -0.6914601926456041,-0.12021921767774589 l 3.5541805417390138 -19.449000583431797" fill="#ff4506" stroke="none" /><path d="M 96.22490169976321 120.6578951692458 l -3.54985788972879 19.425346393533022 a40.7470396147376,40.7470396147376 0 0,0 -0.6888818415981872,-0.13202584449489058 l 3.883707345898672 -19.361363350689665" fill="#ff4506" stroke="none" /><path d="M 95.86986931433489 120.58985236759428 l -3.880087480064163 19.343317310795157 a40.72863409968004,40.72863409968004 0 0,0 -0.6861970718469067,-0.14379926817468233 l 4.212476013340456 -19.273662061893933" fill="#ff4506" stroke="none" /><path d="M 95.16358092515715 120.4354850818985 l -4.549222578859127 19.22198401459498 a40.75297687765939,40.75297687765939 0 0,0 -0.681247555706582,-0.16743407452199452 l 4.87942341930892 -19.140828681758954" fill="#ff4506" stroke="none" /><path d="M 94.11515582081647 120.15858648285463 l -5.5286516446714895 18.93844576325711 a40.72893096282614,40.72893096282614 0 0,0 -0.67130010812046,-0.2022572158179385 l 5.853826727232195 -18.840473178333447" fill="#ff4506" stroke="none" /><path d="M 93.76903079525671 120.05430185196036 l -5.837443270443466 18.78774321337557 a40.67371441765346,40.67371441765346 0 0,0 -0.6668138899935694,-0.21349275028733292 l 6.1599785055279765 -18.68447761642853" fill="#ff4406" stroke="none" /><path d="M 93.08242187328487 119.8279376855182 l -6.49565015951049 18.618560460098468 a40.71913447900518,40.71913447900518 0 0,0 -0.6598059510139586,-0.23658293926228852 l 6.815175671154175 -18.503989979796224" fill="#ff4406" stroke="none" /><path d="M 92.7421414339146 119.70592522655815 l -6.821947242012981 18.522375577668512 a40.7387274466471,40.7387274466471 0 0,0 -0.6559512818115135,-0.2480246472610839 l 7.139768744584778 -18.402202680300793" fill="#ff4506" stroke="none" /><path d="M 92.06813273071674 119.44442032107085 l -7.450653093870019 18.264757276603635 a40.72596233136524,40.72596233136524 0 0,0 -0.6468224179495988,-0.27037182316178465 l 7.76394697131708 -18.133800410421877" fill="#ff4406" stroke="none" /><path d="M 91.7346041902142 119.30500536409082 l -7.795260747327087 18.20693817995584 a40.805521654517264,40.805521654517264 0 0,0 -0.6433268847436392,-0.28201560063720316 l 8.10750830672847 -18.07005802602419" fill="#ff4606" stroke="none" /><path d="M 91.07499286063937 119.00905698771935 l -8.385307034189017 17.859568825380432 a40.730118415410494,40.730118415410494 0 0,0 -0.6320680772586826,-0.30343108779797107 l 8.691487779447941 -17.712583461082897" fill="#ff4506" stroke="none" /><path d="M 90.7491055286396 118.85261126421891 l -8.692272422201343 17.714182502652008 a40.73189959428703,40.73189959428703 0 0,0 -0.6267787707881908,-0.31427988738704044 l 8.995905100672294 -17.561934774355667" fill="#ff4506" stroke="none" /><path d="M 90.42595943632237 118.69057910512821 l -8.998747280474817 17.56748331847105 a40.73813372035491,40.73813372035491 0 0,0 -0.6213711830819912,-0.3250720351727476 l 9.299809366083304 -17.409981864353586" fill="#ff4506" stroke="none" /><line stroke="#e1ed5e" stroke-width="0.3" x1="58.666819895761336" x2="56.23545636021788" y1="174.27360380694188" y2="178.64263932499728" /><path d="M 58.180547188652646 175.14741091055294 a86.0,86.0 0 0,1 -31.652253787137756,-30.449443065178592" fill="none" id="id68" stroke="none" /><text fill="#e1ed5e" style="font-size:6.75px; font-family:Arial;" text-anchor="middle"><textPath startOffset="22.20632615414155" xlink:href="#id68">August</textPath></text><path d="M 89.7882731507175 118.34994917583269 l -11.521520999841444 20.703582057743205 a44.69353827885345,44.69353827885345 0 0,0 -0.6690223270767528,-0.37988833772436775 l 11.876192093839405 -20.502190554224207" fill="#ff8c0c" stroke="none" /><path d="M 89.4739219176387 118.17145234162733 l -9.883013124285833 17.061311969609747 a40.717056436982546,40.717056436982546 0 0,0 -0.6034502933495046,-0.35652906998230127 l 10.17523128866372 -16.888664327333696" fill="#ff4406" stroke="none" /><path d="M 89.1626897886671 117.98757091392108 l -10.18610848191698 16.90671809539718 a40.73813372035491,40.73813372035491 0 0,0 -0.5975329781813482,-0.36705355903709047 l 10.475620660030637 -16.72887606953171" fill="#ff4506" stroke="none" /><path d="M 88.54995079064634 117.60387380957326 l -10.744871335712517 16.51969835548516 a40.706666226869416,40.706666226869416 0 0,0 -0.5840927840049166,-0.38710484763242936 l 11.027638818457396 -16.332295486761414" fill="#ff4406" stroke="none" /><path d="M 88.24862548938628 117.40417183066458 l -11.035612647047335 16.344104988943666 a40.72091565788172,40.72091565788172 0 0,0 -0.5775449705024771,-0.3972406970478068 l 11.315314502172702 -16.15172350253076" fill="#ff4406" stroke="none" /><path d="M 87.65650970185807 116.9893568818739 l -11.573516240367638 15.929578509521532 a40.69004189068839,40.69004189068839 0 0,0 -0.5631017965586793,-0.4165692472314351 l 11.846003007344882 -15.727999313550331" fill="#ff4406" stroke="none" /><path d="M 87.36589467227662 116.77436683061367 l -11.907977211568634 15.81028278426063 a40.7930534023815,40.7930534023815 0 0,0 -0.5572550046749657,-0.42727937501234337 l 12.178360944737086 -15.60296406742092" fill="#ff4606" stroke="none" /><path d="M 87.07902340077011 116.55440617244103 l -12.15004936981381 15.566691165983322 a40.7470396147376,40.7470396147376 0 0,0 -0.5491973455666889,-0.43631558638304446 l 12.416204208097858 -15.355241665595146" fill="#ff4506" stroke="none" /><path d="M 86.51685102203217 116.09983520530335 l -12.646086849766654 15.100323715616407 a40.69627601675627,40.69627601675627 0 0,0 -0.5331881193789905,-0.45439448260400006 l 12.9041404457227 -14.880404842789455" fill="#ff4406" stroke="none" /><path d="M 86.24171649860922 115.8653595955263 l -12.914059526369169 14.891843027014787 a40.711416037206845,40.711416037206845 0 0,0 -0.5254828876612523,-0.4636775515133518 l 13.16848476693701 -14.667342333729147" fill="#ff4406" stroke="none" /><path d="M 85.44109423537348 115.13401014063109 l -13.684694991045284 14.225266384313029 a40.73902430979318,40.73902430979318 0 0,0 -0.5011870890761307,-0.49051705256029227 l 13.927532032497208 -13.987599228830167" fill="#ff4506" stroke="none" /><path d="M 85.18274418774928 114.88116024355367 l -13.893180302163794 13.953099345031696 a40.69033875383448,40.69033875383448 0 0,0 -0.4920806188667817,-0.4984750689319465 l 14.131301546086108 -13.711883782119084" fill="#ff4406" stroke="none" /><path d="M 84.43433777217949 114.09645910891817 l -14.63936086802169 13.25758896964446 a40.750305109344595,40.750305109344595 0 0,0 -0.4663797717695751,-0.5239826176411372 l 14.865399489439604 -13.003632182262459" fill="#ff4506" stroke="none" /><path d="M 83.72743513129214 113.27417163493432 l -15.236796128649203 12.429254306869009 a40.66332420754032,40.66332420754032 0 0,0 -0.43777377331575396,-0.5461900930062141 l 15.448487814019819 -12.165136380284535" fill="#ff4306" stroke="none" /><path d="M 83.50135304334701 112.99209946851258 l -25.830276513167796 20.340426862878942 a53.877593429429034,53.877593429429034 0 0,0 -0.5674931605374425,-0.7335614088425232 l 26.176576490923306 -19.892787459923166" fill="#daff1c" stroke="none" /><path d="M 82.44556493220864 111.52570212397912 l -16.477274900922332 10.818471889841474 a40.711416037206845,40.711416037206845 0 0,0 -0.3795760602437547,-0.5891104747770813 l 16.661055824543133 -10.533239815142945" fill="#ff4406" stroke="none" /><path d="M 82.24976979558568 111.22182372390057 l -16.66557244384224 10.536095254481978 a40.716759573836455,40.716759573836455 0 0,0 -0.369427736045435,-0.5956351388571934 l 16.844464819555633 -10.24766378425952" fill="#ff4406" stroke="none" /><path d="M 82.05923443525364 110.91462005526583 l -16.982178724083372 10.331444765557276 a40.87795626216314,40.87795626216314 0 0,0 -0.3605418696249445,-0.6042889118210026 l 17.157501469406547 -10.03759375985016" fill="#ff4706" stroke="none" /><line stroke="#e1ed5e" stroke-width="0.3" x1="26.63291911575756" x2="22.317208475507996" y1="142.92168965132927" y2="145.44649492493687" /><path d="M 25.769776987707644 143.4266507060508 a86.0,86.0 0 0,1 -11.730757126820373,-40.83630448921669" fill="none" id="id69" stroke="none" /><text fill="#e1ed5e" style="font-size:6.75px; font-family:Arial;" text-anchor="middle"><textPath startOffset="21.46611528233685" xlink:href="#id69">September</textPath></text><path d="M 81.69416730710424 110.29060199501025 l -18.44798778870665 10.370514312417157 a42.16307682158525,42.16307682158525 0 0,0 -0.35020167846630657,-0.635717769370063 l 18.623765876624475 -10.051426024649272" fill="#ff5f08" stroke="none" /><path d="M 81.51974371655577 109.97397251340807 l -17.423353411825 9.403551842331334 a40.79899066530329,40.79899066530329 0 0,0 -0.3282327209456799,-0.6208926102986777 l 17.582638640995565 -9.102244216946529" fill="#ff4606" stroke="none" /><path d="M 81.02952815118164 109.00673069616217 l -17.87748790630849 8.487807808852475 a40.7900847709206,40.7900847709206 0 0,0 -0.2956802992090161,-0.6368690595419231 l 18.020942822357334 -8.178818682031725" fill="#ff4606" stroke="none" /><path d="M 80.73074385275274 108.34839909993369 l -18.079790286372695 7.833063393851144 a40.703697595408514,40.703697595408514 0 0,0 -0.2730036127694456,-0.6452998966234577 l 18.211944880334446 -7.520688971561528" fill="#ff4406" stroke="none" /><path d="M 80.58989483394504 108.01547362559985 l -18.273956534816776 7.546296910144581 a40.77078866642478,40.77078866642478 0 0,0 -0.2622869982618338,-0.6509748196856959 l 18.401146147336 -7.230622722616079" fill="#ff4506" stroke="none" /><path d="M 80.45479744820244 107.68017299344265 l -18.493153259560845 7.266776379076852 a40.869644094072626,40.869644094072626 0 0,0 -0.2516513701114737,-0.6569823180035873 l 18.615498909265828 -6.947370494240107" fill="#ff4706" stroke="none" /><path d="M 80.32549172779594 107.34259656027581 l -18.50591744494009 6.90647430146639 a40.75268001451331,40.75268001451331 0 0,0 -0.23961748956236445,-0.6593244196588419 l 18.622059195507678 -6.58690208480143" fill="#ff4506" stroke="none" /><path d="M 80.0844068197444 106.66101706037122 l -29.405621690206868 9.835074756572036 a52.00676188277204,52.00676188277204 0 0,0 -0.2766456334218282,-0.8514277116137844 l 29.570559574644946 -9.327448144980448" fill="#f7ff18" stroke="none" /><path d="M 79.97269907076064 106.31721596034903 l -46.67651450015451 14.723183289433802 a69.94353003265495,69.94353003265495 0 0,0 -0.35229299589849117,-1.1513138941326002 l 46.923034268559135 -13.917542422749154" fill="#36ff6e" stroke="none" /><path d="M 79.76711848015287 105.62410040840567 l -28.849868205897014 8.019349858796643 a50.943694956624995,50.943694956624995 0 0,0 -0.2275774296256577,-0.8469002765189217 l 28.983633711864446 -7.521558649102182" fill="#fff617" stroke="none" /><path d="M 79.67330655649465 105.27499134158121 l -28.991104683307118 7.5234974449905945 a50.95141339842332,50.95141339842332 0 0,0 -0.21299798176460613,-0.8508210581991325 l 29.116313979366783 -7.02334854739407" fill="#fff617" stroke="none" /><path d="M 79.58551787078972 104.9243191809786 l -28.846197421382712 6.958191854260149 a50.67354949368341,50.67354949368341 0 0,0 -0.1972393932335088,-0.8497021438154388 l 28.961697380546774 -6.460621053096136" fill="#fff116" stroke="none" /><path d="M 79.35854240842038 103.8639653848113 l -21.970387777254572 4.112733681017934 a43.352013721674304,43.352013721674304 0 0,0 -0.1309923572571687,-0.7346747048333483 l 22.03792657685093 -3.733940225451372" fill="#ff740a" stroke="none" /><path d="M 79.29508885075956 103.50808413554451 l -19.40633577476223 3.288063308737779 a40.68291717518224,40.68291717518224 0 0,0 -0.11104159237839803,-0.6914561017377729 l 19.460059121501917 -2.9535279773067926" fill="#ff4406" stroke="none" /><path d="M 79.18660465613746 102.79330883721812 l -22.896313887032353 3.0728516353881203 a44.10159316555068,44.10159316555068 0 0,0 -0.09450024439329992,-0.7532599274344186 l 22.9458156406725 -2.678273953666293" fill="#ff820b" stroke="none" /><path d="M 79.10278846688536 102.07522291339032 l -19.58184885748548 1.94459922900264 a40.6781673648448,40.6781673648448 0 0,0 -0.06319722061841715,-0.6973760633847836 l 19.61242067438097 -1.6072417770692902" fill="#ff4406" stroke="none" /><path d="M 79.07016306316243 101.71520430193888 l -19.67573713197172 1.6124305733686073 a40.74169607810799,40.74169607810799 0 0,0 -0.051263610296922155,-0.6994512333734525 l 19.700577300932974 -1.2735062034983942" fill="#ff4506" stroke="none" /><path d="M 79.04373962182676 101.35467743843564 l -62.86878113451971 4.064032315306924 a84.0,84.0 0 0,0 -0.08085459644987347,-1.4437131346582497 l 62.92942208185711 -2.9812474643132365" fill="#4dd2ff" stroke="none" /><path d="M 79.0235259727143 100.99374915477108 l -19.742116087361648 0.9352721124479069 a40.76425767721081,40.76425767721081 0 0,0 -0.027172031589762485,-0.7011893991234717 l 19.75529025180261 -0.5953054663104385" fill="#ff4506" stroke="none" /><path d="M 79.0095281055655 100.63252640178507 l -19.710187526863454 0.5939463418248174 a40.71913447900518,40.71913447900518 0 0,0 -0.015081470261831136,-0.7007766615677989 l 19.717491059810293 -0.25457986446688957" fill="#ff4406" stroke="none" /><line stroke="#e1ed5e" stroke-width="0.3" x1="15.007084014347285" x2="10.007500721073583" y1="101.09737516637583" y2="101.16192664675087" /><path d="M 14.007167355692545 101.11028546245083 a86.0,86.0 0 0,1 10.666146001902534,-42.60595125391555" fill="none" id="id70" stroke="none" /><text fill="#e1ed5e" style="font-size:6.75px; font-family:Arial;" text-anchor="middle"><textPath startOffset="22.20632615414155" xlink:href="#id70">October</textPath></text><path d="M 79.08570108090925 98.10471618934814 l -19.55824336738856 -1.7723961086337998 a40.63838770326879,40.63838770326879 0 0,0 0.06912952459051118,-0.6961248785517129 l 19.52483671711582 2.108796517889943" fill="#ff4306" stroke="none" /><path d="M 79.12142395522702 97.74499172005258 l -19.660309032100113 -2.1234283199504915 a40.77464788732394,40.77464788732394 0 0,0 0.0813738618743193,-0.6971615543591717 l 19.620844817222206 2.4615336126345246" fill="#ff4506" stroke="none" /><path d="M 79.26566170972629 96.67025291283419 l -19.480814523484636 -3.1284425143974097 a40.730415278556585,40.730415278556585 0 0,0 0.11712542658001424,-0.6912808977655096 l 19.4240772353844 3.463309200478747" fill="#ff4506" stroke="none" /><path d="M 79.32604984820605 96.31383870115002 l -38.29141061127694 -6.827351078884882 a59.89530626381238,59.89530626381238 0 0,0 0.18970918749212434,-1.0134340653631346 l 38.16821569987495 7.48546322171059" fill="#81ff25" stroke="none" /><path d="M 79.3925641242962 95.95851677861259 l -19.36857570341843 -3.798520796069882 a40.737539994062736,40.737539994062736 0 0,0 0.14087565890761447,-0.6869597438054579 l 19.30032074859582 4.131356196038742" fill="#ff4506" stroke="none" /><path d="M 79.46518482838121 95.60439243477599 l -19.181012736087013 -4.105817558461893 a40.615529241019885,40.615529241019885 0 0,0 0.15222238695957796,-0.6823831129292282 l 19.107495962125398 4.43537884094108" fill="#ff4206" stroke="none" /><path d="M 79.54389044137918 95.25157060432595 l -19.298929498158554 -4.479815864863578 a40.812052643731235,40.812052643731235 0 0,0 0.16473921039130038,-0.6829503821572055 l 19.21895748750644 4.811351478680181" fill="#ff4606" stroke="none" /><path d="M 79.81627453868168 94.20196356495316 l -20.966749656715674 -6.022970272119587 a42.81469142725203,42.81469142725203 0 0,0 0.20957608550968873,-0.7065863744857346 l 20.85996767409428 6.3829860333518615" fill="#ff6b09" stroke="none" /><path d="M 79.91906864156998 93.8553929516997 l -29.434003704091886 -9.006573619103314 a51.781145891743904,51.781145891743904 0 0,0 0.2681388409488452,-0.8500734013537268 l 29.274609379374837 9.511897186883456" fill="#fbff18" stroke="none" /><path d="M 80.2630227832202 92.82701384747504 l -18.56216489459205 -6.746025507725503 a40.7500082461985,40.7500082461985 0 0,0 0.24526733623049182,-0.6571945218500465 l 18.443292969859932 7.064543166604891" fill="#ff4506" stroke="none" /><path d="M 80.38941819471856 92.48833698450439 l -18.498737341396737 -7.085780651511038 a40.80938087541643,40.80938087541643 0 0,0 0.2569173036697529,-0.6538265145296028 l 18.374026487845292 7.403156170936404" fill="#ff4606" stroke="none" /><path d="M 80.65960295795068 91.81776055985345 l -21.232706421422108 -8.9828087564434 a44.05468878846852,44.05468878846852 0 0,0 0.3014794311377344,-0.6958560931479124 l 21.074936280441694 9.346963994177912" fill="#ff810b" stroke="none" /><path d="M 80.803312248108 91.48605970444005 l -32.48038427790095 -14.405404520456267 a56.531549955470524,56.531549955470524 0 0,0 0.40217536103894463,-0.8861400976850429 l 32.22760659989866 14.96236662698338" fill="#b1ff20" stroke="none" /><path d="M 80.95270993114464 91.15688171328213 l -18.616026945474086 -8.642895010914671 a41.524524194346405,41.524524194346405 0 0,0 0.30657320147396927,-0.6457213482181923 l 18.464495550158365 8.962058774773396" fill="#ff5307" stroke="none" /><path d="M 81.10775173730289 90.83032412892265 l -18.563310432763572 -9.010020268404483 a41.63436355839958,41.63436355839958 0 0,0 0.3184830296530577,-0.6420423536826647 l 18.4054673901571 9.32822221058611" fill="#ff5507" stroke="none" /><path d="M 81.26839172434947 90.50648371742162 l -29.53565399904346 -14.96920115081696 a54.112412177985945,54.112412177985945 0 0,0 0.4282367834730016,-0.8272171606393094 l 29.273607782410348 15.475391033716605" fill="#d6ff1c" stroke="none" /><line stroke="#e1ed5e" stroke-width="0.3" x1="26.266209847984243" x2="21.928928074336255" y1="57.711370442889674" y2="55.22380399835377" /><path d="M 25.398753493254645 57.213857153982495 a86.0,86.0 0 0,1 29.58750427330803,-30.492523968695096" fill="none" id="id71" stroke="none" /><text fill="#e1ed5e" style="font-size:6.75px; font-family:Arial;" text-anchor="middle"><textPath startOffset="21.46611528233685" xlink:href="#id71">November</textPath></text><path d="M 85.31137513191541 84.99185889309783 l -15.58446770811125 -15.923470885793956 a43.28076656661278,43.28076656661278 0 0,0 0.5369221390429358,-0.5165186723564454 l 15.308062325455886 16.189372644912712" fill="#ff730a" stroke="none" /><path d="M 85.57189188830299 84.74124197986013 l -14.52179403509651 -15.357837596199273 a42.13635913843717,42.13635913843717 0 0,0 0.5313036050212729,-0.4937887973086193 l 14.255282546280382 15.60553097958254" fill="#ff5e08" stroke="none" /><path d="M 85.83668400450813 84.49514656593479 l -13.46222120882036 -14.73735153590881 a40.96048421677607,40.96048421677607 0 0,0 0.5246628665267331,-0.4710475018877015 l 13.206547354697655 14.96689804656579" fill="#ff4906" stroke="none" /><path d="M 86.37877921826538 84.01681056812374 l -19.514984291518285 -22.898952721600725 a51.08648612989411,51.08648612989411 0 0,0 0.6742016473401476,-0.5646244906459753 l 19.11792510721903 23.231478369640513" fill="#fff817" stroke="none" /><path d="M 86.65592168130627 83.78471172551755 l -19.119622835106757 -23.233541393137052 a51.089157898208924,51.089157898208924 0 0,0 0.6838566026375303,-0.5529644802939421 l 18.716862833904724 23.559211970695127" fill="#fff817" stroke="none" /><path d="M 86.93701828274178 83.55741782278169 l -18.613082365731294 -23.428581850155545 a50.92232081010654,50.92232081010654 0 0,0 0.691009697457527,-0.5393440294797978 l 18.207040113114342 23.745504268858564" fill="#fff517" stroke="none" /><path d="M 87.22198572758235 83.33499621200491 l -34.688118935680464 -45.24002095610153 a78.00811425932645,78.00811425932645 0 0,0 1.0726258585921666,-0.807879558825491 l 33.90424692332991 45.830417104432875" fill="#43ffe0" stroke="none" /><path d="M 87.80319425747018 82.90503203632743 l -17.401306474417783 -24.38956420113638 a50.96091301909819,50.96091301909819 0 0,0 0.7184733068257435,-0.5033364660356808 l 16.97890202800838 24.685485509936004" fill="#fff617" stroke="none" /><path d="M 88.09926311788651 82.69761687909137 l -25.53690793501642 -37.12789965797112 a66.06234126067882,66.06234126067882 0 0,0 0.9424746342005974,-0.6363630801283662 l 24.894028606409282 37.561974650398156" fill="#30ff31" stroke="none" /><path d="M 88.39885842347998 82.49532879139004 l -12.68456495004007 -19.139421531076092 a43.96117689745027,43.96117689745027 0 0,0 0.6343660088217828,-0.4126092981762116 l 12.353231915434 19.35492975341184" fill="#ff7f0b" stroke="none" /><path d="M 88.70189139769569 82.29822771554957 l -13.11027583857362 -20.541059185201103 a45.36830820991523,45.36830820991523 0 0,0 0.6619038440376757,-0.41448412641321897 l 12.754752842163704 20.76368765293725" fill="#ff980e" stroke="none" /><path d="M 89.00827224532344 82.1063720568725 l -15.584895232670851 -25.370926486728628 a50.77537355279216,50.77537355279216 0 0,0 0.7486657978054089,-0.4510627662989777 l 15.145867368647792 25.635435862486226" fill="#fff316" stroke="none" /><line stroke="#e1ed5e" stroke-width="0.3" x1="56.762969772571076" x2="54.21961505331055" y1="26.818313649435495" y2="22.513508569990535" /><path d="M 56.25429882871897 25.957352633546506 a86.0,86.0 0 0,1 42.265352541879196,-11.944610805530505" fill="none" id="id72" stroke="none" /><text fill="#e1ed5e" style="font-size:6.75px; font-family:Arial;" text-anchor="middle"><textPath startOffset="22.20632615414155" xlink:href="#id72">December</textPath></text><path d="M 89.3179101791058 81.91981866633112 l -10.910007692098048 -18.465948211652712 a42.44806544183131,42.44806544183131 0 0,0 0.6322806462252741,-0.36625776118547826 l 10.590530313407454 18.651010130228237" fill="#ff6409" stroke="none" /><path d="M 89.63071344664047 81.73862282372117 l -14.553862105043477 -25.630843925867094 a50.474651185803346,50.474651185803346 0 0,0 0.7592250677183994,-0.42250792818975236 l 14.110512948253032 25.87756725161703" fill="#ffee16" stroke="none" /><path d="M 90.26544431104013 81.39251694778311 l -13.860729537149751 -26.494613436376962 a50.90124352673417,50.90124352673417 0 0,0 0.7798543463531928,-0.39947168590925 l 13.402614703207794 26.729277647598717" fill="#fff517" stroke="none" /><path d="M 91.23893434514133 80.91482961587045 l -19.459837823470128 -42.391455005532336 a67.64462182933667,67.64462182933667 0 0,0 1.0624002794699052,-0.47666803717331585 l 18.727255425533446 42.72014337322218" fill="#32ff4a" stroke="none" /><path d="M 91.56875222667455 80.76684994638697 l -12.765760680112084 -29.12093171854071 a52.79612098822443,52.79612098822443 0 0,0 0.8354765966692848,-0.35770747694944877 l 12.262600325652492 29.336358723452943" fill="#ebff1a" stroke="none" /><path d="M 91.90106846888425 80.62456947434976 l -11.705953581897905 -28.004668207301542 a51.35277237193654,51.35277237193654 0 0,0 0.8185048216306344,-0.33388866817527174 l 11.222164890678892 28.20201776166039" fill="#fffc17" stroke="none" /><path d="M 92.23578459929587 80.48803036053334 l -11.096821721769354 -27.887022365466766 a51.01375465910215,51.01375465910215 0 0,0 0.8186901969854105,-0.317639077314999 l 10.615148359784268 28.07390414667232" fill="#fff717" stroke="none" /><path d="M 92.57280143429618 80.3572730644239 l -10.55698201267963 -27.920071491882094 a50.849292476168486,50.849292476168486 0 0,0 0.821379939517917,-0.3025211636349071 l 10.074819747389142 28.097655923323327" fill="#fff417" stroke="none" /><path d="M 93.25333710446033 80.11325718540243 l -9.618856271064136 -28.35293889660547 a50.94013259887192,50.94013259887192 0 0,0 0.8327915504020071,-0.2745582806955765 l 9.129381898419718 28.51431090156028" fill="#fff617" stroke="none" /><path d="M 93.59665428221793 80.00007090966166 l -9.009352545414862 -28.13941648625643 a50.54649206715703,50.54649206715703 0 0,0 0.8309232580830344,-0.2581719010135605 l 8.523643914621099 28.290328522152514" fill="#ffef16" stroke="none" /><path d="M 94.28887869178378 79.79150937346287 l -5.368753823292036 -18.997041992103796 a40.74110235181581,40.74110235181581 0 0,0 0.6765003993062161,-0.18491311408102354 l 5.040955534762098 19.086641647011113" fill="#ff4506" stroke="none" /><path d="M 95.33964822691252 79.52364482259891 l -5.58177586822966 -24.524849359772 a46.15202691559191,46.15202691559191 0 0,0 0.7761392428716104,-0.16963397682856554 l 5.158793901204529 24.617296834696432" fill="#ffa60f" stroke="none" /><path d="M 95.692805502759 79.44645832069477 l -4.894418348020971 -23.355720661429046 a44.863047135270634,44.863047135270634 0 0,0 0.7571890894475748,-0.1518850080780652 l 4.49166284910626 23.436509625584325" fill="#ff8f0d" stroke="none" /><path d="M 96.04723909329186 79.375362276772 l -4.402929262765935 -22.973517272809797 a44.39162845928027,44.39162845928027 0 0,0 0.7517085553479864,-0.1373699336896804 l 4.006825586315055 23.045902687850212" fill="#ff870c" stroke="none" /><path d="M 97.11714578562143 79.19881850522333 l -3.5250944546369327 -25.4352541212147 a46.67836527360886,46.67836527360886 0 0,0 0.7968336403770979,-0.10345187579955654 l 3.0867460857519773 25.492164320178393" fill="#ffaf10" stroke="none" /><path d="M 97.83486435360386 79.11191278185805 l -2.711604909882998 -26.160134563880717 a47.30029356466669,47.30029356466669 0 0,0 0.8105803397704255,-0.07697437032593304 l 2.2608994430223364 26.20293447872183" fill="#ffb911" stroke="none" /><path d="M 98.19473922651362 79.07773832637324 l -2.563717159695057 -29.71247260234773 a50.822871656166505,50.822871656166505 0 0,0 0.8722410261743506,-0.06770269092431877 l 2.0518859441583723 29.75220055546051" fill="#fff417" stroke="none" /><path d="M 98.55514903715128 79.0497635885617 l -1.6428159492389625 -23.820714663316735 a44.877296566282936,44.877296566282936 0 0,0 0.7711157974568646,-0.04651581072849432 l 1.232538102942475 23.845463743425537" fill="#ff8f0d" stroke="none" /><path d="M 98.91598698831166 79.02799685794201 l -1.9651161384167632 -38.0183829760469 a59.06913612824487,59.06913612824487 0 0,0 1.0158742874075533,-0.04374568376410329 l 1.3104010186198858 38.0465763863352" fill="#8cff24" stroke="none" /></svg>