<?xml version="1.0" encoding="utf-8" ?>
<svg baseProfile="full" height="200mm" version="1.1" viewBox="0,0,200,200" width="200mm" xmlns="http://www.w3.org/2000/svg" xmlns:ev="http://www.w3.org/2001/xml-events" xmlns:xlink="http://www.w3.org/1999/xlink"><defs /><rect fill="#1a1a1a" height="200" width="200" x="0" y="0" /><text alignment-baseline="middle" fill="#e1ed5e" style="dominant-baseline: central; font-size:9.0px; font-family:Arial;" text-anchor="middle" x="100.0" y="100.0">2018</text><line stroke="#e1ed5e" stroke-width="0.3" x1="100.0" x2="100.0" y1="15.0" y2="10.0" /><path d="M 100.0 14.0 a86.0,86.0 0 0,1 42.46469731375804,11.215312516191453" fill="none" id="id25" stroke="none" /><text fill="#e1ed5e" style="font-size:6.75px; font-family:Arial;" text-anchor="middle"><textPath startOffset="22.20632615414155" xlink:href="#id25">January</textPath></text><path d="M 100.36148047927253 79.00311137660856 l 0.5092755243455327 -29.581684424072527 a50.58606791929459,50.58606791929459 0 0,0 0.8704979798217353,0.02248239459959472 l -1.0184001393621356 29.568535237330575" fill="#94ff23" stroke="none" /><path d="M 100.72285384407766 79.0124445844662 l 1.0767704629191759 -31.263276726654947 a52.28181430667377,52.28181430667377 0 0,0 0.8991455493416113,0.0387190987575551 l -1.6147568446501188 31.240109901373195" fill="#82ff25" stroke="none" /><path d="M 101.08401301168833 79.027996857942 l 1.0585899114659016 -20.48015172330501 a41.50749197757372,41.50749197757372 0 0,0 0.7132132553806642,0.04302297126547793 l -1.4109652156861778 20.45889548265923" fill="#feff18" stroke="none" /><path d="M 101.44485096284872 79.0497635885617 l 1.1679202401652329 -16.93476058798693 a37.97498612252225,37.97498612252225 0 0,0 0.6517408360659984,0.050587632389250396 l -1.4592512655935723 16.912147693409217" fill="#ffd413" stroke="none" /><path d="M 101.80526077348638 79.07773832637324 l 2.67766510261696 -31.033084402037776 a52.14839029397463,52.14839029397463 0 0,0 0.8936616823567839,0.08486394489078802 l -3.211451912063988 30.982394912631808" fill="#83ff25" stroke="none" /><path d="M 102.16513564639614 79.11191278185805 l 1.8318308756262864 -17.67253851399874 a38.76722324635075,38.76722324635075 0 0,0 0.6631655905981424,0.07451438109196701 l -2.135763169734154 17.638388179436173" fill="#ffde14" stroke="none" /><path d="M 102.52436894288641 79.15227682838746 l 1.7801498782002978 -14.70152450151166 a35.808908003543145,35.808908003543145 0 0,0 0.6112841003565584,0.07936222019743161 l -2.032948707064702 14.668703958150092" fill="#ffb811" stroke="none" /><path d="M 102.88285421437855 79.19881850522331 l 2.0489138621566996 -14.783900240710803 a35.92520533667215,35.92520533667215 0 0,0 0.6118079910887598,0.09016459423297223 l -2.303090833674115 14.746441162316861" fill="#ffba11" stroke="none" /><path d="M 105.36241919743992 79.69619591428918 l 3.877522707592098 -14.681519384092672 a36.18493311718498,36.18493311718498 0 0,0 0.6008458360124406,0.16423386406514792 l -4.129666432828249 14.61259897920123" fill="#ffbd11" stroke="none" /><path d="M 106.40334571778207 80.00007090966166 l 4.522036901759713 -14.123931670272748 a35.83018083394165,35.83018083394165 0 0,0 0.585767455354889,0.19311832036723567 l -4.76448717935702 14.043999625646277" fill="#ffb811" stroke="none" /><path d="M 108.09893153111575 80.62456947434976 l 12.008059396494195 -28.727409250316537 a52.136112999295605,52.136112999295605 0 0,0 0.8250322454926386,0.3532357508440503 l -12.50077539977715 28.516453971509698" fill="#83ff25" stroke="none" /><path d="M 108.43124777332544 80.76684994638697 l 6.144495483504135 -14.0166683289597 a36.30430709933856,36.30430709933856 0 0,0 0.570181412287394,0.25582377930411754 l -6.38485901425831 13.908824219139051" fill="#ffbf11" stroke="none" /><path d="M 110.36928655335952 81.73862282372117 l 7.570623097673683 -13.33264377781866 a36.332114146236876,36.332114146236876 0 0,0 0.541181143875503,0.3134870493584901 l -7.799000974014514 13.200352571070121" fill="#ffbf11" stroke="none" /><line stroke="#e1ed5e" stroke-width="0.3" x1="143.23703022742887" x2="145.7803849466894" y1="26.81831364943548" y2="22.513508569990506" /><path d="M 143.74570117128098 25.957352633546492 a86.0,86.0 0 0,1 28.547481713284135,27.462654790039103" fill="none" id="id26" stroke="none" /><text fill="#e1ed5e" style="font-size:6.75px; font-family:Arial;" text-anchor="middle"><textPath startOffset="19.985693538727396" xlink:href="#id26">February</textPath></text><path d="M 110.68208982089419 81.91981866633111 l 7.588731781668697 -12.84445731178665 a35.918744373720536,35.918744373720536 0 0,0 0.529609799615985,0.319083978424137 l -7.80870364750232 12.711926723903899" fill="#ffba11" stroke="none" /><path d="M 110.99172775467656 82.1063720568725 l 8.000820325361756 -13.024676860371192 a36.28578860235253,36.28578860235253 0 0,0 0.52939384137284,0.331506374900988 l -8.223833319106859 12.885026144147261" fill="#ffbe11" stroke="none" /><path d="M 111.2981086023043 82.29822771554956 l 16.903728274257993 -26.484605450518785 a52.419267264524144,52.419267264524144 0 0,0 0.7564174507322606,0.49199495107652114 l -17.357112750774537 26.189711575282736" fill="#80ff25" stroke="none" /><path d="M 111.60114157652 82.49532879139004 l 8.492201940676035 -12.813670260650753 a36.3723010427817,36.3723010427817 0 0,0 0.5189033640975924,0.35036586777339984 l -8.71150999918017 12.665592480578683" fill="#ffc011" stroke="none" /><path d="M 111.90073688211348 82.69761687909136 l 8.799700034578011 -12.793811245098498 a36.52792088058672,36.52792088058672 0 0,0 0.5149895194520892,0.36078306918825787 l -9.018620693613752 12.640443333146305" fill="#ffc212" stroke="none" /><path d="M 112.48926042617603 83.11751280151076 l 9.258629749853435 -12.5154487050208 a36.56787336577729,36.56787336577729 0 0,0 0.5028149563449799,0.37870980067178733 l -9.472690859956797 12.354222314843165" fill="#ffc212" stroke="none" /><path d="M 112.77801427241765 83.33499621200491 l 9.557994839093789 -12.465475214170226 a36.7080660063305,36.7080660063305 0 0,0 0.4981239892791894,0.38879367474420196 l -9.771151383532409 12.2991031502028" fill="#ffc412" stroke="none" /><path d="M 114.42810811169701 84.74124197986012 l 13.23312862990403 -13.994981604649285 a40.26071658713812,40.26071658713812 0 0,0 0.4994567283390921,0.48047697694315933 l -13.47206860185554 13.765121540943822" fill="#fff116" stroke="none" /><path d="M 114.94478906791727 85.2469230424477 l 23.165670211477632 -22.8685004418624 a53.551752469051536,53.551752469051536 0 0,0 0.6419471351326446,0.6615829515004541 l -23.55588161031339 22.466353294811828" fill="#74ff27" stroke="none" /><path d="M 115.4437574822437 85.77008943001954 l 14.21071933258848 -13.093786629991042 a40.32334837085271,40.32334837085271 0 0,0 0.4659389006591633,0.5145013716156646 l -14.43400187386368 12.847232471105828" fill="#fff116" stroke="none" /><path d="M 115.68641384162765 86.03803664274999 l 18.79943230224248 -16.732759162866547 a46.16751644658432,46.16751644658432 0 0,0 0.5232497406043133,0.5981649063742931 l -19.08467390642464 16.406678700289305" fill="#c6ff1e" stroke="none" /><path d="M 115.9244219780498 86.31012108654704 l 14.604935558138841 -12.555545162348807 a40.259954750236794,40.259954750236794 0 0,0 0.4472485783199601,0.5294012472673824 l -14.818894749945919 12.302284965452317" fill="#fff116" stroke="none" /><path d="M 116.15771136456269 86.58626213691792 l 23.804566419319396 -19.76197041082115 a51.93853352907922,51.93853352907922 0 0,0 0.5651444395587905,0.6928002594683582 l -24.141209350954593 19.34928598174469" fill="#86ff25" stroke="none" /><path d="M 117.04232023915458 87.72973835380427 l 14.734512686731986 -10.608668500431884 a39.15625819015365,39.15625819015365 0 0,0 0.38911509238028186,0.5503757030428352 l -14.91494039891615 10.353466297057256" fill="#ffe315" stroke="none" /><line stroke="#e1ed5e" stroke-width="0.3" x1="172.23445277983987" x2="176.4835382374775" y1="55.19839476539836" y2="52.563006222186495" /><path d="M 173.08426987136738 54.67131705675599 a86.0,86.0 0 0,1 12.851231095245387,41.99856678651699" fill="none" id="id27" stroke="none" /><text fill="#e1ed5e" style="font-size:6.75px; font-family:Arial;" text-anchor="middle"><textPath startOffset="22.20632615414155" xlink:href="#id27">March</textPath></text><path d="M 118.56541770881063 90.18545643968196 l 13.008299488055217 -6.876792322889237 a35.71414721358618,35.71414721358618 0 0,0 0.2826359223632828,0.5459626407986125 l -13.124744843578615 6.65185695983028" fill="#ffb711" stroke="none" /><path d="M 118.73160827565052 90.50648371742162 l 27.780032552629667 -14.079420596883509 a52.1441855403077,52.1441855403077 0 0,0 0.3988781566547673,0.8041140239409693 l -28.01827072223784 13.599146984443589" fill="#83ff25" stroke="none" /><path d="M 119.04729006885535 91.15688171328212 l 17.466932137452666 -8.109402777990576 a40.2576252874039,40.2576252874039 0 0,0 0.28639980678551974,0.6310440105188853 l -17.603934261201534 7.807536758629628" fill="#fff116" stroke="none" /><path d="M 119.196687751892 91.48605970444005 l 13.863869980638622 -6.148777476933723 a36.16622416097363,36.16622416097363 0 0,0 0.24749630484971472,0.571255594822268 l -13.967656995331017 5.909222737524852" fill="#ffbd11" stroke="none" /><path d="M 119.34039704204932 91.81776055985345 l 29.993154044032984 -12.689044977717458 a53.56687200140088,53.56687200140088 0 0,0 0.35195555416839414,0.8522882912829047 l -30.207131285087574 12.17088211598125" fill="#74ff27" stroke="none" /><path d="M 119.47837535516314 92.15188598940014 l 15.403702268979629 -6.206370366522556 a37.60701889918288,37.60701889918288 0 0,0 0.23675668896156052,0.602519949120625 l -15.508252507822888 5.940301412506147" fill="#ffcf13" stroke="none" /><path d="M 119.61058180528143 92.48833698450437 l 14.653193739873284 -5.612778578810692 a36.69137884804958,36.69137884804958 0 0,0 0.22083913942580904,0.5917390993488433 l -14.74763746780072 5.359716342432516" fill="#ffc412" stroke="none" /><path d="M 119.7369772167798 92.82701384747503 l 15.986264306941422 -5.809869021220053 a38.00926878308182,38.00926878308182 0 0,0 0.21818572630820918,0.6168404294791937 l -16.083903114059442 5.5338309653142455" fill="#ffd413" stroke="none" /><path d="M 119.97218684219823 93.5106431181261 l 11.526335665528235 -3.7451334831219483 a33.119506536193185,33.119506536193185 0 0,0 0.1715030817197172,0.543711636494844 l -11.589094231016157 3.5461716802006853" fill="#ff950d" stroke="none" /><path d="M 120.37134235888165 94.90015583598534 l 14.259522288484 -3.569786430537128 a35.69956975749355,35.69956975749355 0 0,0 0.1441025028683936,0.5973979064851651 l -14.318857591613213 3.3238032923925567" fill="#ffb711" stroke="none" /><path d="M 120.45610955862082 95.25157060432595 l 19.44904837580826 -4.514662612698734 a40.96616290705427,40.96616290705427 0 0,0 0.15353652208448076,0.6882741230181553 l -19.52387928489478 4.179210320130615" fill="#fff917" stroke="none" /><path d="M 120.67395015179393 96.31383870115 l 14.860091132524131 -2.6495513642970296 a36.09445033444314,36.09445033444314 0 0,0 0.10379412691179926,0.6125988124820806 l -14.903497120956153 2.393366763499111" fill="#ffbc11" stroke="none" /><path d="M 120.73433829027371 96.67025291283417 l 32.819798108269474 -5.270562562570126 a54.240306520751794,54.240306520751794 0 0,0 0.14010556984746178,0.9231206521258203 l -32.905659571556235 4.704842798052224" fill="#6dff28" stroke="none" /><path d="M 120.78858239683441 97.02765380044208 l 31.01001704456121 -4.43380431388449 a52.325385517145634,52.325385517145634 0 0,0 0.1198101850716912,0.8927250416756447 l -31.081743228690737 3.8993609301441814" fill="#81ff25" stroke="none" /><path d="M 120.83666639777658 97.38593545837742 l 14.740957349923464 -1.8493271995810936 a35.85650815916624,35.85650815916624 0 0,0 0.07155874283212338,0.6130716083978403 l -14.770606445759176 1.5953118528584007" fill="#ffb911" stroke="none" /><path d="M 120.87857604477298 97.74499172005257 l 23.561404652461977 -2.5447694548017408 a44.698431188058606,44.698431188058606 0 0,0 0.07603602093012227,0.7656723541651769 l -23.601717799074326 2.138821569932129" fill="#d8ff1c" stroke="none" /><path d="M 120.94382443527127 98.46500227214037 l 15.248595420983625 -1.117587640051162 a36.289495231891664,36.289495231891664 0 0,0 0.04029759912170452,0.6233860222732197 l -15.265573611109746 0.8549425535249069" fill="#ffbe11" stroke="none" /><path d="M 120.96714384426684 98.82574320788733 l 2.5911808967657106 -0.14511808523943115 a23.595241356488277,23.595241356488277 0 0,0 0.01922044964139498,0.40571331382750386 l -2.593294954640602 0.10049366478892749" fill="#ff1001" stroke="none" /><path d="M 120.98425023603335 99.18683210126433 l 32.5360203755827 -1.2608145168132858 a53.560440339868556,53.560440339868556 0 0,0 0.027770592357651554,0.9215707624693732 l -32.552902662395994 0.7005736069189135" fill="#74ff27" stroke="none" /><line stroke="#e1ed5e" stroke-width="0.3" x1="184.98032266829074" x2="189.97916517819016" y1="98.17113171792111" y2="98.06355123074" /><path d="M 185.9800911702706 98.14961562048488 a86.0,86.0 0 0,1 -9.607161424134198,41.387399972396054" fill="none" id="id28" stroke="none" /><text fill="#e1ed5e" style="font-size:6.75px; font-family:Arial;" text-anchor="middle"><textPath startOffset="21.466115282336823" xlink:href="#id28">April</textPath></text><path d="M 120.99513854157772 99.54816195383933 l 14.830409505948372 -0.31916642234391984 a35.83384351135186,35.83384351135186 0 0,0 0.007963632981541614,0.6167921506518595 l -14.833706146047628 0.06383801363159758" fill="#ffb911" stroke="none" /><path d="M 120.99980553446 99.90962569577887 l 9.802215575326072 -0.04218460075698972 a30.802306347268793,30.802306347268793 0 0,0 -0.0022818681654287903,0.5302257997144834 l -9.80148940987114 -0.12655067716117835" fill="#ff760a" stroke="none" /><path d="M 120.8583938346157 102.4346265915055 l 1.5105036089071724 0.176308505917047 a22.52075831142897,22.52075831142897 0 0,0 -0.04825714926813356,0.38465696029972185 l -1.5072449503921908 -0.20228322050416378" fill="#ff0000" stroke="none" /><path d="M 120.81339534386255 102.79330883721812 l 20.970468696174912 2.814389222030723 a42.15848160975486,42.15848160975486 0 0,0 -0.10271803425058416,0.7184096923086389 l -20.918916610907726 -3.1749443863197713" fill="#f6ff19" stroke="none" /><path d="M 120.76222939487914 103.15116336523771 l 15.162022995717948 2.301198512852484 a36.33565961796995,36.33565961796995 0 0,0 -0.0991760125441626,0.6175691247833972 l -15.120165228812496 -2.561846867329086" fill="#ffbf11" stroke="none" /><path d="M 120.70491114924044 103.5080841355445 l 15.086609865339081 2.5561614993786983 a36.301626019474284,36.301626019474284 0 0,0 -0.10968891999085328,0.6151937151536198 l -15.040374503009039 -2.8154739652655363" fill="#ffbf11" stroke="none" /><path d="M 120.5718875245553 104.21870165774334 l 3.910513534606792 0.8019337025531426 a24.99189350654968,24.99189350654968 0 0,0 -0.0900493164890205,0.42068042767562347 l -3.8961301793933285 -0.869127949644935" fill="#ff2403" stroke="none" /><line stroke="#e1ed5e" stroke-width="0.3" x1="174.80103733775053" x2="179.2010983576182" y1="140.37084112569926" y2="142.7455964860345" /><path d="M 175.68104954172406 140.8457921977663 a86.0,86.0 0 0,1 -30.038265399797805,32.042727171017184" fill="none" id="id29" stroke="none" /><text fill="#e1ed5e" style="font-size:6.75px; font-family:Arial;" text-anchor="middle"><textPath startOffset="22.206326154141568" xlink:href="#id29">May</textPath></text><path d="M 118.30583269289576 110.29060199501025 l 16.791501850373532 9.439322719677827 a40.26279698790712,40.26279698790712 0 0,0 -0.3448182698855753,0.6012197183639658 l -16.626531584335577 -9.726962283900107" fill="#fff116" stroke="none" /><path d="M 118.12598468904814 110.60418214915192 l 14.060641755834439 8.22584862950525 a37.290065446812925,37.290065446812925 0 0,0 -0.32889682224830885,0.5512499921980354 l -13.916964057887903 -8.46666071558939" fill="#ffcb12" stroke="none" /><path d="M 117.75023020441432 111.22182372390056 l 26.172127836276097 16.546208228051075 a51.96380600320967,51.96380600320967 0 0,0 -0.4844885950403281,0.7519370585832073 l -25.883434377858716 -16.994266886555735" fill="#85ff25" stroke="none" /><path d="M 117.55443506779139 111.5257021239791 l 16.097204836748755 10.568929575948154 a40.25674624482545,40.25674624482545 0 0,0 -0.3853086181656444,0.5759841047978119 l -15.91289311317239 -10.844450594951772" fill="#fff116" stroke="none" /><path d="M 116.27256486870786 113.27417163493432 l 23.97497927069871 19.557334221800406 a51.94008650430115,51.94008650430115 0 0,0 -0.5711035114151676,0.6879309697956352 l -23.63477975939 -19.967126448709813" fill="#86ff25" stroke="none" /><path d="M 116.0416608686014 113.55231037782055 l 13.075489101770868 11.046430173315242 a38.11701010178057,38.11701010178057 0 0,0 -0.42774090205956594,0.4975593038280682 l -12.883405690140524 -11.269866576304837" fill="#ffd614" stroke="none" /><path d="M 113.75828350139079 115.86535959552629 l 9.69544086646018 11.180294094681377 a35.7986671575042,35.7986671575042 0 0,0 -0.4690213917884204,0.399710205283884 l -9.501553998094712 -11.345528690188209" fill="#ffb811" stroke="none" /><path d="M 113.20401910651253 116.32954008644616 l 9.77023283284276 12.082942883589721 a36.5388210085595,36.5388210085595 0 0,0 -0.4924780719721242,0.39125436509819284 l -9.560797268153284 -12.249331162693041" fill="#ffc212" stroke="none" /><path d="M 112.92097659922987 116.55440617244103 l 11.852309669067695 15.18522588725927 a40.263133954228856,40.263133954228856 0 0,0 -0.5500160205850675,0.421728830698328 l -11.589164919989134 -15.386994059784968" fill="#fff116" stroke="none" /><path d="M 112.63410532772338 116.77436683061366 l 18.718281906256223 24.85235946588074 a52.11292092593415,52.11292092593415 0 0,0 -0.7211808598316843,0.5335123591041403 l -18.287716076005974 -25.17088177372465" fill="#84ff25" stroke="none" /><path d="M 112.34349029814194 116.9893568818739 l 11.322431044750989 15.583989385776798 a40.26287024145532,40.26287024145532 0 0,0 -0.5642029721155563,0.40254384008643657 l -11.052500744786547 -15.776577487707453" fill="#fff116" stroke="none" /><path d="M 112.04921762599082 117.19931262002967 l 11.052660462033591 15.776805471544078 a40.26314860493849,40.26314860493849 0 0,0 -0.5710524578755567,0.39277508766112434 l -10.779451119535151 -15.964721348570297" fill="#fff116" stroke="none" /><path d="M 111.7513745106137 117.40417183066458 l 13.493893679980362 19.98489998416638 a45.11392531347286,45.11392531347286 0 0,0 -0.6473317683859509,0.4290161981637616 l -13.147887212854448 -20.21421420342146" fill="#d3ff1c" stroke="none" /><path d="M 111.45004920935366 117.60387380957326 l 13.311484716332291 20.46573712302887 a45.41397184691729,45.41397184691729 0 0,0 -0.6589744601468605,0.4205886787631987 l -12.9572284541385 -20.691840230615878" fill="#cfff1d" stroke="none" /><line stroke="#e1ed5e" stroke-width="0.3" x1="143.8653032363475" x2="146.44561519142675" y1="172.8068346515853" y2="177.08958963109032" /><path d="M 144.38136562736335 173.6633856474863 a86.0,86.0 0 0,1 -40.68145358897372,12.25698825130547" fill="none" id="id30" stroke="none" /><text fill="#e1ed5e" style="font-size:6.75px; font-family:Arial;" text-anchor="middle"><textPath startOffset="21.466115282336833" xlink:href="#id30">June</textPath></text><path d="M 109.89434966115114 118.52300852407294 l 11.504683494896181 21.53768137783097 a45.41781033284319,45.41781033284319 0 0,0 -0.6927494208064668,0.36241375560634187 l -11.132243171563218 -21.732524552382028" fill="#cfff1d" stroke="none" /><path d="M 109.2508944713604 118.85261126421891 l 6.530372305807238 13.30839637973949 a35.824276597956384,35.824276597956384 0 0,0 -0.5559370438728432,0.2668835652974841 l -6.300322593934163 -13.418834221536533" fill="#ffb811" stroke="none" /><path d="M 108.92500713936063 119.00905698771935 l 6.626320190139931 14.113164969666212 a36.59132915191228,36.59132915191228 0 0,0 -0.572448700181514,0.2627831214176229 l -6.3824034941909975 -14.225135161417908" fill="#ffc212" stroke="none" /><path d="M 106.91757812671514 119.82793768551818 l 4.926035199398657 14.1195541533734 a35.95418444034173,35.95418444034173 0 0,0 -0.5861050267374468,0.19883864711501276 l -4.682260439723983 -14.202255787386537" fill="#ffba11" stroke="none" /><path d="M 106.57524785965236 119.94407469862006 l 4.633787071016821 14.055226122950357 a35.79937039156696,35.79937039156696 0 0,0 -0.5869028135714233,0.1879077471255815 l -4.391162912354457 -14.132906716735645" fill="#ffb811" stroke="none" /><path d="M 106.2309692047433 120.05430185196036 l 4.569748558567677 14.707682540191966 a36.401250845032,36.401250845032 0 0,0 -0.5999706609116059,0.18076623849828843 l -4.315902923215826 -14.78416414779598" fill="#ffc011" stroke="none" /><path d="M 105.53697534728816 120.25689768951611 l 5.0767870941997035 18.573309489092647 a40.25465119334681,40.25465119334681 0 0,0 -0.6699707292078224,0.17694535885298654 l -4.756325922180384 -18.65794619724922" fill="#fff116" stroke="none" /><path d="M 105.18746579009965 120.34920634021253 l 3.656615982576042 14.344043150775054 a35.80278400691327,35.80278400691327 0 0,0 -0.5984976058416761,0.14709615014147856 l -3.409165091991155 -14.404860559230563" fill="#ffb811" stroke="none" /><path d="M 104.83641907484287 120.43548508189849 l 3.410696952233603 14.411333180119627 a35.809435429090215,35.809435429090215 0 0,0 -0.6010525928748415,0.13679761327907672 l -3.1621242099658993 -14.467907526976388" fill="#ffb811" stroke="none" /><path d="M 104.48393922423573 120.51570834832081 l 3.1604568618118885 14.460278782086647 a35.80162660085165,35.80162660085165 0 0,0 -0.6031867231475441,0.1264036425102248 l -2.911078677234966 -14.512538405323413" fill="#ffb811" stroke="none" /><path d="M 104.13013068566511 120.58985236759428 l 2.911617498549251 14.515224579722721 a35.80436628355449,35.80436628355449 0 0,0 -0.6053195033523233,0.11601092349003302 l -2.6613303806252233 -14.563192701561222" fill="#ffb811" stroke="none" /><path d="M 103.7750983002368 120.6578951692458 l 2.6618913604399985 14.56626246591808 a35.807486884707984,35.807486884707984 0 0,0 -0.6072796801423729,0.1055833565472165 l -2.4107627088255756 -14.609924400986301" fill="#ffb811" stroke="none" /><path d="M 103.41894727170886 120.7198165907248 l 2.3762650076679193 14.400858280925606 a35.595593671172495,35.595593671172495 0 0,0 -0.6054033082336409,0.09455154599822148 l -2.1280258358257615 -14.439628134270933" fill="#ffb510" stroke="none" /><path d="M 103.06178313531738 120.77559828337769 l 2.16242710950331 14.673056502896133 a35.831543349938244,35.831543349938244 0 0,0 -0.6109643432029782,0.08467409084815868 l -1.9095341751135015 -14.708105159236895" fill="#ffb911" stroke="none" /><path d="M 102.70371172650421 120.8252237178851 l 0.2866971252609308 2.20827232219504 a23.226805310440398,23.226805310440398 0 0,0 -0.39692683219245856,0.04806231162687614 l -0.24864287001709187 -2.212880162547267" fill="#ff0a01" stroke="none" /><path d="M 102.34483914955558 120.86867818915974 l 1.6538587821336488 14.719067916110191 a35.8116916383749,35.8116916383749 0 0,0 -0.6131769987414912,0.06355830304904136 l -1.400249186786555 -14.745355587614991" fill="#ffb811" stroke="none" /><path d="M 101.98527174616119 120.90594882070398 l 1.399257504968631 14.73491265990395 a35.80120173027206,35.80120173027206 0 0,0 -0.6140002968970872,0.052978529194791124 l -1.1454128903300023 -14.756815441377404" fill="#ffb811" stroke="none" /><path d="M 101.62511606390274 120.93702456842531 l 1.1460772776967052 14.765375011323568 a35.8097870461216,35.8097870461216 0 0,0 -0.6149687017813198,0.042411842207444324 l -0.891745815136455 -14.782915198047297" fill="#ffb811" stroke="none" /><path d="M 101.26447882468166 120.96189622390904 l 0.8912059287836106 14.773965232670156 a35.8008208118214,35.8008208118214 0 0,0 -0.6154534987456449,0.03181191592477959 l -0.636764361624486 -14.787116955357137" fill="#ffb811" stroke="none" /><path d="M 100.90346689309514 120.98055641714683 l 0.637176581907964 14.796689648036747 a35.810402375926515,35.810402375926515 0 0,0 -0.6160747417506632,0.02121885977173065 l -0.38238148848264847 -14.805465306234572" fill="#ffb811" stroke="none" /><line stroke="#e1ed5e" stroke-width="0.3" x1="102.19456741930631" x2="102.32365962044197" y1="184.97166512339345" y2="189.96999836594603" /><path d="M 102.22038585953345 185.97133177190398 a86.0,86.0 0 0,1 -42.740103519485714,-10.115201625700543" fill="none" id="id31" stroke="none" /><text fill="#e1ed5e" style="font-size:6.75px; font-family:Arial;" text-anchor="middle"><textPath startOffset="22.20632615414155" xlink:href="#id31">July</textPath></text><path d="M 100.54218724476979 120.99299961872073 l 0.30608259400908683 11.851241137290184 a32.85519308356277,32.85519308356277 0 0,0 -0.5654852941313904,0.009735342164765034 l -0.1020376099850285 -11.85475395673411" fill="#ff910d" stroke="none" /><path d="M 99.81925306533755 120.99922214144158 l -0.10194051405355258 11.84347332817059 a32.84391203713932,32.84391203713932 0 0,0 -0.5652911310400748,-0.00973199947106576 l 0.30579133498629535 -11.839963851420364" fill="#ff910d" stroke="none" /><path d="M 99.45781275523022 120.99299961872073 l -0.3058771996592456 11.843288453878085 a32.84723774822778,32.84723774822778 0 0,0 -0.5650970715304344,-0.019463085735581885 l 0.5096946228643231 -11.836268569716408" fill="#ff910d" stroke="none" /><path d="M 99.09653310690486 120.98055641714683 l -0.509896951168599 11.840967093187595 a32.8519406260225,32.8519406260225 0 0,0 -0.5647591686555122,-0.02919159811039285 l 0.7136441882376002 -11.830435688315001" fill="#ff910d" stroke="none" /><path d="M 98.73552117531835 120.96189622390904 l -0.7123165265365697 11.808426378032983 a32.82989130801303,32.82989130801303 0 0,0 -0.5637943507261725,-0.03888255934193831 l 0.9154736380416723 -11.79441547417476" fill="#ff910d" stroke="none" /><path d="M 93.42475214034765 119.94407469862007 l -5.564524374941978 16.878343168952828 a38.77195542556474,38.77195542556474 0 0,0 -0.632038755018074,-0.21442186167829533 l 5.854232862897279 -16.78005832037641" fill="#ffde14" stroke="none" /><path d="M 93.08242187328487 119.8279376855182 l -3.9035168623939724 11.188697501371138 a32.850079985898105,32.850079985898105 0 0,0 -0.5322971262357158,-0.19086281124349982 l 4.0955335492594145 -11.119847149087681" fill="#ff910d" stroke="none" /><path d="M 91.7346041902142 119.30500536409082 l -4.661377595680061 10.887309157308033 a32.843223453786194,32.843223453786194 0 0,0 -0.5177958220545007,-0.2269864717721611 l 4.848094092392304 -10.805458132241421" fill="#ff910d" stroke="none" /><path d="M 90.10565033884886 118.52300852407294 l -7.665217028061429 14.349895163613224 a37.26883656854334,37.26883656854334 0 0,0 -0.5632513597643557,-0.30712955077256743 l 7.911091199694425 -14.21582496108089" fill="#ffcb12" stroke="none" /><line stroke="#e1ed5e" stroke-width="0.3" x1="58.666819895761336" x2="56.23545636021788" y1="174.27360380694188" y2="178.64263932499728" /><path d="M 58.180547188652646 175.14741091055294 a86.0,86.0 0 0,1 -31.652253787137756,-30.449443065178592" fill="none" id="id32" stroke="none" /><text fill="#e1ed5e" style="font-size:6.75px; font-family:Arial;" text-anchor="middle"><textPath startOffset="22.20632615414155" xlink:href="#id32">August</textPath></text><path d="M 89.4739219176387 118.17145234162733 l -5.882343721244811 10.154848534402314 a32.735540737926016,32.735540737926016 0 0,0 -0.4851596208048496,-0.2866408556012362 l 6.056271213078043 -10.052089106507328" fill="#ff900d" stroke="none" /><path d="M 88.54995079064634 117.60387380957326 l -6.459888667235005 9.931753378753958 a32.8477798244845,32.8477798244845 0 0,0 -0.4713270072064855,-0.31236983970029614 l 6.6298903731814525 -9.819085517962344" fill="#ff910d" stroke="none" /><path d="M 88.24862548938628 117.40417183066458 l -6.627955555548251 9.816219989464479 a32.84432225700926,32.84432225700926 0 0,0 -0.46583120302273245,-0.3204029491147218 l 6.795943643193874 -9.700676250984657" fill="#ff910d" stroke="none" /><path d="M 87.95078237400918 117.19931262002967 l -6.797036445410489 9.70223614039315 a32.84622684926257,32.84622684926257 0 0,0 -0.460273664048292,-0.32839303827472127 l 6.963037437307668 -9.583798840274211" fill="#ff910d" stroke="none" /><path d="M 87.65650970185807 116.9893568818739 l -7.374898263814126 10.150676635628015 a33.54692633925509,33.54692633925509 0 0,0 -0.4642495709737553,-0.3434407339666534 l 7.548532805206446 -10.022225952921595" fill="#ff9b0e" stroke="none" /><path d="M 87.36589467227662 116.77436683061367 l -7.12549434206769 9.460555602700822 a32.84376553004291,32.84376553004291 0 0,0 -0.44866346565072385,-0.3440160134693277 l 7.2872865362119015 -9.336500247404127" fill="#ff910d" stroke="none" /><path d="M 86.79598089348748 116.32954008644616 l -8.190783142344674 10.129621941877941 a34.02682498425049,34.02682498425049 0 0,0 -0.45228110875648625,-0.37219656136546536 l 8.36393437964585 -9.987130261655295" fill="#ffa10e" stroke="none" /><path d="M 86.51685102203217 116.09983520530335 l -7.609001726835491 9.085687184729423 a32.85101763131512,32.85101763131512 0 0,0 -0.4304023371405047,-0.3667982090904374 l 7.764269540553052 -8.953364585416033" fill="#ff910d" stroke="none" /><path d="M 86.24171649860922 115.8653595955263 l -8.533359396959195 9.840240272482788 a34.02492039199718,34.02492039199718 0 0,0 -0.4391768982854961,-0.38752255051456513 l 8.701478648151278 -9.691894580195934" fill="#ffa10e" stroke="none" /><path d="M 85.97065885151581 115.62618273729859 l -8.906705248259751 9.92048039345032 a34.33211647174634,34.33211647174634 0 0,0 -0.43634558828883424,-0.3985913492478057 l 9.07615038601544 -9.76569627761594" fill="#ffa50f" stroke="none" /><path d="M 85.70375840098266 115.38237550388516 l -9.071851672373901 9.761070976136537 a34.325802015891135,34.325802015891135 0 0,0 -0.42934086406524086,-0.4059685850792411 l 9.23852837082996 -9.603467754311366" fill="#ffa50f" stroke="none" /><path d="M 85.44109423537348 115.13401014063109 l -10.261507022646168 10.666856002063566 a35.80136288807812,35.80136288807812 0 0,0 -0.44044208605459306,-0.43106528197534694 l 10.443599061076556 -10.48864061716565" fill="#ffb811" stroke="none" /><path d="M 85.18274418774928 114.88116024355367 l -13.587306558145363 13.64590641695451 a40.25683414908329,40.25683414908329 0 0,0 -0.4868381160830598,-0.4931644412902608 l 13.820185299283956 -13.410001481683585" fill="#fff116" stroke="none" /><path d="M 84.67929136418377 114.36230785411682 l -9.724910937932078 9.11656034094452 a34.329874913171295,34.329874913171295 0 0,0 -0.40043934157326766,-0.4345978175473049 l 9.880396687501076 -8.94781126859587" fill="#ffa50f" stroke="none" /><path d="M 84.43433777217949 114.09645910891817 l -9.105196386859463 8.245780145263083 a33.28403400545983,33.28403400545983 0 0,0 -0.38092966767695435,-0.42797851984274293 l 9.245784904184754 -8.087827455679477" fill="#ff970d" stroke="none" /><path d="M 83.95833913139862 113.55231037782056 l -11.310845337883702 9.555624440020296 a35.80693015774163,35.80693015774163 0 0,0 -0.39371254309310993,-0.4742521209852196 l 11.473653880870348 -9.359511061921316" fill="#ffb811" stroke="none" /><path d="M 83.72743513129214 113.27417163493432 l -9.343167996303942 7.6215898721325654 a33.05750473299314,33.05750473299314 0 0,0 -0.35589093772816216,-0.44402866554915765 l 9.472976846086965 -7.459633373005149" fill="#ff940d" stroke="none" /><path d="M 83.50135304334701 112.99209946851258 l -10.4746631321177 8.24842580541176 a34.33248273948736,34.33248273948736 0 0,0 -0.36162433952156847,-0.4674482062831598 l 10.615094288857335 -8.066899605015347" fill="#ffa50f" stroke="none" /><path d="M 83.06392112726016 112.41649034213515 l -11.934119364594027 8.749361581616084 a35.797788114925744,35.797788114925744 0 0,0 -0.3600579161013632,-0.5000889539095172 l 12.082957073070999 -8.542639022255427" fill="#ffb811" stroke="none" /><path d="M 82.85270091963577 112.12312394758628 l -6.650214745871728 4.701695425292394 a29.144402742891906,29.144402742891906 0 0,0 -0.28608574965338834,-0.412127859659169 l 6.7301614026872505 -4.586526303446212" fill="#ff5f08" stroke="none" /><path d="M 82.6465618267979 111.8261652097733 l -10.388919783176926 7.079927359677906 a33.571993703450566,33.571993703450566 0 0,0 -0.321326975217337,-0.4803402297334052 l 10.509249863804994 -6.90005021573868" fill="#ff9b0e" stroke="none" /><path d="M 82.44556493220864 111.52570212397912 l -12.243117187786112 8.03845417015437 a35.64618257156232,35.64618257156232 0 0,0 -0.3323499612707532,-0.515814520416872 l 12.37967201243391 -7.826518049816049" fill="#ffb610" stroke="none" /><path d="M 82.24976979558568 111.22182372390057 l -13.760283494704163 8.699350599411765 a37.27956088800044,37.27956088800044 0 0,0 -0.33824164603883533,-0.5453532318993212 l 13.907989780410954 -8.46120103614718" fill="#ffcb12" stroke="none" /><path d="M 82.05923443525364 110.91462005526583 l -13.381561417227074 8.140937915282484 a36.6633666912163,36.6633666912163 0 0,0 -0.32336936535722366,-0.5419856565098516 l 13.519711658282528 -7.9093901648865215" fill="#ffc312" stroke="none" /><line stroke="#e1ed5e" stroke-width="0.3" x1="26.63291911575756" x2="22.317208475507996" y1="142.92168965132927" y2="145.44649492493687" /><path d="M 25.769776987707644 143.4266507060508 a86.0,86.0 0 0,1 -11.730757126820373,-40.83630448921669" fill="none" id="id33" stroke="none" /><text fill="#e1ed5e" style="font-size:6.75px; font-family:Arial;" text-anchor="middle"><textPath startOffset="21.46611528233685" xlink:href="#id33">September</textPath></text><path d="M 81.69416730710424 110.29060199501025 l -11.350431662792277 6.380631609218589 a34.02093539897487,34.02093539897487 0 0,0 -0.2825739860051047,-0.5129538637618373 l 11.458582058248899 -6.1843072270589285" fill="#ffa10e" stroke="none" /><path d="M 81.51974371655577 109.97397251340807 l -13.034778830541423 7.034995823658748 a35.81204325540629,35.81204325540629 0 0,0 -0.28811213730203705,-0.5449995858816198 l 13.153943476068347 -6.809581222691001" fill="#ffb811" stroke="none" /><path d="M 81.35079622478065 109.6543875284942 l -11.838707858635244 6.128705272434613 a34.33101766852327,34.33101766852327 0 0,0 -0.26716288452291687,-0.5271377169131446 l 11.942449412944427 -5.924013343818783" fill="#ffa50f" stroke="none" /><path d="M 81.18737489456691 109.33194174019688 l -11.936832049333729 5.921226868797102 a34.324747164796996,34.324747164796996 0 0,0 -0.25800235988030307,-0.5315612791281553 l 12.03698766582875 -5.714876633703661" fill="#ffa50f" stroke="none" /><path d="M 80.73074385275274 108.34839909993369 l -15.237710229990387 6.601733112945046 a37.60634496653941,37.60634496653941 0 0,0 -0.25222937092765313,-0.596195725521295 l 15.349090582110348 -6.338462861757592" fill="#ffcf13" stroke="none" /><path d="M 80.58989483394504 108.01547362559985 l -9.186211692929517 3.7934795774637693 a30.938660501896102,30.938660501896102 0 0,0 -0.19903486438973228,-0.4939882106848853 l 9.250149171576638 -3.6347919989360786" fill="#ff770b" stroke="none" /><path d="M 80.45479744820244 107.68017299344265 l -29.19219796854788 11.470903402669173 a52.36504498814338,52.36504498814338 0 0,0 -0.3224333269671517,-0.8417716718913651 l 29.385325575108542 -10.96670816394465" fill="#81ff25" stroke="none" /><path d="M 80.20201598880116 107.00284435728193 l -18.149415435554786 6.419720886679522 a40.25134013296798,40.25134013296798 0 0,0 -0.2254250793552307,-0.6551907997469404 l 18.257231345853246 -6.106357383843284" fill="#fff116" stroke="none" /><path d="M 80.0844068197444 106.66101706037122 l -14.4100189981977 4.81960951494172 a36.19464653767686,36.19464653767686 0 0,0 -0.19253440428506607,-0.5925599664079949 l 14.490845653499015 -4.570850648555922" fill="#ffbd11" stroke="none" /><path d="M 79.76711848015287 105.62410040840567 l -14.259378592766236 3.9636557397185634 a35.80001502279116,35.80001502279116 0 0,0 -0.15992706077530458,-0.5951480874718242 l 14.325493729883316 -3.7176167190712004" fill="#ffb811" stroke="none" /><path d="M 79.67330655649465 105.27499134158121 l -12.901964875352958 3.348195966846597 a34.32933283691458,34.32933283691458 0 0,0 -0.1435108100419153,-0.5732543484746142 l 12.957686999689932 -3.1256137789745906" fill="#ffa50f" stroke="none" /><path d="M 79.50377843672027 104.57218783832718 l -14.585775498779734 3.2537170396112702 a35.94428056062452,35.94428056062452 0 0,0 -0.12951231147514533,-0.6050384023432853 l 14.63962184897932 -3.0021648178518214" fill="#ffba11" stroke="none" /><path d="M 79.35854240842038 103.8639653848113 l -14.544015604156439 2.7225583562248423 a35.79664535957376,35.79664535957376 0 0,0 -0.10816307144701554,-0.606635946196439 l 14.588725117942642 -2.47180365929519" fill="#ffb811" stroke="none" /><path d="M 79.23777060512086 103.15116336523772 l -30.975515629187154 4.70127307687476 a52.33024955274639,52.33024955274639 0 0,0 -0.12750127994783161,-0.8917436549926625 l 31.051850960151587 -4.167383949901698" fill="#81ff25" stroke="none" /><path d="M 79.1416061653843 102.43462659150553 l -14.702850187751164 1.7161412485469356 a35.80266680123614,35.80266680123614 0 0,0 -0.06617986311184208,-0.6127433397475177 l 14.730212352364058 -1.4628015869146358" fill="#ffb811" stroke="none" /><path d="M 79.10278846688536 102.07522291339032 l -14.741059127601458 1.463878739073113 a35.81356692920893,35.81356692920893 0 0,0 -0.055639622848734506,-0.6139786017607995 l 14.764073346727267 -1.2099187487637473" fill="#ffb811" stroke="none" /><path d="M 79.0235259727143 100.99374915477108 l -14.992368650308254 0.7102553868147921 a36.009183204333446,36.009183204333446 0 0,0 -0.024002464887191845,-0.6193969661831751 l 15.002373248046649 -0.45208117361762024" fill="#ffbb11" stroke="none" /><line stroke="#e1ed5e" stroke-width="0.3" x1="15.007084014347285" x2="10.007500721073583" y1="101.09737516637583" y2="101.16192664675087" /><path d="M 14.007167355692545 101.11028546245083 a86.0,86.0 0 0,1 10.666146001902534,-42.60595125391555" fill="none" id="id34" stroke="none" /><text fill="#e1ed5e" style="font-size:6.75px; font-family:Arial;" text-anchor="middle"><textPath startOffset="22.20632615414155" xlink:href="#id34">October</textPath></text><path d="M 79.00175016825051 100.2711162175752 l -20.71128588211989 0.2674111192347519 a41.713012132415436,41.713012132415436 0 0,0 -0.0030901450493996375,-0.7180408819734893 l 20.712820324458793 0.08913924094241273" fill="#fbff18" stroke="none" /><path d="M 79.00019446554 99.90962569577889 l -14.79776828809577 -0.06368335225140466 a35.79790532060287,35.79790532060287 0 0,0 0.007955646158664105,-0.616173562418193 l 14.79447963481939 0.3183931727300697" fill="#ffb811" stroke="none" /><path d="M 79.00486145842228 99.54816195383935 l -20.70777769157537 -0.44565373045580114 a41.71257261112621,41.71257261112621 0 0,0 0.02162758264909683,-0.7177141767667834 l 20.69703841447063 0.8020380546475789" fill="#fbff18" stroke="none" /><path d="M 79.01574976396665 99.18683210126434 l -17.675868311562372 -0.6849636528142314 a38.68913496396507,38.68913496396507 0 0,0 0.03151578570479169,-0.6652484252310091 l 17.66145891762408 0.9891231846682497" fill="#ffdd14" stroke="none" /><path d="M 79.05617556472873 98.46500227214037 l -14.769498337655198 -1.0824740467050098 a35.80911311347812,35.80911311347812 0 0,0 0.0503467880305456,-0.6143583377104098 l 14.748677065805156 1.3365463016231982" fill="#ffb811" stroke="none" /><path d="M 79.08570108090925 98.10471618934814 l -22.10641113170409 -2.0033147317832345 a43.1969971626459,43.1969971626459 0 0,0 0.07348194764506305,-0.7399531847378584 l 22.0686520583768 2.3835434472255232" fill="#e9ff1a" stroke="none" /><path d="M 79.16333360222342 97.38593545837743 l -14.827363848328313 -1.8601673291552645 a35.943591977271396,35.943591977271396 0 0,0 0.0823005576428549,-0.6132347488461048 l 14.793147291627625 2.1151204200660287" fill="#ffba11" stroke="none" /><path d="M 79.21141760316559 97.0276538004421 l -14.649275413216005 -2.0945496556504066 a35.79825693763425,35.79825693763425 0 0,0 0.09246878400058432,-0.6092537525869728 l 14.611050735776118 2.3464025206294714" fill="#ffb811" stroke="none" /><path d="M 79.26566170972629 96.67025291283419 l -14.629971439729006 -2.3494410144551368 a35.81742006584447,35.81742006584447 0 0,0 0.10299749156783612,-0.6078970255870859 l 14.587362086640947 2.600923828358051" fill="#ffb811" stroke="none" /><path d="M 79.32604984820605 96.31383870115002 l -14.378253952566457 -2.5636398886445155 a35.60501407747155,35.60501407747155 0 0,0 0.11277341602581935,-0.6024400978085407 l 14.331994812630777 2.8107580639156287" fill="#ffb610" stroke="none" /><path d="M 79.3925641242962 95.95851677861259 l -10.494802863455336 -2.0582167495389436 a31.694725023621363,31.694725023621363 0 0,0 0.10960444033314398,-0.5344701762891096 l 10.457819127207197 2.238562581991456" fill="#ff820b" stroke="none" /><path d="M 79.46518482838121 95.60439243477599 l -16.19976324074972 -3.467662175712869 a37.56674409838021,37.56674409838021 0 0,0 0.14079588679050484,-0.6311603531827987 l 16.13767296695718 3.7460006984456267" fill="#ffcf13" stroke="none" /><path d="M 79.54389044137918 95.25157060432595 l -14.426691254310345 -3.3488344710889177 a35.81027051953974,35.81027051953974 0 0,0 0.1445493501830515,-0.5992503770875424 l 14.366909103866478 3.596670079835857" fill="#ffb811" stroke="none" /><path d="M 79.62865764111835 94.90015583598534 l -14.447605548776721 -3.6168719539383165 a35.893457248880445,35.893457248880445 0 0,0 0.15520274190736433,-0.5980594757520149 l 14.38320647499905 3.8650278552391955" fill="#ffb911" stroke="none" /><path d="M 79.81627453868168 94.20196356495316 l -14.038806634471559 -4.0328289505938875 a35.606567052693485,35.606567052693485 0 0,0 0.17429262462445141,-0.5876280847286882 l 13.9673081127354 4.273886422069115" fill="#ffb610" stroke="none" /><path d="M 80.02781315780177 93.51064311812611 l -16.09275598674591 -5.228853386763762 a37.920925003947545,37.920925003947545 0 0,0 0.207053137315728,-0.6190625263532697 l 16.000365555658412 5.505089016039355" fill="#ffd313" stroke="none" /><path d="M 80.14247586403 93.16781622104843 l -21.543657482378325 -7.412315159862897 a43.78314275395668,43.78314275395668 0 0,0 0.25132966530732326,-0.710542808240522 l 21.41287473626119 7.78205559453003" fill="#e2ff1b" stroke="none" /><path d="M 80.2630227832202 92.82701384747504 l -14.086918986695629 -5.1195922107769825 a35.98837919664345,35.98837919664345 0 0,0 0.2166079046532959,-0.5804014937960816 l 13.996706493540707 5.361316841602405" fill="#ffbb11" stroke="none" /><path d="M 80.38941819471856 92.48833698450439 l -14.012002274246775 -5.367175757536861 a36.004758690021916,36.004758690021916 0 0,0 0.22666958732257766,-0.5768493757021802 l 13.917539137042507 5.607574138134805" fill="#ffbb11" stroke="none" /><path d="M 80.52162464483688 92.15188598940014 l -13.916642253546033 -5.607212771038926 a36.003791743185616,36.003791743185616 0 0,0 0.23655916430596768,-0.5728467800714961 l 13.818061402353866 5.845934121563733" fill="#ffbb11" stroke="none" /><path d="M 80.65960295795068 91.81776055985345 l -13.839703986563782 -5.855090335147355 a36.027291481449524,36.027291481449524 0 0,0 0.24654554690904504,-0.5690611144107015 l 13.736867729812056 6.092450594144656" fill="#ffbb11" stroke="none" /><path d="M 80.95270993114464 91.15688171328213 l -57.141870206566075 -26.529354860153617 a84.0,84.0 0 0,0 0.6201672246329939,-1.3062303374378712 l 56.676744788091334 27.50902761323202" fill="#4dd2ff" stroke="none" /><path d="M 81.10775173730289 90.83032412892265 l -13.560638472383348 -6.581887855144275 a36.0735584224953,36.0735584224953 0 0,0 0.27594552179590254,-0.5562893335165539 l 13.445332937634031 6.814336777159792" fill="#ffbc11" stroke="none" /><path d="M 81.26839172434947 90.50648371742162 l -13.44653520832754 -6.814946109590671 a36.07490628778226,36.07490628778226 0 0,0 0.2854909106982048,-0.5514775695371545 l 13.32723486446922 7.045396401388161" fill="#ffbc11" stroke="none" /><path d="M 81.43458229118936 90.18545643968196 l -13.343528752689203 -7.054010108777361 a36.09333688051044,36.09333688051044 0 0,0 0.29509207688394623,-0.5467608017465609 l 13.220128576586784 7.282651893856395" fill="#ffbc11" stroke="none" /><line stroke="#e1ed5e" stroke-width="0.3" x1="26.266209847984243" x2="21.928928074336255" y1="57.711370442889674" y2="55.22380399835377" /><path d="M 25.398753493254645 57.213857153982495 a86.0,86.0 0 0,1 29.58750427330803,-30.492523968695096" fill="none" id="id35" stroke="none" /><text fill="#e1ed5e" style="font-size:6.75px; font-family:Arial;" text-anchor="middle"><textPath startOffset="21.46611528233685" xlink:href="#id35">November</textPath></text><path d="M 81.78341655067845 89.55222093294921 l -13.107286372566538 -7.517437755005644 a36.11002403879136,36.11002403879136 0 0,0 0.3138826449012079,-0.5365271866904178 l 12.975944053195004 7.741944354049954" fill="#ffbc11" stroke="none" /><path d="M 81.96595687620814 89.24020034530311 l -12.327682193419937 -7.355166542381157 a35.355146224547006,35.355146224547006 0 0,0 0.3163177821368136,-0.519943263672207 l 12.199248612996907 7.566277579260438" fill="#ffb210" stroke="none" /><path d="M 82.34701348167596 88.62581576622439 l -13.687275439743026 -8.818994584767259 a37.282388474961124,37.282388474961124 0 0,0 0.35223577692025637,-0.5364792537571651 l 13.533443027464848 9.05329190250209" fill="#ffcb12" stroke="none" /><path d="M 82.54541684631803 88.32363383020206 l -13.538496581861033 -9.056672513260267 a37.28846851946207,37.28846851946207 0 0,0 0.3614771382497069,-0.5304230964453611 l 13.380594977942586 9.288373632976045" fill="#ffcb12" stroke="none" /><path d="M 82.7489923806493 88.02491185347247 l -12.15825045660913 -8.439861841005479 a35.80048384549966,35.80048384549966 0 0,0 0.35576710397480493,-0.5032073384043566 l 12.011170732830447 8.647895679741623" fill="#ffb811" stroke="none" /><path d="M 82.95767976084542 87.72973835380427 l -11.855916034185395 -8.536114200022723 a35.60917487900956,35.60917487900956 0 0,0 0.36242914329450754,-0.49435294414764913 l 11.707224278377254 8.738929587841874" fill="#ffb610" stroke="none" /><path d="M 83.39014120810768 87.1503855733568 l -11.70709686623665 -9.056770600598561 a35.80139218949739,35.80139218949739 0 0,0 0.3812778701064747,-0.48418417566129573 l 11.549464915536204 9.256947170212905" fill="#ffb811" stroke="none" /><path d="M 83.6137871275137 86.86637796730984 l -12.834717781865006 -10.287083022477889 a37.448527522288266,37.448527522288266 0 0,0 0.407478333731504,-0.4995202563743031 l 12.655740956057109 10.506487448460273" fill="#ffcd13" stroke="none" /><path d="M 85.31137513191541 84.99185889309783 l -14.980212380520669 -15.30607141494346 a42.416876175690376,42.416876175690376 0 0,0 0.5262050951135312,-0.5062088845874612 l 14.71452404179471 15.561663386293235" fill="#f3ff19" stroke="none" /><path d="M 85.57189188830299 84.74124197986013 l -11.411166582155012 -12.068126205919453 a37.60886488859763,37.60886488859763 0 0,0 0.4742157581869095,-0.44073186533438524 l 11.201742940173245 12.262762657328485" fill="#ffcf13" stroke="none" /><path d="M 86.10567301691215 84.25364557470407 l -9.795866401089528 -11.101594517111609 a35.8055529910354,35.8055529910354 0 0,0 0.46565326498730164,-0.4038099227735164 l 9.603319337455453 11.268569433304805" fill="#ffb811" stroke="none" /><path d="M 86.37877921826538 84.01681056812374 l -9.697559431768203 -11.379151098752766 a35.95084407854362,35.95084407854362 0 0,0 0.4744526417298362,-0.3973404429212137 l 9.500249253079257 11.544392699067792" fill="#ffba11" stroke="none" /><path d="M 86.93701828274178 83.55741782278169 l -9.211368286822944 -11.594495292036465 a35.808160817351464,35.808160817351464 0 0,0 0.4859123853600485,-0.3792623241880585 l 9.01042334630347 11.751336005447744" fill="#ffb811" stroke="none" /><path d="M 87.22198572758235 83.33499621200491 l -27.018103148202364 -35.23683584241638 a65.40284335391488,65.40284335391488 0 0,0 0.8993010749324021,-0.6773349251725607 l 26.407555919511573 35.696687357094795" fill="#36ff6c" stroke="none" /><path d="M 87.80319425747018 82.90503203632743 l -8.595784699268144 -12.047799002342472 a35.79989781711403,35.79989781711403 0 0,0 0.5047254737968743,-0.3535924492748331 l 8.38712808588761 12.193976294381248" fill="#ffb811" stroke="none" /><path d="M 88.09926311788651 82.69761687909137 l -8.390382698378284 -12.19870814861696 a35.80564089529324,35.80564089529324 0 0,0 0.5108191393330992,-0.3449073631252176 l 8.179158864638646 12.341327424040845" fill="#ffb811" stroke="none" /><path d="M 88.39885842347998 82.49532879139004 l -5.915031395198503 -8.925042339894809 a31.70719277752572,31.70719277752572 0 0,0 0.45753928244783754,-0.2975962765872067 l 5.760525086966378 9.02553754064155" fill="#ff820c" stroke="none" /><path d="M 89.00827224532344 82.1063720568725 l -5.960011012621257 -9.7024072991085 a32.386765944216144,32.386765944216144 0 0,0 0.4775319661361759,-0.2877076664554116 l 5.792116980267432 9.803561575022533" fill="#ff8b0c" stroke="none" /><line stroke="#e1ed5e" stroke-width="0.3" x1="56.762969772571076" x2="54.21961505331055" y1="26.818313649435495" y2="22.513508569990535" /><path d="M 56.25429882871897 25.957352633546506 a86.0,86.0 0 0,1 42.265352541879196,-11.944610805530505" fill="none" id="id36" stroke="none" /><text fill="#e1ed5e" style="font-size:6.75px; font-family:Arial;" text-anchor="middle"><textPath startOffset="22.20632615414155" xlink:href="#id36">December</textPath></text><path d="M 89.3179101791058 81.91981866633112 l -7.531653924352503 -12.74784906118051 a35.80653458858133,35.80653458858133 0 0,0 0.5333524294477034,-0.308952152653353 l 7.31110476243948 12.87560537122391" fill="#ffb811" stroke="none" /><path d="M 89.63071344664047 81.73862282372117 l -5.430265991996224 -9.563255382814642 a31.997437986220426,31.997437986220426 0 0,0 0.4812961843456242,-0.2678408055000193 l 5.264845718578554 9.655311585874847" fill="#ff860c" stroke="none" /><path d="M 89.94658935756843 81.56283822128135 l -7.157432915950671 -13.126167157118259 a35.95075617428577,35.95075617428577 0 0,0 0.5458607946297205,-0.29157993213473554 l 6.930427074792645 13.247425815754744" fill="#ffba11" stroke="none" /><path d="M 90.26544431104013 81.39251694778311 l -6.954074522145292 -13.29262761950441 a36.001769945255184,36.001769945255184 0 0,0 0.5515805670537097,-0.2825409899503645 l 6.724233467502819 13.41036113476728" fill="#ffbb11" stroke="none" /><path d="M 90.58718382345135 81.22770947309562 l -6.90190035012472 -13.76468807317039 a36.39814489458814,36.39814489458814 0 0,0 0.5624878021815058,-0.27601032167275985 l 6.663941280932788 13.881453554977979" fill="#ffc011" stroke="none" /><path d="M 90.91171255644093 81.06846463323043 l -6.53563553919792 -13.614183763777138 a36.10167313429608,36.10167313429608 0 0,0 0.5625359075276778,-0.26411815136725475 l 6.300321420370634 13.7246668977844" fill="#ffbc11" stroke="none" /><path d="M 91.56875222667455 80.76684994638697 l -6.0004314832993 -13.688033160387167 a35.94548191881507,35.94548191881507 0 0,0 0.5688222607465259,-0.2435400064292449 l 5.763925464762466 13.7892926947792" fill="#ffba11" stroke="none" /><path d="M 91.90106846888425 80.62456947434976 l -5.767338211283185 -13.797457158555662 a35.95433094743814,35.95433094743814 0 0,0 0.573071167917392,-0.23377011835359984 l 5.528983173777413 13.89468816309284" fill="#ffba11" stroke="none" /><path d="M 93.25333710446033 80.11325718540243 l -4.803662113211106 -14.159473282237286 a35.95211869028237,35.95211869028237 0 0,0 0.5877609487216033,-0.19377554378776435 l 4.559218342247094 14.240062550284286" fill="#ffba11" stroke="none" /><path d="M 93.59665428221793 80.00007090966166 l -4.513817047080304 -14.098258136784676 a35.8032235282025,35.8032235282025 0 0,0 0.5885617364782331,-0.18286899649551425 l 4.270469937891342 14.173867268162716" fill="#ffb811" stroke="none" /><path d="M 93.94186890950719 79.89281104454417 l -4.233044525138076 -14.04965076727735 a35.67349149433285,35.67349149433285 0 0,0 0.5894785960235155,-0.17208496674669055 l 3.9905757113911386 14.12043406294274" fill="#ffb610" stroke="none" /><path d="M 94.28887869178378 79.79150937346287 l -4.068167527520688 -14.394988463791167 a35.958799413878594,35.958799413878594 0 0,0 0.5970909169809636,-0.16320750285095859 l 3.8197787213160024 14.462882507468422" fill="#ffba11" stroke="none" /><path d="M 95.33964822691252 79.52364482259891 l -3.286203935088541 -14.438712405537316 a35.80795570741649,35.80795570741649 0 0,0 0.6021828614886947,-0.13161384959016997 l 3.037178349446325 14.493139753223355" fill="#ffb811" stroke="none" /><path d="M 95.692805502759 79.44645832069477 l -3.1264306755653455 -14.919043762442648 a36.24311108516876,36.24311108516876 0 0,0 0.6117036187617997,-0.12270199131474722 l 2.8691606473364093 14.970649709834605" fill="#ffbe11" stroke="none" /><path d="M 96.04723909329186 79.375362276772 l -2.2566165587680698 -11.774529272904848 a32.98882220619688,32.98882220619688 0 0,0 0.5586183869329917,-0.10208393961313567 l 2.053603050732185 11.81162869386872" fill="#ff930d" stroke="none" /><path d="M 96.40284397218896 79.31037775812273 l -2.5366192416310165 -14.58977410906456 a35.80864429076961,35.80864429076961 0 0,0 0.6081855993466216,-0.10035583502749434 l 2.285104436145509 14.63127620703168" fill="#ffb811" stroke="none" /><path d="M 96.75951476605007 79.25152402106235 l -2.272943949430274 -14.553413927685419 a35.72983812361153,35.72983812361153 0 0,0 0.6084808779650727,-0.08967426424523918 l 2.0220940910365526 14.590382676091627" fill="#ffb711" stroke="none" /><path d="M 97.83486435360386 79.11191278185805 l -1.311012023975798 -12.64795281830063 a33.71571716502722,33.71571716502722 0 0,0 0.5777828299917004,-0.05486744168547552 l 1.0931040668938614 12.668645804501285" fill="#ff9d0e" stroke="none" /><path d="M 98.19473922651362 79.07773832637324 l -1.2923457953548168 -14.97777900031946 a36.033430128789036,36.033430128789036 0 0,0 0.6184191299686866,-0.04800122668110668 l 1.034336476023796 14.99780548918903" fill="#ffbb11" stroke="none" /><path d="M 98.55514903715128 79.0497635885617 l -1.0633680101049556 -15.418760672821147 a36.45538521715491,36.45538521715491 0 0,0 0.626404119548594,-0.037786407126617655 l 0.7978018417167386 15.43478034932807" fill="#ffc111" stroke="none" /><path d="M 98.91598698831166 79.02799685794201 l -0.7659736831854217 -14.819012610816266 a35.83879545121046,35.83879545121046 0 0,0 0.6163575968251641,-0.026541654661940632 l 0.5107752539709335 14.8300019920024" fill="#ffb911" stroke="none" /><path d="M 99.27714615592234 79.0124445844662 l -0.3922635016140145 -11.389096212277959 a32.39584938419347,32.39584938419347 0 0,0 0.5574760522707571,-0.014397961715594668 l 0.19616081414837833 11.394160966135914" fill="#ff8b0c" stroke="none" /><path d="M 99.63851952072746 79.00311137660856 l -0.2971943413323046 -17.262775840661 a38.26533388618445,38.26533388618445 0 0,0 0.6586748206048361,-0.005669422132008064 l 4.228787175985224e-15 17.26533388618445" fill="#ffd814" stroke="none" /></svg>