<?xml version="1.0" encoding="utf-8" ?>
<svg baseProfile="full" height="200mm" version="1.1" viewBox="0,0,200,200" width="200mm" xmlns="http://www.w3.org/2000/svg" xmlns:ev="http://www.w3.org/2001/xml-events" xmlns:xlink="http://www.w3.org/1999/xlink"><defs /><rect fill="#1a1a1a" height="200" width="200" x="0" y="0" /><text alignment-baseline="middle" fill="#e1ed5e" style="dominant-baseline: central; font-size:9.0px; font-family:Arial;" text-anchor="middle" x="100.0" y="100.0">2020</text><line stroke="#e1ed5e" stroke-width="0.3" x1="100.0" x2="100.0" y1="15.0" y2="10.0" /><path d="M 100.0 14.0 a86.0,86.0 0 0,1 42.35913384403234,11.155469271406648" fill="none" id="id49" stroke="none" /><text fill="#e1ed5e" style="font-size:6.75px; font-family:Arial;" text-anchor="middle"><textPath startOffset="22.145653131862478" xlink:href="#id49">January</textPath></text><path d="M 100.0 79.0 l 0.0 -30.53977611903744 a51.53977611903744,51.53977611903744 0 0,0 0.8847487923431888,0.007594504293539476 l -0.5242558674943341 30.535276012938336" fill="#a9ff21" stroke="none" /><path d="M 100.36049292484886 79.00309439819443 l 0.40392729429518864 -23.52673987114939 a44.53020710116694,44.53020710116694 0 0,0 0.7641949409968138,0.01968295089400287 l -0.8077355493627439 23.51633920290534" fill="#fffb17" stroke="none" /><path d="M 100.72087961077811 79.0123766808444 l 0.8190494928970885 -23.845732324312557 a44.859794470082505,44.859794470082505 0 0,0 0.7693972548983228,0.033041228637966165 l -1.2282725083962476 23.828158527248757" fill="#feff18" stroke="none" /><path d="M 101.08105385017728 79.02784411241856 l 1.6397549470299415 -31.810807908325245 a52.8530421791495,52.8530421791495 0 0,0 0.9056888445308636,0.054483991863177664 l -2.1855881436932676 31.777971938637375" fill="#99ff23" stroke="none" /><path d="M 101.44090949804482 79.04949213459386 l 2.112907661472305 -30.721213678317802 a51.79378750096794,51.79378750096794 0 0,0 0.886490147898612,0.0686199440028861 l -2.6399668041461504 30.680415967319863" fill="#a6ff21" stroke="none" /><path d="M 101.80034050326958 79.07731436759882 l 1.723123793279511 -20.025310416014904 a41.09930876584369,41.09930876584369 0 0,0 0.7024076124112126,0.06651873118578296 l -2.0666309690757365 19.992779929323937" fill="#ffcd13" stroke="none" /><path d="M 102.51750503828377 79.15144685158666 l 2.395925493500233 -19.84170010834654 a40.985833036427664,40.985833036427664 0 0,0 0.697778299943046,0.09034137093587007 l -2.7361816153340706 19.797647141210273" fill="#ffcb12" stroke="none" /><path d="M 103.58742460773223 79.30868818359171 l 5.0992734697885576 -29.41125429454845 a50.85003298320262,50.85003298320262 0 0,0 0.8587971665202507,0.15650145177879315 l -5.603405369859861 29.319384668838293" fill="#b1ff20" stroke="none" /><path d="M 103.94208987418118 79.37332000966035 l 5.737362084070939 -30.020302802310123 a51.56363695678451,51.56363695678451 0 0,0 0.8679965182394836,0.17362361330816792 l -6.251855087841379 29.917389792339094" fill="#a9ff21" stroke="none" /><path d="M 104.29559338865022 79.4440306129975 l 5.487617844741342 -26.260237927109152 a47.82748675516038,47.82748675516038 0 0,0 0.8022208739913363,0.17484030568202577 l -5.937601135351812 26.162166163293406" fill="#d7ff1c" stroke="none" /><path d="M 104.9986988182912 79.60360301121754 l 7.2646002197724915 -29.642047947575374 a51.5192631444384,51.5192631444384 0 0,0 0.8571694209330856,0.21788911486624452 l -7.772374933930972 29.512973600873863" fill="#a9ff21" stroke="none" /><path d="M 105.3480935250658 79.69241777938227 l 5.741813675163426 -21.802601760299964 a43.54599449566439,43.54599449566439 0 0,0 0.7212431809708365,0.19657803619956637 l -6.115238257068956 21.700823229956256" fill="#ffee16" stroke="none" /><path d="M 106.04205211174951 79.88797359093562 l 8.78240998221777 -29.233786506758513 a51.52449833524696,51.52449833524696 0 0,0 0.8449020780158281,0.2617528235216618 l -9.282952693105228 29.078717095430203" fill="#a9ff21" stroke="none" /><path d="M 106.38641147887787 79.99465700312896 l 6.732481760911276 -21.089403226312825 a43.13795923528221,43.13795923528221 0 0,0 0.7035128658267972,0.2312586525383441 l -7.093517364385815 20.97072365237246" fill="#ffe915" stroke="none" /><path d="M 106.72888874123014 80.10723608172694 l 7.20620500002686 -21.303864623864563 a43.48964291433637,43.48964291433637 0 0,0 0.7051415422930859,0.24528483208601398 l -7.570852314364965 21.17702135920996" fill="#ffed16" stroke="none" /><path d="M 107.06938296918511 80.22567764915836 l 5.4949338182553324 -15.370307860297894 a37.32301018156092,37.32301018156092 0 0,0 0.6014529303982749,0.22086184703340017 l -5.757975900307732 15.273715164255773" fill="#ff970e" stroke="none" /><path d="M 107.40779381753099 80.34994680014964 l 8.290721696510596 -21.992124296986127 a44.502969968560976,44.502969968560976 0 0,0 0.7125301383260867,0.275621964395265 l -8.66702409733021 21.846562444452825" fill="#fffb17" stroke="none" /><path d="M 107.74402155503746 80.48000691201159 l 11.277326822260965 -28.42623048722329 a51.581508791569284,51.581508791569284 0 0,0 0.8202578450481274,0.3335917247029671 l -11.763639128499532 28.228451505941027" fill="#a8ff21" stroke="none" /><path d="M 108.07796709384702 80.6158196554323 l 11.725298826646391 -28.1364487387903 a51.48183689026515,51.48183689026515 0 0,0 0.8128367323147119,0.34695166676534855 l -12.206570634131532 27.93102242236555" fill="#aaff21" stroke="none" /><path d="M 108.4095320186766 80.7573450057729 l 10.715474529526555 -24.519102729280785 a47.75832193994901,47.75832193994901 0 0,0 0.7484106501210976,0.33475456440000884 l -11.134798582503285 24.33154441397092" fill="#d8ff1c" stroke="none" /><path d="M 109.06512990194946 81.05736502329252 l 9.611877014581019 -20.085126158981794 a43.26657747759286,43.26657747759286 0 0,0 0.667211317410816,0.32636648973111987 l -9.955248581253901 19.917165919153454" fill="#ffea16" stroke="none" /><path d="M 109.3889696526874 81.21577127319529 l 8.954427916138442 -17.914854165737506 a41.02807477230305,41.02807477230305 0 0,0 0.6272856168993508,0.32029650557578526 l -9.260640754751371 17.758499708488884" fill="#ffcc13" stroke="none" /><path d="M 109.71004243097381 81.37971332152246 l 9.317008665058674 -17.866592608890706 a41.149982181551586,41.149982181551586 0 0,0 0.6235421219215954,0.3320010587735588 l -9.622339602766829 17.704021082394572" fill="#ffcd13" stroke="none" /><path d="M 110.02825361518725 81.54914285379988 l 8.073742595245594 -14.854777010671548 a37.907090806258154,37.907090806258154 0 0,0 0.569068127941302,0.3156524977953027 l -8.327554911342997 14.7139915974431" fill="#ffa00e" stroke="none" /><path d="M 110.34350942703115 81.72400993836675 l 10.727258847156529 -18.954038516835563 a42.77911059872703,42.77911059872703 0 0,0 0.6359981212931278,0.36719368653268364 l -11.051049436310056 18.767097933026708" fill="#ffe415" stroke="none" /><line stroke="#e1ed5e" stroke-width="0.3" x1="143.13028292997686" x2="145.6673583964461" y1="26.7553504044142" y2="22.446841604673864" /><path d="M 143.63769802327073 25.89364864446614 a86.0,86.0 0 0,1 29.32050498858742,28.57503671076993" fill="none" id="id50" stroke="none" /><text fill="#e1ed5e" style="font-size:6.75px; font-family:Arial;" text-anchor="middle"><textPath startOffset="20.669276256404974" xlink:href="#id50">February</textPath></text><path d="M 110.65571695917076 81.90426304109057 l 15.502925381754325 -26.327356561435796 a51.55274781267994,51.55274781267994 0 0,0 0.7587269361121309,0.4555937251398008 l -15.95258507442389 26.057348835760074" fill="#a9ff21" stroke="none" /><path d="M 110.96478420261332 82.08984904055464 l 10.5152015598743 -17.17579149997846 a41.13894926493225,41.13894926493225 0 0,0 0.5991317328150652,0.3739025128679708 l -10.808497421479078 16.992753190268942" fill="#ffcd13" stroke="none" /><path d="M 111.27062007382361 82.28071324371311 l 11.57136408728321 -18.192106297698288 a42.560361740639266,42.560361740639266 0 0,0 0.6131009963277402,0.3974046585435474 l -11.881950715867958 17.990787797450846" fill="#ffe115" stroke="none" /><path d="M 111.5731344415666 82.4767994020092 l 11.998660356957432 -18.16750106928367 a42.77213690623971,42.77213690623971 0 0,0 0.6092049959371215,0.4099003092216323 l -12.308761640991555 17.95885108600492" fill="#ffe415" stroke="none" /><path d="M 111.8722381534696 82.67804972795209 l 9.245277480295819 -13.48913614221651 a37.35334673854,37.35334673854 0 0,0 0.5258015550952865,0.3670503212631615 l -9.475474126564867 13.328441005148223" fill="#ff980e" stroke="none" /><path d="M 112.45986205192187 83.09580414077388 l 13.262273078994014 -17.992820524949284 a43.35239310822995,43.35239310822995 0 0,0 0.5952634750630285,0.44669680910436255 l -13.569189542967809 17.762504688580908" fill="#ffec16" stroke="none" /><path d="M 112.7482090630111 83.31218511350987 l 18.52831476256969 -24.254158791097943 a51.52151153866157,51.52151153866157 0 0,0 0.6982147533935494,0.5429360153530046 l -18.941939460598462 23.932521724124147" fill="#a9ff21" stroke="none" /><path d="M 113.03279911837588 83.53348406188908 l 10.373251842349552 -13.106264835406556 a37.714620298428045,37.714620298428045 0 0,0 0.5042071711965508,0.40615360616301244 l -10.596709783901362 12.926262935450136" fill="#ff9d0e" stroke="none" /><path d="M 113.31354834802062 83.75963576809568 l 7.694969841353584 -9.386612021856738 a33.13758815037842,33.13758815037842 0 0,0 0.43682547161892765,0.3644153446607753 l -7.854969647134404 9.253134493284092" fill="#ff5908" stroke="none" /><path d="M 113.86319453409587 84.22622945171908 l 20.1687613176083 -22.948348050988784 a51.551687536958966,51.551687536958966 0 0,0 0.6597019698787805,0.5899095693898156 l -20.55972831431046 22.598742951715582" fill="#a9ff21" stroke="none" /><path d="M 114.13192950727249 84.46653392183569 l 14.532580408372203 -15.973851602180373 a42.595365899523074,42.595365899523074 0 0,0 0.5366412236667695,0.4967071050376852 l -14.804651403352938 15.722026751010313" fill="#ffe115" stroke="none" /><path d="M 114.65682725009322 84.96080404539774 l 16.41886630370826 -16.847203250779547 a44.524613239586394,44.524613239586394 0 0,0 0.5427933686867886,0.5381541370021292 l -16.70565159252501 16.562869103548756" fill="#fffb17" stroke="none" /><path d="M 114.91283532996326 85.21462403516908 l 21.679056610227867 -21.493766641481574 a51.52807723961551,51.52807723961551 0 0,0 0.6173878259432242,0.6334942983166376 l -22.044831237321905 21.118449651097194" fill="#a9ff21" stroke="none" /><path d="M 115.16444852881244 85.47280134310134 l 18.581595384934122 -17.8007480460741 a46.732126185941496,46.732126185941496 0 0,0 0.5499796363788764,0.5840593148786595 l -18.88443085504926 17.479147271250948" fill="#e6ff1a" stroke="none" /><path d="M 115.41159269507618 85.73525988315684 l 17.264217025158338 -15.979501538691906 a44.52440560177502,44.52440560177502 0 0,0 0.5143677698875909,0.5653802830772814 l -17.535982495887808 15.680783680056953" fill="#fffb17" stroke="none" /><path d="M 115.6541949942343 86.00192230759917 l 12.426508968677512 -11.11186094544824 a37.670080348324674,37.670080348324674 0 0,0 0.4269077306043909,0.48574263105658244 l -12.615427763240492 10.89690603658036" fill="#ff9c0e" stroke="none" /><path d="M 115.8921839302757 86.27271002978787 l 9.377681110675638 -8.100217592447162 a33.39170803636501,33.39170803636501 0 0,0 0.37097461993653374,0.43700716948282603 l -9.515350294119285 7.938043640514784" fill="#ff5d08" stroke="none" /><path d="M 116.57777611688842 87.10902102172516 l 17.904549412013317 -13.922685917480509 a43.680698243308925,43.680698243308925 0 0,0 0.455211163730065,0.5958860257973215 l -18.14091255309769 13.613278978442306" fill="#fff016" stroke="none" /><path d="M 116.7966241395341 87.39550010848427 l 24.365721351491267 -18.284491549031763 a51.46327310361005,51.46327310361005 0 0,0 0.5241852467842004,0.7111579599543065 l -24.676008617859296 17.86352727980858" fill="#aaff21" stroke="none" /><path d="M 117.21940702142032 87.97951657250589 l 20.822883609953966 -14.535989946385778 a46.39463497581956,46.39463497581956 0 0,0 0.45027156022755765,0.6569596629006175 l -21.06934490699685 14.17639554841511" fill="#eaff1a" stroke="none" /><path d="M 117.42321728460499 88.27688183743584 l 20.43103611227274 -13.746912904508319 a45.62528885160802,45.62528885160802 0 0,0 0.43164904104748775,0.6535716639598245 l -20.66400959224095 13.394161362209436" fill="#f4ff19" stroke="none" /><path d="M 117.62189284568427 88.57770195909679 l 20.50996646420873 -13.294312467715224 a45.44171574076205,45.44171574076205 0 0,0 0.4186746694287035,0.6582261203561314 l -20.735158825263326 12.940272672680422" fill="#f6ff19" stroke="none" /><path d="M 117.81537515405839 88.88188828441811 l 19.22543634546878 -11.998094186696793 a43.66211964460781,43.66211964460781 0 0,0 0.3913623646141092,0.639261010573612 l -19.428566674538292 11.666296059998626" fill="#fff016" stroke="none" /><line stroke="#e1ed5e" stroke-width="0.3" x1="172.87174338648825" x2="177.1583165268699" y1="56.24261187166439" y2="53.66864786411523" /><path d="M 173.72905801456457 55.72781907015455 a86.0,86.0 0 0,1 12.242430191666344,42.057860355516425" fill="none" id="id51" stroke="none" /><text fill="#e1ed5e" style="font-size:6.75px; font-family:Arial;" text-anchor="middle"><textPath startOffset="22.145653131862474" xlink:href="#id51">March</textPath></text><path d="M 118.00360718960297 89.18935116829356 l 14.271856644087771 -8.569839851026641 a37.647163336185436,37.647163336185436 0 0,0 0.3279359958679542,0.5569070146403647 l -14.416866350085494 8.32358166809272" fill="#ff9c0e" stroke="none" /><path d="M 118.18653347947321 89.5 l 12.943118648072288 -7.472713035617803 a35.9454260712356,35.9454260712356 0 0,0 0.30393849287343844,0.537030194083468 l -13.069490505967103 7.249426071435217" fill="#ff830c" stroke="none" /><path d="M 118.36410011445183 89.81374322990088 l 17.237109633372086 -9.561134147907485 a40.711246401665505,40.711246401665505 0 0,0 0.3337443043334486,0.6140519295691428 l -17.398699287320877 9.263827384863738" fill="#ffc712" stroke="none" /><path d="M 118.53625476483649 90.13048839642627 l 18.173244721692157 -9.676229202221357 a41.58874049786517,41.58874049786517 0 0,0 0.33011940297567,0.6330474830807001 l -18.33667219364277 9.36283547603616" fill="#ffd413" stroke="none" /><path d="M 118.70294669586156 90.45014215332178 l 17.626420652808076 -9.000175978543373 a40.79125748087999,40.79125748087999 0 0,0 0.3130827819509819,0.626375289743138 l -17.778323347970794 8.696268832636486" fill="#ffc812" stroke="none" /><path d="M 118.8641267826498 90.77261029715802 l 14.932607537777443 -7.304286629233151 a37.62333814368468,37.62333814368468 0 0,0 0.27880818094977894,0.5826018664239702 l -15.055794976687135 7.0468722607440775" fill="#ff9c0e" stroke="none" /><path d="M 119.0197475246899 91.09779779509293 l 15.195122522206727 -7.1120845871074385 a37.777171860568316,37.777171860568316 0 0,0 0.2698648882345642,0.589703483650652 l -15.314971875296344 6.850192121242102" fill="#ff9e0e" stroke="none" /><path d="M 119.16976305983485 91.42560881287824 l 14.931502932842939 -6.67867134081073 a37.35709114457897,37.35709114457897 0 0,0 0.2568142013181467,0.5876411508521507 l -15.043951016178056 6.42136812018273" fill="#ff980e" stroke="none" /><path d="M 119.31412917781788 91.75594674310238 l 15.772856649604977 -6.732494591684518 a38.149620704728406,38.149620704728406 0 0,0 0.25192221107055746,0.6045215975085496 l -15.886104705212016 6.460740484734691" fill="#ffa30f" stroke="none" /><path d="M 119.4528033332814 92.08871423366111 l 12.228842050482767 -4.973363601906687 a34.20147428935215,34.20147428935215 0 0,0 0.21651377667326202,0.5457561544837287 l -12.312414502122154 4.762706430209393" fill="#ff6909" stroke="none" /><path d="M 119.71291397450082 92.76114493625339 l 21.31818789767212 -7.828333883695812 a43.71008469017837,43.71008469017837 0 0,0 0.2526023069221375,0.7065736098069153 l -21.4494303746382 7.461225317507981" fill="#fff016" stroke="none" /><path d="M 119.83427380445688 93.10060997987247 l 17.463483695242214 -6.074706153171066 a39.48987067616659,39.48987067616659 0 0,0 0.21722170301520047,0.642177367197276 l -17.56519081982978 5.7740271114996276" fill="#ffb610" stroke="none" /><path d="M 119.94978838288452 93.4421083053983 l 15.846842553192683 -5.209171905522586 a37.68106384038393,37.68106384038393 0 0,0 0.19672257828360995,0.6162306745828375 l -15.93392984725355 4.936372197248362" fill="#ff9c0e" stroke="none" /><path d="M 120.05942366710727 93.78553927170692 l 16.4933672787463 -5.109687343567828 a38.26673301295403,38.26673301295403 0 0,0 0.18900792235915587,0.6291459020384039 l -16.578651521109084 4.8258038379387" fill="#ffa50f" stroke="none" /><path d="M 120.16314734710363 94.1308016681162 l 15.636729206498686 -4.5516239798785145 a37.285717089878915,37.285717089878915 0 0,0 0.1736120781489946,0.6160880181800946 l -15.712559776722262 4.282528037795407" fill="#ff970d" stroke="none" /><path d="M 120.26092885502905 94.47779374421319 l 16.174970470846898 -4.408560128728097 a37.76499544113807,37.76499544113807 0 0,0 0.16510589708847048,0.6269339839549103 l -16.2482658487401 4.130245640400388" fill="#ff9e0e" stroke="none" /><path d="M 120.35273937422433 94.82641323984039 l 17.410385821864267 -4.425651993133748 a38.9640733139926,38.9640733139926 0 0,0 0.15921921467020358,0.649668729544651 l -17.483792563050763 4.126127438981001" fill="#ffaf10" stroke="none" /><path d="M 120.43855184770803 95.1765574152323 l 15.108723136344087 -3.5656175212569887 a36.523760598469494,36.523760598469494 0 0,0 0.13877139956313958,0.6114523915167845 l -15.167705397464893 3.305730795801178" fill="#ff8c0c" stroke="none" /><path d="M 120.51834098615036 95.52812308129327 l 61.555022958451104 -13.415630756120196 a84.0,84.0 0 0,0 0.29496915670253276,1.4115341948583824 l -61.776249825978 12.35698010997641" fill="#4dd2ff" stroke="none" /><path d="M 120.592083275326 95.88100663000786 l 16.432781325845095 -3.2870164920511162 a37.75830479261131,37.75830479261131 0 0,0 0.12167830868840057,0.6366723274168559 l -16.48678592681565 3.004441599600946" fill="#ff9e0e" stroke="none" /><path d="M 120.65975698304385 96.23510406497455 l 16.175921160924972 -2.9477916838054687 a37.442320432821305,37.442320432821305 0 0,0 0.10980438749378782,0.6333225276837037 l -16.224140365910994 2.6696761232011723" fill="#ff990e" stroke="none" /><path d="M 120.7213421655516 96.59031103205396 l 17.224217217992127 -2.8342383886372478 a38.45584618447933,38.45584618447933 0 0,0 0.10159395070834766,0.6523060421303919 l -17.27033266083874 2.5381441645754146" fill="#ffa80f" stroke="none" /><path d="M 120.77682067341334 96.94652285012252 l 19.334021250677925 -2.8414353202622107 a40.54170239259874,40.54170239259874 0 0,0 0.09528358672673368,0.6894245680890272 l -19.379949353959873 2.5091224439730975" fill="#ffc512" stroke="none" /><path d="M 120.82617615685814 97.30363454192243 l 15.700444611716133 -2.0327368888383632 a36.83148698842943,36.83148698842943 0 0,0 0.07579904893306018,0.6277248610224732 l -15.733025746908856 1.762918350892477" fill="#ff900d" stroke="none" /><path d="M 120.86939407059847 97.66154086499901 l 16.58188717746085 -1.858035044741336 a37.685660807817214,37.685660807817214 0 0,0 0.06651987066158228,0.6435194066886963 l -16.611339440604098 1.5731111157697084" fill="#ff9c0e" stroke="none" /><path d="M 120.9064616781168 98.02013634271609 l 30.1421672164241 -2.8544945740884606 a51.277027327271945,51.277027327271945 0 0,0 0.07546605492928202,0.8770299509094807 l -30.186726894051123 2.336643575803318" fill="#acff20" stroke="none" /><path d="M 120.93736805541906 98.37931529534042 l 19.566493248804132 -1.5145703246093623 a40.625024364919526,40.625024364919526 0 0,0 0.04785248477908504,0.6957646265111287 l -19.589609694748287 1.1784622739438992" fill="#ffc612" stroke="none" /><path d="M 120.96210409425399 98.7389718711861 l 23.270724051351152 -1.399908972623798 a44.312793547873355,44.312793547873355 0 0,0 0.03916071499940816,0.7597074091194298 l -23.291326355807133 1.0002297701276377" fill="#fff917" stroke="none" /><path d="M 120.98066250479742 99.09900007780936 l 21.134352210889197 -0.9076000194563277 a42.153831359099804,42.153831359099804 0 0,0 0.024841278921473274,0.7232267315859147 l -21.146818176807518 0.5446670233062931" fill="#ffdb14" stroke="none" /><path d="M 120.99303781780057 99.45929381324524 l 19.674711667463928 -0.5067507815468891 a40.68123663676751,40.68123663676751 0 0,0 0.011988505503689966,0.6982703432340502 l -19.680511604566284 0.16893352234377257" fill="#ffc712" stroke="none" /><line stroke="#e1ed5e" stroke-width="0.3" x1="184.99686870605535" x2="189.99668451229388" y1="99.2704041080226" y2="99.22748670261217" /><path d="M 185.99683186730306 99.26182062694052 a86.0,86.0 0 0,1 -10.086455211305974,41.156179273409016" fill="none" id="id52" stroke="none" /><text fill="#e1ed5e" style="font-size:6.75px; font-family:Arial;" text-anchor="middle"><textPath startOffset="21.40746469413373" xlink:href="#id52">April</textPath></text><path d="M 120.99303781780057 100.54070618675476 l 16.21909736695284 0.41774641507352617 a37.22447630791217,37.22447630791217 0 0,0 -0.021936406937567182,0.6386545532677351 l -16.209536273018426 -0.6961072329053719" fill="#ff960d" stroke="none" /><path d="M 120.98066250479742 100.90099992219065 l 16.610497988793114 0.7133262542128169 a37.62580758281081,37.62580758281081 0 0,0 -0.03325119924522876,0.6450643822281706 l -16.595805200091313 -0.9983624298177183" fill="#ff9c0e" stroke="none" /><path d="M 120.96210409425399 101.26102812881392 l 16.970975780539238 1.0209317603067296 a38.001656407622534,38.001656407622534 0 0,0 -0.04476240231860792,0.6508355057156511 l -16.95094941705556 -1.312110690176724" fill="#ffa10e" stroke="none" /><path d="M 120.93736805541906 101.62068470465957 l 17.764858213958668 1.375112378576013 a38.81799992748254,38.81799992748254 0 0,0 -0.057129702470373606,0.6639337408059518 l -17.738634888790553 -1.6798671667576222" fill="#ffad10" stroke="none" /><path d="M 120.86939407059847 102.33845913500097 l 16.47401961605157 1.8459482594952223 a37.57711818401454,37.57711818401454 0 0,0 -0.07733355487081736,0.6404327714788174 l -16.43990397492109 -2.1284747078974484" fill="#ff9b0e" stroke="none" /><path d="M 120.82617615685814 102.69636545807757 l 16.598318511546335 2.1489846412330986 a37.73685491360302,37.73685491360302 0 0,0 -0.08869146275936991,0.6417272429240337 l -16.558982532231756 -2.4336001923572175" fill="#ff9d0e" stroke="none" /><path d="M 120.77682067341334 103.0534771498775 l 34.46535879879258 5.0652208636092935 a55.835576922546466,55.835576922546466 0 0,0 -0.14750830920294583,0.9471091604041247 l -34.37332899745137 -5.6561182059448685" fill="#76ff27" stroke="none" /><path d="M 120.7213421655516 103.40968896794604 l 29.41077603044394 4.839532003696678 a50.80628820782186,50.80628820782186 0 0,0 -0.14899593008670725,0.8593689306125188 l -29.323365282864998 -5.343693967229785" fill="#b2ff20" stroke="none" /><path d="M 120.65975698304385 103.76489593502545 l 16.16609266331382 2.946000604136233 a37.432330070882216,37.432330070882216 0 0,0 -0.12062783640069641,0.6311758125202724 l -16.113138534630963 -3.22307898168982" fill="#ff990e" stroke="none" /><path d="M 120.592083275326 104.11899336999214 l 16.021201253954143 3.2046889507007417 a37.33857156823831,37.33857156823831 0 0,0 -0.1311157972376282,0.6274365542349363 l -15.96382774589215 -3.4792419562210872" fill="#ff970e" stroke="none" /><path d="M 120.51834098615036 104.47187691870673 l 14.21359601232032 3.097787096053253 a35.54725391590874,35.54725391590874 0 0,0 -0.1350611792353005,0.5951044761707307 l -14.158323971527356 -3.341325906163001" fill="#ff7d0b" stroke="none" /><path d="M 120.43855184770803 104.8234425847677 l 20.481301612214523 4.833531412789666 a42.04392410290737,42.04392410290737 0 0,0 -0.17180443439198131,0.7010207207262927 l -20.395309651306246 -5.1844079581240585" fill="#ffda14" stroke="none" /><path d="M 120.35273937422433 105.17358676015961 l 20.886962456025547 5.309384178490368 a42.55121251795881,42.55121251795881 0 0,0 -0.18603090065057423,0.7063896307779267 l -20.792742074570242 -5.667154313641098" fill="#ffe115" stroke="none" /><path d="M 120.26092885502905 105.52220625578681 l 31.079253525044503 8.470788751552464 a53.21295177017187,53.21295177017187 0 0,0 -0.24777346025000324,0.8792606004752865 l -30.92926157271992 -9.00305727593076" fill="#95ff23" stroke="none" /><path d="M 120.16314734710363 105.8691983318838 l 18.847400345419736 5.486203555595879 a40.62964414435373,40.62964414435373 0 0,0 -0.20067886702834992,0.6679946810731285 l -18.750445158387755 -5.808935840259732" fill="#ffc612" stroke="none" /><path d="M 120.05942366710727 106.21446072829308 l 19.487386842748823 6.037242257857044 a41.40114065534069,41.40114065534069 0 0,0 -0.2161440868044822,0.6770682734067904 l -19.380878040167087 -6.370879564955218" fill="#ffd113" stroke="none" /><path d="M 119.94978838288452 106.5578916946017 l 18.795767018799985 6.178541950450236 a40.78522778384122,40.78522778384122 0 0,0 -0.22434706635835647,0.663242237827225 l -18.686934530869262 -6.500285862751621" fill="#ffc812" stroke="none" /><path d="M 119.83427380445688 106.89939002012753 l 18.774408470802737 6.5307138398052915 a40.8778428579656,40.8778428579656 0 0,0 -0.23623466943871974,0.6607904147063395 l -18.659533631320073 -6.852039210892553" fill="#ffca12" stroke="none" /><path d="M 119.71291397450082 107.23885506374661 l 15.375800004596346 5.646206738709506 a37.37970928672404,37.37970928672404 0 0,0 -0.22635962234322377,0.6004457914063328 l -15.276609698438682 -5.909320810309998" fill="#ff980e" stroke="none" /><path d="M 119.58574465831526 107.57618678355244 l 18.387858577747924 7.112818714065096 a40.71561647868036,40.71561647868036 0 0,0 -0.2577518097260412,0.6497029364537349 l -18.263048093055758 -7.427422667732396" fill="#ffc712" stroke="none" /><path d="M 119.4528033332814 107.91128576633889 l 19.82049781660391 8.060823911686498 a42.396939403410414,42.396939403410414 0 0,0 -0.2799695126669399,0.6718249110782425 l -19.679202459400486 -8.399881332206018" fill="#ffdf14" stroke="none" /><path d="M 119.16976305983485 108.57439118712176 l 12.217710428833657 5.464826471814487 a34.384198761594774,34.384198761594774 0 0,0 -0.24562685608336943,0.5367390091319437 l -12.122099107895231 -5.67375446316112" fill="#ff6c0a" stroke="none" /><path d="M 119.0197475246899 108.90220220490707 l 19.420508498936577 9.089778576462386 a42.44248644458899,42.44248644458899 0 0,0 -0.31452053497777693,0.6572269510976978 l -19.26160870599889 -9.421818029625188" fill="#ffdf14" stroke="none" /><path d="M 118.8641267826498 109.22738970284198 l 15.505689709317059 7.584609836847011 a38.261307011313406,38.261307011313406 0 0,0 -0.2936647992721928,0.587526316794633 l -15.373204996833133 -7.84966800980539" fill="#ffa50f" stroke="none" /><path d="M 118.70294669586154 109.54985784667822 l 14.817151031887448 7.565742893262759 a37.63695976519506,37.63695976519506 0 0,0 -0.2987513095796431,0.5728950279556795 l -14.685091653332856 -7.818984164322941" fill="#ff9c0e" stroke="none" /><line stroke="#e1ed5e" stroke-width="0.3" x1="174.33088141563837" x2="178.70328620479359" y1="141.23008692659167" y2="143.65538615756765" /><path d="M 175.20536237346943 141.71514677278685 a86.0,86.0 0 0,1 -30.301960400862466,31.631185727798858" fill="none" id="id53" stroke="none" /><text fill="#e1ed5e" style="font-size:6.75px; font-family:Arial;" text-anchor="middle"><textPath startOffset="22.145653131862474" xlink:href="#id53">May</textPath></text><path d="M 118.36410011445183 110.18625677009912 l 18.354684288422987 10.18103397012337 a41.98923266888258,41.98923266888258 0 0,0 -0.35504222620704234,0.6273255942187931 l -18.17720869719457 -10.494616334441284" fill="#ffd914" stroke="none" /><path d="M 118.18653347947321 110.5 l 20.419170500087866 11.789013584854589 a44.57802716970919,44.57802716970919 0 0,0 -0.38830919618521037,0.6594339076213604 l -20.21378759377289 -12.137798660769498" fill="#fffc17" stroke="none" /><path d="M 118.00360718960297 110.81064883170644 l 13.943405242080303 8.372614221296454 a37.26404681017391,37.26404681017391 0 0,0 -0.3340136849384819,0.5455862522440749 l -13.797623592686417 -8.610737589665085" fill="#ff960d" stroke="none" /><path d="M 117.81537515405839 111.11811171558189 l 18.252036240480294 11.390620528823478 a42.51471735708979,42.51471735708979 0 0,0 -0.3917069359105989,0.6158283640441918 l -18.053811612943804 -11.702262567546342" fill="#ffe015" stroke="none" /><path d="M 117.62189284568427 111.42229804090321 l 13.936172662704923 9.033258747903945 a37.60772928763313,37.60772928763313 0 0,0 -0.35579698653037767,0.5387219856998788 l -13.779051237253817 -9.271160611942884" fill="#ff9b0e" stroke="none" /><path d="M 117.21940702142032 112.02048342749411 l 13.881166501211363 9.69013228356423 a37.92883478291776,37.92883478291776 0 0,0 -0.3772743293572942,0.5306835915997107 l -13.712777073324109 -9.926993101873444" fill="#ffa00e" stroke="none" /><path d="M 117.01052211995028 112.31430620078461 l 14.130431129681883 10.229342430114077 a38.444441248237645,38.444441248237645 0 0,0 -0.391580397201248,0.5312540139962805 l -13.952748712896806 -10.470402753379235" fill="#ffa70f" stroke="none" /><path d="M 116.79662413953412 112.60449989151573 l 15.74988493084317 11.819007275095478 a40.69131301624045,40.69131301624045 0 0,0 -0.42405778059339416,0.5551052472343889 l -15.54467517289547 -12.087633435570744" fill="#ffc712" stroke="none" /><path d="M 116.35404254752997 113.17365903436017 l 15.365363626451394 12.377249280447952 a40.73045106234079,40.73045106234079 0 0,0 -0.4432892449592099,0.540740801027229 l -15.150627562253558 -12.639192363173674" fill="#ffc812" stroke="none" /><path d="M 116.1254893667686 113.45245675266167 l 18.339833195859242 15.299741130756454 a44.88370909888373,44.88370909888373 0 0,0 -0.49864825441594113,0.5874063898687774 l -18.074490377936186 -15.612314303074788" fill="#feff18" stroke="none" /><path d="M 115.89218393027572 113.72728997021213 l 14.730901913326738 12.724202222562647 a40.465476962579714,40.465476962579714 0 0,0 -0.4585874194634626,0.5217883016179311 l -14.51030342990469 -12.975202801991871" fill="#ffc412" stroke="none" /><path d="M 115.6541949942343 113.99807769240083 l 14.891739274226879 13.316285086034908 a40.977170648119994,40.977170648119994 0 0,0 -0.4733883720108832,0.52033674627689 l -14.660953201374115 -13.56995940786947" fill="#ffcb12" stroke="none" /><path d="M 115.41159269507618 114.26474011684316 l 15.90637499237406 14.722703224551276 a42.674195616821294,42.674195616821294 0 0,0 -0.502222785556907,0.5333431942682788 l -15.651296373080893 -14.993587878764052" fill="#ffe215" stroke="none" /><path d="M 115.16444852881244 114.52719865689866 l 15.011872876280572 14.38103463317402 a41.78871050291862,41.78871050291862 0 0,0 -0.500694815496296,0.5137569895049618 l -14.762791259633468 -14.636614314746717" fill="#ffd614" stroke="none" /><path d="M 114.91283532996324 114.78537596483092 l 14.189448801890146 14.068172190444384 a40.98133944663006,40.98133944663006 0 0,0 -0.4995978105825662,0.4953277694837801 l -13.945859071177615 -14.309679970156825" fill="#ffcb12" stroke="none" /><path d="M 114.39649973595853 115.28858382429668 l 13.716524020719788 14.566473178543845 a41.008127650338004,41.008127650338004 0 0,0 -0.5166442719255213,0.47819822504313597 l -13.4644499774803 -14.79978914971936" fill="#ffcb13" stroke="none" /><path d="M 114.13192950727249 115.5334660781643 l 13.579855098066123 14.926639593244698 a41.17961927369029,41.17961927369029 0 0,0 -0.526971613378032,0.4712212661508577 l -13.321618457864712 -15.157556389278943" fill="#ffce13" stroke="none" /><path d="M 113.86319453409587 115.77377054828091 l 13.06530105902792 14.865914240938604 a40.791349069277146,40.791349069277146 0 0,0 -0.5299389082978642,0.45774860727881134 l -12.8081826709672 -15.088006980682135" fill="#ffc812" stroke="none" /><path d="M 113.59037401385872 116.0094264158162 l 13.847357798499425 16.312152667946403 a42.39709425744659,42.39709425744659 0 0,0 -0.5588858974961214,0.4662424931570145 l -13.565297566841409 -16.547457345015285" fill="#ffdf14" stroke="none" /><path d="M 113.31354834802062 116.24036423190432 l 14.758799397176569 18.00333551734109 a44.279653120183184,44.279653120183184 0 0,0 -0.5919751667822889,0.47685329063646037 l -14.447573460039028 -18.254037101770955" fill="#fff817" stroke="none" /><path d="M 113.03279911837588 116.46651593811092 l 12.100248893090157 15.288269192474761 a40.49736387761952,40.49736387761952 0 0,0 -0.5488165251456643,0.42676304944034654 l -11.836022423309263 -15.4937332935359" fill="#ffc412" stroke="none" /><path d="M 112.7482090630111 116.68781488649013 l 10.011953640702867 13.105968703709578 a37.49259322745208,37.49259322745208 0 0,0 -0.5148036759581073,0.3863182758547947 l -9.785496975833993 -13.275906006828388" fill="#ff9a0e" stroke="none" /><path d="M 112.45986205192187 116.90419585922612 l 9.857875537847859 13.374101426905513 a37.61458091848408,37.61458091848408 0 0,0 -0.5230558054772547,0.37865206625202424 l -9.626838721996636 -13.541354264530614" fill="#ff9b0e" stroke="none" /><path d="M 112.16784306229584 117.11559508785304 l 9.487720064094352 13.345666449884215 a37.37448151869804,37.37448151869804 0 0,0 -0.5260990572267993,0.3672580008561427 l -9.257225915693795 -13.50656926654548" fill="#ff980e" stroke="none" /><path d="M 111.5731344415666 117.5232005979908 l 9.367836892227274 14.184099032166463 a37.99838325823018,37.99838325823018 0 0,0 -0.5473836612675872,0.3548074759318762 l -9.122967598702678 -14.342820349802235" fill="#ffa10e" stroke="none" /><path d="M 111.27062007382361 117.71928675628689 l 10.657057473650783 16.75466443877611 a40.85677855173605,40.85677855173605 0 0,0 -0.595022307772185,0.37133792770944984 l -10.367871037088882 -16.935138163327107" fill="#ffc912" stroke="none" /><path d="M 110.96478420261333 117.91015095944535 l 9.420381239201484 15.387484785100733 a39.04212489435781,39.04212489435781 0 0,0 -0.5746019961542596,0.3450319890343191 l -9.154846486489788 -15.546930774670976" fill="#ffb010" stroke="none" /><line stroke="#e1ed5e" stroke-width="0.3" x1="143.1302829299769" x2="145.66735839644613" y1="173.24464959558577" y2="177.55315839532614" /><path d="M 143.63769802327073 174.10635135553383 a86.0,86.0 0 0,1 -40.68552437913181,11.842963189579606" fill="none" id="id54" stroke="none" /><text fill="#e1ed5e" style="font-size:6.75px; font-family:Arial;" text-anchor="middle"><textPath startOffset="21.407464694133747" xlink:href="#id54">June</textPath></text><path d="M 110.65571695917076 118.09573695890943 l 9.097218391492829 15.449065670661199 a38.92855299679586,38.92855299679586 0 0,0 -0.5787517838521582,0.3341424982010209 l -8.830674139780273 -15.602955066138392" fill="#ffae10" stroke="none" /><path d="M 110.34350942703117 118.27599006163325 l 8.155702668593012 14.410345151067716 a37.55818629534636,37.55818629534636 0 0,0 -0.5638303100916221,0.31274716852790835 l -7.907128170345295 -14.548225235028768" fill="#ff9b0e" stroke="none" /><path d="M 110.02825361518725 118.45085714620011 l 8.068400371403799 14.84494792050985 a37.895903743686475,37.895903743686475 0 0,0 -0.5742333527198689,0.30574691650111263 l -7.812378202897376 -14.98126530473353" fill="#ff9f0e" stroke="none" /><path d="M 109.71004243097381 118.62028667847754 l 8.990012379749237 17.23953411573351 a40.44278424289032,40.44278424289032 0 0,0 -0.6183370046906167,0.31572728042061815 l -8.692748153345038 -17.391319347826965" fill="#ffc412" stroke="none" /><path d="M 109.3889696526874 118.78422872680471 l 9.032767653698917 18.071586118568202 a41.20329468988997,41.20329468988997 0 0,0 -0.6353935562835937,0.31080282835545026 l -8.721213848153255 -18.223982697020876" fill="#ffce13" stroke="none" /><path d="M 109.06512990194946 118.94263497670748 l 7.073125290226168 14.78011147843113 a37.385383629506165,37.385383629506165 0 0,0 -0.5812737948227236,0.2720654862115436 l -6.818362781531938 -14.899353196213205" fill="#ff980e" stroke="none" /><path d="M 108.73861861582097 119.09545874513695 l 7.106286693215695 15.528518905235183 a38.07730101498539,38.07730101498539 0 0,0 -0.5967014009268344,0.2668969468991619 l -6.8386718894332335 -15.648219603044195" fill="#ffa20f" stroke="none" /><path d="M 108.07796709384702 119.3841803445677 l 6.200062715937185 14.87789346466884 a37.11807965073973,37.11807965073973 0 0,0 -0.5902579575496386,0.24005277275596876 l -5.943750297197106 -14.982133494004099" fill="#ff940d" stroke="none" /><path d="M 107.407793817531 119.65005319985036 l 5.78872614175431 15.355283833041264 a37.410182568682416,37.410182568682416 0 0,0 -0.6028576961829432,0.2213776964875655 l -5.52427929391724 -15.452392378537553" fill="#ff980e" stroke="none" /><path d="M 107.06938296918513 119.77432235084164 l 5.6120027232354674 15.697770423074282 a37.67076995285905,37.67076995285905 0 0,0 -0.6107942729318253,0.21246595426498435 l -5.34170267825862 -15.791794809907856" fill="#ff9c0e" stroke="none" /><path d="M 106.72888874123015 119.89276391827305 l 5.126523559962165 15.155655981488028 a36.999223482408794,36.999223482408794 0 0,0 -0.6033996555911919,0.19834945183287409 l -4.8656011667232395 -15.241426354722922" fill="#ff930d" stroke="none" /><path d="M 106.38641147887787 120.00534299687104 l 5.220126086794707 16.351970617400802 a38.16498352560741,38.16498352560741 0 0,0 -0.6258318844449072,0.19388431756261917 l -4.938653569478175 -16.439171522770067" fill="#ffa30f" stroke="none" /><path d="M 106.0420521117495 120.11202640906438 l 4.894452580781022 16.29204080698971 a38.011356786633215,38.011356786633215 0 0,0 -0.6265357413087403,0.1823754230652411 l -4.614056827090674 -16.37365992435747" fill="#ffa10e" stroke="none" /><path d="M 105.69591212413111 120.21278271476187 l 4.382224675733362 15.550969405339679 a37.15662534548651,37.15662534548651 0 0,0 -0.6154173987457866,0.16773474866777943 l -4.114625876052879 -15.623904648151601" fill="#ff950d" stroke="none" /><path d="M 104.9986988182912 120.39639698878246 l 5.429142377025536 22.15275359764313 a43.80833354078954,43.80833354078954 0 0,0 -0.73194931608104,0.17273804560046638 l -5.048060907204617 -22.24268778688982" fill="#fff216" stroke="none" /><path d="M 104.64783097203109 120.47920084513623 l 4.556639358607267 20.077393770409028 a41.587974714781154,41.587974714781154 0 0,0 -0.6975641767256665,0.15203086562026297 l -4.2113127652624645 -20.15265609416301" fill="#ffd313" stroke="none" /><path d="M 104.29559338865022 120.5559693870025 l 4.762135579980606 22.788542662692848 a44.28079921247313,44.28079921247313 0 0,0 -0.7454008640527242,0.14910104897926968 l -4.370238230396924 -22.86693310833498" fill="#fff817" stroke="none" /><path d="M 103.58742460773223 120.69131181640829 l 3.400131467783544 19.61105475639936 a40.903626871922256,40.903626871922256 0 0,0 -0.6928733469078874,0.11401204556445818 l -3.0629806178225842 -19.66653280045949" fill="#ffca12" stroke="none" /><path d="M 103.2317021107853 120.74984581791261 l 2.493657505353162 16.011070013561724 a37.20409487546835,37.20409487546835 0 0,0 -0.6318936481271106,0.09286660582183809 l -2.218438751618366 -16.051517692682445" fill="#ff960d" stroke="none" /><path d="M 102.875027216393 120.80226474461374 l 3.1512742159027454 22.801050420777432 a44.017785068825546,44.017785068825546 0 0,0 -0.7493968758738198,0.09702442903000162 l -2.75939951813815 -22.85178644600783" fill="#fff517" stroke="none" /><path d="M 102.51750503828377 120.84855314841334 l 2.719599124705183 22.522182093604766 a43.68578642358665,43.68578642358665 0 0,0 -0.745288042186015,0.08351107964903731 l -2.3325751809183686 -22.565548933760773" fill="#fff016" stroke="none" /><path d="M 102.15924093988457 120.88869738790638 l 2.380967280506862 23.03369859950558 a44.15643056180528,44.15643056180528 0 0,0 -0.7546553432376748,0.0714666456168103 l -1.9852123738841718 -23.071177000627575" fill="#fff617" stroke="none" /><path d="M 101.08105385017728 120.97215588758144 l 1.010112295164286 19.595908672518114 a40.62192558212656,40.62192558212656 0 0,0 -0.6967129118796256,0.029919850207263374 l -0.673573622683831 -19.61036109115121" fill="#ffc612" stroke="none" /><path d="M 100.72087961077811 120.9876233191556 l 0.7186225453551366 20.921911322040106 a41.934249251645085,41.934249251645085 0 0,0 -0.7196450054634173,0.018535502584163303 l -0.35936422582097555 -20.931164541974315" fill="#ffd814" stroke="none" /><line stroke="#e1ed5e" stroke-width="0.3" x1="101.45913802915013" x2="101.54496967792366" y1="184.9874750549273" y2="189.98673829345242" /><path d="M 101.47630435890484 185.9873277026323 a86.0,86.0 0 0,1 -42.54439059252881,-10.42667462771756" fill="none" id="id55" stroke="none" /><text fill="#e1ed5e" style="font-size:6.75px; font-family:Arial;" text-anchor="middle"><textPath startOffset="22.145653131862474" xlink:href="#id55">July</textPath></text><path d="M 100.36049292484886 120.99690560180557 l 0.3522967110745143 20.519517239789305 a41.52254128334609,41.52254128334609 0 0,0 -0.7127896359233641,0.006118441751215961 l -2.5132864493019197e-15 -20.522541283346087" fill="#ffd313" stroke="none" /><path d="M 100.0 121.0 l 2.5751613600648392e-15 21.027788272159505 a42.027788272159505,42.027788272159505 0 0,0 -0.7214628723409079,-0.006192891054545862 l 0.3609699474920532 -21.024689779299393" fill="#ffda14" stroke="none" /><path d="M 99.63950707515114 120.99690560180557 l -0.36208740463851197 21.089776055897183 a42.09288414078293,42.09288414078293 0 0,0 -0.722367381747662,-0.01860562134030728 l 0.7240681004569179 -21.08045271720683" fill="#ffda14" stroke="none" /><path d="M 99.27912038922189 120.98762331915562 l -0.7053071932176146 20.53424937287987 a41.54635869307313,41.54635869307313 0 0,0 -0.712568006765826,-0.030600736201956674 l 1.0577009605842793 -20.519116068252085" fill="#ffd313" stroke="none" /><path d="M 98.55909050195518 120.95050786540614 l -1.405910227677749 20.441626155552903 a41.48991614066962,41.48991614066962 0 0,0 -0.7101315364348589,-0.0549686721057807 l 1.7566107588878441 -20.414479716452067" fill="#ffd213" stroke="none" /><path d="M 98.19965949673042 120.92268563240118 l -1.7963928856991709 20.87680833237227 a41.95395317228706,41.95395317228706 0 0,0 -0.7170139100599261,-0.06790196275922697 l 2.1545063591441123 -20.84289461410786" fill="#ffd914" stroke="none" /><path d="M 97.84075906011543 120.88869738790638 l -2.1887767471043027 21.174429530032917 a42.287254627381955,42.287254627381955 0 0,0 -0.7214288168026869,-0.08083760367925362 l 2.551941465507789 -21.133736165846692" fill="#ffdd14" stroke="none" /><path d="M 97.48249496171623 120.84855314841334 l -2.5563063474788024 21.16988365011201 a42.32366469210769,42.32366469210769 0 0,0 -0.7205547041088589,-0.09329023245463237 l 2.919338873478455 -21.12288182145698" fill="#ffde14" stroke="none" /><path d="M 97.12497278360702 120.80226474461374 l -2.8362990791478557 20.522047235908037 a41.71711889281943,41.71711889281943 0 0,0 -0.7085451893070487,-0.10413174273450043 l 3.1881693740625896 -20.470334419874654" fill="#ffd513" stroke="none" /><path d="M 96.41257539226777 120.69131181640829 l -3.467136592245565 19.99752250837741 a41.2958602336129,41.2958602336129 0 0,0 -0.6974384415710773,-0.1270965169511186 l 3.8099097673676994 -19.93505781749493" fill="#ffcf13" stroke="none" /><path d="M 96.05791012581884 120.62667999033965 l -4.005653108083864 20.95926968938458 a42.33860920338196,42.33860920338196 0 0,0 -0.7127070071965164,-0.14256136196316496 l 4.364856600811338 -20.887418930758553" fill="#ffde14" stroke="none" /><path d="M 95.70440661134978 120.55596938700252 l -4.096490120406924 19.60318817226393 a41.02663770640943,41.02663770640943 0 0,0 -0.6881487485689464,-0.14997881687605927 l 4.432401285595007 -19.529977897254152" fill="#ffcc13" stroke="none" /><path d="M 95.35216902796893 120.47920084513623 l -4.7583261125825365 20.966062822127636 a42.499243187961,42.499243187961 0 0,0 -0.7100770440497437,-0.16757624895618894 l 5.117535310372167 -20.88129042952522" fill="#ffe015" stroke="none" /><path d="M 94.6519064749342 120.30758222061772 l -5.509027755679907 20.9186757074818 a42.63192964503261,42.63192964503261 0 0,0 -0.7061037164088516,-0.19245170781098542 l 5.867312873023454 -20.82102350552667" fill="#ffe215" stroke="none" /><path d="M 94.30408787586889 120.21278271476187 l -5.778416972180937 20.505563314286988 a42.30418338121931,42.30418338121931 0 0,0 -0.6972937862753089,-0.20297205871621704 l 6.129570770837852 -20.403347561268255" fill="#ffdd14" stroke="none" /><path d="M 93.95794788825049 120.11202640906438 l -6.245137243473853 20.7880307627153 a42.705850874393796,42.705850874393796 0 0,0 -0.7002933228468875,-0.21695266151908246 l 6.601071199192375 -20.67776151338957" fill="#ffe315" stroke="none" /><path d="M 93.61358852112213 120.00534299687104 l -6.421551628992278 20.11541901660845 a42.11554895183988,42.11554895183988 0 0,0 -0.6868389479756459,-0.22577760455458049 l 6.765913314615668 -20.002220490651844" fill="#ffdb14" stroke="none" /><path d="M 93.27111125876986 119.89276391827306 l -6.966985907166361 20.59665588226969 a42.743070762044844,42.743070762044844 0 0,0 -0.6930366133117838,-0.24107410942324972 l 7.319528292523167 -20.474023340277853" fill="#ffe315" stroke="none" /><path d="M 92.93061703081489 119.77432235084164 l -7.3197769804216675 20.474718964590632 a42.74380950344438,42.74380950344438 0 0,0 -0.6888080397902547,-0.25293985319647894 l 7.670174171866041 -20.346048262385434" fill="#ffe315" stroke="none" /><path d="M 92.25597844496254 119.51999308798841 l -7.858137682330941 19.807640274939704 a42.309456611933655,42.309456611933655 0 0,0 -0.672812108810088,-0.2736268273860073 l 8.197004252331471 -19.669826190974405" fill="#ffdd14" stroke="none" /><path d="M 91.92203290615298 119.3841803445677 l -8.324815769646582 19.976527304381527 a42.64172360837411,42.64172360837411 0 0,0 -0.6732618991816101,-0.2873754701334292 l 8.666512743998624 -19.830677184588694" fill="#ffe215" stroke="none" /><path d="M 91.59046798132341 119.24265499422711 l -8.678222142765591 19.857470580483042 a42.67096392442977,42.67096392442977 0 0,0 -0.6686877292743117,-0.29909551593985517 l 9.01782327489554 -19.70557131363333" fill="#ffe215" stroke="none" /><path d="M 91.26138138417905 119.09545874513695 l -9.099151146170673 19.883287389713423 a42.86640503152715,42.86640503152715 0 0,0 -0.6664935732642651,-0.31195264552105334 l 9.439133433306429 -19.724158512621845" fill="#ffe515" stroke="none" /><path d="M 90.93487009805054 118.94263497670748 l -9.453947153776536 19.755113490934058 a42.900722038921096,42.900722038921096 0 0,0 -0.6615694824553073,-0.323606785538428 l 9.791676885493914 -19.589912955298406" fill="#ffe515" stroke="none" /><path d="M 90.6110303473126 118.78422872680471 l -9.814306216332907 19.63518677576416 a42.95133631984838,42.95133631984838 0 0,0 -0.6566907087299065,-0.33531095498404034 l 10.149924146776396 -19.463817869107285" fill="#ffe615" stroke="none" /><path d="M 90.28995756902619 118.62028667847754 l -10.134461961789565 19.434167090629526 a42.917896107096304,42.917896107096304 0 0,0 -0.6503311687708773,-0.3462647173217393 l 10.466581946347004 -19.257331905585215" fill="#ffe615" stroke="none" /><line stroke="#e1ed5e" stroke-width="0.3" x1="58.13341422392154" x2="55.67067388415222" y1="173.97424548756322" y2="178.32567169271397" /><path d="M 57.64086615596768 174.84453072859336 a86.0,86.0 0 0,1 -31.369924170532247,-30.572349798747897" fill="none" id="id56" stroke="none" /><text fill="#e1ed5e" style="font-size:6.75px; font-family:Arial;" text-anchor="middle"><textPath startOffset="22.145653131862474" xlink:href="#id56">August</textPath></text><path d="M 89.65649057296885 118.27599006163327 l -11.400845691012748 20.144201928084726 a44.1466661484918,44.1466661484918 0 0,0 -0.6563296043053075,-0.37893207372279275 l 11.744967763178456 -19.945522957085764" fill="#fff617" stroke="none" /><path d="M 89.34428304082925 118.09573695890944 l -10.669334296945324 18.118862175485056 a42.026836682539695,42.026836682539695 0 0,0 -0.6185294554325592,-0.37140916619251635 l 10.97879650893531 -17.933039008756623" fill="#ffda14" stroke="none" /><path d="M 89.03521579738668 117.91015095944536 l -11.268767115753867 18.40668420285762 a42.582194875703074,42.582194875703074 0 0,0 -0.6201506032312804,-0.387019842556619 l 11.583081847774862 -18.21052856345945" fill="#ffe115" stroke="none" /><path d="M 88.72937992617639 117.7192867562869 l -8.788547586596557 13.81705654508382 a37.37527466187715,37.37527466187715 0 0,0 -0.5384075039789702,-0.34898923922425035 l 9.024440722832537 -13.664153464155676" fill="#ff980e" stroke="none" /><path d="M 88.4268655584334 117.5232005979908 l -12.277572268032749 18.589809251359902 a43.27823576495035,43.27823576495035 0 0,0 -0.6164133791385512,-0.4147504311394769 l 12.594881935268306 -18.376309146163305" fill="#ffeb16" stroke="none" /><path d="M 88.1277618465304 117.32195027204791 l -12.433262450781502 18.140501488240247 a42.99235797759894,42.99235797759894 0 0,0 -0.6051786695329988,-0.42246171187806003 l 12.742836211488266 -17.924394960557056" fill="#ffe715" stroke="none" /><path d="M 87.83215693770417 117.11559508785305 l -12.458703614745442 17.52472688033834 a42.5019847453793,42.5019847453793 0 0,0 -0.591018411545109,-0.42785175191842506 l 12.757703036664505 -17.308274357046848" fill="#ffe015" stroke="none" /><path d="M 87.54013794807813 116.9041958592261 l -9.979322580558431 13.538867664922298 a37.81926921168461,37.81926921168461 0 0,0 -0.5192892018461113,-0.38968429810420996 l 10.210264771315309 -13.365564339554073" fill="#ff9e0e" stroke="none" /><path d="M 86.96720088162412 116.46651593811092 l -13.167027296289998 16.63610885601679 a42.21628444592705,42.21628444592705 0 0,0 -0.5643899684122458,-0.4546326074832907 l 13.450668035057506 -16.40762795474009" fill="#ffdc14" stroke="none" /><path d="M 86.68645165197938 116.24036423190432 l -13.429765689492584 16.382130491824732 a42.183314328165125,42.183314328165125 0 0,0 -0.5560678131501182,-0.4638915469669318 l 13.709007836804595 -16.14917676094593" fill="#ffdc14" stroke="none" /><path d="M 86.40962598614128 116.0094264158162 l -13.781140294651482 16.234148614915078 a42.2947742197943,42.2947742197943 0 0,0 -0.5494705859979309,-0.47461960528449154 l 14.057790360412277 -15.995184877165865" fill="#ffdd14" stroke="none" /><path d="M 86.13680546590413 115.77377054828092 l -14.597692078158062 16.60949392356923 a43.112618623894406,43.112618623894406 0 0,0 -0.5517080194984049,-0.4933407130359414 l 14.880665124479837 -16.356457680649903" fill="#ffe815" stroke="none" /><path d="M 85.86807049272751 115.53346607816431 l -15.088257550663826 16.58463812186661 a43.42110027515231,43.42110027515231 0 0,0 -0.547044306171248,-0.5063360428948263 l 15.370731628149041 -16.323184332839407" fill="#ffed16" stroke="none" /><path d="M 85.34317274990678 115.03919595460226 l -11.669164268860028 11.973590537113887 a37.71933805759375,37.71933805759375 0 0,0 -0.4598312052425431,-0.4559010476171516 l 11.872987394232533 -11.771509479268076" fill="#ff9d0e" stroke="none" /><path d="M 85.08716467003676 114.78537596483092 l -11.600026265044892 11.500881337165872 a37.334958857655614,37.334958857655614 0 0,0 -0.44733182986084047,-0.45900186522053865 l 11.795744896056542 -11.300056779877597" fill="#ff970e" stroke="none" /><path d="M 84.83555147118756 114.52719865689866 l -12.41707280765063 11.895274864178756 a38.195384880974885,38.195384880974885 0 0,0 -0.44951269293006985,-0.47736690251042674 l 12.619441334316953 -11.68036650172384" fill="#ffa40f" stroke="none" /><path d="M 84.58840730492382 114.26474011684316 l -11.906704109923943 11.020667567374593 a37.22420156407895,37.22420156407895 0 0,0 -0.4300322325605165,-0.4726807541431959 l 12.094134043326338 -10.814649237673722" fill="#ff960d" stroke="none" /><path d="M 84.3458050057657 113.99807769240083 l -12.61206222637979 11.27778381266378 a37.91899882756829,37.91899882756829 0 0,0 -0.42972867555849303,-0.4889523485806284 l 12.803801965896874 -11.059619186271851" fill="#ffa00e" stroke="none" /><path d="M 84.1078160697243 113.72728997021213 l -14.634038316197225 12.640533754390606 a40.33748098992774,40.33748098992774 0 0,0 -0.4481406480656503,-0.5279085565877036 l 14.848873527769987 -12.387458415353347" fill="#ffc212" stroke="none" /><path d="M 83.8745106332314 113.45245675266167 l -11.914436884468481 9.939447000655443 a36.51600505777249,36.51600505777249 0 0,0 -0.3974213859358181,-0.4847894710282466 l 12.083305089642929 -9.7334552479287" fill="#ff8c0c" stroke="none" /><path d="M 83.64595745247003 113.17365903436017 l -13.334337004395366 10.741198002550586 a38.12243784853034,38.12243784853034 0 0,0 -0.4061556710712818,-0.5131644223396029 l 13.516759106108209 -10.510713636296302" fill="#ffa30f" stroke="none" /><path d="M 83.4222238831116 112.89097897827486 l -13.576248375393643 10.556972851910283 a38.197796246797125,38.197796246797125 0 0,0 -0.3980720084778609,-0.5210890373806549 l 13.755472361225799 -10.322362901288757" fill="#ffa40f" stroke="none" /><path d="M 82.98947788004972 112.3143062007846 l -15.332199802067885 11.09933027116424 a39.92806073634891,39.92806073634891 0 0,0 -0.39716043013342806,-0.5586558827459714 l 15.520475330731275 -10.834497161708764" fill="#ffbc11" stroke="none" /><path d="M 82.78059297857968 112.02048342749411 l -16.734221266388108 11.681786089056963 a41.4082896790231,41.4082896790231 0 0,0 -0.4018778294051885,-0.5863517633666083 l 16.93228883260862 -11.392799590620305" fill="#ffd113" stroke="none" /><path d="M 82.576782715395 111.72311816256416 l -15.697220940825872 10.561790793700142 a39.91967679520428,39.91967679520428 0 0,0 -0.37766972311383135,-0.5718400966761292 l 15.876215102860431 -10.290770818684953" fill="#ffbc11" stroke="none" /><path d="M 82.37810715431573 111.42229804090323 l -17.131957090694364 11.104727603754625 a41.4161438305813,41.4161438305813 0 0,0 -0.38158529106166794,-0.5999154571811484 l 17.32006007338192 -10.808998471894807" fill="#ffd113" stroke="none" /><path d="M 82.18462484594161 111.11811171558189 l -17.823764160143504 11.123347075827219 a42.00988860050738,42.00988860050738 0 0,0 -0.3765527068702474,-0.6150705476380046 l 18.012084831469156 -10.815739412064657" fill="#ffd914" stroke="none" /><path d="M 81.99639281039703 110.81064883170644 l -14.377753615026156 8.633427939408035 a37.7706850486004,37.7706850486004 0 0,0 -0.32901196579987796,-0.5587342468142695 l 14.523839290955804 -8.385342524300206" fill="#ff9e0e" stroke="none" /><line stroke="#e1ed5e" stroke-width="0.3" x1="26.387840678322732" x2="22.057713659400548" y1="142.50000000000003" y2="145.00000000000006" /><path d="M 25.521815274538298 143.00000000000003 a86.0,86.0 0 0,1 -11.493303480769221,-40.785679425670985" fill="none" id="id57" stroke="none" /><text fill="#e1ed5e" style="font-size:6.75px; font-family:Arial;" text-anchor="middle"><textPath startOffset="21.40746469413373" xlink:href="#id57">September</textPath></text><path d="M 81.81346652052679 110.50000000000001 l -26.438306127481116 15.264163159618974 a51.52832631923792,51.52832631923792 0 0,0 -0.4357005481232107,-0.7698411205135308 l 26.696440040625706 -14.80806526900632" fill="#a9ff21" stroke="none" /><path d="M 81.63589988554817 110.18625677009913 l -16.9860337299235 9.421866576647675 a40.42413219843423,40.42413219843423 0 0,0 -0.3313905878916734,-0.6097213564208743 l 17.1452696674305 -9.128890386752214" fill="#ffc312" stroke="none" /><path d="M 81.4637452351635 109.86951160357371 l -17.682905182908783 9.415151016303561 a41.03322750750723,41.03322750750723 0 0,0 -0.325709901400791,-0.6245916823963019 l 17.841923153284522 -9.110213090802755" fill="#ffcc13" stroke="none" /><path d="M 81.29705330413844 109.54985784667822 l -18.654952419381793 9.525351627134897 a41.946111175823546,41.946111175823546 0 0,0 -0.32194656379758896,-0.6441087910484136 l 18.815718896391118 -9.203710979922732" fill="#ffd814" stroke="none" /><path d="M 81.1358732173502 109.22738970284198 l -18.302985736962615 8.952907498259977 a41.375324281096894,41.375324281096894 0 0,0 -0.3066123174654081,-0.6407018180578486 l 18.453977312387938 -8.637393178137025" fill="#ffd113" stroke="none" /><path d="M 80.83023694016515 108.57439118712176 l -17.129545919896703 7.661828010941796 a39.76499272291631,39.76499272291631 0 0,0 -0.27336750623956885,-0.6255183519745994 l 17.25854730815324 -7.366647589191347" fill="#ffba11" stroke="none" /><path d="M 80.68587082218212 108.24405325689762 l -15.678666585582048 6.6922904542405535 a38.04720908025024,38.04720908025024 0 0,0 -0.25124593271178386,-0.6028987756379889 l 15.791238362830317 -6.422159169161283" fill="#ffa20e" stroke="none" /><path d="M 80.41425534168474 107.57618678355246 l -28.46028899588815 11.00905118025156 a51.51536101079046,51.51536101079046 0 0,0 -0.31196063013308045,-0.8275126345804494 l 28.645080309835667 -10.518870265476966" fill="#a9ff21" stroke="none" /><path d="M 80.28708602549918 107.23885506374661 l -36.16559352765605 13.280506889022925 a59.52689993286538,59.52689993286538 0 0,0 -0.3440083073173214,-0.962252461058032 l 36.38824200501732 -12.657719471583972" fill="#4cff2c" stroke="none" /><path d="M 80.16572619554312 106.89939002012753 l -19.079126346511753 6.636710534786322 a41.200470016034345,41.200470016034345 0 0,0 -0.22663118690107278,-0.6699948343501543 l 19.19024295498519 -6.308214025962005" fill="#ffce13" stroke="none" /><path d="M 80.05021161711548 106.5578916946017 l -18.420980124966256 6.055342054233474 a40.39071107922993,40.39071107922993 0 0,0 -0.21086890900619787,-0.660543854087226 l 18.52221374974971 -5.738229166454857" fill="#ffc312" stroke="none" /><path d="M 79.94057633289273 106.21446072829308 l -18.818544300041793 5.830033128420291 a40.700936420665734,40.700936420665734 0 0,0 -0.20103099546903558,-0.6691668021286026 l 18.91585161551446 -5.506128722700964" fill="#ffc712" stroke="none" /><path d="M 79.83685265289637 105.86919833188381 l -19.122070710934736 5.566156095908507 a40.91571444759157,40.91571444759157 0 0,0 -0.19051429793007615,-0.6760680333886664 l 19.21480350093939 -5.237080138616846" fill="#ffca12" stroke="none" /><path d="M 79.73907114497094 105.5222062557868 l -19.241844551280703 5.2444502971335805 a40.94374189200099,40.94374189200099 0 0,0 -0.17900315242388717,-0.6797041260704542 l 19.329037184509325 -4.913365666690324" fill="#ffcb12" stroke="none" /><path d="M 79.64726062577567 105.17358676015961 l -19.38237927147069 4.9269250166032945 a40.99878037137185,40.99878037137185 0 0,0 -0.16753365492774533,-0.6835944831051252 l 19.464100452914728 -4.59347470889007" fill="#ffcb13" stroke="none" /><path d="M 79.56144815229197 104.8234425847677 l -19.345798175123644 4.565555693451776 a40.87722832345162,40.87722832345162 0 0,0 -0.1553123252304172,-0.6843347620124175 l 19.421321361911726 -4.232786597500332" fill="#ffca12" stroke="none" /><path d="M 79.48165901384964 104.47187691870673 l -19.49842430959972 4.249590826086012 a40.95614122886345,40.95614122886345 0 0,0 -0.14381902904842483,-0.6882261170713 l 19.568501049472513 -3.914248257729302" fill="#ffcb12" stroke="none" /><path d="M 79.34024301695615 103.76489593502545 l -19.125763021015686 3.485351135116461 a40.440742878581275,40.440742878581275 0 0,0 -0.11859764432985967,-0.684039696397095 l 19.18277548283778 -3.156518405798774" fill="#ffc412" stroke="none" /><path d="M 79.2786578344484 103.40968896794605 l -19.566129130791737 3.2195991026864257 a40.82925181505435,40.82925181505435 0 0,0 -0.10786409370524512,-0.6925648580675788 l 19.61851471663525 -2.883246062687397" fill="#ffc912" stroke="none" /><path d="M 79.22317932658666 103.0534771498775 l -18.992901512358895 2.7913024658326595 a40.19691843275707,40.19691843275707 0 0,0 -0.09447325439235303,-0.6835614069840495 l 19.03801928330646 -2.4648527506485243" fill="#ffc011" stroke="none" /><path d="M 79.17382384314188 102.69636545807758 l -19.809216911626123 2.5646997235489106 a40.97455279408844,40.97455279408844 0 0,0 -0.0843254613430413,-0.6983357871542977 l 19.850324459228826 -2.224270259471214" fill="#ffcb12" stroke="none" /><path d="M 79.13060592940153 102.33845913500099 l -19.796836691795786 2.2182768435655356 a40.9207302867222,40.9207302867222 0 0,0 -0.07223016998246756,-0.6987613726523078 l 19.83199925425992 -1.8781109486302963" fill="#ffca12" stroke="none" /><path d="M 79.0935383218832 101.97986365728391 l -19.73761651842713 1.869172805417571 a40.825925269832936,40.825925269832936 0 0,0 -0.060084830957299766,-0.6982768132541947 l 19.766794972082174 -1.5300749447877142" fill="#ffc912" stroke="none" /><path d="M 79.06263194458094 101.62068470465958 l -19.755289350314992 1.5291843368962965 a40.814385230202774,40.814385230202774 0 0,0 -0.04807553419420234,-0.6990077160542987 l 19.77862884567426 -1.1898331966876545" fill="#ffc912" stroke="none" /><path d="M 79.03789590574601 101.26102812881392 l -19.537856861041742 1.1753489519817433 a40.573177970924405,40.573177970924405 0 0,0 -0.035855890182664614,-0.6955946905656498 l 19.55515434068098 -0.8397824680393627" fill="#ffc512" stroke="none" /><path d="M 79.01933749520258 100.90099992219065 l -16.88094226164987 0.7249402949393772 a37.896501119237186,37.896501119237186 0 0,0 -0.022332431574993105,-0.6501843784857132 l 16.890899380221715 -0.4350496518895441" fill="#ff9f0e" stroke="none" /><path d="M 79.00696218219943 100.54070618675478 l -29.839980937394838 0.768572059247792 a50.84987714136096,50.84987714136096 0 0,0 -0.014985140137559099,-0.8728092875332546 l 29.84877750913106 -0.25621585574548505" fill="#b1ff20" stroke="none" /><line stroke="#e1ed5e" stroke-width="0.3" x1="15.003131293944662" x2="10.003315487706104" y1="100.72959589197737" y2="100.7725132973878" /><path d="M 14.003168132696942 100.73817937305945 a86.0,86.0 0 0,1 10.791469493833604,-42.45332614584628" fill="none" id="id58" stroke="none" /><text fill="#e1ed5e" style="font-size:6.75px; font-family:Arial;" text-anchor="middle"><textPath startOffset="22.145653131862435" xlink:href="#id58">October</textPath></text><path d="M 79.00077361379809 100.18025310272382 l -19.919004997682354 0.1709807012872987 a40.91973881600628,40.91973881600628 0 0,0 0.0,-0.7024676080222252 l 19.919004997682354 0.17098070128729137" fill="#ffca12" stroke="none" /><path d="M 79.00077361379809 99.81974689727619 l -18.36316014241253 -0.15762564442178975 a39.363836643241726,39.363836643241726 0 0,0 0.01160027598122086,-0.6756579198736621 l 18.357748434832644 0.47283048026450425" fill="#ffb410" stroke="none" /><path d="M 79.00696218219943 99.45929381324524 l -19.89938087095064 -0.5125374632721759 a40.905980350096144,40.905980350096144 0 0,0 0.02410591954919639,-0.7018175458096232 l 19.887650264404595 0.8540612736459376" fill="#ffca12" stroke="none" /><path d="M 79.01933749520258 99.09900007780938 l -19.7404539577156 -0.8477400308899855 a40.758648375247304,40.758648375247304 0 0,0 0.036019796654434846,-0.6987744323299752 l 19.7229925716046 1.1864862565966727" fill="#ffc812" stroke="none" /><path d="M 79.03789590574601 98.7389718711861 l -19.238024099016883 -1.15731175756875 a40.27280316245048,40.27280316245048 0 0,0 0.04743760109610087,-0.6897323088149434 l 19.215322536755718 1.4873874905380184" fill="#ffc112" stroke="none" /><path d="M 79.06263194458094 98.37931529534042 l -19.617427471183596 -1.5185129555520767 a40.67611095169288,40.67611095169288 0 0,0 0.05986434439340395,-0.6957144251647454 l 19.58846950409245 1.8550484280925028" fill="#ffc712" stroke="none" /><path d="M 79.0935383218832 98.0201363427161 l -18.85489259350386 -1.7855779319627252 a39.93925191932561,39.93925191932561 0 0,0 0.07049773879626287,-0.6820016724606506 l 18.82146246222593 2.1089841267062885" fill="#ffbd11" stroke="none" /><path d="M 79.13060592940154 97.66154086499901 l -19.349572021240476 -2.168159904324996 a40.47066652110027,40.47066652110027 0 0,0 0.0832884654629829,-0.6897479736678469 l 19.309501469517826 2.5000015549162793" fill="#ffc412" stroke="none" /><path d="M 79.17382384314186 97.30363454192245 l -13.907698017860971 -1.8006299502266072 a35.02377739318715,35.02377739318715 0 0,0 0.08231502215731111,-0.595590495147872 l 13.874738479148453 2.0391087535745465" fill="#ff760a" stroke="none" /><path d="M 79.22317932658666 96.9465228501225 l -19.238416999809342 -2.8273847876977243 a40.445071185168175,40.445071185168175 0 0,0 0.10684915236736582,-0.6860482066086038 l 19.18704635530371 3.157221176237778" fill="#ffc412" stroke="none" /><path d="M 79.2786578344484 96.59031103205396 l -19.75320276630959 -3.2503819982210147 a41.01884119176982,41.01884119176982 0 0,0 0.12029299147867625,-0.6938180082304962 l 19.694494957338684 3.5889930393721032" fill="#ffcc13" stroke="none" /><path d="M 79.34024301695615 96.23510406497455 l -19.5326745735489 -3.5595039749250033 a40.8543558078239,40.8543558078239 0 0,0 0.1316555111399688,-0.6888772666079406 l 19.468692770126772 3.8942838065662584" fill="#ffc912" stroke="none" /><path d="M 79.407916724674 95.88100663000787 l -6.274948210698904 -1.2551653823138293 a27.39925114243162,27.39925114243162 0 0,0 0.09621350004480908,-0.46041642739350375 l 6.252476999829728 1.3626982609927423" fill="#ff0000" stroke="none" /><path d="M 79.48165901384962 95.52812308129327 l -19.528313341454947 -4.256105001465295 a40.98673189257176,40.98673189257176 0 0,0 0.15572838215597187,-0.6861679855940612 l 19.452374097741316 4.590707320998365" fill="#ffcb12" stroke="none" /><path d="M 79.56144815229197 95.17655741523228 l -19.288678831688014 -4.552075683928886 a40.818539908485334,40.818539908485334 0 0,0 0.1667971368352534,-0.6805892379503446 l 19.207694168336463 4.882520746487349" fill="#ffc912" stroke="none" /><path d="M 79.64726062577567 94.8264132398404 l -10.142748829130142 -2.578247089454111 a31.46530992685355,31.46530992685355 0 0,0 0.13756411623926884,-0.5223533560216047 l 10.096995232086147 2.7519809498485" fill="#ff4006" stroke="none" /><path d="M 79.73907114497095 94.47779374421319 l -19.308910396726763 -5.262729391538483 a41.01325414212756,41.01325414212756 0 0,0 0.19096846833074413,-0.6776797239176279 l 19.215723436321436 5.593417039359124" fill="#ffcc13" stroke="none" /><path d="M 79.83685265289637 94.1308016681162 l -19.127253006470248 -5.567664586611302 a40.921111829477056,40.921111829477056 0 0,0 0.20211849088077918,-0.672786720665583 l 19.028858195585837 5.895188910867609" fill="#ffca12" stroke="none" /><path d="M 79.94057633289273 93.78553927170692 l -18.849157379912228 -5.8395171388177936 a40.73298493252469,40.73298493252469 0 0,0 0.2126558276341926,-0.666141351238616 l 18.746136836500778 6.162227523747801" fill="#ffc812" stroke="none" /><path d="M 80.05021161711548 93.44210830539832 l -18.97716968430914 -6.238172609717859 a40.97617998356282,40.97617998356282 0 0,0 0.22539743601791218,-0.6663474690872419 l 18.867286826718864 6.563021753279262" fill="#ffcb12" stroke="none" /><path d="M 80.16572619554312 93.10060997987247 l -18.84774086192379 -6.556222652098628 a40.95548523745095,40.95548523745095 0 0,0 0.23668336781832575,-0.6620455039319911 l 18.73241732406152 6.878803112411541" fill="#ffcb12" stroke="none" /><path d="M 80.28708602549916 92.7611449362534 l -18.7726350123576 -6.8935716046268904 a40.99832879956004,40.99832879956004 0 0,0 0.24827283039004605,-0.6585731791962622 l 18.65153149815312 7.214813064017298" fill="#ffcb13" stroke="none" /><path d="M 80.41425534168474 92.42381321644754 l -18.654896284714543 -7.2161146357431045 a41.00193655198522,41.00193655198522 0 0,0 0.25956437019883444,-0.6542717728973079 l 18.528273239549577 7.535287425853995" fill="#ffcb13" stroke="none" /><path d="M 80.5471966667186 92.08871423366112 l -18.445015505856194 -7.501427230373625 a40.91205683760134,40.91205683760134 0 0,0 0.2701640442966645,-0.6482953565449991 l 18.31352561702305 7.816955096359888" fill="#ffca12" stroke="none" /><path d="M 80.68587082218212 91.75594674310238 l -18.450284955320708 -7.875329525666223 a41.0607534771345,41.0607534771345 0 0,0 0.2822753133786575,-0.64590115795619 l 18.31237575992507 8.19089275339828" fill="#ffcc13" stroke="none" /><path d="M 80.9802524753101 91.09779779509293 l -18.021899983188366 -8.435159171208289 a40.89826096038707,40.89826096038707 0 0,0 0.30307703422880405,-0.6333144357903522 l 17.87444369099966 8.743286109063728" fill="#ffca12" stroke="none" /><path d="M 81.1358732173502 90.77261029715801 l -17.099735142035453 -8.36433733662488 a40.03583675619801,40.03583675619801 0 0,0 0.3072847449049736,-0.6147753317000701 l 16.953630483918733 8.65664452448872" fill="#ffbe11" stroke="none" /><path d="M 81.29705330413844 90.45014215332179 l -17.807931810107252 -9.092856868778524 a40.99506142499999,40.99506142499999 0 0,0 0.325406950067819,-0.6240107332696947 l 17.649216791064493 9.397213845152706" fill="#ffcb12" stroke="none" /><path d="M 81.46374523516351 90.13048839642627 l -16.193278150331164 -8.622008525032273 a39.34560678363411,39.34560678363411 0 0,0 0.3225490085718295,-0.5934538463202058 l 16.042883792143982 8.898717204827099" fill="#ffb410" stroke="none" /><path d="M 81.63589988554816 89.8137432299009 l -16.900355152541493 -9.374342114056468 a40.32615570550461,40.32615570550461 0 0,0 0.34097998905956073,-0.6024789685967339 l 16.736941798460563 9.663077852752307" fill="#ffc212" stroke="none" /><line stroke="#e1ed5e" stroke-width="0.3" x1="26.387840678322718" x2="22.05771365940052" y1="57.49999999999999" y2="54.99999999999999" /><path d="M 25.521815274538284 56.99999999999999 a86.0,86.0 0 0,1 29.574782752854787,-30.34633250058573" fill="none" id="id59" stroke="none" /><text fill="#e1ed5e" style="font-size:6.75px; font-family:Arial;" text-anchor="middle"><textPath startOffset="21.40746469413373" xlink:href="#id59">November</textPath></text><path d="M 81.81346652052679 89.5 l -16.445869307899862 -9.495027071973391 a39.99005414394678,39.99005414394678 0 0,0 0.34834439220292507,-0.591564933318754 l 16.280451205567157 9.775943173585718" fill="#ffbd11" stroke="none" /><path d="M 81.99639281039701 89.18935116829357 l -17.20137087615196 -10.328928975600578 a41.06424515903676,41.06424515903676 0 0,0 0.3680764978280125,-0.6012252971793435 l 17.021526413868553 10.622691388904464" fill="#ffcc13" stroke="none" /><path d="M 82.18462484594161 88.88188828441811 l -16.8540026875664 -10.518144193690691 a40.86677537678837,40.86677537678837 0 0,0 0.37652371598605977,-0.5919578204570184 l 16.670961279954447 10.805915688826381" fill="#ffca12" stroke="none" /><path d="M 82.37810715431573 88.57770195909679 l -16.770467192319327 -10.870414219024967 a40.98535651775667,40.98535651775667 0 0,0 0.38775184296186965,-0.5871057111423105 l 16.581390910436728 11.156699808506339" fill="#ffcb12" stroke="none" /><path d="M 82.576782715395 88.27688183743585 l -16.66247172450945 -11.211254598736229 a41.08308227458527,41.08308227458527 0 0,0 0.39872161003911233,-0.5817467449867434 l 16.467560377655026 11.495636078793007" fill="#ffcd13" stroke="none" /><path d="M 82.78059297857968 87.97951657250589 l -15.294677167083602 -10.676872507113583 a39.652687639545846,39.652687639545846 0 0,0 0.394421321457539,-0.5548029833653564 l 15.109140747096092 10.93785271718846" fill="#ffb911" stroke="none" /><path d="M 82.98947788004972 87.6856937992154 l -16.117221401263834 -11.667625369842645 a40.89719345707712,40.89719345707712 0 0,0 0.41656319453136464,-0.5651479766597383 l 15.914556187148651 11.942579655771247" fill="#ffca12" stroke="none" /><path d="M 83.2033758604659 87.39550010848427 l -15.972784628911132 -11.986275364014837 a40.969993638045274,40.969993638045274 0 0,0 0.4269620045472781,-0.5589069696168567 l 15.764670647009547 12.258703246872578" fill="#ffcb12" stroke="none" /><path d="M 83.42222388311158 87.10902102172516 l -15.832632871530034 -12.311551083725549 a41.056085204541716,41.056085204541716 0 0,0 0.43741068984268044,-0.5526541175363529 l 15.618955751045792 12.581525145176585" fill="#ffcc13" stroke="none" /><path d="M 83.64595745247003 86.82634096563983 l -15.656575206922998 -12.611828715889706 a41.104391827881194,41.104391827881194 0 0,0 0.44735902359637686,-0.5457052692278282 l 15.437769364087991 12.878736266816027" fill="#ffcd13" stroke="none" /><path d="M 83.8745106332314 86.54754324733833 l -15.318054418749815 -12.778865801605345 a40.94848872349029,40.94848872349029 0 0,0 0.45492881120751916,-0.5359049957002325 l 15.096431044035182 13.039937579755135" fill="#ffcb12" stroke="none" /><path d="M 84.10781606972428 86.27271002978789 l -15.145485531916126 -13.08230967804171 a41.01330953414913,41.01330953414913 0 0,0 0.4647958999794793,-0.5288524127701109 l 14.918678567978054 13.340374368623122" fill="#ffcc13" stroke="none" /><path d="M 84.34580500576568 86.00192230759919 l -14.84302336325495 -13.272723018046579 a40.9118185727953,40.9118185727953 0 0,0 0.4726333927857425,-0.5195068918555638 l 14.612992269627341 13.525567485459801" fill="#ffca12" stroke="none" /><path d="M 84.58840730492382 85.73525988315684 l -14.687966486412234 -13.594962501215832 a41.013979237408876,41.013979237408876 0 0,0 0.48268408113272776,-0.5125937672626888 l 14.452426571543235 13.845097728423031" fill="#ffcc13" stroke="none" /><path d="M 84.83555147118756 85.47280134310135 l -14.443339788146993 -13.836392795480789 a41.001395696968316,41.001395696968316 0 0,0 0.4912615394569486,-0.5040776172623346 l 14.20369144753924 14.082293104810853" fill="#ffcb13" stroke="none" /><path d="M 85.08716467003674 85.21462403516908 l -14.2429889998624 -14.121254782636672 a41.05673383894647,41.05673383894647 0 0,0 0.5005169331353955,-0.49623903633549865 l 13.998480146597029 14.363673829200845" fill="#ffcc13" stroke="none" /><path d="M 85.34317274990677 84.96080404539775 l -13.717495555323511 -14.075358885162778 a40.65414490779111,40.65414490779111 0 0,0 0.5039710706246244,-0.48279288537155923 l 13.473851998833586 14.308763900839907" fill="#ffc712" stroke="none" /><path d="M 85.60350026404147 84.71141617570332 l -13.632230045675518 -14.476955898164318 a40.88516904870595,40.88516904870595 0 0,0 0.515095167861134,-0.4767643974479218 l 13.38170510650043 14.708838041744606" fill="#ffca12" stroke="none" /><path d="M 85.86807049272753 84.46653392183569 l -13.54973700722744 -14.893534535500061 a41.134863891398965,41.134863891398965 0 0,0 0.526398883070406,-0.47070912717814534 l 13.292073097333644 15.123939192561608" fill="#ffcd13" stroke="none" /><path d="M 86.13680546590413 84.22622945171909 l -13.14228905637261 -14.95351244942511 a40.90797067047174,40.90797067047174 0 0,0 0.531453992388773,-0.4590573008313424 l 12.883655584220989 15.176913882721163" fill="#ffca12" stroke="none" /><path d="M 86.40962598614128 83.9905735841838 l -12.985627562404911 -15.297036616616932 a41.06553892721572,41.06553892721572 0 0,0 0.5413331026917398,-0.45159932744441905 l 12.721120125551263 15.517698127973233" fill="#ffcc13" stroke="none" /><path d="M 86.68645165197937 83.75963576809568 l -12.683973741202427 -15.472385578985262 a41.00694642798605,41.00694642798605 0 0,0 0.5482223152257524,-0.44160909052436814 l 12.416500655621428 15.68784296330303" fill="#ffcb13" stroke="none" /><path d="M 86.96720088162412 83.53348406188908 l -9.681774300979553 -12.232605550674656 a36.600429230425185,36.600429230425185 0 0,0 0.49600562766954825,-0.38569697613905946 l 9.47035872867476 12.39700357843452" fill="#ff8d0d" stroke="none" /><path d="M 87.25179093698888 83.31218511350988 l -10.866057120487687 -14.224017575837909 a38.899549529064885,38.899549529064885 0 0,0 0.5341223256868577,-0.4008153507662493 l 10.620281805890077 14.408451953868159" fill="#ffae10" stroke="none" /><path d="M 87.54013794807813 83.09580414077388 l -11.790440657215916 -15.995997171206097 a40.87174920314172,40.87174920314172 0 0,0 0.5683489003119061,-0.41144077400843415 l 11.514110746530042 16.196038716587612" fill="#ffca12" stroke="none" /><path d="M 87.83215693770416 82.88440491214696 l -10.582517362501813 -14.885635955316177 a39.26394895749148,39.26394895749148 0 0,0 0.552696002463676,-0.3858247342543456 l 10.325426268864371 15.065105505375648" fill="#ffb310" stroke="none" /><path d="M 88.12776184653039 82.6780497279521 l -11.347706773666824 -16.556643313105443 a41.07219187877904,41.07219187877904 0 0,0 0.5849926212826428,-0.39360914299015337 l 11.06181786428719 16.749002130152707" fill="#ffcc13" stroke="none" /><path d="M 88.4268655584334 82.4767994020092 l -9.819993628103866 -14.868721959905116 a38.818843048216266,38.818843048216266 0 0,0 0.5592027505354707,-0.36246846680113093 l 9.56330524531137 15.035104268410153" fill="#ffad10" stroke="none" /><path d="M 88.72937992617638 82.28071324371311 l -10.786992674551634 -16.958944156255452 a41.09888051250172,41.09888051250172 0 0,0 0.5985481870147163,-0.37353833712969353 l 10.49428035874722 17.14161829022668" fill="#ffcd13" stroke="none" /><path d="M 89.03521579738668 82.08984904055464 l -10.398494183874057 -16.985158772181872 a40.915428687534934,40.915428687534934 0 0,0 0.602172321844157,-0.3615871774513011 l 10.105389105472465 17.1611599501691" fill="#ffca12" stroke="none" /><line stroke="#e1ed5e" stroke-width="0.3" x1="56.869717070023135" x2="54.33264160355391" y1="26.7553504044142" y2="22.446841604673864" /><path d="M 56.362301976729285 25.89364864446614 a86.0,86.0 0 0,1 42.16139366436587,-11.88097634709845" fill="none" id="id60" stroke="none" /><text fill="#e1ed5e" style="font-size:6.75px; font-family:Arial;" text-anchor="middle"><textPath startOffset="22.145653131862474" xlink:href="#id60">December</textPath></text><path d="M 89.34428304082924 81.90426304109057 l -10.184112377302249 -17.294849276287174 a41.07057439145706,41.07057439145706 0 0,0 0.6105972702053654,-0.3525284983195165 l 9.885722639236484 17.467124671882864" fill="#ffcc13" stroke="none" /><path d="M 89.65649057296885 81.72400993836675 l -9.847903411130318 -17.400301719587716 a40.99379157457733,40.99379157457733 0 0,0 0.6154062401620427,-0.341355467523219 l 9.547752982812174 17.566790102544083" fill="#ffcb12" stroke="none" /><path d="M 89.97174638481275 81.54914285379989 l -9.5601258219929 -17.5895547330547 a41.01970133242408,41.01970133242408 0 0,0 0.6215679874796292,-0.33094994337677425 l 9.25676901872671 17.75107514415405" fill="#ffcc13" stroke="none" /><path d="M 90.28995756902619 81.37971332152246 l -9.123775888675036 -17.496043281478464 a40.73207584047192,40.73207584047192 0 0,0 0.6227600359749234,-0.31798571170973533 l 8.82208863098653 17.650086944861034" fill="#ffc812" stroke="none" /><path d="M 90.61103034731259 81.2157712731953 l -8.982210715642907 -17.970438375705978 a41.09021564730594,41.09021564730594 0 0,0 0.6336497710948591,-0.30994985563745264 l 8.672400695285996 18.121981981440644" fill="#ffcd13" stroke="none" /><path d="M 90.93487009805054 81.0573650232925 l -8.644266525194002 -18.063192386565607 a41.0250408976529,41.0250408976529 0 0,0 0.6378637555698112,-0.29855244523580543 l 8.332914055752669 18.208921063371957" fill="#ffcc13" stroke="none" /><path d="M 91.26138138417902 80.90454125486306 l -8.339120865922382 -18.222484063743668 a41.03995664341253,41.03995664341253 0 0,0 0.6431285561301701,-0.28766322289204227 l 8.025078906936592 18.362951037545557" fill="#ffcc13" stroke="none" /><path d="M 91.92203290615298 80.6158196554323 l -7.698039296826122 -18.47249193957566 a41.01231539510526,41.01231539510526 0 0,0 0.6521847505926668,-0.26523786037355296 l 7.379800085043015 18.601917056528507" fill="#ffcc13" stroke="none" /><path d="M 92.25597844496254 80.48000691201159 l -7.402176708521372 -18.658320765186307 a41.07299563594729,41.07299563594729 0 0,0 0.657613352156557,-0.254378971757956 l 7.080791093871286 18.782639625082304" fill="#ffcc13" stroke="none" /><path d="M 92.93061703081487 80.22567764915836 l -6.783104041635993 -18.973549239484473 a41.14959233291831,41.14959233291831 0 0,0 0.6671999367647538,-0.2320867721464071 l 6.456398332826235 19.087194444199465" fill="#ffcd13" stroke="none" /><path d="M 93.27111125876988 80.10723608172694 l -6.425371040815083 -18.995467768556985 a41.05276012818266,41.05276012818266 0 0,0 0.6695065190811024,-0.22008009091115927 l 6.09834178408622 19.10296878087017" fill="#ffcc13" stroke="none" /><path d="M 93.61358852112211 79.99465700312896 l -5.641387658356991 -17.671566490353378 a39.55018913474585,39.55018913474585 0 0,0 0.6485465762023316,-0.2009213871327314 l 5.337200449283043 17.76580446529275" fill="#ffb711" stroke="none" /><path d="M 93.95794788825049 79.88797359093562 l -5.779124991585899 -19.236827538451113 a41.08615989711532,41.08615989711532 0 0,0 0.6772172799082906,-0.19712808031091764 l 5.4480476992959845 19.33319931306455" fill="#ffcd13" stroke="none" /><path d="M 94.30408787586887 79.78721728523814 l -5.450999982034933 -19.343675922993643 a41.09704453440726,41.09704453440726 0 0,0 0.6806817359848903,-0.18552283399990913 l 5.118136845115364 19.43439925113769" fill="#ffcd13" stroke="none" /><path d="M 94.6519064749342 79.69241777938228 l -5.1041503229982235 -19.381290148512036 a41.04212459647361,41.04212459647361 0 0,0 0.6828524327996378,-0.17357841814400254 l 4.770692596973208 19.466053798491302" fill="#ffcc13" stroke="none" /><path d="M 95.00130118170881 79.60360301121753 l -4.656815101224208 -19.00139475504467 a40.563714614664285,40.563714614664285 0 0,0 0.6777382468169695,-0.15994438086323312 l 4.329944700667332 19.078535279554135" fill="#ffc512" stroke="none" /><path d="M 95.35216902796891 79.52079915486377 l -4.450412387131886 -19.609338133896827 a41.10801612454688,41.10801612454688 0 0,0 0.689513726537748,-0.1502763074712968 l 4.113136243975019 19.68284589950184" fill="#ffcd13" stroke="none" /><path d="M 95.70440661134978 79.44403061299748 l -4.0534236018150605 -19.397099290546645 a40.816097087546694,40.816097087546694 0 0,0 0.6870777984455534,-0.1374348024251171 l 3.7198493178385306 19.46382348963463" fill="#ffc912" stroke="none" /><path d="M 96.41257539226777 79.30868818359171 l -3.422164410563238 -19.738134915325976 a41.03260290597645,41.03260290597645 0 0,0 0.6950580934259848,-0.11437154477262228 l 3.0828288140841806 19.793972458594265" fill="#ffcc13" stroke="none" /><path d="M 97.12497278360702 79.19773525538626 l -2.7400478725193147 -19.82562145222881 a41.01407325635571,41.01407325635571 0 0,0 0.6982590858925156,-0.09040361830270409 l 2.399310964736005 19.869736666731907" fill="#ffcc13" stroke="none" /><path d="M 97.48249496171623 79.15144685158666 l -2.3748304238614923 -19.66700267027003 a40.80986657134537,40.80986657134537 0 0,0 0.6962242882368919,-0.07801338368184059 l 2.036870234023801 19.70487181445884" fill="#ffc912" stroke="none" /><path d="M 97.84075906011542 79.11130261209362 l -2.0633136875851856 -19.96068824009795 a41.067046080371696,41.067046080371696 0 0,0 0.7018562270825279,-0.06646651442188384 l 1.7203578971176419 19.99316651002502" fill="#ffcc13" stroke="none" /><path d="M 98.1996594967304 79.07731436759882 l -1.7040070286859466 -19.803144633945568 a40.87632202764833,40.87632202764833 0 0,0 0.6996294055375987,-0.05415574075421204 l 1.3638086283731305 19.829478141694832" fill="#ffca12" stroke="none" /><path d="M 98.5590905019552 79.04949213459386 l -1.3739734305621965 -19.97727213465642 a41.02446515964935,41.02446515964935 0 0,0 0.7029945470687602,-0.042290406262197835 l 1.0308345313609524 19.99791451874331" fill="#ffcc13" stroke="none" /><path d="M 98.9189461498227 79.02784411241856 l -1.0334673979731834 -20.048991427644623 a41.07560988185517,41.07560988185517 0 0,0 0.7044941212883155,-0.030254008819759707 l 0.6891475160840478 20.06377800489021" fill="#ffcc13" stroke="none" /><path d="M 99.27912038922189 79.0123766808444 l -0.8828557685877897 -25.70338242229378 a46.7185400490543,46.7185400490543 0 0,0 0.8017495152253288,-0.0206502235108838 l 0.44149293929171707 25.71475036315471" fill="#e6ff1a" stroke="none" /></svg>