<?xml version="1.0" encoding="utf-8" ?>
<svg baseProfile="full" height="200mm" version="1.1" viewBox="0,0,200,200" width="200mm" xmlns="http://www.w3.org/2000/svg" xmlns:ev="http://www.w3.org/2001/xml-events" xmlns:xlink="http://www.w3.org/1999/xlink"><defs /><rect fill="#1a1a1a" height="200" width="200" x="0" y="0" /><text alignment-baseline="middle" fill="#e1ed5e" style="dominant-baseline: central; font-size:9.0px; font-family:Arial;" text-anchor="middle" x="100.0" y="100.0">2019</text><line stroke="#e1ed5e" stroke-width="0.3" x1="100.0" x2="100.0" y1="15.0" y2="10.0" /><path d="M 100.0 14.0 a86.0,86.0 0 0,1 42.46469731375804,11.215312516191453" fill="none" id="id37" stroke="none" /><text fill="#e1ed5e" style="font-size:6.75px; font-family:Arial;" text-anchor="middle"><textPath startOffset="22.20632615414155" xlink:href="#id37">January</textPath></text><path d="M 100.0 79.0 l 0.0 -15.207761005494241 a36.20776100549424,36.20776100549424 0 0,0 0.6232570857929154,0.005364570506704035 l -0.261776606520387 15.205507811596096" fill="#ff6509" stroke="none" /><path d="M 101.80526077348638 79.07773832637324 l 1.2884249519795647 -14.932337969149303 a35.987820257855425,35.987820257855425 0 0,0 0.616719630552136,0.058564960066564184 l -1.545269709621945 14.907947464567561" fill="#ff6209" stroke="none" /><path d="M 103.2404852339499 79.25152402106235 l 1.7181205538712645 -11.000939818344525 a32.13429904055361,32.13429904055361 0 0,0 0.5457793309030969,0.09005826601677207 l -1.9072290909132366 10.969735289388128" fill="#ff2403" stroke="none" /><path d="M 103.95276090670814 79.375362276772 l 2.90975819988743 -15.182478817027434 a36.458795419155365,36.458795419155365 0 0,0 0.6153438936626076,0.12343219621392122 l -3.1706685030171626 15.130142664736304" fill="#ff6909" stroke="none" /><path d="M 104.66035177308747 79.52364482259891 l 3.4794919321661064 -15.287968829171355 a36.67893028965063,36.67893028965063 0 0,0 0.614418041116758,0.14541289928159656 l -3.742133660245388 15.22581001774889" fill="#ff6d0a" stroke="none" /><path d="M 105.01212808612495 79.60689891045804 l 3.737669025175532 -15.20764452940881 a36.66022419617977,36.66022419617977 0 0,0 0.6115119368921879,0.15588800859506802 l -3.9988898507527444 15.141053524644875" fill="#ff6c0a" stroke="none" /><path d="M 105.36241919743992 79.69619591428918 l 4.014534724545446 -15.200289932828765 a36.72149175799284,36.72149175799284 0 0,0 0.6097553184222003,0.1666691621653831 l -4.275587932191358 15.128934229837087" fill="#ff6d0a" stroke="none" /><path d="M 105.71112130821622 79.79150937346287 l 2.9284237701861384 -10.362067467416265 a31.767920318105894,31.767920318105894 0 0,0 0.5249418625221639,0.1532449245238857 l -3.1063558504317292 10.310124213973676" fill="#ff1e03" stroke="none" /><path d="M 106.0581310904928 79.89281104454417 l 4.323741723710854 -14.35067854006615 a35.98788567656136,35.98788567656136 0 0,0 0.591597359083972,0.1838121792157734 l -4.570124455505544 14.274126225967857" fill="#ff6209" stroke="none" /><path d="M 106.40334571778207 80.00007090966166 l 4.526230624590118 -14.137030160176192 a35.84393429710293,35.84393429710293 0 0,0 0.5859923029814094,0.19319244909455777 l -4.768905749813944 14.057023986822397" fill="#ff6008" stroke="none" /><path d="M 106.74666289553966 80.11325718540242 l 5.139441259526161 -15.149229792776374 a36.997281637030184,36.997281637030184 0 0,0 0.6013256201646566,0.20979070153738616 l -5.399448883754092 15.05851823806678" fill="#ff720a" stroke="none" /><path d="M 107.4271985657038 80.35727306442388 l 5.278605200313242 -13.960337754971512 a35.92496911533344,35.92496911533344 0 0,0 0.5765390185111613,0.2236881821112674 l -5.51812738382407 13.867406868969697" fill="#ff6108" stroke="none" /><path d="M 107.76421540070413 80.48803036053334 l 5.608724062985896 -14.095082115213089 a36.17000743076011,36.17000743076011 0 0,0 0.5765088059134902,0.2351724172061589 l -5.850516738487774 13.99644881182335" fill="#ff6509" stroke="none" /><path d="M 108.09893153111575 80.62456947434976 l 5.927686024673487 -14.181064293194055 a36.370102344968714,36.370102344968714 0 0,0 0.5755417019076975,0.24641692046113128 l -6.1709114843715 14.076927844770132" fill="#ff6809" stroke="none" /><path d="M 108.43124777332544 80.76684994638697 l 6.172219382463579 -14.07991138895435 a36.37335997191458,36.37335997191458 0 0,0 0.5712659300086705,0.2563103707927215 l -6.41366743093903 13.971580687645098" fill="#ff6809" stroke="none" /><path d="M 109.08828744355905 81.06846463323043 l 14.195747842538303 -29.570730900376628 a53.80163689195129,53.80163689195129 0 0,0 0.8314370025385601,0.4079825262544142 l -14.702656112087295 29.32199321398738" fill="#9fff22" stroke="none" /><path d="M 109.41281617654863 81.2277094730956 l 6.702172452765863 -13.366364123650461 a35.952551804712925,35.952551804712925 0 0,0 0.5508264994089687,0.2821547272145828 l -6.931259439763588 13.249016871123377" fill="#ff6109" stroke="none" /><path d="M 109.73455568895987 81.39251694778311 l 6.979054080773955 -13.340375737516819 a36.05565743102888,36.05565743102888 0 0,0 0.5474535701219936,0.2924307376413967 l -7.20765269742426 13.218266273373668" fill="#ff6309" stroke="none" /><path d="M 110.05341064243156 81.56283822128135 l 7.205776915579863 -13.214826237493629 a36.051739216590676,36.051739216590676 0 0,0 0.5422798078846675,0.3017781259739268 l -7.432180812536565 13.088832713959523" fill="#ff6309" stroke="none" /><path d="M 110.36928655335952 81.73862282372117 l 7.400284690954122 -13.032660372335041 a35.98714281935693,35.98714281935693 0 0,0 0.5360426601491307,0.3105105079180004 l -7.62352408356858 12.903345707026991" fill="#ff6209" stroke="none" /><line stroke="#e1ed5e" stroke-width="0.3" x1="143.23703022742887" x2="145.7803849466894" y1="26.81831364943548" y2="22.513508569990506" /><path d="M 143.74570117128098 25.957352633546492 a86.0,86.0 0 0,1 28.547481713284135,27.462654790039103" fill="none" id="id38" stroke="none" /><text fill="#e1ed5e" style="font-size:6.75px; font-family:Arial;" text-anchor="middle"><textPath startOffset="19.985693538727396" xlink:href="#id38">February</textPath></text><path d="M 110.99172775467656 82.1063720568725 l 8.595466454779412 -13.99271180766083 a37.42187648557524,37.42187648557524 0 0,0 0.5459688684510006,0.3418856553367363 l -8.835054475602677 13.842681811001151" fill="#ff780b" stroke="none" /><path d="M 112.19680574252982 82.90503203632743 l 8.72016056689211 -12.22212345395457 a36.01404349387887,36.01404349387887 0 0,0 0.5015464617534876,0.36439483423452074 l -8.929252344999385 12.070209384903373" fill="#ff6209" stroke="none" /><path d="M 112.48926042617603 83.11751280151076 l 8.888582102364175 -12.01523296298416 a35.94565873239617,35.94565873239617 0 0,0 0.4942593911746649,0.3722659263609733 l -9.094087647297224 11.860450447117339" fill="#ff6109" stroke="none" /><path d="M 112.77801427241765 83.33499621200491 l 9.129192600077316 -11.906234100084486 a36.003351891338184,36.003351891338184 0 0,0 0.48856110448431117,0.3813296914778343 l -9.332786259721058 11.747326019383427" fill="#ff6209" stroke="none" /><path d="M 113.06298171725822 83.55741782278167 l 9.45477579676365 -11.90087618358014 a36.19946180968171,36.19946180968171 0 0,0 0.4845497946902868,0.3918055691266975 l -9.658228990018427 11.736364517189314" fill="#ff6509" stroke="none" /><path d="M 113.34407831869373 83.78471172551755 l 9.844823945354044 -11.96310861438878 a36.493112219134005,36.493112219134005 0 0,0 0.4816090954494347,0.40333376710278435 l -10.049290577762596 11.791873689892176" fill="#ff6a09" stroke="none" /><path d="M 113.6212207817346 84.01681056812373 l 8.497716448235483 -9.971251028589693 a34.10103171165397,34.10103171165397 0 0,0 0.44348586823790703,0.3845865747535984 l -8.668096115120154 9.823499460416423" fill="#ff4406" stroke="none" /><path d="M 113.89432698308785 84.25364557470407 l 8.717355768031405 -9.879325118942507 a34.17548315593014,34.17548315593014 0 0,0 0.43775378393064407,0.393019669425967 l -8.88612053955804 9.727806440747242" fill="#ff4506" stroke="none" /><path d="M 114.16331599549186 84.49514656593476 l 7.7676028673760085 -8.503343710683586 a32.5170529462745,32.5170529462745 0 0,0 0.4100123458285255,0.3810617906879168 l -7.9128230969993805 8.368377333921028" fill="#ff2a04" stroke="none" /><path d="M 114.42810811169701 84.74124197986012 l 6.687085141905683 -7.072071629244966 a30.73300081291825,30.73300081291825 0 0,0 0.3812600802780179,0.36677189515548747 l -6.80782846579612 6.955916647327176" fill="#ff0d01" stroke="none" /><path d="M 114.68862486808459 84.99185889309783 l 7.547266414027682 -7.71143931650299 a31.790158787358894,31.790158787358894 0 0,0 0.3877857423008358,0.3861204670854929 l -7.67888795649584 7.580382998767379" fill="#ff1e03" stroke="none" /><path d="M 115.19652480421416 85.50635884689758 l 24.52322595397295 -23.388955137609276 a54.88852067616278,54.88852067616278 0 0,0 0.6462017123736828,0.6893229316488264 l -24.9221949883171 22.963362789082396" fill="#91ff24" stroke="none" /><path d="M 115.4437574822437 85.77008943001954 l 10.95982761885654 -10.098408179359263 a35.90287452782183,35.90287452782183 0 0,0 0.41486003925431014,0.4580988170829031 l -11.132031298726886 9.90825657500681" fill="#ff6008" stroke="none" /><path d="M 115.9244219780498 86.31012108654704 l 9.972756706374962 -8.573361842067872 a34.15136531313659,34.15136531313659 0 0,0 0.3793881458323323,0.44907589948426824 l -10.118855465694411 8.400426992954497" fill="#ff4506" stroke="none" /><path d="M 116.15771136456269 86.58626213691792 l 11.50096365741885 -9.547819501949954 a35.94767615019422,35.94767615019422 0 0,0 0.39114753365087107,0.47950062645098673 l -11.663609683146131 9.348434705890867" fill="#ff6109" stroke="none" /><path d="M 116.38621287248628 86.86637796730983 l 10.271967052715167 -8.233026987531 a34.16419539924411,34.16419539924411 0 0,0 0.3638420424205434,0.4620424451361876 l -10.412163175729676 8.054992148441775" fill="#ff4506" stroke="none" /><path d="M 116.82858285166822 87.43820079747576 l 15.388526563949952 -11.486860327035036 a40.20298700677071,40.20298700677071 0 0,0 0.4091848291417045,0.5581276470981249 l -15.583974005605283 11.220270236265417" fill="#ffa30f" stroke="none" /><path d="M 117.2510076193507 88.02491185347247 l 10.718350128214377 -7.440329886976355 a34.04766409354666,34.04766409354666 0 0,0 0.33006054336072577,0.4843231200499744 l -10.844835137243836 7.254728743655974" fill="#ff4306" stroke="none" /><path d="M 117.45458315368197 88.32363383020206 l 10.666495821889153 -7.135427404276061 a33.833100068185885,33.833100068185885 0 0,0 0.3196476614190524,0.48684531810673815 l -10.78774011866613 6.950764022191648" fill="#ff4006" stroke="none" /><path d="M 117.65298651832404 88.62581576622439 l 12.509868719212363 -8.060367088875838 a35.881744957475945,35.881744957475945 0 0,0 0.33006490115834225,0.5220834083750331 l -12.64676121661666 7.843836032786599" fill="#ff6008" stroke="none" /><line stroke="#e1ed5e" stroke-width="0.3" x1="172.23445277983987" x2="176.4835382374775" y1="55.19839476539836" y2="52.563006222186495" /><path d="M 173.08426987136738 54.67131705675599 a86.0,86.0 0 0,1 12.851231095245387,41.99856678651699" fill="none" id="id39" stroke="none" /><text fill="#e1ed5e" style="font-size:6.75px; font-family:Arial;" text-anchor="middle"><textPath startOffset="22.20632615414155" xlink:href="#id39">March</textPath></text><path d="M 118.03404312379186 89.2402003453031 l 10.179365296764583 -6.073398541487554 a32.853507822105584,32.853507822105584 0 0,0 0.285575714887562,0.48814146747091813 l -10.282400686122472 5.897277661662741" fill="#ff3004" stroke="none" /><path d="M 118.3937258080291 89.86733742301442 l 10.33916601500354 -5.695598686794442 a32.804160210994205,32.804160210994205 0 0,0 0.2682004104841715,0.49693462804409333 l -10.435674524706176 5.51678307541789" fill="#ff2f04" stroke="none" /><path d="M 119.04729006885535 91.15688171328212 l 13.441135252185134 -6.240339098799145 a35.81910756204756,35.81910756204756 0 0,0 0.254823413248122,0.5614696129688045 l -13.546560982396604 6.008047476988278" fill="#ff5f08" stroke="none" /><path d="M 119.196687751892 91.48605970444005 l 14.229311299875793 -6.310854685967311 a36.565994569450694,36.565994569450694 0 0,0 0.25023205349867383,0.5775700798918302 l -14.335834063217147 6.064985461488878" fill="#ff6b09" stroke="none" /><path d="M 119.61058180528143 92.48833698450437 l 12.04585579912161 -4.614060428940797 a33.899309887554026,33.899309887554026 0 0,0 0.20403415346420548,0.5467100918851097 l -12.12349454108744 4.406027200026354" fill="#ff4106" stroke="none" /><path d="M 119.7369772167798 92.82701384747503 l 11.92633653924891 -4.334374301939966 a33.68953520964189,33.68953520964189 0 0,0 0.19338903230817983,0.5467368363823856 l -11.999178652366899 4.128439839130966" fill="#ff3d05" stroke="none" /><path d="M 120.18372546131832 94.20196356495316 l 60.551176383954946 -17.394109305140535 a84.0,84.0 0 0,0 0.3872529177345476,1.3931547863241924 l -60.84161607225586 16.349243215397394" fill="#4dd2ff" stroke="none" /><path d="M 120.37134235888165 94.90015583598534 l 10.417120629041277 -2.607864072476825 a31.73859195707299,31.73859195707299 0 0,0 0.1281138839935979,0.5311147590500687 l -10.460467313295695 2.4281640817673504" fill="#ff1d03" stroke="none" /><path d="M 120.45610955862082 95.25157060432595 l 10.464690609869617 -2.429144425832325 a31.742927543358263,31.742927543358263 0 0,0 0.11896888431666272,0.5333141809376444 l -10.504953881188317 2.248652075344717" fill="#ff1d03" stroke="none" /><path d="M 120.53481517161879 95.60439243477599 l 10.093723428849815 -2.1606255860755117 a31.322381294125684,31.322381294125684 0 0,0 0.1083168277713494,0.5281913201515087 l -10.129419552536161 1.9865586097605912" fill="#ff1702" stroke="none" /><path d="M 120.78858239683441 97.02765380044208 l 10.886221097846066 -1.5565091111098168 a31.99693277255784,31.99693277255784 0 0,0 0.07326383550390586,0.5459006725046428 l -10.911400932407808 1.3688900965405097" fill="#ff2203" stroke="none" /><path d="M 120.87857604477298 97.74499172005257 l 10.846723304234915 -1.1715095324938105 a31.909804811423378,31.909804811423378 0 0,0 0.054281426037290095,0.5466065524340163 l -10.865281855954434 0.9846274493553593" fill="#ff2003" stroke="none" /><line stroke="#e1ed5e" stroke-width="0.3" x1="184.98032266829074" x2="189.97916517819016" y1="98.17113171792111" y2="98.06355123074" /><path d="M 185.9800911702706 98.14961562048488 a86.0,86.0 0 0,1 -9.607161424134198,41.387399972396054" fill="none" id="id40" stroke="none" /><text fill="#e1ed5e" style="font-size:6.75px; font-family:Arial;" text-anchor="middle"><textPath startOffset="21.466115282336823" xlink:href="#id40">April</textPath></text><path d="M 120.99824983174949 100.27111621757518 l 10.769953912765352 0.139054882748994 a31.770851570024817,31.770851570024817 0 0,0 -0.011767223426456452,0.5467766342108376 l -10.765964626653888 -0.3244213327499464" fill="#ff1e03" stroke="none" /><path d="M 120.9764740272857 100.99374915477107 l 10.970872259297135 0.5197391621011421 a31.98317654080262,31.98317654080262 0 0,0 -0.030785557528475647,0.5496968102387163 l -10.96030035088113 -0.7085076886752818" fill="#ff2103" stroke="none" /><path d="M 120.92983693683757 101.71520430193887 l 14.841188194011089 1.2162383258442366 a35.89094028848771,35.89094028848771 0 0,0 -0.0557598293765378,0.615305070778453 l -14.818053768357476 -1.4715247851712603" fill="#ff6008" stroke="none" /><path d="M 120.8583938346157 102.4346265915055 l 11.198106056902152 1.3070616556960404 a32.27412920954073,32.27412920954073 0 0,0 -0.0691565288000737,0.5512455782522311 l -11.17394801885523 -1.4996249882356663" fill="#ff2603" stroke="none" /><path d="M 120.76222939487914 103.15116336523771 l 8.97213619391147 1.3617355990272568 a30.074885769184885,30.074885769184885 0 0,0 -0.08208760428925382,0.5111595902679208 l -8.94736683526093 -1.5159744189883826" fill="#ff0200" stroke="none" /><path d="M 120.64145759157962 103.86396538481128 l 9.113527390590566 1.7060013429059677 a30.271829489428796,30.271829489428796 0 0,0 -0.10028634316803947,0.5113579032340307 l -9.082811114446862 -1.8626229732079436" fill="#ff0500" stroke="none" /><path d="M 120.5718875245553 104.21870165774334 l 9.29513094857895 1.9061636563443682 a30.488567817958533,30.488567817958533 0 0,0 -0.10985460913623053,0.5132041614019651 l -9.260942300718277 -2.0658816371625024" fill="#ff0901" stroke="none" /><path d="M 120.41448212921028 104.9243191809786 l 8.833935946450902 2.1308951140328207 a30.087306437718844,30.087306437718844 0 0,0 -0.12577738516995673,0.5024181312013097 l -8.795947246985884 -2.2826410846315266" fill="#ff0200" stroke="none" /><path d="M 120.32669344350535 105.2749913415812 l 9.30174511415278 2.413900965994479 a30.609858481907743,30.609858481907743 0 0,0 -0.13674141462351105,0.508865672868921 l -9.258815623187491 -2.5736575720389485" fill="#ff0b01" stroke="none" /><path d="M 120.23288151984713 105.62410040840565 l 8.717905708313472 2.423301743079563 a30.048440267640444,30.048440267640444 0 0,0 -0.1428121708951782,0.4971479020827986 l -8.674900900532196 -2.5730071206669436" fill="#ff0100" stroke="none" /><path d="M 120.02730092923936 106.31721596034902 l 8.793591050618252 2.7737643694485477 a30.220683941158363,30.220683941158363 0 0,0 -0.1607564083722026,0.4947573515425535 l -8.744542391229803 -2.9247206209688965" fill="#ff0400" stroke="none" /><path d="M 119.9155931802556 106.66101706037122 l 8.565462099914086 2.8648249972315707 a30.03185270306306,30.03185270306306 0 0,0 -0.16819148769726355,0.48884319193849207 l -8.514879781273592 -3.011840892259363" fill="#ff0100" stroke="none" /><path d="M 119.79798401119884 107.00284435728193 l 8.460754855638259 2.9926960929778152 a29.97444163344612,29.97444163344612 0 0,0 -0.17624363484025993,0.48494678945116476 l -8.407986959792773 -3.1378906794351114" fill="#ff0000" stroke="none" /><line stroke="#e1ed5e" stroke-width="0.3" x1="174.80103733775053" x2="179.2010983576182" y1="140.37084112569926" y2="142.7455964860345" /><path d="M 175.68104954172406 140.8457921977663 a86.0,86.0 0 0,1 -30.038265399797805,32.042727171017184" fill="none" id="id41" stroke="none" /><text fill="#e1ed5e" style="font-size:6.75px; font-family:Arial;" text-anchor="middle"><textPath startOffset="22.206326154141568" xlink:href="#id41">May</textPath></text><path d="M 118.30583269289576 110.29060199501025 l 7.82034995452378 4.396200391088046 a29.97131268487632,29.97131268487632 0 0,0 -0.25668003614608914,0.44754327864534055 l -7.743517922225311 -4.530163515591702" fill="#ff0000" stroke="none" /><path d="M 114.81725581225074 114.88116024355365 l 6.4820040996183055 6.509959936443825 a30.18672713873511,30.18672713873511 0 0,0 -0.3713686854243391,0.3634624214349322 l -6.3689854618181725 -6.62057246080133" fill="#ff0400" stroke="none" /><path d="M 114.29624159901734 115.38237550388516 l 6.678506779425679 7.185895563868327 a30.81017573021285,30.81017573021285 0 0,0 -0.3915833230189954,0.35770208122687625 l -6.55382390693982 -7.299790411681785" fill="#ff0e01" stroke="none" /><path d="M 112.92097659922987 116.55440617244103 l 6.1915156884466604 7.932594316105792 a31.062848458771256,31.062848458771256 0 0,0 -0.42433518257055375,0.3253621234146641 l -6.054051777382613 -8.037995781347828" fill="#ff1202" stroke="none" /><path d="M 112.63410532772338 116.77436683061366 l 5.611231457102594 7.450060957334027 a30.32680688838203,30.32680688838203 0 0,0 -0.41968694671322054,0.31047436988058946 l -5.48215953997081 -7.545545275954385" fill="#ff0601" stroke="none" /><path d="M 112.34349029814194 116.9893568818739 l 5.620628996948234 7.736132133075574 a30.56238519940186,30.56238519940186 0 0,0 -0.42827022666379455,0.30555943544484404 l -5.486631442435555 -7.831735830364637" fill="#ff0a01" stroke="none" /><path d="M 111.45004920935366 117.60387380957326 l 5.807626760741489 8.928933558265898 a31.65149675303934,31.65149675303934 0 0,0 -0.4592755739573133,0.29313140117124836 l -5.653069384737245 -9.027579388260955" fill="#ff1c02" stroke="none" /><line stroke="#e1ed5e" stroke-width="0.3" x1="143.8653032363475" x2="146.44561519142675" y1="172.8068346515853" y2="177.08958963109032" /><path d="M 144.38136562736335 173.6633856474863 a86.0,86.0 0 0,1 -40.68145358897372,12.25698825130547" fill="none" id="id42" stroke="none" /><text fill="#e1ed5e" style="font-size:6.75px; font-family:Arial;" text-anchor="middle"><textPath startOffset="21.466115282336833" xlink:href="#id42">June</textPath></text><path d="M 108.2653958097858 119.30500536409082 l 5.882174320028285 13.738653225320387 a35.944917770827864,35.944917770827864 0 0,0 -0.5708883791708567,0.23863138879383658 l -5.644814481359967 -13.837869657134197" fill="#ff6109" stroke="none" /><path d="M 107.93186726928326 119.44442032107085 l 3.7081237951164336 9.090207290032428 a30.817436053047018,30.817436053047018 0 0,0 -0.49290129812600136,0.19613559884780546 l -3.551101420948566 -9.152689733286303" fill="#ff0e01" stroke="none" /><path d="M 106.2309692047433 120.05430185196036 l 2.9274616911741353 9.42200137502927 a30.86631348905687,30.86631348905687 0 0,0 -0.5087430259683425,0.1532801004415838 l -2.764843690765547 -9.470996844576579" fill="#ff0f01" stroke="none" /><path d="M 105.53697534728816 120.25689768951611 l 4.36060172636744 15.953161698474064 a37.53838612421595,37.53838612421595 0 0,0 -0.6247630815164641,0.16500560821178287 l -4.085348202039478 -16.02585865598943" fill="#ff7a0b" stroke="none" /><path d="M 103.06178313531738 120.77559828337769 l 1.486480778922978 10.08645163749161 a31.19539757643441,31.19539757643441 0 0,0 -0.5319133313657526,0.07371834092197953 l -1.312638856370395 -10.110544543906192" fill="#ff1402" stroke="none" /><path d="M 102.70371172650421 120.8252237178851 l 1.2912102421044833 9.945491560750748 a31.028959381425366,31.028959381425366 0 0,0 -0.5302591720593414,0.06420700114868579 l -1.1198236469937617 -9.966244090624786" fill="#ff1202" stroke="none" /><path d="M 102.34483914955558 120.86867818915974 l 1.3610584389696367 12.113193591501025 a33.18941914364552,33.18941914364552 0 0,0 -0.5682777743642344,0.05890431486048622 l -1.1523480679997997 -12.134827274817269" fill="#ff3505" stroke="none" /><path d="M 101.98527174616119 120.90594882070398 l 0.9457616728025698 9.959364588966729 a31.004169538632716,31.004169538632716 0 0,0 -0.5317298968115799,0.045879892899623756 l -0.7741874582494483 -9.974168734145017" fill="#ff1101" stroke="none" /><path d="M 101.26447882468166 120.96189622390904 l 0.5610787616417164 9.30128250896886 a30.31819004358762,30.31819004358762 0 0,0 -0.5212013499925132,0.026940156420649123 l -0.40088934323572367 -9.309562472151711" fill="#ff0600" stroke="none" /><path d="M 100.90346689309514 120.98055641714683 l 0.40094940623818315 9.310957271697013 a30.319586135753575,30.319586135753575 0 0,0 -0.521611876975959,0.01796536771069495 l -0.24061717758757184 -9.316479437833802" fill="#ff0600" stroke="none" /><line stroke="#e1ed5e" stroke-width="0.3" x1="102.19456741930631" x2="102.32365962044197" y1="184.97166512339345" y2="189.96999836594603" /><path d="M 102.22038585953345 185.97133177190398 a86.0,86.0 0 0,1 -42.740103519485714,-10.115201625700543" fill="none" id="id43" stroke="none" /><text fill="#e1ed5e" style="font-size:6.75px; font-family:Arial;" text-anchor="middle"><textPath startOffset="22.20632615414155" xlink:href="#id43">July</textPath></text><path d="M 99.45781275523022 120.99299961872073 l -0.4986210527732332 19.30615607749916 a40.31259395946144,40.31259395946144 0 0,0 -0.6935295127979589,-0.02388655869545775 l 0.8308709172458352 -19.294712720377607" fill="#ffa40f" stroke="none" /><path d="M 97.2962882734958 120.8252237178851 l -1.9449621554735257 14.98098765985189 a36.10671602469772,36.10671602469772 0 0,0 -0.6156563178371683,-0.08532435577908332 l 2.202547064497525 -14.945288738580201" fill="#ff6409" stroke="none" /><path d="M 96.93821686468263 120.77559828337769 l -2.1628088977920226 14.67564711097164 a35.83416193973015,35.83416193973015 0 0,0 -0.6094608334531554,-0.09518524799028893 l 2.4151055948536952 -14.636243555634247" fill="#ff5f08" stroke="none" /><path d="M 96.22490169976321 120.6578951692458 l -5.809434761326773 31.79008458787239 a53.316543910978375,53.316543910978375 0 0,0 -0.9013857032146486,-0.17275271533713765 l 6.3557880791131165 -31.685374674186782" fill="#a5ff21" stroke="none" /><path d="M 95.51606077576429 120.51570834832081 l -3.213604238251257 14.703448017881668 a36.05053606402957,36.05053606402957 0 0,0 -0.6050994079122076,-0.13771865520627888 l 3.4662237955563273 -14.645952629097701" fill="#ff6309" stroke="none" /><path d="M 94.81253420990036 120.34920634021253 l -3.7291619607935087 14.628623934462816 a36.096466048243464,36.096466048243464 0 0,0 -0.6007647554567469,-0.1586674321820205 l 3.9804171590617448 -14.562265152977213" fill="#ff6409" stroke="none" /><path d="M 94.46302465271185 120.25689768951611 l -4.289646467140854 15.693573505185485 a37.269275219742084,37.269275219742084 0 0,0 -0.6173723445847303,-0.17447559134531374 l 4.559149979830199 -15.61740912050165" fill="#ff760a" stroke="none" /><path d="M 93.76903079525671 120.05430185196036 l -11.365809795961775 36.580726521112055 a59.30575916400002,59.30575916400002 0 0,0 -0.9722717615877412,-0.3112907147301306 l 11.993802902640457 -36.37966295972222" fill="#5cff2a" stroke="none" /><path d="M 93.08242187328487 119.8279376855182 l -5.3314746146945655 15.281670043426645 a37.184994929974366,37.184994929974366 0 0,0 -0.6025393529882411,-0.21604917465823212 l 5.593733528312534 -15.187633327728456" fill="#ff750a" stroke="none" /><path d="M 92.40401165467489 119.57807347666478 l -5.935729701353903 15.298885009776079 a37.41002040309171,37.41002040309171 0 0,0 -0.5983446380115512,-0.2380936798907924 l 6.198195415407312 -15.19444448547922" fill="#ff780b" stroke="none" /><path d="M 91.7346041902142 119.30500536409082 l -5.828928804361841 13.614290764137655 a35.80963618786103,35.80963618786103 0 0,0 -0.5645633423727948,-0.24748797830896954 l 6.062412821392378 -13.511938232534233" fill="#ff5f08" stroke="none" /><path d="M 91.40352486487194 119.15986991738527 l -13.243814499471116 29.51788483432491 a53.35280741433222,53.35280741433222 0 0,0 -0.8346716548221642,-0.3831568186693981 l 13.749954150060699 -29.285540945321436" fill="#a5ff21" stroke="none" /><path d="M 90.7491055286396 118.85261126421891 l -7.4370598518196935 15.156155847324012 a37.88250334837586,37.88250334837586 0 0,0 -0.5829325202010668,-0.2922944671094254 l 7.696846279703521 -15.025893539305285" fill="#ff7f0b" stroke="none" /><path d="M 90.42595943632237 118.69057910512821 l -6.882211436347638 13.43555173113478 a36.095657805295964,36.095657805295964 0 0,0 -0.5505603606822288,-0.2880271596193387 l 7.112462699556362 -13.315095152570724" fill="#ff6409" stroke="none" /><path d="M 90.10565033884886 118.52300852407294 l -7.767796371700548 14.541931843303413 a37.48655337562967,37.48655337562967 0 0,0 -0.566541757290165,-0.308923737855201 l 8.016960940859354 -14.406067453688447" fill="#ff790b" stroke="none" /><line stroke="#e1ed5e" stroke-width="0.3" x1="58.666819895761336" x2="56.23545636021788" y1="174.27360380694188" y2="178.64263932499728" /><path d="M 58.180547188652646 175.14741091055294 a86.0,86.0 0 0,1 -31.652253787137756,-30.449443065178592" fill="none" id="id44" stroke="none" /><text fill="#e1ed5e" style="font-size:6.75px; font-family:Arial;" text-anchor="middle"><textPath startOffset="22.20632615414155" xlink:href="#id44">August</textPath></text><path d="M 89.7882731507175 118.34994917583269 l -7.867682032248947 14.137820914542404 a37.179567385200556,37.179567385200556 0 0,0 -0.5565448977558982,-0.3160207178754005 l 8.109875696926052 -14.000297030872371" fill="#ff740a" stroke="none" /><path d="M 89.4739219176387 118.17145234162733 l -7.910563263181592 13.656218603699166 a36.78193010036534,36.78193010036534 0 0,0 -0.5451294482296162,-0.3220720866974613 l 8.14446058243959 -13.518027944707956" fill="#ff6e0a" stroke="none" /><path d="M 89.1626897886671 117.98757091392108 l -17.028496447458675 28.263589528498272 a53.99697235045285,53.99697235045285 0 0,0 -0.7920090773628329,-0.4865166630978504 l 17.51248472475382 -27.966284398572043" fill="#9cff22" stroke="none" /><path d="M 88.54995079064634 117.60387380957326 l -8.840343120560167 13.591582174209265 a37.21366005834335,37.21366005834335 0 0,0 -0.5339722537175696,-0.35388769314695856 l 9.072990073017698 -13.437396459970987" fill="#ff750a" stroke="none" /><path d="M 87.65650970185807 116.9893568818739 l -9.345919622759059 12.863554798942342 a36.90022816378637,36.90022816378637 0 0,0 -0.5106552809228811,-0.37777056878317794 l 9.565959874100503 -12.700774281419399" fill="#ff700a" stroke="none" /><path d="M 87.07902340077011 116.55440617244103 l -27.13664580424225 34.76757761699445 a65.10421747246664,65.10421747246664 0 0,0 -0.8774886165753021,-0.6971300268948742 l 27.731091913534907 -34.295313676094445" fill="#32ff4a" stroke="none" /><path d="M 86.51685102203217 116.09983520530335 l -9.276503691613646 11.076802678692772 a35.44815138082436,35.44815138082436 0 0,0 -0.46442905887559355,-0.39579651954704365 l 9.465798227066298 -10.915481768922776" fill="#ff5908" stroke="none" /><path d="M 86.24171649860922 115.8653595955263 l -10.160749965077253 11.716865111835084 a36.508893187515206,36.508893187515206 0 0,0 -0.47123879454250384,-0.4158134461886178 l 10.360931112526345 -11.540228523874177" fill="#ff6a09" stroke="none" /><path d="M 85.70375840098266 115.38237550388516 l -11.022776065587973 11.860213704542225 a37.191549070719276,37.191549070719276 0 0,0 -0.465185104970165,-0.43986155213955874 l 11.225297004948954 -11.668717515656734" fill="#ff750a" stroke="none" /><path d="M 85.44109423537348 115.13401014063109 l -11.234267591535989 11.678042457418872 a37.204488389193706,37.204488389193706 0 0,0 -0.4577038736753526,-0.4479595742869562 l 11.433621417587135 -11.482932780209346" fill="#ff750a" stroke="none" /><path d="M 85.18274418774928 114.88116024355367 l -28.536868683309027 28.65994358918098 a61.444347451571765,61.444347451571765 0 0,0 -0.7430651463177049,-0.7527210701462742 l 29.025974454682263 -28.16448202505404" fill="#43ff2d" stroke="none" /><path d="M 84.67929136418377 114.36230785411682 l -10.655857019052188 9.989270248198645 a35.60591691411499,35.60591691411499 0 0,0 -0.41532367831990935,-0.45075182539357467 l 10.826227105367828 -9.804367168003726" fill="#ff5c08" stroke="none" /><path d="M 84.43433777217949 114.09645910891817 l -11.191781251468964 10.135417591505796 a36.09909458659483,36.09909458659483 0 0,0 -0.413147519980745,-0.4641756184451593 l 11.364587621098046 -9.941267803319773" fill="#ff6409" stroke="none" /><path d="M 83.95833913139862 113.55231037782056 l -12.7942038765589 10.808794886795196 a37.74878203750245,37.74878203750245 0 0,0 -0.41506403674315895,-0.4999713705427412 l 12.978363913195595 -10.586962259138694" fill="#ff7d0b" stroke="none" /><path d="M 83.72743513129214 113.27417163493432 l -12.492189700212316 10.190370818287882 a37.12136659592802,37.12136659592802 0 0,0 -0.39964171749449273,-0.4986144902975735 l 12.66574932976167 -9.973828494412048" fill="#ff740a" stroke="none" /><path d="M 83.50135304334701 112.99209946851258 l -36.02024070348636 28.364662346493244 a66.84770234556653,66.84770234556653 0 0,0 -0.7041074306416693,-0.9101537687411717 l 36.50315495134609 -27.74043058363882" fill="#35ff61" stroke="none" /><path d="M 83.06392112726016 112.41649034213515 l -12.214523949829445 8.954936960109979 a36.14547758509123,36.14547758509123 0 0,0 -0.3635550133431331,-0.5049461161135673 l 12.366858755548185 -8.743357238545274" fill="#ff6409" stroke="none" /><path d="M 82.85270091963577 112.12312394758628 l -13.280296785870469 9.389157046907917 a37.26414930982565,37.26414930982565 0 0,0 -0.36579037781439305,-0.5269483211771682 l 13.439948070846997 -9.159167463543735" fill="#ff760a" stroke="none" /><path d="M 82.6465618267979 111.8261652097733 l -13.357416159266235 9.102922930806717 a37.16427456881482,37.16427456881482 0 0,0 -0.3557097037140355,-0.5317377437261065 l 13.512128968391 -8.87164827287479" fill="#ff740a" stroke="none" /><path d="M 82.44556493220864 111.52570212397912 l -17.689215442006706 11.614194772097123 a42.16123491571172,42.16123491571172 0 0,0 -0.39309355954829756,-0.6100899338820214 l 17.88651386493205 -11.307983238293653" fill="#ffc011" stroke="none" /><path d="M 82.24976979558568 111.22182372390057 l -13.16428696612657 8.322557289875355 a36.5744473792744,36.5744473792744 0 0,0 -0.33184407192168736,-0.5350383053905331 l 13.305595677716212 -8.09472265311956" fill="#ff6b09" stroke="none" /><path d="M 82.05923443525364 110.91462005526583 l -13.492051942883199 8.208157014873915 a36.79269790790295,36.79269790790295 0 0,0 -0.3245100612952991,-0.5438975285147739 l 13.63134287987673 -7.97469739247303" fill="#ff6e0a" stroke="none" /><line stroke="#e1ed5e" stroke-width="0.3" x1="26.63291911575756" x2="22.317208475507996" y1="142.92168965132927" y2="145.44649492493687" /><path d="M 25.769776987707644 143.4266507060508 a86.0,86.0 0 0,1 -11.730757126820373,-40.83630448921669" fill="none" id="id45" stroke="none" /><text fill="#e1ed5e" style="font-size:6.75px; font-family:Arial;" text-anchor="middle"><textPath startOffset="21.46611528233685" xlink:href="#id45">September</textPath></text><path d="M 81.69416730710424 110.29060199501025 l -14.215863502542541 7.991430697213283 a37.30808816849124,37.30808816849124 0 0,0 -0.3098766997546493,-0.5625162198265576 l 14.351316611748707 -7.745543958988903" fill="#ff760a" stroke="none" /><path d="M 81.51974371655577 109.97397251340807 l -13.68080726842352 7.3836636009605385 a36.54615629948121,36.54615629948121 0 0,0 -0.2940181638485062,-0.5561715623633228 l 13.805877940496911 -7.14707702351109" fill="#ff6b09" stroke="none" /><path d="M 81.18737489456691 109.33194174019688 l -13.672230135141278 6.7820654674532905 a36.261922843242516,36.261922843242516 0 0,0 -0.2725631633187696,-0.5615608469789137 l 13.786946555074767 -6.545715664509092" fill="#ff6609" stroke="none" /><path d="M 81.02952815118164 109.00673069616217 l -15.806305166005478 7.504459302125143 a38.4973195780995,38.4973195780995 0 0,0 -0.279060439210278,-0.6010713596767979 l 15.933140222055583 -7.231267875169518" fill="#ff890c" stroke="none" /><path d="M 80.87730276802145 108.67885076344099 l -36.41518986072484 16.52706176799626 a60.99012157115555,60.99012157115555 0 0,0 -0.42564981236075833,-0.9597279586048126 l 36.69428075781687 -15.89778547289875" fill="#48ff2c" stroke="none" /><path d="M 80.58989483394504 108.01547362559985 l -13.507814932710943 5.578101375873906 a35.61424918413174,35.61424918413174 0 0,0 -0.22911390285534083,-0.5686419173925344 l 13.601831449823672 -5.344760090638566" fill="#ff5c08" stroke="none" /><path d="M 80.45479744820244 107.68017299344265 l -15.09581911746557 5.931813804057587 a37.21943802458171,37.21943802458171 0 0,0 -0.22917553556634662,-0.5983050063244111 l 15.195688932625426 -5.671085230900018" fill="#ff750a" stroke="none" /><path d="M 80.32549172779594 107.34259656027581 l -13.939258634363844 5.202180968663618 a35.87836073317262,35.87836073317262 0 0,0 -0.21095748121188704,-0.5804643856621248 l 14.026740376580957 -4.961468785995375" fill="#ff6008" stroke="none" /><path d="M 80.20201598880116 107.00284435728193 l -14.526217047393878 5.13814118778223 a36.40816266053746,36.40816266053746 0 0,0 -0.20390160749474223,-0.5926335156065101 l 14.612509485831849 -4.887334969086423" fill="#ff6809" stroke="none" /><path d="M 79.97269907076064 106.31721596034903 l -42.45888195327968 13.392814522611804 a65.52105274541046,65.52105274541046 0 0,0 -0.33001777227038726,-1.0785171744801425 l 42.6831264980562 -12.659970375579613" fill="#33ff4f" stroke="none" /><path d="M 79.76711848015287 105.62410040840567 l -14.946328212194297 4.154605982341675 a36.5130099560061,36.5130099560061 0 0,0 -0.1631121763107075,-0.6070010872711212 l 15.01562846484678 -3.8967139618950144" fill="#ff6a09" stroke="none" /><path d="M 79.50377843672027 104.57218783832718 l -15.527139794450521 3.4637115681546415 a36.90878273230788,36.90878273230788 0 0,0 -0.13298754880718275,-0.6212735541924838 l 15.584461381982145 -3.195924194545994" fill="#ff700a" stroke="none" /><path d="M 79.4281124754447 104.21870165774334 l -14.814149753630437 3.0379554646651137 a36.12244048850176,36.12244048850176 0 0,0 -0.11966860027940797,-0.6101876146714628 l 14.86424828688551 -2.782504122925696" fill="#ff6409" stroke="none" /><path d="M 79.29508885075956 103.50808413554451 l -16.651449006527933 2.821296052544132 a37.88876743380349,37.88876743380349 0 0,0 -0.10341512755803217,-0.6439660980213248 l 16.697545888447255 -2.5342507248295933" fill="#ff7f0b" stroke="none" /><path d="M 79.23777060512086 103.15116336523772 l -15.100544498835365 2.291867685057384 a36.273477064739296,36.273477064739296 0 0,0 -0.08837937509261984,-0.6181251435539069 l 15.137757924944584 -2.0315970695230763" fill="#ff6609" stroke="none" /><path d="M 79.18660465613746 102.79330883721812 l -15.596635229889287 2.0931817369895906 a36.73646848178747,36.73646848178747 0 0,0 -0.07871836368005565,-0.627462810218922 l 15.630355102816191 -1.8244011724832603" fill="#ff6e0a" stroke="none" /><path d="M 79.10278846688536 102.07522291339032 l -16.569441211219544 1.6454484374198977 a37.650942394118964,37.650942394118964 0 0,0 -0.05849415219793861,-0.645478095265173 l 16.595309959694557 -1.3599889536061585" fill="#ff7c0b" stroke="none" /><path d="M 79.07016306316243 101.71520430193888 l -14.633835470277328 1.1992457288717884 a35.682892456507474,35.682892456507474 0 0,0 -0.04489832454815981,-0.6126019665746686 l 14.652310353489822 -0.9471706258003593" fill="#ff5d08" stroke="none" /><path d="M 79.04373962182676 101.35467743843564 l -31.845382897544383 2.058583972099327 a52.91185014789015,52.91185014789015 0 0,0 -0.050930551084807575,-0.9093992028283102 l 31.876099799516723 -1.510113052935579" fill="#aaff21" stroke="none" /><path d="M 79.0095281055655 100.63252640178507 l -14.545238073157673 0.43830587267364385 a35.55184052423802,35.55184052423802 0 0,0 -0.013167618430006427,-0.6118474872792774 l 14.550627754272687 -0.18786856960423762" fill="#ff5b08" stroke="none" /><line stroke="#e1ed5e" stroke-width="0.3" x1="15.007084014347285" x2="10.007500721073583" y1="101.09737516637583" y2="101.16192664675087" /><path d="M 14.007167355692545 101.11028546245083 a86.0,86.0 0 0,1 10.666146001902534,-42.60595125391555" fill="none" id="id46" stroke="none" /><text fill="#e1ed5e" style="font-size:6.75px; font-family:Arial;" text-anchor="middle"><textPath startOffset="22.20632615414155" xlink:href="#id46">October</textPath></text><path d="M 79.00175016825051 100.2711162175752 l -14.62212638205075 0.18879171499398797 a35.62334511130456,35.62334511130456 0 0,0 -0.002639015930791718,-0.6132143624960017 l 14.623209695271045 0.06293212570568903" fill="#ff5c08" stroke="none" /><path d="M 79.00486145842228 99.54816195383935 l -14.554901741839053 -0.31323719784316206 a35.558271952972376,35.558271952972376 0 0,0 0.018436634745391894,-0.6118221505994983 l 14.547353412638016 0.5637294958676548" fill="#ff5b08" stroke="none" /><path d="M 79.01574976396665 99.18683210126434 l -16.102810414740937 -0.6240055451782822 a37.11489640591904,37.11489640591904 0 0,0 0.03023342658536944,-0.6381798510007125 l 16.089683379922068 0.9010965028020038" fill="#ff730a" stroke="none" /><path d="M 79.05617556472873 98.46500227214037 l -18.89783870401868 -1.385045007504657 a39.94852652202593,39.94852652202593 0 0,0 0.056166707914920316,-0.6853761016162807 l 18.871197512284265 1.710135026328716" fill="#ff9f0e" stroke="none" /><path d="M 79.21141760316559 97.0276538004421 l -23.258024054430077 -3.325426336811617 a44.49455560843849,44.49455560843849 0 0,0 0.11493178170452525,-0.7572568413416826 l 23.19733637928625 3.7252822905453917" fill="#ffe215" stroke="none" /><path d="M 79.26566170972629 96.67025291283419 l -14.591468993493397 -2.3432578700303197 a35.778424301444936,35.778424301444936 0 0,0 0.10288535434780355,-0.6072351853667295 l 14.54897177762537 2.594078843712877" fill="#ff5f08" stroke="none" /><path d="M 79.32604984820605 96.31383870115002 l -29.530948808165466 -5.265362439965728 a50.996682802181496,50.996682802181496 0 0,0 0.1615241637897863,-0.8628685417286898 l 29.43593892046582 5.772909059156991" fill="#c3ff1e" stroke="none" /><path d="M 79.46518482838121 95.60439243477599 l -11.253707369627367 -2.4089275134611143 a32.50864289681087,32.50864289681087 0 0,0 0.12183869842501696,-0.5461789948714061 l 11.210574284200312 2.6022846778824795" fill="#ff2a04" stroke="none" /><path d="M 79.54389044137918 95.25157060432595 l -11.67966390070691 -2.7111733655306485 a32.990204746018264,32.990204746018264 0 0,0 0.13316606072106413,-0.5520592932538608 l 11.63126503972503 2.9118178904439063" fill="#ff3204" stroke="none" /><path d="M 79.71946130924805 94.55025226153421 l -11.528415542520262 -3.0978938720002103 a32.937391313147074,32.937391313147074 0 0,0 0.15184643914977447,-0.5462724328207732 l 11.473382332804128 3.295877608239926" fill="#ff3104" stroke="none" /><path d="M 79.91906864156998 93.8553929516997 l -11.882475618907458 -3.6359440772922227 a33.42631547028831,33.42631547028831 0 0,0 0.17309183358228122,-0.5487484140647648 l 11.818128301556973 3.839942657783402" fill="#ff3905" stroke="none" /><path d="M 80.65960295795068 91.81776055985345 l -13.696411126805437 -5.7944681831792755 a35.871702635554435,35.871702635554435 0 0,0 0.24548080583285553,-0.5666035452070737 l 13.594639611129901 6.029370872972948" fill="#ff6008" stroke="none" /><path d="M 80.803312248108 91.48605970444005 l -13.760884499579328 -6.103102293361393 a36.05356435579281,36.05356435579281 0 0,0 0.2564913799984827,-0.5651447566058567 l 13.653790802617495 6.33906905880932" fill="#ff6309" stroke="none" /><path d="M 80.95270993114464 91.15688171328213 l -16.11021343653835 -7.479516641400191 a38.76181708496637,38.76181708496637 0 0,0 0.28617629194423044,-0.602760254888103 l 15.979078950752367 7.755719311928826" fill="#ff8d0d" stroke="none" /><path d="M 81.10775173730289 90.83032412892265 l -14.336686353643884 -6.958555969634718 a36.93618764903632,36.93618764903632 0 0,0 0.28254422407102425,-0.5695919146449284 l 14.214782116619448 7.204307472778607" fill="#ff710a" stroke="none" /><path d="M 81.26839172434947 90.50648371742162 l -13.480089518345086 -6.831952037955953 a36.11252401392724,36.11252401392724 0 0,0 0.2857886112330268,-0.5520526322142535 l 13.360491473951944 7.062977392430542" fill="#ff6409" stroke="none" /><path d="M 81.6062741919709 89.86733742301443 l -14.144273106074042 -7.791740959736344 a37.14842682377582,37.14842682377582 0 0,0 0.3133599976113899,-0.5574324701025112 l 14.008055467170221 8.03405693977364" fill="#ff740a" stroke="none" /><line stroke="#e1ed5e" stroke-width="0.3" x1="26.266209847984243" x2="21.928928074336255" y1="57.711370442889674" y2="55.22380399835377" /><path d="M 25.398753493254645 57.213857153982495 a86.0,86.0 0 0,1 29.58750427330803,-30.492523968695096" fill="none" id="id47" stroke="none" /><text fill="#e1ed5e" style="font-size:6.75px; font-family:Arial;" text-anchor="middle"><textPath startOffset="21.46611528233685" xlink:href="#id47">November</textPath></text><path d="M 81.78341655067845 89.55222093294921 l -14.05277893080969 -8.059707241792038 a37.19998384263403,37.19998384263403 0 0,0 0.323357007634908,-0.5527219437621144 l 13.911962248704457 8.300408597908044" fill="#ff750a" stroke="none" /><path d="M 81.96595687620814 89.24020034530311 l -14.159826164619696 -8.44829368715673 a37.48861253219023,37.48861253219023 0 0,0 0.3354056209032326,-0.5513186517949278 l 14.012304745430246 8.690780112158732" fill="#ff790b" stroke="none" /><path d="M 82.15384107792192 88.93136811851018 l -12.580482480692519 -7.802728311359375 a35.8037531912654,35.8037531912654 0 0,0 0.32934747939871534,-0.5209486194405145 l 12.44430740504784 8.018124578514104" fill="#ff5f08" stroke="none" /><path d="M 82.34701348167596 88.62581576622439 l -12.429828728068205 -8.008795667552961 a35.786529351194105,35.786529351194105 0 0,0 0.33810323010187876,-0.5149544153744704 l 12.290128862608407 8.2215681469051" fill="#ff5f08" stroke="none" /><path d="M 82.54541684631803 88.32363383020206 l -12.312089463363623 -8.236258845243121 a35.8129506419118,35.8129506419118 0 0,0 0.3471733601383915,-0.5094340670605202 l 12.168491637556492 8.446970935574058" fill="#ff5f08" stroke="none" /><path d="M 82.7489923806493 88.02491185347247 l -12.265701993657007 -8.514451201582009 a35.931286771786375,35.931286771786375 0 0,0 0.3570669573085554,-0.5050458887623991 l 12.117322416544575 8.724323590676194" fill="#ff6108" stroke="none" /><path d="M 82.95767976084542 87.72973835380427 l -12.025556307698464 -8.658253117290295 a35.818210133234494,35.818210133234494 0 0,0 0.3645566980150116,-0.4972549263954227 l 11.87473699716982 8.86397048735722" fill="#ff5f08" stroke="none" /><path d="M 83.17141714833178 87.43820079747576 l -15.476558331694246 -11.552572181657256 a40.31283981724945,40.31283981724945 0 0,0 0.419875618377333,-0.5525070965178059 l 15.275406773092804 11.81726405405609" fill="#ffa40f" stroke="none" /><path d="M 83.84228863543731 86.58626213691792 l -12.629270564798608 -10.48451237529159 a37.41412424549452,37.41412424549452 0 0,0 0.41563419486418707,-0.49197978894560085 l 12.446925756447298 10.700351113866306" fill="#ff780b" stroke="none" /><path d="M 84.07557802195018 86.31012108654704 l -12.377258293120455 -10.640459512245442 a37.3222517284336,37.3222517284336 0 0,0 0.42299998004586137,-0.48356210013260004 l 12.192266449496751 10.851937168580985" fill="#ff770a" stroke="none" /><path d="M 84.31358615837235 86.03803664274999 l -8.880877872044904 -7.904578616984743 a32.889169646794905,32.889169646794905 0 0,0 0.3800364842691681,-0.41964577789892454 l 8.743497747159692 8.056277182153224" fill="#ff3004" stroke="none" /><path d="M 84.5562425177563 85.77008943001954 l -10.814993328973843 -9.964957560566063 a35.70593281263149,35.70593281263149 0 0,0 0.420365399562374,-0.44841649912326026 l 10.641860607441014 10.149643476567373" fill="#ff5d08" stroke="none" /><path d="M 84.80347519578584 85.50635884689758 l -10.747791732729716 -10.250674977957287 a35.852318493550186,35.852318493550186 0 0,0 0.4297766568535315,-0.4429226233222558 l 10.569750812173067 10.434161796829665" fill="#ff6008" stroke="none" /><path d="M 85.05521093208273 85.24692304244772 l -9.670851329179184 -9.546793417828457 a34.58921005775463,34.58921005775463 0 0,0 0.42192939606140173,-0.4201174971459936 l 9.505086132950469 9.71184676562456" fill="#ff4c07" stroke="none" /><path d="M 85.31137513191541 84.99185889309783 l -12.345067272183233 -12.613604967044553 a38.649467873547366,38.649467873547366 0 0,0 0.47946828602486885,-0.46124811127369375 l 12.126115742545936 12.82423616508056" fill="#ff8b0c" stroke="none" /><path d="M 85.57189188830299 84.74124197986013 l -7.47103463455517 -7.9011543832515 a31.874033248923663,31.874033248923663 0 0,0 0.4019044150464578,-0.37352635266020556 l 7.333922335713856 8.028585321986354" fill="#ff2003" stroke="none" /><path d="M 86.10567301691215 84.25364557470407 l -9.81431264853815 -11.122499534713128 a35.833432801039336,35.833432801039336 0 0,0 0.4660158435113314,-0.4041243472966469 l 9.621403006380046 11.289788875429457" fill="#ff5f08" stroke="none" /><path d="M 86.37877921826538 84.01681056812374 l -7.712477804863978 -9.049849181622626 a32.890419845431666,32.890419845431666 0 0,0 0.4340634269719947,-0.36351563709315593 l 7.555556840932873 9.181265976109595" fill="#ff3004" stroke="none" /><path d="M 86.65592168130627 83.78471172551755 l -7.6351244038707495 -9.27795388062588 a33.01563784713918,33.01563784713918 0 0,0 0.44193255205028936,-0.3573453894090581 l 7.47428845325596 9.408005367299072" fill="#ff3204" stroke="none" /><path d="M 86.93701828274178 83.55741782278169 l -9.560539452939903 -12.034002574298684 a36.36948706331632,36.36948706331632 0 0,0 0.49352951421883695,-0.3852076140832388 l 9.35197738356164 12.196788577605144" fill="#ff6809" stroke="none" /><path d="M 87.22198572758235 83.33499621200491 l -9.553411660228894 -12.459497861858955 a36.70053379090868,36.70053379090868 0 0,0 0.50463906148786,-0.380083678847736 l 9.337526444982643 12.622098130212546" fill="#ff6d0a" stroke="none" /><path d="M 87.51073957382395 83.11751280151077 l -8.933289628432151 -12.075666824619116 a36.020831962466666,36.020831962466666 0 0,0 0.5016410007741322,-0.3644635208535783 l 8.724103311304237 12.227649580289363" fill="#ff6209" stroke="none" /><path d="M 87.80319425747018 82.90503203632743 l -7.061894365258035 -9.897907737922695 a33.158903306404454,33.158903306404454 0 0,0 0.4674913673610841,-0.3275075782415764 l 6.8904718583132905 10.018000158928215" fill="#ff3505" stroke="none" /><path d="M 88.39885842347998 82.49532879139004 l -8.29848341734116 -12.521373245255495 a36.021638225402924,36.021638225402924 0 0,0 0.5197973413126791,-0.3380906498934731 l 8.081719050244194 12.662362819308502" fill="#ff6209" stroke="none" /><path d="M 88.70189139769569 82.29822771554957 l -6.359684672615358 -9.964295249612476 a32.82086159958522,32.82086159958522 0 0,0 0.4788420665121069,-0.29985085812082707 l 6.187223453731009 10.072290449056233" fill="#ff2f04" stroke="none" /><path d="M 89.00827224532344 82.1063720568725 l -6.382504779891685 -10.39019237244339 a33.19395197635783,33.19395197635783 0 0,0 0.48943365257285804,-0.2948782993646343 l 6.202709061101179 10.498517281266645" fill="#ff3505" stroke="none" /><line stroke="#e1ed5e" stroke-width="0.3" x1="56.762969772571076" x2="54.21961505331055" y1="26.818313649435495" y2="22.513508569990535" /><path d="M 56.25429882871897 25.957352633546506 a86.0,86.0 0 0,1 42.265352541879196,-11.944610805530505" fill="none" id="id48" stroke="none" /><text fill="#e1ed5e" style="font-size:6.75px; font-family:Arial;" text-anchor="middle"><textPath startOffset="22.20632615414155" xlink:href="#id48">December</textPath></text><path d="M 89.3179101791058 81.91981866633112 l -8.983244815332672 -15.204767788814502 a38.660227940883786,38.660227940883786 0 0,0 0.575859315406856,-0.3335748846305371 l 8.720188767460495 15.357146830835086" fill="#ff8b0c" stroke="none" /><path d="M 90.58718382345135 81.22770947309562 l -5.341650677309844 -10.653030562471203 a32.91722669597882,32.91722669597882 0 0,0 0.5086945653893613,-0.24961421400031703 l 5.157484844910057 10.74339993660635" fill="#ff3104" stroke="none" /><path d="M 90.91171255644093 81.06846463323043 l -5.326253992396673 -11.094957818584081 a33.30719588645933,33.30719588645933 0 0,0 0.5189923911695974,-0.24367388658232605 l 5.134483389927468 11.184996687806414" fill="#ff3705" stroke="none" /><path d="M 91.56875222667455 80.76684994638697 l -6.693779695866947 -15.269681638790058 a37.67242825645991,37.67242825645991 0 0,0 0.5961504663381413,-0.2552405178627233 l 6.429945471738498 15.382641684615566" fill="#ff7c0b" stroke="none" /><path d="M 91.90106846888425 80.62456947434976 l -5.991969271007402 -14.334851934010711 a36.53678460025457,36.53678460025457 0 0,0 0.5823548170990505,-0.2375571519533472 l 5.744330584319972 14.435869972147636" fill="#ff6a09" stroke="none" /><path d="M 92.23578459929587 80.48803036053334 l -5.744940035769867 -14.437401562601192 a36.53843299352901,36.53843299352901 0 0,0 0.5863841449214546,-0.22750793820524362 l 5.495572725848736 14.534152204696987" fill="#ff6a09" stroke="none" /><path d="M 92.57280143429618 80.3572730644239 l -4.317005859323693 -11.41719405019594 a33.20609927738033,33.20609927738033 0 0,0 0.5363855127161009,-0.1975553110768923 l 4.119838020835023 11.489812629079154" fill="#ff3505" stroke="none" /><path d="M 92.91201910852362 80.23233633223022 l -4.1248082168198 -11.503674004285191 a33.22082478486665,33.22082478486665 0 0,0 0.5399459685207346,-0.1883765462998775 l 3.92618024423578 11.572971403757277" fill="#ff3605" stroke="none" /><path d="M 93.25333710446033 80.11325718540243 l -4.7887846169381705 -14.115619758400989 a35.90581025208573,35.90581025208573 0 0,0 0.5870038781355066,-0.1935259495184858 l 4.5450979165602545 14.195959432178709" fill="#ff6108" stroke="none" /><path d="M 93.59665428221793 80.00007090966166 l -3.6883369715625256 -11.519989883987433 a33.09603226446457,33.09603226446457 0 0,0 0.5440587829967063,-0.1690417122195268 l 3.489492815855091 11.581771731089486" fill="#ff3404" stroke="none" /><path d="M 93.94186890950719 79.89281104454417 l -4.783086856356892 -15.875264132539886 a37.58016680113205,37.58016680113205 0 0,0 0.620985023789445,-0.1812825569747006 l 4.509111614844026 15.955245018433285" fill="#ff7b0b" stroke="none" /><path d="M 94.28887869178378 79.79150937346287 l -2.674327236982701 -9.462960771487726 a30.833598158008243,30.833598158008243 0 0,0 0.511987655263096,-0.13994556662912927 l 2.5110416924958825 9.507592878943152" fill="#ff0e01" stroke="none" /><path d="M 94.63758080256005 79.69619591428918 l -3.196080737596868 -12.101365959837874 a33.516308967709314,33.516308967709314 0 0,0 0.5590697674036103,-0.14251933191881447 l 2.9873020815082585 12.154588287925552" fill="#ff3a05" stroke="none" /><path d="M 94.98787191387505 79.60689891045804 l -3.5603607733085414 -14.486221404899434 a35.91733151163038,35.91733151163038 0 0,0 0.6016603073002729,-0.1423935558730828 l 3.3104767790457346 14.545360872913387" fill="#ff6108" stroke="none" /><path d="M 95.33964822691252 79.52364482259891 l -2.81228152796086 -12.35642248250727 a33.67241507995698,33.67241507995698 0 0,0 0.5662694467052146,-0.12376456812789596 l 2.5991693571021246 12.403000548731034" fill="#ff3d05" stroke="none" /><path d="M 95.692805502759 79.44645832069477 l -2.532009148403683 -12.082518121118708 a33.34497122211153,33.34497122211153 0 0,0 0.5627894226889523,-0.11289026374339943 l 2.3236533162475945 12.12431234093932" fill="#ff3805" stroke="none" /><path d="M 96.04723909329186 79.375362276772 l -2.5474256674935827 -13.291907291873752 a34.53381605413535,34.53381605413535 0 0,0 0.5847806417040838,-0.10686492444762878 l 2.318249904686606 13.333787697672117" fill="#ff4b07" stroke="none" /><path d="M 96.40284397218896 79.31037775812273 l -2.8788899424325467 -16.55839916988949 a37.80680190785969,37.80680190785969 0 0,0 0.642122954753629,-0.10595578945613252 l 2.593437781540032 16.605501222285252" fill="#ff7e0b" stroke="none" /><path d="M 96.75951476605007 79.25152402106235 l -1.8380272858704476 -11.76868963634485 a32.91135592870161,32.91135592870161 0 0,0 0.5604819893455806,-0.08260047577067481 l 1.6351763160962183 11.798584596276495" fill="#ff3104" stroke="none" /><path d="M 97.11714578562143 79.19881850522333 l -2.0402816306019838 -14.721614532894181 a35.86232429962733,35.86232429962733 0 0,0 0.6121959553757692,-0.07948060514934205 l 1.7865709467183568 14.75455346120766" fill="#ff6008" stroke="none" /><path d="M 98.19473922651362 79.07773832637324 l -1.3999212594500248 -16.22453627911144 a37.284819833355954,37.284819833355954 0 0,0 0.6398959455142527,-0.04966824091374084 l 1.1204351245734379 16.246229782213643" fill="#ff760a" stroke="none" /><path d="M 98.91598698831166 79.02799685794201 l -1.1283066662710992 -21.828936272072834 a42.858077104433704,42.858077104433704 0 0,0 0.7370755929729259,-0.03174002551311428 l 0.7523902409088491 21.84512402411014" fill="#ffca12" stroke="none" /><path d="M 99.27714615592234 79.0124445844662 l -0.652341435733161 -18.940276993017772 a39.951507642428155,39.951507642428155 0 0,0 0.6874957497991319,-0.01775598690728044 l 0.32621905073915003 18.948699772067414" fill="#ff9f0e" stroke="none" /><path d="M 99.63851952072746 79.00311137660856 l -0.26183825209018713 -15.209088544823059 a36.211342269324085,36.211342269324085 0 0,0 0.6233187313627191,-0.005365101109585428 l 3.7257043241725155e-15 15.211342269324085" fill="#ff6509" stroke="none" /></svg>