<?xml version="1.0" encoding="utf-8" ?>
<svg baseProfile="full" height="200mm" version="1.1" viewBox="0,0,200,200" width="200mm" xmlns="http://www.w3.org/2000/svg" xmlns:ev="http://www.w3.org/2001/xml-events" xmlns:xlink="http://www.w3.org/1999/xlink"><defs /><rect fill="#1a1a1a" height="200" width="200" x="0" y="0" /><rect fill="#1a1a1a" height="200" width="180" x="10" y="0" /><text alignment-baseline="middle" fill="#e1ed5e" style="dominant-baseline: central; font-size:9.0px; font-family:Arial;" text-anchor="middle" x="100.0" y="100.0">2026</text><line stroke="#e1ed5e" stroke-width="0.3" x1="100.0" x2="100.0" y1="15.0" y2="10.0" /><path d="M 100.0 14.0 a86.0,86.0 0 0,1 42.46469731375804,11.215312516191453" fill="none" id="id121" stroke="none" /><text fill="#e1ed5e" style="font-size:6.75px; font-family:Arial;" text-anchor="middle"><textPath startOffset="22.20632615414155" xlink:href="#id121">January</textPath></text><path d="M 100.0 79.0 l 0.0 -30.27823867368206 a51.27823867368206,51.27823867368206 0 0,0 0.8826705853339853,0.00759742439701872 l -0.5211901060614569 30.2737526258936" fill="#fdff18" stroke="none" /><path d="M 100.36148047927253 79.00311137660856 l 0.32632291797764135 -18.954732985376324 a39.95754174975518,39.95754174975518 0 0,0 0.6875995862595514,0.01775866869670513 l -0.6525491394320605 18.94630752453726" fill="#ff3f05" stroke="none" /><path d="M 101.08401301168833 79.027996857942 l 0.9909412238007178 -19.171377312875478 a40.196970401124865,40.196970401124865 0 0,0 0.6906948782093647,0.04166460125948453 l -1.3207981508496944 19.151479442235686" fill="#ff4306" stroke="none" /><path d="M 101.44485096284872 79.0497635885617 l 1.3976422453768615 -20.265713358786446 a41.31385098366525,41.31385098366525 0 0,0 0.7090436766540593,0.05503543567870869 l -1.746276111393262 20.238652660919275" fill="#ff5708" stroke="none" /><path d="M 101.80526077348638 79.07773832637324 l 1.5746873245701922 -18.2500061723351 a39.31781552097387,39.31781552097387 0 0,0 0.673785422080938,0.06398404458485508 l -1.8885978737413744 18.22019658323507" fill="#ff3304" stroke="none" /><path d="M 102.52436894288641 79.15227682838746 l 2.248622252789737 -18.570444853471514 a39.706087888480795,39.706087888480795 0 0,0 0.6778117950758743,0.08799942432962185 l -2.5679487763734574 18.528987105977755" fill="#ff3a05" stroke="none" /><path d="M 102.88285421437855 79.19881850522331 l 2.591822918032489 -18.70125053546532 a39.87999781855603,39.87999781855603 0 0,0 0.6791582990644369,0.10009027888982992 l -2.913350197525582 18.653865772414523" fill="#ff3d05" stroke="none" /><path d="M 103.95276090670814 79.375362276772 l 3.530182639759473 -18.41971719521564 a39.75495057369605,39.75495057369605 0 0,0 0.6709757082520027,0.1345914148636146 l -3.846724757478601 18.356221824274815" fill="#ff3b05" stroke="none" /><path d="M 105.36241919743992 79.69619591428918 l 5.19566554399866 -19.672422355676673 a41.34696885988727,41.34696885988727 0 0,0 0.6865607293163899,0.1876629823039702 l -5.533524162538761 19.58007283254641" fill="#ff5808" stroke="none" /><path d="M 106.0581310904928 79.89281104454417 l 5.790002060163536 -19.21725755635913 a41.070553351717535,41.070553351717535 0 0,0 0.6751502746608443,0.20977247680026026 l -6.119937707535098 19.11474494467635" fill="#ff5307" stroke="none" /><path d="M 106.40334571778207 80.00007090966166 l 6.136244459580553 -19.165676738612937 a41.12403192495833,41.12403192495833 0 0,0 0.6723136465947341,0.22165123890620508 l -6.465240928417704 19.057211775447495" fill="#ff5407" stroke="none" /><path d="M 106.74666289553966 80.11325718540242 l 6.484605595747616 -19.1142918704282 a41.18430735597134,41.18430735597134 0 0,0 0.6693783452753483,0.2335329610782213 l -6.812665945086238 18.999838056177772" fill="#ff5507" stroke="none" /><path d="M 107.08798089147638 80.2323363322302 l 6.2198314242903505 -17.346482383079223 a39.427879802437054,39.427879802437054 0 0,0 0.6368873183952908,0.23457097427816653 l -6.517501068458218 17.23684814099473" fill="#ff3505" stroke="none" /><path d="M 107.4271985657038 80.35727306442388 l 6.527010948325814 -17.261998939344448 a39.45476847054695,39.45476847054695 0 0,0 0.6331867236006982,0.24566661161110598 l -6.823180836926179 17.147089623842795" fill="#ff3505" stroke="none" /><path d="M 107.76421540070413 80.48803036053334 l 6.887181364311617 -17.307927040478774 a39.62787174057889,39.62787174057889 0 0,0 0.631623232640679,0.25765497570902013 l -7.184088466540684 17.186811178586176" fill="#ff3905" stroke="none" /><path d="M 108.43124777332544 80.76684994638697 l 7.9752068292676395 -18.19284093882166 a40.86412307137827,40.86412307137827 0 0,0 0.6417961191483216,0.2879552107540165 l -8.287185066882742 18.052865397551113" fill="#ff4f07" stroke="none" /><path d="M 108.76106565485865 80.91482961587045 l 7.542791861266522 -16.431273718906954 a39.07983587005233,39.07983587005233 0 0,0 0.6089416093103169,0.2859062505867298 l -7.824511681876437 16.29900248568022" fill="#ff2e04" stroke="none" /><path d="M 109.08828744355905 81.06846463323043 l 7.983987002862438 -16.631200680128075 a39.448330128349525,39.448330128349525 0 0,0 0.6096245997670229,0.29914014353510965 l -8.269082869639893 16.491305376458133" fill="#ff3505" stroke="none" /><path d="M 109.73455568895987 81.39251694778311 l 7.239111401220045 -13.837472095832748 a36.61666955154728,36.61666955154728 0 0,0 0.5559717364831817,0.2969808471087608 l -7.4762281842315375 13.710812522222232" fill="#ff0000" stroke="none" /><path d="M 110.05341064243156 81.56283822128135 l 8.502889947956104 -15.593629180473876 a38.76120515295005,38.76120515295005 0 0,0 0.5830348088739916,0.32445823989998235 l -8.770048845902132 15.444955543013712" fill="#ff2903" stroke="none" /><path d="M 110.36928655335952 81.73862282372117 l 10.023239622279865 -17.65195303734499 a41.29918172139641,41.29918172139641 0 0,0 0.615167570902904,0.3563447633861851 l -10.325603925648098 17.476804116568758" fill="#ff5708" stroke="none" /><line stroke="#e1ed5e" stroke-width="0.3" x1="143.23703022742887" x2="145.7803849466894" y1="26.81831364943548" y2="22.513508569990506" /><path d="M 143.74570117128098 25.957352633546492 a86.0,86.0 0 0,1 28.547481713284135,27.462654790039103" fill="none" id="id122" stroke="none" /><text fill="#e1ed5e" style="font-size:6.75px; font-family:Arial;" text-anchor="middle"><textPath startOffset="19.985693538727396" xlink:href="#id122">February</textPath></text><path d="M 110.99172775467656 82.1063720568725 l 9.42350936833917 -15.340697506258367 a39.003875382641866,39.003875382641866 0 0,0 0.5690495428809729,0.3563387715473598 l -9.686178063592406 15.176214393388063" fill="#ff2d04" stroke="none" /><path d="M 111.2981086023043 82.29822771554956 l 9.875533141101645 -15.472894181214617 a39.35583311005148,39.35583311005148 0 0,0 0.5679102457179239,0.36938462126615307 l -10.140410412603849 15.300610635788937" fill="#ff3404" stroke="none" /><path d="M 111.60114157652 82.49532879139004 l 11.037689623406045 -16.65449270539514 a40.98005804537878,40.98005804537878 0 0,0 0.5846396673020433,0.39475131313757966 l -11.322733985114631 16.46202947995889" fill="#ff5107" stroke="none" /><path d="M 111.90073688211348 82.69761687909136 l 10.582758328415283 -15.386184980648832 a39.674299507515315,39.674299507515315 0 0,0 0.5593487925241418,0.39185957478961914 l -10.846038260523075 15.201740563095276" fill="#ff3905" stroke="none" /><path d="M 112.19680574252982 82.90503203632743 l 11.597100564019012 -16.25442487143141 a40.96745024766503,40.96745024766503 0 0,0 0.5705296524748941,0.41451405601112706 l -11.875175532847695 16.052391580603608" fill="#ff5107" stroke="none" /><path d="M 112.48926042617603 83.11751280151076 l 12.151089518314357 -16.42536116956039 a41.431384339603404,41.431384339603404 0 0,0 0.569689123008342,0.4290780365557607 l -12.432024795081082 16.21376654349878" fill="#ff5a08" stroke="none" /><path d="M 113.06298171725822 83.55741782278167 l 11.27858917507959 -14.19653899609491 a39.13141729837648,39.13141729837648 0 0,0 0.5237956386632528,0.4235396455873304 l -11.521288212307335 14.000293253243449" fill="#ff2f04" stroke="none" /><path d="M 113.34407831869373 83.78471172551755 l 12.834522149396122 -15.596092255104583 a41.198095267452146,41.198095267452146 0 0,0 0.5437019807149818,0.45533477281689577 l -13.10108166707022 15.372856324893867" fill="#ff5507" stroke="none" /><path d="M 113.6212207817346 84.01681056812373 l 11.916028773425058 -13.982310999373368 a39.371084960129366,39.371084960129366 0 0,0 0.5120232122198307,0.44402148407652003 l -12.154945784291654 13.775124521877178" fill="#ff3404" stroke="none" /><path d="M 114.16331599549186 84.49514656593476 l 12.590520589600368 -13.783084163515838 a39.66801054680739,39.66801054680739 0 0,0 0.500179831349403,0.4648626416720043 l -12.825908304744617 13.564316935769194" fill="#ff3905" stroke="none" /><path d="M 114.42810811169701 84.74124197986012 l 12.505683188362404 -13.225655932883722 a39.201925361420216,39.201925361420216 0 0,0 0.4863218304431083,0.4678412155739889 l -12.731488262417932 13.008431630547431" fill="#ff3104" stroke="none" /><path d="M 114.68862486808459 84.99185889309783 l 12.879910805448908 -13.160082754410917 a39.41412176725415,39.41412176725415 0 0,0 0.48078509355316074,0.47872044956844384 l -13.104531699169392 12.936426454192354" fill="#ff3505" stroke="none" /><path d="M 115.4437574822437 85.77008943001954 l 23.48226805832974 -21.636611092509536 a52.93054732903525,52.93054732903525 0 0,0 0.6116159007173482,0.675361553576772 l -23.851227599663126 21.229196751663217" fill="#e4ff1b" stroke="none" /><path d="M 115.68641384162765 86.03803664274999 l 14.041382185880014 -12.497774541950868 a39.79773343228869,39.79773343228869 0 0,0 0.45105639847831414,0.5156354364432199 l -14.254430447936176 12.254223549304701" fill="#ff3c05" stroke="none" /><path d="M 115.9244219780498 86.31012108654704 l 14.172859787411113 -12.184099028174971 a39.69016382170015,39.69016382170015 0 0,0 0.44091876040763067,0.5219087393865293 l -14.38048916130586 11.938331339159335" fill="#ff3a05" stroke="none" /><path d="M 116.15771136456269 86.58626213691792 l 14.545503254425794 -12.075322014316436 a39.90463082617448,39.90463082617448 0 0,0 0.43420325318643277,0.532281847636002 l -14.751204999688635 11.823155997072332" fill="#ff3e05" stroke="none" /><path d="M 116.60985879189232 87.15038557335679 l 14.118342558105706 -10.922143317887755 a38.84995269586166,38.84995269586166 0 0,0 0.4046390178923813,0.5324575162938413 l -14.3042575162222 10.67750102571288" fill="#ff2a04" stroke="none" /><path d="M 117.04232023915458 87.72973835380427 l 14.821143882627224 -10.671041899443319 a39.26300745247653,39.26300745247653 0 0,0 0.3901759125656166,0.5518761579641135 l -15.002632414996723 10.414339241147411" fill="#ff3204" stroke="none" /><path d="M 117.65298651832404 88.62581576622439 l 19.419411139861264 -12.512328142716251 a44.10133945402251,44.10133945402251 0 0,0 0.4056743691003143,0.6416794290062315 l -19.631913105207534 12.176201065995814" fill="#ff890c" stroke="none" /><line stroke="#e1ed5e" stroke-width="0.3" x1="172.23445277983987" x2="176.4835382374775" y1="55.19839476539836" y2="52.563006222186495" /><path d="M 173.08426987136738 54.67131705675599 a86.0,86.0 0 0,1 12.851231095245387,41.99856678651699" fill="none" id="id123" stroke="none" /><text fill="#e1ed5e" style="font-size:6.75px; font-family:Arial;" text-anchor="middle"><textPath startOffset="22.20632615414155" xlink:href="#id123">March</textPath></text><path d="M 117.84615892207809 88.93136811851018 l 18.440224067798926 -11.437085868721368 a42.699050597644515,42.699050597644515 0 0,0 0.38202271597497967,0.6279448989530503 l -18.63436258206013 11.117973196561238" fill="#ff700a" stroke="none" /><path d="M 118.03404312379186 89.2402003453031 l 16.06605115889898 -9.585620402770592 a39.70834354897224,39.70834354897224 0 0,0 0.34516066465111767,0.5899914613620822 l -16.228671498020425 9.307649529054615" fill="#ff3a05" stroke="none" /><path d="M 118.3937258080291 89.86733742301442 l 20.234991236541298 -11.146971559108115 a44.102161052214754,44.102161052214754 0 0,0 0.36057065998229243,0.6680826717544808 l -20.423869995742052 10.797007904021177" fill="#ff890c" stroke="none" /><path d="M 118.56541770881063 90.18545643968196 l 18.561526242938474 -9.812486350406862 a41.99559822544275,41.99559822544275 0 0,0 0.3323462987555401,0.6419872654934371 l -18.72768197485413 9.491526362653081" fill="#ff6409" stroke="none" /><path d="M 118.73160827565052 90.50648371742162 l 20.22783978524567 -10.251833346965919 a43.67742466312103,43.67742466312103 0 0,0 0.3341114729577264,0.6735483417243443 l -20.401311271156803 9.902125416742624" fill="#ff820b" stroke="none" /><path d="M 119.04729006885535 91.15688171328212 l 21.981150563727503 -10.205226770344403 a45.234637062258884,45.234637062258884 0 0,0 0.32180714143359,0.7090593789958455 l -22.153560022124438 9.825345382506494" fill="#ff9d0e" stroke="none" /><path d="M 119.34039704204932 91.81776055985345 l 19.39345095771268 -8.204684679520438 a42.05760648173396,42.05760648173396 0 0,0 0.27633512361684676,0.6691674205435859 l -19.531807768215725 7.869642688523549" fill="#ff6509" stroke="none" /><path d="M 119.47837535516314 92.15188598940014 l 21.201634181656843 -8.542439460925987 a43.85787750243634,43.85787750243634 0 0,0 0.2761092521104925,0.7026679299454046 l -21.345536983649037 8.176222526084798" fill="#ff850c" stroke="none" /><path d="M 119.61058180528143 92.48833698450437 l 19.90679650032785 -7.625125481398981 a42.31720163418607,42.31720163418607 0 0,0 0.25470000542917354,0.6824693856744434 l -20.03510109425865 7.281332958695205" fill="#ff6909" stroke="none" /><path d="M 119.97218684219823 93.5106431181261 l 37.32215013340841 -12.126701684105985 a60.24283099262814,60.24283099262814 0 0,0 0.31195607203462206,0.9889859980338053 l -37.52536168921123 11.48246551964576" fill="#78ff26" stroke="none" /><path d="M 120.08093135843002 93.85539295169968 l 18.805583974741822 -5.754360780188251 a40.666282226685226,40.666282226685226 0 0,0 0.19905971425211588,0.6711303985733805 l -18.90184958610564 5.42980099486834" fill="#ff4c07" stroke="none" /><path d="M 120.28053869075195 94.5502522615342 l 19.498244894301653 -5.239531239139527 a41.189953976274424,41.189953976274424 0 0,0 0.17810471005424425,0.686310101322703 l -19.5855459362262 4.903124712267974" fill="#ff5507" stroke="none" /><path d="M 120.37134235888165 94.90015583598534 l 19.26299167193027 -4.822375174345136 a40.85744571879765,40.85744571879765 0 0,0 0.16492244105133563,0.6837099915361745 l -19.34314691324242 4.490079951149554" fill="#ff4f07" stroke="none" /><path d="M 120.45610955862082 95.25157060432595 l 19.948551989500306 -4.63061123116422 a41.47894740586002,41.47894740586002 0 0,0 0.15545838009945026,0.6968894356607767 l -20.02530475660179 4.28654362595348" fill="#ff5a08" stroke="none" /><path d="M 120.6074358757038 95.95851677861258 l 61.822307627111385 -12.124449664162288 a84.0,84.0 0 0,0 0.26605710436056285,1.4212876901497489 l -62.02185045538181 11.058483896549978" fill="#4dd2ff" stroke="none" /><path d="M 120.67395015179393 96.31383870115 l 54.664845052025335 -9.746731261269018 a76.52696691555678,76.52696691555678 0 0,0 0.22006290835875972,1.298823742180387 l -54.82451982190432 8.804321730772791" fill="#41ffce" stroke="none" /><path d="M 120.73433829027371 96.67025291283417 l 59.749873414760756 -9.595288944169162 a81.51542731404967,81.51542731404967 0 0,0 0.21055864407449118,1.3873183845609556 l -59.90618795227455 8.565371447216126" fill="#49f0ff" stroke="none" /><path d="M 120.78858239683441 97.02765380044208 l 54.324134237067575 -7.76725083324631 a75.87660472472311,75.87660472472311 0 0,0 0.17373574919389412,1.2945331304418055 l -54.4497859853193 6.83099936073984" fill="#40ffc5" stroke="none" /><path d="M 120.87857604477298 97.74499172005257 l 61.436788879211164 -6.635532390662597 a82.79408804971797,82.79408804971797 0 0,0 0.1408401334121223,1.4182409230711943 l -61.541906138305514 5.577015936886967" fill="#4be0ff" stroke="none" /><path d="M 120.94382443527127 98.46500227214037 l 51.376404765767184 -3.7654376269616603 a72.51420665387835,72.51420665387835 0 0,0 0.08052325918819635,1.2456591792032787 l -51.4336086159598 2.880519383505346" fill="#3aff96" stroke="none" /><line stroke="#e1ed5e" stroke-width="0.3" x1="184.98032266829074" x2="189.97916517819016" y1="98.17113171792111" y2="98.06355123074" /><path d="M 185.9800911702706 98.14961562048488 a86.0,86.0 0 0,1 -9.607161424134198,41.387399972396054" fill="none" id="id124" stroke="none" /><text fill="#e1ed5e" style="font-size:6.75px; font-family:Arial;" text-anchor="middle"><textPath startOffset="21.466115282336823" xlink:href="#id124">April</textPath></text><line stroke="#e1ed5e" stroke-width="0.3" x1="174.80103733775053" x2="179.2010983576182" y1="140.37084112569926" y2="142.7455964860345" /><path d="M 175.68104954172406 140.8457921977663 a86.0,86.0 0 0,1 -30.038265399797805,32.042727171017184" fill="none" id="id125" stroke="none" /><text fill="#e1ed5e" style="font-size:6.75px; font-family:Arial;" text-anchor="middle"><textPath startOffset="22.206326154141568" xlink:href="#id125">May</textPath></text><line stroke="#e1ed5e" stroke-width="0.3" x1="143.8653032363475" x2="146.44561519142675" y1="172.8068346515853" y2="177.08958963109032" /><path d="M 144.38136562736335 173.6633856474863 a86.0,86.0 0 0,1 -40.68145358897372,12.25698825130547" fill="none" id="id126" stroke="none" /><text fill="#e1ed5e" style="font-size:6.75px; font-family:Arial;" text-anchor="middle"><textPath startOffset="21.466115282336833" xlink:href="#id126">June</textPath></text><line stroke="#e1ed5e" stroke-width="0.3" x1="102.19456741930631" x2="102.32365962044197" y1="184.97166512339345" y2="189.96999836594603" /><path d="M 102.22038585953345 185.97133177190398 a86.0,86.0 0 0,1 -42.740103519485714,-10.115201625700543" fill="none" id="id127" stroke="none" /><text fill="#e1ed5e" style="font-size:6.75px; font-family:Arial;" text-anchor="middle"><textPath startOffset="22.20632615414155" xlink:href="#id127">July</textPath></text><line stroke="#e1ed5e" stroke-width="0.3" x1="58.666819895761336" x2="56.23545636021788" y1="174.27360380694188" y2="178.64263932499728" /><path d="M 58.180547188652646 175.14741091055294 a86.0,86.0 0 0,1 -31.652253787137756,-30.449443065178592" fill="none" id="id128" stroke="none" /><text fill="#e1ed5e" style="font-size:6.75px; font-family:Arial;" text-anchor="middle"><textPath startOffset="22.20632615414155" xlink:href="#id128">August</textPath></text><line stroke="#e1ed5e" stroke-width="0.3" x1="26.63291911575756" x2="22.317208475507996" y1="142.92168965132927" y2="145.44649492493687" /><path d="M 25.769776987707644 143.4266507060508 a86.0,86.0 0 0,1 -11.730757126820373,-40.83630448921669" fill="none" id="id129" stroke="none" /><text fill="#e1ed5e" style="font-size:6.75px; font-family:Arial;" text-anchor="middle"><textPath startOffset="21.46611528233685" xlink:href="#id129">September</textPath></text><line stroke="#e1ed5e" stroke-width="0.3" x1="15.007084014347285" x2="10.007500721073583" y1="101.09737516637583" y2="101.16192664675087" /><path d="M 14.007167355692545 101.11028546245083 a86.0,86.0 0 0,1 10.666146001902534,-42.60595125391555" fill="none" id="id130" stroke="none" /><text fill="#e1ed5e" style="font-size:6.75px; font-family:Arial;" text-anchor="middle"><textPath startOffset="22.20632615414155" xlink:href="#id130">October</textPath></text><line stroke="#e1ed5e" stroke-width="0.3" x1="26.266209847984243" x2="21.928928074336255" y1="57.711370442889674" y2="55.22380399835377" /><path d="M 25.398753493254645 57.213857153982495 a86.0,86.0 0 0,1 29.58750427330803,-30.492523968695096" fill="none" id="id131" stroke="none" /><text fill="#e1ed5e" style="font-size:6.75px; font-family:Arial;" text-anchor="middle"><textPath startOffset="21.46611528233685" xlink:href="#id131">November</textPath></text><line stroke="#e1ed5e" stroke-width="0.3" x1="56.762969772571076" x2="54.21961505331055" y1="26.818313649435495" y2="22.513508569990535" /><path d="M 56.25429882871897 25.957352633546506 a86.0,86.0 0 0,1 42.265352541879196,-11.944610805530505" fill="none" id="id132" stroke="none" /><text fill="#e1ed5e" style="font-size:6.75px; font-family:Arial;" text-anchor="middle"><textPath startOffset="22.20632615414155" xlink:href="#id132">December</textPath></text></svg>