<?xml version="1.0" encoding="utf-8" ?>
<svg baseProfile="full" height="200mm" version="1.1" viewBox="0,0,200,200" width="200mm" xmlns="http://www.w3.org/2000/svg" xmlns:ev="http://www.w3.org/2001/xml-events" xmlns:xlink="http://www.w3.org/1999/xlink"><defs /><rect fill="#1a1a1a" height="200" width="200" x="0" y="0" /><rect fill="#1a1a1a" height="200" width="180" x="10" y="0" /><text alignment-baseline="middle" fill="#e1ed5e" style="dominant-baseline: central; font-size:9.0px; font-family:Arial;" text-anchor="middle" x="100.0" y="100.0">2021</text><line stroke="#e1ed5e" stroke-width="0.3" x1="100.0" x2="100.0" y1="15.0" y2="10.0" /><path d="M 100.0 14.0 a86.0,86.0 0 0,1 42.46469731375804,11.215312516191453" fill="none" id="id61" stroke="none" /><text fill="#e1ed5e" style="font-size:6.75px; font-family:Arial;" text-anchor="middle"><textPath startOffset="22.20632615414155" xlink:href="#id61">January</textPath></text><path d="M 100.0 79.0 l 0.0 -28.01546442803223 a49.01546442803223,49.01546442803223 0 0,0 0.8437206463433646,0.007262169975191848 l -0.4822401670708362 28.011313634665598" fill="#aaff21" stroke="none" /><path d="M 100.36148047927253 79.00311137660856 l 0.5058988744525025 -29.38554895953286 a50.389903390863246,50.389903390863246 0 0,0 0.8671223305029425,0.022395211536825874 l -1.0116478401503128 29.372486955853674" fill="#9bff22" stroke="none" /><path d="M 100.72285384407766 79.0124445844662 l 1.0075518480678756 -29.253562692648813 a50.27090861144012,50.27090861144012 0 0,0 0.8645618813876047,0.03722985326677758 l -1.510954561844812 29.23188511285784" fill="#9cff22" stroke="none" /><path d="M 101.08401301168833 79.027996857942 l 1.5252527742375204 -29.508507396900967 a50.547900176125516,50.547900176125516 0 0,0 0.8685524159529977,0.05239345364404781 l -2.03296723903013 29.477880673876616" fill="#99ff23" stroke="none" /><path d="M 101.44485096284872 79.0497635885617 l 1.9027557116102245 -27.58982276819273 a48.65535752215746,48.65535752215746 0 0,0 0.8350413424318266,0.06481527951470835 l -2.3773872434043923 27.552982226489554" fill="#afff20" stroke="none" /><path d="M 101.80526077348638 79.07773832637324 l 2.534779266473524 -29.37709381211623 a50.486246739380405,50.486246739380405 0 0,0 0.8651776966202427,0.08215904722812785 l -3.040082090184011 29.32910922037292" fill="#9aff23" stroke="none" /><path d="M 102.16513564639614 79.11191278185805 l 3.042298238098353 -29.35048944705763 a50.50774151559854,50.50774151559854 0 0,0 0.8640029753774842,0.09708080136335648 l -3.547067916985563 29.29377269222367" fill="#9aff23" stroke="none" /><path d="M 102.52436894288641 79.15227682838746 l 3.5555387783172923 -29.363730046344457 a50.578209855207774,50.578209855207774 0 0,0 0.8634068234062521,0.11209498561988364 l -4.060460330231391 29.298176737560436" fill="#99ff23" stroke="none" /><path d="M 102.88285421437855 79.19881850522331 l 4.11208076366809 -29.67064302440918 a50.95423618937479,50.95423618937479 0 0,0 0.867753116185009,0.12788425250213437 l -4.622202860281756 29.59546428774608" fill="#95ff23" stroke="none" /><path d="M 103.2404852339499 79.25152402106235 l 4.524145439911199 -28.967613245624484 a50.31877400420332,50.31877400420332 0 0,0 0.8546303366760823,0.14102132830684913 l -5.022104982726156 28.88544565437801" fill="#9cff22" stroke="none" /><path d="M 103.59715602781102 79.31037775812273 l 5.0417890464407105 -28.9986617170927 a50.43368849076152,50.43368849076152 0 0,0 0.8540221756233939,0.15606709382280645 l -5.540206343167005 28.90757914191915" fill="#9aff22" stroke="none" /><path d="M 103.95276090670814 79.375362276772 l 5.505127035260475 -28.724543022551064 a50.247321168420584,50.247321168420584 0 0,0 0.8480637360181822,0.17011360727584046 l -5.998757180745783 28.625525459198016" fill="#9cff22" stroke="none" /><path d="M 104.307194497241 79.44645832069477 l 6.018570316637574 -28.720071947546874 a50.34392136931565,50.34392136931565 0 0,0 0.8466343869626908,0.18504148488733457 l -6.512047427753793 28.612216964563668" fill="#9bff22" stroke="none" /><path d="M 104.66035177308747 79.52364482259891 l 6.258294059041611 -27.497291663169445 a49.20048392029547,49.20048392029547 0 0,0 0.8241697539591041,0.19505435290533613 l -6.7306874999632385 27.38549139812324" fill="#a8ff21" stroke="none" /><path d="M 105.01212808612495 79.60689891045804 l 7.0338458405964275 -28.618967195317044 a50.47066797064343,50.47066797064343 0 0,0 0.841877446297419,0.21461330624449262 l -7.525432175578872 28.493650892903684" fill="#9aff23" stroke="none" /><path d="M 105.36241919743992 79.69619591428918 l 7.5132659128130195 -28.44758559913272 a50.42302314679138,50.42302314679138 0 0,0 0.8372673620479923,0.22885679800555006 l -8.001831164084724 28.314042260300873" fill="#9aff22" stroke="none" /><path d="M 105.71112130821622 79.79150937346287 l 8.011871689339921 -28.349570110184448 a50.45994252198585,50.45994252198585 0 0,0 0.8338139842020329,0.2434131666734923 l -8.498675891265382 28.207458614592255" fill="#9aff23" stroke="none" /><path d="M 106.0581310904928 79.89281104454417 l 8.479264668027895 -28.14303195764764 a50.392655155321414,50.392655155321414 0 0,0 0.8283943651219803,0.25738616166054423 l -8.962444405860595 27.992905661104576" fill="#9bff22" stroke="none" /><path d="M 106.40334571778207 80.00007090966166 l 8.889565950860455 -27.765280292046562 a50.153647670413505,50.153647670413505 0 0,0 0.8199337510692628,0.2703192664108828 l -9.366182524172135 27.60814730137644" fill="#9eff22" stroke="none" /><path d="M 106.74666289553966 80.11325718540242 l 9.382843075243265 -27.657256631341642 a50.20550613405855,50.20550613405855 0 0,0 0.816002035174566,0.2846870874524379 l -9.857527114481105 27.491648690716996" fill="#9dff22" stroke="none" /><path d="M 107.08798089147638 80.2323363322302 l 9.952642942616125 -27.756917140059958 a50.48731168932429,50.48731168932429 0 0,0 0.8155327832975047,0.3003676066527486 l -10.428958051686205 27.581486265600883" fill="#9aff23" stroke="none" /><path d="M 107.4271985657038 80.35727306442388 l 10.43799193322392 -27.605378190213358 a50.51285449804466,50.51285449804466 0 0,0 0.8106515404649212,0.3145202034730738 l -10.911626638688508 27.421615282849736" fill="#99ff23" stroke="none" /><path d="M 107.76421540070413 80.48803036053334 l 10.930006597108566 -27.467805293321923 a50.56256707129272,50.56256707129272 0 0,0 0.8059098473228914,0.3287508619141734 l -11.401200314019844 27.27559354522417" fill="#99ff23" stroke="none" /><path d="M 108.09893153111575 80.62456947434976 l 11.13416094913691 -26.636743513954638 a49.87015145560358,49.87015145560358 0 0,0 0.7891743490549534,0.33788327093668535 l -11.591019055982176 26.44114071505516" fill="#a1ff22" stroke="none" /><path d="M 108.43124777332544 80.76684994638697 l 11.80708093636615 -26.934015634404343 a50.40830424271754,50.40830424271754 0 0,0 0.7916933389054817,0.3552097238599751 l -12.268956393738412 26.726785580027837" fill="#9bff22" stroke="none" /><path d="M 108.76106565485865 80.91482961587045 l 12.441843515288063 -27.103404167535732 a50.82270925867918,50.82270925867918 0 0,0 0.7919189442964517,0.37181656282091713 l -12.906540670884114 26.885222622074814" fill="#96ff23" stroke="none" /><path d="M 109.08828744355905 81.06846463323043 l 12.709182440253631 -26.47411168986591 a50.366680235722015,50.366680235722015 0 0,0 0.7783540438947424,0.3819349489846512 l -13.163007751158805 26.251421580746428" fill="#9bff22" stroke="none" /><path d="M 109.41281617654863 81.2277094730956 l 13.227883211649564 -26.380804856649917 a50.511417437081604,50.511417437081604 0 0,0 0.7738818484479746,0.3964123405091212 l -13.680025547686293 26.149199990828293" fill="#99ff23" stroke="none" /><path d="M 109.73455568895987 81.39251694778311 l 13.595625021484624 -25.987869426694086 a50.329343277061625,50.329343277061625 0 0,0 0.7641790670889591,0.4081979924418817 l -14.040949135101894 25.749992707750447" fill="#9cff22" stroke="none" /><path d="M 110.05341064243156 81.56283822128135 l 14.07210283939194 -25.80712614300253 a50.3944184852034,50.3944184852034 0 0,0 0.758018230699938,0.4218363246955905 l -14.514245159163915 25.561074420746763" fill="#9bff22" stroke="none" /><path d="M 110.36928655335952 81.73862282372117 l 14.547502279449333 -25.61964362068194 a50.461771192875226,50.461771192875226 0 0,0 0.7516479483199209,0.4354030071849311 l -14.986346960234581 25.365436456106963" fill="#9aff23" stroke="none" /><line stroke="#e1ed5e" stroke-width="0.3" x1="143.23703022742887" x2="145.7803849466894" y1="26.81831364943548" y2="22.513508569990506" /><path d="M 143.74570117128098 25.957352633546492 a86.0,86.0 0 0,1 28.547481713284135,27.462654790039103" fill="none" id="id62" stroke="none" /><text fill="#e1ed5e" style="font-size:6.75px; font-family:Arial;" text-anchor="middle"><textPath startOffset="19.985693538727396" xlink:href="#id62">February</textPath></text><path d="M 110.68208982089419 81.91981866633111 l 15.053147084865955 -25.478500321576856 a50.5930940557962,50.5930940557962 0 0,0 0.7459781479568315,0.44944348733752354 l -15.489487299040423 25.21561022478072" fill="#99ff23" stroke="none" /><path d="M 110.99172775467656 82.1063720568725 l 15.281197709239267 -24.87653191903003 a50.19515103141923,50.19515103141923 0 0,0 0.7323253771337376,0.45858208397748723 l -15.707142238745268 24.6098054937296" fill="#9dff22" stroke="none" /><path d="M 111.60114157652 82.49532879139004 l 16.011704430953003 -24.1596587460448 a49.98385394507672,49.98385394507672 0 0,0 0.7130918094006685,0.4814827728805782 l -16.425200934760213 23.880464060865553" fill="#9fff22" stroke="none" /><path d="M 111.90073688211348 82.69761687909136 l 16.672654228453272 -24.240234362017496 a50.420509189120004,50.420509189120004 0 0,0 0.7108544141540388,0.4979989448277979 l -17.087439782190962 23.949650574425764" fill="#9bff22" stroke="none" /><path d="M 112.19680574252982 82.90503203632743 l 17.123559044691717 -24.000275110747502 a50.48269797268577,50.48269797268577 0 0,0 0.7030429269147166,0.5107905854169034 l -17.534147287960224 23.701965290513925" fill="#9aff23" stroke="none" /><path d="M 112.48926042617603 83.11751280151076 l 17.515987469107866 -23.677417567202845 a50.45216324261479,50.45216324261479 0 0,0 0.6937264851197597,0.5225004061338853 l -17.92096010798601 23.372400571563112" fill="#9aff22" stroke="none" /><path d="M 112.77801427241765 83.33499621200491 l 17.937568533336805 -23.394061172771007 a50.4794583234412,50.4794583234412 0 0,0 0.6850001073984318,0.534653449116139 l -18.337601195894667 23.081829334431642" fill="#9aff23" stroke="none" /><path d="M 113.06298171725822 83.55741782278167 l 18.374747501354623 -23.12858597800089 a50.539174583598594,50.539174583598594 0 0,0 0.6764947721335911,0.5470117253407443 l -18.770145672052703 22.808868155396013" fill="#99ff23" stroke="none" /><path d="M 113.6212207817346 84.01681056812373 l 19.024162987211987 -22.323021238686405 a50.329781018392396,50.329781018392396 0 0,0 0.654541681374921,0.5676120961274984 l -19.405598467233673 21.992244149139236" fill="#9cff22" stroke="none" /><path d="M 113.89432698308785 84.25364557470407 l 19.07616519125878 -21.618899464700682 a49.83187285746503,49.83187285746503 0 0,0 0.6382964888653194,0.5730688899981022 l -19.44547266772009 21.287331565933282" fill="#a1ff22" stroke="none" /><path d="M 114.16331599549186 84.49514656593476 l 19.78758860341311 -21.661852436756664 a50.339129396247344,50.339129396247344 0 0,0 0.6347335524170176,0.589915661210082 l -20.157530039624973 21.318032189471943" fill="#9bff22" stroke="none" /><path d="M 114.42810811169701 84.74124197986012 l 20.255392680989694 -21.4215289440177 a50.481567715446864,50.481567715446864 0 0,0 0.626252108504204,0.6024540322021489 l -20.621128033106313 21.06969182505325" fill="#9aff23" stroke="none" /><path d="M 114.68862486808459 84.99185889309783 l 20.655996479990847 -21.105318752401548 a50.53141835777392,50.53141835777392 0 0,0 0.6163971595252108,0.6137501542318372 l -21.016229439683382 20.74663274751959" fill="#99ff23" stroke="none" /><path d="M 114.94478906791727 85.2469230424477 l 20.99263939677768 -20.72334531824654 a50.49827028865308,50.49827028865308 0 0,0 0.6053437739444522,0.6238599702697368 l -21.34624743442524 20.35892115242669" fill="#9aff23" stroke="none" /><path d="M 115.19652480421416 85.50635884689758 l 1.6087673053012048 -1.534357119294353 a23.223147321284706,23.223147321284706 0 0,0 0.2734057573578899,0.29165019928425023 l -1.6349403846295578 1.5064375031320478" fill="#ff0000" stroke="none" /><path d="M 115.4437574822437 85.77008943001954 l 21.752567737779042 -20.042861585461004 a50.578548032664045,50.578548032664045 0 0,0 0.5844383965968205,0.6453514747288365 l -22.094349774991898 19.66545732346262" fill="#99ff23" stroke="none" /><path d="M 115.9244219780498 86.31012108654704 l 22.431131166116316 -19.28355515692758 a50.580587297783374,50.580587297783374 0 0,0 0.5619006752457711,0.6651131668945987 l -22.759742454849206 18.894583040403877" fill="#99ff23" stroke="none" /><path d="M 116.15771136456269 86.58626213691792 l 22.44822474737362 -18.635968638060337 a50.17571115478363,50.17571115478363 0 0,0 0.5459631266669815,0.6692862378869663 l -22.76568636611701 18.24679823056527" fill="#9dff22" stroke="none" /><path d="M 116.38621287248628 86.86637796730983 l 22.935476582069935 -18.38288583900339 a50.39330838501358,50.39330838501358 0 0,0 0.5366789421751554,0.6815277559625708 l -23.248509604839054 17.98536568908778" fill="#9bff22" stroke="none" /><path d="M 116.60985879189232 87.15038557335679 l 23.25593215802184 -17.991107877968194 a50.40269278850499,50.40269278850499 0 0,0 0.5249657900161242,0.6907934438629989 l -23.562173888262077 17.588129658224158" fill="#9bff22" stroke="none" /><path d="M 117.45458315368197 88.32363383020206 l 24.53937629462517 -16.415788373270914 a50.52387333744047,50.52387333744047 0 0,0 0.4773384030903913,0.7270191362121209 l -24.818311333073485 15.99095117308112" fill="#99ff23" stroke="none" /><path d="M 117.65298651832404 88.62581576622439 l 24.49304525713233 -15.78137551465575 a50.13693668014036,50.13693668014036 0 0,0 0.46119393216033466,0.7294980447152755 l -24.76106678553862 15.357429822226269" fill="#9eff22" stroke="none" /><line stroke="#e1ed5e" stroke-width="0.3" x1="172.23445277983987" x2="176.4835382374775" y1="55.19839476539836" y2="52.563006222186495" /><path d="M 173.08426987136738 54.67131705675599 a86.0,86.0 0 0,1 12.851231095245387,41.99856678651699" fill="none" id="id63" stroke="none" /><text fill="#e1ed5e" style="font-size:6.75px; font-family:Arial;" text-anchor="middle"><textPath startOffset="22.20632615414155" xlink:href="#id63">March</textPath></text><line stroke="#e1ed5e" stroke-width="0.3" x1="184.98032266829074" x2="189.97916517819016" y1="98.17113171792111" y2="98.06355123074" /><path d="M 185.9800911702706 98.14961562048488 a86.0,86.0 0 0,1 -9.607161424134198,41.387399972396054" fill="none" id="id64" stroke="none" /><text fill="#e1ed5e" style="font-size:6.75px; font-family:Arial;" text-anchor="middle"><textPath startOffset="21.466115282336823" xlink:href="#id64">April</textPath></text><path d="M 120.99980553446 99.90962569577887 l 40.772690997721895 -0.17546846203387967 a61.77306856709316,61.77306856709316 0 0,0 -0.004576215724073478,1.0633513709180034 l -40.769670484708314 -0.5263923870878083" fill="#31ff3e" stroke="none" /><path d="M 120.99824983174949 100.27111621757518 l 19.311887340863162 0.24934296391580257 a40.313496953680996,40.313496953680996 0 0,0 -0.014931231059708271,0.6937956361987854 l -19.304734047118444 -0.5817284159047028" fill="#ffeb16" stroke="none" /><path d="M 120.9764740272857 100.99374915477107 l 19.62152431301792 0.9295591421140544 a40.64353065426481,40.64353065426481 0 0,0 -0.039121622254155025,0.6985428457672574 l -19.602616339876235 -1.2671737042167353" fill="#ffef16" stroke="none" /><path d="M 120.92983693683757 101.71520430193887 l 19.712771492378064 1.6154655465736072 a40.778854588749056,40.778854588749056 0 0,0 -0.06335364734839889,0.6991022193152946 l -19.68204324875259 -1.9545491544374725" fill="#fff116" stroke="none" /><path d="M 120.70491114924044 103.5080841355445 l 29.879864473715735 5.062619094422303 a51.30571584805132,51.30571584805132 0 0,0 -0.1550252475663583,0.8694639166919534 l -29.78829278381019 -5.576201761847474" fill="#91ff24" stroke="none" /><path d="M 120.64145759157962 103.86396538481128 l 50.3937652414996 9.433430930909326 a72.26910565187977,72.26910565187977 0 0,0 -0.23941745352333746,1.2207844374800354 l -50.2239178550006 -10.299479095457306" fill="#3effb7" stroke="none" /><path d="M 120.49622156327973 104.57218783832717 l 19.326833338254 4.311326947248368 a40.80186927869983,40.80186927869983 0 0,0 -0.15881531922935652,0.6841722386569958 l -19.24975745309409 -4.6433678432539285" fill="#fff116" stroke="none" /><line stroke="#e1ed5e" stroke-width="0.3" x1="174.80103733775053" x2="179.2010983576182" y1="140.37084112569926" y2="142.7455964860345" /><path d="M 175.68104954172406 140.8457921977663 a86.0,86.0 0 0,1 -30.038265399797805,32.042727171017184" fill="none" id="id65" stroke="none" /><text fill="#e1ed5e" style="font-size:6.75px; font-family:Arial;" text-anchor="middle"><textPath startOffset="22.206326154141568" xlink:href="#id65">May</textPath></text><path d="M 116.27256486870786 113.27417163493432 l 17.936329541496917 14.631369962606195 a44.14711438611366,44.14711438611366 0 0,0 -0.4854164430909972,0.5847153760670586 l -17.681817098512376 -14.937946595787023" fill="#e4ff1b" stroke="none" /><path d="M 116.0416608686014 113.55231037782055 l 29.287059927346508 24.74228382212615 a59.33943776221335,59.33943776221335 0 0,0 -0.665894427929722,0.7745856577858043 l -28.856822989846005 -25.242746579073483" fill="#3cff2e" stroke="none" /><path d="M 115.80600337817218 113.82643327865902 l 14.231619314660707 12.449227688586404 a39.908258998641045,39.908258998641045 0 0,0 -0.45674270839359254,0.5131552747764088 l -14.015217756618775 -12.69235713310368" fill="#ffe615" stroke="none" /><path d="M 115.07121518719521 114.62390073753431 l 14.164069706926789 13.743679382243787 a40.735997406378885,40.735997406378885 0 0,0 -0.49263278281253836,0.4990344080938075 l -13.925396299058715 -13.985454284318259" fill="#fff016" stroke="none" /><path d="M 114.55890576462653 115.13401014063108 l 13.670053340134082 14.210046360435657 a40.717904956861965,40.717904956861965 0 0,0 -0.5092921205165974,0.4815674883598127 l -13.423425385226677 -14.44324848554139" fill="#fff016" stroke="none" /><path d="M 114.29624159901734 115.38237550388516 l 13.44607389004825 14.467617673999353 a40.751173742784395,40.751173742784395 0 0,0 -0.5179288872239647,0.47311575850370224 l -13.195045453357421 -14.696926199089638" fill="#fff116" stroke="none" /><path d="M 112.63410532772338 116.77436683061366 l 11.836628841103266 15.715553184664332 a40.67446045567834,40.67446045567834 0 0,0 -0.5628861680255189,0.41640973039754875 l -11.564357702659184 -15.91697286380165" fill="#fff016" stroke="none" /><path d="M 112.34349029814194 116.9893568818739 l 11.634810673752654 16.01394305945818 a40.79432220930127,40.79432220930127 0 0,0 -0.5716502002440323,0.4078572396199337 l -11.357433145659737 -16.211844560922334" fill="#fff116" stroke="none" /><path d="M 112.04921762599082 117.19931262002967 l 11.253228175098807 16.063100142747626 a40.612708394221755,40.612708394221755 0 0,0 -0.5760102662874946,0.3961851134945659 l -10.97506102418843 -16.25442604560729" fill="#ffef16" stroke="none" /><line stroke="#e1ed5e" stroke-width="0.3" x1="143.8653032363475" x2="146.44561519142675" y1="172.8068346515853" y2="177.08958963109032" /><path d="M 144.38136562736335 173.6633856474863 a86.0,86.0 0 0,1 -40.68145358897372,12.25698825130547" fill="none" id="id66" stroke="none" /><text fill="#e1ed5e" style="font-size:6.75px; font-family:Arial;" text-anchor="middle"><textPath startOffset="21.466115282336833" xlink:href="#id66">June</textPath></text><path d="M 110.8373102113329 117.98757091392108 l 10.100777985338995 16.765088084962336 a40.57278453377687,40.57278453377687 0 0,0 -0.6013121004168622,0.35526578790899854 l -9.81069801389375 -16.936472445165084" fill="#ffee16" stroke="none" /><path d="M 110.21172684928248 118.3499491758327 l 9.609094552903198 17.267049860811127 a40.760711247887095,40.760711247887095 0 0,0 -0.6160247581946833,0.33590581535083486 l -9.310446982839865 -17.429896327921735" fill="#fff116" stroke="none" /><path d="M 109.89434966115114 118.52300852407294 l 9.255210270030334 17.326488813809917 a40.64347555188631,40.64347555188631 0 0,0 -0.6199273796291022,0.32431670544456126 l -8.955591987874737 -17.483234938199196" fill="#ffef16" stroke="none" /><path d="M 108.92500713936063 119.00905698771935 l 8.425947175987647 17.946126825769277 a40.825742201973924,40.825742201973924 0 0,0 -0.6386934718998638,0.2931928470126431 l -8.115785708320363 -18.088506743115992" fill="#fff216" stroke="none" /><path d="M 108.59647513512805 119.15986991738527 l 8.126028696219429 18.11133636951827 a40.85076440496982,40.85076440496982 0 0,0 -0.6440401675672598,0.2823282828656329 l -7.813067853994415 -18.24852920567836" fill="#fff216" stroke="none" /><path d="M 108.2653958097858 119.30500536409082 l 7.772541595504896 18.153874375403877 a40.747798806241654,40.747798806241654 0 0,0 -0.6471692316446132,0.2705167913144271 l -7.458900904362822 -18.284976209738275" fill="#fff116" stroke="none" /><path d="M 107.93186726928326 119.44442032107085 l 7.463835861053443 18.297073912448248 a40.760864341377925,40.760864341377925 0 0,0 -0.6519388216469276,0.25941991161720485 l -7.14777596336465 -18.42284066847152" fill="#fff116" stroke="none" /><path d="M 107.59598834532513 119.57807347666477 l 7.036026716397013 18.134815612529877 a40.45192045157264,40.45192045157264 0 0,0 -0.6513332824815801,0.24627851506099657 l -6.722823213155159 -18.253242377697504" fill="#ffed16" stroke="none" /><path d="M 106.2309692047433 120.05430185196036 l 5.874295016497253 18.906350129065597 a40.797914464500124,40.797914464500124 0 0,0 -0.6724371041337985,0.2025997833898369 l -5.5479829379232095 -19.00466528156116" fill="#fff116" stroke="none" /><path d="M 105.88484417918355 120.15858648285463 l 5.510618460798914 18.87667293026644 a40.6645797498129,40.6645797498129 0 0,0 -0.6736161836706913,0.19037066207553 l -5.184871109023617 -18.96873238568049" fill="#fff016" stroke="none" /><path d="M 105.53697534728816 120.25689768951611 l 5.218079310884221 19.090223832788435 a40.790527978824656,40.790527978824656 0 0,0 -0.6788894938744872,0.17930088566284333 l -4.888699374198237 -19.177216067754863" fill="#fff116" stroke="none" /><path d="M 105.18746579009965 120.34920634021253 l 4.871219851102509 19.108648016109626 a40.71976703314077,40.71976703314077 0 0,0 -0.6806924030002737,0.16729763149358245 l -4.541574163359025 -19.18966690591724" fill="#fff016" stroke="none" /><path d="M 104.13013068566511 120.58985236759428 l 3.897633164307475 19.4307874360171 a40.81784662033667,40.81784662033667 0 0,0 -0.6900789263649725,0.1322552686395342 l -3.5625866233707986 -19.4949999030051" fill="#fff116" stroke="none" /><path d="M 103.7750983002368 120.6578951692458 l 3.555957496039496 19.458724339673402 a40.780970315963714,40.780970315963714 0 0,0 -0.6916278343999179,0.12024836434557738 l -3.2204806901675282 -19.517051282539985" fill="#fff116" stroke="none" /><path d="M 103.06178313531738 120.77559828337769 l 2.88083943672628 19.54781256907447 a40.758952707465625,40.758952707465625 0 0,0 -0.6949816960815032,0.09631813038925925 l -2.5439291494579463 -19.59450526495633" fill="#fff116" stroke="none" /><path d="M 102.70371172650421 120.8252237178851 l 2.5410219223022197 19.572112472365603 a40.73637198272645,40.73637198272645 0 0,0 -0.6961507994751712,0.08429416695984791 l -2.2037436997756683 -19.612952168050803" fill="#fff016" stroke="none" /><path d="M 101.62511606390274 120.93702456842531 l 1.5171528114290698 19.546090517782964 a40.604882228225506,40.604882228225506 0 0,0 -0.697315839318282,0.048090982939868576 l -1.1804742113318574 -19.56930984523912" fill="#ffef16" stroke="none" /><path d="M 101.26447882468166 120.96189622390904 l 1.1895911575313183 19.720446010101483 a40.75629312293691,40.75629312293691 0 0,0 -0.7006432430770415,0.036215252634778324 l -0.8499598460407971 -19.738001069498466" fill="#fff116" stroke="none" /><line stroke="#e1ed5e" stroke-width="0.3" x1="102.19456741930631" x2="102.32365962044197" y1="184.97166512339345" y2="189.96999836594603" /><path d="M 102.22038585953345 185.97133177190398 a86.0,86.0 0 0,1 -42.740103519485714,-10.115201625700543" fill="none" id="id67" stroke="none" /><text fill="#e1ed5e" style="font-size:6.75px; font-family:Arial;" text-anchor="middle"><textPath startOffset="22.20632615414155" xlink:href="#id67">July</textPath></text><path d="M 100.54218724476979 120.99299961872073 l 0.5404611426486975 20.926166506139026 a41.933144601071476,41.933144601071476 0 0,0 -0.7217299423041367,0.012425235477926223 l -0.1801715104518928 -20.93236921889611" fill="#ffff18" stroke="none" /><path d="M 100.18074693466247 120.99922214144158 l 0.1705124981605658 19.810182858439873 a40.810916672301005,40.810916672301005 0 0,0 -0.7025188656460288,0.0 l 0.17051249816055217 -19.810182858439873" fill="#fff116" stroke="none" /><path d="M 98.73552117531835 120.96189622390904 l -0.967152775617284 16.0329739964283 a37.06211815613153,37.06211815613153 0 0,0 -0.6364752367386841,-0.04389505877504934 l 1.2429907731348981 -16.013950593136965" fill="#ffc112" stroke="none" /><path d="M 98.37488393609728 120.93702456842531 l -2.393983631936135 30.842655014980735 a51.935425098147505,51.935425098147505 0 0,0 -0.8907065933145892,-0.07685391276906688 l 2.924534542992266 -30.796876849933007" fill="#8aff24" stroke="none" /><path d="M 96.58105272829116 120.7198165907248 l -3.2095014947305556 19.45051415935885 a40.713533445531695,40.713533445531695 0 0,0 -0.6904841338872956,-0.12004951735142284 l 3.5438346000899013 -19.39238606348642" fill="#fff016" stroke="none" /><path d="M 96.22490169976321 120.6578951692458 l -3.5351340312578943 19.344775266481975 a40.66513419048165,40.66513419048165 0 0,0 -0.6874971235908963,-0.13176045999313668 l 3.8675987694204856 -19.28105760814037" fill="#fff016" stroke="none" /><path d="M 95.86986931433489 120.58985236759428 l -4.008811874210094 19.985044285869296 a41.383144206696,41.383144206696 0 0,0 -0.6972242749156216,-0.14611012579321875 l 4.3522276105551025 -19.913078179349537" fill="#fff817" stroke="none" /><path d="M 95.16358092515715 120.4354850818985 l -4.4097858685102205 18.63281736668685 a40.147534943862084,40.147534943862084 0 0,0 -0.6711266794142837,-0.16494660936904443 l 4.7298658326677145 -18.554149499003778" fill="#ffe915" stroke="none" /><path d="M 94.11515582081647 120.15858648285463 l -5.6968708095063585 19.514682020181716 a41.329219152958366,41.329219152958366 0 0,0 -0.6811941445563046,-0.20523820783404 l 6.031939928502909 -19.413728443241954" fill="#fff817" stroke="none" /><path d="M 93.76903079525671 120.05430185196036 l -5.865182768100061 18.8770224636732 a40.76720379814101,40.76720379814101 0 0,0 -0.6683465756203568,-0.2139834678244134 l 6.189250688811358 -18.773266149189077" fill="#fff116" stroke="none" /><path d="M 93.08242187328487 119.8279376855182 l -6.663602871654495 19.099965346245593 a41.22899600718989,41.22899600718989 0 0,0 -0.6680676607677059,-0.23954529444242859 l 6.991390093051928 -18.982432510763207" fill="#fff717" stroke="none" /><path d="M 92.7421414339146 119.70592522655815 l -10.243753138387723 27.812974246653795 a50.63943344271708,50.63943344271708 0 0,0 -0.8153666881338224,-0.308301913298098 l 10.720990047281829 -27.632524083249063" fill="#98ff23" stroke="none" /><path d="M 92.06813273071674 119.44442032107085 l -7.457988468368656 18.28273943643078 a40.74538308807254,40.74538308807254 0 0,0 -0.6471308644562676,-0.2705007538265879 l 7.771590792322386 -18.15165363958422" fill="#fff116" stroke="none" /><path d="M 91.7346041902142 119.30500536409082 l -7.810841845434437 18.243330046656855 a40.84510875570206,40.84510875570206 0 0,0 -0.6439510023985209,-0.28228919547597614 l 8.123713522490702 -18.106176297886424" fill="#fff216" stroke="none" /><path d="M 91.07499286063937 119.00905698771935 l -8.347648821837623 17.779361931036753 a40.64151092781627,40.64151092781627 0 0,0 -0.6306930268907167,-0.3027709800596742 l 8.652454516728582 -17.633036674477516" fill="#ffef16" stroke="none" /><path d="M 90.7491055286396 118.85261126421891 l -8.321062823757655 16.95768589806189 a39.88923496423952,39.88923496423952 0 0,0 -0.6138119240103905,-0.307778041225328 l 8.611728655450806 -16.81194001592726" fill="#ffe615" stroke="none" /><path d="M 90.42595943632237 118.69057910512821 l -8.935329408960943 17.44367804144874 a40.599030977585684,40.599030977585684 0 0,0 -0.6192494747966342,-0.3239620576759751 l 9.234269786284072 -17.287286564828047" fill="#ffef16" stroke="none" /><line stroke="#e1ed5e" stroke-width="0.3" x1="58.666819895761336" x2="56.23545636021788" y1="174.27360380694188" y2="178.64263932499728" /><path d="M 58.180547188652646 175.14741091055294 a86.0,86.0 0 0,1 -31.652253787137756,-30.449443065178592" fill="none" id="id68" stroke="none" /><text fill="#e1ed5e" style="font-size:6.75px; font-family:Arial;" text-anchor="middle"><textPath startOffset="22.20632615414155" xlink:href="#id68">August</textPath></text><path d="M 89.7882731507175 118.34994917583269 l -11.47137696771489 20.61347580494442 a44.590419120830575,44.590419120830575 0 0,0 -0.6674787254349176,-0.3790118404266055 l 11.824504460071015 -20.412960798723184" fill="#deff1b" stroke="none" /><path d="M 89.4739219176387 118.17145234162733 l -10.01039905643895 17.281221738186613 a40.97119711067735,40.97119711067735 0 0,0 -0.6072168049177101,-0.3587543914069313 l 10.306383732385042 -17.106348774485934" fill="#fff316" stroke="none" /><path d="M 89.1626897886671 117.98757091392108 l -10.351644734461573 17.181472164756276 a41.05890162638026,41.05890162638026 0 0,0 -0.6022378918503942,-0.3699437012890575 l 10.645861826244275 -17.000739996638842" fill="#fff417" stroke="none" /><path d="M 88.54995079064634 117.60387380957326 l -10.741126457395305 16.513940793738218 a40.699797920609456,40.699797920609456 0 0,0 -0.5839942318881105,-0.38703953266329294 l 11.023795388023379 -16.326603239983605" fill="#fff016" stroke="none" /><path d="M 88.24862548938628 117.40417183066458 l -10.981609123384585 16.2641239957042 a40.62441001116835,40.62441001116835 0 0,0 -0.576176230384925,-0.3962992651141158 l 11.2599422383924 -16.07268394122498" fill="#ffef16" stroke="none" /><path d="M 87.65650970185807 116.9893568818739 l -11.931008679639923 16.421624639641045 a41.298244355581815,41.298244355581815 0 0,0 -0.571518595478989,-0.4227957938554369 l 12.211912245537476 -16.21381889704584" fill="#fff717" stroke="none" /><path d="M 87.36589467227662 116.77436683061367 l -11.992931209151863 15.923076645180972 a40.93426118108611,40.93426118108611 0 0,0 -0.5591839787237085,-0.42875843005724623 l 12.265243916369059 -15.714278873296358" fill="#fff316" stroke="none" /><path d="M 87.07902340077011 116.55440617244103 l -12.135633803870663 15.548221886049582 a40.72361051226371,40.72361051226371 0 0,0 -0.5488815630948988,-0.4360647096891551 l 12.40147285968292 -15.337023262355295" fill="#fff016" stroke="none" /><path d="M 86.51685102203217 116.09983520530335 l -12.626441749182428 15.076866073598621 a40.665678779201244,40.665678779201244 0 0,0 -0.5327872452660019,-0.45405284898813303 l 12.884094471025486 -14.857288834387537" fill="#fff016" stroke="none" /><path d="M 86.24171649860922 115.8653595955263 l -12.676443557602687 14.61783625940177 a40.34873014375279,40.34873014375279 0 0,0 -0.5208015169510796,-0.4595467861552637 l 12.926187427460354 -14.397466331474218" fill="#ffec16" stroke="none" /><path d="M 85.44109423537348 115.13401014063109 l -13.690480170241116 14.231280089053659 a40.74736894537752,40.74736894537752 0 0,0 -0.5012897479809221,-0.490617525905466 l 13.933419870597833 -13.993512460225622" fill="#fff116" stroke="none" /><path d="M 85.18274418774928 114.88116024355367 l -13.909855655536159 13.969846616510054 a40.71397217322447,40.71397217322447 0 0,0 -0.49236642498183325,-0.49876458901755677 l 14.148262705573526 -13.728341533511832" fill="#fff016" stroke="none" /><path d="M 84.43433777217949 114.09645910891817 l -14.52694549708991 13.155784198581046 a40.59864289574805,40.59864289574805 0 0,0 -0.4646440255371621,-0.5220324883485017 l 14.75124837227541 -12.90377754049168" fill="#ffef16" stroke="none" /><path d="M 83.72743513129214 113.27417163493432 l -15.223899127683396 12.418733715568417 a40.64668042566161,40.64668042566161 0 0,0 -0.43759458946059,-0.5459665335961199 l 15.435411629198846 -12.154839348394036" fill="#ffef16" stroke="none" /><path d="M 83.50135304334701 112.99209946851258 l -25.833287717477166 20.342798079501136 a53.881426185573396,53.881426185573396 0 0,0 -0.5675335309912709,-0.7336135930960884 l 26.179628065686504 -19.8951064922918" fill="#74ff27" stroke="none" /><path d="M 82.44556493220864 111.52570212397912 l -16.48746046784644 10.825159419794888 a40.72360081584428,40.72360081584428 0 0,0 -0.37968966597699455,-0.589286793397922 l 16.671354997200478 -10.539751026475518" fill="#fff016" stroke="none" /><path d="M 82.24976979558568 111.22182372390057 l -16.657478879437072 10.5309784446149 a40.70718421337345,40.70718421337345 0 0,0 -0.36934085772371467,-0.5954950633399203 l 16.836284376828743 -10.242687049909716" fill="#fff016" stroke="none" /><path d="M 82.05923443525364 110.91462005526583 l -16.897077521466848 10.279671763482563 a40.778343720630424,40.778343720630424 0 0,0 -0.3596632911624606,-0.6028163637821409 l 17.07152168832754 -9.98729330581431" fill="#fff116" stroke="none" /><line stroke="#e1ed5e" stroke-width="0.3" x1="26.63291911575756" x2="22.317208475507996" y1="142.92168965132927" y2="145.44649492493687" /><path d="M 25.769776987707644 143.4266507060508 a86.0,86.0 0 0,1 -11.730757126820373,-40.83630448921669" fill="none" id="id69" stroke="none" /><text fill="#e1ed5e" style="font-size:6.75px; font-family:Arial;" text-anchor="middle"><textPath startOffset="21.46611528233685" xlink:href="#id69">September</textPath></text><path d="M 81.69416730710424 110.29060199501025 l -18.4273215175831 10.35889679277622 a42.13936898480583,42.13936898480583 0 0,0 -0.350004763894154,-0.6353603122239021 l 18.60290269092877 -10.040165962154495" fill="#fcff18" stroke="none" /><path d="M 81.51974371655577 109.97397251340807 l -17.413430449750646 9.398196324016912 a40.787714728413384,40.787714728413384 0 0,0 -0.32814200469544347,-0.620721009340542 l 17.572624962670975 -9.097060299590243" fill="#fff116" stroke="none" /><path d="M 81.02952815118164 109.00673069616217 l -17.81807673177716 8.459600790407665 a40.72431757888127,40.72431757888127 0 0,0 -0.29520356416103727,-0.6358422146609176 l 17.961054912778025 -8.151638508467919" fill="#fff016" stroke="none" /><path d="M 80.73074385275274 108.34839909993369 l -18.068170092819184 7.828028948688244 a40.69103368857376,40.69103368857376 0 0,0 -0.27291867472887676,-0.6450991281858443 l 18.200239748740366 -7.515855294836241" fill="#fff016" stroke="none" /><path d="M 80.58989483394504 108.01547362559985 l -18.207001045030058 7.518647396765687 a40.698348807212675,40.698348807212675 0 0,0 -0.2618209775188282,-0.649818194419639 l 18.333724636806274 -7.204129834503242" fill="#fff016" stroke="none" /><path d="M 80.45479744820244 107.68017299344265 l -18.423258051932073 7.239311466161319 a40.79454641440856,40.79454641440856 0 0,0 -0.2511889625129109,-0.6557751176778681 l 18.54514129403849 -6.921112781650294" fill="#fff116" stroke="none" /><path d="M 80.32549172779594 107.34259656027581 l -18.477332470375558 6.895806287150138 a40.72216924100121,40.72216924100121 0 0,0 -0.23943809240490213,-0.6588307957295189 l 18.593294823785687 -6.576727694414502" fill="#fff016" stroke="none" /><path d="M 80.0844068197444 106.66101706037122 l -29.432798566592385 9.844164399828607 a52.03541854385817,52.03541854385817 0 0,0 -0.276798070141034,-0.8518968635949451 l 29.59788888774967 -9.33606863625586" fill="#89ff25" stroke="none" /><path d="M 79.97269907076064 106.31721596034903 l -46.55347932304073 14.684374276312479 a69.81451920246279,69.81451920246279 0 0,0 -0.3516431915227251,-1.149190295835167 l 46.79934928706959 -13.880857007925265" fill="#3bff9c" stroke="none" /><path d="M 79.76711848015287 105.62410040840567 l -28.862310167915176 8.022808330275312 a50.95660864873183,50.95660864873183 0 0,0 -0.22763511811604206,-0.8471149568522872 l 28.99613336237299 -7.524802440247487" fill="#95ff23" stroke="none" /><path d="M 79.67330655649465 105.27499134158121 l -29.03151216865522 7.533983613630798 a50.99315935157938,50.99315935157938 0 0,0 -0.21317249711513328,-0.8515181602748302 l 29.15689598006541 -7.0331376139585755" fill="#94ff23" stroke="none" /><path d="M 79.58551787078972 104.9243191809786 l -28.853715575440663 6.960005360475923 a50.68128327964074,50.68128327964074 0 0,0 -0.19726949586624054,-0.849831825169388 l 28.96924563723746 -6.46230487795796" fill="#98ff23" stroke="none" /><path d="M 79.35854240842038 103.8639653848113 l -21.84694489476801 4.089625864003889 a43.22642663458433,43.22642663458433 0 0,0 -0.13061288356802025,-0.7325464148597598 l 21.91410422067522 -3.712960698410915" fill="#efff19" stroke="none" /><path d="M 79.29508885075956 103.50808413554451 l -19.387463252750557 3.2848656908108222 a40.663775679747246,40.663775679747246 0 0,0 -0.11098934680995827,-0.6911307685332262 l 19.441134353921807 -2.950655692584382" fill="#ffef16" stroke="none" /><path d="M 79.18660465613746 102.79330883721812 l -22.804168222061186 3.060485017831356 a44.0086213590566,44.0086213590566 0 0,0 -0.09430102577545098,-0.751671959037216 l 22.853470757083485 -2.667495304506731" fill="#e5ff1a" stroke="none" /><path d="M 79.10278846688536 102.07522291339032 l -19.59908640768658 1.9463110248128779 a40.695489702499735,40.695489702499735 0 0,0 -0.06322413244029415,-0.6976730330966704 l 19.62968513640395 -1.6086566031676413" fill="#fff016" stroke="none" /><path d="M 79.07016306316243 101.71520430193888 l -19.578707549120995 1.60447897974544 a40.644341223122055,40.644341223122055 0 0,0 -0.05114111266361439,-0.6977798504917909 l 19.603425220448948 -1.2672259927568883" fill="#ffef16" stroke="none" /><path d="M 79.04373962182676 101.35467743843564 l -62.86878113451971 4.064032315306924 a84.0,84.0 0 0,0 -0.08085459644987347,-1.4437131346582497 l 62.92942208185711 -2.9812474643132365" fill="#4dd2ff" stroke="none" /><path d="M 79.0235259727143 100.99374915477108 l -19.67359031336825 0.9320257408271383 a40.695655048761935,40.695655048761935 0 0,0 -0.027126303471710782,-0.7000093595848823 l 19.686718749691163 -0.5932391342282592" fill="#fff016" stroke="none" /><path d="M 79.0095281055655 100.63252640178507 l -19.70019915790381 0.5936453525421791 a40.70914157607248,40.70914157607248 0 0,0 -0.015077769110754693,-0.7006046836206705 l 19.707498989699573 -0.25445085313137966" fill="#fff016" stroke="none" /><line stroke="#e1ed5e" stroke-width="0.3" x1="15.007084014347285" x2="10.007500721073583" y1="101.09737516637583" y2="101.16192664675087" /><path d="M 14.007167355692545 101.11028546245083 a86.0,86.0 0 0,1 10.666146001902534,-42.60595125391555" fill="none" id="id70" stroke="none" /><text fill="#e1ed5e" style="font-size:6.75px; font-family:Arial;" text-anchor="middle"><textPath startOffset="22.20632615414155" xlink:href="#id70">October</textPath></text><path d="M 79.08570108090925 98.10471618934814 l -19.508798484050683 -1.767915342280006 a40.588740208312714,40.588740208312714 0 0,0 0.06904506977039174,-0.6952744300386211 l 19.475476288598063 2.1034653030230572" fill="#ffef16" stroke="none" /><path d="M 79.12142395522702 97.74499172005258 l -19.68985862269502 -2.1266198484971546 a40.804369330068035,40.804369330068035 0 0,0 0.08143317688258736,-0.6976697291269474 l 19.65033509280884 2.4652333159489634" fill="#fff116" stroke="none" /><path d="M 79.26566170972629 96.67025291283419 l -19.465013444932175 -3.125905004178971 a40.71441174639866,40.71441174639866 0 0,0 0.11707940641258004,-0.6910092841322606 l 19.40832217699937 3.4605000766270595" fill="#fff016" stroke="none" /><path d="M 79.32604984820605 96.31383870115002 l -38.1244729098086 -6.797586119118925 a59.72573577993798,59.72573577993798 0 0,0 0.189172099016831,-1.0105649172519036 l 38.00181508688191 7.452829113833402" fill="#38ff2e" stroke="none" /><path d="M 79.3925641242962 95.95851677861259 l -19.320663756167065 -3.7891244144876057 a40.68871534172135,40.68871534172135 0 0,0 0.14070681697286508,-0.6861364105686272 l 19.252577643279203 4.121136481219636" fill="#fff016" stroke="none" /><path d="M 79.46518482838121 95.60439243477599 l -19.12063167896772 -4.092892609819715 a40.5537803434083,40.5537803434083 0 0,0 0.15199095911012708,-0.6813456672585809 l 19.047346332855554 4.421416446628255" fill="#ffee16" stroke="none" /><path d="M 79.54389044137918 95.25157060432595 l -19.23720572486431 -4.465488068139455 a40.74868774849225,40.74868774849225 0 0,0 0.16448343588029204,-0.6818900316819039 l 19.1574894887232 4.795963331480755" fill="#fff116" stroke="none" /><path d="M 79.81627453868168 94.20196356495316 l -20.923762153215495 -6.010621555227683 a42.7699654139482,42.7699654139482 0 0,0 0.20935715358524412,-0.7058482448733969 l 20.817199102518543 6.369899186847619" fill="#f4ff19" stroke="none" /><path d="M 79.91906864156998 93.8553929516997 l -29.34556882362973 -8.97951324127003 a51.68866350352411,51.68866350352411 0 0,0 0.26765993844565844,-0.8485551495467143 l 29.186653401415867 9.483318557243159" fill="#8cff24" stroke="none" /><path d="M 80.2630227832202 92.82701384747504 l -18.51545277982152 -6.729048979419065 a40.700306896320704,40.700306896320704 0 0,0 0.24496819229859523,-0.6563929648375694 l 18.396879999021294 7.046765081285975" fill="#fff016" stroke="none" /><path d="M 80.38941819471856 92.48833698450439 l -18.393478596895104 -7.045462203747419 a40.69666450338411,40.69666450338411 0 0,0 0.2562076926499145,-0.652020631885088 l 18.2694773543635 7.36103184052827" fill="#fff016" stroke="none" /><path d="M 80.65960295795068 91.81776055985345 l -21.195813482245484 -8.967200655878681 a44.01463005952802,44.01463005952802 0 0,0 0.3012052972567513,-0.6952233543547535 l 21.03831747514605 9.330723154820035" fill="#e5ff1a" stroke="none" /><path d="M 80.803312248108 91.48605970444005 l -32.39156283936619 -14.366011244156493 a56.434384744818686,56.434384744818686 0 0,0 0.40148411068927076,-0.8846170191682425 l 32.13947641171356 14.921450272166807" fill="#59ff2a" stroke="none" /><path d="M 80.95270993114464 91.15688171328213 l -18.576350751059646 -8.624474475546892 a41.48078043448916,41.48078043448916 0 0,0 0.3062502437817588,-0.645041116953917 l 18.425142313436137 8.942958008141341" fill="#fffa17" stroke="none" /><path d="M 81.10775173730289 90.83032412892265 l -18.563270218584126 -9.010000749764574 a41.63431885764419,41.63431885764419 0 0,0 0.3184826877135926,-0.6420416643535686 l 18.405427517917122 9.328202002617104" fill="#fffc17" stroke="none" /><path d="M 81.26839172434947 90.50648371742162 l -29.288945558634744 -14.84416487194526 a53.83582742496622,53.83582742496622 0 0,0 0.42604793695473403,-0.8229890058618703 l 29.029088188519896 15.346126600067466" fill="#75ff27" stroke="none" /><line stroke="#e1ed5e" stroke-width="0.3" x1="26.266209847984243" x2="21.928928074336255" y1="57.711370442889674" y2="55.22380399835377" /><path d="M 25.398753493254645 57.213857153982495 a86.0,86.0 0 0,1 29.58750427330803,-30.492523968695096" fill="none" id="id71" stroke="none" /><text fill="#e1ed5e" style="font-size:6.75px; font-family:Arial;" text-anchor="middle"><textPath startOffset="21.46611528233685" xlink:href="#id71">November</textPath></text><path d="M 85.31137513191541 84.99185889309783 l -15.559237961832647 -15.897692326150612 a43.244696159981196,43.244696159981196 0 0,0 0.5364746654554481,-0.5160882031198152 l 15.28328005276477 16.16316361603274" fill="#efff19" stroke="none" /><path d="M 85.57189188830299 84.74124197986013 l -14.518407351573513 -15.35425593573706 a42.131429846707974,42.131429846707974 0 0,0 0.5312414508503983,-0.4937310317805976 l 14.251958016928258 15.601891553592305" fill="#fcff18" stroke="none" /><path d="M 85.83668400450813 84.49514656593479 l -13.411436760426575 -14.681756827061948 a40.88518593093616,40.88518593093616 0 0,0 0.5236983707389334,-0.47018156804635336 l 13.15672740209167 14.910437403877578" fill="#fff216" stroke="none" /><path d="M 86.37877921826538 84.01681056812374 l -19.497838218867752 -22.8788334583146 a51.060051823349134,51.060051823349134 0 0,0 0.673852786919926,-0.5643323300767283 l 19.101127894988718 23.211066945785138" fill="#93ff23" stroke="none" /><path d="M 86.65592168130627 83.78471172551755 l -19.092133785041277 -23.200137597044293 a51.04589750677624,51.04589750677624 0 0,0 0.6832775383990305,-0.5524962506176271 l 18.689952848077745 23.525339944926056" fill="#94ff23" stroke="none" /><path d="M 86.93701828274178 83.55741782278169 l -18.58870487019496 -23.397897510063313 a50.883131640486354,50.883131640486354 0 0,0 0.6904779051940942,-0.5389289571830393 l 18.18319440984144 23.714404856469574" fill="#95ff23" stroke="none" /><path d="M 87.22198572758235 83.33499621200491 l -17.138060048123506 -22.351347363679828 a49.16550782757102,49.16550782757102 0 0,0 0.6760347375063389,-0.5091753486198457 l 16.75077915685878 22.64303930180553" fill="#a9ff21" stroke="none" /><path d="M 87.80319425747018 82.90503203632743 l -17.194931276060938 -24.100309991560433 a50.60558398812235,50.60558398812235 0 0,0 0.713463694384131,-0.49982691237709076 l 16.777536442093147 24.392721746701465" fill="#98ff23" stroke="none" /><path d="M 88.09926311788651 82.69761687909137 l -24.82726091329035 -36.09614971070772 a64.81010052938043,64.81010052938043 0 0,0 0.9246096130306013,-0.6243005380866485 l 24.202246605853208 36.51816216109303" fill="#35ff62" stroke="none" /><path d="M 88.39885842347998 82.49532879139004 l -12.598123892491357 -19.008992789961752 a43.80470417478331,43.80470417478331 0 0,0 0.6321080852725733,-0.41114068189157615 l 12.269048781434496 19.22303239601286" fill="#e8ff1a" stroke="none" /><path d="M 88.70189139769569 82.29822771554957 l -13.018931685980961 -20.397942009961557 a45.1985251717123,45.1985251717123 0 0,0 0.6594267835063694,-0.412932991335761 l 12.66588575010235 20.61901934262025" fill="#d7ff1c" stroke="none" /><path d="M 89.00827224532344 82.1063720568725 l -15.465817541460625 -25.17707780794054 a50.547872329033154,50.547872329033154 0 0,0 0.7453113688121853,-0.44904176036352267 l 15.03014410643079 25.439566177762682" fill="#99ff23" stroke="none" /><line stroke="#e1ed5e" stroke-width="0.3" x1="56.762969772571076" x2="54.21961505331055" y1="26.818313649435495" y2="22.513508569990535" /><path d="M 56.25429882871897 25.957352633546506 a86.0,86.0 0 0,1 42.265352541879196,-11.944610805530505" fill="none" id="id72" stroke="none" /><text fill="#e1ed5e" style="font-size:6.75px; font-family:Arial;" text-anchor="middle"><textPath startOffset="22.20632615414155" xlink:href="#id72">December</textPath></text><path d="M 89.3179101791058 81.91981866633112 l -10.815065613895673 -18.30525212887529 a42.261418102623395,42.261418102623395 0 0,0 0.6295004606261841,-0.36464729823792186 l 10.49836842080417 18.488703584503256" fill="#fbff18" stroke="none" /><path d="M 89.63071344664047 81.73862282372117 l -14.538079982056438 -25.603049988547905 a50.4426890463618,50.4426890463618 0 0,0 0.7587443024845277,-0.4222403828576162 l 14.095211590499863 25.849505768965706" fill="#9aff22" stroke="none" /><path d="M 90.26544431104013 81.39251694778311 l -6.7595908656806944 -12.920874510556422 a35.58221748531205,35.58221748531205 0 0,0 0.5451526335349935,-0.2792483527397857 l 6.536177744556937 13.035315388608712" fill="#ffae10" stroke="none" /><path d="M 91.23893434514133 80.91482961587045 l -19.25129790905914 -41.93717010969683 a67.14475818544284,67.14475818544284 0 0,0 1.0545496143230222,-0.47314567256330575 l 18.52656617626934 42.262336112776666" fill="#38ff7e" stroke="none" /><path d="M 91.56875222667455 80.76684994638697 l -12.579260570498978 -28.695492366069942 a52.33159872447764,52.33159872447764 0 0,0 0.8281257255687574,-0.3545602175705112 l 12.083451087139911 28.90777211160324" fill="#85ff25" stroke="none" /><path d="M 91.90106846888425 80.62456947434976 l -11.495048905249577 -27.500111662498718 a50.805910333086246,50.805910333086246 0 0,0 0.8097884623204925,-0.3303330463579165 l 11.019976573340704 27.69390559504021" fill="#96ff23" stroke="none" /><path d="M 92.23578459929587 80.48803036053334 l -10.954705255946287 -27.529874601874777 a50.629369936595126,50.629369936595126 0 0,0 0.8125214292424678,-0.31524569126829427 l 10.479200661704143 27.71436299703362" fill="#98ff23" stroke="none" /><path d="M 92.57280143429618 80.3572730644239 l -5.214000247477844 -13.78947690669804 a35.74230212487377,35.74230212487377 0 0,0 0.5773533618254204,-0.21264411564575564 l 4.975864559879854 13.877184290150119" fill="#ffb010" stroke="none" /><path d="M 93.25333710446033 80.11325718540243 l -9.518921180277912 -28.0583660864043 a50.62906964241412,50.62906964241412 0 0,0 0.8277061572441013,-0.2728817065259398 l 9.034532200791402 28.218061517189472" fill="#98ff23" stroke="none" /><path d="M 93.59665428221793 80.00007090966166 l -8.974351485610196 -28.030095711612624 a50.43170484680489,50.43170484680489 0 0,0 0.8290362948691564,-0.2575856123577424 l 8.49052981803031 28.180421458852894" fill="#9aff22" stroke="none" /><path d="M 94.28887869178378 79.79150937346287 l -5.351923227085235 -18.937487847247013 a40.67921563968551,40.67921563968551 0 0,0 0.675472778965795,-0.18463222662340323 l 5.025152558895718 19.026806614696714" fill="#fff016" stroke="none" /><path d="M 95.33964822691252 79.52364482259891 l -5.579329208516391 -24.514099383004915 a46.14100202809836,46.14100202809836 0 0,0 0.7759538371938135,-0.16959345432858872 l 5.156532647169057 24.60650633542937" fill="#ccff1d" stroke="none" /><path d="M 95.692805502759 79.44645832069477 l -4.878516704230105 -23.279839458796015 a44.78551766224078,44.78551766224078 0 0,0 0.755880563280999,-0.15162253003902515 l 4.477069731481969 23.36036594491225" fill="#dcff1b" stroke="none" /><path d="M 96.04723909329186 79.375362276772 l -4.390019293592832 -22.90615589085487 a44.32304112019405,44.32304112019405 0 0,0 0.7505471271380041,-0.1371576901079684 l 3.995077045351935 22.978329062313573" fill="#e1ff1b" stroke="none" /><path d="M 97.11714578562143 79.19881850522333 l -3.517645729761631 -25.381507984048618 a46.624105428764416,46.624105428764416 0 0,0 0.7959073853670893,-0.10333162131556063 l 3.080223615886684 25.438297928528314" fill="#c6ff1e" stroke="none" /><path d="M 97.83486435360386 79.11191278185805 l -2.70865098746907 -26.131636677791935 a47.27164299453001,47.27164299453001 0 0,0 0.8100893578520099,-0.07692774567670682 l 2.258436502526824 26.174389967983824" fill="#bfff1e" stroke="none" /><path d="M 98.19473922651362 79.07773832637324 l -2.5629819640160165 -29.703951973857865 a50.814319368604174,50.814319368604174 0 0,0 0.8720942486343097,-0.06769129816230711 l 2.051297526019373 29.743668534208634" fill="#96ff23" stroke="none" /><path d="M 98.55514903715128 79.0497635885617 l -1.636427757435144 -23.728086335570225 a44.784448216294166,44.784448216294166 0 0,0 0.7695204065816946,-0.04641957239408057 l 1.2277453020138263 23.752739177344612" fill="#dcff1b" stroke="none" /><path d="M 98.91598698831166 79.02799685794201 l -1.96142071968007 -37.946889061747434 a58.997546772181984,58.997546772181984 0 0,0 1.0146430896815792,-0.04369266580012963 l 1.3079367976091667 37.97502945407176" fill="#3fff2d" stroke="none" /></svg>