<?xml version="1.0" encoding="utf-8" ?>
<svg baseProfile="full" height="200mm" version="1.1" viewBox="0,0,200,200" width="200mm" xmlns="http://www.w3.org/2000/svg" xmlns:ev="http://www.w3.org/2001/xml-events" xmlns:xlink="http://www.w3.org/1999/xlink"><defs /><rect fill="#1a1a1a" height="200" width="200" x="0" y="0" /><text alignment-baseline="middle" fill="#e1ed5e" style="dominant-baseline: central; font-size:9.0px; font-family:Arial;" text-anchor="middle" x="100.0" y="100.0">2021</text><line stroke="#e1ed5e" stroke-width="0.3" x1="100.0" x2="100.0" y1="15.0" y2="10.0" /><path d="M 100.0 14.0 a86.0,86.0 0 0,1 42.46469731375804,11.215312516191453" fill="none" id="id61" stroke="none" /><text fill="#e1ed5e" style="font-size:6.75px; font-family:Arial;" text-anchor="middle"><textPath startOffset="22.20632615414155" xlink:href="#id61">January</textPath></text><path d="M 100.0 79.0 l 0.0 -13.384383201363079 a34.38438320136308,34.38438320136308 0 0,0 0.5918706342437619,0.005094417409164076 l -0.2303901549712335 13.382400160562474" fill="#ff2b04" stroke="none" /><path d="M 100.36148047927253 79.00311137660856 l 0.2273132376122888 -13.203674904860813 a34.20563146166229,34.20563146166229 0 0,0 0.588619244599295,0.015202298492073179 l -0.4545591174064516 13.197805814226381" fill="#ff2803" stroke="none" /><path d="M 100.72285384407766 79.0124445844662 l 0.4513819079262779 -13.105557760794516 a34.113328709687885,34.113328709687885 0 0,0 0.5866829238676188,0.025263800822052575 l -0.6769056641832283 13.095846233448269" fill="#ff2603" stroke="none" /><path d="M 101.08401301168833 79.027996857942 l 0.6890590877471756 -13.330974072709987 a34.34877043602417,34.34877043602417 0 0,0 0.5902066642387367,0.035602877771367294 l -0.9184278008255242 13.317137925558315" fill="#ff2a04" stroke="none" /><path d="M 101.44485096284872 79.0497635885617 l 0.8300842174910495 -12.036162237490318 a33.06475201632075,33.06475201632075 0 0,0 0.5674695720468244,0.04404656040285772 l -1.037143978900215 12.020090414898997" fill="#ff1502" stroke="none" /><path d="M 101.80526077348638 79.07773832637324 l 1.141351411337024 -13.227813532689408 a34.27696252535805,34.27696252535805 0 0,0 0.5874008348831281,0.05578078714179777 l -1.3688773733103963 13.206207201032433" fill="#ff2904" stroke="none" /><path d="M 102.16513564639614 79.11191278185805 l 1.3762180959286243 -13.277026622692668 a34.34816137852893,34.34816137852893 0 0,0 0.5875715828756612,0.06602051352772635 l -1.604556382314011 13.25137015569434" fill="#ff2a04" stroke="none" /><path d="M 102.52436894288641 79.15227682838746 l 1.608282579629238 -13.2821432842933 a34.379159281525745,34.379159281525745 0 0,0 0.5868772499385599,0.07619351053187817 l -1.836674558075644 13.252491450597285" fill="#ff2b04" stroke="none" /><path d="M 102.88285421437855 79.19881850522331 l 1.8301422298416479 -13.205357556520681 a34.3315748798485,34.3315748798485 0 0,0 0.5846683870366748,0.08616492207660646 l -2.0571795973069786 13.171898150283107" fill="#ff2a04" stroke="none" /><path d="M 103.2404852339499 79.25152402106235 l 2.021551472787914 -12.943775127837684 a34.1006864292357,34.1006864292357 0 0,0 0.5791770904726087,0.09556918250878797 l -2.2440577693993977 12.907059682389272" fill="#ff2603" stroke="none" /><path d="M 103.59715602781102 79.31037775812273 l 2.286265351878513 -13.149823390853477 a34.34709198551645,34.34709198551645 0 0,0 0.581618737427481,0.10628710665146157 l -2.512279210408895 13.108520802851277" fill="#ff2a04" stroke="none" /><path d="M 103.95276090670814 79.375362276772 l 2.46150360865481 -12.843584871720285 a34.07733429917974,34.07733429917974 0 0,0 0.5751500929260646,0.11536969790981609 l -2.682220111048 12.799311217733262" fill="#ff2603" stroke="none" /><path d="M 104.307194497241 79.44645832069477 l 2.736749213655854 -13.059519152133147 a34.34319439802098,34.34319439802098 0 0,0 0.5775499513081385,0.1262300495141302 l -2.96114188911752 13.010475604523146" fill="#ff2a04" stroke="none" /><path d="M 104.66035177308747 79.52364482259891 l 2.8791400208644555 -12.650181047091527 a33.973685975232215,33.973685975232215 0 0,0 0.5691018091742958,0.13468801128954863 l -3.0964655170012745 12.598747123661111" fill="#ff2403" stroke="none" /><path d="M 105.01212808612495 79.60689891045804 l 3.1906389036370006 -12.98191518333687 a34.36825712053573,34.36825712053573 0 0,0 0.573280713367203,0.14614201846484828 l -3.4136285056892284 12.925070168703154" fill="#ff2b04" stroke="none" /><path d="M 105.36241919743992 79.69619591428918 l 3.4054409112200643 -12.894069363299034 a34.33619333038398,34.33619333038398 0 0,0 0.5701477662060779,0.1558429219607639 l -3.626886566649853 12.833539900511976" fill="#ff2a04" stroke="none" /><path d="M 105.71112130821622 79.79150937346287 l 3.633485549509869 -12.856890040716397 a34.36045802948273,34.36045802948273 0 0,0 0.5677816695111486,0.16575103892882634 l -3.8542574367444447 12.792440672868867" fill="#ff2b04" stroke="none" /><path d="M 106.0581310904928 79.89281104454417 l 3.8490772603261987 -12.775247451971463 a34.34250138523746,34.34250138523746 0 0,0 0.5645492293279235,0.17540819363702 l -4.06841186236484 12.707099123451924" fill="#ff2a04" stroke="none" /><path d="M 106.40334571778207 80.00007090966166 l 3.9687089957855224 -12.395691564095515 a34.01552228861438,34.01552228861438 0 0,0 0.5561006243846301,0.1833376326297716 l -4.18149244241257 12.325540207206506" fill="#ff2503" stroke="none" /><path d="M 106.74666289553966 80.11325718540242 l 4.238120680333987 -12.492459945308669 a34.19178617118304,34.19178617118304 0 0,0 0.5557272349259652,0.193882320275371 l -4.452529919323226 12.417656771861092" fill="#ff2803" stroke="none" /><path d="M 107.08798089147638 80.2323363322302 l 4.515300631653913 -12.59271795621495 a34.37776084847508,34.37776084847508 0 0,0 0.5553116228650616,0.20452595716876887 l -4.731394580291552 12.513128731239854" fill="#ff2b04" stroke="none" /><path d="M 107.4271985657038 80.35727306442388 l 4.7358104661012135 -12.52480743329293 a34.390246525434236,34.390246525434236 0 0,0 0.5519091447087164,0.2141321737239666 l -4.950702775809597 12.441432555678416" fill="#ff2b04" stroke="none" /><path d="M 107.76421540070413 80.48803036053334 l 4.94256736604997 -12.420987750885898 a34.36824254999885,34.36824254999885 0 0,0 0.5477907216849212,0.2234575895811736 l -5.155641957323279 12.334069275121145" fill="#ff2b04" stroke="none" /><path d="M 108.09893153111575 80.62456947434976 l 4.931571241289926 -11.798015034551607 a33.78724183174087,33.78724183174087 0 0,0 0.5346690114359044,0.22891736745978244 l -5.133924010516146 11.711378139129035" fill="#ff2103" stroke="none" /><path d="M 108.43124777332544 80.76684994638697 l 5.332720239393778 -12.164867089150468 a34.28239046438314,34.28239046438314 0 0,0 0.5384259712789287,0.24157603857250656 l -5.541328329139486 12.07127072006143" fill="#ff2904" stroke="none" /><path d="M 108.76106565485865 80.91482961587045 l 5.584872587253495 -12.166127854809128 a34.386764687385,34.386764687385 0 0,0 0.53581422136314,0.25157196141431093 l -5.7934650199162325 12.068190910754815" fill="#ff2b04" stroke="none" /><path d="M 109.08828744355905 81.06846463323043 l 5.754219145853326 -11.986439023236306 a34.296080566703374,34.296080566703374 0 0,0 0.5300030272771618,0.2600701837070276 l -5.959693440140919 11.885613679394448" fill="#ff2a04" stroke="none" /><path d="M 109.41281617654863 81.2277094730956 l 5.987183447447726 -11.94043790989794 a34.35741079376987,34.35741079376987 0 0,0 0.5263874569762069,0.2696361004629642 l -6.191831392012689 11.835609284122475" fill="#ff2b04" stroke="none" /><path d="M 109.73455568895987 81.39251694778311 l 6.172362703995928 -11.798395127267671 a34.31541170707138,34.31541170707138 0 0,0 0.5210304287247662,0.27831641059833395 l -6.374538179249005 11.690399990167583" fill="#ff2a04" stroke="none" /><path d="M 110.05341064243156 81.56283822128135 l 6.330480729699874 -11.609602104376796 a34.22338259641048,34.22338259641048 0 0,0 0.5147781977465439,0.2864735097074226 l -6.529383016518453 11.498913197109193" fill="#ff2803" stroke="none" /><path d="M 110.36928655335952 81.73862282372117 l 6.578998619947601 -11.586291363715535 a34.32386469483166,34.32386469483166 0 0,0 0.5112674776648238,0.2961591230957121 l -6.777462830077753 11.471328083229773" fill="#ff2a04" stroke="none" /><line stroke="#e1ed5e" stroke-width="0.3" x1="143.23703022742887" x2="145.7803849466894" y1="26.81831364943548" y2="22.513508569990506" /><path d="M 143.74570117128098 25.957352633546492 a86.0,86.0 0 0,1 28.547481713284135,27.462654790039103" fill="none" id="id62" stroke="none" /><text fill="#e1ed5e" style="font-size:6.75px; font-family:Arial;" text-anchor="middle"><textPath startOffset="19.985693538727396" xlink:href="#id62">February</textPath></text><path d="M 110.68208982089419 81.91981866633111 l 6.814259261977624 -11.533608608139831 a34.39620307457322,34.39620307457322 0 0,0 0.5071604404747332,0.30555849072912666 l -7.011781768669995 11.414603507952089" fill="#ff2b04" stroke="none" /><path d="M 110.99172775467656 82.1063720568725 l 6.758284885655672 -11.00193145032485 a33.91189026569421,33.91189026569421 0 0,0 0.4947596992505804,0.3098184782813714 l -6.946663737278516 10.883968630720533" fill="#ff2303" stroke="none" /><path d="M 111.60114157652 82.49532879139004 l 7.045152840659455 -10.630254210477572 a33.75290096909829,33.75290096909829 0 0,0 0.4815338419287015,0.3251337995910123 l -7.227091376994698 10.50740849858789" fill="#ff2003" stroke="none" /><path d="M 111.90073688211348 82.69761687909136 l 7.51267885116956 -10.922621769972185 a34.256847658877305,34.256847658877305 0 0,0 0.4829707546581085,0.33835187826561625 l -7.699580745411319 10.791685048942632" fill="#ff2904" stroke="none" /><path d="M 112.19680574252982 82.90503203632743 l 7.769387867839452 -10.88952628268336 a34.37703892878325,34.37703892878325 0 0,0 0.47874885926718075,0.34783140649165817 l -7.955682043460421 10.754175641375026" fill="#ff2b04" stroke="none" /><path d="M 112.48926042617603 83.11751280151076 l 7.944279468416491 -10.738762092402542 a34.35786613009449,34.35786613009449 0 0,0 0.47242695208187463,0.3558221858702135 l -8.12795257425675 10.60042331702648" fill="#ff2b04" stroke="none" /><path d="M 112.77801427241765 83.33499621200491 l 8.133446212947238 -10.607588085169251 a34.36689463875325,34.36689463875325 0 0,0 0.4663545786814565,0.3639971458546306 l -8.314833346788124 10.466012550091396" fill="#ff2b04" stroke="none" /><path d="M 113.06298171725822 83.55741782278167 l 8.311625430920062 -10.461974695532621 a34.36173760533719,34.36173760533719 0 0,0 0.45995084096566685,0.3719149259572862 l -8.49047967045022 10.317353672311206" fill="#ff2b04" stroke="none" /><path d="M 113.6212207817346 84.01681056812373 l 8.619814908366322 -10.114521800635947 a34.2892723769977,34.2892723769977 0 0,0 0.445933948859442,0.3867095261448064 l -8.792642655872529 9.96464728107147" fill="#ff2904" stroke="none" /><path d="M 113.89432698308785 84.25364557470407 l 8.317164222161281 -9.425790526950516 a33.570630364319435,33.570630364319435 0 0,0 0.4300062241656359,0.38606383377250786 l -8.478181433922908 9.28122768440871" fill="#ff1d03" stroke="none" /><path d="M 114.16331599549186 84.49514656593476 l 8.990325851979282 -9.841881993157187 a34.329988750632864,34.329988750632864 0 0,0 0.43287192240853234,0.4023072757923776 l -9.158405658182662 9.68567013129017" fill="#ff2a04" stroke="none" /><path d="M 114.42810811169701 84.74124197986012 l 9.165052013959365 -9.692699128697686 a34.33966247016908,34.33966247016908 0 0,0 0.42600273724632487,0.40981429570943817 l -9.330537994818108 9.533501746225946" fill="#ff2a04" stroke="none" /><path d="M 114.68862486808459 84.99185889309783 l 9.372823522350824 -9.576707095241952 a34.40011714759205,34.40011714759205 0 0,0 0.41962278491729926,0.41782079132318245 l -9.536282107435445 9.41395045326865" fill="#ff2b04" stroke="none" /><path d="M 114.94478906791727 85.2469230424477 l 9.50045176772632 -9.378579746011312 a34.34976935543037,34.34976935543037 0 0,0 0.4117649752532212,0.42436000216162423 l -9.66048100668265 9.213655548299574" fill="#ff2a04" stroke="none" /><path d="M 115.4437574822437 85.77008943001954 l 9.859137230182935 -9.084229744216746 a34.406185772593616,34.406185772593616 0 0,0 0.39756570380313894,0.43900197992631224 l -10.01404657460211 8.913174977020885" fill="#ff2b04" stroke="none" /><path d="M 115.9244219780498 86.31012108654704 l 10.145444552767904 -8.721817824344841 a34.37909381588855,34.37909381588855 0 0,0 0.3819179859608325,0.4520704322437596 l -10.294073152215853 8.545888442471973" fill="#ff2b04" stroke="none" /><path d="M 116.15771136456269 86.58626213691792 l 10.036258922118401 -8.3318573571362 a34.04401549261062,34.04401549261062 0 0,0 0.3704337559921726,0.454107984266062 l -10.178191170186983 8.157865203262036" fill="#ff2503" stroke="none" /><path d="M 116.38621287248628 86.86637796730983 l 10.444901589370124 -8.371634782907455 a34.38582228142943,34.38582228142943 0 0,0 0.36620232565061145,0.4650397651478592 l -10.587457995614699 8.190602623806557" fill="#ff2b04" stroke="none" /><path d="M 116.60985879189232 87.15038557335679 l 10.595694248818967 -8.196974302176676 a34.396235453477225,34.396235453477225 0 0,0 0.3582516313996104,0.4714171531376803 l -10.73522182044269 8.013372373157962" fill="#ff2b04" stroke="none" /><path d="M 117.45458315368197 88.32363383020206 l 11.109656172360003 -7.4318826377510625 a34.36627621326757,34.36627621326757 0 0,0 0.3246849919491046,0.4945175180953907 l -11.235937799667033 7.239547055677997" fill="#ff2b04" stroke="none" /><path d="M 117.65298651832404 88.62581576622439 l 10.763651468244891 -6.935243206631641 a33.80444419976833,33.80444419976833 0 0,0 0.31095646398279564,0.49185844966443193 l -10.881435528473643 6.748937109253003" fill="#ff2103" stroke="none" /><line stroke="#e1ed5e" stroke-width="0.3" x1="172.23445277983987" x2="176.4835382374775" y1="55.19839476539836" y2="52.563006222186495" /><path d="M 173.08426987136738 54.67131705675599 a86.0,86.0 0 0,1 12.851231095245387,41.99856678651699" fill="none" id="id63" stroke="none" /><text fill="#e1ed5e" style="font-size:6.75px; font-family:Arial;" text-anchor="middle"><textPath startOffset="22.20632615414155" xlink:href="#id63">March</textPath></text><line stroke="#e1ed5e" stroke-width="0.3" x1="184.98032266829074" x2="189.97916517819016" y1="98.17113171792111" y2="98.06355123074" /><path d="M 185.9800911702706 98.14961562048488 a86.0,86.0 0 0,1 -9.607161424134198,41.387399972396054" fill="none" id="id64" stroke="none" /><text fill="#e1ed5e" style="font-size:6.75px; font-family:Arial;" text-anchor="middle"><textPath startOffset="21.466115282336823" xlink:href="#id64">April</textPath></text><path d="M 120.99980553446 99.90962569577887 l 18.410133157922477 -0.07922944676965478 a39.410303642191025,39.410303642191025 0 0,0 -0.002919557914174564,0.6784024394174695 l -18.4087693027188 -0.23768247085149938" fill="#ff7e0b" stroke="none" /><path d="M 120.99824983174949 100.27111621757518 l 12.905603668672978 0.16662905147859816 a33.9066793286911,33.9066793286911 0 0,0 -0.012558286970386327,0.5835342486727503 l -12.900823319017585 -0.3887531159414632" fill="#ff2303" stroke="none" /><path d="M 120.9764740272857 100.99374915477107 l 13.325795693819284 0.6313023909623356 a34.34074111817808,34.34074111817808 0 0,0 -0.033054842439287926,0.5902164167406462 l -13.312954500492467 -0.8605905240384052" fill="#ff2a04" stroke="none" /><path d="M 120.92983693683757 101.71520430193887 l 13.41005500255445 1.0989566760138187 a34.455009511230045,34.455009511230045 0 0,0 -0.05352898074195664,0.5906878419894683 l -13.389151425535418 -1.3296259065518576" fill="#ff2c04" stroke="none" /><path d="M 120.70491114924044 103.5080841355445 l 20.323194619640766 3.4434089629677347 a41.61284320112201,41.61284320112201 0 0,0 -0.12573728311869975,0.7052014582837144 l -20.260910894182878 -3.7927291719846674" fill="#ffa10e" stroke="none" /><path d="M 120.64145759157962 103.86396538481128 l 34.12239487490518 6.387521426649677 a55.71510135337162,55.71510135337162 0 0,0 -0.1845763493057967,0.9411508285774641 l -34.00738859262372 -6.973935982295085" fill="#94ff23" stroke="none" /><path d="M 120.49622156327973 104.57218783832717 l 13.158562803002662 2.93534204009287 a34.48198827817699,34.48198827817699 0 0,0 -0.13421610511654755,0.5781994680802625 l -13.10608613195556 -3.1614101655216973" fill="#ff2d04" stroke="none" /><line stroke="#e1ed5e" stroke-width="0.3" x1="174.80103733775053" x2="179.2010983576182" y1="140.37084112569926" y2="142.7455964860345" /><path d="M 175.68104954172406 140.8457921977663 a86.0,86.0 0 0,1 -30.038265399797805,32.042727171017184" fill="none" id="id65" stroke="none" /><text fill="#e1ed5e" style="font-size:6.75px; font-family:Arial;" text-anchor="middle"><textPath startOffset="22.206326154141568" xlink:href="#id65">May</textPath></text><path d="M 116.27256486870786 113.27417163493432 l 12.144519813166454 9.90676280749299 a36.672693157728794,36.672693157728794 0 0,0 -0.40323197832363145,0.4857188939591961 l -11.97219183494928 -10.114342958565958" fill="#ff5107" stroke="none" /><path d="M 116.0416608686014 113.55231037782055 l 19.831002486924508 16.753620651099318 a46.96059445693314,46.96059445693314 0 0,0 -0.5269817066088219,0.6129987798873133 l -19.539678270744908 -17.092496530148157" fill="#fff116" stroke="none" /><path d="M 115.80600337817218 113.82643327865902 l 9.63429532932999 8.427680190289932 a33.800212493648495,33.800212493648495 0 0,0 -0.38683723585019464,0.4346157353110749 l -9.487799243831459 -8.592270095341872" fill="#ff2103" stroke="none" /><path d="M 115.07121518719521 114.62390073753431 l 9.647872487963113 9.361523131342006 a34.44319749474235,34.44319749474235 0 0,0 -0.41653204318350046,0.421944760629706 l -9.485299819724078 -9.526208385952376" fill="#ff2c04" stroke="none" /><path d="M 114.55890576462653 115.13401014063108 l 9.27922148106256 9.645768319537229 a34.38449841304488,34.38449841304488 0 0,0 -0.43007502788347773,0.4066627827935799 l -9.111810618788276 -9.80406573907673" fill="#ff2b04" stroke="none" /><path d="M 114.29624159901734 115.38237550388516 l 9.160638552432928 9.85660329625207 a34.45622262107786,34.45622262107786 0 0,0 -0.43792292101122454,0.40003220529151384 l -8.98961608195484 -10.012828268130166" fill="#ff2c04" stroke="none" /><path d="M 112.63410532772338 116.77436683061366 l 8.03213179420825 10.664302825799137 a34.35074888985178,34.35074888985178 0 0,0 -0.4753735192747021,0.3516699649836455 l -7.847373304514985 -10.800982739522551" fill="#ff2a04" stroke="none" /><path d="M 112.34349029814194 116.9893568818739 l 7.925927040774657 10.909102681895824 a34.484392488348504,34.484392488348504 0 0,0 -0.4832292535740079,0.3447712418926129 l -7.736970459351764 -11.043918185632656" fill="#ff2d04" stroke="none" /><path d="M 112.04921762599082 117.19931262002967 l 7.593172909598018 10.838658467617929 a34.23377467741986,34.23377467741986 0 0,0 -0.48553781433528476,0.33395733606997435 l -7.40547821063985 -10.967756593052998" fill="#ff2803" stroke="none" /><line stroke="#e1ed5e" stroke-width="0.3" x1="143.8653032363475" x2="146.44561519142675" y1="172.8068346515853" y2="177.08958963109032" /><path d="M 144.38136562736335 173.6633856474863 a86.0,86.0 0 0,1 -40.68145358897372,12.25698825130547" fill="none" id="id66" stroke="none" /><text fill="#e1ed5e" style="font-size:6.75px; font-family:Arial;" text-anchor="middle"><textPath startOffset="21.466115282336833" xlink:href="#id66">June</textPath></text><path d="M 110.8373102113329 117.98757091392108 l 13.843711692466533 22.9775415600559 a47.82565506317098,47.82565506317098 0 0,0 -0.7088038307034733,0.4187737968572641 l -13.446139990734677 -23.212433929206913" fill="#fffe18" stroke="none" /><path d="M 110.21172684928248 118.3499491758327 l 6.543618327524838 11.758546375979984 a34.45668434988318,34.45668434988318 0 0,0 -0.5207507424426411,0.2839548255290524 l -6.3402447732135485 -11.869441853268807" fill="#ff2c04" stroke="none" /><path d="M 109.89434966115114 118.52300852407294 l 6.264766045233117 11.728139678831093 a34.29648652568332,34.29648652568332 0 0,0 -0.5231179355025632,0.2736705797744498 l -6.061957207204058 -11.83423967755026" fill="#ff2a04" stroke="none" /><path d="M 108.92500713936063 119.00905698771935 l 5.737138894220351 12.219329181904556 a34.499139540997426,34.499139540997426 0 0,0 -0.5397176884620645,0.24775791929197136 l -5.525953209990868 -12.316274171530601" fill="#ff2d04" stroke="none" /><path d="M 108.59647513512805 119.15986991738527 l 5.5296092389834595 12.324422748570742 a34.50807071425595,34.50807071425595 0 0,0 -0.5440432748065898,0.23849258371714707 l -5.316645289519116 -12.417779885582345" fill="#ff2d04" stroke="none" /><path d="M 108.2653958097858 119.30500536409082 l 5.28403280759186 12.341608803999463 a34.425211751874315,34.425211751874315 0 0,0 -0.5467519348615948,0.22854235311504148 l -5.070809413232804 -12.43073620013448" fill="#ff2c04" stroke="none" /><path d="M 107.93186726928326 119.44442032107085 l 5.072537661691105 12.434972880893445 a34.429787372770654,34.429787372770654 0 0,0 -0.5506780921368356,0.21912617756185146 l -4.857738493512404 -12.520445902861367" fill="#ff2c04" stroke="none" /><path d="M 107.59598834532513 119.57807347666477 l 4.753375223844488 12.251457633141216 a34.141262882817344,34.141262882817344 0 0,0 -0.5497227467396406,0.20785810491132045 l -4.541782256344573 -12.331463988159168" fill="#ff2703" stroke="none" /><path d="M 106.2309692047433 120.05430185196036 l 3.998144200242814 12.867980566859044 a34.47479428098987,34.47479428098987 0 0,0 -0.5682185262702326,0.17119958079757483 l -3.7760506995323353 -12.934895516762346" fill="#ff2d04" stroke="none" /><path d="M 105.88484417918355 120.15858648285463 l 3.730052404384821 12.777327944442414 a34.31064988418244,34.31064988418244 0 0,0 -0.5683621760372566,0.16062482816445608 l -3.5095590602429585 -12.839641565945389" fill="#ff2a04" stroke="none" /><path d="M 105.53697534728816 120.25689768951611 l 3.552335198960227 12.996137091245613 a34.472886278011174,34.472886278011174 0 0,0 -0.5737430103827282,0.1515307437111527 l -3.3281017457660016 -13.05535918426035" fill="#ff2d04" stroke="none" /><path d="M 105.18746579009965 120.34920634021253 l 3.3152601760410323 13.004984731176853 a34.42090078545351,34.42090078545351 0 0,0 -0.5753973408053943,0.14141866702221653 l -3.0909095504924267 -13.060124656513098" fill="#ff2c04" stroke="none" /><path d="M 104.13013068566511 120.58985236759428 l 2.652790152868091 13.224898136840887 a34.48833667747701,34.48833667747701 0 0,0 -0.5830703066694687,0.11174681199222951 l -2.424752231626918 -13.268602147181586" fill="#ff2d04" stroke="none" /><path d="M 103.7750983002368 120.6578951692458 l 2.41680843102498 13.225132497644264 a34.44414714931817,34.44414714931817 0 0,0 -0.5841580206665583,0.10156335967225781 l -2.188801438886372 -13.264774435837529" fill="#ff2c04" stroke="none" /><path d="M 103.06178313531738 120.77559828337769 l 1.9618469429411702 13.312028376494867 a34.45581446528348,34.45581446528348 0 0,0 -0.5875067632090115,0.08142308400695059 l -1.7324115885453284 -13.34382602599442" fill="#ff2c04" stroke="none" /><path d="M 102.70371172650421 120.8252237178851 l 1.7197080158465505 13.245977301637064 a34.35714454272511,34.35714454272511 0 0,0 -0.5871350951735221,0.07109388336241974 l -1.491445497621648 -13.273616713724834" fill="#ff2b04" stroke="none" /><path d="M 101.62511606390274 120.93702456842531 l 2.0980031425838606 27.029419200634333 a48.1107196420514,48.1107196420514 0 0,0 -0.8262151004118241,0.05698063066717595 l -1.632425281393106 -27.06152817581779" fill="#fcff18" stroke="none" /><path d="M 101.26447882468166 120.96189622390904 l 1.6371761423459943 27.14028556765766 a48.18962019622697,48.18962019622697 0 0,0 -0.8284298985457472,0.04282036309131874 l -1.1697581753867674 -27.16444573751118" fill="#fbff18" stroke="none" /><line stroke="#e1ed5e" stroke-width="0.3" x1="102.19456741930631" x2="102.32365962044197" y1="184.97166512339345" y2="189.96999836594603" /><path d="M 102.22038585953345 185.97133177190398 a86.0,86.0 0 0,1 -42.740103519485714,-10.115201625700543" fill="none" id="id67" stroke="none" /><text fill="#e1ed5e" style="font-size:6.75px; font-family:Arial;" text-anchor="middle"><textPath startOffset="22.20632615414155" xlink:href="#id67">July</textPath></text><path d="M 100.54218724476979 120.99299961872073 l 0.7366723300857428 28.523286177966668 a49.53279762855543,49.53279762855543 0 0,0 -0.8525309397785141,0.014677093270022508 l -0.24558170041456082 -28.53174074851585" fill="#e8ff1a" stroke="none" /><path d="M 100.18074693466247 120.99922214144158 l 0.23060534600150795 26.791784307340475 a47.79277673546846,47.79277673546846 0 0,0 -0.8227045613279084,0.0 l 0.2306053460014895 -26.791784307340475" fill="#fffd18" stroke="none" /><path d="M 98.73552117531835 120.96189622390904 l -0.654920413193256 10.856942376819147 a31.876677733627517,31.876677733627517 0 0,0 -0.5474246215902467,-0.037753606978866074 l 0.8417077955624328 -10.844060425323995" fill="#ff0000" stroke="none" /><path d="M 98.37488393609728 120.93702456842531 l -1.621011122086792 20.88413895024639 a41.94695530980881,41.94695530980881 0 0,0 -0.7194016337271072,-0.062073000042180894 l 1.9802570735554408 -20.853141697925544" fill="#ffa60f" stroke="none" /><path d="M 96.58105272829116 120.7198165907248 l -2.1748482202258232 13.180213865427755 a34.35844310986252,34.35844310986252 0 0,0 -0.5827045167712664,-0.1013106493889442 l 2.4014017084691397 -13.140824637517804" fill="#ff2b04" stroke="none" /><path d="M 96.22490169976321 120.6578951692458 l -4.99709730467338 27.34485410988856 a48.79769824578041,48.79769824578041 0 0,0 -0.8249887243623825,-0.1581110525137591 l 5.467053643607458 -27.25478585902633" fill="#f2ff19" stroke="none" /><path d="M 95.86986931433489 120.58985236759428 l -5.747346846785614 28.65212558319271 a50.22287282613232,50.22287282613232 0 0,0 -0.8461562494015066,-0.1773202690852012 l 6.239694557616508 -28.548949333380968" fill="#deff1b" stroke="none" /><path d="M 95.16358092515715 120.4354850818985 l -6.138803704568126 25.93849490379024 a47.65502633270452,47.65502633270452 0 0,0 -0.7966257361700823,-0.19579122414273878 l 6.584382725481419 -25.82898242133347" fill="#fffb17" stroke="none" /><path d="M 94.11515582081647 120.15858648285463 l -7.7902356848428775 26.685522163904295 a48.79936807169592,48.79936807169592 0 0,0 -0.8043182152912192,-0.24233448034431665 l 8.248428874574342 -26.54747231445425" fill="#f2ff19" stroke="none" /><path d="M 93.76903079525671 120.05430185196036 l -8.307581998041902 26.73785595374454 a48.998729607919394,48.998729607919394 0 0,0 -0.8032960343651049,-0.25719002295103366 l 8.766599377497949 -26.590893084133796" fill="#efff19" stroke="none" /><path d="M 93.08242187328487 119.8279376855182 l -9.169578420977325 26.282873312476287 a48.83649758820479,48.83649758820479 0 0,0 -0.7913383265056962,-0.28374576941585894 l 9.620636308112747 -26.12114000202047" fill="#f2ff19" stroke="none" /><path d="M 92.7421414339146 119.70592522655815 l -9.543506591933458 25.91172390415422 a48.61332927691615,48.61332927691615 0 0,0 -0.782743537929111,-0.2959666293426747 l 9.98812035062285 -25.74360902470491" fill="#f5ff19" stroke="none" /><path d="M 92.06813273071674 119.44442032107085 l -5.074581460505361 12.439983111378524 a34.43519842840766,34.43519842840766 0 0,0 -0.5469105463686709,-0.22860865273786385 l 5.287963466371494 -12.350789415620687" fill="#ff2c04" stroke="none" /><path d="M 91.7346041902142 119.30500536409082 l -5.3201596860210945 12.425988257556739 a34.51699978773774,34.51699978773774 0 0,0 -0.5441840477410966,-0.23855429443469595 l 5.533264408419934 -12.332569409827592" fill="#ff2d04" stroke="none" /><path d="M 91.07499286063937 119.00905698771935 l -11.330674413020638 24.13280261441141 a47.660389057176616,47.660389057176616 0 0,0 -0.7396150967577975,-0.35506019277915885 l 11.744402177778676 -23.934188145132687" fill="#fffc17" stroke="none" /><path d="M 90.7491055286396 118.85261126421891 l -11.373868398600884 23.1790688082159 a46.81925857116542,46.81925857116542 0 0,0 -0.7204504977363109,-0.3612488358719808 l 11.771172804019956 -22.979852131434615" fill="#ffef16" stroke="none" /><path d="M 90.42595943632237 118.69057910512821 l -12.114747797013951 23.65058415334193 a47.5728667060888,47.5728667060888 0 0,0 -0.7256200951835539,-0.37961013887642087 l 12.520058794724001 -23.438544595520792" fill="#fffa17" stroke="none" /><line stroke="#e1ed5e" stroke-width="0.3" x1="58.666819895761336" x2="56.23545636021788" y1="174.27360380694188" y2="178.64263932499728" /><path d="M 58.180547188652646 175.14741091055294 a86.0,86.0 0 0,1 -31.652253787137756,-30.449443065178592" fill="none" id="id68" stroke="none" /><text fill="#e1ed5e" style="font-size:6.75px; font-family:Arial;" text-anchor="middle"><textPath startOffset="22.20632615414155" xlink:href="#id68">August</textPath></text><path d="M 89.7882731507175 118.34994917583269 l -7.761366040914049 13.946776533276887 a36.9609328828304,36.9609328828304 0 0,0 -0.5532721346409636,-0.31416235756487004 l 8.000286942476219 -13.811111009917385" fill="#ff5608" stroke="none" /><path d="M 89.4739219176387 118.17145234162733 l -13.709029316972435 23.666266859712824 a48.35013111282561,48.35013111282561 0 0,0 -0.7165768686810273,-0.42336624470527495 l 14.114374056681845 -23.4267820427138" fill="#f9ff18" stroke="none" /><path d="M 89.1626897886671 117.98757091392108 l -14.333952209005755 23.79123387707615 a48.775618720809746,48.775618720809746 0 0,0 -0.7154240524847847,-0.4394718856932797 l 14.741355461422849 -23.54097352455449" fill="#f2ff19" stroke="none" /><path d="M 88.54995079064634 117.60387380957326 l -7.298626488074551 11.221270522952265 a34.386069653251504,34.386069653251504 0 0,0 -0.49339965701974603,-0.32699838841171847 l 7.490700843834259 -11.093974113449228" fill="#ff2b04" stroke="none" /><path d="M 88.24862548938628 117.40417183066458 l -15.030937526695348 22.2613124323725 a47.860661089093114,47.860661089093114 0 0,0 -0.678808019180167,-0.4668903452940969 l 15.411902430498406 -21.999281297713303" fill="#fffe18" stroke="none" /><path d="M 87.65650970185807 116.9893568818739 l -17.025129451337882 23.43308037050278 a49.964880260157386,49.964880260157386 0 0,0 -0.6914545311827872,-0.5115215318258407 l 17.425968952939233 -23.13654888993717" fill="#e2ff1b" stroke="none" /><path d="M 87.36589467227662 116.77436683061367 l -16.69130928175155 22.16113745394744 a48.7437527885439,48.7437527885439 0 0,0 -0.6658658257356543,-0.5105575211986781 l 17.070303835980692 -21.870540590921394" fill="#f3ff19" stroke="none" /><path d="M 87.07902340077011 116.55440617244103 l -16.510999725490482 21.15395795896131 a47.83473587096861,47.83473587096861 0 0,0 -0.644726836958185,-0.512209991900147 l 16.872684055166022 -20.866614053056033" fill="#fffe18" stroke="none" /><path d="M 86.51685102203217 116.09983520530335 l -17.256114502323946 20.6050233684456 a47.8763925356716,47.8763925356716 0 0,0 -0.6272594496910368,-0.5345641111298539 l 17.60823942859204 -20.304934867092793" fill="#ffff18" stroke="none" /><path d="M 86.24171649860922 115.8653595955263 l -17.35247290632399 20.009997795337465 a47.4860024868631,47.4860024868631 0 0,0 -0.6129259097124303,-0.540835851647676 l 17.694341168943005 -19.708338801917503" fill="#fff917" stroke="none" /><path d="M 85.44109423537348 115.13401014063109 l -9.310034158421233 9.677798156061026 a34.428943114796056,34.428943114796056 0 0,0 -0.42355805206469677,-0.41454070109813745 l 9.475242162861724 -9.51610735204032" fill="#ff2c04" stroke="none" /><path d="M 85.18274418774928 114.88116024355367 l -9.46634434467598 9.507171159001755 a34.41633253532923,34.41633253532923 0 0,0 -0.4162071570739584,-0.42161565271599893 l 9.628592126805472 -9.342815012305092" fill="#ff2c04" stroke="none" /><path d="M 84.43433777217949 114.09645910891817 l -9.79748425505631 8.872724728976012 a34.21801580587112,34.21801580587112 0 0,0 -0.3916189181683051,-0.439988006085742 l 9.948762022872952 -8.702762553149407" fill="#ff2803" stroke="none" /><path d="M 83.72743513129214 113.27417163493432 l -10.339367385056445 8.434228922928215 a34.34311565742903,34.34311565742903 0 0,0 -0.36973158544633106,-0.4612970016744476 l 10.483016882557637 -8.255004087675507" fill="#ff2a04" stroke="none" /><path d="M 83.50135304334701 112.99209946851258 l -17.536930829759193 13.809711203062049 a43.32156057357406,43.32156057357406 0 0,0 -0.4563063745880518,-0.5898374998733582 l 17.772044021565314 -13.505795709075437" fill="#ffbb11" stroke="none" /><path d="M 82.44556493220864 111.52570212397912 l -11.214237508239867 7.36292341897554 a34.415355536284245,34.415355536284245 0 0,0 -0.32087424948353915,-0.49800396088098015 l 11.339316621100451 -7.168797858173111" fill="#ff2c04" stroke="none" /><path d="M 82.24976979558568 111.22182372390057 l -11.317085743362826 7.15474333672036 a34.389054557248265,34.389054557248265 0 0,0 -0.31201575721636293,-0.5030687486127022 l 11.438566140247145 -6.958878256742394" fill="#ff2b04" stroke="none" /><path d="M 82.05923443525364 110.91462005526583 l -11.423782403003242 6.949884277392306 a34.37174991765518,34.37174991765518 0 0,0 -0.3031574009746411,-0.5081092416146241 l 11.541720679676114 -6.752212941891571" fill="#ff2b04" stroke="none" /><line stroke="#e1ed5e" stroke-width="0.3" x1="26.63291911575756" x2="22.317208475507996" y1="142.92168965132927" y2="145.44649492493687" /><path d="M 25.769776987707644 143.4266507060508 a86.0,86.0 0 0,1 -11.730757126820373,-40.83630448921669" fill="none" id="id69" stroke="none" /><text fill="#e1ed5e" style="font-size:6.75px; font-family:Arial;" text-anchor="middle"><textPath startOffset="21.46611528233685" xlink:href="#id69">September</textPath></text><path d="M 81.69416730710424 110.29060199501025 l -12.511080578620419 7.033089011681508 a35.35240322353606,35.35240322353606 0 0,0 -0.2936330049889019,-0.5330291955266366 l 12.630289993060837 -6.816689297757049" fill="#ff3b05" stroke="none" /><path d="M 81.51974371655577 109.97397251340807 l -11.829617562994208 6.384558666707172 a34.44256080720213,34.44256080720213 0 0,0 -0.277094488508983,-0.5241583464745178 l 11.937764559728077 -6.179985305146529" fill="#ff2c04" stroke="none" /><path d="M 81.02952815118164 109.00673069616217 l -12.065190256510963 5.728266555748463 a34.35596696834465,34.35596696834465 0 0,0 -0.249040487409263,-0.5364110541976992 l 12.162005360760054 -5.519735434271937" fill="#ff2b04" stroke="none" /><path d="M 80.73074385275274 108.34839909993369 l -12.273550575825253 5.317511885109684 a34.37594768177654,34.37594768177654 0 0,0 -0.2305627857887061,-0.5449823184586077 l 12.363264342806264 -5.105455040984917" fill="#ff2b04" stroke="none" /><path d="M 80.58989483394504 108.01547362559985 l -12.32497789774731 5.0896445140473965 a34.334525168124,34.334525168124 0 0,0 -0.22088117099654647,-0.5482089520804327 l 12.410761683001244 -4.876736194124158" fill="#ff2a04" stroke="none" /><path d="M 80.45479744820244 107.68017299344265 l -12.471311179881734 4.900528764678271 a34.39958151282652,34.39958151282652 0 0,0 -0.21181250805704,-0.5529756204539058 l 12.553817967532284 -4.685129577391208" fill="#ff2b04" stroke="none" /><path d="M 80.32549172779594 107.34259656027581 l -12.540165881541569 4.680034570275953 a34.38500967185146,34.38500967185146 0 0,0 -0.20217687997973172,-0.5563039421894049 l 12.618867022526524 -4.463482831080431" fill="#ff2b04" stroke="none" /><path d="M 80.0844068197444 106.66101706037122 l -20.020619045008786 6.696144262989259 a42.110744537702416,42.110744537702416 0 0,0 -0.22400459430173866,-0.6894152521340856 l 20.132915890326775 -6.35053011087737" fill="#ffa80f" stroke="none" /><path d="M 79.97269907076064 106.31721596034903 l -31.51982379665821 9.942304989532152 a54.050699246419235,54.050699246419235 0 0,0 -0.2722436622663919,-0.8897080401994517 l 31.686294231430733 -9.398269976780652" fill="#aaff21" stroke="none" /><path d="M 79.76711848015287 105.62410040840567 l -19.622187743251764 5.454346875524474 a41.36615210760156,41.36615210760156 0 0,0 -0.18479230016918308,-0.6876808933525473 l 19.71316811976272 -5.115775048996388" fill="#ff9d0e" stroke="none" /><path d="M 79.67330655649465 105.27499134158121 l -19.75692604937111 5.127130693260484 a41.411359485984576,41.411359485984576 0 0,0 -0.17311661059664032,-0.6915148049734059 l 19.84225397426281 -4.786288048889686" fill="#ff9d0e" stroke="none" /><path d="M 79.58551787078972 104.9243191809786 l -19.598699111394925 4.727538486924319 a41.1608191054913,41.1608191054913 0 0,0 -0.16021247902465008,-0.6901911664880528 l 19.67717215635013 -4.389478663087691" fill="#ff9a0e" stroke="none" /><path d="M 79.35854240842038 103.8639653848113 l -14.76239444694205 2.763437653898228 a36.018817445927226,36.018817445927226 0 0,0 -0.10883438617520852,-0.6104010357032809 l 14.807775275456448 -2.508917867461734" fill="#ff4606" stroke="none" /><path d="M 79.29508885075956 103.50808413554451 l -13.16520620320475 2.230613340464832 a34.35283828433343,34.35283828433343 0 0,0 -0.0937640201508704,-0.583868642984226 l 13.201651977716912 -2.003665467787392" fill="#ff2a04" stroke="none" /><path d="M 79.18660465613746 102.79330883721812 l -15.419396269947638 2.069394981156389 a36.557640467555174,36.557640467555174 0 0,0 -0.07833517364458725,-0.6244084086121999 l 15.452732952839073 -1.8036688182567804" fill="#ff4f07" stroke="none" /><path d="M 79.10278846688536 102.07522291339032 l -13.333972298941049 1.324146276522375 a34.39955897149437,34.39955897149437 0 0,0 -0.053442833301693284,-0.5897372121647199 l 13.354789728519817 -1.094427675809089" fill="#ff2b04" stroke="none" /><path d="M 79.07016306316243 101.71520430193888 l -13.226641762322597 1.0839259244782253 a34.27098141504886,34.27098141504886 0 0,0 -0.04312177461600939,-0.5883623542259702 l 13.24334009560294 -0.8560904337554947" fill="#ff2904" stroke="none" /><path d="M 79.04373962182676 101.35467743843564 l -42.67553706949517 2.7586786095377014 a63.76460887042669,63.76460887042669 0 0,0 -0.06137692521431396,-1.0959262303878683 l 42.71670034559702 -2.0236806628143955" fill="#31ff2f" stroke="none" /><path d="M 79.0235259727143 100.99374915477108 l -13.31106349887686 0.6306044611647578 a34.32599240047708,34.32599240047708 0 0,0 -0.0228805086367889,-0.5904442606608074 l 13.31994614036485 -0.4013829534899537" fill="#ff2a04" stroke="none" /><path d="M 79.0095281055655 100.63252640178507 l -13.383975482677398 0.40331241223224895 a34.39005080732595,34.39005080732595 0 0,0 -0.012737317116132857,-0.591853076060119 l 13.388934862478537 -0.17286952038200107" fill="#ff2b04" stroke="none" /><line stroke="#e1ed5e" stroke-width="0.3" x1="15.007084014347285" x2="10.007500721073583" y1="101.09737516637583" y2="101.16192664675087" /><path d="M 14.007167355692545 101.11028546245083 a86.0,86.0 0 0,1 10.666146001902534,-42.60595125391555" fill="none" id="id70" stroke="none" /><text fill="#e1ed5e" style="font-size:6.75px; font-family:Arial;" text-anchor="middle"><textPath startOffset="22.20632615414155" xlink:href="#id70">October</textPath></text><path d="M 79.08570108090925 98.10471618934814 l -13.219063515306743 -1.1979305244446925 a34.273231624706554,34.273231624706554 0 0,0 0.05830182599015513,-0.5870914312972239 l 13.196484563634359 1.4252974864463468" fill="#ff2904" stroke="none" /><path d="M 79.12142395522702 97.74499172005258 l -13.404199370015016 -1.4477318999452176 a34.48215444227034,34.48215444227034 0 0,0 0.06881594858815612,-0.589573022311731 l 13.37729306842327 1.6782486605818103" fill="#ff2d04" stroke="none" /><path d="M 79.26566170972629 96.67025291283419 l -13.22016898104349 -2.1230394980638785 a34.38955430915024,34.38955430915024 0 0,0 0.09889148418470362,-0.583663137584086 l 13.181665635338563 2.3502884239637925" fill="#ff2b04" stroke="none" /><path d="M 79.32604984820605 96.31383870115002 l -25.744754306478512 -4.590284695288764 a47.15077604746647,47.15077604746647 0 0,0 0.1493428445659747,-0.7977954473484508 l 25.661925738002676 5.032758220099787" fill="#fff417" stroke="none" /><path d="M 79.3925641242962 95.95851677861259 l -13.08452423585987 -2.566106985751257 a34.3337796419892,34.3337796419892 0 0,0 0.11873063102384197,-0.5789727231976075 l 13.038414308921034 2.790955365112267" fill="#ff2a04" stroke="none" /><path d="M 79.46518482838121 95.60439243477599 l -12.932220989338065 -2.7682240108227822 a34.22518067518065,34.22518067518065 0 0,0 0.12827208690505287,-0.5750186139666953 l 12.882654515430975 2.9904207943394367" fill="#ff2803" stroke="none" /><path d="M 79.54389044137918 95.25157060432595 l -13.017792859298684 -3.0217901455186156 a34.363912099799265,34.363912099799265 0 0,0 0.13871107622778517,-0.5750469623727529 l 12.963848982810083 3.2454223395507653" fill="#ff2b04" stroke="none" /><path d="M 79.81627453868168 94.20196356495316 l -14.176888412292199 -4.072494728864329 a35.750233163282964,35.750233163282964 0 0,0 0.17499586409842738,-0.5899990586358661 l 14.104686651082064 4.315923174246734" fill="#ff4206" stroke="none" /><path d="M 79.91906864156998 93.8553929516997 l -19.849316973129234 -6.073734868170598 a41.75778503474269,41.75778503474269 0 0,0 0.2162347682149729,-0.6855233067204334 l 19.741826721146058 6.414508341317445" fill="#ffa30f" stroke="none" /><path d="M 80.2630227832202 92.82701384747504 l -12.539091228219634 -4.5570670096735935 a34.341501735571974,34.341501735571974 0 0,0 0.20669563063522334,-0.5538415275002354 l 12.458791009082784 4.77223167420317" fill="#ff2a04" stroke="none" /><path d="M 80.38941819471856 92.48833698450439 l -12.410239241002468 -4.753634341179242 a34.28951005374375,34.28951005374375 0 0,0 0.215871161928644,-0.5493685609151814 l 12.326574529192134 4.966551906990187" fill="#ff2904" stroke="none" /><path d="M 80.65960295795068 91.81776055985345 l -14.363271391215518 -6.0765932266651745 a36.59578629951255,36.59578629951255 0 0,0 0.25043592723104274,-0.5780406485749677 l 14.256544754141794 6.322933019826741" fill="#ff5007" stroke="none" /><path d="M 80.803312248108 91.48605970444005 l -21.90991340709288 -9.717285452564177 a44.96810259642852,44.96810259642852 0 0,0 0.31991096849812917,-0.7048814132798092 l 21.739400121631398 10.092988874686057" fill="#ffd413" stroke="none" /><path d="M 80.95270993114464 91.15688171328213 l -12.585834317471607 -5.843247055307902 a34.87612199485903,34.87612199485903 0 0,0 0.25748842599420757,-0.5423362928793937 l 12.483387697635647 6.059025763827828" fill="#ff3304" stroke="none" /><path d="M 81.10775173730289 90.83032412892265 l -12.618358440927398 -6.124536122936725 a35.02615102103498,35.02615102103498 0 0,0 0.26793335458623174,-0.5401372933309279 l 12.511065073387753 6.340833004766615" fill="#ff3605" stroke="none" /><path d="M 81.26839172434947 90.50648371742162 l -19.70922042960194 -9.988987721282806 a43.09600067067743,43.09600067067743 0 0,0 0.34105470380914227,-0.658809132227349 l 19.534356292632687 10.32676957577049" fill="#ffb811" stroke="none" /><line stroke="#e1ed5e" stroke-width="0.3" x1="26.266209847984243" x2="21.928928074336255" y1="57.711370442889674" y2="55.22380399835377" /><path d="M 25.398753493254645 57.213857153982495 a86.0,86.0 0 0,1 29.58750427330803,-30.492523968695096" fill="none" id="id71" stroke="none" /><text fill="#e1ed5e" style="font-size:6.75px; font-family:Arial;" text-anchor="middle"><textPath startOffset="21.46611528233685" xlink:href="#id71">November</textPath></text><path d="M 85.31137513191541 84.99185889309783 l -10.560309612403582 -10.790024132204268 a36.09783957668692,36.09783957668692 0 0,0 0.44781390852940084,-0.4307966252027843 l 10.373012460261755 10.970203844169365" fill="#ff4806" stroke="none" /><path d="M 85.57189188830299 84.74124197986013 l -9.86829396341334 -10.436427873537768 a35.363225699956686,35.363225699956686 0 0,0 0.4459001604253172,-0.41441560316030973 l 9.687185919193166 10.604748062772725" fill="#ff3c05" stroke="none" /><path d="M 85.83668400450813 84.49514656593479 l -9.084249781978949 -9.944702319206497 a34.46925010232625,34.46925010232625 0 0,0 0.44151664492058096,-0.3963980031757823 l 8.911722149462395 10.099599331151559" fill="#ff2c04" stroke="none" /><path d="M 86.37877921826538 84.01681056812374 l -13.24503087608688 -15.541766844233438 a41.420023495309906,41.420023495309906 0 0,0 0.5466308252715097,-0.45778759590392987 l 12.97554251385626 15.76745559753118" fill="#ff9e0e" stroke="none" /><path d="M 86.65592168130627 83.78471172551755 l -12.9609933065846 -15.7497758759018 a41.39712694558891,41.39712694558891 0 0,0 0.5541234139809039,-0.44806259740547477 l 12.687966494039195 15.970544570571409" fill="#ff9d0e" stroke="none" /><path d="M 86.93701828274178 83.55741782278169 l -12.621583423504275 -15.88698714730682 a41.290409772480444,41.290409772480444 0 0,0 0.560305836632573,-0.43732759291563456 l 12.346245031712275 16.101893129445678" fill="#ff9c0e" stroke="none" /><path d="M 87.22198572758235 83.33499621200491 l -23.395879702641786 -30.512755390296924 a59.44990804369472,59.44990804369472 0 0,0 0.8174471241108039,-0.6156842264240986 l 22.86718642477259 30.910956206226878" fill="#65ff29" stroke="none" /><path d="M 87.80319425747018 82.90503203632743 l -23.473537682808235 -32.90036614114634 a61.41585163729334,61.41585163729334 0 0,0 0.8658724383691635,-0.6065989773397892 l 22.90373410485541 33.29954996125008" fill="#4dff2c" stroke="none" /><path d="M 88.09926311788651 82.69761687909137 l -33.89269904009337 -49.27631537461592 a80.80694194757793,80.80694194757793 0 0,0 1.1528276412789347,-0.778394369503252 l 33.0394667044079 49.85242165641784" fill="#48f5ff" stroke="none" /><path d="M 88.39885842347998 82.49532879139004 l -17.198255210262353 -25.950015421474667 a52.131708636888035,52.131708636888035 0 0,0 0.7522679390087212,-0.4892959932253473 l 16.749020245469342 26.24221033885955" fill="#c4ff1e" stroke="none" /><path d="M 88.70189139769569 82.29822771554957 l -17.772618983950093 -27.845975395210786 a54.03429023392735,54.03429023392735 0 0,0 0.7883367448969016,-0.49365639733229 l 17.29066308668095 28.147776133866007" fill="#aaff21" stroke="none" /><path d="M 89.00827224532344 82.1063720568725 l -21.11306725402863 -34.37033545714248 a61.337099155859505,61.337099155859505 0 0,0 0.9043948879439768,-0.5448878006427835 l 20.518310299867 34.72866986724389" fill="#4eff2c" stroke="none" /><line stroke="#e1ed5e" stroke-width="0.3" x1="56.762969772571076" x2="54.21961505331055" y1="26.818313649435495" y2="22.513508569990535" /><path d="M 56.25429882871897 25.957352633546506 a86.0,86.0 0 0,1 42.265352541879196,-11.944610805530505" fill="none" id="id72" stroke="none" /><text fill="#e1ed5e" style="font-size:6.75px; font-family:Arial;" text-anchor="middle"><textPath startOffset="22.20632615414155" xlink:href="#id72">December</textPath></text><path d="M 89.3179101791058 81.91981866633112 l -14.76404896486558 -24.98918160955798 a50.02475390683647,50.02475390683647 0 0,0 0.7451384037941281,-0.43163225883356016 l 14.331713828606132 25.23961802578159" fill="#e1ff1b" stroke="none" /><path d="M 89.63071344664047 81.73862282372117 l -19.846521480948827 -34.95175994372584 a61.19340664907121,61.19340664907121 0 0,0 0.9204534794314339,-0.512231364749759 l 19.241943912445347 35.28820670603579" fill="#4fff2b" stroke="none" /><path d="M 90.26544431104013 81.39251694778311 l -9.227785512595817 -17.638798114828578 a40.90676328291853,40.90676328291853 0 0,0 0.6267296225222891,-0.32103525496652086 l 8.922795402484764 17.795025895107603" fill="#ff960d" stroke="none" /><path d="M 91.23893434514133 80.91482961587045 l -26.28319696457602 -57.25551115238866 a84.0,84.0 0 0,0 1.3192715261329024,-0.5919186779338843 l 25.293743319976343 57.69945016083907" fill="#4dd2ff" stroke="none" /><path d="M 91.56875222667455 80.76684994638697 l -17.172436184699396 -39.1733288839344 a63.7719798509078,63.7719798509078 0 0,0 1.0091649858250409,-0.4320717807588024 l 16.495587441084048 39.46312019265599" fill="#31ff2f" stroke="none" /><path d="M 91.90106846888425 80.62456947434976 l -15.692341704691522 -37.541480047816535 a61.68921616789156,61.68921616789156 0 0,0 0.9832559868496465,-0.40109480512350804 l 15.043801848253496 37.80603573912362" fill="#49ff2c" stroke="none" /><path d="M 92.23578459929587 80.48803036053334 l -14.95472596426227 -37.58218234836274 a61.44829117196137,61.44829117196137 0 0,0 0.9861480289025119,-0.3826101144853222 l 14.305594770360083 37.834035166738616" fill="#4cff2c" stroke="none" /><path d="M 92.57280143429618 80.3572730644239 l -7.1426413236029385 -18.8901578269571 a41.19542987423117,41.19542987423117 0 0,0 0.6654389481302815,-0.24508678046667842 l 6.8164200497000875 19.0103078752301" fill="#ff9a0e" stroke="none" /><path d="M 93.25333710446033 80.11325718540243 l -12.994682468878535 -38.30366393240047 a61.44789788250133,61.44789788250133 0 0,0 1.004577089531285,-0.3311932720675826 l 12.333422557104841 38.52167092872729" fill="#4cff2c" stroke="none" /><path d="M 93.59665428221793 80.00007090966166 l -12.252117486357132 -38.26772623773185 a61.18125501157834,61.18125501157834 0 0,0 1.0057459117100893,-0.31249015048855805 l 11.591586201936314 38.47295652310294" fill="#50ff2b" stroke="none" /><path d="M 94.28887869178378 79.79150937346287 l -7.306116533239874 -25.852294061055492 a47.86485523907706,47.86485523907706 0 0,0 0.794789335898435,-0.21724594884214407 l 6.860029308117716 25.974226550723934" fill="#fffe18" stroke="none" /><path d="M 95.33964822691252 79.52364482259891 l -3.786132172994782 -16.63526508246081 a38.060681146868845,38.060681146868845 0 0,0 0.6400669747947451,-0.13989384941977834 l 3.499222474046516 16.697972429976456" fill="#ff6809" stroke="none" /><path d="M 95.692805502759 79.44645832069477 l -3.3004294624419974 -15.749350199848395 a37.09145320827239,37.09145320827239 0 0,0 0.6260217589852232,-0.12557407554549618 l 3.028841293989638 15.803828231471101" fill="#ff5808" stroke="none" /><path d="M 96.04723909329186 79.375362276772 l -2.970897341964243 -15.501489423994093 a36.78361192435657,36.78361192435657 0 0,0 0.6228777077980471,-0.11382691976598247 l 2.7036245130633025 15.550331825110812" fill="#ff5307" stroke="none" /><path d="M 97.11714578562143 79.19881850522333 l -2.3831571790933856 -17.19562673882468 a38.35998321085728,38.35998321085728 0 0,0 0.654832809322771,-0.08501609247756482 l 2.0868096412627573 17.23410115446638" fill="#ff6d0a" stroke="none" /><path d="M 97.83486435360386 79.11191278185805 l -1.8363496742630043 -17.716133500854124 a38.8110518034801,38.8110518034801 0 0,0 0.6651010635843645,-0.06315936010366917 l 1.5311234835884036 17.745118405472976" fill="#ff740a" stroke="none" /><path d="M 98.19473922651362 79.07773832637324 l -1.7383832910815205 -20.147177980734227 a41.22203642203459,41.22203642203459 0 0,0 0.7074679209983071,-0.05491312671257523 l 1.391325180720879 20.174116369635264" fill="#ff9a0e" stroke="none" /><path d="M 98.55514903715128 79.0497635885617 l -1.1059992982274476 -16.036911324795252 a37.07500417688984,37.07500417688984 0 0,0 0.63705088316435,-0.03842864898297027 l 0.8297863662234746 16.053573243158528" fill="#ff5808" stroke="none" /><path d="M 98.91598698831166 79.02799685794201 l -1.3284758048374505 -25.70153536239031 a46.735845973043865,46.735845973043865 0 0,0 0.8037656775812039,-0.034611840842666566 l 0.8858692948669226 25.72059492975717" fill="#ffee16" stroke="none" /></svg>