<?xml version="1.0" encoding="utf-8" ?>
<svg baseProfile="full" height="200mm" version="1.1" viewBox="0,0,200,200" width="200mm" xmlns="http://www.w3.org/2000/svg" xmlns:ev="http://www.w3.org/2001/xml-events" xmlns:xlink="http://www.w3.org/1999/xlink"><defs /><rect fill="#1a1a1a" height="200" width="200" x="0" y="0" /><text alignment-baseline="middle" fill="#e1ed5e" style="dominant-baseline: central; font-size:9.0px; font-family:Arial;" text-anchor="middle" x="100.0" y="100.0">2021</text><line stroke="#e1ed5e" stroke-width="0.3" x1="100.0" x2="100.0" y1="15.0" y2="10.0" /><path d="M 100.0 14.0 a86.0,86.0 0 0,1 42.46469731375804,11.215312516191453" fill="none" id="id61" stroke="none" /><text fill="#e1ed5e" style="font-size:6.75px; font-family:Arial;" text-anchor="middle"><textPath startOffset="22.20632615414155" xlink:href="#id61">January</textPath></text><path d="M 100.0 79.0 l 0.0 -19.71761613068299 a40.71761613068299,40.71761613068299 0 0,0 0.7008868282740057,0.006032754208823159 l -0.3394063490014773 19.71469475308273" fill="#ff4606" stroke="none" /><path d="M 100.36148047927253 79.00311137660856 l 0.3348734934759924 -19.451400140864465 a40.454282502746146,40.454282502746146 0 0,0 0.6961476280378457,0.017979439396658723 l -0.6696477567087059 19.442753909325443" fill="#ff4106" stroke="none" /><path d="M 100.72285384407766 79.0124445844662 l 0.664967152757494 -19.306855849698234 a40.318303862277176,40.318303862277176 0 0,0 0.6933964315416202,0.029859108940321382 l -0.9972044166884457 19.292549014233717" fill="#ff3e05" stroke="none" /><path d="M 101.08401301168833 79.027996857942 l 1.0151086067360757 -19.638934828690026 a40.66515208913991,40.66515208913991 0 0,0 0.6987395315938486,0.04214987672063205 l -1.3530101871695361 19.61855168258909" fill="#ff4506" stroke="none" /><path d="M 101.44485096284872 79.0497635885617 l 1.2228641178593889 -17.73144291485073 a38.77356082762704,38.77356082762704 0 0,0 0.6654462721729908,0.05165143800821376 l -1.527900579394721 17.707766214654054" fill="#ff2103" stroke="none" /><path d="M 101.80526077348638 79.07773832637324 l 1.681416966354101 -19.486960703520587 a40.55936605504634,40.55936605504634 0 0,0 0.6950617478266697,0.06600448808289396 l -2.016603841271015 19.455130670922514" fill="#ff4306" stroke="none" /><path d="M 102.16513564639614 79.11191278185805 l 2.0274180527688817 -19.559460482007964 a40.6642548373419,40.6642548373419 0 0,0 0.6956168721209015,0.07816066068275306 l -2.3638016283995085 19.52166386785461" fill="#ff4506" stroke="none" /><path d="M 102.52436894288641 79.15227682838746 l 2.3692909906796733 -19.56699824955347 a40.7099203523643,40.7099203523643 0 0,0 0.6949479452352989,0.09022418843111778 l -2.705753664422818 19.523315737958217" fill="#ff4606" stroke="none" /><path d="M 102.88285421437855 79.19881850522331 l 2.6961303639972565 -19.45387899095503 a40.63981992622105,40.63981992622105 0 0,0 0.6920981064481079,0.10199727013413395 l -3.03059745087402 19.40458723665993" fill="#ff4406" stroke="none" /><path d="M 103.2404852339499 79.25152402106235 l 2.978110782481894 -19.06852078372903 a40.29967949765594,40.29967949765594 0 0,0 0.6844627942275161,0.11294222575106863 l -3.3059027828482854 19.014432295038336" fill="#ff3e05" stroke="none" /><path d="M 103.59715602781102 79.31037775812273 l 3.3680821822727274 -19.372067125268753 a40.66267942810596,40.66267942810596 0 0,0 0.6885641520791993,0.12583069760117582 l -3.7010414554548277 19.311220946316837" fill="#ff4506" stroke="none" /><path d="M 103.95276090670814 79.375362276772 l 3.6262398146822044 -18.920922423727166 a40.265277588404686,40.265277588404686 0 0,0 0.6795889004505314,0.13631914018993424 l -3.9513951245998613 18.855699327460023" fill="#ff3d05" stroke="none" /><path d="M 104.307194497241 79.44645832069477 l 4.031726350700948 -19.23903265612117 a40.65693757710578,40.65693757710578 0 0,0 0.6837282532852734,0.14943651379577846 l -4.362297328139749 19.166782644229524" fill="#ff4506" stroke="none" /><path d="M 104.66035177308747 79.52364482259891 l 4.241493751621699 -18.636003625836846 a40.11258486932759,40.11258486932759 0 0,0 0.6719360577016631,0.1590255554746601 l -4.561653496285886 18.560232158221318" fill="#ff3b05" stroke="none" /><path d="M 105.01212808612495 79.60689891045804 l 4.700387919790775 -19.124707980570445 a40.69385949829565,40.69385949829565 0 0,0 0.678795107969211,0.17303998702489812 l -5.028891916445012 19.04096499737668" fill="#ff4506" stroke="none" /><path d="M 105.36241919743992 79.69619591428918 l 5.016830109610295 -18.995295206583616 a40.64662373879927,40.64662373879927 0 0,0 0.6749315949356632,0.18448430058462137 l -5.343059593769669 18.9061243651727" fill="#ff4406" stroke="none" /><path d="M 105.71112130821622 79.79150937346287 l 5.352781088509411 -18.9405233430129 a40.68237002722793,40.68237002722793 0 0,0 0.6722466840782542,0.19624724130027807 l -5.678017990311092 18.845577772793916" fill="#ff4506" stroke="none" /><path d="M 106.0581310904928 79.89281104454417 l 5.670386653956808 -18.820249050162108 a40.65591664399041,40.65591664399041 0 0,0 0.6683341481599646,0.20765467311723323 l -5.993506174827491 18.719854242162356" fill="#ff4506" stroke="none" /><path d="M 106.40334571778207 80.00007090966166 l 5.84662582772719 -18.26109460989502 a40.174217322252915,40.174217322252915 0 0,0 0.6567856623664597,0.21653190664313748 l -6.160094312336068 18.15774897899265" fill="#ff3c05" stroke="none" /><path d="M 106.74666289553966 80.11325718540242 l 6.243517944242969 -18.403651929544548 a40.43388588687071,40.43388588687071 0 0,0 0.657181566611476,0.2292777444924231 l -6.559381514917719 18.293453331879917" fill="#ff4006" stroke="none" /><path d="M 107.08798089147638 80.2323363322302 l 6.651854122087247 -18.551350104599386 a40.70786020766711,40.70786020766711 0 0,0 0.657563126781901,0.24218604899727986 l -6.9701995746417245 18.43410078779578" fill="#ff4606" stroke="none" /><path d="M 107.4271985657038 80.35727306442388 l 6.976704972758464 -18.451305627236103 a40.72625386703181,40.72625386703181 0 0,0 0.6535920561755777,0.2535835636342972 l -7.293280193933708 18.32847935971126" fill="#ff4606" stroke="none" /><path d="M 107.76421540070413 80.48803036053334 l 7.28129526461027 -18.29836046616937 a40.69383803326071,40.69383803326071 0 0,0 0.6486135237185681,0.264585742040494 l -7.5951926579172255 18.170313837945297" fill="#ff4506" stroke="none" /><path d="M 108.09893153111575 80.62456947434976 l 7.265095984921266 -17.380609031847204 a39.8379189399479,39.8379189399479 0 0,0 0.6304184533132149,0.26991228151218394 l -7.563198196024796 17.25297722237223" fill="#ff3505" stroke="none" /><path d="M 108.43124777332544 80.76684994638697 l 7.856060980231193 -17.921048429054242 a40.567362390511875,40.567362390511875 0 0,0 0.6371353106204305,0.2858640418268594 l -8.163378409318405 17.78316405671085" fill="#ff4306" stroke="none" /><path d="M 108.76106565485865 80.91482961587045 l 8.227526973601886 -17.922905764795026 a40.721124490126556,40.721124490126556 0 0,0 0.6345161520738551,0.29791384133139026 l -8.534821336975341 17.77862694082363" fill="#ff4606" stroke="none" /><path d="M 109.08828744355905 81.06846463323043 l 8.477005069475862 -17.658191631119962 a40.58753038617361,40.58753038617361 0 0,0 0.6272295148285962,0.30777879889851706 l -8.779705851314889 17.509657672086615" fill="#ff4306" stroke="none" /><path d="M 109.41281617654863 81.2277094730956 l 8.820203601816392 -17.59042367493222 a40.67788089813308,40.67788089813308 0 0,0 0.6232229317184768,0.3192389917361993 l -9.121687021123623 17.435992157883522" fill="#ff4506" stroke="none" /><path d="M 109.73455568895987 81.39251694778311 l 9.0930061240582 -17.381168977132447 a40.616008650686084,40.616008650686084 0 0,0 0.616695978500963,0.32941763418098213 l -9.390847149087474 17.222072616449708" fill="#ff4406" stroke="none" /><path d="M 110.05341064243156 81.56283822128135 l 9.325942561043535 -17.10304272375871 a40.48043313334175,40.48043313334175 0 0,0 0.6088949376548999,0.33884937356839046 l -9.618961587770471 16.939977952630137" fill="#ff4106" stroke="none" /><path d="M 110.36928655335952 81.73862282372117 l 9.69205434130195 -17.06870178856837 a40.62846142981734,40.62846142981734 0 0,0 0.6051769281025354,0.35055753822483937 l -9.984428001869814 16.89934009295348" fill="#ff4406" stroke="none" /><line stroke="#e1ed5e" stroke-width="0.3" x1="143.23703022742887" x2="145.7803849466894" y1="26.81831364943548" y2="22.513508569990506" /><path d="M 143.74570117128098 25.957352633546492 a86.0,86.0 0 0,1 28.547481713284135,27.462654790039103" fill="none" id="id62" stroke="none" /><text fill="#e1ed5e" style="font-size:6.75px; font-family:Arial;" text-anchor="middle"><textPath startOffset="19.985693538727396" xlink:href="#id62">February</textPath></text><path d="M 110.68208982089419 81.91981866633111 l 10.038635798244517 -16.99109056543464 a40.73502894075908,40.73502894075908 0 0,0 0.6006242949419704,0.36186941727143174 l -10.329622159404126 16.815774538704595" fill="#ff4606" stroke="none" /><path d="M 110.99172775467656 82.1063720568725 l 9.956175422680982 -16.207833993538166 a40.02154861753606,40.02154861753606 0 0,0 0.5838969518483512,0.3656362176806282 l -10.233691526901595 16.03405343453459" fill="#ff3905" stroke="none" /><path d="M 111.60114157652 82.49532879139004 l 10.37878378138238 -15.660286226146532 a39.787328641015485,39.787328641015485 0 0,0 0.5676236610929707,0.3832620297873988 l -10.646812136881891 15.479312284060464" fill="#ff3405" stroke="none" /><path d="M 111.90073688211348 82.69761687909136 l 11.06753411583254 -16.09099649650044 a40.52973322028508,40.52973322028508 0 0,0 0.5714091394051642,0.40030861850577015 l -11.342874394821354 15.898103035230736" fill="#ff4206" stroke="none" /><path d="M 112.19680574252982 82.90503203632743 l 11.445712906130966 -16.04224086060738 a40.70679668944991,40.70679668944991 0 0,0 0.5668996832411293,0.4118767289874459 l -11.720157905725884 15.842844896803257" fill="#ff4606" stroke="none" /><path d="M 112.48926042617603 83.11751280151076 l 11.703359851289232 -15.82013795265211 a40.67855169085653,40.67855169085653 0 0,0 0.5593375362034885,0.42128143598524564 l -11.973943541251103 15.616339927161016" fill="#ff4506" stroke="none" /><path d="M 112.77801427241765 83.33499621200491 l 11.982036664201187 -15.62689492590687 a40.69185231631589,40.69185231631589 0 0,0 0.5521834847814455,0.4309879684612219 l -12.249252704142062 15.418328568222424" fill="#ff4506" stroke="none" /><path d="M 113.06298171725822 83.55741782278167 l 12.24452686413029 -15.412380078480046 a40.6842550737877,40.6842550737877 0 0,0 0.5445812301512896,0.44034681502965917 l -12.50801149284607 15.199327166186258" fill="#ff4506" stroke="none" /><path d="M 113.6212207817346 84.01681056812373 l 12.698545679968005 -14.900519150561488 a40.57750069192908,40.57750069192908 0 0,0 0.527712717827669,0.45762726873268184 l -12.953152196442437 14.679726888409133" fill="#ff4306" stroke="none" /><path d="M 113.89432698308785 84.25364557470407 l 12.25268650495043 -13.88589347320172 a39.51881108866605,39.51881108866605 0 0,0 0.5061964745771865,0.45446819286532053 l -12.489893967123608 13.672926271567103" fill="#ff2f04" stroke="none" /><path d="M 114.16331599549186 84.49514656593476 l 13.244375282159425 -14.49887142537816 a40.637483271140496,40.637483271140496 0 0,0 0.5124040567912763,0.4762237269760092 l -13.491987222745546 14.268743112327511" fill="#ff4406" stroke="none" /><path d="M 114.42810811169701 84.74124197986012 l 13.501778506355812 -14.27909809623524 a40.65173440886581,40.65173440886581 0 0,0 0.5043075233203415,0.4851434378718414 l -13.745569273288572 14.044571571601097" fill="#ff4506" stroke="none" /><path d="M 114.68862486808459 84.99185889309783 l 13.80786349986814 -14.108220861514061 a40.740795077915465,40.740795077915465 0 0,0 0.4969682462705381,0.4948341066850638 l -14.048667546306001 13.868450904178879" fill="#ff4606" stroke="none" /><path d="M 114.94478906791727 85.2469230424477 l 13.995882978381747 -13.816343457950053 a40.666623678013345,40.666623678013345 0 0,0 0.48748773591872707,0.5023989632460076 l -14.231634978003584 13.57338029915393" fill="#ff4506" stroke="none" /><path d="M 115.4437574822437 85.77008943001954 l 14.524291508978502 -13.382712691695547 a40.74973525964979,40.74973525964979 0 0,0 0.4708658287603325,0.5199418086822353 l -14.75250097835487 13.130718095743761" fill="#ff4606" stroke="none" /><path d="M 115.9244219780498 86.31012108654704 l 14.946073954773922 -12.848814415644222 a40.70982390964562,40.70982390964562 0 0,0 0.4522461830918435,0.5353168349916025 l -15.165030751352884 12.589638631023512" fill="#ff4606" stroke="none" /><path d="M 116.15771136456269 86.58626213691792 l 14.785223781871355 -12.274332149044236 a40.216192962839315,40.216192962839315 0 0,0 0.4375933683311856,0.5364377279517422 l -14.99431564227895 12.018010251484393" fill="#ff3c05" stroke="none" /><path d="M 116.38621287248628 86.86637796730983 l 15.387228306567515 -12.332931488305864 a40.719736155782584,40.719736155782584 0 0,0 0.43365727764434286,0.5507007040222723 l -15.597239664805821 12.066238390330552" fill="#ff4606" stroke="none" /><path d="M 116.60985879189232 87.15038557335679 l 15.60937315475404 -12.075625024463788 a40.73507664073824,40.73507664073824 0 0,0 0.4242733970544833,0.558294057755112 l -15.814922492032638 11.805146190827642" fill="#ff4606" stroke="none" /><path d="M 117.45458315368197 88.32363383020206 l 16.36653198394368 -10.948506686848257 a40.69094126377438,40.69094126377438 0 0,0 0.3844390312945661,0.5855270195075283 l -16.55256765059617 10.665161603363053" fill="#ff4506" stroke="none" /><path d="M 117.65298651832404 88.62581576622439 l 15.856804502855308 -10.216867020615728 a39.86326113795591,39.86326113795591 0 0,0 0.36668961788067256,0.5800149147850142 l -16.030321716981934 9.942404458116508" fill="#ff3605" stroke="none" /><line stroke="#e1ed5e" stroke-width="0.3" x1="172.23445277983987" x2="176.4835382374775" y1="55.19839476539836" y2="52.563006222186495" /><path d="M 173.08426987136738 54.67131705675599 a86.0,86.0 0 0,1 12.851231095245387,41.99856678651699" fill="none" id="id63" stroke="none" /><text fill="#e1ed5e" style="font-size:6.75px; font-family:Arial;" text-anchor="middle"><textPath startOffset="22.20632615414155" xlink:href="#id63">March</textPath></text><line stroke="#e1ed5e" stroke-width="0.3" x1="184.98032266829074" x2="189.97916517819016" y1="98.17113171792111" y2="98.06355123074" /><path d="M 185.9800911702706 98.14961562048488 a86.0,86.0 0 0,1 -9.607161424134198,41.387399972396054" fill="none" id="id64" stroke="none" /><text fill="#e1ed5e" style="font-size:6.75px; font-family:Arial;" text-anchor="middle"><textPath startOffset="21.466115282336823" xlink:href="#id64">April</textPath></text><path d="M 120.99980553446 99.90962569577887 l 27.121454389149978 -0.11671929846504517 a48.12170554329828,48.12170554329828 0 0,0 -0.0035649079879736673,0.8283590688845492 l -27.1194451838725 -0.3501492486231888" fill="#ffc812" stroke="none" /><path d="M 120.99824983174949 100.27111621757518 l 19.012287323611037 0.24547471660406514 a40.013871965279264,40.013871965279264 0 0,0 -0.014820256565527603,0.6886390875201114 l -19.0052450043605 -0.5727036199142913" fill="#ff3905" stroke="none" /><path d="M 120.9764740272857 100.99374915477107 l 19.631306140418783 0.9300225509166529 a40.65332345238478,40.65332345238478 0 0,0 -0.0391310483582039,0.6987111551871487 l -19.61238874117305 -1.267805422439225" fill="#ff4506" stroke="none" /><path d="M 120.92983693683757 101.71520430193887 l 19.755435334874857 1.6189618569561763 a40.82166145318553,40.82166145318553 0 0,0 -0.06342015169289186,0.6998360892150569 l -19.72464058690489 -1.9587793347198037" fill="#ff4806" stroke="none" /><path d="M 120.70491114924044 103.5080841355445 l 29.93973977212698 5.072763913830291 a51.36644449632095,51.36644449632095 0 0,0 -0.15520874512753163,0.8704930684639762 l -29.847984584660264 -5.587375733027486" fill="#fffd18" stroke="none" /><path d="M 120.64145759157962 103.86396538481128 l 50.268456415267984 9.40997381966502 a72.14162020957566,72.14162020957566 0 0,0 -0.23899511205830298,1.2186309274487948 l -50.099031370234016 -10.273868474181759" fill="#3aff8f" stroke="none" /><path d="M 120.49622156327973 104.57218783832717 l 19.38494185930564 4.324289486340524 a40.86140605421316,40.86140605421316 0 0,0 -0.15904705743586983,0.6851705607855029 l -19.30763423593922 -4.657328704474591" fill="#ff4806" stroke="none" /><line stroke="#e1ed5e" stroke-width="0.3" x1="174.80103733775053" x2="179.2010983576182" y1="140.37084112569926" y2="142.7455964860345" /><path d="M 175.68104954172406 140.8457921977663 a86.0,86.0 0 0,1 -30.038265399797805,32.042727171017184" fill="none" id="id65" stroke="none" /><text fill="#e1ed5e" style="font-size:6.75px; font-family:Arial;" text-anchor="middle"><textPath startOffset="22.206326154141568" xlink:href="#id65">May</textPath></text><path d="M 116.27256486870786 113.27417163493432 l 17.89107321307889 14.594452594272756 a44.088710384996034,44.088710384996034 0 0,0 -0.4847742660681266,0.5839418324741833 l -17.63720294711722 -14.90025568386071" fill="#ff830c" stroke="none" /><path d="M 116.0416608686014 113.55231037782055 l 29.214651780440295 24.68111199654065 a59.24464888109402,59.24464888109402 0 0,0 -0.6648307274609042,0.7733483338305823 l -28.785478543408612 -25.180337429532763" fill="#89ff24" stroke="none" /><path d="M 115.80600337817218 113.82643327865902 l 14.193058741325826 12.415496505462794 a39.85702706981894,39.85702706981894 0 0,0 -0.45615636835988593,0.5124965155327914 l -13.977243523317602 -12.657967190736452" fill="#ff3605" stroke="none" /><path d="M 115.07121518719521 114.62390073753431 l 14.213060350518095 13.791215980988383 a40.80426021748197,40.80426021748197 0 0,0 -0.4934583057096665,0.49987065843018225 l -13.973561419752892 -14.03382713339923" fill="#ff4706" stroke="none" /><path d="M 114.55890576462653 115.13401014063108 l 13.66997077134985 14.20996053002793 a40.71778585831865,40.71778585831865 0 0,0 -0.5092906308537638,0.4815660797906235 l -13.42334430610528 -14.443161246564475" fill="#ff4606" stroke="none" /><path d="M 114.29624159901734 115.38237550388516 l 13.49527667964653 14.520558566204995 a40.82344858330156,40.82344858330156 0 0,0 -0.5188474675809286,0.4739548598804587 l -13.243329662598738 -14.750706192672036" fill="#ff4806" stroke="none" /><path d="M 112.63410532772338 116.77436683061366 l 11.832782209427723 15.710445991941612 a40.66806670929971,40.66806670929971 0 0,0 -0.562797686178235,0.4163442736422303 l -11.560599552830924 -15.91180021432361" fill="#ff4506" stroke="none" /><path d="M 112.34349029814194 116.9893568818739 l 11.676323407557476 16.071080435736473 a40.86494789043722,40.86494789043722 0 0,0 -0.5726398768111928,0.40856334757306006 l -11.397956202897399 -16.26968804515375" fill="#ff4806" stroke="none" /><path d="M 112.04921762599082 117.19931262002967 l 11.186116415891874 15.967303372956504 a40.4957425473849,40.4957425473849 0 0,0 -0.5743513390391798,0.3950440882062687 l -10.909608192229811 -16.157488250527866" fill="#ff4206" stroke="none" /><line stroke="#e1ed5e" stroke-width="0.3" x1="143.8653032363475" x2="146.44561519142675" y1="172.8068346515853" y2="177.08958963109032" /><path d="M 144.38136562736335 173.6633856474863 a86.0,86.0 0 0,1 -40.68145358897372,12.25698825130547" fill="none" id="id66" stroke="none" /><text fill="#e1ed5e" style="font-size:6.75px; font-family:Arial;" text-anchor="middle"><textPath startOffset="21.466115282336833" xlink:href="#id66">June</textPath></text><path d="M 110.8373102113329 117.98757091392108 l 10.200635614832288 16.93082996710652 a40.76628367502746,40.76628367502746 0 0,0 -0.6041798694495099,0.3569601164020029 l -9.907687874354398 -17.10390865580227" fill="#ff4706" stroke="none" /><path d="M 110.21172684928248 118.3499491758327 l 9.639932774391623 17.322464562490644 a40.82412879330474,40.82412879330474 0 0,0 -0.6169832002062473,0.3364284343545002 l -9.340326762316728 -17.485833648604913" fill="#ff4806" stroke="none" /><path d="M 109.89434966115114 118.52300852407294 l 9.229132950696117 17.27767000056247 a40.58812843714175,40.58812843714175 0 0,0 -0.619083180373312,0.3238750602932527 l -8.93035886779631 -17.43397447980044" fill="#ff4306" stroke="none" /><path d="M 108.92500713936063 119.00905698771935 l 8.451842770993546 18.00128093752647 a40.886672965012266,40.886672965012266 0 0,0 -0.6396466959808356,0.2936304254355285 l -8.14072807924529 -18.144098433296072" fill="#ff4906" stroke="none" /><path d="M 108.59647513512805 119.15986991738527 l 8.146114070900936 18.156102760404117 a40.89983019783044,40.89983019783044 0 0,0 -0.6448137232623872,0.2826673869496704 l -7.832379672980794 -18.293634700648244" fill="#ff4906" stroke="none" /><path d="M 108.2653958097858 119.30500536409082 l 7.784335591304699 18.181420927005156 a40.77776396671257,40.77776396671257 0 0,0 -0.6476451476559364,0.2707157242457581 l -7.470218984151302 -18.312721694270888" fill="#ff4706" stroke="none" /><path d="M 107.93186726928326 119.44442032107085 l 7.472765006569111 18.318963090950643 a40.784504683489445,40.784504683489445 0 0,0 -0.6523169308217095,0.25957036906113456 l -7.156326999705535 -18.444880304417847" fill="#ff4706" stroke="none" /><path d="M 107.59598834532513 119.57807347666477 l 7.002581036331944 18.04861195449057 a40.35945594933328,40.35945594933328 0 0,0 -0.6498444728754036,0.2457155746603146 l -6.690866342696266 -18.166475779257517" fill="#ff3f05" stroke="none" /><path d="M 106.2309692047433 120.05430185196036 l 5.889989205290818 18.956861693004672 a40.850807995800835,40.850807995800835 0 0,0 -0.673308902937294,0.20286244921785546 l -5.562805327913279 -19.055439511328256" fill="#ff4806" stroke="none" /><path d="M 105.88484417918355 120.15858648285463 l 5.495041523430144 18.823313991690444 a40.60899362471187,40.60899362471187 0 0,0 -0.6726953893655253,0.19011043640732436 l -5.170214965960013 -18.91511322143629" fill="#ff4406" stroke="none" /><path d="M 105.53697534728816 120.25689768951611 l 5.2332319515088175 19.14565942200571 a40.84799716247785,40.84799716247785 0 0,0 -0.6798459714426116,0.17955350008187435 l -4.902895537254708 -19.23290427139117" fill="#ff4806" stroke="none" /><path d="M 105.18746579009965 120.34920634021253 l 4.88397758350645 19.158693595131364 a40.771413133823316,40.771413133823316 0 0,0 -0.6815557455717226,0.16750982009262422 l -4.553468553191516 -19.23992467353802" fill="#ff4706" stroke="none" /><path d="M 104.13013068566511 120.58985236759428 l 3.9080394757512544 19.482665798380374 a40.870758394067664,40.870758394067664 0 0,0 -0.6909734689004466,0.13242670984548702 l -3.5720983922791034 -19.547049706574327" fill="#ff4906" stroke="none" /><path d="M 103.7750983002368 120.6578951692458 l 3.5603957378847078 19.483011054212305 a40.805659230353996,40.805659230353996 0 0,0 -0.6920465478405531,0.12032116304433069 l -3.224500218572105 -19.54141079577764" fill="#ff4706" stroke="none" /><path d="M 103.06178313531738 120.77559828337769 l 2.8901552164262916 19.611024393096688 a40.82284729602863,40.82284729602863 0 0,0 -0.6960711639549457,0.09646912070926451 l -2.5521554612845154 -19.657868079298556" fill="#ff4806" stroke="none" /><path d="M 102.70371172650421 120.8252237178851 l 2.5334408021034163 19.51371921888943 a40.67748866221036,40.67748866221036 0 0,0 -0.6951445323812234,0.08417232202842302 l -2.1971688466708126 -19.554437069643207" fill="#ff4506" stroke="none" /><path d="M 101.62511606390274 120.93702456842531 l 1.557602642010022 20.067221971390165 a41.127581167130856,41.127581167130856 0 0,0 -0.7062922537121205,0.04871004903178082 l -1.2119476275189713 -20.09106036493823" fill="#ff4d07" stroke="none" /><path d="M 101.26447882468166 120.96189622390904 l 1.2193250805203926 20.21336008336293 a41.2501031975562,41.2501031975562 0 0,0 -0.7091323539758603,0.03665404270216725 l -0.8712046581310529 -20.2313539328273" fill="#ff5007" stroke="none" /><line stroke="#e1ed5e" stroke-width="0.3" x1="102.19456741930631" x2="102.32365962044197" y1="184.97166512339345" y2="189.96999836594603" /><path d="M 102.22038585953345 185.97133177190398 a86.0,86.0 0 0,1 -42.740103519485714,-10.115201625700543" fill="none" id="id67" stroke="none" /><text fill="#e1ed5e" style="font-size:6.75px; font-family:Arial;" text-anchor="middle"><textPath startOffset="22.20632615414155" xlink:href="#id67">July</textPath></text><path d="M 100.54218724476979 120.99299961872073 l 0.5457881227922142 21.132422358154248 a42.13946923170964,42.13946923170964 0 0,0 -0.725281086993691,0.01248637165421265 l -0.18194734590585532 -21.13868620708762" fill="#ff6008" stroke="none" /><path d="M 100.18074693466247 120.99922214144158 l 0.1702977286443109 19.785230884623726 a40.78596377420746,40.78596377420746 0 0,0 -0.7020893266135191,0.0 l 0.17029772864429726 -19.785230884623726" fill="#ff4706" stroke="none" /><path d="M 98.73552117531835 120.96189622390904 l -0.9648161674105231 15.994238876638224 a37.023312625043,37.023312625043 0 0,0 -0.6358088215197186,-0.04384909887980664 l 1.2399877497091718 -15.975261433242133" fill="#ff0000" stroke="none" /><path d="M 98.37488393609728 120.93702456842531 l -2.3880424348295684 30.766112180564768 a51.8586520343589,51.8586520343589 0 0,0 -0.8893899144970722,-0.07674030418039597 l 2.9172766670681822 -30.72044762410571" fill="#f9ff18" stroke="none" /><path d="M 96.58105272829116 120.7198165907248 l -3.2039446049739997 19.416837788411726 a40.67940168636322,40.67940168636322 0 0,0 -0.689905273833328,-0.1199488751111709 l 3.5376988502793774 -19.35881033477955" fill="#ff4506" stroke="none" /><path d="M 96.22490169976321 120.6578951692458 l -3.79071966795639 20.743377599393753 a42.0868980609302,42.0868980609302 0 0,0 -0.7115338958976167,-0.13636716461371975 l 4.147221178425702 -20.675053236431566" fill="#ff5f08" stroke="none" /><path d="M 95.86986931433489 120.58985236759428 l -4.571996787382668 22.792678014779337 a44.24670569584522,44.24670569584522 0 0,0 -0.7454696323243346,-0.15622040951903848 l 4.963657881136389 -22.710601624533755" fill="#ff850c" stroke="none" /><path d="M 95.16358092515715 120.4354850818985 l -4.490140821625909 18.97234386764576 a40.4964406092555,40.4964406092555 0 0,0 -0.6769591645462286,-0.16638009231081824 l 4.816053270915348 -18.89224251702091" fill="#ff4206" stroke="none" /><path d="M 94.11515582081647 120.15858648285463 l -5.921344569327845 20.28361889645442 a42.130251230056665,42.130251230056665 0 0,0 -0.6943968706591537,-0.20921608090521476 l 6.269616414427245 -20.17868744644348" fill="#ff6008" stroke="none" /><path d="M 93.76903079525671 120.05430185196036 l -6.3662937483345345 20.48984232022197 a42.45607919442978,42.45607919442978 0 0,0 -0.6960343732271809,-0.22284822626628825 l 6.718049466652656 -20.377221247295974" fill="#ff6509" stroke="none" /><path d="M 93.08242187328487 119.8279376855182 l -6.981170656704477 20.010213721841332 a42.19305067544073,42.19305067544073 0 0,0 -0.6836890391529133,-0.24514656494934253 l 7.324579256487117 -19.887079615852034" fill="#ff6108" stroke="none" /><path d="M 92.7421414339146 119.70592522655815 l -14.05931051803886 38.17265372186317 a61.67942605804453,61.67942605804453 0 0,0 -0.9931262246018594,-0.37551535971140565 l 14.714306963401002 -37.92499011204513" fill="#67ff28" stroke="none" /><path d="M 92.06813273071674 119.44442032107085 l -7.475775891707529 18.32634406622196 a40.79247614667211,40.79247614667211 0 0,0 -0.6478788110801967,-0.27081339557605055 l 7.790126162285188 -18.194945627625938" fill="#ff4706" stroke="none" /><path d="M 91.7346041902142 119.30500536409082 l -7.837557014372964 18.305727116504404 a40.9129843372979,40.9129843372979 0 0,0 -0.6450211072443288,-0.28275829799289576 l 8.151498796275035 -18.168104265217053" fill="#ff4906" stroke="none" /><path d="M 91.07499286063937 119.00905698771935 l -8.291627786450524 17.660044709486527 a40.50969683234728,40.50969683234728 0 0,0 -0.6286474771815572,-0.3017889918914265 l 8.594387931632323 -17.51470144109554" fill="#ff4206" stroke="none" /><path d="M 90.7491055286396 118.85261126421891 l -8.060057863045635 16.425777867160654 a39.296740455527825,39.296740455527825 0 0,0 -0.6046946723337426,-0.3032064619636166 l 8.341606443062139 -16.284603564287735" fill="#ff2b04" stroke="none" /><path d="M 90.42595943632237 118.69057910512821 l -8.840075029725936 17.257721078099728 a40.39009704309578,40.39009704309578 0 0,0 -0.6160626443210128,-0.3222948585900398 l 9.135828576573445 -17.10299680056497" fill="#ff4006" stroke="none" /><line stroke="#e1ed5e" stroke-width="0.3" x1="58.666819895761336" x2="56.23545636021788" y1="174.27360380694188" y2="178.64263932499728" /><path d="M 58.180547188652646 175.14741091055294 a86.0,86.0 0 0,1 -31.652253787137756,-30.449443065178592" fill="none" id="id68" stroke="none" /><text fill="#e1ed5e" style="font-size:6.75px; font-family:Arial;" text-anchor="middle"><textPath startOffset="22.20632615414155" xlink:href="#id68">August</textPath></text><path d="M 89.7882731507175 118.34994917583269 l -11.433895304856236 20.546123180003192 a44.51333960904486,44.51333960904486 0 0,0 -0.6663249140265867,-0.37835667619632724 l 11.785868985804031 -20.346263338012232" fill="#ff8a0c" stroke="none" /><path d="M 89.4739219176387 118.17145234162733 l -10.308421737733685 17.795706326605742 a41.56576578651464,41.56576578651464 0 0,0 -0.6160286560986946,-0.36396058840609197 l 10.61321826486076 -17.615627165905902" fill="#ff5507" stroke="none" /><path d="M 89.1626897886671 117.98757091392108 l -10.931743255279903 18.144309167370515 a42.18298764953809,42.18298764953809 0 0,0 -0.6187256002407744,-0.3800717984251758 l 11.242448055452986 -17.95344890211696" fill="#ff6108" stroke="none" /><path d="M 88.54995079064634 117.60387380957326 l -10.752196287867251 16.530960100394324 a40.72010057919724,40.72010057919724 0 0,0 -0.5842855511602698,-0.38723260319172575 l 11.035156537767485 -16.343429476111282" fill="#ff4606" stroke="none" /><path d="M 88.24862548938628 117.40417183066458 l -11.095084427783174 16.432184650609397 a40.827193216674914,40.827193216674914 0 0,0 -0.5790523057027456,-0.39827745594316766 l 11.376293618108809 -16.238766405301128" fill="#ff4806" stroke="none" /><path d="M 87.65650970185807 116.9893568818739 l -13.473278015016852 18.54437626935094 a43.92210966925171,43.92210966925171 0 0,0 -0.6078297714670785,-0.4496579337738102 l 13.790492756902495 -18.309708386837364" fill="#ff800b" stroke="none" /><path d="M 87.36589467227662 116.77436683061367 l -12.625582433108288 16.763050939458452 a41.985833521070624,41.985833521070624 0 0,0 -0.5735490213071579,-0.4397729321533953 l 12.912260182908932 -16.543238665477688" fill="#ff5d08" stroke="none" /><path d="M 87.07902340077011 116.55440617244103 l -12.12227675916597 15.5311087877008 a40.70190178640662,40.70190178640662 0 0,0 -0.5485889682283986,-0.435832254631278 l 12.387823220111727 -15.320142619064391" fill="#ff4506" stroke="none" /><path d="M 86.51685102203217 116.09983520530335 l -12.755464247246715 15.230928077957241 a40.86663127655757,40.86663127655757 0 0,0 -0.5354200533417534,-0.45629658514783994 l 13.015749777165526 -15.00910710258645" fill="#ff4806" stroke="none" /><path d="M 86.24171649860922 115.8653595955263 l -13.175162461898692 15.192933781773885 a41.10995133745456,41.10995133745456 0 0,0 -0.5306269848407196,-0.4682166191803083 l 13.434731799645999 -14.963894020821288" fill="#ff4d07" stroke="none" /><path d="M 85.44109423537348 115.13401014063109 l -13.715363415521526 14.257146269692077 a40.783260938864984,40.783260938864984 0 0,0 -0.5017313050393419,-0.49104968242257124 l 13.958744672936664 -14.018946484346936" fill="#ff4706" stroke="none" /><path d="M 85.18274418774928 114.88116024355367 l -13.94563657817073 14.00578185648526 a40.7646832755262,40.7646832755262 0 0,0 -0.49297968973627576,-0.4993858229760253 l 14.18465689296254 -13.76365553952857" fill="#ff4706" stroke="none" /><path d="M 84.43433777217949 114.09645910891817 l -14.43346553077895 13.071127567637948 a40.47252688065031,40.47252688065031 0 0,0 -0.46320065086352596,-0.5204108416015616 l 14.656325031290814 -12.820742556295523" fill="#ff4106" stroke="none" /><path d="M 83.72743513129214 113.27417163493432 l -15.231757344775096 12.425143972541512 a40.656821577978846,40.656821577978846 0 0,0 -0.4377037672172591,-0.5461027496344121 l 15.443379024047216 -12.161113389328841" fill="#ff4506" stroke="none" /><path d="M 83.50135304334701 112.99209946851258 l -25.83506949922925 20.344201169452397 a53.88369409377775,53.88369409377775 0 0,0 -0.567557418888127,-0.7336444714228959 l 26.181433735335442 -19.896478703916248" fill="#d9ff1c" stroke="none" /><path d="M 82.44556493220864 111.52570212397912 l -16.520599198270244 10.846917290905898 a40.76324397930767,40.76324397930767 0 0,0 -0.3800592821011126,-0.5898604458306509 l 16.7048633437484 -10.5609352451538" fill="#ff4706" stroke="none" /><path d="M 82.24976979558568 111.22182372390057 l -16.672113241865933 10.540230394228912 a40.724497882405736,40.724497882405736 0 0,0 -0.36949794658884494,-0.5957483406086939 l 16.851075828122735 -10.251685722254953" fill="#ff4606" stroke="none" /><path d="M 82.05923443525364 110.91462005526583 l -16.829296710507325 10.238435964709588 a40.69900501989254,40.69900501989254 0 0,0 -0.35896352713036955,-0.6016435190140044 l 17.00304111333593 -9.947230351809473" fill="#ff4506" stroke="none" /><line stroke="#e1ed5e" stroke-width="0.3" x1="26.63291911575756" x2="22.317208475507996" y1="142.92168965132927" y2="145.44649492493687" /><path d="M 25.769776987707644 143.4266507060508 a86.0,86.0 0 0,1 -11.730757126820373,-40.83630448921669" fill="none" id="id69" stroke="none" /><text fill="#e1ed5e" style="font-size:6.75px; font-family:Arial;" text-anchor="middle"><textPath startOffset="21.46611528233685" xlink:href="#id69">September</textPath></text><path d="M 81.69416730710424 110.29060199501025 l -18.431083488715238 10.361011580357152 a42.14368462535058,42.14368462535058 0 0,0 -0.3500406091093603,-0.6354253817014481 l 18.606700507276116 -10.04221568025788" fill="#ff6008" stroke="none" /><path d="M 81.51974371655577 109.97397251340807 l -17.427165269457518 9.40560913865172 a40.803322261632644,40.803322261632644 0 0,0 -0.32826756915211924,-0.6209585299723714 l 17.58648534683452 -9.104235593593224" fill="#ff4706" stroke="none" /><path d="M 81.02952815118164 109.00673069616217 l -17.774206434653795 8.438772212452426 a40.675753882261986,40.675753882261986 0 0,0 -0.2948515342883923,-0.635083973633288 l 17.916832585782014 -8.13156817154031" fill="#ff4506" stroke="none" /><path d="M 80.73074385275274 108.34839909993369 l -18.08115885310273 7.8336563249518525 a40.705189085329614,40.705189085329614 0 0,0 -0.2730136163357289,-0.6453235420991456 l 18.213323450630764 -7.521258257186548" fill="#ff4606" stroke="none" /><path d="M 80.58989483394504 108.01547362559985 l -18.156920595503 7.49796649272585 a40.64416623421418,40.64416623421418 0 0,0 -0.26147240971097563,-0.6489530777063867 l 18.283295619471364 -7.184314047176659" fill="#ff4406" stroke="none" /><path d="M 80.45479744820244 107.68017299344265 l -18.372495974723734 7.219364804906039 a40.74000599107193,40.74000599107193 0 0,0 -0.2508531344781101,-0.6548983766505639 l 18.49404338879535 -6.902042861422317" fill="#ff4606" stroke="none" /><path d="M 80.32549172779594 107.34259656027581 l -18.47393139805972 6.894536994848544 a40.718539034967876,40.718539034967876 0 0,0 -0.2394167475300131,-0.6587720638010833 l 18.589872406594957 -6.575517134041344" fill="#ff4606" stroke="none" /><path d="M 80.0844068197444 106.66101706037122 l -29.493991250035457 9.864631051496723 a52.09994317742914,52.09994317742914 0 0,0 -0.27714130354913946,-0.8529532274044798 l 29.659424804600846 -9.35547892411444" fill="#f5ff19" stroke="none" /><path d="M 79.97269907076064 106.31721596034903 l -46.43439871521159 14.646812653855005 a69.6896550096668,69.6896550096668 0 0,0 -0.35101427301460847,-1.1471349537616604 l 46.67963976073233 -13.845350727541296" fill="#36ff6a" stroke="none" /><path d="M 79.76711848015287 105.62410040840567 l -28.907029912758958 8.03523900333555 a51.00302391789644,51.00302391789644 0 0,0 -0.22784246600592048,-0.8478865754858331 l 29.041060455106653 -7.536461494674177" fill="#fff817" stroke="none" /><path d="M 79.67330655649465 105.27499134158121 l -29.105523796129624 7.553190411587824 a51.069622559000805,51.069622559000805 0 0,0 -0.21349214494771954,-0.8527949944725958 l 29.231227255372403 -7.051067577717837" fill="#fff917" stroke="none" /><path d="M 79.58551787078972 104.9243191809786 l -28.872426911677746 6.964518851993896 a50.70053128497791,50.70053128497791 0 0,0 -0.19734441591687035,-0.8501545787866613 l 28.98803189352517 -6.46649561585866" fill="#fff316" stroke="none" /><path d="M 79.35854240842038 103.8639653848113 l -21.747675817058628 4.071043248006476 a43.1254332516002,43.1254332516002 0 0,0 -0.13030772216561343,-0.7308349076548041 l 21.81452998156343 -3.6960895896184587" fill="#ff720a" stroke="none" /><path d="M 79.29508885075956 103.50808413554451 l -19.39472878882017 3.286096708497318 a40.67114476509913,40.67114476509913 0 0,0 -0.11100946028825978,-0.6912560151818096 l 19.44842000346972 -2.9517614636222946" fill="#ff4506" stroke="none" /><path d="M 79.18660465613746 102.79330883721812 l -22.715558277407176 3.0485929196235326 a43.91921697274714,43.91921697274714 0 0,0 -0.09410945137303967,-0.750144922558262 l 22.764669238027064 -2.6571302427778623" fill="#ff800b" stroke="none" /><path d="M 79.10278846688536 102.07522291339032 l -19.643351757958083 1.950706849059912 a40.739972783614576,40.739972783614576 0 0,0 -0.06329324093935183,-0.6984356396250535 l 19.67401959517451 -1.6122898208862924" fill="#ff4606" stroke="none" /><path d="M 79.07016306316243 101.71520430193888 l -19.485234473933573 1.5968188426330125 a40.550554798275094,40.550554798275094 0 0,0 -0.051023105040041754,-0.6961697302256359 l 19.509834137637952 -1.261175975910616" fill="#ff4306" stroke="none" /><path d="M 79.04373962182676 101.35467743843564 l -62.86878113451971 4.064032315306924 a84.0,84.0 0 0,0 -0.08085459644987347,-1.4437131346582497 l 62.92942208185711 -2.9812474643132365" fill="#4dd2ff" stroke="none" /><path d="M 79.0235259727143 100.99374915477108 l -19.609602953931454 0.9289943741506588 a40.63159592488702,40.63159592488702 0 0,0 -0.02708360389525033,-0.6989074732477409 l 19.622688690677904 -0.591309653888921" fill="#ff4406" stroke="none" /><path d="M 79.0095281055655 100.63252640178507 l -19.717015487350185 0.5941520954305449 a40.7259655388757,40.7259655388757 0 0,0 -0.015084000335901036,-0.700894224168092 l 19.724321550371094 -0.25466805547232413" fill="#ff4606" stroke="none" /><line stroke="#e1ed5e" stroke-width="0.3" x1="15.007084014347285" x2="10.007500721073583" y1="101.09737516637583" y2="101.16192664675087" /><path d="M 14.007167355692545 101.11028546245083 a86.0,86.0 0 0,1 10.666146001902534,-42.60595125391555" fill="none" id="id70" stroke="none" /><text fill="#e1ed5e" style="font-size:6.75px; font-family:Arial;" text-anchor="middle"><textPath startOffset="22.20632615414155" xlink:href="#id70">October</textPath></text><path d="M 79.08570108090925 98.10471618934814 l -19.47407034605752 -1.7647682285294013 a40.55386976390156,40.55386976390156 0 0,0 0.06898575203214867,-0.6946771085095781 l 19.44080746834314 2.0997208677434096" fill="#ff4306" stroke="none" /><path d="M 79.12142395522702 97.74499172005258 l -19.746808929542773 -2.132770814598091 a40.86165084396238,40.86165084396238 0 0,0 0.08154749345528889,-0.6986491237098995 l 19.707171083083892 2.4723636766328525" fill="#ff4806" stroke="none" /><path d="M 79.26566170972629 96.67025291283419 l -19.47569889693767 -3.1276209910695214 a40.725234107304225,40.725234107304225 0 0,0 0.11711052747110591,-0.6911929623813424 l 19.41897650794634 3.4623997417666916" fill="#ff4606" stroke="none" /><path d="M 79.32604984820605 96.31383870115002 l -37.92667731914564 -6.762319203699681 a59.52482074563517,59.52482074563517 0 0,0 0.18853573149005592,-1.0071654164778487 l 37.80465586374572 7.414162697640102" fill="#85ff25" stroke="none" /><path d="M 79.3925641242962 95.95851677861259 l -19.27586966495613 -3.780339499705475 a40.64306793943882,40.64306793943882 0 0,0 0.14054896237794084,-0.6853666555028584 l 19.207941406663195 4.111581811371736" fill="#ff4406" stroke="none" /><path d="M 79.46518482838121 95.60439243477599 l -19.051499448921987 -4.078094417050499 a40.48308202843311,40.48308202843311 0 0,0 0.15172598986164873,-0.680157862072901 l 18.9784790720583 4.40543044867336" fill="#ff4106" stroke="none" /><path d="M 79.54389044137918 95.25157060432595 l -19.17756228335251 -4.451643174020063 a40.687458497242964,40.687458497242964 0 0,0 0.1642362819674097,-0.680865419151264 l 19.098093201124286 4.781093824830724" fill="#ff4506" stroke="none" /><path d="M 79.81627453868168 94.20196356495316 l -20.885119578213907 -5.9995209752959635 a42.72976004766988,42.72976004766988 0 0,0 0.2091603500348691,-0.7051847211378179 l 20.77875333106733 6.35813508318032" fill="#ff6a09" stroke="none" /><path d="M 79.91906864156998 93.8553929516997 l -29.241632329576 -8.947709491606295 a51.579970020330066,51.579970020330066 0 0,0 0.26709708986244485,-0.8467707657256819 l 29.08327975594535 9.44973042375839" fill="#fdff18" stroke="none" /><path d="M 80.2630227832202 92.82701384747504 l -18.47234823943697 -6.713383547580472 a40.65444397931303,40.65444397931303 0 0,0 0.24469215123822854,-0.6556533120347674 l 18.354051499697114 7.03035999664458" fill="#ff4506" stroke="none" /><path d="M 80.38941819471856 92.48833698450439 l -18.282525967958293 -7.002962763010163 a40.57785083274403,40.57785083274403 0 0,0 0.25545969581082634,-0.6501170615175241 l 18.159272722265776 7.3166288294234505" fill="#ff4306" stroke="none" /><path d="M 80.65960295795068 91.81776055985345 l -21.15969540112735 -8.951920370412738 a43.97541267935574,43.97541267935574 0 0,0 0.30093692097739955,-0.6946039048999814 l 21.002467770307273 9.31482341989932" fill="#ff810b" stroke="none" /><path d="M 80.803312248108 91.48605970444005 l -32.27726339855283 -14.315318196091217 a56.30934816100262,56.30934816100262 0 0,0 0.4005945785027499,-0.8826570529072033 l 32.02606650308673 14.868797257840491" fill="#b4ff20" stroke="none" /><path d="M 80.95270993114464 91.15688171328213 l -18.54120926028243 -8.608159274875765 a41.44203627174193,41.44203627174193 0 0,0 0.3059641978307864,-0.6444386312303566 l 18.39028686860989 8.926040321746655" fill="#ff5307" stroke="none" /><path d="M 81.10775173730289 90.83032412892265 l -18.589123173956292 -9.022548923903292 a41.6630561500652,41.6630561500652 0 0,0 0.31870251429846236,-0.6424848213346661 l 18.431060646704417 9.34119333373692" fill="#ff5708" stroke="none" /><path d="M 81.26839172434947 90.50648371742162 l -29.03524479382275 -14.715584757189383 a53.55140357931184,53.55140357931184 0 0,0 0.42379705313892063,-0.8186410147716479 l 28.777638307523713 15.213198494221366" fill="#deff1b" stroke="none" /><line stroke="#e1ed5e" stroke-width="0.3" x1="26.266209847984243" x2="21.928928074336255" y1="57.711370442889674" y2="55.22380399835377" /><path d="M 25.398753493254645 57.213857153982495 a86.0,86.0 0 0,1 29.58750427330803,-30.492523968695096" fill="none" id="id71" stroke="none" /><text fill="#e1ed5e" style="font-size:6.75px; font-family:Arial;" text-anchor="middle"><textPath startOffset="21.46611528233685" xlink:href="#id71">November</textPath></text><path d="M 85.31137513191541 84.99185889309783 l -15.557245188357255 -15.89565620460885 a43.24184713610326,43.24184713610326 0 0,0 0.536439321719279,-0.5160542024736233 l 15.281322623025549 16.16109349384479" fill="#ff740a" stroke="none" /><path d="M 85.57189188830299 84.74124197986013 l -14.537781032412775 -15.374744991238803 a42.159628089642865,42.159628089642865 0 0,0 0.5315970066799219,-0.49406148217426565 l 14.270976141937997 15.622711059487717" fill="#ff6008" stroke="none" /><path d="M 85.83668400450813 84.49514656593479 l -13.382742210941764 -14.650344353862865 a40.842640418333545,40.842640418333545 0 0,0 0.5231534052428763,-0.4696922926432128 l 13.128577818102917 14.878535655275357" fill="#ff4806" stroke="none" /><path d="M 86.37877921826538 84.01681056812374 l -19.512324962955926 -22.895832255905695 a51.08238621104657,51.08238621104657 0 0,0 0.674147539644544,-0.5645791770069613 l 19.11531988635227 23.22831259030647" fill="#fff917" stroke="none" /><path d="M 86.65592168130627 83.78471172551755 l -19.093886273785127 -23.202267164145194 a51.04865545399012,51.04865545399012 0 0,0 0.6833144550461143,-0.5525261013121882 l 18.691668420174512 23.527499362721514" fill="#fff817" stroke="none" /><path d="M 86.93701828274178 83.55741782278169 l -18.59387415631555 -23.404404172452885 a50.891441765301806,50.891441765301806 0 0,0 0.6905906725767116,-0.5390169739138588 l 18.18825092857941 23.720999535589964" fill="#fff617" stroke="none" /><path d="M 87.22198572758235 83.33499621200491 l -16.32310354973654 -21.288486355456808 a47.82616932776449,47.82616932776449 0 0,0 0.6576185878283102,-0.49530468648917725 l 15.95423880814984 21.56630763145184" fill="#ffc312" stroke="none" /><path d="M 87.80319425747018 82.90503203632743 l -17.280133780158092 -24.219729297624042 a50.752282445391465,50.752282445391465 0 0,0 0.7155319251016788,-0.5012758401666508 l 16.860670715472754 24.513589980554634" fill="#fff417" stroke="none" /><path d="M 88.09926311788651 82.69761687909137 l -25.406257339731635 -36.93794783591297 a65.83179566269118,65.83179566269118 0 0,0 0.9391855685395338,-0.6341422883119433 l 24.766667076785563 37.36980203652358" fill="#30ff2f" stroke="none" /><path d="M 88.39885842347998 82.49532879139004 l -12.59560256493469 -19.005188422124544 a43.80014015163604,43.80014015163604 0 0,0 0.6320422257721587,-0.4110978450405053 l 12.266593313378245 19.219185191324584" fill="#ff7e0b" stroke="none" /><path d="M 88.70189139769569 82.29822771554957 l -13.058558551190924 -20.460029016644278 a45.27218034699,45.27218034699 0 0,0 0.6605013804127386,-0.41360590381994566 l 12.704438018405943 20.681779261787156" fill="#ff970e" stroke="none" /><path d="M 89.00827224532344 82.1063720568725 l -15.45318381833193 -25.156511146697937 a50.52373525143953,50.52373525143953 0 0,0 0.7449554757248694,-0.44882733876052977 l 15.01786627638941 25.418785094917087" fill="#fff016" stroke="none" /><line stroke="#e1ed5e" stroke-width="0.3" x1="56.762969772571076" x2="54.21961505331055" y1="26.818313649435495" y2="22.513508569990535" /><path d="M 56.25429882871897 25.957352633546506 a86.0,86.0 0 0,1 42.265352541879196,-11.944610805530505" fill="none" id="id72" stroke="none" /><text fill="#e1ed5e" style="font-size:6.75px; font-family:Arial;" text-anchor="middle"><textPath startOffset="22.20632615414155" xlink:href="#id72">December</textPath></text><path d="M 89.3179101791058 81.91981866633112 l -10.824749484951594 -18.32164275539487 a42.28045569691291,42.28045569691291 0 0,0 0.6297840330880775,-0.3648115617111864 l 10.507768719398197 18.505258474496102" fill="#ff6209" stroke="none" /><path d="M 89.63071344664047 81.73862282372117 l -14.520210001108305 -25.571579119212057 a50.40649855263982,50.40649855263982 0 0,0 0.7581999355716056,-0.42193744325994864 l 14.077885976464653 25.81773196003219" fill="#ffee16" stroke="none" /><path d="M 90.26544431104013 81.39251694778311 l -13.594196291026106 -25.985138426056487 a50.32626112923816,50.32626112923816 0 0,0 0.7710450817715067,-0.3949592384368177 l 13.144890721665835 26.21529018980581" fill="#ffed16" stroke="none" /><path d="M 91.23893434514133 80.91482961587045 l -19.34402759314681 -42.13917314108585 a67.36702833413887,67.36702833413887 0 0,0 1.0580405033502127,-0.47471193271283335 l 18.615804971329823 42.465905404315215" fill="#32ff46" stroke="none" /><path d="M 91.56875222667455 80.76684994638697 l -12.618708784506582 -28.785480638239537 a52.42985375344033,52.42985375344033 0 0,0 0.8296805704260473,-0.35522592099436084 l 12.121344456290227 28.998426087196684" fill="#f0ff19" stroke="none" /><path d="M 91.90106846888425 80.62456947434976 l -11.632100954981082 -27.827987315943698 a51.16127733838862,51.16127733838862 0 0,0 0.8154526084581486,-0.3326435937857061 l 11.151364476934553 28.02409179591298" fill="#fffa17" stroke="none" /><path d="M 92.23578459929587 80.48803036053334 l -11.025616008570402 -27.70807785628062 a50.8211634055104,50.8211634055104 0 0,0 0.8155994115218754,-0.3164399005733806 l 10.54703343204885 27.893760460744556" fill="#fff517" stroke="none" /><path d="M 92.57280143429618 80.3572730644239 l -10.485862856713696 -27.73198251753069 a50.64820693064651,50.64820693064651 0 0,0 0.8181317599430256,-0.3013248316849595 l 10.0069487709981 27.90837061702197" fill="#fff216" stroke="none" /><path d="M 93.25333710446033 80.11325718540243 l -9.595248827626554 -28.28335261914914 a50.86665089097201,50.86665089097201 0 0,0 0.8315902393271022,-0.2741622273216593 l 9.106975766057042 28.444328570730033" fill="#fff517" stroke="none" /><path d="M 93.59665428221793 80.00007090966166 l -8.968435557426115 -28.011618161063296 a50.412303349940416,50.412303349940416 0 0,0 0.8287173577020649,-0.2574865170274205 l 8.48493282701332 28.161844812973243" fill="#ffee16" stroke="none" /><path d="M 94.28887869178378 79.79150937346287 l -5.437901845685474 -19.241718490284814 a40.99536213582235,40.99536213582235 0 0,0 0.6807223480380541,-0.18606713215447218 l 5.105881608423697 19.332472163265585" fill="#ff4b07" stroke="none" /><path d="M 95.33964822691252 79.52364482259891 l -5.577657160887096 -24.506752847207185 a46.13346761826733,46.13346761826733 0 0,0 0.7758271309247164,-0.16956576124579018 l 5.1549873058088584 24.599132106548844" fill="#ffa60f" stroke="none" /><path d="M 95.692805502759 79.44645832069477 l -4.862129261227386 -23.201640066363336 a44.70561964433666,44.70561964433666 0 0,0 0.7545320613113696,-0.15135203322996538 l 4.46203079044888 23.28189605567051" fill="#ff8e0d" stroke="none" /><path d="M 96.04723909329186 79.375362276772 l -4.3766688738074695 -22.83649633440185 a44.25211378051691,44.25211378051691 0 0,0 0.7493460743743667,-0.13693820539234974 l 3.98292767833021 22.908450021144937" fill="#ff860c" stroke="none" /><path d="M 97.11714578562143 79.19881850522333 l -3.510821360199787 -25.332266871149002 a46.57439366738434,46.57439366738434 0 0,0 0.7950587694492469,-0.10322144661398477 l 3.0742478622426823 25.388946640927124" fill="#ffae10" stroke="none" /><path d="M 97.83486435360386 79.11191278185805 l -2.7052750518331807 -26.0990674306306 a47.238899250057614,47.238899250057614 0 0,0 0.8095282316196006,-0.07687445997966501 l 2.2556216931233437 26.14176743512545" fill="#ffb911" stroke="none" /><path d="M 98.19473922651362 79.07773832637324 l -2.560952858705359 -29.68043544212105 a50.790715459324346,50.790715459324346 0 0,0 0.8716891495641264,-0.06765985467785804 l 2.049673519778899 29.720120558987368" fill="#fff417" stroke="none" /><path d="M 98.55514903715128 79.0497635885617 l -1.6293369126664479 -23.625269589704548 a44.681387247397396,44.681387247397396 0 0,0 0.7677495347311559,-0.04631274856801483 l 1.2224253290956688 23.64981560765287" fill="#ff8d0d" stroke="none" /><path d="M 98.91598698831166 79.02799685794201 l -1.9570850269751183 -37.863008001233574 a58.91355373351709,58.91355373351709 0 0,0 1.0131985727325648,-0.043630461861682936 l 1.3050456218532294 37.89108618961944" fill="#8eff24" stroke="none" /></svg>