<?xml version="1.0" encoding="utf-8" ?>
<svg baseProfile="full" height="200mm" version="1.1" viewBox="0,0,200,200" width="200mm" xmlns="http://www.w3.org/2000/svg" xmlns:ev="http://www.w3.org/2001/xml-events" xmlns:xlink="http://www.w3.org/1999/xlink"><defs /><rect fill="#1a1a1a" height="200" width="200" x="0" y="0" /><text alignment-baseline="middle" fill="#e1ed5e" style="dominant-baseline: central; font-size:9.0px; font-family:Arial;" text-anchor="middle" x="100.0" y="100.0">2025</text><line stroke="#e1ed5e" stroke-width="0.3" x1="100.0" x2="100.0" y1="15.0" y2="10.0" /><path d="M 100.0 14.0 a86.0,86.0 0 0,1 42.46469731375804,11.215312516191453" fill="none" id="id109" stroke="none" /><text fill="#e1ed5e" style="font-size:6.75px; font-family:Arial;" text-anchor="middle"><textPath startOffset="22.20632615414155" xlink:href="#id109">January</textPath></text><path d="M 100.36148047927253 79.00311137660856 l 0.46106715438583745 -26.7814619146965 a47.78543046525839,47.78543046525839 0 0,0 0.8223038950424809,0.021237683576146502 l -0.9219976846231862 26.769557438977994" fill="#ff800b" stroke="none" /><path d="M 100.72285384407766 79.0124445844662 l 0.9081162637757688 -26.36652010069939 a47.38215414573114,47.38215414573114 0 0,0 0.8148809214701259,0.03509048662605569 l -1.3618380176352263 26.346981887549138" fill="#ff780b" stroke="none" /><path d="M 101.08401301168833 79.027996857942 l 1.6018513009846116 -30.990431069675925 a52.03180216285868,52.03180216285868 0 0,0 0.8940499470299322,0.05393153434934554 l -2.1350632968541556 30.958266265946275" fill="#ffd113" stroke="none" /><path d="M 101.44485096284872 79.0497635885617 l 1.8624449462523316 -27.005319531603682 a48.06946590130356,48.06946590130356 0 0,0 0.8249860525210578,0.06403479549188153 l -2.327021188135731 26.969259473923334" fill="#ff850c" stroke="none" /><path d="M 101.80526077348638 79.07773832637324 l 2.2908406307178835 -26.549941056932543 a47.64858947340253,47.64858947340253 0 0,0 0.8165490514795173,0.07754117142254013 l -2.7475148092876447 26.506574340994824" fill="#ff7d0b" stroke="none" /><path d="M 102.16513564639614 79.11191278185805 l 2.877007723255526 -27.755853703973628 a48.9045621409127,48.9045621409127 0 0,0 0.8365784319663598,0.09399933436931875 l -3.354352858731611 27.702218416133707" fill="#ff960d" stroke="none" /><path d="M 102.52436894288641 79.15227682838746 l 3.2738807678157817 -27.03763256818084 a48.23512199667604,48.23512199667604 0 0,0 0.8234086097350274,0.1069020695289399 l -3.738804106058655 26.977272175487762" fill="#ff890c" stroke="none" /><path d="M 102.88285421437855 79.19881850522331 l 3.7339551698727744 -26.942284765733902 a48.199800175893145,48.199800175893145 0 0,0 0.8208449371447487,0.12097120626707941 l -4.197169087446179 26.874019075305856" fill="#ff880c" stroke="none" /><path d="M 103.2404852339499 79.25152402106235 l 4.207758810855672 -26.94182392733341 a48.26842699426882,48.26842699426882 0 0,0 0.8198065797368385,0.13527511003041048 l -4.670894596731385 26.865402554363374" fill="#ff890c" stroke="none" /><path d="M 103.59715602781102 79.31037775812273 l 4.613484194335652 -26.535197378624947 a47.933268207441316,47.933268207441316 0 0,0 0.8116811445737782,0.14832954103554866 l -5.0695604600123305 26.45185235623866" fill="#ff830c" stroke="none" /><path d="M 104.307194497241 79.44645832069477 l 6.039497597280645 -28.81993503364791 a50.44595365362183,50.44595365362183 0 0,0 0.8483502652281175,0.1854165094162337 l -6.534690586662291 28.711705026135803" fill="#ffb310" stroke="none" /><path d="M 105.01212808612495 79.60689891045804 l 6.83553832805569 -27.812103308247966 a49.63979180551031,49.63979180551031 0 0,0 0.8280179922379141,0.21108022281110747 l -7.3132652089786285 27.69032008926799" fill="#ffa40f" stroke="none" /><path d="M 105.36241919743992 79.69619591428918 l 7.105349541721706 -26.903086040809082 a48.82556433622185,48.82556433622185 0 0,0 0.8107417782801936,0.22160635395207884 l -7.5673892092256105 26.77679314603071" fill="#ff940d" stroke="none" /><path d="M 105.71112130821622 79.79150937346287 l 7.359946030416234 -26.04276679493965 a48.06278825077436,48.06278825077436 0 0,0 0.7942027469764874,0.23184956031571174 l -7.807138995116148 25.91221890570523" fill="#ff850c" stroke="none" /><path d="M 106.0581310904928 79.89281104454417 l 8.329880710505284 -27.647220392009068 a49.8748282775079,49.8748282775079 0 0,0 0.8198819169017534,0.2547413025620451 l -8.804548000117755 27.499738954564503" fill="#ffa80f" stroke="none" /><path d="M 106.74666289553966 80.11325718540242 l 8.779962910484752 -25.880182102762312 a48.32895121261748,48.32895121261748 0 0,0 0.7855019416006866,0.2740462036895476 l -9.224146856148712 25.72521504590056" fill="#ff8a0c" stroke="none" /><path d="M 107.08798089147638 80.2323363322302 l 10.173484777204768 -28.37282273810852 a51.14161347108255,51.14161347108255 0 0,0 0.8261018656142141,0.3042602888661475 l -10.660368968591559 28.19349918143605" fill="#ffc011" stroke="none" /><path d="M 107.4271985657038 80.35727306442388 l 9.555458472516927 -25.271340177519704 a48.01753913641872,48.01753913641872 0 0,0 0.7706056697266885,0.2989830277765695 l -9.989047307243283 25.103114445852587" fill="#ff840c" stroke="none" /><path d="M 107.76421540070413 80.48803036053334 l 9.447772236910808 -23.74285559239914 a46.55354362749053,46.55354362749053 0 0,0 0.7420105704734197,0.3026847424719826 l -9.855066676972616 23.576709963743575" fill="#ff6709" stroke="none" /><path d="M 108.43124777332544 80.76684994638697 l 21.194452794701878 -48.34825186781818 a73.7897555207526,73.7897555207526 0 0,0 1.1589133735575634,0.5199706492012826 l -22.02354828672622 47.97626088810036" fill="#3aff97" stroke="none" /><path d="M 108.76106565485865 80.91482961587045 l 10.405001349950465 -22.666332091778685 a45.94046237717471,45.94046237717471 0 0,0 0.7158438225134587,0.3360982730877871 l -10.79362338376352 22.483868836050895" fill="#ff5b08" stroke="none" /><path d="M 109.73455568895987 81.39251694778311 l 10.689048326911724 -20.431983948985888 a44.05909196448705,44.05909196448705 0 0,0 0.6689742723019705,0.3573428882175127 l -11.039167645742006 20.24496233426662" fill="#ff3505" stroke="none" /><path d="M 110.05341064243156 81.56283822128135 l 21.560449066005695 -39.54016219868905 a66.03640072903767,66.03640072903767 0 0,0 0.9933003921280428,0.5527705927957396 l -22.237873547205773 39.163176208333134" fill="#46ff2c" stroke="none" /><line stroke="#e1ed5e" stroke-width="0.3" x1="143.23703022742887" x2="145.7803849466894" y1="26.81831364943548" y2="22.513508569990506" /><path d="M 143.74570117128098 25.957352633546492 a86.0,86.0 0 0,1 28.547481713284135,27.462654790039103" fill="none" id="id110" stroke="none" /><text fill="#e1ed5e" style="font-size:6.75px; font-family:Arial;" text-anchor="middle"><textPath startOffset="19.985693538727396" xlink:href="#id110">February</textPath></text><path d="M 110.68208982089419 81.91981866633111 l 13.21972890118998 -22.37531229590899 a46.98876358275656,46.98876358275656 0 0,0 0.6928335079406029,0.41742443636718163 l -13.60292447534822 22.144441250083194" fill="#ff700a" stroke="none" /><path d="M 110.99172775467656 82.1063720568725 l 15.302578047374604 -24.911337349480142 a50.23599875898881,50.23599875898881 0 0,0 0.732921327676425,0.45895526815264553 l -15.729118527423292 24.644237740004552" fill="#ffaf10" stroke="none" /><path d="M 111.90073688211348 82.69761687909136 l 14.944198901752939 -21.727247429679462 a47.37048277308678,47.37048277308678 0 0,0 0.667853564380957,0.46787410155847975 l -15.315983605717546 21.466788485357046" fill="#ff780b" stroke="none" /><path d="M 112.19680574252982 82.90503203632743 l 15.999182288668916 -22.424355560247136 a48.54678849155458,48.54678849155458 0 0,0 0.6760826509684346,0.49120279837516956 l -16.38281025599114 22.145633527055292" fill="#ff8f0d" stroke="none" /><path d="M 112.48926042617603 83.11751280151076 l 18.111409090134647 -24.482284913360516 a51.45333173577518,51.45333173577518 0 0,0 0.7074927352690924,0.5328688603420669 l -18.53014797916212 24.1668994635126" fill="#ffc612" stroke="none" /><path d="M 112.77801427241765 83.33499621200491 l 17.209438511659346 -22.44443869538807 a49.28281460954014,49.28281460954014 0 0,0 0.668761797801531,0.5219791909079592 l -17.593232864620308 22.144881115256887" fill="#ff9d0e" stroke="none" /><path d="M 113.06298171725822 83.55741782278167 l 18.81726344925182 -23.685587816900842 a51.250561547691476,51.250561547691476 0 0,0 0.6860170796532117,0.5547114357895107 l -19.222183927469523 23.3581702838472" fill="#ffc212" stroke="none" /><path d="M 113.34407831869373 83.78471172551755 l 16.110236575102306 -19.576633469651814 a46.35319113072072,46.35319113072072 0 0,0 0.6117351218939397,0.512310572025874 l -16.44482923395536 19.29642174023212" fill="#ff6309" stroke="none" /><path d="M 113.6212207817346 84.01681056812373 l 13.327947372190346 -15.639061358835722 a41.547856855188186,41.547856855188186 0 0,0 0.5403322552423069,0.46857080722366906 l -13.595173426079418 15.407325558192381" fill="#ff0000" stroke="none" /><path d="M 113.89432698308785 84.25364557470407 l 17.309893882759457 -19.617195167060743 a47.162315884778714,47.162315884778714 0 0,0 0.6041021320253609,0.5423688588052176 l -17.645007002380808 19.316327299486225" fill="#ff740a" stroke="none" /><path d="M 114.42810811169701 84.74124197986012 l 20.05070821536093 -21.205060457135566 a50.1836510554851,50.1836510554851 0 0,0 0.6225562855552963,0.5988986534534965 l -20.412747744528644 20.856778716919766" fill="#ffae10" stroke="none" /><path d="M 114.68862486808459 84.99185889309783 l 19.058606893822915 -19.473181739767046 a48.24766602487764,48.24766602487764 0 0,0 0.5885392743360495,0.586011899654885 l -19.39098196832629 19.142233989462042" fill="#ff890c" stroke="none" /><path d="M 114.94478906791727 85.2469230424477 l 19.177716619251598 -18.931704413368358 a47.9479915155744,47.9479915155744 0 0,0 0.5747725213395334,0.5923536071713971 l -19.50075340429424 18.598786610646847" fill="#ff830c" stroke="none" /><path d="M 115.19652480421416 85.50635884689758 l 16.432481435920387 -15.672431181186967 a43.707962155836654,43.707962155836654 0 0,0 0.5145731683333883,0.5489107784014625 l -16.69982192622424 15.38725098590745" fill="#ff2d04" stroke="none" /><path d="M 115.68641384162765 86.03803664274999 l 23.021335576742473 -20.49053703431319 a51.819539251772554,51.819539251772554 0 0,0 0.5873081889318539,0.6713947864351453 l -23.370635629252174 20.091226691675097" fill="#ffcd13" stroke="none" /><path d="M 115.9244219780498 86.31012108654704 l 23.152597951111723 -19.903784446271928 a51.53200660240789,51.53200660240789 0 0,0 0.5724700098120744,0.6776239252813681 l -23.49177857441091 19.502301571361453" fill="#ffc712" stroke="none" /><path d="M 116.15771136456269 86.58626213691792 l 19.275368079500502 -16.001940423314224 a46.05198419110799,46.05198419110799 0 0,0 0.5010927538353123,0.6142804663279441 l -19.547959325412222 15.66777578737818" fill="#ff5d08" stroke="none" /><path d="M 116.82858285166822 87.43820079747576 l 19.20691892958783 -14.337122799899156 a44.967870680290886,44.967870680290886 0 0,0 0.45768167619192723,0.6242772919727758 l -19.450863218293385 14.004383064254885" fill="#ff4706" stroke="none" /><path d="M 117.04232023915458 87.72973835380427 l 21.80587841382914 -15.699965134330109 a47.869783002805974,47.869783002805974 0 0,0 0.47570569549581876,0.672851970347423 l -22.072896729128846 15.322286663650893" fill="#ff810b" stroke="none" /><path d="M 117.2510076193507 88.02491185347247 l 20.406097145430813 -14.16524862982672 a45.84075420460432,45.84075420460432 0 0,0 0.4443836205405039,0.6520781290845158 l -20.64690523164005 13.8118924774718" fill="#ff5908" stroke="none" /><path d="M 117.45458315368197 88.32363383020206 l 19.98024403258195 -13.36592477931128 a45.03867918184637,45.03867918184637 0 0,0 0.42551549946253814,0.648089298621846 l -20.207356167402416 13.020017416711761" fill="#ff4906" stroke="none" /><path d="M 117.65298651832404 88.62581576622439 l 22.268673686398948 -14.348166917139846 a47.490823347593846,47.490823347593846 0 0,0 0.43685316677682823,0.6909967993260189 l -22.512354449421732 13.96272247009962" fill="#ff7a0b" stroke="none" /><line stroke="#e1ed5e" stroke-width="0.3" x1="172.23445277983987" x2="176.4835382374775" y1="55.19839476539836" y2="52.563006222186495" /><path d="M 173.08426987136738 54.67131705675599 a86.0,86.0 0 0,1 12.851231095245387,41.99856678651699" fill="none" id="id111" stroke="none" /><text fill="#e1ed5e" style="font-size:6.75px; font-family:Arial;" text-anchor="middle"><textPath startOffset="22.20632615414155" xlink:href="#id111">March</textPath></text><path d="M 118.03404312379186 89.2402003453031 l 26.322295735028508 -15.704888061786926 a51.65137454985596,51.65137454985596 0 0,0 0.4489742249707504,0.7674424876083387 l -26.588729634469587 15.249466161824692" fill="#ffca12" stroke="none" /><path d="M 118.3937258080291 89.86733742301442 l 38.54259091465008 -21.23218931590598 a65.00383139637432,65.00383139637432 0 0,0 0.5314586366917116,0.9847121392112974 l -38.902357650560255 20.565596193362225" fill="#56ff2b" stroke="none" /><path d="M 118.73160827565052 90.50648371742162 l 25.20411021655061 -12.773896784920565 a49.25631983963649,49.25631983963649 0 0,0 0.37678736100009486,0.7595803278997724 l -25.420257590504114 12.338156868521843" fill="#ff9c0e" stroke="none" /><path d="M 119.34039704204932 91.81776055985345 l 24.515299592660824 -10.371558080113916 a47.61896187170139,47.61896187170139 0 0,0 0.3128754300613258,0.7576526709500003 l -24.690196709608347 9.948030838710613" fill="#ff7d0b" stroke="none" /><path d="M 119.47837535516314 92.15188598940014 l 24.558152179673996 -9.89482822265536 a47.47660219960038,47.47660219960038 0 0,0 0.29889109716608664,0.7606452406772638 l -24.724836826721784 9.470633977082311" fill="#ff7a0b" stroke="none" /><path d="M 119.61058180528143 92.48833698450437 l 24.542766093940138 -9.400893364426354 a47.28163167672763,47.28163167672763 0 0,0 0.2845800615283133,0.7625330805908866 l -24.700950743970076 8.977037146806135" fill="#ff760a" stroke="none" /><path d="M 119.85752413597 93.16781622104841 l 25.78347915655476 -8.871069064408555 a48.266896848779844,48.266896848779844 0 0,0 0.2635434768533296,0.7879614513445683 l -25.932359927179856 8.425934510141673" fill="#ff890c" stroke="none" /><path d="M 120.08093135843002 93.85539295169968 l 25.902288685695424 -7.925896602321593 a48.08779053573396,48.08779053573396 0 0,0 0.23538768038100694,0.793610240760654 l -26.034882263188134 7.47885697481441" fill="#ff860c" stroke="none" /><path d="M 120.18372546131832 94.20196356495316 l 26.223884463835482 -7.533150303752 a48.28443640377259,48.28443640377259 0 0,0 0.22259867712534692,0.8008058771533555 l -26.349669911527194 7.080633123179692" fill="#ff8a0c" stroke="none" /><path d="M 120.28053869075195 94.5502522615342 l 25.699031372782187 -6.905794774004027 a47.61071616773785,47.61071616773785 0 0,0 0.2058679843005944,0.7932933223462196 l -25.814095688953085 6.462405026108957" fill="#ff7c0b" stroke="none" /><path d="M 120.37134235888165 94.90015583598534 l 25.652391232533148 -6.421923279062532 a47.44402152754208,47.44402152754208 0 0,0 0.1915093737740544,0.7939299921070165 l -25.759133406568022 5.979408055296109" fill="#ff790b" stroke="none" /><path d="M 120.45610955862082 95.25157060432595 l 26.66757599366742 -6.1902827317590665 a48.37661793715837,48.37661793715837 0 0,0 0.18131006521487017,0.8127774710271556 l -26.77018044588433 5.730327091181947" fill="#ff8b0c" stroke="none" /><path d="M 120.53481517161879 95.60439243477599 l 26.98205437979974 -5.7756800519468205 a48.59329155097171,48.59329155097171 0 0,0 0.16804185934473323,0.8194317850165659 l -27.077475535059474 5.310372610766843" fill="#ff900d" stroke="none" /><path d="M 120.67395015179393 96.31383870115 l 30.685101787274082 -5.471147692097321 a52.16903798265376,52.16903798265376 0 0,0 0.15001862333586857,0.8854184069956501 l -30.774732272130173 4.942143496785833" fill="#ffd313" stroke="none" /><path d="M 120.73433829027371 96.67025291283417 l 26.372450973938854 -4.235176960196946 a47.71035181829306,47.71035181829306 0 0,0 0.12323835276571339,0.8119867660925704 l -26.44144522014387 3.780591081712293" fill="#ff7e0b" stroke="none" /><path d="M 120.78858239683441 97.02765380044208 l 43.120080289980116 -6.165298062559149 a64.55860677770269,64.55860677770269 0 0,0 0.1478207671011352,1.101436412871939 l -43.219817056139085 5.422143307622545" fill="#5cff2a" stroke="none" /><path d="M 120.83666639777658 97.38593545837742 l 27.985393028616556 -3.5109082327720342 a49.20476377467265,49.20476377467265 0 0,0 0.09819782287325365,0.8412989779782224 l -28.041681204493397 3.028665516468959" fill="#ff9b0e" stroke="none" /><path d="M 120.87857604477298 97.74499172005257 l 29.164478243626753 -3.149934161156059 a50.33409068716118,50.33409068716118 0 0,0 0.08562278073889347,0.862209717138757 l -29.214378150047875 2.647448913312867" fill="#ffb110" stroke="none" /><path d="M 120.91429891909075 98.10471618934814 l 32.56627968850302 -2.9512030456081755 a53.69972740201685,53.69972740201685 0 0,0 0.07550057953795093,0.9212983063182519 l -32.61225475186047 2.390190822082155" fill="#ffef16" stroke="none" /><path d="M 120.94382443527127 98.46500227214037 l 31.520629175418332 -2.3101842891449222 a52.60517386542978,52.60517386542978 0 0,0 0.05841531260246615,0.9036590307308053 l -31.555725079025212 1.7672661941610817" fill="#ffdb14" stroke="none" /><path d="M 120.96714384426684 98.82574320788733 l 21.503714920453547 -1.204307247975579 a42.537411899475366,42.537411899475366 0 0,0 0.03465055393740736,0.7314184280906286 l -21.521259082624454 0.8339777132619505" fill="#ff1502" stroke="none" /><path d="M 120.98425023603335 99.18683210126433 l 35.79554735173509 -1.3871255678280443 a56.82241375942206,56.82241375942206 0 0,0 0.029461895370492642,0.9776968755546513 l -35.81412094156123 0.7707585448483938" fill="#d8ff1c" stroke="none" /><line stroke="#e1ed5e" stroke-width="0.3" x1="184.98032266829074" x2="189.97916517819016" y1="98.17113171792111" y2="98.06355123074" /><path d="M 185.9800911702706 98.14961562048488 a86.0,86.0 0 0,1 -9.607161424134198,41.387399972396054" fill="none" id="id112" stroke="none" /><text fill="#e1ed5e" style="font-size:6.75px; font-family:Arial;" text-anchor="middle"><textPath startOffset="21.466115282336823" xlink:href="#id112">April</textPath></text><path d="M 120.99513854157772 99.54816195383933 l 28.91786819801441 -0.6223437411402122 a49.924564177353986,49.924564177353986 0 0,0 0.011095123126993534,0.8593295134403308 l -28.924296328259118 0.12447796963941855" fill="#ffa90f" stroke="none" /><path d="M 120.99980553446 99.90962569577887 l 32.085663724792845 -0.1380831612865634 a53.0859608492549,53.0859608492549 0 0,0 -0.003932665389643941,0.9138129374979009 l -32.0832867621137 -0.41423925441502224" fill="#ffe415" stroke="none" /><path d="M 120.99824983174949 100.27111621757518 l 28.055382903999117 0.3622334888146262 a49.057721272234936,49.057721272234936 0 0,0 -0.01816989908913427,0.8442838134245538 l -28.044990942224977 -0.8451071180292948" fill="#ff990e" stroke="none" /><path d="M 120.9764740272857 100.99374915477107 l 31.651248340830172 1.4994608362318274 a52.68674650910531,52.68674650910531 0 0,0 -0.050713876514892633,0.905530332828667 l -31.620748113427748 -2.0440628853959177" fill="#ffdd14" stroke="none" /><path d="M 120.95626037817324 101.35467743843564 l 30.48074283330006 1.9703694207787774 a51.54436182545173,51.54436182545173 0 0,0 -0.06485616289899887,0.8849108142955106 l -30.44231011173672 -2.494753371571058" fill="#ffc812" stroke="none" /><path d="M 120.92983693683757 101.71520430193887 l 28.021538631140483 2.2963706670110593 a49.115475195998506,49.115475195998506 0 0,0 -0.07630534320536875,0.8420231038495479 l -27.97785869165804 -2.778375159409178" fill="#ff9a0e" stroke="none" /><path d="M 120.89721153311464 102.0752229133903 l 26.86500135733049 2.6678615133243233 a47.99714397827382,47.99714397827382 0 0,0 -0.08872088875043982,0.8214452421341355 l -26.815098167079 -3.12990307734325" fill="#ff840c" stroke="none" /><path d="M 120.8583938346157 102.4346265915055 l 29.24361472429018 3.413363588971215 a50.44214756319987,50.44214756319987 0 0,0 -0.10808669098532246,0.8615572745969113 l -29.18052652405801 -3.9162386178555213" fill="#ffb310" stroke="none" /><path d="M 120.81339534386255 102.79330883721812 l 25.412455587972797 3.4105361281300626 a46.64029359605639,46.64029359605639 0 0,0 -0.11363785155745505,0.794782869119614 l -25.34998368539874 -3.8474644692300863" fill="#ff6909" stroke="none" /><path d="M 120.76222939487914 103.15116336523771 l 27.05873780809838 4.1068086508803505 a48.36861649887254,48.36861649887254 0 0,0 -0.13201924960414352,0.8220839933072164 l -26.98403680413295 -4.571971873880772" fill="#ff8b0c" stroke="none" /><path d="M 120.70491114924044 103.5080841355445 l 23.328423313915636 3.9525922688065296 a44.66090277137945,44.66090277137945 0 0,0 -0.1349472937708387,0.7568560891267042 l -23.256929577805607 -4.353567108666452" fill="#ff4106" stroke="none" /><path d="M 120.64145759157962 103.86396538481128 l 61.924372774738885 11.591896154433844 a84.0,84.0 0 0,0 -0.2782802680973435,1.4189450917282203 l -61.715662573665874 -12.656104973230008" fill="#4dd2ff" stroke="none" /><path d="M 120.5718875245553 104.21870165774334 l 27.066386172154935 5.550536287800344 a48.629652793736085,48.629652793736085 0 0,0 -0.17521949643498155,0.8185671537702663 l -26.96683263699551 -6.0156172609867795" fill="#ff900d" stroke="none" /><path d="M 120.49622156327973 104.57218783832717 l 28.218579455231918 6.294850267974699 a49.912166407370066,49.912166407370066 0 0,0 -0.19427582072945243,0.8369351510318608 l -28.106043068571914 -6.779654076355125" fill="#ffa90f" stroke="none" /><path d="M 120.41448212921028 104.9243191809786 l 28.577020546064166 6.893261828515808 a50.396652223112866,50.396652223112866 0 0,0 -0.21067885059980848,0.8415572820103342 l -28.454130381169296 -7.3841469499235375" fill="#ffb210" stroke="none" /><path d="M 120.32669344350535 105.2749913415812 l 28.119125778342163 7.297209722075118 a50.0505508427323,50.0505508427323 0 0,0 -0.2235875454624,0.8320524332740976 l -27.989350156537984 -7.780153088524765" fill="#ffac0f" stroke="none" /><path d="M 120.23288151984713 105.62410040840565 l 27.421514107208125 7.6223126467759785 a49.46118560455652,49.46118560455652 0 0,0 -0.23507573865133358,0.8183294852849308 l -27.286245731670693 -8.093199607565492" fill="#ffa00e" stroke="none" /><path d="M 120.02730092923936 106.31721596034902 l 25.748341115471135 8.12180493127203 a47.99890341366286,47.99890341366286 0 0,0 -0.2553261644775646,0.7858131330227072 l -25.604722699977323 -8.563816964272531" fill="#ff840c" stroke="none" /><path d="M 119.9155931802556 106.66101706037122 l 26.795216454755458 8.961992360760561 a49.25421971903539,49.25421971903539 0 0,0 -0.27584513589025184,0.801735085143026 l -26.636980487921978 -9.421900148992886" fill="#ff9c0e" stroke="none" /><path d="M 119.79798401119884 107.00284435728193 l 26.822186180027366 9.487410184517872 a49.450670000640486,49.450670000640486 0 0,0 -0.29075990581503564,0.8000463843924014 l -26.654902013207103 -9.947704365916405" fill="#ffa00e" stroke="none" /><path d="M 119.67450827220406 107.3425965602758 l 28.246565780544348 10.541718952785509 a51.14956578251395,51.14956578251395 0 0,0 -0.31494911676129916,0.8222327607092635 l -28.060922384189542 -11.026375280327915" fill="#ffc011" stroke="none" /><path d="M 119.54520255179757 107.68017299344265 l 27.250873310625106 10.708071236066138 a50.279222766125585,50.279222766125585 0 0,0 -0.32345674061303636,0.802793103707329 l -27.062513955754678 -11.175563707616279" fill="#ffb010" stroke="none" /><path d="M 119.41010516605496 108.01547362559984 l 26.666707250879064 11.012113887194165 a49.85099526651759,49.85099526651759 0 0,0 -0.334355417613136,0.7903174402437718 l -26.47320085207362 -11.4695058531041" fill="#ffa80f" stroke="none" /><path d="M 119.12269723197855 108.67885076344098 l 27.583975716728627 12.519008474783995 a51.291934397340626,51.291934397340626 0 0,0 -0.3718063984124481,0.8008379047304133 l -27.36439470147635 -12.991966446793239" fill="#ffc312" stroke="none" /><path d="M 118.97047184881838 109.00673069616215 l 44.67842823648364 21.21225946622303 a70.45828445614534,70.45828445614534 0 0,0 -0.5296005117103161,1.091133916613268 l -44.30667446815861 -21.978182338801574" fill="#34ff60" stroke="none" /><path d="M 118.81262510543309 109.33194174019688 l 29.05936765831422 14.414805189310488 a53.43814817998788,53.43814817998788 0 0,0 -0.4158539647491469,0.8205193245259249 l -28.806935023778802 -14.912878725539107" fill="#ffea16" stroke="none" /><path d="M 118.64920377521936 109.65438752849418 l 27.422730831103046 14.196298872815555 a51.87946029193894,51.87946029193894 0 0,0 -0.41737641385568286,0.7895188826066095 l -27.174301909022468 -14.6662327705083" fill="#ffce13" stroke="none" /><line stroke="#e1ed5e" stroke-width="0.3" x1="174.80103733775053" x2="179.2010983576182" y1="140.37084112569926" y2="142.7455964860345" /><path d="M 175.68104954172406 140.8457921977663 a86.0,86.0 0 0,1 -30.038265399797805,32.042727171017184" fill="none" id="id113" stroke="none" /><text fill="#e1ed5e" style="font-size:6.75px; font-family:Arial;" text-anchor="middle"><textPath startOffset="22.206326154141568" xlink:href="#id113">May</textPath></text><path d="M 117.55443506779139 111.5257021239791 l 23.47825943358666 15.415102996821656 a49.0865460039753,49.0865460039753 0 0,0 -0.4698211101387055,0.7023188134920494 l -23.209435218037235 -15.816958724519512" fill="#ff990e" stroke="none" /><path d="M 117.35343817320211 111.8261652097733 l 23.29906854501881 15.878042788818808 a49.19501441512392,49.19501441512392 0 0,0 -0.4829055068418704,0.6956613994003132 l -23.0223021310148 -16.27674545040614" fill="#ff9b0e" stroke="none" /><path d="M 116.93607887273984 112.41649034213515 l 27.181479984899564 19.92778766876669 a54.70385104911522,54.70385104911522 0 0,0 -0.5632900694171922,0.7546190995318822 l -26.834428648787277 -20.392719647807887" fill="#fdff18" stroke="none" /><line stroke="#e1ed5e" stroke-width="0.3" x1="143.8653032363475" x2="146.44561519142675" y1="172.8068346515853" y2="177.08958963109032" /><path d="M 144.38136562736335 173.6633856474863 a86.0,86.0 0 0,1 -40.68145358897372,12.25698825130547" fill="none" id="id114" stroke="none" /><text fill="#e1ed5e" style="font-size:6.75px; font-family:Arial;" text-anchor="middle"><textPath startOffset="21.466115282336833" xlink:href="#id114">June</textPath></text><line stroke="#e1ed5e" stroke-width="0.3" x1="102.19456741930631" x2="102.32365962044197" y1="184.97166512339345" y2="189.96999836594603" /><path d="M 102.22038585953345 185.97133177190398 a86.0,86.0 0 0,1 -42.740103519485714,-10.115201625700543" fill="none" id="id115" stroke="none" /><text fill="#e1ed5e" style="font-size:6.75px; font-family:Arial;" text-anchor="middle"><textPath startOffset="22.20632615414155" xlink:href="#id115">July</textPath></text><line stroke="#e1ed5e" stroke-width="0.3" x1="58.666819895761336" x2="56.23545636021788" y1="174.27360380694188" y2="178.64263932499728" /><path d="M 58.180547188652646 175.14741091055294 a86.0,86.0 0 0,1 -31.652253787137756,-30.449443065178592" fill="none" id="id116" stroke="none" /><text fill="#e1ed5e" style="font-size:6.75px; font-family:Arial;" text-anchor="middle"><textPath startOffset="22.20632615414155" xlink:href="#id116">August</textPath></text><line stroke="#e1ed5e" stroke-width="0.3" x1="26.63291911575756" x2="22.317208475507996" y1="142.92168965132927" y2="145.44649492493687" /><path d="M 25.769776987707644 143.4266507060508 a86.0,86.0 0 0,1 -11.730757126820373,-40.83630448921669" fill="none" id="id117" stroke="none" /><text fill="#e1ed5e" style="font-size:6.75px; font-family:Arial;" text-anchor="middle"><textPath startOffset="21.46611528233685" xlink:href="#id117">September</textPath></text><line stroke="#e1ed5e" stroke-width="0.3" x1="15.007084014347285" x2="10.007500721073583" y1="101.09737516637583" y2="101.16192664675087" /><path d="M 14.007167355692545 101.11028546245083 a86.0,86.0 0 0,1 10.666146001902534,-42.60595125391555" fill="none" id="id118" stroke="none" /><text fill="#e1ed5e" style="font-size:6.75px; font-family:Arial;" text-anchor="middle"><textPath startOffset="22.20632615414155" xlink:href="#id118">October</textPath></text><line stroke="#e1ed5e" stroke-width="0.3" x1="26.266209847984243" x2="21.928928074336255" y1="57.711370442889674" y2="55.22380399835377" /><path d="M 25.398753493254645 57.213857153982495 a86.0,86.0 0 0,1 29.58750427330803,-30.492523968695096" fill="none" id="id119" stroke="none" /><text fill="#e1ed5e" style="font-size:6.75px; font-family:Arial;" text-anchor="middle"><textPath startOffset="21.46611528233685" xlink:href="#id119">November</textPath></text><line stroke="#e1ed5e" stroke-width="0.3" x1="56.762969772571076" x2="54.21961505331055" y1="26.818313649435495" y2="22.513508569990535" /><path d="M 56.25429882871897 25.957352633546506 a86.0,86.0 0 0,1 42.265352541879196,-11.944610805530505" fill="none" id="id120" stroke="none" /><text fill="#e1ed5e" style="font-size:6.75px; font-family:Arial;" text-anchor="middle"><textPath startOffset="22.20632615414155" xlink:href="#id120">December</textPath></text></svg>