<?xml version="1.0" encoding="utf-8" ?>
<svg baseProfile="full" height="200mm" version="1.1" viewBox="0,0,200,200" width="200mm" xmlns="http://www.w3.org/2000/svg" xmlns:ev="http://www.w3.org/2001/xml-events" xmlns:xlink="http://www.w3.org/1999/xlink"><defs /><rect fill="#1a1a1a" height="200" width="200" x="0" y="0" /><rect fill="#1a1a1a" height="200" width="180" x="10" y="0" /><text alignment-baseline="middle" fill="#e1ed5e" style="dominant-baseline: central; font-size:9.0px; font-family:Arial;" text-anchor="middle" x="100.0" y="100.0">2026</text><line stroke="#e1ed5e" stroke-width="0.3" x1="100.0" x2="100.0" y1="15.0" y2="10.0" /><path d="M 100.0 14.0 a86.0,86.0 0 0,1 42.46469731375804,11.215312516191453" fill="none" id="id121" stroke="none" /><text fill="#e1ed5e" style="font-size:6.75px; font-family:Arial;" text-anchor="middle"><textPath startOffset="22.20632615414155" xlink:href="#id121">January</textPath></text><path d="M 100.0 79.0 l 0.0 -59.739941717422596 a80.7399417174226,80.7399417174226 0 0,0 1.38980537278333,0.011962493620761669 l -1.0283248935108016 59.73109060041039" fill="#45fff1" stroke="none" /><path d="M 100.36148047927253 79.00311137660856 l 0.6438456447596558 -37.39829968379024 a58.403841466524014,58.403841466524014 0 0,0 1.0050282242049187,0.02595691390913065 l -1.287500504159442 37.38167597773875" fill="#ffaf10" stroke="none" /><path d="M 101.08401301168833 79.027996857942 l 1.955159003575134 -37.82574593116589 a58.876241919947304,58.876241919947304 0 0,0 1.0116563098293876,0.06102587132245435 l -2.6059773622441336 37.78648679046313" fill="#ffbb11" stroke="none" /><path d="M 101.44485096284872 79.0497635885617 l 2.757593239833846 -39.984906254412195 a61.07988334127869,61.07988334127869 0 0,0 1.0482756756571687,0.08136636771578308 l -3.4454591048533563 39.93151462450795" fill="#fff016" stroke="none" /><path d="M 101.80526077348638 79.07773832637324 l 3.1069088927803072 -36.007850946282225 a57.141640978761814,57.141640978761814 0 0,0 0.979230513575562,0.09298973647420782 l -3.7262645334461135 35.94903566529284" fill="#ff8f0d" stroke="none" /><path d="M 102.52436894288641 79.15227682838746 l 4.43660424815003 -36.640086801921214 a57.90771488601027,57.90771488601027 0 0,0 0.9885268044000778,0.12833915012038097 l -5.066645781057954 36.5582893286367" fill="#ffa30f" stroke="none" /><path d="M 102.88285421437855 79.19881850522331 l 5.113750232761208 -36.898170632451624 a58.250844788602855,58.250844788602855 0 0,0 0.9920147148876267,0.14619718203060222 l -5.748133928077491 36.80467896626005" fill="#ffab0f" stroke="none" /><path d="M 103.95276090670814 79.375362276772 l 6.965164236399152 -36.342696269517624 a58.00412254031196,58.00412254031196 0 0,0 0.9789814008415054,0.19637445922995284 l -7.589712046707783 36.21741785421046" fill="#ffa50f" stroke="none" /><path d="M 105.36241919743992 79.69619591428918 l 10.251215737046543 -38.814323964958994 a61.14522597948928,61.14522597948928 0 0,0 1.0153080649019575,0.27752204762205246 l -10.917821691172211 38.632115376510654" fill="#fff216" stroke="none" /><path d="M 106.0581310904928 79.89281104454417 l 11.423860857487025 -37.91626913171377 a60.599849264356735,60.599849264356735 0 0,0 0.9961883036943603,0.30952055515402327 l -12.074834533892103 37.71400844167723" fill="#ffe515" stroke="none" /><path d="M 106.40334571778207 80.00007090966166 l 12.107008281754215 -37.81449851423816 a60.70536421464718,60.70536421464718 0 0,0 0.9924378246151817,0.3271911472829786 l -12.756128928611814 37.600493642695945" fill="#ffe715" stroke="none" /><path d="M 106.74666289553966 80.11325718540242 l 12.794336041982378 -37.7131145115689 a60.82428958459746,60.82428958459746 0 0,0 0.9885916488233287,0.34490021476859295 l -13.44160969486898 37.4872934436281" fill="#ffea16" stroke="none" /><path d="M 107.08798089147638 80.2323363322302 l 12.271928059747774 -34.22516936126098 a57.358801356901495,57.358801356901495 0 0,0 0.9265294853695671,0.3412486287655915 l -12.859239870889917 34.008857464689065" fill="#ff950d" stroke="none" /><path d="M 107.4271985657038 80.35727306442388 l 12.878003170669428 -34.0584808012296 a57.41185356654474,57.41185356654474 0 0,0 0.9213695800237851,0.3574770827139646 l -13.462355915692882 33.83176101462509" fill="#ff960d" stroke="none" /><path d="M 107.76421540070413 80.48803036053334 l 13.588631020962255 -34.14909842646622 a57.75339190284803,57.75339190284803 0 0,0 0.9205234217079357,0.3755046166813008 l -14.174438312258578 33.91013292360134" fill="#ff9f0e" stroke="none" /><path d="M 108.43124777332544 80.76684994638697 l 15.735340364397123 -35.89506209633751 a60.19255566154562,60.19255566154562 0 0,0 0.9453610091600663,0.4241559281981341 l -16.35088349202397 35.61888583762285" fill="#ffdb14" stroke="none" /><path d="M 108.76106565485865 80.91482961587045 l 14.882171682277532 -32.41943314106087 a56.67209944996929,56.67209944996929 0 0,0 0.8830640834012391,0.4146104277535006 l -15.438013976978368 32.158457730667365" fill="#ff830c" stroke="none" /><path d="M 109.08828744355905 81.06846463323043 l 15.752663930159159 -32.81389548544659 a57.399150509680155,57.399150509680155 0 0,0 0.8870320756944775,0.4352627872052711 l -16.315167272864066 32.53787753810648" fill="#ff960d" stroke="none" /><path d="M 109.73455568895987 81.39251694778311 l 14.283000337490371 -27.301778859416824 a51.81219283870023,51.81219283870023 0 0,0 0.786694016040473,0.42022469842971993 l -14.750839400059155 27.05187543448535" fill="#ff0000" stroke="none" /><path d="M 110.05341064243156 81.56283822128135 l 16.776476181293813 -30.766733443260907 a56.04343076569684,56.04343076569684 0 0,0 0.842989035459182,0.46912248554817143 l -17.303589305825028 30.473395560152557" fill="#ff730a" stroke="none" /><path d="M 110.36928655335952 81.73862282372117 l 19.776175137136633 -34.82787281699673 a61.05094041357332,61.05094041357332 0 0,0 0.909377792734775,0.5267703138270141 l -20.372749662336734 34.48229834577967" fill="#fff016" stroke="none" /><line stroke="#e1ed5e" stroke-width="0.3" x1="143.23703022742887" x2="145.7803849466894" y1="26.81831364943548" y2="22.513508569990506" /><path d="M 143.74570117128098 25.957352633546492 a86.0,86.0 0 0,1 28.547481713284135,27.462654790039103" fill="none" id="id122" stroke="none" /><text fill="#e1ed5e" style="font-size:6.75px; font-family:Arial;" text-anchor="middle"><textPath startOffset="19.985693538727396" xlink:href="#id122">February</textPath></text><path d="M 110.99172775467656 82.1063720568725 l 18.592887998055662 -30.26769109013823 a56.52222695772712,56.52222695772712 0 0,0 0.8246346573864642,0.516386146803275 l -19.11114180781439 29.94316060201201" fill="#ff7f0b" stroke="none" /><path d="M 111.2981086023043 82.29822771554956 l 19.484745484574237 -30.52851939465872 a57.2166509085074,57.2166509085074 0 0,0 0.8256443761651222,0.5370220690502632 l -20.007356886523638 30.188598401448925" fill="#ff910d" stroke="none" /><path d="M 111.60114157652 82.49532879139004 l 21.77771771679777 -32.85985140272868 a60.421299105457415,60.421299105457415 0 0,0 0.8619970271358692,0.582024240593955 l -22.34011943834018 32.480115249836054" fill="#ffe115" stroke="none" /><path d="M 111.90073688211348 82.69761687909136 l 20.880123595122438 -30.35743934459402 a57.84499538483203,57.84499538483203 0 0,0 0.81552866020839,0.571329943479255 l -21.399583394914476 29.993524558350828" fill="#ffa10e" stroke="none" /><path d="M 112.19680574252982 82.90503203632743 l 22.88145354993113 -32.07050465962428 a60.396423513824686,60.396423513824686 0 0,0 0.8411055681951521,0.6110989658358876 l -23.43010443448007 31.671886458971716" fill="#ffe015" stroke="none" /><path d="M 112.48926042617603 83.11751280151076 l 23.974491629139692 -32.40776749045378 a61.311780444319275,61.311780444319275 0 0,0 0.8430482106294643,0.6349664340237738 l -24.52878599352754 31.99028446692416" fill="#fff617" stroke="none" /><path d="M 113.06298171725822 83.55741782278167 l 22.25302030397368 -28.010229437586094 a56.77387127213491,56.77387127213491 0 0,0 0.759949631663533,0.614493084517498 l -22.731873334201705 27.623030255804466" fill="#ff860c" stroke="none" /><path d="M 113.34407831869373 83.78471172551755 l 25.32292625866447 -30.771593168969186 a60.85149357876452,60.85149357876452 0 0,0 0.8030729909588216,0.6725505347851751 l -25.84885678658241 30.33114147679019" fill="#ffeb16" stroke="none" /><path d="M 113.6212207817346 84.01681056812373 l 23.510709196116395 -27.587550688788568 a57.24674330075504,57.24674330075504 0 0,0 0.7444971715577624,0.6456206107779386 l -23.982100166320922 27.178765084590957" fill="#ff920d" stroke="none" /><path d="M 114.16331599549186 84.49514656593476 l 24.84150330938874 -27.194469714332122 a57.83258706246547,57.83258706246547 0 0,0 0.7292196720899522,0.6777302119767539 l -25.305930865273538 26.762834916280728" fill="#ffa10e" stroke="none" /><path d="M 114.42810811169701 84.74124197986012 l 24.674116379784454 -26.094645831955713 a56.912985955199424,56.912985955199424 0 0,0 0.7060374522562167,0.6792074696777401 l -25.11963707565309 25.66605527551567" fill="#ff890c" stroke="none" /><path d="M 114.68862486808459 84.99185889309783 l 25.412479541352035 -25.965267835355256 a57.33165630963403,57.33165630963403 0 0,0 0.6993484696971178,0.6963452451160266 l -25.855663811216477 25.523986739589112" fill="#ff940d" stroke="none" /><path d="M 115.4437574822437 85.77008943001954 l 46.331272446731084 -42.689731709941405 a84.0,84.0 0 0,0 0.9706254375358574,1.0717888509218039 l -47.05924152488298 41.88589007175005" fill="#4dd2ff" stroke="none" /><path d="M 115.68641384162765 86.03803664274999 l 27.70410004547731 -24.65851236527157 a58.08853450054433,58.08853450054433 0 0,0 0.6583592306651631,0.7526184095507849 l -28.12445113972032 24.177978399517837" fill="#ffa70f" stroke="none" /><path d="M 115.9244219780498 86.31012108654704 l 27.963509594931764 -24.039620457023194 a57.87629618852155,57.87629618852155 0 0,0 0.6429488395932423,0.7610486295750132 l -28.373169048012123 23.554712877819075" fill="#ffa20f" stroke="none" /><path d="M 116.15771136456269 86.58626213691792 l 28.69874717730095 -23.824999899396353 a58.299446507326024,58.299446507326024 0 0,0 0.6343576875254636,0.7776475176089397 l -29.104603356902825 23.327468212179312" fill="#ffad10" stroke="none" /><path d="M 116.60985879189232 87.15038557335679 l 27.855945342717472 -21.54974112834033 a56.21853253096935,56.21853253096935 0 0,0 0.5855402699912552,0.7705023590495403 l -28.22276155293284 21.067053993409758" fill="#ff770b" stroke="none" /><line stroke="#e1ed5e" stroke-width="0.3" x1="172.23445277983987" x2="176.4835382374775" y1="55.19839476539836" y2="52.563006222186495" /><path d="M 173.08426987136738 54.67131705675599 a86.0,86.0 0 0,1 12.851231095245387,41.99856678651699" fill="none" id="id123" stroke="none" /><text fill="#e1ed5e" style="font-size:6.75px; font-family:Arial;" text-anchor="middle"><textPath startOffset="22.20632615414155" xlink:href="#id123">March</textPath></text><line stroke="#e1ed5e" stroke-width="0.3" x1="184.98032266829074" x2="189.97916517819016" y1="98.17113171792111" y2="98.06355123074" /><path d="M 185.9800911702706 98.14961562048488 a86.0,86.0 0 0,1 -9.607161424134198,41.387399972396054" fill="none" id="id124" stroke="none" /><text fill="#e1ed5e" style="font-size:6.75px; font-family:Arial;" text-anchor="middle"><textPath startOffset="21.466115282336823" xlink:href="#id124">April</textPath></text><line stroke="#e1ed5e" stroke-width="0.3" x1="174.80103733775053" x2="179.2010983576182" y1="140.37084112569926" y2="142.7455964860345" /><path d="M 175.68104954172406 140.8457921977663 a86.0,86.0 0 0,1 -30.038265399797805,32.042727171017184" fill="none" id="id125" stroke="none" /><text fill="#e1ed5e" style="font-size:6.75px; font-family:Arial;" text-anchor="middle"><textPath startOffset="22.206326154141568" xlink:href="#id125">May</textPath></text><line stroke="#e1ed5e" stroke-width="0.3" x1="143.8653032363475" x2="146.44561519142675" y1="172.8068346515853" y2="177.08958963109032" /><path d="M 144.38136562736335 173.6633856474863 a86.0,86.0 0 0,1 -40.68145358897372,12.25698825130547" fill="none" id="id126" stroke="none" /><text fill="#e1ed5e" style="font-size:6.75px; font-family:Arial;" text-anchor="middle"><textPath startOffset="21.466115282336833" xlink:href="#id126">June</textPath></text><line stroke="#e1ed5e" stroke-width="0.3" x1="102.19456741930631" x2="102.32365962044197" y1="184.97166512339345" y2="189.96999836594603" /><path d="M 102.22038585953345 185.97133177190398 a86.0,86.0 0 0,1 -42.740103519485714,-10.115201625700543" fill="none" id="id127" stroke="none" /><text fill="#e1ed5e" style="font-size:6.75px; font-family:Arial;" text-anchor="middle"><textPath startOffset="22.20632615414155" xlink:href="#id127">July</textPath></text><line stroke="#e1ed5e" stroke-width="0.3" x1="58.666819895761336" x2="56.23545636021788" y1="174.27360380694188" y2="178.64263932499728" /><path d="M 58.180547188652646 175.14741091055294 a86.0,86.0 0 0,1 -31.652253787137756,-30.449443065178592" fill="none" id="id128" stroke="none" /><text fill="#e1ed5e" style="font-size:6.75px; font-family:Arial;" text-anchor="middle"><textPath startOffset="22.20632615414155" xlink:href="#id128">August</textPath></text><line stroke="#e1ed5e" stroke-width="0.3" x1="26.63291911575756" x2="22.317208475507996" y1="142.92168965132927" y2="145.44649492493687" /><path d="M 25.769776987707644 143.4266507060508 a86.0,86.0 0 0,1 -11.730757126820373,-40.83630448921669" fill="none" id="id129" stroke="none" /><text fill="#e1ed5e" style="font-size:6.75px; font-family:Arial;" text-anchor="middle"><textPath startOffset="21.46611528233685" xlink:href="#id129">September</textPath></text><line stroke="#e1ed5e" stroke-width="0.3" x1="15.007084014347285" x2="10.007500721073583" y1="101.09737516637583" y2="101.16192664675087" /><path d="M 14.007167355692545 101.11028546245083 a86.0,86.0 0 0,1 10.666146001902534,-42.60595125391555" fill="none" id="id130" stroke="none" /><text fill="#e1ed5e" style="font-size:6.75px; font-family:Arial;" text-anchor="middle"><textPath startOffset="22.20632615414155" xlink:href="#id130">October</textPath></text><line stroke="#e1ed5e" stroke-width="0.3" x1="26.266209847984243" x2="21.928928074336255" y1="57.711370442889674" y2="55.22380399835377" /><path d="M 25.398753493254645 57.213857153982495 a86.0,86.0 0 0,1 29.58750427330803,-30.492523968695096" fill="none" id="id131" stroke="none" /><text fill="#e1ed5e" style="font-size:6.75px; font-family:Arial;" text-anchor="middle"><textPath startOffset="21.46611528233685" xlink:href="#id131">November</textPath></text><line stroke="#e1ed5e" stroke-width="0.3" x1="56.762969772571076" x2="54.21961505331055" y1="26.818313649435495" y2="22.513508569990535" /><path d="M 56.25429882871897 25.957352633546506 a86.0,86.0 0 0,1 42.265352541879196,-11.944610805530505" fill="none" id="id132" stroke="none" /><text fill="#e1ed5e" style="font-size:6.75px; font-family:Arial;" text-anchor="middle"><textPath startOffset="22.20632615414155" xlink:href="#id132">December</textPath></text></svg>