<?xml version="1.0" encoding="utf-8" ?>
<svg baseProfile="full" height="200mm" version="1.1" viewBox="0,0,200,200" width="200mm" xmlns="http://www.w3.org/2000/svg" xmlns:ev="http://www.w3.org/2001/xml-events" xmlns:xlink="http://www.w3.org/1999/xlink"><defs /><rect fill="#1a1a1a" height="200" width="200" x="0" y="0" /><rect fill="#1a1a1a" height="200" width="180" x="10" y="0" /><text alignment-baseline="middle" fill="#e1ed5e" style="dominant-baseline: central; font-size:9.0px; font-family:Arial;" text-anchor="middle" x="100.0" y="100.0">2026</text><line stroke="#e1ed5e" stroke-width="0.3" x1="100.0" x2="100.0" y1="15.0" y2="10.0" /><path d="M 100.0 14.0 a86.0,86.0 0 0,1 42.46469731375804,11.215312516191453" fill="none" id="id121" stroke="none" /><text fill="#e1ed5e" style="font-size:6.75px; font-family:Arial;" text-anchor="middle"><textPath startOffset="22.20632615414155" xlink:href="#id121">January</textPath></text><path d="M 100.0 79.0 l 0.0 -48.60834420432877 a69.60834420432877,69.60834420432877 0 0,0 1.1981932202070422,0.010313227329422041 l -0.8367127409345139 48.60114235360791" fill="#30ff34" stroke="none" /><path d="M 100.36148047927253 79.00311137660856 l 0.5238751464300153 -30.429715386818863 a51.43422454559747,51.43422454559747 0 0,0 0.8850932757231086,0.022859348032409948 l -1.0475950573479917 30.416189246644095" fill="#ff7b0b" stroke="none" /><path d="M 101.08401301168833 79.027996857942 l 1.5908459079104846 -30.777513756284364 a51.81860061263309,51.81860061263309 0 0,0 0.8903865560505216,0.053710548601180685 l -2.1203945128006185 30.74556993830288" fill="#ff840c" stroke="none" /><path d="M 101.44485096284872 79.0497635885617 l 2.243759158845675 -32.53434855001631 a53.61162815219216,53.61162815219216 0 0,0 0.9201027023956264,0.07141767815271952 l -2.8034520506036427 32.490905609675124" fill="#ffaa0f" stroke="none" /><path d="M 101.80526077348638 79.07773832637324 l 2.527985339960771 -29.298354878451427 a50.40721524494856,50.40721524494856 0 0,0 0.8638233419052651,0.08203043492868213 l -3.03193380895628 29.250498899007567" fill="#ff6409" stroke="none" /><path d="M 102.52436894288641 79.15227682838746 l 3.6099129023684653 -29.812783537163284 a51.03054334167866,51.03054334167866 0 0,0 0.8711284849635142,0.11309747890318685 l -4.122556115839825 29.74622773509596" fill="#ff720a" stroke="none" /><path d="M 102.88285421437855 79.19881850522331 l 4.160883394643986 -30.022777509493107 a51.309736389621555,51.309736389621555 0 0,0 0.8738073018551076,0.12877648209427175 l -4.677059676927749 29.946706543237866" fill="#ff780b" stroke="none" /><path d="M 103.95276090670814 79.375362276772 l 5.667315549854838 -29.57080704795679 a51.10898694757294,51.10898694757294 0 0,0 0.8626067501107667,0.17303079908923963 l -6.175488709432731 29.468872292790344" fill="#ff740a" stroke="none" /><path d="M 105.36241919743992 79.69619591428918 l 8.341063093368692 -31.581885838981595 a53.66479521861454,53.66479521861454 0 0,0 0.8910965412908667,0.24357034610165382 l -8.883457523883271 31.433628952053645" fill="#ffab0f" stroke="none" /><path d="M 106.0581310904928 79.89281104454417 l 9.295204259316195 -30.851169383729108 a53.22104086720282,53.22104086720282 0 0,0 0.8748896089009073,0.27183246022990637 l -9.824879240927821 30.68659678861668" fill="#ffa20f" stroke="none" /><path d="M 106.40334571778207 80.00007090966166 l 9.851057917462565 -30.76836211840667 a53.30689476787586,53.30689476787586 0 0,0 0.8714844127013135,0.2873147090514607 l -10.379225152406296 30.594233685095976" fill="#ffa40f" stroke="none" /><path d="M 106.74666289553966 80.11325718540242 l 10.410312971784407 -30.6858694283088 a53.40366026765679,53.40366026765679 0 0,0 0.8679823951543998,0.3028220143882787 l -10.936977371002081 30.502126560748312" fill="#ffa60f" stroke="none" /><path d="M 107.08798089147638 80.2323363322302 l 9.985247491545701 -27.84784793786364 a50.58391120588682,50.58391120588682 0 0,0 0.8170931767898779,0.300942312744692 l -10.463122994108154 27.671842357312624" fill="#ff6809" stroke="none" /><path d="M 107.4271985657038 80.35727306442388 l 10.478390048408368 -27.712219166425342 a50.62707797158835,50.62707797158835 0 0,0 0.8124846468237992,0.3152314202613025 l -10.953857860231833 27.527745042273494" fill="#ff6909" stroke="none" /><path d="M 107.76421540070413 80.48803036053334 l 11.056603587879264 -27.785951624004827 a50.904976016560205,50.904976016560205 0 0,0 0.811367456712332,0.33097715781653714 l -11.533254914179984 27.591513580004708" fill="#ff6f0a" stroke="none" /><path d="M 108.43124777332544 80.76684994638697 l 12.803307445842668 -29.206582454794646 a52.88964001429757,52.88964001429757 0 0,0 0.8306642392652493,0.3726948308769237 l -13.304153803574698 28.98186729340119" fill="#ff9b0e" stroke="none" /><path d="M 108.76106565485865 80.91482961587045 l 12.109113314201455 -26.37858223035941 a50.02516538695351,50.02516538695351 0 0,0 0.7794916237120175,0.36598176917434894 l -12.561383149213071 26.166235478545058" fill="#ff5c08" stroke="none" /><path d="M 109.08828744355905 81.06846463323043 l 12.81740303789045 -26.69954272781425 a50.61674192935648,50.61674192935648 0 0,0 0.7822184345901909,0.38383118871604327 l -13.275092739491074 26.474956378963373" fill="#ff6909" stroke="none" /><path d="M 109.73455568895987 81.39251694778311 l 11.621588115356296 -22.214522244871315 a46.070825851791824,46.070825851791824 0 0,0 0.6995195730178744,0.3736591300091949 l -12.002252734902482 22.011184388360366" fill="#ff0000" stroke="none" /><path d="M 110.05341064243156 81.56283822128135 l 13.650443996302503 -25.03383709891878 a49.51363921339038,49.51363921339038 0 0,0 0.7447698042803947,0.4144635897368816 l -14.079337889654933 24.79515811162172" fill="#ff5007" stroke="none" /><path d="M 110.36928655335952 81.73862282372117 l 16.091196283016725 -28.338247094396426 a53.588078283348324,53.588078283348324 0 0,0 0.7982155232350064,0.462377952304728 l -16.57660853871706 28.057064984701647" fill="#ffaa0f" stroke="none" /><line stroke="#e1ed5e" stroke-width="0.3" x1="143.23703022742887" x2="145.7803849466894" y1="26.81831364943548" y2="22.513508569990506" /><path d="M 143.74570117128098 25.957352633546492 a86.0,86.0 0 0,1 28.547481713284135,27.462654790039103" fill="none" id="id122" stroke="none" /><text fill="#e1ed5e" style="font-size:6.75px; font-family:Arial;" text-anchor="middle"><textPath startOffset="19.985693538727396" xlink:href="#id122">February</textPath></text><path d="M 110.99172775467656 82.1063720568725 l 15.128396071040143 -24.62778343070687 a49.90321927384669,49.90321927384669 0 0,0 0.7280662200225695,0.4559150001852096 l -15.550081443434975 24.363724089198715" fill="#ff5908" stroke="none" /><path d="M 111.2981086023043 82.29822771554956 l 15.854069957549127 -24.84001048751141 a50.46824825534322,50.46824825534322 0 0,0 0.7282639701082843,0.47368314413867485 l -16.27930095344169 24.563428419213206" fill="#ff6609" stroke="none" /><path d="M 111.60114157652 82.49532879139004 l 17.71978291793496 -26.73693548350257 a53.07576071908067,53.07576071908067 0 0,0 0.7572023215351541,0.5112663875788662 l -18.177389933876658 26.427957183625033" fill="#ff9f0e" stroke="none" /><path d="M 111.90073688211348 82.69761687909136 l 16.98944132790538 -24.700808511061986 a50.979510632004846,50.979510632004846 0 0,0 0.7187355055905155,0.5035201530264239 l -17.412107973079546 24.404703515271624" fill="#ff710a" stroke="none" /><path d="M 112.19680574252982 82.90503203632743 l 18.617854957264576 -26.09467107743947 a53.05552030227395,53.05552030227395 0 0,0 0.7388731145565081,0.5368227405250767 l -19.064273388174872 25.77032910209772" fill="#ff9e0e" stroke="none" /><path d="M 112.48926042617603 83.11751280151076 l 19.507222600673458 -26.369090290063266 a53.80031488138085,53.80031488138085 0 0,0 0.7397641833813727,0.5571750460029534 l -19.95823293781321 26.029398654554466" fill="#ffae10" stroke="none" /><path d="M 113.06298171725822 83.55741782278167 l 18.1065203517935 -22.790964212596972 a50.107973632490946,50.107973632490946 0 0,0 0.6707229091863474,0.5423446135769026 l -18.496146659544337 22.47591350175594" fill="#ff5e08" stroke="none" /><path d="M 113.34407831869373 83.78471172551755 l 20.604397668553734 -25.037791291259378 a53.42579522584707,53.42579522584707 0 0,0 0.7050741180385278,0.5904792970111388 l -21.03232932355138 24.67941083685442" fill="#ffa60f" stroke="none" /><path d="M 113.6212207817346 84.01681056812373 l 19.129858721629986 -22.44704499341546 a50.492733404110595,50.492733404110595 0 0,0 0.6566608864732516,0.5694498499057771 l -19.513413406750004 22.114430150090012" fill="#ff6609" stroke="none" /><path d="M 114.16331599549186 84.49514656593476 l 20.212680305705472 -22.12720846935371 a50.96941440513799,50.96941440513799 0 0,0 0.6426809096225671,0.5973018635983626 l -20.590569099122884 21.776002019680707" fill="#ff710a" stroke="none" /><path d="M 114.42810811169701 84.74124197986012 l 20.076483294868112 -21.232319450352502 a50.22116648477496,50.22116648477496 0 0,0 0.623021685457824,0.5993463677909923 l -20.438988223938356 20.88358999579921" fill="#ff6008" stroke="none" /><path d="M 114.68862486808459 84.99185889309783 l 20.677264107059738 -21.127049006317446 a50.56182421076954,50.56182421076954 0 0,0 0.6167680590967751,0.6141194610427698 l -21.037867966323837 20.767993694624558" fill="#ff6809" stroke="none" /><path d="M 115.4437574822437 85.77008943001954 l 37.69816932811701 -34.73517237031558 a72.26094195668782,72.26094195668782 0 0,0 0.8349798619459917,0.9220056184081619 l -38.290492830679035 34.08111396463787" fill="#35ff67" stroke="none" /><path d="M 115.68641384162765 86.03803664274999 l 22.541877212594994 -20.06378684276912 a51.17767006811137,51.17767006811137 0 0,0 0.5800334228256631,0.6630784712052918 l -22.883902498998506 19.672792815360882" fill="#ff760a" stroke="none" /><path d="M 115.9244219780498 86.31012108654704 l 22.75294987700127 -19.560215696956686 a51.004979023768755,51.004979023768755 0 0,0 0.5666152507408317,0.67069373722709 l -23.086275741229223 19.165663010100488" fill="#ff720a" stroke="none" /><path d="M 116.15771136456269 86.58626213691792 l 23.3511875124648 -19.38558630096904 a51.34928194331145,51.34928194331145 0 0,0 0.558732778801919,0.6849403215037352 l -23.68141878334313 18.980761809857203" fill="#ff790b" stroke="none" /><path d="M 116.60985879189232 87.15038557335679 l 22.665428529550933 -17.5342861771667 a49.65611352174193,49.65611352174193 0 0,0 0.517189844865128,0.680561211530333 l -22.963894314640175 17.141540189755332" fill="#ff5307" stroke="none" /><path d="M 117.04232023915458 87.72973835380427 l 23.793697880280835 -17.13117078100756 a50.31922698752694,50.31922698752694 0 0,0 0.5000470311200358,0.7072810633574861 l -24.085057531204754 16.719063217318283" fill="#ff6209" stroke="none" /><path d="M 117.65298651832404 88.62581576622439 l 31.17570447557881 -20.08715102993471 a58.08663082632381,58.08663082632381 0 0,0 0.5343206715568924,0.8451669850161783 l -31.51685274338166 19.547536397204322" fill="#f8ff18" stroke="none" /><line stroke="#e1ed5e" stroke-width="0.3" x1="172.23445277983987" x2="176.4835382374775" y1="55.19839476539836" y2="52.563006222186495" /><path d="M 173.08426987136738 54.67131705675599 a86.0,86.0 0 0,1 12.851231095245387,41.99856678651699" fill="none" id="id123" stroke="none" /><text fill="#e1ed5e" style="font-size:6.75px; font-family:Arial;" text-anchor="middle"><textPath startOffset="22.20632615414155" xlink:href="#id123">March</textPath></text><path d="M 117.84615892207809 88.93136811851018 l 29.6037285508165 -18.360969163126907 a55.835412050379496,55.835412050379496 0 0,0 0.4995519914497764,0.8211321255913742 l -29.915396340552498 17.84866926432845" fill="#ffd914" stroke="none" /><path d="M 118.03404312379186 89.2402003453031 l 25.792258035633886 -15.388647304471743 a51.03416455369029,51.03416455369029 0 0,0 0.4436091909888338,0.7582719054319261 l -26.053326901093047 14.942395986685922" fill="#ff720a" stroke="none" /><path d="M 118.3937258080291 89.86733742301442 l 32.48502760011318 -17.895222909777647 a58.087949810831354,58.087949810831354 0 0,0 0.4749157388344787,0.8799467368597695 l -32.78825143816612 17.333395189585417" fill="#f8ff18" stroke="none" /><path d="M 118.56541770881063 90.18545643968196 l 29.798465700010127 -15.75285534807008 a54.706097515017966,54.706097515017966 0 0,0 0.4329351121723231,0.8362928362383968 l -30.065210245342566 15.237589789571338" fill="#ffc112" stroke="none" /><path d="M 118.73160827565052 90.50648371742162 l 32.47354674054651 -16.45817808047998 a57.40608278350268,57.40608278350268 0 0,0 0.4391291616541644,0.8852575938701361 l -32.75203591515408 15.896760898110893" fill="#fff917" stroke="none" /><path d="M 119.04729006885535 91.15688171328212 l 35.28829216666283 -16.383356405975736 a59.906014074497314,59.906014074497314 0 0,0 0.4261818906043345,0.9390353033962924 l -35.56507637423051 15.773499093737382" fill="#d5ff1c" stroke="none" /><path d="M 119.34039704204932 91.81776055985345 l 31.134028290808438 -13.17170860855802 a54.80564487303299,54.80564487303299 0 0,0 0.3600947823188198,0.8719980778469464 l -31.356144760013457 12.633835960257771" fill="#ffc312" stroke="none" /><path d="M 119.47837535516314 92.15188598940014 l 34.036865324402726 -13.713936340103356 a57.695779744432954,57.695779744432954 0 0,0 0.3632263917532749,0.9243715480156245 l -34.2678852660377 13.126015787191946" fill="#fffe18" stroke="none" /><path d="M 119.61058180528143 92.48833698450437 l 31.958147457716432 -12.241290782980892 a55.22239601434476,55.22239601434476 0 0,0 0.3323741651504436,0.8905975165648635 l -32.1641262113685 11.689370129386695" fill="#ffcc13" stroke="none" /><path d="M 119.97218684219823 93.5106431181261 l 59.91656052659467 -19.46807064562169 a84.0,84.0 0 0,0 0.4349780649271753,1.3789993342943234 l -60.24279407529006 18.433821144900946" fill="#4dd2ff" stroke="none" /><path d="M 120.08093135843002 93.85539295169968 l 30.190273240768313 -9.237986148857631 a52.572028544880304,52.572028544880304 0 0,0 0.25733783387090237,0.8676152463227668 l -30.344816971750916 8.716941515788335" fill="#ff940d" stroke="none" /><path d="M 120.28053869075195 94.5502522615342 l 31.302263299295614 -8.411484587536474 a53.41272528845411,53.41272528845411 0 0,0 0.23095578004740372,0.8899668333146382 l -31.442415411213318 7.8714213286729855" fill="#ffa60f" stroke="none" /><path d="M 120.37134235888165 94.90015583598534 l 30.924590419064785 -7.741786927676418 a52.87892026748169,52.87892026748169 0 0,0 0.21344752363361066,0.8848777864713244 l -31.053270742959214 7.208323909545687" fill="#ff9b0e" stroke="none" /><path d="M 120.45610955862082 95.25157060432595 l 32.02518125092975 -7.433931247675476 a53.87667209359956,53.87667209359956 0 0,0 0.20192364301985563,0.9051840984104846 l -32.14839928095164 6.881568979715027" fill="#ffb010" stroke="none" /><path d="M 120.6074358757038 95.95851677861258 l 33.0223087324065 -6.476259709285084 a54.65137164872303,54.65137164872303 0 0,0 0.17309982964514534,0.9247062115967741 l -33.12889428596151 5.906875420225747" fill="#ffc011" stroke="none" /><path d="M 120.67395015179393 96.31383870115 l 29.173527840073785 -5.201634350737341 a50.633624931053085,50.633624931053085 0 0,0 0.14560335019378676,0.8593592149768011 l -29.258743051787796 4.698689347444701" fill="#ff6909" stroke="none" /><path d="M 120.73433829027371 96.67025291283417 l 31.980334060107506 -5.135752233442866 a53.390086717997306,53.390086717997306 0 0,0 0.13790940729600312,0.9086506848798068 l -32.06399936084281 4.584502436170976" fill="#ffa60f" stroke="none" /><path d="M 120.78858239683441 97.02765380044208 l 29.036471599279235 -4.151627290364504 a50.33176933111688,50.33176933111688 0 0,0 0.11524537352086646,0.8587118934653065 l -29.103632971857937 3.6511970548345336" fill="#ff6309" stroke="none" /><path d="M 120.87857604477298 97.74499172005257 l 32.7754385022977 -3.5399389806611072 a53.966051280138224,53.966051280138224 0 0,0 0.09180106987175143,0.9244242455583319 l -32.83151669785169 2.97523920439834" fill="#ffb210" stroke="none" /><path d="M 120.96714384426684 98.82574320788733 l 30.18727387272089 -1.6906266129375755 a51.23457825422789,51.23457825422789 0 0,0 0.04173517940992403,0.8809636744979271 l -30.21190266036431 1.1707518318166488" fill="#ff770a" stroke="none" /><path d="M 120.98425023603335 99.18683210126433 l 31.69131642131835 -1.2280811033333343 a52.71510239164437,52.71510239164437 0 0,0 0.02733229245915141,0.9070257226499495 l -31.70776040823315 0.6823852332583857" fill="#ff970d" stroke="none" /><line stroke="#e1ed5e" stroke-width="0.3" x1="184.98032266829074" x2="189.97916517819016" y1="98.17113171792111" y2="98.06355123074" /><path d="M 185.9800911702706 98.14961562048488 a86.0,86.0 0 0,1 -9.607161424134198,41.387399972396054" fill="none" id="id124" stroke="none" /><text fill="#e1ed5e" style="font-size:6.75px; font-family:Arial;" text-anchor="middle"><textPath startOffset="21.466115282336823" xlink:href="#id124">April</textPath></text><path d="M 120.99513854157772 99.54816195383933 l 33.034567432332736 -0.7109395527364013 a54.04221664006493,54.04221664006493 0 0,0 0.012010220971526535,0.9302048499726189 l -33.041910660421976 0.14219844470331972" fill="#ffb310" stroke="none" /><path d="M 120.99980553446 99.90962569577887 l 30.34914478884077 -0.13060991633932054 a51.34942583253046,51.34942583253046 0 0,0 -0.0038040209976253152,0.8839205113401251 l -30.34689647055364 -0.39182007320448925" fill="#ff790b" stroke="none" /><path d="M 120.9904718944345 100.63252640178507 l 31.340481624610746 0.9444133591623675 a52.3547078611096,52.3547078611096 0 0,0 -0.03489782120256571,0.9005577002555935 l -31.31958167055698 -1.4837483064319672" fill="#ff8f0d" stroke="none" /><path d="M 120.9764740272857 100.99374915477107 l 29.62974735940361 1.4036933164356766 a50.66297833173013,50.66297833173013 0 0,0 -0.048765888904299955,0.8707477054574759 l -29.601195119611777 -1.913512738228576" fill="#ff6a09" stroke="none" /><path d="M 120.92983693683757 101.71520430193887 l 29.582992536324944 2.424332125264843 a50.6821635609308,50.6821635609308 0 0,0 -0.07873933560603183,0.8688820071695497 l -29.536878604441835 -2.933195520982963" fill="#ff6b09" stroke="none" /><line stroke="#e1ed5e" stroke-width="0.3" x1="174.80103733775053" x2="179.2010983576182" y1="140.37084112569926" y2="142.7455964860345" /><path d="M 175.68104954172406 140.8457921977663 a86.0,86.0 0 0,1 -30.038265399797805,32.042727171017184" fill="none" id="id125" stroke="none" /><text fill="#e1ed5e" style="font-size:6.75px; font-family:Arial;" text-anchor="middle"><textPath startOffset="22.206326154141568" xlink:href="#id125">May</textPath></text><line stroke="#e1ed5e" stroke-width="0.3" x1="143.8653032363475" x2="146.44561519142675" y1="172.8068346515853" y2="177.08958963109032" /><path d="M 144.38136562736335 173.6633856474863 a86.0,86.0 0 0,1 -40.68145358897372,12.25698825130547" fill="none" id="id126" stroke="none" /><text fill="#e1ed5e" style="font-size:6.75px; font-family:Arial;" text-anchor="middle"><textPath startOffset="21.466115282336833" xlink:href="#id126">June</textPath></text><line stroke="#e1ed5e" stroke-width="0.3" x1="102.19456741930631" x2="102.32365962044197" y1="184.97166512339345" y2="189.96999836594603" /><path d="M 102.22038585953345 185.97133177190398 a86.0,86.0 0 0,1 -42.740103519485714,-10.115201625700543" fill="none" id="id127" stroke="none" /><text fill="#e1ed5e" style="font-size:6.75px; font-family:Arial;" text-anchor="middle"><textPath startOffset="22.20632615414155" xlink:href="#id127">July</textPath></text><line stroke="#e1ed5e" stroke-width="0.3" x1="58.666819895761336" x2="56.23545636021788" y1="174.27360380694188" y2="178.64263932499728" /><path d="M 58.180547188652646 175.14741091055294 a86.0,86.0 0 0,1 -31.652253787137756,-30.449443065178592" fill="none" id="id128" stroke="none" /><text fill="#e1ed5e" style="font-size:6.75px; font-family:Arial;" text-anchor="middle"><textPath startOffset="22.20632615414155" xlink:href="#id128">August</textPath></text><line stroke="#e1ed5e" stroke-width="0.3" x1="26.63291911575756" x2="22.317208475507996" y1="142.92168965132927" y2="145.44649492493687" /><path d="M 25.769776987707644 143.4266507060508 a86.0,86.0 0 0,1 -11.730757126820373,-40.83630448921669" fill="none" id="id129" stroke="none" /><text fill="#e1ed5e" style="font-size:6.75px; font-family:Arial;" text-anchor="middle"><textPath startOffset="21.46611528233685" xlink:href="#id129">September</textPath></text><line stroke="#e1ed5e" stroke-width="0.3" x1="15.007084014347285" x2="10.007500721073583" y1="101.09737516637583" y2="101.16192664675087" /><path d="M 14.007167355692545 101.11028546245083 a86.0,86.0 0 0,1 10.666146001902534,-42.60595125391555" fill="none" id="id130" stroke="none" /><text fill="#e1ed5e" style="font-size:6.75px; font-family:Arial;" text-anchor="middle"><textPath startOffset="22.20632615414155" xlink:href="#id130">October</textPath></text><line stroke="#e1ed5e" stroke-width="0.3" x1="26.266209847984243" x2="21.928928074336255" y1="57.711370442889674" y2="55.22380399835377" /><path d="M 25.398753493254645 57.213857153982495 a86.0,86.0 0 0,1 29.58750427330803,-30.492523968695096" fill="none" id="id131" stroke="none" /><text fill="#e1ed5e" style="font-size:6.75px; font-family:Arial;" text-anchor="middle"><textPath startOffset="21.46611528233685" xlink:href="#id131">November</textPath></text><line stroke="#e1ed5e" stroke-width="0.3" x1="56.762969772571076" x2="54.21961505331055" y1="26.818313649435495" y2="22.513508569990535" /><path d="M 56.25429882871897 25.957352633546506 a86.0,86.0 0 0,1 42.265352541879196,-11.944610805530505" fill="none" id="id132" stroke="none" /><text fill="#e1ed5e" style="font-size:6.75px; font-family:Arial;" text-anchor="middle"><textPath startOffset="22.20632615414155" xlink:href="#id132">December</textPath></text></svg>