<?xml version="1.0" encoding="utf-8" ?>
<svg baseProfile="full" height="200mm" version="1.1" viewBox="0,0,200,200" width="200mm" xmlns="http://www.w3.org/2000/svg" xmlns:ev="http://www.w3.org/2001/xml-events" xmlns:xlink="http://www.w3.org/1999/xlink"><defs /><rect fill="#1a1a1a" height="200" width="200" x="0" y="0" /><text alignment-baseline="middle" fill="#e1ed5e" style="dominant-baseline: central; font-size:9.0px; font-family:Arial;" text-anchor="middle" x="100.0" y="100.0">2018</text><line stroke="#e1ed5e" stroke-width="0.3" x1="100.0" x2="100.0" y1="15.0" y2="10.0" /><path d="M 100.0 14.0 a86.0,86.0 0 0,1 42.46469731375804,11.215312516191453" fill="none" id="id25" stroke="none" /><text fill="#e1ed5e" style="font-size:6.75px; font-family:Arial;" text-anchor="middle"><textPath startOffset="22.20632615414155" xlink:href="#id25">January</textPath></text><path d="M 100.36148047927253 79.00311137660856 l 0.5090047277987424 -29.565954985669666 a50.570336150060356,50.570336150060356 0 0,0 0.870227263517806,0.022475402796155123 l -1.0178586265114162 29.55281279073115" fill="#95ff23" stroke="none" /><path d="M 100.72285384407766 79.0124445844662 l 1.0761755937075042 -31.246005115461003 a52.26453245426688,52.26453245426688 0 0,0 0.8988483350830377,0.03870630008637412 l -1.6138647611798735 31.222851088850433" fill="#82ff25" stroke="none" /><path d="M 101.08401301168833 79.027996857942 l 1.0581508106457045 -20.4716566003853 a41.4989855139753,41.4989855139753 0 0,0 0.7130670908617843,0.043014154222541116 l -1.4103799503471006 20.450409176782454" fill="#feff18" stroke="none" /><path d="M 101.44485096284872 79.0497635885617 l 1.1678116247567638 -16.933185672273225 a37.97340746587427,37.97340746587427 0 0,0 0.6517137425734478,0.05058552941278269 l -1.4591155566925527 16.91057488067198" fill="#ffd413" stroke="none" /><path d="M 101.80526077348638 79.07773832637324 l 2.676069855899817 -31.01459612059929 a52.129833317856814,52.129833317856814 0 0,0 0.8933436733366893,0.0848337461024894 l -3.20953865632675 30.963936829981623" fill="#84ff25" stroke="none" /><path d="M 102.16513564639614 79.11191278185805 l 1.8316396158028005 -17.67069334005735 a38.76536818646114,38.76536818646114 0 0,0 0.6631338572991266,0.07451081548607658 l -2.1355401766116526 17.636546571100677" fill="#ffde14" stroke="none" /><path d="M 102.52436894288641 79.15227682838746 l 1.7800914955320912 -14.701042343106003 a35.808422323335506,35.808422323335506 0 0,0 0.6112758094422206,0.07936114379879973 l -2.032882033482158 14.668222876143068" fill="#ffb811" stroke="none" /><path d="M 102.88285421437855 79.19881850522331 l 2.048783374399056 -14.78295870869852 a35.924254805460116,35.924254805460116 0 0,0 0.6117918034960697,0.09016220860259835 l -2.3029441583237813 14.745502015934951" fill="#ffba11" stroke="none" /><path d="M 105.36241919743992 79.69619591428918 l 3.877770028747654 -14.682455819702007 a36.18590166217847,36.18590166217847 0 0,0 0.600861918568803,0.16423826003532388 l -4.129929836540168 14.613531018840389" fill="#ffbd11" stroke="none" /><path d="M 106.40334571778207 80.00007090966166 l 4.521913240029248 -14.12354543064904 a35.82977528089887,35.82977528089887 0 0,0 0.5857608251965045,0.19311613450825818 l -4.764356887468169 14.043615571881546" fill="#ffb911" stroke="none" /><path d="M 108.09893153111575 80.62456947434976 l 12.002196879768718 -28.713384093407438 a52.12091187668307,52.12091187668307 0 0,0 0.8247916940667355,0.35313275927734517 l -12.494672331625768 28.5025318061673" fill="#84ff25" stroke="none" /><path d="M 108.43124777332544 80.76684994638697 l 6.145400195891166 -14.01873213606903 a36.306560497724945,36.306560497724945 0 0,0 0.5702168032913011,0.2558396582159476 l -6.385799117649247 13.910872147336551" fill="#ffbf11" stroke="none" /><path d="M 110.36928655335952 81.73862282372117 l 7.571509764279266 -13.334205288654614 a36.33390983378215,36.33390983378215 0 0,0 0.5412078913484379,0.31350254322124393 l -7.799914388093033 13.20189858804332" fill="#ffbf11" stroke="none" /><line stroke="#e1ed5e" stroke-width="0.3" x1="143.23703022742887" x2="145.7803849466894" y1="26.81831364943548" y2="22.513508569990506" /><path d="M 143.74570117128098 25.957352633546492 a86.0,86.0 0 0,1 28.547481713284135,27.462654790039103" fill="none" id="id26" stroke="none" /><text fill="#e1ed5e" style="font-size:6.75px; font-family:Arial;" text-anchor="middle"><textPath startOffset="19.985693538727396" xlink:href="#id26">February</textPath></text><path d="M 110.68208982089419 81.91981866633111 l 7.589302936591377 -12.845424031290493 a35.91986721144025,35.91986721144025 0 0,0 0.5296263554803423,0.3190939531471675 l -7.809291358289356 12.71288346868471" fill="#ffba11" stroke="none" /><path d="M 110.99172775467656 82.1063720568725 l 8.001052046552875 -13.025054083394995 a36.286231312099545,36.286231312099545 0 0,0 0.5294003003151039,0.3315104194900412 l -8.224071499240242 12.88539932258201" fill="#ffbe11" stroke="none" /><path d="M 111.2981086023043 82.29822771554956 l 16.891847388918737 -26.465990589021498 a52.397184046801,52.397184046801 0 0,0 0.7560987867728846,0.4917876831731282 l -17.3449132014759 26.17130398168884" fill="#81ff25" stroke="none" /><path d="M 111.60114157652 82.49532879139004 l 8.492565651809628 -12.814219055247083 a36.37295942055901,36.37295942055901 0 0,0 0.5189127568067062,0.35037220977252165 l -8.711883103022874 12.66613493317589" fill="#ffc011" stroke="none" /><path d="M 111.90073688211348 82.69761687909136 l 8.800483862566328 -12.794950846140775 a36.529304020800446,36.529304020800446 0 0,0 0.5150090196781307,0.3607967303427773 l -9.019424021828108 12.641569273034062" fill="#ffc212" stroke="none" /><path d="M 112.48926042617603 83.11751280151076 l 9.259437246319134 -12.516540246735826 a36.56923112638128,36.56923112638128 0 0,0 0.5028336258019646,0.37872386211972975 l -9.473517025879481 12.355299795110248" fill="#ffc212" stroke="none" /><path d="M 112.77801427241765 83.33499621200491 l 9.557881109338382 -12.46532688855685 a36.70787909740923,36.70787909740923 0 0,0 0.4981214529478698,0.38879169509737643 l -9.771035117445681 12.29895680423625" fill="#ffc412" stroke="none" /><path d="M 114.42810811169701 84.74124197986012 l 13.230175883507659 -13.99185886378761 a40.25641888754759,40.25641888754759 0 0,0 0.4994034129696991,0.48042568760004495 l -13.469062540089777 13.762050089425262" fill="#fff116" stroke="none" /><path d="M 114.94478906791727 85.2469230424477 l 23.153043422032194 -22.85603562917292 a53.5340096573498,53.5340096573498 0 0,0 0.6417344446675154,0.6613637552801187 l -23.543042130402817 22.454107678342684" fill="#74ff27" stroke="none" /><path d="M 115.4437574822437 85.77008943001954 l 14.201832142878567 -13.085597954732709 a40.311263812795985,40.311263812795985 0 0,0 0.4657992628085533,0.5143471800133608 l -14.424975046303157 12.839197987449799" fill="#fff116" stroke="none" /><path d="M 115.68641384162765 86.03803664274999 l 18.792779706453462 -16.726837905173447 a46.158610363079205,46.158610363079205 0 0,0 0.5231488015406051,0.5980495155753931 l -19.077920371571917 16.400872833395105" fill="#c6ff1e" stroke="none" /><path d="M 115.9244219780498 86.31012108654704 l 14.599925296302278 -12.551237949317038 a40.253347571733684,40.253347571733684 0 0,0 0.4471751790523615,0.5293143656858663 l -14.813811088841756 12.298064634002065" fill="#fff116" stroke="none" /><path d="M 116.15771136456269 86.58626213691792 l 23.79162607691544 -19.751227654192515 a51.921715108180884,51.921715108180884 0 0,0 0.5649614379142113,0.6925759210904621 l -24.12808600690606 19.338767563493953" fill="#86ff25" stroke="none" /><path d="M 117.04232023915458 87.72973835380427 l 14.73324330898925 -10.607754564018729 a39.15469402915777,39.15469402915777 0 0,0 0.3890995485393087,0.5503537173821115 l -14.91365547733244 10.352574346304824" fill="#ffe315" stroke="none" /><line stroke="#e1ed5e" stroke-width="0.3" x1="172.23445277983987" x2="176.4835382374775" y1="55.19839476539836" y2="52.563006222186495" /><path d="M 173.08426987136738 54.67131705675599 a86.0,86.0 0 0,1 12.851231095245387,41.99856678651699" fill="none" id="id27" stroke="none" /><text fill="#e1ed5e" style="font-size:6.75px; font-family:Arial;" text-anchor="middle"><textPath startOffset="22.20632615414155" xlink:href="#id27">March</textPath></text><path d="M 118.56541770881063 90.18545643968196 l 13.008248069205443 -6.876765140492975 a35.71408905190826,35.71408905190826 0 0,0 0.2826354620812722,0.5459617516802729 l -13.124692964446831 6.651830666552358" fill="#ffb711" stroke="none" /><path d="M 118.73160827565052 90.50648371742162 l 27.767361092990615 -14.072998473025423 a52.129979570990805,52.129979570990805 0 0,0 0.39876948776300297,0.8038949540862381 l -28.005490593707027 13.592943930440235" fill="#84ff25" stroke="none" /><path d="M 119.04729006885535 91.15688171328212 l 17.46291953663983 -8.107539840874745 a40.25320131859968,40.25320131859968 0 0,0 0.28636833389555894,0.6309746641777463 l -17.599890187498737 7.805743167854936" fill="#fff116" stroke="none" /><path d="M 119.196687751892 91.48605970444005 l 13.865279668917504 -6.149402689053484 a36.167766273563004,36.167766273563004 0 0,0 0.2475068579880748,0.5712799529206032 l -13.96907723674826 5.909823591546278" fill="#ffbd11" stroke="none" /><path d="M 119.34039704204932 91.81776055985345 l 29.977839906738367 -12.682566106684385 a53.55024375522332,53.55024375522332 0 0,0 0.3518463000085074,0.8520237236687769 l -30.19170789363307 12.164667812562305" fill="#74ff27" stroke="none" /><path d="M 119.47837535516314 92.15188598940014 l 15.406573735685054 -6.207527321231094 a37.610114681028875,37.610114681028875 0 0,0 0.23677617859623667,0.6025695481150397 l -15.511143464162991 5.9414087682202705" fill="#ffcf13" stroke="none" /><path d="M 119.61058180528143 92.48833698450437 l 14.637189664098027 -5.606648356602506 a36.67424087659022,36.67424087659022 0 0,0 0.22073598890414936,0.5914627072340081 l -14.731530241503801 5.353862512339164" fill="#ffc312" stroke="none" /><path d="M 119.7369772167798 92.82701384747503 l 15.970016856253443 -5.803964229543057 a37.991981613891724,37.991981613891724 0 0,0 0.2180864922611908,0.6165598814652723 l -16.06755642932444 5.52820672165117" fill="#ffd413" stroke="none" /><path d="M 119.97218684219823 93.5106431181261 l 11.530975177952222 -3.7466409520894195 a33.12438480824589,33.12438480824589 0 0,0 0.1715283429261181,0.543791721422382 l -11.593759004646547 3.547599064240618" fill="#ff950d" stroke="none" /><path d="M 120.37134235888165 94.90015583598534 l 14.261263816845457 -3.5702224117844206 a35.701365029250624,35.701365029250624 0 0,0 0.14410974954266112,0.5974279486284327 l -14.320606366648938 3.3242092314965817" fill="#ffb711" stroke="none" /><path d="M 120.45610955862082 95.25157060432595 l 19.44436888133785 -4.51357637247126 a40.961358993407,40.961358993407 0 0,0 0.15351851756217613,0.6881934122749956 l -19.519181785902067 4.1782047906463005" fill="#fff917" stroke="none" /><path d="M 120.67395015179393 96.31383870115 l 14.856821987274987 -2.648968476333712 a36.09112963134925,36.09112963134925 0 0,0 0.10378457781283336,0.6125424531594403 l -14.900218426608044 2.3928402348584337" fill="#ffbc11" stroke="none" /><path d="M 120.73433829027371 96.67025291283417 l 32.80069695157956 -5.267495089667961 a54.22096062772774,54.22096062772774 0 0,0 0.14005559838638043,0.9227914026335172 l -32.88650844340524 4.7021045746423615" fill="#6dff28" stroke="none" /><path d="M 120.78858239683441 97.02765380044208 l 30.99784382250238 -4.432063789704811 a52.31308849475346,52.31308849475346 0 0,0 0.11978202840329638,0.8925152417913429 l -31.06954184996351 3.8978302058488037" fill="#82ff25" stroke="none" /><path d="M 120.83666639777658 97.38593545837742 l 14.74577736565839 -1.8499318947843568 a35.861365957841954,35.861365957841954 0 0,0 0.07156843752867952,0.6131546666374819 l -14.775436156190658 1.5958334898220223" fill="#ffb911" stroke="none" /><path d="M 120.87857604477298 97.74499172005257 l 23.554558455934465 -2.5440300255503123 a44.69154517596806,44.69154517596806 0 0,0 0.07602430720895745,0.7655543985916133 l -23.594859888825653 2.138200096254264" fill="#d8ff1c" stroke="none" /><path d="M 120.94382443527127 98.46500227214037 l 15.249570227449672 -1.1176590847729753 a36.29047265298542,36.29047265298542 0 0,0 0.040298684497049576,0.6234028125494093 l -15.266549502951138 0.8549972079705307" fill="#ffbe11" stroke="none" /><path d="M 120.96714384426684 98.82574320788733 l 2.590179200781913 -0.14506198564277922 a23.594238090816233,23.594238090816233 0 0,0 0.019219632391126795,0.4056960629660143 l -2.5922924414065363 0.10045481605376516" fill="#ff1001" stroke="none" /><path d="M 120.98425023603335 99.18683210126433 l 32.51662440117663 -1.2600628967375478 a53.54102980778159,53.54102980778159 0 0,0 0.027760528176501965,0.9212367812933072 l -32.53349662380878 0.7001559680192414" fill="#74ff27" stroke="none" /><line stroke="#e1ed5e" stroke-width="0.3" x1="184.98032266829074" x2="189.97916517819016" y1="98.17113171792111" y2="98.06355123074" /><path d="M 185.9800911702706 98.14961562048488 a86.0,86.0 0 0,1 -9.607161424134198,41.387399972396054" fill="none" id="id28" stroke="none" /><text fill="#e1ed5e" style="font-size:6.75px; font-family:Arial;" text-anchor="middle"><textPath startOffset="21.466115282336823" xlink:href="#id28">April</textPath></text><path d="M 120.99513854157772 99.54816195383933 l 14.830436357029859 -0.31916700020817984 a35.83387036865076,35.83387036865076 0 0,0 0.007963638950247461,0.6167926129347052 l -14.833733003097821 0.06383812921301192" fill="#ffb911" stroke="none" /><path d="M 120.99980553446 99.90962569577887 l 9.808229350657152 -0.04221048150909462 a30.808320178289534,30.808320178289534 0 0,0 -0.002282313676534478,0.5303293208056111 l -9.807502739691115 -0.12662831750020118" fill="#ff760a" stroke="none" /><path d="M 120.8583938346157 102.4346265915055 l 1.5077254360396253 0.1759842329364542 a22.517961277741666,22.517961277741666 0 0,0 -0.048251155825537635,0.3846091866652316 l -1.5044727709672396 -0.2019111738890807" fill="#ff0000" stroke="none" /><path d="M 120.81339534386255 102.79330883721812 l 20.936944076089905 2.8098899745028354 a42.124656421209025,42.124656421209025 0 0,0 -0.1026356200662275,0.7178332876951988 l -20.885474405007077 -3.1698687341784435" fill="#f6ff19" stroke="none" /><path d="M 120.76222939487914 103.15116336523771 l 15.140194013048212 2.2978854442421235 a36.313580648156744,36.313580648156744 0 0,0 -0.0991157493148672,0.6171938655970491 l -15.098396509372057 -2.5581585395323776" fill="#ffbf11" stroke="none" /><path d="M 120.70491114924044 103.5080841355445 l 15.065086769780583 2.5525147882417927 a36.27979617420373,36.27979617420373 0 0,0 -0.10962295897439606,0.6148237707438015 l -15.018917368466997 -2.8114573097188127" fill="#ffbe11" stroke="none" /><path d="M 120.5718875245553 104.21870165774334 l 3.9138928177811434 0.8026266962083238 a24.995343114495313,24.995343114495313 0 0,0 -0.0900617459128886,0.42073849380596695 l -3.8994970331438115 -0.8698790094304598" fill="#ff2403" stroke="none" /><line stroke="#e1ed5e" stroke-width="0.3" x1="174.80103733775053" x2="179.2010983576182" y1="140.37084112569926" y2="142.7455964860345" /><path d="M 175.68104954172406 140.8457921977663 a86.0,86.0 0 0,1 -30.038265399797805,32.042727171017184" fill="none" id="id29" stroke="none" /><text fill="#e1ed5e" style="font-size:6.75px; font-family:Arial;" text-anchor="middle"><textPath startOffset="22.206326154141568" xlink:href="#id29">May</textPath></text><path d="M 118.30583269289576 110.29060199501025 l 16.78849181560947 9.437630632228553 a40.2593439502275,40.2593439502275 0 0,0 -0.34478869741253293,0.6011681562645452 l -16.623551122044553 -9.725218634351414" fill="#fff116" stroke="none" /><path d="M 118.12598468904814 110.60418214915192 l 14.05904156481074 8.22491247528357 a37.28821153310428,37.28821153310428 0 0,0 -0.3288804708067066,0.551222586241377 l -13.915380218305806 -8.465697155411052" fill="#ffcb12" stroke="none" /><path d="M 117.75023020441432 111.22182372390056 l 26.154475493858367 16.535048289692845 a51.942921812610265,51.942921812610265 0 0,0 -0.48429387966167714,0.7516348559914795 l -25.86597675081964 -16.982804745605776" fill="#86ff25" stroke="none" /><path d="M 117.55443506779139 111.5257021239791 l 16.092040921613243 10.56553910810253 a40.25056876218776,40.25056876218776 0 0,0 -0.38524949174533224,0.5758957188218233 l -15.907788324457192 -10.840971741130161" fill="#fff116" stroke="none" /><path d="M 116.27256486870786 113.27417163493432 l 23.95995026449076 19.54507446991025 a51.920691336242925,51.920691336242925 0 0,0 -0.5708902532300542,0.6876740865736455 l -23.619964011367163 -19.954609813597667" fill="#86ff25" stroke="none" /><path d="M 116.0416608686014 113.55231037782055 l 13.07349182734841 11.044742836629561 a38.11439548704615,38.11439548704615 0 0,0 -0.42771156141448247,0.49752517402923135 l -12.88143775636315 -11.26814510982032" fill="#ffd614" stroke="none" /><path d="M 113.75828350139079 115.86535959552629 l 9.695412174446748 11.180261008496567 a35.798623363357784,35.798623363357784 0 0,0 -0.46902081801310597,0.39970971630011326 l -9.501525879856594 -11.345495115019627" fill="#ffb811" stroke="none" /><path d="M 113.20401910651253 116.32954008644616 l 9.769950333827724 12.082593514283817 a36.53837171510818,36.53837171510818 0 0,0 -0.49247201629855425,0.39124955410486606 l -9.56052082481182 -12.24897698239381" fill="#ffc212" stroke="none" /><path d="M 112.92097659922987 116.55440617244103 l 11.848717915757248 15.180624118753947 a40.257296406351564,40.257296406351564 0 0,0 -0.5499362765478275,0.4216676863710326 l -11.585652910715927 -15.382331146952351" fill="#fff116" stroke="none" /><path d="M 112.63410532772338 116.77436683061366 l 18.707163372257984 24.837597330924034 a52.09444005942984,52.09444005942984 0 0,0 -0.7209251066142635,0.5333231589880881 l -18.276853295225155 -25.15593043865189" fill="#84ff25" stroke="none" /><path d="M 112.34349029814194 116.9893568818739 l 11.318724999501972 15.578888452099603 a40.25656514068159,40.25656514068159 0 0,0 -0.5641146188368483,0.4024808023680035 l -11.04888305281624 -15.771413516311826" fill="#fff116" stroke="none" /><path d="M 112.04921762599082 117.19931262002967 l 11.049134800793382 15.77177286679372 a40.257003900083575,40.257003900083575 0 0,0 -0.5709653074928395,0.3927151448332118 l -10.776012608677659 -15.959628800992025" fill="#fff116" stroke="none" /><path d="M 111.7513745106137 117.40417183066458 l 13.48750942066909 19.975444686323172 a45.10251648249606,45.10251648249606 0 0,0 -0.6471680650797075,0.42890770453885196 l -13.141666656849418 -20.20465041195334" fill="#d3ff1c" stroke="none" /><path d="M 111.45004920935366 117.60387380957326 l 13.307213380026713 20.4591701586476 a45.406137988671176,45.406137988671176 0 0,0 -0.6588607878055378,0.42051612769674596 l -12.953070790174245 -20.685200715168154" fill="#cfff1d" stroke="none" /><line stroke="#e1ed5e" stroke-width="0.3" x1="143.8653032363475" x2="146.44561519142675" y1="172.8068346515853" y2="177.08958963109032" /><path d="M 144.38136562736335 173.6633856474863 a86.0,86.0 0 0,1 -40.68145358897372,12.25698825130547" fill="none" id="id30" stroke="none" /><text fill="#e1ed5e" style="font-size:6.75px; font-family:Arial;" text-anchor="middle"><textPath startOffset="21.466115282336833" xlink:href="#id30">June</textPath></text><path d="M 109.89434966115114 118.52300852407294 l 11.501251215600972 21.53125587834698 a45.41052558269105,45.41052558269105 0 0,0 -0.6926383078661549,0.36235562656749254 l -11.128922005208322 -21.72604092385919" fill="#cfff1d" stroke="none" /><path d="M 109.2508944713604 118.85261126421891 l 6.533760987724521 13.315302252796673 a35.83196907790881,35.83196907790881 0 0,0 -0.5560564191951364,0.2669408727066112 l -6.3035919005291525 -13.425797402002845" fill="#ffb911" stroke="none" /><path d="M 108.92500713936063 119.00905698771935 l 6.628614156530525 14.118050807533432 a36.59672671557248,36.59672671557248 0 0,0 -0.5725331417247167,0.2628218843885111 l -6.3846130190383885 -14.230059762256017" fill="#ffc212" stroke="none" /><path d="M 106.91757812671514 119.82793768551818 l 4.927883140361069 14.124850928860145 a35.95979431702108,35.95979431702108 0 0,0 -0.5861964758127721,0.19886967160650845 l -4.68401693161107 -14.207583587364775" fill="#ffba11" stroke="none" /><path d="M 106.57524785965236 119.94407469862006 l 4.635110129349194 14.059239230102316 a35.803595969913644,35.803595969913644 0 0,0 -0.5869720886394904,0.18792992681474205 l -4.392416695618763 -14.136942003576765" fill="#ffb811" stroke="none" /><path d="M 106.2309692047433 120.05430185196036 l 4.571682183023313 14.713905887993482 a36.40776766645,36.40776766645 0 0,0 -0.6000780721011236,0.18079860060858272 l -4.317729136481943 -14.79041985770779" fill="#ffc011" stroke="none" /><path d="M 105.53697534728816 120.25689768951611 l 5.076404812260108 18.57191091935859 a40.25320131859968,40.25320131859968 0 0,0 -0.6699465984896867,0.17693898571100622 l -4.755967770958923 -18.65654125437318" fill="#fff116" stroke="none" /><path d="M 105.18746579009965 120.34920634021253 l 3.6579365162567794 14.34922329334097 a35.80812981706751,35.80812981706751 0 0,0 -0.5985869691319157,0.1471181134640214 l -3.4103962623816524 -14.410062665119021" fill="#ffb811" stroke="none" /><path d="M 104.83641907484287 120.43548508189849 l 3.4114404330891466 14.41447463492266 a35.812663664221375,35.812663664221375 0 0,0 -0.6011067780099251,0.1368099456394101 l -3.1628135056863593 -14.471061314139755" fill="#ffb811" stroke="none" /><path d="M 104.48393922423573 120.51570834832081 l 3.1610335038121278 14.462917136111242 a35.80432723558362,35.80432723558362 0 0,0 -0.6032322235107694,0.1264131775537304 l -2.91160981887198 -14.515186294391514" fill="#ffb811" stroke="none" /><path d="M 104.13013068566511 120.58985236759428 l 2.9121563353755615 14.517910831453802 a35.80710604512954,35.80710604512954 0 0,0 -0.6053658225945849,0.11601980068305319 l -2.661822898209272 -14.565887830485323" fill="#ffb811" stroke="none" /><path d="M 103.7750983002368 120.6578951692458 l 2.662506475299574 14.569628465231357 a35.810908626613426,35.810908626613426 0 0,0 -0.6073377114232767,0.10559344602925075 l -2.4113197924042473 -14.613300489781613" fill="#ffb811" stroke="none" /><path d="M 103.41894727170886 120.7198165907248 l 2.377079522810618 14.405794480002653 a35.60059661992757,35.60059661992757 0 0,0 -0.6054883974656179,0.09456483518630786 l -2.128755261736483 -14.444577622536066" fill="#ffb610" stroke="none" /><path d="M 103.06178313531738 120.77559828337769 l 2.1630649172155825 14.677384319801046 a35.835917912526696,35.835917912526696 0 0,0 -0.6110389339548349,0.08468442844669352 l -1.910097392073917 -14.712443313740343" fill="#ffb911" stroke="none" /><path d="M 102.70371172650421 120.8252237178851 l 0.28692886494895836 2.2100572872119013 a23.22860525582691,23.22860525582691 0 0,0 -0.39695759176575496,0.048066036182833 l -0.2488438501318231 -2.2146688521200852" fill="#ff0a01" stroke="none" /><path d="M 102.34483914955558 120.86867818915974 l 1.6541959442907879 14.722068603196226 a35.814711208097314,35.814711208097314 0 0,0 -0.6132287005912271,0.06356366215716261 l -1.4005346470939581 -14.748361633809147" fill="#ffb811" stroke="none" /><path d="M 101.98527174616119 120.90594882070398 l 1.3998156797051542 14.74079053153403 a35.80710604512954,35.80710604512954 0 0,0 -0.6141015574945046,0.052987266385218654 l -1.145869804469108 -14.76270205019791" fill="#ffb811" stroke="none" /><path d="M 101.62511606390274 120.93702456842531 l 1.1465375673609988 14.771305108394152 a35.81573498003529,35.81573498003529 0 0,0 -0.6150708468511151,0.042418886729498666 l -0.8921039597309534 -14.788852339639936" fill="#ffb811" stroke="none" /><path d="M 101.26447882468166 120.96189622390904 l 0.8914963194748727 14.778779184011855 a35.805643513789576,35.805643513789576 0 0,0 -0.615536406029121,0.031816201284334565 l -0.6369718450322722 -14.791935192058391" fill="#ffb811" stroke="none" /><path d="M 100.90346689309514 120.98055641714683 l 0.637399710308044 14.801871197047479 a35.81558872690129,35.81558872690129 0 0,0 -0.6161639666581041,0.021221932857950276 l -0.38251539197528767 -14.810649928331523" fill="#ffb811" stroke="none" /><line stroke="#e1ed5e" stroke-width="0.3" x1="102.19456741930631" x2="102.32365962044197" y1="184.97166512339345" y2="189.96999836594603" /><path d="M 102.22038585953345 185.97133177190398 a86.0,86.0 0 0,1 -42.740103519485714,-10.115201625700543" fill="none" id="id31" stroke="none" /><text fill="#e1ed5e" style="font-size:6.75px; font-family:Arial;" text-anchor="middle"><textPath startOffset="22.20632615414155" xlink:href="#id31">July</textPath></text><path d="M 100.54218724476979 120.99299961872073 l 0.3063000468984454 11.859660716443752 a32.86361547033151,32.86361547033151 0 0,0 -0.565630255564035,0.009737837807290378 l -0.1021101014417424 -11.863176031530204" fill="#ff910d" stroke="none" /><path d="M 99.81925306533755 120.99922214144158 l -0.10202198542288587 11.852938691364674 a32.85337775095181,32.85337775095181 0 0,0 -0.5654540496370164,-0.009734804262459434 l 0.3060357249525702 -11.849426409823055" fill="#ff910d" stroke="none" /><path d="M 99.45781275523022 120.99299961872073 l -0.30611879756412835 11.852642906189557 a32.85659531989971,32.85659531989971 0 0,0 -0.5652580572543779,-0.01946863040941789 l 0.5100972064931493 -11.845617477354045" fill="#ff910d" stroke="none" /><path d="M 99.09653310690486 120.98055641714683 l -0.5102733863125846 11.849708773526018 a32.86069040765159,32.86069040765159 0 0,0 -0.5649095865396493,-0.02919937299686844 l 0.7141710412657228 -11.839169593766949" fill="#ff910d" stroke="none" /><path d="M 98.73552117531835 120.96189622390904 l -0.7129205352314713 11.818439331459903 a32.8399224626242,32.8399224626242 0 0,0 -0.5639666177692758,-0.03889443988582368 l 0.9162499137796771 -11.804416547057794" fill="#ff910d" stroke="none" /><path d="M 93.42475214034765 119.94407469862007 l -5.564797301184975 16.879171010198316 a38.77282709629492,38.77282709629492 0 0,0 -0.6320529645073051,-0.21442668230853396 l 5.854519998629506 -16.78088134099166" fill="#ffde14" stroke="none" /><path d="M 93.08242187328487 119.8279376855182 l -3.9064820780677607 11.197196734849536 a32.859081623177644,32.859081623177644 0 0,0 -0.5324429872399317,-0.1909151118101257 l 4.098644625937419 -11.128294081999453" fill="#ff910d" stroke="none" /><path d="M 91.7346041902142 119.30500536409082 l -4.66514397306484 10.896106066408294 a32.85279273841582,32.85279273841582 0 0,0 -0.5179466883544619,-0.22705260712451222 l 4.852011336077045 -10.81418890598933" fill="#ff910d" stroke="none" /><path d="M 90.10565033884886 118.52300852407294 l -7.670900299094699 14.360534698438562 a37.28089887640449,37.28089887640449 0 0,0 -0.5634336598287055,-0.30722895530288763 l 7.916956770792045 -14.226365091375907" fill="#ffcb12" stroke="none" /><line stroke="#e1ed5e" stroke-width="0.3" x1="58.666819895761336" x2="56.23545636021788" y1="174.27360380694188" y2="178.64263932499728" /><path d="M 58.180547188652646 175.14741091055294 a86.0,86.0 0 0,1 -31.652253787137756,-30.449443065178592" fill="none" id="id32" stroke="none" /><text fill="#e1ed5e" style="font-size:6.75px; font-family:Arial;" text-anchor="middle"><textPath startOffset="22.20632615414155" xlink:href="#id32">August</textPath></text><path d="M 89.4739219176387 118.17145234162733 l -5.886867268881918 10.162657656628047 a32.74456541925898,32.74456541925898 0 0,0 -0.48529337179459003,-0.28671987804352667 l 6.06092851170489 -10.05981920629077" fill="#ff900d" stroke="none" /><path d="M 88.54995079064634 117.60387380957326 l -6.4654129199274095 9.94024663895845 a32.85791159810567,32.85791159810567 0 0,0 -0.47147238624166166,-0.3124661889975344 l 6.635560004909033 -9.827482428869597" fill="#ff910d" stroke="none" /><path d="M 88.24862548938628 117.40417183066458 l -6.632941071040942 9.82360370174604 a32.85323149781781,32.85323149781781 0 0,0 -0.4659575628340688,-0.32048986054516915 l 6.801055518497901 -9.707973051835769" fill="#ff910d" stroke="none" /><path d="M 87.95078237400918 117.19931262002967 l -6.803237334299803 9.711087422678842 a32.8570340793017,32.8570340793017 0 0,0 -0.46042510559410943,-0.32850108779663956 l 6.9693897677428 -9.592542073037983" fill="#ff910d" stroke="none" /><path d="M 87.65650970185807 116.9893568818739 l -7.380992271788002 10.159064318026463 a33.55729408487325,33.55729408487325 0 0,0 -0.4643930482451608,-0.34354687502198206 l 7.554770290451727 -10.030507494264715" fill="#ff9b0e" stroke="none" /><path d="M 87.36589467227662 116.77436683061367 l -7.131365274872249 9.468350470477128 a32.8535240040858,32.8535240040858 0 0,0 -0.44879677164389753,-0.34411822682043414 l 7.293290775009633 -9.344192901829327" fill="#ff910d" stroke="none" /><path d="M 86.79598089348748 116.32954008644616 l -8.197919226302663 10.138447206981862 a34.0381743894512,34.0381743894512 0 0,0 -0.45243196390004664,-0.3723207048784497 l 8.371221318747398 -9.995831383246232" fill="#ffa10e" stroke="none" /><path d="M 86.51685102203217 116.09983520530335 l -7.614742665902365 9.092542272739752 a32.85995914198161,32.85995914198161 0 0,0 -0.4305194856298335,-0.36689804557452566 l 7.770127628109255 -8.960119836942274" fill="#ff910d" stroke="none" /><path d="M 86.24171649860922 115.8653595955263 l -8.538018453488672 9.84561286181841 a34.03203175782338,34.03203175782338 0 0,0 -0.43926868828970905,-0.3876035445210423 l 8.706229494684969 -9.69718617552508" fill="#ffa10e" stroke="none" /><path d="M 85.97065885151581 115.62618273729859 l -8.911901537940327 9.926268132963191 a34.33989460488439,34.33989460488439 0 0,0 -0.43644444482401773,-0.39868165234882996 l 9.0814455322312 -9.771393714027784" fill="#ffa50f" stroke="none" /><path d="M 85.70375840098266 115.38237550388516 l -9.077861183422826 9.767537050097939 a34.33462949206054,34.33462949206054 0 0,0 -0.4294512765253586,-0.4060729869518807 l 9.244648294339003 -9.609829426400127" fill="#ffa50f" stroke="none" /><path d="M 85.44109423537348 115.13401014063109 l -10.268530482178157 10.674156901560952 a35.811493639149404,35.811493639149404 0 0,0 -0.4405667184365805,-0.43118726099276083 l 10.450747152990532 -10.495819537645621" fill="#ffb811" stroke="none" /><path d="M 85.18274418774928 114.88116024355367 l -13.591038115168557 13.64965406758049 a40.26212275977342,40.26212275977342 0 0,0 -0.4869020728575927,-0.4932292291651975 l 13.823980813081683 -13.413684344434628" fill="#fff116" stroke="none" /><path d="M 84.67929136418377 114.36230785411682 l -9.730620378530254 9.1219126223236 a34.337700807874455,34.337700807874455 0 0,0 -0.4005306263836575,-0.4346968891800141 l 9.88619741290964 -8.953064478342242" fill="#ffa50f" stroke="none" /><path d="M 84.43433777217949 114.09645910891817 l -9.110552181875729 8.250630420460988 a33.29125963413502,33.29125963413502 0 0,0 -0.3810123636725643,-0.4280714296704649 l 9.251223395196632 -8.092584821049659" fill="#ff970d" stroke="none" /><path d="M 83.95833913139862 113.55231037782056 l -11.31712435695689 9.560929078738512 a35.8151499674993,35.8151499674993 0 0,0 -0.3938029234242128,-0.47436098991630354 l 11.480023280274638 -9.364706831708448" fill="#ffb811" stroke="none" /><path d="M 83.72743513129214 113.27417163493432 l -9.34807400241598 7.625591894413544 a33.06383601077166,33.06383601077166 0 0,0 -0.35595909908528256,-0.44411370732245314 l 9.477951013556124 -7.463550353512831" fill="#ff940d" stroke="none" /><path d="M 83.50135304334701 112.99209946851258 l -10.480141551832155 8.252739866682811 a34.339455845482405,34.339455845482405 0 0,0 -0.3616977873077075,-0.4675431474476057 l 10.62064615635793 -8.071118725121954" fill="#ffa50f" stroke="none" /><path d="M 83.06392112726016 112.41649034213515 l -11.940808436907028 8.754265597616262 a35.80608227319157,35.80608227319157 0 0,0 -0.360141339617124,-0.5002048218764822 l 12.08972956889976 -8.547427170288643" fill="#ffb811" stroke="none" /><path d="M 82.85270091963577 112.12312394758628 l -6.648897462148477 4.7007641069677835 a29.14278948834618,29.14278948834618 0 0,0 -0.2860699137091706,-0.41210504680042287 l 6.728828283019781 -4.5856177979803485" fill="#ff5f08" stroke="none" /><path d="M 82.6465618267979 111.8261652097733 l -10.39417608400088 7.083509467230076 a33.57835453616863,33.57835453616863 0 0,0 -0.3213878565327338,-0.4804312390394381 l 10.514567045944345 -6.903541313984817" fill="#ff9b0e" stroke="none" /><path d="M 82.44556493220864 111.52570212397912 l -12.250001202694959 8.042974002604119 a35.654417773237995,35.654417773237995 0 0,0 -0.3324267428153821,-0.5159336870792305 l 12.386632808887386 -7.830918715603439" fill="#ffb610" stroke="none" /><path d="M 82.24976979558568 111.22182372390057 l -13.767719064647327 8.704051420428058 a37.28835778623828,37.28835778623828 0 0,0 -0.3383214612852901,-0.5454819194903341 l 13.915505165600575 -8.46577316957246" fill="#ffcb12" stroke="none" /><path d="M 82.05923443525364 110.91462005526583 l -13.388227581679855 8.144993408453356 a36.671169560776306,36.671169560776306 0 0,0 -0.3234381863413639,-0.5421010044378464 l 13.526446643719451 -7.913330310129398" fill="#ffc312" stroke="none" /><line stroke="#e1ed5e" stroke-width="0.3" x1="26.63291911575756" x2="22.317208475507996" y1="142.92168965132927" y2="145.44649492493687" /><path d="M 25.769776987707644 143.4266507060508 a86.0,86.0 0 0,1 -11.730757126820373,-40.83630448921669" fill="none" id="id33" stroke="none" /><text fill="#e1ed5e" style="font-size:6.75px; font-family:Arial;" text-anchor="middle"><textPath startOffset="21.46611528233685" xlink:href="#id33">September</textPath></text><path d="M 81.69416730710424 110.29060199501025 l -11.355642286578961 6.383560755159888 a34.02691289813353,34.02691289813353 0 0,0 -0.2826236344272835,-0.5130439900694508 l 11.463842330457762 -6.187146246692614" fill="#ffa10e" stroke="none" /><path d="M 81.51974371655577 109.97397251340807 l -13.04253225226615 7.039180420126523 a35.82085383972514,35.82085383972514 0 0,0 -0.28818301949831054,-0.5451336682843161 l 13.161767779989347 -6.813631736756081" fill="#ffb811" stroke="none" /><path d="M 81.35079622478065 109.6543875284942 l -11.847370373972867 6.133189714829524 a34.34077212368837,34.34077212368837 0 0,0 -0.2672387933818973,-0.5272874922933884 l 11.951187837141031 -5.92834801083345" fill="#ffa50f" stroke="none" /><path d="M 81.18737489456691 109.33194174019688 l -11.947519296633885 5.9265282431990896 a34.33667703593648,34.33667703593648 0 0,0 -0.25809203089498756,-0.5317460279780826 l 12.047764584143591 -5.719993259255722" fill="#ffa50f" stroke="none" /><path d="M 80.73074385275274 108.34839909993369 l -15.248147631293586 6.6062551137415175 a37.61771984399665,37.61771984399665 0 0,0 -0.2523056633242679,-0.5963760582104827 l 15.35960427581016 -6.342804529864876" fill="#ffd013" stroke="none" /><path d="M 80.58989483394504 108.01547362559985 l -9.188077616526064 3.7942501174092027 a30.94067926455567,30.94067926455567 0 0,0 -0.19904785151152954,-0.49402044365611997 l 9.252028082294983 -3.6355303059102773" fill="#ff770b" stroke="none" /><path d="M 80.45479744820244 107.68017299344265 l -29.152824822035804 11.455431955100005 a52.322741201597175,52.322741201597175 0 0,0 -0.3221728449864241,-0.8410916356355689 l 29.345691946615737 -10.951916752631279" fill="#81ff25" stroke="none" /><path d="M 80.20201598880116 107.00284435728193 l -18.125799843032222 6.411367696842266 a40.22629074194447,40.22629074194447 0 0,0 -0.22528479182839004,-0.6547830585268057 l 18.233475465803842 -6.098411935226164" fill="#fff016" stroke="none" /><path d="M 80.0844068197444 106.66101706037122 l -14.383417181625637 4.810712207569573 a36.16659624849104,36.16659624849104 0 0,0 -0.19238519311062363,-0.5921007416328509 l 14.46409462575251 -4.562412565958919" fill="#ffbd11" stroke="none" /><path d="M 79.76711848015287 105.62410040840567 l -14.269028795693277 3.966338190568183 a35.81003110780945,35.81003110780945 0 0,0 -0.15997180497545174,-0.5953145972858228 l 14.335188677010503 -3.720132660106821" fill="#ffb811" stroke="none" /><path d="M 79.67330655649465 105.27499134158121 l -12.907233271926666 3.3495631713251592 a34.33477574519454,34.33477574519454 0 0,0 -0.14353356364973957,-0.5733452378273045 l 12.962978149871464 -3.126890094100463" fill="#ffa50f" stroke="none" /><path d="M 79.50377843672027 104.57218783832718 l -14.59563553843453 3.255916564692315 a35.95438295106324,35.95438295106324 0 0,0 -0.12954871181246563,-0.6052084526009496 l 14.649518288971436 -3.004194292675202" fill="#ffba11" stroke="none" /><path d="M 79.35854240842038 103.8639653848113 l -14.554441445829843 2.724510015459895 a35.807252298263535,35.807252298263535 0 0,0 -0.10819512135157537,-0.6068156990817635 l 14.599183009520607 -2.4735755656449183" fill="#ffb811" stroke="none" /><path d="M 79.23777060512086 103.15116336523772 l -30.99079405045134 4.703591941600253 a52.34570294363451,52.34570294363451 0 0,0 -0.12753893172925077,-0.8920069914642135 l 31.067167033197187 -4.169439478155639" fill="#81ff25" stroke="none" /><path d="M 79.1416061653843 102.43462659150553 l -14.7124891065283 1.7172663192572812 a35.812371157953386,35.812371157953386 0 0,0 -0.06619780124485047,-0.612909424580752 l 14.739869209274202 -1.463760572791747" fill="#ffb811" stroke="none" /><path d="M 79.10278846688536 102.07522291339032 l -14.750784504554522 1.4648445294161152 a35.823340143003065,35.823340143003065 0 0,0 -0.05565480642233946,-0.6141461512303035 l 14.773813907253937 -1.2107169896372456" fill="#ffb811" stroke="none" /><path d="M 79.0235259727143 100.99374915477108 l -15.001909076018915 0.7107073593423862 a36.01873433002136,36.01873433002136 0 0,0 -0.02400883133426332,-0.619561255893418 l 15.011920040204378 -0.4523688564349713" fill="#ffbb11" stroke="none" /><line stroke="#e1ed5e" stroke-width="0.3" x1="15.007084014347285" x2="10.007500721073583" y1="101.09737516637583" y2="101.16192664675087" /><path d="M 14.007167355692545 101.11028546245083 a86.0,86.0 0 0,1 10.666146001902534,-42.60595125391555" fill="none" id="id34" stroke="none" /><text fill="#e1ed5e" style="font-size:6.75px; font-family:Arial;" text-anchor="middle"><textPath startOffset="22.20632615414155" xlink:href="#id34">October</textPath></text><path d="M 79.00175016825051 100.2711162175752 l -20.711227603572922 0.2674103667787451 a41.71295384901105,41.71295384901105 0 0,0 -0.0030901407317020096,-0.7180398786926196 l 20.71276204159413 0.08913899011754992" fill="#fbff18" stroke="none" /><path d="M 79.00019446554 99.90962569577889 l -14.80462889894685 -0.06371287742634882 a35.80476599498561,35.80476599498561 0 0,0 0.007957170859545623,-0.616291652181746 l 14.80133872096959 0.3185407876685668" fill="#ffb811" stroke="none" /><path d="M 79.00486145842228 99.54816195383935 l -20.711668103844822 -0.44573745632763134 a41.71646392422694,41.71646392422694 0 0,0 0.021629600258906808,-0.7177811314138791 l 20.70092680913027 0.8021887351665048" fill="#fbff18" stroke="none" /><path d="M 79.01574976396665 99.18683210126434 l -17.684087657706492 -0.6852821635238262 a38.697360479153126,38.697360479153126 0 0,0 0.03152248612790066,-0.6653898605727574 l 17.66967156334509 0.9895831307195927" fill="#ffdd14" stroke="none" /><path d="M 79.05617556472873 98.46500227214037 l -14.776977661958828 -1.0830222152521385 a35.81661249883926,35.81661249883926 0 0,0 0.050357331993584845,-0.6144870007663678 l 14.756145846145746 1.3372231332262845" fill="#ffb811" stroke="none" /><path d="M 79.08570108090925 98.10471618934814 l -22.103776607870603 -2.0030759874490496 a43.194351843253784,43.194351843253784 0 0,0 0.07347744772067377,-0.739907871113361 l 22.0660220344677 2.383259389266841" fill="#e9ff1a" stroke="none" /><path d="M 79.16333360222342 97.38593545837743 l -14.837925776578075 -1.8614923761470334 a35.95423669792924,35.95423669792924 0 0,0 0.08232493101229019,-0.6134163587587502 l 14.803684846507952 2.1166270769704427" fill="#ffba11" stroke="none" /><path d="M 79.21141760316559 97.0276538004421 l -14.657166747899012 -2.0956779566671244 a35.80622852632557,35.80622852632557 0 0,0 0.09248937503422384,-0.6093894217714453 l 14.618921479425486 2.347666490830662" fill="#ffb811" stroke="none" /><path d="M 79.26566170972629 96.67025291283419 l -14.640004310169138 -2.3510522026520424 a35.827581483888935,35.827581483888935 0 0,0 0.10302671200212278,-0.6080694862443197 l 14.597365736646791 2.6027074772121903" fill="#ffb811" stroke="none" /><path d="M 79.32604984820605 96.31383870115002 l -14.389167213667687 -2.5655857209803887 a35.61609945213112,35.61609945213112 0 0,0 0.11280852724823216,-0.60262766336264 l 14.342872962509592 2.8128914618056013" fill="#ffb610" stroke="none" /><path d="M 79.3925641242962 95.95851677861259 l -10.502300597151848 -2.059687187933883 a31.70236558640542,31.70236558640542 0 0,0 0.1096308623830956,-0.5345990195882738 l 10.465290438853758 2.240161863685559" fill="#ff820c" stroke="none" /><path d="M 79.46518482838121 95.60439243477599 l -16.196408810017186 -3.46694413851693 a37.56331367815025,37.56331367815025 0 0,0 0.1407830299654077,-0.6311027185568584 l 16.13433139304974 3.7452250266237477" fill="#ffcf13" stroke="none" /><path d="M 79.54389044137918 95.25157060432595 l -14.437142936564566 -3.351260595915243 a35.82100009285913,35.82100009285913 0 0,0 0.1445926604632744,-0.5994299261600389 l 14.377317475840478 3.5992757537346787" fill="#ffb811" stroke="none" /><path d="M 79.62865764111835 94.90015583598534 l -14.456625538650036 -3.619130054651785 a35.902755594762745,35.902755594762745 0 0,0 0.1552429478080144,-0.5982144054882387 l 14.392186258971714 3.8674408856888878" fill="#ffb911" stroke="none" /><path d="M 79.81627453868168 94.20196356495316 l -14.048530780455108 -4.035622337415384 a35.6166844646671,35.6166844646671 0 0,0 0.17434214892385042,-0.5877950560464137 l 13.97698273441955 4.276846780208336" fill="#ffb610" stroke="none" /><path d="M 80.02781315780177 93.51064311812611 l -16.100523990329627 -5.2313773641285195 a37.92909276627357,37.92909276627357 0 0,0 0.2070977343505914,-0.6191958658110935 l 16.008088962207264 5.507746332861935" fill="#ffd313" stroke="none" /><path d="M 80.14247586403 93.16781622104843 l -21.5453399294287 -7.412894022936047 a43.784921998328535,43.784921998328535 0 0,0 0.25133987875625247,-0.7105716830360027 l 21.414546969862638 7.782663332398662" fill="#e2ff1b" stroke="none" /><path d="M 80.2630227832202 92.82701384747504 l -14.097166675791302 -5.123316516235275 a35.99928266319993,35.99928266319993 0 0,0 0.21667353075530374,-0.5805773391222174 l 14.00688855653437 5.365216992386833" fill="#ffbb11" stroke="none" /><path d="M 80.38941819471856 92.48833698450439 l -14.02204856150502 -5.371023900605237 a36.01551676107345,36.01551676107345 0 0,0 0.22673731524561785,-0.5770217358788797 l 13.927517696377711 5.61159464137988" fill="#ffbb11" stroke="none" /><path d="M 80.52162464483688 92.15188598940014 l -13.925347202327552 -5.610720118507495 a36.01317671092952,36.01317671092952 0 0,0 0.23662082725920253,-0.5729961018038159 l 13.82670468818215 5.849590790764623" fill="#ffbb11" stroke="none" /><path d="M 80.65960295795068 91.81776055985345 l -13.84906404774882 -5.859050246705732 a36.03745473117281,36.03745473117281 0 0,0 0.2466150970711129,-0.5692216457738917 l 13.746158240835026 6.096571037066223" fill="#ffbb11" stroke="none" /><path d="M 80.95270993114464 91.15688171328213 l -57.141870206566075 -26.529354860153617 a84.0,84.0 0 0,0 0.6201672246329939,-1.3062303374378712 l 56.676744788091334 27.50902761323202" fill="#4dd2ff" stroke="none" /><path d="M 81.10775173730289 90.83032412892265 l -13.571446268588675 -6.587133603914114 a36.08557201225741,36.08557201225741 0 0,0 0.2760374200294153,-0.5564745947476094 l 13.456048835605847 6.819767787160685" fill="#ffbc11" stroke="none" /><path d="M 81.26839172434947 90.50648371742162 l -13.456309745740617 -6.819900021113919 a36.0858645185254,36.0858645185254 0 0,0 0.2855776323448126,-0.5516450881554551 l 13.33692268023569 7.050517831529709" fill="#ffbc11" stroke="none" /><path d="M 81.43458229118936 90.18545643968196 l -13.353472778666797 -7.059266983556737 a36.10458491967685,36.10458491967685 0 0,0 0.2951840386565437,-0.5469311929446112 l 13.229980640791782 7.2880791598338215" fill="#ffbc11" stroke="none" /><line stroke="#e1ed5e" stroke-width="0.3" x1="26.266209847984243" x2="21.928928074336255" y1="57.711370442889674" y2="55.22380399835377" /><path d="M 25.398753493254645 57.213857153982495 a86.0,86.0 0 0,1 29.58750427330803,-30.492523968695096" fill="none" id="id35" stroke="none" /><text fill="#e1ed5e" style="font-size:6.75px; font-family:Arial;" text-anchor="middle"><textPath startOffset="21.46611528233685" xlink:href="#id35">November</textPath></text><path d="M 81.78341655067845 89.55222093294921 l -13.11639680906925 -7.522662874636312 a36.120526511282385,36.120526511282385 0 0,0 0.31397393655584493,-0.5366832337208172 l 12.984963198043081 7.747325520711021" fill="#ffbc11" stroke="none" /><path d="M 81.96595687620814 89.24020034530311 l -12.337008686419612 -7.360731084700845 a35.366006592998424,35.366006592998424 0 0,0 0.3164149484061856,-0.5201029794709042 l 12.208477939727208 7.572001837378823" fill="#ffb210" stroke="none" /><path d="M 82.34701348167596 88.62581576622439 l -13.689957434221514 -8.820722649266749 a37.28557897669236,37.28557897669236 0 0,0 0.3522659200763694,-0.5365251638519284 l 13.536094878787225 9.055065877096343" fill="#ffcb12" stroke="none" /><path d="M 82.54541684631803 88.32363383020206 l -13.545698222197524 -9.061490101217062 a37.29713297427802,37.29713297427802 0 0,0 0.3615611321077472,-0.5305463470677375 l 13.387712624421036 9.293314471555217" fill="#ffcb13" stroke="none" /><path d="M 82.7489923806493 88.02491185347247 l -12.1663335957857 -8.445472893198833 a35.81032361407745,35.81032361407745 0 0,0 0.3558648866189113,-0.5033456450199295 l 12.01915608936291 8.653645038550549" fill="#ffb811" stroke="none" /><path d="M 82.95767976084542 87.72973835380427 l -11.864502849008991 -8.542296601427838 a35.619755780481015,35.619755780481015 0 0,0 0.3625368354010675,-0.4944998360599701 l 11.71570340109429 8.745258881159309" fill="#ffb610" stroke="none" /><path d="M 83.39014120810768 87.1503855733568 l -11.714508172560253 -9.062504088754554 a35.81076237347943,35.81076237347943 0 0,0 0.38137766074512547,-0.48431089963848417 l 11.556776431221156 9.262807382346086" fill="#ffb811" stroke="none" /><path d="M 83.6137871275137 86.86637796730984 l -12.842460391348125 -10.293288758195429 a37.45845018107531,37.45845018107531 0 0,0 0.4075863024217635,-0.49965261322219967 l 12.663375596849969 10.51282554102571" fill="#ffcd13" stroke="none" /><path d="M 85.31137513191541 84.99185889309783 l -14.982663340174604 -15.308575689418705 a42.42038025814839,42.42038025814839 0 0,0 0.5262485652181063,-0.506250702793621 l 14.71693153134407 15.56420947897464" fill="#f3ff19" stroke="none" /><path d="M 85.57189188830299 84.74124197986013 l -11.41694895290427 -12.074241477260825 a37.617281084594666,37.617281084594666 0 0,0 0.47432187925112146,-0.44083049329807894 l 11.207419189858294 12.268976556633552" fill="#ffd013" stroke="none" /><path d="M 86.10567301691215 84.25364557470407 l -9.775702171553531 -11.078742521086664 a35.775076608784474,35.775076608784474 0 0,0 0.46525691789265694,-0.4034662144787096 l 9.583551455014101 11.245373728985053" fill="#ffb811" stroke="none" /><path d="M 86.37877921826538 84.01681056812374 l -9.676897735420079 -11.354906589981658 a35.918989692636266,35.918989692636266 0 0,0 0.4740322511122639,-0.3969883778687838 l 9.480007947348705 11.519796125244254" fill="#ffba11" stroke="none" /><path d="M 86.93701828274178 83.55741782278169 l -9.217171485529997 -11.60179987024814 a35.81749001764324,35.81749001764324 0 0,0 0.4860389814728844,-0.37936113446216113 l 9.016099948897686 11.758739393933524" fill="#ffb811" stroke="none" /><path d="M 87.22198572758235 83.33499621200491 l -27.00771965464953 -35.22329375710473 a65.38577862382765,65.38577862382765 0 0,0 0.8990664317682229,-0.6771581968059639 l 26.397407069122917 35.68296854341654" fill="#36ff6c" stroke="none" /><path d="M 87.80319425747018 82.90503203632743 l -8.600905622533068 -12.054976456915929 a35.80871482960349,35.80871482960349 0 0,0 0.5048497805987805,-0.3536795341334928 l 8.392124702350626 12.201240833813365" fill="#ffb811" stroke="none" /><path d="M 88.09926311788651 82.69761687909137 l -8.395937270113956 -12.206783894614473 a35.81544247376729,35.81544247376729 0 0,0 0.5109589729949198,-0.34500177943788285 l 8.184573602712497 12.34949758635102" fill="#ffb811" stroke="none" /><path d="M 88.39885842347998 82.49532879139004 l -5.920605814740071 -8.933453441561863 a31.717283406072987,31.717283406072987 0 0,0 0.45768489164690346,-0.29769098486066253 l 5.76595389730888 9.03404335058206" fill="#ff820c" stroke="none" /><path d="M 89.00827224532344 82.1063720568725 l -5.9643315387927 -9.709440760048931 a32.39502042900919,32.39502042900919 0 0,0 0.47765367573692624,-0.2877809951280457 l 5.796315796838124 9.810668364635596" fill="#ff8b0c" stroke="none" /><line stroke="#e1ed5e" stroke-width="0.3" x1="56.762969772571076" x2="54.21961505331055" y1="26.818313649435495" y2="22.513508569990535" /><path d="M 56.25429882871897 25.957352633546506 a86.0,86.0 0 0,1 42.265352541879196,-11.944610805530505" fill="none" id="id36" stroke="none" /><text fill="#e1ed5e" style="font-size:6.75px; font-family:Arial;" text-anchor="middle"><textPath startOffset="22.20632615414155" xlink:href="#id36">December</textPath></text><path d="M 89.3179101791058 81.91981866633112 l -7.5370034486345965 -12.756903503774685 a35.81705125824125,35.81705125824125 0 0,0 0.533509079382618,-0.30904289440670923 l 7.316297636786659 12.884750555571442" fill="#ffb811" stroke="none" /><path d="M 89.63071344664047 81.73862282372117 l -5.434342899249171 -9.570435234646844 a32.005694586312565,32.005694586312565 0 0,0 0.481420377730161,-0.2679099189840527 l 5.268798432446965 9.662560551191081" fill="#ff860c" stroke="none" /><path d="M 89.94658935756843 81.56283822128135 l -7.164560433708528 -13.139238462236111 a35.965644442380906,35.965644442380906 0 0,0 0.5460868516788038,-0.29170068398150445 l 6.937328535501419 13.260617872719365" fill="#ffba11" stroke="none" /><path d="M 90.26544431104013 81.39251694778311 l -6.9611248191407435 -13.306104175194028 a36.01697929241341,36.01697929241341 0 0,0 0.5518135883841279,-0.28266035252640226 l 6.7310507431678515 13.423957053032936" fill="#ffbb11" stroke="none" /><path d="M 90.58718382345135 81.22770947309562 l -6.909163531391103 -13.779173275720273 a36.414349057479804,36.414349057479804 0 0,0 0.5627382172506671,-0.27613319925965657 l 6.67095404713001 13.896061635114759" fill="#ffc011" stroke="none" /><path d="M 90.91171255644093 81.06846463323043 l -6.537465341922011 -13.617995370221198 a36.105901197882815,36.105901197882815 0 0,0 0.562601789171944,-0.26414908368261414 l 6.302085341450459 13.72850943654382" fill="#ffbc11" stroke="none" /><path d="M 91.56875222667455 80.76684994638697 l -6.006647490289209 -13.702212958963301 a35.96096434209304,35.96096434209304 0 0,0 0.5690672636381466,-0.24364490388125776 l 5.769896468860755 13.803577390807346" fill="#ffba11" stroke="none" /><path d="M 91.90106846888425 80.62456947434976 l -5.773280737770589 -13.811673726341324 a35.969739530132784,35.969739530132784 0 0,0 0.5733167632114243,-0.23387030284056623 l 5.534680104970785 13.909004915365466" fill="#ffba11" stroke="none" /><path d="M 93.25333710446033 80.11325718540243 l -4.808477393960742 -14.173667003093177 a35.96710697372087,35.96710697372087 0 0,0 0.5880059837296765,-0.19385632797739058 l 4.563788587988657 14.254337055329803" fill="#ffba11" stroke="none" /><path d="M 93.59665428221793 80.00007090966166 l -4.51772124566484 -14.110452339360446 a35.81602748630328,35.81602748630328 0 0,0 0.5887722180793562,-0.18293439415355514 l 4.274163654874755 14.186126868396528" fill="#ffb811" stroke="none" /><path d="M 93.94186890950719 79.89281104454417 l -4.2367820213931635 -14.06205567273397 a35.68644720958306,35.68644720958306 0 0,0 0.5896926798296208,-0.17214746368025718 l 3.9940991238401216 14.132901465332926" fill="#ffb710" stroke="none" /><path d="M 94.28887869178378 79.79150937346287 l -4.07249512229746 -14.410301421398291 a35.974712136688645,35.974712136688645 0 0,0 0.597355145553919,-0.16327972650123945 l 3.823842087519819 14.478267688725825" fill="#ffba11" stroke="none" /><path d="M 95.33964822691252 79.52364482259891 l -3.2891312215589594 -14.45157412937122 a35.82114634599313,35.82114634599313 0 0,0 0.6024046886309042,-0.1316623324115801 l 3.039883808774534 14.506049959878668" fill="#ffb811" stroke="none" /><path d="M 95.692805502759 79.44645832069477 l -3.1209661752387543 -14.892967662259313 a36.21646856718358,36.21646856718358 0 0,0 0.6112539519374985,-0.12261179238003826 l 2.864145813834119 14.944483410716561" fill="#ffbe11" stroke="none" /><path d="M 96.04723909329186 79.375362276772 l -2.258183052121382 -11.782702890958264 a32.99714458166961,32.99714458166961 0 0,0 0.5587593144245211,-0.1021096932114268 l 2.0550286165939675 11.819828065520426" fill="#ff930d" stroke="none" /><path d="M 96.40284397218896 79.31037775812273 l -2.538961175252333 -14.603244117472862 a35.8223163710651,35.8223163710651 0 0,0 0.6084178103815134,-0.10039415183791241 l 2.287214158731934 14.644784532250402" fill="#ffb811" stroke="none" /><path d="M 96.75951476605007 79.25152402106235 l -2.2750950629201276 -14.567187274375783 a35.74377843810939,35.74377843810939 0 0,0 0.6087182821977876,-0.08970925145793289 l 2.0240078002936914 14.604191009994684" fill="#ffb711" stroke="none" /><path d="M 97.83486435360386 79.11191278185805 l -1.312486571162365 -12.662178472148941 a33.7300190361222,33.7300190361222 0 0,0 0.5780279197080184,-0.054890715907241476 l 1.0943335243641101 12.682894732571363" fill="#ff9d0e" stroke="none" /><path d="M 98.19473922651362 79.07773832637324 l -1.2937604422931728 -14.994174201419918 a36.04988624756245,36.04988624756245 0 0,0 0.6187015559996846,-0.04802314837672962 l 1.035468696931154 15.01422261198511" fill="#ffbb11" stroke="none" /><path d="M 98.55514903715128 79.0497635885617 l -1.0645595883806547 -15.436038473245219 a36.4727040579441,36.4727040579441 0 0,0 0.6267017050260627,-0.037804358295289255 l 0.798695834514969 15.452076100920815" fill="#ffc111" stroke="none" /><path d="M 98.91598698831166 79.02799685794201 l -0.7666631443260452 -14.832351363258878 a35.852152010400225,35.852152010400225 0 0,0 0.6165873036727412,-0.02655154632199849 l 0.5112350082639798 14.84335063610507" fill="#ffb911" stroke="none" /><path d="M 99.27714615592234 79.0124445844662 l -0.3926075035153074 -11.399084066704667 a32.405843160924874,32.405843160924874 0 0,0 0.5576480277338305,-0.014402403334428814 l 0.19633284058659792 11.404153262181456" fill="#ff8b0c" stroke="none" /><path d="M 99.63851952072746 79.00311137660856 l -0.2974636257072491 -17.278417443328202 a38.28097780666728,38.28097780666728 0 0,0 0.6589441049797806,-0.005671739947639322 l 4.232618831414307e-15 17.28097780666728" fill="#ffd814" stroke="none" /></svg>