<?xml version="1.0" encoding="utf-8" ?>
<svg baseProfile="full" height="200mm" version="1.1" viewBox="0,0,200,200" width="200mm" xmlns="http://www.w3.org/2000/svg" xmlns:ev="http://www.w3.org/2001/xml-events" xmlns:xlink="http://www.w3.org/1999/xlink"><defs /><rect fill="#1a1a1a" height="200" width="200" x="0" y="0" /><rect fill="#1a1a1a" height="200" width="180" x="10" y="0" /><text alignment-baseline="middle" fill="#e1ed5e" style="dominant-baseline: central; font-size:9.0px; font-family:Arial;" text-anchor="middle" x="100.0" y="100.0">2022</text><line stroke="#e1ed5e" stroke-width="0.3" x1="100.0" x2="100.0" y1="15.0" y2="10.0" /><path d="M 100.0 14.0 a86.0,86.0 0 0,1 42.46469731375804,11.215312516191453" fill="none" id="id73" stroke="none" /><text fill="#e1ed5e" style="font-size:6.75px; font-family:Arial;" text-anchor="middle"><textPath startOffset="22.20632615414155" xlink:href="#id73">January</textPath></text><path d="M 102.52436894288641 79.15227682838746 l 1.2112334061240506 -10.003077726907307 a31.07614263369966,31.07614263369966 0 0,0 0.5304923537605105,0.06887313275061159 l -1.3832404883924072 9.98074627099256" fill="#ff5608" stroke="none" /><path d="M 103.59715602781102 79.31037775812273 l 1.4961774918173463 -8.605505814363442 a29.734602303944,29.734602303944 0 0,0 0.503512840540353,0.09201375323566771 l -1.6440854534606 8.578476579777035" fill="#ff4306" stroke="none" /><path d="M 103.95276090670814 79.375362276772 l 1.2652732475388087 -6.601917739849535 a27.722070680577332,27.722070680577332 0 0,0 0.46788728801538837,0.09385378832081244 l -1.3787269450213224 6.579159995451514" fill="#ff2503" stroke="none" /><path d="M 104.307194497241 79.44645832069477 l 1.847927232893581 -8.818141234608886 a30.009686448016893,30.009686448016893 0 0,0 0.5046732911899255,0.11030203429343732 l -1.9994432482370346 8.78502570221958" fill="#ff4706" stroke="none" /><path d="M 105.01212808612495 79.60689891045804 l 1.7708144453556187 -7.205003019561306 a28.419423987869116,28.419423987869116 0 0,0 0.4740510291258157,0.12084616251063417 l -1.8945743631664593 7.173453860881804" fill="#ff2f04" stroke="none" /><path d="M 105.36241919743992 79.69619591428918 l 1.8457324230195407 -6.988522928144861 a28.228151969528035,28.228151969528035 0 0,0 0.46872457976610904,0.12812013382365664 l -1.9657548920093604 6.955716253494911" fill="#ff2c04" stroke="none" /><path d="M 105.71112130821622 79.79150937346287 l 1.57047055594958 -5.5570242333150786 a26.77467714220939,26.77467714220939 0 0,0 0.44243213741160065,0.12915807319847636 l -1.6658929110846077 5.529167831197899" fill="#ff1602" stroke="none" /><path d="M 107.4271985657038 80.35727306442388 l 2.0758322883407243 -5.489957814271134 a26.869302896579335,26.869302896579335 0 0,0 0.431209877184307,0.1673027331001244 l -2.170025330524698 5.453412377280462" fill="#ff1802" stroke="none" /><path d="M 107.76421540070413 80.48803036053334 l 2.318402555440376 -5.8262938286992965 a27.27062119629403,27.27062119629403 0 0,0 0.43466270479735414,0.17730983101739453 l -2.418349129826118 5.785523111498323" fill="#ff1e03" stroke="none" /><path d="M 108.09893153111575 80.62456947434976 l 2.5870254299178193 -6.189054851604323 a27.70798781537418,27.70798781537418 0 0,0 0.43846735190461333,0.1877288374082228 l -2.693176539612748 6.14360648623331" fill="#ff2403" stroke="none" /><path d="M 108.76106565485865 80.91482961587045 l 3.9837265054606186 -8.678179358047007 a30.548867673224017,30.548867673224017 0 0,0 0.47601214870496433,0.22349408644304883 l -4.132516865465181 8.608320288963956" fill="#ff4f07" stroke="none" /><path d="M 109.08828744355905 81.06846463323043 l 3.825044979892088 -7.9678349486659155 a29.838402732812057,29.838402732812057 0 0,0 0.4611151920624746,0.22626722214376419 l -3.9616314389649947 7.900812566387319" fill="#ff4406" stroke="none" /><path d="M 109.41281617654863 81.2277094730956 l 3.9233219838488007 -7.824410753382586 a29.752934309510174,29.752934309510174 0 0,0 0.4558425989307423,0.23350028419492533 l -4.057425070368299 7.75571794387516" fill="#ff4306" stroke="none" /><line stroke="#e1ed5e" stroke-width="0.3" x1="143.23703022742887" x2="145.7803849466894" y1="26.81831364943548" y2="22.513508569990506" /><path d="M 143.74570117128098 25.957352633546492 a86.0,86.0 0 0,1 28.547481713284135,27.462654790039103" fill="none" id="id74" stroke="none" /><text fill="#e1ed5e" style="font-size:6.75px; font-family:Arial;" text-anchor="middle"><textPath startOffset="19.985693538727396" xlink:href="#id74">February</textPath></text><path d="M 111.90073688211348 82.69761687909136 l 5.445617499948893 -7.9173383335324505 a30.609318198674245,30.609318198674245 0 0,0 0.43154599796204274,0.30232554986032123 l -5.581094637494587 7.822427940908193" fill="#ff5007" stroke="none" /><path d="M 112.19680574252982 82.90503203632743 l 5.055078978623151 -7.085167626476705 a29.70364428129914,29.70364428129914 0 0,0 0.4136652329250921,0.300545384077321 l -5.176289527902033 6.99710300758271" fill="#ff4206" stroke="none" /><path d="M 112.48926042617603 83.11751280151076 l 4.112121859490762 -5.558603334588045 a27.914305259286365,27.914305259286365 0 0,0 0.38382680994197793,0.28909039568402195 l -4.207194823191123 5.486996349398176" fill="#ff2703" stroke="none" /><path d="M 112.77801427241765 83.33499621200491 l 4.089227262724966 -5.333143818001912 a27.720431726437308,27.720431726437308 0 0,0 0.37616288566477624,0.29360109885818236 l -4.180422703549173 5.261964329920506" fill="#ff2503" stroke="none" /><path d="M 113.34407831869373 83.78471172551755 l 3.9551909309151143 -4.806218878044281 a27.22440962691743,27.22440962691743 0 0,0 0.359287616135134,0.30089304595448085 l -4.0373360840093655 4.737424674695981" fill="#ff1d02" stroke="none" /><path d="M 113.89432698308785 84.25364557470407 l 6.508363857929085 -7.375888314740251 a30.836794627251265,30.836794627251265 0 0,0 0.39498852059474276,0.3546245937551802 l -6.6343633661198185 7.262764712215774" fill="#ff5307" stroke="none" /><path d="M 114.16331599549186 84.49514656593476 l 3.958964226476186 -4.333954004963161 a26.869970618636383,26.869970618636383 0 0,0 0.3388074467847151,0.31488459721693185 l -4.032979557055748 4.265164821671588" fill="#ff1802" stroke="none" /><path d="M 114.94478906791727 85.2469230424477 l 3.0787669028642504 -3.039272407653407 a25.326197222746053,25.326197222746053 0 0,0 0.3035956621651549,0.31288201667331345 l -3.1306268287325145 2.985826195429979" fill="#ff0000" stroke="none" /><path d="M 115.68641384162765 86.03803664274999 l 7.609250570049347 -6.772744790987808 a31.18679371743871,31.18679371743871 0 0,0 0.35346241207950757,0.40406863916298635 l -7.724704845706702 6.640760595621874" fill="#ff5808" stroke="none" /><path d="M 116.15771136456269 86.58626213691792 l 7.360838365899086 -6.110788469042566 a30.56680077989897,30.56680077989897 0 0,0 0.33259809860032935,0.40772594204215 l -7.464934956575825 5.983178357392315" fill="#ff4f07" stroke="none" /><path d="M 116.38621287248628 86.86637796730983 l 8.266779125525188 -6.62586000238547 a31.59441635397772,31.59441635397772 0 0,0 0.3364743949324974,0.42728831205448503 l -8.37960760105165 6.4825792963779465" fill="#ff5e08" stroke="none" /><path d="M 116.60985879189232 87.15038557335679 l 4.842338150140058 -3.746099165099264 a27.12221346532929,27.12221346532929 0 0,0 0.28248955424976363,0.3717231403393428 l -4.906103644613936 3.6621912488788877" fill="#ff1c02" stroke="none" /><path d="M 116.82858285166822 87.43820079747576 l 4.897319887426534 -3.6556345592868733 a27.111252417535702,27.111252417535702 0 0,0 0.2759375363432244,0.3763784894673175 l -4.959520036283384 3.5707936261480624" fill="#ff1b02" stroke="none" /><path d="M 117.2510076193507 88.02491185347247 l 5.028022431451507 -3.490289561510015 a27.120713258629692,27.120713258629692 0 0,0 0.2629101758605051,0.38578824166354087 l -5.087357072980746 3.403223296576068" fill="#ff1b02" stroke="none" /><path d="M 117.65298651832404 88.62581576622439 l 5.348462097316571 -3.4461247222444578 a27.36253270386066,27.36253270386066 0 0,0 0.2516993435811149,0.3981279158172184 l -5.406989037143642 3.353549158713033" fill="#ff1f03" stroke="none" /><line stroke="#e1ed5e" stroke-width="0.3" x1="172.23445277983987" x2="176.4835382374775" y1="55.19839476539836" y2="52.563006222186495" /><path d="M 173.08426987136738 54.67131705675599 a86.0,86.0 0 0,1 12.851231095245387,41.99856678651699" fill="none" id="id75" stroke="none" /><text fill="#e1ed5e" style="font-size:6.75px; font-family:Arial;" text-anchor="middle"><textPath startOffset="22.20632615414155" xlink:href="#id75">March</textPath></text><path d="M 118.03404312379186 89.2402003453031 l 5.324558875786922 -3.176835408446074 a27.20025890056843,27.20025890056843 0 0,0 0.236435434009578,0.4041447983943595 l -5.378453984266827 3.084711197697819" fill="#ff1d02" stroke="none" /><path d="M 118.21658344932153 89.55222093294921 l 5.301146954601975 -3.0403732037751228 a27.111139685240357,27.111139685240357 0 0,0 0.22869196338541917,0.40681748472764084 l -5.352696559279828 2.948672209112688" fill="#ff1b02" stroke="none" /><path d="M 118.73160827565052 90.50648371742162 l 8.068185782067069 -4.0891017987221465 a30.04524047962584,30.04524047962584 0 0,0 0.22983176387899204,0.46332681145571625 l -8.137377558899468 3.949615398767481" fill="#ff4706" stroke="none" /><path d="M 118.89224826269711 90.83032412892265 l 8.236009932515495 -3.997488308538615 a30.154876972706777,30.154876972706777 0 0,0 0.2226317423965759,0.4689192276601819 l -8.303599868753826 3.8551266652378926" fill="#ff4906" stroke="none" /><path d="M 119.04729006885535 91.15688171328212 l 8.139135080126154 -3.778770313516623 a29.973551411501173,29.973551411501173 0 0,0 0.2132371015837274,0.46983968769081474 l -8.202974498673228 3.6381086169837453" fill="#ff4606" stroke="none" /><path d="M 119.196687751892 91.48605970444005 l 5.688670428939282 -2.522987351728577 a27.223056839373285,27.223056839373285 0 0,0 0.18629553210946143,0.4299957733613168 l -5.731256670891424 2.4246924337806575" fill="#ff1d02" stroke="none" /><path d="M 119.34039704204932 91.81776055985345 l 8.439189534183656 -3.5703232616858793 a30.163357910002766,30.163357910002766 0 0,0 0.1981852020128598,0.47992118658335386 l -8.499396423082715 3.4245275046492223" fill="#ff4906" stroke="none" /><path d="M 119.61058180528143 92.48833698450437 l 13.828474739354407 -5.296877129486748 a35.80822814997941,35.80822814997941 0 0,0 0.21552360628782544,0.5774961132558547 l -13.917602934143858 5.05805787920156" fill="#ff9a0e" stroke="none" /><path d="M 119.7369772167798 92.82701384747503 l 7.62296239840308 -2.770404156847127 a29.110776468362513,29.110776468362513 0 0,0 0.16710544849978065,0.4724296055705809 l -7.66952092771267 2.6387769248499318" fill="#ff3905" stroke="none" /><path d="M 119.85752413597 93.16781622104841 l 5.805723219409871 -1.997518307576117 a27.139747673113014,27.139747673113014 0 0,0 0.14818651974049735,0.44305883248784206 l -5.839247032922138 1.897286372165961" fill="#ff1c02" stroke="none" /><path d="M 119.97218684219823 93.5106431181261 l 5.9612657045021535 -1.9369326418704824 a27.268045696931136,27.268045696931136 0 0,0 0.14120240180472493,0.4476502007568479 l -5.993723590075085 1.8340322746872153" fill="#ff1e03" stroke="none" /><path d="M 120.37134235888165 94.90015583598534 l 16.892856405413944 -4.229025934323225 a38.4141683087971,38.4141683087971 0 0,0 0.15506007037363354,0.6428240979634532 l -16.963149276048398 3.937616604700366" fill="#ffbe11" stroke="none" /><path d="M 120.45610955862082 95.25157060432595 l 30.026034816959307 -6.969874010099642 a51.82437202192309,51.82437202192309 0 0,0 0.1942318556295195,0.8707033237475497 l -30.141561059590863 6.451992516802128" fill="#98ff23" stroke="none" /><path d="M 120.53481517161879 95.60439243477599 l 6.09138745402887 -1.3039001594056823 a27.22937851962766,27.22937851962766 0 0,0 0.09416269713773429,0.45917075244482064 l -6.1129294470816005 1.19885375079745" fill="#ff1d02" stroke="none" /><path d="M 120.87857604477298 97.74499172005257 l 8.574701999345745 -0.9261179481369497 a29.62457006646971,29.62457006646971 0 0,0 0.050394037771547995,0.5074610831080999 l -8.589373162799522 0.7783813343244149" fill="#ff4106" stroke="none" /><path d="M 120.91429891909075 98.10471618934814 l 8.598461317972546 -0.7792049160009876 a29.63369546241876,29.63369546241876 0 0,0 0.041664293088752864,0.5084099074672749 l -8.610600094880795 0.6310810913259439" fill="#ff4106" stroke="none" /><line stroke="#e1ed5e" stroke-width="0.3" x1="184.98032266829074" x2="189.97916517819016" y1="98.17113171792111" y2="98.06355123074" /><path d="M 185.9800911702706 98.14961562048488 a86.0,86.0 0 0,1 -9.607161424134198,41.387399972396054" fill="none" id="id76" stroke="none" /><text fill="#e1ed5e" style="font-size:6.75px; font-family:Arial;" text-anchor="middle"><textPath startOffset="21.466115282336823" xlink:href="#id76">April</textPath></text><path d="M 120.99513854157772 99.54816195383933 l 8.67599017175833 -0.1867166744317112 a29.677999111371122,29.677999111371122 0 0,0 0.006595571933962534,0.510834314860689 l -8.677918750810008 0.03734610151055953" fill="#ff4206" stroke="none" /><path d="M 120.9904718944345 100.63252640178507 l 8.582439966165536 0.2586230503838474 a29.58633575252129,29.58633575252129 0 0,0 -0.019721218918261438,0.5089170310139846 l -8.576716614396071 -0.40631732841183815" fill="#ff4006" stroke="none" /><path d="M 120.9764740272857 100.99374915477107 l 8.641991997185569 0.40940971450065566 a29.65168434431972,29.65168434431972 0 0,0 -0.02854136871094379,0.5096253113409103 l -8.633664277587096 -0.5581067421769892" fill="#ff4106" stroke="none" /><path d="M 120.95626037817324 101.35467743843564 l 8.6038794850667 0.5561813611353463 a29.621837385385206,29.621837385385206 0 0,0 -0.03727194678129786,0.5085461011312209 l -8.593030979621066 -0.7042005987633376" fill="#ff4106" stroke="none" /><path d="M 120.92983693683757 101.71520430193887 l 8.530310654761934 0.6990606556600045 a29.558906803268556,29.558906803268556 0 0,0 -0.045922441336425764,0.5067503134921408 l -8.517013617148434 -0.8457923577007158" fill="#ff4006" stroke="none" /><path d="M 120.89721153311464 102.0752229133903 l 8.807077172090144 0.8745974705073033 a29.850397112591565,29.850397112591565 0 0,0 -0.05517731977097385,0.5108734531173814 l -8.790717550818119 -1.0260672455094761" fill="#ff4406" stroke="none" /><path d="M 120.81339534386255 102.79330883721812 l 8.722869176172601 1.1706724036684077 a29.8010749651013,29.8010749651013 0 0,0 -0.07260953720546724,0.5078309341006079 l -8.701425587950533 -1.320648809749425" fill="#ff4406" stroke="none" /><path d="M 120.76222939487914 103.15116336523771 l 8.564034212476546 1.2997963925615084 a29.66211017331139,29.66211017331139 0 0,0 -0.08096095795601847,0.5041439624753964 l -8.54039150015924 -1.4470195847301097" fill="#ff4206" stroke="none" /><path d="M 120.70491114924044 103.5080841355445 l 8.607139233110335 1.4583288176633737 a29.729809202873486,29.729809202873486 0 0,0 -0.0898315315475929,0.5038229352181752 l -8.580761259223554 -1.6062705036147673" fill="#ff4306" stroke="none" /><path d="M 120.02730092923936 106.31721596034902 l 7.497618904953966 2.3649755889890964 a28.861768171374518,28.861768171374518 0 0,0 -0.15352776924357986,0.4725098879002103 l -7.455798884694139 -2.493684376867102" fill="#ff3605" stroke="none" /><path d="M 119.67450827220406 107.3425965602758 l 8.470133028572667 3.1610838136443458 a30.040774546387155,30.040774546387155 0 0,0 -0.18497352353760171,0.48290750099709795 l -8.414465225441559 -3.3064148814745873" fill="#ff4706" stroke="none" /><path d="M 119.54520255179757 107.68017299344265 l 9.934608720261744 3.9037463741585436 a31.674066056496777,31.674066056496777 0 0,0 -0.20376588190816083,0.5057302081777072 l -9.86594022409619 -4.074175950179065" fill="#ff5f08" stroke="none" /><path d="M 119.41010516605496 108.01547362559984 l 9.83533824492345 4.061538751418327 a31.640957448525327,31.640957448525327 0 0,0 -0.212218943369557,0.501622893663192 l -9.763968320361585 -4.230236170747683" fill="#ff5f08" stroke="none" /><path d="M 119.26925614724726 108.34839909993367 l 8.023218198547028 3.476056733870866 a29.74385502387735,29.74385502387735 0 0,0 -0.207582244200464,0.46804316056002854 l -7.962194869615291 -3.6136482309235824" fill="#ff4306" stroke="none" /><path d="M 119.12269723197855 108.67885076344098 l 8.293682204904599 3.7640940115604056 a30.107884948977787,30.107884948977787 0 0,0 -0.21824687250001992,0.4700843472117879 l -8.227660715564747 -3.906298426051024" fill="#ff4806" stroke="none" /><path d="M 118.64920377521936 109.65438752849418 l 4.558159693640311 2.359684661585413 a26.13273138736566,26.13273138736566 0 0,0 -0.21024092481562087,0.3976965983899694 l -4.516866260599798 -2.4377962750615163" fill="#ff0c01" stroke="none" /><line stroke="#e1ed5e" stroke-width="0.3" x1="174.80103733775053" x2="179.2010983576182" y1="140.37084112569926" y2="142.7455964860345" /><path d="M 175.68104954172406 140.8457921977663 a86.0,86.0 0 0,1 -30.038265399797805,32.042727171017184" fill="none" id="id77" stroke="none" /><text fill="#e1ed5e" style="font-size:6.75px; font-family:Arial;" text-anchor="middle"><textPath startOffset="22.206326154141568" xlink:href="#id77">May</textPath></text><path d="M 118.48025628344425 109.97397251340804 l 8.21491142971921 4.4336669115083485 a30.33499716552369,30.33499716552369 0 0,0 -0.25195900594709153,0.45737878223446754 l -8.137376014320608 -4.574416212140621" fill="#ff4c07" stroke="none" /><path d="M 118.30583269289576 110.29060199501025 l 7.965737073820423 4.4779295866391156 a30.13809720413036,30.13809720413036 0 0,0 -0.25810841056801886,0.45003376984801335 l -7.887476667100025 -4.614383202345444" fill="#ff4906" stroke="none" /><path d="M 117.94076556474637 110.91462005526583 l 6.156938851459046 3.7456956908923447 a28.206811516154374,28.206811516154374 0 0,0 -0.25592357124039655,0.4126302846786131 l -6.091550640550686 -3.8511223069362313" fill="#ff2c04" stroke="none" /><path d="M 117.75023020441432 111.22182372390056 l 7.4528686130427895 4.711757360316269 a29.817364004382085,29.817364004382085 0 0,0 -0.2780045170940101,0.4314691842005375 l -7.370659232571729 -4.83934814443826" fill="#ff4406" stroke="none" /><path d="M 117.14729908036423 112.12312394758627 l 7.219601994814508 5.104251662327583 a29.84172143849282,29.84172143849282 0 0,0 -0.30015117133847036,0.4168837250258248 l -7.130671031100435 -5.227768992804538" fill="#ff4406" stroke="none" /><path d="M 116.71984013943494 112.70617746262583 l 7.089181087106848 5.387395585500767 a29.90396089841294,29.90396089841294 0 0,0 -0.3149786804241137,0.40715240400157554 l -6.995395589464666 -5.508625983615595" fill="#ff4506" stroke="none" /><path d="M 116.498646956653 112.99209946851258 l 6.735325525403163 5.303830029744543 a29.572935490108822,29.572935490108822 0 0,0 -0.31837671439385307,0.3972239038640783 l -6.643030898954456 -5.418981767186872" fill="#ff4006" stroke="none" /><path d="M 116.0416608686014 113.55231037782055 l 6.941292861257365 5.864140630427845 a30.08678666631814,30.08678666631814 0 0,0 -0.3376274590887566,0.39273701132759 l -6.8393228925978296 -5.982754740916963" fill="#ff4806" stroke="none" /><path d="M 115.80600337817218 113.82643327865902 l 6.5241672850675085 5.707069744801447 a29.66806805669944,29.66806805669944 0 0,0 -0.3395456002599301,0.3814830813902259 l -6.42496283515924 -5.818526995932539" fill="#ff4206" stroke="none" /><path d="M 115.56566222782051 114.09645910891815 l 6.524314994422674 5.9085015585269005 a29.80210638504008,29.80210638504008 0 0,0 -0.347625381348057,0.37727869460666824 l -6.421643205078895 -6.019931507934904" fill="#ff4406" stroke="none" /><path d="M 115.32070863581623 114.36230785411682 l 6.345166527517262 5.948238898088356 a29.697280278952544,29.697280278952544 0 0,0 -0.3528227081648256,0.3699331989442211 l -6.241837267973471 -6.056579213615084" fill="#ff4206" stroke="none" /><path d="M 114.55890576462653 115.13401014063108 l 6.043782464357925 6.282523328476771 a29.717649101067053,29.717649101067053 0 0,0 -0.37170292880945444,0.3514683197163695 l -5.934743701157663 -6.385626284939062" fill="#ff4206" stroke="none" /><path d="M 114.29624159901734 115.38237550388516 l 5.9888077069342645 6.443797716384168 a29.79706466728039,29.79706466728039 0 0,0 -0.3787071421077203,0.34593999525572916 l -5.877001015359681 -6.54593047822648" fill="#ff4406" stroke="none" /><path d="M 113.75828350139079 115.86535959552629 l 5.868404036368961 6.76714797157798 a29.957257258966244,29.957257258966244 0 0,0 -0.39248931900021283,0.33448791252591253 l -5.7510492407917 -6.86716027432684" fill="#ff4606" stroke="none" /><path d="M 113.48314897796784 116.09983520530334 l 5.862671139646218 7.000444730339104 a30.13110832890363,30.13110832890363 0 0,0 -0.4004996378406122,0.32958393606629954 l -5.741301373260915 -7.1003237852625825" fill="#ff4906" stroke="none" /><path d="M 113.20401910651253 116.32954008644616 l 5.513837028038701 6.819016395930545 a29.76934338361432,29.76934338361432 0 0,0 -0.4012375995931587,0.31876741568146433 l -5.39564193572819 -6.9129177256171355" fill="#ff4306" stroke="none" /><path d="M 112.92097659922987 116.55440617244103 l 5.252427952514058 6.729431405562875 a29.536582831468746,29.536582831468746 0 0,0 -0.40348557489622294,0.3093755333228679 l -5.135813649124341 -6.818846280713114" fill="#ff4006" stroke="none" /><path d="M 112.63410532772338 116.77436683061366 l 5.1424762893672 6.827692302540151 a29.547657255931,29.547657255931 0 0,0 -0.40890444226164335,0.3024977308605877 l -5.024186876686993 -6.915199982140508" fill="#ff4006" stroke="none" /><path d="M 112.04921762599082 117.19931262002967 l 4.929376177256503 7.036297668944268 a29.59117188647128,29.59117188647128 0 0,0 -0.4196917534441123,0.28866781497258687 l -4.807527539189508 -7.120106273281949" fill="#ff4106" stroke="none" /><path d="M 111.45004920935366 117.60387380957326 l 4.93913332299517 7.593668652151867 a30.05863353828795,30.05863353828795 0 0,0 -0.43616250689137154,0.2783795482128451 l -4.807689014056868 -7.677562629188521" fill="#ff4706" stroke="none" /><path d="M 111.1453310114006 117.79835938074945 l 4.597492937779202 7.341893342902946 a29.6625827079164,29.6625827079164 0 0,0 -0.43508059322697495,0.267262035809281 l -4.470433144619919 -7.419943845540605" fill="#ff4206" stroke="none" /><line stroke="#e1ed5e" stroke-width="0.3" x1="143.8653032363475" x2="146.44561519142675" y1="172.8068346515853" y2="177.08958963109032" /><path d="M 144.38136562736335 173.6633856474863 a86.0,86.0 0 0,1 -40.68145358897372,12.25698825130547" fill="none" id="id78" stroke="none" /><text fill="#e1ed5e" style="font-size:6.75px; font-family:Arial;" text-anchor="middle"><textPath startOffset="21.466115282336833" xlink:href="#id78">June</textPath></text><path d="M 110.5260780823613 118.17145234162733 l 4.451514601605764 7.684769654776427 a29.880972181877496,29.880972181877496 0 0,0 -0.44729145004602566,0.2539837589259003 l -4.31857438463854 -7.760256579496955" fill="#ff4506" stroke="none" /><path d="M 110.21172684928248 118.3499491758327 l 4.310852987621274 7.746381625248332 a29.865093443662523,29.865093443662523 0 0,0 -0.45135711335379364,0.2461158860235137 l -4.176873062398832 -7.8194381630316165" fill="#ff4506" stroke="none" /><path d="M 109.89434966115114 118.52300852407294 l 4.14973562658579 7.768634727525378 a29.80749631281607,29.80749631281607 0 0,0 -0.4546482019953774,0.2378504512829429 l -4.015396522063917 -7.838914597753038" fill="#ff4406" stroke="none" /><path d="M 109.2508944713604 118.85261126421891 l 3.82989772857322 7.805036937999787 a29.69406223895777,29.69406223895777 0 0,0 -0.4608056532994754,0.22121471669718296 l -3.6949794072735114 -7.869805931196529" fill="#ff4206" stroke="none" /><path d="M 108.59647513512805 119.15986991738527 l 3.6368171153929003 8.10575750513241 a29.884241299223312,29.884241299223312 0 0,0 -0.4711454498910355,0.20653631954376597 l -3.496750990844111 -8.16715837797063" fill="#ff4506" stroke="none" /><path d="M 108.2653958097858 119.30500536409082 l 3.609407394022395 8.430283401587898 a30.17046890661061,30.17046890661061 0 0,0 -0.4791767838428127,0.20029593450868355 l -3.4637591506821215 -8.491164379116555" fill="#ff4906" stroke="none" /><path d="M 107.93186726928326 119.44442032107085 l 2.7280779481090867 6.687693135902777 a28.22271754749971,28.22271754749971 0 0,0 -0.45140076195374007,0.17962167903140705 l -2.61255611011348 -6.733661659340253" fill="#ff2c04" stroke="none" /><path d="M 107.59598834532513 119.57807347666477 l 3.1853081723524395 8.209885877789295 a29.80615774780235,29.80615774780235 0 0,0 -0.47992140663089683,0.1814652107454444 l -3.0435165449612676 -8.26349933864137" fill="#ff4406" stroke="none" /><path d="M 107.2578585660854 119.70592522655815 l 3.0197751672002235 8.199038752826048 a29.737464078940896,29.737464078940896 0 0,0 -0.48186082583521367,0.17277814835749694 l -2.878194780735275 -8.249804442223507" fill="#ff4306" stroke="none" /><path d="M 106.57524785965236 119.94407469862006 l 2.783103280754271 8.441722792830564 a29.888663993106064,29.888663993106064 0 0,0 -0.4900013826940666,0.1568829690049814 l -2.6373805529692644 -8.488378608495251" fill="#ff4506" stroke="none" /><path d="M 105.88484417918355 120.15858648285463 l 2.231187304576944 7.642952110416238 a28.961966701149997,28.961966701149997 0 0,0 -0.47976026312963593,0.1355850425561756 l -2.0992958733427023 -7.680225946310933" fill="#ff3705" stroke="none" /><path d="M 105.18746579009965 120.34920634021253 l 2.1491892298577597 8.4307630878271 a29.7003896802847,29.7003896802847 0 0,0 -0.496486868529075,0.12202439281894925 l -2.003749076585474 -8.466508738960078" fill="#ff4206" stroke="none" /><path d="M 104.83641907484287 120.43548508189849 l 2.027479921455214 8.566779480351977 a29.803430325553997,29.803430325553997 0 0,0 -0.500243269939596,0.11385373958599229 l -1.8797165021227558 -8.600409953515655" fill="#ff4406" stroke="none" /><path d="M 104.48393922423573 120.51570834832081 l 1.9223537659841101 8.795491471441233 a30.00311691725642,30.00311691725642 0 0,0 -0.5054932832884761,0.10593103233223325 l -1.770669021266256 -8.827278484500008" fill="#ff4706" stroke="none" /><path d="M 104.13013068566511 120.58985236759428 l 1.7571925862013116 8.760094700366555 a29.934594839408838,29.934594839408838 0 0,0 -0.5060833625078508,0.09699208091318405 l -1.6061416091217562 -8.789043979628206" fill="#ff4606" stroke="none" /><path d="M 103.7750983002368 120.6578951692458 l 1.6232456358017027 8.88263973847352 a30.02974058972118,30.02974058972118 0 0,0 -0.5092915713074632,0.08854686780766541 l -1.4701050930221895 -8.90926518480219" fill="#ff4706" stroke="none" /><path d="M 102.70371172650421 120.8252237178851 l 1.1268029942297417 8.679151778935273 a29.751991806988876,29.751991806988876 0 0,0 -0.5084368556727771,0.0615646225400187 l -0.9772387155055844 -8.697261930200643" fill="#ff4306" stroke="none" /><path d="M 102.34483914955558 120.86867818915974 l 0.9773416311081062 8.69817786193527 a29.75291350247207,29.75291350247207 0 0,0 -0.5094370405477137,0.05280523221515843 l -0.8274719939547899 -8.713712462606185" fill="#ff4306" stroke="none" /><path d="M 101.98527174616119 120.90594882070398 l 0.8229168853925096 8.665744789334292 a29.70473003338636,29.70473003338636 0 0,0 -0.5094441576894086,0.04395698555466308 l -0.6736284099615593 -8.678626027167619" fill="#ff4206" stroke="none" /><path d="M 101.62511606390274 120.93702456842531 l 0.45252724181875503 5.830090656471474 a26.84762669527254,26.84762669527254 0 0,0 -0.4610597129057609,0.03179737722477163 l -0.3521047681340638 -5.837016378212531" fill="#ff1702" stroke="none" /><path d="M 100.90346689309514 120.98055641714683 l 0.3882374557429008 9.015756864713023 a30.024112153872075,30.024112153872075 0 0,0 -0.5165286038205572,0.01779028950515227 l -0.23298850024769133 -9.021103952644268" fill="#ff4706" stroke="none" /><line stroke="#e1ed5e" stroke-width="0.3" x1="102.19456741930631" x2="102.32365962044197" y1="184.97166512339345" y2="189.96999836594603" /><path d="M 102.22038585953345 185.97133177190398 a86.0,86.0 0 0,1 -42.740103519485714,-10.115201625700543" fill="none" id="id79" stroke="none" /><text fill="#e1ed5e" style="font-size:6.75px; font-family:Arial;" text-anchor="middle"><textPath startOffset="22.20632615414155" xlink:href="#id79">July</textPath></text><path d="M 100.54218724476979 120.99299961872073 l 0.22504565317579323 8.713564099649918 a29.71646974782344,29.71646974782344 0 0,0 -0.5114633352832598,0.00880530515185695 l -0.07502262799986549 -8.716146882080935" fill="#ff4206" stroke="none" /><path d="M 100.18074693466247 120.99922214144158 l 0.08066862643248406 9.372100331682706 a30.37244749542069,30.37244749542069 0 0,0 -0.5228311221898726,0.0 l 0.0806686264324776 -9.372100331682706" fill="#ff4c07" stroke="none" /><path d="M 99.45781275523022 120.99299961872073 l -0.2239143683495078 8.66976177461213 a29.67265281634628,29.67265281634628 0 0,0 -0.510482170208095,-0.017582038106015843 l 0.37311689023224587 -8.66462293808002" fill="#ff4206" stroke="none" /><path d="M 99.09653310690486 120.98055641714683 l -0.3765413295725037 8.744146209297233 a29.752249785194856,29.752249785194856 0 0,0 -0.5114722459046455,-0.02643727286909396 l 0.5270016438906381 -8.736369129665936" fill="#ff4306" stroke="none" /><path d="M 98.01472825383883 120.90594882070398 l -0.8244406028778675 8.681790330619924 a29.720847759966873,29.720847759966873 0 0,0 -0.5088880026538931,-0.05274832219257877 l 0.973761202137354 -8.666312639971583" fill="#ff4206" stroke="none" /><path d="M 97.2962882734958 120.8252237178851 l -1.1783387847870792 9.07610399736664 a30.152275458198808,30.152275458198808 0 0,0 -0.5141270358209518,-0.07125332242856101 l 1.3343944117948618 -9.054476109445474" fill="#ff4906" stroke="none" /><path d="M 95.86986931433489 120.58985236759428 l -1.714296449814838 8.54624550707029 a29.71648579330953,29.71648579330953 0 0,0 -0.5006641147612017,-0.10491903311421938 l 1.8611520260054266 -8.515470493229529" fill="#ff4206" stroke="none" /><path d="M 95.16358092515715 120.4354850818985 l -2.009480336870816 8.490725226871753 a29.72527513047622,29.72527513047622 0 0,0 -0.4969028664122862,-0.12212663497746416 l 2.155336488026313 -8.454877333580258" fill="#ff4306" stroke="none" /><path d="M 94.46302465271185 120.25689768951611 l -2.258078998200398 8.26113037757942 a29.564180981125936,29.564180981125936 0 0,0 -0.4897360525641938,-0.13840430029584896 l 2.399946218869206 -8.22103728394505" fill="#ff4006" stroke="none" /><path d="M 92.06813273071674 119.44442032107085 l -3.306286434157445 8.105130979255682 a29.75355231752137,29.75355231752137 0 0,0 -0.472555184725181,-0.1975281055404866 l 3.4453130783800883 -8.047017830695221" fill="#ff4306" stroke="none" /><path d="M 91.07499286063937 119.00905698771935 l -3.812483538425729 8.120073823478005 a29.970542326386955,29.970542326386955 0 0,0 -0.4650961941586697,-0.2232744370453379 l 3.951692400584641 -8.053245109933105" fill="#ff4606" stroke="none" /><path d="M 90.7491055286396 118.85261126421891 l -3.791005234990861 7.725777028066291 a29.605774304449596,29.605774304449596 0 0,0 -0.4555709655480489,-0.2284327396238987 l 3.9234301082216705 -7.6593764475330905" fill="#ff4106" stroke="none" /><path d="M 90.10565033884886 118.52300852407294 l -4.125967324102422 7.724138577239651 a29.7570499096421,29.7570499096421 0 0,0 -0.4497242298765111,-0.2452255077578467 l 4.258314365847574 -7.651972417722038" fill="#ff4306" stroke="none" /><line stroke="#e1ed5e" stroke-width="0.3" x1="58.666819895761336" x2="56.23545636021788" y1="174.27360380694188" y2="178.64263932499728" /><path d="M 58.180547188652646 175.14741091055294 a86.0,86.0 0 0,1 -31.652253787137756,-30.449443065178592" fill="none" id="id80" stroke="none" /><text fill="#e1ed5e" style="font-size:6.75px; font-family:Arial;" text-anchor="middle"><textPath startOffset="22.20632615414155" xlink:href="#id80">August</textPath></text><path d="M 89.7882731507175 118.34994917583269 l -4.23944157164672 7.6180589749221115 a29.71823877768886,29.71823877768886 0 0,0 -0.4448554764141185,-0.25260054952269684 l 4.369945814982046 -7.543955259604782" fill="#ff4206" stroke="none" /><path d="M 82.6465618267979 111.8261652097733 l -8.21612200400347 5.59919107863278 a30.942615426521883,30.942615426521883 0 0,0 -0.2961604576762346,-0.4427197006473969 l 8.311285567090435 -5.456934463779562" fill="#ff5407" stroke="none" /><line stroke="#e1ed5e" stroke-width="0.3" x1="26.63291911575756" x2="22.317208475507996" y1="142.92168965132927" y2="145.44649492493687" /><path d="M 25.769776987707644 143.4266507060508 a86.0,86.0 0 0,1 -11.730757126820373,-40.83630448921669" fill="none" id="id81" stroke="none" /><text fill="#e1ed5e" style="font-size:6.75px; font-family:Arial;" text-anchor="middle"><textPath startOffset="21.46611528233685" xlink:href="#id81">September</textPath></text><path d="M 81.87401531095188 110.60418214915194 l -7.674394751739781 4.489724626166941 a29.89122950015019,29.89122950015019 0 0,0 -0.2559941884834851,-0.4463474454353247 l 7.750540936375644 -4.356957334873309" fill="#ff4506" stroke="none" /><line stroke="#e1ed5e" stroke-width="0.3" x1="15.007084014347285" x2="10.007500721073583" y1="101.09737516637583" y2="101.16192664675087" /><path d="M 14.007167355692545 101.11028546245083 a86.0,86.0 0 0,1 10.666146001902534,-42.60595125391555" fill="none" id="id82" stroke="none" /><text fill="#e1ed5e" style="font-size:6.75px; font-family:Arial;" text-anchor="middle"><textPath startOffset="22.20632615414155" xlink:href="#id82">October</textPath></text><line stroke="#e1ed5e" stroke-width="0.3" x1="26.266209847984243" x2="21.928928074336255" y1="57.711370442889674" y2="55.22380399835377" /><path d="M 25.398753493254645 57.213857153982495 a86.0,86.0 0 0,1 29.58750427330803,-30.492523968695096" fill="none" id="id83" stroke="none" /><text fill="#e1ed5e" style="font-size:6.75px; font-family:Arial;" text-anchor="middle"><textPath startOffset="21.46611528233685" xlink:href="#id83">November</textPath></text><path d="M 86.10567301691215 84.25364557470407 l -41.68298094926353 -47.23906327588782 a84.0,84.0 0 0,0 1.092424805412906,-0.9473400263212777 l 40.863662345203856 47.94956829562878" fill="#4dd2ff" stroke="none" /><line stroke="#e1ed5e" stroke-width="0.3" x1="56.762969772571076" x2="54.21961505331055" y1="26.818313649435495" y2="22.513508569990535" /><path d="M 56.25429882871897 25.957352633546506 a86.0,86.0 0 0,1 42.265352541879196,-11.944610805530505" fill="none" id="id84" stroke="none" /><text fill="#e1ed5e" style="font-size:6.75px; font-family:Arial;" text-anchor="middle"><textPath startOffset="22.20632615414155" xlink:href="#id84">December</textPath></text><path d="M 89.94658935756843 81.56283822128135 l -4.455976719682553 -8.171909671753015 a30.307837354060467,30.307837354060467 0 0,0 0.46018114615984,-0.24581283119625844 l 4.3146505269944075 8.247401229451023" fill="#ff4b07" stroke="none" /><path d="M 90.26544431104013 81.39251694778311 l -3.358410168750231 -6.419559586914228 a28.244975096679582,28.244975096679582 0 0,0 0.43273926265110474,-0.22166585801404481 l 3.2474104185103623 6.476417970240777" fill="#ff2c04" stroke="none" /><path d="M 91.23893434514133 80.91482961587045 l -3.055819167817499 -6.656819133474092 a28.324702844633876,28.324702844633876 0 0,0 0.444856832727394,-0.19959429357935496 l 2.9407802166233306 6.708433757569976" fill="#ff2e04" stroke="none" /><path d="M 92.23578459929587 80.48803036053334 l -3.2230775306393165 -8.099799873890431 a29.71751035362663,29.71751035362663 0 0,0 0.47691910873659976,-0.1850372048068933 l 3.08317525690304 8.154079782587877" fill="#ff4206" stroke="none" /><path d="M 92.57280143429618 80.3572730644239 l -2.360263878438609 -6.24219461078594 a27.67351774814356,27.67351774814356 0 0,0 0.44701649181984665,-0.16463994646460936 l 2.252465060846193 6.281897825056871" fill="#ff2403" stroke="none" /><path d="M 93.59665428221793 80.00007090966166 l -2.0489299206777716 -6.399537824551769 a27.719538539789575,27.719538539789575 0 0,0 0.45567572217352614,-0.14158066499507016 l 1.938468825793517 6.433858624429364" fill="#ff2503" stroke="none" /><path d="M 93.94186890950719 79.89281104454417 l -1.9348439531312016 -6.4218275213594715 a27.706973224716073,27.706973224716073 0 0,0 0.45783765458341524,-0.13365536610802886 l 1.824016080824365 6.4541812163862" fill="#ff2403" stroke="none" /><path d="M 94.63758080256005 79.69619591428918 l -2.3391385429550295 -8.856713538577441 a30.160400855178704,30.160400855178704 0 0,0 0.5030914444412592,-0.12824921098635783 l 2.186338209828771 8.895665745732662" fill="#ff4906" stroke="none" /><path d="M 94.98787191387505 79.60689891045804 l -2.083591982947887 -8.477616933861448 a29.729910906114625,29.729910906114625 0 0,0 0.4980132593088263,-0.1178636483153212 l 1.9373550366765264 8.51222649431764" fill="#ff4306" stroke="none" /><path d="M 95.692805502759 79.44645832069477 l -1.8409710978913134 -8.784947188974874 a29.975771370547974,29.975771370547974 0 0,0 0.5059247750407398,-0.10148375037999857 l 1.6894799133834373 8.815334895432082" fill="#ff4606" stroke="none" /><path d="M 96.40284397218896 79.31037775812273 l -1.5091361679367445 -8.680039727152403 a29.81025434583581,29.81025434583581 0 0,0 0.5063070039395711,-0.08354499385584106 l 1.359499957858288 8.70473098394787" fill="#ff4406" stroke="none" /></svg>