<?xml version="1.0" encoding="utf-8" ?>
<svg baseProfile="full" height="200mm" version="1.1" viewBox="0,0,200,200" width="200mm" xmlns="http://www.w3.org/2000/svg" xmlns:ev="http://www.w3.org/2001/xml-events" xmlns:xlink="http://www.w3.org/1999/xlink"><defs /><rect fill="#1a1a1a" height="200" width="200" x="0" y="0" /><rect fill="#1a1a1a" height="200" width="180" x="10" y="0" /><text alignment-baseline="middle" fill="#e1ed5e" style="dominant-baseline: central; font-size:9.0px; font-family:Arial;" text-anchor="middle" x="100.0" y="100.0">2016</text><line stroke="#e1ed5e" stroke-width="0.3" x1="100.0" x2="100.0" y1="15.0" y2="10.0" /><path d="M 100.0 14.0 a86.0,86.0 0 0,1 42.35913384403234,11.155469271406648" fill="none" id="id1" stroke="none" /><text fill="#e1ed5e" style="font-size:6.75px; font-family:Arial;" text-anchor="middle"><textPath startOffset="22.145653131862478" xlink:href="#id1">January</textPath></text><line stroke="#e1ed5e" stroke-width="0.3" x1="143.13028292997686" x2="145.6673583964461" y1="26.7553504044142" y2="22.446841604673864" /><path d="M 143.63769802327073 25.89364864446614 a86.0,86.0 0 0,1 29.32050498858742,28.57503671076993" fill="none" id="id2" stroke="none" /><text fill="#e1ed5e" style="font-size:6.75px; font-family:Arial;" text-anchor="middle"><textPath startOffset="20.669276256404974" xlink:href="#id2">February</textPath></text><line stroke="#e1ed5e" stroke-width="0.3" x1="172.87174338648825" x2="177.1583165268699" y1="56.24261187166439" y2="53.66864786411523" /><path d="M 173.72905801456457 55.72781907015455 a86.0,86.0 0 0,1 12.242430191666344,42.057860355516425" fill="none" id="id3" stroke="none" /><text fill="#e1ed5e" style="font-size:6.75px; font-family:Arial;" text-anchor="middle"><textPath startOffset="22.145653131862474" xlink:href="#id3">March</textPath></text><line stroke="#e1ed5e" stroke-width="0.3" x1="184.99686870605535" x2="189.99668451229388" y1="99.2704041080226" y2="99.22748670261217" /><path d="M 185.99683186730306 99.26182062694052 a86.0,86.0 0 0,1 -10.086455211305974,41.156179273409016" fill="none" id="id4" stroke="none" /><text fill="#e1ed5e" style="font-size:6.75px; font-family:Arial;" text-anchor="middle"><textPath startOffset="21.40746469413373" xlink:href="#id4">April</textPath></text><line stroke="#e1ed5e" stroke-width="0.3" x1="174.33088141563837" x2="178.70328620479359" y1="141.23008692659167" y2="143.65538615756765" /><path d="M 175.20536237346943 141.71514677278685 a86.0,86.0 0 0,1 -30.301960400862466,31.631185727798858" fill="none" id="id5" stroke="none" /><text fill="#e1ed5e" style="font-size:6.75px; font-family:Arial;" text-anchor="middle"><textPath startOffset="22.145653131862474" xlink:href="#id5">May</textPath></text><line stroke="#e1ed5e" stroke-width="0.3" x1="143.1302829299769" x2="145.66735839644613" y1="173.24464959558577" y2="177.55315839532614" /><path d="M 143.63769802327073 174.10635135553383 a86.0,86.0 0 0,1 -40.68552437913181,11.842963189579606" fill="none" id="id6" stroke="none" /><text fill="#e1ed5e" style="font-size:6.75px; font-family:Arial;" text-anchor="middle"><textPath startOffset="21.407464694133747" xlink:href="#id6">June</textPath></text><line stroke="#e1ed5e" stroke-width="0.3" x1="101.45913802915013" x2="101.54496967792366" y1="184.9874750549273" y2="189.98673829345242" /><path d="M 101.47630435890484 185.9873277026323 a86.0,86.0 0 0,1 -42.54439059252881,-10.42667462771756" fill="none" id="id7" stroke="none" /><text fill="#e1ed5e" style="font-size:6.75px; font-family:Arial;" text-anchor="middle"><textPath startOffset="22.145653131862474" xlink:href="#id7">July</textPath></text><path d="M 92.93061703081489 119.77432235084164 l -5.912356298768772 16.537912829803776 a38.562987153949045,38.562987153949045 0 0,0 -0.6214349141675816,-0.22819950825280486 l 6.195380364590473 -16.433982472542255" fill="#ffa50f" stroke="none" /><path d="M 92.59220618246901 119.65005319985036 l -11.590205754186334 30.74439776225866 a53.8565193407389,53.8565193407389 0 0,0 -0.862288364186199,-0.33355166333106107 l 12.11626638086606 -30.540906210789558" fill="#8fff24" stroke="none" /><path d="M 92.25597844496254 119.51999308798841 l -14.905117050334582 37.570631709945154 a61.41923900036356,61.41923900036356 0 0,0 -0.9766990886309285,-0.39721501654531244 l 15.547870600155951 -37.309229436820544" fill="#39ff2e" stroke="none" /><path d="M 91.26138138417905 119.09545874513695 l -2.806861190776549 6.133498259640463 a27.745240592099005,27.745240592099005 0 0,0 -0.4313873423652948,-0.20191105825080785 l 2.9117372470133334 -6.084410969819129" fill="#ff0000" stroke="none" /><line stroke="#e1ed5e" stroke-width="0.3" x1="58.13341422392154" x2="55.67067388415222" y1="173.97424548756322" y2="178.32567169271397" /><path d="M 57.64086615596768 174.84453072859336 a86.0,86.0 0 0,1 -31.369924170532247,-30.572349798747897" fill="none" id="id8" stroke="none" /><text fill="#e1ed5e" style="font-size:6.75px; font-family:Arial;" text-anchor="middle"><textPath startOffset="22.145653131862474" xlink:href="#id8">August</textPath></text><path d="M 85.60350026404147 115.28858382429668 l -14.344562352538563 15.233428122939124 a41.9242395671293,41.9242395671293 0 0,0 -0.519715860404657,-0.4978760378192754 l 14.603950698808536 -14.984939954814266" fill="#ffd513" stroke="none" /><path d="M 85.34317274990678 115.03919595460226 l -18.27271403610988 18.749414339295026 a47.18076806191921,47.18076806191921 0 0,0 -0.5751741827774061,-0.5702581936609679 l 18.59188013901725 -18.432976135405397" fill="#e3ff1b" stroke="none" /><path d="M 85.08716467003676 114.78537596483092 l -24.63704838035147 24.426476582580424 a55.693470727719486,55.693470727719486 0 0,0 -0.6672958249912027,-0.6847043019946139 l 25.05273100649348 -23.999949588518074" fill="#79ff26" stroke="none" /><path d="M 84.58840730492382 114.26474011684316 l -31.00997250846472 28.702367601826456 a63.2545181125772,63.2545181125772 0 0,0 -0.7307472155357231,-0.8032191979443264 l 31.498117424842324 -28.165810828324453" fill="#31ff3c" stroke="none" /><path d="M 84.3458050057657 113.99807769240083 l -21.18616541409223 18.94479975366017 a49.421102066238745,49.421102066238745 0 0,0 -0.5600797856541887,-0.6372679836462875 l 21.50825626370501 -18.57831949220258" fill="#c6ff1e" stroke="none" /><path d="M 84.1078160697243 113.72728997021213 l -37.830688967911875 32.67724810597644 a70.98963464125768,70.98963464125768 0 0,0 -0.7886794141166311,-0.9290623667232107 l 38.38606294553562 -32.023018956803675" fill="#3bff9d" stroke="none" /><path d="M 83.64595745247003 113.17365903436017 l -8.293694281251861 6.68081303316266 a31.64981819633302,31.64981819633302 0 0,0 -0.33719651402910655,-0.42603678013474194 l 8.407157225922528 -6.537456309113238" fill="#ff3e05" stroke="none" /><path d="M 83.4222238831116 112.89097897827486 l -30.93836025124386 24.057856060366266 a60.191358400252575,60.191358400252575 0 0,0 -0.6272742745835341,-0.8211221612045633 l 31.34678650318169 -23.523212985920836" fill="#46ff2c" stroke="none" /><path d="M 83.20337586046588 112.60449989151573 l -10.185332744715659 7.643263575425877 a33.7342247979219,33.7342247979219 0 0,0 -0.3436039311990743,-0.4661647237172494 l 10.315038695498565 -7.467292542439748" fill="#ff5e08" stroke="none" /><path d="M 82.78059297857968 112.02048342749411 l -22.82431616031371 15.933145305621954 a48.83549043067178,48.83549043067178 0 0,0 -0.473960674163233,-0.6915227880905096 l 23.094466571292266 -15.538987782461394" fill="#cdff1d" stroke="none" /><path d="M 82.576782715395 111.72311816256416 l -25.094189975945422 16.884490933932053 a51.245733660251545,51.245733660251545 0 0,0 -0.4848226137080704,-0.7340832302038546 l 25.38033702857422 -16.451227825389136" fill="#afff20" stroke="none" /><path d="M 82.37810715431573 111.42229804090323 l -24.44422410636982 15.84445073901171 a50.13016840636868,50.13016840636868 0 0,0 -0.46187146202129026,-0.7261386531082202 l 24.712613260017 -15.422498411224819" fill="#bdff1f" stroke="none" /><path d="M 82.18462484594161 111.11811171558189 l -24.94884482671278 15.569924380454115 a50.4086280434918,50.4086280434918 0 0,0 -0.4518342221731826,-0.7380372452598342 l 25.212447013341368 -15.139350019069724" fill="#b9ff1f" stroke="none" /><path d="M 81.99639281039703 110.81064883170644 l -24.259266433154668 14.566992467770147 a49.29680684160064,49.29680684160064 0 0,0 -0.42941342752301787,-0.7292378786762541 l 24.505753570807453 -14.148403420800333" fill="#c7ff1d" stroke="none" /><line stroke="#e1ed5e" stroke-width="0.3" x1="26.387840678322732" x2="22.057713659400548" y1="142.50000000000003" y2="145.00000000000006" /><path d="M 25.521815274538298 143.00000000000003 a86.0,86.0 0 0,1 -11.493303480769221,-40.785679425670985" fill="none" id="id9" stroke="none" /><text fill="#e1ed5e" style="font-size:6.75px; font-family:Arial;" text-anchor="middle"><textPath startOffset="21.40746469413373" xlink:href="#id9">September</textPath></text><path d="M 81.29705330413844 109.54985784667822 l -37.207934347845125 18.998636395038314 a62.77772807734316,62.77772807734316 0 0,0 -0.48183426951791175,-0.9639913070170243 l 37.52858853057477 -18.35711323185754" fill="#30ff35" stroke="none" /><path d="M 80.9802524753101 108.90220220490708 l -16.521093629839623 7.73270601768582 a39.241197249135865,39.241197249135865 0 0,0 -0.28032329547892465,-0.6125569909215896 l 16.651401390173604 -7.447960044549542" fill="#ffaf10" stroke="none" /><path d="M 80.68587082218212 108.24405325689762 l -27.005459712776194 11.527024907487098 a50.362683077610704,50.362683077610704 0 0,0 -0.33257154965068075,-0.7980506507400267 l 27.19935710696336 -11.06174174730579" fill="#baff1f" stroke="none" /><path d="M 80.5471966667186 107.91128576633889 l -26.42819969417961 10.748118740953538 a49.53019094827569,49.53019094827569 0 0,0 -0.3135528197068876,-0.790357933523098 l 26.608811188852624 -10.292859790216875" fill="#c5ff1e" stroke="none" /><path d="M 80.28708602549918 107.23885506374661 l -39.841438041887294 14.630327910400451 a63.44274590564784,63.44274590564784 0 0,0 -0.36663813595498757,-1.02555211934166 l 40.086716347886224 -13.94424083467787" fill="#31ff3e" stroke="none" /><path d="M 80.16572619554312 106.89939002012753 l -27.06898363341454 9.415997650158973 a49.6599177719313,49.6599177719313 0 0,0 -0.2731640221988356,-0.8075608935650171 l 27.226633077185742 -8.949935082119794" fill="#c3ff1e" stroke="none" /><path d="M 80.05021161711548 106.5578916946017 l -27.066290592389493 8.897227322560838 a49.49113441863969,49.49113441863969 0 0,0 -0.25837974230922134,-0.8093708627191739 l 27.21503505047597 -8.431287426150272" fill="#c5ff1e" stroke="none" /><path d="M 79.48165901384964 104.47187691870673 l -34.272339390029884 7.469496855121374 a56.07686745611789,56.07686745611789 0 0,0 -0.19691602742917616,-0.9423144756529825 l 34.39551312828343 -6.880065928182982" fill="#75ff27" stroke="none" /><path d="M 79.34024301695615 103.76489593502545 l -29.832895242525456 5.436547299215922 a51.32420955421773,51.32420955421773 0 0,0 -0.15051480059349095,-0.8681293720715058 l 29.92182486061118 -4.923624894223824" fill="#aeff20" stroke="none" /><path d="M 79.2786578344484 103.40968896794605 l -27.624248306339755 4.545559546548879 a48.995735498135005,48.995735498135005 0 0,0 -0.12943858557260227,-0.8310885723522126 l 27.698208384050623 -4.070682792265216" fill="#cbff1d" stroke="none" /><path d="M 79.17382384314188 102.69636545807758 l -37.30740292299237 4.830190228608682 a58.6187858722613,58.6187858722613 0 0,0 -0.12063722054241773,-0.999049243559792 l 37.384822229794445 -4.189047308125491" fill="#58ff2a" stroke="none" /><path d="M 79.13060592940153 102.33845913500099 l -37.3787335704407 4.188365061145176 a58.61265910854233,58.61265910854233 0 0,0 -0.10345862111625465,-1.0008683092045443 l 37.44512458403862 -3.5460922296577" fill="#58ff2a" stroke="none" /><path d="M 79.0935383218832 101.97986365728391 l -22.89353152635277 2.168041237860591 a43.99596026603743,43.99596026603743 0 0,0 -0.06475027370273129,-0.7524963299074912 l 22.92737542275324 -1.7747238605774378" fill="#fff116" stroke="none" /><path d="M 79.03789590574601 101.26102812881392 l -24.935682487227584 1.500068737669612 a45.98076194437556,45.98076194437556 0 0,0 -0.04063475510777721,-0.7883033934288094 l 24.957758831791935 -1.0717935508640717" fill="#f2ff19" stroke="none" /><line stroke="#e1ed5e" stroke-width="0.3" x1="15.003131293944662" x2="10.003315487706104" y1="100.72959589197737" y2="100.7725132973878" /><path d="M 14.003168132696942 100.73817937305945 a86.0,86.0 0 0,1 10.791469493833604,-42.45332614584628" fill="none" id="id10" stroke="none" /><text fill="#e1ed5e" style="font-size:6.75px; font-family:Arial;" text-anchor="middle"><textPath startOffset="22.145653131862435" xlink:href="#id10">October</textPath></text><path d="M 79.0935383218832 98.0201363427161 l -23.501455255198035 -2.2256122470381468 a44.60660392742339,44.60660392742339 0 0,0 0.07873619462417178,-0.7617012592710138 l 23.4597866680922 2.6287180285920733" fill="#fff917" stroke="none" /><path d="M 79.2786578344484 96.59031103205396 l -19.445657258826913 -3.1997755019995306 a40.70715985348889,40.70715985348889 0 0,0 0.11937894614047168,-0.6885460376178285 l 19.387863495194207 3.533114572537952" fill="#ffc412" stroke="none" /><path d="M 79.48165901384962 95.52812308129327 l -19.755649539049358 -4.305651867632262 a41.219404707235725,41.219404707235725 0 0,0 0.1566124185093524,-0.6900632128827099 l 19.678826258982344 4.64414941445398" fill="#ffcb12" stroke="none" /><path d="M 79.64726062577567 94.8264132398404 l -34.95475689412369 -8.885362512972671 a57.066392895800206,57.066392895800206 0 0,0 0.24949024573166356,-0.9473551004094465 l 34.797077167587304 9.484098117754902" fill="#6aff28" stroke="none" /><path d="M 80.05021161711548 93.44210830539832 l -35.35034329279433 -11.620359987378226 a58.211282390622735,58.211282390622735 0 0,0 0.3202024640516571,-0.9466216887194945 l 35.1456554071703 12.225483350571881" fill="#5dff2a" stroke="none" /><path d="M 80.41425534168474 92.42381321644754 l -35.10983881272474 -13.5812398980036 a58.64506420000685,58.64506420000685 0 0,0 0.3712548829259619,-0.935804826612687 l 34.87152525483265 14.18194574182987" fill="#58ff2a" stroke="none" /><path d="M 80.83023694016515 91.42560881287825 l -20.67302010550065 -9.246778942990359 a43.64678081103281,43.64678081103281 0 0,0 0.31179500860578874,-0.6813283638437055 l 20.511240632039815 9.600296289048735" fill="#ffec16" stroke="none" /><path d="M 81.1358732173502 90.77261029715801 l -20.880391623954583 -10.213645873043816 a44.24455455347892,44.24455455347892 0 0,0 0.3395876734684505,-0.6794028277010074 l 20.70198403727439 10.570580556908594" fill="#fff417" stroke="none" /><path d="M 81.29705330413844 90.45014215332179 l -34.54054826649515 -17.636650056022702 a59.78273971431991,59.78273971431991 0 0,0 0.474538110711835,-0.9099893974851893 l 34.232702086808374 18.226985696612378" fill="#4bff2c" stroke="none" /><path d="M 81.46374523516351 90.13048839642627 l -32.77910080562889 -17.453024888802073 a58.13593310251845,58.13593310251845 0 0,0 0.47658910657378234,-0.87687027674598 l 32.474666349439765 18.013149999022673" fill="#5dff2a" stroke="none" /><line stroke="#e1ed5e" stroke-width="0.3" x1="26.387840678322718" x2="22.05771365940052" y1="57.49999999999999" y2="54.99999999999999" /><path d="M 25.521815274538284 56.99999999999999 a86.0,86.0 0 0,1 29.574782752854787,-30.34633250058573" fill="none" id="id11" stroke="none" /><text fill="#e1ed5e" style="font-size:6.75px; font-family:Arial;" text-anchor="middle"><textPath startOffset="21.40746469413373" xlink:href="#id11">November</textPath></text><path d="M 81.81346652052679 89.5 l -20.682341406112617 -11.940955378290864 a44.881910756581725,44.881910756581725 0 0,0 0.390956257951802,-0.6639291972040114 l 20.474311438031034 12.29423574378845" fill="#fffd17" stroke="none" /><path d="M 81.99639281039701 89.18935116829357 l -15.181092286858087 -9.115809730048268 a38.70772571666234,38.70772571666234 0 0,0 0.3469540001404611,-0.5667232846240567 l 15.022370322262233 9.375070130796868" fill="#ffa70f" stroke="none" /><path d="M 82.576782715395 88.27688183743585 l -30.962970546935654 -20.833268417449425 a58.31930623744097,58.31930623744097 0 0,0 0.5660034834762467,-0.8258159976108768 l 30.600777326644096 21.361719150130337" fill="#5bff2a" stroke="none" /><path d="M 82.98947788004972 87.6856937992154 l -20.31631413166001 -14.707444681852 a46.081099436947035,46.081099436947035 0 0,0 0.46936448118667606,-0.6367830627883887 l 20.060847630889516 15.05403405390925" fill="#f1ff19" stroke="none" /><path d="M 84.10781606972428 86.27271002978789 l -22.303275873745463 -19.265038496142566 a50.47164438843295,50.47164438843295 0 0,0 0.5719853784887349,-0.6508143628124682 l 21.969279431298133 19.645065136766334" fill="#b9ff1f" stroke="none" /><line stroke="#e1ed5e" stroke-width="0.3" x1="56.869717070023135" x2="54.33264160355391" y1="26.7553504044142" y2="22.446841604673864" /><path d="M 56.362301976729285 25.89364864446614 a86.0,86.0 0 0,1 42.16139366436587,-11.88097634709845" fill="none" id="id12" stroke="none" /><text fill="#e1ed5e" style="font-size:6.75px; font-family:Arial;" text-anchor="middle"><textPath startOffset="22.145653131862474" xlink:href="#id12">December</textPath></text><path d="M 90.61103034731259 81.2157712731953 l -18.823628464529797 -37.659866377873755 a63.1021914414198,63.1021914414198 0 0,0 0.9730951403527426,-0.4759895955658561 l 18.174373074915 37.97744972353683" fill="#30ff3a" stroke="none" /><path d="M 93.27111125876988 80.10723608172694 l -8.503770434687821 -25.139886269171658 a47.53917845813537,47.53917845813537 0 0,0 0.7752898901341302,-0.25485318610101965 l 8.07095780690593 25.282160376674707" fill="#deff1b" stroke="none" /><path d="M 94.6519064749342 79.69241777938228 l -16.044280575197423 -60.922746661853175 a84.0,84.0 0 0,0 1.3975788270984877,-0.35525907265894796 l 14.996096454873559 61.18919096634739" fill="#4dd2ff" stroke="none" /></svg>