<?xml version="1.0" encoding="utf-8" ?>
<svg baseProfile="full" height="200mm" version="1.1" viewBox="0,0,200,200" width="200mm" xmlns="http://www.w3.org/2000/svg" xmlns:ev="http://www.w3.org/2001/xml-events" xmlns:xlink="http://www.w3.org/1999/xlink"><defs /><rect fill="#1a1a1a" height="200" width="200" x="0" y="0" /><text alignment-baseline="middle" fill="#e1ed5e" style="dominant-baseline: central; font-size:9.0px; font-family:Arial;" text-anchor="middle" x="100.0" y="100.0">2023</text><line stroke="#e1ed5e" stroke-width="0.3" x1="100.0" x2="100.0" y1="15.0" y2="10.0" /><path d="M 100.0 14.0 a86.0,86.0 0 0,1 42.46469731375804,11.215312516191453" fill="none" id="id85" stroke="none" /><text fill="#e1ed5e" style="font-size:6.75px; font-family:Arial;" text-anchor="middle"><textPath startOffset="22.20632615414155" xlink:href="#id85">January</textPath></text><line stroke="#e1ed5e" stroke-width="0.3" x1="143.23703022742887" x2="145.7803849466894" y1="26.81831364943548" y2="22.513508569990506" /><path d="M 143.74570117128098 25.957352633546492 a86.0,86.0 0 0,1 28.547481713284135,27.462654790039103" fill="none" id="id86" stroke="none" /><text fill="#e1ed5e" style="font-size:6.75px; font-family:Arial;" text-anchor="middle"><textPath startOffset="19.985693538727396" xlink:href="#id86">February</textPath></text><path d="M 110.99172775467656 82.1063720568725 l 7.446144316803995 -12.121709979492177 a35.2260647409462,35.2260647409462 0 0,0 0.5139329320914585,0.3218247549273735 l -7.653696401267716 11.99174088324186" fill="#ffa30f" stroke="none" /><path d="M 112.19680574252982 82.90503203632743 l 8.189008299751647 -11.477663700944277 a35.099525558165965,35.099525558165965 0 0,0 0.48881050682121596,0.3551416213414658 l -8.385364122926653 11.335002844786137" fill="#ffa20e" stroke="none" /><path d="M 115.68641384162765 86.03803664274999 l 10.642428415689084 -9.47247707934941 a35.24742449012685,35.24742449012685 0 0,0 0.39948446745598126,0.45667980417498866 l -10.803904746722914 9.287881718971475" fill="#ffa40f" stroke="none" /><path d="M 115.9244219780498 86.31012108654704 l 10.745140857656134 -9.23736368278048 a35.16993083465205,35.16993083465205 0 0,0 0.3907034089579284,0.4624696020072614 l -10.90255488010118 9.051035131144111" fill="#ffa30f" stroke="none" /><path d="M 117.04232023915458 87.72973835380427 l 12.387137073928308 -8.918586836268238 a36.263759564548515,36.263759564548515 0 0,0 0.3603709037898816,0.5097190867521044 l -12.538820597522072 8.70404124918434" fill="#ffb110" stroke="none" /><path d="M 117.2510076193507 88.02491185347247 l 11.664486551269098 -8.09710700485389 a35.199415070797514,35.199415070797514 0 0,0 0.3412257014850306,0.5007066118892419 l -11.802136718422862 7.895122369694241" fill="#ffa30f" stroke="none" /><path d="M 117.45458315368197 88.32363383020206 l 11.804305219165686 -7.8965730035185935 a35.202024042618746,35.202024042618746 0 0,0 0.33258095296508483,0.5065436084334762 l -11.938482807488695 7.692211331107443" fill="#ffa30f" stroke="none" /><line stroke="#e1ed5e" stroke-width="0.3" x1="172.23445277983987" x2="176.4835382374775" y1="55.19839476539836" y2="52.563006222186495" /><path d="M 173.08426987136738 54.67131705675599 a86.0,86.0 0 0,1 12.851231095245387,41.99856678651699" fill="none" id="id87" stroke="none" /><text fill="#e1ed5e" style="font-size:6.75px; font-family:Arial;" text-anchor="middle"><textPath startOffset="22.20632615414155" xlink:href="#id87">March</textPath></text><path d="M 117.84615892207809 88.93136811851018 l 12.555949943959694 -7.787512621563018 a35.77488517133804,35.77488517133804 0 0,0 0.3200731305628025,0.5261160690821566 l -12.68813887280872 7.570228779273781" fill="#ffab0f" stroke="none" /><path d="M 118.03404312379186 89.2402003453031 l 12.306342387836878 -7.342434398448281 a35.330296782069354,35.330296782069354 0 0,0 0.307104946459947,0.5249419030310744 l -12.430907008767154 7.129513083063312" fill="#ffa50f" stroke="none" /><path d="M 118.21658344932153 89.55222093294921 l 12.105536350847954 -6.9429028573699005 a34.955210870086354,34.955210870086354 0 0,0 0.29485945250702295,0.524522064708131 l -12.22325344464741 6.733497282726976" fill="#ffa00e" stroke="none" /><path d="M 118.89224826269711 90.83032412892265 l 16.431625782534773 -7.975370658143733 a39.26485321572669,39.26485321572669 0 0,0 0.28989017910021875,0.6105826483979271 l -16.56647415547675 7.6913455941052655" fill="#ffd914" stroke="none" /><path d="M 119.196687751892 91.48605970444005 l 13.177007620316427 -5.844146532125331 a35.41483883069213,35.41483883069213 0 0,0 0.242354349971173,0.5593872540222942 l -13.275652680130282 5.6164601335164335" fill="#ffa60f" stroke="none" /><path d="M 119.34039704204932 91.81776055985345 l 11.400642942350958 -4.823209685050398 a33.37893416918196,33.37893416918196 0 0,0 0.21931281096192348,0.531083367480421 l -11.48197744019908 4.626251747116674" fill="#ff8a0c" stroke="none" /><path d="M 119.47837535516314 92.15188598940014 l 8.558790323327282 -3.4484581504117298 a30.227391582339063,30.227391582339063 0 0,0 0.19029791130651513,0.48428742748965564 l -8.616881784515497 3.3006217180262896" fill="#ff5e08" stroke="none" /><path d="M 119.7369772167798 92.82701384747503 l 13.668808032535772 -4.967638644054629 a35.54351218682129,35.54351218682129 0 0,0 0.20403147101525215,0.576824443733488 l -13.752292584360832 4.731616573894527" fill="#ffa80f" stroke="none" /><path d="M 119.97218684219823 93.5106431181261 l 13.759254282919123 -4.470652721997397 a35.467336112178046,35.467336112178046 0 0,0 0.1836608717880587,0.5822551534272208 l -13.834170638475388 4.233147402143757" fill="#ffa70f" stroke="none" /><path d="M 120.18372546131832 94.20196356495316 l 12.63586104827184 -3.6298146685792325 a34.146883241265456,34.146883241265456 0 0,0 0.15742238293715446,0.5663320693526467 l -12.696470201775359 3.411771295807634" fill="#ff950d" stroke="none" /><path d="M 120.28053869075195 94.5502522615342 l 13.662301877639152 -3.6713077445942504 a35.14697823392897,35.14697823392897 0 0,0 0.15197497844358956,0.5856215864384999 l -13.723473187953044 3.4355897326069003" fill="#ffa20f" stroke="none" /><path d="M 120.45610955862082 95.25157060432595 l 13.980126175905507 -3.24517435236975 a35.35183209459743,35.35183209459743 0 0,0 0.13249464836220629,0.5939475290180095 l -14.03391521126975 3.0040486538017768" fill="#ffa50f" stroke="none" /><path d="M 120.53481517161879 95.60439243477599 l 13.894054977885341 -2.9741106828582553 a35.20880354155099,35.20880354155099 0 0,0 0.12175657634180874,0.5937283072106232 l -13.943190850142146 2.7345067194842203" fill="#ffa30f" stroke="none" /><path d="M 120.6074358757038 95.95851677861258 l 14.463466157553714 -2.836541923576987 a35.738989903480885,35.738989903480885 0 0,0 0.11319776388680376,0.6047069810500422 l -14.510149645350378 2.587156865064382" fill="#ffaa0f" stroke="none" /><path d="M 120.78858239683441 97.02765380044208 l 14.162511212525095 -2.0249522346052538 a35.30654239840402,35.30654239840402 0 0,0 0.08084189609282882,0.602366026022115 l -14.19526910767576 1.7808678665184745" fill="#ffa50f" stroke="none" /><path d="M 120.83666639777658 97.38593545837742 l 15.299060776893546 -1.919344079975945 a36.418986424289415,36.418986424289415 0 0,0 0.07268127928614557,0.6226888152144426 l -15.32983240918328 1.6557115264366495" fill="#ffb310" stroke="none" /><path d="M 120.87857604477298 97.74499172005257 l 13.993082018907245 -1.5113346689425735 a35.07446186784465,35.07446186784465 0 0,0 0.05966479014611796,0.6008162943446642 l -14.017023934735592 1.2702428438934743" fill="#ffa10e" stroke="none" /><path d="M 120.94382443527127 98.46500227214037 l 14.709655208255946 -1.0780880727898943 a35.749109472726246,35.749109472726246 0 0,0 0.03969752881059177,0.6141032001577118 l -14.726033328070953 0.8247258083791473" fill="#ffaa0f" stroke="none" /><path d="M 120.96714384426684 98.82574320788733 l 14.361068301699571 -0.8042860830506373 a35.38357253499523,35.38357253499523 0 0,0 0.02882310732772013,0.6084102404945831 l -14.372785017260787 0.5569647359330544" fill="#ffa60f" stroke="none" /><path d="M 120.98425023603335 99.18683210126433 l 14.32744958928626 -0.5552079271698314 a35.338203080439726,35.338203080439726 0 0,0 0.018322531072775837,0.6080356052057491 l -14.334883814814681 0.30850217453908324" fill="#ffa50f" stroke="none" /><line stroke="#e1ed5e" stroke-width="0.3" x1="184.98032266829074" x2="189.97916517819016" y1="98.17113171792111" y2="98.06355123074" /><path d="M 185.9800911702706 98.14961562048488 a86.0,86.0 0 0,1 -9.607161424134198,41.387399972396054" fill="none" id="id88" stroke="none" /><text fill="#e1ed5e" style="font-size:6.75px; font-family:Arial;" text-anchor="middle"><textPath startOffset="21.466115282336823" xlink:href="#id88">April</textPath></text><path d="M 120.99513854157772 99.54816195383933 l 14.488461507886804 -0.3118073322847275 a35.491816334676066,35.491816334676066 0 0,0 0.007887621629203815,0.6109049876458478 l -14.491682136633724 0.06236608657841699" fill="#ffa70f" stroke="none" /><path d="M 120.99824983174949 100.27111621757518 l 15.508769408367126 0.20023949304978436 a36.510062037802456,36.510062037802456 0 0,0 -0.013522522566500784,0.6283384879331676 l -15.503024823115618 -0.46716779677306686" fill="#ffb510" stroke="none" /><path d="M 120.9904718944345 100.63252640178507 l 14.323583367311445 0.4316265348182194 a35.33008520372019,35.33008520372019 0 0,0 -0.02354980185892128,0.6077157447865492 l -14.31403143260132 -0.6781195266187747" fill="#ffa50f" stroke="none" /><path d="M 120.9764740272857 100.99374915477107 l 2.7590130838264924 0.13070675827064443 a23.762107429732485,23.762107429732485 0 0,0 -0.02287232865511645,0.408400792898411 l -2.756354404283847 -0.17817926750447877" fill="#ff0000" stroke="none" /><path d="M 120.95626037817324 101.35467743843564 l 14.575486930873621 0.9422045223313467 a35.60590868908776,35.60590868908776 0 0,0 -0.044801459021383806,0.611280313421867 l -14.5571089131879 -1.192957972249984" fill="#ffa90f" stroke="none" /><path d="M 120.89721153311464 102.0752229133903 l 14.015962641552845 1.391872153893908 a35.084903864144415,35.084903864144415 0 0,0 -0.06485310571728274,0.6004592140519999 l -13.98992723433451 -1.6329276898306992" fill="#ffa20e" stroke="none" /><path d="M 120.8583938346157 102.4346265915055 l 14.074776658414347 1.6428314564282918 a35.170329324983086,35.170329324983086 0 0,0 -0.0753624637578837,0.6007129859398488 l -14.044412685409615 -1.8848621966555354" fill="#ffa30f" stroke="none" /><path d="M 120.76222939487914 103.15116336523771 l 14.143916502761238 2.1466765768166987 a35.30589369324878,35.30589369324878 0 0,0 -0.0963653279620891,0.6000669892078176 l -14.104869420437861 -2.389822795717721" fill="#ffa50f" stroke="none" /><path d="M 120.70491114924044 103.5080841355445 l 14.275651601788535 2.418758841697902 a35.479109882514855,35.479109882514855 0 0,0 -0.1072036068897341,0.6012547594220383 l -14.231901552559613 -2.664132351853159" fill="#ffa70f" stroke="none" /><path d="M 120.41448212921028 104.9243191809786 l 13.955802904325305 3.366376256461248 a35.356076198057764,35.356076198057764 0 0,0 -0.1478030219576749,0.5903996014668199 l -13.895788568072568 -3.606103697325464" fill="#ffa50f" stroke="none" /><path d="M 120.32669344350535 105.2749913415812 l 13.90800323214412 3.609273531484514 a35.36869546376448,35.36869546376448 0 0,0 -0.15800025517798114,0.5879777270549066 l -13.843814900624363 -3.848142191714969" fill="#ffa50f" stroke="none" /><path d="M 120.23288151984713 105.62410040840565 l 14.225253900723159 3.954170155855081 a35.76459651197737,35.76459651197737 0 0,0 -0.1699795271758604,0.5917210333181638 l -14.155081736661199 -4.1984486646778265" fill="#ffab0f" stroke="none" /><path d="M 120.13307415673323 105.97154293290107 l 13.759233705684865 4.081038700681396 a35.35170334992031,35.35170334992031 0 0,0 -0.17806017908223007,0.5819109677337398 l -13.686946754096503 -4.317276640967193" fill="#ffa50f" stroke="none" /><path d="M 119.9155931802556 106.66101706037122 l 14.255492623248612 4.767926252962174 a36.03170618011081,36.03170618011081 0 0,0 -0.20179328683526135,0.5865057488870394 l -14.17130850547012 -5.012604704938514" fill="#ffae10" stroke="none" /><path d="M 119.79798401119884 107.00284435728193 l 13.953685703711809 4.935628250747672 a35.800870614512846,35.800870614512846 0 0,0 -0.21050185503729696,0.5792106981132954 l -13.866659587669286 -5.175086745867099" fill="#ffab0f" stroke="none" /><path d="M 119.67450827220406 107.3425965602758 l 13.423266061696749 5.00961070277564 a35.327605213589045,35.327605213589045 0 0,0 -0.2175267353513961,0.5678936647776296 l -13.335045046751846 -5.239927934386413" fill="#ffa50f" stroke="none" /><path d="M 119.41010516605496 108.01547362559984 l 13.142368002141753 5.42718873483079 a35.21886824846456,35.21886824846456 0 0,0 -0.23621633506255138,0.5583456389105218 l -13.047000685886893 -5.6526088994074755" fill="#ffa30f" stroke="none" /><path d="M 119.26925614724726 108.34839909993367 l 12.999617182684458 5.632080011708642 a35.16722880999079,35.16722880999079 0 0,0 -0.245431947971399,0.5533842505335113 l -12.900744149981787 -5.855012598734841" fill="#ffa30f" stroke="none" /><path d="M 119.12269723197855 108.67885076344098 l 13.242107269167123 6.009940511445705 a35.542104038936216,35.542104038936216 0 0,0 -0.25763859074503065,0.5549306038597719 l -13.13669406158226 -6.2369911825843065" fill="#ffa80f" stroke="none" /><path d="M 118.81262510543309 109.33194174019688 l 13.08455002009977 6.490548650172125 a35.60591219365446,35.60591219365446 0 0,0 -0.2770840730552531,0.5467131631108363 l -12.97088727725825 -6.714816024985655" fill="#ffa90f" stroke="none" /><path d="M 118.64920377521936 109.65438752849418 l 12.630560737979502 6.5386345463536175 a35.22268632455059,35.22268632455059 0 0,0 -0.2833706908625801,0.5360305560789201 l -12.516137538892028 -6.755080117518672" fill="#ffa30f" stroke="none" /><line stroke="#e1ed5e" stroke-width="0.3" x1="174.80103733775053" x2="179.2010983576182" y1="140.37084112569926" y2="142.7455964860345" /><path d="M 175.68104954172406 140.8457921977663 a86.0,86.0 0 0,1 -30.038265399797805,32.042727171017184" fill="none" id="id89" stroke="none" /><text fill="#e1ed5e" style="font-size:6.75px; font-family:Arial;" text-anchor="middle"><textPath startOffset="22.206326154141568" xlink:href="#id89">May</textPath></text><path d="M 118.30583269289576 110.29060199501025 l 12.631757723879092 7.100927524825622 a35.490841069710385,35.490841069710385 0 0,0 -0.30395032958383617,0.529963019678944 l -12.507655398142877 -7.317310390362881" fill="#ffa70f" stroke="none" /><path d="M 118.12598468904814 110.60418214915192 l 12.75338663757153 7.461069687710889 a35.77553490105405,35.77553490105405 0 0,0 -0.31553872599051147,0.5288610545137058 l -12.623067035882793 -7.6794928361106995" fill="#ffab0f" stroke="none" /><path d="M 117.94076556474637 110.91462005526583 l 13.211768620068396 8.037641104317547 a36.46462106202538,36.46462106202538 0 0,0 -0.33084760540115216,0.5334316840775863 l -13.071456374999281 -8.263869119760408" fill="#ffb410" stroke="none" /><path d="M 117.75023020441432 111.22182372390056 l 12.821649357235986 8.105939319073324 a36.16907856411881,36.16907856411881 0 0,0 -0.3372252228089449,0.5233810345895094 l -12.68021927104999 -8.325441953584287" fill="#ffb010" stroke="none" /><path d="M 117.35343817320211 111.8261652097733 l 12.209963713645944 8.32094750571664 a35.77570239553581,35.77570239553581 0 0,0 -0.3511795636882449,0.505900353702435 l -12.064923242795563 -8.529889121606097" fill="#ffab0f" stroke="none" /><path d="M 117.14729908036423 112.12312394758627 l 12.26859106635928 8.673882076859641 a36.02513084924114,36.02513084924114 0 0,0 -0.3623445532225138,0.503264892875862 l -12.117466720761163 -8.883780575186636" fill="#ffae10" stroke="none" /><path d="M 116.71984013943494 112.70617746262583 l 11.774475831357075 8.947967097469986 a35.78865769029148,35.78865769029148 0 0,0 -0.3769622429527916,0.487274514038205 l -11.618706771186215 -9.149319605621443" fill="#ffab0f" stroke="none" /><path d="M 116.27256486870786 113.27417163493432 l 11.40949825597498 9.307176793594305 a35.724136318314784,35.724136318314784 0 0,0 -0.3928021893451061,0.47315554125106524 l -11.24760006673633 -9.50219359195914" fill="#ffaa0f" stroke="none" /><path d="M 116.0416608686014 113.55231037782055 l 11.06947739648107 9.351712059379782 a35.490957465700966,35.490957465700966 0 0,0 -0.39827190329987255,0.46328020066822734 l -10.906862983610418 -9.540869359209536" fill="#ffa70f" stroke="none" /><path d="M 115.80600337817218 113.82643327865902 l 10.827458349406902 9.471409493197651 a35.385459745728525,35.385459745728525 0 0,0 -0.4049801000481339,0.4549994355686425 l -10.662819399710429 -9.65638309850716" fill="#ffa60f" stroke="none" /><path d="M 115.56566222782051 114.09645910891815 l 10.75130325403143 9.73651518771607 a35.50483538895814,35.50483538895814 0 0,0 -0.4141446172402812,0.44947218745903256 l -10.582112228795427 -9.920138629976437" fill="#ffa70f" stroke="none" /><path d="M 115.07121518719521 114.62390073753431 l 10.711944032148638 10.394012976820743 a35.92585845806541,35.92585845806541 0 0,0 -0.434462312302552,0.4401080285829747 l -10.531441094790551 -10.576861499384382" fill="#ffad10" stroke="none" /><path d="M 114.81725581225074 114.88116024355365 l 11.452968232014534 11.502363034322807 a37.23190798079172,37.23190798079172 0 0,0 -0.4580411999989327,0.44828971909235504 l -11.253277079639807 -11.697802856337733" fill="#ffbe11" stroke="none" /><path d="M 114.55890576462653 115.13401014063108 l 10.767012920327119 11.192330340955156 a36.53051273099367,36.53051273099367 0 0,0 -0.4569169831315444,0.43204352687099923 l -10.572760102804766 -11.376008504572077" fill="#ffb510" stroke="none" /><path d="M 114.0293411484842 115.62618273729858 l 9.95138544793372 11.084067730116276 a35.895859484405456,35.895859484405456 0 0,0 -0.46332605772565194,0.40883137594588026 l -9.75911703730148 -11.253722247834444" fill="#ffac10" stroke="none" /><path d="M 113.75828350139079 115.86535959552629 l 9.839434327216322 11.346340101370336 a36.0184520365971,36.0184520365971 0 0,0 -0.47190093502483926,0.40216421450031653 l -9.642667915614435 -11.5140287060936" fill="#ffae10" stroke="none" /><path d="M 113.48314897796784 116.09983520530334 l 9.553165156852092 11.407156070565476 a35.87905151991657,35.87905151991657 0 0,0 -0.47690071612822466,0.39245682213807664 l -9.355394312179177 -11.569908011560731" fill="#ffac0f" stroke="none" /><path d="M 113.20401910651253 116.32954008644616 l 9.126687933883723 11.287064587730821 a35.515311214373114,35.515311214373114 0 0,0 -0.4786829872876069,0.3802947155079018 l -8.931047453878765 -11.44249321724385" fill="#ffa70f" stroke="none" /><path d="M 112.63410532772338 116.77436683061366 l 9.519632750719948 12.639265520677363 a36.8232247222481,36.8232247222481 0 0,0 -0.509589644854285,0.37698223669538683 l -9.3006581354471 -12.801257706112517" fill="#ffb911" stroke="none" /><path d="M 112.04921762599082 117.19931262002967 l 8.622698424542374 12.308225350004532 a36.02808502062388,36.02808502062388 0 0,0 -0.5109865277911546,0.3514611932386802 l -8.409555012128337 -12.454827332608305" fill="#ffae10" stroke="none" /><path d="M 111.7513745106137 117.40417183066458 l 8.331591657967431 12.339361043019302 a35.888762557885556,35.888762557885556 0 0,0 -0.5149615328383219,0.3412884239711211 l -8.117955426389145 -12.48094748808174" fill="#ffac10" stroke="none" /><path d="M 111.1453310114006 117.79835938074945 l 7.704442433631704 12.303487004720258 a35.51668783464276,35.51668783464276 0 0,0 -0.5209466001229095,0.32000795039860225 l -7.491516633576485 -12.434283421947239" fill="#ffa70f" stroke="none" /><line stroke="#e1ed5e" stroke-width="0.3" x1="143.8653032363475" x2="146.44561519142675" y1="172.8068346515853" y2="177.08958963109032" /><path d="M 144.38136562736335 173.6633856474863 a86.0,86.0 0 0,1 -40.68145358897372,12.25698825130547" fill="none" id="id90" stroke="none" /><text fill="#e1ed5e" style="font-size:6.75px; font-family:Arial;" text-anchor="middle"><textPath startOffset="21.466115282336833" xlink:href="#id90">June</textPath></text><path d="M 110.8373102113329 117.98757091392108 l 7.681683219814859 12.749918472408742 a35.88518317464232,35.88518317464232 0 0,0 -0.5318391408562101,0.31421993884064514 l -7.461076207930267 -12.880256983543138" fill="#ffac0f" stroke="none" /><path d="M 110.5260780823613 118.17145234162733 l 8.015345321371937 13.837106695328854 a36.99097502714433,36.99097502714433 0 0,0 -0.5537218386938072,0.3144177112626296 l -7.775974715756932 -13.973027572386112" fill="#ffbb11" stroke="none" /><path d="M 110.21172684928248 118.3499491758327 l 7.0709355804284355 12.70610842235421 a35.541090785191784,35.541090785191784 0 0,0 -0.537139593167869,0.29289133366819603 l -6.851173175391918 -12.825940407782177" fill="#ffa80f" stroke="none" /><path d="M 109.57404056367764 118.69057910512821 l 6.930550803962141 13.529920536894632 a36.20168688603286,36.20168688603286 0 0,0 -0.5570682691673225,0.2793255947080623 l -6.696628627112058 -13.647213972511997" fill="#ffb110" stroke="none" /><path d="M 109.2508944713604 118.85261126421891 l 6.620868179387542 13.492820008276944 a36.029706824305826,36.029706824305826 0 0,0 -0.5591250014146111,0.2684139786493935 l -6.3876305099726975 -13.604788263425897" fill="#ffae10" stroke="none" /><path d="M 108.92500713936063 119.00905698771935 l 6.08371726192251 12.957494187208187 a35.31461740091393,35.31461740091393 0 0,0 -0.5524753349251914,0.2536143290601479 l -5.8597739312299 -13.06029558660241" fill="#ffa50f" stroke="none" /><path d="M 108.2653958097858 119.30500536409082 l 6.083743428642499 14.209446495550146 a36.45704706001289,36.45704706001289 0 0,0 -0.5790221760456417,0.24203131654716714 l -5.838249793099396 -14.312062855117286" fill="#ffb410" stroke="none" /><path d="M 107.59598834532513 119.57807347666477 l 5.132843911974363 13.229508878160905 a35.19034854335969,35.19034854335969 0 0,0 -0.5666145135397713,0.21424512574410043 l -4.9043591776743165 -13.315902254011636" fill="#ffa30f" stroke="none" /><path d="M 107.2578585660854 119.70592522655815 l 5.052491680134123 13.71809912661759 a35.618957412398835,35.618957412398835 0 0,0 -0.57716354658104,0.20695031330855815 l -4.815608572923349 -13.803036980966109" fill="#ffa90f" stroke="none" /><path d="M 106.91757812671514 119.82793768551818 l 4.862340615201043 13.936985597841236 a35.760823954395896,35.760823954395896 0 0,0 -0.5829529721282456,0.1977692990535996 l -4.621717910135571 -14.018617883792958" fill="#ffab0f" stroke="none" /><path d="M 106.2309692047433 120.05430185196036 l 4.471415383885292 14.391198362154153 a36.069842263080076,36.069842263080076 0 0,0 -0.5945083369164235,0.17912048508666695 l -4.223032072528622 -14.466034216346547" fill="#ffaf10" stroke="none" /><path d="M 105.88484417918355 120.15858648285463 l 4.288729758862083 14.69108222974361 a36.304283714883155,36.304283714883155 0 0,0 -0.6013870842235899,0.16995799709480552 l -4.035211506533888 -14.762729020176936" fill="#ffb210" stroke="none" /><path d="M 105.18746579009965 120.34920634021253 l 3.6736584203681435 14.410896619733553 a35.871775535361934,35.871775535361934 0 0,0 -0.5996509034341736,0.14737960263012345 l -3.4250542321907584 -14.471997480677707" fill="#ffac0f" stroke="none" /><path d="M 104.48393922423573 120.51570834832081 l 3.065319773503133 14.024990822271905 a35.35606327927822,35.35606327927822 0 0,0 -0.5956798608786599,0.12483050653392541 l -2.823448451195095 -14.07567730953237" fill="#ffa50f" stroke="none" /><path d="M 103.7750983002368 120.6578951692458 l 2.777876651961685 15.200951102576656 a36.452686275092766,36.452686275092766 0 0,0 -0.6182219861657609,0.10748581670864536 l -2.5158056943238742 -15.246515497806309" fill="#ffb410" stroke="none" /><path d="M 103.41894727170886 120.7198165907248 l 2.441767126267813 14.797820203949165 a35.99792350585001,35.99792350585001 0 0,0 -0.6122460600406466,0.09562024310217725 l -2.1866852026186496 -14.837658754398449" fill="#ffae10" stroke="none" /><path d="M 103.06178313531738 120.77559828337769 l 2.1540550911273635 14.61624853090314 a35.77412178279101,35.77412178279101 0 0,0 -0.6099852469437083,0.08453839702816929 l -1.9021412529968245 -14.651161493423912" fill="#ffab0f" stroke="none" /><path d="M 102.70371172650421 120.8252237178851 l 1.974959655689942 15.212042119859609 a36.339709615829946,36.339709615829946 0 0,0 -0.6210154873998774,0.07519632703000816 l -1.7128167452386842 -15.243783975614967" fill="#ffb210" stroke="none" /><path d="M 101.98527174616119 120.90594882070398 l 1.3685909371859812 14.411977677420863 a35.476813935663635,35.476813935663635 0 0,0 -0.6084369584454914,0.05249850094388006 l -1.1203096609989482 -14.433400430643406" fill="#ffa70f" stroke="none" /><path d="M 101.62511606390274 120.93702456842531 l 1.1914100809368682 15.349415767720702 a36.39558450956997,36.39558450956997 0 0,0 -0.6250287198746878,0.04310563995478347 l -0.9270186002832501 -15.36764975219177" fill="#ffb310" stroke="none" /><path d="M 100.90346689309514 120.98055641714683 l 0.6569751633612011 15.25645774616381 a36.270596560899484,36.270596560899484 0 0,0 -0.6239918271463015,0.021491540200623896 l -0.39426298454024733 -15.265506084790527" fill="#ffb110" stroke="none" /><line stroke="#e1ed5e" stroke-width="0.3" x1="102.19456741930631" x2="102.32365962044197" y1="184.97166512339345" y2="189.96999836594603" /><path d="M 102.22038585953345 185.97133177190398 a86.0,86.0 0 0,1 -42.740103519485714,-10.115201625700543" fill="none" id="id91" stroke="none" /><text fill="#e1ed5e" style="font-size:6.75px; font-family:Arial;" text-anchor="middle"><textPath startOffset="22.20632615414155" xlink:href="#id91">July</textPath></text><path d="M 100.54218724476979 120.99299961872073 l 0.3939524690287947 15.253483205100137 a36.258569672027775,36.258569672027775 0 0,0 -0.624062317443144,0.01074379874330311 l -0.1313304616929828 -15.2580044811226" fill="#ffb110" stroke="none" /><path d="M 100.18074693466247 120.99922214144158 l 0.13092112000569045 15.210447065893089 a36.211010495164324,36.211010495164324 0 0,0 -0.6233361093362814,0.0 l 0.13092112000568 -15.210447065893089" fill="#ffb110" stroke="none" /><path d="M 99.81925306533755 120.99922214144158 l -0.1287442190303647 14.957534189412291 a35.95808825022006,35.95808825022006 0 0,0 -0.6188905984774453,-0.010654762911189351 l 0.3861945074004779 -14.953101949221942" fill="#ffad10" stroke="none" /><path d="M 98.73552117531835 120.96189622390904 l -0.8393812600751793 13.91484184831622 a34.940135744081466,34.940135744081466 0 0,0 -0.600034004416903,-0.04138185803719165 l 1.0787780252710124 -13.898331645762743" fill="#ffa00e" stroke="none" /><path d="M 98.37488393609728 120.93702456842531 l -1.1222293895886164 14.458133067000636 a35.50162096408376,35.50162096408376 0 0,0 -0.6088624056952749,-0.05253521032278006 l 1.3709361130254332 -14.436673604399193" fill="#ffa70f" stroke="none" /><path d="M 98.01472825383883 120.90594882070398 l -1.4350945311186687 15.112295270636123 a36.18028210080885,36.18028210080885 0 0,0 -0.6194880994792842,-0.06421247444504198 l 1.6950152272035464 -15.08535342773532" fill="#ffb010" stroke="none" /><path d="M 97.65516085044442 120.86867818915974 l -1.720050206014185 15.308160572681988 a36.40449132007366,36.40449132007366 0 0,0 -0.6221225529780078,-0.07533037725411607 l 1.983300182043582 -15.276284666702523" fill="#ffb310" stroke="none" /><path d="M 97.2962882734958 120.8252237178851 l -1.9581881543183346 15.082860349212808 a36.209443683500346,36.209443683500346 0 0,0 -0.6174079291472415,-0.08556711314594083 l 2.2175246746524073 -15.046918670574263" fill="#ffb110" stroke="none" /><path d="M 96.58105272829116 120.7198165907248 l -2.4426974139914894 14.803458018597814 a36.00363755776274,36.00363755776274 0 0,0 -0.6106063117592728,-0.10616173409481705 l 2.6971526972228124 -14.75921770598199" fill="#ffae10" stroke="none" /><path d="M 95.86986931433489 120.58985236759428 l -2.903313928833317 14.473828970821431 a35.76214607860074,35.76214607860074 0 0,0 -0.6025215542961198,-0.12626424991009633 l 3.152026944558824 -14.421708740184794" fill="#ffab0f" stroke="none" /><path d="M 95.51606077576429 120.51570834832081 l -3.2395160304576063 14.822004212580842 a36.17189088378097,36.17189088378097 0 0,0 -0.6071363188044185,-0.13818224949373356 l 3.4941724986548874 -14.764045229509422" fill="#ffb010" stroke="none" /><path d="M 95.16358092515715 120.4354850818985 l -3.3415587593972997 14.11920123571376 a35.50923355925756,35.50923355925756 0 0,0 -0.5935904667744534,-0.14589009474885534 l 3.584102510914964 -14.059589882650876" fill="#ffa70f" stroke="none" /><path d="M 94.81253420990036 120.34920634021253 l -3.5875484948784964 14.073107666007214 a35.52318365862444,35.52318365862444 0 0,0 -0.59122343764057,-0.15614748342708 l 3.8292623753305555 -14.009268833276552" fill="#ffa70f" stroke="none" /><path d="M 94.46302465271185 120.25689768951611 l -3.9782740685257743 14.554424705259166 a36.08833798220874,36.08833798220874 0 0,0 -0.5978099037579452,-0.1689470501637244 l 4.2282151403883335 -14.48378886175692" fill="#ffaf10" stroke="none" /><path d="M 94.11515582081647 120.15858648285463 l -4.1799780093806005 14.318552137130666 a35.916204324915725,35.916204324915725 0 0,0 -0.5919760542843242,-0.17835752910224661 l 4.425829038105171 -14.244479238922693" fill="#ffad10" stroke="none" /><path d="M 93.42475214034765 119.94407469862007 l -4.792929651257282 14.537938193399201 a36.307639320189004,36.307639320189004 0 0,0 -0.5918668507094849,-0.2007933706393816 l 5.042466234903992 -14.453281835861695" fill="#ffb210" stroke="none" /><path d="M 92.7421414339146 119.70592522655815 l -5.098911905202717 13.844135405207568 a35.753270408107475,35.753270408107475 0 0,0 -0.5756783538186327,-0.21767229457558424 l 5.336460479781634 -13.754314860525351" fill="#ffab0f" stroke="none" /><path d="M 92.40401165467489 119.57807347666478 l -5.500220945336699 14.176394816609418 a36.20600540720379,36.20600540720379 0 0,0 -0.5790873398568703,-0.2304308035297049 l 5.743429361235427 -14.079617168673646" fill="#ffb110" stroke="none" /><path d="M 91.7346041902142 119.30500536409082 l -6.2471476276727955 14.591100201118627 a36.872210260736274,36.872210260736274 0 0,0 -0.5813155474763048,-0.25483165272442104 l 6.497383849806844 -14.481403995099752" fill="#ffb911" stroke="none" /><path d="M 91.40352486487194 119.15986991738527 l -6.10404071598061 13.604718707404212 a35.91132737786758,35.91132737786758 0 0,0 -0.5618104932430085,-0.25789964238325586 l 6.337319204991038 -13.497631994686882" fill="#ffad10" stroke="none" /><path d="M 91.07499286063937 119.00905698771935 l -6.392722150784816 13.61563276907695 a36.04168714604505,36.04168714604505 0 0,0 -0.559310917371171,-0.26850322960664 l 6.626145736156229 -13.503575262970747" fill="#ffae10" stroke="none" /><path d="M 90.42595943632237 118.69057910512821 l -7.037313798723022 13.738344784296423 a36.43586417774859,36.43586417774859 0 0,0 -0.5557494652591353,-0.2907418538817481 l 7.272754166508653 -13.615173511469958" fill="#ffb410" stroke="none" /><path d="M 90.10565033884886 118.52300852407294 l -6.951761705292732 13.01425012601383 a35.75458224246371,35.75458224246371 0 0,0 -0.5403661321392652,-0.29465069997536286 l 7.1747506493006385 -12.8926587742787" fill="#ffab0f" stroke="none" /><line stroke="#e1ed5e" stroke-width="0.3" x1="58.666819895761336" x2="56.23545636021788" y1="174.27360380694188" y2="178.64263932499728" /><path d="M 58.180547188652646 175.14741091055294 a86.0,86.0 0 0,1 -31.652253787137756,-30.449443065178592" fill="none" id="id92" stroke="none" /><text fill="#e1ed5e" style="font-size:6.75px; font-family:Arial;" text-anchor="middle"><textPath startOffset="22.20632615414155" xlink:href="#id92">August</textPath></text><path d="M 89.7882731507175 118.34994917583269 l -7.049192841810452 12.667037836695966 a35.49637772953364,35.49637772953364 0 0,0 -0.531349052814738,-0.3017138595466497 l 7.266190661546397 -12.543820811354683" fill="#ffa70f" stroke="none" /><path d="M 89.4739219176387 118.17145234162733 l -7.405919514226952 12.785038496362144 a35.775143085759595,35.775143085759595 0 0,0 -0.5302082831831054,-0.31325639938118427 l 7.624895668438439 -12.65566352468721" fill="#ffab0f" stroke="none" /><path d="M 88.54995079064634 117.60387380957326 l -8.052946932542264 12.381000203899236 a35.76953351826979,35.76953351826979 0 0,0 -0.5132507363487466,-0.34015460134470915 l 8.264872367630973 -12.240547581463208" fill="#ffab0f" stroke="none" /><path d="M 88.24862548938628 117.40417183066458 l -8.67647074321381 12.850138301884558 a36.505070104175786,36.505070104175786 0 0,0 -0.517751609851786,-0.3561142783672903 l 8.896379237688485 -12.698883234152166" fill="#ffb510" stroke="none" /><path d="M 87.95078237400918 117.19931262002967 l -8.882969188207369 12.679741440847819 a36.48169837599851,36.48169837599851 0 0,0 -0.5112174697960002,-0.36474009103377686 l 9.099913985852256 -12.524957087969822" fill="#ffb410" stroke="none" /><path d="M 86.51685102203217 116.09983520530335 l -9.688367142587246 11.568596821040213 a36.08962856724266,36.08962856724266 0 0,0 -0.4728334645885407,-0.4029589364253054 l 9.886066083752842 -11.400113494391956" fill="#ffaf10" stroke="none" /><path d="M 86.24171649860922 115.8653595955263 l -9.406039694308273 10.846571238694843 a35.35693875333405,35.35693875333405 0 0,0 -0.4563699346145054,-0.40269340607485926 l 9.591351981829366 -10.683054690847694" fill="#ffa50f" stroke="none" /><path d="M 85.97065885151581 115.62618273729859 l -9.51099923687764 10.593556070579636 a35.23666171208692,35.23666171208692 0 0,0 -0.4478419469638111,-0.4090930003213637 l 9.691940733308305 -10.428270303671695" fill="#ffa40f" stroke="none" /><path d="M 85.70375840098266 115.38237550388516 l -10.046365835190112 10.809622281209865 a35.75728295984406,35.75728295984406 0 0,0 -0.44724556633804285,-0.42289859863334334 l 10.230947235918972 -10.635089045830592" fill="#ffab0f" stroke="none" /><path d="M 85.18274418774928 114.88116024355367 l -10.800151915982513 10.846731226950846 a36.30669329796646,36.30669329796646 0 0,0 -0.43906786363104866,-0.4447734277633507 l 10.985260404669095 -10.65921730520683" fill="#ffb210" stroke="none" /><path d="M 84.43433777217949 114.09645910891817 l -11.075723283088278 10.03031403846721 a35.94251805934382,35.94251805934382 0 0,0 -0.41135553032943184,-0.4621622990751571 l 11.246737663066048 -9.838177569651188" fill="#ffad10" stroke="none" /><path d="M 84.19399662182784 113.82643327865904 l -11.511257773930827 10.069568742753564 a36.29396188706257,36.29396188706257 0 0,0 -0.40728304647804614,-0.4737621959715453 l 11.682883329979653 -9.869929447620489" fill="#ffb210" stroke="none" /><path d="M 83.95833913139862 113.55231037782056 l -11.503116288376114 9.718058717808324 a36.05863040208751,36.05863040208751 0 0,0 -0.3964800951525022,-0.47758581572553016 l 11.668692383422153 -9.518611644969033" fill="#ffaf10" stroke="none" /><path d="M 83.50135304334701 112.99209946851258 l -11.57803144081996 9.117289225225935 a35.73688484249763,35.73688484249763 0 0,0 -0.3764169190963532,-0.4865696094433628 l 11.73325517713438 -8.916641621669319" fill="#ffaa0f" stroke="none" /><path d="M 83.06392112726016 112.41649034213515 l -14.781311067774013 10.83674724806123 a39.32818179200166,39.32818179200166 0 0,0 -0.3955669868379259,-0.5494079474515106 l 14.965657846987545 -10.58070569515858" fill="#ffda14" stroke="none" /><path d="M 82.85270091963577 112.12312394758628 l -13.326034140305758 9.421493312476914 a37.3201630551181,37.3201630551181 0 0,0 -0.3663402169877758,-0.5277404055153694 l 13.486235264455667 -9.190711644774531" fill="#ffbf11" stroke="none" /><path d="M 82.44556493220864 111.52570212397912 l -13.57045367611668 8.909942482008738 a37.23404718510861,37.23404718510861 0 0,0 -0.3471545407444699,-0.5387915565266717 l 13.721813080238194 -8.675029325560617" fill="#ffbe11" stroke="none" /><path d="M 82.05923443525364 110.91462005526583 l -13.342206819510176 8.116995766328047 a36.61730140213639,36.61730140213639 0 0,0 -0.32296307142845754,-0.5413046845152566 l 13.479950766636865 -7.88612898792668" fill="#ffb610" stroke="none" /><line stroke="#e1ed5e" stroke-width="0.3" x1="26.63291911575756" x2="22.317208475507996" y1="142.92168965132927" y2="145.44649492493687" /><path d="M 25.769776987707644 143.4266507060508 a86.0,86.0 0 0,1 -11.730757126820373,-40.83630448921669" fill="none" id="id93" stroke="none" /><text fill="#e1ed5e" style="font-size:6.75px; font-family:Arial;" text-anchor="middle"><textPath startOffset="21.46611528233685" xlink:href="#id93">September</textPath></text><path d="M 81.69416730710424 110.29060199501025 l -13.22593070542139 7.434941157082479 a36.17246166691112,36.17246166691112 0 0,0 -0.3004443163295247,-0.5453937040889859 l 13.351951431202432 -7.20617693459567" fill="#ffb010" stroke="none" /><path d="M 81.51974371655577 109.97397251340807 l -13.319097163053838 7.188445169276172 a36.1351277890396,36.1351277890396 0 0,0 -0.2907113907110218,-0.5499163937771964 l 13.440861061989745 -6.95811376041285" fill="#ffb010" stroke="none" /><path d="M 81.18737489456691 109.33194174019688 l -13.553040135195753 6.7229416540953935 a36.12887442576604,36.12887442576604 0 0,0 -0.27156310334680644,-0.5595004272286903 l 13.666756495157278 -6.488652270901418" fill="#ffb010" stroke="none" /><path d="M 80.87730276802145 108.67885076344099 l -14.463358856430682 6.564206478317334 a36.883247655938476,36.883247655938476 0 0,0 -0.25740803657342415,-0.5803871687360355 l 14.574207977735387 -6.314270973088602" fill="#ffba11" stroke="none" /><path d="M 80.73074385275274 108.34839909993369 l -15.528313751661475 6.727636996323701 a37.92305018382745,37.92305018382745 0 0,0 -0.25435354326604825,-0.601216641458896 l 15.64181827611983 -6.4593458291986465" fill="#ffc712" stroke="none" /><path d="M 80.45479744820244 107.68017299344265 l -17.24218987365524 6.775217635351569 a39.52556842975562,39.52556842975562 0 0,0 -0.2433753381088383,-0.6353762099718497 l 17.356259491357587 -6.477417858546562" fill="#ffdc14" stroke="none" /><path d="M 80.32549172779594 107.34259656027581 l -14.469402928641077 5.400032707459516 a36.44422139031293,36.44422139031293 0 0,0 -0.21428462705990942,-0.5896192620836004 l 14.560211816706213 -5.150165648369799" fill="#ffb410" stroke="none" /><path d="M 80.20201598880116 107.00284435728193 l -15.335123486160077 5.424263546860743 a37.266181093347654,37.266181093347654 0 0,0 -0.2087068853479899,-0.6065999023487514 l 15.426221202451295 -5.159490941422694" fill="#ffbf11" stroke="none" /><path d="M 79.97269907076064 106.31721596034903 l -14.573139843781236 4.596808723192722 a36.28093764610094,36.28093764610094 0 0,0 -0.18274056530152066,-0.5972067407037186 l 14.650107181588886 -4.345275009936955" fill="#ffb210" stroke="none" /><path d="M 79.76711848015287 105.62410040840567 l -14.100107140558814 3.919383319177354 a35.63470488181717,35.63470488181717 0 0,0 -0.15918858161697208,-0.592399931802679 l 14.165483798517561 -3.676092454199136" fill="#ffa90f" stroke="none" /><path d="M 79.67330655649465 105.27499134158121 l -14.202839385702514 3.685786623076528 a35.67329784496016,35.67329784496016 0 0,0 -0.1491291396461892,-0.5956967824339306 l 14.264179839643763 -3.4407620012452056" fill="#ffa90f" stroke="none" /><path d="M 79.58551787078972 104.9243191809786 l -14.198912390984692 3.4250183861345618 a35.60615842828697,35.60615842828697 0 0,0 -0.1385917733007224,-0.5970497320958128 l 14.255764730215969 -3.1800999966901746" fill="#ffa90f" stroke="none" /><path d="M 79.50377843672027 104.57218783832718 l -15.107563399046645 3.370114702684 a36.47889353169214,36.47889353169214 0 0,0 -0.131438597397346,-0.6140373688782029 l 15.163336035168431 -3.109563514389633" fill="#ffb410" stroke="none" /><path d="M 79.29508885075956 103.50808413554451 l -14.944758237112142 2.532127228330779 a36.157752705008264,36.157752705008264 0 0,0 -0.09869042625187463,-0.6145453784778018 l 14.986130417725308 -2.274502620159764" fill="#ffb010" stroke="none" /><path d="M 79.23777060512086 103.15116336523772 l -15.269641680847016 2.317532214380592 a36.44451076033658,36.44451076033658 0 0,0 -0.08879609420420903,-0.6210396760497837 l 15.307271826067824 -2.0543470663504078" fill="#ffb410" stroke="none" /><path d="M 79.18660465613746 102.79330883721812 l -14.77316541070415 1.9826661058246575 a35.90561575847209,35.90561575847209 0 0,0 -0.07693802469970622,-0.6132717568543895 l 14.805104944650704 -1.7280765946828593" fill="#ffad10" stroke="none" /><path d="M 79.1416061653843 102.43462659150553 l -14.912012888117085 1.7405550685322921 a36.01324949243046,36.01324949243046 0 0,0 -0.06656911717926485,-0.6163473489743101 l 14.939764306797402 -1.4836113976732" fill="#ffae10" stroke="none" /><path d="M 79.10278846688536 102.07522291339032 l -15.30477009318747 1.5198587395846508 a36.38005065640609,36.38005065640609 0 0,0 -0.05651970667265234,-0.6236902534215307 l 15.328664396137198 -1.256187097614554" fill="#ffb310" stroke="none" /><path d="M 79.0095281055655 100.63252640178507 l -17.160299410976222 0.5171080714415623 a38.16808890447335,38.16808890447335 0 0,0 -0.014136619187240771,-0.6568731448525931 l 17.166658092848472 -0.22164511079884042" fill="#ffca12" stroke="none" /><line stroke="#e1ed5e" stroke-width="0.3" x1="15.007084014347285" x2="10.007500721073583" y1="101.09737516637583" y2="101.16192664675087" /><path d="M 14.007167355692545 101.11028546245083 a86.0,86.0 0 0,1 10.666146001902534,-42.60595125391555" fill="none" id="id94" stroke="none" /><text fill="#e1ed5e" style="font-size:6.75px; font-family:Arial;" text-anchor="middle"><textPath startOffset="22.20632615414155" xlink:href="#id94">October</textPath></text><path d="M 79.00175016825051 100.2711162175752 l -15.059002548488396 0.19443238575190236 a36.060257690624326,36.060257690624326 0 0,0 -0.002671382887167813,-0.6207353032711292 l 15.060118228665067 0.06481239572290232" fill="#ffaf10" stroke="none" /><path d="M 79.00019446554 99.90962569577889 l -15.14065607594486 -0.0651589966425839 a36.14079628371274,36.14079628371274 0 0,0 0.008031849476960933,-0.6220755933992854 l 15.137291219350184 0.3257708481023413" fill="#ffb010" stroke="none" /><path d="M 79.01574976396665 99.18683210126434 l -15.071024156875929 -0.5840224410018133 a36.08233573915962,36.08233573915962 0 0,0 0.029392312904975803,-0.6204252705957236 l 15.058738235737453 0.843358818220546" fill="#ffaf10" stroke="none" /><path d="M 79.08570108090925 98.10471618934814 l -14.977688395732415 -1.3572996373073691 a36.03906286924462,36.03906286924462 0 0,0 0.06130566254325165,-0.6173396554546996 l 14.952105607506935 1.614914823466499" fill="#ffae10" stroke="none" /><path d="M 79.12142395522702 97.74499172005258 l -14.957622307319832 -1.615510659299814 a36.04461165263973,36.04461165263973 0 0,0 0.07193414049927889,-0.6162877863585213 l 14.927597813816964 1.872742183983197" fill="#ffae10" stroke="none" /><path d="M 79.3925641242962 95.95851677861259 l -14.077576796917691 -2.7608621841989587 a35.34574949151334,35.34574949151334 0 0,0 0.12223015307075816,-0.5960376355283291 l 14.02796734793194 3.00277547589069" fill="#ffa50f" stroke="none" /><path d="M 79.46518482838121 95.60439243477599 l -14.802253241284594 -3.1685162873868213 a36.1375756474594,36.1375756474594 0 0,0 0.13543952588540623,-0.6071488375220687 l 14.745519328397151 3.422843294458849" fill="#ffb010" stroke="none" /><path d="M 79.54389044137918 95.25157060432595 l -14.567039679687532 -3.381413226437671 a35.95435055218108,35.95435055218108 0 0,0 0.1451309340356866,-0.6016614176253121 l 14.50667594539103 3.63165987572238" fill="#ffad10" stroke="none" /><path d="M 79.62865764111835 94.90015583598534 l -14.544349554694026 -3.64109123930935 a35.99318676539793,35.99318676539793 0 0,0 0.1556339707607257,-0.5997211764333363 l 14.479519252062994 3.8909088412915502" fill="#ffae10" stroke="none" /><path d="M 79.71946130924805 94.55025226153421 l -15.010996571338428 -4.033726414479975 a36.54351848365123,36.54351848365123 0 0,0 0.16847123996524585,-0.6060806867217461 l 14.939338560806823 4.291518404620664" fill="#ffb510" stroke="none" /><path d="M 79.81627453868168 94.20196356495316 l -14.431529693151163 -4.145643733348996 a36.015172701243216,36.015172701243216 0 0,0 0.1762927318186304,-0.5943714518809124 l 14.358031064220825 4.393444571976448" fill="#ffae10" stroke="none" /><path d="M 80.2630227832202 92.82701384747504 l -15.077201384210538 -5.479489364553126 a37.0420324546577,37.0420324546577 0 0,0 0.2229496635639298,-0.5973942547524188 l 14.98064713214498 5.738206756334887" fill="#ffbc11" stroke="none" /><path d="M 80.38941819471856 92.48833698450439 l -14.302853049905236 -5.478583620711705 a36.31621636881361,36.31621636881361 0 0,0 0.2286303832309176,-0.5818393874146717 l 14.206429116792627 5.72397201302214" fill="#ffb210" stroke="none" /><path d="M 80.52162464483688 92.15188598940014 l -13.831214241315408 -5.5727926118901205 a35.91169020883626,35.91169020883626 0 0,0 0.2359540207657431,-0.5713813769892873 l 13.733238533663464 5.810048559332719" fill="#ffad10" stroke="none" /><path d="M 80.803312248108 91.48605970444005 l -14.12555638574815 -6.264838250440997 a36.452493051645064,36.452493051645064 0 0,0 0.2593294287059665,-0.5713980207351852 l 14.015624640078832 6.507058280018254" fill="#ffb410" stroke="none" /><path d="M 80.95270993114464 91.15688171328213 l -15.127726490866323 -7.023375728738802 a37.67860651881613,37.67860651881613 0 0,0 0.2781790099144385,-0.5859159393721664 l 15.004589287110132 7.2827340837515" fill="#ffc412" stroke="none" /><path d="M 81.26839172434947 90.50648371742162 l -56.19482482695157 -28.480548847735136 a84.0,84.0 0 0,0 0.6647622673595439,-1.284109110958658 l 55.69625312643191 29.44363068095413" fill="#4dd2ff" stroke="none" /><line stroke="#e1ed5e" stroke-width="0.3" x1="26.266209847984243" x2="21.928928074336255" y1="57.711370442889674" y2="55.22380399835377" /><path d="M 25.398753493254645 57.213857153982495 a86.0,86.0 0 0,1 29.58750427330803,-30.492523968695096" fill="none" id="id95" stroke="none" /><text fill="#e1ed5e" style="font-size:6.75px; font-family:Arial;" text-anchor="middle"><textPath startOffset="21.46611528233685" xlink:href="#id95">November</textPath></text><path d="M 81.78341655067845 89.55222093294921 l -13.192084496254477 -7.566072125114439 a36.207778955480364,36.207778955480364 0 0,0 0.3147323693923763,-0.5379796412880653 l 13.059892452391775 7.792031178756396" fill="#ffb110" stroke="none" /><path d="M 82.34701348167596 88.62581576622439 l -13.211233160900559 -8.5122707011343 a36.71608838487071,36.71608838487071 0 0,0 0.3468854986692539,-0.5283304129193964 l 13.062751026873384 8.738419178031364" fill="#ffb711" stroke="none" /><path d="M 82.54541684631803 88.32363383020206 l -12.850590314968201 -8.596492777541682 a36.46083307967203,36.46083307967203 0 0,0 0.35345397982652854,-0.5186501014650973 l 12.700711869472933 8.816420902277194" fill="#ffb410" stroke="none" /><path d="M 82.7489923806493 88.02491185347247 l -12.024810578611989 -8.347232219795112 a35.638044786879306,35.638044786879306 0 0,0 0.3541528667564713,-0.5009241143369385 l 11.87934509205164 8.552982834463837" fill="#ffa90f" stroke="none" /><path d="M 82.95767976084542 87.72973835380427 l -11.732462039009965 -8.447228836949305 a35.4570515846281,35.4570515846281 0 0,0 0.36088083684132116,-0.49224105588552475 l 11.58531858965501 8.647932336506331" fill="#ffa70f" stroke="none" /><path d="M 84.80347519578584 85.50635884689758 l -10.391931298959246 -9.91127412847976 a35.36055677793034,35.36055677793034 0 0,0 0.4238817045885706,-0.43684735683228026 l 10.219785330667557 10.088685680862165" fill="#ffa50f" stroke="none" /><path d="M 85.31137513191541 84.99185889309783 l -10.529646976578826 -10.758694503372409 a36.05400188880921,36.05400188880921 0 0,0 0.4472700774697136,-0.43027346015424195 l 10.342893655496685 10.938351050288963" fill="#ffaf10" stroke="none" /><path d="M 85.57189188830299 84.74124197986013 l -10.589249795382125 -11.198890318236375 a36.412571349028326,36.412571349028326 0 0,0 0.4591315154276191,-0.4267127056297884 l 10.39491039615965 11.379507609940811" fill="#ffb310" stroke="none" /><path d="M 85.83668400450813 84.49514656593479 l -10.79615564188927 -11.81875846956531 a37.00749913027701,37.00749913027701 0 0,0 0.4740290782188648,-0.4255879868062834 l 10.591115576074433 12.002845465140872" fill="#ffbb11" stroke="none" /><path d="M 86.37877921826538 84.01681056812374 l -9.750617650970117 -11.44140980390197 a36.032644573601615,36.032644573601615 0 0,0 0.4755321841430904,-0.3982445286463363 l 9.552227929867916 11.607555489942117" fill="#ffae10" stroke="none" /><path d="M 86.65592168130627 83.78471172551755 l -9.469178187560559 -11.50663615475291 a35.90194655558929,35.90194655558929 0 0,0 0.48056738865214704,-0.3885854070683029 l 9.269707400343911 11.667927659085347" fill="#ffad10" stroke="none" /><path d="M 87.80319425747018 82.90503203632743 l -9.683461475832695 -13.572280087202726 a37.67261865812973,37.67261865812973 0 0,0 0.531128060714848,-0.37208914868904797 l 9.448402275534187 13.736954078655716" fill="#ffc412" stroke="none" /><path d="M 88.09926311788651 82.69761687909137 l -8.674498923301277 -12.611782382858065 a36.30699142362483,36.30699142362483 0 0,0 0.5179716281304776,-0.34973675548922956 l 8.45612260076426 12.75923105064596" fill="#ffb210" stroke="none" /><path d="M 89.00827224532344 82.1063720568725 l -8.114991052888735 -13.210537406225301 a36.50391493622634,36.50391493622634 0 0,0 0.5382379426580866,-0.32428233806605594 l 7.886391044012999 13.348266353749976" fill="#ffb510" stroke="none" /><line stroke="#e1ed5e" stroke-width="0.3" x1="56.762969772571076" x2="54.21961505331055" y1="26.818313649435495" y2="22.513508569990535" /><path d="M 56.25429882871897 25.957352633546506 a86.0,86.0 0 0,1 42.265352541879196,-11.944610805530505" fill="none" id="id96" stroke="none" /><text fill="#e1ed5e" style="font-size:6.75px; font-family:Arial;" text-anchor="middle"><textPath startOffset="22.20632615414155" xlink:href="#id96">December</textPath></text><path d="M 89.3179101791058 81.91981866633112 l -7.978113294037147 -13.503512652983012 a36.68423239121904,36.68423239121904 0 0,0 0.5464260837607076,-0.31652525707744084 l 7.744490477811119 13.6388420674505" fill="#ffb711" stroke="none" /><path d="M 89.63071344664047 81.73862282372117 l -7.981292223910259 -14.055874230585848 a37.16380604775675,37.16380604775675 0 0,0 0.5590071947088088,-0.3110868986312061 l 7.738160940129404 14.19117652677724" fill="#ffbd11" stroke="none" /><path d="M 89.94658935756843 81.56283822128135 l -4.2507870203856255 -7.7956079552691575 a29.879228214486588,29.879228214486588 0 0,0 0.4536733296238223,-0.24233658098267688 l 4.115968644233498 7.867623262753584" fill="#ff5908" stroke="none" /><path d="M 90.58718382345135 81.22770947309562 l -8.06372765455371 -16.08175868113251 a38.990182488373904,38.990182488373904 0 0,0 0.6025445010468695,-0.29566596984166055 l 7.785711886496416 16.218179811109" fill="#ffd513" stroke="none" /><path d="M 90.91171255644093 81.06846463323043 l -6.802432024880129 -14.16993941474988 a36.71815079679531,36.71815079679531 0 0,0 0.5721418562618127,-0.26862827309964127 l 6.557511957318708 14.284932670489528" fill="#ffb711" stroke="none" /><path d="M 91.90106846888425 80.62456947434976 l -5.68201397156523 -13.593332222759171 a35.733090771842996,35.733090771842996 0 0,0 0.5695448509904019,-0.23233164513853555 l 5.447185250986447 13.689124754081284" fill="#ffaa0f" stroke="none" /><path d="M 93.25333710446033 80.11325718540243 l -2.9307411962363625 -8.6387740618003 a30.122371470738877,30.122371470738877 0 0,0 0.4924536933666589,-0.162354240154897 l 2.7816046806272943 8.68794202621443" fill="#ff5d08" stroke="none" /><path d="M 93.59665428221793 80.00007090966166 l -4.602529084101866 -14.375337421284913 a36.09415780843032,36.09415780843032 0 0,0 0.5933443445313054,-0.18435497609814688 l 4.354399366859831 14.452432532265584" fill="#ffaf10" stroke="none" /><path d="M 94.28887869178378 79.79150937346287 l -4.3185360450406485 -15.280903779966158 a36.87941352521872,36.87941352521872 0 0,0 0.6123775876397602,-0.1673859273993373 l 4.0548605681771654 15.35297624819179" fill="#ffba11" stroke="none" /><path d="M 94.63758080256005 79.69619591428918 l -2.1400726527778278 -8.102987526960314 a29.380830377787273,29.380830377787273 0 0,0 0.49008779639964917,-0.12493429156225004 l 2.000275967693179 8.138624814691427" fill="#ff5207" stroke="none" /><path d="M 94.98787191387505 79.60689891045804 l -3.7539782694064585 -15.274002782945082 a36.72855727206377,36.72855727206377 0 0,0 0.6152493552548572,-0.14560964447940233 l 3.4905052271890673 15.336358339565356" fill="#ffb811" stroke="none" /><path d="M 95.692805502759 79.44645832069477 l -3.093333760831555 -14.76110828567857 a36.08174497786741,36.08174497786741 0 0,0 0.6089801154855554,-0.1221556821789212 l 2.838787235878863 14.812167923934702" fill="#ffaf10" stroke="none" /><path d="M 96.04723909329186 79.375362276772 l -3.0057517302652275 -15.683351962290443 a36.96878430679906,36.96878430679906 0 0,0 0.6260133364948828,-0.11439993586789497 l 2.735343272667451 15.732767379509074" fill="#ffbb11" stroke="none" /><path d="M 96.75951476605007 79.25152402106235 l -2.4156233245894057 -15.466974513354433 a36.65447337482344,36.65447337482344 0 0,0 0.624227461185193,-0.09199490128705232 l 2.149026882975564 15.506263898802453" fill="#ffb710" stroke="none" /><path d="M 97.11714578562143 79.19881850522333 l -1.3732811613417575 -9.908884930064104 a31.0035944392677,31.0035944392677 0 0,0 0.5292539033234834,-0.06871234634012217 l 1.2025125295104162 9.931055599568362" fill="#ff6909" stroke="none" /><path d="M 97.83486435360386 79.11191278185805 l -1.6042918594944566 -15.47736204900303 a36.560285613264284,36.560285613264284 0 0,0 0.6265299113627688,-0.05949656443822788 l 1.3376368210414515 15.50268415795644" fill="#ffb510" stroke="none" /><path d="M 98.19473922651362 79.07773832637324 l -1.2501204922610034 -14.488404360626372 a35.54223717872144,35.54223717872144 0 0,0 0.6099890938677144,-0.04734689363382017 l 1.000541209030955 14.507776516448654" fill="#ffa80f" stroke="none" /><path d="M 99.27714615592234 79.0124445844662 l -0.5159508876469837 -14.980272893204022 a35.989155455639484,35.989155455639484 0 0,0 0.6193105811190008,-0.01599496516611499 l 0.2580136713331039 14.986934650512497" fill="#ffae10" stroke="none" /><path d="M 99.63851952072746 79.00311137660856 l -0.2542648560194029 -14.76918165380891 a35.77137019169895,35.77137019169895 0 0,0 0.615745335291935,-0.005299914498597719 l 3.617942244856949e-15 14.77137019169895" fill="#ffab0f" stroke="none" /></svg>