<?xml version="1.0" encoding="utf-8" ?>
<svg baseProfile="full" height="200mm" version="1.1" viewBox="0,0,200,200" width="200mm" xmlns="http://www.w3.org/2000/svg" xmlns:ev="http://www.w3.org/2001/xml-events" xmlns:xlink="http://www.w3.org/1999/xlink"><defs /><rect fill="#1a1a1a" height="200" width="200" x="0" y="0" /><rect fill="#1a1a1a" height="200" width="180" x="10" y="0" /><text alignment-baseline="middle" fill="#e1ed5e" style="dominant-baseline: central; font-size:9.0px; font-family:Arial;" text-anchor="middle" x="100.0" y="100.0">2020</text><line stroke="#e1ed5e" stroke-width="0.3" x1="100.0" x2="100.0" y1="15.0" y2="10.0" /><path d="M 100.0 14.0 a86.0,86.0 0 0,1 42.35913384403234,11.155469271406648" fill="none" id="id49" stroke="none" /><text fill="#e1ed5e" style="font-size:6.75px; font-family:Arial;" text-anchor="middle"><textPath startOffset="22.145653131862478" xlink:href="#id49">January</textPath></text><path d="M 100.0 79.0 l 0.0 -30.59761224116548 a51.59761224116548,51.59761224116548 0 0,0 0.8857416262873722,0.007603026578867386 l -0.5252487014385174 30.593103612781047" fill="#a8ff21" stroke="none" /><path d="M 100.36049292484886 79.00309439819443 l 0.4042534117943643 -23.545734580541144 a44.5492046098852,44.5492046098852 0 0,0 0.7645209623876656,0.019691348048553724 l -0.8083876882527713 23.535325515142546" fill="#fffc17" stroke="none" /><path d="M 100.72087961077811 79.0123766808444 l 0.8187300825906412 -23.836433041747554 a44.85048970360679,44.85048970360679 0 0,0 0.7692376674131715,0.033034375264691086 l -1.227793510604649 23.818866098057033" fill="#feff18" stroke="none" /><path d="M 101.08105385017728 79.02784411241856 l 1.6401263035220484 -31.818012125063433 a52.86025596071363,52.86025596071363 0 0,0 0.9058124597707844,0.054491428249047576 l -2.186083115425295 31.78516871898969" fill="#99ff23" stroke="none" /><path d="M 101.44090949804482 79.04949213459386 l 2.1167853197227653 -30.777593978250493 a51.85030099010113,51.85030099010113 0 0,0 0.8874574193370837,0.06869481692967591 l -2.6448117338350827 30.736721394325766" fill="#a5ff21" stroke="none" /><path d="M 101.80034050326958 79.07731436759882 l 1.7267941625283323 -20.067965670289556 a41.14212164156651,41.14212164156651 0 0,0 0.70313930573453,0.06658802330423978 l -2.0710330316478753 20.035365891480133" fill="#ffcd13" stroke="none" /><path d="M 102.51750503828377 79.15144685158666 l 2.4015788855428513 -19.8885183044085 a41.032991326516296,41.032991326516296 0 0,0 0.6985811634948742,0.09044531769654252 l -2.742637870928517 19.84436139051156" fill="#ffcc13" stroke="none" /><path d="M 103.58742460773223 79.30868818359171 l 5.165284861441393 -29.79199045975731 a51.23644925010386,51.23644925010386 0 0,0 0.8653232821517144,0.15769072744319562 l -5.675942877144161 29.69893155838275" fill="#adff20" stroke="none" /><path d="M 103.94208987418118 79.37332000966035 l 5.740882024505486 -30.038720618048924 a51.58238811454213,51.58238811454213 0 0,0 0.868312165866516,0.17368675167380176 l -6.255690675902959 29.93574446971226" fill="#a9ff21" stroke="none" /><path d="M 104.29559338865022 79.4440306129975 l 5.497723779798811 -26.30859848474881 a47.876891951836484,47.876891951836484 0 0,0 0.8030495581381767,0.1750209135348563 l -5.948535754556121 26.210346113080234" fill="#d7ff1c" stroke="none" /><path d="M 104.9986988182912 79.60360301121754 l 7.273895340464191 -29.679975211965218 a51.55831281348655,51.55831281348655 0 0,0 0.8578191232029296,0.21805426664259792 l -7.782319756892514 29.550735713487352" fill="#a9ff21" stroke="none" /><path d="M 105.3480935250658 79.69241777938227 l 5.74867089970284 -21.828639758791713 a43.57292029915918,43.57292029915918 0 0,0 0.7216891474113254,0.19669958633604628 l -6.1225414480488585 21.726739678311525" fill="#ffee16" stroke="none" /><path d="M 106.04205211174951 79.88797359093562 l 8.793352691128964 -29.270211225800683 a51.5625312556662,51.5625312556662 0 0,0 0.8455257443208573,0.26194603693718577 l -9.294519068321453 29.114948601056852" fill="#a9ff21" stroke="none" /><path d="M 106.38641147887787 79.99465700312896 l 6.739974188969628 -21.11287315049207 a43.16259607394282,43.16259607394282 0 0,0 0.7039146542581067,0.23139072837624786 l -7.101411580875477 20.9940615007138" fill="#ffe915" stroke="none" /><path d="M 106.72888874123014 80.10723608172694 l 7.266405696882909 -21.481837287156658 a43.677521579387076,43.677521579387076 0 0,0 0.7081878090076407,0.24634448178008667 l -7.634099277935568 21.35393437280798" fill="#fff016" stroke="none" /><path d="M 107.06938296918511 80.22567764915836 l 5.580748940995601 -15.610348031701811 a37.57792883364144,37.57792883364144 0 0,0 0.6055608940796918,0.22237034819844242 l -5.847898986729418 15.512246834494647" fill="#ff9b0e" stroke="none" /><path d="M 107.40779381753099 80.34994680014964 l 8.310450046244213 -22.044456088523493 a44.55889692260571,44.55889692260571 0 0,0 0.7134255760986624,0.27596833896189155 l -8.687647884836402 21.898547861423562" fill="#fffc17" stroke="none" /><path d="M 107.74402155503746 80.48000691201159 l 11.281663072228378 -28.4371606697893 a51.5932677011576,51.5932677011576 0 0,0 0.8204448372099504,0.3336677727872921 l -11.768162370628767 28.239305640422714" fill="#a8ff21" stroke="none" /><path d="M 108.07796709384702 80.6158196554323 l 11.74990411604759 -28.195492476112083 a51.54580237457849,51.54580237457849 0 0,0 0.8138466709336661,0.3473827495071177 l -12.232185862151686 27.989635076945564" fill="#a9ff21" stroke="none" /><path d="M 108.4095320186766 80.7573450057729 l 10.743061841491734 -24.582227897861518 a47.82721204584101,47.82721204584101 0 0,0 0.7494902125270458,0.33523743893271 l -11.16346545687441 24.394186708018957" fill="#d8ff1c" stroke="none" /><path d="M 109.06512990194946 81.05736502329252 l 9.620225822343233 -20.102571956189436 a43.28591806784395,43.28591806784395 0 0,0 0.667509567502532,0.32651237879648093 l -9.963895639107832 19.934465827295735" fill="#ffeb16" stroke="none" /><path d="M 109.3889696526874 81.21577127319529 l 8.987861567051947 -17.981743863879373 a41.102854721025395,41.102854721025395 0 0,0 0.6284289409896555,0.3208802950028015 l -9.295217729755182 17.824805617203737" fill="#ffcd13" stroke="none" /><path d="M 109.71004243097381 81.37971332152246 l 9.32782277565903 -17.887330091860814 a41.17336996015521,41.17336996015521 0 0,0 0.6238965149085279,0.33218975307783594 l -9.633508106354116 17.724569871060407" fill="#ffce13" stroke="none" /><path d="M 110.02825361518725 81.54914285379988 l 8.087815059372163 -14.880668759649767 a37.936559720587404,37.936559720587404 0 0,0 0.5695105206323032,0.3158978855635935 l -8.342069768160567 14.739637958653027" fill="#ffa00e" stroke="none" /><path d="M 110.34350942703115 81.72400993836675 l 10.837242091565553 -19.14836837131537 a43.002405037513306,43.002405037513306 0 0,0 0.6393178453728402,0.3691103301237409 l -11.16435240479879 18.959511143915456" fill="#ffe715" stroke="none" /><line stroke="#e1ed5e" stroke-width="0.3" x1="143.13028292997686" x2="145.6673583964461" y1="26.7553504044142" y2="22.446841604673864" /><path d="M 143.63769802327073 25.89364864446614 a86.0,86.0 0 0,1 29.32050498858742,28.57503671076993" fill="none" id="id50" stroke="none" /><text fill="#e1ed5e" style="font-size:6.75px; font-family:Arial;" text-anchor="middle"><textPath startOffset="20.669276256404974" xlink:href="#id50">February</textPath></text><path d="M 110.65571695917076 81.90426304109057 l 15.520766883777918 -26.35765533239676 a51.58790936435507,51.58790936435507 0 0,0 0.7592444258193403,0.455904462840293 l -15.970944066154692 26.087336869020547" fill="#a8ff21" stroke="none" /><path d="M 110.96478420261332 82.08984904055464 l 10.525829642689319 -17.19315167452536 a41.15930440690232,41.15930440690232 0 0,0 0.5994281772235426,0.3740875161037944 l -10.819421948702573 17.00992836158002" fill="#ffcd13" stroke="none" /><path d="M 111.27062007382361 82.28071324371311 l 11.613890669899895 -18.25896514904934 a42.63959946040098,42.63959946040098 0 0,0 0.6142424510275073,0.39814453568927205 l -11.925618753184411 18.056906771656177" fill="#ffe215" stroke="none" /><path d="M 111.5731344415666 82.4767994020092 l 12.006806226315826 -18.17983495372378 a42.78691797159326,42.78691797159326 0 0,0 0.6094155231520324,0.41004196132735543 l -12.317118037564859 17.971043318339305" fill="#ffe415" stroke="none" /><path d="M 111.8722381534696 82.67804972795209 l 9.377491350161367 -13.68204012960972 a37.587210920784784,37.587210920784784 0 0,0 0.5290935265367243,0.36934837299667134 l -9.610979967871852 13.51904694080792" fill="#ff9b0e" stroke="none" /><path d="M 112.45986205192187 83.09580414077388 l 13.28337266198537 -18.021446161569305 a43.387954596870195,43.387954596870195 0 0,0 0.5957517631087094,0.44706322955692995 l -13.590777414004846 17.79076390474836" fill="#ffec16" stroke="none" /><path d="M 112.7482090630111 83.31218511350987 l 18.55077191322631 -24.28355592219168 a51.55850498310997,51.55850498310997 0 0,0 0.6987160851270592,0.5433258539412595 l -18.964897942988596 23.96152901662963" fill="#a9ff21" stroke="none" /><path d="M 113.03279911837588 83.53348406188908 l 10.405086597031968 -13.146487007988403 a37.765916251220574,37.765916251220574 0 0,0 0.5048929473503792,0.4067060188889897 l -10.629230314737606 12.965932695306005" fill="#ff9d0e" stroke="none" /><path d="M 113.31354834802062 83.75963576809568 l 7.7019894630099515 -9.39517481890299 a33.1486604844347,33.1486604844347 0 0,0 0.4369714290592854,0.3645371075486779 l -7.862135226231129 9.261575527442442" fill="#ff5908" stroke="none" /><path d="M 113.86319453409587 84.22622945171908 l 20.183758401737276 -22.965411979750797 a51.57440515560984,51.57440515560984 0 0,0 0.6599926850520558,0.5901695286903971 l -20.57501611361271 22.61554692117701" fill="#a9ff21" stroke="none" /><path d="M 114.13192950727249 84.46653392183569 l 14.607012487304242 -16.055665495507753 a42.70597171996454,42.70597171996454 0 0,0 0.5380347002004936,0.49799688611390347 l -14.8804769588187 15.802550863261477" fill="#ffe315" stroke="none" /><path d="M 114.65682725009322 84.96080404539774 l 16.42973273768939 -16.85835316932477 a44.540182442232364,44.540182442232364 0 0,0 0.5429831706712888,0.5383423167571935 l -16.716707828490637 16.573830842338914" fill="#fffb17" stroke="none" /><path d="M 114.91283532996326 85.21462403516908 l 21.70375701856213 -21.51825593648325 a51.56285993274814,51.56285993274814 0 0,0 0.6178045775948284,0.6339219222250002 l -22.069948397307773 21.142511322190508" fill="#a9ff21" stroke="none" /><path d="M 115.16444852881244 85.47280134310134 l 18.586446864233906 -17.805395653498394 a46.738844601392074,46.738844601392074 0 0,0 0.5500587038638833,0.5841432818077378 l -18.88936140183405 17.48371091174616" fill="#e6ff1a" stroke="none" /><path d="M 115.41159269507618 85.73525988315684 l 17.267607403367084 -15.982639622146515 a44.52902536715504,44.52902536715504 0 0,0 0.5144211396829605,0.5654389458314047 l -17.539426243891924 15.683863100757439" fill="#fffb17" stroke="none" /><path d="M 115.6541949942343 86.00192230759917 l 12.468649943096148 -11.14954366462753 a37.726612189349865,37.726612189349865 0 0,0 0.42754839501858366,0.48647158955478936 l -12.658209402073322 10.933859797261443" fill="#ff9d0e" stroke="none" /><path d="M 115.8921839302757 86.27271002978787 l 9.372878170969837 -8.0960689275223 a33.38536141124008,33.38536141124008 0 0,0 0.37090411031058007,0.43692410932074655 l -9.51047684478753 7.933978035752001" fill="#ff5d08" stroke="none" /><path d="M 116.57777611688842 87.10902102172516 l 17.898012662377585 -13.917602901426587 a43.672417775447464,43.672417775447464 0 0,0 0.4551248702053954,0.5957730648034697 l -18.134289509937286 13.608308923382236" fill="#fff016" stroke="none" /><path d="M 116.7966241395341 87.39550010848427 l 24.42538545875659 -18.329264607433604 a51.537868227139825,51.537868227139825 0 0,0 0.5249450442257202,0.7121887711070518 l -24.736432522566137 17.907269527057675" fill="#a9ff21" stroke="none" /><path d="M 117.21940702142032 87.97951657250589 l 20.837829630818003 -14.54642342971535 a46.41286245820349,46.41286245820349 0 0,0 0.45044846251240833,0.6572177686210035 l -21.084467830145737 14.186570926024297" fill="#eaff1a" stroke="none" /><path d="M 117.42321728460499 88.27688183743584 l 20.58326701534745 -13.849340649946331 a45.8087709784936,45.8087709784936 0 0,0 0.43338491792877404,0.656200002804221 l -20.81797637219695 13.493960768803051" fill="#f2ff19" stroke="none" /><path d="M 117.62189284568427 88.57770195909679 l 20.524168574704994 -13.30351810415387 a45.45864038801948,45.45864038801948 0 0,0 0.4188306037058362,0.6584712749397789 l -20.749516870036718 12.94923315453542" fill="#f6ff19" stroke="none" /><path d="M 117.81537515405839 88.88188828441811 l 19.609338282380637 -12.237677388594284 a44.11464677948055,44.11464677948055 0 0,0 0.3954185600301216,0.6458865009507484 l -19.816524806866163 11.89925377151898" fill="#fff617" stroke="none" /><line stroke="#e1ed5e" stroke-width="0.3" x1="172.87174338648825" x2="177.1583165268699" y1="56.24261187166439" y2="53.66864786411523" /><path d="M 173.72905801456457 55.72781907015455 a86.0,86.0 0 0,1 12.242430191666344,42.057860355516425" fill="none" id="id51" stroke="none" /><text fill="#e1ed5e" style="font-size:6.75px; font-family:Arial;" text-anchor="middle"><textPath startOffset="22.145653131862474" xlink:href="#id51">March</textPath></text><path d="M 118.00360718960297 89.18935116829356 l 14.285826593032095 -8.578228403978471 a37.66345834444357,37.66345834444357 0 0,0 0.32807793803005253,0.5571480634631284 l -14.430978241191914 8.331729172221786" fill="#ff9c0e" stroke="none" /><path d="M 118.18653347947321 89.5 l 13.200365082740843 -7.621234333921764 a36.242468667843525,36.242468667843525 0 0,0 0.30645015260319947,0.5414680561633687 l -13.329248600365418 7.393509507659277" fill="#ff870c" stroke="none" /><path d="M 118.36410011445183 89.81374322990088 l 17.439992333802824 -9.673669761845476 a40.94324996745377,40.94324996745377 0 0,0 0.33564623255993775,0.6175512632872422 l -17.6034839159781 9.37286366508363" fill="#ffca12" stroke="none" /><path d="M 118.53625476483649 90.13048839642627 l 18.180953685443978 -9.680333791210092 a41.59747409809035,41.59747409809035 0 0,0 0.33018872777025743,0.6331804225151384 l -18.34445048218918 9.366807125590457" fill="#ffd413" stroke="none" /><path d="M 118.70294669586156 90.45014215332178 l 17.86556536120628 -9.122284970625007 a41.05977339754426,41.05977339754426 0 0,0 0.315143706653457,0.630498519706815 l -18.019528981071474 8.814254594754441" fill="#ffcc13" stroke="none" /><path d="M 118.8641267826498 90.77261029715802 l 15.021052001534837 -7.347549248465491 a37.72179664962589,37.72179664962589 0 0,0 0.2795378088428613,0.5841265081000383 l -15.14496906833761 7.088610238300348" fill="#ff9d0e" stroke="none" /><path d="M 119.0197475246899 91.09779779509293 l 15.2181268026815 -7.1228517519238475 a37.80257124556768,37.80257124556768 0 0,0 0.27004633120280386,0.5900999692814978 l -15.338157598739356 6.860562800427666" fill="#ff9e0e" stroke="none" /><path d="M 119.16976305983485 91.42560881287824 l 15.307906415063352 -6.847031830748912 a37.76943182411457,37.76943182411457 0 0,0 0.2596488690891485,0.5941274254533416 l -15.42318916616947 6.583242335519721" fill="#ff9e0e" stroke="none" /><path d="M 119.31412917781788 91.75594674310238 l 15.83212011384114 -6.757790640543522 a38.21405709414579,38.21405709414579 0 0,0 0.25234771877929907,0.6055426611088871 l -15.945793677156924 6.485015469993358" fill="#ffa40f" stroke="none" /><path d="M 119.4528033332814 92.08871423366111 l 12.316141685297595 -5.00886760338577 a34.29571738119356,34.29571738119356 0 0,0 0.21711038626872328,0.5472600003985243 l -12.400310746532442 4.796706585773681" fill="#ff6b09" stroke="none" /><path d="M 119.71291397450082 92.76114493625339 l 21.37045971631075 -7.847528819540049 a43.76576941506639,43.76576941506639 0 0,0 0.25292411114802127,0.7074737535003928 l -21.502023997502715 7.479520109658739" fill="#fff116" stroke="none" /><path d="M 119.83427380445688 93.10060997987247 l 17.466120590331933 -6.075623402163667 a39.492662550345095,39.492662550345095 0 0,0 0.21723706026133158,0.6422227681666588 l -17.56784307216563 5.774898959522846" fill="#ffb610" stroke="none" /><path d="M 119.94978838288452 93.4421083053983 l 15.835994903810109 -5.20560606770884 a37.669645140964064,37.669645140964064 0 0,0 0.19666296436187897,0.6160439348220874 l -15.923022583949246 4.932993099195365" fill="#ff9c0e" stroke="none" /><path d="M 120.05942366710727 93.78553927170692 l 16.494458587330485 -5.110025433756828 a38.26787549245135,38.26787549245135 0 0,0 0.18901356532000266,0.6291646856197894 l -16.579748472654114 4.826123144546315" fill="#ffa50f" stroke="none" /><path d="M 120.16314734710363 94.1308016681162 l 15.823720069633026 -4.606054294902881 a37.48046883464485,37.48046883464485 0 0,0 0.17451889335253362,0.619305985429611 l -15.900457455060142 4.333740385570257" fill="#ff990e" stroke="none" /><path d="M 120.26092885502905 94.47779374421319 l 16.165540152311184 -4.405989853476425 a37.7552211267092,37.7552211267092 0 0,0 0.16506316447501848,0.6267717212612772 l -16.238792797590936 4.127837627842349" fill="#ff9d0e" stroke="none" /><path d="M 120.35273937422433 94.82641323984039 l 17.45629933846966 -4.437323029511428 a39.011446978588054,39.011446978588054 0 0,0 0.15941279806719996,0.6504586158648924 l -17.52989966305315 4.137008589038441" fill="#ffaf10" stroke="none" /><path d="M 120.43855184770803 95.1765574152323 l 15.142881810694718 -3.5736788753944895 a36.55885761349816,36.55885761349816 0 0,0 0.1389047500674746,0.6120399584437038 l -15.201997422319858 3.313204583011759" fill="#ff8c0c" stroke="none" /><path d="M 120.51834098615036 95.52812308129327 l 61.555022958451104 -13.415630756120196 a84.0,84.0 0 0,0 0.29496915670253276,1.4115341948583824 l -61.776249825978 12.35698010997641" fill="#4dd2ff" stroke="none" /><path d="M 120.592083275326 95.88100663000786 l 16.415948035145096 -3.2836493624673158 a37.7411380445959,37.7411380445959 0 0,0 0.12162298785565481,0.6363828654435713 l -16.46989731528291 3.00136393199043" fill="#ff9d0e" stroke="none" /><path d="M 120.65975698304385 96.23510406497455 l 16.293295448675128 -2.9691811889767905 a37.56162774339501,37.56162774339501 0 0,0 0.11015427142217792,0.635340565204622 l -16.34186453758954 2.6890475908515756" fill="#ff9b0e" stroke="none" /><path d="M 120.7213421655516 96.59031103205396 l 17.617294122704543 -2.8989190437243706 a38.85420913476561,38.85420913476561 0 0,0 0.10264635937831344,0.6590632607386124 l -17.66446197422112 2.596067601054317" fill="#ffad10" stroke="none" /><path d="M 120.77682067341334 96.94652285012252 l 19.57520077382839 -2.8768804046923155 a40.785472604883466,40.785472604883466 0 0,0 0.09585651037800755,0.6935699582280473 l -19.62170180076161 2.5404221382641827" fill="#ffc812" stroke="none" /><path d="M 120.82617615685814 97.30363454192243 l 16.124063161291414 -2.087582791219707 a37.25864123288018,37.25864123288018 0 0,0 0.07667813061355974,0.6350049184042791 l -16.157523378164637 1.8104841958920148" fill="#ff960d" stroke="none" /><path d="M 120.86939407059847 97.66154086499901 l 16.583476081232636 -1.858213084723101 a37.68725965534938,37.68725965534938 0 0,0 0.06652269282600151,0.6435467085693912 l -16.612931166540303 1.5732618538707783" fill="#ff9c0e" stroke="none" /><path d="M 120.9064616781168 98.02013634271609 l 30.169192463653747 -2.8570538930991516 a51.30417348909313,51.30417348909313 0 0,0 0.07550600681116554,0.8774942523366571 l -30.213792093162652 2.3387385933868328" fill="#acff21" stroke="none" /><path d="M 120.93736805541906 98.37931529534042 l 19.815966755564062 -1.5338811518133075 a40.87524414555726,40.87524414555726 0 0,0 0.048147220312948075,0.7000500164879392 l -19.839377937042077 1.193487711171034" fill="#ffca12" stroke="none" /><path d="M 120.96210409425399 98.7389718711861 l 23.32134540866737 -1.4029542277760225 a44.36350641996199,44.36350641996199 0 0,0 0.03920553168036327,0.7605768407570863 l -23.34199252980431 1.0024055936422056" fill="#fff917" stroke="none" /><path d="M 120.98066250479742 99.09900007780936 l 21.153647124668638 -0.9084286260749213 a42.17314405665049,42.17314405665049 0 0,0 0.024852659906098272,0.7235580765355281 l -21.166124471571585 0.5451642849752731" fill="#ffdb14" stroke="none" /><path d="M 120.99303781780057 99.45929381324524 l 19.669647167326524 -0.5066203379883684 a40.67617045702694,40.67617045702694 0 0,0 0.011987012532268158,0.6981833851334911 l -19.67544561145746 0.16889003688581095" fill="#ffc712" stroke="none" /><line stroke="#e1ed5e" stroke-width="0.3" x1="184.99686870605535" x2="189.99668451229388" y1="99.2704041080226" y2="99.22748670261217" /><path d="M 185.99683186730306 99.26182062694052 a86.0,86.0 0 0,1 -10.086455211305974,41.156179273409016" fill="none" id="id52" stroke="none" /><text fill="#e1ed5e" style="font-size:6.75px; font-family:Arial;" text-anchor="middle"><textPath startOffset="21.40746469413373" xlink:href="#id52">April</textPath></text><path d="M 120.99303781780057 100.54070618675476 l 16.401595721385263 0.4224469253174748 a37.40703518654341,37.40703518654341 0 0,0 -0.022043988997784633,0.6417866875686415 l -16.391927045390634 -0.7039398774502271" fill="#ff980e" stroke="none" /><path d="M 120.98066250479742 100.90099992219065 l 16.618686131771792 0.7136778883037322 a37.63400327265201,37.63400327265201 0 0,0 -0.033258442053645886,0.6452048907765311 l -16.603986100261572 -0.9988545724569939" fill="#ff9c0e" stroke="none" /><path d="M 120.96210409425399 101.26102812881392 l 16.978779654550852 1.0214012219885398 a38.009474389706156,38.009474389706156 0 0,0 -0.04477161117139036,0.6509694004140425 l -16.958744082214395 -1.3127140465569256" fill="#ffa10e" stroke="none" /><path d="M 120.93736805541906 101.62068470465957 l 17.865006130322172 1.3828644606822378 a38.918447425853245,38.918447425853245 0 0,0 -0.05727753429340756,0.6656517706754054 l -17.838634973331025 -1.6893372787333005" fill="#ffae10" stroke="none" /><path d="M 120.86939407059847 102.33845913500097 l 16.525674830571827 1.8517363340246837 a37.62909666988987,37.62909666988987 0 0,0 -0.07744052638124181,0.6413186490387568 l -16.49145221793092 -2.135148659986849" fill="#ff9c0e" stroke="none" /><path d="M 120.82617615685814 102.69636545807757 l 16.70181282073934 2.1623840515863875 a37.84121302892307,37.84121302892307 0 0,0 -0.08893673157998935,0.6435018859295096 l -16.662231572604142 -2.4487742457159825" fill="#ff9f0e" stroke="none" /><path d="M 120.77682067341334 103.0534771498775 l 34.78401554079893 5.112052431136654 a56.15765659427875,56.15765659427875 0 0,0 -0.14835919013629362,0.9525724263770141 l -34.69113485852437 -5.7084130394451185" fill="#72ff27" stroke="none" /><path d="M 120.7213421655516 103.40968896794604 l 29.898622876635322 4.9198070165899725 a51.300695553068564,51.300695553068564 0 0,0 -0.1504458427814786,0.8677316417366554 l -29.80976221636161 -5.4323316912472155" fill="#acff21" stroke="none" /><path d="M 120.65975698304385 103.76489593502545 l 16.253122428803657 2.9618603265225047 a37.52079311896098,37.52079311896098 0 0,0 -0.12091291366067315,0.6326674572066545 l -16.199883222860826 -3.240430348762474" fill="#ff9a0e" stroke="none" /><path d="M 120.592083275326 104.11899336999214 l 19.370382123713295 3.874618923933333 a40.75409768691989,40.75409768691989 0 0,0 -0.14310954555814026,0.684830981734352 l -19.30101486733079 -4.206566356953094" fill="#ffc812" stroke="none" /><path d="M 120.51834098615036 104.47187691870673 l 15.146561189796122 3.3011225141519818 a36.50212003984227,36.50212003984227 0 0,0 -0.1386891766332257,0.6110901021164336 l -15.087661151605232 -3.560646950207432" fill="#ff8b0c" stroke="none" /><path d="M 120.43855184770803 104.8234425847677 l 20.54374782940311 4.848268550013939 a42.10808572114391,42.10808572114391 0 0,0 -0.17206661854262867,0.7020905215314948 l -20.457493684344186 -5.2002148961535335" fill="#ffdb14" stroke="none" /><path d="M 120.35273937422433 105.17358676015961 l 20.92129478907291 5.318111323295463 a42.586636692598795,42.586636692598795 0 0,0 -0.18618577264418187,0.7069777049634506 l -20.826919535623997 -5.676469532631717" fill="#ffe115" stroke="none" /><path d="M 120.26092885502905 105.52220625578681 l 31.187215357653645 8.50021422911503 a53.324851797116054,53.324851797116054 0 0,0 -0.24829449612483645,0.881109572983128 l -31.03670236945423 -9.034331726001167" fill="#93ff23" stroke="none" /><path d="M 120.16314734710363 105.8691983318838 l 19.01259522934438 5.53428937873031 a40.80169528809127,40.80169528809127 0 0,0 -0.2015286659700662,0.6708233853679751 l -18.914790243370685 -5.859850367689008" fill="#ffc812" stroke="none" /><path d="M 120.05942366710727 106.21446072829308 l 19.555987319906855 6.058494861038252 a41.472957774527465,41.472957774527465 0 0,0 -0.21651902443658225,0.6782427601991626 l -19.449103579693016 -6.393306654928798" fill="#ffd213" stroke="none" /><path d="M 119.94978838288452 106.5578916946017 l 18.851102689854777 6.196731884632032 a40.84347647650142,40.84347647650142 0 0,0 -0.22466747460486142,0.6641894678752025 l -18.741949793677552 -6.5194230269813955" fill="#ffc912" stroke="none" /><path d="M 119.83427380445688 106.89939002012753 l 18.80794255585563 6.5423787353305345 a40.913347852655775,40.913347852655775 0 0,0 -0.23643985420625263,0.6613643530192536 l -18.692862531605435 -6.8642780447307095" fill="#ffca12" stroke="none" /><path d="M 119.71291397450082 107.23885506374661 l 15.431894495298561 5.666805412685016 a37.43946627172738,37.43946627172738 0 0,0 -0.2267214916251374,0.6014056926692657 l -15.332342319858983 -5.93087938554844" fill="#ff990e" stroke="none" /><path d="M 119.58574465831526 107.57618678355244 l 18.48230230487193 7.149351576598998 a40.816879836505365,40.816879836505365 0 0,0 -0.2583928613911191,0.6513188054156729 l -18.356850768514686 -7.465571399228235" fill="#ffc912" stroke="none" /><path d="M 119.4528033332814 107.91128576633889 l 19.877418117889494 8.083972902691096 a42.45838691339229,42.45838691339229 0 0,0 -0.2803752832170386,0.6727986126828972 l -19.73571699013597 -8.424004024815272" fill="#ffdf14" stroke="none" /><path d="M 119.16976305983485 108.57439118712176 l 12.244183043521073 5.476667335646104 a34.413198854433716,34.413198854433716 0 0,0 -0.24583402105701166,0.5371917019866771 l -12.148364557609005 -5.68604801984747" fill="#ff6c0a" stroke="none" /><path d="M 119.0197475246899 108.90220220490707 l 19.61527751153679 9.18094030882326 a42.65753395030876,42.65753395030876 0 0,0 -0.3161141469974903,0.6605569873035146 l -19.454784106579385 -9.516309798191878" fill="#ffe215" stroke="none" /><path d="M 118.8641267826498 109.22738970284198 l 15.608569888138486 7.634933687700076 a38.37583570273617,38.37583570273617 0 0,0 -0.29454383472091983,0.5892849765345899 l -15.475206140205835 -7.901750520398411" fill="#ffa60f" stroke="none" /><path d="M 118.70294669586154 109.54985784667822 l 14.855148688844919 7.585144767649268 a37.679624207813795,37.679624207813795 0 0,0 -0.2990899675951776,0.5735444493542 l -14.722750652274792 -7.839035460107971" fill="#ff9c0e" stroke="none" /><line stroke="#e1ed5e" stroke-width="0.3" x1="174.33088141563837" x2="178.70328620479359" y1="141.23008692659167" y2="143.65538615756765" /><path d="M 175.20536237346943 141.71514677278685 a86.0,86.0 0 0,1 -30.301960400862466,31.631185727798858" fill="none" id="id53" stroke="none" /><text fill="#e1ed5e" style="font-size:6.75px; font-family:Arial;" text-anchor="middle"><textPath startOffset="22.145653131862474" xlink:href="#id53">May</textPath></text><path d="M 118.36410011445183 110.18625677009912 l 18.500006094903103 10.261641526490163 a42.155413310300496,42.155413310300496 0 0,0 -0.35644737560205036,0.6298083585609576 l -18.321125354279676 -10.577706655150243" fill="#ffdb14" stroke="none" /><path d="M 118.18653347947321 110.5 l 20.632593476342176 11.912233397646267 a44.824466795292544,44.824466795292544 0 0,0 -0.3904558764892567,0.663079440086772 l -20.425063889723155 -12.264664006026589" fill="#ffff18" stroke="none" /><path d="M 118.00360718960297 110.81064883170644 l 14.109315124280133 8.472238338579347 a37.45756955756025,37.45756955756025 0 0,0 -0.33574831258918253,0.5484196361491654 l -13.961798847235546 -8.713195090853068" fill="#ff990e" stroke="none" /><path d="M 117.81537515405839 111.11811171558189 l 18.393142087910665 11.478681013763383 a42.68104687697996,42.68104687697996 0 0,0 -0.39323940350388975,0.6182376576369466 l -18.193384992780885 -11.792732346079001" fill="#ffe215" stroke="none" /><path d="M 117.62189284568427 111.42229804090321 l 13.968781496312328 9.054395399879516 a37.64658921668571,37.64658921668571 0 0,0 -0.35616463025456924,0.5392786451563233 l -13.811292427137033 -9.2928539233749" fill="#ff9c0e" stroke="none" /><path d="M 117.21940702142032 112.02048342749411 l 14.072065899579012 9.82339488961927 a38.16164694426186,38.16164694426186 0 0,0 -0.3795900886612651,0.5339409970712287 l -13.901360712387786 -10.063513113400003" fill="#ffa30f" stroke="none" /><path d="M 117.01052211995028 112.31430620078461 l 14.1720298646931 10.25945670625923 a38.49579613488225,38.49579613488225 0 0,0 -0.3921034784649519,0.5319636741911603 l -13.99382436664432 -10.501226689719267" fill="#ffa80f" stroke="none" /><path d="M 116.79662413953412 112.60449989151573 l 15.85235700643534 11.895904230992995 a40.81942885484939,40.81942885484939 0 0,0 -0.4253929185909733,0.5568529857317255 l -15.645812110490063 -12.166278129965598" fill="#ffc912" stroke="none" /><path d="M 116.35404254752997 113.17365903436017 l 15.49889191469809 12.484810217487913 a40.90191289173441,40.90191289173441 0 0,0 -0.4451553471728802,0.543017142303931 l -15.282289748286582 -12.749029641490337" fill="#ffca12" stroke="none" /><path d="M 116.1254893667686 113.45245675266167 l 18.478572838734078 15.415482675289033 a45.06438780165698,45.06438780165698 0 0,0 -0.5006555555404879,0.5897709855462064 l -18.211222719686475 -15.730420443284796" fill="#fcff18" stroke="none" /><path d="M 115.89218393027572 113.72728997021213 l 14.937610268836101 12.902751976818701 a40.73862227003031,40.73862227003031 0 0,0 -0.46168292237321845,0.5253104156956016 l -14.713916282504297 -13.157274670325595" fill="#ffc812" stroke="none" /><path d="M 115.6541949942343 113.99807769240083 l 14.951039905382657 13.369312076080243 a41.05672205620773,41.05672205620773 0 0,0 -0.47430738889199514,0.5213469068172936 l -14.719334815648782 -13.62399655845521" fill="#ffcc13" stroke="none" /><path d="M 115.41159269507618 114.26474011684316 l 16.073940557034867 14.877799409592694 a42.902522236107124,42.902522236107124 0 0,0 -0.5049099089835363,0.5361968262279725 l -15.81617481431507 -15.151537695765162" fill="#ffe515" stroke="none" /><path d="M 115.16444852881244 114.52719865689866 l 15.289849434486243 14.64732988785091 a42.17365742078562,42.17365742078562 0 0,0 -0.5053070881339938,0.5184895875502821 l -15.036155545201442 -14.90764216746893" fill="#ffdb14" stroke="none" /><path d="M 114.91283532996324 114.78537596483092 l 14.219730740834004 14.098195310952487 a41.023981955834415,41.023981955834415 0 0,0 -0.5001176594826733,0.49584317525759314 l -13.975621161221365 -14.340218496438743" fill="#ffcc13" stroke="none" /><path d="M 114.39649973595853 115.28858382429668 l 13.749683141816593 14.601687016054797 a41.056496459132106,41.056496459132106 0 0,0 -0.5172536503447559,0.47876225661048794 l -13.496999720157872 -14.835567018797665" fill="#ffcc13" stroke="none" /><path d="M 114.13192950727249 115.5334660781643 l 13.71455019130891 15.074693095825877 a41.379775731917945,41.379775731917945 0 0,0 -0.5295329962557908,0.4735116705144203 l -13.453752168229741 -15.307900296223684" fill="#ffd113" stroke="none" /><path d="M 113.86319453409587 115.77377054828091 l 13.139762223862194 14.950637377872509 a40.90414301858471,40.90414301858471 0 0,0 -0.5314042656278496,0.45901434803961155 l -12.881178478471488 -15.173995858376838" fill="#ffca12" stroke="none" /><path d="M 113.59037401385872 116.0094264158162 l 14.015313403824338 16.51000394870079 a42.656621162903825,42.656621162903825 0 0,0 -0.5623070264678405,0.4690965206218909 l -13.729832043194603 -16.748162653234548" fill="#ffe215" stroke="none" /><path d="M 113.31354834802062 116.24036423190432 l 7.46240124475358 9.102916149129578 a32.77074826660497,32.77074826660497 0 0,0 -0.4381124919395852,0.35291241115045596 l -7.305037982458742 -9.229676854073439" fill="#ff5407" stroke="none" /><path d="M 113.03279911837588 116.46651593811092 l 19.46005026709068 24.587137802782383 a52.356353450787395,52.356353450787395 0 0,0 -0.7095284536789056,0.5517336171252051 l -19.035111868776543 -24.91757247152838" fill="#9fff22" stroke="none" /><path d="M 112.7482090630111 116.68781488649013 l 10.039234556743178 13.141680298535515 a37.53753281339822,37.53753281339822 0 0,0 -0.5154207328765433,0.3867813268700984 l -9.812160834955868 -13.312080652669628" fill="#ff9a0e" stroke="none" /><path d="M 112.45986205192187 116.90419585922612 l 9.88550947616152 13.411592171479516 a37.66115548746154,37.66115548746154 0 0,0 -0.5237034558855912,0.3791209152022846 l -9.653825009901961 -13.579313858054878" fill="#ff9c0e" stroke="none" /><path d="M 112.16784306229584 117.11559508785304 l 9.587362739625009 13.485826351612209 a37.54645087887394,37.54645087887394 0 0,0 -0.5285197708951661,0.3689478469987605 l -9.354447877556083 -13.64841901441609" fill="#ff9a0e" stroke="none" /><path d="M 111.5731344415666 117.5232005979908 l 9.402407923511683 14.236443979780683 a38.061114030143194,38.061114030143194 0 0,0 -0.5482873260201251,0.3553932205067035 l -9.156634965234549 -14.39575104199128" fill="#ffa20e" stroke="none" /><path d="M 111.27062007382361 117.71928675628689 l 10.691517254621079 16.8088409380789 a40.92098579105706,40.92098579105706 0 0,0 -0.5959573971519826,0.37192149264135504 l -10.40139572867938 -16.989898227561802" fill="#ffca12" stroke="none" /><path d="M 110.96478420261333 117.91015095944535 l 9.44534054584116 15.428253936731933 a39.08992751680325,39.08992751680325 0 0,0 -0.5753055306660947,0.3454544412944877 l -9.17910225861763 -15.588122378562344" fill="#ffb010" stroke="none" /><line stroke="#e1ed5e" stroke-width="0.3" x1="143.1302829299769" x2="145.66735839644613" y1="173.24464959558577" y2="177.55315839532614" /><path d="M 143.63769802327073 174.10635135553383 a86.0,86.0 0 0,1 -40.68552437913181,11.842963189579606" fill="none" id="id54" stroke="none" /><text fill="#e1ed5e" style="font-size:6.75px; font-family:Arial;" text-anchor="middle"><textPath startOffset="21.407464694133747" xlink:href="#id54">June</textPath></text><path d="M 110.65571695917076 118.09573695890943 l 9.148275187837157 15.535771272935706 a39.0291743559535,39.0291743559535 0 0,0 -0.5802477241484981,0.3350061797338044 l -8.880234995828262 -15.690524349945683" fill="#ffb010" stroke="none" /><path d="M 110.34350942703117 118.27599006163325 l 8.175173275133686 14.444747847187603 a37.59771666366464,37.59771666366464 0 0,0 -0.5644237471562253,0.3130763380640832 l -7.926005339821367 -14.58295710068483" fill="#ff9b0e" stroke="none" /><path d="M 110.02825361518725 118.45085714620011 l 8.100809581097552 14.904577216020991 a37.96377133356654,37.96377133356654 0 0,0 -0.5752617444410807,0.30629447716826386 l -7.843759020869918 -15.041442160911824" fill="#ffa00e" stroke="none" /><path d="M 109.71004243097381 118.62028667847754 l 9.114633016658319 17.478510618853573 a40.71230246525593,40.71230246525593 0 0,0 -0.6224577172836521,0.3178313456318617 l -8.813248077661084 -17.63239991615827" fill="#ffc712" stroke="none" /><path d="M 109.3889696526874 118.78422872680471 l 4.581558176007525 9.166185416165916 a31.247420670767553,31.247420670767553 0 0,0 -0.48186461529641067,0.2357041298852757 l -4.423533311449045 -9.243483296148415" fill="#ff3c05" stroke="none" /><path d="M 109.06512990194946 118.94263497670748 l 7.949334725772378 16.611052201865153 a39.41518335057948,39.41518335057948 0 0,0 -0.6128334385137191,0.2868369929987581 l -7.663012573387152 -16.745065426434444" fill="#ffb510" stroke="none" /><path d="M 108.73861861582097 119.09545874513695 l 10.553534927921342 23.061378427321515 a46.36147224517902,46.36147224517902 0 0,0 -0.7265209114175839,0.32496356270416354 l -10.156100613648132 -23.23914574093553" fill="#ebff1a" stroke="none" /><path d="M 108.07796709384702 119.3841803445677 l 6.30724102724701 15.135082394918177 a37.396707244954705,37.396707244954705 0 0,0 -0.594688740505702,0.24185473361135199 l -6.046497825550867 -15.24112438510882" fill="#ff980e" stroke="none" /><path d="M 107.407793817531 119.65005319985036 l 5.888288231579102 15.619384104989372 a37.69242636998431,37.69242636998431 0 0,0 -0.6074059992419402,0.2230478963713911 l -5.619293080683034 -15.718162850369485" fill="#ff9c0e" stroke="none" /><path d="M 107.06938296918513 119.77432235084164 l 5.610561383703847 15.69373873987937 a37.66648837265665,37.66648837265665 0 0,0 -0.6107248513439472,0.21244180583306743 l -5.340330760314878 -15.787738978281029" fill="#ff9c0e" stroke="none" /><path d="M 106.72888874123015 119.89276391827305 l 2.684673641919818 7.936760587091815 a29.378522613231585,29.378522613231585 0 0,0 -0.4791179045968422,0.1574955717317883 l -2.5480329996752413 -7.981677080225622" fill="#ff1f03" stroke="none" /><path d="M 106.38641147887787 120.00534299687104 l 7.638960543305437 23.928935101319333 a46.11867140724863,46.11867140724863 0 0,0 -0.7562569761238882,0.2342903443594967 l -7.227062934309925 -24.056542033485474" fill="#eeff19" stroke="none" /><path d="M 106.0420521117495 120.11202640906438 l 4.942961532266138 16.453511329802232 a38.17995645481656,38.17995645481656 0 0,0 -0.6293147454543332,0.18318435067038277 l -4.659786774430199 -16.535939374775133" fill="#ffa30f" stroke="none" /><path d="M 105.69591212413111 120.21278271476187 l 4.475433812553431 15.88173574943281 a37.50027388334384,37.50027388334384 0 0,0 -0.6211091774604711,0.1692860682666824 l -4.202143234158266 -15.956222311843636" fill="#ff9a0e" stroke="none" /><path d="M 104.9986988182912 120.39639698878246 l 5.477381188557986 22.349584410230324 a44.01098928761602,44.01098928761602 0 0,0 -0.735335286815385,0.17353712547425146 l -5.092913748002722 -22.4403176793508" fill="#fff417" stroke="none" /><path d="M 104.64783097203109 120.47920084513623 l 4.6275045084595785 20.389638696155966 a41.9081602283796,41.9081602283796 0 0,0 -0.7029347182277369,0.15320135014434197 l -4.276807373612706 -20.466071504434026" fill="#ffd814" stroke="none" /><path d="M 104.29559338865022 120.5559693870025 l 4.765527687893406 22.80477512701248 a44.29738231513759,44.29738231513759 0 0,0 -0.7456800157228523,0.14915688713139377 l -4.373351186639595 -22.883221410806733" fill="#fff817" stroke="none" /><path d="M 103.58742460773223 120.69131181640829 l 3.4080598024765063 19.65678328403541 a40.950037611312666,40.950037611312666 0 0,0 -0.6936595061507974,0.11414140776871035 l -3.0701227932726365 -19.712390690299788" fill="#ffcb12" stroke="none" /><path d="M 103.2317021107853 120.74984581791261 l 2.5339971553715834 16.27007950439236 a37.46622691033619,37.46622691033619 0 0,0 -0.6363458345963168,0.0935209239133501 l -2.2543262151675814 -16.311181501604594" fill="#ff990e" stroke="none" /><path d="M 102.875027216393 120.80226474461374 l 3.152736719699519 22.81163236970544 a44.02846760412717,44.02846760412717 0 0,0 -0.7495787446018563,0.09704797557798472 l -2.7606801532068874 -22.862391941483818" fill="#fff517" stroke="none" /><path d="M 102.51750503828377 120.84855314841334 l 2.7722722823533696 22.958391400050328 a44.12516441639734,44.12516441639734 0 0,0 -0.7527839164931946,0.08435100800005439 l -2.377752464259376 -23.002598168557356" fill="#fff617" stroke="none" /><path d="M 102.15924093988457 120.88869738790638 l 1.203986433283006 11.647476573567541 a32.709538584561486,32.709538584561486 0 0,0 -0.5590222704511336,0.05293999022498587 l -1.003864599446857 -11.66642831929771" fill="#ff5307" stroke="none" /><path d="M 101.80034050326958 120.92268563240118 l 0.9868592052600834 11.468799861803829 a32.51117984227152,32.51117984227152 0 0,0 -0.5564536215119401,0.04307302956368538 l -0.7898365889729075 -11.484050658362568" fill="#ff5007" stroke="none" /><path d="M 101.08105385017728 120.97215588758144 l 1.0206227366574128 19.79980842959775 a40.826096050895956,40.826096050895956 0 0,0 -0.7002146710842346,0.03007023081465179 l -0.6805823049723485 -19.814411228838235" fill="#ffc912" stroke="none" /><path d="M 100.72087961077811 120.9876233191556 l 0.7193432183014354 20.942892928548442 a41.95524323128607,41.95524323128607 0 0,0 -0.7200052888323354,0.01854478220573354 l -0.35972461539835626 -20.95215542810422" fill="#ffd814" stroke="none" /><line stroke="#e1ed5e" stroke-width="0.3" x1="101.45913802915013" x2="101.54496967792366" y1="184.9874750549273" y2="189.98673829345242" /><path d="M 101.47630435890484 185.9873277026323 a86.0,86.0 0 0,1 -42.54439059252881,-10.42667462771756" fill="none" id="id55" stroke="none" /><text fill="#e1ed5e" style="font-size:6.75px; font-family:Arial;" text-anchor="middle"><textPath startOffset="22.145653131862474" xlink:href="#id55">July</textPath></text><path d="M 100.36049292484886 120.99690560180557 l 0.355870387657742 20.727665984735896 a41.73072070400808,41.73072070400808 0 0,0 -0.7163633125065917,0.006149117466616674 l -2.538781075418126e-15 -20.73072070400808" fill="#ffd513" stroke="none" /><path d="M 100.0 121.0 l 2.5787887936335778e-15 21.05740851508395 a42.05740851508395,42.05740851508395 0 0,0 -0.7219713431983634,-0.006197255665318439 l 0.3614784183495088 -21.054305657613067" fill="#ffda14" stroke="none" /><path d="M 99.63950707515114 120.99690560180557 l -0.3623831196092676 21.106999970426433 a42.110110593669546,42.110110593669546 0 0,0 -0.7226630095698584,-0.018613235664342982 l 0.7246594432498699 -21.09766901741204" fill="#ffdb14" stroke="none" /><path d="M 99.27912038922189 120.98762331915562 l -0.7149551304642677 20.815138538993256 a41.82741350326678,41.82741350326678 0 0,0 -0.7173884211701581,-0.030807745537445343 l 1.0721693122352645 -20.799798225029985" fill="#ffd714" stroke="none" /><path d="M 98.55909050195518 120.95050786540614 l -1.4269654171866235 20.747763990033032 a41.79677717551347,41.79677717551347 0 0,0 -0.7153836969214417,-0.055375222544426624 l 1.7829181088833013 -20.720211000493553" fill="#ffd614" stroke="none" /><path d="M 98.19965949673042 120.92268563240118 l -1.8074296401415388 21.0050721486783 a42.08269095431707,42.08269095431707 0 0,0 -0.7192141027351365,-0.0681103232931011 l 2.1677433062616904 -20.970950069880015" fill="#ffda14" stroke="none" /><path d="M 97.84075906011543 120.88869738790638 l -2.188647300545216 21.1731772519982 a42.28599567675231,42.28599567675231 0 0,0 -0.7214073388592459,-0.08083519703089236 l 2.551790541005261 -21.13248629446034" fill="#ffdd14" stroke="none" /><path d="M 97.48249496171623 120.84855314841334 l -2.558583387695574 21.188740809584786 a42.34265883266552,42.34265883266552 0 0,0 -0.7208780767995041,-0.09333209952358319 l 2.921939286385872 -21.141697113860808" fill="#ffde14" stroke="none" /><path d="M 97.12497278360702 120.80226474461374 l -2.8830339957154862 20.860197811218764 a42.05848374749776,42.05848374749776 0 0,0 -0.7143431070923649,-0.10498383698667764 l 3.240702208415536 -20.807632900933204" fill="#ffda14" stroke="none" /><path d="M 96.41257539226777 120.69131181640829 l -3.5691422228679466 20.585863878865833 a41.892978912693415,41.892978912693415 0 0,0 -0.7075230727814454,-0.1289342726943883 l 3.922000029200449 -20.521561432240077" fill="#ffd814" stroke="none" /><path d="M 96.05791012581884 120.62667999033965 l -4.014684890940917 21.00652779376085 a42.3867226269851,42.3867226269851 0 0,0 -0.7135169245458901,-0.14272336811609798 l 4.374698301017766 -20.93451502898189" fill="#ffde14" stroke="none" /><path d="M 95.70440661134978 120.55596938700252 l -4.2431920295040975 20.30520991398281 a41.743823857961985,41.743823857961985 0 0,0 -0.7001782684192841,-0.15260059473802973 l 4.591132714542518 -20.22937786111106" fill="#ffd614" stroke="none" /><path d="M 95.35216902796893 120.47920084513623 l -4.761352787754142 20.97939891139278 a42.51291842249216,42.51291842249216 0 0,0 -0.7103055297681746,-0.1676301709636043 l 5.120790471262205 -20.894572596782947" fill="#ffe015" stroke="none" /><path d="M 94.6519064749342 120.30758222061772 l -5.509970440658063 20.92225523588988 a42.63563122288433,42.63563122288433 0 0,0 -0.7061650248670761,-0.1924684177039011 l 5.868316866459835 -20.824586324041835" fill="#ffe215" stroke="none" /><path d="M 94.30408787586889 120.21278271476187 l -5.803043687017689 20.59295483738736 a42.39497849889341,42.39497849889341 0 0,0 -0.6987903491756672,-0.2034076863653699 l 6.155694048574963 -20.490303456719474" fill="#ffde14" stroke="none" /><path d="M 93.95794788825049 120.11202640906438 l -6.242242793019847 20.778396078522903 a42.695790805660536,42.695790805660536 0 0,0 -0.7001283571848754,-0.21690155473530323 l 6.598011783076356 -20.668177935980953" fill="#ffe315" stroke="none" /><path d="M 93.61358852112213 120.00534299687104 l -6.509132291248676 20.389764193728197 a42.40353445253416,42.40353445253416 0 0,0 -0.6915355425411184,-0.22732146847447285 l 6.858190571437539 -20.275021803851704" fill="#ffdf14" stroke="none" /><path d="M 93.27111125876986 119.89276391827306 l -6.965605110664642 20.59257380276382 a42.73876147300007,42.73876147300007 0 0,0 -0.6929667424524345,-0.24104980471139362 l 7.318077625162098 -20.469965565483836" fill="#ffe315" stroke="none" /><path d="M 92.93061703081489 119.77432235084164 l -7.32315132117872 20.484157596242415 a42.753833172583114,42.753833172583114 0 0,0 -0.6889695692367679,-0.25299916904665454 l 7.673710042069607 -20.35542757818704" fill="#ffe315" stroke="none" /><path d="M 92.25597844496254 119.51999308798841 l -7.956149854439862 20.05469497494378 a42.57524301240518,42.57524301240518 0 0,0 -0.6770386889393126,-0.27534574072943363 l 8.299243004569615 -19.91516197763505" fill="#ffe115" stroke="none" /><path d="M 91.92203290615298 119.3841803445677 l -4.205767163528061 10.092310136691031 a31.933581358775697,31.933581358775697 0 0,0 -0.5041931191791136,-0.21521006140145998 l 4.378395357877605 -10.018625425630168" fill="#ff4706" stroke="none" /><path d="M 91.59046798132341 119.24265499422711 l -13.014157708227202 29.778939691734127 a53.498516120256134,53.498516120256134 0 0,0 -0.8383640296327639,-0.3749895668947792 l 13.523435140715602 -29.551146373929495" fill="#91ff23" stroke="none" /><path d="M 91.26138138417905 119.09545874513695 l -9.108823842497697 19.90442397683173 a42.889649737789966,42.889649737789966 0 0,0 -0.6668549855946246,-0.31212180474044 l 9.449167541963813 -19.74512594052076" fill="#ffe515" stroke="none" /><path d="M 90.93487009805054 118.94263497670748 l -9.455643166353013 19.758657504919473 a42.90465096928296,42.90465096928296 0 0,0 -0.6616300702566907,-0.32363642206817805 l 9.793433485871773 -19.59342733275407" fill="#ffe515" stroke="none" /><path d="M 90.6110303473126 118.78422872680471 l -9.822936930134784 19.65245398485389 a42.970640353895135,42.970640353895135 0 0,0 -0.6569858515795983,-0.335461657026069 l 10.158850003427965 -19.480934376154984" fill="#ffe615" stroke="none" /><path d="M 90.28995756902619 118.62028667847754 l -10.137584543556134 19.440155052894763 a42.92464934402231,42.92464934402231 0 0,0 -0.6504334999860915,-0.3463192029300123 l 10.469806859328788 -19.263265382242178" fill="#ffe615" stroke="none" /><line stroke="#e1ed5e" stroke-width="0.3" x1="58.13341422392154" x2="55.67067388415222" y1="173.97424548756322" y2="178.32567169271397" /><path d="M 57.64086615596768 174.84453072859336 a86.0,86.0 0 0,1 -31.369924170532247,-30.572349798747897" fill="none" id="id56" stroke="none" /><text fill="#e1ed5e" style="font-size:6.75px; font-family:Arial;" text-anchor="middle"><textPath startOffset="22.145653131862474" xlink:href="#id56">August</textPath></text><path d="M 89.65649057296885 118.27599006163327 l -11.606816506845512 20.508132623918833 a44.56484018922737,44.56484018922737 0 0,0 -0.6625466083654454,-0.3825214626904664 l 11.957155583071357 -20.305864263952195" fill="#fffc17" stroke="none" /><path d="M 89.34428304082925 118.09573695890944 l -10.680132801441275 18.137200396897754 a42.04811808437158,42.04811808437158 0 0,0 -0.6188426642040246,-0.3715972390605624 l 10.989908222202727 -17.951189157301275" fill="#ffda14" stroke="none" /><path d="M 89.03521579738668 117.91015095944536 l -11.316132475847132 18.48405195892496 a42.67291007297266,42.67291007297266 0 0,0 -0.6214717442498021,-0.38784433226334386 l 11.631768348886647 -18.28707182982007" fill="#ffe215" stroke="none" /><path d="M 88.72937992617639 117.7192867562869 l -8.842765503978102 13.90229611656432 a37.47629627892702,37.47629627892702 0 0,0 -0.5398627654365995,-0.3499325221191156 l 9.08011390167171 -13.748449752741312" fill="#ff990e" stroke="none" /><path d="M 88.4268655584334 117.5232005979908 l -12.302661186043036 18.627797070934673 a43.32376079370347,43.32376079370347 0 0,0 -0.6170617936663869,-0.41518671337162566 l 12.620619267806429 -18.413860683505927" fill="#ffeb16" stroke="none" /><path d="M 88.1277618465304 117.32195027204791 l -12.445696034323138 18.158642458209638 a43.01435090353246,43.01435090353246 0 0,0 -0.605488251288494,-0.42267782398672643 l 12.755579376785397 -17.942319818417783" fill="#ffe715" stroke="none" /><path d="M 87.83215693770417 117.11559508785305 l -6.297519503083662 8.858249841061022 a31.868640307709917,31.868640307709917 0 0,0 -0.4431546734958732,-0.3208098084971006 l 6.44865518695349 -8.748839261190856" fill="#ff4606" stroke="none" /><path d="M 87.54013794807813 116.9041958592261 l -16.35014190136053 22.182107624867868 a48.556724022928535,48.556724022928535 0 0,0 -0.6667231542998207,-0.5003214846168597 l 16.728518044571118 -21.898167112986993" fill="#ceff1d" stroke="none" /><path d="M 86.96720088162412 116.46651593811092 l -13.177633790658511 16.64950981516457 a42.233374894396,42.233374894396 0 0,0 -0.5646184508047191,-0.45481665672524735 l 13.461503011818492 -16.420844864645915" fill="#ffdc14" stroke="none" /><path d="M 86.68645165197938 116.24036423190432 l -13.450749472367509 16.40772729501677 a42.2164129003004,42.2164129003004 0 0,0 -0.5565041243058153,-0.46425553325095825 l 13.730427930835216 -16.174409577853943" fill="#ffdc14" stroke="none" /><path d="M 86.40962598614128 116.0094264158162 l -13.886052435169589 16.35773485264758 a42.456885648709616,42.456885648709616 0 0,0 -0.5515766490633148,-0.47643877239965454 l 14.164808563995766 -16.116951947783207" fill="#ffdf14" stroke="none" /><path d="M 86.13680546590413 115.77377054828092 l -14.612938736632929 16.626841822123133 a43.13571429835708,43.13571429835708 0 0,0 -0.5520035726154155,-0.49360499845564326 l 14.896207336071715 -16.373541293784108" fill="#ffe915" stroke="none" /><path d="M 85.86807049272751 115.53346607816431 l -15.09786042857242 16.595193366864763 a43.435370119618824,43.435370119618824 0 0,0 -0.5472240859814298,-0.5065024444031739 l 15.380514285867816 -16.333573176329214" fill="#ffed16" stroke="none" /><path d="M 85.34317274990678 115.03919595460226 l -11.719809932059576 12.025557449196032 a37.79190211999571,37.79190211999571 0 0,0 -0.4607158236369762,-0.45677810521603884 l 11.924517675826515 -11.822599333751334" fill="#ff9e0e" stroke="none" /><path d="M 85.08716467003676 114.78537596483092 l -11.839253673047994 11.738064078754327 a37.67183480759461,37.67183480759461 0 0,0 -0.4513681363074838,-0.46314347121398497 l 12.039008610506286 -11.533097915472606" fill="#ff9c0e" stroke="none" /><path d="M 84.83555147118756 114.52719865689866 l -12.436876541932982 11.914246393642658 a38.22280944700109,38.22280944700109 0 0,0 -0.44983544633510275,-0.47770965544189786 l 12.639567822004338 -11.69899527825627" fill="#ffa40f" stroke="none" /><path d="M 84.58840730492382 114.26474011684316 l -12.220538686532008 11.311148166204838 a37.65183589358436,37.65183589358436 0 0,0 -0.4349724740622762,-0.47811094495656165 l 12.412908861436163 -11.0996996456906" fill="#ff9c0e" stroke="none" /><path d="M 84.3458050057657 113.99807769240083 l -12.661480363602207 11.321973815695422 a37.98529293480619,37.98529293480619 0 0,0 -0.43047997384646275,-0.4898071881184134 l 12.853971401407263 -11.102954349765708" fill="#ffa10e" stroke="none" /><path d="M 84.1078160697243 113.72728997021213 l -14.697178700259258 12.695072914310526 a40.420914964208436,40.420914964208436 0 0,0 -0.44906758138888336,-0.5290004817117315 l 14.912940845155253 -12.44090565014924" fill="#ffc312" stroke="none" /><path d="M 83.8745106332314 113.45245675266167 l -12.192988042317628 10.171824283548434 a36.87875834741137,36.87875834741137 0 0,0 -0.4013694058490856,-0.48960541338337443 l 12.365804267405345 -9.961016588466563" fill="#ff910d" stroke="none" /><path d="M 83.64595745247003 113.17365903436017 l -13.454718306343473 10.838168658054734 a38.27701781452731,38.27701781452731 0 0,0 -0.40780256285908223,-0.5152452163137786 l 13.638787299844116 -10.605603497826275" fill="#ffa50f" stroke="none" /><path d="M 83.4222238831116 112.89097897827486 l -13.781735548829715 10.71676092085223 a38.45809838936023,38.45809838936023 0 0,0 -0.40078470415359313,-0.5246400430988893 l 13.963672230337604 -10.47859996451247" fill="#ffa70f" stroke="none" /><path d="M 82.98947788004972 112.3143062007846 l -15.736607536205206 11.392090283644503 a40.42731421939888,40.42731421939888 0 0,0 -0.4021264546389265,-0.565641218125242 l 15.929849089374093 -11.120271838809757" fill="#ffc312" stroke="none" /><path d="M 82.78059297857968 112.02048342749411 l -16.759403861062275 11.699365495918396 a41.439001217898955,41.439001217898955 0 0,0 -0.4021758925871454,-0.5867866464568096 l 16.957769490464745 -11.409944114391536" fill="#ffd113" stroke="none" /><path d="M 82.576782715395 111.72311816256416 l -15.781160510682222 10.618269082403474 a40.020848176941044,40.020848176941044 0 0,0 -0.37862687935343686,-0.5732893532172082 l 15.961111828956385 -10.345799850847206" fill="#ffbe11" stroke="none" /><path d="M 82.37810715431573 111.42229804090323 l -17.15637279188754 11.120553566285912 a41.44524000824772,41.44524000824772 0 0,0 -0.38185336704356143,-0.6003369171509221 l 17.34474385055699 -10.824402974456317" fill="#ffd113" stroke="none" /><path d="M 82.18462484594161 111.11811171558189 l -17.867539183294195 11.150665927859963 a42.06148871996684,42.06148871996684 0 0,0 -0.3770152209426378,-0.6158260296159723 l 18.056322368692236 -10.842302782119432" fill="#ffda14" stroke="none" /><path d="M 81.99639281039703 110.81064883170644 l -14.530112281913368 8.724914941253742 a37.9484012124189,37.9484012124189 0 0,0 -0.330560011442606,-0.5613631667507252 l 14.677746003485744 -8.474200606209457" fill="#ffa00e" stroke="none" /><line stroke="#e1ed5e" stroke-width="0.3" x1="26.387840678322732" x2="22.057713659400548" y1="142.50000000000003" y2="145.00000000000006" /><path d="M 25.521815274538298 143.00000000000003 a86.0,86.0 0 0,1 -11.493303480769221,-40.785679425670985" fill="none" id="id57" stroke="none" /><text fill="#e1ed5e" style="font-size:6.75px; font-family:Arial;" text-anchor="middle"><textPath startOffset="21.40746469413373" xlink:href="#id57">September</textPath></text><path d="M 81.81346652052679 110.50000000000001 l -26.690926303315493 15.410013486139682 a51.82002697227934,51.82002697227934 0 0,0 -0.4381670387604312,-0.7741991731349314 l 26.951526707097305 -14.949557542905628" fill="#a6ff21" stroke="none" /><path d="M 81.63589988554817 110.18625677009913 l -17.41177472234716 9.65801792843493 a40.910982127653526,40.910982127653526 0 0,0 -0.3353817059561757,-0.6170645641305624 l 17.57500177791867 -9.357698530829781" fill="#ffca12" stroke="none" /><path d="M 81.4637452351635 109.86951160357371 l -17.851179910656928 9.504747830717715 a41.22386846100851,41.22386846100851 0 0,0 -0.32722315419467596,-0.6274935441584364 l 18.011711133826555 -9.196908043454776" fill="#ffce13" stroke="none" /><path d="M 81.29705330413844 109.54985784667822 l -18.686429269670672 9.541423931173838 a41.981453941154356,41.981453941154356 0 0,0 -0.3222178280825107,-0.6446515013309977 l 18.84746701096492 -9.219240573679087" fill="#ffd914" stroke="none" /><path d="M 81.1358732173502 109.22738970284198 l -18.305338753496837 8.954058476558027 a41.37794371574065,41.37794371574065 0 0,0 -0.3066317288160265,-0.640742380314887 l 18.456349740272778 -8.638503594178035" fill="#ffd013" stroke="none" /><path d="M 80.83023694016515 108.57439118712176 l -17.206159665215885 7.696096364735567 a39.848921180804965,39.848921180804965 0 0,0 -0.2739444788897444,-0.626838578311068 l 17.3357380261226 -7.3995957166486495" fill="#ffbb11" stroke="none" /><path d="M 80.68587082218212 108.24405325689762 l -15.802125198351824 6.744987594729065 a38.181444014908486,38.181444014908486 0 0,0 -0.25213235729261396,-0.6050258719404431 l 15.915583400180923 -6.472729213347341" fill="#ffa30f" stroke="none" /><path d="M 80.41425534168474 107.57618678355246 l -28.719797105779033 11.1094344920265 a51.79360778684014,51.79360778684014 0 0,0 -0.3136456040493222,-0.8319822280802244 l 28.90627339364279 -10.61478398375213" fill="#a6ff21" stroke="none" /><path d="M 80.28708602549918 107.23885506374661 l -36.31728037992364 13.336208402257414 a59.68849064957727,59.68849064957727 0 0,0 -0.344942146455542,-0.9648645753293195 l 36.540862696423126 -12.710808870547174" fill="#4aff2c" stroke="none" /><path d="M 80.16572619554312 106.89939002012753 l -19.3023002891676 6.71434201693145 a41.436760633073206,41.436760633073206 0 0,0 -0.22793094933029417,-0.6738373510194989 l 19.414716660070262 -6.38200299143779" fill="#ffd113" stroke="none" /><path d="M 80.05021161711548 106.5578916946017 l -18.75938014164119 6.1665808611929265 a40.7469254015969,40.7469254015969 0 0,0 -0.2127286070289081,-0.6663693316559619 l 18.862473464447355 -5.843642495845573" fill="#ffc812" stroke="none" /><path d="M 79.94057633289273 106.21446072829308 l -18.97969926348997 5.879959348043459 a40.8696478596669,40.8696478596669 0 0,0 -0.20186429886478244,-0.6719405981158025 l 19.077839882358383 -5.553281146336933" fill="#ffc912" stroke="none" /><path d="M 79.83685265289637 105.86919833188381 l -19.152434696247745 5.574994609503661 a40.94733866183731,40.94733866183731 0 0,0 -0.19066154856607162,-0.676590573948479 l 19.245314736888393 -5.2453961116521866" fill="#ffcb12" stroke="none" /><path d="M 79.73907114497094 105.5222062557868 l -19.27738400845448 5.2541367342232395 a40.98057774518371,40.98057774518371 0 0,0 -0.17916419617653984,-0.6803156354303378 l 19.364737685435752 -4.922440594420099" fill="#ffcb12" stroke="none" /><path d="M 79.64726062577567 105.17358676015961 l -19.390619854301477 4.929019740534332 a41.00728302235483,41.00728302235483 0 0,0 -0.16756839938069856,-0.683736252329748 l 19.472375780198465 -4.595427663596484" fill="#ffcb13" stroke="none" /><path d="M 79.56144815229197 104.8234425847677 l -19.429727820587697 4.585362861252716 a40.96346352092931,40.96346352092931 0 0,0 -0.15563997437851956,-0.6857784446142815 l 19.505578656523884 -4.251150082699408" fill="#ffcb12" stroke="none" /><path d="M 79.48165901384964 104.47187691870673 l -19.519150888492366 4.25410808748723 a40.97735435506305,40.97735435506305 0 0,0 -0.1438935197382596,-0.6885825819880926 l 19.58930211905499 -3.918409054213728" fill="#ffcb12" stroke="none" /><path d="M 79.34024301695615 103.76489593502545 l -19.34232332872729 3.5248156371849246 a40.660869691577005,40.660869691577005 0 0,0 -0.11924319432763085,-0.6877630572360031 l 19.399981340547154 -3.192259547028329" fill="#ffc712" stroke="none" /><path d="M 79.2786578344484 103.40968896794605 l -19.62289706275553 3.2289402442883364 a40.88678315456485,40.88678315456485 0 0,0 -0.1080160819372132,-0.6935407315458147 l 19.67543463683101 -2.8916113308110716" fill="#ffca12" stroke="none" /><path d="M 79.22317932658666 103.0534771498775 l -19.271818291868453 2.832293627393758 a40.47883126541659,40.47883126541659 0 0,0 -0.09513582316117207,-0.6883554245369612 l 19.317598631584836 -2.501049894656711" fill="#ffc412" stroke="none" /><path d="M 79.17382384314188 102.69636545807758 l -19.83943512979006 2.5686120768800365 a41.005023225946076,41.005023225946076 0 0,0 -0.08438816936664388,-0.6988550995461416 l 19.880605385416366 -2.2276633004104958" fill="#ffcb12" stroke="none" /><path d="M 79.13060592940153 102.33845913500099 l -19.793678686119893 2.217922982442582 a40.91755251745063,40.91755251745063 0 0,0 -0.07222456082512746,-0.6987071091432596 l 19.828835639426686 -1.8778113510163912" fill="#ffca12" stroke="none" /><path d="M 79.0935383218832 101.97986365728391 l -10.038509552600031 0.950657291630253 a31.083423194717746,31.083423194717746 0 0,0 -0.045746476433416276,-0.5316433993837035 l 10.053349651731187 -0.7781928448708876" fill="#ff3a05" stroke="none" /><path d="M 79.06263194458094 101.62068470465958 l -29.681339957229152 2.297523430602919 a50.770128578338,50.770128578338 0 0,0 -0.059802470103255095,-0.8695147904632744 l 29.71640638849747 -1.7876652159853013" fill="#b2ff20" stroke="none" /><path d="M 79.03789590574601 101.26102812881392 l -19.786648350244832 1.1903156301684334 a40.822419232668594,40.822419232668594 0 0,0 -0.036076153118846065,-0.6998677326838537 l 19.80416609282025 -0.850476104107849" fill="#ffc912" stroke="none" /><path d="M 79.01933749520258 100.90099992219065 l -16.90538661356137 0.7259900405880299 a37.92096800106344,37.92096800106344 0 0,0 -0.022346849923603154,-0.6506041529736966 l 16.915358150481822 -0.43567962305021335" fill="#ffa00e" stroke="none" /><path d="M 79.00696218219943 100.54070618675478 l -29.989601414991995 0.7724257520103225 a50.999547239457776,50.999547239457776 0 0,0 -0.015029246977545123,-0.8753782898402169 l 29.998442093568208 -0.2575005462010531" fill="#b0ff20" stroke="none" /><line stroke="#e1ed5e" stroke-width="0.3" x1="15.003131293944662" x2="10.003315487706104" y1="100.72959589197737" y2="100.7725132973878" /><path d="M 14.003168132696942 100.73817937305945 a86.0,86.0 0 0,1 10.791469493833604,-42.45332614584628" fill="none" id="id58" stroke="none" /><text fill="#e1ed5e" style="font-size:6.75px; font-family:Arial;" text-anchor="middle"><textPath startOffset="22.145653131862435" xlink:href="#id58">October</textPath></text><path d="M 79.00077361379809 100.18025310272382 l -19.931653243703025 0.1710892712673213 a40.93238752798972,40.93238752798972 0 0,0 0.0,-0.7026847479822703 l 19.931653243703025 0.17108927126731396" fill="#ffca12" stroke="none" /><path d="M 79.00077361379809 99.81974689727619 l -9.25913488673931 -0.07947853702695068 a30.2594759942818,30.2594759942818 0 0,0 0.008917277951387439,-0.5193867353952047 l 9.256406177189257 0.2384121883912078" fill="#ff2d04" stroke="none" /><path d="M 79.00696218219943 99.45929381324524 l -29.0585523143569 -0.7484452298364798 a50.068189363430974,50.068189363430974 0 0,0 0.02950521499397241,-0.8590121415362196 l 29.041422412366074 1.2471636359368379" fill="#bbff1f" stroke="none" /><path d="M 79.01933749520258 99.09900007780938 l -19.881508198962713 -0.8537975069281822 a40.89983262362421,40.89983262362421 0 0,0 0.03614456595175123,-0.7011949233655272 l 19.86392204355439 1.1949642236704214" fill="#ffca12" stroke="none" /><path d="M 79.03789590574601 98.7389718711861 l -19.598863355840844 -1.1790189512163598 a40.63429475505164,40.63429475505164 0 0,0 0.04786340443291446,-0.695923395881226 l 19.575735990242865 1.5152857712519108" fill="#ffc612" stroke="none" /><path d="M 79.06263194458094 98.37931529534042 l -19.75096950729819 -1.52884995372621 a40.81005246482784,40.81005246482784 0 0,0 0.060061470438231776,-0.6980053286123993 l 19.721814414162218 1.86767632971429" fill="#ffc912" stroke="none" /><path d="M 79.0935383218832 98.0201363427161 l -19.3650208827578 -1.833887611333456 a40.45166259116809,40.45166259116809 0 0,0 0.07140220725683734,-0.6907515843490641 l 19.330686283019297 2.1660437179654326" fill="#ffc412" stroke="none" /><path d="M 79.13060592940154 97.66154086499901 l -19.66446451422176 -2.2034442649664356 a40.78752969068904,40.78752969068904 0 0,0 0.0839405685644484,-0.695148322808128 l 19.623741859397644 2.540686264698" fill="#ffc812" stroke="none" /><path d="M 79.17382384314186 97.30363454192245 l -9.232328145819102 -1.195309716125024 a30.30938495871486,30.30938495871486 0 0,0 0.07123496893103251,-0.5154207495248622 l 9.21044866033286 1.353618773849953" fill="#ff2e04" stroke="none" /><path d="M 79.22317932658666 96.9465228501225 l -26.21174441960335 -3.852223778689363 a47.49330431561354,47.49330431561354 0 0,0 0.12546941223111518,-0.8056036322070291 l 26.14175351523397 4.301615592827842" fill="#dcff1b" stroke="none" /><path d="M 79.2786578344484 96.59031103205396 l -19.84111002126535 -3.2648471035713507 a41.10793061171772,41.10793061171772 0 0,0 0.12055425758281921,-0.6953249216904275 l 19.782140946190296 3.6049650581823705" fill="#ffcd13" stroke="none" /><path d="M 79.34024301695615 96.23510406497455 l -19.552575788206674 -3.56313063917999 a40.87458477315763,40.87458477315763 0 0,0 0.1317207001441321,-0.6892183630239741 l 19.488528795780383 3.8982515672372786" fill="#ffc912" stroke="none" /><path d="M 79.407916724674 95.88100663000787 l -6.285861683623271 -1.257348382548338 a27.410380804658963,27.410380804658963 0 0,0 0.09625258227197078,-0.46060344999839803 l 6.263351390526933 1.365068283832145" fill="#ff0000" stroke="none" /><path d="M 79.48165901384962 95.52812308129327 l -19.550347767114822 -4.260907301982274 a41.00928356666518,41.00928356666518 0 0,0 0.15581406685341692,-0.6865455281808919 l 19.474322838703742 4.595887164102175" fill="#ffcb13" stroke="none" /><path d="M 79.56144815229197 95.17655741523228 l -19.407383876546984 -4.580089751298523 a40.940505787507135,40.940505787507135 0 0,0 0.167295527014276,-0.6826228399568225 l 19.325900823016408 4.912568415863463" fill="#ffca12" stroke="none" /><path d="M 79.64726062577567 94.8264132398404 l -10.16991862355293 -2.5851535449497285 a31.49334377882736,31.49334377882736 0 0,0 0.13768667826330497,-0.5228187439899665 l 10.124042464484898 2.7593527933124795" fill="#ff4006" stroke="none" /><path d="M 79.73907114497095 94.47779374421319 l -19.316197930245817 -5.264715641205323 a41.02080750777013,41.02080750777013 0 0,0 0.19100363878228901,-0.6778045314426677 l 19.222975799388944 5.595528096551004" fill="#ffcc13" stroke="none" /><path d="M 79.83685265289637 94.1308016681162 l -19.14593812881113 -5.573103553404843 a40.940572460419425,40.940572460419425 0 0,0 0.20221461127394078,-0.6731066741929543 l 19.04744719753356 5.900947831188521" fill="#ffca12" stroke="none" /><path d="M 79.94057633289273 93.78553927170692 l -18.956433995216372 -5.872751708461236 a40.84529169461183,40.84529169461183 0 0,0 0.21324215067140975,-0.6679779998017864 l 18.852827128767707 6.197298741954414" fill="#ffc912" stroke="none" /><path d="M 80.05021161711548 93.44210830539832 l -19.01196755167578 -6.249611359894744 a41.012809706178146,41.012809706178146 0 0,0 0.22559892492104697,-0.666943135227128 l 18.90188320518237 6.575056169596034" fill="#ffcb13" stroke="none" /><path d="M 80.16572619554312 93.10060997987247 l -18.87532429190696 -6.565817600893982 a40.9846898372945,40.9846898372945 0 0,0 0.23685214235503757,-0.662517596349123 l 18.75983197950798 6.888870153624026" fill="#ffcb12" stroke="none" /><path d="M 80.28708602549916 92.7611449362534 l -18.793561540815166 -6.90125611573913 a41.020621652771766,41.020621652771766 0 0,0 0.24840782881379653,-0.658931278554038 l 18.672323028186934 7.222855674487313" fill="#ffcc13" stroke="none" /><path d="M 80.41425534168474 92.42381321644754 l -18.664073821622207 -7.219664704174936 a41.01177678417568,41.01177678417568 0 0,0 0.2596266641753126,-0.6544287944114701 l 18.53738848248076 7.538994515799989" fill="#ffcb13" stroke="none" /><path d="M 80.5471966667186 92.08871423366112 l -18.469930436757235 -7.511559915870398 a40.93895340052637,40.93895340052637 0 0,0 0.27034165658945025,-0.6487215613902 l 18.338262935631306 7.827513986701862" fill="#ffca12" stroke="none" /><path d="M 80.68587082218212 91.75594674310238 l -18.45573267942615 -7.877654835145138 a41.066676716290715,41.066676716290715 0 0,0 0.2823160331426036,-0.6459943327449084 l 18.317782764266568 8.193311237665913" fill="#ffcc13" stroke="none" /><path d="M 80.9802524753101 91.09779779509293 l -18.04694056284803 -8.446879426861999 a40.92590865508808,40.92590865508808 0 0,0 0.30328191778904545,-0.6337425636314707 l 17.899279387099078 8.755434492558559" fill="#ffca12" stroke="none" /><path d="M 81.1358732173502 90.77261029715801 l -17.107337411357538 -8.368055987504885 a40.044299785396404,40.044299785396404 0 0,0 0.307349700704054,-0.6149052868103958 l 16.96116779744174 8.66049313047905" fill="#ffbe11" stroke="none" /><path d="M 81.29705330413844 90.45014215332179 l -17.81327484098603 -9.095585058415828 a41.001060674758804,41.001060674758804 0 0,0 0.32545457037862846,-0.6241020514946451 l 17.65451220163246 9.400033353014962" fill="#ffcb12" stroke="none" /><path d="M 81.46374523516351 90.13048839642627 l -16.181138372314948 -8.615544777014353 a39.331853447721606,39.331853447721606 0 0,0 0.3224362609177514,-0.5932464033357351 l 16.030856761781845 8.892046013824709" fill="#ffb410" stroke="none" /><path d="M 81.63589988554816 89.8137432299009 l -17.189820568530635 -9.534903700791043 a40.657169678304086,40.657169678304086 0 0,0 0.34377889559674696,-0.6074243682618975 l 17.023608307912518 9.828584839152045" fill="#ffc612" stroke="none" /><line stroke="#e1ed5e" stroke-width="0.3" x1="26.387840678322718" x2="22.05771365940052" y1="57.49999999999999" y2="54.99999999999999" /><path d="M 25.521815274538284 56.99999999999999 a86.0,86.0 0 0,1 29.574782752854787,-30.34633250058573" fill="none" id="id59" stroke="none" /><text fill="#e1ed5e" style="font-size:6.75px; font-family:Arial;" text-anchor="middle"><textPath startOffset="21.40746469413373" xlink:href="#id59">November</textPath></text><path d="M 81.81346652052679 89.5 l -16.463983793974847 -9.505485475385017 a40.01097095077003,40.01097095077003 0 0,0 0.3485265938156922,-0.5918743514903099 l 16.298383490029376 9.7867109951689" fill="#ffbd11" stroke="none" /><path d="M 81.99639281039701 89.18935116829357 l -17.200839897557916 -10.328610138211108 a41.06362580812794,41.06362580812794 0 0,0 0.36807094631933235,-0.6012162292071266 l 17.02100098678319 10.622363483542777" fill="#ffcc13" stroke="none" /><path d="M 82.18462484594161 88.88188828441811 l -16.872951777323063 -10.52996982716747 a40.88911175092862,40.88911175092862 0 0,0 0.3767295109017438,-0.5922813642461006 l 16.68970457479543 10.818064866092243" fill="#ffca12" stroke="none" /><path d="M 82.37810715431573 88.57770195909679 l -16.792832195130714 -10.884910943641012 a41.01200887929082,41.01200887929082 0 0,0 0.38800399405148317,-0.5874875000298939 l 16.603503762158503 11.171578322009967" fill="#ffcb13" stroke="none" /><path d="M 82.576782715395 88.27688183743585 l -16.637373306972844 -11.194367263310816 a41.052831445495606,41.052831445495606 0 0,0 0.39842801816109713,-0.5813183856626195 l 16.442755551996434 11.478320384043469" fill="#ffcc13" stroke="none" /><path d="M 82.78059297857968 87.97951657250589 l -15.314970604884694 -10.691038902766548 a39.677436586666545,39.677436586666545 0 0,0 0.39466749676138635,-0.5551492597595956 l 15.129188009593337 10.952365389235664" fill="#ffb911" stroke="none" /><path d="M 82.98947788004972 87.6856937992154 l -16.161839782109922 -11.699925636703798 a40.95227618711684,40.95227618711684 0 0,0 0.41712424618428395,-0.5659091509800132 l 15.958613516341819 11.975641096952675" fill="#ffcb12" stroke="none" /><path d="M 83.2033758604659 87.39550010848427 l -15.994914035384577 -12.002881683188065 a40.99766095572065,40.99766095572065 0 0,0 0.4272503349170479,-0.5592844033264146 l 15.786511723113222 12.275686999755363" fill="#ffcb12" stroke="none" /><path d="M 83.42222388311158 87.10902102172516 l -15.830638169016593 -12.309999990986247 a41.05355840284727,41.05355840284727 0 0,0 0.4373837693492443,-0.5526201043723195 l 15.616987969025788 12.579940039273248" fill="#ffcc13" stroke="none" /><path d="M 83.64595745247003 86.82634096563983 l -15.644093607705825 -12.6017744230864 a41.08836437883923,41.08836437883923 0 0,0 0.4471845890983754,-0.545492487502919 l 15.42546219936882 12.868469192287813" fill="#ffcc13" stroke="none" /><path d="M 83.8745106332314 86.54754324733833 l -15.335016659940594 -12.793016306489706 a40.970578413725704,40.970578413725704 0 0,0 0.455174222865727,-0.5361940900165225 l 15.113147873567753 13.054377178955786" fill="#ffcb12" stroke="none" /><path d="M 84.10781606972428 86.27271002978789 l -15.144754485769091 -13.08167821779144 a41.012343526635306,41.012343526635306 0 0,0 0.46478495240326867,-0.5288399564380021 l 14.91795846940723 13.339730452040742" fill="#ffcb13" stroke="none" /><path d="M 84.34580500576568 86.00192230759919 l -14.8447284935378 -13.27424775605986 a40.91410599389572,40.91410599389572 0 0,0 0.47265981819612846,-0.5195359380106285 l 14.614670974499807 13.527121269628147" fill="#ffca12" stroke="none" /><path d="M 84.58840730492382 85.73525988315684 l -14.69788458255516 -13.604142542937147 a41.02749374062229,41.02749374062229 0 0,0 0.4828431302103062,-0.5127626718714016 l 14.462185618608583 13.85444667475306" fill="#ffcc13" stroke="none" /><path d="M 84.83555147118756 85.47280134310135 l -14.441024439990052 -13.834174744321734 a40.998189361360176,40.998189361360176 0 0,0 0.4912231224874749,-0.5040381980673042 l 14.201414516351774 14.080035634456769" fill="#ffcb12" stroke="none" /><path d="M 85.08716467003674 85.21462403516908 l -14.237135663478385 -14.115451474468145 a41.048491270625654,41.048491270625654 0 0,0 0.5004164491311569,-0.4961394111637425 l 13.992727294217252 14.35777089586056" fill="#ffcc13" stroke="none" /><path d="M 85.34317274990677 84.96080404539775 l -13.851405383286355 -14.212762165464621 a40.84600814935328,40.84600814935328 0 0,0 0.5063495125641343,-0.48507137894707636 l 13.60538338485692 14.448445674717266" fill="#ffc912" stroke="none" /><path d="M 85.60350026404147 84.71141617570332 l -13.678621058279886 -14.526221545919263 a40.95283905756639,40.95283905756639 0 0,0 0.515947714038248,-0.4775535014616832 l 13.427243572927685 14.758892793513311" fill="#ffcb12" stroke="none" /><path d="M 85.86807049272753 84.46653392183569 l -13.545673806470875 -14.889068366100588 a41.12882598865936,41.12882598865936 0 0,0 0.5263216166117979,-0.4706400350344093 l 13.288087163035685 15.119403931018399" fill="#ffcd13" stroke="none" /><path d="M 86.13680546590413 84.22622945171909 l -13.164627685464627 -14.978929708686243 a40.941809278865975,40.941809278865975 0 0,0 0.5318936050909737,-0.45943702781312 l 12.905554600610804 15.202710868964074" fill="#ffca12" stroke="none" /><path d="M 86.40962598614128 83.9905735841838 l -13.001361984425436 -15.31557172619347 a41.08985193450265,41.08985193450265 0 0,0 0.541653600997965,-0.4518666985303894 l 12.736534049265561 15.536500608635741" fill="#ffcc13" stroke="none" /><path d="M 86.68645165197937 83.75963576809568 l -12.701339322620242 -15.493568764710956 a41.034337864156285,41.034337864156285 0 0,0 0.5485885116354503,-0.4419040724303371 l 12.433500040629546 15.709321130934692" fill="#ffcc13" stroke="none" /><path d="M 86.96720088162412 83.53348406188908 l -9.683927933424659 -12.235326594915426 a36.60389941982475,36.60389941982475 0 0,0 0.4960526553549458,-0.385733545151669 l 9.472465333434469 12.399761191687901" fill="#ff8d0d" stroke="none" /><path d="M 87.25179093698888 83.31218511350988 l -10.878662165983751 -14.240517985019656 a38.92031369712245,38.92031369712245 0 0,0 0.5344074345343411,-0.40102930176064694 l 10.632601742538657 14.425166314044302" fill="#ffae10" stroke="none" /><path d="M 87.54013794807813 83.09580414077388 l -11.867404821212626 -16.10041384106331 a41.001465522407194,41.001465522407194 0 0,0 0.570152692144759,-0.4127465801909601 l 11.589271118693897 16.301761192627353" fill="#ffcb12" stroke="none" /><path d="M 87.83215693770416 82.88440491214696 l -10.610607685497582 -14.925148512457252 a39.31242893704834,39.31242893704834 0 0,0 0.5533784272225715,-0.38630111973583225 l 10.352834167101246 15.10509444799821" fill="#ffb410" stroke="none" /><path d="M 88.12776184653039 82.6780497279521 l -11.367545373675524 -16.585588423401884 a41.10728303806992,41.10728303806992 0 0,0 0.5854924258540183,-0.3939454338113441 l 11.081156659724517 16.77828353127034" fill="#ffcd13" stroke="none" /><path d="M 88.4268655584334 82.4767994020092 l -9.829620328678562 -14.883298011546001 a38.836311151873865,38.836311151873865 0 0,0 0.5594543863608825,-0.3626315741029851 l 9.572680310060653 15.049843427352894" fill="#ffad10" stroke="none" /><path d="M 88.72937992617638 82.28071324371311 l -10.785370658973983 -16.956394078357757 a41.09585828950888,41.09585828950888 0 0,0 0.5985041725289065,-0.3735108688352509 l 10.492702357655379 17.139040744034542" fill="#ffcd13" stroke="none" /><path d="M 89.03521579738668 82.08984904055464 l -10.442598653443367 -17.057200108643777 a40.99989855432308,40.99989855432308 0 0,0 0.6034155060766415,-0.36233367386332377 l 10.148250390809292 17.233947783043025" fill="#ffcb12" stroke="none" /><line stroke="#e1ed5e" stroke-width="0.3" x1="56.869717070023135" x2="54.33264160355391" y1="26.7553504044142" y2="22.446841604673864" /><path d="M 56.362301976729285 25.89364864446614 a86.0,86.0 0 0,1 42.16139366436587,-11.88097634709845" fill="none" id="id60" stroke="none" /><text fill="#e1ed5e" style="font-size:6.75px; font-family:Arial;" text-anchor="middle"><textPath startOffset="22.145653131862474" xlink:href="#id60">December</textPath></text><path d="M 89.34428304082924 81.90426304109057 l -10.183587156012521 -17.293957335712875 a41.06953929948469,41.06953929948469 0 0,0 0.6105818814667829,-0.35251961362715345 l 9.885212806685338 17.466223846616202" fill="#ffcc13" stroke="none" /><path d="M 89.65649057296885 81.72400993836675 l -9.849960914566998 -17.403937131014157 a40.99796883882938,40.99796883882938 0 0,0 0.6154689500112364,-0.3413902516194676 l 9.54974777639966 17.570460298066774" fill="#ffcb12" stroke="none" /><path d="M 89.97174638481275 81.54914285379989 l -9.570638048678491 -17.608896046139417 a41.04171481242453,41.04171481242453 0 0,0 0.6219015558386578,-0.3311275497396445 l 9.26694767705327 17.77059406360164" fill="#ffcc13" stroke="none" /><path d="M 90.28995756902619 81.37971332152246 l -9.212259045133791 -17.665721400929623 a40.92343919432366,40.92343919432366 0 0,0 0.6256858247217513,-0.31947964029093584 l 8.907645998698458 17.821258992893394" fill="#ffca12" stroke="none" /><path d="M 90.61103034731259 81.2157712731953 l -8.979188048490085 -17.964391016595883 a41.08345494697807,41.08345494697807 0 0,0 0.6335455147372882,-0.309898858628612 l 8.669482284490744 18.115883625321707" fill="#ffcc13" stroke="none" /><path d="M 90.93487009805054 81.0573650232925 l -8.645930697615968 -18.066669866874058 a41.028896068096046,41.028896068096046 0 0,0 0.6379236963631272,-0.2985805005536654 l 8.334518287381318 18.212426598998267" fill="#ffcc13" stroke="none" /><path d="M 91.26138138417902 80.90454125486306 l -8.351327193930706 -18.24915709333333 a41.06928998537927,41.06928998537927 0 0,0 0.6435882327821084,-0.2878688304116033 l 8.036825558292978 18.389829674654777" fill="#ffcc13" stroke="none" /><path d="M 91.92203290615298 80.6158196554323 l -7.690505503249893 -18.454413577573966 a40.99273006339212,40.99273006339212 0 0,0 0.6518733013473474,-0.26511119667684985 l 7.372577740712106 18.583712030830107" fill="#ffcb12" stroke="none" /><path d="M 92.25597844496254 80.48000691201159 l -7.394875251341792 -18.639916323428917 a41.05319576843898,41.05319576843898 0 0,0 0.6572963395539263,-0.25425634447305206 l 7.073806649294336 18.76411255604001" fill="#ffcc13" stroke="none" /><path d="M 92.93061703081487 80.22567764915836 l -6.775645547725331 -18.952686504577606 a41.1274364569661,41.1274364569661 0 0,0 0.6668407011515627,-0.23196181135233113 l 6.4492990745287635 19.066206748498523" fill="#ffcd13" stroke="none" /><path d="M 93.27111125876988 80.10723608172694 l -6.425942901596056 -18.997158373342927 a41.054544832442495,41.054544832442495 0 0,0 0.6695356248253412,-0.22008965854740412 l 6.098884539122953 19.104668953292357" fill="#ffcc13" stroke="none" /><path d="M 93.61358852112211 79.99465700312896 l -5.647651810071248 -17.6911888563789 a39.57078711632509,39.57078711632509 0 0,0 0.6488843432452245,-0.2010260282260252 l 5.343126833954407 17.785531472411567" fill="#ffb711" stroke="none" /><path d="M 93.95794788825049 79.88797359093562 l -5.783089996108247 -19.250025748958176 a41.09994082674474,41.09994082674474 0 0,0 0.6774444289945428,-0.1971942000994194 l 5.45178555473208 19.346463643360117" fill="#ffcd13" stroke="none" /><path d="M 94.30408787586887 79.78721728523814 l -5.449735556752913 -19.3391889237339 a41.09238278219905,41.09238278219905 0 0,0 0.6806045243600214,-0.18550178962820624 l 5.116949631458214 19.429891207506248" fill="#ffcd13" stroke="none" /><path d="M 94.6519064749342 79.69241777938228 l -5.106386162846494 -19.389779996593052 a41.05090391878606,41.05090391878606 0 0,0 0.6829985017874968,-0.17361554830951798 l 4.772782367833619 19.474580776737834" fill="#ffcc13" stroke="none" /><path d="M 95.00130118170881 79.60360301121753 l -4.7208855027010435 -19.262823857148273 a40.832880347572655,40.832880347572655 0 0,0 0.6822354659118541,-0.16100571232433317 l 4.389517883049283 19.34102571311884" fill="#ffc912" stroke="none" /><path d="M 95.35216902796891 79.52079915486377 l -4.448100724614395 -19.59915252231441 a41.09757148635771,41.09757148635771 0 0,0 0.6893385363417937,-0.15023812558348235 l 4.110999771653484 19.672622106031604" fill="#ffcd13" stroke="none" /><path d="M 95.70440661134978 79.44403061299748 l -4.081875979093057 -19.53325421569838 a40.95519310264362,40.95519310264362 0 0,0 0.6894192713115248,-0.1379031625750835 l 3.7459602222505564 19.60044677493633" fill="#ffcb12" stroke="none" /><path d="M 96.41257539226777 79.30868818359171 l -3.422437676939105 -19.739711043164263 a41.0342025476472,41.0342025476472 0 0,0 0.69508519002262,-0.11437600350728715 l 3.083074983863412 19.795553045167217" fill="#ffcc13" stroke="none" /><path d="M 97.12497278360702 79.19773525538626 l -2.7411237173646965 -19.833405729598482 a41.0219315269224,41.0219315269224 0 0,0 0.6983928718929525,-0.09042093957894969 l 2.4002530235809503 19.877538265377826" fill="#ffcc13" stroke="none" /><path d="M 97.48249496171623 79.15144685158666 l -2.393548135888194 -19.82201217693279 a40.966002089083474,40.966002089083474 0 0,0 0.698887990641203,-0.0783118570921952 l 2.0529242436461916 19.86017979453196" fill="#ffcb12" stroke="none" /><path d="M 97.84075906011542 79.11130261209362 l -2.064767884862339 -19.97475627961299 a41.08118907954152,41.08118907954152 0 0,0 0.7020979379671515,-0.06648940469396354 l 1.721570383510172 20.00725743981214" fill="#ffcc13" stroke="none" /><path d="M 98.1996594967304 79.07731436759882 l -1.711642797500475 -19.891883841988676 a40.965389148459025,40.965389148459025 0 0,0 0.701153857193097,-0.054273742953653704 l 1.369919945532161 19.918335351937383" fill="#ffcb12" stroke="none" /><path d="M 98.5590905019552 79.04949213459386 l -1.3755512909997527 -20.00021387912572 a41.04746110022275,41.04746110022275 0 0,0 0.7033886051208251,-0.04231411181607759 l 1.0320183337464437 20.020879968766494" fill="#ffcc13" stroke="none" /><path d="M 98.9189461498227 79.02784411241856 l -1.168935704645055 -22.677040386429834 a43.707148023681086,43.707148023681086 0 0,0 0.749628037892224,-0.0321922533980223 l 0.7794819061520109 22.693765208253684" fill="#fff016" stroke="none" /><path d="M 99.27912038922189 79.0123766808444 l -1.355634239848509 -39.46781176648889 a60.49108646045648,60.49108646045648 0 0,0 1.038103913225905,-0.026737874396610326 l 0.6779170125518602 39.485267358235554" fill="#42ff2d" stroke="none" /></svg>