<?xml version="1.0" encoding="utf-8" ?>
<svg baseProfile="full" height="200mm" version="1.1" viewBox="0,0,200,200" width="200mm" xmlns="http://www.w3.org/2000/svg" xmlns:ev="http://www.w3.org/2001/xml-events" xmlns:xlink="http://www.w3.org/1999/xlink"><defs /><rect fill="#1a1a1a" height="200" width="200" x="0" y="0" /><rect fill="#1a1a1a" height="200" width="180" x="10" y="0" /><text alignment-baseline="middle" fill="#e1ed5e" style="dominant-baseline: central; font-size:9.0px; font-family:Arial;" text-anchor="middle" x="100.0" y="100.0">2017</text><line stroke="#e1ed5e" stroke-width="0.3" x1="100.0" x2="100.0" y1="15.0" y2="10.0" /><path d="M 100.0 14.0 a86.0,86.0 0 0,1 42.46469731375804,11.215312516191453" fill="none" id="id13" stroke="none" /><text fill="#e1ed5e" style="font-size:6.75px; font-family:Arial;" text-anchor="middle"><textPath startOffset="22.20632615414155" xlink:href="#id13">January</textPath></text><path d="M 104.307194497241 79.44645832069477 l 6.211951613114844 -29.64286996367771 a51.28676414751477,51.28676414751477 0 0,0 0.8624901863484203,0.18850694850137084 l -6.721284523616793 29.53154951708047" fill="#bcff1f" stroke="none" /><line stroke="#e1ed5e" stroke-width="0.3" x1="143.23703022742887" x2="145.7803849466894" y1="26.81831364943548" y2="22.513508569990506" /><path d="M 143.74570117128098 25.957352633546492 a86.0,86.0 0 0,1 28.547481713284135,27.462654790039103" fill="none" id="id14" stroke="none" /><text fill="#e1ed5e" style="font-size:6.75px; font-family:Arial;" text-anchor="middle"><textPath startOffset="19.985693538727396" xlink:href="#id14">February</textPath></text><path d="M 116.60985879189232 87.15038557335679 l 8.556998466337603 -6.619811301194614 a31.818693285990136,31.818693285990136 0 0,0 0.331405417727405,0.4360906828228525 l -8.669679824289123 6.471535842490728" fill="#ff2503" stroke="none" /><line stroke="#e1ed5e" stroke-width="0.3" x1="172.23445277983987" x2="176.4835382374775" y1="55.19839476539836" y2="52.563006222186495" /><path d="M 173.08426987136738 54.67131705675599 a86.0,86.0 0 0,1 12.851231095245387,41.99856678651699" fill="none" id="id15" stroke="none" /><text fill="#e1ed5e" style="font-size:6.75px; font-family:Arial;" text-anchor="middle"><textPath startOffset="22.20632615414155" xlink:href="#id15">March</textPath></text><path d="M 119.04729006885535 91.15688171328212 l 9.385813381710326 -4.357567803686619 a31.348037978284523,31.348037978284523 0 0,0 0.2230154400809863,0.4913849604016392 l -9.45943113875466 4.195360834442917" fill="#ff1e03" stroke="none" /><path d="M 119.196687751892 91.48605970444005 l 7.8091823256497515 -3.463457495221854 a29.542766906362885,29.542766906362885 0 0,0 0.20217000292364537,0.4666362406723415 l -7.867643038416078 3.32852210996291" fill="#ff0000" stroke="none" /><path d="M 120.37134235888165 94.90015583598534 l 31.45063771305289 -7.873479732940734 a53.42120132972764,53.42120132972764 0 0,0 0.2156364592106667,0.8939523376077363 l -31.581506972524377 7.330942163673592" fill="#a1ff22" stroke="none" /><line stroke="#e1ed5e" stroke-width="0.3" x1="184.98032266829074" x2="189.97916517819016" y1="98.17113171792111" y2="98.06355123074" /><path d="M 185.9800911702706 98.14961562048488 a86.0,86.0 0 0,1 -9.607161424134198,41.387399972396054" fill="none" id="id16" stroke="none" /><text fill="#e1ed5e" style="font-size:6.75px; font-family:Arial;" text-anchor="middle"><textPath startOffset="21.466115282336823" xlink:href="#id16">April</textPath></text><path d="M 120.9904718944345 100.63252640178507 l 22.592786495287807 0.6808105134573833 a43.6030419319368,43.6030419319368 0 0,0 -0.029064266106984177,0.7500195640579971 l -22.57772009632962 -1.0696073245293867" fill="#ffd914" stroke="none" /><path d="M 120.8583938346157 102.4346265915055 l 33.64247304238339 3.9268056841972516 a54.8708694203284,54.8708694203284 0 0,0 -0.11757649096324055,0.9372003175184047 l -33.56989504217331 -4.505323756003051" fill="#8fff24" stroke="none" /><line stroke="#e1ed5e" stroke-width="0.3" x1="174.80103733775053" x2="179.2010983576182" y1="140.37084112569926" y2="142.7455964860345" /><path d="M 175.68104954172406 140.8457921977663 a86.0,86.0 0 0,1 -30.038265399797805,32.042727171017184" fill="none" id="id17" stroke="none" /><text fill="#e1ed5e" style="font-size:6.75px; font-family:Arial;" text-anchor="middle"><textPath startOffset="22.206326154141568" xlink:href="#id17">May</textPath></text><path d="M 118.30583269289576 110.29060199501025 l 35.84574979993774 20.150645457774363 a62.12136052083709,62.12136052083709 0 0,0 -0.5320191755224251,0.9276202765531082 l -35.49357862826294 -20.764685580185784" fill="#39ff2e" stroke="none" /><line stroke="#e1ed5e" stroke-width="0.3" x1="143.8653032363475" x2="146.44561519142675" y1="172.8068346515853" y2="177.08958963109032" /><path d="M 144.38136562736335 173.6633856474863 a86.0,86.0 0 0,1 -40.68145358897372,12.25698825130547" fill="none" id="id18" stroke="none" /><text fill="#e1ed5e" style="font-size:6.75px; font-family:Arial;" text-anchor="middle"><textPath startOffset="21.466115282336833" xlink:href="#id18">June</textPath></text><path d="M 110.21172684928248 118.3499491758327 l 15.061208912173713 27.064219611828428 a51.97276218055825,51.97276218055825 0 0,0 -0.7854747200135721,0.42830344520056474 l -14.593111380291491 -27.319463708788764" fill="#b3ff20" stroke="none" /><line stroke="#e1ed5e" stroke-width="0.3" x1="102.19456741930631" x2="102.32365962044197" y1="184.97166512339345" y2="189.96999836594603" /><path d="M 102.22038585953345 185.97133177190398 a86.0,86.0 0 0,1 -42.740103519485714,-10.115201625700543" fill="none" id="id19" stroke="none" /><text fill="#e1ed5e" style="font-size:6.75px; font-family:Arial;" text-anchor="middle"><textPath startOffset="22.20632615414155" xlink:href="#id19">July</textPath></text><path d="M 90.42595943632237 118.69057910512821 l -11.418266405789545 22.29090320658301 a46.045182640157265,46.045182640157265 0 0,0 -0.7023186140224498,-0.3674199052289425 l 11.800275922338491 -22.09105388240935" fill="#fffc17" stroke="none" /><line stroke="#e1ed5e" stroke-width="0.3" x1="58.666819895761336" x2="56.23545636021788" y1="174.27360380694188" y2="178.64263932499728" /><path d="M 58.180547188652646 175.14741091055294 a86.0,86.0 0 0,1 -31.652253787137756,-30.449443065178592" fill="none" id="id20" stroke="none" /><text fill="#e1ed5e" style="font-size:6.75px; font-family:Arial;" text-anchor="middle"><textPath startOffset="22.20632615414155" xlink:href="#id20">August</textPath></text><path d="M 89.1626897886671 117.98757091392108 l -8.536382102520164 14.168532174786096 a37.54137610321993,37.54137610321993 0 0,0 -0.550644033474091,-0.3382505395172729 l 8.779005335926565 -14.019493168440444" fill="#ff800b" stroke="none" /><path d="M 86.51685102203217 116.09983520530335 l -10.760778068745285 12.849131450726803 a37.75990822417731,37.75990822417731 0 0,0 -0.49471687398824316,-0.42160845266616015 l 10.980360419310585 -12.661998607837692" fill="#ff830c" stroke="none" /><path d="M 86.24171649860922 115.8653595955263 l -10.666333220454604 12.299878258150004 a37.28059180543154,37.28059180543154 0 0,0 -0.48119949985858196,-0.4246026105187081 l 10.876475073219774 -12.114452505859006" fill="#ff7c0b" stroke="none" /><path d="M 85.97065885151581 115.62618273729859 l -11.019702460028547 12.273982258223853 a37.4949835641856,37.4949835641856 0 0,0 -0.4765441907625723,-0.4353118195078999 l 11.229346200257975 -12.082477672129379" fill="#ff7f0b" stroke="none" /><path d="M 85.44109423537348 115.13401014063109 l -11.601752122999304 12.060043324489774 a37.73455399202767,37.73455399202767 0 0,0 -0.4642249438532625,-0.45434181395937784 l 11.807627019228361 -11.858551407607827" fill="#ff830c" stroke="none" /><path d="M 83.95833913139862 113.55231037782056 l -19.068999579885784 16.10986561914979 a45.96306301808231,45.96306301808231 0 0,0 -0.505383576572413,-0.6087670746214471 l 19.343479156351734 -15.779237287414583" fill="#fffb17" stroke="none" /><path d="M 83.72743513129214 113.27417163493432 l -12.608349263509242 10.285126745990928 a37.27127233291029,37.27127233291029 0 0,0 -0.40125557473315493,-0.5006280253446991 l 12.783522750297259 -10.066570887067968" fill="#ff7c0b" stroke="none" /><path d="M 83.28015986056508 112.70617746262583 l -25.081163836343393 19.060332874961517 a52.50176294574382,52.50176294574382 0 0,0 -0.5406149864601221,-0.7242421204017828 l 25.4055400894986 -18.625777875050424" fill="#acff20" stroke="none" /><path d="M 82.85270091963577 112.12312394758628 l -15.714707606609867 11.110283154340461 a40.245530050660165,40.245530050660165 0 0,0 -0.39505605025819845,-0.5691077050694618 l 15.9036245640302 -10.838134187083988" fill="#ffa80f" stroke="none" /><path d="M 82.6465618267979 111.8261652097733 l -15.403083792239944 10.497021503687328 a39.63980822754459,39.63980822754459 0 0,0 -0.379403731230983,-0.5671571000160732 l 15.581490628881658 -10.230327489465434" fill="#ff9f0e" stroke="none" /><path d="M 82.44556493220864 111.52570212397912 l -18.644408110357414 12.241344898199367 a43.30391173543854,43.30391173543854 0 0,0 -0.40374739593088305,-0.6266249245384706 l 18.85236036966534 -11.91859837373945" fill="#ffd513" stroke="none" /><line stroke="#e1ed5e" stroke-width="0.3" x1="26.63291911575756" x2="22.317208475507996" y1="142.92168965132927" y2="145.44649492493687" /><path d="M 25.769776987707644 143.4266507060508 a86.0,86.0 0 0,1 -11.730757126820373,-40.83630448921669" fill="none" id="id21" stroke="none" /><text fill="#e1ed5e" style="font-size:6.75px; font-family:Arial;" text-anchor="middle"><textPath startOffset="21.46611528233685" xlink:href="#id21">September</textPath></text><path d="M 81.35079622478065 109.6543875284942 l -15.732390687548955 8.144401137870261 a38.715512598855824,38.715512598855824 0 0,0 -0.3012828842291223,-0.5944597132986998 l 15.870252241564343 -7.872387212868876" fill="#ff920d" stroke="none" /><path d="M 81.18737489456691 109.33194174019688 l -18.546517993898984 9.199940169572315 a41.70295217648268,41.70295217648268 0 0,0 -0.3134607233623766,-0.6458219341258921 l 18.702131973876078 -8.879329279481137" fill="#ffbe11" stroke="none" /><path d="M 80.73074385275274 108.34839909993369 l -17.193674524924177 7.449154021907347 a39.73799186975822,39.73799186975822 0 0,0 -0.2665265316306449,-0.6299899901101704 l 17.31935203774713 -7.152089506131018" fill="#ffa10e" stroke="none" /><path d="M 80.58989483394504 108.01547362559985 l -16.095596483385297 6.646735192681812 a38.41399767077049,38.41399767077049 0 0,0 -0.2471252695830423,-0.6133446525092546 l 16.20762436722573 -6.368691172329752" fill="#ff8d0d" stroke="none" /><path d="M 80.45479744820244 107.68017299344265 l -30.271499071765515 11.895008456723094 a53.52468112430027,53.52468112430027 0 0,0 -0.3295736882050168,-0.8604129019206613 l 30.471767039564043 -11.372171987969274" fill="#9fff22" stroke="none" /><path d="M 79.23777060512086 103.15116336523772 l -37.43950475954035 5.682337554752445 a58.86826477046175,58.86826477046175 0 0,0 -0.14343098247556132,-1.0031559573698285 l 37.53176979303251 -5.037036125402216" fill="#5eff29" stroke="none" /><line stroke="#e1ed5e" stroke-width="0.3" x1="15.007084014347285" x2="10.007500721073583" y1="101.09737516637583" y2="101.16192664675087" /><path d="M 14.007167355692545 101.11028546245083 a86.0,86.0 0 0,1 10.666146001902534,-42.60595125391555" fill="none" id="id22" stroke="none" /><text fill="#e1ed5e" style="font-size:6.75px; font-family:Arial;" text-anchor="middle"><textPath startOffset="22.20632615414155" xlink:href="#id22">October</textPath></text><path d="M 79.21141760316559 97.0276538004421 l -23.388684959613673 -3.3441081996505373 a44.62654532069868,44.62654532069868 0 0,0 0.11527271808627562,-0.7595031861186781 l 23.327656348088095 3.746210498161308" fill="#ffe815" stroke="none" /><path d="M 79.32604984820605 96.31383870115002 l -23.58594553404845 -4.205369510231155 a44.95792059951535,44.95792059951535 0 0,0 0.1423973115806992,-0.7606921324145143 l 23.51006249855789 4.610739720108242" fill="#ffed16" stroke="none" /><path d="M 79.3925641242962 95.95851677861259 l -16.359891526825994 -3.2084645323263534 a37.67154148315953,37.67154148315953 0 0,0 0.13027304126069214,-0.6352576147160491 l 16.302239189650304 3.4895978032058053" fill="#ff820b" stroke="none" /><path d="M 79.46518482838121 95.60439243477599 l -33.02978652863399 -7.070235516103373 a54.77802582123918,54.77802582123918 0 0,0 0.20530181433708777,-0.9203277780328194 l 32.903190327294865 7.637741463686152" fill="#90ff24" stroke="none" /><path d="M 79.71946130924805 94.55025226153421 l -22.000017081122017 -5.911802697268886 a43.78047766621886,43.78047766621886 0 0,0 0.2018347347149507,-0.7261069286696886 l 21.894995575840703 6.289620929357517" fill="#ffdc14" stroke="none" /><path d="M 79.91906864156998 93.8553929516997 l -16.158333252361373 -4.944322881197647 a37.89787153010408,37.89787153010408 0 0,0 0.1962469383693299,-0.6221564239426908 l 16.07083083022384 5.221729471566753" fill="#ff850c" stroke="none" /><path d="M 80.38941819471856 92.48833698450439 l -16.406317905952026 -6.28429756231981 a38.56871261882728,38.56871261882728 0 0,0 0.24281107528420853,-0.6179277019282745 l 16.295713280786128 6.565774269143848" fill="#ff8f0d" stroke="none" /><path d="M 80.52162464483688 92.15188598940014 l -13.746705840252787 -5.5387429771387735 a35.82058012445006,35.82058012445006 0 0,0 0.23535539144425432,-0.5699317486044503 l 13.649328761922334 5.774549296196535" fill="#ff6509" stroke="none" /><path d="M 80.803312248108 91.48605970444005 l -15.777313758167413 -6.997410652163921 a38.25941439500993,38.25941439500993 0 0,0 0.27218418404540357,-0.5997217701632439 l 15.654527257158657 7.267954431169237" fill="#ff8b0c" stroke="none" /><path d="M 81.10775173730289 90.83032412892265 l -56.676744788091334 -27.50902761323202 a84.0,84.0 0 0,0 0.6425599481863489,-1.295361646004154 l 56.19482482695157 28.480548847735136" fill="#4dd2ff" stroke="none" /><path d="M 81.43458229118936 90.18545643968196 l -15.63568563458726 -8.265750879565138 a38.68607652552341,38.68607652552341 0 0,0 0.31628981011651297,-0.5860369820487723 l 15.491087725252275 8.533668844946384" fill="#ff910d" stroke="none" /><line stroke="#e1ed5e" stroke-width="0.3" x1="26.266209847984243" x2="21.928928074336255" y1="57.711370442889674" y2="55.22380399835377" /><path d="M 25.398753493254645 57.213857153982495 a86.0,86.0 0 0,1 29.58750427330803,-30.492523968695096" fill="none" id="id23" stroke="none" /><text fill="#e1ed5e" style="font-size:6.75px; font-family:Arial;" text-anchor="middle"><textPath startOffset="21.46611528233685" xlink:href="#id23">November</textPath></text><path d="M 81.96595687620814 89.24020034530311 l -14.361508362829353 -8.568624997876059 a37.72346425863505,37.72346425863505 0 0,0 0.33750680800533683,-0.554772450920838 l 14.211885756537798 8.81456522200397" fill="#ff830c" stroke="none" /><path d="M 82.7489923806493 88.02491185347247 l -14.855622016954419 -10.312289406502495 a39.084048725716386,39.084048725716386 0 0,0 0.38839751123939636,-0.5493607354082237 l 14.675911885911143 10.566476642242506" fill="#ff970d" stroke="none" /><path d="M 82.95767976084542 87.72973835380427 l -14.9007869507287 -10.728383932112415 a39.36114575798075,39.36114575798075 0 0,0 0.4006165934657565,-0.5464405832653135 l 14.713907744749308 10.983286959049229" fill="#ff9b0e" stroke="none" /><path d="M 83.39014120810768 87.1503855733568 l -14.0557141970146 -10.873693159323722 a38.77077107250221,38.77077107250221 0 0,0 0.4129011782185918,-0.5243425655664657 l 13.866458938202037 11.114028118843235" fill="#ff920d" stroke="none" /><path d="M 83.6137871275137 86.86637796730984 l -13.867075398280676 -11.114522214320578 a38.77156110627951,38.77156110627951 0 0,0 0.4218742941589123,-0.5171680016607842 l 13.67370261204537 11.351574385589444" fill="#ff920d" stroke="none" /><path d="M 83.84228863543731 86.58626213691792 l -23.765512076365447 -19.729548447897127 a51.887775028476746,51.887775028476746 0 0,0 0.5764222478053074,-0.682302128465319 l 23.422379215073015 20.13570952599156" fill="#b4ff20" stroke="none" /><path d="M 84.5562425177563 85.77008943001954 l -13.376515532008586 -12.325149496635506 a39.18902080631284,39.18902080631284 0 0,0 0.46137174110953555,-0.492159205201291 l 13.162376468928594 12.553578118714848" fill="#ff990e" stroke="none" /><path d="M 85.05521093208273 85.24692304244772 l -12.750366804173325 -12.586804794910629 a38.91645915314045,38.91645915314045 0 0,0 0.4747144580612221,-0.47267588331454924 l 12.53181654594479 12.804416528875286" fill="#ff950d" stroke="none" /><line stroke="#e1ed5e" stroke-width="0.3" x1="56.762969772571076" x2="54.21961505331055" y1="26.818313649435495" y2="22.513508569990535" /><path d="M 56.25429882871897 25.957352633546506 a86.0,86.0 0 0,1 42.265352541879196,-11.944610805530505" fill="none" id="id24" stroke="none" /><text fill="#e1ed5e" style="font-size:6.75px; font-family:Arial;" text-anchor="middle"><textPath startOffset="22.20632615414155" xlink:href="#id24">December</textPath></text><path d="M 90.26544431104013 81.39251694778311 l -8.721368600686043 -16.670788438084514 a39.8142886502893,39.8142886502893 0 0,0 0.6099918960640142,-0.31246154137776977 l 8.433116217033266 16.81844250477479" fill="#ffa20f" stroke="none" /><path d="M 90.58718382345135 81.22770947309562 l -8.019409989679152 -15.9933744967508 a38.89130974456271,38.89130974456271 0 0,0 0.6010165464622862,-0.29491620916283945 l 7.74292217620644 16.129045866048468" fill="#ff940d" stroke="none" /><path d="M 91.23893434514133 80.91482961587045 l -8.025327753733352 -17.482433484965757 a40.23645929247622,40.23645929247622 0 0,0 0.6319382744877322,-0.28353228320408425 l 7.723207360778845 17.61798609868637" fill="#ffa80f" stroke="none" /><path d="M 91.56875222667455 80.76684994638697 l -7.1315381367100095 -16.26828516774903 a38.762768322943145,38.762768322943145 0 0,0 0.6134046431773972,-0.26262785592654814 l 6.850449735742304 16.388632551638366" fill="#ff920d" stroke="none" /><path d="M 91.90106846888425 80.62456947434976 l -12.048682795083252 -28.82459439554882 a52.24144681611976,52.24144681611976 0 0,0 0.8326692821617155,-0.3396667072743232 l 11.550729643333156 29.02772198900672" fill="#b0ff20" stroke="none" /><path d="M 92.23578459929587 80.48803036053334 l -7.276391713038696 -18.286037527604137 a40.680575317366234,40.680575317366234 0 0,0 0.6528589875929074,-0.25329914441312285 l 6.960549560446113 18.408579375907813" fill="#ffaf10" stroke="none" /><path d="M 92.91201910852362 80.23233633223022 l -5.988284601251181 -16.700721652165967 a38.74186168835467,38.74186168835467 0 0,0 0.6296806947774571,-0.21968323030331072 l 5.699921902410439 16.801325735641488" fill="#ff920d" stroke="none" /><path d="M 93.59665428221793 80.00007090966166 l -5.86778173026541 -18.327172027741035 a40.24359885698229,40.24359885698229 0 0,0 0.6615561419139088,-0.20554871358293722 l 5.551440215640773 18.425460876206497" fill="#ffa80f" stroke="none" /><path d="M 94.98787191387505 79.60689891045804 l -4.633735633471658 -18.853516424928117 a40.41459727900477,40.41459727900477 0 0,0 0.6769951439858238,-0.160222877745599 l 4.308516802523299 18.93048521481459" fill="#ffab0f" stroke="none" /><path d="M 96.75951476605007 79.25152402106235 l -4.844248664577078 -31.01719952306736 a52.39320645263919,52.39320645263919 0 0,0 0.8922588496318882,-0.13149576059748563 l 4.309620834516541 31.095989767825817" fill="#aeff20" stroke="none" /><path d="M 97.11714578562143 79.19881850522333 l -2.2329993467946885 -16.11216566509822 a37.266166373868046,37.266166373868046 0 0,0 0.6361605604765442,-0.0825918986801944 l 1.9553240578102864 16.148215886942552" fill="#ff7c0b" stroke="none" /><path d="M 97.83486435360386 79.11191278185805 l -1.5084116805688446 -14.552360632476168 a35.630328286669396,35.630328286669396 0 0,0 0.6105933268523003,-0.05798319371153746 l 1.257693226626308 14.576169370702885" fill="#ff6209" stroke="none" /></svg>