<?xml version="1.0" encoding="utf-8" ?>
<svg baseProfile="full" height="200mm" version="1.1" viewBox="0,0,200,200" width="200mm" xmlns="http://www.w3.org/2000/svg" xmlns:ev="http://www.w3.org/2001/xml-events" xmlns:xlink="http://www.w3.org/1999/xlink"><defs /><rect fill="#1a1a1a" height="200" width="200" x="0" y="0" /><text alignment-baseline="middle" fill="#e1ed5e" style="dominant-baseline: central; font-size:9.0px; font-family:Arial;" text-anchor="middle" x="100.0" y="100.0">2017</text><line stroke="#e1ed5e" stroke-width="0.3" x1="100.0" x2="100.0" y1="15.0" y2="10.0" /><path d="M 100.0 14.0 a86.0,86.0 0 0,1 42.46469731375804,11.215312516191453" fill="none" id="id13" stroke="none" /><text fill="#e1ed5e" style="font-size:6.75px; font-family:Arial;" text-anchor="middle"><textPath startOffset="22.20632615414155" xlink:href="#id13">January</textPath></text><path d="M 104.307194497241 79.44645832069477 l 6.143221783423165 -29.314897446977024 a50.951667502947224,50.951667502947224 0 0,0 0.8568548616750504,0.18727528479689556 l -6.646919369251743 29.204808664084258" fill="#c0ff1e" stroke="none" /><line stroke="#e1ed5e" stroke-width="0.3" x1="143.23703022742887" x2="145.7803849466894" y1="26.81831364943548" y2="22.513508569990506" /><path d="M 143.74570117128098 25.957352633546492 a86.0,86.0 0 0,1 28.547481713284135,27.462654790039103" fill="none" id="id14" stroke="none" /><text fill="#e1ed5e" style="font-size:6.75px; font-family:Arial;" text-anchor="middle"><textPath startOffset="19.985693538727396" xlink:href="#id14">February</textPath></text><path d="M 116.60985879189232 87.15038557335679 l 8.520002318684321 -6.591190574277423 a31.771918710091985,31.771918710091985 0 0,0 0.3309182403400365,0.435449614487367 l -8.63219649924847 6.443556183909022" fill="#ff2503" stroke="none" /><line stroke="#e1ed5e" stroke-width="0.3" x1="172.23445277983987" x2="176.4835382374775" y1="55.19839476539836" y2="52.563006222186495" /><path d="M 173.08426987136738 54.67131705675599 a86.0,86.0 0 0,1 12.851231095245387,41.99856678651699" fill="none" id="id15" stroke="none" /><text fill="#e1ed5e" style="font-size:6.75px; font-family:Arial;" text-anchor="middle"><textPath startOffset="22.20632615414155" xlink:href="#id15">March</textPath></text><path d="M 119.04729006885535 91.15688171328212 l 9.235084459682918 -4.287588626496615 a31.181856471564508,31.181856471564508 0 0,0 0.22183319569681914,0.48878004161355854 l -9.307519972343083 4.1279865760409935" fill="#ff1b02" stroke="none" /><path d="M 119.196687751892 91.48605970444005 l 7.795012303216766 -3.457172935794705 a29.527265770180506,29.527265770180506 0 0,0 0.20206392400567386,0.4663913959041713 l -7.853366937065121 3.3224823953039313" fill="#ff0000" stroke="none" /><path d="M 120.37134235888165 94.90015583598534 l 31.154725731682074 -7.7993999317833005 a53.11615753343221,53.11615753343221 0 0,0 0.2144051397625823,0.8888477235596938 l -31.284363671705474 7.2619669765642" fill="#a4ff21" stroke="none" /><line stroke="#e1ed5e" stroke-width="0.3" x1="184.98032266829074" x2="189.97916517819016" y1="98.17113171792111" y2="98.06355123074" /><path d="M 185.9800911702706 98.14961562048488 a86.0,86.0 0 0,1 -9.607161424134198,41.387399972396054" fill="none" id="id16" stroke="none" /><text fill="#e1ed5e" style="font-size:6.75px; font-family:Arial;" text-anchor="middle"><textPath startOffset="21.466115282336823" xlink:href="#id16">April</textPath></text><path d="M 120.9904718944345 100.63252640178507 l 22.39797131831139 0.674939957353369 a43.4081383234291,43.4081383234291 0 0,0 -0.028934350163235992,0.7466670108183753 l -22.38303483529695 -1.0603842151857505" fill="#ffd714" stroke="none" /><path d="M 120.8583938346157 102.4346265915055 l 33.330229449307616 3.8903600901233726 a54.55650602751004,54.55650602751004 0 0,0 -0.11690287771443739,0.931830957151456 l -33.25832506234633 -4.463508801562224" fill="#92ff23" stroke="none" /><line stroke="#e1ed5e" stroke-width="0.3" x1="174.80103733775053" x2="179.2010983576182" y1="140.37084112569926" y2="142.7455964860345" /><path d="M 175.68104954172406 140.8457921977663 a86.0,86.0 0 0,1 -30.038265399797805,32.042727171017184" fill="none" id="id17" stroke="none" /><text fill="#e1ed5e" style="font-size:6.75px; font-family:Arial;" text-anchor="middle"><textPath startOffset="22.206326154141568" xlink:href="#id17">May</textPath></text><path d="M 118.30583269289576 110.29060199501025 l 35.647964967007375 20.039460950055908 a61.894466636181974,61.894466636181974 0 0,0 -0.5300760130347844,0.9242322089662531 l -35.29773695782021 -20.650113004880478" fill="#3cff2e" stroke="none" /><line stroke="#e1ed5e" stroke-width="0.3" x1="143.8653032363475" x2="146.44561519142675" y1="172.8068346515853" y2="177.08958963109032" /><path d="M 144.38136562736335 173.6633856474863 a86.0,86.0 0 0,1 -40.68145358897372,12.25698825130547" fill="none" id="id18" stroke="none" /><text fill="#e1ed5e" style="font-size:6.75px; font-family:Arial;" text-anchor="middle"><textPath startOffset="21.466115282336833" xlink:href="#id18">June</textPath></text><path d="M 110.21172684928248 118.3499491758327 l 14.934482095611815 26.836498024926666 a51.71215364812508,51.71215364812508 0 0,0 -0.7815360912884923,0.42615579078300636 l -14.470323192454673 -27.089594467469443" fill="#b6ff1f" stroke="none" /><line stroke="#e1ed5e" stroke-width="0.3" x1="102.19456741930631" x2="102.32365962044197" y1="184.97166512339345" y2="189.96999836594603" /><path d="M 102.22038585953345 185.97133177190398 a86.0,86.0 0 0,1 -42.740103519485714,-10.115201625700543" fill="none" id="id19" stroke="none" /><text fill="#e1ed5e" style="font-size:6.75px; font-family:Arial;" text-anchor="middle"><textPath startOffset="22.20632615414155" xlink:href="#id19">July</textPath></text><path d="M 90.42595943632237 118.69057910512821 l -11.318137038186007 22.09542922112274 a45.82555575371481,45.82555575371481 0 0,0 -0.6989686859378165,-0.3656673811824413 l 11.69679662665032 -21.89733242099558" fill="#fff917" stroke="none" /><line stroke="#e1ed5e" stroke-width="0.3" x1="58.666819895761336" x2="56.23545636021788" y1="174.27360380694188" y2="178.64263932499728" /><path d="M 58.180547188652646 175.14741091055294 a86.0,86.0 0 0,1 -31.652253787137756,-30.449443065178592" fill="none" id="id20" stroke="none" /><text fill="#e1ed5e" style="font-size:6.75px; font-family:Arial;" text-anchor="middle"><textPath startOffset="22.20632615414155" xlink:href="#id20">August</textPath></text><path d="M 89.1626897886671 117.98757091392108 l -8.357485602634277 13.871603009227597 a37.194719375273266,37.194719375273266 0 0,0 -0.5455593914411871,-0.33512713708969927 l 8.595024194007772 -13.725687405309518" fill="#ff7b0b" stroke="none" /><path d="M 86.51685102203217 116.09983520530335 l -10.649418222343238 12.71615990391007 a37.58646530084654,37.58646530084654 0 0,0 -0.4924444865572101,-0.41967187479904133 l 10.866728185477506 -12.530963638888077" fill="#ff810b" stroke="none" /><path d="M 86.24171649860922 115.8653595955263 l -10.525322510905488 12.137271809926219 a37.0653596581777,37.0653596581777 0 0,0 -0.47842138941032053,-0.4221512510534806 l 10.732686253222395 -11.954297417100449" fill="#ff790b" stroke="none" /><path d="M 85.97065885151581 115.62618273729859 l -10.936810466555123 12.181655368189205 a37.37090561608253,37.37090561608253 0 0,0 -0.4749672164649562,-0.43387129087672727 l 11.144877232486934 -11.991591310725902" fill="#ff7d0b" stroke="none" /><path d="M 85.44109423537348 115.13401014063109 l -11.520475940366772 11.975556578573668 a37.61731991806106,37.61731991806106 0 0,0 -0.4627826853488599,-0.45293026045764323 l 11.724908578091426 -11.775476215193455" fill="#ff810b" stroke="none" /><path d="M 83.95833913139862 113.55231037782056 l -18.127002903326364 15.314048313187646 a44.72990328669394,44.72990328669394 0 0,0 -0.4918244568225183,-0.5924342414087664 l 18.387923360042418 -14.99975281466512" fill="#ffe915" stroke="none" /><path d="M 83.72743513129214 113.27417163493432 l -12.514320157768307 10.208423503548502 a37.14992629825064,37.14992629825064 0 0,0 -0.39994918592935885,-0.49899810444550213 l 12.688187255752526 -9.99149756552474" fill="#ff7a0b" stroke="none" /><path d="M 83.28015986056508 112.70617746262583 l -24.841140859476486 18.877928347541094 a52.20029579820114,52.20029579820114 0 0,0 -0.5375107543592804,-0.7200834942163455 l 25.16241288053085 -18.447531973815437" fill="#b0ff20" stroke="none" /><path d="M 82.85270091963577 112.12312394758628 l -15.605783858283976 11.03327416910018 a40.112133023867585,40.112133023867585 0 0,0 -0.393746605396756,-0.5672213520835414 l 15.793391370842865 -10.763011554829626" fill="#ffa70f" stroke="none" /><path d="M 82.6465618267979 111.8261652097733 l -15.237299164259493 10.38404121815721 a39.43918647450399,39.43918647450399 0 0,0 -0.3774835241191632,-0.5642866509210248 l 15.413785793789387 -10.120217653030364" fill="#ff9d0e" stroke="none" /><path d="M 82.44556493220864 111.52570212397912 l -18.431171131796585 12.101340056846267 a43.04882084060288,43.04882084060288 0 0,0 -0.4013690360925202,-0.6229336572528865 l 18.636745031266152 -11.782284799671933" fill="#ffd213" stroke="none" /><line stroke="#e1ed5e" stroke-width="0.3" x1="26.63291911575756" x2="22.317208475507996" y1="142.92168965132927" y2="145.44649492493687" /><path d="M 25.769776987707644 143.4266507060508 a86.0,86.0 0 0,1 -11.730757126820373,-40.83630448921669" fill="none" id="id21" stroke="none" /><text fill="#e1ed5e" style="font-size:6.75px; font-family:Arial;" text-anchor="middle"><textPath startOffset="21.46611528233685" xlink:href="#id21">September</textPath></text><path d="M 81.35079622478065 109.6543875284942 l -15.58787216546857 8.069586264590617 a38.552777020422134,38.552777020422134 0 0,0 -0.30001648114813495,-0.5919609798762203 l 15.724467316402972 -7.800071073011712" fill="#ff8f0d" stroke="none" /><path d="M 81.18737489456691 109.33194174019688 l -18.550738220145696 9.202033599130607 a41.70766309538338,41.70766309538338 0 0,0 -0.31349613303889223,-0.6458948885475139 l 18.706387609799307 -8.881349754617807" fill="#ffbe11" stroke="none" /><path d="M 80.73074385275274 108.34839909993369 l -17.05203606446829 7.387789203942911 a39.58363159519212,39.58363159519212 0 0,0 -0.26549122242990575,-0.627542824985017 l 17.1766782680905 -7.093171853291735" fill="#ff9f0e" stroke="none" /><path d="M 80.58989483394504 108.01547362559985 l -15.905770941853092 6.568346043905971 a38.20862339082338,38.20862339082338 0 0,0 -0.24580405394877436,-0.6100655036571072 l 16.016477610059255 -6.293581172406059" fill="#ff8a0c" stroke="none" /><path d="M 80.45479744820244 107.68017299344265 l -30.051797546443883 11.808678027712617 a53.28862667464557,53.28862667464557 0 0,0 -0.3281202029351235,-0.8566183105326806 l 30.250612028972515 -11.289636150346778" fill="#a2ff22" stroke="none" /><path d="M 79.23777060512086 103.15116336523772 l -37.546068420153944 5.698511131154314 a58.976048806093175,58.976048806093175 0 0,0 -0.1436935954502443,-1.004992671903111 l 37.638596066620785 -5.051372987270802" fill="#5dff2a" stroke="none" /><line stroke="#e1ed5e" stroke-width="0.3" x1="15.007084014347285" x2="10.007500721073583" y1="101.09737516637583" y2="101.16192664675087" /><path d="M 14.007167355692545 101.11028546245083 a86.0,86.0 0 0,1 10.666146001902534,-42.60595125391555" fill="none" id="id22" stroke="none" /><text fill="#e1ed5e" style="font-size:6.75px; font-family:Arial;" text-anchor="middle"><textPath startOffset="22.20632615414155" xlink:href="#id22">October</textPath></text><path d="M 79.21141760316559 97.0276538004421 l -23.122473007889244 -3.306045282810884 a44.35762602261974,44.35762602261974 0 0,0 0.11457808536907457,-0.7549264244125681 l 23.062139029080868 3.7035708196155444" fill="#ffe415" stroke="none" /><path d="M 79.32604984820605 96.31383870115002 l -23.231762513339667 -4.142218746392576 a44.59815174159155,44.59815174159155 0 0,0 0.14125779895476695,-0.75460481040182 l 23.15701899047504 4.541501634256969" fill="#ffe815" stroke="none" /><path d="M 79.3925641242962 95.95851677861259 l -16.252496823048837 -3.187402528494379 a37.562100949513166,37.562100949513166 0 0,0 0.12989458180312843,-0.633412111993828 l 16.195222945330716 3.4666902966516093" fill="#ff800b" stroke="none" /><path d="M 79.46518482838121 95.60439243477599 l -32.78458201070037 -7.017747932209956 a54.52726657000799,54.52726657000799 0 0,0 0.20436199716646583,-0.9161147619365493 l 32.65892562653186 7.581040863696465" fill="#93ff23" stroke="none" /><path d="M 79.71946130924805 94.55025226153421 l -21.83995724719312 -5.868791723483906 a43.61473963707866,43.61473963707866 0 0,0 0.20107065691299691,-0.7233581342819194 l 21.735699819713762 6.243861161184768" fill="#ffda14" stroke="none" /><path d="M 79.91906864156998 93.8553929516997 l -16.01002337499554 -4.898941225261051 a37.742773772480646,37.742773772480646 0 0,0 0.19544379405402532,-0.6196102369841996 l 15.92332409717331 5.173801628671666" fill="#ff830c" stroke="none" /><path d="M 80.38941819471856 92.48833698450439 l -16.30592662791001 -6.245843555302871 a38.461208575356494,38.461208575356494 0 0,0 0.2421342787146544,-0.61620532848049 l 16.195998799313667 6.525597888679124" fill="#ff8e0d" stroke="none" /><path d="M 80.52162464483688 92.15188598940014 l -13.60092393027182 -5.480005375601058 a35.66340992653677,35.66340992653677 0 0,0 0.23432272102616683,-0.5674310552763686 l 13.504579522359453 5.713311001330738" fill="#ff6309" stroke="none" /><path d="M 80.803312248108 91.48605970444005 l -15.629483822690643 -6.931846464174165 a38.0976975048289,38.0976975048289 0 0,0 0.2710337017263113,-0.5971868348753345 l 15.50784780400098 7.199855307891571" fill="#ff880c" stroke="none" /><path d="M 81.10775173730289 90.83032412892265 l -56.676744788091334 -27.50902761323202 a84.0,84.0 0 0,0 0.6425599481863489,-1.295361646004154 l 56.19482482695157 28.480548847735136" fill="#4dd2ff" stroke="none" /><path d="M 81.43458229118936 90.18545643968196 l -15.457566237369871 -8.171588679158626 a38.48459938128496,38.48459938128496 0 0,0 0.31464257231373516,-0.5829849005722905 l 15.314615565837665 8.43645456306339" fill="#ff8e0d" stroke="none" /><line stroke="#e1ed5e" stroke-width="0.3" x1="26.266209847984243" x2="21.928928074336255" y1="57.711370442889674" y2="55.22380399835377" /><path d="M 25.398753493254645 57.213857153982495 a86.0,86.0 0 0,1 29.58750427330803,-30.492523968695096" fill="none" id="id23" stroke="none" /><text fill="#e1ed5e" style="font-size:6.75px; font-family:Arial;" text-anchor="middle"><textPath startOffset="21.46611528233685" xlink:href="#id23">November</textPath></text><path d="M 81.96595687620814 89.24020034530311 l -14.24611921467637 -8.499779420213319 a37.589097711179264,37.589097711179264 0 0,0 0.3363046484098241,-0.5527964166323978 l 14.09769876798033 8.74374361005279" fill="#ff810b" stroke="none" /><path d="M 82.7489923806493 88.02491185347247 l -14.75475720702758 -10.242272337563186 a38.961263955388674,38.961263955388674 0 0,0 0.38717733828474526,-0.5476348872956719 l 14.576267248938958 10.494733725190645" fill="#ff950d" stroke="none" /><path d="M 82.95767976084542 87.72973835380427 l -14.652626142992817 -10.54971119280696 a39.05535541433491,39.05535541433491 0 0,0 0.39750426826721275,-0.5421953751922012 l 14.468859262211971 10.800369011670663" fill="#ff970d" stroke="none" /><path d="M 83.39014120810768 87.1503855733568 l -13.94884165366481 -10.791015094925616 a38.63565111522472,38.63565111522472 0 0,0 0.4114621769292857,-0.522515180061916 l 13.761025396141552 11.029522668940578" fill="#ff910d" stroke="none" /><path d="M 83.6137871275137 86.86637796730984 l -13.732454021432112 -11.00662258584583 a38.59903503598986,38.59903503598986 0 0,0 0.4199970338152304,-0.5148667024491917 l 13.540958495540488 11.241373457903105" fill="#ff900d" stroke="none" /><path d="M 83.84228863543731 86.58626213691792 l -23.607337030568708 -19.59823538301271 a51.682196658694956,51.682196658694956 0 0,0 0.5741384739116545,-0.679598860514601 l 23.266487943169928 20.001693193156427" fill="#b7ff1f" stroke="none" /><path d="M 84.5562425177563 85.77008943001954 l -13.256525658898932 -12.21459057562054 a39.025861851103926,39.025861851103926 0 0,0 0.4594508732314021,-0.4901101572775379 l 13.044307463697074 12.440970149776128" fill="#ff960d" stroke="none" /><path d="M 85.05521093208273 85.24692304244772 l -12.648595013834356 -12.486338535523808 a38.773452277138006,38.773452277138006 0 0,0 0.47297001796780597,-0.4709389344012755 l 12.431789195699237 12.702213320575193" fill="#ff930d" stroke="none" /><line stroke="#e1ed5e" stroke-width="0.3" x1="56.762969772571076" x2="54.21961505331055" y1="26.818313649435495" y2="22.513508569990535" /><path d="M 56.25429882871897 25.957352633546506 a86.0,86.0 0 0,1 42.265352541879196,-11.944610805530505" fill="none" id="id24" stroke="none" /><text fill="#e1ed5e" style="font-size:6.75px; font-family:Arial;" text-anchor="middle"><textPath startOffset="22.20632615414155" xlink:href="#id24">December</textPath></text><path d="M 90.26544431104013 81.39251694778311 l -8.657956051100708 -16.549576132211612 a39.67749108254799,39.67749108254799 0 0,0 0.6078960302190555,-0.3113879574881109 l 8.371799533292888 16.696156615012228" fill="#ffa00e" stroke="none" /><path d="M 90.58718382345135 81.22770947309562 l -7.955915410095278 -15.866745157297451 a38.74965328954945,38.74965328954945 0 0,0 0.5988274231353696,-0.2938420158535797 l 7.681616719949482 16.00134233328586" fill="#ff920d" stroke="none" /><path d="M 91.23893434514133 80.91482961587045 l -7.9624832023263385 -17.345532448200682 a40.08582287088801,40.08582287088801 0 0,0 0.6295724370853527,-0.28247080092414156 l 7.6627286467742115 17.48002357964135" fill="#ffa60f" stroke="none" /><path d="M 91.56875222667455 80.76684994638697 l -7.082495169030833 -16.156409585177215 a38.640615309658315,38.640615309658315 0 0,0 0.6114716226845683,-0.26180023743174174 l 6.803339788555956 16.275929350571744" fill="#ff910d" stroke="none" /><path d="M 91.90106846888425 80.62456947434976 l -11.937479161159555 -28.558557045435354 a51.953103063190675,51.953103063190675 0 0,0 0.8280734104851066,-0.3377919358219689 l 11.444121881086069 28.7598098674409" fill="#b3ff20" stroke="none" /><path d="M 92.23578459929587 80.48803036053334 l -7.213225046031275 -18.127295655403717 a40.50972740309591,40.50972740309591 0 0,0 0.6501171483865363,-0.25223535339807873 l 6.900124732645063 18.248773712692348" fill="#ffad10" stroke="none" /><path d="M 92.91201910852362 80.23233633223022 l -5.9481799709324354 -16.58887388397932 a38.623041216123084,38.623041216123084 0 0,0 0.6277494773746792,-0.2190094664719292 l 5.661748489494471 16.688804203623462" fill="#ff900d" stroke="none" /><path d="M 93.59665428221793 80.00007090966166 l -5.820966464789587 -18.180951281411232 a40.09006652898972,40.09006652898972 0 0,0 0.6590322559432037,-0.2047645299261918 l 5.507148836135654 18.27845594621995" fill="#ffa60f" stroke="none" /><path d="M 94.98787191387505 79.60689891045804 l -4.591406002659169 -18.681287697846752 a40.23724302313029,40.23724302313029 0 0,0 0.6740242379747273,-0.15951976027889597 l 4.269158077721908 18.757553370266518" fill="#ffa90f" stroke="none" /><path d="M 96.75951476605007 79.25152402106235 l -4.798736849892126 -30.72579230298336 a52.098266639807825,52.098266639807825 0 0,0 0.8872360102997422,-0.1307555246462121 l 4.269131859163735 30.803842311790543" fill="#b1ff20" stroke="none" /><path d="M 97.11714578562143 79.19881850522333 l -2.210752785408119 -15.951646011093978 a37.104112466740915,37.104112466740915 0 0,0 0.6333941824340285,-0.0822327434146944 l 1.9358438744662325 15.987337077672809" fill="#ff790b" stroke="none" /><path d="M 97.83486435360386 79.11191278185805 l -1.4909251942218429 -14.383660231389062 a35.460724033975914,35.460724033975914 0 0,0 0.6076868359531088,-0.05770718737897987 l 1.2431132311784978 14.407192963283222" fill="#ff6008" stroke="none" /></svg>