<?xml version="1.0" encoding="utf-8" ?>
<svg baseProfile="full" height="200mm" version="1.1" viewBox="0,0,200,200" width="200mm" xmlns="http://www.w3.org/2000/svg" xmlns:ev="http://www.w3.org/2001/xml-events" xmlns:xlink="http://www.w3.org/1999/xlink"><defs /><rect fill="#1a1a1a" height="200" width="200" x="0" y="0" /><text alignment-baseline="middle" fill="#e1ed5e" style="dominant-baseline: central; font-size:9.0px; font-family:Arial;" text-anchor="middle" x="100.0" y="100.0">2024</text><line stroke="#e1ed5e" stroke-width="0.3" x1="100.0" x2="100.0" y1="15.0" y2="10.0" /><path d="M 100.0 14.0 a86.0,86.0 0 0,1 42.35913384403234,11.155469271406648" fill="none" id="id97" stroke="none" /><text fill="#e1ed5e" style="font-size:6.75px; font-family:Arial;" text-anchor="middle"><textPath startOffset="22.145653131862478" xlink:href="#id97">January</textPath></text><path d="M 100.36049292484886 79.00309439819443 l 0.26749405039907953 -15.580187399319874 a36.58248351402705,36.58248351402705 0 0,0 0.6278019046039023,0.016169950095929257 l -0.5349092690737232 15.5732997318739" fill="#ff4d07" stroke="none" /><path d="M 101.08105385017728 79.02784411241856 l 0.7833538281426534 -15.196854991309964 a36.21703140717559,36.21703140717559 0 0,0 0.6206144428984823,0.03733462376316061 l -1.0441126231735982 15.181168389722112" fill="#ff4606" stroke="none" /><path d="M 101.44090949804482 79.04949213459386 l 1.0633902432603268 -15.461460754927105 a36.49798591706717,36.49798591706717 0 0,0 0.6246908460405154,0.04835502230456635 l -1.3286500840760758 15.440927965627484" fill="#ff4b07" stroke="none" /><path d="M 101.80034050326958 79.07731436759882 l 1.2939995157668078 -15.03823583799817 a36.093805744942436,36.093805744942436 0 0,0 0.6168610781407795,0.0584173854479766 l -1.5519601572926003 15.01380669704501" fill="#ff4406" stroke="none" /><path d="M 102.15924093988457 79.11130261209362 l 1.1407076574580526 -11.035311819338995 a32.09411199284676,32.09411199284676 0 0,0 0.5475318141447764,0.06135208181699711 l -1.3299753732036257 11.014103977015028" fill="#ff0000" stroke="none" /><path d="M 102.87502721639298 79.19773525538626 l 2.083650830241237 -15.076259438125527 a36.21956633508439,36.21956633508439 0 0,0 0.6151719046429419,0.09040908537452641 l -2.3421478404918608 15.038269279452118" fill="#ff4606" stroke="none" /><path d="M 103.58742460773223 79.30868818359171 l 2.614990757765031 -15.082571784036986 a36.30758466525092,36.30758466525092 0 0,0 0.6131923423532808,0.11174407128841439 l -2.873517833669365 15.035459538817205" fill="#ff4806" stroke="none" /><path d="M 103.94208987418118 79.37332000966035 l 2.796297461326793 -14.63140992049744 a35.896222197384596,35.896222197384596 0 0,0 0.6042590810922444,0.12086873948100632 l -3.047053027949994 14.581251784353574" fill="#ff4106" stroke="none" /><path d="M 104.29559338865022 79.4440306129975 l 3.085971190471956 -14.767489280554587 a36.086482619872584,36.086482619872584 0 0,0 0.6052864490828351,0.13191936437192947 l -3.339020056173925 14.712338458048938" fill="#ff4406" stroke="none" /><path d="M 104.9986988182912 79.60360301121754 l 3.5949734570549996 -14.668718492484691 a36.102818821951494,36.102818821951494 0 0,0 0.6006730379063073,0.1526887373221408 l -3.8462517881867013 14.604844523327284" fill="#ff4506" stroke="none" /><path d="M 105.3480935250658 79.69241777938227 l 3.6772910062715227 -13.963272913795615 a35.43937185648821,35.43937185648821 0 0,0 0.5869748890894383,0.15998261618271814 l -3.9164472962956536 13.898089803468755" fill="#ff3905" stroke="none" /><path d="M 106.04205211174951 79.88797359093562 l 4.370293886235016 -14.547286986222419 a36.18956968816363,36.18956968816363 0 0,0 0.593438919736384,0.1838488942924974 l -4.619373438843031 14.470121504123275" fill="#ff4606" stroke="none" /><path d="M 106.72888874123014 80.10723608172694 l 10.582713675600475 -31.285912556924533 a54.02729406504974,54.02729406504974 0 0,0 0.8759991324369464,0.3047179711020086 l -11.11821858008244 31.099636153253936" fill="#acff21" stroke="none" /><path d="M 108.07796709384702 80.6158196554323 l 6.8291009215489265 -16.38735616481885 a38.7533676092545,38.7533676092545 0 0,0 0.6118694008692933,0.26117066322751153 l -7.10940539758865 16.267710851931938" fill="#ff700a" stroke="none" /><path d="M 108.73861861582097 80.90454125486305 l 6.24931854636771 -13.65588884624562 a36.01789873700682,36.01789873700682 0 0,0 0.5600119257269519,0.26211385790001435 l -6.482819185966167 13.546598756775072" fill="#ff4306" stroke="none" /><path d="M 109.06512990194946 81.05736502329252 l 9.500300718188118 -19.851974612618502 a43.00810327484073,43.00810327484073 0 0,0 0.6632254021064619,0.3244167788189972 l -9.839686369556647 19.685964083702284" fill="#ffb410" stroke="none" /><path d="M 109.3889696526874 81.21577127319529 l 8.482876888977053 -16.97143623190449 a39.97337208002683,39.97337208002683 0 0,0 0.6111600776767177,0.3120626903496928 l -8.77296418836735 16.823315589881965" fill="#ff840c" stroke="none" /><path d="M 109.71004243097381 81.37971332152246 l 7.496213532656359 -14.374977861671995 a37.21213144070638,37.21213144070638 0 0,0 0.5638722101358751,0.3002301916688101 l -7.741874558578794 14.244177202280612" fill="#ff5708" stroke="none" /><path d="M 110.34350942703115 81.72400993836675 l 11.64773729391513 -20.580435733716747 a44.64791997317537,44.64791997317537 0 0,0 0.6637817576186454,0.38323457644428793 l -11.999311519394173 20.377454259996288" fill="#ffcd13" stroke="none" /><line stroke="#e1ed5e" stroke-width="0.3" x1="143.13028292997686" x2="145.6673583964461" y1="26.7553504044142" y2="22.446841604673864" /><path d="M 143.63769802327073 25.89364864446614 a86.0,86.0 0 0,1 29.32050498858742,28.57503671076993" fill="none" id="id98" stroke="none" /><text fill="#e1ed5e" style="font-size:6.75px; font-family:Arial;" text-anchor="middle"><textPath startOffset="20.669276256404974" xlink:href="#id98">February</textPath></text><path d="M 110.65571695917076 81.90426304109057 l 7.621308913690211 -12.942648712720919 a36.01987034760255,36.01987034760255 0 0,0 0.5301220017853396,0.3183230304298266 l -7.842363672032985 12.809911681755171" fill="#ff4306" stroke="none" /><path d="M 111.27062007382361 82.28071324371311 l 10.805207835925447 -16.987581415393 a41.13281993964458,41.13281993964458 0 0,0 0.5925366198822829,0.3840750781833497 l -11.095230088064737 16.799592495505753" fill="#ff960d" stroke="none" /><path d="M 111.5731344415666 82.4767994020092 l 8.715047543833387 -13.195692757453791 a36.81386610036884,36.81386610036884 0 0,0 0.5243411428628716,0.35280012151984824 l -8.940284974793261 13.044142961876824" fill="#ff5007" stroke="none" /><path d="M 111.8722381534696 82.67804972795209 l 8.764092308869742 -12.787072596712797 a36.502210796915165,36.502210796915165 0 0,0 0.5138206045037272,0.35868668726273917 l -8.98230800454723 12.63474109364493" fill="#ff4b07" stroke="none" /><path d="M 112.16784306229584 82.88440491214696 l 8.537182819089601 -12.0086167757446 a35.73398681122164,35.73398681122164 0 0,0 0.4969048916153762,0.3597208213169989 l -8.742068721078946 11.860295183054525" fill="#ff3e05" stroke="none" /><path d="M 112.45986205192187 83.09580414077388 l 8.896232879919646 -12.069448472605918 a35.993816921873254,35.993816921873254 0 0,0 0.4942242631959635,0.37087510085885217 l -9.102110132026375 11.914954344483052" fill="#ff4306" stroke="none" /><path d="M 112.7482090630111 83.31218511350987 l 9.280017965222706 -12.147841409055218 a36.286882753995755,36.286882753995755 0 0,0 0.4917564748559388,0.38239280921042484 l -9.487184384713872 11.986747548224002" fill="#ff4806" stroke="none" /><path d="M 113.31354834802062 83.75963576809568 l 20.940290483937016 -25.543749546797425 a54.0299698222868,54.0299698222868 0 0,0 0.7122324938698756,0.5941696778126891 l -21.375697311968786 25.180517685072864" fill="#acff21" stroke="none" /><path d="M 113.59037401385872 83.9905735841838 l 9.69110477265434 -11.416097054250475 a35.97480496255728,35.97480496255728 0 0,0 0.4673650002530721,0.40369875585066345 l -9.885649252670273 11.248054165935093" fill="#ff4206" stroke="none" /><path d="M 114.65682725009322 84.96080404539774 l 14.354516877819577 -14.728998880559304 a41.56685592936179,41.56685592936179 0 0,0 0.5067357606052569,0.5024047117532094 l -14.605244558554796 14.480414158577435" fill="#ff9d0e" stroke="none" /><path d="M 114.91283532996326 85.21462403516908 l 10.526924955855115 -10.436951778925232 a35.82383592265564,35.82383592265564 0 0,0 0.429226188168945,0.4404238818246739 l -10.704537945174872 10.254705205032815" fill="#ff4006" stroke="none" /><path d="M 115.16444852881244 85.47280134310134 l 10.789656823582932 -10.33624716508081 a35.94171007041466,35.94171007041466 0 0,0 0.4229897128307476,0.44920041677044187 l -10.96550237014994 10.149505288365873" fill="#ff4206" stroke="none" /><path d="M 115.41159269507618 85.73525988315684 l 10.946382142261788 -10.131807890881028 a35.91565664468537,35.91565664468537 0 0,0 0.4149152798940176,0.45606457506238174 l -11.118695122997682 9.942405740260973" fill="#ff4106" stroke="none" /><path d="M 115.6541949942343 86.00192230759917 l 17.269654728019542 -15.442631747770637 a44.16712864647368,44.16712864647368 0 0,0 0.5005375216465877,0.5695198172282849 l -17.53220331362472 15.143899652731054" fill="#ffc512" stroke="none" /><path d="M 116.1254893667686 86.54754324733833 l 12.973458145804376 -10.822920202258203 a37.89515368279871,37.89515368279871 0 0,0 0.4124313290306991,0.5030991610213879 l -13.157336294073703 10.59861875953832" fill="#ff6209" stroke="none" /><path d="M 116.57777611688842 87.10902102172516 l 12.166794354972177 -9.460972880624118 a36.412361685481166,36.412361685481166 0 0,0 0.3794653978441598,0.4967323867809212 l -12.327411730170644 9.250719580602313" fill="#ff4a06" stroke="none" /><path d="M 116.7966241395341 87.39550010848427 l 12.348250282528845 -9.266357218782243 a36.43841511121046,36.43841511121046 0 0,0 0.37114778104067253,0.5035332459769029 l -12.505500083153343 9.053017663536465" fill="#ff4a06" stroke="none" /><path d="M 117.01052211995028 87.68569379921539 l 13.287942273076709 -9.619445468819903 a37.4043634737901,37.4043634737901 0 0,0 0.37205746565581826,0.5233454194778446 l -13.45111483726249 9.389922822632553" fill="#ff5a08" stroke="none" /><path d="M 117.21940702142032 87.97951657250589 l 12.189076840143214 -8.50892228583307 a35.86523974516598,35.86523974516598 0 0,0 0.348081140554464,0.507860786599881 l -12.333347717513002 8.298426764163139" fill="#ff4106" stroke="none" /><path d="M 117.42321728460499 88.27688183743584 l 12.533850059261404 -8.433333687826671 a36.106902872471224,36.106902872471224 0 0,0 0.34159805652491093,0.5172229959474564 l -12.67677255470704 8.216930813540156" fill="#ff4506" stroke="none" /><path d="M 117.81537515405839 88.88188828441811 l 12.622891216510821 -7.877617704100626 a35.879322677992626,35.879322677992626 0 0,0 0.32160180674476174,0.5253123820034894 l -12.756260987710984 7.659768205972581" fill="#ff4106" stroke="none" /><line stroke="#e1ed5e" stroke-width="0.3" x1="172.87174338648825" x2="177.1583165268699" y1="56.24261187166439" y2="53.66864786411523" /><path d="M 173.72905801456457 55.72781907015455 a86.0,86.0 0 0,1 12.242430191666344,42.057860355516425" fill="none" id="id99" stroke="none" /><text fill="#e1ed5e" style="font-size:6.75px; font-family:Arial;" text-anchor="middle"><textPath startOffset="22.145653131862474" xlink:href="#id99">March</textPath></text><path d="M 118.18653347947321 89.5 l 15.377184626079863 -8.878021683245786 a38.75604336649157,38.75604336649157 0 0,0 0.3277038193177872,0.579021248761034 l -15.527321810419025 8.612743664385635" fill="#ff700a" stroke="none" /><path d="M 118.36410011445183 89.81374322990088 l 16.64973429578695 -9.235326949527133 a40.03956186431206,40.03956186431206 0 0,0 0.32823794163359793,0.6039208423959737 l -16.80581758703589 8.948151273656554" fill="#ff850c" stroke="none" /><path d="M 118.70294669586156 90.45014215332178 l 13.195078358632315 -6.737501028573301 a35.81566782161618,35.81566782161618 0 0,0 0.27489392608893787,0.5499719963186791 l -13.30879219793299 6.509997176090872" fill="#ff4006" stroke="none" /><path d="M 118.8641267826498 90.77261029715802 l 13.808869720041955 -6.754610151358566 a36.37236615625349,36.37236615625349 0 0,0 0.26953783861856917,0.56323041639638 l -13.922786816620436 6.516567232897083" fill="#ff4906" stroke="none" /><path d="M 119.0197475246899 91.09779779509293 l 14.171763326075189 -6.633100810882857 a36.64726500502962,36.64726500502962 0 0,0 0.26179328911086974,0.572065582873664 l -14.28354108004111 6.388846245794508" fill="#ff4e07" stroke="none" /><path d="M 119.31412917781788 91.75594674310238 l 14.40263701029942 -6.147629305961174 a36.65979881524534,36.65979881524534 0 0,0 0.24208412572221816,0.5809137741017527 l -14.506046980558121 5.899483022418144" fill="#ff4e07" stroke="none" /><path d="M 119.4528033332814 92.08871423366111 l 18.442744730787915 -7.500503725921945 a40.90960545434224,40.90960545434224 0 0,0 0.25897986455777716,0.6527984368544983 l -18.568783270311815 7.182804271853882" fill="#ff930d" stroke="none" /><path d="M 119.58574465831526 92.42381321644754 l 14.310312185175585 -5.5355361737449895 a36.34363697328714,36.34363697328714 0 0,0 0.22008549817091136,0.5838029316284832 l -14.403228367160937 5.289064961922349" fill="#ff4906" stroke="none" /><path d="M 119.71291397450082 92.76114493625339 l 13.840593996698372 -5.082457827790423 a35.74426735218509,35.74426735218509 0 0,0 0.2065675337030959,0.5778061559924611 l -13.925801700445412 4.844116715417044" fill="#ff3f05" stroke="none" /><path d="M 119.94978838288452 93.4421083053983 l 14.186848171964623 -4.663498780734936 a35.93368279870348,35.93368279870348 0 0,0 0.18759997746694004,0.5876542574564724 l -14.264812865208821 4.4192754895870765" fill="#ff4206" stroke="none" /><path d="M 120.26092885502905 94.47779374421319 l 26.39156390755077 -7.19313810107475 a48.35426623449201,48.35426623449201 0 0,0 0.21140144229976243,0.8027257098139058 l -26.51115483065526 6.739031886888045" fill="#fbff18" stroke="none" /><path d="M 120.35273937422433 94.82641323984039 l 15.315533058596756 -3.8931486125691532 a36.802599754107526,36.802599754107526 0 0,0 0.15038676740623333,0.6136293306276337 l -15.38010735251928 3.6296634573334248" fill="#ff5007" stroke="none" /><path d="M 120.51834098615036 95.52812308129327 l 14.733852125505814 -3.211174494475999 a36.07972281211579,36.07972281211579 0 0,0 0.12669530252322533,0.6062828867894461 l -14.786805138853406 2.9577751564011483" fill="#ff4406" stroke="none" /><path d="M 120.77682067341334 96.94652285012252 l 62.330462020240034 -9.160431449632455 a84.0,84.0 0 0,0 0.19742193377914985,1.4284467671996575 l -62.478528470574396 8.089096374232712" fill="#4dd2ff" stroke="none" /><path d="M 120.86939407059847 97.66154086499901 l 15.075087396766603 -1.689194986430966 a36.16943109422152,36.16943109422152 0 0,0 0.06384353695057271,0.6176283058089029 l -15.101863326198842 1.4301621583391317" fill="#ff4606" stroke="none" /><path d="M 120.93736805541906 98.37931529534042 l 14.9774609397891 -1.1593502008228709 a36.02226444618308,36.02226444618308 0 0,0 0.04243086344109733,0.6169354421391084 l -14.995155764395264 0.9020713345294283" fill="#ff4306" stroke="none" /><path d="M 120.96210409425399 98.7389718711861 l 14.771078907842849 -0.888591427271156 a35.797782496926345,35.797782496926345 0 0,0 0.03163571162487029,0.6137243539742026 l -14.784156208924292 0.6348952799202228" fill="#ff3f05" stroke="none" /><path d="M 120.99303781780057 99.45929381324524 l 26.405754858106278 -0.6801185774838728 a47.41451212696994,47.41451212696994 0 0,0 0.013972759595887264,0.8138431963804008 l -26.41353904930083 0.22672846513440556" fill="#fff617" stroke="none" /><line stroke="#e1ed5e" stroke-width="0.3" x1="184.99686870605535" x2="189.99668451229388" y1="99.2704041080226" y2="99.22748670261217" /><path d="M 185.99683186730306 99.26182062694052 a86.0,86.0 0 0,1 -10.086455211305974,41.156179273409016" fill="none" id="id100" stroke="none" /><text fill="#e1ed5e" style="font-size:6.75px; font-family:Arial;" text-anchor="middle"><textPath startOffset="21.40746469413373" xlink:href="#id100">April</textPath></text><path d="M 120.99922638620191 99.81974689727618 l 15.103107397791762 -0.12964201247965876 a36.10366379792109,36.10366379792109 0 0,0 0.0,0.6197902304069695 l -15.103107397791762 -0.12964201247965693" fill="#ff4506" stroke="none" /><path d="M 120.99922638620191 100.18025310272382 l 14.888209759709655 0.1277973747144403 a35.888758242986476,35.888758242986476 0 0,0 -0.010576192153598883,0.6160101709868999 l -14.883822135957388 -0.3833544616704113" fill="#ff4106" stroke="none" /><path d="M 120.96210409425399 101.26102812881392 l 14.380982749164716 0.865124211059297 a35.406981110986926,35.406981110986926 0 0,0 -0.04170611713281639,0.606397789876638 l -14.364012670866833 -1.1118654250902784" fill="#ff3905" stroke="none" /><path d="M 120.93736805541906 101.62068470465957 l 14.392796579113359 1.1140934816307182 a35.43585112328155,35.43585112328155 0 0,0 -0.05215208499251549,0.6060862805624955 l -14.371550871423102 -1.3610008095688708" fill="#ff3905" stroke="none" /><path d="M 120.9064616781168 101.97986365728391 l 60.10139223956684 5.691664332268888 a81.37029395328042,81.37029395328042 0 0,0 -0.1436286723767457,1.3894771158168997 l -59.99483117470843 -6.722545970368719" fill="#49efff" stroke="none" /><path d="M 120.82617615685814 102.69636545807757 l 14.10812239511584 1.826578898498084 a35.225874594836256,35.225874594836256 0 0,0 -0.0827900033520801,0.5990272224616009 l -14.07468787520855 -2.0684944291597698" fill="#ff3605" stroke="none" /><path d="M 120.77682067341334 103.0534771498775 l 14.217085845890765 2.089422027106623 a35.36980216832458,35.36980216832458 0 0,0 -0.09344113560301513,0.5999591207192296 l -14.179123218149481 -2.333169329757303" fill="#ff3805" stroke="none" /><path d="M 120.65975698304385 103.76489593502545 l 14.415185527891786 2.626926998276894 a35.65258745948363,35.65258745948363 0 0,0 -0.11489251348180236,0.6011661794918366 l -14.367966722127825 -2.873995742802045" fill="#ff3d05" stroke="none" /><path d="M 120.51834098615036 104.47187691870673 l 22.147561932096608 4.82695804093626 a43.66746618978429,43.66746618978429 0 0,0 -0.16591378596393916,0.7310467541050939 l -22.061437284575003 -5.206439128980371" fill="#ffbe11" stroke="none" /><path d="M 120.35273937422433 105.17358676015961 l 14.613298718055452 3.7146433892695794 a36.0780328601766,36.0780328601766 0 0,0 -0.15773061563984836,0.5989288389969618 l -14.547378621610875 -3.9649527326393446" fill="#ff4406" stroke="none" /><path d="M 120.05942366710727 106.21446072829308 l 15.33991008627188 4.752343356853316 a37.059190790209,37.059190790209 0 0,0 -0.19347594834997636,0.6060606525569932 l -15.25606942214465 -5.014973043101693" fill="#ff5407" stroke="none" /><path d="M 119.83427380445688 106.89939002012753 l 19.217276477391227 6.684766321636203 a41.34673968928132,41.34673968928132 0 0,0 -0.23894444275850116,0.6683701329585033 l -19.09969186458878 -7.013671410975627" fill="#ff9a0e" stroke="none" /><path d="M 119.71291397450082 107.23885506374661 l 14.0223661441105 5.149207078126745 a35.93790767855147,35.93790767855147 0 0,0 -0.21762853069624544,0.5772855334966338 l -13.931906929599814 -5.3891608918175375" fill="#ff4206" stroke="none" /><path d="M 119.4528033332814 107.91128576633889 l 15.402263090313186 6.263966312111322 a37.6272963004359,37.6272963004359 0 0,0 -0.24847302556373196,0.5962448079240736 l -15.292464220212969 -6.5274436294766724" fill="#ff5e08" stroke="none" /><path d="M 119.31412917781788 108.2440532568976 l 14.692510852480867 6.271359212224301 a36.97497485190567,36.97497485190567 0 0,0 -0.25418731342333056,0.5816303172699387 l -14.58268965704057 -6.522651599270084" fill="#ff5307" stroke="none" /><path d="M 118.8641267826498 109.22738970284198 l 14.540326394171482 7.112402264436684 a37.18664133229015,37.18664133229015 0 0,0 -0.28541647987155755,0.5710241526632446 l -14.416090001088191 -7.360958273263674" fill="#ff5708" stroke="none" /><path d="M 118.70294669586154 109.54985784667822 l 14.406557706807085 7.356091015883456 a37.17593830334191,37.17593830334191 0 0,0 -0.29509185445010533,0.5658775402275454 l -14.27815778338203 -7.602314799215504" fill="#ff5608" stroke="none" /><path d="M 118.5362547648365 109.86951160357373 l 14.178090598276224 7.5490346594532785 a37.062570694087405,37.062570694087405 0 0,0 -0.30383304286654295,0.5590185774456191 l -14.046412205794343 -7.791308070373501" fill="#ff5407" stroke="none" /><line stroke="#e1ed5e" stroke-width="0.3" x1="174.33088141563837" x2="178.70328620479359" y1="141.23008692659167" y2="143.65538615756765" /><path d="M 175.20536237346943 141.71514677278685 a86.0,86.0 0 0,1 -30.301960400862466,31.631185727798858" fill="none" id="id101" stroke="none" /><text fill="#e1ed5e" style="font-size:6.75px; font-family:Arial;" text-anchor="middle"><textPath startOffset="22.145653131862474" xlink:href="#id101">May</textPath></text><path d="M 118.00360718960297 110.81064883170644 l 13.673485110787418 8.210534937890369 a36.94920308483291,36.94920308483291 0 0,0 -0.33119160516232093,0.5409765970172448 l -13.530525541169691 -8.44404865103217" fill="#ff5307" stroke="none" /><path d="M 117.81537515405839 111.11811171558189 l 13.28202226418003 8.288964226967721 a36.656278082038675,36.656278082038675 0 0,0 -0.3377305380817209,0.5309685014158135 l -13.13777403447242 -8.515746403062206" fill="#ff4e07" stroke="none" /><path d="M 117.62189284568427 111.42229804090321 l 12.554697566602027 8.137803281118648 a35.961426176371965,35.961426176371965 0 0,0 -0.340221739181027,0.5151390760703376 l -12.413151388500273 -8.352122235528046" fill="#ff4206" stroke="none" /><path d="M 117.423217284605 111.72311816256416 l 14.166612135946798 9.531928880876883 a38.074851905666705,38.074851905666705 0 0,0 -0.3695259803624587,0.5391494487665437 l -14.000896418769019 -9.773713064713471" fill="#ff6509" stroke="none" /><path d="M 117.21940702142032 112.02048342749411 l 12.836204750826388 8.960667825976202 a36.65444730077121,36.65444730077121 0 0,0 -0.36459812442192113,0.512852921873473 l -12.680491527874507 -9.17969797455918" fill="#ff4e07" stroke="none" /><path d="M 116.79662413953412 112.60449989151573 l 12.459877338674675 9.350124242762295 a36.577976975522525,36.577976975522525 0 0,0 -0.3811913301653755,0.4989916875925671 l -12.297534031154996 -9.56263684359574" fill="#ff4c07" stroke="none" /><path d="M 116.35404254752997 113.17365903436017 l 12.395110325333343 9.98462347426636 a36.91638985134682,36.91638985134682 0 0,0 -0.4017789677501031,0.4901050123087813 l -12.221884538344613 -10.195930768273636" fill="#ff5207" stroke="none" /><path d="M 115.89218393027572 113.72728997021213 l 11.116144811531562 9.601861131751658 a35.68892142617637,35.68892142617637 0 0,0 -0.40445563993720735,0.4601962733507635 l -10.94967810763577 -9.791269682913715" fill="#ff3e05" stroke="none" /><path d="M 115.6541949942343 113.99807769240083 l 11.388387490988215 10.183566318723775 a36.277447189001904,36.277447189001904 0 0,0 -0.41909486169710214,0.4606586676189416 l -11.211894928449233 -10.377562561900389" fill="#ff4706" stroke="none" /><path d="M 115.41159269507618 114.26474011684316 l 10.54372047819551 9.759110266010877 a35.36698558175925,35.36698558175925 0 0,0 -0.41622591261264785,0.44201749533107393 l -10.374638731846602 -9.938669221286448" fill="#ff3805" stroke="none" /><path d="M 115.16444852881244 114.52719865689866 l 11.52867580732417 11.044210634219178 a36.96511679892701,36.96511679892701 0 0,0 -0.4429005373148601,0.45445496869279217 l -11.337388468858503 -11.240488294979707" fill="#ff5307" stroke="none" /><path d="M 114.65682725009322 115.03919595460226 l 10.85604508406144 11.139258621620051 a36.554317648373754,36.554317648373754 0 0,0 -0.4531473640138519,0.4341049241171936 l -10.663225234182276 -11.323975676042826" fill="#ff4c07" stroke="none" /><path d="M 114.13192950727249 115.5334660781643 l 10.209296332404852 11.221805074793748 a36.17098021683246,36.17098021683246 0 0,0 -0.46287654277821905,0.41390705879068657 l -10.015154762803256 -11.395407663467822" fill="#ff4606" stroke="none" /><path d="M 113.31354834802062 116.24036423190432 l 9.108538430200399 11.110935857212347 a35.367267240415785,35.367267240415785 0 0,0 -0.47282538249460215,0.38087465858498537 l -8.916462277350544 -11.265658809590736" fill="#ff3805" stroke="none" /><path d="M 113.03279911837588 116.46651593811092 l 9.272355144300535 11.715317820879351 a35.9407242651168,35.9407242651168 0 0,0 -0.48706536706949993,0.3787449754217804 l -9.069879832595806 -11.872763847921924" fill="#ff4206" stroke="none" /><path d="M 112.45986205192187 116.90419585922612 l 8.882529399133803 12.050857069090235 a35.97072091203755,35.97072091203755 0 0,0 -0.500196836993009,0.3621039359028126 l -8.674351551766826 -12.201561776366125" fill="#ff4206" stroke="none" /><path d="M 112.16784306229584 117.11559508785304 l 8.825718594667636 12.41447847842023 a36.231959315971835,36.231959315971835 0 0,0 -0.5100164300092357,0.3560310780185092 l -8.611307073484642 -12.564154372243861" fill="#ff4706" stroke="none" /><path d="M 111.5731344415666 117.5232005979908 l 8.384113072442934 12.694615788526782 a36.21336984464067,36.21336984464067 0 0,0 -0.5216697467806926,0.3381400272281722 l -8.164957693405233 -12.836669657458849" fill="#ff4606" stroke="none" /><path d="M 111.27062007382361 117.71928675628689 l 8.50031753201631 13.363911025544093 a36.83822957415894,36.83822957415894 0 0,0 -0.5364977159836851,0.33481425397333225 l -8.26965568724291 -13.507861076358973" fill="#ff5107" stroke="none" /><path d="M 110.96478420261333 117.91015095944535 l 8.142813710605992 13.300674240067185 a36.595298982899294,36.595298982899294 0 0,0 -0.5385908656952919,0.3234083398775272 l -7.913290088353264 -13.438496580480637" fill="#ff4d07" stroke="none" /><line stroke="#e1ed5e" stroke-width="0.3" x1="143.1302829299769" x2="145.66735839644613" y1="173.24464959558577" y2="177.55315839532614" /><path d="M 143.63769802327073 174.10635135553383 a86.0,86.0 0 0,1 -40.68552437913181,11.842963189579606" fill="none" id="id102" stroke="none" /><text fill="#e1ed5e" style="font-size:6.75px; font-family:Arial;" text-anchor="middle"><textPath startOffset="21.407464694133747" xlink:href="#id102">June</textPath></text><path d="M 110.02825361518725 118.45085714620011 l 7.333727886908483 13.493233296924926 a36.357438247457246,36.357438247457246 0 0,0 -0.5509211180805055,0.2933344646224896 l -7.101017953041424 -13.617138229269985" fill="#ff4906" stroke="none" /><path d="M 109.71004243097381 118.62028667847754 l 7.23776382834071 13.879366475775875 a36.65317983681681,36.65317983681681 0 0,0 -0.5603970611065943,0.2861427323881736 l -6.998439545520534 -14.001567159836885" fill="#ff4e07" stroke="none" /><path d="M 109.3889696526874 118.78422872680471 l 7.073177716825375 14.151093567562722 a36.8203442494691,36.8203442494691 0 0,0 -0.5678043382777557,0.2777415548898887 l -6.8292131292855505 -14.270428872549834" fill="#ff5007" stroke="none" /><path d="M 108.73861861582097 119.09545874513695 l 6.513205880403983 14.232530295196229 a36.65205320219068,36.65205320219068 0 0,0 -0.5743666412696882,0.25690689299119424 l -6.267925836278668 -14.342240939097273" fill="#ff4e07" stroke="none" /><path d="M 108.07796709384702 119.3841803445677 l 5.7587680244422135 13.818946852772566 a35.97086174136582,35.97086174136582 0 0,0 -0.572014705031646,0.2326334007762811 l -5.520698858220127 -13.91576751012814" fill="#ff4206" stroke="none" /><path d="M 107.74402155503746 119.51999308798841 l 5.506365450714656 13.879637959939569 a35.931992846764274,35.931992846764274 0 0,0 -0.5753015551888685,0.22253900043206132 l -5.267291633032259 -13.97211684850967" fill="#ff4206" stroke="none" /><path d="M 107.06938296918513 119.77432235084164 l 5.457844942066399 15.266563672638602 a37.21283558734771,37.21283558734771 0 0,0 -0.6033693201585475,0.2098831702634667 l -5.19496984986283 -15.35800527547066" fill="#ff5708" stroke="none" /><path d="M 106.72888874123015 119.89276391827305 l 5.375289327296311 15.89108776983136 a37.77558958310048,37.77558958310048 0 0,0 -0.6160609763887154,0.20251147946480635 l -5.1017056132598615 -15.981020170698185" fill="#ff6008" stroke="none" /><path d="M 106.38641147887787 120.00534299687104 l 4.528748782381835 14.186241058512152 a35.89157482955181,35.89157482955181 0 0,0 -0.5885523806450095,0.18233503199094017 l -4.284555768865202 -14.261892678309737" fill="#ff4106" stroke="none" /><path d="M 105.3480935250658 120.30758222061773 l 4.4599047235653275 16.934984671721846 a38.51240862859059,38.51240862859059 0 0,0 -0.6407634152366708,0.16287955446731525 l -4.168536015103259 -17.009049458024432" fill="#ff6c0a" stroke="none" /><path d="M 104.9986988182912 120.39639698878246 l 3.605331775607714 14.710983966964626 a36.146335084385825,36.146335084385825 0 0,0 -0.6039327019645285,0.1425264732401379 l -3.3522669199033066 -14.77070658385099" fill="#ff4506" stroke="none" /><path d="M 103.94208987418118 120.62667999033965 l 3.7233120373502913 19.48194190132621 a40.834543422376214,40.834543422376214 0 0,0 -0.6896473439627613,0.1256767194317714 l -3.3883299598364727 -19.542986794689345" fill="#ff920d" stroke="none" /><path d="M 103.2317021107853 120.74984581791261 l 3.284568090547743 21.08928333148249 a42.34352967475131,42.34352967475131 0 0,0 -0.7191844749971313,0.1056953513470184 l -2.922058509942926 -21.142559756128392" fill="#ffa90f" stroke="none" /><path d="M 102.875027216393 120.80226474461374 l 2.336956570057749 16.909053587324596 a38.06978204984911,38.06978204984911 0 0,0 -0.6481329237431198,0.08391378305173244 l -2.0463458244238533 -16.946678966576723" fill="#ff6509" stroke="none" /><path d="M 102.15924093988457 120.88869738790638 l 1.7721462603341849 17.143907507241753 a38.235256510562195,38.235256510562195 0 0,0 -0.6534595359869861,0.061883297457285935 l -1.4775871609621836 -17.17180256020422" fill="#ff6809" stroke="none" /><path d="M 101.80034050326958 120.92268563240118 l 1.4974599259228303 17.40275421249616 a38.46706158488879,38.46706158488879 0 0,0 -0.6583930768333089,0.050963788115733176 l -1.1984978543142857 -17.425895767606946" fill="#ff6c09" stroke="none" /><path d="M 101.44090949804482 120.95050786540614 l 1.2105282488044997 17.600815063186 a38.642394098580525,38.642394098580525 0 0,0 -0.6621754173093952,0.03983482877871772 l -0.9082084793626393 -17.61900186978941" fill="#ff6e0a" stroke="none" /><path d="M 100.72087961077811 120.9876233191556 l 0.6809496322926503 19.82510556297956 a40.83679669162848,40.83679669162848 0 0,0 -0.7008113249363238,0.01805041378144946 l -0.34052499328558267 -19.833873694111052" fill="#ff920d" stroke="none" /><line stroke="#e1ed5e" stroke-width="0.3" x1="101.45913802915013" x2="101.54496967792366" y1="184.9874750549273" y2="189.98673829345242" /><path d="M 101.47630435890484 185.9873277026323 a86.0,86.0 0 0,1 -42.54439059252881,-10.42667462771756" fill="none" id="id103" stroke="none" /><text fill="#e1ed5e" style="font-size:6.75px; font-family:Arial;" text-anchor="middle"><textPath startOffset="22.145653131862474" xlink:href="#id103">July</textPath></text><path d="M 100.36049292484886 120.99690560180557 l 0.30475049254625086 17.750188375486804 a38.75280429194143,38.75280429194143 0 0,0 -0.665243417395101,0.0057103146490606205 l -2.1740914952015468e-15 -17.75280429194143" fill="#ff700a" stroke="none" /><path d="M 100.0 121.0 l 1.894903233162957e-15 15.473059125964014 a36.473059125964014,36.473059125964014 0 0,0 -0.6261085601192327,-0.005374388966900037 l 0.2656156352703787 -15.470779135191549" fill="#ff4b06" stroke="none" /><path d="M 99.27912038922189 120.98762331915562 l -0.5952949215934179 17.331362118458724 a38.34158265340338,38.34158265340338 0 0,0 -0.6576023985499827,-0.028240276482712105 l 0.8927230807442395 -17.318589273550185" fill="#ff6909" stroke="none" /><path d="M 98.91894614982273 120.97215588758144 l -0.8685307702622348 16.849264913226992 a37.8716351849782,37.8716351849782 0 0,0 -0.6489677054901891,-0.03904028563331393 l 1.1576428278848703 -16.831872649768986" fill="#ff6209" stroke="none" /><path d="M 97.84075906011543 120.88869738790638 l -1.7772143345196785 17.192936527600093 a38.28454677545546,38.28454677545546 0 0,0 -0.6531418396728846,-0.07318590545885527 l 2.0720920757933623 -17.159894861634267" fill="#ff6909" stroke="none" /><path d="M 97.48249496171623 120.84855314841334 l -2.1503437971688752 17.80793136890751 a38.93729071197049,38.93729071197049 0 0,0 -0.6629021421435736,-0.08582595406372479 l 2.455723761203243 -17.76839381864339" fill="#ff730a" stroke="none" /><path d="M 96.76829788921471 120.74984581791261 l -2.7522095526065438 17.67115962965258 a38.88419805521404,38.88419805521404 0 0,0 -0.6586659059038071,-0.10838322416469658 l 3.0551529615634143 -17.62131040699221" fill="#ff720a" stroke="none" /><path d="M 96.41257539226777 120.69131181640829 l -3.2020501203081078 18.46857418223076 a39.74410193360903,39.74410193360903 0 0,0 -0.6712310715265424,-0.12232066111557528 l 3.518615925385707 -18.41088534718382" fill="#ff800b" stroke="none" /><path d="M 95.35216902796893 120.47920084513623 l -6.904296544845705 30.421604504796946 a52.19524533363138,52.19524533363138 0 0,0 -0.8720777769156861,-0.20580798080742513 l 7.425506475501279 -30.298600380343295" fill="#c5ff1e" stroke="none" /><path d="M 95.00130118170881 120.39639698878247 l -4.175139862206431 17.035995407773775 a38.54015200625908,38.54015200625908 0 0,0 -0.6412250052036297,-0.16299688883188682 l 4.46697016063544 -16.961813287106626" fill="#ff6d0a" stroke="none" /><path d="M 94.30408787586889 120.21278271476187 l -5.11742085007775 18.159921264303637 a39.86718676651392,39.86718676651392 0 0,0 -0.6571251206543475,-0.19127954557836035 l 5.428405983113704 -18.069398024422764" fill="#ff820c" stroke="none" /><path d="M 93.95794788825049 120.11202640906438 l -5.260860087402844 17.51169222895066 a39.28485749413211,39.28485749413211 0 0,0 -0.6441956506860663,-0.1995734592858833 l 5.560696370960544 -17.41880218185813" fill="#ff790b" stroke="none" /><path d="M 92.93061703081489 119.77432235084164 l -6.371262635152048 17.821555527340745 a39.92619425505757,39.92619425505757 0 0,0 -0.6434027270988799,-0.2362663934470925 l 6.676254513905047 -17.70955828488493" fill="#ff830c" stroke="none" /><path d="M 92.59220618246901 119.65005319985036 l -6.087621794933829 16.148140064039776 a38.25750754442831,38.25750754442831 0 0,0 -0.6125350097285669,-0.23694170051371916 l 6.363929067155925 -16.041258475388016" fill="#ff6809" stroke="none" /><path d="M 91.92203290615298 119.3841803445677 l -7.015507212618068 16.834663404557247 a39.23796132781938,39.23796132781938 0 0,0 -0.6195205570535219,-0.26443648683668564 l 7.303462844842022 -16.711752268061158" fill="#ff780b" stroke="none" /><path d="M 91.59046798132341 119.24265499422711 l -6.981274470486155 15.974522215650168 a38.43340337543311,38.43340337543311 0 0,0 -0.602281806357049,-0.26939299126820354 l 7.254469679698839 -15.85232547347211" fill="#ff6b09" stroke="none" /><path d="M 91.26138138417905 119.09545874513695 l -8.823494658932034 19.280928217021653 a42.20396781043925,42.20396781043925 0 0,0 -0.6561938956910839,-0.30713187635559613 l 9.153177268494607 -19.126620109095533" fill="#ffa70f" stroke="none" /><path d="M 90.6110303473126 118.78422872680471 l -8.183924203757698 16.37333060100115 a39.30471442941768,39.30471442941768 0 0,0 -0.6009368505527326,-0.30684263773680776 l 8.463788276024012 -16.230430011591505" fill="#ff790b" stroke="none" /><path d="M 90.28995756902619 118.62028667847754 l -8.42289474760118 16.15201127882689 a39.216273611266345,39.216273611266345 0 0,0 -0.5942408031561556,-0.31639975693430733 l 8.698924366543897 -16.00504105417001" fill="#ff780b" stroke="none" /><path d="M 89.97174638481275 118.45085714620012 l -7.9079174210526775 14.549677367435201 a37.55983905219627,37.55983905219627 0 0,0 -0.5638551215774408,-0.3127609310408448 l 8.15651673078622 -14.411783520961208" fill="#ff5d08" stroke="none" /><line stroke="#e1ed5e" stroke-width="0.3" x1="58.13341422392154" x2="55.67067388415222" y1="173.97424548756322" y2="178.32567169271397" /><path d="M 57.64086615596768 174.84453072859336 a86.0,86.0 0 0,1 -31.369924170532247,-30.572349798747897" fill="none" id="id104" stroke="none" /><text fill="#e1ed5e" style="font-size:6.75px; font-family:Arial;" text-anchor="middle"><textPath startOffset="22.145653131862474" xlink:href="#id104">August</textPath></text><path d="M 89.65649057296885 118.27599006163327 l -8.726976247012246 15.419730825757489 a38.71801944785962,38.71801944785962 0 0,0 -0.5756217762452048,-0.33233538746658203 l 8.99039049111785 -15.267648541014735" fill="#ff700a" stroke="none" /><path d="M 89.03521579738668 117.91015095944536 l -10.97333837649666 17.92412355961266 a42.01638314518833,42.01638314518833 0 0,0 -0.6119103402054242,-0.38187730898126654 l 11.279412845491796 -17.73311045378985" fill="#ffa40f" stroke="none" /><path d="M 88.4268655584334 117.5232005979908 l -10.810551935846116 16.3685534894025 a40.61625796356321,40.61625796356321 0 0,0 -0.5784987390719671,-0.38923976922605447 l 11.089946963015088 -16.180564046119326" fill="#ff8e0d" stroke="none" /><path d="M 88.1277618465304 117.32195027204791 l -10.639632585037953 15.523541910842454 a39.819727282888124,39.819727282888124 0 0,0 -0.5605193739496985,-0.39128605514523374 l 10.904547050161417 -15.338611039892092" fill="#ff810b" stroke="none" /><path d="M 87.83215693770417 117.11559508785305 l -11.144367933765439 15.675949146273217 a40.23362467866323,40.23362467866323 0 0,0 -0.5594753536979424,-0.40501701056833367 l 11.411824297837336 -15.482331364331817" fill="#ff880c" stroke="none" /><path d="M 87.54013794807813 116.9041958592261 l -8.884701902185219 12.05380448672077 a35.97438247457248,35.97438247457248 0 0,0 -0.4939574124916135,-0.3706748511154461 l 9.090312303587599 -11.899510608341307" fill="#ff4206" stroke="none" /><path d="M 86.96720088162412 116.46651593811092 l -11.485498360633482 14.511551977031207 a39.50680451548005,39.50680451548005 0 0,0 -0.5281669015926803,-0.42545386894980974 l 11.732916032581423 -14.312249814287986" fill="#ff7c0b" stroke="none" /><path d="M 86.40962598614128 116.0094264158162 l -11.364238244073265 13.3870440765477 a38.56014977087292,38.56014977087292 0 0,0 -0.5009523867100707,-0.4327107403116808 l 11.592370110546197 -13.189989203771296" fill="#ff6d0a" stroke="none" /><path d="M 86.13680546590413 115.77377054828092 l -10.155630588941742 11.555243366821703 a36.383773331843074,36.383773331843074 0 0,0 -0.46559963573320956,-0.41634206530246076 l 10.352495251498322 -11.37920577163586" fill="#ff4906" stroke="none" /><path d="M 85.86807049272751 115.53346607816431 l -20.8867612024151 22.958209383472365 a52.03765731530122,52.03765731530122 0 0,0 -0.6556007093426023,-0.6068142290172357 l 21.277791683071673 -22.596277408322752" fill="#c7ff1e" stroke="none" /><path d="M 85.34317274990678 115.03919595460226 l -11.105999113548329 11.395733475621757 a36.91244663015536,36.91244663015536 0 0,0 -0.4499945040519671,-0.44614842029053275 l 11.299985537730258 -11.203405045102565" fill="#ff5207" stroke="none" /><path d="M 84.83555147118756 114.52719865689866 l -11.135217096976731 10.667286090102444 a36.42024812786409,36.42024812786409 0 0,0 -0.4286215170799888,-0.45518119771898213 l 11.316694447792974 -10.474563432438972" fill="#ff4a06" stroke="none" /><path d="M 84.58840730492382 114.26474011684316 l -13.555104694288731 12.546402539070835 a39.47032971945903,39.47032971945903 0 0,0 -0.4559806065938019,-0.501202562691854 l 13.768483001724412 -12.311862400821306" fill="#ff7c0b" stroke="none" /><path d="M 84.3458050057657 113.99807769240083 l -12.595756865943093 11.263203458817445 a37.89712529339443,37.89712529339443 0 0,0 -0.4294807870287073,-0.48867029693800196 l 12.787248716930394 -11.045320884068143" fill="#ff6209" stroke="none" /><path d="M 84.1078160697243 113.72728997021213 l -13.408583906246411 11.582015422078669 a38.71816027718788,38.71816027718788 0 0,0 -0.4301503468414718,-0.5067160269815905 l 13.605428816594996 -11.350132612647524" fill="#ff700a" stroke="none" /><path d="M 83.8745106332314 113.45245675266167 l -13.04764224576371 10.884807216893226 a37.99176260198949,37.99176260198949 0 0,0 -0.4134827707340745,-0.5043817489374814 l 13.232571835736415 -10.659223186257249" fill="#ff6409" stroke="none" /><path d="M 83.64595745247003 113.17365903436017 l -14.191221791529149 11.43144373137411 a39.222751760366606,39.222751760366606 0 0,0 -0.417878392924133,-0.5279756984495712 l 14.385366615094844 -11.186148089009858" fill="#ff780b" stroke="none" /><path d="M 83.4222238831116 112.89097897827486 l -15.0444013093225 11.698617453376997 a40.057588018330165,40.057588018330165 0 0,0 -0.4174535204651351,-0.5464600587268896 l 15.24300680714193 -11.438636481409237" fill="#ff850c" stroke="none" /><path d="M 82.98947788004972 112.3143062007846 l -16.13423401834247 11.679941192631972 a40.91819604336649,40.91819604336649 0 0,0 -0.40700920708811256,-0.5725094209288639 l 16.332358323960545 -11.401254544993604" fill="#ff930d" stroke="none" /><path d="M 82.78059297857968 112.02048342749411 l -17.55952254716364 12.257910479165819 a42.41478931485415,42.41478931485415 0 0,0 -0.4116461606277602,-0.6006040505504558 l 17.767358444606725 -11.954671693545313" fill="#ffaa0f" stroke="none" /><path d="M 82.576782715395 111.72311816256416 l -15.496283842879654 10.426591346664168 a39.677489661338996,39.677489661338996 0 0,0 -0.37537845336588527,-0.5683708222440307 l 15.672986735166266 -10.159040646081076" fill="#ff7f0b" stroke="none" /><path d="M 82.37810715431573 111.42229804090323 l -14.99702455514628 9.720890127735489 a38.87194590365486,38.87194590365486 0 0,0 -0.3581444678301274,-0.5630625896439154 l 15.161686714602299 -9.462013863412903" fill="#ff720a" stroke="none" /><path d="M 82.18462484594161 111.11811171558189 l -15.323691735562862 9.56311697833184 a39.062910472784175,39.062910472784175 0 0,0 -0.3501376739327836,-0.5719235765014508 l 15.48559737395105 -9.298656285705832" fill="#ff750a" stroke="none" /><path d="M 81.99639281039703 110.81064883170644 l -16.64537819878614 9.995071347809589 a40.41571700011177,40.41571700011177 0 0,0 -0.3520522458702679,-0.5978616794601369 l 16.814504154786178 -9.707858500055893" fill="#ff8b0c" stroke="none" /><line stroke="#e1ed5e" stroke-width="0.3" x1="26.387840678322732" x2="22.057713659400548" y1="142.50000000000003" y2="145.00000000000006" /><path d="M 25.521815274538298 143.00000000000003 a86.0,86.0 0 0,1 -11.493303480769221,-40.785679425670985" fill="none" id="id105" stroke="none" /><text fill="#e1ed5e" style="font-size:6.75px; font-family:Arial;" text-anchor="middle"><textPath startOffset="21.40746469413373" xlink:href="#id105">September</textPath></text><path d="M 81.63589988554817 110.18625677009913 l -15.749981649517679 8.736249323759772 a39.01066279199732,39.01066279199732 0 0,0 -0.31980319115383654,-0.5884018515389488 l 15.897630190286844 -8.464592638746236" fill="#ff740a" stroke="none" /><path d="M 81.4637452351635 109.86951160357371 l -15.869163873033148 8.449435928180339 a38.978412875824304,38.978412875824304 0 0,0 -0.3093993766934693,-0.593314100646717 l 16.011871318701566 -8.175775584429118" fill="#ff740a" stroke="none" /><path d="M 81.29705330413844 109.54985784667822 l -16.28943667717663 8.317502434197968 a39.29006817927797,39.29006817927797 0 0,0 -0.3015607904310854,-0.603323588427208 l 16.429817380819454 -8.036646989607007" fill="#ff790b" stroke="none" /><path d="M 81.1358732173502 109.22738970284198 l -13.54890025180671 6.627446057208527 a36.08296188666592,36.08296188666592 0 0,0 -0.26739320494319835,-0.5587489568573848 l 13.66067271470982 -6.3938845982860375" fill="#ff4406" stroke="none" /><path d="M 80.9802524753101 108.90220220490708 l -14.212324048414644 6.6520852769686565 a36.69204873141835,36.69204873141835 0 0,0 -0.262113206000385,-0.5727646590130707 l 14.324421719270084 -6.407131635740897" fill="#ff4e07" stroke="none" /><path d="M 80.68587082218212 108.24405325689762 l -14.396549400566382 6.1450308673577965 a36.65317983681681,36.65317983681681 0 0,0 -0.24204041709156612,-0.5808088892997598 l 14.499915662194434 -5.896989468616756" fill="#ff4e07" stroke="none" /><path d="M 80.5471966667186 107.91128576633889 l -16.63883259604365 6.766868364950003 a38.96221750307366,38.96221750307366 0 0,0 -0.24665184862460338,-0.6217237834468479 l 16.752543119634378 -6.48024356428959" fill="#ff740a" stroke="none" /><path d="M 80.41425534168474 107.57618678355246 l -16.016353790407653 6.1954697165966515 a38.172869118140156,38.172869118140156 0 0,0 -0.23116274583785326,-0.6131866471212397 l 16.120347220059944 -5.919614789281267" fill="#ff6709" stroke="none" /><path d="M 80.16572619554312 106.89939002012753 l -16.883318709781047 5.8728946550450924 a38.875607466189784,38.875607466189784 0 0,0 -0.21384282893214487,-0.6321883263573139 l 16.98164696028556 -5.5822046542136174" fill="#ff720a" stroke="none" /><path d="M 80.05021161711548 106.5578916946017 l -16.983653756926287 5.582864328129471 a38.87771990611378,38.87771990611378 0 0,0 -0.20296999389709816,-0.6358006150110511 l 17.076988466600643 -5.290494679427028" fill="#ff720a" stroke="none" /><path d="M 79.94057633289273 106.21446072829308 l -16.977711470961935 5.259738412404695 a38.77378786185314,38.77378786185314 0 0,0 -0.19151237925857156,-0.637482424526111 l 17.065500170224137 -4.96751838428786" fill="#ff710a" stroke="none" /><path d="M 79.83685265289637 105.86919833188381 l -17.89478763650191 5.208911879556287 a39.63749413211133,39.63749413211133 0 0,0 -0.18456256888681088,-0.654947446675435 l 17.981568697463295 -4.900956508977857" fill="#ff7e0b" stroke="none" /><path d="M 79.64726062577567 105.17358676015961 l -18.293579915014774 4.650156477908965 a39.87535486755337,39.87535486755337 0 0,0 -0.162942992010729,-0.6648630118361369 l 18.3707104335418 -4.335437641464728" fill="#ff820c" stroke="none" /><path d="M 79.56144815229197 104.8234425847677 l -17.775166623695206 4.194890923922655 a39.26345143623561,39.26345143623561 0 0,0 -0.14918080773188785,-0.6573181645729937 l 17.84455829298476 -3.8891384254106343" fill="#ff780b" stroke="none" /><path d="M 79.48165901384964 104.47187691870673 l -16.828112658483636 3.6676088302492174 a38.22314518833129,38.22314518833129 0 0,0 -0.13422201074667325,-0.642300910337685 l 16.888592380054675 -3.3781914686261234" fill="#ff6809" stroke="none" /><path d="M 79.407916724674 104.11899336999214 l -16.65300440150741 3.331067274890525 a37.98289035430871,37.98289035430871 0 0,0 -0.12240204857696996,-0.6404592403372178 l 16.707732742366534 -3.0447054695199927" fill="#ff6409" stroke="none" /><path d="M 79.2786578344484 103.40968896794605 l -31.224447868108506 5.137971014401319 a52.64435006147312,52.64435006147312 0 0,0 -0.13907761851243966,-0.8929780784016439 l 31.30804697875921 -4.601204754068225" fill="#beff1e" stroke="none" /><path d="M 79.22317932658666 103.0534771498775 l -18.37449352614095 2.700417787907197 a39.57186766513915,39.57186766513915 0 0,0 -0.09300422187743312,-0.6729322195038177 l 18.418142264573593 -2.384597260203294" fill="#ff7d0b" stroke="none" /><path d="M 79.17382384314188 102.69636545807758 l -24.431639527024746 3.163164875237025 a45.63555605230804,45.63555605230804 0 0,0 -0.09391778690290664,-0.7777740032494135 l 24.482339400187314 -2.743297195064212" fill="#ffdb14" stroke="none" /><path d="M 79.0935383218832 101.97986365728391 l -21.44460386258872 2.0308262816577236 a42.540549904996084,42.540549904996084 0 0,0 -0.06260829933378076,-0.7276033409018988 l 21.47630578462024 -1.6624018933801625" fill="#ffac0f" stroke="none" /><path d="M 79.06263194458094 101.62068470465958 l -15.393072493007208 1.1915211635531187 a36.43911925785179,36.43911925785179 0 0,0 -0.042921879479667156,-0.6240747075766906 l 15.411258333651942 -0.9271030318220846" fill="#ff4a06" stroke="none" /><path d="M 79.01933749520258 100.90099992219065 l -17.39905916623955 0.7471904641422904 a38.41509556275847,38.41509556275847 0 0,0 -0.022638039601672686,-0.6590818227348834 l 17.40932189283807 -0.4484023768432871" fill="#ff6b09" stroke="none" /><path d="M 79.00696218219943 100.54070618675478 l -21.768656302326356 0.5606833676079775 a42.77587571252934,42.77587571252934 0 0,0 -0.01260578251304516,-0.7342236344145576 l 21.775073516438066 -0.18691281722436756" fill="#ffb010" stroke="none" /><line stroke="#e1ed5e" stroke-width="0.3" x1="15.003131293944662" x2="10.003315487706104" y1="100.72959589197737" y2="100.7725132973878" /><path d="M 14.003168132696942 100.73817937305945 a86.0,86.0 0 0,1 10.791469493833604,-42.45332614584628" fill="none" id="id106" stroke="none" /><text fill="#e1ed5e" style="font-size:6.75px; font-family:Arial;" text-anchor="middle"><textPath startOffset="22.145653131862435" xlink:href="#id106">October</textPath></text><path d="M 79.00077361379809 100.18025310272382 l -21.424421407116665 0.183902890595672 a42.425210685145856,42.425210685145856 0 0,0 0.0,-0.7283119866389712 l 21.424421407116665 0.18390289059566411" fill="#ffaa0f" stroke="none" /><path d="M 79.00077361379809 99.81974689727619 l -61.85953845678423 -0.5309897390898684 a82.8618173689505,82.8618173689505 0 0,0 0.024418858316504453,-1.4222760770974927 l 61.841308166869055 1.5928127321564136" fill="#4bdeff" stroke="none" /><path d="M 79.01933749520258 99.09900007780938 l -21.19513566816937 -0.910210322647039 a42.21467083938751,42.21467083938751 0 0,0 0.037306532971100086,-0.7237367731189094 l 21.1763875457417 1.2739188891426605" fill="#ffa70f" stroke="none" /><path d="M 79.03789590574601 98.7389718711861 l -30.962388983658744 -1.8626204348624649 a52.01836369732871,52.01836369732871 0 0,0 0.06127277450223623,-0.8908926937369624 l 30.925852247991443 2.393856552753752" fill="#c7ff1e" stroke="none" /><path d="M 79.06263194458094 98.37931529534042 l -30.059667223733836 -2.326808353739256 a51.14958757125293,51.14958757125293 0 0,0 0.07527849773009389,-0.8748502519527871 l 30.015295103306 2.8424796530677234" fill="#d3ff1c" stroke="none" /><path d="M 79.0935383218832 98.0201363427161 l -21.607378437362133 -2.0462412031248447 a42.70405275511345,42.70405275511345 0 0,0 0.07537795556994628,-0.7292133427702668 l 21.569068089310523 2.416859068178024" fill="#ffaf10" stroke="none" /><path d="M 79.13060592940154 97.66154086499901 l -18.50646643212773 -2.0736881645149405 a39.62228456465854,39.62228456465854 0 0,0 0.0815424988814423,-0.6752888657347726 l 18.46814184698662 2.3910707071731494" fill="#ff7e0b" stroke="none" /><path d="M 79.17382384314186 97.30363454192245 l -19.021489180842472 -2.462712597940356 a40.18025036325025,40.18025036325025 0 0,0 0.09443408007671432,-0.6832779611507224 l 18.97641058421055 2.7888788672911455" fill="#ff870c" stroke="none" /><path d="M 79.2786578344484 96.59031103205396 l -19.08999098699218 -3.141250752316015 a40.34671062926121,40.34671062926121 0 0,0 0.11832188274719338,-0.6824491768690648 l 19.033254286752754 3.468492962105673" fill="#ff8a0c" stroke="none" /><path d="M 79.34024301695615 96.23510406497455 l -19.435042340295794 -3.54171212972548 a40.75511568123393,40.75511568123393 0 0,0 0.1313357041246959,-0.6872039011664512 l 19.371380343888937 3.874818595925246" fill="#ff900d" stroke="none" /><path d="M 79.407916724674 95.88100663000787 l -21.08981926829818 -4.2185545084960445 a42.50759584218174,42.50759584218174 0 0,0 0.14926702022643376,-0.7142967270530801 l 21.014294537247377 4.579967686834534" fill="#ffac0f" stroke="none" /><path d="M 79.48165901384962 95.52812308129327 l -17.91542190497448 -3.9045828198208246 a39.335978540292835,39.335978540292835 0 0,0 0.14945637321506056,-0.6585323569370919 l 17.84575467020176 4.2115495106969245" fill="#ff7a0b" stroke="none" /><path d="M 79.56144815229197 95.17655741523228 l -19.189257644681923 -4.5286125545053055 a40.716387615960656,40.716387615960656 0 0,0 0.1663797110784166,-0.6788859984155616 l 19.10869040708721 4.857354377528985" fill="#ff900d" stroke="none" /><path d="M 79.64726062577567 94.8264132398404 l -19.06542349047854 -4.846356096521022 a40.671744718900186,40.671744718900186 0 0,0 0.1778139999628517,-0.6751887204848498 l 18.979420009710964 5.172925321378657" fill="#ff8f0d" stroke="none" /><path d="M 79.73907114497095 94.47779374421319 l -20.176053521007994 -5.499073106075526 a41.91202861294289,41.91202861294289 0 0,0 0.19515339799937234,-0.6925305629448271 l 20.07868163093404 5.844611592923366" fill="#ffa20f" stroke="none" /><path d="M 79.94057633289273 93.78553927170692 l -23.682944326803856 -7.337036691169201 a45.79342572929473,45.79342572929473 0 0,0 0.2390750116840139,-0.7488990689901512 l 23.553504599342585 7.7425047938507445" fill="#ffde14" stroke="none" /><path d="M 80.05021161711548 93.44210830539832 l -17.6069647935365 -5.787759046393571 a39.53384374650721,39.53384374650721 0 0,0 0.21746358542865596,-0.642892449572969 l 17.50501578653548 6.089153170440701" fill="#ff7d0b" stroke="none" /><path d="M 80.16572619554312 93.10060997987247 l -18.63481787681193 -6.482156985111294 a40.7300480608025,40.7300480608025 0 0,0 0.23538055746481007,-0.6584013115032137 l 18.520797149303174 6.801093252995429" fill="#ff900d" stroke="none" /><path d="M 80.28708602549916 92.7611449362534 l -26.21643498006846 -9.627038060143395 a48.92814574717782,48.92814574717782 0 0,0 0.2962932779474389,-0.7859531215146204 l 26.047311018306587 10.07565946185216" fill="#f2ff19" stroke="none" /><path d="M 80.41425534168474 92.42381321644754 l -16.27628575874658 -6.296016985924803 a38.45157035877948,38.45157035877948 0 0,0 0.2434191768156747,-0.6135753387508264 l 16.165807906964776 6.574493341889212" fill="#ff6b09" stroke="none" /><path d="M 80.5471966667186 92.08871423366112 l -18.543585349833133 -7.541514727804437 a41.01846652509221,41.01846652509221 0 0,0 0.270866723989328,-0.6499815320058313 l 18.411392781307327 7.858728769251533" fill="#ff940d" stroke="none" /><path d="M 80.83023694016515 91.42560881287825 l -19.536446110025995 -8.738403851452134 a42.40169218732536,42.40169218732536 0 0,0 0.30290059735872366,-0.6618924700832068 l 19.383561047812226 9.072485303750012" fill="#ffaa0f" stroke="none" /><path d="M 81.1358732173502 90.77261029715801 l -18.396223908434354 -8.998514960151171 a41.47911925785179,41.47911925785179 0 0,0 0.3183622877086178,-0.636937837859099 l 18.23904170751399 9.312984654174041" fill="#ff9c0e" stroke="none" /><path d="M 81.29705330413844 90.45014215332179 l -16.151343835025234 -8.246991245044999 a39.1350150888566,39.1350150888566 0 0,0 0.31064243980268424,-0.5956978380626484 l 16.00739332624761 8.523035326212135" fill="#ff760a" stroke="none" /><path d="M 81.46374523516351 90.13048839642627 l -17.773175145412708 -9.463214686861054 a41.135495696881634,41.135495696881634 0 0,0 0.3372222323855194,-0.6204509254577544 l 17.60810756341184 9.766920445793428" fill="#ff960d" stroke="none" /><path d="M 81.63589988554816 89.8137432299009 l -26.71043685966254 -14.815829068581818 a51.54433217838382,51.54433217838382 0 0,0 0.43583588653030403,-0.7700802505109887 l 26.452167608110866 15.272166089191913" fill="#cdff1d" stroke="none" /><line stroke="#e1ed5e" stroke-width="0.3" x1="26.387840678322718" x2="22.05771365940052" y1="57.49999999999999" y2="54.99999999999999" /><path d="M 25.521815274538284 56.99999999999999 a86.0,86.0 0 0,1 29.574782752854787,-30.34633250058573" fill="none" id="id107" stroke="none" /><text fill="#e1ed5e" style="font-size:6.75px; font-family:Arial;" text-anchor="middle"><textPath startOffset="21.40746469413373" xlink:href="#id107">November</textPath></text><path d="M 83.42222388311158 87.10902102172516 l -16.56736289438065 -12.882881593469001 a41.98680898625237,41.98680898625237 0 0,0 0.44732660192691415,-0.5651825485274913 l 16.343769861812174 13.165384085911176" fill="#ffa40f" stroke="none" /><path d="M 83.8745106332314 86.54754324733833 l -13.167569602695062 -10.984854883409607 a38.14794232703699,38.14794232703699 0 0,0 0.4238153493292756,-0.4992534158413487 l 12.977059689858672 11.209275081700513" fill="#ff6609" stroke="none" /><path d="M 84.10781606972428 86.27271002978789 l -13.406239245154667 -11.579990159671084 a38.71506203196603,38.71506203196603 0 0,0 0.43875030579831836,-0.4992173077157285 l 13.205477875397758 11.808419745198112" fill="#ff700a" stroke="none" /><path d="M 84.58840730492382 85.73525988315684 l -12.087394660560486 -11.187912043490499 a37.47041242874707,37.47041242874707 0 0,0 0.4409806590124162,-0.46830617815838094 l 11.893558167811797 11.39375968159339" fill="#ff5b08" stroke="none" /><line stroke="#e1ed5e" stroke-width="0.3" x1="56.869717070023135" x2="54.33264160355391" y1="26.7553504044142" y2="22.446841604673864" /><path d="M 56.362301976729285 25.89364864446614 a86.0,86.0 0 0,1 42.16139366436587,-11.88097634709845" fill="none" id="id108" stroke="none" /><text fill="#e1ed5e" style="font-size:6.75px; font-family:Arial;" text-anchor="middle"><textPath startOffset="22.145653131862474" xlink:href="#id108">December</textPath></text></svg>