<?xml version="1.0" encoding="utf-8" ?>
<svg baseProfile="full" height="200mm" version="1.1" viewBox="0,0,200,200" width="200mm" xmlns="http://www.w3.org/2000/svg" xmlns:ev="http://www.w3.org/2001/xml-events" xmlns:xlink="http://www.w3.org/1999/xlink"><defs /><rect fill="#1a1a1a" height="200" width="200" x="0" y="0" /><rect fill="#1a1a1a" height="200" width="180" x="10" y="0" /><text alignment-baseline="middle" fill="#e1ed5e" style="dominant-baseline: central; font-size:9.0px; font-family:Arial;" text-anchor="middle" x="100.0" y="100.0">2021</text><line stroke="#e1ed5e" stroke-width="0.3" x1="100.0" x2="100.0" y1="15.0" y2="10.0" /><path d="M 100.0 14.0 a86.0,86.0 0 0,1 42.46469731375804,11.215312516191453" fill="none" id="id61" stroke="none" /><text fill="#e1ed5e" style="font-size:6.75px; font-family:Arial;" text-anchor="middle"><textPath startOffset="22.20632615414155" xlink:href="#id61">January</textPath></text><path d="M 100.0 79.0 l 0.0 -38.248640330351165 a59.248640330351165,59.248640330351165 0 0,0 1.0198679477552854,0.008778325410132012 l -0.658387468482757 38.24297338154959" fill="#40ff2d" stroke="none" /><path d="M 100.36148047927253 79.00311137660856 l 0.6906879642195659 -40.11917403512565 a61.125119004491665,61.125119004491665 0 0,0 1.0518566632746327,0.02716635433294874 l -1.3811712626890664 40.10134088865035" fill="#30ff32" stroke="none" /><path d="M 100.72285384407766 79.0124445844662 l 1.3755791323726276 -39.93897729901364 a60.962659141260175,60.962659141260175 0 0,0 1.0484392014662112,0.04514799746557981 l -2.0628591662281703 39.90938157502386" fill="#2fff30" stroke="none" /><path d="M 101.08401301168833 79.027996857942 l 2.0823800699269315 -40.28704535700062 a61.3408270905872,61.3408270905872 0 0,0 1.0540046842786244,0.06358044091762653 l -2.775546803045168 40.24523164670269" fill="#30ff35" stroke="none" /><path d="M 101.44485096284872 79.0497635885617 l 2.597773063404206 -37.66752503959321 a58.75699759643674,58.75699759643674 0 0,0 1.0084094465413875,0.07827198106444466 l -3.2457726993079348 37.617227796340295" fill="#45ff2d" stroke="none" /><path d="M 101.80526077348638 79.07773832637324 l 3.4606551224318545 -40.107630485908054 a61.256653575161394,61.256653575161394 0 0,0 1.0497490676303878,0.09968632289302393 l -4.150529317152486 40.04211861849985" fill="#30ff34" stroke="none" /><path d="M 102.16513564639614 79.11191278185805 l 4.153554954821721 -40.07130837556226 a61.28599972313124,61.28599972313124 0 0,0 1.0483796052020238,0.11779766402024831 l -4.8427012635334705 39.993874758071414" fill="#30ff34" stroke="none" /><path d="M 102.52436894288641 79.15227682838746 l 4.854266266469542 -40.08938535305379 a61.382207950673376,61.382207950673376 0 0,0 1.0478389277135711,0.1360395659958095 l -5.54361992269096 39.99988746389384" fill="#30ff35" stroke="none" /><path d="M 102.88285421437855 79.19881850522331 l 5.614095691432511 -40.50840407540517 a61.895584983820235,61.895584983820235 0 0,0 1.0540848173680197,0.15534470165384903 l -6.310549489229187 40.40576488959035" fill="#31ff3c" stroke="none" /><path d="M 103.2404852339499 79.25152402106235 l 6.176674749686313 -39.54857943215006 a61.02800827001633,61.02800827001633 0 0,0 1.036519436068096,0.1710345881924739 l -6.856523391893284 39.43639858101797" fill="#30ff31" stroke="none" /><path d="M 103.59715602781102 79.31037775812273 l 6.883397430522618 -39.59096894245232 a61.18489743658368,61.18489743658368 0 0,0 1.0360784782508463,0.1893367194533725 l -7.563871029876365 39.46661674164821" fill="#30ff33" stroke="none" /><path d="M 103.95276090670814 79.375362276772 l 7.515978344227653 -39.216723233184084 a60.93045594053566,60.93045594053566 0 0,0 1.0283714415147227,0.20628163675162123 l -8.1899161952095 39.08153764035526" fill="#2fff30" stroke="none" /><path d="M 104.307194497241 79.44645832069477 l 8.216966452059186 -39.21061901384606 a61.06234118375076,61.06234118375076 0 0,0 1.0268861937743456,0.22443754828810383 l -8.890695369987059 39.063367967462085" fill="#30ff31" stroke="none" /><path d="M 104.66035177308747 79.52364482259891 l 8.544253805278398 -37.54119520613651 a59.501241676006515,59.501241676006515 0 0,0 0.9967203532351148,0.23589150486769783 l -9.189197845476036 37.388557789127944" fill="#3dff2e" stroke="none" /><path d="M 105.01212808612495 79.60689891045804 l 9.603090478375693 -39.072583847102266 a61.23538436780127,61.23538436780127 0 0,0 1.021438611523655,0.26038744535678093 l -10.274237978584374 38.901493405576616" fill="#30ff33" stroke="none" /><path d="M 105.36241919743992 79.69619591428918 l 10.257627759257437 -38.83860189586477 a61.170336374904295,61.170336374904295 0 0,0 1.0157250195630831,0.2776360170814917 l -10.924650668044231 38.65627933795698" fill="#30ff33" stroke="none" /><path d="M 105.71112130821622 79.79150937346287 l 10.93835868420796 -38.70478440398572 a61.2207412470656,61.2207412470656 0 0,0 1.0116283852835541,0.29532206634111435 l -11.602977287214943 38.5107640087259" fill="#30ff33" stroke="none" /><path d="M 106.0581310904928 79.89281104454417 l 11.576475749184402 -38.42280430220411 a61.1288759027328,61.1288759027328 0 0,0 1.0048848624464124,0.3122226182909647 l -12.236145984341533 38.21784154903063" fill="#30ff32" stroke="none" /><path d="M 106.40334571778207 80.00007090966166 l 12.13664730138046 -37.907071727829596 a60.802566433547014,60.802566433547014 0 0,0 0.9940269289706324,0.3277150500044553 l -12.78735705259351 37.692542953565905" fill="#30ff2f" stroke="none" /><path d="M 106.74666289553966 80.11325718540242 l 12.81010318365488 -37.75959039100992 a60.873367177512534,60.873367177512534 0 0,0 0.9893893186166226,0.3451785060968163 l -13.458174506334776 37.5334910317409" fill="#30ff2f" stroke="none" /><path d="M 107.08798089147638 80.2323363322302 l 13.588033181689077 -37.89565377710508 a61.258107518124866,61.258107518124866 0 0,0 0.9895158457081793,0.3644470368420635 l -14.238331353169833 37.65614347245669" fill="#30ff34" stroke="none" /><path d="M 107.4271985657038 80.35727306442388 l 14.250665030043569 -37.68876237240924 a61.292980318691214,61.292980318691214 0 0,0 0.9836555349877625,0.38164306556961874 l -14.897303730030998 37.437876602949075" fill="#30ff34" stroke="none" /><path d="M 107.76421540070413 80.48803036053334 l 14.922397314351242 -37.500938384485636 a61.36085134538598,61.36085134538598 0 0,0 0.9780222248137992,0.3989598221771489 l -15.565703408753429 37.23851767612491" fill="#30ff35" stroke="none" /><path d="M 108.09893153111575 80.62456947434976 l 15.201122887602661 -36.36631564164384 a60.41551788815754,60.41551788815754 0 0,0 0.9560503750354525,0.40933087635711946 l -15.82485702042843 36.09926523732393" fill="#34ff2f" stroke="none" /><path d="M 108.43124777332544 80.76684994638697 l 16.119839570981362 -36.772172001602826 a61.150241113966416,61.150241113966416 0 0,0 0.9604020466406668,0.43090440327996055 l -16.75042373608881 36.489247267806334" fill="#30ff32" stroke="none" /><path d="M 108.76106565485865 80.91482961587045 l 16.98646113417976 -37.003432885978725 a61.7160153650886,61.7160153650886 0 0,0 0.9616583304393233,0.4515114805716778 l -17.62089767591868 36.70555642276704" fill="#30ff39" stroke="none" /><path d="M 109.08828744355905 81.06846463323043 l 17.35145063537394 -36.14427948151456 a61.09341315465239,61.09341315465239 0 0,0 0.9441222840517884,0.4632767045061509 l -17.97104418643616 35.840247616873576" fill="#30ff32" stroke="none" /><path d="M 109.41281617654863 81.2277094730956 l 18.059616630450115 -36.0168905705361 a61.29101834415212,61.29101834415212 0 0,0 0.9390353503445782,0.48101037877737696 l -18.67691246838345 35.70068766644622" fill="#30ff34" stroke="none" /><path d="M 109.73455568895987 81.39251694778311 l 18.561683060758497 -35.48042807597206 a61.0424381688013,61.0424381688013 0 0,0 0.9268420848624562,0.49508694315943663 l -19.169670192149262 35.15566240631087" fill="#30ff31" stroke="none" /><path d="M 110.05341064243156 81.56283822128135 l 19.212203373543034 -35.233664904588494 a61.13128332205699,61.13128332205699 0 0,0 0.9195190383595362,0.5117113493049424 l -19.815846500974608 34.89773815772337" fill="#30ff32" stroke="none" /><path d="M 110.36928655335952 81.73862282372117 l 19.861251410662536 -34.97770086076947 a61.22323787443047,61.22323787443047 0 0,0 0.9119442312463961,0.5282569606650886 l -20.460392374374262 34.63063974271433" fill="#30ff33" stroke="none" /><line stroke="#e1ed5e" stroke-width="0.3" x1="143.23703022742887" x2="145.7803849466894" y1="26.81831364943548" y2="22.513508569990506" /><path d="M 143.74570117128098 25.957352633546492 a86.0,86.0 0 0,1 28.547481713284135,27.462654790039103" fill="none" id="id62" stroke="none" /><text fill="#e1ed5e" style="font-size:6.75px; font-family:Arial;" text-anchor="middle"><textPath startOffset="19.985693538727396" xlink:href="#id62">February</textPath></text><path d="M 110.68208982089419 81.91981866633111 l 20.551592502346846 -34.78500231399442 a61.40252888579026,61.40252888579026 0 0,0 0.9053596272956155,0.5454690453075967 l -21.147314195860098 34.42608665922821" fill="#30ff36" stroke="none" /><path d="M 110.99172775467656 82.1063720568725 l 20.86294291137448 -33.96315361759333 a60.85922967865176,60.85922967865176 0 0,0 0.8879096369007828,0.5560089331702835 l -21.444471700647522 33.5990003431001" fill="#30ff2f" stroke="none" /><path d="M 111.60114157652 82.49532879139004 l 21.860280968343286 -32.98442901974036 a60.57075235288308,60.57075235288308 0 0,0 0.8641291933898896,0.5834638887664546 l -22.42481485613972 32.60325321867524" fill="#33ff2f" stroke="none" /><path d="M 111.90073688211348 82.69761687909136 l 22.762655124800627 -33.094436396653684 a61.16690414685663,61.16690414685663 0 0,0 0.8623626479026618,0.6041401448220737 l -23.32894891228694 32.69771140906767" fill="#30ff33" stroke="none" /><path d="M 112.19680574252982 82.90503203632743 l 23.378261415527355 -32.766827510520685 a61.251808554609696,61.251808554609696 0 0,0 0.8530180139807941,0.6197538643117148 l -23.938824745861936 32.359554411392295" fill="#30ff34" stroke="none" /><path d="M 112.48926042617603 83.11751280151076 l 23.914031711231637 -32.32604016991804 a61.21012043942354,61.21012043942354 0 0,0 0.8416503669426746,0.6339136071392225 l -24.466928231932695 31.909609973272968" fill="#30ff33" stroke="none" /><path d="M 112.77801427241765 83.33499621200491 l 24.48960319737287 -31.939182516932497 a61.24738556247725,61.24738556247725 0 0,0 0.8311195698525876,0.6487020072701162 l -25.035755322384887 31.512902120439158" fill="#30ff34" stroke="none" /><path d="M 113.06298171725822 83.55741782278167 l 25.086470015364153 -31.576737508480946 a61.3289143110904,61.3289143110904 0 0,0 0.8209213991703359,0.6637946802057861 l -25.62629481309898 31.14023673101103" fill="#30ff35" stroke="none" /><path d="M 113.6212207817346 84.01681056812373 l 25.973096735664548 -30.476925079670284 a61.043035803395625,61.043035803395625 0 0,0 0.7938681727302357,0.6884346564847832 l -26.493858707041547 30.025325429765832" fill="#30ff31" stroke="none" /><path d="M 113.89432698308785 84.25364557470407 l 26.04409372392012 -29.515609569405154 a60.3632573112782,60.3632573112782 0 0,0 0.7731929985547551,0.694180308313697 l -26.548297710070866 29.062930252322158" fill="#35ff2f" stroke="none" /><path d="M 114.16331599549186 84.49514656593476 l 27.015377933181874 -29.57425192329185 a61.05579885228831,61.05579885228831 0 0,0 0.7698616278425517,0.7155024805284468 l -27.520447444819272 29.10484485668876" fill="#30ff31" stroke="none" /><path d="M 114.42810811169701 84.74124197986012 l 27.654056258656816 -29.246145749634817 a61.25026544963199,61.25026544963199 0 0,0 0.759843832515071,0.7309691648560189 l -28.153383334784305 28.765793498016496" fill="#30ff34" stroke="none" /><path d="M 114.68862486808459 84.99185889309783 l 28.200988138452306 -28.81443383141953 a61.31832497773664,61.31832497773664 0 0,0 0.7479790310953327,0.744766971428856 l -28.69280296971496 28.324731009340557" fill="#30ff35" stroke="none" /><path d="M 114.94478906791727 85.2469230424477 l 28.660596219446894 -28.29293740803256 a61.27306895220455,61.27306895220455 0 0,0 0.734505767993018,0.7569727587965952 l -29.14336625114302 27.79540045368585" fill="#30ff34" stroke="none" /><path d="M 115.19652480421416 85.50635884689758 l 2.196399856006813 -2.0948099484469433 a24.035193741358043,24.035193741358043 0 0,0 0.282965967411177,0.3018483648027278 l -2.232133145388453 2.056692166766161" fill="#ff0000" stroke="none" /><path d="M 115.4437574822437 85.77008943001954 l 29.69810269614545 -27.363894178610824 a61.382669653813295,61.382669653813295 0 0,0 0.7092807213077562,0.7832054877949194 l -30.164727058069243 26.848635903546352" fill="#30ff35" stroke="none" /><path d="M 115.9244219780498 86.31012108654704 l 30.62452419376063 -26.327236779619483 a61.385453798916004,61.385453798916004 0 0,0 0.6819321360744773,0.8071925566441246 l -31.073166943322224 25.79618527334625" fill="#30ff35" stroke="none" /><path d="M 116.15771136456269 86.58626213691792 l 30.64786152743746 -25.44310709094107 a60.832689021029914,60.832689021029914 0 0,0 0.6619219605882011,0.8114380571475219 l -31.081281980102073 24.911784864185446" fill="#30ff2f" stroke="none" /><path d="M 116.38621287248628 86.86637796730983 l 31.313091269513595 -25.097581034080775 a61.12976773687009,61.12976773687009 0 0,0 0.6510201480280832,0.8267294758645365 l -31.740465498135645 24.5548591642632" fill="#30ff32" stroke="none" /><path d="M 116.60985879189232 87.15038557335679 l 31.750599278632148 -24.562698795755303 a61.142579970441304,61.142579970441304 0 0,0 0.6368263483955583,0.8379888265430663 l -32.168701567251816 24.012525193331204" fill="#30ff32" stroke="none" /><path d="M 117.45458315368197 88.32363383020206 l 33.502845552869154 -22.411964179331694 a61.30802399665669,61.30802399665669 0 0,0 0.5792246781187508,0.8821989230958542 l -33.88366686634583 21.831947192258166" fill="#30ff34" stroke="none" /><path d="M 117.65298651832404 88.62581576622439 l 33.439591231537165 -21.54582007836718 a60.77975143941535,60.77975143941535 0 0,0 0.559093842148819,0.8843521916028201 l -33.80551266993194 20.96702023905015" fill="#31ff2f" stroke="none" /><line stroke="#e1ed5e" stroke-width="0.3" x1="172.23445277983987" x2="176.4835382374775" y1="55.19839476539836" y2="52.563006222186495" /><path d="M 173.08426987136738 54.67131705675599 a86.0,86.0 0 0,1 12.851231095245387,41.99856678651699" fill="none" id="id63" stroke="none" /><text fill="#e1ed5e" style="font-size:6.75px; font-family:Arial;" text-anchor="middle"><textPath startOffset="22.20632615414155" xlink:href="#id63">March</textPath></text><line stroke="#e1ed5e" stroke-width="0.3" x1="184.98032266829074" x2="189.97916517819016" y1="98.17113171792111" y2="98.06355123074" /><path d="M 185.9800911702706 98.14961562048488 a86.0,86.0 0 0,1 -9.607161424134198,41.387399972396054" fill="none" id="id64" stroke="none" /><text fill="#e1ed5e" style="font-size:6.75px; font-family:Arial;" text-anchor="middle"><textPath startOffset="21.466115282336823" xlink:href="#id64">April</textPath></text><path d="M 120.99980553446 99.90962569577887 l 37.25387880318437 -0.16032497876474597 a58.25422378712467,58.25422378712467 0 0,0 -0.004315535897310852,1.0027785596974772 l -37.251118969997556 -0.4809630591364159" fill="#4aff2c" stroke="none" /><path d="M 120.99824983174949 100.27111621757518 l 13.459112823085606 0.1737756141464397 a34.46023461714614,34.46023461714614 0 0,0 -0.012763311652957085,0.5930609400427928 l -13.454127448747641 -0.40542636997934733" fill="#ff960d" stroke="none" /><path d="M 120.9764740272857 100.99374915477107 l 13.461639773357714 0.6377379310367243 a34.47673755240226,34.47673755240226 0 0,0 -0.03318574644890482,0.5925537957686956 l -13.44866767602128 -0.8693634431408431" fill="#ff960d" stroke="none" /><path d="M 120.92983693683757 101.71520430193887 l 13.501913469434959 1.106484495654193 a34.54717591512092,34.54717591512092 0 0,0 -0.053672169605605675,0.5922679191681 l -13.480866703552277 -1.3387338033708636" fill="#ff970d" stroke="none" /><path d="M 120.70491114924044 103.5080841355445 l 20.468926188748885 3.4681006219635737 a41.760651753847085,41.760651753847085 0 0,0 -0.12618390114360933,0.7077063293501961 l -20.406195845266087 -3.819925702046988" fill="#fff617" stroke="none" /><path d="M 120.64145759157962 103.86396538481128 l 58.02822253629084 10.862558626374355 a80.03617357716125,80.03617357716125 0 0,0 -0.265148664768309,1.3519873292621527 l -57.832643938546866 -11.859809682704453" fill="#48f8ff" stroke="none" /><path d="M 120.49622156327973 104.57218783832717 l 13.226566783347668 2.9505120054902156 a34.55166373435003,34.55166373435003 0 0,0 -0.1344873066573149,0.5793677972198844 l -13.1738189107598 -3.1777484600586647" fill="#ff970e" stroke="none" /><line stroke="#e1ed5e" stroke-width="0.3" x1="174.80103733775053" x2="179.2010983576182" y1="140.37084112569926" y2="142.7455964860345" /><path d="M 175.68104954172406 140.8457921977663 a86.0,86.0 0 0,1 -30.038265399797805,32.042727171017184" fill="none" id="id65" stroke="none" /><text fill="#e1ed5e" style="font-size:6.75px; font-family:Arial;" text-anchor="middle"><textPath startOffset="22.206326154141568" xlink:href="#id65">May</textPath></text><path d="M 116.27256486870786 113.27417163493432 l 12.342214478608255 10.068030127153937 a36.92782122191377,36.92782122191377 0 0,0 -0.4060372207312375,0.4890979891519297 l -12.167081257983476 -10.278989373419638" fill="#ffb711" stroke="none" /><path d="M 116.0416608686014 113.55231037782055 l 20.155147275312363 17.027464538934115 a47.38492960601165,47.38492960601165 0 0,0 -0.5317435045294292,0.6185378266488909 l -19.859061261212155 -17.371879464744534" fill="#c3ff1e" stroke="none" /><path d="M 115.80600337817218 113.82643327865902 l 9.794762784296312 8.568050434835875 a34.01341101535363,34.01341101535363 0 0,0 -0.3892772538482845,0.437357121398382 l -9.645826680799688 -8.735381725975124" fill="#ff900d" stroke="none" /><path d="M 115.07121518719521 114.62390073753431 l 9.68899903555311 9.401429040863128 a34.500502595138215,34.500502595138215 0 0,0 -0.4172250511586273,0.42264677404971684 l -9.525733359338947 -9.56681630889351" fill="#ff970d" stroke="none" /><path d="M 114.55890576462653 115.13401014063108 l 9.383206186785168 9.75386061825243 a34.53448762620954,34.53448762620954 0 0,0 -0.43195106557520513,0.4084366935274768 l -9.213919286819156 -9.913931948525828" fill="#ff970d" stroke="none" /><path d="M 114.29624159901734 115.38237550388516 l 9.196004775378006 9.89465641096249 a34.508172686184324,34.508172686184324 0 0,0 -0.43858318271513597,0.400635338703383 l -9.024322043196007 -10.051484516252456" fill="#ff970d" stroke="none" /><path d="M 112.63410532772338 116.77436683061366 l 8.127320371031336 10.790685190382622 a34.50896825413857,34.50896825413857 0 0,0 -0.4775630871429194,0.35328975494737785 l -7.940372313469853 -10.928984894069767" fill="#ff970d" stroke="none" /><path d="M 112.34349029814194 116.9893568818739 l 7.957962136634065 10.953195208657275 a34.53889384872539,34.53889384872539 0 0,0 -0.48399298028610205,0.34531614062349014 l -7.768241828499079 -11.088555611124985" fill="#ff970d" stroke="none" /><path d="M 112.04921762599082 117.19931262002967 l 7.769810229194905 11.090794380040801 a34.54162733861948,34.54162733861948 0 0,0 -0.48990409032046717,0.33696050050641285 l -7.577749254251555 -11.222895669912308" fill="#ff970d" stroke="none" /><line stroke="#e1ed5e" stroke-width="0.3" x1="143.8653032363475" x2="146.44561519142675" y1="172.8068346515853" y2="177.08958963109032" /><path d="M 144.38136562736335 173.6633856474863 a86.0,86.0 0 0,1 -40.68145358897372,12.25698825130547" fill="none" id="id66" stroke="none" /><text fill="#e1ed5e" style="font-size:6.75px; font-family:Arial;" text-anchor="middle"><textPath startOffset="21.466115282336833" xlink:href="#id66">June</textPath></text><path d="M 110.8373102113329 117.98757091392108 l 13.790277338090032 22.88885218789215 a47.72211263243636,47.72211263243636 0 0,0 -0.7072692720769765,0.4178671525719471 l -13.394240194984674 -23.122837912757845" fill="#bfff1e" stroke="none" /><path d="M 110.21172684928248 118.3499491758327 l 6.5747661514180615 11.81451741729496 a34.52073858002582,34.52073858002582 0 0,0 -0.521718806797431,0.2844826914014578 l -6.370424532751982 -11.92594076045619" fill="#ff970d" stroke="none" /><path d="M 109.89434966115114 118.52300852407294 l 6.370501422886475 11.926084704895732 a34.52090177345234,34.52090177345234 0 0,0 -0.5265408995726674,0.2754613127966555 l -6.164269620787311 -12.033975436637105" fill="#ff970d" stroke="none" /><path d="M 108.92500713936063 119.00905698771935 l 5.764698167513867 12.278026703194616 a34.56398483805175,34.56398483805175 0 0,0 -0.5407321530052223,0.24822361020739137 l -5.5524980187412245 -12.375437383736083" fill="#ff970e" stroke="none" /><path d="M 108.59647513512805 119.15986991738527 l 5.564063496140217 12.401214581833433 a34.59223770001681,34.59223770001681 0 0,0 -0.5453702247523895,0.23907427957792143 l -5.349772596730073 -12.495153414705808" fill="#ff980e" stroke="none" /><path d="M 108.2653958097858 119.30500536409082 l 5.327066815958046 12.442120840139822 a34.53454882374448,34.53454882374448 0 0,0 -0.5484884602903413,0.2292682208850939 l -5.112106896170244 -12.53197410404489" fill="#ff970d" stroke="none" /><path d="M 107.93186726928326 119.44442032107085 l 5.1171151020566015 12.544251372057923 a34.54780828964866,34.54780828964866 0 0,0 -0.552565746354242,0.2198773141317007 l -4.900428279660494 -12.630475530595694" fill="#ff970d" stroke="none" /><path d="M 107.59598834532513 119.57807347666477 l 4.852267746965568 12.506345476031187 a34.41466285279239,34.41466285279239 0 0,0 -0.5541248739535363,0.20952261274856349 l -4.636272652251757 -12.588016338886382" fill="#ff950d" stroke="none" /><path d="M 106.2309692047433 120.05430185196036 l 4.021454726375119 12.943005223862547 a34.5533568661501,34.5533568661501 0 0,0 -0.5695134061176909,0.17158971747355264 l -3.798066345817182 -13.010310310441826" fill="#ff970e" stroke="none" /><path d="M 105.88484417918355 120.15858648285463 l 3.7930872956458175 12.993254529451573 a34.5355891818385,34.5355891818385 0 0,0 -0.5720883365478749,0.16167787834436817 l -3.5688677909933366 -13.05662120113446" fill="#ff970d" stroke="none" /><path d="M 105.53697534728816 120.25689768951611 l 3.5712988998427857 13.065515357266017 a34.54480961043648,34.54480961043648 0 0,0 -0.5749400528621325,0.15184689350971317 l -3.3458684041691558 -13.125053600079315" fill="#ff970d" stroke="none" /><path d="M 105.18746579009965 120.34920634021253 l 3.334953822936618 13.082238268932109 a34.500624990208095,34.500624990208095 0 0,0 -0.5767300512913731,0.14174621483498512 l -3.109270486902034 -13.137705742081122" fill="#ff970d" stroke="none" /><path d="M 104.13013068566511 120.58985236759428 l 2.668273901983511 13.302088940872801 a34.567065113977186,34.567065113977186 0 0,0 -0.58440131355574,0.1120019026298065 l -2.438904973856067 -13.346048041851075" fill="#ff970e" stroke="none" /><path d="M 103.7750983002368 120.6578951692458 l 2.4378011795742887 13.340007916601898 a34.560924961304636,34.560924961304636 0 0,0 -0.5861385224688547,0.10190769529680108 l -2.207813685633384 -13.379994190419707" fill="#ff970e" stroke="none" /><path d="M 103.06178313531738 120.77559828337769 l 1.9710838145775034 13.374704773231793 a34.519167843295634,34.519167843295634 0 0,0 -0.5885870028908156,0.08157279538368223 l -1.7405682204998574 -13.406652134108079" fill="#ff970d" stroke="none" /><path d="M 102.70371172650421 120.8252237178851 l 1.749316615765033 13.474036273764613 a34.58711750625997,34.58711750625997 0 0,0 -0.5910651423188682,0.07156975734041363 l -1.5171240503947845 -13.502151559830377" fill="#ff980e" stroke="none" /><path d="M 101.62511606390274 120.93702456842531 l 2.071321443183636 26.68566812446303 a47.76593461416908,47.76593461416908 0 0,0 -0.8202940375270508,0.056572279503869664 l -1.6116646448776553 -26.71736874848319" fill="#beff1e" stroke="none" /><path d="M 101.26447882468166 120.96189622390904 l 1.6241117273449173 26.923710243395035 a47.97265118918038,47.97265118918038 0 0,0 -0.8246999747205902,0.04262756863426624 l -1.1604236842108475 -26.947677618791502" fill="#bcff1f" stroke="none" /><line stroke="#e1ed5e" stroke-width="0.3" x1="102.19456741930631" x2="102.32365962044197" y1="184.97166512339345" y2="189.96999836594603" /><path d="M 102.22038585953345 185.97133177190398 a86.0,86.0 0 0,1 -42.740103519485714,-10.115201625700543" fill="none" id="id67" stroke="none" /><text fill="#e1ed5e" style="font-size:6.75px; font-family:Arial;" text-anchor="middle"><textPath startOffset="22.20632615414155" xlink:href="#id67">July</textPath></text><path d="M 100.54218724476979 120.99299961872073 l 0.7378747516680954 28.569842853844545 a49.57936982934581,49.57936982934581 0 0,0 -0.8533325145735644,0.014690893107050016 l -0.245982547201863 -28.578311224230756" fill="#a9ff21" stroke="none" /><path d="M 100.18074693466247 120.99922214144158 l 0.23279539879579406 27.04622516529794 a48.047227018489274,48.047227018489274 0 0,0 -0.8270846669164804,0.0 l 0.23279539879577543 -27.04622516529794" fill="#bbff1f" stroke="none" /><path d="M 98.73552117531835 120.96189622390904 l -0.6654384151308781 11.031304541527454 a32.05135684756655,32.05135684756655 0 0,0 -0.5504244212759875,-0.03796049072848951 l 0.8552255971857956 -11.01821570628268" fill="#ff750a" stroke="none" /><path d="M 98.37488393609728 120.93702456842531 l -1.647263748056271 21.222362100652443 a42.28619578475378,42.28619578475378 0 0,0 -0.7252196996653687,-0.06257500725247882 l 2.0123277654631813 -21.1908628411213" fill="#fffd17" stroke="none" /><path d="M 96.58105272829116 120.7198165907248 l -2.2067708510370307 13.37367430893177 a34.55451961931401,34.55451961931401 0 0,0 -0.5860298906051387,-0.10188880825484303 l 2.4366497131142193 -13.33370692215592" fill="#ff970e" stroke="none" /><path d="M 96.22490169976321 120.6578951692458 l -4.826408301333481 26.41081868693877 a47.84819474015963,47.84819474015963 0 0,0 -0.8089361293827118,-0.15503453448040724 l 5.280312045287888 -26.323826954109897" fill="#beff1f" stroke="none" /><path d="M 95.86986931433489 120.58985236759428 l -5.4731058955881355 27.284958021666643 a48.82847143463745,48.82847143463745 0 0,0 -0.8226633389964767,-0.17239710129253774 l 5.941960696013998 -27.186704939647566" fill="#b2ff20" stroke="none" /><path d="M 95.16358092515715 120.4354850818985 l -6.020543191486178 25.43880475836124 a47.14153262252565,47.14153262252565 0 0,0 -0.7880419133004006,-0.19368152932474386 l 6.457538389529788 -25.331401970722464" fill="#c6ff1e" stroke="none" /><path d="M 94.11515582081647 120.15858648285463 l -7.777760142475353 26.6427870817035 a48.75484923963496,48.75484923963496 0 0,0 -0.8035844494871719,-0.24211340272672988 l 8.23521956640277 -26.504958309871046" fill="#b3ff20" stroke="none" /><path d="M 93.76903079525671 120.05430185196036 l -8.007551213192206 25.772210365306055 a47.98754719394641,47.98754719394641 0 0,0 -0.7867184857293756,-0.2518824153796047 l 8.449991044012522 -25.630555103266744" fill="#bcff1f" stroke="none" /><path d="M 93.08242187328487 119.8279376855182 l -9.09760929350083 26.07658733366325 a48.618017702712834,48.618017702712834 0 0,0 -0.7877981154852787,-0.2824763756986121 l 9.545126969615835 -25.916123416924684" fill="#b4ff20" stroke="none" /><path d="M 92.7421414339146 119.70592522655815 l -9.341595033758862 25.363510676858933 a48.02911525799328,48.02911525799328 0 0,0 -0.7733368637744854,-0.2924098300745068 l 9.77680211829363 -25.198952596677792" fill="#bbff1f" stroke="none" /><path d="M 92.06813273071674 119.44442032107085 l -5.107090985351748 12.519677947927217 a34.521268958661985,34.521268958661985 0 0,0 -0.548277545337052,-0.22918005841751407 l 5.3218399901862625 -12.42991284648973" fill="#ff970d" stroke="none" /><path d="M 91.7346041902142 119.30500536409082 l -5.343237057285789 12.479888734473596 a34.57563276886912,34.57563276886912 0 0,0 -0.5451084366856577,-0.23895951938270457 l 5.55726616862919 -12.386064661796437" fill="#ff980e" stroke="none" /><path d="M 91.07499286063937 119.00905698771935 l -11.396784736899443 24.273608654615746 a47.815942635989146,47.815942635989146 0 0,0 -0.742029046318856,-0.3562190352639402 l 11.81292645121854 -24.07383534285224" fill="#beff1f" stroke="none" /><path d="M 90.7491055286396 118.85261126421891 l -11.36048770241706 23.151799978766032 a46.78888371166073,46.78888371166073 0 0,0 -0.7199830921575667,-0.3610144690116179 l 11.757324702257389 -22.95281766884511" fill="#caff1d" stroke="none" /><path d="M 90.42595943632237 118.69057910512821 l -12.199126724259747 23.815309903562444 a47.75794608405637,47.75794608405637 0 0,0 -0.7284430765415418,-0.3810869893005816 l 12.607260703327785 -23.601793495317143" fill="#bfff1e" stroke="none" /><line stroke="#e1ed5e" stroke-width="0.3" x1="58.666819895761336" x2="56.23545636021788" y1="174.27360380694188" y2="178.64263932499728" /><path d="M 58.180547188652646 175.14741091055294 a86.0,86.0 0 0,1 -31.652253787137756,-30.449443065178592" fill="none" id="id68" stroke="none" /><text fill="#e1ed5e" style="font-size:6.75px; font-family:Arial;" text-anchor="middle"><textPath startOffset="22.20632615414155" xlink:href="#id68">August</textPath></text><path d="M 89.7882731507175 118.34994917583269 l -7.899424682788187 14.194860828819214 a37.24484485209352,37.24484485209352 0 0,0 -0.5575220430992346,-0.3165755665032738 l 8.142595492808628 -14.056782096521308" fill="#ffbc11" stroke="none" /><path d="M 89.4739219176387 118.17145234162733 l -13.66688580361019 23.593513376546667 a48.26605290499907,48.26605290499907 0 0,0 -0.7153307810799812,-0.4226300341865071 l 14.070984455718555 -23.35476477006641" fill="#b9ff1f" stroke="none" /><path d="M 89.1626897886671 117.98757091392108 l -14.132777891050091 23.457328393176365 a48.385793146503396,48.385793146503396 0 0,0 -0.7097062246140852,-0.4359595288083267 l 14.534463315596486 -23.210580397539662" fill="#b7ff1f" stroke="none" /><path d="M 88.54995079064634 117.60387380957326 l -7.365179754384121 11.323592816971011 a34.50813188782769,34.50813188782769 0 0,0 -0.49515110652480043,-0.32815915364004605 l 7.559005559648884 -11.195135642239647" fill="#ff970d" stroke="none" /><path d="M 88.24862548938628 117.40417183066458 l -14.992848635004492 22.20490153207922 a47.79259528753215,47.79259528753215 0 0,0 -0.6778426415426643,-0.46622634975223926 l 15.372848161170047 -21.94353439296188" fill="#beff1f" stroke="none" /><path d="M 87.65650970185807 116.9893568818739 l -16.289034255995674 22.419932251888063 a48.71256031427358,48.71256031427358 0 0,0 -0.6741239122247661,-0.49870075423728016 l 16.672543138639004 -22.136221548911017" fill="#b3ff20" stroke="none" /><path d="M 87.36589467227662 116.77436683061367 l -16.373575155388295 21.7392802149923 a48.21562543163586,48.21562543163586 0 0,0 -0.658651322574055,-0.5050257478165607 l 16.745355206455837 -21.45421512534837" fill="#b9ff1f" stroke="none" /><path d="M 87.07902340077011 116.55440617244103 l -16.56840255986087 21.227502696723114 a47.928030639558315,47.928030639558315 0 0,0 -0.6459842838733271,-0.5132089837790311 l 16.931344336451556 -20.939159798938952" fill="#bdff1f" stroke="none" /><path d="M 86.51685102203217 116.09983520530335 l -17.238487348914884 20.583975298333176 a47.84893825016343,47.84893825016343 0 0,0 -0.6268997534167887,-0.5342575701614958 l 17.59025257890873 -20.28419333794873" fill="#beff1f" stroke="none" /><path d="M 86.24171649860922 115.8653595955263 l -17.30675325937468 19.957276201153284 a47.416218157601506,47.416218157601506 0 0,0 -0.6120251679936856,-0.5400410518083276 l 17.647720780274955 -19.65641200757267" fill="#c3ff1e" stroke="none" /><path d="M 85.44109423537348 115.13401014063109 l -9.380250432005015 9.75078810555546 a34.530224197941884,34.530224197941884 0 0,0 -0.4248040507625137,-0.41576017307191426 l 9.546704435143324 -9.587877829560975" fill="#ff970d" stroke="none" /><path d="M 85.18274418774928 114.88116024355367 l -9.523459213850199 9.56453235538256 a34.49727952496458,34.49727952496458 0 0,0 -0.4171860735925979,-0.42260728998111047 l 9.68668591249833 -9.399184571420786" fill="#ff970d" stroke="none" /><path d="M 84.43433777217949 114.09645910891817 l -10.034781791699004 9.087624356950217 a34.53815947830608,34.53815947830608 0 0,0 -0.39528290381167763,-0.4441045327977162 l 10.18972354515902 -8.913545654411637" fill="#ff970d" stroke="none" /><path d="M 83.72743513129214 113.27417163493432 l -10.44434729584209 8.519865168058109 a34.478593877628846,34.478593877628846 0 0,0 -0.3711901187269913,-0.46311674620181537 l 10.589455326623943 -8.338820588278034" fill="#ff960d" stroke="none" /><path d="M 83.50135304334701 112.99209946851258 l -26.313781875617668 20.721170191650813 a54.493014356861686,54.493014356861686 0 0,0 -0.5739753945226537,-0.7419405700823435 l 26.66656408735839 -20.265151627455218" fill="#72ff27" stroke="none" /><path d="M 82.44556493220864 111.52570212397912 l -11.294554079634274 7.415656809365852 a34.51143655471458,34.51143655471458 0 0,0 -0.32177006834689337,-0.49939429165043386 l 11.420529011358212 -7.2201409177939695" fill="#ff970d" stroke="none" /><path d="M 82.24976979558568 111.22182372390057 l -11.423787822357724 7.222201161642353 a34.51529199941595,34.51529199941595 0 0,0 -0.31316112371783034,-0.5049154441057012 l 11.54641358574351 -7.024489386171387" fill="#ff970d" stroke="none" /><path d="M 82.05923443525364 110.91462005526583 l -11.644164266535242 7.083957948821903 a34.62971099057985,34.62971099057985 0 0,0 -0.3054326068808817,-0.5119226175830826 l 11.764377749114356 -6.882473237352708" fill="#ff980e" stroke="none" /><line stroke="#e1ed5e" stroke-width="0.3" x1="26.63291911575756" x2="22.317208475507996" y1="142.92168965132927" y2="145.44649492493687" /><path d="M 25.769776987707644 143.4266507060508 a86.0,86.0 0 0,1 -11.730757126820373,-40.83630448921669" fill="none" id="id69" stroke="none" /><text fill="#e1ed5e" style="font-size:6.75px; font-family:Arial;" text-anchor="middle"><textPath startOffset="21.46611528233685" xlink:href="#id69">September</textPath></text><path d="M 81.69416730710424 110.29060199501025 l -25.158247680967754 14.142678900217511 a49.86092155236172,49.86092155236172 0 0,0 -0.41413909358186635,-0.7517827496824346 l 25.39796318400114 -13.707525632137253" fill="#a6ff21" stroke="none" /><path d="M 81.51974371655577 109.97397251340807 l -11.943275820301308 6.445901124133936 a34.57171612663281,34.57171612663281 0 0,0 -0.27813355837885095,-0.5261238750846036 l 12.052461886905045 -6.239362233963207" fill="#ff980e" stroke="none" /><path d="M 81.02952815118164 109.00673069616217 l -12.260162221361607 5.820834626522133 a34.571797723346066,34.571797723346066 0 0,0 -0.2506050073796363,-0.5397808910276527 l 12.35854184558107 -5.608933668215654" fill="#ff980e" stroke="none" /><path d="M 80.73074385275274 108.34839909993369 l -12.393174741192913 5.369339016725679 a34.50631636095774,34.50631636095774 0 0,0 -0.23143718105279787,-0.5470491305707352 l 12.483762903438018 -5.155215360488785" fill="#ff970d" stroke="none" /><path d="M 80.58989483394504 108.01547362559985 l -12.531333491317165 5.174859808019466 a34.55778348784426,34.55778348784426 0 0,0 -0.22231743839366527,-0.5517736499726497 l 12.618553543968218 -4.9583867902040115" fill="#ff970e" stroke="none" /><path d="M 80.45479744820244 107.68017299344265 l -12.6801821111035 4.9826033751016405 a34.623999220651896,34.623999220651896 0 0,0 -0.21319434107524635,-0.5565831504228186 l 12.764070731772255 -4.763596657845664" fill="#ff980e" stroke="none" /><path d="M 80.32549172779594 107.34259656027581 l -12.68515889555939 4.734146479517181 a34.539771013392894,34.539771013392894 0 0,0 -0.20308684526614365,-0.5588077758430712 l 12.764770001830758 -4.515090906667992" fill="#ff970d" stroke="none" /><path d="M 80.0844068197444 106.66101706037122 l -20.1612029737103 6.743164300957457 a42.258983280882745,42.258983280882745 0 0,0 -0.22479313793568415,-0.691842139894624 l 20.274288362662233 -6.39512326108503" fill="#fffc17" stroke="none" /><path d="M 79.97269907076064 106.31721596034903 l -32.03517669290624 10.104862867545414 a54.591082139723056,54.591082139723056 0 0,0 -0.2749654738238786,-0.898603077852281 l 32.204368939236254 -9.551932817141084" fill="#71ff27" stroke="none" /><path d="M 79.76711848015287 105.62410040840567 l -19.78071690704898 5.498412963391472 a41.53069181671199,41.53069181671199 0 0,0 -0.1855273376277457,-0.690416241176505 l 19.8724323210185 -5.157105789039428" fill="#fff316" stroke="none" /><path d="M 79.67330655649465 105.27499134158121 l -19.87707242784523 5.15830994570185 a41.53548562361581,41.53548562361581 0 0,0 -0.1736355091911297,-0.6935875469196155 l 19.962919251331417 -4.815394559384843" fill="#fff316" stroke="none" /><path d="M 79.58551787078972 104.9243191809786 l -39.39307849328406 9.502278372504492 a61.52293088421179,61.52293088421179 0 0,0 -0.2394690263223353,-1.0316262979099222 l 39.55080808553695 -8.822783417245995" fill="#30ff37" stroke="none" /><path d="M 79.35854240842038 103.8639653848113 l -15.063214069253133 2.8197494042930358 a36.32486230930498,36.32486230930498 0 0,0 -0.10975913071735784,-0.61558749419426 l 15.10951964230968 -2.560043159365562" fill="#ffaf10" stroke="none" /><path d="M 79.29508885075956 103.50808413554451 l -13.30269020681422 2.25390759410722 a34.492281726277625,34.492281726277625 0 0,0 -0.09414462269649253,-0.5862386553991286 l 13.339516583872001 -2.024589709014878" fill="#ff960d" stroke="none" /><path d="M 79.18660465613746 102.79330883721812 l -15.712977471010872 2.1087957108221933 a36.853853801346766,36.853853801346766 0 0,0 -0.07896989521418636,-0.6294677640300277 l 15.746948875471906 -1.8380101925047572" fill="#ffb610" stroke="none" /><path d="M 79.10278846688536 102.07522291339032 l -13.422770019139046 1.3329644417268423 a34.48879346678591,34.48879346678591 0 0,0 -0.05358146717954556,-0.5912670254546449 l 13.443726082595665 -1.101716027723631" fill="#ff960d" stroke="none" /><path d="M 79.07016306316243 101.71520430193888 l -13.502320089888062 1.1065178182812474 a34.5475838986872,34.5475838986872 0 0,0 -0.043469812211234,-0.5931110506956528 l 13.519366460763631 -0.873933631088834" fill="#ff970d" stroke="none" /><path d="M 79.04373962182676 101.35467743843564 l -43.15314988046848 2.7895529777530945 a64.24321854836742,64.24321854836742 0 0,0 -0.061837613218681836,-1.104152124178554 l 43.1947738445747 -2.046329137239103" fill="#34ff58" stroke="none" /><path d="M 79.0235259727143 100.99374915477108 l -13.547362974452568 0.6417990215003393 a34.56255689556977,34.56255689556977 0 0,0 -0.023038194273666532,-0.594513426288242 l 13.556403301577435 -0.40850834819810056" fill="#ff970e" stroke="none" /><path d="M 79.0095281055655 100.63252640178507 l -13.51081143416766 0.40713448390441537 a34.516944332859396,34.516944332859396 0 0,0 -0.012784315682193691,-0.5940369147476469 l 13.515817812534863 -0.17450775336663968" fill="#ff970d" stroke="none" /><line stroke="#e1ed5e" stroke-width="0.3" x1="15.007084014347285" x2="10.007500721073583" y1="101.09737516637583" y2="101.16192664675087" /><path d="M 14.007167355692545 101.11028546245083 a86.0,86.0 0 0,1 10.666146001902534,-42.60595125391555" fill="none" id="id70" stroke="none" /><text fill="#e1ed5e" style="font-size:6.75px; font-family:Arial;" text-anchor="middle"><textPath startOffset="22.20632615414155" xlink:href="#id70">October</textPath></text><path d="M 79.08570108090925 98.10471618934814 l -13.414404884090283 -1.2156326398843869 a34.46937344903086,34.46937344903086 0 0,0 0.05863548073962159,-0.5904512890906394 l 13.391492277668434 1.4463594596794567" fill="#ff960d" stroke="none" /><path d="M 79.12142395522702 97.74499172005258 l -13.476470624521232 -1.4555376179675683 a34.55484600616703,34.55484600616703 0 0,0 0.06896101895875266,-0.5908158966540198 l 13.44941925255889 1.6872972529464498" fill="#ff970e" stroke="none" /><path d="M 79.26566170972629 96.67025291283419 l -13.353580933388765 -2.144464250254942 a34.524675621440444,34.524675621440444 0 0,0 0.0992800424950917,-0.5859564307270213 l 13.31468902937345 2.374006469297791" fill="#ff970d" stroke="none" /><path d="M 79.32604984820605 96.31383870115002 l -26.30305821603431 -4.68983017398494 a47.717884994454735,47.717884994454735 0 0,0 0.15113907509326827,-0.8073909826499767 l 26.21843341703118 5.141899234097489" fill="#bfff1e" stroke="none" /><path d="M 79.3925641242962 95.95851677861259 l -13.292169808997103 -2.606829960938039 a34.54538078742928,34.54538078742928 0 0,0 0.11946237503179684,-0.5825409668539903 l 13.245328138050311 2.835246583955432" fill="#ff970d" stroke="none" /><path d="M 79.46518482838121 95.60439243477599 l -13.163803511986764 -2.817795720137955 a34.46200934565947,34.46200934565947 0 0,0 0.12915969384245896,-0.5789975818248565 l 13.113349431142268 3.0439714715127706" fill="#ff960d" stroke="none" /><path d="M 79.54389044137918 95.25157060432595 l -13.244954063280655 -3.0745205503619024 a34.59711310363389,34.59711310363389 0 0,0 0.13965239985023412,-0.5789493565031976 l 13.190068863169605 3.302055138524497" fill="#ff980e" stroke="none" /><path d="M 79.81627453868168 94.20196356495316 l -14.388307200335396 -4.133227512734044 a35.97020219513568,35.97020219513568 0 0,0 0.17607260311235626,-0.5936292873151977 l 14.315028700111332 4.3802861867957805" fill="#ffaa0f" stroke="none" /><path d="M 79.91906864156998 93.8553929516997 l -20.21345339035252 -6.185157747711178 a42.1385873304728,42.1385873304728 0 0,0 0.21820668066397902,-0.6917748080574523 l 20.103991225920335 6.532182722195045" fill="#fffb17" stroke="none" /><path d="M 80.2630227832202 92.82701384747504 l -12.738338762138769 -4.629479303918512 a34.5534996603983,34.5534996603983 0 0,0 0.20797160991832928,-0.557260517601972 l 12.656762563718813 4.848062958549825" fill="#ff970e" stroke="none" /><path d="M 80.38941819471856 92.48833698450439 l -12.700576441657194 -4.864845483910013 a34.60041777052078,34.60041777052078 0 0,0 0.21782849552623829,-0.5543497614244774 l 12.614954396249265 5.082744250230254" fill="#ff980e" stroke="none" /><path d="M 80.65960295795068 91.81776055985345 l -14.573383537315289 -6.165484260542792 a36.82392820675995,36.82392820675995 0 0,0 0.251997170637979,-0.5816442136125681 l 14.46509565683463 6.415427618741959" fill="#ffb610" stroke="none" /><path d="M 80.803312248108 91.48605970444005 l -22.311200856134548 -9.895260810951802 a45.40708647420944,45.40708647420944 0 0,0 0.3230339767948393,-0.7117625480911731 l 22.137564562376358 10.277845367885046" fill="#dbff1b" stroke="none" /><path d="M 80.95270993114464 91.15688171328213 l -12.774864227584143 -5.9310082984459 a35.084531070271495,35.084531070271495 0 0,0 0.25902709835000376,-0.5455771292710739 l 12.670878935392388 6.150027843357506" fill="#ff9f0e" stroke="none" /><path d="M 81.10775173730289 90.83032412892265 l -12.72430082295626 -6.175957070338347 a35.1439130783439,35.1439130783439 0 0,0 0.2688341781748358,-0.5419532987165532 l 12.616106631828012 6.394069957553861" fill="#ff9f0e" stroke="none" /><path d="M 81.26839172434947 90.50648371742162 l -20.27616314251474 -10.276324494352275 a43.731599963379125,43.731599963379125 0 0,0 0.34608473270138634,-0.6685255470211244 l 20.096268976653242 10.623822763633736" fill="#efff19" stroke="none" /><line stroke="#e1ed5e" stroke-width="0.3" x1="26.266209847984243" x2="21.928928074336255" y1="57.711370442889674" y2="55.22380399835377" /><path d="M 25.398753493254645 57.213857153982495 a86.0,86.0 0 0,1 29.58750427330803,-30.492523968695096" fill="none" id="id71" stroke="none" /><text fill="#e1ed5e" style="font-size:6.75px; font-family:Arial;" text-anchor="middle"><textPath startOffset="21.46611528233685" xlink:href="#id71">November</textPath></text><path d="M 85.31137513191541 84.99185889309783 l -10.681262822300454 -10.913608392662114 a36.27076368841594,36.27076368841594 0 0,0 0.44995912894315543,-0.4328603255411602 l 10.491820449744871 11.095851804965589" fill="#ffaf10" stroke="none" /><path d="M 85.57189188830299 84.74124197986013 l -9.952329048400712 -10.525300996548584 a35.48553811757048,35.48553811757048 0 0,0 0.4474424158490373,-0.4158489614955896 l 9.769678748756819 10.695054544118822" fill="#ffa40f" stroke="none" /><path d="M 85.83668400450813 84.49514656593479 l -9.225133323191276 -10.098930231544575 a34.678138639897576,34.678138639897576 0 0,0 0.44419229832171586,-0.3988002312176971 l 9.049930037273588 10.256229471531551" fill="#ff990e" stroke="none" /><path d="M 86.37877921826538 84.01681056812374 l -13.373523873001398 -15.692540988729224 a41.61812269496632,41.61812269496632 0 0,0 0.549245191943853,-0.4599770528068568 l 13.101421144098435 15.920419198929892" fill="#fff417" stroke="none" /><path d="M 86.65592168130627 83.78471172551755 l -13.1036765837438 -15.92315993554443 a41.62167215199298,41.62167215199298 0 0,0 0.5571290756184667,-0.4504929667532944 l 12.827644109560833 16.14635899956186" fill="#fff417" stroke="none" /><path d="M 86.93701828274178 83.55741782278169 l -12.755772239807671 -16.05589273770639 a41.50613120602179,41.50613120602179 0 0,0 0.5632331502379836,-0.4396124076169366 l 12.477506534410262 16.273083534546547" fill="#fff316" stroke="none" /><path d="M 87.22198572758235 83.33499621200491 l -23.398059183510693 -30.515597855187153 a59.453489906828636,59.453489906828636 0 0,0 0.8174963753849291,-0.6157213214626837 l 22.869316654367374 30.913835766155692" fill="#3eff2d" stroke="none" /><path d="M 87.80319425747018 82.90503203632743 l -23.475703698314728 -32.903402015167295 a61.41958100107896,61.41958100107896 0 0,0 0.8659250168685009,-0.6066358119386456 l 22.905847541862567 33.30262266986988" fill="#30ff36" stroke="none" /><path d="M 88.09926311788651 82.69761687909137 l -33.89588544925391 -49.28094806859292 a80.81256467439175,80.81256467439175 0 0,0 1.152907857591223,-0.7784485319153871 l 33.04257289725615 49.857108512806974" fill="#49f0ff" stroke="none" /><path d="M 88.39885842347998 82.49532879139004 l -17.199825861853498 -25.952385338219923 a52.13455177807345,52.13455177807345 0 0,0 0.752308965938699,-0.48932267828184306 l 16.75054987013051 26.244606940661303" fill="#8cff24" stroke="none" /><path d="M 88.70189139769569 82.29822771554957 l -17.774341625557472 -27.84867441418245 a54.03749213922215,54.03749213922215 0 0,0 0.7883834592996752,-0.49368564988702124 l 17.292339013885556 28.150504405392404" fill="#77ff27" stroke="none" /><path d="M 89.00827224532344 82.1063720568725 l -21.114998613632217 -34.373479551587174 a61.34078907182,61.34078907182 0 0,0 0.9044492945132071,-0.5449205799919856 l 20.520187252901362 34.73184674103778" fill="#30ff35" stroke="none" /><line stroke="#e1ed5e" stroke-width="0.3" x1="56.762969772571076" x2="54.21961505331055" y1="26.818313649435495" y2="22.513508569990535" /><path d="M 56.25429882871897 25.957352633546506 a86.0,86.0 0 0,1 42.265352541879196,-11.944610805530505" fill="none" id="id72" stroke="none" /><text fill="#e1ed5e" style="font-size:6.75px; font-family:Arial;" text-anchor="middle"><textPath startOffset="22.20632615414155" xlink:href="#id72">December</textPath></text><path d="M 89.3179101791058 81.91981866633112 l -14.765471972727147 -24.991590149516707 a50.0275514085982,50.0275514085982 0 0,0 0.7451800736842235,-0.4316563967235087 l 14.333095166577602 25.242050703630262" fill="#a4ff21" stroke="none" /><path d="M 89.63071344664047 81.73862282372117 l -19.848387441728796 -34.95504609204702 a61.19718561459383,61.19718561459383 0 0,0 0.920510321535092,-0.5122629973189032 l 19.243753031121656 35.29152448692611" fill="#30ff33" stroke="none" /><path d="M 90.26544431104013 81.39251694778311 l -9.228658709760602 -17.640467220431763 a40.90864699914004,40.90864699914004 0 0,0 0.626758482805081,-0.3210500383243063 l 8.923639739366756 17.796709784068575" fill="#ffeb16" stroke="none" /><path d="M 91.23893434514133 80.91482961587045 l -26.28319696457602 -57.25551115238866 a84.0,84.0 0 0,0 1.3192715261329024,-0.5919186779338843 l 25.293743319976343 57.69945016083907" fill="#4dd2ff" stroke="none" /><path d="M 91.56875222667455 80.76684994638697 l -17.1740723563146 -39.177061277411 a63.77605512005456,63.77605512005456 0 0,0 1.0092294752597477,-0.43209939176917767 l 16.497159123264545 39.46688019714296" fill="#33ff53" stroke="none" /><path d="M 91.90106846888425 80.62456947434976 l -15.693831965061227 -37.54504526332026 a61.693080315605805,61.693080315605805 0 0,0 0.9833175769720395,-0.40111992928086804 l 15.045230518500807 37.80962607878471" fill="#30ff39" stroke="none" /><path d="M 92.23578459929587 80.48803036053334 l -14.9561176233953 -37.58567967672766 a61.45205521511131,61.45205521511131 0 0,0 0.9862084358505688,-0.38263355144269 l 14.306926022545056 37.8375559320609" fill="#30ff36" stroke="none" /><path d="M 92.57280143429618 80.3572730644239 l -7.118512015406542 -18.82634299719951 a41.12720556763135,41.12720556763135 0 0,0 0.6643369057202543,-0.2446808889465469 l 6.793392783913718 18.94608715395238" fill="#ffee16" stroke="none" /><path d="M 93.25333710446033 80.11325718540243 l -12.995886378849672 -38.307212627264676 a61.45164523282627,61.45164523282627 0 0,0 1.0046383528521245,-0.33121346962125764 l 12.334565203755139 38.52523982114517" fill="#30ff36" stroke="none" /><path d="M 93.59665428221793 80.00007090966166 l -12.252402349175224 -38.26861596576051 a61.182189229320684,61.182189229320684 0 0,0 1.005761269121029,-0.312494922110893 l 11.591855707343466 38.473851022753934" fill="#30ff33" stroke="none" /><path d="M 94.28887869178378 79.79150937346287 l -7.306813960350028 -25.854761868769184 a47.86741970383325,47.86741970383325 0 0,0 0.7948319184828871,-0.21725758827104127 l 6.860684152643419 25.976705997866524" fill="#bdff1f" stroke="none" /><path d="M 95.33964822691252 79.52364482259891 l -3.8308111726074787 -16.83157280977094 a38.26200908037053,38.26200908037053 0 0,0 0.6434527092969954,-0.14063383984466324 l 3.5405157391569624 16.895020147711474" fill="#ffc912" stroke="none" /><path d="M 95.692805502759 79.44645832069477 l -3.359751790219241 -16.03243097023478 a37.38068298048725,37.38068298048725 0 0,0 0.6309033183497524,-0.12655327043069456 l 3.0832820624023523 16.087888196742686" fill="#ffbd11" stroke="none" /><path d="M 96.04723909329186 79.375362276772 l -3.0223848927516497 -15.770140148717772 a37.05715201242529,37.05715201242529 0 0,0 0.6275097168404843,-0.11467338981143119 l 2.750480054808272 15.81982901987994" fill="#ffb911" stroke="none" /><path d="M 97.11714578562143 79.19881850522333 l -2.4191452160245026 -17.45529775656508 a38.62213617432802,38.62213617432802 0 0,0 0.6593079510504984,-0.08559709431125145 l 2.1183225364661467 17.49435317404047" fill="#ffce13" stroke="none" /><path d="M 97.83486435360386 79.11191278185805 l -1.861262078478705 -17.956475242461547 a39.05268123182585,39.05268123182585 0 0,0 0.6692418426232781,-0.06355257696761318 l 1.5518951087651907 17.98585336394434" fill="#ffd313" stroke="none" /><path d="M 98.19473922651362 79.07773832637324 l -1.7606151815478694 -20.4048368390376 a41.48065263230747,41.48065263230747 0 0,0 0.7119063885874632,-0.05525763722096558 l 1.4091186035980718 20.432119738447028" fill="#fff316" stroke="none" /><path d="M 98.55514903715128 79.0497635885617 l -1.1280553062071117 -16.356721875051235 a37.395574380656555,37.395574380656555 0 0,0 0.6425591639038856,-0.03876092351964124 l 0.8463340934636031 16.373716067951182" fill="#ffbe11" stroke="none" /><path d="M 98.91598698831166 79.02799685794201 l -1.349267378505957 -26.103782331386668 a47.13862992704696,47.13862992704696 0 0,0 0.8106927784171418,-0.03491013637620577 l 0.8997337676994911 26.123140194287064" fill="#c6ff1e" stroke="none" /></svg>