<?xml version="1.0" encoding="utf-8" ?>
<svg baseProfile="full" height="200mm" version="1.1" viewBox="0,0,200,200" width="200mm" xmlns="http://www.w3.org/2000/svg" xmlns:ev="http://www.w3.org/2001/xml-events" xmlns:xlink="http://www.w3.org/1999/xlink"><defs /><rect fill="#1a1a1a" height="200" width="200" x="0" y="0" /><rect fill="#1a1a1a" height="200" width="180" x="10" y="0" /><text alignment-baseline="middle" fill="#e1ed5e" style="dominant-baseline: central; font-size:9.0px; font-family:Arial;" text-anchor="middle" x="100.0" y="100.0">2026</text><line stroke="#e1ed5e" stroke-width="0.3" x1="100.0" x2="100.0" y1="15.0" y2="10.0" /><path d="M 100.0 14.0 a86.0,86.0 0 0,1 42.46469731375804,11.215312516191453" fill="none" id="id121" stroke="none" /><text fill="#e1ed5e" style="font-size:6.75px; font-family:Arial;" text-anchor="middle"><textPath startOffset="22.20632615414155" xlink:href="#id121">January</textPath></text><path d="M 100.0 79.0 l 0.0 -45.375773673942945 a66.37577367394294,66.37577367394294 0 0,0 1.1425498323686556,0.009834287123052555 l -0.7810693530961272 45.369050763428454" fill="#54ff2b" stroke="none" /><path d="M 100.36148047927253 79.00311137660856 l 0.48903620287677185 -28.406066920333977 a49.410276209326376,49.410276209326376 0 0,0 0.850264655700726,0.02195982753166978 l -0.9779274937723657 28.393440300659947" fill="#ff6f0a" stroke="none" /><path d="M 101.08401301168833 79.027996857942 l 1.4850508703613892 -28.73073587080664 a49.76909035346124,49.76909035346124 0 0,0 0.8551703140123423,0.05158620871005226 l -1.9793832332133432 28.700916392716284" fill="#ff760a" stroke="none" /><path d="M 101.44485096284872 79.0497635885617 l 2.0945438368079836 -30.370736971189512 a51.442877295970035,51.442877295970035 0 0,0 0.8828817935665181,0.068528619267893 l -2.6170158197368427 30.330183089733154" fill="#ff990e" stroke="none" /><path d="M 101.80526077348638 79.07773832637324 l 2.3598683006957946 -27.349944577315636 a48.45156547045843,48.45156547045843 0 0,0 0.8303095698076163,0.07884789844476715 l -2.830302997593655 27.305271134355692" fill="#ff5a08" stroke="none" /><path d="M 102.52436894288641 79.15227682838746 l 3.3698451062632695 -27.830162506380994 a49.03344076583859,49.03344076583859 0 0,0 0.8370364916731473,0.10867135972733834 l -3.848396326444263 27.76803282348952" fill="#ff6709" stroke="none" /><path d="M 102.88285421437855 79.19881850522331 l 3.884174750026131 -28.026191379968544 a49.29406681188414,49.29406681188414 0 0,0 0.8394803510834328,0.1237175818630483 l -4.36602408153822 27.955179313944527" fill="#ff6c0a" stroke="none" /><path d="M 103.95276090670814 79.375362276772 l 5.290425583065418 -27.60427802937651 a49.10666768532107,49.10666768532107 0 0,0 0.828812026038716,0.16625189536464388 l -5.764804018571259 27.509122177934657" fill="#ff6809" stroke="none" /><path d="M 105.36241919743992 79.69619591428918 l 7.786362554005095 -29.48161529637771 a51.49250862598919,51.49250862598919 0 0,0 0.8550260212880336,0.23371091041309255 l -8.292686464516839 29.343217845138327" fill="#ff9a0e" stroke="none" /><path d="M 106.0581310904928 79.89281104454417 l 8.677051062484884 -28.79949322379721 a51.07826499465206,51.07826499465206 0 0,0 0.8396649625100941,0.26088799113148814 l -9.171501397705695 28.6458650977832" fill="#ff920d" stroke="none" /><path d="M 106.40334571778207 80.00007090966166 l 9.195939129970975 -28.72219283861984 a51.15840940668119,51.15840940668119 0 0,0 0.8363600350508927,0.2757347539792143 l -9.688981987264286 28.55964436038139" fill="#ff930d" stroke="none" /><path d="M 106.74666289553966 80.11325718540242 l 9.718002392694842 -28.645186108666216 a51.24873977051848,51.24873977051848 0 0,0 0.8329579596550559,0.29060267656537625 l -10.209642356413172 28.473662578928632" fill="#ff950d" stroke="none" /><path d="M 107.08798089147638 80.2323363322302 l 9.321204778136316 -25.995899799079115 a48.616510729628985,48.616510729628985 0 0,0 0.7853133189884441,0.28923752291517135 l -9.767300422897337 25.83159900835762" fill="#ff5e08" stroke="none" /><path d="M 107.4271985657038 80.35727306442388 l 9.781552181765779 -25.86929066360663 a48.656806802716254,48.656806802716254 0 0,0 0.7808649061844811,0.3029634521353917 l -10.225400252949926 25.697084507580694" fill="#ff5e08" stroke="none" /><path d="M 107.76421540070413 80.48803036053334 l 10.321313145273447 -25.93811973734521 a48.916223966569184,48.916223966569184 0 0,0 0.779669009544658,0.3180465653162341 l -10.766266024406491 25.7566122858454" fill="#ff6409" stroke="none" /><path d="M 108.43124777332544 80.76684994638697 l 11.95185704121821 -27.26427523816155 a50.7689030868782,50.7689030868782 0 0,0 0.7973567649466433,0.3577507380397377 l -12.419395924631633 27.054504169605277" fill="#ff8b0c" stroke="none" /><path d="M 108.76106565485865 80.91482961587045 l 11.303828470841074 -24.624343756553802 a48.09492283692883,48.09492283692883 0 0,0 0.7494146037194127,0.3518602049990134 l -11.726021285860085 24.426118568914784" fill="#ff5207" stroke="none" /><path d="M 109.08828744355905 81.06846463323043 l 11.965015242860954 -24.923959617352654 a48.64715813188258,48.64715813188258 0 0,0 0.751780980575382,0.36889566221938797 l -12.392267490446768 24.714308794998434" fill="#ff5e08" stroke="none" /><path d="M 109.73455568895987 81.39251694778311 l 10.84872485755708 -20.737203666531904 a44.403556288355006,44.403556288355006 0 0,0 0.6742044702048072,0.36013667880398426 l -11.2040743742902 20.547388261226164" fill="#ff0000" stroke="none" /><path d="M 110.05341064243156 81.56283822128135 l 12.742656995707648 -23.369027375545436 a47.617414370844685,47.617414370844685 0 0,0 0.7162473400202348,0.39859086925671944 l -13.143028424799917 23.146221108728536" fill="#ff4806" stroke="none" /><path d="M 110.36928655335952 81.73862282372117 l 15.021093448728001 -26.453686245027267 a51.420893549430204,51.420893549430204 0 0,0 0.7659344534197281,0.4436786730688368 l -15.474224634613057 26.19120341456838" fill="#ff990e" stroke="none" /><line stroke="#e1ed5e" stroke-width="0.3" x1="143.23703022742887" x2="145.7803849466894" y1="26.81831364943548" y2="22.513508569990506" /><path d="M 143.74570117128098 25.957352633546492 a86.0,86.0 0 0,1 28.547481713284135,27.462654790039103" fill="none" id="id122" stroke="none" /><text fill="#e1ed5e" style="font-size:6.75px; font-family:Arial;" text-anchor="middle"><textPath startOffset="19.985693538727396" xlink:href="#id122">February</textPath></text><path d="M 110.99172775467656 82.1063720568725 l 14.122321741380212 -22.989977242284226 a47.981086430457296,47.981086430457296 0 0,0 0.7000231395553907,0.4383544257693394 l -14.515964033307865 22.743478475191942" fill="#ff5007" stroke="none" /><path d="M 111.2981086023043 82.29822771554956 l 14.799736588035074 -23.188090694916337 a48.508539640462374,48.508539640462374 0 0,0 0.6999850972433551,0.45528977859930075 l -15.19668871106271 22.92990199215751" fill="#ff5b08" stroke="none" /><path d="M 111.60114157652 82.49532879139004 l 16.541375197964737 -24.958865665829144 a50.94264632200614,50.94264632200614 0 0,0 0.7267703663133755,0.4907185955678004 l -16.968550258684655 24.670435157962675" fill="#ff8f0d" stroke="none" /><path d="M 111.90073688211348 82.69761687909136 l 15.85960306117801 -23.058145981066733 a48.985801852766535,48.985801852766535 0 0,0 0.6906271681490318,0.4838284663631555 l -16.25416136891069 22.78173267193964" fill="#ff6609" stroke="none" /><path d="M 112.19680574252982 82.90503203632743 l 17.37972331013696 -24.3593133707367 a50.92375194106965,50.92375194106965 0 0,0 0.7091852268573173,0.5152532275449676 l -17.796453853348066 24.05654090837506" fill="#ff8e0d" stroke="none" /><path d="M 112.48926042617603 83.11751280151076 l 18.209945889425228 -24.61548305286898 a51.61901590877595,51.61901590877595 0 0,0 0.7097709229936321,0.5345847441044055 l -18.630962966177243 24.298381719258728" fill="#ff9d0e" stroke="none" /><path d="M 113.06298171725822 83.55741782278167 l 16.902393672411016 -21.275310872030015 a48.17222413713457,48.17222413713457 0 0,0 0.6448118327875293,0.5213929917903053 l -17.266108903763037 20.98121178297558" fill="#ff5407" stroke="none" /><path d="M 113.34407831869373 83.78471172551755 l 19.234156205077056 -23.372718604688238 a51.26940270132934,51.26940270132934 0 0,0 0.676615644918157,0.5666461441947015 l -19.63362938695433 23.03817130309972" fill="#ff960d" stroke="none" /><path d="M 113.6212207817346 84.01681056812373 l 17.85767760609882 -20.95426309911884 a48.53139646858577,48.53139646858577 0 0,0 0.6311535874239668,0.5473301715233359 l -18.215724992169555 20.643767934175834" fill="#ff5c08" stroke="none" /><path d="M 114.16331599549186 84.49514656593476 l 18.868488978766276 -20.65569646480847 a48.97637704900557,48.97637704900557 0 0,0 0.617550405850842,0.5739457991637859 l -19.221247268411965 20.327846079570044" fill="#ff6509" stroke="none" /><path d="M 114.42810811169701 84.74124197986012 l 18.74134939316663 -19.820319694540306 a48.277889395452306,48.277889395452306 0 0,0 0.5989142452638888,0.5761550294247264 l -19.079746882042937 19.494781578353276" fill="#ff5608" stroke="none" /><path d="M 114.68862486808459 84.99185889309783 l 19.302176852070833 -19.722049985475312 a48.595892572232664,48.595892572232664 0 0,0 0.5927870445676541,0.5902414286111781 l -19.638799696805812 19.386872706214017" fill="#ff5d08" stroke="none" /><path d="M 115.4437574822437 85.77008943001954 l 35.19115138265253 -32.425200771608964 a68.85196736515562,68.85196736515562 0 0,0 0.7955889398691517,0.8785091784048294 l -35.74408396313772 31.81463880593459" fill="#30ff31" stroke="none" /><path d="M 115.68641384162765 86.03803664274999 l 21.042788750114067 -18.729497285337477 a49.170783214944365,49.170783214944365 0 0,0 0.5572879275907872,0.637076438195408 l -21.362068541282703 18.36450529093912" fill="#ff6a09" stroke="none" /><path d="M 115.9244219780498 86.31012108654704 l 21.239824580188746 -18.259414818733354 a49.00957653588803,49.00957653588803 0 0,0 0.544448287776833,0.644455044897753 l -21.550983481452693 17.891100824206497" fill="#ff6609" stroke="none" /><path d="M 116.15771136456269 86.58626213691792 l 21.79827798966757 -18.09639869302778 a49.33098249217353,49.33098249217353 0 0,0 0.536771613657806,0.6580185297544489 l -22.106548095401788 17.71849599366523" fill="#ff6d0a" stroke="none" /><path d="M 116.60985879189232 87.15038557335679 l 21.158123610559922 -16.36821443176021 a47.75041379873995,47.75041379873995 0 0,0 0.49734116009709106,0.6544426690122727 l -21.43674071088113 16.001586986866904" fill="#ff4b07" stroke="none" /><path d="M 117.04232023915458 87.72973835380427 l 22.211360365277592 -15.991907168470016 a48.369428641482216,48.369428641482216 0 0,0 0.48067092117971216,0.6798749299551383 l -22.483343906261187 15.607205738183085" fill="#ff5808" stroke="none" /><path d="M 117.65298651832404 88.62581576622439 l 29.1024459599596 -18.75130769847241 a55.620281646098135,55.620281646098135 0 0,0 0.5116335001454158,0.8092813281792214 l -29.42090705635097 18.24757872257898" fill="#ffed16" stroke="none" /><line stroke="#e1ed5e" stroke-width="0.3" x1="172.23445277983987" x2="176.4835382374775" y1="55.19839476539836" y2="52.563006222186495" /><path d="M 173.08426987136738 54.67131705675599 a86.0,86.0 0 0,1 12.851231095245387,41.99856678651699" fill="none" id="id123" stroke="none" /><text fill="#e1ed5e" style="font-size:6.75px; font-family:Arial;" text-anchor="middle"><textPath startOffset="22.20632615414155" xlink:href="#id123">March</textPath></text><path d="M 117.84615892207809 88.93136811851018 l 27.63501017397474 -17.13992103244893 a53.51877427447524,53.51877427447524 0 0,0 0.47882534196474075,0.787062963543512 l -27.925951314225706 16.66169029569834" fill="#ffc312" stroke="none" /><path d="M 118.03404312379186 89.2402003453031 l 24.077011515661436 -14.365265648642637 a49.03682115863647,49.03682115863647 0 0,0 0.4262474903446592,0.7285951311530806 l -24.320718680476425 13.948691105135662" fill="#ff6709" stroke="none" /><path d="M 118.3937258080291 89.86733742301442 l 30.32469598179105 -16.705148012972558 a55.62151291499803,55.62151291499803 0 0,0 0.45475063222479617,0.8425838568609582 l -30.60775471323431 16.18068317277914" fill="#ffed16" stroke="none" /><path d="M 118.56541770881063 90.18545643968196 l 27.81679683946112 -14.70525299087916 a52.464561842390474,52.464561842390474 0 0,0 0.41519596531395253,0.8020264507650667 l -28.065802237935188 14.224253817853748" fill="#ffae10" stroke="none" /><path d="M 118.73160827565052 90.50648371742162 l 30.313978626698898 -15.363670083598572 a54.98499166717007,54.98499166717007 0 0,0 0.4206089690081506,0.8479220156132461 l -30.573947608660454 14.839588479486377" fill="#ffe015" stroke="none" /><path d="M 119.04729006885535 91.15688171328212 l 32.941536785609514 -15.293824228452007 a57.31867157989745,57.31867157989745 0 0,0 0.4077750823226443,0.8984783412624853 l -33.19991418489551 14.724523878347458" fill="#f1ff19" stroke="none" /><path d="M 119.34039704204932 91.81776055985345 l 29.06354134062543 -12.2957586501749 a52.55748906427117,52.55748906427117 0 0,0 0.3453235086945363,0.8362282671188299 l -29.270886536206163 11.793655812602767" fill="#ffb010" stroke="none" /><path d="M 119.47837535516314 92.15188598940014 l 31.773332805544005 -12.801926947595438 a55.25542309100019,55.25542309100019 0 0,0 0.347863016030755,0.885273432565308 l -31.98898937145646 12.253104510134346" fill="#ffe615" stroke="none" /><path d="M 119.61058180528143 92.48833698450437 l 29.832854622328313 -11.42721582349227 a52.946525263221474,52.946525263221474 0 0,0 0.31867608800257013,0.8538934800640477 l -30.025135298832506 10.91199920639889" fill="#ffb811" stroke="none" /><path d="M 119.97218684219823 93.5106431181261 l 55.9319667081716 -18.173397632528147 a79.81035012099483,79.81035012099483 0 0,0 0.41328275781893664,1.3102192819839136 l -56.236504949758746 17.207928184117815" fill="#45ffee" stroke="none" /><path d="M 120.08093135843002 93.85539295169968 l 28.18254824663627 -8.62363809249552 a50.472413535784966,50.472413535784966 0 0,0 0.24706030809610427,0.8329645386418925 l -28.326814451844076 8.137244167107099" fill="#ff850c" stroke="none" /><path d="M 120.28053869075195 94.5502522615342 l 58.74450155571677 -15.785710595870658 a81.82848939474161,81.82848939474161 0 0,0 0.3538250949787892,1.3634324252932417 l -59.00752298256585 14.772181745028567" fill="#49f1ff" stroke="none" /><path d="M 120.37134235888165 94.90015583598534 l 57.92343345291195 -14.500786391513023 a80.71094496778801,80.71094496778801 0 0,0 0.3257924187248808,1.3506199061145545 l -58.16445867189765 13.501581253739062" fill="#47fffc" stroke="none" /><path d="M 120.45610955862082 95.25157060432595 l 59.93583330041701 -13.912766348964942 a82.52941719938738,82.52941719938738 0 0,0 0.30931087481154124,1.3865800020125023 l -60.16643856223059 12.879008177402476" fill="#4ae7ff" stroke="none" /><path d="M 120.6074358757038 95.95851677861258 l 61.822307627111385 -12.124449664162288 a84.0,84.0 0 0,0 0.26605710436056285,1.4212876901497489 l -62.02185045538181 11.058483896549978" fill="#4dd2ff" stroke="none" /><path d="M 120.67395015179393 96.31383870115 l 54.68877167832883 -9.750997374094307 a76.55127088981831,76.55127088981831 0 0,0 0.22013279749034612,1.2992362317912067 l -54.8485163373394 8.808175353987263" fill="#3fffba" stroke="none" /><path d="M 120.73433829027371 96.67025291283417 l 59.68918348136759 -9.585542690099846 a81.45395978210271,81.45395978210271 0 0,0 0.210399870200541,1.386272263109674 l -59.84533924500743 8.55667131459809" fill="#48f7ff" stroke="none" /><path d="M 120.78858239683441 97.02765380044208 l 54.306115065136886 -7.76467445664761 a75.85840229978999,75.85840229978999 0 0,0 0.17369407084067348,1.294222578299735 l -54.4317251350354 6.8287335362832104" fill="#3dffae" stroke="none" /><path d="M 120.87857604477298 97.74499172005257 l 61.47501175179598 -6.639660684372728 a82.83253321583274,82.83253321583274 0 0,0 0.14090553207103865,1.418899478641557 l -61.58019440954925 5.580485675026736" fill="#4be3ff" stroke="none" /><line stroke="#e1ed5e" stroke-width="0.3" x1="184.98032266829074" x2="189.97916517819016" y1="98.17113171792111" y2="98.06355123074" /><path d="M 185.9800911702706 98.14961562048488 a86.0,86.0 0 0,1 -9.607161424134198,41.387399972396054" fill="none" id="id124" stroke="none" /><text fill="#e1ed5e" style="font-size:6.75px; font-family:Arial;" text-anchor="middle"><textPath startOffset="21.466115282336823" xlink:href="#id124">April</textPath></text><line stroke="#e1ed5e" stroke-width="0.3" x1="174.80103733775053" x2="179.2010983576182" y1="140.37084112569926" y2="142.7455964860345" /><path d="M 175.68104954172406 140.8457921977663 a86.0,86.0 0 0,1 -30.038265399797805,32.042727171017184" fill="none" id="id125" stroke="none" /><text fill="#e1ed5e" style="font-size:6.75px; font-family:Arial;" text-anchor="middle"><textPath startOffset="22.206326154141568" xlink:href="#id125">May</textPath></text><line stroke="#e1ed5e" stroke-width="0.3" x1="143.8653032363475" x2="146.44561519142675" y1="172.8068346515853" y2="177.08958963109032" /><path d="M 144.38136562736335 173.6633856474863 a86.0,86.0 0 0,1 -40.68145358897372,12.25698825130547" fill="none" id="id126" stroke="none" /><text fill="#e1ed5e" style="font-size:6.75px; font-family:Arial;" text-anchor="middle"><textPath startOffset="21.466115282336833" xlink:href="#id126">June</textPath></text><line stroke="#e1ed5e" stroke-width="0.3" x1="102.19456741930631" x2="102.32365962044197" y1="184.97166512339345" y2="189.96999836594603" /><path d="M 102.22038585953345 185.97133177190398 a86.0,86.0 0 0,1 -42.740103519485714,-10.115201625700543" fill="none" id="id127" stroke="none" /><text fill="#e1ed5e" style="font-size:6.75px; font-family:Arial;" text-anchor="middle"><textPath startOffset="22.20632615414155" xlink:href="#id127">July</textPath></text><line stroke="#e1ed5e" stroke-width="0.3" x1="58.666819895761336" x2="56.23545636021788" y1="174.27360380694188" y2="178.64263932499728" /><path d="M 58.180547188652646 175.14741091055294 a86.0,86.0 0 0,1 -31.652253787137756,-30.449443065178592" fill="none" id="id128" stroke="none" /><text fill="#e1ed5e" style="font-size:6.75px; font-family:Arial;" text-anchor="middle"><textPath startOffset="22.20632615414155" xlink:href="#id128">August</textPath></text><line stroke="#e1ed5e" stroke-width="0.3" x1="26.63291911575756" x2="22.317208475507996" y1="142.92168965132927" y2="145.44649492493687" /><path d="M 25.769776987707644 143.4266507060508 a86.0,86.0 0 0,1 -11.730757126820373,-40.83630448921669" fill="none" id="id129" stroke="none" /><text fill="#e1ed5e" style="font-size:6.75px; font-family:Arial;" text-anchor="middle"><textPath startOffset="21.46611528233685" xlink:href="#id129">September</textPath></text><line stroke="#e1ed5e" stroke-width="0.3" x1="15.007084014347285" x2="10.007500721073583" y1="101.09737516637583" y2="101.16192664675087" /><path d="M 14.007167355692545 101.11028546245083 a86.0,86.0 0 0,1 10.666146001902534,-42.60595125391555" fill="none" id="id130" stroke="none" /><text fill="#e1ed5e" style="font-size:6.75px; font-family:Arial;" text-anchor="middle"><textPath startOffset="22.20632615414155" xlink:href="#id130">October</textPath></text><line stroke="#e1ed5e" stroke-width="0.3" x1="26.266209847984243" x2="21.928928074336255" y1="57.711370442889674" y2="55.22380399835377" /><path d="M 25.398753493254645 57.213857153982495 a86.0,86.0 0 0,1 29.58750427330803,-30.492523968695096" fill="none" id="id131" stroke="none" /><text fill="#e1ed5e" style="font-size:6.75px; font-family:Arial;" text-anchor="middle"><textPath startOffset="21.46611528233685" xlink:href="#id131">November</textPath></text><line stroke="#e1ed5e" stroke-width="0.3" x1="56.762969772571076" x2="54.21961505331055" y1="26.818313649435495" y2="22.513508569990535" /><path d="M 56.25429882871897 25.957352633546506 a86.0,86.0 0 0,1 42.265352541879196,-11.944610805530505" fill="none" id="id132" stroke="none" /><text fill="#e1ed5e" style="font-size:6.75px; font-family:Arial;" text-anchor="middle"><textPath startOffset="22.20632615414155" xlink:href="#id132">December</textPath></text></svg>