<?xml version="1.0" encoding="utf-8" ?>
<svg baseProfile="full" height="200mm" version="1.1" viewBox="0,0,200,200" width="200mm" xmlns="http://www.w3.org/2000/svg" xmlns:ev="http://www.w3.org/2001/xml-events" xmlns:xlink="http://www.w3.org/1999/xlink"><defs /><rect fill="#1a1a1a" height="200" width="200" x="0" y="0" /><text alignment-baseline="middle" fill="#e1ed5e" style="dominant-baseline: central; font-size:9.0px; font-family:Arial;" text-anchor="middle" x="100.0" y="100.0">2025</text><line stroke="#e1ed5e" stroke-width="0.3" x1="100.0" x2="100.0" y1="15.0" y2="10.0" /><path d="M 100.0 14.0 a86.0,86.0 0 0,1 42.46469731375804,11.215312516191453" fill="none" id="id109" stroke="none" /><text fill="#e1ed5e" style="font-size:6.75px; font-family:Arial;" text-anchor="middle"><textPath startOffset="22.20632615414155" xlink:href="#id109">January</textPath></text><path d="M 100.36148047927253 79.00311137660856 l 0.9360471742460961 -54.37106397401864 a75.37912082756802,75.37912082756802 0 0,0 1.2971431680719465,0.03350138108618475 l -1.8718169775129103 54.346895800790094" fill="red" stroke="none" /><path d="M 100.72285384407766 79.0124445844662 l 1.8436352590036962 -53.52865932911193 a74.56039918204833,74.56039918204833 0 0,0 1.28229389072894,0.05521827231163907 l -2.764769982121968 53.488993330276095" fill="red" stroke="none" /><path d="M 101.08401301168833 79.027996857942 l 3.2520390350649873 -62.916009426173986 a84.0,84.0 0 0,0 1.4433518046415523,0.08706692247878367 l -4.334552888546152 62.8507092343149" fill="red" stroke="none" /><path d="M 101.44485096284872 79.0497635885617 l 3.7810898315899784 -54.82553419109264 a75.95576257002737,75.95576257002737 0 0,0 1.3035810478429781,0.10118297824627409 l -4.724261068795298 54.752325950657905" fill="red" stroke="none" /><path d="M 101.80526077348638 79.07773832637324 l 4.650808192763092 -53.901036034210904 a75.1013096182262,75.1013096182262 0 0,0 1.2870035359150178,0.12221649344761377 l -5.577936855768354 53.81299399624811" fill="red" stroke="none" /><path d="M 102.16513564639614 79.11191278185805 l 5.840830178468793 -56.34925017159409 a77.65115437548125,77.65115437548125 0 0,0 1.328327626789493,0.14925308610826113 l -6.809924508768011 56.24036113201523" fill="red" stroke="none" /><path d="M 102.52436894288641 79.15227682838746 l 6.646552052953466 -54.89113532162568 a76.29207349240615,76.29207349240615 0 0,0 1.3023611751725988,0.16908385855340474 l -7.590427956633912 54.76859313990814" fill="red" stroke="none" /><path d="M 102.88285421437855 79.19881850522331 l 7.580583765887037 -54.69756256285932 a76.22036400232743,76.22036400232743 0 0,0 1.298036499535778,0.19129683819911333 l -8.52098924585147 54.55897124049923" fill="red" stroke="none" /><path d="M 103.2404852339499 79.25152402106235 l 8.54248824134315 -54.69662698009557 a76.3596884777471,76.3596884777471 0 0,0 1.2969176527783925,0.21400252512769047 l -9.482735100260417 54.54147819202826" fill="red" stroke="none" /><path d="M 103.59715602781102 79.31037775812273 l 9.366181916144669 -53.8711037818556 a75.67925736841872,75.67925736841872 0 0,0 1.281519673881854,0.2341895291342983 l -10.292096711129423 53.701898771370566" fill="red" stroke="none" /><path d="M 104.307194497241 79.44645832069477 l 12.2612391839775 -58.50952186376526 a80.7804494383668,80.7804494383668 0 0,0 1.3584858793003474,0.29691239592337776 l -13.266567787431375 58.28979596974601" fill="red" stroke="none" /><path d="M 105.01212808612495 79.60689891045804 l 13.877341457884489 -56.4634467319706 a79.14379952146919,79.14379952146919 0 0,0 1.3201604518126202,0.33653829376566613 l -14.847210798382134 56.21620544203607" fill="red" stroke="none" /><path d="M 105.36241919743992 79.69619591428918 l 14.425105534612964 -54.61798227753448 a77.49077497922818,77.49077497922818 0 0,0 1.2867236571879677,0.3517101817772158 l -15.363127081024643 54.36158555493097" fill="red" stroke="none" /><path d="M 105.71112130821622 79.79150937346287 l 14.941981051657626 -52.87138334636943 a75.94220576848772,75.94220576848772 0 0,0 1.2548899185393152,0.3663367785689277 l -15.849861187920368 52.60634823888179" fill="red" stroke="none" /><path d="M 106.0581310904928 79.89281104454417 l 16.91111853600092 -56.12870549881455 a79.62096477465488,79.62096477465488 0 0,0 1.3088724609093103,0.4066730448691935 l -17.87477636962095 55.82929231906284" fill="red" stroke="none" /><path d="M 106.74666289553966 80.11325718540242 l 17.824864326525585 -52.541307911065466 a76.48256325427327,76.48256325427327 0 0,0 1.2430892959072601,0.4336894466438827 l -18.72663562649612 52.22669761124938" fill="red" stroke="none" /><path d="M 107.08798089147638 80.2323363322302 l 20.65395807823935 -57.6018055000442 a82.19276085586097,82.19276085586097 0 0,0 1.3276779607550464,0.4889949976813095 l -21.64241836476697 57.237747234556565" fill="red" stroke="none" /><path d="M 107.4271985657038 80.35727306442388 l 19.399256305168134 -51.30525203880315 a75.85034213164691,75.85034213164691 0 0,0 1.2172782018523833,0.4722850307671947 l -20.279517672020184 50.96372430414541" fill="red" stroke="none" /><path d="M 107.76421540070413 80.48803036053334 l 19.18063436347164 -48.20216030222819 a72.87817452828205,72.87817452828205 0 0,0 1.1615952652175576,0.4738438746023845 l -20.007513498277586 47.864855541442225" fill="red" stroke="none" /><line stroke="#e1ed5e" stroke-width="0.3" x1="143.23703022742887" x2="145.7803849466894" y1="26.81831364943548" y2="22.513508569990506" /><path d="M 143.74570117128098 25.957352633546492 a86.0,86.0 0 0,1 28.547481713284135,27.462654790039103" fill="none" id="id110" stroke="none" /><text fill="#e1ed5e" style="font-size:6.75px; font-family:Arial;" text-anchor="middle"><textPath startOffset="19.985693538727396" xlink:href="#id110">February</textPath></text><line stroke="#e1ed5e" stroke-width="0.3" x1="172.23445277983987" x2="176.4835382374775" y1="55.19839476539836" y2="52.563006222186495" /><path d="M 173.08426987136738 54.67131705675599 a86.0,86.0 0 0,1 12.851231095245387,41.99856678651699" fill="none" id="id111" stroke="none" /><text fill="#e1ed5e" style="font-size:6.75px; font-family:Arial;" text-anchor="middle"><textPath startOffset="22.20632615414155" xlink:href="#id111">March</textPath></text><line stroke="#e1ed5e" stroke-width="0.3" x1="184.98032266829074" x2="189.97916517819016" y1="98.17113171792111" y2="98.06355123074" /><path d="M 185.9800911702706 98.14961562048488 a86.0,86.0 0 0,1 -9.607161424134198,41.387399972396054" fill="none" id="id112" stroke="none" /><text fill="#e1ed5e" style="font-size:6.75px; font-family:Arial;" text-anchor="middle"><textPath startOffset="21.466115282336823" xlink:href="#id112">April</textPath></text><line stroke="#e1ed5e" stroke-width="0.3" x1="174.80103733775053" x2="179.2010983576182" y1="140.37084112569926" y2="142.7455964860345" /><path d="M 175.68104954172406 140.8457921977663 a86.0,86.0 0 0,1 -30.038265399797805,32.042727171017184" fill="none" id="id113" stroke="none" /><text fill="#e1ed5e" style="font-size:6.75px; font-family:Arial;" text-anchor="middle"><textPath startOffset="22.206326154141568" xlink:href="#id113">May</textPath></text><line stroke="#e1ed5e" stroke-width="0.3" x1="143.8653032363475" x2="146.44561519142675" y1="172.8068346515853" y2="177.08958963109032" /><path d="M 144.38136562736335 173.6633856474863 a86.0,86.0 0 0,1 -40.68145358897372,12.25698825130547" fill="none" id="id114" stroke="none" /><text fill="#e1ed5e" style="font-size:6.75px; font-family:Arial;" text-anchor="middle"><textPath startOffset="21.466115282336833" xlink:href="#id114">June</textPath></text><line stroke="#e1ed5e" stroke-width="0.3" x1="102.19456741930631" x2="102.32365962044197" y1="184.97166512339345" y2="189.96999836594603" /><path d="M 102.22038585953345 185.97133177190398 a86.0,86.0 0 0,1 -42.740103519485714,-10.115201625700543" fill="none" id="id115" stroke="none" /><text fill="#e1ed5e" style="font-size:6.75px; font-family:Arial;" text-anchor="middle"><textPath startOffset="22.20632615414155" xlink:href="#id115">July</textPath></text><line stroke="#e1ed5e" stroke-width="0.3" x1="58.666819895761336" x2="56.23545636021788" y1="174.27360380694188" y2="178.64263932499728" /><path d="M 58.180547188652646 175.14741091055294 a86.0,86.0 0 0,1 -31.652253787137756,-30.449443065178592" fill="none" id="id116" stroke="none" /><text fill="#e1ed5e" style="font-size:6.75px; font-family:Arial;" text-anchor="middle"><textPath startOffset="22.20632615414155" xlink:href="#id116">August</textPath></text><line stroke="#e1ed5e" stroke-width="0.3" x1="26.63291911575756" x2="22.317208475507996" y1="142.92168965132927" y2="145.44649492493687" /><path d="M 25.769776987707644 143.4266507060508 a86.0,86.0 0 0,1 -11.730757126820373,-40.83630448921669" fill="none" id="id117" stroke="none" /><text fill="#e1ed5e" style="font-size:6.75px; font-family:Arial;" text-anchor="middle"><textPath startOffset="21.46611528233685" xlink:href="#id117">September</textPath></text><line stroke="#e1ed5e" stroke-width="0.3" x1="15.007084014347285" x2="10.007500721073583" y1="101.09737516637583" y2="101.16192664675087" /><path d="M 14.007167355692545 101.11028546245083 a86.0,86.0 0 0,1 10.666146001902534,-42.60595125391555" fill="none" id="id118" stroke="none" /><text fill="#e1ed5e" style="font-size:6.75px; font-family:Arial;" text-anchor="middle"><textPath startOffset="22.20632615414155" xlink:href="#id118">October</textPath></text><line stroke="#e1ed5e" stroke-width="0.3" x1="26.266209847984243" x2="21.928928074336255" y1="57.711370442889674" y2="55.22380399835377" /><path d="M 25.398753493254645 57.213857153982495 a86.0,86.0 0 0,1 29.58750427330803,-30.492523968695096" fill="none" id="id119" stroke="none" /><text fill="#e1ed5e" style="font-size:6.75px; font-family:Arial;" text-anchor="middle"><textPath startOffset="21.46611528233685" xlink:href="#id119">November</textPath></text><line stroke="#e1ed5e" stroke-width="0.3" x1="56.762969772571076" x2="54.21961505331055" y1="26.818313649435495" y2="22.513508569990535" /><path d="M 56.25429882871897 25.957352633546506 a86.0,86.0 0 0,1 42.265352541879196,-11.944610805530505" fill="none" id="id120" stroke="none" /><text fill="#e1ed5e" style="font-size:6.75px; font-family:Arial;" text-anchor="middle"><textPath startOffset="22.20632615414155" xlink:href="#id120">December</textPath></text></svg>