<?xml version="1.0" encoding="utf-8" ?>
<svg baseProfile="full" height="200mm" version="1.1" viewBox="0,0,200,200" width="200mm" xmlns="http://www.w3.org/2000/svg" xmlns:ev="http://www.w3.org/2001/xml-events" xmlns:xlink="http://www.w3.org/1999/xlink"><defs /><rect fill="#1a1a1a" height="200" width="200" x="0" y="0" /><text alignment-baseline="middle" fill="#e1ed5e" style="dominant-baseline: central; font-size:9.0px; font-family:Arial;" text-anchor="middle" x="100.0" y="100.0">2024</text><line stroke="#e1ed5e" stroke-width="0.3" x1="100.0" x2="100.0" y1="15.0" y2="10.0" /><path d="M 100.0 14.0 a86.0,86.0 0 0,1 42.35913384403234,11.155469271406648" fill="none" id="id97" stroke="none" /><text fill="#e1ed5e" style="font-size:6.75px; font-family:Arial;" text-anchor="middle"><textPath startOffset="22.145653131862478" xlink:href="#id97">January</textPath></text><path d="M 100.36049292484886 79.00309439819443 l 0.12827365255030393 -7.47129718267505 a28.472398257707276,28.472398257707276 0 0,0 0.4886225356453868,0.01258518325476773 l -0.2565095022664321 7.467994282070237" fill="#ff2203" stroke="none" /><path d="M 101.08105385017728 79.02784411241856 l 0.37546560403185614 -7.283932411775545 a28.293603073867217,28.293603073867217 0 0,0 0.4848387078406401,0.029166692702973684 l -0.5004486640049586 7.27641374124788" fill="#ff2003" stroke="none" /><path d="M 101.44090949804482 79.04949213459386 l 0.5082367577597063 -7.389650915190285 a28.407107752038627,28.407107752038627 0 0,0 0.48620929975445243,0.03763567480351602 l -0.6350150522893923 7.379837473391715" fill="#ff2103" stroke="none" /><path d="M 101.80034050326958 79.07731436759882 l 0.6057056654822249 -7.039217971063613 a28.065229578530495,28.065229578530495 0 0,0 0.4796487214016402,0.0454232326056307 l -0.726453950268878 7.0277829829527985" fill="#ff1c02" stroke="none" /><path d="M 102.15924093988457 79.11130261209362 l 0.5399839660958158 -5.2238550380116395 a26.25168964637098,26.25168964637098 0 0,0 0.44785894869584764,0.05018352934574239 l -0.6295788163924602 5.213815748158926" fill="#ff0000" stroke="none" /><path d="M 102.87502721639298 79.19773525538626 l 1.016655846995732 -7.356015262317422 a28.425937627712575,28.425937627712575 0 0,0 0.48280087149366674,0.07095510194845742 l -1.1427818240970808 7.337479087070083" fill="#ff2203" stroke="none" /><path d="M 103.58742460773223 79.30868818359171 l 1.2303562172738967 -7.096367706794466 a28.202236531204726,28.202236531204726 0 0,0 0.47630255875218724,0.086798192677681 l -1.3519935095771376 7.074201340185419" fill="#ff1e03" stroke="none" /><path d="M 103.94208987418118 79.37332000966035 l 1.2877328781519433 -6.737962562610625 a27.85991220502244,27.85991220502244 0 0,0 0.4689798512987819,0.09380910480651956 l -1.403209214981682 6.714864061141246" fill="#ff1902" stroke="none" /><path d="M 104.29559338865022 79.4440306129975 l 1.5088033808769294 -7.220170370468355 a28.37613366342658,28.37613366342658 0 0,0 0.47595908320465785,0.10373306691161693 l -1.6325248807007213 7.193205845423019" fill="#ff2103" stroke="none" /><path d="M 104.9986988182912 79.60360301121754 l 1.7800552085271477 -7.263232696120124 a28.478177969491835,28.478177969491835 0 0,0 0.4738154591012206,0.12044203686259071 l -1.904475960853763 7.231605427422265" fill="#ff2303" stroke="none" /><path d="M 105.3480935250658 79.69241777938227 l 1.881466554256509 -7.144234962763907 a28.387828476485094,28.387828476485094 0 0,0 0.47018165386653715,0.12815010056626855 l -2.003829609057739 7.1108843680534966" fill="#ff2103" stroke="none" /><path d="M 106.04205211174951 79.88797359093562 l 2.1533125387343013 -7.167677114498413 a28.48413990430261,28.48413990430261 0 0,0 0.46708478050674246,0.14470405897065994 l -2.2760379521126737 7.129656467721106" fill="#ff2303" stroke="none" /><path d="M 106.72888874123014 80.10723608172694 l 5.1597400207658906 -15.253854545675976 a37.10288780258165,37.10288780258165 0 0,0 0.6015866255828736,0.20926305655092842 l -5.420832418393783 15.163033056556456" fill="#ffa10e" stroke="none" /><path d="M 108.07796709384702 80.6158196554323 l 6.727562692077589 -16.143701377782183 a38.489402332579594,38.489402332579594 0 0,0 0.607701704339849,0.25939172140564637 l -7.0036994715878675 16.025835006717134" fill="#ffb510" stroke="none" /><path d="M 108.73861861582097 80.90454125486305 l 6.105541584214683 -13.341710236330819 a35.672384607376856,35.672384607376856 0 0,0 0.5546398179726163,0.25959944021736303 l -6.333670116058805 13.234934564542922" fill="#ff8d0d" stroke="none" /><path d="M 109.06512990194946 81.05736502329252 l 4.585536763734166 -9.582008203656203 a31.62271286567101,31.62271286567101 0 0,0 0.4876519739083868,0.23853501699063343 l -4.74934898690462 9.501879436568348" fill="#ff5207" stroke="none" /><path d="M 109.3889696526874 81.21577127319529 l 4.145322817270049 -8.293422476209134 a30.271707373956026,30.271707373956026 0 0,0 0.4628295804776002,0.23632408158318707 l -4.287079619461228 8.221040442953113" fill="#ff3e05" stroke="none" /><path d="M 109.71004243097381 81.37971332152246 l 7.280640750991358 -13.96158862849265 a36.7459101603004,36.7459101603004 0 0,0 0.556807599386185,0.29646868436038304 l -7.519237166164102 13.834549476409693" fill="#ff9c0e" stroke="none" /><path d="M 110.34350942703115 81.72400993836675 l 5.717114024652369 -10.101592678275434 a32.60722048591585,32.60722048591585 0 0,0 0.4847723732304611,0.27988346018030047 l -5.889678865743227 10.001962320818961" fill="#ff6108" stroke="none" /><line stroke="#e1ed5e" stroke-width="0.3" x1="143.13028292997686" x2="145.6673583964461" y1="26.7553504044142" y2="22.446841604673864" /><path d="M 143.63769802327073 25.89364864446614 a86.0,86.0 0 0,1 29.32050498858742,28.57503671076993" fill="none" id="id98" stroke="none" /><text fill="#e1ed5e" style="font-size:6.75px; font-family:Arial;" text-anchor="middle"><textPath startOffset="20.669276256404974" xlink:href="#id98">February</textPath></text><path d="M 110.65571695917076 81.90426304109057 l 3.713713213507276 -6.306696931792727 a28.318885982283255,28.318885982283255 0 0,0 0.41678285847183816,0.25026613136815873 l -3.8214288285365483 6.242016799888647" fill="#ff2003" stroke="none" /><path d="M 111.27062007382361 82.28071324371311 l 10.603580588197177 -16.67058989256846 a40.75713766355334,40.75713766355334 0 0,0 0.587124749109712,0.38056716893293696 l -10.888190969563896 16.48610888193163" fill="#ffd413" stroke="none" /><path d="M 111.5731344415666 82.4767994020092 l 4.23439061462872 -6.411407084660503 a28.68350211052816,28.68350211052816 0 0,0 0.40854009293507043,0.27488400709176725 l -4.343826995660791 6.337773403511617" fill="#ff2603" stroke="none" /><path d="M 111.8722381534696 82.67804972795209 l 4.289866041968705 -6.259042759432225 a28.588054225059096,28.588054225059096 0 0,0 0.40241757917705606,0.2809187235897665 l -4.396678712319522 6.184479220037332" fill="#ff2403" stroke="none" /><path d="M 112.16784306229584 82.88440491214696 l 4.1680633769546205 -5.862903120563782 a28.193496042636493,28.193496042636493 0 0,0 0.39204934420934495,0.28381349122426786 l -4.268093731537933 5.79048885796644" fill="#ff1e03" stroke="none" /><path d="M 112.45986205192187 83.09580414077388 l 4.39613316030289 -5.964198933770402 a28.409295221861704,28.409295221861704 0 0,0 0.3900826363988319,0.2927252826119147 l -4.497868785612488 5.887854623894473" fill="#ff2203" stroke="none" /><path d="M 112.7482090630111 83.31218511350987 l 9.034117542828032 -11.825949862630983 a35.88181339525177,35.88181339525177 0 0,0 0.4862670124163424,0.37812417001467796 l -9.2357944998796 11.669124640995514" fill="#ff900d" stroke="none" /><path d="M 113.31354834802062 83.75963576809568 l 10.244721758447676 -12.496894776849011 a37.15941530413917,37.15941530413917 0 0,0 0.4898418992249086,0.4086435341642728 l -10.457737991834477 12.319189058772867" fill="#ffa20f" stroke="none" /><path d="M 113.59037401385872 83.9905735841838 l 4.829165326023685 -5.688744611292409 a28.462081009917934,28.462081009917934 0 0,0 0.36976379753130606,0.3193931615357919 l -4.926108603317851 5.605007317291897" fill="#ff2203" stroke="none" /><path d="M 114.65682725009322 84.96080404539774 l 7.071025355240778 -7.255494937811373 a31.131219391912527,31.131219391912527 0 0,0 0.3795163666922096,0.37627265655355224 l -7.194533642062949 7.133042271029161" fill="#ff4b07" stroke="none" /><path d="M 114.91283532996326 85.21462403516908 l 5.178890619237795 -5.134626862828472 a28.292825314410663,28.292825314410663 0 0,0 0.3389927753257217,0.34783645111772316 l -5.266270195714329 5.044967719643007" fill="#ff2003" stroke="none" /><path d="M 115.16444852881244 85.47280134310134 l 5.317472676245009 -5.0940185377444305 a28.36373142676294,28.36373142676294 0 0,0 0.33380622645695085,0.35449064479974535 l -5.40413473643822 5.00198643300019" fill="#ff2103" stroke="none" /><path d="M 115.6541949942343 86.00192230759917 l 8.533067146176755 -7.630321259614394 a32.447053657866924,32.447053657866924 0 0,0 0.36771617989115635,0.41839351198801816 l -8.662794390026502 7.482715469815078" fill="#ff5e08" stroke="none" /><path d="M 116.1254893667686 86.54754324733833 l 6.40337527789678 -5.3419234007551415 a29.33902635618302,29.33902635618302 0 0,0 0.31931084734035087,0.3895073145376923 l -6.4941329444757585 5.231213804518954" fill="#ff3004" stroke="none" /><path d="M 116.57777611688842 87.10902102172516 l 11.844769914449474 -9.210564727926249 a36.00443524207314,36.00443524207314 0 0,0 0.3752142599620295,0.49116751082985327 l -12.001136151765811 9.005876303855512" fill="#ff920d" stroke="none" /><path d="M 116.7966241395341 87.39550010848427 l 12.046094984543648 -9.039614250133488 a36.06064507807896,36.06064507807896 0 0,0 0.36729995974788304,0.49831293739775767 l -12.199496963875358 8.831495003466856" fill="#ff930d" stroke="none" /><path d="M 117.01052211995028 87.68569379921539 l 6.6041213383631465 -4.780874553659904 a29.152985965255688,29.152985965255688 0 0,0 0.28998183813856543,0.40789577076239686 l -6.685218275031672 4.666801556188004" fill="#ff2d04" stroke="none" /><path d="M 117.21940702142032 87.97951657250589 l 11.880421638671642 -8.293456983834949 a35.488818000628555,35.488818000628555 0 0,0 0.3444278731819589,0.5025305603241779 l -12.021039248668925 8.088291688440721" fill="#ff8b0c" stroke="none" /><path d="M 117.42321728460499 88.27688183743584 l 12.241276559883097 -8.23647718030453 a35.75426745579802,35.75426745579802 0 0,0 0.3382618641790075,0.512171575521476 l -12.38086286298283 8.025125726443994" fill="#ff8e0d" stroke="none" /><path d="M 117.81537515405839 88.88188828441811 l 6.145219200009514 -3.8350712792528747 a28.243720779621192,28.243720779621192 0 0,0 0.2531606216048261,0.413518849632151 l -6.210147786069742 3.729015313496169" fill="#ff1f03" stroke="none" /><line stroke="#e1ed5e" stroke-width="0.3" x1="172.87174338648825" x2="177.1583165268699" y1="56.24261187166439" y2="53.66864786411523" /><path d="M 173.72905801456457 55.72781907015455 a86.0,86.0 0 0,1 12.242430191666344,42.057860355516425" fill="none" id="id99" stroke="none" /><text fill="#e1ed5e" style="font-size:6.75px; font-family:Arial;" text-anchor="middle"><textPath startOffset="22.145653131862474" xlink:href="#id99">March</textPath></text><path d="M 118.18653347947321 89.5 l 7.582506498320104 -4.3777621679372 a29.755524335874398,29.755524335874398 0 0,0 0.2515994442069416,0.44455211012054896 l -7.656539307548422 4.246953287717533" fill="#ff3605" stroke="none" /><path d="M 118.36410011445183 89.81374322990088 l 8.13239836470315 -4.510904285171569 a30.299686050195763,30.299686050195763 0 0,0 0.24839199327316058,0.457013290649357 l -8.208635707591652 4.370636161047608" fill="#ff3e05" stroke="none" /><path d="M 118.70294669586156 90.45014215332178 l 12.846168152787811 -6.559344991385453 a35.423905259176976,35.423905259176976 0 0,0 0.27188705352635006,0.5439562369694266 l -12.956875119525899 6.3378568982522765" fill="#ff8a0c" stroke="none" /><path d="M 118.8641267826498 90.77261029715802 l 13.588971645519603 -6.647046983876647 a36.12757032667835,36.12757032667835 0 0,0 0.2677237763020548,0.5594397238571212 l -13.70107467978157 6.412794757954423" fill="#ff940d" stroke="none" /><path d="M 119.0197475246899 91.09779779509293 l 6.91213140628211 -3.235226512115086 a28.631792133070963,28.631792133070963 0 0,0 0.2045339818572176,0.4469436628647424 l -6.9666498529943786 3.116093867035659" fill="#ff2503" stroke="none" /><path d="M 119.31412917781788 91.75594674310238 l 6.741199275994957 -2.8774171144350245 a28.32961778874714,28.32961778874714 0 0,0 0.18707551530755867,0.4489131342880534 l -6.789600635838998 2.761271470705693" fill="#ff2003" stroke="none" /><path d="M 119.4528033332814 92.08871423366111 l 9.308716534321949 -3.7857739760761806 a31.04909389518749,31.04909389518749 0 0,0 0.19655750873940198,0.4954533228913251 l -9.372332718027474 3.6254196359712902" fill="#ff4a06" stroke="none" /><path d="M 119.58574465831526 92.42381321644754 l 6.992862851664937 -2.7049895748276334 a28.49780630998972,28.49780630998972 0 0,0 0.172573644820472,0.457772095868696 l -7.03826718029985 2.5845491987647797" fill="#ff2303" stroke="none" /><path d="M 119.71291397450082 92.76114493625339 l 6.749307236886732 -2.4784391050312147 a28.18997973399366,28.18997973399366 0 0,0 0.16291100699915032,0.45569108095339184 l -6.790858413929826 2.362213067696906" fill="#ff1e03" stroke="none" /><path d="M 119.94978838288452 93.4421083053983 l 6.908958584941381 -2.2711119162249 a28.272665128029335,28.272665128029335 0 0,0 0.14760388938313931,0.46236708119233044 l -6.946927190101777 2.1521758013411825" fill="#ff1f03" stroke="none" /><path d="M 120.26092885502905 94.47779374421319 l 25.544454319459017 -6.962254615911327 a47.476256076260235,47.476256076260235 0 0,0 0.20756284380043005,0.7881499260749381 l -25.660206644064175 6.5227241854635905" fill="#d3ff1c" stroke="none" /><path d="M 120.35273937422433 94.82641323984039 l 14.886609432590657 -3.784117904131195 a36.360035439765866,36.360035439765866 0 0,0 0.14857831319245812,0.6062502202989173 l -14.949375272299406 3.5280118592241827" fill="#ff970d" stroke="none" /><path d="M 120.51834098615036 95.52812308129327 l 7.052166418640921 -1.5369868478004998 a28.21771291798991,28.21771291798991 0 0,0 0.09908755932730534,0.47416984148142693 l -7.077511688792593 1.4157005550336685" fill="#ff1f03" stroke="none" /><path d="M 120.77682067341334 96.94652285012252 l 62.330462020240034 -9.160431449632455 a84.0,84.0 0 0,0 0.19742193377914985,1.4284467671996575 l -62.478528470574396 8.089096374232712" fill="#4dd2ff" stroke="none" /><path d="M 120.86939407059847 97.66154086499901 l 7.052571517730683 -0.7902553488181904 a28.09670828828703,28.09670828828703 0 0,0 0.049594178827968745,0.47977869194835276 l -7.065098089040317 0.6690721345869062" fill="#ff1d02" stroke="none" /><path d="M 120.93736805541906 98.37931529534042 l 7.227110021091006 -0.5594240230706836 a28.24872916410474,28.24872916410474 0 0,0 0.033274364840039296,0.48380196205492904 l -7.235648347096111 0.43527863686142043" fill="#ff1f03" stroke="none" /><path d="M 120.96210409425399 98.7389718711861 l 14.364643326087466 -0.864141271941335 a35.39061214902207,35.39061214902207 0 0,0 0.03127588141165517,0.6067437439672431 l -14.377360796955694 0.6174257345973614" fill="#ff890c" stroke="none" /><path d="M 120.99303781780057 99.45929381324524 l 25.39835385258786 -0.654171501079099 a46.4067770245281,46.4067770245281 0 0,0 0.013675786376273615,0.7965459951631917 l -25.4058410705628 0.21807858994684096" fill="#e0ff1b" stroke="none" /><line stroke="#e1ed5e" stroke-width="0.3" x1="184.99686870605535" x2="189.99668451229388" y1="99.2704041080226" y2="99.22748670261217" /><path d="M 185.99683186730306 99.26182062694052 a86.0,86.0 0 0,1 -10.086455211305974,41.156179273409016" fill="none" id="id100" stroke="none" /><text fill="#e1ed5e" style="font-size:6.75px; font-family:Arial;" text-anchor="middle"><textPath startOffset="21.40746469413373" xlink:href="#id100">April</textPath></text><path d="M 120.99922638620191 99.81974689727618 l 7.301617716825803 -0.06267560643214594 a28.301886709221534,28.301886709221534 0 0,0 0.0,0.48585741831194473 l -7.301617716825803 -0.06267560643214505" fill="#ff2003" stroke="none" /><path d="M 120.99922638620191 100.18025310272382 l 14.325645323854284 0.12296843562973003 a35.32617308219572,35.32617308219572 0 0,0 -0.010410401832211848,0.6063537159279921 l -14.321423490423403 -0.36886906752679327" fill="#ff880c" stroke="none" /><path d="M 120.96210409425399 101.26102812881392 l 7.100732655625873 0.427162443887788 a28.113569568095883,28.113569568095883 0 0,0 -0.03311515945833505,0.48148715074571513 l -7.092353535002472 -0.5489930187878467" fill="#ff1d02" stroke="none" /><path d="M 120.93736805541906 101.62068470465957 l 14.163926155864825 1.0963774633935617 a35.206296058122575,35.206296058122575 0 0,0 -0.051814241399398914,0.6021600259018567 l -14.143018291767685 -1.3393585366710756" fill="#ff870c" stroke="none" /><path d="M 120.9064616781168 101.97986365728391 l 58.81143741568775 5.569504269286565 a80.0745676979947,80.0745676979947 0 0,0 -0.14134155464902512,1.3673513265071504 l -58.70716346855706 -6.5782601180766465" fill="#48f9ff" stroke="none" /><path d="M 120.82617615685814 102.69636545807757 l 7.000891123072855 0.9064055186049745 a28.059323443594142,28.059323443594142 0 0,0 -0.06594673684249108,0.4771577364620438 l -6.984299869675153 -1.0264515632671034" fill="#ff1c02" stroke="none" /><path d="M 120.77682067341334 103.0534771498775 l 13.824122192539168 2.0316699025105383 a34.972617399292844,34.972617399292844 0 0,0 -0.09239183949200143,0.5932218869722804 l -13.787208860908898 -2.268679971414269" fill="#ff830c" stroke="none" /><path d="M 120.65975698304385 103.76489593502545 l 14.136713880066463 2.5761801876644617 a35.36952969606795,35.36952969606795 0 0,0 -0.1139803435604377,0.5963933210169368 l -14.090407244223865 -2.818476073714713" fill="#ff890c" stroke="none" /><path d="M 120.51834098615036 104.47187691870673 l 21.63790264994761 4.715880172516726 a43.14584288055314,43.14584288055314 0 0,0 -0.1639318871813204,0.7223141423840089 l -21.553759901208625 -5.086628648839752" fill="#fff417" stroke="none" /><path d="M 120.35273937422433 105.17358676015961 l 7.045616407279927 1.7909681390619168 a28.269682072392644,28.269682072392644 0 0,0 -0.12359305659769415,0.46930296693422524 l -7.013833869877503 -1.9116516103689452" fill="#ff1f03" stroke="none" /><path d="M 120.05942366710727 106.21446072829308 l 7.491136487508913 2.320773232794521 a28.84239212693059,28.84239212693059 0 0,0 -0.15057827897618584,0.4716843142287526 l -7.450193492755473 -2.449026580714657" fill="#ff2803" stroke="none" /><path d="M 119.83427380445688 106.89939002012753 l 9.301860250967982 3.2356698519372276 a30.848561494922677,30.848561494922677 0 0,0 -0.17827505606727506,0.49866706064094063 l -9.244945024856763 -3.3948718689590898" fill="#ff4706" stroke="none" /><path d="M 119.71291397450082 107.23885506374661 l 6.813955138872145 2.5021787101070054 a28.258848595464357,28.258848595464357 0 0,0 -0.17112659295602178,0.4539336188781366 l -6.7699978621016825 -2.618780609179301" fill="#ff1f03" stroke="none" /><path d="M 119.4528033332814 107.91128576633889 l 7.462493988343912 3.0349313391951043 a29.05603033507804,29.05603033507804 0 0,0 -0.19187240323043833,0.4604239190572394 l -7.409295740576988 -3.1625877676936214" fill="#ff2b04" stroke="none" /><path d="M 119.31412917781788 108.2440532568976 l 7.058008773258482 3.012644250159635 a28.674080610823268,28.674080610823268 0 0,0 -0.19712217640557853,0.4510541161933305 l -7.0052527148359385 -3.13336043612881" fill="#ff2603" stroke="none" /><path d="M 118.8641267826498 109.22738970284198 l 6.986192346357343 3.417296759166285 a28.777197479845185,28.777197479845185 0 0,0 -0.22087196130116976,0.4418918788635719 l -6.926500471844441 -3.5367204941936023" fill="#ff2703" stroke="none" /><path d="M 118.70294669586154 109.54985784667822 l 6.7916393150909995 3.4678594266315095 a28.62577298305993,28.62577298305993 0 0,0 -0.22722311312528512,0.4357302799082252 l -6.731108132990766 -3.5839359496442373" fill="#ff2503" stroke="none" /><path d="M 118.5362547648365 109.86951160357373 l 13.792406281715577 7.343679484640257 a36.62562316879021,36.62562316879021 0 0,0 -0.3002510167496867,0.5524280528426135 l -13.664309915350552 -7.579362370957473" fill="#ff9b0e" stroke="none" /><line stroke="#e1ed5e" stroke-width="0.3" x1="174.33088141563837" x2="178.70328620479359" y1="141.23008692659167" y2="143.65538615756765" /><path d="M 175.20536237346943 141.71514677278685 a86.0,86.0 0 0,1 -30.301960400862466,31.631185727798858" fill="none" id="id101" stroke="none" /><text fill="#e1ed5e" style="font-size:6.75px; font-family:Arial;" text-anchor="middle"><textPath startOffset="22.145653131862474" xlink:href="#id101">May</textPath></text><path d="M 118.00360718960297 110.81064883170644 l 6.620668803333955 3.9755213891364574 a28.722566006122637,28.722566006122637 0 0,0 -0.2574527173998315,0.42052966554977284 l -6.551448121478719 -4.088588170810787" fill="#ff2603" stroke="none" /><path d="M 117.81537515405839 111.11811171558189 l 12.831806835120405 8.00799650144535 a36.12558344729233,36.12558344729233 0 0,0 -0.33284101317826953,0.523281356139088 l -12.692448130316246 -8.22709153226311" fill="#ff940d" stroke="none" /><path d="M 117.62189284568427 111.42229804090321 l 12.190483937596936 7.901724407101777 a35.52739299525544,35.52739299525544 0 0,0 -0.336115463667439,0.5089216515775586 l -12.05304403500877 -8.109825937018398" fill="#ff8b0c" stroke="none" /><path d="M 117.423217284605 111.72311816256416 l 13.442145371942168 9.044475310130158 a37.20166058884028,37.20166058884028 0 0,0 -0.3610514397866029,0.5267848408016567 l -13.284904195340244 -9.273894886001859" fill="#ffa30f" stroke="none" /><path d="M 117.21940702142032 112.02048342749411 l 12.453076628094971 8.693214641080173 a36.1872017929932,36.1872017929932 0 0,0 -0.359950480047896,0.5063154280209557 l -12.302011049517114 -8.905707295810632" fill="#ff950d" stroke="none" /><path d="M 116.79662413953412 112.60449989151573 l 5.919892065501125 4.442397369705234 a28.40135233977867,28.40135233977867 0 0,0 -0.2959799904773458,0.38744730862018406 l -5.842760097669475 -4.543365591566296" fill="#ff2103" stroke="none" /><path d="M 116.35404254752997 113.17365903436017 l 6.021268184353949 4.850307426104883 a28.731827253349707,28.731827253349707 0 0,0 -0.31270240513520775,0.3814460895650932 l -5.937118959980113 -4.952955797368469" fill="#ff2603" stroke="none" /><path d="M 115.89218393027572 113.72728997021213 l 5.357929305877456 4.628051723058629 a28.0799907625707,28.0799907625707 0 0,0 -0.318225101220807,0.36208174941316423 l -5.277693140698063 -4.719345750283087" fill="#ff1c02" stroke="none" /><path d="M 115.6541949942343 113.99807769240083 l 5.38988857991798 4.819671603864947 a28.230500209047253,28.230500209047253 0 0,0 -0.32613258367136455,0.35847683947448544 l -5.306358295404736 -4.9114860188971035" fill="#ff1f03" stroke="none" /><path d="M 115.41159269507618 114.26474011684316 l 5.141300950693449 4.758711404795412 a28.005591316921883,28.005591316921883 0 0,0 -0.329591357940176,0.350014600496685 l -5.058853759017013 -4.846267465236594" fill="#ff1b02" stroke="none" /><path d="M 115.16444852881244 114.52719865689866 l 10.84244805443046 10.386819970046783 a36.01481631266881,36.01481631266881 0 0,0 -0.4315144351617473,0.4427718248228463 l -10.662546818117905 -10.571414486937368" fill="#ff920d" stroke="none" /><path d="M 114.65682725009322 115.03919595460226 l 10.567227200203474 10.842906029314928 a36.140505337051145,36.140505337051145 0 0,0 -0.44801751971266407,0.4291906493184284 l -10.379537194625499 -11.022708808938937" fill="#ff940d" stroke="none" /><path d="M 114.13192950727249 115.5334660781643 l 5.0705733077301485 5.573448298899223 a28.53485498265017,28.53485498265017 0 0,0 -0.36515778516006164,0.3265263431647688 l -4.974150495746708 -5.659670171947378" fill="#ff2303" stroke="none" /><path d="M 113.31354834802062 116.24036423190432 l 4.464990600046763 5.446562534740731 a28.042810838248272,28.042810838248272 0 0,0 -0.37490464475769414,0.301996643709461 l -4.370835184933815 -5.522407472243596" fill="#ff1c02" stroke="none" /><path d="M 113.03279911837588 116.46651593811092 l 4.428265787454373 5.594969162418555 a28.13534987318446,28.13534987318446 0 0,0 -0.38128765610079624,0.296491587581751 l -4.331568186718346 -5.670161801621099" fill="#ff1d03" stroke="none" /><path d="M 112.45986205192187 116.90419585922612 l 5.256209272653668 7.131057362574335 a29.858877752077632,29.858877752077632 0 0,0 -0.41520758631090093,0.30057827259308584 l -5.133020675968798 -7.220236406540498" fill="#ff3805" stroke="none" /><path d="M 112.16784306229584 117.11559508785304 l 8.495438390781205 11.949898009530857 a35.661941750319045,35.661941750319045 0 0,0 -0.5019926209366571,0.3504298361254331 l -8.28905067867079 -12.093972661461413" fill="#ff8d0d" stroke="none" /><path d="M 111.5731344415666 117.5232005979908 l 4.13245364686165 6.25706152308838 a28.498532659605694,28.498532659605694 0 0,0 -0.4105340756725513,0.26610322791896046 l -4.02443393893209 -6.327078592711235" fill="#ff2303" stroke="none" /><path d="M 111.27062007382361 117.71928675628689 l 4.164238955575029 6.546875299869983 a28.759024569569057,28.759024569569057 0 0,0 -0.4188353016377213,0.2613842051469119 l -4.051239525147593 -6.617395301858442" fill="#ff2703" stroke="none" /><path d="M 110.96478420261333 117.91015095944535 l 7.975137823869201 13.026788280414733 a36.27416237351364,36.27416237351364 0 0,0 -0.5338645415699912,0.3205703180386062 l -7.750340525741773 -13.161772598989263" fill="#ff960d" stroke="none" /><line stroke="#e1ed5e" stroke-width="0.3" x1="143.1302829299769" x2="145.66735839644613" y1="173.24464959558577" y2="177.55315839532614" /><path d="M 143.63769802327073 174.10635135553383 a86.0,86.0 0 0,1 -40.68552437913181,11.842963189579606" fill="none" id="id102" stroke="none" /><text fill="#e1ed5e" style="font-size:6.75px; font-family:Arial;" text-anchor="middle"><textPath startOffset="21.407464694133747" xlink:href="#id102">June</textPath></text><path d="M 110.02825361518725 118.45085714620011 l 3.5452088993839403 6.522785069666289 a28.423963308458127,28.423963308458127 0 0,0 -0.43070585830590513,0.2293266099439493 l -3.4327142252914817 -6.5826821473328065" fill="#ff2203" stroke="none" /><path d="M 109.71004243097381 118.62028667847754 l 3.5119767993203626 6.734678584195317 a28.59538522205316,28.59538522205316 0 0,0 -0.43719998949595135,0.22323742980989064 l -3.3958495881108286 -6.793973965678044" fill="#ff2403" stroke="none" /><path d="M 109.3889696526874 118.78422872680471 l 3.4355562441825156 6.8734138762558405 a28.684195795348256,28.684195795348256 0 0,0 -0.44233727697540837,0.21636932797229083 l -3.3170587179450375 -6.931376954325355" fill="#ff2603" stroke="none" /><path d="M 108.73861861582097 119.09545874513695 l 3.2080958546575014 7.010268411548246 a28.709457971519257,28.709457971519257 0 0,0 -0.4498998966526984,0.20123450127709205 l -3.0872825551491756 -7.064306663735188" fill="#ff2603" stroke="none" /><path d="M 108.07796709384702 119.3841803445677 l 2.8557110045920853 6.852666825932462 a28.42388900570204,28.42388900570204 0 0,0 -0.4520014728129653,0.18382506402619592 l -2.737655070588679 -6.90067914653795" fill="#ff2203" stroke="none" /><path d="M 107.74402155503746 119.51999308798841 l 2.711527775012627 6.834821294073605 a28.353037807368253,28.353037807368253 0 0,0 -0.45395608349556427,0.17559996518346094 l -2.5937994290235338 -6.8803611473951065" fill="#ff2103" stroke="none" /><path d="M 107.06938296918513 119.77432235084164 l 5.330643583856948 14.910758834838381 a36.83497679344135,36.83497679344135 0 0,0 -0.5972427135724929,0.20775201846260902 l -5.073895098239434 -15.00006928586958" fill="#ff9e0e" stroke="none" /><path d="M 106.72888874123015 119.89276391827305 l 2.738699228989072 8.096477635544352 a29.54712955147722,29.54712955147722 0 0,0 -0.481867620912269,0.15839945810097497 l -2.599308870429069 -8.142298015047345" fill="#ff3304" stroke="none" /><path d="M 106.38641147887787 120.00534299687104 l 2.574747318489898 8.065359303424444 a29.46636548038213,29.46636548038213 0 0,0 -0.48319137944751456,0.14969392449446062 l -2.435915306170759 -8.108369815725547" fill="#ff3204" stroke="none" /><path d="M 105.3480935250658 120.30758222061773 l 4.310829353046254 16.368921208228493 a37.92704437379065,37.92704437379065 0 0,0 -0.6310242165622822,0.16040388824912588 l -4.029199843258574 -16.44051032831289" fill="#ffad10" stroke="none" /><path d="M 104.9986988182912 120.39639698878246 l 3.48087371626804 14.203152613441867 a35.6234751680073,35.6234751680073 0 0,0 -0.5951967623095057,0.14046481526828297 l -3.236544800218655 -14.260813572356374" fill="#ff8d0c" stroke="none" /><path d="M 103.94208987418118 120.62667999033965 l 1.8701547994736558 9.785440163043841 a30.96254576694661,30.96254576694661 0 0,0 -0.522920930684367,0.09529361298340414 l -1.7018991352382316 -9.81610194995861" fill="#ff4806" stroke="none" /><path d="M 103.2317021107853 120.74984581791261 l 1.6418714106524517 10.541992255467626 a31.669083486572653,31.669083486572653 0 0,0 -0.537884143241652,0.07905044599877263 l -1.4606621618031141 -10.56862377476528" fill="#ff5307" stroke="none" /><path d="M 102.875027216393 120.80226474461374 l 2.3116909587105208 16.72624420966627 a37.88523498355822,37.88523498355822 0 0,0 -0.6449910347381681,0.08350700261723219 l -2.024222102081577 -16.763462808483897" fill="#ffac10" stroke="none" /><path d="M 102.15924093988457 120.88869738790638 l 0.868239750820035 8.399431985575696 a29.444187228218954,29.444187228218954 0 0,0 -0.5032157929514829,0.047655058783993016 l -0.723924394483537 -8.413098799864873" fill="#ff3104" stroke="none" /><path d="M 101.80034050326958 120.92268563240118 l 0.7277562721023286 8.457631026215504 a29.488884011882092,29.488884011882092 0 0,0 -0.5047247249212979,0.03906888581116289 l -0.5824625524057948 -8.468877679021722" fill="#ff3204" stroke="none" /><path d="M 101.44090949804482 120.95050786540614 l 0.5950268268077056 8.65155947134631 a29.671997359943262,29.671997359943262 0 0,0 -0.5084588492136269,0.03058762175398761 l -0.44642362546161346 -8.66049907092499" fill="#ff3505" stroke="none" /><path d="M 100.72087961077811 120.9876233191556 l 0.3311487480469526 9.64103448440942 a30.646719930779824,30.646719930779824 0 0,0 -0.5259366585931344,0.013546262699595454 l -0.16559877538307433 -9.64529846445906" fill="#ff4406" stroke="none" /><line stroke="#e1ed5e" stroke-width="0.3" x1="101.45913802915013" x2="101.54496967792366" y1="184.9874750549273" y2="189.98673829345242" /><path d="M 101.47630435890484 185.9873277026323 a86.0,86.0 0 0,1 -42.54439059252881,-10.42667462771756" fill="none" id="id103" stroke="none" /><text fill="#e1ed5e" style="font-size:6.75px; font-family:Arial;" text-anchor="middle"><textPath startOffset="22.145653131862474" xlink:href="#id103">July</textPath></text><path d="M 100.36049292484886 120.99690560180557 l 0.2949648961012674 17.18022644100826 a38.182758359886556,38.182758359886556 0 0,0 -0.6554578209501175,0.00562631707273226 l -2.1042810025957493e-15 -17.182758359886556" fill="#ffb110" stroke="none" /><path d="M 100.0 121.0 l 9.259878343875354e-16 7.561264480764937 a28.561264480764937,28.561264480764937 0 0,0 -0.4902920842882183,-0.004208567868574141 l 0.12979915943936524 -7.560150311090798" fill="#ff2403" stroke="none" /><path d="M 99.27912038922189 120.98762331915562 l -0.2969650809332729 8.645814314047161 a29.6509128658354,29.6509128658354 0 0,0 -0.5085473804258605,-0.021839212660191797 l 0.44533822195997214 -8.63944253296114" fill="#ff3405" stroke="none" /><path d="M 98.91894614982273 120.97215588758144 l -0.4356572452553183 8.45163417118457 a29.46285515643971,29.46285515643971 0 0,0 -0.5048749919213574,-0.030372025798785812 l 0.580676589309122 -8.442910167561093" fill="#ff3204" stroke="none" /><path d="M 97.84075906011543 120.88869738790638 l -0.8799831703566068 8.513038916820596 a29.558399498703764,29.558399498703764 0 0,0 -0.5042720641203091,-0.05650473659555221 l 1.0259911360777152 -8.496678419718073" fill="#ff3304" stroke="none" /><path d="M 97.48249496171623 120.84855314841334 l -2.0894303113964745 17.303480324612174 a38.429175263632615,38.429175263632615 0 0,0 -0.6542515449140168,-0.0847059610613686 l 2.386159678201285 -17.26506276735041" fill="#ffb410" stroke="none" /><path d="M 96.76829788921471 120.74984581791261 l -2.679622910439276 17.205101316795023 a38.41252107718273,38.41252107718273 0 0,0 -0.6506760910286794,-0.10706850316747546 l 2.974576504521019 -17.156566815131878" fill="#ffb410" stroke="none" /><path d="M 96.41257539226777 120.69131181640829 l -3.7890936568820877 21.854485300440373 a43.180526560201145,43.180526560201145 0 0,0 -0.7292682360894949,-0.13289696581861682 l 4.16369662652264 -21.78622016069039" fill="#fff417" stroke="none" /><path d="M 95.35216902796893 120.47920084513623 l -6.724282910436246 29.628431216844255 a51.381901142470596,51.381901142470596 0 0,0 -0.8584884281242215,-0.20260093149451788 l 7.231903492300355 -29.50863414170351" fill="#a3ff22" stroke="none" /><path d="M 95.00130118170881 120.39639698878247 l -2.2070087090991675 9.005348676693304 a30.271849450398847,30.271849450398847 0 0,0 -0.5036582839165518,-0.1280279662311902 l 2.361272286241098 -8.96613547862685" fill="#ff3e05" stroke="none" /><path d="M 94.30408787586889 120.21278271476187 l -2.553339518018622 9.060901177894857 a30.413791629829714,30.413791629829714 0 0,0 -0.5013061646751261,-0.145922918422605 l 2.708505695075355 -9.015734565169737" fill="#ff4006" stroke="none" /><path d="M 93.95794788825049 120.11202640906438 l -2.583973665792905 8.601207941535932 a29.98096308638734,29.98096308638734 0 0,0 -0.4916297844917742,-0.1523081639475572 l 2.7312440831563127 -8.555583189781727" fill="#ff3905" stroke="none" /><path d="M 92.93061703081489 119.77432235084164 l -3.1137491885776694 8.709710655511978 a30.2495672175571,30.2495672175571 0 0,0 -0.4874657954375835,-0.17900419218949953 l 3.2628041356693718 -8.65497561431376" fill="#ff3e05" stroke="none" /><path d="M 92.59220618246901 119.65005319985036 l -2.9314744795025818 7.776084337000166 a29.31029663971836,29.31029663971836 0 0,0 -0.46928260594362126,-0.18152859331757062 l 3.064529347939731 -7.724615855544555" fill="#ff2f04" stroke="none" /><path d="M 91.92203290615298 119.3841803445677 l -3.4450534287905357 8.266874101432398 a29.955981271538878,29.955981271538878 0 0,0 -0.47296917516636955,-0.2018824163928988 l 3.5864576791273364 -8.206517035380095" fill="#ff3905" stroke="none" /><path d="M 91.59046798132341 119.24265499422711 l -3.430304293060807 7.849207529026442 a29.566040297402107,29.566040297402107 0 0,0 -0.463323218690725,-0.20723858248693652 l 3.5645409146071674 -7.78916519562965" fill="#ff3304" stroke="none" /><path d="M 91.26138138417905 119.09545874513695 l -4.3309988117948786 9.464014024612146 a31.40793505772514,31.40793505772514 0 0,0 -0.4883354890637408,-0.22856566638617748 l 4.492823014730109 -9.38827212665544" fill="#ff4f07" stroke="none" /><path d="M 90.6110303473126 118.78422872680471 l -3.971940605416467 7.946541908362711 a29.883909076207445,29.883909076207445 0 0,0 -0.4569004625312675,-0.23329663171315088 l 4.107768289661317 -7.877187324976724" fill="#ff3805" stroke="none" /><path d="M 90.28995756902619 118.62028667847754 l -4.262360302136965 8.173637892619679 a30.21824667411875,30.21824667411875 0 0,0 -0.45789447900119595,-0.24380301905904045 l 4.402043596924724 -8.099264405838065" fill="#ff3d05" stroke="none" /><path d="M 89.97174638481275 118.45085714620012 l -3.869757351920051 7.119917667678701 a29.103594853968367,29.103594853968367 0 0,0 -0.43690844872684154,-0.24234575154896545 l 3.9914099888029955 -7.052439000696587" fill="#ff2c04" stroke="none" /><line stroke="#e1ed5e" stroke-width="0.3" x1="58.13341422392154" x2="55.67067388415222" y1="173.97424548756322" y2="178.32567169271397" /><path d="M 57.64086615596768 174.84453072859336 a86.0,86.0 0 0,1 -31.369924170532247,-30.572349798747897" fill="none" id="id104" stroke="none" /><text fill="#e1ed5e" style="font-size:6.75px; font-family:Arial;" text-anchor="middle"><textPath startOffset="22.145653131862474" xlink:href="#id104">August</textPath></text><path d="M 89.65649057296885 118.27599006163327 l -4.875915766227036 8.61527595769821 a30.8993704035476,30.8993704035476 0 0,0 -0.4593817227790001,-0.26522416130725174 l 5.023089956866435 -8.530304899114785" fill="#ff4706" stroke="none" /><path d="M 89.03521579738668 117.91015095944536 l -5.458770088900512 8.916490697720386 a31.454758593387467,31.454758593387467 0 0,0 -0.4580949284818063,-0.28588511592706567 l 5.611029146172031 -8.821469784951772" fill="#ff5007" stroke="none" /><path d="M 88.4268655584334 117.5232005979908 l -5.418575911447921 8.204414554341746 a30.832262358563177,30.832262358563177 0 0,0 -0.4391449579911056,-0.2954763261531997 l 5.558617157536032 -8.110188554131424" fill="#ff4606" stroke="none" /><path d="M 88.1277618465304 117.32195027204791 l -5.369342058514553 7.834030528104221 a30.49746642303105,30.49746642303105 0 0,0 -0.4292952753052973,-0.2996814429143555 l 5.503032424993616 -7.740704269384737" fill="#ff4106" stroke="none" /><path d="M 87.83215693770417 117.11559508785305 l -5.521405837759963 7.7665487754061235 a30.529176370810447,30.529176370810447 0 0,0 -0.4245285351390204,-0.3073259207335699 l 5.653915383272937 -7.670622083299488" fill="#ff4206" stroke="none" /><path d="M 87.54013794807813 116.9041958592261 l -4.379018971453597 5.940980249721197 a28.380450764006753,28.380450764006753 0 0,0 -0.3896865786269764,-0.29242807347626254 l 4.48035853899134 -5.86493314898092" fill="#ff2103" stroke="none" /><path d="M 86.96720088162412 116.46651593811092 l -5.7105955661586805 7.215150947402597 a30.20159252053881,30.20159252053881 0 0,0 -0.4037654206755027,-0.3252448418417153 l 5.833611757189445 -7.1160578117674715" fill="#ff3d05" stroke="none" /><path d="M 86.40962598614128 116.0094264158162 l -6.042261941837258 7.117769374432748 a30.33657165352399,30.33657165352399 0 0,0 -0.39411615527264815,-0.34042814814558614 l 6.163557576872768 -7.012997093822439" fill="#ff3f05" stroke="none" /><path d="M 86.13680546590413 115.77377054828092 l -5.318300915597766 6.051250174916677 a29.056174855865354,29.056174855865354 0 0,0 -0.3718290652622105,-0.3324918429692626 l 5.421395007683348 -5.959062802064032" fill="#ff2b04" stroke="none" /><path d="M 85.86807049272751 115.53346607816431 l -10.128989615889681 11.133533925677476 a36.05164470458336,36.05164470458336 0 0,0 -0.4541996135237724,-0.4204003814711009 l 10.318619000727422 -10.958015798073998" fill="#ff930d" stroke="none" /><path d="M 85.34317274990678 115.03919595460226 l -5.34279951913126 5.482182981576642 a28.65505303346213,28.65505303346213 0 0,0 -0.3493297669367016,-0.34634406037383714 l 5.436121206197924 -5.389658910974145" fill="#ff2503" stroke="none" /><path d="M 84.83555147118756 114.52719865689866 l -5.32900898556822 5.105070061114193 a28.379707114591426,28.379707114591426 0 0,0 -0.33399424064976324,-0.3546903093570777 l 5.415859059954236 -5.012838291812625" fill="#ff2103" stroke="none" /><path d="M 84.58840730492382 114.26474011684316 l -6.952432894349792 6.435068093213786 a30.47345895197394,30.47345895197394 0 0,0 -0.3520443430975941,-0.386958402156051 l 7.061874938289266 -6.314772115500062" fill="#ff4106" stroke="none" /><path d="M 84.3458050057657 113.99807769240083 l -6.197580771347336 5.5419149419182805 a29.314013990897017,29.314013990897017 0 0,0 -0.33221004765697687,-0.3779940512763182 l 6.291801882962905 -5.434708612830662" fill="#ff2f04" stroke="none" /><path d="M 84.1078160697243 113.72728997021213 l -6.7599807903350895 5.83911040226575 a29.932667606910464,29.932667606910464 0 0,0 -0.3325454324488938,-0.39173768325120006 l 6.859220786291095 -5.722205936564996" fill="#ff3905" stroke="none" /><path d="M 83.8745106332314 113.45245675266167 l -6.45206274226874 5.382540215163907 a29.402431362292056,29.402431362292056 0 0,0 -0.32000091476046255,-0.39034908458683953 l 6.543510476267833 -5.270988848878572" fill="#ff3104" stroke="none" /><path d="M 83.64595745247003 113.17365903436017 l -7.055491953812991 5.6834048859217505 a30.05985970132204,30.05985970132204 0 0,0 -0.3202571288281267,-0.4046344202993594 l 7.152015513282679 -5.561450521707711" fill="#ff3b05" stroke="none" /><path d="M 83.4222238831116 112.89097897827486 l -7.319606816183543 5.691770532510356 a30.272157016480783,30.272157016480783 0 0,0 -0.31547627163224384,-0.4129685664909712 l 7.416235065170082 -5.565281052778515" fill="#ff3e05" stroke="none" /><path d="M 82.98947788004972 112.3143062007846 l -7.824151337880108 5.664082187279493 a30.659149609686555,30.659149609686555 0 0,0 -0.30496349739878914,-0.42896935071649195 l 7.920229933808859 -5.528935609853496" fill="#ff4406" stroke="none" /><path d="M 82.78059297857968 112.02048342749411 l -8.522017418754755 5.9490300115170935 a31.393062059060867,31.393062059060867 0 0,0 -0.3046775352585729,-0.44453362934071255 l 8.622884690828652 -5.801861647106329" fill="#ff4f07" stroke="none" /><path d="M 82.576782715395 111.72311816256416 l -7.691492786531594 5.17517960719526 a30.270466290969253,30.270466290969253 0 0,0 -0.28638104164235934,-0.4336173977325106 l 7.77919826709468 -5.042382331123688" fill="#ff3e05" stroke="none" /><path d="M 82.37810715431573 111.42229804090323 l -7.584593660849678 4.916241976501828 a30.038556088873914,30.038556088873914 0 0,0 -0.2767585320143097,-0.4351103806968172 l 7.667869884489877 -4.78531792112634" fill="#ff3a05" stroke="none" /><path d="M 82.18462484594161 111.11811171558189 l -7.655054934934086 4.777320444813955 a30.023450376064364,30.023450376064364 0 0,0 -0.26911310373136865,-0.4395760303102858 l 7.73593600312086 -4.645207298379112" fill="#ff3a05" stroke="none" /><path d="M 81.99639281039703 110.81064883170644 l -8.131312706204765 4.882619648485614 a30.484630776043147,30.484630776043147 0 0,0 -0.26554478123454295,-0.4509530921704774 l 8.213931197569078 -4.742315388021578" fill="#ff4106" stroke="none" /><line stroke="#e1ed5e" stroke-width="0.3" x1="26.387840678322732" x2="22.057713659400548" y1="142.50000000000003" y2="145.00000000000006" /><path d="M 25.521815274538298 143.00000000000003 a86.0,86.0 0 0,1 -11.493303480769221,-40.785679425670985" fill="none" id="id105" stroke="none" /><text fill="#e1ed5e" style="font-size:6.75px; font-family:Arial;" text-anchor="middle"><textPath startOffset="21.40746469413373" xlink:href="#id105">September</textPath></text><path d="M 81.63589988554817 110.18625677009913 l -7.822060609115321 4.3387651635063555 a29.94480381655908,29.94480381655908 0 0,0 -0.2454827253274891,-0.45166056530699183 l 7.89538868405814 -4.203849764724777" fill="#ff3905" stroke="none" /><path d="M 81.4637452351635 109.86951160357371 l -7.8668444238270006 4.188651553913547 a29.912465597622262,29.912465597622262 0 0,0 -0.23743650724705018,-0.45531580982320324 l 7.937589000049 -4.0529895009858405" fill="#ff3805" stroke="none" /><path d="M 81.29705330413844 109.54985784667822 l -8.119842184898177 4.146049275775186 a30.117102703425466,30.117102703425466 0 0,0 -0.23115605845472129,-0.4624669622142492 l 8.189818156564636 -4.006050457397184" fill="#ff3c05" stroke="none" /><path d="M 81.1358732173502 109.22738970284198 l -6.67264147701206 3.263923316735075 a28.428145104820487,28.428145104820487 0 0,0 -0.21066709695406952,-0.44021320845555795 l 6.7276878319260405 -3.1488976062144123" fill="#ff2203" stroke="none" /><path d="M 80.9802524753101 108.90220220490708 l -7.075615227161325 3.3117451950685983 a28.81229717048047,28.81229717048047 0 0,0 -0.2058234370849896,-0.4497613552470497 l 7.13142312910137 -3.1897948576068598" fill="#ff2803" stroke="none" /><path d="M 80.68587082218212 108.24405325689762 l -7.110167848328061 3.03490785773652 a28.73079249083488,28.73079249083488 0 0,0 -0.18972468497447667,-0.45527017709230483 l 7.161218377839023 -2.912405171202934" fill="#ff2603" stroke="none" /><path d="M 80.5471966667186 107.91128576633889 l -16.198446669402212 6.587767242430884 a38.48680507531073,38.48680507531073 0 0,0 -0.24364223157296644,-0.6141375824493531 l 16.309147575941303 -6.3087286427679645" fill="#ffb510" stroke="none" /><path d="M 80.41425534168474 107.57618678355246 l -7.964300262718622 3.080762434275629 a29.539389665027812,29.539389665027812 0 0,0 -0.1788811421066907,-0.4745034817961492 l 8.016012088639748 -2.943590672285335" fill="#ff3304" stroke="none" /><path d="M 80.16572619554312 106.89939002012753 l -8.416416500318647 2.9276665523537777 a29.911077272059032,29.911077272059032 0 0,0 -0.1645316895903926,-0.4864087049086724 l 8.465433611481407 -2.782756172970944" fill="#ff3805" stroke="none" /><path d="M 80.05021161711548 106.5578916946017 l -16.571790916665357 5.447476831900216 a38.44417547549216,38.44417547549216 0 0,0 -0.20070657642688913,-0.6287104920231416 l 16.6628622088695 -5.162197306185683" fill="#ffb410" stroke="none" /><path d="M 79.94057633289273 106.21446072829308 l -8.329339997917737 2.58045082294855 a29.719898580291407,29.719898580291407 0 0,0 -0.14679320237460605,-0.4886268288034317 l 8.372409520295973 -2.437086390554395" fill="#ff3605" stroke="none" /><path d="M 79.83685265289637 105.86919833188381 l -8.762799047945007 2.5507230924550908 a30.126490861719503,30.126490861719503 0 0,0 -0.1402768430933556,-0.49779302902978473 l 8.805294383112939 -2.3999221395223107" fill="#ff3c05" stroke="none" /><path d="M 79.64726062577567 105.17358676015961 l -8.916664871545244 2.266581342000054 a30.200233878078954,30.200233878078954 0 0,0 -0.12340746518401828,-0.5035445708515471 l 8.954259863245555 -2.1131809465404072" fill="#ff3d05" stroke="none" /><path d="M 79.56144815229197 104.8234425847677 l -8.774875722060973 2.070846777658539 a30.015922044591658,30.015922044591658 0 0,0 -0.11404497902334365,-0.5025032202876729 l 8.809131562641983 -1.9199092234318396" fill="#ff3a05" stroke="none" /><path d="M 79.48165901384964 104.47187691870673 l -8.253197934175356 1.79874607660867 a29.44693811915249,29.44693811915249 0 0,0 -0.1034040298152152,-0.4948257153459758 l 8.282859674814937 -1.656803909977285" fill="#ff3104" stroke="none" /><path d="M 79.407916724674 104.11899336999214 l -8.197199839265169 1.6396695438237214 a29.359581414029773,29.359581414029773 0 0,0 -0.09461293958720329,-0.4950548795430245 l 8.22413907113453 -1.4987120992473824" fill="#ff3004" stroke="none" /><path d="M 79.2786578344484 103.40968896794605 l -15.221670705447599 2.504720122056368 a36.42636969461434,36.42636969461434 0 0,0 -0.09623241130843024,-0.6178811130740812 l 15.262424608894296 -2.243050827050837" fill="#ff980e" stroke="none" /><path d="M 79.22317932658666 103.0534771498775 l -9.040156707215994 1.3285917210672489 a30.137263772722704,30.137263772722704 0 0,0 -0.0708304392002766,-0.512493773909394 l 9.061631662971482 -1.1732096389577693" fill="#ff3c05" stroke="none" /><path d="M 79.17382384314188 102.69636545807758 l -23.773003247529108 3.07789122249862 a44.971422523174624,44.971422523174624 0 0,0 -0.0925510028279469,-0.7664550704187455 l 23.82233633661672 -2.6693424751564754" fill="#f2ff19" stroke="none" /><path d="M 79.0935383218832 101.97986365728391 l -20.94291923766137 1.9833162260775656 a42.03662067557024,42.03662067557024 0 0,0 -0.061866650433863045,-0.7189842564818053 l 20.973879510792976 -1.6235109222200983" fill="#ffe515" stroke="none" /><path d="M 79.06263194458094 101.62068470465958 l -7.368555822612504 0.5703728226742164 a28.39059808593337,28.39059808593337 0 0,0 -0.033441473180983255,-0.4862316806570024 l 7.377261256958554 -0.44379771786287064" fill="#ff2103" stroke="none" /><path d="M 79.01933749520258 100.90099992219065 l -8.682860285834046 0.3728793807221242 a29.690863120305245,29.690863120305245 0 0,0 -0.01749684402131027,-0.5094015229490566 l 8.687981816852206 -0.22377159320894774" fill="#ff3505" stroke="none" /><path d="M 79.00696218219943 100.54070618675478 l -22.05630100326538 0.5680920747581679 a43.063615808657666,43.063615808657666 0 0,0 -0.012690577716221186,-0.7391625298930726 l 22.062803012580268 -0.18938262889604288" fill="#fff316" stroke="none" /><line stroke="#e1ed5e" stroke-width="0.3" x1="15.003131293944662" x2="10.003315487706104" y1="100.72959589197737" y2="100.7725132973878" /><path d="M 14.003168132696942 100.73817937305945 a86.0,86.0 0 0,1 10.791469493833604,-42.45332614584628" fill="none" id="id106" stroke="none" /><text fill="#e1ed5e" style="font-size:6.75px; font-family:Arial;" text-anchor="middle"><textPath startOffset="22.145653131862435" xlink:href="#id106">October</textPath></text><path d="M 79.00077361379809 100.18025310272382 l -10.765402979563373 0.09240803701290749 a31.765799578187238,31.765799578187238 0 0,0 0.0,-0.5453222794734461 l 10.765402979563373 0.09240803701290354" fill="#ff5407" stroke="none" /><path d="M 79.00077361379809 99.81974689727619 l -30.092554586023525 -0.2583083887595322 a51.09366319902762,51.09366319902762 0 0,0 0.015056982361042985,-0.8769937368822875 l 30.083686172063818 0.7748490416108721" fill="#a6ff21" stroke="none" /><path d="M 79.01933749520258 99.09900007780938 l -20.631961196050653 -0.8860251876236486 a41.65097729959634,41.65097729959634 0 0,0 0.03680837791718944,-0.7140726981562358 l 20.613711228676895 1.2400696791565964" fill="#ffe015" stroke="none" /><path d="M 79.03789590574601 98.7389718711861 l -15.112769745795019 -0.909146699589157 a36.140091053583234,36.140091053583234 0 0,0 0.042569652180931755,-0.6189533999563172 l 15.094936132449023 1.168443523699799" fill="#ff940d" stroke="none" /><path d="M 79.06263194458094 98.37931529534042 l -15.494347883490173 -1.1993605192868424 a36.54069760306275,36.54069760306275 0 0,0 0.053778123190853844,-0.6249833092014312 l 15.471476137601575 1.4651648758639544" fill="#ff9a0e" stroke="none" /><path d="M 79.0935383218832 98.0201363427161 l -10.464374074482683 -0.9909871046222102 a31.511193091758557,31.511193091758557 0 0,0 0.055621168474276915,-0.5380843495321209 l 10.445820513526742 1.1704759764372439" fill="#ff5007" stroke="none" /><path d="M 79.13060592940154 97.66154086499901 l -7.654686575713219 -0.8577235969569635 a28.70259153409948,28.70259153409948 0 0,0 0.05906981547831837,-0.48918280946371673 l 7.638834673975233 0.9890000833441166" fill="#ff2603" stroke="none" /><path d="M 79.17382384314186 97.30363454192245 l -8.887068186810424 -1.1506089020861632 a29.96124331789835,29.96124331789835 0 0,0 0.07041674516961527,-0.509500489984958 l 8.866006925085602 1.302997700271188" fill="#ff3905" stroke="none" /><path d="M 79.2786578344484 96.59031103205396 l -18.79987025712136 -3.0935114966196573 a40.05268839466794,40.05268839466794 0 0,0 0.11745962498629968,-0.677475903240313 l 18.743995814642826 3.415780432780563" fill="#ffca12" stroke="none" /><path d="M 79.34024301695615 96.23510406497455 l -9.487407884348555 -1.728921758713237 a30.643654847191037,30.643654847191037 0 0,0 0.09875094007310478,-0.5167066466378468 l 9.45633065199329 1.8915309703843985" fill="#ff4306" stroke="none" /><path d="M 79.407916724674 95.88100663000787 l -10.213344739605999 -2.0429549893229595 a31.4156649263711,31.4156649263711 0 0,0 0.11031728798310737,-0.5279081583069686 l 10.176769740798525 2.217979598915337" fill="#ff4f07" stroke="none" /><path d="M 79.48165901384962 95.52812308129327 l -8.814269936399123 -1.9210291080764939 a30.021181039408674,30.021181039408674 0 0,0 0.1140649604836133,-0.5025912622884442 l 8.779994114357848 2.0720547043039463" fill="#ff3a05" stroke="none" /><path d="M 79.56144815229197 95.17655741523228 l -18.6827068620903 -4.4090679490799545 a40.195921855289996,40.195921855289996 0 0,0 0.16425292754095344,-0.6702079958160503 l 18.604266408033048 4.729131769504122" fill="#ffcc13" stroke="none" /><path d="M 79.64726062577567 94.8264132398404 l -18.61572321956833 -4.732044046194877 a40.20774301792649,40.20774301792649 0 0,0 0.1757854172450476,-0.6674858614865822 l 18.531748321518556 5.050910412054244" fill="#ffcc13" stroke="none" /><path d="M 79.73907114497095 94.47779374421319 l -9.898351158587724 -2.6978396242855465 a31.259419783646642,31.259419783646642 0 0,0 0.14555205730088625,-0.5165129032530844 l 9.850580609212255 2.8673604514416438" fill="#ff4d07" stroke="none" /><path d="M 79.94057633289273 93.78553927170692 l -11.966213518220771 -3.7071635361733466 a33.527303279141236,33.527303279141236 0 0,0 0.1750369249633689,-0.548300674422726 l 11.900811877480145 3.9120332442874646" fill="#ff6e0a" stroke="none" /><path d="M 80.05021161711548 93.44210830539832 l -8.654623286219294 -2.84494657684171 a30.110226410548346,30.110226410548346 0 0,0 0.16562714810357781,-0.4896472333526731 l 8.604510716543352 2.9930954846685447" fill="#ff3b05" stroke="none" /><path d="M 80.16572619554312 93.10060997987247 l -9.012183355124286 -3.1349051905259038 a30.541859325098304,30.541859325098304 0 0,0 0.17650261210646365,-0.49370921942867885 l 8.957040572973877 3.2891493663355043" fill="#ff4206" stroke="none" /><path d="M 80.28708602549916 92.7611449362534 l -12.849368820506848 -4.718466213193577 a34.68832358217992,34.68832358217992 0 0,0 0.21006144712235217,-0.5572129452932739 l 12.76647668957006 4.938347438680996" fill="#ff7f0b" stroke="none" /><path d="M 80.41425534168474 92.42381321644754 l -7.991590576266926 -3.0913189138188164 a29.568650568532497,29.568650568532497 0 0,0 0.18718550409734103,-0.4718297489467741 l 7.937346397203454 3.2280496799791734" fill="#ff3304" stroke="none" /><path d="M 80.5471966667186 92.08871423366112 l -8.998818937858875 -3.6597413214548005 a30.714548307375452,30.714548307375452 0 0,0 0.20282447842708684,-0.48670491256620985 l 8.93466861489531 3.813678743462274" fill="#ff4506" stroke="none" /><path d="M 80.83023694016515 91.42560881287825 l -9.64368588331438 -4.313498032874149 a31.56441871073114,31.56441871073114 0 0,0 0.22548348402046225,-0.4927221058746212 l 9.56821793443887 4.478409120963441" fill="#ff5107" stroke="none" /><path d="M 81.1358732173502 90.77261029715801 l -9.035419609524268 -4.419676501668925 a31.058446594757072,31.058446594757072 0 0,0 0.23838110084054093,-0.47692188684990394 l 8.958218595471983 4.574130244682599" fill="#ff4a06" stroke="none" /><path d="M 81.29705330413844 90.45014215332179 l -8.859088673900942 -4.52351380039977 a30.947141762056432,30.947141762056432 0 0,0 0.2456494676201651,-0.4710652442580657 l 8.780131137305839 4.674925287762322" fill="#ff4806" stroke="none" /><path d="M 81.46374523516351 90.13048839642627 l -8.92277475977494 -4.750874982293133 a31.108744853395773,31.108744853395773 0 0,0 0.25502452829245764,-0.46921640804687686 l 8.839904881867133 4.903346223814629" fill="#ff4a06" stroke="none" /><path d="M 81.63589988554816 89.8137432299009 l -13.14000884973012 -7.288541407993783 a36.026066299169116,36.026066299169116 0 0,0 0.3046203506790725,-0.5382349714916711 l 13.01295513402968 7.51303314958456" fill="#ff920d" stroke="none" /><line stroke="#e1ed5e" stroke-width="0.3" x1="26.387840678322718" x2="22.05771365940052" y1="57.49999999999999" y2="54.99999999999999" /><path d="M 25.521815274538284 56.99999999999999 a86.0,86.0 0 0,1 29.574782752854787,-30.34633250058573" fill="none" id="id107" stroke="none" /><text fill="#e1ed5e" style="font-size:6.75px; font-family:Arial;" text-anchor="middle"><textPath startOffset="21.40746469413373" xlink:href="#id107">November</textPath></text><path d="M 83.42222388311158 87.10902102172516 l -8.21459735230265 -6.387720586698433 a31.405891790432413,31.405891790432413 0 0,0 0.33459772710277713,-0.4227532977489921 l 8.103733194558313 6.527793828362108" fill="#ff4f07" stroke="none" /><path d="M 83.8745106332314 86.54754324733833 l -12.703266615400358 -10.597516817900388 a37.54328701944166,37.54328701944166 0 0,0 0.4170977602594532,-0.4913401128082354 l 12.51947429163379 10.81402371315818" fill="#ffa80f" stroke="none" /><path d="M 84.10781606972428 86.27271002978789 l -6.585889341575871 -5.688734355214127 a29.70262241991896,29.70262241991896 0 0,0 0.3366140717788652,-0.38300502229146965 l 6.487264205838413 5.800951655316896" fill="#ff3505" stroke="none" /><path d="M 84.58840730492382 85.73525988315684 l -11.710396567087107 -10.838968236426274 a36.95671081986207,36.95671081986207 0 0,0 0.43493502302021525,-0.46188592223970887 l 11.52260571033062 11.038395618610494" fill="#ff9f0e" stroke="none" /><path d="M 84.83555147118756 85.47280134310135 l -6.107229137507702 -5.850587362620173 a29.457400323129676,29.457400323129676 0 0,0 0.352946225004002,-0.3621539197194662 l 6.0058961113528975 5.954563974407369" fill="#ff3204" stroke="none" /><path d="M 85.08716467003674 85.21462403516908 l -10.589385658536507 -10.498878632654808 a35.911792017340986,35.911792017340986 0 0,0 0.4377956628119573,-0.434053842024357 l 10.407598075594573 10.679112484907838" fill="#ff910d" stroke="none" /><path d="M 85.34317274990677 84.96080404539775 l -6.447130014019449 -6.615323355538579 a30.2373150057798,30.2373150057798 0 0,0 0.37483833569345254,-0.35908664640813764 l 6.3326191924606965 6.725022132252286" fill="#ff3d05" stroke="none" /><path d="M 85.60350026404147 84.71141617570332 l -11.456942840486414 -12.166876268503604 a37.71210391851514,37.71210391851514 0 0,0 0.4751190456168338,-0.4397630955074493 l 11.246394023555627 12.361757110143419" fill="#ffaa0f" stroke="none" /><path d="M 85.86807049272753 84.46653392183569 l -5.682936668095748 -6.246542902212578 a29.4448248888162,29.4448248888162 0 0,0 0.3768025822231402,-0.33693919250395354 l 5.574869059049216 6.3431776245999325" fill="#ff3104" stroke="none" /><path d="M 86.13680546590413 84.22622945171909 l -9.692267715799051 -11.028021475534729 a35.68187015129802,35.68187015129802 0 0,0 0.4635593513196005,-0.4004115269421753 l 9.501528884716603 11.192777134941615" fill="#ff8d0d" stroke="none" /><path d="M 86.40962598614128 83.9905735841838 l -10.28568004593698 -12.116505231139172 a36.893549415521036,36.893549415521036 0 0,0 0.4863372086705773,-0.40571979665521407 l 10.076168503104494 12.291287211706267" fill="#ff9f0e" stroke="none" /><path d="M 86.96720088162412 83.53348406188908 l -9.253216327933897 -11.691136551615902 a35.909885522031075,35.909885522031075 0 0,0 0.48664744327889764,-0.3784199953544173 l 9.051158940019755 11.848257598591124" fill="#ff910d" stroke="none" /><path d="M 87.25179093698888 83.31218511350988 l -6.471542134097731 -8.471456392827271 a31.66050800895418,31.66050800895418 0 0,0 0.434724421616625,-0.32622531049016174 l 6.325164723570353 8.581300730581432" fill="#ff5307" stroke="none" /><path d="M 87.54013794807813 83.09580414077388 l -5.039491264255321 -6.837037762283335 a29.493618637859484,29.493618637859484 0 0,0 0.4101284150020589,-0.29690134426000303 l 4.921381838879294 6.922539877916417" fill="#ff3204" stroke="none" /><path d="M 87.83215693770416 82.88440491214696 l -4.936913654130259 -6.944387321169412 a29.52042438466279,29.52042438466279 0 0,0 0.41554201708285693,-0.29008060054323426 l 4.816976545873636 7.028112737517772" fill="#ff3304" stroke="none" /><path d="M 88.12776184653039 82.6780497279521 l -4.888258239225441 -7.132114858397269 a29.646509756354092,29.646509756354092 0 0,0 0.42225624348068236,-0.28411284531120684 l 4.765105707647769 7.214977377765585" fill="#ff3405" stroke="none" /><path d="M 88.4268655584334 82.4767994020092 l -5.333397388712478 -8.07544341449455 a30.677701899037213,30.677701899037213 0 0,0 0.4419259806568893,-0.2864510814635707 l 5.193985775798563 8.165808337662028" fill="#ff4406" stroke="none" /><path d="M 89.03521579738668 82.08984904055464 l -5.5297722361689985 -9.032467369264936 a31.59074349423785,31.59074349423785 0 0,0 0.46493638143167904,-0.27918093834244795 l 5.373903098179885 9.126062308143307" fill="#ff5207" stroke="none" /><line stroke="#e1ed5e" stroke-width="0.3" x1="56.869717070023135" x2="54.33264160355391" y1="26.7553504044142" y2="22.446841604673864" /><path d="M 56.362301976729285 25.89364864446614 a86.0,86.0 0 0,1 42.16139366436587,-11.88097634709845" fill="none" id="id108" stroke="none" /><text fill="#e1ed5e" style="font-size:6.75px; font-family:Arial;" text-anchor="middle"><textPath startOffset="22.145653131862474" xlink:href="#id108">December</textPath></text><path d="M 89.34428304082924 81.90426304109057 l -7.65097051434661 -12.993020595280775 a36.078326631320586,36.078326631320586 0 0,0 0.5363773962519532,-0.30967763411329413 l 7.426800650234257 13.122445126670243" fill="#ff930d" stroke="none" /><path d="M 89.65649057296885 81.72400993836675 l -4.405443237738549 -7.783996079666033 a29.944189459598476,29.944189459598476 0 0,0 0.4495276075282473,-0.24934538621511923 l 4.271171442054199 7.8584743813142985" fill="#ff3905" stroke="none" /><path d="M 89.97174638481275 81.54914285379989 l -4.502182430827762 -8.283508581347727 a30.4279457496167,30.4279457496167 0 0,0 0.4610720309603706,-0.24549488650097168 l 4.35932158408083 8.359573935571275" fill="#ff4006" stroke="none" /><path d="M 90.28995756902619 81.37971332152246 l -4.478919504229236 -8.588918717032712 a30.68660129525108,30.68660129525108 0 0,0 0.4691729682873261,-0.23956306059726332 l 4.330819314228327 8.664539729302808" fill="#ff4406" stroke="none" /><path d="M 90.93487009805054 81.0573650232925 l -5.060633716582278 -10.574778109183148 a32.723307795663665,32.723307795663665 0 0,0 0.5087871102257226,-0.23813805775287392 l 4.878357892485033 10.660092398506565" fill="#ff6209" stroke="none" /><path d="M 91.26138138417902 80.90454125486306 l -3.8780154900286585 -8.47416371607919 a30.319359142549196,30.319359142549196 0 0,0 0.4751283203723761,-0.21251885431431053 l 3.7319737668006634 8.539486321303347" fill="#ff3f05" stroke="none" /><path d="M 92.25597844496254 80.48000691201159 l -3.398317756457412 -8.565980691735819 a30.215453802447527,30.215453802447527 0 0,0 0.4837749366537246,-0.18713453816696154 l 3.2507705573101577 8.62305511804082" fill="#ff3d05" stroke="none" /><path d="M 92.592206182469 80.34994680014964 l -3.031938347037977 -8.042576681463276 a29.595096847473926,29.595096847473926 0 0,0 0.4769191348110439,-0.17513131232096363 l 2.893430060572806 8.093438842792962" fill="#ff3404" stroke="none" /><path d="M 92.93061703081487 80.22567764915836 l -2.93481328265668 -8.209195080214247 a29.718028037869107,29.718028037869107 0 0,0 0.48184842919519794,-0.1676118962750444 l 2.7934590814164775 8.258365409057877" fill="#ff3605" stroke="none" /><path d="M 93.27111125876988 80.10723608172694 l -2.772551554906853 -8.196556021956171 a29.65277832523649,29.65277832523649 0 0,0 0.48359058771260965,-0.1589658315107154 l 2.631438229546482 8.242942774868915" fill="#ff3505" stroke="none" /><path d="M 93.95794788825049 79.88797359093562 l -4.438038993425183 -14.772788415156471 a36.425027314923746,36.425027314923746 0 0,0 0.6003885001803192,-0.1747643422467378 l 4.183790480863239 14.84679645170573" fill="#ff980e" stroke="none" /><path d="M 94.30408787586887 79.78721728523814 l -2.2445287736607797 -7.9650407889600014 a29.275251306491406,29.275251306491406 0 0,0 0.48487985222424235,-0.1321561598886435 l 2.1074675205018596 8.002397442992784" fill="#ff2f04" stroke="none" /><path d="M 94.6519064749342 79.69241777938228 l -2.4457530808100074 -9.286922815970609 a30.60357451796398,30.60357451796398 0 0,0 0.5091774735694913,-0.12943092265834397 l 2.285970314015138 9.327538970464216" fill="#ff4306" stroke="none" /><path d="M 95.35216902796891 79.52079915486377 l -2.194816133700654 -9.670764855839595 a30.916698581569115,30.916698581569115 0 0,0 0.5185725330708112,-0.11302046997269193 l 2.028481184010724 9.707016783946" fill="#ff4806" stroke="none" /><path d="M 95.70440661134978 79.44403061299748 l -1.9482884774453681 -9.323265652944208 a30.524658021510042,30.524658021510042 0 0,0 0.5138368518366124,-0.10278176120765037 l 1.787955140077779 9.355336810814725" fill="#ff4206" stroke="none" /><path d="M 96.41257539226777 79.30868818359171 l -1.8097537941894994 -10.438178961529273 a31.593903380175583,31.593903380175583 0 0,0 0.5351743904140962,-0.08806274228490028 l 1.6303019007223305 10.467707702309843" fill="#ff5207" stroke="none" /><path d="M 96.76829788921471 79.25015418208739 l -1.4074154845607347 -9.036617022625759 a30.145559882248378,30.145559882248378 0 0,0 0.5120078279713405,-0.07524751875388849 l 1.2520825509817093 9.059445614678532" fill="#ff3c05" stroke="none" /><path d="M 97.12497278360702 79.19773525538626 l -1.2272018037845376 -8.87942092229015 a29.96382397096329,29.96382397096329 0 0,0 0.5101300766942682,-0.06604655158801151 l 1.0745939051994753 8.899179070078556" fill="#ff3905" stroke="none" /><path d="M 97.48249496171623 79.15144685158666 l -1.094470896301417 -9.063789070502578 a30.12962972181308,30.12962972181308 0 0,0 0.5140173632089107,-0.05759671768517873 l 0.938717631491707 9.081241548694727" fill="#ff3c05" stroke="none" /></svg>