<?xml version="1.0" encoding="utf-8" ?>
<svg baseProfile="full" height="200mm" version="1.1" viewBox="0,0,200,200" width="200mm" xmlns="http://www.w3.org/2000/svg" xmlns:ev="http://www.w3.org/2001/xml-events" xmlns:xlink="http://www.w3.org/1999/xlink"><defs /><rect fill="#1a1a1a" height="200" width="200" x="0" y="0" /><text alignment-baseline="middle" fill="#e1ed5e" style="dominant-baseline: central; font-size:9.0px; font-family:Arial;" text-anchor="middle" x="100.0" y="100.0">2024</text><line stroke="#e1ed5e" stroke-width="0.3" x1="100.0" x2="100.0" y1="15.0" y2="10.0" /><path d="M 100.0 14.0 a86.0,86.0 0 0,1 42.35913384403234,11.155469271406648" fill="none" id="id97" stroke="none" /><text fill="#e1ed5e" style="font-size:6.75px; font-family:Arial;" text-anchor="middle"><textPath startOffset="22.145653131862478" xlink:href="#id97">January</textPath></text><path d="M 100.36049292484886 79.00309439819443 l 0.26749405039907953 -15.580187399319874 a36.58248351402705,36.58248351402705 0 0,0 0.6278019046039023,0.016169950095929257 l -0.5349092690737232 15.5732997318739" fill="#ff4d07" stroke="none" /><path d="M 101.08105385017728 79.02784411241856 l 0.7833538281426534 -15.196854991309964 a36.21703140717559,36.21703140717559 0 0,0 0.6206144428984823,0.03733462376316061 l -1.0441126231735982 15.181168389722112" fill="#ff4606" stroke="none" /><path d="M 101.44090949804482 79.04949213459386 l 1.0633902432603268 -15.461460754927105 a36.49798591706717,36.49798591706717 0 0,0 0.6246908460405154,0.04835502230456635 l -1.3286500840760758 15.440927965627484" fill="#ff4b07" stroke="none" /><path d="M 101.80034050326958 79.07731436759882 l 1.2939995157668078 -15.03823583799817 a36.093805744942436,36.093805744942436 0 0,0 0.6168610781407795,0.0584173854479766 l -1.5519601572926003 15.01380669704501" fill="#ff4406" stroke="none" /><path d="M 102.15924093988457 79.11130261209362 l 1.1407076574580526 -11.035311819338995 a32.09411199284676,32.09411199284676 0 0,0 0.5475318141447764,0.06135208181699711 l -1.3299753732036257 11.014103977015028" fill="#ff0000" stroke="none" /><path d="M 102.87502721639298 79.19773525538626 l 2.083650830241237 -15.076259438125527 a36.21956633508439,36.21956633508439 0 0,0 0.6151719046429419,0.09040908537452641 l -2.3421478404918608 15.038269279452118" fill="#ff4606" stroke="none" /><path d="M 103.58742460773223 79.30868818359171 l 2.614990757765031 -15.082571784036986 a36.30758466525092,36.30758466525092 0 0,0 0.6131923423532808,0.11174407128841439 l -2.873517833669365 15.035459538817205" fill="#ff4806" stroke="none" /><path d="M 103.94208987418118 79.37332000966035 l 2.796297461326793 -14.63140992049744 a35.896222197384596,35.896222197384596 0 0,0 0.6042590810922444,0.12086873948100632 l -3.047053027949994 14.581251784353574" fill="#ff4106" stroke="none" /><path d="M 104.29559338865022 79.4440306129975 l 3.085971190471956 -14.767489280554587 a36.086482619872584,36.086482619872584 0 0,0 0.6052864490828351,0.13191936437192947 l -3.339020056173925 14.712338458048938" fill="#ff4406" stroke="none" /><path d="M 104.9986988182912 79.60360301121754 l 3.5949734570549996 -14.668718492484691 a36.102818821951494,36.102818821951494 0 0,0 0.6006730379063073,0.1526887373221408 l -3.8462517881867013 14.604844523327284" fill="#ff4506" stroke="none" /><path d="M 105.3480935250658 79.69241777938227 l 3.6772910062715227 -13.963272913795615 a35.43937185648821,35.43937185648821 0 0,0 0.5869748890894383,0.15998261618271814 l -3.9164472962956536 13.898089803468755" fill="#ff3905" stroke="none" /><path d="M 106.04205211174951 79.88797359093562 l 4.370293886235016 -14.547286986222419 a36.18956968816363,36.18956968816363 0 0,0 0.593438919736384,0.1838488942924974 l -4.619373438843031 14.470121504123275" fill="#ff4606" stroke="none" /><path d="M 106.72888874123014 80.10723608172694 l 10.582713675600475 -31.285912556924533 a54.02729406504974,54.02729406504974 0 0,0 0.8759991324369464,0.3047179711020086 l -11.11821858008244 31.099636153253936" fill="#acff21" stroke="none" /><path d="M 108.07796709384702 80.6158196554323 l 6.8291009215489265 -16.38735616481885 a38.7533676092545,38.7533676092545 0 0,0 0.6118694008692933,0.26117066322751153 l -7.10940539758865 16.267710851931938" fill="#ff700a" stroke="none" /><path d="M 108.73861861582097 80.90454125486305 l 6.24931854636771 -13.65588884624562 a36.01789873700682,36.01789873700682 0 0,0 0.5600119257269519,0.26211385790001435 l -6.482819185966167 13.546598756775072" fill="#ff4306" stroke="none" /><path d="M 109.06512990194946 81.05736502329252 l 9.500300718188118 -19.851974612618502 a43.00810327484073,43.00810327484073 0 0,0 0.6632254021064619,0.3244167788189972 l -9.839686369556647 19.685964083702284" fill="#ffb410" stroke="none" /><path d="M 109.3889696526874 81.21577127319529 l 8.482876888977053 -16.97143623190449 a39.97337208002683,39.97337208002683 0 0,0 0.6111600776767177,0.3120626903496928 l -8.77296418836735 16.823315589881965" fill="#ff840c" stroke="none" /><path d="M 109.71004243097381 81.37971332152246 l 7.496213532656359 -14.374977861671995 a37.21213144070638,37.21213144070638 0 0,0 0.5638722101358751,0.3002301916688101 l -7.741874558578794 14.244177202280612" fill="#ff5708" stroke="none" /><path d="M 110.34350942703115 81.72400993836675 l 11.64773729391513 -20.580435733716747 a44.64791997317537,44.64791997317537 0 0,0 0.6637817576186454,0.38323457644428793 l -11.999311519394173 20.377454259996288" fill="#ffcd13" stroke="none" /><line stroke="#e1ed5e" stroke-width="0.3" x1="143.13028292997686" x2="145.6673583964461" y1="26.7553504044142" y2="22.446841604673864" /><path d="M 143.63769802327073 25.89364864446614 a86.0,86.0 0 0,1 29.32050498858742,28.57503671076993" fill="none" id="id98" stroke="none" /><text fill="#e1ed5e" style="font-size:6.75px; font-family:Arial;" text-anchor="middle"><textPath startOffset="20.669276256404974" xlink:href="#id98">February</textPath></text><path d="M 110.65571695917076 81.90426304109057 l 7.621308913690211 -12.942648712720919 a36.01987034760255,36.01987034760255 0 0,0 0.5301220017853396,0.3183230304298266 l -7.842363672032985 12.809911681755171" fill="#ff4306" stroke="none" /><path d="M 111.27062007382361 82.28071324371311 l 10.805207835925447 -16.987581415393 a41.13281993964458,41.13281993964458 0 0,0 0.5925366198822829,0.3840750781833497 l -11.095230088064737 16.799592495505753" fill="#ff960d" stroke="none" /><path d="M 111.5731344415666 82.4767994020092 l 8.715047543833387 -13.195692757453791 a36.81386610036884,36.81386610036884 0 0,0 0.5243411428628716,0.35280012151984824 l -8.940284974793261 13.044142961876824" fill="#ff5007" stroke="none" /><path d="M 111.8722381534696 82.67804972795209 l 8.764092308869742 -12.787072596712797 a36.502210796915165,36.502210796915165 0 0,0 0.5138206045037272,0.35868668726273917 l -8.98230800454723 12.63474109364493" fill="#ff4b07" stroke="none" /><path d="M 112.16784306229584 82.88440491214696 l 8.537182819089601 -12.0086167757446 a35.73398681122164,35.73398681122164 0 0,0 0.4969048916153762,0.3597208213169989 l -8.742068721078946 11.860295183054525" fill="#ff3e05" stroke="none" /><path d="M 112.45986205192187 83.09580414077388 l 8.896232879919646 -12.069448472605918 a35.993816921873254,35.993816921873254 0 0,0 0.4942242631959635,0.37087510085885217 l -9.102110132026375 11.914954344483052" fill="#ff4306" stroke="none" /><path d="M 112.7482090630111 83.31218511350987 l 9.280017965222706 -12.147841409055218 a36.286882753995755,36.286882753995755 0 0,0 0.4917564748559388,0.38239280921042484 l -9.487184384713872 11.986747548224002" fill="#ff4806" stroke="none" /><path d="M 113.31354834802062 83.75963576809568 l 20.940290483937016 -25.543749546797425 a54.0299698222868,54.0299698222868 0 0,0 0.7122324938698756,0.5941696778126891 l -21.375697311968786 25.180517685072864" fill="#acff21" stroke="none" /><path d="M 113.59037401385872 83.9905735841838 l 9.69110477265434 -11.416097054250475 a35.97480496255728,35.97480496255728 0 0,0 0.4673650002530721,0.40369875585066345 l -9.885649252670273 11.248054165935093" fill="#ff4206" stroke="none" /><path d="M 114.65682725009322 84.96080404539774 l 14.354516877819577 -14.728998880559304 a41.56685592936179,41.56685592936179 0 0,0 0.5067357606052569,0.5024047117532094 l -14.605244558554796 14.480414158577435" fill="#ff9d0e" stroke="none" /><path d="M 114.91283532996326 85.21462403516908 l 10.526924955855115 -10.436951778925232 a35.82383592265564,35.82383592265564 0 0,0 0.429226188168945,0.4404238818246739 l -10.704537945174872 10.254705205032815" fill="#ff4006" stroke="none" /><path d="M 115.16444852881244 85.47280134310134 l 10.789656823582932 -10.33624716508081 a35.94171007041466,35.94171007041466 0 0,0 0.4229897128307476,0.44920041677044187 l -10.96550237014994 10.149505288365873" fill="#ff4206" stroke="none" /><path d="M 115.41159269507618 85.73525988315684 l 10.946382142261788 -10.131807890881028 a35.91565664468537,35.91565664468537 0 0,0 0.4149152798940176,0.45606457506238174 l -11.118695122997682 9.942405740260973" fill="#ff4106" stroke="none" /><path d="M 115.6541949942343 86.00192230759917 l 17.269654728019542 -15.442631747770637 a44.16712864647368,44.16712864647368 0 0,0 0.5005375216465877,0.5695198172282849 l -17.53220331362472 15.143899652731054" fill="#ffc512" stroke="none" /><path d="M 116.1254893667686 86.54754324733833 l 12.973458145804376 -10.822920202258203 a37.89515368279871,37.89515368279871 0 0,0 0.4124313290306991,0.5030991610213879 l -13.157336294073703 10.59861875953832" fill="#ff6209" stroke="none" /><path d="M 116.57777611688842 87.10902102172516 l 12.166794354972177 -9.460972880624118 a36.412361685481166,36.412361685481166 0 0,0 0.3794653978441598,0.4967323867809212 l -12.327411730170644 9.250719580602313" fill="#ff4a06" stroke="none" /><path d="M 116.7966241395341 87.39550010848427 l 12.348250282528845 -9.266357218782243 a36.43841511121046,36.43841511121046 0 0,0 0.37114778104067253,0.5035332459769029 l -12.505500083153343 9.053017663536465" fill="#ff4a06" stroke="none" /><path d="M 117.01052211995028 87.68569379921539 l 13.287942273076709 -9.619445468819903 a37.4043634737901,37.4043634737901 0 0,0 0.37205746565581826,0.5233454194778446 l -13.45111483726249 9.389922822632553" fill="#ff5a08" stroke="none" /><path d="M 117.21940702142032 87.97951657250589 l 12.189076840143214 -8.50892228583307 a35.86523974516598,35.86523974516598 0 0,0 0.348081140554464,0.507860786599881 l -12.333347717513002 8.298426764163139" fill="#ff4106" stroke="none" /><path d="M 117.42321728460499 88.27688183743584 l 12.533850059261404 -8.433333687826671 a36.106902872471224,36.106902872471224 0 0,0 0.34159805652491093,0.5172229959474564 l -12.67677255470704 8.216930813540156" fill="#ff4506" stroke="none" /><path d="M 117.81537515405839 88.88188828441811 l 12.622891216510821 -7.877617704100626 a35.879322677992626,35.879322677992626 0 0,0 0.32160180674476174,0.5253123820034894 l -12.756260987710984 7.659768205972581" fill="#ff4106" stroke="none" /><line stroke="#e1ed5e" stroke-width="0.3" x1="172.87174338648825" x2="177.1583165268699" y1="56.24261187166439" y2="53.66864786411523" /><path d="M 173.72905801456457 55.72781907015455 a86.0,86.0 0 0,1 12.242430191666344,42.057860355516425" fill="none" id="id99" stroke="none" /><text fill="#e1ed5e" style="font-size:6.75px; font-family:Arial;" text-anchor="middle"><textPath startOffset="22.145653131862474" xlink:href="#id99">March</textPath></text><path d="M 118.18653347947321 89.5 l 15.377184626079863 -8.878021683245786 a38.75604336649157,38.75604336649157 0 0,0 0.3277038193177872,0.579021248761034 l -15.527321810419025 8.612743664385635" fill="#ff700a" stroke="none" /><path d="M 118.36410011445183 89.81374322990088 l 16.64973429578695 -9.235326949527133 a40.03956186431206,40.03956186431206 0 0,0 0.32823794163359793,0.6039208423959737 l -16.80581758703589 8.948151273656554" fill="#ff850c" stroke="none" /><path d="M 118.70294669586156 90.45014215332178 l 13.195078358632315 -6.737501028573301 a35.81566782161618,35.81566782161618 0 0,0 0.27489392608893787,0.5499719963186791 l -13.30879219793299 6.509997176090872" fill="#ff4006" stroke="none" /><path d="M 118.8641267826498 90.77261029715802 l 13.808869720041955 -6.754610151358566 a36.37236615625349,36.37236615625349 0 0,0 0.26953783861856917,0.56323041639638 l -13.922786816620436 6.516567232897083" fill="#ff4906" stroke="none" /><path d="M 119.0197475246899 91.09779779509293 l 14.171763326075189 -6.633100810882857 a36.64726500502962,36.64726500502962 0 0,0 0.26179328911086974,0.572065582873664 l -14.28354108004111 6.388846245794508" fill="#ff4e07" stroke="none" /><path d="M 119.31412917781788 91.75594674310238 l 14.40263701029942 -6.147629305961174 a36.65979881524534,36.65979881524534 0 0,0 0.24208412572221816,0.5809137741017527 l -14.506046980558121 5.899483022418144" fill="#ff4e07" stroke="none" /><path d="M 119.4528033332814 92.08871423366111 l 18.442744730787915 -7.500503725921945 a40.90960545434224,40.90960545434224 0 0,0 0.25897986455777716,0.6527984368544983 l -18.568783270311815 7.182804271853882" fill="#ff930d" stroke="none" /><path d="M 119.58574465831526 92.42381321644754 l 14.310312185175585 -5.5355361737449895 a36.34363697328714,36.34363697328714 0 0,0 0.22008549817091136,0.5838029316284832 l -14.403228367160937 5.289064961922349" fill="#ff4906" stroke="none" /><path d="M 119.71291397450082 92.76114493625339 l 13.840593996698372 -5.082457827790423 a35.74426735218509,35.74426735218509 0 0,0 0.2065675337030959,0.5778061559924611 l -13.925801700445412 4.844116715417044" fill="#ff3f05" stroke="none" /><path d="M 119.94978838288452 93.4421083053983 l 14.186848171964623 -4.663498780734936 a35.93368279870348,35.93368279870348 0 0,0 0.18759997746694004,0.5876542574564724 l -14.264812865208821 4.4192754895870765" fill="#ff4206" stroke="none" /><path d="M 120.26092885502905 94.47779374421319 l 26.39156390755077 -7.19313810107475 a48.35426623449201,48.35426623449201 0 0,0 0.21140144229976243,0.8027257098139058 l -26.51115483065526 6.739031886888045" fill="#fbff18" stroke="none" /><path d="M 120.35273937422433 94.82641323984039 l 15.315533058596756 -3.8931486125691532 a36.802599754107526,36.802599754107526 0 0,0 0.15038676740623333,0.6136293306276337 l -15.38010735251928 3.6296634573334248" fill="#ff5007" stroke="none" /><path d="M 120.51834098615036 95.52812308129327 l 14.733852125505814 -3.211174494475999 a36.07972281211579,36.07972281211579 0 0,0 0.12669530252322533,0.6062828867894461 l -14.786805138853406 2.9577751564011483" fill="#ff4406" stroke="none" /><path d="M 120.77682067341334 96.94652285012252 l 62.330462020240034 -9.160431449632455 a84.0,84.0 0 0,0 0.19742193377914985,1.4284467671996575 l -62.478528470574396 8.089096374232712" fill="#4dd2ff" stroke="none" /><line stroke="#e1ed5e" stroke-width="0.3" x1="184.99686870605535" x2="189.99668451229388" y1="99.2704041080226" y2="99.22748670261217" /><path d="M 185.99683186730306 99.26182062694052 a86.0,86.0 0 0,1 -10.086455211305974,41.156179273409016" fill="none" id="id100" stroke="none" /><text fill="#e1ed5e" style="font-size:6.75px; font-family:Arial;" text-anchor="middle"><textPath startOffset="21.40746469413373" xlink:href="#id100">April</textPath></text><line stroke="#e1ed5e" stroke-width="0.3" x1="174.33088141563837" x2="178.70328620479359" y1="141.23008692659167" y2="143.65538615756765" /><path d="M 175.20536237346943 141.71514677278685 a86.0,86.0 0 0,1 -30.301960400862466,31.631185727798858" fill="none" id="id101" stroke="none" /><text fill="#e1ed5e" style="font-size:6.75px; font-family:Arial;" text-anchor="middle"><textPath startOffset="22.145653131862474" xlink:href="#id101">May</textPath></text><line stroke="#e1ed5e" stroke-width="0.3" x1="143.1302829299769" x2="145.66735839644613" y1="173.24464959558577" y2="177.55315839532614" /><path d="M 143.63769802327073 174.10635135553383 a86.0,86.0 0 0,1 -40.68552437913181,11.842963189579606" fill="none" id="id102" stroke="none" /><text fill="#e1ed5e" style="font-size:6.75px; font-family:Arial;" text-anchor="middle"><textPath startOffset="21.407464694133747" xlink:href="#id102">June</textPath></text><line stroke="#e1ed5e" stroke-width="0.3" x1="101.45913802915013" x2="101.54496967792366" y1="184.9874750549273" y2="189.98673829345242" /><path d="M 101.47630435890484 185.9873277026323 a86.0,86.0 0 0,1 -42.54439059252881,-10.42667462771756" fill="none" id="id103" stroke="none" /><text fill="#e1ed5e" style="font-size:6.75px; font-family:Arial;" text-anchor="middle"><textPath startOffset="22.145653131862474" xlink:href="#id103">July</textPath></text><line stroke="#e1ed5e" stroke-width="0.3" x1="58.13341422392154" x2="55.67067388415222" y1="173.97424548756322" y2="178.32567169271397" /><path d="M 57.64086615596768 174.84453072859336 a86.0,86.0 0 0,1 -31.369924170532247,-30.572349798747897" fill="none" id="id104" stroke="none" /><text fill="#e1ed5e" style="font-size:6.75px; font-family:Arial;" text-anchor="middle"><textPath startOffset="22.145653131862474" xlink:href="#id104">August</textPath></text><line stroke="#e1ed5e" stroke-width="0.3" x1="26.387840678322732" x2="22.057713659400548" y1="142.50000000000003" y2="145.00000000000006" /><path d="M 25.521815274538298 143.00000000000003 a86.0,86.0 0 0,1 -11.493303480769221,-40.785679425670985" fill="none" id="id105" stroke="none" /><text fill="#e1ed5e" style="font-size:6.75px; font-family:Arial;" text-anchor="middle"><textPath startOffset="21.40746469413373" xlink:href="#id105">September</textPath></text><line stroke="#e1ed5e" stroke-width="0.3" x1="15.003131293944662" x2="10.003315487706104" y1="100.72959589197737" y2="100.7725132973878" /><path d="M 14.003168132696942 100.73817937305945 a86.0,86.0 0 0,1 10.791469493833604,-42.45332614584628" fill="none" id="id106" stroke="none" /><text fill="#e1ed5e" style="font-size:6.75px; font-family:Arial;" text-anchor="middle"><textPath startOffset="22.145653131862435" xlink:href="#id106">October</textPath></text><line stroke="#e1ed5e" stroke-width="0.3" x1="26.387840678322718" x2="22.05771365940052" y1="57.49999999999999" y2="54.99999999999999" /><path d="M 25.521815274538284 56.99999999999999 a86.0,86.0 0 0,1 29.574782752854787,-30.34633250058573" fill="none" id="id107" stroke="none" /><text fill="#e1ed5e" style="font-size:6.75px; font-family:Arial;" text-anchor="middle"><textPath startOffset="21.40746469413373" xlink:href="#id107">November</textPath></text><line stroke="#e1ed5e" stroke-width="0.3" x1="56.869717070023135" x2="54.33264160355391" y1="26.7553504044142" y2="22.446841604673864" /><path d="M 56.362301976729285 25.89364864446614 a86.0,86.0 0 0,1 42.16139366436587,-11.88097634709845" fill="none" id="id108" stroke="none" /><text fill="#e1ed5e" style="font-size:6.75px; font-family:Arial;" text-anchor="middle"><textPath startOffset="22.145653131862474" xlink:href="#id108">December</textPath></text></svg>