<?xml version="1.0" encoding="utf-8" ?>
<svg baseProfile="full" height="200mm" version="1.1" viewBox="0,0,200,200" width="200mm" xmlns="http://www.w3.org/2000/svg" xmlns:ev="http://www.w3.org/2001/xml-events" xmlns:xlink="http://www.w3.org/1999/xlink"><defs /><rect fill="#1a1a1a" height="200" width="200" x="0" y="0" /><rect fill="#1a1a1a" height="200" width="180" x="10" y="0" /><text alignment-baseline="middle" fill="#e1ed5e" style="dominant-baseline: central; font-size:9.0px; font-family:Arial;" text-anchor="middle" x="100.0" y="100.0">2017</text><line stroke="#e1ed5e" stroke-width="0.3" x1="100.0" x2="100.0" y1="15.0" y2="10.0" /><path d="M 100.0 14.0 a86.0,86.0 0 0,1 42.46469731375804,11.215312516191453" fill="none" id="id13" stroke="none" /><text fill="#e1ed5e" style="font-size:6.75px; font-family:Arial;" text-anchor="middle"><textPath startOffset="22.20632615414155" xlink:href="#id13">January</textPath></text><path d="M 104.307194497241 79.44645832069477 l 6.177613344547871 -29.479010858954545 a51.11934574085393,51.11934574085393 0 0,0 0.8596747088044727,0.1878915941602035 l -6.684130777505872 29.36830576669847" fill="#beff1f" stroke="none" /><line stroke="#e1ed5e" stroke-width="0.3" x1="143.23703022742887" x2="145.7803849466894" y1="26.81831364943548" y2="22.513508569990506" /><path d="M 143.74570117128098 25.957352633546492 a86.0,86.0 0 0,1 28.547481713284135,27.462654790039103" fill="none" id="id14" stroke="none" /><text fill="#e1ed5e" style="font-size:6.75px; font-family:Arial;" text-anchor="middle"><textPath startOffset="19.985693538727396" xlink:href="#id14">February</textPath></text><path d="M 116.60985879189232 87.15038557335679 l 8.538534359010196 -6.605527214685392 a31.795348942204093,31.795348942204093 0 0,0 0.3311622763157056,0.43577073722577203 l -8.650972575550016 6.457571701578586" fill="#ff2503" stroke="none" /><line stroke="#e1ed5e" stroke-width="0.3" x1="172.23445277983987" x2="176.4835382374775" y1="55.19839476539836" y2="52.563006222186495" /><path d="M 173.08426987136738 54.67131705675599 a86.0,86.0 0 0,1 12.851231095245387,41.99856678651699" fill="none" id="id15" stroke="none" /><text fill="#e1ed5e" style="font-size:6.75px; font-family:Arial;" text-anchor="middle"><textPath startOffset="22.20632615414155" xlink:href="#id15">March</textPath></text><path d="M 119.04729006885535 91.15688171328212 l 9.31059724328549 -4.322647077076351 a31.265110753403107,31.265110753403107 0 0,0 0.2224254812591795,0.49008506433979315 l -9.383625041508017 4.161740003894495" fill="#ff1d02" stroke="none" /><path d="M 119.196687751892 91.48605970444005 l 7.80210444240917 -3.4603183768433037 a29.53502413584053,29.53502413584053 0 0,0 0.20211701682575878,0.4665139414530303 l -7.86051216907761 3.3255052908036706" fill="#ff0000" stroke="none" /><path d="M 120.37134235888165 94.90015583598534 l 31.309782148524057 -7.838217381737936 a53.27599897619614,53.27599897619614 0 0,0 0.2150503450723618,0.8915225161111278 l -31.44006529385724 7.298109633967401" fill="#a2ff22" stroke="none" /><line stroke="#e1ed5e" stroke-width="0.3" x1="184.98032266829074" x2="189.97916517819016" y1="98.17113171792111" y2="98.06355123074" /><path d="M 185.9800911702706 98.14961562048488 a86.0,86.0 0 0,1 -9.607161424134198,41.387399972396054" fill="none" id="id16" stroke="none" /><text fill="#e1ed5e" style="font-size:6.75px; font-family:Arial;" text-anchor="middle"><textPath startOffset="21.466115282336823" xlink:href="#id16">April</textPath></text><path d="M 120.9904718944345 100.63252640178507 l 22.495540405139003 0.6778801019926559 a43.50575169933053,43.50575169933053 0 0,0 -0.028999415833131887,0.7483460666455835 l -22.480538856454668 -1.0650034156522457" fill="#ffd814" stroke="none" /><path d="M 120.8583938346157 102.4346265915055 l 33.48663608642078 3.9086161342283465 a54.71397449825708,54.71397449825708 0 0,0 -0.11724029883466709,0.9345205354712883 l -33.414394278339266 -4.48445442398703" fill="#90ff24" stroke="none" /><line stroke="#e1ed5e" stroke-width="0.3" x1="174.80103733775053" x2="179.2010983576182" y1="140.37084112569926" y2="142.7455964860345" /><path d="M 175.68104954172406 140.8457921977663 a86.0,86.0 0 0,1 -30.038265399797805,32.042727171017184" fill="none" id="id17" stroke="none" /><text fill="#e1ed5e" style="font-size:6.75px; font-family:Arial;" text-anchor="middle"><textPath startOffset="22.206326154141568" xlink:href="#id17">May</textPath></text><path d="M 118.30583269289576 110.29060199501025 l 35.74702878264953 20.095149555757857 a62.00811020342012,62.00811020342012 0 0,0 -0.5310492782118273,0.9259291788391935 l -35.39582750828532 -20.707498580455365" fill="#3bff2e" stroke="none" /><line stroke="#e1ed5e" stroke-width="0.3" x1="143.8653032363475" x2="146.44561519142675" y1="172.8068346515853" y2="177.08958963109032" /><path d="M 144.38136562736335 173.6633856474863 a86.0,86.0 0 0,1 -40.68145358897372,12.25698825130547" fill="none" id="id18" stroke="none" /><text fill="#e1ed5e" style="font-size:6.75px; font-family:Arial;" text-anchor="middle"><textPath startOffset="21.466115282336833" xlink:href="#id18">June</textPath></text><path d="M 110.21172684928248 118.3499491758327 l 14.997964652549472 26.950572922400035 a51.84270293869727,51.84270293869727 0 0,0 -0.7835091087529849,0.42723163721822766 l -14.531832731927839 -27.204745211378032" fill="#b5ff20" stroke="none" /><line stroke="#e1ed5e" stroke-width="0.3" x1="102.19456741930631" x2="102.32365962044197" y1="184.97166512339345" y2="189.96999836594603" /><path d="M 102.22038585953345 185.97133177190398 a86.0,86.0 0 0,1 -42.740103519485714,-10.115201625700543" fill="none" id="id19" stroke="none" /><text fill="#e1ed5e" style="font-size:6.75px; font-family:Arial;" text-anchor="middle"><textPath startOffset="22.20632615414155" xlink:href="#id19">July</textPath></text><path d="M 90.42595943632237 118.69057910512821 l -11.368289801501684 22.193338163941373 a45.93556239329652,45.93556239329652 0 0,0 -0.7006465967683171,-0.3665451848259959 l 11.748627300796496 -21.994363560170658" fill="#fffa17" stroke="none" /><line stroke="#e1ed5e" stroke-width="0.3" x1="58.666819895761336" x2="56.23545636021788" y1="174.27360380694188" y2="178.64263932499728" /><path d="M 58.180547188652646 175.14741091055294 a86.0,86.0 0 0,1 -31.652253787137756,-30.449443065178592" fill="none" id="id20" stroke="none" /><text fill="#e1ed5e" style="font-size:6.75px; font-family:Arial;" text-anchor="middle"><textPath startOffset="22.20632615414155" xlink:href="#id20">August</textPath></text><path d="M 89.1626897886671 117.98757091392108 l -8.447089668487031 14.02032621242765 a37.36834967155657,37.36834967155657 0 0,0 -0.5481061410972431,-0.33669155873564244 l 8.687175009516583 -13.872846186863628" fill="#ff7d0b" stroke="none" /><path d="M 86.51685102203217 116.09983520530335 l -10.705197777911339 12.78276464542401 a37.67334193989015,37.67334193989015 0 0,0 -0.49358271335148873,-0.4206418963664285 l 10.923645967839885 -12.59659835883463" fill="#ff820c" stroke="none" /><path d="M 86.24171649860922 115.8653595955263 l -10.595959608162529 12.218726952833679 a37.17317681736387,37.17317681736387 0 0,0 -0.4798130401477157,-0.4233792210247751 l 10.804715001216833 -12.034524590036614" fill="#ff7a0b" stroke="none" /><path d="M 85.97065885151581 115.62618273729859 l -10.978320143797937 12.227889741927601 a37.43303991111985,37.43303991111985 0 0,0 -0.4757569151001476,-0.43459266185640066 l 11.18717660836494 -12.037104313484626" fill="#ff7e0b" stroke="none" /><path d="M 85.44109423537348 115.13401014063109 l -11.561182959598092 12.017871602230082 a37.67603637777843,37.67603637777843 0 0,0 -0.4635050377376365,-0.45363723430508557 l 11.766337949711524 -11.817084265002427" fill="#ff820c" stroke="none" /><path d="M 83.95833913139862 113.55231037782056 l -18.598852900639493 15.712676464458298 a45.347598051889385,45.347598051889385 0 0,0 -0.4986162754953017,-0.6006154245268079 l 18.86656517602833 -15.390199782817728" fill="#fff216" stroke="none" /><path d="M 83.72743513129214 113.27417163493432 l -12.561411235950139 10.246837549478153 a37.21069807269415,37.21069807269415 0 0,0 -0.4006034435319455,-0.4998143914014342 l 12.735932591536946 -10.02909532449846" fill="#ff7b0b" stroke="none" /><path d="M 83.28015986056508 112.70617746262583 l -24.96137922820435 18.969303028048326 a52.35131433200457,52.35131433200457 0 0,0 -0.5390658046666718,-0.7221667382257857 l 25.284206299566108 -18.536823410313232" fill="#aeff20" stroke="none" /><path d="M 82.85270091963577 112.12312394758628 l -15.6603373676428 11.07184344771562 a40.17894376130012,40.17894376130012 0 0,0 -0.39440242943514514,-0.568166115524509 l 15.848600704240079 -10.800636070004098" fill="#ffa80f" stroke="none" /><path d="M 82.6465618267979 111.8261652097733 l -15.32031613851313 10.440616315434193 a39.539648206751295,39.539648206751295 0 0,0 -0.3784450715575806,-0.5657240338769893 l 15.49776431548144 -10.175355367351383" fill="#ff9e0e" stroke="none" /><path d="M 82.44556493220864 111.52570212397912 l -18.53799293769865 12.171475968962955 a43.17660951140205,43.17660951140205 0 0,0 -0.40256048372385306,-0.6247828104352968 l 18.74475828479955 -11.85057155860621" fill="#ffd313" stroke="none" /><line stroke="#e1ed5e" stroke-width="0.3" x1="26.63291911575756" x2="22.317208475507996" y1="142.92168965132927" y2="145.44649492493687" /><path d="M 25.769776987707644 143.4266507060508 a86.0,86.0 0 0,1 -11.730757126820373,-40.83630448921669" fill="none" id="id21" stroke="none" /><text fill="#e1ed5e" style="font-size:6.75px; font-family:Arial;" text-anchor="middle"><textPath startOffset="21.46611528233685" xlink:href="#id21">September</textPath></text><path d="M 81.35079622478065 109.6543875284942 l -15.660250148269261 8.107055161542512 a38.63427849668538,38.63427849668538 0 0,0 -0.3006507230369599,-0.5932123992934155 l 15.797479541092489 -7.836288550546411" fill="#ff900d" stroke="none" /><path d="M 81.18737489456691 109.33194174019688 l -18.548691421093178 9.201018291091195 a41.70537831163513,41.70537831163513 0 0,0 -0.31347895943536835,-0.6458595058376014 l 18.70432363714327 -8.880369829288309" fill="#ffbe11" stroke="none" /><path d="M 80.73074385275274 108.34839909993369 l -17.122965615929783 7.4185194095644915 a39.660931962643204,39.660931962643204 0 0,0 -0.2660096834255705,-0.6287683136278662 l 17.24812628054766 -7.122676570270467" fill="#ffa00e" stroke="none" /><path d="M 80.58989483394504 108.01547362559985 l -16.00085588213658 6.607611716323188 a38.31149680283586,38.31149680283586 0 0,0 -0.2464658600928367,-0.6117080522323431 l 16.112224356486806 -6.331204296248039" fill="#ff8c0c" stroke="none" /><path d="M 80.45479744820244 107.68017299344265 l -30.161859357997503 11.851926172645541 a53.40688065725336,53.40688065725336 0 0,0 -0.32884834181188716,-0.8585192513734669 l 30.3614019794029 -11.330983354438915" fill="#a1ff22" stroke="none" /><path d="M 79.23777060512086 103.15116336523772 l -37.49271066029674 5.690412818833641 a58.92207998917616,58.92207998917616 0 0,0 -0.1435621018439076,-1.0040730059266532 l 37.585106813157246 -5.0441943409265875" fill="#5eff2a" stroke="none" /><line stroke="#e1ed5e" stroke-width="0.3" x1="15.007084014347285" x2="10.007500721073583" y1="101.09737516637583" y2="101.16192664675087" /><path d="M 14.007167355692545 101.11028546245083 a86.0,86.0 0 0,1 10.666146001902534,-42.60595125391555" fill="none" id="id22" stroke="none" /><text fill="#e1ed5e" style="font-size:6.75px; font-family:Arial;" text-anchor="middle"><textPath startOffset="22.20632615414155" xlink:href="#id22">October</textPath></text><path d="M 79.21141760316559 97.0276538004421 l -23.25580462435653 -3.325109003266772 a44.49231360700449,44.49231360700449 0 0,0 0.11492599049668263,-0.7572186845177526 l 23.195122740420544 3.7249268001766165" fill="#ffe615" stroke="none" /><path d="M 79.32604984820605 96.31383870115002 l -23.40918685483536 -4.173853472039751 a44.77837425079046,44.77837425079046 0 0,0 0.14182862608498192,-0.7576541917567285 l 23.333872504840517 4.576185741259052" fill="#ffea16" stroke="none" /><path d="M 79.3925641242962 95.95851677861259 l -16.306280210566243 -3.1979504035212396 a37.61690889091247,37.61690889091247 0 0,0 0.130084114721884,-0.6343363418169262 l 16.24881679992936 3.478162401501568" fill="#ff810b" stroke="none" /><path d="M 79.46518482838121 95.60439243477599 l -32.907376604108016 -7.044032894564878 a54.65284288710699,54.65284288710699 0 0,0 0.20483264292909933,-0.9182245746060753 l 32.781249574176876 7.609435638720912" fill="#91ff24" stroke="none" /><path d="M 79.71946130924805 94.55025226153421 l -21.92016032573969 -5.8903437420270075 a43.69778795621655,43.69778795621655 0 0,0 0.20145352243560524,-0.7247355052736234 l 21.815520032737723 6.266790550719573" fill="#ffdb14" stroke="none" /><path d="M 79.91906864156998 93.8553929516997 l -16.084318733258538 -4.921675020516378 a37.820469497627776,37.820469497627776 0 0,0 0.19584612662756834,-0.6208857411896211 l 15.997217122862766 5.197810928132414" fill="#ff840c" stroke="none" /><path d="M 80.38941819471856 92.48833698450439 l -16.356185804338416 -6.265094896263334 a38.51502863615205,38.51502863615205 0 0,0 0.2424731053424131,-0.6170676052905489 l 16.245919149114314 6.5457115064496465" fill="#ff8f0d" stroke="none" /><path d="M 80.52162464483688 92.15188598940014 l -13.67391795672177 -5.509415705324481 a35.742106148757514,35.742106148757514 0 0,0 0.23483978635904523,-0.568683169993188 l 13.577056483476525 5.743973445770981" fill="#ff6409" stroke="none" /><path d="M 80.803312248108 91.48605970444005 l -15.703395139156273 -6.964626938789771 a38.178551955650775,38.178551955650775 0 0,0 0.2716089144699298,-0.5984542399085594 l 15.581183907722991 7.233903187540402" fill="#ff8a0c" stroke="none" /><path d="M 81.10775173730289 90.83032412892265 l -56.676744788091334 -27.50902761323202 a84.0,84.0 0 0,0 0.6425599481863489,-1.295361646004154 l 56.19482482695157 28.480548847735136" fill="#4dd2ff" stroke="none" /><path d="M 81.43458229118936 90.18545643968196 l -15.547029310114427 -8.218883021697154 a38.58579422414293,38.58579422414293 0 0,0 0.3154699215956196,-0.584517853139043 l 15.403251289300336 8.485281858168669" fill="#ff900d" stroke="none" /><line stroke="#e1ed5e" stroke-width="0.3" x1="26.266209847984243" x2="21.928928074336255" y1="57.711370442889674" y2="55.22380399835377" /><path d="M 25.398753493254645 57.213857153982495 a86.0,86.0 0 0,1 29.58750427330803,-30.492523968695096" fill="none" id="id23" stroke="none" /><text fill="#e1ed5e" style="font-size:6.75px; font-family:Arial;" text-anchor="middle"><textPath startOffset="21.46611528233685" xlink:href="#id23">November</textPath></text><path d="M 81.96595687620814 89.24020034530311 l -14.303895191510767 -8.53425077704247 a37.65637577551536,37.65637577551536 0 0,0 0.33690657628652104,-0.5537858277954089 l 14.15487281693803 8.779204378044952" fill="#ff820b" stroke="none" /><path d="M 82.7489923806493 88.02491185347247 l -14.805282390469056 -10.277345275833323 a39.02276928166775,39.02276928166775 0 0,0 0.387788547113759,-0.5484993988388162 l 14.626181223551418 10.530671175003926" fill="#ff960d" stroke="none" /><path d="M 82.95767976084542 87.72973835380427 l -14.776936182597565 -10.639212897375028 a39.208533549416664,39.208533549416664 0 0,0 0.3990633108582798,-0.5443219075343293 l 14.591610259225652 10.891997248580857" fill="#ff990e" stroke="none" /><path d="M 83.39014120810768 87.1503855733568 l -14.002359314109084 -10.832417090592227 a38.70331399444669,38.70331399444669 0 0,0 0.4121827734451551,-0.5234302644593481 l 13.813822460069959 11.071839749004623" fill="#ff910d" stroke="none" /><path d="M 83.6137871275137 86.86637796730984 l -13.79987890439673 -11.060663927511943 a38.685444418882376,38.685444418882376 0 0,0 0.4209372564004537,-0.5160193041655057 l 13.607443155919883 11.29656740128553" fill="#ff910d" stroke="none" /><path d="M 83.84228863543731 86.58626213691792 l -23.685696973604266 -19.66328789639962 a51.78404021602918,51.78404021602918 0 0,0 0.5752698558645494,-0.6809380598905906 l 23.343716504252594 20.068084905919328" fill="#b6ff1f" stroke="none" /><path d="M 84.5562425177563 85.77008943001954 l -13.316597984668697 -12.269941342713155 a39.107546560451084,39.107546560451084 0 0,0 0.4604125460621622,-0.49113600280269376 l 13.103418116636078 12.4973467623939" fill="#ff980e" stroke="none" /><path d="M 85.05521093208273 85.24692304244772 l -12.699590505531964 -12.536679855838466 a38.84510971711812,38.84510971711812 0 0,0 0.4738441165761186,-0.4718092793523764 l 12.481910588788532 12.753424985840951" fill="#ff940d" stroke="none" /><line stroke="#e1ed5e" stroke-width="0.3" x1="56.762969772571076" x2="54.21961505331055" y1="26.818313649435495" y2="22.513508569990535" /><path d="M 56.25429882871897 25.957352633546506 a86.0,86.0 0 0,1 42.265352541879196,-11.944610805530505" fill="none" id="id24" stroke="none" /><text fill="#e1ed5e" style="font-size:6.75px; font-family:Arial;" text-anchor="middle"><textPath startOffset="22.20632615414155" xlink:href="#id24">December</textPath></text><path d="M 90.26544431104013 81.39251694778311 l -8.689709460375767 -16.610272382129402 a39.74599154790898,39.74599154790898 0 0,0 0.6089455209964454,-0.3119255474267329 l 8.402503451790558 16.75739045486864" fill="#ffa10e" stroke="none" /><path d="M 90.58718382345135 81.22770947309562 l -7.987715937245786 -15.930166000048567 a38.82060028964327,38.82060028964327 0 0,0 0.599923820280601,-0.29438001317114415 l 7.712320849954759 16.06530117335454" fill="#ff930d" stroke="none" /><path d="M 91.23893434514133 80.91482961587045 l -7.993964003532171 -17.41411045897144 a40.16128136547832,40.16128136547832 0 0,0 0.6307575590296128,-0.2830025305950556 l 7.693024326035784 17.549133320083026" fill="#ffa70f" stroke="none" /><path d="M 91.56875222667455 80.76684994638697 l -7.10705855727433 -16.21244296773383 a38.7017961890467,38.7017961890467 0 0,0 0.6124397845861604,-0.2622147538316956 l 6.826935014897861 16.33237724952831" fill="#ff910d" stroke="none" /><path d="M 91.90106846888425 80.62456947434976 l -11.993188900517314 -28.69183390799202 a52.09755477537249,52.09755477537249 0 0,0 0.8303758065866699,-0.33873114100151985 l 11.497529224342264 28.894025935177115" fill="#b1ff20" stroke="none" /><path d="M 92.23578459929587 80.48803036053334 l -7.244868481442477 -18.206817631439545 a40.595313918840304,40.595313918840304 0 0,0 0.6514906767986736,-0.25276826108294376 l 6.930394639644128 18.328828596413043" fill="#ffae10" stroke="none" /><path d="M 92.91201910852362 80.23233633223022 l -5.968233283905657 -16.64480055087481 a38.68245440852377,38.68245440852377 0 0,0 0.6287151341252698,-0.21934636515104294 l 5.680836145717102 16.745067769198062" fill="#ff910d" stroke="none" /><path d="M 93.59665428221793 80.00007090966166 l -5.844417039615118 -18.254195778008672 a40.16697352308948,40.16697352308948 0 0,0 0.660296514005303,-0.20515734106017894 l 5.529335152899087 18.352093253951377" fill="#ffa70f" stroke="none" /><path d="M 94.98787191387505 79.60689891045804 l -4.6126251056994825 -18.76762294425205 a40.3261476074086,40.3261476074086 0 0,0 0.6755135011589918,-0.15987222075844768 l 4.288887917577957 18.84424107715137" fill="#ffaa0f" stroke="none" /><path d="M 96.75951476605007 79.25152402106235 l -4.8212101885738425 -30.86968665649528 a52.24390535692699,52.24390535692699 0 0,0 0.8897162447231893,-0.13112104672773114 l 4.2891249634220046 30.948102187383977" fill="#b0ff20" stroke="none" /><path d="M 97.11714578562143 79.19881850522333 l -2.2218963064015336 -16.032051881608954 a37.185286859706935,37.185286859706935 0 0,0 0.6347798883531062,-0.08241264781301687 l 1.9456016895405697 16.067922852586108" fill="#ff7a0b" stroke="none" /><path d="M 97.83486435360386 79.11191278185805 l -1.4996835750098914 -14.468156471656949 a35.54567298248875,35.54567298248875 0 0,0 0.6091425974792933,-0.05784542947704817 l 1.2504158504403617 14.491827445649177" fill="#ff6108" stroke="none" /></svg>