<?xml version="1.0" encoding="utf-8" ?>
<svg baseProfile="full" height="200mm" version="1.1" viewBox="0,0,200,200" width="200mm" xmlns="http://www.w3.org/2000/svg" xmlns:ev="http://www.w3.org/2001/xml-events" xmlns:xlink="http://www.w3.org/1999/xlink"><defs /><rect fill="#1a1a1a" height="200" width="200" x="0" y="0" /><text alignment-baseline="middle" fill="#e1ed5e" style="dominant-baseline: central; font-size:9.0px; font-family:Arial;" text-anchor="middle" x="100.0" y="100.0">2017</text><line stroke="#e1ed5e" stroke-width="0.3" x1="100.0" x2="100.0" y1="15.0" y2="10.0" /><path d="M 100.0 14.0 a86.0,86.0 0 0,1 42.46469731375804,11.215312516191453" fill="none" id="id13" stroke="none" /><text fill="#e1ed5e" style="font-size:6.75px; font-family:Arial;" text-anchor="middle"><textPath startOffset="22.20632615414155" xlink:href="#id13">January</textPath></text><path d="M 104.307194497241 79.44645832069477 l 6.2095953003053435 -29.631625852558376 a51.27527579493835,51.27527579493835 0 0,0 0.862296986572237,0.1884647225133701 l -6.718735011031108 29.520347631949136" fill="#bcff1f" stroke="none" /><line stroke="#e1ed5e" stroke-width="0.3" x1="143.23703022742887" x2="145.7803849466894" y1="26.81831364943548" y2="22.513508569990506" /><path d="M 143.74570117128098 25.957352633546492 a86.0,86.0 0 0,1 28.547481713284135,27.462654790039103" fill="none" id="id14" stroke="none" /><text fill="#e1ed5e" style="font-size:6.75px; font-family:Arial;" text-anchor="middle"><textPath startOffset="19.985693538727396" xlink:href="#id14">February</textPath></text><path d="M 116.60985879189232 87.15038557335679 l 8.560806218486503 -6.622757030448462 a31.823507462686564,31.823507462686564 0 0,0 0.3314555594546203,0.43615666345832066 l -8.673537718165237 6.474415591109109" fill="#ff2503" stroke="none" /><line stroke="#e1ed5e" stroke-width="0.3" x1="172.23445277983987" x2="176.4835382374775" y1="55.19839476539836" y2="52.563006222186495" /><path d="M 173.08426987136738 54.67131705675599 a86.0,86.0 0 0,1 12.851231095245387,41.99856678651699" fill="none" id="id15" stroke="none" /><text fill="#e1ed5e" style="font-size:6.75px; font-family:Arial;" text-anchor="middle"><textPath startOffset="22.20632615414155" xlink:href="#id15">March</textPath></text><path d="M 119.04729006885535 91.15688171328212 l 9.37554162712952 -4.3527989184309295 a31.336713173264116,31.336713173264116 0 0,0 0.22293487343189627,0.49120744246988335 l -9.449078817524763 4.190769467118984" fill="#ff1d03" stroke="none" /><path d="M 119.196687751892 91.48605970444005 l 7.815393886011194 -3.466212389959066 a29.54956197274497,29.54956197274497 0 0,0 0.20221650359823307,0.46674357064050953 l -7.873901099452107 3.3311696747319535" fill="#ff0000" stroke="none" /><path d="M 120.37134235888165 94.90015583598534 l 31.420722950377215 -7.865990750370918 a53.390363400389354,53.390363400389354 0 0,0 0.21551198088134477,0.8934362945699023 l -31.55146773151938 7.32396922414161" fill="#a1ff22" stroke="none" /><line stroke="#e1ed5e" stroke-width="0.3" x1="184.98032266829074" x2="189.97916517819016" y1="98.17113171792111" y2="98.06355123074" /><path d="M 185.9800911702706 98.14961562048488 a86.0,86.0 0 0,1 -9.607161424134198,41.387399972396054" fill="none" id="id16" stroke="none" /><text fill="#e1ed5e" style="font-size:6.75px; font-family:Arial;" text-anchor="middle"><textPath startOffset="21.466115282336823" xlink:href="#id16">April</textPath></text><path d="M 120.9904718944345 100.63252640178507 l 22.579692103592254 0.6804159273563939 a43.589941596365996,43.589941596365996 0 0,0 -0.02905553388046395,0.7497942240922862 l -22.564634436860587 -1.0689873984626863" fill="#ffd914" stroke="none" /><path d="M 120.8583938346157 102.4346265915055 l 33.603777420594035 3.922289066545375 a54.831911096690455,54.831911096690455 0 0,0 -0.11749301164105101,0.9365349051845163 l -33.531282899706135 -4.5001417260172865" fill="#8fff24" stroke="none" /><line stroke="#e1ed5e" stroke-width="0.3" x1="174.80103733775053" x2="179.2010983576182" y1="140.37084112569926" y2="142.7455964860345" /><path d="M 175.68104954172406 140.8457921977663 a86.0,86.0 0 0,1 -30.038265399797805,32.042727171017184" fill="none" id="id17" stroke="none" /><text fill="#e1ed5e" style="font-size:6.75px; font-family:Arial;" text-anchor="middle"><textPath startOffset="22.206326154141568" xlink:href="#id17">May</textPath></text><path d="M 118.30583269289576 110.29060199501025 l 35.790813316304764 20.119762979082655 a62.05833874107723,62.05833874107723 0 0,0 -0.5314794449848662,0.926679210866852 l -35.43918187516752 -20.73286203580782" fill="#3aff2e" stroke="none" /><line stroke="#e1ed5e" stroke-width="0.3" x1="143.8653032363475" x2="146.44561519142675" y1="172.8068346515853" y2="177.08958963109032" /><path d="M 144.38136562736335 173.6633856474863 a86.0,86.0 0 0,1 -40.68145358897372,12.25698825130547" fill="none" id="id18" stroke="none" /><text fill="#e1ed5e" style="font-size:6.75px; font-family:Arial;" text-anchor="middle"><textPath startOffset="21.466115282336833" xlink:href="#id18">June</textPath></text><path d="M 110.21172684928248 118.3499491758327 l 15.044594377922824 27.034364146285363 a51.93859506813757,51.93859506813757 0 0,0 -0.7849583456294463,0.42802187671452796 l -14.577013220424728 -27.28932667475966" fill="#b4ff20" stroke="none" /><line stroke="#e1ed5e" stroke-width="0.3" x1="102.19456741930631" x2="102.32365962044197" y1="184.97166512339345" y2="189.96999836594603" /><path d="M 102.22038585953345 185.97133177190398 a86.0,86.0 0 0,1 -42.740103519485714,-10.115201625700543" fill="none" id="id19" stroke="none" /><text fill="#e1ed5e" style="font-size:6.75px; font-family:Arial;" text-anchor="middle"><textPath startOffset="22.20632615414155" xlink:href="#id19">July</textPath></text><path d="M 90.42595943632237 118.69057910512821 l -11.407437823469492 22.269763493093887 a46.0214308890331,46.0214308890331 0 0,0 -0.7019563329764499,-0.36723037690813504 l 11.789085058972436 -22.070103697241038" fill="#fffb17" stroke="none" /><line stroke="#e1ed5e" stroke-width="0.3" x1="58.666819895761336" x2="56.23545636021788" y1="174.27360380694188" y2="178.64263932499728" /><path d="M 58.180547188652646 175.14741091055294 a86.0,86.0 0 0,1 -31.652253787137756,-30.449443065178592" fill="none" id="id20" stroke="none" /><text fill="#e1ed5e" style="font-size:6.75px; font-family:Arial;" text-anchor="middle"><textPath startOffset="22.20632615414155" xlink:href="#id20">August</textPath></text><path d="M 89.1626897886671 117.98757091392108 l -8.531857573207736 14.161022443102462 a37.53260869565217,37.53260869565217 0 0,0 -0.5505154361458271,-0.338171544534995 l 8.774352209285873 -14.01206243173909" fill="#ff800b" stroke="none" /><path d="M 86.51685102203217 116.09983520530335 l -10.754895592020823 12.842107356724902 a37.75074626865671,37.75074626865671 0 0,0 -0.4945968373089202,-0.421506154803901 l 10.9743579059068 -12.65507681169805" fill="#ff830c" stroke="none" /><path d="M 86.24171649860922 115.8653595955263 l -10.660214471551322 12.292822425086563 a37.27125243348475,37.27125243348475 0 0,0 -0.48107895184976157,-0.42449624091680077 l 10.870235776307672 -12.107503042397473" fill="#ff7c0b" stroke="none" /><path d="M 85.97065885151581 115.62618273729859 l -11.013136847846534 12.266669337777161 a37.48515574302401,37.48515574302401 0 0,0 -0.4764192836246776,-0.4351977197989527 l 11.222655680938066 -12.075278851391632" fill="#ff7f0b" stroke="none" /><path d="M 85.44109423537348 115.13401014063109 l -11.595162261470554 12.053193150938698 a37.725048669695,37.725048669695 0 0,0 -0.4641080057352945,-0.45422736539873476 l 11.800920219581643 -11.851815682617394" fill="#ff820c" stroke="none" /><path d="M 83.95833913139862 113.55231037782056 l -19.05480735686659 16.09787575021522 a45.944484101232966,45.944484101232966 0 0,0 -0.5051792934191672,-0.6085210024035107 l 19.32908265017929 -15.767493490697946" fill="#fffa17" stroke="none" /><path d="M 83.72743513129214 113.27417163493432 l -12.601432297059969 10.27948430421352 a37.262345879299154,37.262345879299154 0 0,0 -0.4011594741964715,-0.5005081251490535 l 12.7765096833113 -10.061048345486208" fill="#ff7b0b" stroke="none" /><path d="M 83.28015986056508 112.70617746262583 l -25.054068974303856 19.039742239971666 a52.467731992212855,52.467731992212855 0 0,0 -0.5402645669227557,-0.7237726761667381 l 25.378094807921695 -18.60565668429562" fill="#adff20" stroke="none" /><path d="M 82.85270091963577 112.12312394758628 l -15.702249276989322 11.101475127288394 a40.230272550292014,40.230272550292014 0 0,0 -0.3949062803874906,-0.5688919504003425 l 15.891016464538946 -10.82954191470104" fill="#ffa80f" stroke="none" /><path d="M 82.6465618267979 111.8261652097733 l -15.394520232388725 10.49118553777824 a39.629445165476966,39.629445165476966 0 0,0 -0.37930454345507686,-0.5670088277490678 l 15.572827881254533 -10.22463979582335" fill="#ff9f0e" stroke="none" /><path d="M 82.44556493220864 111.52570212397912 l -18.633177641775067 12.233971317956373 a43.29047696301103,43.29047696301103 0 0,0 -0.4036221357831239,-0.6264305180074854 l 18.84100464093524 -11.911419200027439" fill="#ffd513" stroke="none" /><line stroke="#e1ed5e" stroke-width="0.3" x1="26.63291911575756" x2="22.317208475507996" y1="142.92168965132927" y2="145.44649492493687" /><path d="M 25.769776987707644 143.4266507060508 a86.0,86.0 0 0,1 -11.730757126820373,-40.83630448921669" fill="none" id="id21" stroke="none" /><text fill="#e1ed5e" style="font-size:6.75px; font-family:Arial;" text-anchor="middle"><textPath startOffset="21.46611528233685" xlink:href="#id21">September</textPath></text><path d="M 81.35079622478065 109.6543875284942 l -15.723757966547522 8.139932119515496 a38.705791693705386,38.705791693705386 0 0,0 -0.30120723645528585,-0.5943104530642144 l 15.861543872789074 -7.868067454748596" fill="#ff910d" stroke="none" /><path d="M 81.18737489456691 109.33194174019688 l -18.534063267575917 9.193762042926746 a41.68904931862427,41.68904931862427 0 0,0 -0.31335622237015287,-0.6456066311297397 l 18.68957274656079 -8.873366455831722" fill="#ffbe11" stroke="none" /><path d="M 80.73074385275274 108.34839909993369 l -17.186115046281984 7.445878880188839 a39.72975340687864,39.72975340687864 0 0,0 -0.26647127546811766,-0.6298593808643627 l 17.311737302942408 -7.148944973658317" fill="#ffa10e" stroke="none" /><path d="M 80.58989483394504 108.01547362559985 l -16.088101744812576 6.643640213090178 a38.40588903309539,38.40588903309539 0 0,0 -0.24707310502343086,-0.6132151843502834 l 16.200077464093397 -6.365725660897089" fill="#ff8d0d" stroke="none" /><path d="M 80.45479744820244 107.68017299344265 l -30.243378880400712 11.883958792043588 a53.494467878001295,53.494467878001295 0 0,0 -0.3293876527012783,-0.8599272219244709 l 30.4434608126955 -11.361608003285959" fill="#a0ff22" stroke="none" /><path d="M 79.23777060512086 103.15116336523772 l -37.482733893997484 5.688898606661729 a58.911988968202465,58.911988968202465 0 0,0 -0.14353751533608233,-1.0039010479481876 l 37.57510546035016 -5.042852086733141" fill="#5eff2a" stroke="none" /><line stroke="#e1ed5e" stroke-width="0.3" x1="15.007084014347285" x2="10.007500721073583" y1="101.09737516637583" y2="101.16192664675087" /><path d="M 14.007167355692545 101.11028546245083 a86.0,86.0 0 0,1 10.666146001902534,-42.60595125391555" fill="none" id="id22" stroke="none" /><text fill="#e1ed5e" style="font-size:6.75px; font-family:Arial;" text-anchor="middle"><textPath startOffset="22.20632615414155" xlink:href="#id22">October</textPath></text><path d="M 79.21141760316559 97.0276538004421 l -23.374146674034094 -3.342029519292942 a44.61185918234912,44.61185918234912 0 0,0 0.11523478301705664,-0.7592532414100274 l 23.313155997577734 3.7438818730950616" fill="#ffe815" stroke="none" /><path d="M 79.32604984820605 96.31383870115002 l -23.57097677649941 -4.202700583665887 a44.94271576898118,44.94271576898118 0 0,0 0.1423491526142205,-0.760434865289883 l 23.495141899975327 4.607813526418344" fill="#ffec16" stroke="none" /><path d="M 79.3925641242962 95.95851677861259 l -16.35164789940776 -3.206847810959604 a37.66314081765087,37.66314081765087 0 0,0 0.13024399067764347,-0.6351159537559994 l 16.294024612815118 3.487839420879006" fill="#ff820b" stroke="none" /><path d="M 79.46518482838121 95.60439243477599 l -33.00109655314132 -7.064094244693442 a54.748685918234905,54.748685918234905 0 0,0 0.20519185171559956,-0.919834837162191 l 32.874610314423684 7.631107251405592" fill="#90ff24" stroke="none" /><path d="M 79.71946130924805 94.55025226153421 l -21.958143647992888 -5.900550548054461 a43.73711875405581,43.73711875405581 0 0,0 0.20163484346203478,-0.7253878134790962 l 21.853322033964492 6.2776496649525" fill="#ffdb14" stroke="none" /><path d="M 79.91906864156998 93.8553929516997 l -16.151541547723607 -4.9422446729989185 a37.890768981181054,37.890768981181054 0 0,0 0.19621015916710863,-0.6220398238208259 l 16.064075904788297 5.219534663246159" fill="#ff850c" stroke="none" /><path d="M 80.38941819471856 92.48833698450439 l -16.399614914669296 -6.281730039733707 a38.56153471771577,38.56153471771577 0 0,0 0.24276588648300604,-0.6178127013581923 l 16.289055478304597 6.563091745987662" fill="#ff8f0d" stroke="none" /><path d="M 80.52162464483688 92.15188598940014 l -13.733094288367676 -5.533258689609258 a35.80590525632706,35.80590525632706 0 0,0 0.23525897175145533,-0.5696982606703961 l 13.63581362973002 5.768831520732965" fill="#ff6509" stroke="none" /><path d="M 80.803312248108 91.48605970444005 l -15.770131486769126 -6.994225236499415 a38.2515574302401,38.2515574302401 0 0,0 0.2721282882200553,-0.5995986111213615 l 15.64740088158572 7.264645856462847" fill="#ff8a0c" stroke="none" /><path d="M 81.10775173730289 90.83032412892265 l -56.676744788091334 -27.50902761323202 a84.0,84.0 0 0,0 0.6425599481863489,-1.295361646004154 l 56.19482482695157 28.480548847735136" fill="#4dd2ff" stroke="none" /><path d="M 81.43458229118936 90.18545643968196 l -15.628331451692992 -8.26186311633253 a38.67775794938352,38.67775794938352 0 0,0 0.3162217990617866,-0.5859109678934534 l 15.483801553412732 8.529655067558455" fill="#ff910d" stroke="none" /><line stroke="#e1ed5e" stroke-width="0.3" x1="26.266209847984243" x2="21.928928074336255" y1="57.711370442889674" y2="55.22380399835377" /><path d="M 25.398753493254645 57.213857153982495 a86.0,86.0 0 0,1 29.58750427330803,-30.492523968695096" fill="none" id="id23" stroke="none" /><text fill="#e1ed5e" style="font-size:6.75px; font-family:Arial;" text-anchor="middle"><textPath startOffset="21.46611528233685" xlink:href="#id23">November</textPath></text><path d="M 81.96595687620814 89.24020034530311 l -14.35409188415763 -8.564200043133336 a37.71482803374432,37.71482803374432 0 0,0 0.3374295408520313,-0.5546454440368339 l 14.204546545019381 8.810013260377245" fill="#ff820c" stroke="none" /><path d="M 82.7489923806493 88.02491185347247 l -14.84990788451311 -10.308322841697965 a39.07709279688514,39.07709279688514 0 0,0 0.3883283867363191,-0.5492629637007684 l 14.670266877972912 10.56241230573052" fill="#ff970d" stroke="none" /><path d="M 82.95767976084542 87.72973835380427 l -14.894216900583473 -10.723653576551714 a39.35304996755353,39.35304996755353 0 0,0 0.40053419474692076,-0.5463281915054231 l 14.707420093322918 10.978444211728636" fill="#ff9b0e" stroke="none" /><path d="M 83.39014120810768 87.1503855733568 l -14.049473772965975 -10.868865481744503 a38.76288124594419,38.76288124594419 0 0,0 0.4128171530988527,-0.5242358621972816 l 13.860302539273151 11.109093737894833" fill="#ff920d" stroke="none" /><path d="M 83.6137871275137 86.86637796730984 l -13.861100051255912 -11.10973294727345 a38.76390330953926,38.76390330953926 0 0,0 0.4217909694873637,-0.5170658554658857 l 13.667810589692156 11.346682972347418" fill="#ff920d" stroke="none" /><path d="M 83.84228863543731 86.58626213691792 l -23.74069142366442 -19.70894294743916 a51.85551589876703,51.85551589876703 0 0,0 0.5760638805396209,-0.6818779346576004 l 23.397916929637674 20.114679831725876" fill="#b5ff20" stroke="none" /><path d="M 84.5562425177563 85.77008943001954 l -13.371191483798073 -12.320243907435925 a39.181781310837124,39.181781310837124 0 0,0 0.46128651064029536,-0.4920682872792282 l 13.157137651187321 12.548581611593203" fill="#ff990e" stroke="none" /><path d="M 85.05521093208273 85.24692304244772 l -12.74529212673819 -12.581795215558584 a38.90932835820895,38.90932835820895 0 0,0 0.47462747451942217,-0.4725892733077211 l 12.526828852051455 12.799320339516415" fill="#ff940d" stroke="none" /><line stroke="#e1ed5e" stroke-width="0.3" x1="56.762969772571076" x2="54.21961505331055" y1="26.818313649435495" y2="22.513508569990535" /><path d="M 56.25429882871897 25.957352633546506 a86.0,86.0 0 0,1 42.265352541879196,-11.944610805530505" fill="none" id="id24" stroke="none" /><text fill="#e1ed5e" style="font-size:6.75px; font-family:Arial;" text-anchor="middle"><textPath startOffset="22.20632615414155" xlink:href="#id24">December</textPath></text><path d="M 90.26544431104013 81.39251694778311 l -8.718054017684786 -16.664452653587333 a39.80713822193381,39.80713822193381 0 0,0 0.6098823448576987,-0.31240542499490304 l 8.429911185238323 16.81205060389474" fill="#ffa20f" stroke="none" /><path d="M 90.58718382345135 81.22770947309562 l -8.016098934258089 -15.986771149447604 a38.88392277741726,38.88392277741726 0 0,0 0.6009023901247458,-0.29486019314378387 l 7.7397252771229175 16.12238650272622" fill="#ff940d" stroke="none" /><path d="M 91.23893434514133 80.91482961587045 l -8.02207662985501 -17.475351212602725 a40.22866645035691,40.22866645035691 0 0,0 0.6318158831220697,-0.2834773697659342 l 7.720078628266164 17.61084891288519" fill="#ffa80f" stroke="none" /><path d="M 91.56875222667455 80.76684994638697 l -7.128124841195798 -16.260498843996356 a38.754266709928615,38.754266709928615 0 0,0 0.6132701086969349,-0.26257025528308214 l 6.847170974708555 16.38078862724222" fill="#ff920d" stroke="none" /><path d="M 91.90106846888425 80.62456947434976 l -12.039774610174682 -28.80328295253408 a52.218348475016214,52.218348475016214 0 0,0 0.8323011208591866,-0.33951652503504187 l 11.542189619727115 29.0062603637527" fill="#b0ff20" stroke="none" /><path d="M 92.23578459929587 80.48803036053334 l -7.273742564936565 -18.279380049073264 a40.67341012329656,40.67341012329656 0 0,0 0.6527439975439777,-0.2532545300606157 l 6.95801540239291 18.401877283024433" fill="#ffaf10" stroke="none" /><path d="M 92.91201910852362 80.23233633223022 l -5.985177931460893 -16.692057463523035 a38.73265736534718,38.73265736534718 0 0,0 0.629531094725892,-0.21963103778279364 l 5.696964832671716 16.79260935447804" fill="#ff920d" stroke="none" /><path d="M 93.59665428221793 80.00007090966166 l -5.865454586000739 -18.319903527440143 a40.235966904607395,40.235966904607395 0 0,0 0.6614306818379759,-0.20550973252663657 l 5.549238531452034 18.418153394849305" fill="#ffa80f" stroke="none" /><path d="M 94.98787191387505 79.60689891045804 l -4.6316649564205585 -18.845091355635944 a40.40592147955873,40.40592147955873 0 0,0 0.6768498134743106,-0.16018848270896432 l 4.306591455983714 18.92202575048578" fill="#ffab0f" stroke="none" /><path d="M 96.75951476605007 79.25152402106235 l -4.840225105285028 -30.991437108708453 a52.36713173264114,52.36713173264114 0 0,0 0.8918147958843672,-0.13143031861806395 l 4.306041328972012 31.070161911487485" fill="#aeff20" stroke="none" /><path d="M 97.11714578562143 79.19881850522333 l -2.232013863189533 -16.105054926293352 a37.258987670343934,37.258987670343934 0 0,0 0.6360380147869346,-0.08257598873259822 l 1.9544611198947408 16.141089238190087" fill="#ff7b0b" stroke="none" /><path d="M 97.83486435360386 79.11191278185805 l -1.5078773789532511 -14.5472059721823 a35.625146009085014,35.625146009085014 0 0,0 0.6105045186862497,-0.05797476030607949 l 1.257247733176765 14.571006277003562" fill="#ff6209" stroke="none" /></svg>