<?xml version="1.0" encoding="utf-8" ?>
<svg baseProfile="full" height="200mm" version="1.1" viewBox="0,0,200,200" width="200mm" xmlns="http://www.w3.org/2000/svg" xmlns:ev="http://www.w3.org/2001/xml-events" xmlns:xlink="http://www.w3.org/1999/xlink"><defs /><rect fill="#1a1a1a" height="200" width="200" x="0" y="0" /><text alignment-baseline="middle" fill="#e1ed5e" style="dominant-baseline: central; font-size:9.0px; font-family:Arial;" text-anchor="middle" x="100.0" y="100.0">2023</text><line stroke="#e1ed5e" stroke-width="0.3" x1="100.0" x2="100.0" y1="15.0" y2="10.0" /><path d="M 100.0 14.0 a86.0,86.0 0 0,1 42.46469731375804,11.215312516191453" fill="none" id="id85" stroke="none" /><text fill="#e1ed5e" style="font-size:6.75px; font-family:Arial;" text-anchor="middle"><textPath startOffset="22.20632615414155" xlink:href="#id85">January</textPath></text><line stroke="#e1ed5e" stroke-width="0.3" x1="143.23703022742887" x2="145.7803849466894" y1="26.81831364943548" y2="22.513508569990506" /><path d="M 143.74570117128098 25.957352633546492 a86.0,86.0 0 0,1 28.547481713284135,27.462654790039103" fill="none" id="id86" stroke="none" /><text fill="#e1ed5e" style="font-size:6.75px; font-family:Arial;" text-anchor="middle"><textPath startOffset="19.985693538727396" xlink:href="#id86">February</textPath></text><path d="M 110.99172775467656 82.1063720568725 l 7.9304207878395365 -12.910072208590686 a36.15128833806627,36.15128833806627 0 0,0 0.5274315411357838,0.33027758267256524 l -8.151471481347583 12.771650284595177" fill="#ffae10" stroke="none" /><path d="M 112.19680574252982 82.90503203632743 l 8.717645351174435 -12.218598143063911 a36.00971289034331,36.00971289034331 0 0,0 0.5014861519779167,0.36435101661771396 l -8.92667681950614 12.066727891629522" fill="#ffac0f" stroke="none" /><path d="M 115.68641384162765 86.03803664274999 l 11.30264431843195 -10.060113637649799 a36.131280679156326,36.131280679156326 0 0,0 0.4095018467138903,0.4681314003458775 l -11.47413802872369 9.864066681100974" fill="#ffae10" stroke="none" /><path d="M 115.9244219780498 86.31012108654704 l 11.461398590703462 -9.853114863561679 a36.11448081045192,36.11448081045192 0 0,0 0.40119643202388605,0.47489003164750804 l -11.629305636214466 9.654365882285063" fill="#ffae10" stroke="none" /><path d="M 117.04232023915458 87.72973835380427 l 13.371850878973696 -9.62756870405218 a37.477150089768394,37.477150089768394 0 0,0 0.37242896521192576,0.5267743595041708 l -13.535592463989504 9.395967844216216" fill="#ffc011" stroke="none" /><path d="M 117.2510076193507 88.02491185347247 l 12.664199708470735 -8.791075348204696 a36.416386088634475,36.416386088634475 0 0,0 0.35302310744797466,0.5180178494164268 l -12.813647281587443 8.571779475517863" fill="#ffb210" stroke="none" /><path d="M 117.45458315368197 88.32363383020206 l 12.572335680052891 -8.410352382373937 a36.12605869510078,36.12605869510078 0 0,0 0.3413110283983375,0.5198401122543685 l -12.715243343809153 8.192694206141894" fill="#ffae10" stroke="none" /><line stroke="#e1ed5e" stroke-width="0.3" x1="172.23445277983987" x2="176.4835382374775" y1="55.19839476539836" y2="52.563006222186495" /><path d="M 173.08426987136738 54.67131705675599 a86.0,86.0 0 0,1 12.851231095245387,41.99856678651699" fill="none" id="id87" stroke="none" /><text fill="#e1ed5e" style="font-size:6.75px; font-family:Arial;" text-anchor="middle"><textPath startOffset="22.20632615414155" xlink:href="#id87">March</textPath></text><path d="M 117.84615892207809 88.93136811851018 l 13.468755407238003 -8.353657285888572 a36.84900508770447,36.84900508770447 0 0,0 0.3296831383262013,0.5419123950637789 l -13.610554343850428 8.120577117617712" fill="#ffb711" stroke="none" /><path d="M 118.03404312379186 89.2402003453031 l 13.110204848871563 -7.822049478177898 a36.26636594669598,36.26636594669598 0 0,0 0.31524163074705336,0.5388501340227028 l -13.242906154088942 7.5952199318013" fill="#ffb010" stroke="none" /><path d="M 118.21658344932153 89.55222093294921 l 12.979683433845686 -7.4442534877268445 a35.96292391320565,35.96292391320565 0 0,0 0.30335986514314356,0.5396433502862586 l -13.105900940281263 7.219726627505792" fill="#ffac0f" stroke="none" /><path d="M 118.89224826269711 90.83032412892265 l 17.56926432153236 -8.527542983851069 a40.529414690187146,40.529414690187146 0 0,0 0.2992263645763369,0.6302470360347767 l -17.71344887995045 8.22385353217575" fill="#ffe715" stroke="none" /><path d="M 119.196687751892 91.48605970444005 l 14.091868062894795 -6.249897111993677 a36.415640090912255,36.415640090912255 0 0,0 0.2492031327661627,0.5751951889800951 l -14.197361905503637 6.006402778426979" fill="#ffb210" stroke="none" /><path d="M 119.34039704204932 91.81776055985345 l 12.17512106143322 -5.150864044870818 a34.21987039532906,34.21987039532906 0 0,0 0.2248380948628789,0.5444632807081723 l -12.261980843182297 4.940526193709342" fill="#ff940d" stroke="none" /><path d="M 119.47837535516314 92.15188598940014 l 9.137936792247029 -3.681804486235045 a30.851780199231122,30.851780199231122 0 0,0 0.19422877809382819,0.49429105470323076 l -9.199959120222557 3.5239644266360304" fill="#ff6509" stroke="none" /><path d="M 119.7369772167798 92.82701384747503 l 14.570262585501027 -5.295253199947872 a36.50265326523203,36.50265326523203 0 0,0 0.20953725682816507,0.5923900416436839 l -14.659252923139 5.043665531877573" fill="#ffb310" stroke="none" /><path d="M 119.97218684219823 93.5106431181261 l 14.669048635305641 -4.766262826609239 a36.42395050553779,36.42395050553779 0 0,0 0.1886145179512147,0.5979595654703095 l -14.748918637025062 4.51305309471251" fill="#ffb210" stroke="none" /><path d="M 120.18372546131832 94.20196356495316 l 13.555226721494003 -3.8939143602188806 a35.10343009752677,35.10343009752677 0 0,0 0.16183221104473783,0.582196567342454 l -13.620245703105105 3.6600064894574746" fill="#ffa00e" stroke="none" /><path d="M 120.28053869075195 94.5502522615342 l 14.639480696911702 -3.9338933761502637 a36.158822915060696,36.158822915060696 0 0,0 0.1563501788542698,0.6024810183774226 l -14.705027207636276 3.6813159322239906" fill="#ffae10" stroke="none" /><path d="M 120.45610955862082 95.25157060432595 l 14.885899957349954 -3.4554295251491256 a36.28168873991038,36.28168873991038 0 0,0 0.13597964537504367,0.6095700872873164 l -14.943173989727034 3.1986812683118453" fill="#ffb010" stroke="none" /><path d="M 120.53481517161879 95.60439243477599 l 14.801612530093527 -3.168379139088437 a36.13692042193631,36.13692042193631 0 0,0 0.12496612402403533,0.609379201556819 l -14.85395795003256 2.913124281368206" fill="#ffae10" stroke="none" /><path d="M 120.6074358757038 95.95851677861258 l 15.408458354591053 -3.0218716332848916 a36.70198385660929,36.70198385660929 0 0,0 0.11624789939497131,0.6210009268984951 l -15.458191977895883 2.756192628923834" fill="#ffb510" stroke="none" /><path d="M 120.78858239683441 97.02765380044208 l 15.15534153372057 -2.1669068602588335 a36.309469695085866,36.309469695085866 0 0,0 0.08313831309657033,0.619477000052771 l -15.190395845874976 1.9057115181413984" fill="#ffb010" stroke="none" /><path d="M 120.83666639777658 97.38593545837742 l 16.334279180278607 -2.049217432529729 a37.46231965505065,37.46231965505065 0 0,0 0.07476345678142311,0.6405276404296133 l -16.36713299006362 1.7677460537752632" fill="#ffc011" stroke="none" /><path d="M 120.87857604477298 97.74499172005257 l 15.005267123228787 -1.6206565779745812 a36.0925335574642,36.0925335574642 0 0,0 0.06139662095634465,0.6182555942614848 l -15.03094086986736 1.3621254530086615" fill="#ffad10" stroke="none" /><path d="M 120.94382443527127 98.46500227214037 l 15.70130250740687 -1.150767079231112 a36.7434165701014,36.7434165701014 0 0,0 0.040801655185396704,0.6311835464780433 l -15.718784753596683 0.8803244685000334" fill="#ffb610" stroke="none" /><path d="M 120.96714384426684 98.82574320788733 l 15.283446193752496 -0.8559435006122511 a36.30739582141809,36.30739582141809 0 0,0 0.029575644616318616,0.6242951132645991 l -15.295915446602312 0.5927372807246523" fill="#ffb010" stroke="none" /><path d="M 120.98425023603335 99.18683210126433 l 15.369192024838718 -0.5955768466124398 a36.380727397512345,36.380727397512345 0 0,0 0.01886307027761901,0.6259734698625921 l -15.377166789571982 0.33093322932484875" fill="#ffb110" stroke="none" /><line stroke="#e1ed5e" stroke-width="0.3" x1="184.98032266829074" x2="189.97916517819016" y1="98.17113171792111" y2="98.06355123074" /><path d="M 185.9800911702706 98.14961562048488 a86.0,86.0 0 0,1 -9.607161424134198,41.387399972396054" fill="none" id="id88" stroke="none" /><text fill="#e1ed5e" style="font-size:6.75px; font-family:Arial;" text-anchor="middle"><textPath startOffset="21.466115282336823" xlink:href="#id88">April</textPath></text><path d="M 120.99513854157772 99.54816195383933 l 15.422870947117744 -0.3319168321339467 a36.42644213793,36.42644213793 0 0,0 0.008095330770698364,0.6269922895581056 l -15.426299285006158 0.06638828451537838" fill="#ffb210" stroke="none" /><path d="M 120.99824983174949 100.27111621757518 l 16.521413198848546 0.21331411385990579 a37.52279023041383,37.52279023041383 0 0,0 -0.013897614775989211,0.6457675490115592 l -16.515293521387548 -0.4976714786615798" fill="#ffc011" stroke="none" /><path d="M 120.9904718944345 100.63252640178507 l 15.28103359347289 0.4604783181172302 a36.28797004073147,36.28797004073147 0 0,0 -0.024188294463317987,0.6241924018279186 l -15.270843166158368 -0.7234479669591549" fill="#ffb010" stroke="none" /><path d="M 120.9764740272857 100.99374915477107 l 2.9194552675617516 0.1383076202777264 a23.922729555932424,23.922729555932424 0 0,0 -0.02302693624076905,0.41116141519973953 l -2.916641980433453 -0.18854075181288926" fill="#ff0000" stroke="none" /><path d="M 120.95626037817324 101.35467743843564 l 15.372499133418538 0.9937258543563123 a36.40458440466895,36.40458440466895 0 0,0 -0.0458064000174256,0.6249919348835186 l -15.353116174736774 -1.258190925736601" fill="#ffb210" stroke="none" /><path d="M 120.89721153311464 102.0752229133903 l 14.82386863307194 1.472102237357864 a35.8967837551536,35.8967837551536 0 0,0 -0.06635383470902338,0.614354100671832 l -14.796332496861865 -1.7270526599144875" fill="#ffab0f" stroke="none" /><path d="M 120.8583938346157 102.4346265915055 l 14.946985977880985 1.7446371860242267 a36.04846001203543,36.04846001203543 0 0,0 -0.0772441092627115,0.6157115519808528 l -14.914740359371425 -2.0016664922924745" fill="#ffad10" stroke="none" /><path d="M 120.76222939487914 103.15116336523771 l 15.07799581789843 2.2884453850744775 a36.25067015462046,36.25067015462046 0 0,0 -0.09894403888049742,0.6161246245583181 l -15.036370024656645 -2.547649239326" fill="#ffaf10" stroke="none" /><path d="M 120.70491114924044 103.5080841355445 l 15.20887773013614 2.5768776451129045 a36.42563646039001,36.42563646039001 0 0,0 -0.11006362968910036,0.617295286136249 l -15.16226765810785 -2.838291681982372" fill="#ffb210" stroke="none" /><path d="M 120.41448212921028 104.9243191809786 l 14.88116367541331 3.589588962301761 a36.30797769964143,36.30797769964143 0 0,0 -0.1517823639455124,0.6062950946211632 l -14.817169997172737 -3.84521189632032" fill="#ffb010" stroke="none" /><path d="M 120.32669344350535 105.2749913415812 l 14.79650408527744 3.839848874212639 a36.28662724483148,36.28662724483148 0 0,0 -0.1621008716622151,0.6032376464595164 l -14.728215137273448 -4.093977453847704" fill="#ffb010" stroke="none" /><path d="M 120.23288151984713 105.62410040840565 l 15.14697141808025 4.210378440409986 a36.72126043775146,36.72126043775146 0 0,0 -0.1745262940243225,0.6075489251974326 l -15.072252487169829 -4.470484841112" fill="#ffb610" stroke="none" /><path d="M 120.13307415673323 105.97154293290107 l 14.668692997273192 4.350787630386162 a36.30032376301145,36.30032376301145 0 0,0 -0.18283820968981176,0.5975258482143175 l -14.591628015077248 -4.602640451152538" fill="#ffb010" stroke="none" /><path d="M 119.9155931802556 106.66101706037122 l 15.194622794234395 5.082029982347821 a37.021972119578464,37.021972119578464 0 0,0 -0.20733920846792858,0.6026247931399424 l -15.104892754823236 -5.342827478577064" fill="#ffba11" stroke="none" /><path d="M 119.79798401119884 107.00284435728193 l 14.871665182967888 5.260331382782365 a36.77458435493577,36.77458435493577 0 0,0 -0.21622709425958672,0.594964097560633 l -14.778913827703073 -5.515543277349129" fill="#ffb610" stroke="none" /><path d="M 119.67450827220406 107.3425965602758 l 14.315521624209216 5.3426036565790564 a36.27997294514927,36.27997294514927 0 0,0 -0.22339085895241,0.5832030410577872 l -14.221436485663299 -5.5882302644699875" fill="#ffb010" stroke="none" /><path d="M 119.41010516605496 108.01547362559984 l 13.972367053565751 5.769939866215521 a36.11685308320858,36.11685308320858 0 0,0 -0.24223920567578386,0.5725819259129858 l -13.870976866697658 -6.00959631779467" fill="#ffae10" stroke="none" /><path d="M 119.26925614724726 108.34839909993367 l 13.84851107471619 5.999863020560767 a36.09236943796532,36.09236943796532 0 0,0 -0.251888500681255,0.5679420724141009 l -13.743181489303662 -6.237353429467555" fill="#ffad10" stroke="none" /><path d="M 119.12269723197855 108.67885076344098 l 14.038436344324586 6.371355071224598 a36.41660988795114,36.41660988795114 0 0,0 -0.26397773302798805,0.5685845523806901 l -13.926683994456766 -6.612059690884119" fill="#ffb210" stroke="none" /><path d="M 118.81262510543309 109.33194174019688 l 13.946655686182467 6.9181933730478224 a36.568256304924084,36.568256304924084 0 0,0 -0.28457300423558796,0.5614895348047222 l -13.825504012160609 -7.157237119555239" fill="#ffb410" stroke="none" /><path d="M 118.64920377521936 109.65438752849418 l 13.462605930227689 6.969370722761232 a36.15961367264625,36.15961367264625 0 0,0 -0.29090838255002127,0.5502890280982792 l -13.340645039452774 -7.200074765945645" fill="#ffae10" stroke="none" /><line stroke="#e1ed5e" stroke-width="0.3" x1="174.80103733775053" x2="179.2010983576182" y1="140.37084112569926" y2="142.7455964860345" /><path d="M 175.68104954172406 140.8457921977663 a86.0,86.0 0 0,1 -30.038265399797805,32.042727171017184" fill="none" id="id89" stroke="none" /><text fill="#e1ed5e" style="font-size:6.75px; font-family:Arial;" text-anchor="middle"><textPath startOffset="22.206326154141568" xlink:href="#id89">May</textPath></text><path d="M 118.30583269289576 110.29060199501025 l 13.465990436476726 7.569890448314574 a36.447852272557725,36.447852272557725 0 0,0 -0.31214635598821255,0.5442534825600958 l -13.333692084336136 -7.800563776732985" fill="#ffb210" stroke="none" /><path d="M 118.12598468904814 110.60418214915192 l 13.579842964397796 7.944568574989547 a36.7330322818081,36.7330322818081 0 0,0 -0.3239838129612022,0.5430155060370786 l -13.441078275738368 -8.17714617491273" fill="#ffb610" stroke="none" /><path d="M 117.94076556474637 110.91462005526583 l 14.076055322008989 8.563447036982812 a37.47628473241062,37.47628473241062 0 0,0 -0.3400265435902799,0.5482310550760062 l -13.926564138750745 -8.804474423424091" fill="#ffc011" stroke="none" /><path d="M 117.75023020441432 111.22182372390056 l 13.6545305875107 8.632492847757357 a37.15444639509034,37.15444639509034 0 0,0 -0.34641237657508445,0.5376397012544853 l -13.503913347558566 -8.866254148933296" fill="#ffbb11" stroke="none" /><path d="M 117.35343817320211 111.8261652097733 l 13.002253213929922 8.860883536306602 a36.734479517389204,36.734479517389204 0 0,0 -0.36059106112312855,0.5194583177000324 l -12.847801245644659 -9.083383116193655" fill="#ffb610" stroke="none" /><path d="M 117.14729908036423 112.12312394758627 l 13.094354941344667 9.25769634177502 a37.03642955543509,37.03642955543509 0 0,0 -0.37251630192216,0.5173925621733885 l -12.933058847046905 -9.48172250939954" fill="#ffba11" stroke="none" /><path d="M 116.71984013943494 112.70617746262583 l 12.535493779374132 9.526299726197792 a36.7444908068214,36.7444908068214 0 0,0 -0.3870300414886786,0.5002885007987391 l -12.369656920667385 -9.740666221109784" fill="#ffb610" stroke="none" /><path d="M 116.27256486870786 113.27417163493432 l 12.180014994988198 9.935717624359082 a36.71850024617925,36.71850024617925 0 0,0 -0.40373564689298574,0.4863255951971431 l -12.00718334820167 -10.143904476669995" fill="#ffb610" stroke="none" /><path d="M 116.0416608686014 113.55231037782055 l 11.802900234670899 9.971322087465184 a36.45107498271772,36.45107498271772 0 0,0 -0.40904613589879174,0.4758130672830113 l -11.629511589201329 -10.173012253909723" fill="#ffb210" stroke="none" /><path d="M 115.80600337817218 113.82643327865902 l 11.614306501231113 10.159711476395866 a36.43087336439999,36.43087336439999 0 0,0 -0.4169446672721717,0.4684417536803553 l -11.437702984310603 -10.35812739981709" fill="#ffb210" stroke="none" /><path d="M 115.56566222782051 114.09645910891815 l 11.447833027060312 10.367301293693423 a36.44454004267107,36.44454004267107 0 0,0 -0.42510576154266777,0.4613683447469816 l -11.267680857521922 -10.562820893241739" fill="#ffb210" stroke="none" /><path d="M 115.07121518719521 114.62390073753431 l 11.410967628856762 11.072289516866366 a36.89986721240545,36.89986721240545 0 0,0 -0.4462412958474392,0.452040076725833 l -11.218685707953787 -11.267070087572865" fill="#ffb811" stroke="none" /><path d="M 114.81725581225074 114.88116024355365 l 12.201870059144891 12.254494754084492 a38.293301437786276,38.293301437786276 0 0,0 -0.47109886905429293,0.46106939653805645 l -11.989121237714805 -12.462714253545121" fill="#ffca12" stroke="none" /><path d="M 114.55890576462653 115.13401014063108 l 11.484016491607498 11.937656912474752 a37.564730222357056,37.564730222357056 0 0,0 -0.46985278667570607,0.44427513653415107 l -11.276827870540984 -12.133566685754825" fill="#ffc111" stroke="none" /><path d="M 114.0293411484842 115.62618273729858 l 10.605710286855867 11.812868847313117 a36.8752940474355,36.8752940474355 0 0,0 -0.47596811620836094,0.41998652268993536 l -10.40079981774092 -11.993678511775341" fill="#ffb811" stroke="none" /><path d="M 113.75828350139079 115.86535959552629 l 10.504071667973134 12.112766408158913 a37.03292336614065,37.03292336614065 0 0,0 -0.4851921772048495,0.41349129943346236 l -10.294014014191237 -12.291782097815322" fill="#ffba11" stroke="none" /><path d="M 113.48314897796784 116.09983520530334 l 10.206726274708393 12.187554352248348 a36.89697274124323,36.89697274124323 0 0,0 -0.4904308218263457,0.4035911780027241 l -9.995425324337356 -12.361440649108252" fill="#ffb811" stroke="none" /><path d="M 113.20401910651253 116.32954008644616 l 9.704638978621716 12.001822319972941 a36.43449891332999,36.43449891332999 0 0,0 -0.49107199638170795,0.39013729361071453 l -9.496609489522656 -12.167093527588781" fill="#ffb210" stroke="none" /><path d="M 112.63410532772338 116.77436683061366 l 10.177569731732499 13.512811845062783 a37.916826227290585,37.916826227290585 0 0,0 -0.52472378931801,0.38817811496335586 l -9.943460971995925 -13.68599990876591" fill="#ffc612" stroke="none" /><path d="M 112.04921762599082 117.19931262002967 l 9.19570268930195 13.12614397245117 a37.02674650500067,37.02674650500067 0 0,0 -0.5251505491108652,0.36120333625681894 l -8.9683952555682 -13.282488098073083" fill="#ffba11" stroke="none" /><path d="M 111.7513745106137 117.40417183066458 l 8.889814031766823 13.166106723241754 a36.88631989376992,36.88631989376992 0 0,0 -0.5292753073506798,0.35077481321164394 l -8.66186402567618 -13.317179557544716" fill="#ffb811" stroke="none" /><path d="M 111.1453310114006 117.79835938074945 l 8.206351968582185 13.105003466684083 a36.46238430818658,36.46238430818658 0 0,0 -0.5348177517611077,0.32852874466880333 l -7.979555016888769 -13.244320678181264" fill="#ffb210" stroke="none" /><line stroke="#e1ed5e" stroke-width="0.3" x1="143.8653032363475" x2="146.44561519142675" y1="172.8068346515853" y2="177.08958963109032" /><path d="M 144.38136562736335 173.6633856474863 a86.0,86.0 0 0,1 -40.68145358897372,12.25698825130547" fill="none" id="id90" stroke="none" /><text fill="#e1ed5e" style="font-size:6.75px; font-family:Arial;" text-anchor="middle"><textPath startOffset="21.466115282336833" xlink:href="#id90">June</textPath></text><path d="M 110.8373102113329 117.98757091392108 l 8.186120619821633 13.587174519095242 a36.862656846021096,36.862656846021096 0 0,0 -0.5463258652255872,0.32277895094723563 l -7.951026883567664 -13.726072042336227" fill="#ffb811" stroke="none" /><path d="M 110.5260780823613 118.17145234162733 l 8.589511728346624 14.828305641305455 a38.136462876666684,38.136462876666684 0 0,0 -0.5708687681211471,0.3241541852988419 l -8.332994193304279 -14.973962992398926" fill="#ffc812" stroke="none" /><path d="M 110.21172684928248 118.3499491758327 l 7.516105960908145 13.5060567540081 a36.45656552595326,36.45656552595326 0 0,0 -0.550975345502543,0.30043568899993767 l -7.282507803536953 -13.633433094767808" fill="#ffb210" stroke="none" /><path d="M 109.57404056367764 118.69057910512821 l 7.390883884238519 14.42858936897111 a37.211395861204636,37.211395861204636 0 0,0 -0.5726055791532465,0.2871163244842689 l -7.1414243974025124 -14.55367353436468" fill="#ffbc11" stroke="none" /><path d="M 109.2508944713604 118.85261126421891 l 7.009704520186253 14.285238557766833 a36.9123850541843,36.9123850541843 0 0,0 -0.572822794431248,0.27498975171088996 l -6.762769057754772 -14.403782585977284" fill="#ffb811" stroke="none" /><path d="M 108.92500713936063 119.00905698771935 l 6.440355298282962 13.717084924930534 a36.15376505050405,36.15376505050405 0 0,0 -0.5656032805998057,0.2596407250342889 l -6.203284021915737 -13.825912720298899" fill="#ffae10" stroke="none" /><path d="M 108.2653958097858 119.30500536409082 l 6.4869138094573495 15.151108158632066 a37.4813873568306,37.4813873568306 0 0,0 -0.5952910676730487,0.2488317145668695 l -6.22515128228684 -15.260524916218909" fill="#ffc011" stroke="none" /><path d="M 107.59598834532513 119.57807347666477 l 5.476122421721625 14.114282732629507 a36.13938221441964,36.13938221441964 0 0,0 -0.5818953014296079,0.22002301219899295 l -5.232356899531743 -14.20645399493513" fill="#ffae10" stroke="none" /><path d="M 107.2578585660854 119.70592522655815 l 5.381225630790599 14.610649813859977 a36.57012129922963,36.57012129922963 0 0,0 -0.5925760449297978,0.21247668686599694 l -5.128930025231067 -14.701114041765935" fill="#ffb410" stroke="none" /><path d="M 106.91757812671514 119.82793768551818 l 5.180176223042138 14.848001637135985 a36.72569166422145,36.72569166422145 0 0,0 -0.5986817064513327,0.20310533971348477 l -4.923824783653578 -14.934969963747593" fill="#ffb610" stroke="none" /><path d="M 106.2309692047433 120.05430185196036 l 4.761552138550837 15.325000129619431 a37.04767920108617,37.04767920108617 0 0,0 -0.6106251862097868,0.1839763595702266 l -4.497051977900804 -15.404691858295383" fill="#ffba11" stroke="none" /><path d="M 105.88484417918355 120.15858648285463 l 4.578577860575895 15.68395950013206 a37.33860339279764,37.33860339279764 0 0,0 -0.6185207784218056,0.1748001502190668 l -4.307925914049484 -15.760448443689645" fill="#ffbe11" stroke="none" /><path d="M 105.18746579009965 120.34920634021253 l 3.9185718191524783 15.371634191604741 a36.863238724244425,36.863238724244425 0 0,0 -0.616224707993946,0.15145304055225395 l -3.6533938264153214 -15.436808490471025" fill="#ffb811" stroke="none" /><path d="M 104.48393922423573 120.51570834832081 l 3.2674584091434764 14.949851104121873 a36.30275571558588,36.30275571558588 0 0,0 -0.611629759324654,0.12817296283124127 l -3.0096371883894446 -15.003880047679655" fill="#ffb010" stroke="none" /><path d="M 103.7750983002368 120.6578951692458 l 2.9657128217154614 16.228818351363994 a37.497575507402786,37.497575507402786 0 0,0 -0.6359428611555225,0.11056681797306112 l -2.6859209890878892 -16.277463747858064" fill="#ffc011" stroke="none" /><path d="M 103.41894727170886 120.7198165907248 l 2.613646344610919 15.839458344816508 a37.05364718286394,37.05364718286394 0 0,0 -0.6302016141058239,0.09842453137253793 l -2.340608866896578 -15.882101183536152" fill="#ffba11" stroke="none" /><path d="M 103.06178313531738 120.77559828337769 l 2.2945573980450593 15.569620914707622 a36.737791747275864,36.737791747275864 0 0,0 -0.6264168022681859,0.08681566087146876 l -2.0262120045900427 -15.606811141071693" fill="#ffb610" stroke="none" /><path d="M 102.70371172650421 120.8252237178851 l 2.102612634139831 16.19528371637053 a37.331203095393214,37.331203095393214 0 0,0 -0.6379592883540977,0.07724798535985024 l -1.823525922734353 -16.229077230455733" fill="#ffbe11" stroke="none" /><path d="M 101.98527174616119 120.90594882070398 l 1.4694337689156614 15.473905387394117 a36.54351902045526,36.54351902045526 0 0,0 -0.6267312392827148,0.05407700847283489 l -1.2028582118914048 -15.496906648145616" fill="#ffb310" stroke="none" /><path d="M 101.62511606390274 120.93702456842531 l 1.26263199598847 16.26699637526489 a37.31592506204214,37.31592506204214 0 0,0 -0.6408339139692952,0.04419565867615392 l -0.9824353212402444 -16.286320378457326" fill="#ffbe11" stroke="none" /><path d="M 100.90346689309514 120.98055641714683 l 0.7008576008970594 16.275507767231975 a37.290590979395546,37.290590979395546 0 0,0 -0.6415395997562098,0.022095920969843218 l -0.42059764946619727 -16.285160486627912" fill="#ffbd11" stroke="none" /><line stroke="#e1ed5e" stroke-width="0.3" x1="102.19456741930631" x2="102.32365962044197" y1="184.97166512339345" y2="189.96999836594603" /><path d="M 102.22038585953345 185.97133177190398 a86.0,86.0 0 0,1 -42.740103519485714,-10.115201625700543" fill="none" id="id91" stroke="none" /><text fill="#e1ed5e" style="font-size:6.75px; font-family:Arial;" text-anchor="middle"><textPath startOffset="22.20632615414155" xlink:href="#id91">July</textPath></text><path d="M 100.54218724476979 120.99299961872073 l 0.42083185711702203 16.294228794987976 a37.299662311697745,37.299662311697745 0 0,0 -0.6419810244208952,0.011052285534010064 l -0.14029114280345892 -16.299058557801146" fill="#ffbd11" stroke="none" /><path d="M 100.18074693466247 120.99922214144158 l 0.13963326762786465 16.22262646239968 a37.22322738507905,37.22322738507905 0 0,0 -0.640760404580629,0.0 l 0.13963326762785347 -16.22262646239968" fill="#ffbc11" stroke="none" /><path d="M 99.81925306533755 120.99922214144158 l -0.13689916254029244 15.904977478758754 a36.90556663500321,36.90556663500321 0 0,0 -0.6351980690115413,-0.010935510805323555 l 0.41065692144450167 -15.900264490674271" fill="#ffb811" stroke="none" /><path d="M 98.73552117531835 120.96189622390904 l -0.8998823439073232 14.917798494144366 a35.94491552819125,35.94491552819125 0 0,0 -0.6172892904819743,-0.04257188359087641 l 1.1565343951682276 -14.900098266037203" fill="#ffab0f" stroke="none" /><path d="M 98.37488393609728 120.93702456842531 l -1.1956927472573131 15.404591082248336 a36.450925783173275,36.450925783173275 0 0,0 -0.6251432402091047,-0.05393998923081219 l 1.4606803052079596 -15.38172684073886" fill="#ffb210" stroke="none" /><path d="M 98.01472825383883 120.90594882070398 l -1.527600718616179 16.086433760825663 a37.1588030217881,37.1588030217881 0 0,0 -0.6362425864661229,-0.06594914552619185 l 1.8042759016878953 -16.05775524684371" fill="#ffbc11" stroke="none" /><path d="M 97.65516085044442 120.86867818915974 l -1.837991343136457 16.357817064614384 a37.46075305983399,37.46075305983399 0 0,0 -0.6401731897627703,-0.07751605798882695 l 2.1192919559506165 -16.32375547790021" fill="#ffc011" stroke="none" /><path d="M 97.2962882734958 120.8252237178851 l -2.081242433155701 16.030680659015054 a37.165218602199204,37.165218602199204 0 0,0 -0.6337048658923268,-0.08782572008078374 l 2.3568758902348588 -15.992480373441664" fill="#ffbc11" stroke="none" /><path d="M 96.58105272829116 120.7198165907248 l -2.6088489250087687 15.810384584279868 a37.02418027283623,37.02418027283623 0 0,0 -0.6279142802178506,-0.10917094626612099 l 2.880612176698669 -15.763135059492742" fill="#ffba11" stroke="none" /><path d="M 95.86986931433489 120.58985236759428 l -3.0943841668021808 15.426367350605524 a36.733658919894765,36.733658919894765 0 0,0 -0.6188896275618733,-0.12969433880673048 l 3.359465255793441 -15.370817031072253" fill="#ffb610" stroke="none" /><path d="M 95.51606077576429 120.51570834832081 l -3.447789407428444 15.774933243277482 a37.147314656865916,37.147314656865916 0 0,0 -0.623508567652782,-0.14190852002815507 l 3.718818124474089 -15.713247989671641" fill="#ffbb11" stroke="none" /><path d="M 95.16358092515715 120.4354850818985 l -3.558985602194465 15.0379022278378 a36.45331297588438,36.45331297588438 0 0,0 -0.6093721800196149,-0.1497688558973404 l 3.81731106695729 -14.97441211362643" fill="#ffb210" stroke="none" /><path d="M 94.81253420990036 120.34920634021253 l -3.8215273472306754 14.990951587956078 a36.470381403768776,36.470381403768776 0 0,0 -0.6069879454727296,-0.16031103322693543 l 4.079005735514894 -14.922949205425562" fill="#ffb210" stroke="none" /><path d="M 94.46302465271185 120.25689768951611 l -4.226848706192768 15.4638293328046 a37.03110313169844,37.03110313169844 0 0,0 -0.6134269804867385,-0.17336059204204446 l 4.492406854784121 -15.388779947424034" fill="#ffba11" stroke="none" /><path d="M 94.11515582081647 120.15858648285463 l -4.44959729979616 15.242135433101984 a36.87833771814217,36.87833771814217 0 0,0 -0.6078340754901526,-0.18313542080623116 l 4.711306349726558 -15.163284643190027" fill="#ffb811" stroke="none" /><path d="M 93.42475214034765 119.94407469862007 l -4.968381958755834 15.070121010151812 a36.867998189712196,36.867998189712196 0 0,0 -0.6010015079216215,-0.20389234232374198 l 5.227053199614681 -14.982365680929947" fill="#ffb811" stroke="none" /><path d="M 92.7421414339146 119.70592522655815 l -5.426283302205209 14.732986601728538 a36.70049186116485,36.70049186116485 0 0,0 -0.5909299624287954,-0.22343914792367578 l 5.679083485394287 -14.637399203698228" fill="#ffb510" stroke="none" /><path d="M 92.40401165467489 119.57807347666478 l -5.866037781494818 15.119259467226275 a37.217348923027956,37.217348923027956 0 0,0 -0.595263005182921,-0.23686743459062695 l 6.125421862719596 -15.016045188229581" fill="#ffbc11" stroke="none" /><path d="M 91.7346041902142 119.30500536409082 l -6.412376083632391 14.977014717737896 a37.292008375067766,37.292008375067766 0 0,0 -0.5879339511178677,-0.25773296638392806 l 6.6692307094080014 -14.864417198059515" fill="#ffbd11" stroke="none" /><path d="M 91.40352486487194 119.15986991738527 l -6.493216584531352 14.472115971888542 a36.86203020793443,36.86203020793443 0 0,0 -0.5766836506806965,-0.26472717948059243 l 6.741368230979468 -14.358201722073876" fill="#ffb811" stroke="none" /><path d="M 91.07499286063937 119.00905698771935 l -6.809115322317958 14.502493855390627 a37.021435001218464,37.021435001218464 0 0,0 -0.5745150799690257,-0.27580215160904986 l 7.057743070287226 -14.383137427282016" fill="#ffba11" stroke="none" /><path d="M 90.42595943632237 118.69057910512821 l -7.511478440979773 14.664015789762724 a37.47591173354951,37.47591173354951 0 0,0 -0.5716131173509503,-0.2990409668936856 l 7.762782460857219 -14.532545403924322" fill="#ffc011" stroke="none" /><path d="M 90.10565033884886 118.52300852407294 l -7.4121772511289015 13.876184600962114 a36.73177900563477,36.73177900563477 0 0,0 -0.5551347017081365,-0.3027037016390224 l 7.649934764705678 -13.746540247563326" fill="#ffb610" stroke="none" /><line stroke="#e1ed5e" stroke-width="0.3" x1="58.666819895761336" x2="56.23545636021788" y1="174.27360380694188" y2="178.64263932499728" /><path d="M 58.180547188652646 175.14741091055294 a86.0,86.0 0 0,1 -31.652253787137756,-30.449443065178592" fill="none" id="id92" stroke="none" /><text fill="#e1ed5e" style="font-size:6.75px; font-family:Arial;" text-anchor="middle"><textPath startOffset="22.20632615414155" xlink:href="#id92">August</textPath></text><path d="M 89.7882731507175 118.34994917583269 l -7.505208700618443 13.486474936415128 a36.43415575437776,36.43415575437776 0 0,0 -0.5453867517892116,-0.30968483138579433 l 7.736244219328862 -13.3552869392347" fill="#ffb210" stroke="none" /><path d="M 89.4739219176387 118.17145234162733 l -7.881671227991385 13.606341504517161 a36.724289188503676,36.724289188503676 0 0,0 -0.5442751766241604,-0.3215673679752036 l 8.114714275643928 -13.468655564248209" fill="#ffb610" stroke="none" /><path d="M 88.54995079064634 117.60387380957326 l -8.578187801357215 13.188531578235656 a36.732853242354764,36.732853242354764 0 0,0 -0.5270732413996819,-0.34931540397430605 l 8.80393574149686 -13.038918153170032" fill="#ffb610" stroke="none" /><path d="M 88.24862548938628 117.40417183066458 l -9.231406912197073 13.672017004781162 a37.49675490990835,37.49675490990835 0 0,0 -0.5318166808999542,-0.36578836248638535 l 9.465380477719917 -13.511087852929677" fill="#ffc011" stroke="none" /><path d="M 87.95078237400918 117.19931262002967 l -9.464036454712435 13.509169365556328 a37.49441247706057,37.49441247706057 0 0,0 -0.5254086166838404,-0.37486509753993175 l 9.695172399245163 -13.344260006172178" fill="#ffc011" stroke="none" /><path d="M 86.51685102203217 116.09983520530335 l -10.289789486852353 12.286737712850993 a37.02634366623067,37.02634366623067 0 0,0 -0.48510597231916647,-0.413417833759714 l 10.499760935748576 -12.107795488868327" fill="#ffba11" stroke="none" /><path d="M 86.24171649860922 115.8653595955263 l -10.019842522984638 11.554377746441054 a36.29381866287368,36.29381866287368 0 0,0 -0.468462718609215,-0.41336388194630463 l 10.21724759450044 -11.38019072272246" fill="#ffb010" stroke="none" /><path d="M 85.97065885151581 115.62618273729859 l -10.141135898741169 11.295415874510251 a36.1798898907362,36.1798898907362 0 0,0 -0.4598299481941468,-0.4200437552125096 l 10.33406539640217 -11.119179352711166" fill="#ffaf10" stroke="none" /><path d="M 85.70375840098266 115.38237550388516 l -10.703753665608902 11.516954092102125 a36.722931472649236,36.722931472649236 0 0,0 -0.45932372161841045,-0.4343192483313723 l 10.900413221618129 -11.331000207024822" fill="#ffb610" stroke="none" /><path d="M 85.18274418774928 114.88116024355367 l -11.512512489396853 11.56216409647072 a37.31629806090325,37.31629806090325 0 0,0 -0.4512773205137336,-0.45714154312467864 l 11.70983043496612 -11.362282059365377" fill="#ffbe11" stroke="none" /><path d="M 84.43433777217949 114.09645910891817 l -11.780354998019043 10.668437364734402 a36.89315323290546,36.89315323290546 0 0,0 -0.4222353756236488,-0.47438592059965806 l 11.96224922329103 -10.46407727439388" fill="#ffb811" stroke="none" /><path d="M 84.19399662182784 113.82643327865904 l -12.276278085919602 10.738776641009428 a37.31037483898882,37.31037483898882 0 0,0 -0.4186890143585555,-0.487029913439727 l 12.459309609848935 -10.525869628408172" fill="#ffbe11" stroke="none" /><path d="M 83.95833913139862 113.55231037782056 l -12.232539853660489 10.33429008154318 a37.013512505408485,37.013512505408485 0 0,0 -0.40697943311854445,-0.4902329446694475 l 12.408615286672571 -10.122195879759971" fill="#ffba11" stroke="none" /><path d="M 83.50135304334701 112.99209946851258 l -12.34663518753501 9.722537422573822 a36.715188016292586,36.715188016292586 0 0,0 -0.38672139494098995,-0.49988953352987825 l 12.512163399694069 -9.508569894930691" fill="#ffb610" stroke="none" /><path d="M 83.06392112726016 112.41649034213515 l -15.767384253179067 11.559675398976223 a40.5508695846782,40.5508695846782 0 0,0 -0.40786490919168544,-0.5664886859941974 l 15.96402895474636 -11.286553107530887" fill="#ffe815" stroke="none" /><path d="M 82.85270091963577 112.12312394758628 l -14.191907515675585 10.033664955563479 a38.38058317128605,38.38058317128605 0 0,0 -0.3767494570246275,-0.5427356921462615 l 14.362517879862345 -9.787888001230204" fill="#ffcc13" stroke="none" /><path d="M 82.44556493220864 111.52570212397912 l -14.45241914349237 9.489013880282291 a38.28912385054184,38.28912385054184 0 0,0 -0.3569916302614314,-0.5540589379101033 l 14.613615637130849 -9.23883334245074" fill="#ffca12" stroke="none" /><path d="M 82.05923443525364 110.91462005526583 l -14.205941625636285 8.642465942244058 a37.62831906819911,37.62831906819911 0 0,0 -0.3318802050837792,-0.5562503134341452 l 14.352602706418295 -8.396653534923802" fill="#ffc212" stroke="none" /><line stroke="#e1ed5e" stroke-width="0.3" x1="26.63291911575756" x2="22.317208475507996" y1="142.92168965132927" y2="145.44649492493687" /><path d="M 25.769776987707644 143.4266507060508 a86.0,86.0 0 0,1 -11.730757126820373,-40.83630448921669" fill="none" id="id93" stroke="none" /><text fill="#e1ed5e" style="font-size:6.75px; font-family:Arial;" text-anchor="middle"><textPath startOffset="21.46611528233685" xlink:href="#id93">September</textPath></text><path d="M 81.69416730710424 110.29060199501025 l -14.104016877773018 7.928556250620363 a37.17978047773694,37.17978047773694 0 0,0 -0.3088109907967279,-0.5605816485118383 l 14.238404278021264 -7.684604083710702" fill="#ffbc11" stroke="none" /><path d="M 81.51974371655577 109.97397251340807 l -14.209019915439125 7.66874505988424 a37.14638961969036,37.14638961969036 0 0,0 -0.2988471121308483,-0.5653061126768392 l 14.33891953579486 -7.423023932121274" fill="#ffbb11" stroke="none" /><path d="M 81.18737489456691 109.33194174019688 l -14.462271293230861 7.1739628245914195 a37.14382338752593,37.14382338752593 0 0,0 -0.27919197898090503,-0.5752181706332562 l 14.583616528826484 -6.923955697992879" fill="#ffbb11" stroke="none" /><path d="M 80.87730276802145 108.67885076344099 l -15.37363173048492 6.977334518367773 a37.88288333092956,37.88288333092956 0 0,0 -0.264384489915834,-0.596117229293276 l 15.491457305132034 -6.7116689525818005" fill="#ffc512" stroke="none" /><path d="M 80.73074385275274 108.34839909993369 l -16.525445038821612 7.159643809489274 a39.0097427302522,39.0097427302522 0 0,0 -0.26164209464269395,-0.6184446239100155 l 16.64623811465661 -6.874124659913099" fill="#ffd413" stroke="none" /><path d="M 80.45479744820244 107.68017299344265 l -18.404993642930712 7.232134573500234 a40.77492254056985,40.77492254056985 0 0,0 -0.2510681301727261,-0.6554596625666592 l 18.52675605269695 -6.914251344100417" fill="#ffeb16" stroke="none" /><path d="M 80.32549172779594 107.34259656027581 l -15.457235249649502 5.768695247941559 a37.498604984259444,37.498604984259444 0 0,0 -0.2204841886526005,-0.6066777929809306 l 15.554243699307326 -5.501769657954512" fill="#ffc011" stroke="none" /><path d="M 80.20201598880116 107.00284435728193 l -16.360335351673655 5.786896384798646 a38.35363773355945,38.35363773355945 0 0,0 -0.21479711734039839,-0.624300967293094 l 16.457523299957284 -5.504422714416255" fill="#ffcb12" stroke="none" /><path d="M 79.97269907076064 106.31721596034903 l -15.55194915431899 4.905554760440297 a37.30728640841883,37.30728640841883 0 0,0 -0.1879100996407922,-0.6141010780317132 l 15.634086026465912 -4.637126709856536" fill="#ffbe11" stroke="none" /><path d="M 79.76711848015287 105.62410040840567 l -15.031382552130998 4.178248395682822 a36.60128908406399,36.60128908406399 0 0,0 -0.163506539873659,-0.6084686607957102 l 15.101077168346432 -3.9188888017115726" fill="#ffb410" stroke="none" /><path d="M 79.67330655649465 105.27499134158121 l -15.123808227272495 3.92478775125559 a36.62477309235949,36.62477309235949 0 0,0 -0.15310669971523547,-0.6115851577084747 l 15.18912624128279 -3.6638747541497234" fill="#ffb410" stroke="none" /><path d="M 79.58551787078972 104.9243191809786 l -15.148370115907507 3.6540436857612337 a36.582848020370704,36.582848020370704 0 0,0 -0.1423933949444577,-0.6134270186393423 l 15.20902407678252 -3.3927480097733174" fill="#ffb410" stroke="none" /><path d="M 79.50377843672027 104.57218783832718 l -16.09126484322151 3.589553576610843 a37.48677346038503,37.48677346038503 0 0,0 -0.1350701309047217,-0.6310026844249058 l 16.15066901285067 -3.3120370727697734" fill="#ffc011" stroke="none" /><path d="M 79.29508885075956 103.50808413554451 l -15.91716403619326 2.6968843399396882 a37.144017346933694,37.144017346933694 0 0,0 -0.10138237668095346,-0.6313081563693432 l 15.961228167235504 -2.4224969538771313" fill="#ffbb11" stroke="none" /><path d="M 79.23777060512086 103.15116336523772 l -16.284983655298344 2.471634568816012 a37.47148050707952,37.47148050707952 0 0,0 -0.09129827904560645,-0.6385399510026933 l 16.32511598536055 -2.190949145832918" fill="#ffc011" stroke="none" /><path d="M 79.18660465613746 102.79330883721812 l -15.727010960623113 2.110679107063088 a36.868013109666634,36.868013109666634 0 0,0 -0.07900023557154363,-0.6297096065303089 l 15.761012705441505 -1.8396517462453705" fill="#ffb811" stroke="none" /><path d="M 79.1416061653843 102.43462659150553 l -15.897202503844587 1.8555480471452825 a37.005127491010725,37.005127491010725 0 0,0 -0.06840256580291385,-0.6333228061615153 l 15.926787371148553 -1.5816289190989852" fill="#ffba11" stroke="none" /><path d="M 79.10278846688536 102.07522291339032 l -16.327238656766333 1.6213962192621552 a37.40754850228524,37.40754850228524 0 0,0 -0.05811601772247341,-0.6413054128378521 l 16.35272927076588 -1.340109417875737" fill="#ffbf11" stroke="none" /><path d="M 79.0095281055655 100.63252640178507 l -18.291573157143365 0.5511978487317408 a39.29987616437811,39.29987616437811 0 0,0 -0.014555808252071553,-0.676351213523477 l 18.298351028080443 -0.23625681941813487" fill="#ffd814" stroke="none" /><line stroke="#e1ed5e" stroke-width="0.3" x1="15.007084014347285" x2="10.007500721073583" y1="101.09737516637583" y2="101.16192664675087" /><path d="M 14.007167355692545 101.11028546245083 a86.0,86.0 0 0,1 10.666146001902534,-42.60595125391555" fill="none" id="id94" stroke="none" /><text fill="#e1ed5e" style="font-size:6.75px; font-family:Arial;" text-anchor="middle"><textPath startOffset="22.20632615414155" xlink:href="#id94">October</textPath></text><path d="M 79.00175016825051 100.2711162175752 l -16.05141412765163 0.20724578095276108 a37.05275198559727,37.05275198559727 0 0,0 -0.002744907937874585,-0.6378199356792076 l 16.052603332879006 0.06908363293012189" fill="#ffba11" stroke="none" /><path d="M 79.00019446554 99.90962569577889 l -16.1410330839806 -0.06946419727464112 a37.14118255558927,37.14118255558927 0 0,0 0.008254173077455355,-0.6392948012667818 l 16.13744590378543 0.3472952566018949" fill="#ffbb11" stroke="none" /><path d="M 79.01574976396665 99.18683210126434 l -16.04172639803187 -0.6216384574360501 a37.05376654249949,37.05376654249949 0 0,0 0.03018363080478432,-0.6371287407752624 l 16.028649158993584 0.8976783048343215" fill="#ffba11" stroke="none" /><path d="M 79.08570108090925 98.10471618934814 l -15.949691782980155 -1.4453839805060698 a37.01504926071625,37.01504926071625 0 0,0 0.06296590250508005,-0.6340580452981202 l 15.922448754792846 1.7197175565086202" fill="#ffba11" stroke="none" /><path d="M 79.12142395522702 97.74499172005258 l -15.947621519728957 -1.722436362294914 a37.04036842340842,37.04036842340842 0 0,0 0.07392136977343136,-0.6333131531989933 l 15.915609796951935 1.996693253818769" fill="#ffba11" stroke="none" /><path d="M 79.3925641242962 95.95851677861259 l -14.88679782032076 -2.9195647616667997 a36.170385879755116,36.170385879755116 0 0,0 0.12508185188638835,-0.6099435317135625 l 14.834336672519376 3.1753839495437646" fill="#ffae10" stroke="none" /><path d="M 79.46518482838121 95.60439243477599 l -15.680845897589487 -3.3565846237476786 a37.03607147652842,37.03607147652842 0 0,0 0.1388069861236438,-0.6222445014774906 l 15.620744524463804 3.6260072947751283" fill="#ffba11" stroke="none" /><path d="M 79.54389044137918 95.25157060432595 l -15.509969925149267 -3.600293443264322 a36.92235158375316,36.92235158375316 0 0,0 0.14903830245430602,-0.6178599823045201 l 15.445698822434146 3.8667386572282387" fill="#ffb811" stroke="none" /><path d="M 79.62865764111835 94.90015583598534 l -15.301877545712186 -3.8307338576509617 a36.774091996439104,36.774091996439104 0 0,0 0.1590105926388306,-0.6127326779404267 l 15.233670621203048 4.093562961140252" fill="#ffb610" stroke="none" /><path d="M 79.71946130924805 94.55025226153421 l -16.04067846056745 -4.31042057101754 a37.60972880496138,37.60972880496138 0 0,0 0.1733866335110322,-0.6237639725831928 l 15.964105056490057 4.585895847019675" fill="#ffc212" stroke="none" /><path d="M 79.81627453868168 94.20196356495316 l -15.397344738874297 -4.423086608568 a37.020047445455134,37.020047445455134 0 0,0 0.1812115507636955,-0.6109552640877904 l 15.318927290998895 4.68747125940233" fill="#ffba11" stroke="none" /><path d="M 80.2630227832202 92.82701384747504 l -16.090706095825993 -5.8478261763196135 a38.120394085730055,38.120394085730055 0 0,0 0.2294401379498082,-0.6147854992457287 l 15.987661369374559 6.123934812594683" fill="#ffc812" stroke="none" /><path d="M 80.38941819471856 92.48833698450439 l -15.218528518976266 -5.82932515523186 a37.29676784053552,37.29676784053552 0 0,0 0.23480348938494794,-0.5975492692438031 l 15.115931479709626 6.090423429371427" fill="#ffbd11" stroke="none" /><path d="M 80.52162464483688 92.15188598940014 l -14.737368926493003 -5.9378952013434 a36.88863248670881,36.88863248670881 0 0,0 0.2423729182662387,-0.5869252464291198 l 14.632974321340566 6.1906950182258305" fill="#ffb811" stroke="none" /><path d="M 80.803312248108 91.48605970444005 l -15.18138580334026 -6.733110107537235 a37.607505731749164,37.607505731749164 0 0,0 0.2675463914814666,-0.5895030090113091 l 15.063237094895443 6.993435125390615" fill="#ffc112" stroke="none" /><path d="M 80.95270993114464 91.15688171328213 l -16.24989767434943 -7.544368083956483 a38.91582161702466,38.91582161702466 0 0,0 0.2873132986493197,-0.6051550809818824 l 16.11762618185836 7.822965580578898" fill="#ffd313" stroke="none" /><path d="M 81.26839172434947 90.50648371742162 l -56.19482482695157 -28.480548847735136 a84.0,84.0 0 0,0 0.6647622673595439,-1.284109110958658 l 55.69625312643191 29.44363068095413" fill="#4dd2ff" stroke="none" /><line stroke="#e1ed5e" stroke-width="0.3" x1="26.266209847984243" x2="21.928928074336255" y1="57.711370442889674" y2="55.22380399835377" /><path d="M 25.398753493254645 57.213857153982495 a86.0,86.0 0 0,1 29.58750427330803,-30.492523968695096" fill="none" id="id95" stroke="none" /><text fill="#e1ed5e" style="font-size:6.75px; font-family:Arial;" text-anchor="middle"><textPath startOffset="21.46611528233685" xlink:href="#id95">November</textPath></text><path d="M 81.78341655067845 89.55222093294921 l -13.920816610555725 -7.984022733167004 a37.047858240539504,37.047858240539504 0 0,0 0.32203467159073024,-0.550461642821088 l 13.78132226449467 8.222463788341985" fill="#ffba11" stroke="none" /><path d="M 82.34701348167596 88.62581576622439 l -13.927112964958166 -8.973526861509109 a37.56769929329149,37.56769929329149 0 0,0 0.3549313305548054,-0.5405847668738882 l 13.77058499904544 9.211929692360664" fill="#ffc111" stroke="none" /><path d="M 82.54541684631803 88.32363383020206 l -13.602439462008237 -9.099447552685529 a37.365399630979795,37.365399630979795 0 0,0 0.36222291406560775,-0.5315174304312934 l 13.44379208227389 9.33224300638724" fill="#ffbe11" stroke="none" /><path d="M 82.7489923806493 88.02491185347247 l -12.605209690153346 -8.750126397006982 a36.34457634789355,36.34457634789355 0 0,0 0.3611740201133255,-0.5108550378364919 l 12.452723050236141 8.96580793517526" fill="#ffb110" stroke="none" /><path d="M 82.95767976084542 87.72973835380427 l -12.38224165001112 -8.915062191062065 a36.25772729307266,36.25772729307266 0 0,0 0.3690300908483087,-0.5033566291927399 l 12.226948946649177 9.126881263926306" fill="#ffb010" stroke="none" /><path d="M 84.80347519578584 85.50635884689758 l -10.869462899611689 -10.366718498050611 a36.02045525754328,36.02045525754328 0 0,0 0.4317921821907876,-0.44499979935197714 l 10.689406453717782 10.552282492952711" fill="#ffac10" stroke="none" /><path d="M 85.31137513191541 84.99185889309783 l -11.084581072463896 -11.325699875956369 a36.84737881267003,36.84737881267003 0 0,0 0.45711236236480746,-0.43974173042528997 l 10.887985466486661 11.514824693143972" fill="#ffb711" stroke="none" /><path d="M 85.57189188830299 84.74124197986013 l -11.172988347337688 -11.816235658482036 a37.26219830608784,37.26219830608784 0 0,0 0.46984458780593935,-0.4366693388526312 l 10.967935875736892 12.006809583409314" fill="#ffbd11" stroke="none" /><path d="M 85.83668400450813 84.49514656593479 l -11.331047252981778 -12.404314566438396 a37.80058486221422,37.80058486221422 0 0,0 0.48418771382769893,-0.4347085101583681 l 11.115848551558107 12.597522085366043" fill="#ffc412" stroke="none" /><path d="M 86.37877921826538 84.01681056812374 l -10.02139494453116 -11.759140853577074 a36.45010518567884,36.45010518567884 0 0,0 0.48104152044088266,-0.4028584393557074 l 9.817495887131168 11.929900450326594" fill="#ffb210" stroke="none" /><path d="M 86.65592168130627 83.78471172551755 l -9.95124848794219 -12.092432243667028 a36.6605959029805,36.6605959029805 0 0,0 0.49072232928228654,-0.39679666282909176 l 9.741622760095401 12.261935003760255" fill="#ffb510" stroke="none" /><path d="M 87.80319425747018 82.90503203632743 l -10.09391955552529 -14.147575608907088 a38.37932989511272,38.37932989511272 0 0,0 0.5410916412185134,-0.3790692735623487 l 9.848896774723116 14.31922972523338" fill="#ffcc13" stroke="none" /><path d="M 88.09926311788651 82.69761687909137 l -9.033751286459934 -13.134096428285389 a36.94092692703644,36.94092692703644 0 0,0 0.5270156329338656,-0.3558433079040447 l 8.806330959119528 13.287651648488099" fill="#ffb911" stroke="none" /><path d="M 89.00827224532344 82.1063720568725 l -8.462978525740104 -13.777032365620775 a37.16875463140252,37.16875463140252 0 0,0 0.548040780253841,-0.3301884380327995 l 8.224575679268614 13.920667413112193" fill="#ffbc11" stroke="none" /><line stroke="#e1ed5e" stroke-width="0.3" x1="56.762969772571076" x2="54.21961505331055" y1="26.818313649435495" y2="22.513508569990535" /><path d="M 56.25429882871897 25.957352633546506 a86.0,86.0 0 0,1 42.265352541879196,-11.944610805530505" fill="none" id="id96" stroke="none" /><text fill="#e1ed5e" style="font-size:6.75px; font-family:Arial;" text-anchor="middle"><textPath startOffset="22.20632615414155" xlink:href="#id96">December</textPath></text><path d="M 89.3179101791058 81.91981866633112 l -8.297327162577162 -14.043804367824846 a37.3117773147066,37.3117773147066 0 0,0 0.5557736124555509,-0.3219399490387231 l 8.054356817656291 14.184548474253615" fill="#ffbe11" stroke="none" /><path d="M 89.63071344664047 81.73862282372117 l -8.19318998137441 -14.429047915385487 a37.59294385621142,37.59294385621142 0 0,0 0.5654621611925824,-0.3146790804907822 l 7.943603731109782 14.567942393436455" fill="#ffc112" stroke="none" /><path d="M 89.94658935756843 81.56283822128135 l -4.342646607691705 -7.96407118952126 a30.07110850288204,30.07110850288204 0 0,0 0.45658675726327314,-0.24389283312928284 l 4.204914803900127 8.037642749152292" fill="#ff5a08" stroke="none" /><path d="M 90.58718382345135 81.22770947309562 l -8.733687632938896 -17.41788201762974 a40.484863706216146,40.484863706216146 0 0,0 0.6256429297063769,-0.3070002684695065 l 8.432573436222093 17.565637446234074" fill="#ffe715" stroke="none" /><path d="M 90.91171255644093 81.06846463323043 l -6.619889122845345 -13.789689843278257 a36.29635505512923,36.29635505512923 0 0,0 0.5655694392592326,-0.2655424351904394 l 6.381541472286504 13.901597261108705" fill="#ffb010" stroke="none" /><path d="M 91.90106846888425 80.62456947434976 l -5.923400023410382 -14.170810703644962 a36.35898902388685,36.35898902388685 0 0,0 0.5795209577025692,-0.2364011495515506 l 5.678595196119432 14.270672739380089" fill="#ffb110" stroke="none" /><path d="M 93.25333710446033 80.11325718540243 l -3.01984981821232 -8.901434324397771 a30.399735419474517,30.399735419474517 0 0,0 0.49698816041864086,-0.1638491826492846 l 2.86617883555127 8.95209723130629" fill="#ff5f08" stroke="none" /><path d="M 93.59665428221793 80.00007090966166 l -4.8198414060594885 -15.054081193863013 a36.806841296444574,36.806841296444574 0 0,0 0.6050599999927367,-0.18799508727890213 l 4.559996033356024 15.13481641602444" fill="#ffb711" stroke="none" /><path d="M 94.28887869178378 79.79150937346287 l -4.477419191217341 -15.84310310947563 a37.46363261104176,37.46363261104176 0 0,0 0.6220784651817736,-0.1700375436843417 l 4.204042836811845 15.917827193986268" fill="#ffc011" stroke="none" /><path d="M 94.63758080256005 79.69619591428918 l -2.2840831757833517 -8.648256618712937 a29.944796168555698,29.944796168555698 0 0,0 0.49949504418974033,-0.12733240848505376 l 2.1348792429086116 8.686292023366855" fill="#ff5808" stroke="none" /><path d="M 94.98787191387505 79.60689891045804 l -3.9667220704704533 -16.13960433316917 a37.619919133846906,37.619919133846906 0 0,0 0.6301807833177279,-0.1491434310867914 l 3.6883176001901914 16.205493676396834" fill="#ffc212" stroke="none" /><path d="M 95.692805502759 79.44645832069477 l -3.267790138380658 -15.593598304291133 a36.932318113322026,36.932318113322026 0 0,0 0.6233359102669829,-0.12503531955977007 l 2.9988878186465384 15.647537579928112" fill="#ffb911" stroke="none" /><path d="M 96.04723909329186 79.375362276772 l -3.183923325027083 -16.613012187450224 a37.915364071755036,37.915364071755036 0 0,0 0.6420423070988648,-0.11732912779117104 l 2.897485896825325 16.66535679659213" fill="#ffc612" stroke="none" /><path d="M 96.75951476605007 79.25152402106235 l -2.544365377108778 -16.291295931699956 a37.488787654235026,37.488787654235026 0 0,0 0.6384358738703788,-0.09408885197601694 l 2.26356052280975 16.33267926783694" fill="#ffc011" stroke="none" /><path d="M 97.11714578562143 79.19881850522333 l -1.4346178894739685 -10.35145896235832 a31.45039861144957,31.45039861144957 0 0,0 0.5368811754648377,-0.06970258516824618 l 1.256221985501273 10.374619870690703" fill="#ff6e0a" stroke="none" /><path d="M 97.83486435360386 79.11191278185805 l -1.6687243010911623 -16.09897227559092 a37.18522626110915,37.18522626110915 0 0,0 0.637239455944641,-0.06051356474062924 l 1.391359718056285 16.125311384846732" fill="#ffbc11" stroke="none" /><path d="M 98.19473922651362 79.07773832637324 l -1.3203721605663963 -15.302593539764013 a36.35945154247462,36.35945154247462 0 0,0 0.6240144307291745,-0.048435529708192454 l 1.0567675404748875 15.323054331660668" fill="#ffb110" stroke="none" /><path d="M 99.27714615592234 79.0124445844662 l -0.5294489405698338 -15.372179412123618 a36.381294355781236,36.381294355781236 0 0,0 0.6260586074911534,-0.016169246778690676 l 0.2647636978838014 15.379015451044667" fill="#ffb110" stroke="none" /><path d="M 99.63851952072746 79.00311137660856 l -0.264867710992122 -15.38505713732099 a36.38733693733122,36.38733693733122 0 0,0 0.6263481902646539,-0.00539117661878869 l 3.7688105855409035e-15 15.38733693733122" fill="#ffb110" stroke="none" /></svg>