<?xml version="1.0" encoding="utf-8" ?>
<svg baseProfile="full" height="200mm" version="1.1" viewBox="0,0,200,200" width="200mm" xmlns="http://www.w3.org/2000/svg" xmlns:ev="http://www.w3.org/2001/xml-events" xmlns:xlink="http://www.w3.org/1999/xlink"><defs /><rect fill="#1a1a1a" height="200" width="200" x="0" y="0" /><rect fill="#1a1a1a" height="200" width="180" x="10" y="0" /><text alignment-baseline="middle" fill="#e1ed5e" style="dominant-baseline: central; font-size:9.0px; font-family:Arial;" text-anchor="middle" x="100.0" y="100.0">2016</text><line stroke="#e1ed5e" stroke-width="0.3" x1="100.0" x2="100.0" y1="15.0" y2="10.0" /><path d="M 100.0 14.0 a86.0,86.0 0 0,1 42.35913384403234,11.155469271406648" fill="none" id="id1" stroke="none" /><text fill="#e1ed5e" style="font-size:6.75px; font-family:Arial;" text-anchor="middle"><textPath startOffset="22.145653131862478" xlink:href="#id1">January</textPath></text><line stroke="#e1ed5e" stroke-width="0.3" x1="143.13028292997686" x2="145.6673583964461" y1="26.7553504044142" y2="22.446841604673864" /><path d="M 143.63769802327073 25.89364864446614 a86.0,86.0 0 0,1 29.32050498858742,28.57503671076993" fill="none" id="id2" stroke="none" /><text fill="#e1ed5e" style="font-size:6.75px; font-family:Arial;" text-anchor="middle"><textPath startOffset="20.669276256404974" xlink:href="#id2">February</textPath></text><line stroke="#e1ed5e" stroke-width="0.3" x1="172.87174338648825" x2="177.1583165268699" y1="56.24261187166439" y2="53.66864786411523" /><path d="M 173.72905801456457 55.72781907015455 a86.0,86.0 0 0,1 12.242430191666344,42.057860355516425" fill="none" id="id3" stroke="none" /><text fill="#e1ed5e" style="font-size:6.75px; font-family:Arial;" text-anchor="middle"><textPath startOffset="22.145653131862474" xlink:href="#id3">March</textPath></text><line stroke="#e1ed5e" stroke-width="0.3" x1="184.99686870605535" x2="189.99668451229388" y1="99.2704041080226" y2="99.22748670261217" /><path d="M 185.99683186730306 99.26182062694052 a86.0,86.0 0 0,1 -10.086455211305974,41.156179273409016" fill="none" id="id4" stroke="none" /><text fill="#e1ed5e" style="font-size:6.75px; font-family:Arial;" text-anchor="middle"><textPath startOffset="21.40746469413373" xlink:href="#id4">April</textPath></text><line stroke="#e1ed5e" stroke-width="0.3" x1="174.33088141563837" x2="178.70328620479359" y1="141.23008692659167" y2="143.65538615756765" /><path d="M 175.20536237346943 141.71514677278685 a86.0,86.0 0 0,1 -30.301960400862466,31.631185727798858" fill="none" id="id5" stroke="none" /><text fill="#e1ed5e" style="font-size:6.75px; font-family:Arial;" text-anchor="middle"><textPath startOffset="22.145653131862474" xlink:href="#id5">May</textPath></text><line stroke="#e1ed5e" stroke-width="0.3" x1="143.1302829299769" x2="145.66735839644613" y1="173.24464959558577" y2="177.55315839532614" /><path d="M 143.63769802327073 174.10635135553383 a86.0,86.0 0 0,1 -40.68552437913181,11.842963189579606" fill="none" id="id6" stroke="none" /><text fill="#e1ed5e" style="font-size:6.75px; font-family:Arial;" text-anchor="middle"><textPath startOffset="21.407464694133747" xlink:href="#id6">June</textPath></text><line stroke="#e1ed5e" stroke-width="0.3" x1="101.45913802915013" x2="101.54496967792366" y1="184.9874750549273" y2="189.98673829345242" /><path d="M 101.47630435890484 185.9873277026323 a86.0,86.0 0 0,1 -42.54439059252881,-10.42667462771756" fill="none" id="id7" stroke="none" /><text fill="#e1ed5e" style="font-size:6.75px; font-family:Arial;" text-anchor="middle"><textPath startOffset="22.145653131862474" xlink:href="#id7">July</textPath></text><path d="M 92.93061703081489 119.77432235084164 l -2.9667137369034173 8.298426328282583 a29.81279013268017,29.81279013268017 0 0,0 -0.4804272190646672,-0.17641952945092323 l 3.1087301076222036 -8.24627594982294" fill="#ff5007" stroke="none" /><path d="M 92.59220618246901 119.65005319985036 l -5.815756170114806 15.42698419462805 a37.4868087018541,37.4868087018541 0 0,0 -0.600195470293444,-0.23216850157671517 l 6.079723902901779 -15.324875804913296" fill="#ffbb11" stroke="none" /><path d="M 92.25597844496254 119.51999308798841 l -7.479118860375423 18.852265250192186 a41.281645002100475,41.281645002100475 0 0,0 -0.6564676753891137,-0.2669796886026216 l 7.801640996954977 -18.721098305010273" fill="#ffed16" stroke="none" /><path d="M 91.26138138417905 119.09545874513695 l -1.4084323121717095 3.0776787836582 a24.384640050780757,24.384640050780757 0 0,0 -0.379136199274343,-0.17745488496936102 l 1.4610572253175425 -3.053047667118312" fill="#ff0000" stroke="none" /><line stroke="#e1ed5e" stroke-width="0.3" x1="58.13341422392154" x2="55.67067388415222" y1="173.97424548756322" y2="178.32567169271397" /><path d="M 57.64086615596768 174.84453072859336 a86.0,86.0 0 0,1 -31.369924170532247,-30.572349798747897" fill="none" id="id8" stroke="none" /><text fill="#e1ed5e" style="font-size:6.75px; font-family:Arial;" text-anchor="middle"><textPath startOffset="22.145653131862474" xlink:href="#id8">August</textPath></text><path d="M 85.60350026404147 115.28858382429668 l -7.197842624945651 7.643859434159218 a31.499405959513584,31.499405959513584 0 0,0 -0.39048390715045106,-0.3740747499467968 l 7.3279990179614165 -7.519172553906838" fill="#ff6909" stroke="none" /><path d="M 85.34317274990678 115.03919595460226 l -9.1689182792864 9.408117892161542 a34.13703713494951,34.13703713494951 0 0,0 -0.41615987282717093,-0.4126029722103218 l 9.329070072243532 -9.24933490972256" fill="#ff8e0d" stroke="none" /><path d="M 85.08716467003676 114.78537596483092 l -12.362426446113165 12.256765316525643 a38.408557770819044,38.408557770819044 0 0,0 -0.4601952420904626,-0.4722008593728976 l 12.571008489354437 -12.042741765085008" fill="#ffc712" stroke="none" /><path d="M 84.58840730492382 114.26474011684316 l -15.560244811534421 14.402330296589655 a42.20255495375376,42.20255495375376 0 0,0 -0.4875446124822655,-0.5358969343632605 l 15.805187124858566 -14.13309578666872" fill="#fff917" stroke="none" /><path d="M 84.3458050057657 113.99807769240083 l -10.630835624602746 9.506158768505266 a35.26119632461991,35.26119632461991 0 0,0 -0.3996083141354038,-0.45468090639963715 l 10.792455002696741 -9.322265584294328" fill="#ff9d0e" stroke="none" /><path d="M 84.1078160697243 113.72728997021213 l -18.982757291030794 16.396853630149078 a46.08389689300121,46.08389689300121 0 0,0 -0.5119820799959469,-0.6031136028745956 l 19.261433934533855 -16.068573244824925" fill="#d5ff1c" stroke="none" /><path d="M 83.64595745247003 113.17365903436017 l -4.161626179225891 3.3523114639242078 a26.34388665736615,26.34388665736615 0 0,0 -0.28066722822031753,-0.35461387418140766 l 4.21855983808777 -3.2803776458281195" fill="#ff1e03" stroke="none" /><path d="M 83.4222238831116 112.89097897827486 l -15.524311072684476 12.071798188075523 a40.665516666873955,40.665516666873955 0 0,0 -0.42378894821006297,-0.5547533370149628 l 15.729251998248834 -11.803523937819689" fill="#ffe515" stroke="none" /><path d="M 83.20337586046588 112.60449989151573 l -5.1108162366623135 3.835251784252507 a27.389804289142443,27.389804289142443 0 0,0 -0.27898208673531943,-0.37849278071758646 l 5.175900342981463 -3.746952694266041" fill="#ff2d04" stroke="none" /><path d="M 82.78059297857968 112.02048342749411 l -11.452830118227215 7.994964894133748 a34.96734696982227,34.96734696982227 0 0,0 -0.339366866132825,-0.49514639978945946 l 11.588386721175365 -7.797183759274238" fill="#ff990e" stroke="none" /><path d="M 82.576782715395 111.72311816256416 l -12.591811852341293 8.472332968963457 a36.17676354371207,36.17676354371207 0 0,0 -0.34225899024186646,-0.5182237338342136 l 12.735395281503886 -8.254929356790182" fill="#ffaa0f" stroke="none" /><path d="M 82.37810715431573 111.42229804090323 l -12.265670703813104 7.950459560582363 a35.61699302315064,35.61699302315064 0 0,0 -0.3281551441649409,-0.5159143917479796 l 12.400343539603934 -7.7387314941557115" fill="#ffa20f" stroke="none" /><path d="M 82.18462484594161 111.11811171558189 l -12.51888027835775 7.812707186077385 a35.756719045886854,35.756719045886854 0 0,0 -0.3205028576382611,-0.5235173312272547 l 12.651151100451415 -7.596652738725574" fill="#ffa40f" stroke="none" /><path d="M 81.99639281039703 110.81064883170644 l -12.172862279870973 7.30945404432103 a35.198827223075384,35.198827223075384 0 0,0 -0.30660908912859186,-0.5206892644897736 l 12.296545079129334 -7.099413611537698" fill="#ff9c0e" stroke="none" /><line stroke="#e1ed5e" stroke-width="0.3" x1="26.387840678322732" x2="22.057713659400548" y1="142.50000000000003" y2="145.00000000000006" /><path d="M 25.521815274538298 143.00000000000003 a86.0,86.0 0 0,1 -11.493303480769221,-40.785679425670985" fill="none" id="id9" stroke="none" /><text fill="#e1ed5e" style="font-size:6.75px; font-family:Arial;" text-anchor="middle"><textPath startOffset="21.40746469413373" xlink:href="#id9">September</textPath></text><path d="M 81.29705330413844 109.54985784667822 l -18.67027025663862 9.533173023982146 a41.963310314955166,41.963310314955166 0 0,0 -0.32207857135653745,-0.6443728945946685 l 18.831168741206895 -9.211268273223725" fill="#fff617" stroke="none" /><path d="M 80.9802524753101 108.90220220490708 l -8.28998675714446 3.8801323883138727 a30.153103724118548,30.153103724118548 0 0,0 -0.2154016186406974,-0.4706914105328265 l 8.355372840640213 -3.7372519955663575" fill="#ff5507" stroke="none" /><path d="M 80.68587082218212 108.24405325689762 l -13.55085252862199 5.784053160969225 a35.73366469081535,35.73366469081535 0 0,0 -0.23596837012453456,-0.5662381870299674 l 13.64814674328301 -5.5505824644979755" fill="#ffa30f" stroke="none" /><path d="M 80.5471966667186 107.91128576633889 l -13.261193864564103 5.39321209739951 a35.31593515775651,35.31593515775651 0 0,0 -0.22356891498488488,-0.5635397117864711 l 13.351821454515111 -5.164771368399474" fill="#ff9e0e" stroke="none" /><path d="M 80.28708602549918 107.23885506374661 l -19.991714904169054 7.3412346269160444 a42.29700426484923,42.29700426484923 0 0,0 -0.2444360592967957,-0.6837311617963521 l 20.114791133509794 -6.996968508738771" fill="#fffa17" stroke="none" /><path d="M 80.16572619554312 106.89939002012753 l -13.582727686081457 4.724777764356691 a35.381029737706655,35.381029737706655 0 0,0 -0.19462022545174856,-0.5753601148003198 l 13.661833333105573 -4.49091597508221" fill="#ff9f0e" stroke="none" /><path d="M 80.05021161711548 106.5578916946017 l -13.581376366675235 4.464468172138143 a35.29633729573135,35.29633729573135 0 0,0 -0.18427257006854222,-0.5772312011727423 l 13.656013652521032 -4.230667937274009" fill="#ff9e0e" stroke="none" /><path d="M 79.48165901384964 104.47187691870673 l -17.19724166241326 3.7480587786057775 a38.60093933298238,38.60093933298238 0 0,0 -0.13554864908304096,-0.6486493550256883 l 17.259048022320666 -3.4522929722946802" fill="#ffca12" stroke="none" /><path d="M 79.34024301695615 103.76489593502545 l -14.969608672946842 2.727961364112612 a36.216141331666726,36.216141331666726 0 0,0 -0.10620846064941578,-0.6125821772257384 l 15.014231951088492 -2.470586153966281" fill="#ffaa0f" stroke="none" /><path d="M 79.2786578344484 103.40968896794605 l -13.861349482458557 2.2808797824764566 a35.04775505399222,35.04775505399222 0 0,0 -0.09259034068090387,-0.59449640700018 l 13.898461315277729 -2.0425951935448268" fill="#ff9a0e" stroke="none" /><path d="M 79.17382384314188 102.69636545807758 l -18.720181793320037 2.42370232424155 a39.876428140182796,39.876428140182796 0 0,0 -0.08206552531596352,-0.6796202749086246 l 18.75902940489566 -2.1019883724095263" fill="#ffdb14" stroke="none" /><path d="M 79.13060592940153 102.33845913500099 l -18.755974225466122 2.1016460331819515 a39.873353840670156,39.873353840670156 0 0,0 -0.07038142050502925,-0.6808763985084203 l 18.789288038452817 -1.7793651123906" fill="#ffdb14" stroke="none" /><path d="M 79.0935383218832 101.97986365728391 l -11.487561140319983 1.0878839835605878 a32.53895803416744,32.53895803416744 0 0,0 -0.04788863400125511,-0.5565385174380738 l 11.504543397018978 -0.8905244187468521" fill="#ff770b" stroke="none" /><path d="M 79.03789590574601 101.26102812881392 l -12.51227565384135 0.7527074326137214 a33.534895712243596,33.534895712243596 0 0,0 -0.029635922007563688,-0.5749289696465439 l 12.523353165305485 -0.5378066695904468" fill="#ff850c" stroke="none" /><line stroke="#e1ed5e" stroke-width="0.3" x1="15.003131293944662" x2="10.003315487706104" y1="100.72959589197737" y2="100.7725132973878" /><path d="M 14.003168132696942 100.73817937305945 a86.0,86.0 0 0,1 10.791469493833604,-42.45332614584628" fill="none" id="id10" stroke="none" /><text fill="#e1ed5e" style="font-size:6.75px; font-family:Arial;" text-anchor="middle"><textPath startOffset="22.145653131862435" xlink:href="#id10">October</textPath></text><path d="M 79.0935383218832 98.0201363427161 l -11.792606301033723 -1.1167720774344325 a32.845368007964865,32.845368007964865 0 0,0 0.057976152862598086,-0.5608666872195093 l 11.771697755689463 1.3190432869368547" fill="#ff7c0b" stroke="none" /><path d="M 79.2786578344484 96.59031103205396 l -9.757480029559646 -1.6055896257074167 a30.888697314279298,30.888697314279298 0 0,0 0.09058505054890581,-0.5224704995256659 l 9.728480161518506 1.7728531581536753" fill="#ff6008" stroke="none" /><path d="M 79.48165901384962 95.52812308129327 l -9.91302856378135 -2.1604984369241342 a31.145732541433198,31.145732541433198 0 0,0 0.11833767455411683,-0.5214176288517366 l 9.87448002766957 2.330350399714879" fill="#ff6409" stroke="none" /><path d="M 79.64726062577567 94.8264132398404 l -17.53966645574312 -4.458514624717752 a39.09746534842773,39.09746534842773 0 0,0 0.1709313615646857,-0.6490542214319718 l 17.46054561337371 4.758949350522509" fill="#ffd013" stroke="none" /><path d="M 80.05021161711548 93.44210830539832 l -17.738164574557906 -5.830887020374087 a39.67195024410862,39.67195024410862 0 0,0 0.21822326704049141,-0.6451383132717843 l 17.63545588594505 6.134527008120033" fill="#ffd814" stroke="none" /><path d="M 80.41425534168474 92.42381321644754 l -17.617483764952798 -6.814821186940079 a39.88961413100709,39.88961413100709 0 0,0 0.25252276941265767,-0.6365223390020557 l 17.49790232057401 7.116244543155717" fill="#ffdb14" stroke="none" /><path d="M 80.83023694016515 91.42560881287825 l -10.373348565451188 -4.63986686965931 a32.36374608254295,32.36374608254295 0 0,0 0.23119355656514598,-0.5051996448887784 l 10.292170544030995 4.81725549676276" fill="#ff750a" stroke="none" /><path d="M 81.1358732173502 90.77261029715801 l -10.477403852607663 -5.125023253712917 a32.66369816317861,32.66369816317861 0 0,0 0.2507017954650727,-0.5015715294050987 l 10.387882143930847 5.304126639281786" fill="#ff790b" stroke="none" /><path d="M 81.29705330413844 90.45014215332179 l -17.331824038366246 -8.849752848125382 a40.46047918140233,40.46047918140233 0 0,0 0.32116359071177125,-0.6158735321965696 l 17.177352378679533 9.145972623426438" fill="#ffe215" stroke="none" /><path d="M 81.46374523516351 90.13048839642627 l -16.447961477499643 -8.757613051654038 a39.634141330574195,39.634141330574195 0 0,0 0.3249143687647992,-0.5978058426591992 l 16.295201759119493 9.038673727787856" fill="#ffd714" stroke="none" /><line stroke="#e1ed5e" stroke-width="0.3" x1="26.387840678322718" x2="22.05771365940052" y1="57.49999999999999" y2="54.99999999999999" /><path d="M 25.521815274538284 56.99999999999999 a86.0,86.0 0 0,1 29.574782752854787,-30.34633250058573" fill="none" id="id11" stroke="none" /><text fill="#e1ed5e" style="font-size:6.75px; font-family:Arial;" text-anchor="middle"><textPath startOffset="21.40746469413373" xlink:href="#id11">November</textPath></text><path d="M 81.81346652052679 89.5 l -10.37802582595003 -5.991756004269139 a32.98351200853828,32.98351200853828 0 0,0 0.28731197517198936,-0.48791854623939657 l 10.273640140648261 6.169025718802109" fill="#ff7e0b" stroke="none" /><path d="M 81.99639281039701 89.18935116829357 l -7.61759825570719 -4.574148881176843 a29.88541733249061,29.88541733249061 0 0,0 0.2678758541711803,-0.4375550761366252 l 7.537954437080617 4.704241073438011" fill="#ff5207" stroke="none" /><path d="M 82.576782715395 88.27688183743585 l -15.53666007511406 -10.453758277645461 a39.72615466178479,39.72615466178479 0 0,0 0.38555228747304404,-0.5625323097928766 l 15.354918050825704 10.71892532250837" fill="#ffd914" stroke="none" /><path d="M 82.98947788004972 87.6856937992154 l -10.194359942446697 -7.3799304317102505 a33.58524325601396,33.58524325601396 0 0,0 0.34208646210702653,-0.4641059854555099 l 10.066171460755852 7.553842726434624" fill="#ff860c" stroke="none" /><path d="M 84.10781606972428 86.27271002978789 l -11.191381501545562 -9.666848792651653 a35.78833951101769,35.78833951101769 0 0,0 0.40558232585313164,-0.4614782351002061 l 11.023788111733838 9.85753930556316" fill="#ffa40f" stroke="none" /><line stroke="#e1ed5e" stroke-width="0.3" x1="56.869717070023135" x2="54.33264160355391" y1="26.7553504044142" y2="22.446841604673864" /><path d="M 56.362301976729285 25.89364864446614 a86.0,86.0 0 0,1 42.16139366436587,-11.88097634709845" fill="none" id="id12" stroke="none" /><text fill="#e1ed5e" style="font-size:6.75px; font-family:Arial;" text-anchor="middle"><textPath startOffset="22.145653131862474" xlink:href="#id12">December</textPath></text><path d="M 90.61103034731259 81.2157712731953 l -18.799697790911964 -37.61198900011535 a63.048666489847434,63.048666489847434 0 0,0 0.9722697352586733,-0.4755858485727701 l 18.15126780639124 37.92916859878534" fill="#32ff48" stroke="none" /><path d="M 93.27111125876988 80.10723608172694 l -8.463027985645436 -25.019438458036607 a47.41202649251471,47.41202649251471 0 0,0 0.773216239796584,-0.254171536047139 l 8.03228900820109 25.161030915485775" fill="#c5ff1e" stroke="none" /><path d="M 94.6519064749342 79.69241777938228 l -16.044280575197423 -60.922746661853175 a84.0,84.0 0 0,0 1.3975788270984877,-0.35525907265894796 l 14.996096454873559 61.18919096634739" fill="#4dd2ff" stroke="none" /></svg>