<?xml version="1.0" encoding="utf-8" ?>
<svg baseProfile="full" height="200mm" version="1.1" viewBox="0,0,200,200" width="200mm" xmlns="http://www.w3.org/2000/svg" xmlns:ev="http://www.w3.org/2001/xml-events" xmlns:xlink="http://www.w3.org/1999/xlink"><defs /><rect fill="#1a1a1a" height="200" width="200" x="0" y="0" /><rect fill="#1a1a1a" height="200" width="180" x="10" y="0" /><text alignment-baseline="middle" fill="#e1ed5e" style="dominant-baseline: central; font-size:9.0px; font-family:Arial;" text-anchor="middle" x="100.0" y="100.0">2019</text><line stroke="#e1ed5e" stroke-width="0.3" x1="100.0" x2="100.0" y1="15.0" y2="10.0" /><path d="M 100.0 14.0 a86.0,86.0 0 0,1 42.46469731375804,11.215312516191453" fill="none" id="id37" stroke="none" /><text fill="#e1ed5e" style="font-size:6.75px; font-family:Arial;" text-anchor="middle"><textPath startOffset="22.20632615414155" xlink:href="#id37">January</textPath></text><path d="M 100.0 79.0 l 0.0 -10.263684706669139 a31.26368470666914,31.26368470666914 0 0,0 0.5381529395996179,0.0046320522520804765 l -0.17667246032708953 10.262164031025618" fill="#ff4206" stroke="none" /><path d="M 101.80526077348638 79.07773832637324 l 0.875216635912758 -10.143416256873673 a31.181104926283176,31.181104926283176 0 0,0 0.5343474367872342,0.05074272772718198 l -1.0496891997902364 10.126847984631313" fill="#ff4006" stroke="none" /><path d="M 103.2404852339499 79.25152402106235 l 1.173748387697671 -7.515383798795119 a28.60648926383355,28.60648926383355 0 0,0 0.48586186834815503,0.08017137130257665 l -1.3029394621847015 7.494066164552918" fill="#ff1902" stroke="none" /><path d="M 103.95276090670814 79.375362276772 l 1.9637864679034926 -10.246606213280321 a31.433091400996915,31.433091400996915 0 0,0 0.5305211165144459,0.10641754508925723 l -2.1398739938850637 10.211284712113857" fill="#ff4406" stroke="none" /><path d="M 104.66035177308747 79.52364482259891 l 2.3604527106273947 -10.371205959468774 a31.636430324729666,31.636430324729666 0 0,0 0.529949848442877,0.12542200713353957 l -2.5386262460327953 10.329038040194366" fill="#ff4706" stroke="none" /><path d="M 105.01212808612495 79.60689891045804 l 2.522545382427219 -10.263609010552548 a31.569054126453338,31.569054126453338 0 0,0 0.5265885263389493,0.1342391403464344 l -2.698842797451193 10.218666874037245" fill="#ff4606" stroke="none" /><path d="M 105.36241919743992 79.69619591428918 l 2.724720355699543 -10.316647440931737 a31.67039434309936,31.67039434309936 0 0,0 0.5258825407883903,0.14374356372553249 l -2.901900785711644 10.268217336379912" fill="#ff4806" stroke="none" /><path d="M 105.71112130821622 79.79150937346287 l 2.021892910663396 -7.154357564463104 a28.434573498350886,28.434573498350886 0 0,0 0.46986072184714045,0.13716522913651866 l -2.1447438502339637 7.118494006407881" fill="#ff1602" stroke="none" /><path d="M 106.0581310904928 79.89281104454417 l 2.9180833325989606 -9.685239899878226 a31.115289528935147,31.115289528935147 0 0,0 0.5114977656061638,0.15892484561737638 l -3.0843664709158425 9.63357491937833" fill="#ff3f05" stroke="none" /><path d="M 106.40334571778207 80.00007090966166 l 3.054742796143245 -9.541049633229575 a31.018137634028555,31.018137634028555 0 0,0 0.5070980700862353,0.16718226091476754 l -3.218523688471898 9.487053648055571" fill="#ff3e05" stroke="none" /><path d="M 106.74666289553966 80.11325718540242 l 3.4685959504884125 -10.224176998782774 a31.796525050690306,31.796525050690306 0 0,0 0.5167964860977872,0.18030014643451114 l -3.644074440649473 10.162955999176054" fill="#ff4a06" stroke="none" /><path d="M 107.4271985657038 80.35727306442388 l 3.562517450239077 -9.421797042212235 a31.072824335204956,31.072824335204956 0 0,0 0.49866975771295713,0.19347611869311512 l -3.724170372951701 9.359078219628573" fill="#ff3f05" stroke="none" /><path d="M 107.76421540070413 80.48803036053334 l 3.7853198404563546 -9.512750740526455 a31.238216297087064,31.238216297087064 0 0,0 0.49790166094866445,0.20310658906713994 l -3.9485053709934066 9.446183265275737" fill="#ff4106" stroke="none" /><path d="M 108.09893153111575 80.62456947434976 l 4.000584709029133 -9.570774958890667 a31.373254615974986,31.373254615974986 0 0,0 0.4964686704699264,0.21256197505259394 l -4.164737137289375 9.500493455875281" fill="#ff4306" stroke="none" /><path d="M 108.43124777332544 80.76684994638697 l 4.194666031729398 -9.568766496020638 a31.44779954694344,31.44779954694344 0 0,0 0.49390698216448736,0.22160166585424135 l -4.358755132360665 9.495144499649866" fill="#ff4406" stroke="none" /><path d="M 109.08828744355905 81.06846463323043 l 19.272701937121393 -40.146379678429135 a65.53278389278746,65.53278389278746 0 0,0 1.012727206000262,0.496940841758362 l -19.960900410132087 39.80868367653594" fill="#34ff5c" stroke="none" /><path d="M 109.41281617654863 81.2277094730956 l 4.523286642219095 -9.020940108843961 a31.091455915527124,31.091455915527124 0 0,0 0.4763499936389237,0.2440049682759877 l -4.677897123446775 8.941742615255473" fill="#ff3f05" stroke="none" /><path d="M 109.73455568895987 81.39251694778311 l 4.710145515454851 -9.00338501855818 a31.161024188985937,31.161024188985937 0 0,0 0.4731355675194896,0.2527326344465585 l -4.864426129502652 8.920973657609867" fill="#ff4006" stroke="none" /><path d="M 110.05341064243156 81.56283822128135 l 4.899825423430331 -8.985893169227385 a31.23496776882378,31.23496776882378 0 0,0 0.4698273284182302,0.2614583995934896 l -5.053776840920596 8.900219372073716" fill="#ff4106" stroke="none" /><path d="M 110.36928655335952 81.73862282372117 l 5.052045553633162 -8.897170397586066 a31.231461545628093,31.231461545628093 0 0,0 0.46520491530266267,0.26947671384287375 l -5.204447201401154 8.808889526353143" fill="#ff4106" stroke="none" /><line stroke="#e1ed5e" stroke-width="0.3" x1="143.23703022742887" x2="145.7803849466894" y1="26.81831364943548" y2="22.513508569990506" /><path d="M 143.74570117128098 25.957352633546492 a86.0,86.0 0 0,1 28.547481713284135,27.462654790039103" fill="none" id="id38" stroke="none" /><text fill="#e1ed5e" style="font-size:6.75px; font-family:Arial;" text-anchor="middle"><textPath startOffset="19.985693538727396" xlink:href="#id38">February</textPath></text><path d="M 110.99172775467656 82.1063720568725 l 5.864488322313185 -9.546904222736181 a32.2042672014124,32.2042672014124 0 0,0 0.46984622297137396,0.294217661720899 l -6.027953697656822 9.444542219692337" fill="#ff5007" stroke="none" /><path d="M 112.19680574252982 82.90503203632743 l 5.88522205366725 -8.248691058161697 a31.132953310558975,31.132953310558975 0 0,0 0.43357038149579963,0.31500732104020507 l -6.026337751516838 8.146164502304815" fill="#ff4006" stroke="none" /><path d="M 112.48926042617603 83.11751280151076 l 5.998880193671659 -8.10904846396427 a31.086784947095254,31.086784947095254 0 0,0 0.4274489867028456,0.3219457148377411 l -6.137575334132888 8.00458615962068" fill="#ff3f05" stroke="none" /><path d="M 112.77801427241765 83.33499621200491 l 6.161270447306909 -8.035489173374112 a31.125726629742186,31.125726629742186 0 0,0 0.4223723231658908,0.32966829778975454 l -6.298675325632231 7.928242486361133" fill="#ff4006" stroke="none" /><path d="M 113.06298171725822 83.55741782278167 l 6.423936988942045 -8.08591132776398 a31.327096805896595,31.327096805896595 0 0,0 0.41933049737993894,0.3390694330665074 l -6.562170884886475 7.974135797433343" fill="#ff4306" stroke="none" /><path d="M 113.34407831869373 83.78471172551755 l 6.644252023990639 -8.073878117635957 a31.45627050227491,31.45627050227491 0 0,0 0.41513658500384437,0.34766495125166413 l -6.7822461459536 7.958312008990473" fill="#ff4506" stroke="none" /><path d="M 113.6212207817346 84.01681056812373 l 5.805017236932487 -6.811628094129123 a29.94966493304707,29.94966493304707 0 0,0 0.3894971057936524,0.3377680519760402 l -5.921408141372904 6.710695048733411" fill="#ff2d04" stroke="none" /><path d="M 113.89432698308785 84.25364557470407 l 5.923421334680249 -6.7129765881978765 a29.95270768995827,29.95270768995827 0 0,0 0.3836642504927557,0.34445755224611474 l -6.038096572768995 6.610020027182464" fill="#ff2d04" stroke="none" /><path d="M 114.16331599549186 84.49514656593476 l 5.281464955755113 -5.78172089658945 a28.83084724694132,28.83084724694132 0 0,0 0.36353243116690986,0.3378637755740398 l -5.3802052707168695 5.68995253494077" fill="#ff1c02" stroke="none" /><path d="M 114.42810811169701 84.74124197986012 l 4.547888703203625 -4.8097181340395245 a27.619416906770248,27.619416906770248 0 0,0 0.3426343288508629,0.32961395288570716 l -4.630006275666906 4.730721094391516" fill="#ff0901" stroke="none" /><path d="M 114.68862486808459 84.99185889309783 l 5.128327217291195 -5.2398818276519705 a28.33185526421294,28.33185526421294 0 0,0 0.3456003349301114,0.3441162172604967 l -5.217763352388629 5.150829759741355" fill="#ff1402" stroke="none" /><path d="M 115.19652480421416 85.50635884689758 l 16.762632358284097 -15.987311659240635 a44.16419602897292,44.16419602897292 0 0,0 0.5199444027268773,0.5546404367539487 l -17.035344082981435 15.696401805608632" fill="#fffa17" stroke="none" /><path d="M 115.4437574822437 85.77008943001954 l 7.396779488363372 -6.8154081509174915 a31.057938907304305,31.057938907304305 0 0,0 0.35887649453409726,0.39628038873165794 l -7.5129996235135055 6.6870749749162846" fill="#ff3e05" stroke="none" /><path d="M 115.9244219780498 86.31012108654704 l 6.730606906780187 -5.786156238190509 a29.87584775367109,29.87584775367109 0 0,0 0.33189134257172453,0.3928546656866491 l -6.829208862839029 5.669442622874754" fill="#ff2c04" stroke="none" /><path d="M 116.15771136456269 86.58626213691792 l 7.833276024794043 -6.5029946899659 a31.180822816370878,31.180822816370878 0 0,0 0.3392792872304315,0.4159162893100192 l -7.944053804100883 6.36719423104778" fill="#ff4006" stroke="none" /><path d="M 116.38621287248628 86.86637796730983 l 6.932529075211164 -5.556452690623666 a29.884487935823152,29.884487935823152 0 0,0 0.318263989542179,0.4041629465044019 l -7.027147145347307 5.4362973501662255" fill="#ff2c04" stroke="none" /><path d="M 116.82858285166822 87.43820079747576 l 10.383311325857479 -7.7506866194492225 a33.95709447224143,33.95709447224143 0 0,0 0.3456143171011839,0.4714175401168331 l -10.515188255472289 7.570806635660896" fill="#ff6a09" stroke="none" /><path d="M 117.2510076193507 88.02491185347247 l 7.34929964561058 -5.101644669886404 a29.946450895117692,29.946450895117692 0 0,0 0.29030308296660107,0.4259839527345364 l -7.436027194245915 4.974382693881462" fill="#ff2d04" stroke="none" /><path d="M 117.45458315368197 88.32363383020206 l 7.198792466213934 -4.815682853942317 a29.661028479422782,29.661028479422782 0 0,0 0.2802308499553282,0.42681081001549165 l -7.280619951527187 4.69105397994915" fill="#ff2904" stroke="none" /><path d="M 117.65298651832404 88.62581576622439 l 8.442855803000516 -5.439906571210957 a31.04362472485724,31.04362472485724 0 0,0 0.28556055282567405,0.4516882170551218 l -8.535243952072145 5.29377070644163" fill="#ff3e05" stroke="none" /><line stroke="#e1ed5e" stroke-width="0.3" x1="172.23445277983987" x2="176.4835382374775" y1="55.19839476539836" y2="52.563006222186495" /><path d="M 173.08426987136738 54.67131705675599 a86.0,86.0 0 0,1 12.851231095245387,41.99856678651699" fill="none" id="id39" stroke="none" /><text fill="#e1ed5e" style="font-size:6.75px; font-family:Arial;" text-anchor="middle"><textPath startOffset="22.20632615414155" xlink:href="#id39">March</textPath></text><path d="M 118.03404312379186 89.2402003453031 l 7.006777579874145 -4.180511406507931 a29.159142582022323,29.159142582022323 0 0,0 0.25346282757564265,0.43325013350948377 l -7.077700081920114 4.0592818606445515" fill="#ff2103" stroke="none" /><path d="M 118.3937258080291 89.86733742301442 l 6.977882954859241 -3.8439484322651145 a28.966604677127425,28.966604677127425 0 0,0 0.23682530553349118,0.4388013236231037 l -7.0430163596111965 3.7232661253095523" fill="#ff1e03" stroke="none" /><path d="M 119.04729006885535 91.15688171328212 l 9.191205177924422 -4.267216716501865 a31.133478727875126,31.133478727875126 0 0,0 0.22148902794359368,0.4880217135904907 l -9.263296522831363 4.108372994069312" fill="#ff4006" stroke="none" /><path d="M 119.196687751892 91.48605970444005 l 9.722874450956768 -4.312200815399124 a31.636228817649457,31.636228817649457 0 0,0 0.2164961898399491,0.49970305527944253 l -9.795661350639397 4.144198615533079" fill="#ff4706" stroke="none" /><path d="M 119.61058180528143 92.48833698450437 l 8.129701613611164 -3.1140115853947656 a29.70569448581357,29.70569448581357 0 0,0 0.178793498970448,0.47907768670573203 l -8.182099701083239 2.9736107616597005" fill="#ff2a04" stroke="none" /><path d="M 119.7369772167798 92.82701384747503 l 8.049008185050466 -2.9252414703018523 a29.564086082156294,29.564086082156294 0 0,0 0.1697075950417871,0.47978622425365497 l -8.098168860902062 2.786257619621583" fill="#ff2703" stroke="none" /><path d="M 120.18372546131832 94.20196356495316 l 40.86585276909875 -11.739245252745254 a63.51855832045294,63.51855832045294 0 0,0 0.29283032190342173,1.0534664707684687 l -41.06186986156853 11.034067478557834" fill="#31ff42" stroke="none" /><path d="M 120.37134235888165 94.90015583598534 l 7.030501583706117 -1.7600441757892937 a28.247462177840188,28.247462177840188 0 0,0 0.11402182231209179,0.47269406559216176 l -7.059756206279029 1.638764878537726" fill="#ff1302" stroke="none" /><path d="M 120.45610955862082 95.25157060432595 l 7.1404619458681875 -1.657498915191498 a28.33031373504932,28.33031373504932 0 0,0 0.10617879566388813,0.4759787213916143 l -7.167935128534114 1.5343420242499197" fill="#ff1402" stroke="none" /><path d="M 120.53481517161879 95.60439243477599 l 6.812238218512624 -1.4582028423020739 a27.96655905559279,27.96655905559279 0 0,0 0.0967119623548556,0.4716018749966186 l -6.836329476782476 1.3407253111420436" fill="#ff0e01" stroke="none" /><path d="M 120.78858239683441 97.02765380044208 l 7.42139464256157 -1.0611091098061776 a28.49686941219835,28.49686941219835 0 0,0 0.06524969026975545,0.4861859818556752 l -7.438560331889162 0.933204785885838" fill="#ff1702" stroke="none" /><path d="M 120.87857604477298 97.74499172005257 l 7.320429411638595 -0.790649175528829 a28.363002980411444,28.363002980411444 0 0,0 0.04824799955922912,0.48585077117890646 l -7.332954536880053 0.6645228736454875" fill="#ff1502" stroke="none" /><line stroke="#e1ed5e" stroke-width="0.3" x1="184.98032266829074" x2="189.97916517819016" y1="98.17113171792111" y2="98.06355123074" /><path d="M 185.9800911702706 98.14961562048488 a86.0,86.0 0 0,1 -9.607161424134198,41.387399972396054" fill="none" id="id40" stroke="none" /><text fill="#e1ed5e" style="font-size:6.75px; font-family:Arial;" text-anchor="middle"><textPath startOffset="21.466115282336823" xlink:href="#id40">April</textPath></text><path d="M 120.99824983174949 100.27111621757518 l 7.268647184892785 0.09384820865770521 a28.26925301421804,28.26925301421804 0 0,0 -0.010470308470773904,0.48651409234973303 l -7.265954813737004 -0.21895211679755308" fill="#ff1302" stroke="none" /><path d="M 120.9764740272857 100.99374915477107 l 7.404211471795054 0.3507705290351243 a28.41251559749462,28.41251559749462 0 0,0 -0.027348600985255097,0.48832764234270226 l -7.397076519922269 -0.4781698877132499" fill="#ff1502" stroke="none" /><path d="M 120.92983693683757 101.71520430193887 l 10.143654596061422 0.8312745126993518 a31.177659155211554,31.177659155211554 0 0,0 -0.0484373198606912,0.5345017884459624 l -10.127842679923656 -1.005757689693885" fill="#ff4006" stroke="none" /><path d="M 120.8583938346157 102.4346265915055 l 7.55757208432716 0.8821324455570967 a28.60887990845602,28.60887990845602 0 0,0 -0.06130268657231861,0.4886427282327254 l -7.541267888507993 -1.012092928077217" fill="#ff1902" stroke="none" /><path d="M 120.76222939487914 103.15116336523771 l 6.055266758973255 0.9190311124451978 a27.124612127144765,27.124612127144765 0 0,0 -0.07403500860754564,0.46101606927112115 l -6.038549996004421 -1.0231264114095238" fill="#ff0100" stroke="none" /><path d="M 120.64145759157962 103.86396538481128 l 6.150702216493688 1.151377045510035 a27.25754000042411,27.25754000042411 0 0,0 -0.09030042308323913,0.4604399118593741 l -6.129971860434785 -1.257080684437354" fill="#ff0300" stroke="none" /><path d="M 120.5718875245553 104.21870165774334 l 6.27327110548909 1.2864672325575677 a27.403821382847013,27.403821382847013 0 0,0 -0.09873983274079907,0.46127962638210035 l -6.250197234023847 -1.394260678355837" fill="#ff0600" stroke="none" /><path d="M 120.41448212921028 104.9243191809786 l 6.030717650364905 1.4547113374120608 a27.203687649585365,27.203687649585365 0 0,0 -0.11372266595641829,0.45426552021135597 l -6.004783670113426 -1.5583046970208128" fill="#ff0200" stroke="none" /><path d="M 120.32669344350535 105.2749913415812 l 6.332295692437239 1.6432975212016616 a27.542048263322943,27.542048263322943 0 0,0 -0.12303678709856852,0.45786565560203263 l -6.303070828996893 -1.7520541099792424" fill="#ff0801" stroke="none" /><path d="M 120.23288151984713 105.62410040840565 l 5.928038735939217 1.6478070631282093 a27.152797036477885,27.152797036477885 0 0,0 -0.12904995587513296,0.44923982616502767 l -5.898796143177985 -1.749604364797819" fill="#ff0200" stroke="none" /><path d="M 120.02730092923936 106.31721596034902 l 5.982494738549878 1.8870596381709583 a27.273056461948265,27.273056461948265 0 0,0 -0.14507674977481144,0.44650032440883397 l -5.94912573775882 -1.9897588625575877" fill="#ff0300" stroke="none" /><path d="M 119.9155931802556 106.66101706037122 l 5.7808202067881576 1.933466991007316 a27.095586671398017,27.095586671398017 0 0,0 -0.15174711588232342,0.4410481500044555 l -5.746682259962603 -2.032687844101072" fill="#ff0100" stroke="none" /><path d="M 119.79798401119884 107.00284435728193 l 5.793731446265444 2.0493298480863857 a27.145492404820207,27.145492404820207 0 0,0 -0.15960998738391333,0.43917813551861906 l -5.757597197876304 -2.148755780611136" fill="#ff0100" stroke="none" /><line stroke="#e1ed5e" stroke-width="0.3" x1="174.80103733775053" x2="179.2010983576182" y1="140.37084112569926" y2="142.7455964860345" /><path d="M 175.68104954172406 140.8457921977663 a86.0,86.0 0 0,1 -30.038265399797805,32.042727171017184" fill="none" id="id41" stroke="none" /><text fill="#e1ed5e" style="font-size:6.75px; font-family:Arial;" text-anchor="middle"><textPath startOffset="22.206326154141568" xlink:href="#id41">May</textPath></text><path d="M 118.30583269289576 110.29060199501025 l 5.277945056297855 2.966990512645261 a27.054728459594696,27.054728459594696 0 0,0 -0.23170185276654826,0.40399171050576826 l -5.226091207378928 -3.057402069009344" fill="#ff0000" stroke="none" /><path d="M 114.81725581225074 114.88116024355365 l 4.37466132590612 4.3935285336885315 a27.20006086201692,27.20006086201692 0 0,0 -0.33462557233730317,0.3275015518790836 l -4.298385801193022 -4.468180188490186" fill="#ff0200" stroke="none" /><path d="M 114.29624159901734 115.38237550388516 l 4.5697279183618305 4.9169056289354245 a27.712553479244125,27.712553479244125 0 0,0 -0.3522139528111373,0.3217390949807559 l -4.484414416083829 -4.994837490502763" fill="#ff0a01" stroke="none" /><path d="M 112.92097659922987 116.55440617244103 l 4.1786346525696425 5.35368319520042 a27.791385080690624,27.791385080690624 0 0,0 -0.37964523690593655,0.29109577875607995 l -4.085860687170212 -5.424818315783871" fill="#ff0c01" stroke="none" /><path d="M 112.63410532772338 116.77436683061366 l 3.8382319858825054 5.096040411417853 a27.379784686982422,27.379784686982422 0 0,0 -0.3789036636543208,0.2803038720642113 l -3.7499433518096206 -5.161354232221833" fill="#ff0500" stroke="none" /><path d="M 112.34349029814194 116.9893568818739 l 3.829163878773405 5.270391933264985 a27.514562697582058,27.514562697582058 0 0,0 -0.3855611375279464,0.2750876343430643 l -3.7378754133965737 -5.335523829452269" fill="#ff0701" stroke="none" /><path d="M 111.45004920935366 117.60387380957326 l 3.9826652051101408 6.123147107460746 a28.304420075242106,28.304420075242106 0 0,0 -0.4107081847349743,0.26213339548306247 l -3.876675218328236 -6.190794931767617" fill="#ff1402" stroke="none" /><line stroke="#e1ed5e" stroke-width="0.3" x1="143.8653032363475" x2="146.44561519142675" y1="172.8068346515853" y2="177.08958963109032" /><path d="M 144.38136562736335 173.6633856474863 a86.0,86.0 0 0,1 -40.68145358897372,12.25698825130547" fill="none" id="id42" stroke="none" /><text fill="#e1ed5e" style="font-size:6.75px; font-family:Arial;" text-anchor="middle"><textPath startOffset="21.466115282336833" xlink:href="#id42">June</textPath></text><path d="M 108.2653958097858 119.30500536409082 l 3.993003057136468 9.326225532428339 a31.14507546034131,31.14507546034131 0 0,0 -0.4946557886728132,0.20676615978300822 l -3.8318758089661937 -9.39357673523132" fill="#ff4006" stroke="none" /><path d="M 107.93186726928326 119.44442032107085 l 2.502609945044684 6.134974025547204 a27.625780167736885,27.625780167736885 0 0,0 -0.44185320553540075,0.1758225092934416 l -2.396635663467417 -6.177143379246714" fill="#ff0901" stroke="none" /><path d="M 106.2309692047433 120.05430185196036 l 1.9757373931988598 6.35888780083411 a27.65875305973131,27.65875305973131 0 0,0 -0.4558755528452585,0.1373515644680935 l -1.8659868659133556 -6.391954734407929" fill="#ff0a01" stroke="none" /><path d="M 105.53697534728816 120.25689768951611 l 2.9542981758597375 10.808232318033529 a32.20472059234288,32.20472059234288 0 0,0 -0.5359932206480577,0.14156068113972645 l -2.7678145124001823 -10.857484348476838" fill="#ff5007" stroke="none" /><path d="M 103.06178313531738 120.77559828337769 l 1.00321948708519 6.807302846933227 a27.880829992750343,27.880829992750343 0 0,0 -0.4753965749706946,0.06588563346748162 l -0.885894320927665 -6.8235630458933105" fill="#ff0d01" stroke="none" /><path d="M 102.70371172650421 120.8252237178851 l 0.8714351219930655 6.712191685684073 a27.768523945234254,27.768523945234254 0 0,0 -0.4745410355374128,0.05746031076750414 l -0.7557666634042725 -6.726197525176929" fill="#ff0b01" stroke="none" /><path d="M 102.34483914955558 120.86867818915974 l 0.931143331595617 8.287020684866098 a29.339169007483513,29.339169007483513 0 0,0 -0.5023528008462012,0.05207092180438811 l -0.7883579341438132 -8.301820975126244" fill="#ff2403" stroke="none" /><path d="M 101.98527174616119 120.90594882070398 l 0.6382939865632162 6.72156919648735 a27.751808030183497,27.751808030183497 0 0,0 -0.4759510169055476,0.04106705643604501 l -0.522498651916127 -6.731560505202058" fill="#ff0b01" stroke="none" /><path d="M 101.26447882468166 120.96189622390904 l 0.3786709043667917 6.277416470259044 a27.288827330662965,27.288827330662965 0 0,0 -0.4691234412082698,0.024248323391575104 l -0.2705593947450422 -6.283004600412821" fill="#ff0400" stroke="none" /><path d="M 100.90346689309514 120.98055641714683 l 0.27314358199951627 6.343015306836409 a27.34889365158596,27.34889365158596 0 0,0 -0.47050469907296716,0.016205133168095624 l -0.16391853125189682 -6.346777238430598" fill="#ff0500" stroke="none" /><line stroke="#e1ed5e" stroke-width="0.3" x1="102.19456741930631" x2="102.32365962044197" y1="184.97166512339345" y2="189.96999836594603" /><path d="M 102.22038585953345 185.97133177190398 a86.0,86.0 0 0,1 -42.740103519485714,-10.115201625700543" fill="none" id="id43" stroke="none" /><text fill="#e1ed5e" style="font-size:6.75px; font-family:Arial;" text-anchor="middle"><textPath startOffset="22.20632615414155" xlink:href="#id43">July</textPath></text><path d="M 99.45781275523022 120.99299961872073 l -0.34181696494869657 13.234843652375462 a34.23925697840894,34.23925697840894 0 0,0 -0.589045081908624,-0.020287903634434164 l 0.5695823985319637 -13.226998950314934" fill="#ff6e0a" stroke="none" /><path d="M 97.2962882734958 120.8252237178851 l -1.3100767926481516 10.090810357871485 a31.175497770682362,31.175497770682362 0 0,0 -0.5315740193904782,-0.07367131537402093 l 1.483579403225461 -10.06676447700486" fill="#ff4006" stroke="none" /><path d="M 96.93821686468263 120.77559828337769 l -2.958438479202432 20.074357547085288 a41.29118501131577,41.29118501131577 0 0,0 -0.7022728778641685,-0.10968058055119091 l 3.3035472206751177 -20.020458659186993" fill="#ffd313" stroke="none" /><path d="M 96.22490169976321 120.6578951692458 l -7.944490059501771 43.47342235088518 a65.19336345203843,65.19336345203843 0 0,0 -1.1021788257367464,-0.21123519516015607 l 8.691636499810212 -43.33022995737655" fill="#34ff58" stroke="none" /><path d="M 95.51606077576429 120.51570834832081 l -2.166687245632087 9.913409033993124 a31.147423924112033,31.147423924112033 0 0,0 -0.5228018729318183,-0.11898800418251303 l 2.3370092679567684 -9.874644296232924" fill="#ff4006" stroke="none" /><path d="M 94.81253420990036 120.34920634021253 l -2.515430664185265 9.867441963221237 a31.183015384642356,31.183015384642356 0 0,0 -0.5189886618518509,-0.13706962260961864 l 2.6849097688486045 -9.822680991308038" fill="#ff4006" stroke="none" /><path d="M 94.46302465271185 120.25689768951611 l -5.845653417810096 21.386189351727097 a43.17071850141714,43.17071850141714 0 0,0 -0.7151308293891673,-0.20210311563415903 l 6.212915415303877 -21.282397442754416" fill="#ffec16" stroke="none" /><path d="M 93.76903079525671 120.05430185196036 l -15.51613602701575 49.93850318261531 a73.29344679143779,73.29344679143779 0 0,0 -1.201589013095473,-0.38471085706278335 l 16.373446385202165 -49.66401947889282" fill="#3fffba" stroke="none" /><path d="M 93.08242187328487 119.8279376855182 l -7.273379529600568 20.847775541427243 a43.08012216468343,43.08012216468343 0 0,0 -0.6980629951582633,-0.250300554172002 l 7.631162085388558 -20.719487446215282" fill="#ffeb16" stroke="none" /><path d="M 92.40401165467489 119.57807347666478 l -8.091824129329721 20.85605192664177 a43.37079613484465,43.37079613484465 0 0,0 -0.6936826827133125,-0.2760306554306266 l 8.44962788808489 -20.713674426805074" fill="#ffef16" stroke="none" /><path d="M 91.7346041902142 119.30500536409082 l -7.938595627059182 18.541717141032734 a41.1696944713605,41.1696944713605 0 0,0 -0.6490683176249938,-0.28453247608722987 l 8.256584619341918 -18.402320111651054" fill="#ffd113" stroke="none" /><path d="M 91.40352486487194 119.15986991738527 l -18.100931231312106 40.34345267379295 a65.21807192860473,65.21807192860473 0 0,0 -1.020296375375672,-0.4683680235579021 l 18.7926956024552 -40.02589757990098" fill="#34ff58" stroke="none" /><path d="M 90.7491055286396 118.85261126421891 l -10.200210947144198 20.787245211247228 a44.15499658472791,44.15499658472791 0 0,0 -0.6794530763159943,-0.34069187767932646 l 10.556517931142952 -20.6085854926586" fill="#fffa17" stroke="none" /><path d="M 90.42595943632237 118.69057910512821 l -9.38048222897842 18.312711752040375 a41.575443095143726,41.575443095143726 0 0,0 -0.6341425073745965,-0.331753388432576 l 9.694315638879512 -18.14852894466308" fill="#ffd714" stroke="none" /><path d="M 90.10565033884886 118.52300852407294 l -10.570485670822087 19.78878884309095 a43.43504693985497,43.43504693985497 0 0,0 -0.6564425268630848,-0.35794480543787044 l 10.909551009553812 -19.60390338589331" fill="#fff016" stroke="none" /><line stroke="#e1ed5e" stroke-width="0.3" x1="58.666819895761336" x2="56.23545636021788" y1="174.27360380694188" y2="178.64263932499728" /><path d="M 58.180547188652646 175.14741091055294 a86.0,86.0 0 0,1 -31.652253787137756,-30.449443065178592" fill="none" id="id44" stroke="none" /><text fill="#e1ed5e" style="font-size:6.75px; font-family:Arial;" text-anchor="middle"><textPath startOffset="22.20632615414155" xlink:href="#id44">August</textPath></text><path d="M 89.7882731507175 118.34994917583269 l -10.726731078020084 19.27538534957227 a43.05908520303295,43.05908520303295 0 0,0 -0.6445560251818194,-0.36599573297716853 l 11.05693587012311 -19.087886450800468" fill="#ffeb16" stroke="none" /><path d="M 89.4739219176387 118.17145234162733 l -10.779084274404017 18.60822375115593 a42.50475875167605,42.50475875167605 0 0,0 -0.6299450741766259,-0.3721826535032351 l 11.097797219609024 -18.419922525358945" fill="#ffe315" stroke="none" /><path d="M 89.1626897886671 117.98757091392108 l -23.152394844628972 38.427925008491904 a65.86355767769516,65.86355767769516 0 0,0 -0.966064082437533,-0.5934354632540118 l 23.810438126998815 -38.023701078409516" fill="#34ff60" stroke="none" /><path d="M 88.54995079064634 117.60387380957326 l -12.065798912921387 18.55055795753598 a43.129317746893065,43.129317746893065 0 0,0 -0.6188549839629746,-0.4101433382398031 l 12.383328595624324 -18.340116598204858" fill="#ffec16" stroke="none" /><path d="M 87.65650970185807 116.9893568818739 l -12.743176646626438 17.539477945787112 a42.67998703085124,42.67998703085124 0 0,0 -0.5906402711193393,-0.43694155235946663 l 13.04320188816434 -17.31752644468788" fill="#ffe615" stroke="none" /><path d="M 87.07902340077011 116.55440617244103 l -37.094446311641185 47.52555089538012 a81.28827361167839,81.28827361167839 0 0,0 -1.0956207988441367,-0.8704274249684829 l 37.90702460320268 -46.87998955640651" fill="#49edff" stroke="none" /><path d="M 86.51685102203217 116.09983520530335 l -12.79103193864742 15.273398421578017 a40.92202794395591,40.92202794395591 0 0,0 -0.5361458407552706,-0.456915116927261 l 13.052043255979747 -15.050958914427804" fill="#ffce13" stroke="none" /><path d="M 86.24171649860922 115.8653595955263 l -13.85689120315458 15.97906903080672 a42.15051018078167,42.15051018078167 0 0,0 -0.5440580053995048,-0.4800679332254531 l 14.129891561460672 -15.738177955808977" fill="#ffdf14" stroke="none" /><path d="M 85.70375840098266 115.38237550388516 l -15.061387076771865 16.205651675625905 a43.12393561073769,43.12393561073769 0 0,0 -0.5393863126180262,-0.5100234253764742 l 15.338109223780709 -15.9439936135035" fill="#ffec16" stroke="none" /><path d="M 85.44109423537348 115.13401014063109 l -15.376478518163237 15.983878567748132 a43.17928009850756,43.17928009850756 0 0,0 -0.5312080509442071,-0.5198988823231034 l 15.649336521483239 -15.71682958250246" fill="#ffed16" stroke="none" /><path d="M 85.18274418774928 114.88116024355367 l -19.258177892228947 19.341235303245377 a48.29397000775521,48.29397000775521 0 0,0 -0.5840336398455399,-0.5916229937098906 l 19.58825215713002 -19.00687181555482" fill="#cfff1d" stroke="none" /><path d="M 84.67929136418377 114.36230785411682 l -14.652003849462275 13.735434500316158 a41.083410510098446,41.083410510098446 0 0,0 -0.4792156655349826,-0.5200939586948068 l 14.886265922992987 -13.481189286820007" fill="#ffd013" stroke="none" /><path d="M 84.43433777217949 114.09645910891817 l -15.28368027425232 13.841092712053772 a41.619571532629806,41.619571532629806 0 0,0 -0.47632836663311995,-0.5351599694346599 l 15.519667490533779 -13.575958572878248" fill="#ffd714" stroke="none" /><path d="M 83.95833913139862 113.55231037782056 l -8.629194500683425 7.290113108720778 a32.29640415656981,32.29640415656981 0 0,0 -0.3551128051812851,-0.42775625008829643 l 8.753403305758248 -7.140495601518721" fill="#ff5107" stroke="none" /><path d="M 83.72743513129214 113.27417163493432 l -8.425337925650895 6.872879758646941 a31.873030641832578,31.873030641832578 0 0,0 -0.3431391103164241,-0.4281188001699157 l 8.54239494802218 -6.726833124898766" fill="#ff4b07" stroke="none" /><path d="M 83.50135304334701 112.99209946851258 l -49.49594086995897 38.976298405537754 a84.0,84.0 0 0,0 -0.8847727311277263,-1.1436880235469893 l 50.159520418304766 -38.118532387877515" fill="#4dd2ff" stroke="none" /><path d="M 83.06392112726016 112.41649034213515 l -16.712412440841412 12.252511884524353 a41.7226633682353,41.7226633682353 0 0,0 -0.41965093425149036,-0.5828584439673838 l 16.92084316746851 -11.96301983510583" fill="#ffd914" stroke="none" /><path d="M 82.85270091963577 112.12312394758628 l -18.0996755806527 12.796453216741384 a43.16635899405057,43.16635899405057 0 0,0 -0.4237273373403451,-0.6104108325169312 l 18.31726382515518 -12.48300112203744" fill="#ffec16" stroke="none" /><path d="M 82.6465618267979 111.8261652097733 l -18.239715655777243 12.430152951339187 a43.07251525307643,43.07251525307643 0 0,0 -0.4122591337151101,-0.6162714688502949 l 18.450977894903083 -12.114344568283071" fill="#ffeb16" stroke="none" /><path d="M 82.44556493220864 111.52570212397912 l -24.09312287684733 15.81880342161914 a49.82209415796662,49.82209415796662 0 0,0 -0.46452017773813187,-0.7209456314898026 l 24.361847917962503 -15.401736190207888" fill="#bcff1f" stroke="none" /><path d="M 82.24976979558568 111.22182372390057 l -17.91755958924595 11.327610569411013 a42.197964592064295,42.197964592064295 0 0,0 -0.3828668756584671,-0.6173033110286111 l 18.109891104572373 -11.017510927017138" fill="#ffdf14" stroke="none" /><path d="M 82.05923443525364 110.91462005526583 l -18.46860635201114 11.235742452293755 a42.61784746545831,42.61784746545831 0 0,0 -0.3758876374846913,-0.6300093014408564 l 18.659274865194064 -10.916171056966787" fill="#ffe515" stroke="none" /><line stroke="#e1ed5e" stroke-width="0.3" x1="26.63291911575756" x2="22.317208475507996" y1="142.92168965132927" y2="145.44649492493687" /><path d="M 25.769776987707644 143.4266507060508 a86.0,86.0 0 0,1 -11.730757126820373,-40.83630448921669" fill="none" id="id45" stroke="none" /><text fill="#e1ed5e" style="font-size:6.75px; font-family:Arial;" text-anchor="middle"><textPath startOffset="21.46611528233685" xlink:href="#id45">September</textPath></text><path d="M 81.69416730710424 110.29060199501025 l -19.328282756156753 10.865371077482813 a43.17292950769804,43.17292950769804 0 0,0 -0.35858939901091724,-0.6509439185366563 l 19.512448564619188 -10.531056640548334" fill="#ffed16" stroke="none" /><path d="M 81.51974371655577 109.97397251340807 l -18.700123822062455 10.092637144089267 a42.24984601080013,42.24984601080013 0 0,0 -0.3399050243528326,-0.6429722095226215 l 18.87108135464017 -9.769249919480519" fill="#ffe015" stroke="none" /><path d="M 81.18737489456691 109.33194174019688 l -18.68866630977439 9.270452381173943 a41.861628311081326,41.861628311081326 0 0,0 -0.3146534143671081,-0.6482792308590453 l 18.845472980756217 -8.947384194349612" fill="#ffdb14" stroke="none" /><path d="M 81.02952815118164 109.00673069616217 l -10.66561202725321 5.06377996313262 a32.80665691171348,32.80665691171348 0 0,0 -0.23780980564713966,-0.5122211648104389 l 10.751196449740176 -4.879438731043353" fill="#ff5908" stroke="none" /><path d="M 80.87730276802145 108.67885076344099 l -50.34298958381868 22.84820432406232 a76.28523348119799,76.28523348119799 0 0,0 -0.5323943366678775,-1.200408681185951 l 50.72882500521783 -21.978247306383675" fill="#43ffdc" stroke="none" /><path d="M 80.58989483394504 108.01547362559985 l -9.107442721990619 3.7609516440149315 a30.85343951130561,30.85343951130561 0 0,0 -0.19848661995929556,-0.49262751296973983 l 9.170831956207303 -3.6036247632023866" fill="#ff3b05" stroke="none" /><path d="M 80.45479744820244 107.68017299344265 l -10.182499585653558 4.001153639427754 a31.940408048063876,31.940408048063876 0 0,0 -0.1966703558443895,-0.5134442391789954 l 10.249864221091455 -3.8252858334156006" fill="#ff4c07" stroke="none" /><path d="M 80.32549172779594 107.34259656027581 l -19.00997983354638 7.094592180172099 a41.290701601344374,41.290701601344374 0 0,0 -0.24278094732565528,-0.6680288967723713 l 19.12928504187726 -6.766315486393611" fill="#ffd313" stroke="none" /><path d="M 80.20201598880116 107.00284435728193 l -19.852827350566802 7.022243270292981 a42.05817310116403,42.05817310116403 0 0,0 -0.23554413287970294,-0.6846015059130164 l 19.97076231438973 -6.679469061290668" fill="#ffdd14" stroke="none" /><path d="M 79.97269907076064 106.31721596034903 l -51.81021515363704 16.342507621675 a75.32656762239509,75.32656762239509 0 0,0 -0.3794063892121881,-1.2399220322522002 l 52.08384831535536 -15.448258616870753" fill="#41ffd1" stroke="none" /><path d="M 79.76711848015287 105.62410040840567 l -20.432856573921384 5.679687141426709 a42.20755699732834,42.20755699732834 0 0,0 -0.18855105308731196,-0.7016686112513119 l 20.52759570335047 -5.3271275969998575" fill="#ffdf14" stroke="none" /><path d="M 79.50377843672027 104.57218783832718 l -21.19917536973232 4.728999025932919 a42.72023177003275,42.72023177003275 0 0,0 -0.15392701918067683,-0.7190957886688158 l 21.277436427637436 -4.363389417847939" fill="#ffe615" stroke="none" /><path d="M 79.4281124754447 104.21870165774334 l -20.20814878480119 4.144109317951746 a41.62869165380578,41.62869165380578 0 0,0 -0.1379100413566944,-0.7032003297289713 l 20.276488759133553 -3.79564526115482" fill="#ffd814" stroke="none" /><path d="M 79.29508885075956 103.50808413554451 l -22.811485467022678 3.865006215107671 a44.13659746494734,44.13659746494734 0 0,0 -0.12046820643584207,-0.7501556364718837 l 22.87463542781981 -3.4717713489425734" fill="#fff917" stroke="none" /><path d="M 79.23777060512086 103.15116336523772 l -20.57489387070075 3.1227307326157097 a41.81051909537631,41.81051909537631 0 0,0 -0.10187023271445414,-0.7124801703395398 l 20.625598154431803 -2.768105090295769" fill="#ffda14" stroke="none" /><path d="M 79.18660465613746 102.79330883721812 l -21.286694993178447 2.856829088058705 a42.477543066444696,42.477543066444696 0 0,0 -0.09102025375676297,-0.7255209780678904 l 21.332716756182055 -2.489990355703406" fill="#ffe315" stroke="none" /><path d="M 79.10278846688536 102.07522291339032 l -11.175622909771272 1.109808775061503 a32.23059316949056,32.23059316949056 0 0,0 -0.050073148303998456,-0.552553019006479 l 11.193070654352347 -0.917274367506458" fill="#ff5007" stroke="none" /><path d="M 79.07016306316243 101.71520430193888 l -9.87120355082569 0.8089470953254744 a30.904294772716998,30.904294772716998 0 0,0 -0.0388856104736655,-0.5305632601517721 l 9.883665719963691 -0.6389106986769416" fill="#ff3c05" stroke="none" /><path d="M 79.04373962182676 101.35467743843564 l -43.80251513039008 2.8315299544416037 a64.89393914461257,64.89393914461257 0 0,0 -0.06246396739976544,-1.1153360988427417 l 43.84476544867738 -2.0771221392634245" fill="#33ff54" stroke="none" /><path d="M 79.0095281055655 100.63252640178507 l -9.812323786683047 0.29568434140760624 a30.81677784838078,30.81677784838078 0 0,0 -0.011413855540702691,-0.5303570170922846 l 9.815959704908758 -0.12673750852519286" fill="#ff3b05" stroke="none" /><line stroke="#e1ed5e" stroke-width="0.3" x1="15.007084014347285" x2="10.007500721073583" y1="101.09737516637583" y2="101.16192664675087" /><path d="M 14.007167355692545 101.11028546245083 a86.0,86.0 0 0,1 10.666146001902534,-42.60595125391555" fill="none" id="id46" stroke="none" /><text fill="#e1ed5e" style="font-size:6.75px; font-family:Arial;" text-anchor="middle"><textPath startOffset="22.20632615414155" xlink:href="#id46">October</textPath></text><path d="M 79.00175016825051 100.2711162175752 l -9.86441058188946 0.12736307582772816 a30.865232763659307,30.865232763659307 0 0,0 -0.0022865298224069137,-0.5313090046238199 l 9.86514140900137 0.0424554069997671" fill="#ff3c05" stroke="none" /><path d="M 79.00486145842228 99.54816195383935 l -9.821445934909278 -0.21136811900115102 a30.823720106664076,30.823720106664076 0 0,0 0.015981813454049296,-0.5303585829501984 l 9.816352426999583 0.3803968493763438" fill="#ff3b05" stroke="none" /><path d="M 79.01574976396665 99.18683210126434 l -22.269040302524512 -0.8629552405245471 a43.28575436781555,43.28575436781555 0 0,0 0.03526014629163776,-0.7442859592220366 l 22.250886547999375 1.2461523063695927" fill="#ffee16" stroke="none" /><path d="M 79.05617556472873 98.46500227214037 l -12.745072785145473 -0.9341014974159639 a33.7792576429983,33.7792576429983 0 0,0 0.04749285800493921,-0.5795331626583368 l 12.727105443321037 1.153348577282079" fill="#ff6809" stroke="none" /><path d="M 79.21141760316559 97.0276538004421 l -31.796801653850128 -4.546298576294918 a53.12017163962714,53.12017163962714 0 0,0 0.13721220242583287,-0.9040569758993885 l 31.713833557984994 5.092954664586398" fill="#94ff23" stroke="none" /><path d="M 79.26566170972629 96.67025291283419 l -19.89526638215147 -3.19499973218013 a41.15017736163624,41.15017736163624 0 0,0 0.11833250518961298,-0.6984051440481639 l 19.837322015441632 3.536990664544122" fill="#ffd113" stroke="none" /><path d="M 79.32604984820605 96.31383870115002 l -41.095562421242164 -7.327330802261405 a62.74368248494591,62.74368248494591 0 0,0 0.19873098189122246,-1.0616288517918517 l 40.96334571544108 8.033637731515828" fill="#30ff38" stroke="none" /><path d="M 79.46518482838121 95.60439243477599 l -15.55145327714823 -3.328887311814634 a36.903747664185474,36.903747664185474 0 0,0 0.13831105151580197,-0.6200213238735398 l 15.491847838630392 3.596086805238133" fill="#ff950d" stroke="none" /><path d="M 79.54389044137918 95.25157060432595 l -7.873823988131312 -1.8277325497530694 a29.08317452919946,29.08317452919946 0 0,0 0.11739520306505881,-0.48667890665656954 l 7.841195984805438 1.9629966880690357" fill="#ff2003" stroke="none" /><path d="M 79.71946130924805 94.55025226153421 l -7.774067163183436 -2.0890325245926302 a29.04985572209172,29.04985572209172 0 0,0 0.13392430223985635,-0.4817969707292904 l 7.736956090377219 2.222540798740863" fill="#ff1f03" stroke="none" /><path d="M 79.91906864156998 93.8553929516997 l -8.012671615788344 -2.4518144904379655 a29.379397395874108,29.379397395874108 0 0,0 0.1521356360474296,-0.48231154108189667 l 7.969280495972711 2.5893761979462764" fill="#ff2503" stroke="none" /><path d="M 80.65960295795068 91.81776055985345 l -18.613456239321124 -7.874696441220382 a41.210680275895996,41.210680275895996 0 0,0 0.282017029016631,-0.6509341856991839 l 18.475148500461813 8.193929771506165" fill="#ffd213" stroke="none" /><path d="M 80.803312248108 91.48605970444005 l -18.744869606727107 -8.313554022568372 a41.50573863725383,41.50573863725383 0 0,0 0.29527910405382934,-0.650608365054155 l 18.598988185709928 8.634984396464597" fill="#ffd614" stroke="none" /><path d="M 80.95270993114464 91.15688171328213 l -21.94202544991401 -10.187062086119846 a45.19150087925787,45.19150087925787 0 0,0 0.3336462818724864,-0.7027441600337722 l 21.76342097419977 10.563248661794152" fill="#f7ff19" stroke="none" /><path d="M 81.10775173730289 90.83032412892265 l -19.520113809752054 -9.474421154807196 a42.69791463169516,42.69791463169516 0 0,0 0.3266186882548475,-0.6584433449792558 l 19.354135108543794 9.809024088285414" fill="#ffe615" stroke="none" /><path d="M 81.26839172434947 90.50648371742162 l -9.090910621864118 -4.607437158736681 a31.191816967863453,31.191816967863453 0 0,0 0.24684694012643812,-0.4768297185212895 l 9.010254248577565 4.763239599518306" fill="#ff4106" stroke="none" /><path d="M 81.6062741919709 89.86733742301443 l -9.529077397878435 -5.2493402886616005 a31.8792871788975,31.8792871788975 0 0,0 0.268912958323137,-0.47836614674262873 l 9.437306798262867 5.412589945339014" fill="#ff4b07" stroke="none" /><line stroke="#e1ed5e" stroke-width="0.3" x1="26.266209847984243" x2="21.928928074336255" y1="57.711370442889674" y2="55.22380399835377" /><path d="M 25.398753493254645 57.213857153982495 a86.0,86.0 0 0,1 29.58750427330803,-30.492523968695096" fill="none" id="id47" stroke="none" /><text fill="#e1ed5e" style="font-size:6.75px; font-family:Arial;" text-anchor="middle"><textPath startOffset="21.46611528233685" xlink:href="#id47">November</textPath></text><path d="M 81.78341655067845 89.55222093294921 l -19.08999828748108 -10.948709732142909 a43.00686891438106,43.00686891438106 0 0,0 0.37383275484015144,-0.6390013576897295 l 18.898705858170604 11.27569050218653" fill="#ffea16" stroke="none" /><path d="M 81.96595687620814 89.24020034530311 l -9.538413092754094 -5.690981949930727 a32.10714184128663,32.10714184128663 0 0,0 0.2872583197219686,-0.4721771481333743 l 9.439038974745909 5.854326871271176" fill="#ff4e07" stroke="none" /><path d="M 82.15384107792192 88.93136811851018 l -17.121819573900993 -10.619378591902006 a41.14765264737721,41.14765264737721 0 0,0 0.3785043319395254,-0.5987029551164044 l 16.936487645715502 10.912529194732626" fill="#ffd113" stroke="none" /><path d="M 82.34701348167596 88.62581576622439 l -8.374758682438548 -5.396030188353159 a30.962616362316602,30.962616362316602 0 0,0 0.2925279649716917,-0.4455401598419808 l 8.280634082108936 5.539388412172808" fill="#ff3d05" stroke="none" /><path d="M 82.54541684631803 88.32363383020206 l -16.76178861250646 -11.212916388615627 a41.166483367916086,41.166483367916086 0 0,0 0.3990708975315443,-0.5855872993652117 l 16.566293249306174 11.499781711251254" fill="#ffd113" stroke="none" /><path d="M 82.7489923806493 88.02491185347247 l -16.66786315280854 -11.570288233207151 a41.29012646289432,41.29012646289432 0 0,0 0.41032039616704646,-0.5803691014188401 l 16.466230136837613 11.855483834957777" fill="#ffd313" stroke="none" /><path d="M 82.95767976084542 87.72973835380427 l -16.359508244039787 -11.778645380473277 a41.15862090981797,41.15862090981797 0 0,0 0.4189112431336302,-0.5713944648523527 l 16.154334388392524 12.05850228899713" fill="#ffd113" stroke="none" /><path d="M 83.17141714833178 87.43820079747576 l -10.425496756242593 -7.78217619349361 a34.009736696836086,34.009736696836086 0 0,0 0.3542260801067188,-0.4661199995060549 l 10.289994735911765 7.960480968880692" fill="#ff6b09" stroke="none" /><path d="M 83.84228863543731 86.58626213691792 l -8.509985912939678 -7.064782733094921 a32.06033522567322,32.06033522567322 0 0,0 0.35615885410449744,-0.4215797449742885 l 8.387116445348056 7.210221427698325" fill="#ff4e07" stroke="none" /><path d="M 84.07557802195018 86.31012108654704 l -8.341706377194857 -7.1711833806454495 a32.000451643554406,32.000451643554406 0 0,0 0.36268418382617706,-0.4146107184138626 l 8.217030329790836 7.313709655262255" fill="#ff4d07" stroke="none" /><path d="M 84.31358615837235 86.03803664274999 l -5.984098900251949 -5.3262505002742255 a29.01114124452116,29.01114124452116 0 0,0 0.33522561504615267,-0.37016449688565084 l 5.891529644589752 5.428467784429433" fill="#ff1f03" stroke="none" /><path d="M 84.5562425177563 85.77008943001954 l -7.29322635102817 -6.719994072755805 a30.917130176881052,30.917130176881052 0 0,0 0.36398689955325403,-0.3882758461907654 l 7.176472129504459 6.844539335824621" fill="#ff3c05" stroke="none" /><path d="M 84.80347519578584 85.50635884689758 l -14.600247813497942 -13.92494371453435 a41.176007872433566,41.176007872433566 0 0,0 0.49359393616825037,-0.5086919393532974 l 14.358389613626574 14.174199849437773" fill="#ffd113" stroke="none" /><path d="M 85.05521093208273 85.24692304244772 l -6.515151704605838 -6.431575183253697 a30.15490912417339,30.15490912417339 0 0,0 0.36783848413434583,-0.3662588687847877 l 6.4034774203041795 6.542769902688594" fill="#ff3104" stroke="none" /><path d="M 85.31137513191541 84.99185889309783 l -8.317411126936014 -8.498336703281318 a32.89121753971465,32.89121753971465 0 0,0 0.4080339670040234,-0.39252835297297795 l 8.169893916319563 8.64024814301661" fill="#ff5a08" stroke="none" /><path d="M 85.57189188830299 84.74124197986013 l -5.0332166469447275 -5.322987205537106 a28.325807983109662,28.325807983109662 0 0,0 0.3571643161461031,-0.3319453066844489 l 4.9408444470037685 5.4088370982962015" fill="#ff1402" stroke="none" /><path d="M 86.10567301691215 84.25364557470407 l -13.339637660206007 -15.11772846272458 a41.16163799839337,41.16163799839337 0 0,0 0.5353094569151351,-0.4642150860098199 l 13.0774344046441 15.34510854215408" fill="#ffd113" stroke="none" /><path d="M 86.37877921826538 84.01681056812374 l -5.195946229981754 -6.096941985038861 a29.010652831935186,29.010652831935186 0 0,0 0.3828611323936513,-0.32063518788295603 l 5.090227560628992 6.18547833031563" fill="#ff1f03" stroke="none" /><path d="M 86.65592168130627 83.78471172551755 l -5.142731841471612 -6.249279818074794 a29.093280486791677,29.093280486791677 0 0,0 0.38942963187842267,-0.31489167929676604 l 5.034398811028688 6.336877594635694" fill="#ff2003" stroke="none" /><path d="M 86.93701828274178 83.55741782278169 l -12.959827381335815 -16.312740179269266 a41.834169479736104,41.834169479736104 0 0,0 0.5676845896984732,-0.4430868267234114 l 12.677110236477917 16.5334053952159" fill="#ffda14" stroke="none" /><path d="M 87.22198572758235 83.33499621200491 l -12.969706612045325 -16.915007700803397 a42.31503636217331,42.31503636217331 0 0,0 0.5818395001633871,-0.4382294487252018 l 12.676620958123548 17.135753739034453" fill="#ffe115" stroke="none" /><path d="M 87.51073957382395 83.11751280151077 l -12.12957647699302 -16.396280693029755 a41.395211351585516,41.395211351585516 0 0,0 0.5764868304902994,-0.4188421991862213 l 11.84554433014894 16.60264212703264" fill="#ffd413" stroke="none" /><path d="M 87.80319425747018 82.90503203632743 l -9.599144196203723 -13.45410150631288 a37.52744434695462,37.52744434695462 0 0,0 0.529081318197165,-0.3706552747567136 l 9.366131738422897 13.617341623833536" fill="#ff9e0e" stroke="none" /><path d="M 88.39885842347998 82.49532879139004 l -11.261310237516378 -16.991908234690204 a41.384848631317425,41.384848631317425 0 0,0 0.5971892270578663,-0.38842848517749806 l 10.967153984674225 17.18323564402724" fill="#ffd413" stroke="none" /><path d="M 88.70189139769569 82.29822771554957 l -8.65920830613575 -13.567167655617483 a37.09502801130472,37.09502801130472 0 0,0 0.5412002916609027,-0.33889957298824863 l 8.424388862102605 13.714211569928661" fill="#ff980e" stroke="none" /><path d="M 89.00827224532344 82.1063720568725 l -8.665321872458739 -14.106430677129175 a37.55533719384667,37.55533719384667 0 0,0 0.5537408100572453,-0.3336226422112819 l 8.421218996183844 14.253499928799076" fill="#ff9f0e" stroke="none" /><line stroke="#e1ed5e" stroke-width="0.3" x1="56.762969772571076" x2="54.21961505331055" y1="26.818313649435495" y2="22.513508569990535" /><path d="M 56.25429882871897 25.957352633546506 a86.0,86.0 0 0,1 42.265352541879196,-11.944610805530505" fill="none" id="id48" stroke="none" /><text fill="#e1ed5e" style="font-size:6.75px; font-family:Arial;" text-anchor="middle"><textPath startOffset="22.20632615414155" xlink:href="#id48">December</textPath></text><path d="M 89.3179101791058 81.91981866633112 l -12.207557495322066 -20.66214166491023 a44.998928271537736,44.998928271537736 0 0,0 0.670276752328366,-0.38826755831933846 l 11.85008401052838 20.869213380619616" fill="#f9ff18" stroke="none" /><path d="M 90.58718382345135 81.22770947309562 l -7.289826282709319 -14.538341586934065 a37.26360794321039,37.26360794321039 0 0,0 0.5758624510681092,-0.28257320379595374 l 7.038492564630784 14.661669950864848" fill="#ff9a0e" stroke="none" /><path d="M 90.91171255644093 81.06846463323043 l -7.242063799817252 -15.085723004041649 a37.73399314674459,37.73399314674459 0 0,0 0.5879707015374324,-0.2760601281981876 l 6.981314886980211 15.208148114879844" fill="#ffa10e" stroke="none" /><path d="M 91.56875222667455 80.76684994638697 l -9.095563902072893 -20.748571273667558 a43.6546351238583,43.6546351238583 0 0,0 0.6908163952093244,-0.2957715281921378 l 8.737063749073261 20.90206232982248" fill="#fff316" stroke="none" /><path d="M 91.90106846888425 80.62456947434976 l -8.13899503768556 -19.471276216550926 a42.10388205342069,42.10388205342069 0 0,0 0.6710880226775336,-0.2737536544669171 l 7.802623145419647 19.60849075720142" fill="#ffde14" stroke="none" /><path d="M 92.23578459929587 80.48803036053334 l -7.795361092183364 -19.59024075318251 a42.084240259615214,42.084240259615214 0 0,0 0.6753855931280341,-0.2620391173889372 l 7.456992334055653 19.721522574462" fill="#ffde14" stroke="none" /><path d="M 92.57280143429618 80.3572730644239 l -5.8613254192961035 -15.501459086259716 a37.57257884198686,37.57257884198686 0 0,0 0.6069182290240738,-0.22353310574319765 l 5.593624864499461 15.600055459809235" fill="#ff9f0e" stroke="none" /><path d="M 92.91201910852362 80.23233633223022 l -5.596381598994634 -15.607743714215715 a37.580746390021346,37.580746390021346 0 0,0 0.6108088116022863,-0.21309920082263326 l 5.326890783329063 15.701763768210558" fill="#ff9f0e" stroke="none" /><path d="M 93.25333710446033 80.11325718540243 l -6.49572991668732 -19.147082379297537 a41.21893347311259,41.21893347311259 0 0,0 0.6738651385793762,-0.22216274142038173 l 6.165181955865535 19.25605884497715" fill="#ffd213" stroke="none" /><path d="M 93.59665428221793 80.00007090966166 l -5.00676233620973 -15.637901826586836 a37.41985513423478,37.41985513423478 0 0,0 0.6151372068277802,-0.19112612449587943 l 4.7368397566712215 15.721768085965241" fill="#ff9d0e" stroke="none" /><path d="M 93.94186890950719 79.89281104454417 l -6.484927222365061 -21.52374306114041 a43.47945276116306,43.47945276116306 0 0,0 0.718466449340761,-0.2097400582098244 l 6.1134705553008795 21.632181448268934" fill="#fff116" stroke="none" /><path d="M 94.28887869178378 79.79150937346287 l -3.629728073482506 -12.843594417146061 a34.3466416539732,34.3466416539732 0 0,0 0.5703212591817557,-0.1558903441447532 l 3.4081089250770273 12.904171302117112" fill="#ff700a" stroke="none" /><path d="M 94.63758080256005 79.69619591428918 l -4.337569146246746 -16.42339975876235 a37.986540723013235,37.986540723013235 0 0,0 0.6336355983274682,-0.16152782249878797 l 4.054224659234278 16.495630577430003" fill="#ffa50f" stroke="none" /><path d="M 94.98787191387505 79.60689891045804 l -4.828029290528911 -19.644048933543377 a41.22865604368347,41.22865604368347 0 0,0 0.6906316483112767,-0.16345019774164926 l 4.4891739552551 19.7242450434259" fill="#ffd213" stroke="none" /><path d="M 95.33964822691252 79.52364482259891 l -3.8139759663919066 -16.757603358806843 a38.186147997829806,38.186147997829806 0 0,0 0.6421769524754312,-0.14035500881647375 l 3.5249562897629545 16.820771865719184" fill="#ffa80f" stroke="none" /><path d="M 95.692805502759 79.44645832069477 l -3.4391033352127662 -16.411089349462 a37.76756647180194,37.76756647180194 0 0,0 0.6374330566804456,-0.1278630745112427 l 3.156103869065184 16.467856380050453" fill="#ffa20e" stroke="none" /><path d="M 96.04723909329186 79.375362276772 l -3.4607930893014722 -18.057657770486607 a39.38630177504362,39.38630177504362 0 0,0 0.6669505272818708,-0.12188094582027877 l 3.1494474409167084 18.114554197657622" fill="#ffb911" stroke="none" /><path d="M 96.40284397218896 79.31037775812273 l -3.903777331440734 -22.45320405327589 a43.79003838767095,43.79003838767095 0 0,0 0.7437441788066318,-0.12272416214912504 l 3.516703946495216 22.51707447836464" fill="#fff517" stroke="none" /><path d="M 96.75951476605007 79.25152402106235 l -2.4957582761932757 -15.980069929129414 a37.17378880513324,37.17378880513324 0 0,0 0.6330714281766611,-0.09329827212694024 l 2.2203178675879656 16.020662685417324" fill="#ff990e" stroke="none" /><path d="M 97.11714578562143 79.19881850522333 l -2.772281860963925 -20.00334871495351 a41.19454150330385,41.19454150330385 0 0,0 0.7032207807050573,-0.09129823990706315 l 2.42754635175101 20.04810527802471" fill="#ffd213" stroke="none" /><path d="M 98.19473922651362 79.07773832637324 l -1.90260567877164 -22.050450803355268 a43.13238100612054,43.13238100612054 0 0,0 0.7402539652746456,-0.05745795475397978 l 1.5227615241346604 22.079934020297713" fill="#ffec16" stroke="none" /><path d="M 98.91598698831166 79.02799685794201 l -1.534380325053276 -29.685094783143608 a50.72472330007683,50.72472330007683 0 0,0 0.8723666116351241,-0.037565941368926804 l 1.0231728810288276 29.707108451036728" fill="#b0ff20" stroke="none" /><path d="M 99.27714615592234 79.0124445844662 l -0.8879964094867056 -25.782354213910732 a46.797641877404644,46.797641877404644 0 0,0 0.8053057766753693,-0.02079867232805869 l 0.44406399761645726 25.79381967838115" fill="#e2ff1b" stroke="none" /><path d="M 99.63851952072746 79.00311137660856 l -0.3565982813154043 -20.713302170951064 a41.71637152494044,41.71637152494044 0 0,0 0.718078760587935,-0.0061807305979357605 l 5.074047615593137e-15 20.716371524940442" fill="#ffd914" stroke="none" /></svg>