<?xml version="1.0" encoding="utf-8" ?>
<svg baseProfile="full" height="200mm" version="1.1" viewBox="0,0,200,200" width="200mm" xmlns="http://www.w3.org/2000/svg" xmlns:ev="http://www.w3.org/2001/xml-events" xmlns:xlink="http://www.w3.org/1999/xlink"><defs /><rect fill="#1a1a1a" height="200" width="200" x="0" y="0" /><text alignment-baseline="middle" fill="#e1ed5e" style="dominant-baseline: central; font-size:9.0px; font-family:Arial;" text-anchor="middle" x="100.0" y="100.0">2019</text><line stroke="#e1ed5e" stroke-width="0.3" x1="100.0" x2="100.0" y1="15.0" y2="10.0" /><path d="M 100.0 14.0 a86.0,86.0 0 0,1 42.46469731375804,11.215312516191453" fill="none" id="id37" stroke="none" /><text fill="#e1ed5e" style="font-size:6.75px; font-family:Arial;" text-anchor="middle"><textPath startOffset="22.20632615414155" xlink:href="#id37">January</textPath></text><path d="M 100.0 79.0 l 0.0 -15.181612179037465 a36.181612179037465,36.181612179037465 0 0,0 0.6228069767300577,0.005360696275895517 l -0.2613264974575294 15.179362859370128" fill="#ff6509" stroke="none" /><path d="M 101.80526077348638 79.07773832637324 l 1.2832878710136137 -14.872801223108638 a35.92806229830223,35.92806229830223 0 0,0 0.6156955644521573,0.05846771265091588 l -1.5391085625560152 14.848507965942545" fill="#ff6108" stroke="none" /><path d="M 103.2404852339499 79.25152402106235 l 1.7205671668375937 -11.01660521617748 a32.15015434264066,32.15015434264066 0 0,0 0.5460486224832064,0.09010270143486941 l -1.9099449954596752 10.985356251802985" fill="#ff2403" stroke="none" /><path d="M 103.95276090670814 79.375362276772 l 2.893274564616851 -15.096470830751171 a36.371222113091065,36.371222113091065 0 0,0 0.6138658497910264,0.12313571451799686 l -3.1527068238750027 15.044431160155964" fill="#ff6809" stroke="none" /><path d="M 104.66035177308747 79.52364482259891 l 3.4606724717692576 -15.205281089254758 a36.59412796408026,36.59412796408026 0 0,0 0.612997495905989,0.14507670212618254 l -3.72189365463777 15.143458474987707" fill="#ff6b09" stroke="none" /><path d="M 105.01212808612495 79.60689891045804 l 3.722280447179845 -15.145032237524434 a36.59574856180721,36.59574856180721 0 0,0 0.6104364491961355,0.1556138428346118 l -3.982425785061006 15.078715398520954" fill="#ff6b09" stroke="none" /><path d="M 105.36241919743992 79.69619591428918 l 3.994614811439359 -15.124866882481738 a36.643482531219306,36.643482531219306 0 0,0 0.6084599859442976,0.16631509886770446 l -4.2543726866073674 15.05386524278774" fill="#ff6c0a" stroke="none" /><path d="M 105.71112130821622 79.79150937346287 l 2.9638211408121924 -10.487319128849473 a31.898077732566296,31.898077732566296 0 0,0 0.5270926194770965,0.1538727894566695 l -3.143903978012716 10.434748010474099" fill="#ff2003" stroke="none" /><path d="M 106.0581310904928 79.89281104454417 l 4.308523790989309 -14.300169588679521 a35.935133997474395,35.935133997474395 0 0,0 0.5907301852156439,0.18354274407369775 l -4.554039348915671 14.223886709723303" fill="#ff6109" stroke="none" /><path d="M 106.40334571778207 80.00007090966166 l 4.512081127360961 -14.092836241290753 a35.79753051774941,35.79753051774941 0 0,0 0.5852336737164123,0.19294234095335197 l -4.7539976233197905 14.013080176078166" fill="#ff5f08" stroke="none" /><path d="M 106.74666289553966 80.11325718540242 l 5.119682466387976 -15.090987956249206 a36.935779430335344,36.935779430335344 0 0,0 0.6003260101677629,0.20944195723732673 l -5.378690480619013 15.000625145839672" fill="#ff710a" stroke="none" /><path d="M 107.4271985657038 80.35727306442388 l 5.280376564121352 -13.965022484385766 a35.929977550161354,35.929977550161354 0 0,0 0.5766193959803998,0.22371936732059303 l -5.519979125101418 13.872060413174626" fill="#ff6108" stroke="none" /><path d="M 107.76421540070413 80.48803036053334 l 5.581966476904433 -14.027838590877122 a36.09763575136804,36.09763575136804 0 0,0 0.5753552836050376,0.23470186649332084 l -5.822605630097858 13.929675838200223" fill="#ff6409" stroke="none" /><path d="M 108.09893153111575 80.62456947434976 l 5.917606426506062 -14.15695042665881 a36.34396660586502,36.34396660586502 0 0,0 0.5751281147359683,0.24623984401843058 l -6.1604182990323455 14.05299105467759" fill="#ff6809" stroke="none" /><path d="M 108.43124777332544 80.76684994638697 l 6.150126190764079 -14.02951295653441 a36.31833169636593,36.31833169636593 0 0,0 0.5704016771864857,0.25592260574377224 l -6.390709986417345 13.921570020274105" fill="#ff6709" stroke="none" /><path d="M 109.08828744355905 81.06846463323043 l 14.190454819793676 -29.55970516556032 a53.78940648239091,53.78940648239091 0 0,0 0.8312479968567232,0.40788978198717957 l -14.69717408366083 29.311060223438307" fill="#9fff22" stroke="none" /><path d="M 109.41281617654863 81.2277094730956 l 6.689676702209241 -13.34144343515502 a35.92467377578224,35.92467377578224 0 0,0 0.5503993821025331,0.2819359411409003 l -6.9183365719005305 13.224314968701618" fill="#ff6108" stroke="none" /><path d="M 109.73455568895987 81.39251694778311 l 6.958083389712894 -13.300290520381074 a36.0104181282447,36.0104181282447 0 0,0 0.546766676037025,0.29206382260985514 l -7.18599511227823 13.178547971269465" fill="#ff6209" stroke="none" /><path d="M 110.05341064243156 81.56283822128135 l 7.183808668263109 -13.174538205483438 a36.00585098919601,36.00585098919601 0 0,0 0.5415895704737551,0.30139400960205825 l -7.409522327808899 13.0489287983212" fill="#ff6209" stroke="none" /><path d="M 110.36928655335952 81.73862282372117 l 7.405230284125386 -13.04137006916868 a35.9971586922969,35.9971586922969 0 0,0 0.5361918505197419,0.31059692861023047 l -7.628618867110456 12.9119689831684" fill="#ff6209" stroke="none" /><line stroke="#e1ed5e" stroke-width="0.3" x1="143.23703022742887" x2="145.7803849466894" y1="26.81831364943548" y2="22.513508569990506" /><path d="M 143.74570117128098 25.957352633546492 a86.0,86.0 0 0,1 28.547481713284135,27.462654790039103" fill="none" id="id38" stroke="none" /><text fill="#e1ed5e" style="font-size:6.75px; font-family:Arial;" text-anchor="middle"><textPath startOffset="19.985693538727396" xlink:href="#id38">February</textPath></text><path d="M 110.99172775467656 82.1063720568725 l 8.59381302014995 -13.990020152195175 a37.418717552967586,37.418717552967586 0 0,0 0.5459227810010039,0.3418567953797764 l -8.833354953523218 13.840019015492455" fill="#ff780b" stroke="none" /><path d="M 112.19680574252982 82.90503203632743 l 8.672361854996069 -12.155129073145634 a35.9317454749544,35.9317454749544 0 0,0 0.5004003455111415,0.3635621320424186 l -8.880307516860999 12.00404770628654" fill="#ff6109" stroke="none" /><path d="M 112.48926042617603 83.11751280151076 l 8.876627504668635 -11.99907321167214 a35.92555773817875,35.92555773817875 0 0,0 0.4939829988225906,0.37205775337160535 l -9.081856657249608 11.844498868794687" fill="#ff6108" stroke="none" /><path d="M 112.77801427241765 83.33499621200491 l 9.08580104218006 -11.849643110177263 a35.93204012908657,35.93204012908657 0 0,0 0.4875934125473626,0.3805743925717708 l -9.288427009886854 11.691490328382267" fill="#ff6109" stroke="none" /><path d="M 113.06298171725822 83.55741782278167 l 9.418012081783887 -11.85460111271359 a36.140360600533185,36.140360600533185 0 0,0 0.48375869235541163,0.39116588605604147 l -9.62067417270379 11.69072912939342" fill="#ff6409" stroke="none" /><path d="M 113.34407831869373 83.78471172551755 l 9.818204727302104 -11.930761809757934 a36.45122070997615,36.45122070997615 0 0,0 0.48105624230522004,0.4028707684937098 l -10.022118506566443 11.759989883870405" fill="#ff6909" stroke="none" /><path d="M 113.6212207817346 84.01681056812373 l 8.509392780630852 -9.984952078997377 a34.11903325382349,34.11903325382349 0 0,0 0.44371997932364127,0.38478959358017817 l -8.680006558601258 9.836997491997527" fill="#ff4406" stroke="none" /><path d="M 113.89432698308785 84.25364557470407 l 8.683223289276453 -9.840642992881737 a34.12389504700435,34.12389504700435 0 0,0 0.4370929918129423,0.39242640373828636 l -8.851327268685385 9.689717580374152" fill="#ff4406" stroke="none" /><path d="M 114.16331599549186 84.49514656593476 l 7.741831082311998 -8.475130843705337 a32.478841027080115,32.478841027080115 0 0,0 0.4095305260691093,0.38061399173215377 l -7.886569492175953 8.340612265898542" fill="#ff2a04" stroke="none" /><path d="M 114.42810811169701 84.74124197986012 l 6.667761790668003 -7.051635800902724 a30.704875824330014,30.704875824330014 0 0,0 0.38091117404942526,0.3664362476400194 l -6.788156208329846 6.935816466500403" fill="#ff0c01" stroke="none" /><path d="M 114.68862486808459 84.99185889309783 l 7.5175380437185275 -7.681064275919889 a31.747656798091764,31.747656798091764 0 0,0 0.3872672904878876,0.38560424166939294 l -7.648641134373738 7.550524183600377" fill="#ff1e03" stroke="none" /><path d="M 115.19652480421416 85.50635884689758 l 24.54312318404194 -23.40793206268103 a54.916016556756006,54.916016556756006 0 0,0 0.6465254209543422,0.6896682413927456 l -24.942415926966742 22.98199440441023" fill="#91ff24" stroke="none" /><path d="M 115.4437574822437 85.77008943001954 l 10.935445788430307 -10.075942709612239 a35.86972078013189,35.86972078013189 0 0,0 0.41447694555362563,0.4576757954502799 l -11.10726637459997 9.88621412689241" fill="#ff6008" stroke="none" /><path d="M 115.9244219780498 86.31012108654704 l 9.981307933105827 -8.580713145535487 a34.16264206538516,34.16264206538516 0 0,0 0.37951341948061457,0.4492241839704917 l -10.127531966073558 8.40763001193589" fill="#ff4506" stroke="none" /><path d="M 116.15771136456269 86.58626213691792 l 11.484172134525123 -9.53387958921501 a35.92585239231093,35.92585239231093 0 0,0 0.3909100688134953,0.47920952263852246 l -11.646580695415027 9.334785896968388" fill="#ff6108" stroke="none" /><path d="M 116.38621287248628 86.86637796730983 l 10.234772920144898 -8.203215725904348 a34.11652869370001,34.11652869370001 0 0,0 0.36333440126880695,0.46139779242524837 l -10.374461402007668 8.025825539526062" fill="#ff4406" stroke="none" /><path d="M 116.82858285166822 87.43820079747576 l 15.546545660800628 -11.604814654045146 a40.40017538936439,40.40017538936439 0 0,0 0.41119180674828726,0.560865162298017 l -15.744000080062543 11.335487048075636" fill="#ffa60f" stroke="none" /><path d="M 117.2510076193507 88.02491185347247 l 10.771895139331477 -7.477499091354586 a34.112845517047845,34.112845517047845 0 0,0 0.3306924168425223,0.4852503164154184 l -10.899012021842733 7.290970751668762" fill="#ff4406" stroke="none" /><path d="M 117.45458315368197 88.32363383020206 l 10.673574337081062 -7.140162626801369 a33.84161638838221,33.84161638838221 0 0,0 0.3197281217324485,0.4869678646841053 l -10.794899094171436 6.95537669813959" fill="#ff4006" stroke="none" /><path d="M 117.65298651832404 88.62581576622439 l 12.551280845279 -8.087049778000726 a35.93100883962397,35.93100883962397 0 0,0 0.33051806413609414,0.5228002033785122 l -12.68862650566105 7.869801926908008" fill="#ff6109" stroke="none" /><line stroke="#e1ed5e" stroke-width="0.3" x1="172.23445277983987" x2="176.4835382374775" y1="55.19839476539836" y2="52.563006222186495" /><path d="M 173.08426987136738 54.67131705675599 a86.0,86.0 0 0,1 12.851231095245387,41.99856678651699" fill="none" id="id39" stroke="none" /><text fill="#e1ed5e" style="font-size:6.75px; font-family:Arial;" text-anchor="middle"><textPath startOffset="22.20632615414155" xlink:href="#id39">March</textPath></text><path d="M 118.03404312379186 89.2402003453031 l 10.270826580534749 -6.127967840383711 a32.96001122491932,32.96001122491932 0 0,0 0.28650148468849707,0.48972390815340633 l -10.374787739693573 5.950264519876409" fill="#ff3104" stroke="none" /><path d="M 118.3937258080291 89.86733742301442 l 10.351793772415423 -5.702555015615153 a32.81857724147608,32.81857724147608 0 0,0 0.26831828131117424,0.4971530247850533 l -10.448420152945063 5.523521007497641" fill="#ff2f04" stroke="none" /><path d="M 119.04729006885535 91.15688171328212 l 13.476351925382788 -6.256689204542574 a35.85793461484496,35.85793461484496 0 0,0 0.255099635711316,0.5620782325517774 l -13.582053878057451 6.023788963148734" fill="#ff6008" stroke="none" /><path d="M 119.196687751892 91.48605970444005 l 14.253008686391434 -6.321364735230111 a36.59191805808896,36.59191805808896 0 0,0 0.2504094556963217,0.5779795486230973 l -14.359708851930437 6.075086042020411" fill="#ff6b09" stroke="none" /><path d="M 119.61058180528143 92.48833698450437 l 12.089385747114422 -4.630734197401658 a33.9459239511716,33.9459239511716 0 0,0 0.20431471554766045,0.5474618587820771 l -12.167305051163707 4.421949201590248" fill="#ff4106" stroke="none" /><path d="M 119.7369772167798 92.82701384747503 l 11.969021401841214 -4.349887210777735 a33.73495159253543,33.73495159253543 0 0,0 0.19364973731001692,0.5474738845294921 l -12.04212421996104 4.143215699821629" fill="#ff3e05" stroke="none" /><path d="M 120.18372546131832 94.20196356495316 l 60.551176383954946 -17.394109305140535 a84.0,84.0 0 0,0 0.3872529177345476,1.3931547863241924 l -60.84161607225586 16.349243215397394" fill="#4dd2ff" stroke="none" /><path d="M 120.37134235888165 94.90015583598534 l 10.449352438400672 -2.6159331138763218 a31.771818436929983,31.771818436929983 0 0,0 0.1282480037866773,0.5316707721796743 l -10.492833242448167 2.4356771100372416" fill="#ff1e03" stroke="none" /><path d="M 120.45610955862082 95.25157060432595 l 10.466570663177594 -2.4295808382580333 a31.744857583836115,31.744857583836115 0 0,0 0.11897611788899226,0.5333466076240366 l -10.506841168068624 2.249056061084033" fill="#ff1e03" stroke="none" /><path d="M 120.53481517161879 95.60439243477599 l 10.129106599666883 -2.168199578440443 a31.358566016556757,31.358566016556757 0 0,0 0.10844195920087632,0.5288015054414045 l -10.164927854782757 1.9935224168356267" fill="#ff1702" stroke="none" /><path d="M 120.78858239683441 97.02765380044208 l 10.879076156233099 -1.5554875291835477 a31.98971516767223,31.98971516767223 0 0,0 0.07324730925056683,0.54577753272156 l -10.904239464541503 1.3679916543973232" fill="#ff2203" stroke="none" /><path d="M 120.87857604477298 97.74499172005257 l 10.836382309305112 -1.1703926445825088 a31.89940367616108,31.89940367616108 0 0,0 0.05426373277787404,0.5464283837262877 l -10.854923167765214 0.9836887301517862" fill="#ff2003" stroke="none" /><line stroke="#e1ed5e" stroke-width="0.3" x1="184.98032266829074" x2="189.97916517819016" y1="98.17113171792111" y2="98.06355123074" /><path d="M 185.9800911702706 98.14961562048488 a86.0,86.0 0 0,1 -9.607161424134198,41.387399972396054" fill="none" id="id40" stroke="none" /><text fill="#e1ed5e" style="font-size:6.75px; font-family:Arial;" text-anchor="middle"><textPath startOffset="21.466115282336823" xlink:href="#id40">April</textPath></text><path d="M 120.99824983174949 100.27111621757518 l 10.931788447205237 0.14114438864600648 a31.93269959309667,31.93269959309667 0 0,0 -0.011827168368266373,0.5495620401076187 l -10.927739216151963 -0.32929624454374007" fill="#ff2103" stroke="none" /><path d="M 120.9764740272857 100.99374915477107 l 10.956653716525205 0.5190655662983726 a31.968942051354006,31.968942051354006 0 0,0 -0.030771856053475197,0.549452161198453 l -10.9460955095842 -0.707589443832249" fill="#ff2103" stroke="none" /><path d="M 120.92983693683757 101.71520430193887 l 14.868201406975574 1.218452064022212 a35.91804405780833,35.91804405780833 0 0,0 -0.055801937539228186,0.6157697308449248 l -14.845024873159272 -1.4742031834157074" fill="#ff6108" stroke="none" /><path d="M 120.8583938346157 102.4346265915055 l 11.156035995296737 1.302151167788729 a32.2317735372527,32.2317735372527 0 0,0 -0.06906576968922623,0.5505221388400912 l -11.131968716360664 -1.4939910609162153" fill="#ff2603" stroke="none" /><path d="M 120.76222939487914 103.15116336523771 l 8.976816580447643 1.3624459592832503 a30.079619755858005,30.079619755858005 0 0,0 -0.08210052542311003,0.5112400501807776 l -8.952034300663245 -1.5167652391572328" fill="#ff0200" stroke="none" /><path d="M 120.64145759157962 103.86396538481128 l 9.076941232621037 1.6991526188112522 a30.234607829381225,30.234607829381225 0 0,0 -0.10016303300688391,0.5107291473789061 l -9.046348266638487 -1.8551454932581033" fill="#ff0500" stroke="none" /><path d="M 120.5718875245553 104.21870165774334 l 9.286647079100849 1.904423859051163 a30.479907394415605,30.479907394415605 0 0,0 -0.109823404408972,0.5130583833048019 l -9.252489635967434 -2.063996061772134" fill="#ff0901" stroke="none" /><path d="M 120.41448212921028 104.9243191809786 l 8.842504147183755 2.1329619093082637 a30.096120387259717,30.096120387259717 0 0,0 -0.12581423112453116,0.5025653124741165 l -8.804478601764162 -2.2848550611797758" fill="#ff0200" stroke="none" /><path d="M 120.32669344350535 105.2749913415812 l 9.284766966558086 2.4094949576189895 a30.592317945839763,30.592317945839763 0 0,0 -0.13666305693634279,0.5085740747651928 l -9.241915833279966 -2.5689599655597304" fill="#ff0a01" stroke="none" /><path d="M 120.23288151984713 105.62410040840565 l 8.691735892414755 2.416027362900966 a30.021278237687667,30.021278237687667 0 0,0 -0.14268307705773023,0.49669850949912175 l -8.648860178470924 -2.56528334790467" fill="#ff0100" stroke="none" /><path d="M 120.02730092923936 106.31721596034902 l 8.771463236365117 2.766784588105997 a30.197481408727374,30.197481408727374 0 0,0 -0.16063298443560314,0.494377491724788 l -8.722538000913266 -2.9173609798085804" fill="#ff0400" stroke="none" /><path d="M 119.9155931802556 106.66101706037122 l 8.549146313410132 2.8593679801458856 a30.014648519713766,30.014648519713766 0 0,0 -0.16809513675878687,0.4885631510104042 l -8.498660345708114 -3.00610383424559" fill="#ff0100" stroke="none" /><path d="M 119.79798401119884 107.00284435728193 l 8.494910201409652 3.004777351871192 a30.010670688929423,30.010670688929423 0 0,0 -0.17645665433544486,0.48553292761368094 l -8.441929286068982 -3.150558076491004" fill="#ff0100" stroke="none" /><line stroke="#e1ed5e" stroke-width="0.3" x1="174.80103733775053" x2="179.2010983576182" y1="140.37084112569926" y2="142.7455964860345" /><path d="M 175.68104954172406 140.8457921977663 a86.0,86.0 0 0,1 -30.038265399797805,32.042727171017184" fill="none" id="id41" stroke="none" /><text fill="#e1ed5e" style="font-size:6.75px; font-family:Arial;" text-anchor="middle"><textPath startOffset="22.206326154141568" xlink:href="#id41">May</textPath></text><path d="M 118.30583269289576 110.29060199501025 l 7.8153602394147 4.393395428696143 a29.965588606706888,29.965588606706888 0 0,0 -0.2566310140492968,0.4474578044874982 l -7.738577229213023 -4.527273079041957" fill="#ff0000" stroke="none" /><path d="M 114.81725581225074 114.88116024355365 l 6.647182706007952 6.675850931486167 a30.42082924091483,30.42082924091483 0 0,0 -0.37424869919800846,0.3662811210750156 l -6.531284054434148 -6.789282155483754" fill="#ff0801" stroke="none" /><path d="M 114.29624159901734 115.38237550388516 l 6.700698786226668 7.209773572604625 a30.842773958187173,30.842773958187173 0 0,0 -0.3919976316729444,0.35808054235909526 l -6.5756016050868595 -7.324046881550303" fill="#ff0f01" stroke="none" /><path d="M 112.92097659922987 116.55440617244103 l 6.185643336454668 7.925070635576197 a31.053304335625086,31.053304335625086 0 0,0 -0.4242048047256796,0.3252621552428111 l -6.048309803235495 -8.030372132646379" fill="#ff1202" stroke="none" /><path d="M 112.63410532772338 116.77436683061366 l 5.627645681688034 7.471854208007034 a30.35409007997755,30.35409007997755 0 0,0 -0.42006451364334474,0.31075368486914484 l -5.498196197626125 -7.567617841615948" fill="#ff0701" stroke="none" /><path d="M 112.34349029814194 116.9893568818739 l 5.614582131123409 7.727809336278771 a30.552097656798093,30.552097656798093 0 0,0 -0.42812606748989557,0.3054565817019306 l -5.48072873578463 -7.8233101798249205" fill="#ff0a01" stroke="none" /><path d="M 111.45004920935366 117.60387380957326 l 5.838448692537136 8.976320725602664 a31.708025817314436,31.708025817314436 0 0,0 -0.46009583274768856,0.29365492914046726 l -5.6830710577425165 -9.075490083566939" fill="#ff1d02" stroke="none" /><line stroke="#e1ed5e" stroke-width="0.3" x1="143.8653032363475" x2="146.44561519142675" y1="172.8068346515853" y2="177.08958963109032" /><path d="M 144.38136562736335 173.6633856474863 a86.0,86.0 0 0,1 -40.68145358897372,12.25698825130547" fill="none" id="id42" stroke="none" /><text fill="#e1ed5e" style="font-size:6.75px; font-family:Arial;" text-anchor="middle"><textPath startOffset="21.466115282336833" xlink:href="#id42">June</textPath></text><path d="M 108.2653958097858 119.30500536409082 l 5.855824759695727 13.677110086278065 a35.87797109583275,35.87797109583275 0 0,0 -0.5698251112278748,0.2381869427074366 l -5.619528188970391 -13.775882072005475" fill="#ff6008" stroke="none" /><path d="M 107.93186726928326 119.44442032107085 l 3.7176941237094527 9.113668284203886 a30.842773958187173,30.842773958187173 0 0,0 -0.493306558521898,0.1962968603229541 l -3.5602664891456883 -9.176311988932909" fill="#ff0f01" stroke="none" /><path d="M 106.2309692047433 120.05430185196036 l 2.9229688988660434 9.407541375285401 a30.851171600954117,30.851171600954117 0 0,0 -0.5084934551870764,0.15320490681244864 l -2.7606004692387214 -9.456461651203576" fill="#ff0f01" stroke="none" /><path d="M 105.53697534728816 120.25689768951611 l 4.327573141153252 15.832327374759592 a37.413119124456294,37.413119124456294 0 0,0 -0.6226782237252103,0.16445497832013517 l -4.054404474616544 -15.90447370238331" fill="#ff780b" stroke="none" /><path d="M 103.06178313531738 120.77559828337769 l 1.4965447791546023 10.15474047987377 a31.264424021327347,31.264424021327347 0 0,0 -0.5330903026213801,0.073881458413423 l -1.3215258853463916 -10.178996503779796" fill="#ff1602" stroke="none" /><path d="M 102.70371172650421 120.8252237178851 l 1.2914614607181527 9.947426561357682 a31.030910621579906,31.030910621579906 0 0,0 -0.5302925171346988,0.06421103877293557 l -1.1200415205320735 -9.96818312885597" fill="#ff1202" stroke="none" /><path d="M 102.34483914955558 120.86867818915974 l 1.36452727499184 12.144065654794595 a33.220485477760626,33.220485477760626 0 0,0 -0.5688097001304606,0.058959451141068805 l -1.1552849782557768 -12.165754474391422" fill="#ff3605" stroke="none" /><path d="M 101.98527174616119 120.90594882070398 l 0.9471893899339423 9.974399196363237 a31.01927178335906,31.01927178335906 0 0,0 -0.5319889043950584,0.045902241163773366 l -0.7753561677973422 -9.989225689805675" fill="#ff1202" stroke="none" /><path d="M 101.26447882468166 120.96189622390904 l 0.5603839438413122 9.289764167702636 a30.30665076469763,30.30665076469763 0 0,0 -0.5210029777372184,0.026929902840939025 l -0.4003928976906142 -9.298033877305777" fill="#ff0600" stroke="none" /><path d="M 100.90346689309514 120.98055641714683 l 0.40050698779918525 9.300683309153037 a30.30930265188719,30.30930265188719 0 0,0 -0.521434962050492,0.017959274402950597 l -0.2403516740740409 -9.306199381982083" fill="#ff0600" stroke="none" /><line stroke="#e1ed5e" stroke-width="0.3" x1="102.19456741930631" x2="102.32365962044197" y1="184.97166512339345" y2="189.96999836594603" /><path d="M 102.22038585953345 185.97133177190398 a86.0,86.0 0 0,1 -42.740103519485714,-10.115201625700543" fill="none" id="id43" stroke="none" /><text fill="#e1ed5e" style="font-size:6.75px; font-family:Arial;" text-anchor="middle"><textPath startOffset="22.20632615414155" xlink:href="#id43">July</textPath></text><path d="M 99.45781275523022 120.99299961872073 l -0.500676865913511 19.38575530246495 a40.392219727795705,40.392219727795705 0 0,0 -0.6948993780161228,-0.023933739623355866 l 0.8342965956042768 -19.3742647644155" fill="#ffa60f" stroke="none" /><path d="M 97.2962882734958 120.8252237178851 l -1.9654167108543925 15.138537996184226 a36.26558860670689,36.26558860670689 0 0,0 -0.618365257325826,-0.08569979010829841 l 2.2257105593670494 -15.102463640583323" fill="#ff6609" stroke="none" /><path d="M 96.93821686468263 120.77559828337769 l -2.1939413910133627 14.886895309861305 a36.04769187596464,36.04769187596464 0 0,0 -0.6130925113231039,-0.09575244138434723 l 2.449869765944984 -14.846924561129853" fill="#ff6309" stroke="none" /><path d="M 96.22490169976321 120.6578951692458 l -5.891605811555889 32.23973670460626 a53.77364248631963,53.77364248631963 0 0,0 -0.909113550718424,-0.17423377570366827 l 6.445686976846008 -32.13354573055412" fill="#9fff22" stroke="none" /><path d="M 95.51606077576429 120.51570834832081 l -3.2423781655705315 14.835099557163767 a36.18529535568963,36.18529535568963 0 0,0 -0.6073613095785059,-0.13823345666140877 l 3.4972596245419 -14.777089366924672" fill="#ff6509" stroke="none" /><path d="M 94.81253420990036 120.34920634021253 l -3.7642426621816747 14.766237262433016 a36.23848042654693,36.23848042654693 0 0,0 -0.6031283450984253,-0.1592916776887197 l 4.01786145009159 -14.699254235440714" fill="#ff6609" stroke="none" /><path d="M 94.46302465271185 120.25689768951611 l -4.319998353776223 15.8046151883596 a37.38439034656939,37.38439034656939 0 0,0 -0.619279247665821,-0.17501450120357 l 4.591408769546658 -15.727911893817508" fill="#ff780b" stroke="none" /><path d="M 93.76903079525671 120.05430185196036 l -11.486114601730975 36.96792613803528 a59.711217903746316,59.711217903746316 0 0,0 -0.9789189420420734,-0.3134189320005676 l 12.120754888863988 -36.764734359375005" fill="#57ff2a" stroke="none" /><path d="M 93.08242187328487 119.8279376855182 l -5.381287589467378 15.424449574301947 a37.33621439595903,37.33621439595903 0 0,0 -0.6049896875752221,-0.2169277774623947 l 5.645996837672327 -15.329534255799594" fill="#ff770b" stroke="none" /><path d="M 92.40401165467489 119.57807347666478 l -5.985344654086823 15.426763719693291 a37.5471867545952,37.5471867545952 0 0,0 -0.6005385087994684,-0.23896666635363756 l 6.25000423892815 -15.321450208933587" fill="#ff7a0b" stroke="none" /><path d="M 91.7346041902142 119.30500536409082 l -5.866842194828735 13.702842870192601 a35.905963238389226,35.905963238389226 0 0,0 -0.5660820040347512,-0.24815371495221894 l 6.1018448735212285 -13.59982460194593" fill="#ff6108" stroke="none" /><path d="M 91.40352486487194 119.15986991738527 l -13.407039462008148 29.881681506835506 a53.75154342640662,53.75154342640662 0 0,0 -0.8409096329748551,-0.3860203684857909 l 13.919417090750423 -29.64647406801564" fill="#a0ff22" stroke="none" /><path d="M 90.7491055286396 118.85261126421891 l -7.589835168006963 15.467500188756457 a38.229311070576685,38.229311070576685 0 0,0 -0.5882691659255733,-0.29497037206264093 l 7.854958241615297 -15.334561975784514" fill="#ff850c" stroke="none" /><path d="M 90.42595943632237 118.69057910512821 l -6.935906768114515 13.54037652681952 a36.21343482531219,36.21343482531219 0 0,0 -0.5523567916814914,-0.2889669674135806 l 7.167954462322503 -13.418980140461223" fill="#ff6509" stroke="none" /><path d="M 90.10565033884886 118.52300852407294 l -7.799696262982923 14.601650973754246 a37.55425845376736,37.55425845376736 0 0,0 -0.5675649976388105,-0.3094816900787754 l 8.049884072490375 -14.465228631915705" fill="#ff7a0b" stroke="none" /><line stroke="#e1ed5e" stroke-width="0.3" x1="58.666819895761336" x2="56.23545636021788" y1="174.27360380694188" y2="178.64263932499728" /><path d="M 58.180547188652646 175.14741091055294 a86.0,86.0 0 0,1 -31.652253787137756,-30.449443065178592" fill="none" id="id44" stroke="none" /><text fill="#e1ed5e" style="font-size:6.75px; font-family:Arial;" text-anchor="middle"><textPath startOffset="22.20632615414155" xlink:href="#id44">August</textPath></text><path d="M 89.7882731507175 118.34994917583269 l -7.928380713879578 14.246893330932037 a37.3043917496843,37.3043917496843 0 0,0 -0.5584134069413145,-0.31708170615597403 l 8.1724428877421 -14.108308458981432" fill="#ff760a" stroke="none" /><path d="M 89.4739219176387 118.17145234162733 l -7.967814275659715 13.755052569836986 a36.89614844955802,36.89614844955802 0 0,0 -0.5468222301337524,-0.3230722120841185 l 8.20340437682185 -13.615861785459117" fill="#ff700a" stroke="none" /><path d="M 89.1626897886671 117.98757091392108 l -17.0678132083745 28.32884677511095 a54.073158411673916,54.073158411673916 0 0,0 -0.7931265483881338,-0.4872031050716573 l 17.552918956694942 -28.030855203210916" fill="#9bff22" stroke="none" /><path d="M 88.54995079064634 117.60387380957326 l -8.933191191762337 13.734331406026541 a37.383948365371126,37.383948365371126 0 0,0 -0.5364156906421508,-0.35550706990402786 l 9.168281581144448 -13.578526315031196" fill="#ff780b" stroke="none" /><path d="M 87.65650970185807 116.9893568818739 l -9.429338933520969 12.978371630093202 a37.04214957204995,37.04214957204995 0 0,0 -0.5126193044591077,-0.37922350644210706 l 9.651343208398641 -12.814138174911328" fill="#ff720a" stroke="none" /><path d="M 87.07902340077011 116.55440617244103 l -27.493017235069658 35.22416209951124 a65.6834151817034,65.6834151817034 0 0,0 -0.8852951676150512,-0.7033320231755058 l 28.09526989540207 -34.7456961623306" fill="#33ff52" stroke="none" /><path d="M 86.51685102203217 116.09983520530335 l -9.56779537549804 11.424625588228023 a35.901838080538795,35.901838080538795 0 0,0 -0.47037310049032016,-0.4008621607643426 l 9.763033952565417 -11.25823903724073" fill="#ff6108" stroke="none" /><path d="M 86.24171649860922 115.8653595955263 l -10.247479195258562 11.81687689194781 a36.64127262522801,36.64127262522801 0 0,0 -0.47294748306202683,-0.41732116514128925 l 10.449369031227176 -11.638732585034232" fill="#ff6c0a" stroke="none" /><path d="M 85.70375840098266 115.38237550388516 l -11.15847031779622 12.006217108774681 a37.390872737477196,37.390872737477196 0 0,0 -0.467678208999457,-0.44221893761096176 l 11.363484361186496 -11.81236353441779" fill="#ff780b" stroke="none" /><path d="M 85.44109423537348 115.13401014063109 l -11.412306845790757 11.863114599713297 a37.461295075066644,37.461295075066644 0 0,0 -0.4608632079384711,-0.4510516478151356 l 11.614820006105022 -11.664912848975591" fill="#ff790b" stroke="none" /><path d="M 85.18274418774928 114.88116024355367 l -29.504364267430187 29.631611825504056 a62.815546513259434,62.815546513259434 0 0,0 -0.7596474728239259,-0.7695188793493193 l 30.010052365309644 -29.119352452174073" fill="#33ff2f" stroke="none" /><path d="M 84.67929136418377 114.36230785411682 l -10.92140595261181 10.238207528110078 a35.969903185070855,35.969903185070855 0 0,0 -0.419569380439475,-0.45535969650801056 l 11.096021741047014 -10.048696576800722" fill="#ff6209" stroke="none" /><path d="M 84.43433777217949 114.09645910891817 l -11.318575547840181 10.250244097945489 a36.270155745755574,36.270155745755574 0 0,0 -0.41510528358899174,-0.46637518661313404 l 11.493339681077511 -10.053894741591492" fill="#ff6609" stroke="none" /><path d="M 83.95833913139862 113.55231037782056 l -13.004616809389399 10.986555867817296 a38.024231794583976,38.024231794583976 0 0,0 -0.41809272487356264,-0.5036196205028829 l 13.191805534156497 -10.761074990200653" fill="#ff820b" stroke="none" /><path d="M 83.72743513129214 113.27417163493432 l -12.693947702022111 10.354952761352967 a37.38173845937982,37.38173845937982 0 0,0 -0.402444832472176,-0.5021118072308646 l 12.870310446549148 -10.134913120543843" fill="#ff780b" stroke="none" /><path d="M 83.50135304334701 112.99209946851258 l -36.87633948267816 29.038809779513322 a67.93737196576399,67.93737196576399 0 0,0 -0.715584930235586,-0.9249899841488244 l 37.37073123013182 -28.399741801251245" fill="#36ff70" stroke="none" /><path d="M 83.06392112726016 112.41649034213515 l -12.399196343788685 9.090327389812373 a36.374463308544975,36.374463308544975 0 0,0 -0.36585817582174845,-0.508145007356081 l 12.55383431198604 -8.875548777005154" fill="#ff6809" stroke="none" /><path d="M 82.85270091963577 112.12312394758628 l -13.375230117519406 9.4562748210217 a37.38041251578504,37.38041251578504 0 0,0 -0.36693163456710215,-0.5285923866483964 l 13.536022659248642 -9.22464117218629" fill="#ff780b" stroke="none" /><path d="M 82.6465618267979 111.8261652097733 l -13.505464829997392 9.203816368849314 a37.34343342219728,37.34343342219728 0 0,0 -0.3574244833887045,-0.5343011066753751 l 13.661892418796826 -8.969978347968118" fill="#ff770b" stroke="none" /><path d="M 82.44556493220864 111.52570212397912 l -17.783379187273784 11.676019790939106 a42.273881015855196,42.273881015855196 0 0,0 -0.39414382424199446,-0.6117199680099589 l 17.981727874892822 -11.3681782230077" fill="#ffc112" stroke="none" /><path d="M 82.24976979558568 111.22182372390057 l -13.21989924583011 8.357715774724875 a36.640241335765396,36.640241335765396 0 0,0 -0.3324410278839579,-0.5360007884766296 l 13.361804913382024 -8.128918654882982" fill="#ff6c0a" stroke="none" /><path d="M 82.05923443525364 110.91462005526583 l -13.698744926128105 8.333902784867174 a37.03463589167953,37.03463589167953 0 0,0 -0.3266439442234149,-0.5474740390430128 l 13.840169746049751 -8.09686665193805" fill="#ff720a" stroke="none" /><line stroke="#e1ed5e" stroke-width="0.3" x1="26.63291911575756" x2="22.317208475507996" y1="142.92168965132927" y2="145.44649492493687" /><path d="M 25.769776987707644 143.4266507060508 a86.0,86.0 0 0,1 -11.730757126820373,-40.83630448921669" fill="none" id="id45" stroke="none" /><text fill="#e1ed5e" style="font-size:6.75px; font-family:Arial;" text-anchor="middle"><textPath startOffset="21.46611528233685" xlink:href="#id45">September</textPath></text><path d="M 81.69416730710424 110.29060199501025 l -14.256177702681912 8.014093276694982 a37.3543356250877,37.3543356250877 0 0,0 -0.3102608258229012,-0.5632135202173937 l 14.39201493795633 -7.767509238079767" fill="#ff770b" stroke="none" /><path d="M 81.51974371655577 109.97397251340807 l -13.867711890318827 7.484537827639028 a36.758544969833025,36.758544969833025 0 0,0 -0.2957268559026676,-0.5594037637923829 l 13.99449125444638 -7.244719048760519" fill="#ff6e0a" stroke="none" /><path d="M 81.18737489456691 109.33194174019688 l -13.856592515745156 6.87351782911134 a36.46772134137786,36.46772134137786 0 0,0 -0.27411005011516226,-0.5647478919522171 l 13.972855822475037 -6.633980981193838" fill="#ff6909" stroke="none" /><path d="M 81.02952815118164 109.00673069616217 l -16.15191808977336 7.668548132086662 a38.8799073944156,38.8799073944156 0 0,0 -0.2818337523974748,-0.6070448295564962 l 16.281526459010664 -7.389383235251339" fill="#ff8f0d" stroke="none" /><path d="M 80.87730276802145 108.67885076344099 l -37.72432980807799 17.12121593431004 a62.4277816753192,62.4277816753192 0 0,0 -0.4356832364270126,-0.9823506811276205 l 38.01345412923629 -16.469316916689724" fill="#38ff2e" stroke="none" /><path d="M 80.58989483394504 108.01547362559985 l -13.660879404087504 5.641309906834409 a35.779851269819,35.779851269819 0 0,0 -0.23017925565771574,-0.5712860356790815 l 13.755961274002608 -5.405324503312523" fill="#ff5f08" stroke="none" /><path d="M 80.45479744820244 107.68017299344265 l -15.257982803063854 5.995535075574137 a37.39367195173284,37.39367195173284 0 0,0 -0.23024836620775277,-0.6011058285941411 l 15.358925448865115 -5.732005680146838" fill="#ff780b" stroke="none" /><path d="M 80.32549172779594 107.34259656027581 l -14.063394828387304 5.248509038398916 a36.01086010944296,36.01086010944296 0 0,0 -0.21173655065956928,-0.5826080501851325 l 14.151655640052098 -5.005653191207667" fill="#ff6209" stroke="none" /><path d="M 80.20201598880116 107.00284435728193 l -14.711121611688903 5.203544709877037 a36.604293531640245,36.604293531640245 0 0,0 -0.20500002600792222,-0.59582603396412 l 14.798512468640052 -4.94954597282362" fill="#ff6c09" stroke="none" /><path d="M 79.97269907076064 106.31721596034903 l -43.77526241626731 13.808040703117044 a66.90136803704223,66.90136803704223 0 0,0 -0.3369701724301508,-1.101238020465431 l 44.00645936120359 -13.052475710099566" fill="#35ff62" stroke="none" /><path d="M 79.76711848015287 105.62410040840567 l -15.14854320667605 4.210815347870504 a36.722891819840044,36.722891819840044 0 0,0 -0.16404976780533778,-0.6104902140152377 l 15.218781050823164 -3.9494342006797276" fill="#ff6d0a" stroke="none" /><path d="M 79.50377843672027 104.57218783832718 l -15.692536466012397 3.500607375895607 a37.0782447032412,37.0782447032412 0 0,0 -0.13359814418481705,-0.6241260525191231 l 15.750468648921656 -3.2299675039603204" fill="#ff730a" stroke="none" /><path d="M 79.4281124754447 104.21870165774334 l -14.95308069765767 3.0664462000524204 a36.264262663112106,36.264262663112106 0 0,0 -0.12013843733622599,-0.6125833037019577 l 15.003649067969562 -2.8085991692825076" fill="#ff6609" stroke="none" /><path d="M 79.29508885075956 103.50808413554451 l -16.938836844719898 2.869988882406705 a38.1802511575698,38.1802511575698 0 0,0 -0.10421071497129518,-0.6489202216031611 l 16.985729314052485 -2.57798943111033" fill="#ff840c" stroke="none" /><path d="M 79.23777060512086 103.15116336523772 l -15.207670283441509 2.3081265771784047 a36.38182966184931,36.38182966184931 0 0,0 -0.08864337335242697,-0.6199715467681213 l 15.245147707810535 -2.046009558429883" fill="#ff6809" stroke="none" /><path d="M 79.18660465613746 102.79330883721812 l -15.758108686083215 2.1148526477041014 a36.89938964501192,36.89938964501192 0 0,0 -0.07906746874942938,-0.6302455211093723 l 15.792177664079492 -1.8432893723073205" fill="#ff700a" stroke="none" /><path d="M 79.10278846688536 102.07522291339032 l -16.791072199457602 1.6674577712671494 a37.873663533043356,37.873663533043356 0 0,0 -0.058840169677702316,-0.6492963693211941 l 16.81728696541238 -1.3781800133973892" fill="#ff7f0b" stroke="none" /><path d="M 79.07016306316243 101.71520430193888 l -14.825031966401488 1.2149143197766037 a35.87472990037884,35.87472990037884 0 0,0 -0.04513970575978452,-0.615895421429022 l 14.843748230825609 -0.9595457618508212" fill="#ff6008" stroke="none" /><path d="M 79.04373962182676 101.35467743843564 l -32.64965960251999 2.110574904013143 a53.71780552827276,53.71780552827276 0 0,0 -0.0517063272400152,-0.9232512072164871 l 32.68115228064754 -1.5482519804612185" fill="#a0ff22" stroke="none" /><path d="M 79.0095281055655 100.63252640178507 l -14.749730990728596 0.44446805759221936 a35.75642626631121,35.75642626631121 0 0,0 -0.013243392481310548,-0.6153684096949624 l 14.755196445894914 -0.1905098321071281" fill="#ff5e08" stroke="none" /><line stroke="#e1ed5e" stroke-width="0.3" x1="15.007084014347285" x2="10.007500721073583" y1="101.09737516637583" y2="101.16192664675087" /><path d="M 14.007167355692545 101.11028546245083 a86.0,86.0 0 0,1 10.666146001902534,-42.60595125391555" fill="none" id="id46" stroke="none" /><text fill="#e1ed5e" style="font-size:6.75px; font-family:Arial;" text-anchor="middle"><textPath startOffset="22.20632615414155" xlink:href="#id46">October</textPath></text><path d="M 79.00175016825051 100.2711162175752 l -14.76771820284524 0.19067150517078674 a35.768949066928585,35.768949066928585 0 0,0 -0.0026498024292880696,-0.615720764871913 l 14.76881230256403 0.06355873790480161" fill="#ff5e08" stroke="none" /><path d="M 79.00486145842228 99.54816195383935 l -14.75580874908976 -0.31756093352303727 a35.759225480566855,35.759225480566855 0 0,0 0.01854082728866164,-0.6152797938614097 l 14.748156227345453 0.5715108748094414" fill="#ff5e08" stroke="none" /><path d="M 79.01574976396665 99.18683210126434 l -16.692592716173348 -0.6468604020053197 a37.70512136944015,37.70512136944015 0 0,0 0.030714217988053297,-0.6483285976160131 l 16.678984889951796 0.9341001062443419" fill="#ff7d0b" stroke="none" /><path d="M 79.05617556472873 98.46500227214037 l -19.316248012726714 -1.4157107218858629 a40.36805808895748,40.36805808895748 0 0,0 0.05675655963242838,-0.6925737866094928 l 19.28901696927479 1.747998425703134" fill="#ffa50f" stroke="none" /><path d="M 79.21141760316559 97.0276538004421 l -23.566470210167548 -3.3695278893500973 a44.80613862775361,44.80613862775361 0 0,0 0.11573661706177447,-0.7625597007543863 l 23.50497769966647 3.7746867024965756" fill="#ffe615" stroke="none" /><path d="M 79.26566170972629 96.67025291283419 l -14.712303276389605 -2.3626627623336423 a35.90080679107619,35.90080679107619 0 0,0 0.10323728057310604,-0.6093122738698662 l 14.669454134296277 2.6155608245193362" fill="#ff6108" stroke="none" /><path d="M 79.32604984820605 96.31383870115002 l -30.953924649539832 -5.519078756255556 a52.44210046302793,52.44210046302793 0 0,0 0.16610230233069587,-0.8873251408773328 l 30.854336623299275 6.051081974595462" fill="#b0ff20" stroke="none" /><path d="M 79.46518482838121 95.60439243477599 l -11.65070557428901 -2.493907499753024 a32.914634488564616,32.914634488564616 0 0,0 0.12336030876315968,-0.5530000756594957 l 11.606050878523813 2.694085744962479" fill="#ff3104" stroke="none" /><path d="M 79.54389044137918 95.25157060432595 l -11.748270638398887 -2.7270988888597216 a33.06063561105655,33.06063561105655 0 0,0 0.13345035725461193,-0.5532378859263111 l 11.69958748088346 2.9289220064454295" fill="#ff3304" stroke="none" /><path d="M 79.71946130924805 94.55025226153421 l -11.641177179308501 -3.128194964315506 a33.05415322014873,33.05415322014873 0 0,0 0.15238472949699639,-0.5482089496017221 l 11.585605679245145 3.3281152173361703" fill="#ff3304" stroke="none" /><path d="M 79.91906864156998 93.8553929516997 l -11.979950609841548 -3.6657706578245635 a33.528251718815774,33.528251718815774 0 0,0 0.1736196911076433,-0.5504218666702391 l 11.9150754349657 3.871442690921217" fill="#ff3b05" stroke="none" /><path d="M 80.65960295795068 91.81776055985345 l -13.722943850398673 -5.8056932421564555 a35.900512136944016,35.900512136944016 0 0,0 0.24567795788021188,-0.5670585993144526 l 13.620975182675782 6.041050986057508" fill="#ff6108" stroke="none" /><path d="M 80.803312248108 91.48605970444005 l -13.848307923837515 -6.141875535088693 a36.14920022449839,36.14920022449839 0 0,0 0.25717175034133083,-0.566643862469816 l 13.740533856532833 6.37934140640058" fill="#ff6409" stroke="none" /><path d="M 80.95270993114464 91.15688171328213 l -16.20502923144443 -7.523536934406317 a38.866353304335625,38.866353304335625 0 0,0 0.28694807690899066,-0.6043858308535934 l 16.07312296069369 7.801365180900442" fill="#ff8f0d" stroke="none" /><path d="M 81.10775173730289 90.83032412892265 l -14.414385153708603 -6.99626841138639 a37.02255507226042,37.02255507226042 0 0,0 0.2832048936780702,-0.5709237842581273 l 14.29182024707712 7.243351784143479" fill="#ff720a" stroke="none" /><path d="M 81.26839172434947 90.50648371742162 l -13.528573573406728 -6.856524629876502 a36.166879472428796,36.166879472428796 0 0,0 0.2862187714453704,-0.5528835648272556 l 13.408545368801244 7.088380916964093" fill="#ff6509" stroke="none" /><path d="M 81.6062741919709 89.86733742301443 l -14.174937553210146 -7.808633268515043 a37.18343622842711,37.18343622842711 0 0,0 0.31365531420743165,-0.5579578053745582 l 14.038424597710282 8.051474583824385" fill="#ff750a" stroke="none" /><line stroke="#e1ed5e" stroke-width="0.3" x1="26.266209847984243" x2="21.928928074336255" y1="57.711370442889674" y2="55.22380399835377" /><path d="M 25.398753493254645 57.213857153982495 a86.0,86.0 0 0,1 29.58750427330803,-30.492523968695096" fill="none" id="id47" stroke="none" /><text fill="#e1ed5e" style="font-size:6.75px; font-family:Arial;" text-anchor="middle"><textPath startOffset="21.46611528233685" xlink:href="#id47">November</textPath></text><path d="M 81.78341655067845 89.55222093294921 l -14.086477322397696 -8.079034320945269 a37.23883120527571,37.23883120527571 0 0,0 0.32369468431217374,-0.5532991426630647 l 13.945322963615197 8.320312875962225" fill="#ff750a" stroke="none" /><path d="M 81.96595687620814 89.24020034530311 l -14.189884527795714 -8.466227655901397 a37.52361442402133,37.52361442402133 0 0,0 0.33571877816538304,-0.5518333999947451 l 14.042049951344113 8.709228829103218" fill="#ff7a0b" stroke="none" /><path d="M 82.15384107792192 88.93136811851018 l -12.646809352020144 -7.843865887561734 a35.881801599551004,35.881801599551004 0 0,0 0.3300654221909871,-0.522084232523554 l 12.509916333583194 8.060397767799504" fill="#ff6008" stroke="none" /><path d="M 82.34701348167596 88.62581576622439 l -12.515737088223025 -8.06414820037273 a35.88872597165708,35.88872597165708 0 0,0 0.339068761214017,-0.5164249854995391 l 12.375071691651087 8.278391249849935" fill="#ff6008" stroke="none" /><path d="M 82.54541684631803 88.32363383020206 l -12.377520770247086 -8.280029578202651 a35.891672512978815,35.891672512978815 0 0,0 0.34793649570820223,-0.5105538743432341 l 12.233159808870143 8.4918614758163" fill="#ff6008" stroke="none" /><path d="M 82.7489923806493 88.02491185347247 l -12.286048053079881 -8.528574773978448 a35.95605444085871,35.95605444085871 0 0,0 0.3573130858786635,-0.5053940201699565 l 12.13742234739734 8.738795294480191" fill="#ff6109" stroke="none" /><path d="M 82.95767976084542 87.72973835380427 l -12.082663103188466 -8.699369309956845 a35.88857864459099,35.88857864459099 0 0,0 0.3652729066711375,-0.49823183419748684 l 11.931127584003695 8.906063587825832" fill="#ff6008" stroke="none" /><path d="M 83.17141714833178 87.43820079747576 l -15.522697100845273 -11.58701274974522 a40.37041532201487,40.37041532201487 0 0,0 0.4204752920985682,-0.553296196841988 l 15.320945868522596 11.852493722468235" fill="#ffa50f" stroke="none" /><path d="M 83.84228863543731 86.58626213691792 l -12.613420911105537 -10.471354379393373 a37.39352462466675,37.39352462466675 0 0,0 0.41540535329726763,-0.49170891271071415 l 12.431304944321147 10.686922241733203" fill="#ff780b" stroke="none" /><path d="M 84.07557802195018 86.31012108654704 l -12.416334602346556 -10.674052564629216 a37.37378279781114,37.37378279781114 0 0,0 0.4235840187977847,-0.484229757387355 l 12.230758719970927 10.886197878219514" fill="#ff780b" stroke="none" /><path d="M 84.31358615837235 86.03803664274999 l -8.905291809164806 -7.926308663056186 a32.92185351480286,32.92185351480286 0 0,0 0.3804141484797108,-0.4200628041529237 l 8.767534020069052 8.078424254478666" fill="#ff3104" stroke="none" /><path d="M 84.5562425177563 85.77008943001954 l -10.94227163886795 -10.082232062537088 a35.87900238529535,35.87900238529535 0 0,0 0.4224029449878557,-0.45059001051941777 l 10.76710137190964 10.269091489934555" fill="#ff6008" stroke="none" /><path d="M 84.80347519578584 85.50635884689758 l -10.770832804266508 -10.272650332647894 a35.88415883260839,35.88415883260839 0 0,0 0.4301583402438534,-0.4433159816068997 l 10.592410200319536 10.456530509804917" fill="#ff6008" stroke="none" /><path d="M 85.05521093208273 85.24692304244772 l -9.669762916766341 -9.545718967595988 a34.58768065104532,34.58768065104532 0 0,0 0.42191073990683464,-0.4200989211068831 l 9.504016376692194 9.710753739352981" fill="#ff4c07" stroke="none" /><path d="M 85.31137513191541 84.99185889309783 l -12.358786790053689 -12.627622920526765 a38.669082362845515,38.669082362845515 0 0,0 0.47971161474535234,-0.4614821933100097 l 12.139591931695907 12.83848820059909" fill="#ff8c0c" stroke="none" /><path d="M 85.57189188830299 84.74124197986013 l -7.491299657910652 -7.9225860973237765 a31.903528834011503,31.903528834011503 0 0,0 0.4022763292557015,-0.3738720063850228 l 7.353815444860094 8.050362689783446" fill="#ff2003" stroke="none" /><path d="M 86.10567301691215 84.25364557470407 l -9.848167177131668 -11.160866661583233 a35.88460081380665,35.88460081380665 0 0,0 0.46668128644455403,-0.40470141285095396 l 9.65459209204034 11.328733067853866" fill="#ff6008" stroke="none" /><path d="M 86.37877921826538 84.01681056812374 l -7.736115675496883 -9.077585943998473 a32.92686263504981,32.92686263504981 0 0,0 0.4345443719469877,-0.3639184146784755 l 7.578713766590785 9.20940551607076" fill="#ff3104" stroke="none" /><path d="M 86.65592168130627 83.78471172551755 l -7.653887716990053 -9.300754446086266 a33.045166269117445,33.045166269117445 0 0,0 0.4423278062914247,-0.35766499085063286 l 7.492656512134128 9.431125534201033" fill="#ff3304" stroke="none" /><path d="M 86.93701828274178 83.55741782278169 l -9.540357252210022 -12.008598918288069 a36.33704223375895,36.33704223375895 0 0,0 0.493089241829444,-0.3848639744998327 l 9.332235455221152 12.171041282011123" fill="#ff6709" stroke="none" /><path d="M 87.22198572758235 83.33499621200491 l -9.561278716523432 -12.469758025930915 a36.7134628876105,36.7134628876105 0 0,0 0.5048168389355304,-0.3802175771356084 l 9.345215723829511 12.632492192572377" fill="#ff6d0a" stroke="none" /><path d="M 87.51073957382395 83.11751280151077 l -8.944094394861965 -12.090272279602797 a36.038999579065525,36.038999579065525 0 0,0 0.5018940105153239,-0.3646473431905537 l 8.73465506799286 12.242438857610018" fill="#ff6309" stroke="none" /><path d="M 87.80319425747018 82.90503203632743 l -7.086623086786707 -9.932567362027486 a33.20148028623544,33.20148028623544 0 0,0 0.46809163964196643,-0.3279281073352088 l 6.914600307561081 10.053080312126637" fill="#ff3505" stroke="none" /><path d="M 88.39885842347998 82.49532879139004 l -8.302377235016356 -12.527248528967965 a36.02868668443946,36.02868668443946 0 0,0 0.5198990515748447,-0.3381568050772406 l 8.085511157657225 12.66830425820474" fill="#ff6309" stroke="none" /><path d="M 88.70189139769569 82.29822771554957 l -6.401733123149365 -10.03017637383137 a32.899017819559425,32.899017819559425 0 0,0 0.47998233169892013,-0.3005648920762014 l 6.228131639078202 10.138885607230502" fill="#ff3004" stroke="none" /><path d="M 89.00827224532344 82.1063720568725 l -6.39138046506845 -10.404641257262776 a33.21090921846499,33.21090921846499 0 0,0 0.48968368140184415,-0.2950289389365068 l 6.211334717448956 10.513116805657901" fill="#ff3605" stroke="none" /><line stroke="#e1ed5e" stroke-width="0.3" x1="56.762969772571076" x2="54.21961505331055" y1="26.818313649435495" y2="22.513508569990535" /><path d="M 56.25429882871897 25.957352633546506 a86.0,86.0 0 0,1 42.265352541879196,-11.944610805530505" fill="none" id="id48" stroke="none" /><text fill="#e1ed5e" style="font-size:6.75px; font-family:Arial;" text-anchor="middle"><textPath startOffset="22.20632615414155" xlink:href="#id48">December</textPath></text><path d="M 89.3179101791058 81.91981866633112 l -9.00985639684879 -15.249809744785141 a38.712543847341095,38.712543847341095 0 0,0 0.5766385814298981,-0.3340262858092245 l 8.746021082953572 15.402640187984414" fill="#ff8c0c" stroke="none" /><path d="M 90.58718382345135 81.22770947309562 l -5.3990629842741695 -10.767529824534698 a33.045313596183526,33.045313596183526 0 0,0 0.5106739882196468,-0.25058550818659914 l 5.212917729044096 10.858870492856127" fill="#ff3304" stroke="none" /><path d="M 90.91171255644093 81.06846463323043 l -5.347259118433595 -11.138712958253796 a33.35573172442823,33.35573172442823 0 0,0 0.5197486761084668,-0.24402897250179909 l 5.15473223102552 11.229106913395603" fill="#ff3805" stroke="none" /><path d="M 91.56875222667455 80.76684994638697 l -6.712998042952705 -15.31352204808893 a37.72029605724709,37.72029605724709 0 0,0 0.596907954322924,-0.25556483468612246 l 6.448406330839473 15.426806410737838" fill="#ff7d0b" stroke="none" /><path d="M 91.90106846888425 80.62456947434976 l -6.004482154800413 -14.364787056893963 a36.5692296899116,36.5692296899116 0 0,0 0.5828719549495677,-0.23776810546713126 l 5.756326330262464 14.466016048544672" fill="#ff6b09" stroke="none" /><path d="M 92.23578459929587 80.48803036053334 l -5.744887539507953 -14.437269636139114 a36.53829100603339,36.53829100603339 0 0,0 0.5863818662463888,-0.22750705411471941 l 5.495522508261889 14.534019394144384" fill="#ff6b09" stroke="none" /><path d="M 92.57280143429618 80.3572730644239 l -4.322198127017899 -11.430926050975433 a33.2207801318928,33.2207801318928 0 0,0 0.5366226558267385,-0.1976426528858732 l 4.124793145418591 11.503631971667629" fill="#ff3605" stroke="none" /><path d="M 92.91201910852362 80.23233633223022 l -4.122953273852822 -11.498500755477734 a33.21532903044759,33.21532903044759 0 0,0 0.539856644716712,-0.1883453829785729 l 3.9244146250728247 11.567766991628515" fill="#ff3605" stroke="none" /><path d="M 93.25333710446033 80.11325718540243 l -4.78623052237875 -14.108091203556349 a35.89786024975446,35.89786024975446 0 0,0 0.5868739080229571,-0.19348310041581884 l 4.542673792113383 14.188388028231403" fill="#ff6008" stroke="none" /><path d="M 93.59665428221793 80.00007090966166 l -3.6908859560332212 -11.527951270255352 a33.1043917496843,33.1043917496843 0 0,0 0.5441962028335853,-0.16908440923177057 l 3.4919043804889074 11.589775814369649" fill="#ff3404" stroke="none" /><path d="M 93.94186890950719 79.89281104454417 l -4.776462778686287 -15.853278543355874 a37.557204995089094,37.557204995089094 0 0,0 0.6206055965839381,-0.18117179176883413 l 4.502866964378928 15.933148664043406" fill="#ff7a0b" stroke="none" /><path d="M 94.28887869178378 79.79150937346287 l -2.673136525328062 -9.458747503372223 a30.829219868107195,30.829219868107195 0 0,0 0.5119149543616633,-0.13992569472647526 l 2.509923681742676 9.503359738924994" fill="#ff0e01" stroke="none" /><path d="M 94.63758080256005 79.69619591428918 l -3.196873131337553 -12.10436621152974 a33.51941209485057,33.51941209485057 0 0,0 0.5591215292062228,-0.142532527154825 l 2.9880427134463305 12.15760173485343" fill="#ff3b05" stroke="none" /><path d="M 94.98787191387505 79.60689891045804 l -3.5559596540875815 -14.46831434673214 a35.89889153921706,35.89889153921706 0 0,0 0.6013514146570315,-0.14232045096434862 l 3.3063845524680158 14.52738070983736" fill="#ff6108" stroke="none" /><path d="M 95.33964822691252 79.52364482259891 l -2.8090929117449863 -12.34241254477302 a33.65804686403816,33.65804686403816 0 0,0 0.5660278162293736,-0.1237117570647828 l 2.5962223713620918 12.388937799933672" fill="#ff3d05" stroke="none" /><path d="M 95.692805502759 79.44645832069477 l -2.536905528384092 -12.105883202512063 a33.368843833309946,33.368843833309946 0 0,0 0.5631923396081165,-0.1129710850869382 l 2.328146779308839 12.147758243676211" fill="#ff3805" stroke="none" /><path d="M 96.04723909329186 79.375362276772 l -2.553349328231084 -13.322815651774533 a34.56528693700014,34.56528693700014 0 0,0 0.5853135559655085,-0.1069623111226019 l 2.323640651162682 13.364793444247871" fill="#ff4b07" stroke="none" /><path d="M 96.40284397218896 79.31037775812273 l -2.8758321135208513 -16.540811574418473 a37.7889504700435,37.7889504700435 0 0,0 0.6418197601585117,-0.10590575975006662 l 2.590683147223454 16.587863597108168" fill="#ff7e0b" stroke="none" /><path d="M 96.75951476605007 79.25152402106235 l -1.8399654301230302 -11.781099364075475 a32.923916093728074,32.923916093728074 0 0,0 0.56069588956579,-0.08263199910290067 l 1.6369005601285913 11.811025847339344" fill="#ff3104" stroke="none" /><path d="M 97.11714578562143 79.19881850522333 l -2.0460700817442286 -14.763380995514085 a35.90448996772836,35.90448996772836 0 0,0 0.6129157539937142,-0.07957405566830997 l 1.7916395992426564 14.796413374346532" fill="#ff6108" stroke="none" /><path d="M 98.19473922651362 79.07773832637324 l -1.401046497868369 -16.23757734939867 a37.29790935877648,37.29790935877648 0 0,0 0.6401205928179741,-0.0496856778681083 l 1.1213357156880608 16.259288289455238" fill="#ff760a" stroke="none" /><path d="M 98.91598698831166 79.02799685794201 l -1.1303349090799026 -21.868175943645443 a42.897369159534165,42.897369159534165 0 0,0 0.7377513399212018,-0.03176912459817851 l 0.7537427367693768 21.884392794767813" fill="#ffcb12" stroke="none" /><path d="M 99.27714615592234 79.0124445844662 l -0.6546558751204823 -19.007475120682543 a40.01874561526589,40.01874561526589 0 0,0 0.6886527980128008,-0.017785870049014774 l 0.3273764419128024 19.015927782873916" fill="#ffa00e" stroke="none" /><path d="M 99.63851952072746 79.00311137660856 l -0.26300278900236185 -15.276731621682888 a36.278995369720775,36.278995369720775 0 0,0 0.6244832682748939,-0.0053751246464459395 l 3.7422745547431555e-15 15.278995369720775" fill="#ff6609" stroke="none" /></svg>