<?xml version="1.0" encoding="utf-8" ?>
<svg baseProfile="full" height="200mm" version="1.1" viewBox="0,0,200,200" width="200mm" xmlns="http://www.w3.org/2000/svg" xmlns:ev="http://www.w3.org/2001/xml-events" xmlns:xlink="http://www.w3.org/1999/xlink"><defs /><rect fill="#1a1a1a" height="200" width="200" x="0" y="0" /><text alignment-baseline="middle" fill="#e1ed5e" style="dominant-baseline: central; font-size:9.0px; font-family:Arial;" text-anchor="middle" x="100.0" y="100.0">2024</text><line stroke="#e1ed5e" stroke-width="0.3" x1="100.0" x2="100.0" y1="15.0" y2="10.0" /><path d="M 100.0 14.0 a86.0,86.0 0 0,1 42.35913384403234,11.155469271406648" fill="none" id="id97" stroke="none" /><text fill="#e1ed5e" style="font-size:6.75px; font-family:Arial;" text-anchor="middle"><textPath startOffset="22.145653131862478" xlink:href="#id97">January</textPath></text><path d="M 100.36049292484886 79.00309439819443 l 0.2603314403272757 -15.163001271178072 a36.16523590349226,36.16523590349226 0 0,0 0.6206414053861625,0.015985521036119627 l -0.5205861597841795 15.156298032791907" fill="#ff4c07" stroke="none" /><path d="M 101.08105385017728 79.02784411241856 l 0.7620076262553735 -14.782744377380412 a35.80237099080561,35.80237099080561 0 0,0 0.6135088289566805,0.03690716767321776 l -1.0156608073445164 14.767485231882503" fill="#ff4606" stroke="none" /><path d="M 101.44090949804482 79.04949213459386 l 1.0314667474130135 -14.99730013155144 a36.0327287904376,36.0327287904376 0 0,0 0.6167276157208749,0.04773861791483779 l -1.2887633579091218 14.977383746641546" fill="#ff4a06" stroke="none" /><path d="M 101.80034050326958 79.07731436759882 l 1.2292799431086676 -14.286096300765948 a35.33888687078909,35.33888687078909 0 0,0 0.6039591394006589,0.05719555843519206 l -1.4743386458943395 14.26288898682557" fill="#ff3f05" stroke="none" /><path d="M 102.15924093988457 79.11130261209362 l 1.0958977221938118 -10.601816343953816 a31.65830669517611,31.65830669517611 0 0,0 0.5400968907139396,0.060518983138805604 l -1.277730514508548 10.58144160030804" fill="#ff0000" stroke="none" /><path d="M 102.87502721639298 79.19773525538626 l 2.0633035366460226 -14.929036557663524 a36.070944032289084,36.070944032289084 0 0,0 0.6126476263499011,0.09003810339374649 l -2.319276268603606 14.891417380970896" fill="#ff4b06" stroke="none" /><path d="M 103.58742460773223 79.30868818359171 l 2.497008542209575 -14.402081717266823 a35.616942547971476,35.616942547971476 0 0,0 0.6015282104225294,0.10961847789795352 l -2.743871486183158 14.357095065437504" fill="#ff4306" stroke="none" /><path d="M 103.94208987418118 79.37332000966035 l 2.6134545034072088 -13.67469830258239 a34.922195161253455,34.922195161253455 0 0,0 0.5878627963084241,0.11758902331950537 l -2.8478137852465895 13.627819882600026" fill="#ff3805" stroke="none" /><path d="M 104.29559338865022 79.4440306129975 l 3.062117196361253 -14.6533392834918 a35.96986686251335,35.96986686251335 0 0,0 0.6033304275325329,0.1314930585790199 l -3.31321004051292 14.598614766779061" fill="#ff4906" stroke="none" /><path d="M 104.9986988182912 79.60360301121754 l 3.6126229126921623 -14.74073429437582 a36.17696583137406,36.17696583137406 0 0,0 0.6019066842213269,0.1530023253912824 l -3.865134890138884 14.67654673714927" fill="#ff4c07" stroke="none" /><path d="M 105.3480935250658 79.69241777938227 l 3.8184372882428903 -14.499228336570834 a35.99360149131163,35.99360149131163 0 0,0 0.5961544783820458,0.16248455406423876 l -4.066773167559629 14.431543288362452" fill="#ff4906" stroke="none" /><path d="M 106.04205211174951 79.88797359093562 l 4.3701488461447475 -14.546804194933648 a36.18906558097632,36.18906558097632 0 0,0 0.5934306533539084,0.18384633334607578 l -4.619220132370287 14.469641273780926" fill="#ff4d07" stroke="none" /><path d="M 106.72888874123014 80.10723608172694 l 10.471694885225974 -30.957705229928596 a53.68081863834528,53.68081863834528 0 0,0 0.8703813761073699,0.30276382383461137 l -11.001582033378362 30.773382973525393" fill="#adff20" stroke="none" /><path d="M 108.07796709384702 80.6158196554323 l 6.947232040550401 -16.670827846298508 a39.06046882298939,39.06046882298939 0 0,0 0.616718162338202,0.26324031117340935 l -7.232385278059033 16.5491128854657" fill="#ff7b0b" stroke="none" /><path d="M 108.73861861582097 80.90454125486305 l 6.237489915950316 -13.630041154055704 a35.98947304987183,35.98947304987183 0 0,0 0.5595699586952599,0.2619069950129589 l -6.470548588517081 13.52095792747221" fill="#ff4906" stroke="none" /><path d="M 109.06512990194946 81.05736502329252 l 9.306349095411028 -19.44669031629348 a42.55880093473383,42.55880093473383 0 0,0 0.6562967374480719,0.321027621734765 l -9.638806082121167 19.284068944461495" fill="#ffb210" stroke="none" /><path d="M 109.3889696526874 81.21577127319529 l 8.412934676653324 -16.831504954826432 a39.81693463128314,39.81693463128314 0 0,0 0.6087682773768999,0.31084142007435395 l -8.700630175743802 16.684605583079247" fill="#ff870c" stroke="none" /><path d="M 109.71004243097381 81.37971332152246 l 7.424407720882398 -14.23728074964425 a37.05683633690301,37.05683633690301 0 0,0 0.5615190368556933,0.2989772594401254 l -7.667715573524651 14.107733022481552" fill="#ff5b08" stroke="none" /><path d="M 110.34350942703115 81.72400993836675 l 11.602885697585855 -20.501187260599874 a44.55685962953095,44.55685962953095 0 0,0 0.6624279611822165,0.3824529617072877 l -11.953106126628468 20.298987401616415" fill="#ffd013" stroke="none" /><line stroke="#e1ed5e" stroke-width="0.3" x1="143.13028292997686" x2="145.6673583964461" y1="26.7553504044142" y2="22.446841604673864" /><path d="M 143.63769802327073 25.89364864446614 a86.0,86.0 0 0,1 29.32050498858742,28.57503671076993" fill="none" id="id98" stroke="none" /><text fill="#e1ed5e" style="font-size:6.75px; font-family:Arial;" text-anchor="middle"><textPath startOffset="20.669276256404974" xlink:href="#id98">February</textPath></text><path d="M 110.65571695917076 81.90426304109057 l 7.536982775598788 -12.799444494787016 a35.85368266575015,35.85368266575015 0 0,0 0.5276761366079953,0.3168543586662459 l -7.755591668764217 12.668176135584849" fill="#ff4706" stroke="none" /><path d="M 111.27062007382361 82.28071324371311 l 10.903156315684226 -17.14157269438386 a41.31532259357678,41.31532259357678 0 0,0 0.5951656520235076,0.3857791850542263 l -11.195807599964741 16.95187966762574" fill="#ff9f0e" stroke="none" /><path d="M 111.5731344415666 82.4767994020092 l 8.59369781477374 -13.01195380103187 a36.59367127561161,36.59367127561161 0 0,0 0.5212049005092184,0.3506899176982612 l -8.81579900337996 12.862514209276489" fill="#ff5307" stroke="none" /><path d="M 111.8722381534696 82.67804972795209 l 8.706285221579865 -12.702730328771132 a36.399959745563685,36.399959745563685 0 0,0 0.5123812753269587,0.3576819237134175 l -8.923061588080584 12.551403589252587" fill="#ff5007" stroke="none" /><path d="M 112.16784306229584 82.88440491214696 l 8.459086653609083 -11.8987647387455 a35.59920372216514,35.59920372216514 0 0,0 0.49503064297323557,0.3583640098380228 l -8.662098306956286 11.751799957534404" fill="#ff4306" stroke="none" /><path d="M 112.45986205192187 83.09580414077388 l 8.921954389997122 -12.104344640985058 a36.03716826150897,36.03716826150897 0 0,0 0.4948195122059955,0.3713217868131276 l -9.128426891113884 11.949403826907915" fill="#ff4a06" stroke="none" /><path d="M 112.7482090630111 83.31218511350987 l 9.213223054923208 -12.060404727327748 a36.176852152100516,36.176852152100516 0 0,0 0.49026535032807284,0.3812333017585702 l -9.418898349886508 11.900470373948387" fill="#ff4c07" stroke="none" /><path d="M 113.31354834802062 83.75963576809568 l 20.7916677985213 -25.362454036300868 a53.79554123028833,53.79554123028833 0 0,0 0.7091422152474248,0.5915916574762728 l -21.223984347930617 25.001800194912725" fill="#abff21" stroke="none" /><path d="M 113.59037401385872 83.9905735841838 l 9.800793381238327 -11.545309959354329 a36.14429704407871,36.14429704407871 0 0,0 0.4695669487224413,0.40560074649405836 l -9.997539809723628 11.37536508039555" fill="#ff4c07" stroke="none" /><path d="M 114.65682725009322 84.96080404539774 l 14.350649402445475 -14.725030510119488 a41.56131469035622,41.56131469035622 0 0,0 0.5066682081310704,0.5023377366471278 l -14.601309530706507 14.476512763243703" fill="#ffa30f" stroke="none" /><path d="M 114.91283532996326 85.21462403516908 l 10.510561034152113 -10.42072771896047 a35.80079252760972,35.80079252760972 0 0,0 0.4289500918670474,0.44014058269617035 l -10.687897927169972 10.238764444196557" fill="#ff4606" stroke="none" /><path d="M 115.16444852881244 85.47280134310134 l 10.791813386345456 -10.338313103423884 a35.944696517163905,35.944696517163905 0 0,0 0.42302485963512537,0.4492377414587162 l -10.967694079716841 10.151533902020674" fill="#ff4906" stroke="none" /><path d="M 115.6541949942343 86.00192230759917 l 17.31786392924606 -15.485740712780077 a44.231800973995455,44.231800973995455 0 0,0 0.5012704406188844,0.5703537444786785 l -17.581145433823533 15.1861746904901" fill="#ffcb12" stroke="none" /><path d="M 116.1254893667686 86.54754324733833 l 12.995653245292953 -10.841436143647643 a37.92405805144507,37.92405805144507 0 0,0 0.41274590928746224,0.5034828977846046 l -13.179845973819043 10.616750964164543" fill="#ff6909" stroke="none" /><path d="M 116.57777611688842 87.10902102172516 l 12.0447056748544 -9.366035984517755 a36.25770509798742,36.25770509798742 0 0,0 0.37785366982691515,0.49462258306918355 l -12.203711322035623 9.157892488207688" fill="#ff4e07" stroke="none" /><path d="M 116.7966241395341 87.39550010848427 l 12.33064523646901 -9.253146064010432 a36.41640438070978,36.41640438070978 0 0,0 0.37092358814535914,0.503229085256918 l -12.487670844198195 9.040110669484639" fill="#ff5007" stroke="none" /><path d="M 117.01052211995028 87.68569379921539 l 13.403067472783981 -9.702787235205728 a37.54648898744598,37.54648898744598 0 0,0 0.373471173937551,0.5253339772196403 l -13.567653745251492 9.471276031276584" fill="#ff6309" stroke="none" /><path d="M 117.21940702142032 87.97951657250589 l 12.091299669218932 -8.440666226770146 a35.745995186578355,35.745995186578355 0 0,0 0.3469238422273648,0.5061722537543637 l -12.234413248261621 8.231859237945734" fill="#ff4506" stroke="none" /><path d="M 117.42321728460499 88.27688183743584 l 12.506672639815461 -8.415047507133748 a36.07414624669757,36.07414624669757 0 0,0 0.3412881545723089,0.516753764892674 l -12.649285233308493 8.199113863902015" fill="#ff4b06" stroke="none" /><path d="M 117.81537515405839 88.88188828441811 l 12.471725359484314 -7.783279029137639 a35.701134850337844,35.701134850337844 0 0,0 0.3200046325776794,0.522703518033859 l -12.603497956517396 7.568038394979225" fill="#ff4506" stroke="none" /><line stroke="#e1ed5e" stroke-width="0.3" x1="172.87174338648825" x2="177.1583165268699" y1="56.24261187166439" y2="53.66864786411523" /><path d="M 173.72905801456457 55.72781907015455 a86.0,86.0 0 0,1 12.242430191666344,42.057860355516425" fill="none" id="id99" stroke="none" /><text fill="#e1ed5e" style="font-size:6.75px; font-family:Arial;" text-anchor="middle"><textPath startOffset="22.145653131862474" xlink:href="#id99">March</textPath></text><path d="M 118.18653347947321 89.5 l 15.388700631444857 -8.884670452043254 a38.769340904086505,38.769340904086505 0 0,0 0.3278162573656079,0.5792199160179275 l -15.53895025383184 8.619193765926209" fill="#ff770a" stroke="none" /><path d="M 118.36410011445183 89.81374322990088 l 16.504706442097294 -9.15488244381805 a39.87371736833886,39.87371736833886 0 0,0 0.32687837490871763,0.6014193927533854 l -16.659430166621355 8.870208217590061" fill="#ff880c" stroke="none" /><path d="M 118.70294669586156 90.45014215332178 l 13.093109471829095 -6.685434988414493 a35.701175348441275,35.701175348441275 0 0,0 0.27401516862403624,0.548213892732587 l -13.205944553664867 6.4596892395181555" fill="#ff4506" stroke="none" /><path d="M 118.8641267826498 90.77261029715802 l 13.975631276578833 -6.8361815851889185 a36.55800913499425,36.55800913499425 0 0,0 0.27091354805219625,0.5661051200042795 l -14.09092408259094 6.595263963119535" fill="#ff5307" stroke="none" /><path d="M 119.0197475246899 91.09779779509293 l 14.028174055643625 -6.565893782073587 a36.488725851176575,36.488725851176575 0 0,0 0.2606607493010273,0.5695907789982646 l -14.138819269799704 6.324114020860638" fill="#ff5207" stroke="none" /><path d="M 119.31412917781788 91.75594674310238 l 13.681267213972353 -5.83971943520874 a35.87546287219559,35.87546287219559 0 0,0 0.23690473884116553,0.568485131076816 l -13.77949779735 5.604001794690646" fill="#ff4706" stroke="none" /><path d="M 119.4528033332814 92.08871423366111 l 18.892044740271306 -7.683230128329997 a41.39464095475305,41.39464095475305 0 0,0 0.2620504008488763,0.6605381941308304 l -19.021153816086304 7.357790916985602" fill="#ffa00e" stroke="none" /><path d="M 119.58574465831526 92.42381321644754 l 14.192018563368805 -5.489777659593699 a36.21680155797462,36.21680155797462 0 0,0 0.21931742326455875,0.5817655216865946 l -14.284166670447803 5.245343857712947" fill="#ff4d07" stroke="none" /><path d="M 119.71291397450082 92.76114493625339 l 13.697722324551245 -5.029993370799134 a35.59206737206188,35.59206737206188 0 0,0 0.20568796400275932,0.5753458429976349 l -13.782050458597949 4.794112571420582" fill="#ff4306" stroke="none" /><path d="M 119.94978838288452 93.4421083053983 l 14.021734813187281 -4.609222740136797 a35.75987741952969,35.75987741952969 0 0,0 0.18669258688859908,0.584811869393649 l -14.098792115853138 4.367841837051761" fill="#ff4506" stroke="none" /><path d="M 120.26092885502905 94.47779374421319 l 26.00048597391109 -7.0865480712149305 a47.948922695447166,47.948922695447166 0 0,0 0.2096293089296598,0.7959966307597364 l -26.11830476364548 6.639170936082396" fill="#fcff18" stroke="none" /><path d="M 120.35273937422433 94.82641323984039 l 15.145699382112358 -3.8499775561362455 a36.62736500361054,36.62736500361054 0 0,0 0.1496707041976406,0.6107075483794064 l -15.209557612826291 3.589414183148744" fill="#ff5407" stroke="none" /><path d="M 120.51834098615036 95.52812308129327 l 14.31237518143071 -3.1193155562095614 a35.64835188248988,35.64835188248988 0 0,0 0.1251805272930141,0.5990341389580791 l -14.36381341954809 2.873164965966078" fill="#ff4406" stroke="none" /><path d="M 120.77682067341334 96.94652285012252 l 62.330462020240034 -9.160431449632455 a84.0,84.0 0 0,0 0.19742193377914985,1.4284467671996575 l -62.478528470574396 8.089096374232712" fill="#4dd2ff" stroke="none" /><path d="M 120.86939407059847 97.66154086499901 l 14.31319733023068 -1.6038236153250132 a35.40277292757186,35.40277292757186 0 0,0 0.0624902900923777,0.604536870022454 l -14.338620012804725 1.3578822230196277" fill="#ff4006" stroke="none" /><path d="M 120.93736805541906 98.37931529534042 l 14.667423307810468 -1.1353513272926998 a35.711299369086575,35.711299369086575 0 0,0 0.04206457562093698,0.6116096976231031 l -14.684751844596471 0.8833982055152627" fill="#ff4506" stroke="none" /><path d="M 120.96210409425399 98.7389718711861 l 14.636376513348639 -0.8804880657139376 a35.662836583498034,35.662836583498034 0 0,0 0.03151645535522456,0.6114108142026438 l -14.649334558160435 0.6291054581345631" fill="#ff4406" stroke="none" /><path d="M 120.99303781780057 99.45929381324524 l 25.608426695567246 -0.6595822323345728 a46.61691953657685,46.61691953657685 0 0,0 0.013737714057694656,0.8001529721419527 l -25.61597584122361 0.21988234422355368" fill="#ffef16" stroke="none" /><line stroke="#e1ed5e" stroke-width="0.3" x1="184.99686870605535" x2="189.99668451229388" y1="99.2704041080226" y2="99.22748670261217" /><path d="M 185.99683186730306 99.26182062694052 a86.0,86.0 0 0,1 -10.086455211305974,41.156179273409016" fill="none" id="id100" stroke="none" /><text fill="#e1ed5e" style="font-size:6.75px; font-family:Arial;" text-anchor="middle"><textPath startOffset="21.40746469413373" xlink:href="#id100">April</textPath></text><path d="M 120.99922638620191 99.81974689727618 l 14.818636712593642 -0.1272001737805614 a35.819182632791794,35.819182632791794 0 0,0 0.0,0.6149065530087747 l -14.818636712593642 -0.1272001737805596" fill="#ff4606" stroke="none" /><path d="M 120.99922638620191 100.18025310272382 l 14.446215744967787 0.12400338768475945 a35.446747945136735,35.446747945136735 0 0,0 -0.010445934488725736,0.60842331503293 l -14.441958378880393 -0.37197361868676054" fill="#ff4006" stroke="none" /><path d="M 120.96210409425399 101.26102812881392 l 14.410940383046144 0.8669263879222363 a35.43699290315632,35.43699290315632 0 0,0 -0.041741468221226305,0.6069117869436207 l -14.393934953659851 -1.1141815990202004" fill="#ff4006" stroke="none" /><path d="M 120.93736805541906 101.62068470465957 l 14.369810588120677 1.1123142205543175 a35.412796372103244,35.412796372103244 0 0,0 -0.052118154571633275,0.6056919576395793 l -14.348598810851302 -1.358827225569554" fill="#ff4006" stroke="none" /><path d="M 120.9064616781168 101.97986365728391 l 59.58369346861693 5.642637720410549 a80.85027892838849,80.85027892838849 0 0,0 -0.1427107812888252,1.3805973521849388 l -59.47805029484644 -6.664639594878419" fill="#48f5ff" stroke="none" /><path d="M 120.82617615685814 102.69636545807757 l 14.208311944101384 1.8395504414789121 a35.32690036705914,35.32690036705914 0 0,0 -0.08302744029629171,0.6007451979108346 l -14.174639987249881 -2.083183947589832" fill="#ff3e05" stroke="none" /><path d="M 120.77682067341334 103.0534771498775 l 14.008902625920864 2.058826262953956 a35.159382697122126,35.159382697122126 0 0,0 -0.09288524235123574,0.5963898872718939 l -13.971495891431362 -2.299004332157301" fill="#ff3c05" stroke="none" /><path d="M 120.65975698304385 103.76489593502545 l 14.365814062621206 2.617929872654554 a35.60240290157556,35.60240290157556 0 0,0 -0.11473079085781096,0.6003199783856374 l -14.318756979481236 -2.864152416073506" fill="#ff4306" stroke="none" /><path d="M 120.51834098615036 104.47187691870673 l 22.17944932789772 4.833907750436502 a43.7001021281516,43.7001021281516 0 0,0 -0.16603778564987176,0.7315931196007904 l -22.093200680690185 -5.21393520397631" fill="#ffc312" stroke="none" /><path d="M 120.35273937422433 105.17358676015961 l 14.299081930183352 3.6347707105276825 a35.753823306662106,35.753823306662106 0 0,0 -0.1563131943333611,0.5935466594244027 l -14.234579255045261 -3.879697874324888" fill="#ff4506" stroke="none" /><path d="M 120.05942366710727 106.21446072829308 l 15.203265150001243 4.710010406302677 a36.916138641288654,36.916138641288654 0 0,0 -0.1927291120163784,0.6037211983790771 l -15.12017132220761 -4.970300638373137" fill="#ff5908" stroke="none" /><path d="M 119.83427380445688 106.89939002012753 l 18.878129909865038 6.5667935404585585 a40.98766035074514,40.98766035074514 0 0,0 -0.23686930906966858,0.6625656147052226 l -18.76262043075143 -6.889894111544702" fill="#ff9a0e" stroke="none" /><path d="M 119.71291397450082 107.23885506374661 l 13.828925273117783 5.078172910862965 a35.73183675995964,35.73183675995964 0 0,0 -0.21638063080086195,0.5739753307647028 l -13.739713958502481 -5.314816521821827" fill="#ff4506" stroke="none" /><path d="M 119.4528033332814 107.91128576633889 l 15.145135183995373 6.159394631077547 a37.34971748877764,37.34971748877764 0 0,0 -0.24664002521700457,0.591846274372274 l -15.037169314241883 -6.4184734148911" fill="#ff6008" stroke="none" /><path d="M 119.31412917781788 108.2440532568976 l 14.324232242972599 6.114162973025005 a36.574550337371726,36.574550337371726 0 0,0 -0.251434564246735,0.5753314884441217 l -14.217163796708897 -6.359156531244971" fill="#ff5307" stroke="none" /><path d="M 118.8641267826498 109.22738970284198 l 14.178480769598126 6.935405437142376 a36.783826073275385,36.783826073275385 0 0,0 -0.2823247751854795,0.564838672240225 l -14.057336081200914 -7.1777759655463464" fill="#ff5608" stroke="none" /><path d="M 118.70294669586154 109.54985784667822 l 13.783635297884896 7.038022395389896 a36.47650998329753,36.47650998329753 0 0,0 -0.2895399945795432,0.5552311168855792 l -13.660787234330403 -7.273599755379978" fill="#ff5107" stroke="none" /><path d="M 118.5362547648365 109.86951160357373 l 14.076086045309513 7.494722980427799 a36.94700821183427,36.94700821183427 0 0,0 -0.30288568006988237,0.5572755366034593 l -13.945355015624292 -7.735253350505862" fill="#ff5908" stroke="none" /><line stroke="#e1ed5e" stroke-width="0.3" x1="174.33088141563837" x2="178.70328620479359" y1="141.23008692659167" y2="143.65538615756765" /><path d="M 175.20536237346943 141.71514677278685 a86.0,86.0 0 0,1 -30.301960400862466,31.631185727798858" fill="none" id="id101" stroke="none" /><text fill="#e1ed5e" style="font-size:6.75px; font-family:Arial;" text-anchor="middle"><textPath startOffset="22.145653131862474" xlink:href="#id101">May</textPath></text><path d="M 118.00360718960297 110.81064883170644 l 13.43665056100178 8.068322595553417 a36.672951470746895,36.672951470746895 0 0,0 -0.3287154430841357,0.5369319723533337 l -13.296167153462239 -8.297791684031306" fill="#ff5507" stroke="none" /><path d="M 117.81537515405839 111.11811171558189 l 13.017852226584438 8.124102585576566 a36.344885773904,36.344885773904 0 0,0 -0.3348615427203952,0.5264579641803462 l -12.876472992238153 -8.346374224435584" fill="#ff4f07" stroke="none" /><path d="M 117.62189284568427 111.42229804090321 l 12.415171546574452 8.047364200642326 a35.795153095140705,35.795153095140705 0 0,0 -0.3386486726235984,0.5127572528072458 l -12.275198435030129 -8.259301331788633" fill="#ff4606" stroke="none" /><path d="M 117.423217284605 111.72311816256416 l 13.073028776410254 8.796117191506022 a36.75676867367032,36.75676867367032 0 0,0 -0.35673365224757797,0.5204850597435753 l -12.920105387347357 -9.019236986319642" fill="#ff5608" stroke="none" /><path d="M 117.21940702142032 112.02048342749411 l 12.63895120263246 8.822969529854277 a36.41388590937605,36.41388590937605 0 0,0 -0.3622052843010129,0.5094870925798374 l -12.485630819801488 -9.038633849143618" fill="#ff5007" stroke="none" /><path d="M 116.79662413953412 112.60449989151573 l 12.014423830252639 9.015847625512432 a36.021048178452816,36.021048178452816 0 0,0 -0.37538738892760637,0.4913941422033106 l -11.857884463970729 -9.22076268095662" fill="#ff4a06" stroke="none" /><path d="M 116.35404254752997 113.17365903436017 l 12.220166712840273 9.843701283650498 a36.691747176504975,36.691747176504975 0 0,0 -0.3993340726134437,0.48712263777644543 l -12.049385820988201 -10.052026203125436" fill="#ff5507" stroke="none" /><path d="M 115.89218393027572 113.72728997021213 l 10.873920135889149 9.39263322606719 a35.368844700988205,35.368844700988205 0 0,0 -0.40082827235248586,0.4560689949060338 l -10.711080799578077 -9.577914498784516" fill="#ff3f05" stroke="none" /><path d="M 115.6541949942343 113.99807769240083 l 10.938781498120346 9.781525867493194 a35.67430369591888,35.67430369591888 0 0,0 -0.41212705226166396,0.45299982446883996 l -10.7692567450168 -9.967863267519707" fill="#ff4406" stroke="none" /><path d="M 115.41159269507618 114.26474011684316 l 10.434272783533096 9.657807113790552 a35.217850989807246,35.217850989807246 0 0,0 -0.41447078192745446,0.4401536073655741 l -10.266946167869381 -9.835502181100624" fill="#ff3c05" stroke="none" /><path d="M 115.16444852881244 114.52719865689866 l 10.764232755551882 10.311891483022748 a35.90650236552268,35.90650236552268 0 0,0 -0.4302166628416796,0.44144019609495555 l -10.585629291559396 -10.495154371185441" fill="#ff4806" stroke="none" /><path d="M 114.65682725009322 115.03919595460226 l 10.792504719400398 11.074060609877217 a36.46327832348348,36.46327832348348 0 0,0 -0.4520187906263669,0.43302377634134576 l -10.60081344290872 -11.257696516524142" fill="#ff5107" stroke="none" /><path d="M 114.13192950727249 115.5334660781643 l 10.290730997690765 11.311316037196612 a36.291991857183774,36.291991857183774 0 0,0 -0.46442511706030803,0.41529180346271344 l -10.09504085380708 -11.486303370542712" fill="#ff4e07" stroke="none" /><path d="M 113.31354834802062 116.24036423190432 l 9.061700597494726 11.053801317036495 a35.293388026467134,35.293388026467134 0 0,0 -0.4718376904754191,0.3800790438093811 l -8.870612136664056 -11.20772865463928" fill="#ff3e05" stroke="none" /><path d="M 113.03279911837588 116.46651593811092 l 8.98716757245144 11.354992640190959 a35.48119604294181,35.48119604294181 0 0,0 -0.4808378831556688,0.3739024462637856 l -8.79091974466054 -11.507596138075538" fill="#ff4106" stroke="none" /><path d="M 112.45986205192187 116.90419585922612 l 10.667479278918128 14.472484390567866 a38.979096712609845,38.979096712609845 0 0,0 -0.5420303065977008,0.39238814179142617 l -10.417467961946459 -14.653473303732369" fill="#ff7a0b" stroke="none" /><path d="M 112.16784306229584 117.11559508785304 l 8.524179415776613 11.990325860524067 a35.71154475076978,35.71154475076978 0 0,0 -0.5026908538140736,0.3509172569013679 l -8.31709347078878 -12.134887933230557" fill="#ff4506" stroke="none" /><path d="M 111.5731344415666 117.5232005979908 l 8.386816689041474 12.698709408646332 a36.21827568487401,36.21827568487401 0 0,0 -0.5217404175976658,0.3381858351979137 l -8.167590639186798 -12.840809085548141" fill="#ff4d07" stroke="none" /><path d="M 111.27062007382361 117.71928675628689 l 8.451324988556497 13.286886609780094 a36.746944143018766,36.746944143018766 0 0,0 -0.5351682702998013,0.3339845815412111 l -8.22199258946698 -13.430006988162852" fill="#ff5607" stroke="none" /><path d="M 110.96478420261333 117.91015095944535 l 8.211778802158204 13.41332353418988 a36.72738246907053,36.72738246907053 0 0,0 -0.5405348027893503,0.32457561824866 l -7.980311242811417 -13.552313152974463" fill="#ff5507" stroke="none" /><line stroke="#e1ed5e" stroke-width="0.3" x1="143.1302829299769" x2="145.66735839644613" y1="173.24464959558577" y2="177.55315839532614" /><path d="M 143.63769802327073 174.10635135553383 a86.0,86.0 0 0,1 -40.68552437913181,11.842963189579606" fill="none" id="id102" stroke="none" /><text fill="#e1ed5e" style="font-size:6.75px; font-family:Arial;" text-anchor="middle"><textPath startOffset="21.407464694133747" xlink:href="#id102">June</textPath></text><path d="M 110.02825361518725 118.45085714620011 l 7.195003188014468 13.237995475848408 a36.066937150400584,36.066937150400584 0 0,0 -0.5465191800752814,0.2909906805748519 l -6.966695192152632 -13.359556624145828" fill="#ff4b06" stroke="none" /><path d="M 109.71004243097381 118.62028667847754 l 7.231973857012398 13.868263442317499 a36.64065781142311,36.64065781142311 0 0,0 -0.5602056096074072,0.2860449758885427 l -6.992841025691408 -13.990366369878878" fill="#ff5407" stroke="none" /><path d="M 109.3889696526874 118.78422872680471 l 6.972463070876208 13.94959680959772 a36.59507910929186,36.59507910929186 0 0,0 -0.564330537951806,0.2760423450761125 l -6.7319722836623335 -14.067232904771055" fill="#ff5307" stroke="none" /><path d="M 108.73861861582097 119.09545874513695 l 6.510832099549276 14.227343155629457 a36.646348708134994,36.646348708134994 0 0,0 -0.5742772473393446,0.2568669082231964 l -6.2656414493543044 -14.337013814762503" fill="#ff5407" stroke="none" /><path d="M 108.07796709384702 119.3841803445677 l 5.795666874710409 13.907490660861447 a36.066786352920914,36.066786352920914 0 0,0 -0.5735401143693061,0.23325377147422696 l -5.556072299150661 -14.004931688914965" fill="#ff4b06" stroke="none" /><path d="M 107.74402155503746 119.51999308798841 l 5.503046940053612 13.871273145262126 a35.922993811394,35.922993811394 0 0,0 -0.5751574730316167,0.22248326635839905 l -5.264117204528466 -13.963696299758565" fill="#ff4806" stroke="none" /><path d="M 107.06938296918513 119.77432235084164 l 5.467791432008725 15.294385775251557 a37.24238219554525,37.24238219554525 0 0,0 -0.6038483891845907,0.21004981533904754 l -5.2044372707791124 -15.385994023159196" fill="#ff5e08" stroke="none" /><path d="M 106.72888874123015 119.89276391827305 l 5.558191419132823 16.43180530477412 a38.34640358765253,38.34640358765253 0 0,0 -0.625370062940683,0.20557156111639174 l -5.275298618544406 -16.52479778729253" fill="#ff700a" stroke="none" /><path d="M 106.38641147887787 120.00534299687104 l 5.225450936921011 16.368650634580398 a38.18249286602843,38.18249286602843 0 0,0 -0.6261190037490129,0.1939732678569701 l -4.943691300300374 -16.455940490244014" fill="#ff6d0a" stroke="none" /><path d="M 105.3480935250658 120.30758222061773 l 4.383956098454624 16.646595371544176 a38.214186258347894,38.214186258347894 0 0,0 -0.6358016382078816,0.16161829014947518 l -4.097549167021346 -16.719398893528922" fill="#ff6e0a" stroke="none" /><path d="M 104.9986988182912 120.39639698878246 l 3.5274198554146987 14.393076745069164 a35.819019840253425,35.819019840253425 0 0,0 -0.5984639212618218,0.14123585588501694 l -3.2798237804129977 -14.451508744600407" fill="#ff4606" stroke="none" /><path d="M 103.94208987418118 120.62667999033965 l 3.7954800764016334 19.859555576953426 a41.21899148633442,41.21899148633442 0 0,0 -0.696140218964643,0.12685993754616046 l -3.4540051238859335 -19.92178368843095" fill="#ff9d0e" stroke="none" /><path d="M 103.2317021107853 120.74984581791261 l 3.332178827602238 21.394978417010623 a42.652910132438805,42.652910132438805 0 0,0 -0.7244391531910711,0.10646760808674596 l -2.9644145688034818 -21.44902709839625" fill="#ffb310" stroke="none" /><path d="M 102.875027216393 120.80226474461374 l 2.39706949215557 17.344000746405783 a38.50886358509733,38.50886358509733 0 0,0 -0.6556082278788097,0.08488161083290008 l -2.098983442385985 -17.382593953439077" fill="#ff720a" stroke="none" /><path d="M 102.15924093988457 120.88869738790638 l 1.7620929971705168 17.046651305718417 a38.13748209246121,38.13748209246121 0 0,0 -0.6517885225895472,0.06172505075120238 l -1.4692049111959544 -17.0743881119748" fill="#ff6c0a" stroke="none" /><path d="M 101.80034050326958 120.92268563240118 l 1.4769817086896302 17.16476628704309 a38.22819423667538,38.22819423667538 0 0,0 -0.6543046801150365,0.05064732035291093 l -1.182108033799358 -17.187591374391054" fill="#ff6e0a" stroke="none" /><path d="M 101.44090949804482 120.95050786540614 l 1.2076072348175397 17.558344160890055 a38.59982286575196,38.59982286575196 0 0,0 -0.6614459173774885,0.03979094387432234 l -0.9060169653075862 -17.576487082589068" fill="#ff740a" stroke="none" /><path d="M 100.72087961077811 120.9876233191556 l 0.6720665454492275 19.566484181831232 a40.578022798009094,40.578022798009094 0 0,0 -0.6963704360826809,0.017936032237496864 l -0.33608279529580276 -19.575137931418773" fill="#ff930d" stroke="none" /><line stroke="#e1ed5e" stroke-width="0.3" x1="101.45913802915013" x2="101.54496967792366" y1="184.9874750549273" y2="189.98673829345242" /><path d="M 101.47630435890484 185.9873277026323 a86.0,86.0 0 0,1 -42.54439059252881,-10.42667462771756" fill="none" id="id103" stroke="none" /><text fill="#e1ed5e" style="font-size:6.75px; font-family:Arial;" text-anchor="middle"><textPath startOffset="22.145653131862474" xlink:href="#id103">July</textPath></text><path d="M 100.36049292484886 120.99690560180557 l 0.29970242419607057 17.45616370173034 a38.4587362865895,38.4587362865895 0 0,0 -0.6601953490449207,0.005666983053593854 l -2.138078551052958e-15 -17.4587362865895" fill="#ff720a" stroke="none" /><path d="M 100.0 121.0 l 1.8792927608973018e-15 15.345589946470596 a36.3455899464706,36.3455899464706 0 0,0 -0.6239203821504867,-0.005355606090763345 l 0.2634274573016327 -15.343328738574268" fill="#ff4f07" stroke="none" /><path d="M 99.27912038922189 120.98762331915562 l -0.6026907763926592 17.546684361353208 a38.55703187469072,38.55703187469072 0 0,0 -0.6612976013788546,-0.02839896439166308 l 0.9038141383723526 -17.533752828535718" fill="#ff730a" stroke="none" /><path d="M 98.91894614982273 120.97215588758144 l -0.8841665914350813 17.15259566683701 a38.175368661877556,38.175368661877556 0 0,0 -0.6541724772572692,-0.039353391778233014 l 1.1784834208247967 -17.134890297234083" fill="#ff6d0a" stroke="none" /><path d="M 97.84075906011543 120.88869738790638 l -1.7859262728396914 17.277216628012873 a38.3692759510379,38.3692759510379 0 0,0 -0.6545873359442251,-0.07334787633107566 l 2.082249510384716 -17.244012991174824" fill="#ff700a" stroke="none" /><path d="M 97.48249496171623 120.84855314841334 l -2.1325036718900066 17.660189539439553 a38.788475664866695,38.788475664866695 0 0,0 -0.6603685859637654,-0.0854979344926868 l 2.435350079744566 -17.62098000874647" fill="#ff770a" stroke="none" /><path d="M 96.76829788921471 120.74984581791261 l -2.737801233628534 17.57864788598312 a38.79057101653111,38.79057101653111 0 0,0 -0.6570799419046625,-0.10812225439216738 l 3.0391586785862597 -17.529059633095287" fill="#ff770a" stroke="none" /><path d="M 96.41257539226777 120.69131181640829 l -4.556846429991764 26.28267927337702 a47.67478358250973,47.67478358250973 0 0,0 -0.8051709439136429,-0.1467289676364066 l 5.007352107456464 -26.20058213180925" fill="#fffe18" stroke="none" /><path d="M 95.35216902796893 120.47920084513623 l -6.841054022940913 30.142946284256027 a51.90950065659975,51.90950065659975 0 0,0 -0.8673035569437633,-0.20468127789357837 l 7.357489733624564 -30.02106886271622" fill="#c5ff1e" stroke="none" /><path d="M 95.00130118170881 120.39639698878247 l -4.479125250053278 18.276359525456876 a39.81722297549304,39.81722297549304 0 0,0 -0.6624727117191479,-0.1683979727396216 l 4.792203254997805 -18.19677632088199" fill="#ff870c" stroke="none" /><path d="M 94.30408787586889 120.21278271476187 l -5.182003795437762 18.389103353702605 a40.10529469778176,40.10529469778176 0 0,0 -0.661049819529628,-0.19242196822178026 l 5.496913627348997 -18.29743769117831" fill="#ff8c0c" stroke="none" /><path d="M 93.95794788825049 120.11202640906438 l -5.24417581326621 17.456155706615885 a39.226868958053785,39.226868958053785 0 0,0 -0.6432447508963219,-0.19927886810031506 l 5.543061197034166 -17.36356025070892" fill="#ff7e0b" stroke="none" /><path d="M 92.93061703081489 119.77432235084164 l -6.319355494788161 17.676362017477153 a39.77200117308803,39.77200117308803 0 0,0 -0.6409179360665762,-0.23535394376208854 l 6.621862582508856 -17.565277224706346" fill="#ff860c" stroke="none" /><path d="M 92.59220618246901 119.65005319985036 l -5.949428883942304 15.781566949329259 a37.86575107788706,37.86575107788706 0 0,0 -0.6062626578048196,-0.23451542004414772 l 6.219463804240652 -15.67711164114707" fill="#ff6809" stroke="none" /><path d="M 91.92203290615298 119.3841803445677 l -6.991737611663844 16.777625015286503 a39.17616835265129,39.17616835265129 0 0,0 -0.6185449197598742,-0.26402004529100703 l 7.278717606594149 -16.65513032033609" fill="#ff7d0b" stroke="none" /><path d="M 91.59046798132341 119.24265499422711 l -6.961804233516705 15.929970503161663 a38.384782955717675,38.384782955717675 0 0,0 -0.6015198859534355,-0.2690521939629035 l 7.234237522325777 -15.808114558288905" fill="#ff700a" stroke="none" /><path d="M 91.26138138417905 119.09545874513695 l -8.789764197976044 19.20722107245381 a42.1229092688989,42.1229092688989 0 0,0 -0.6549335848029867,-0.3065419872231393 l 9.11818649665052 -19.053502853660145" fill="#ffab0f" stroke="none" /><path d="M 90.6110303473126 118.78422872680471 l -8.061055393249658 16.127510673431907 a39.02989779712296,39.02989779712296 0 0,0 -0.5967351296170097,-0.3046972090885807 l 8.33671774458025 -15.98675551267049" fill="#ff7b0b" stroke="none" /><path d="M 90.28995756902619 118.62028667847754 l -8.650462309194522 16.588402084089847 a39.708436114925036,39.708436114925036 0 0,0 -0.6016984990187595,-0.320370559924754 l 8.933949623999844 -16.43746105644252" fill="#ff850c" stroke="none" /><path d="M 89.97174638481275 118.45085714620012 l -7.853674430509727 14.449876374351525 a37.44624970303214,37.44624970303214 0 0,0 -0.5621498976494618,-0.3118150720729316 l 8.100568516315292 -14.312928386845444" fill="#ff6109" stroke="none" /><line stroke="#e1ed5e" stroke-width="0.3" x1="58.13341422392154" x2="55.67067388415222" y1="173.97424548756322" y2="178.32567169271397" /><path d="M 57.64086615596768 174.84453072859336 a86.0,86.0 0 0,1 -31.369924170532247,-30.572349798747897" fill="none" id="id104" stroke="none" /><text fill="#e1ed5e" style="font-size:6.75px; font-family:Arial;" text-anchor="middle"><textPath startOffset="22.145653131862474" xlink:href="#id104">August</textPath></text><path d="M 89.65649057296885 118.27599006163327 l -9.895673422401098 17.484706752269126 a41.090777055546184,41.090777055546184 0 0,0 -0.6108976237243136,-0.35270190750453784 l 10.194363513985811 -17.312257947488416" fill="#ff9b0e" stroke="none" /><path d="M 89.03521579738668 117.91015095944536 l -11.078576554149537 18.096022213852546 a42.21793765733128,42.21793765733128 0 0,0 -0.6148457021015006,-0.3837091919028453 l 11.38758638504075 -17.903177225108152" fill="#ffad10" stroke="none" /><path d="M 88.4268655584334 117.5232005979908 l -10.99700245143269 16.650863334044736 a40.95458124556494,40.95458124556494 0 0,0 -0.5833174890467253,-0.3924820392630503 l 11.281216228576422 -16.459631620724565" fill="#ff990e" stroke="none" /><path d="M 88.1277618465304 117.32195027204791 l -10.897082322924787 15.899168772397974 a40.27511273133817,40.27511273133817 0 0,0 -0.5669295727101685,-0.39576087172116575 l 11.16840698680872 -15.709763084871678" fill="#ff8e0d" stroke="none" /><path d="M 87.83215693770417 117.11559508785305 l -11.205695836966898 15.7622145224298 a40.339468085800966,40.339468085800966 0 0,0 -0.5609471767841776,-0.4060824969790081 l 11.47462402412503 -15.567531254077725" fill="#ff8f0d" stroke="none" /><path d="M 87.54013794807813 116.9041958592261 l -8.887221135391917 12.0572223103984 a35.97862842024348,35.97862842024348 0 0,0 -0.4940157127651126,-0.370718600727564 l 9.092889837067796 -11.902884682406821" fill="#ff4906" stroke="none" /><path d="M 86.96720088162412 116.46651593811092 l -11.589656482898063 14.643152361935103 a39.67463650212305,39.67463650212305 0 0,0 -0.5304106492574312,-0.42726127324196955 l 11.839317902510755 -14.442042794899722" fill="#ff850c" stroke="none" /><path d="M 86.40962598614128 116.0094264158162 l -12.262773553877786 14.445516412162526 a39.94857671825885,39.94857671825885 0 0,0 -0.518990070619456,-0.44829126206385167 l 12.508943104260103 -14.232881017633952" fill="#ff890c" stroke="none" /><path d="M 86.13680546590413 115.77377054828092 l -10.793494298515277 12.281015177290236 a37.350010793785884,37.350010793785884 0 0,0 -0.47796448327689794,-0.42739878822146044 l 11.002723808615546 -12.093920859185394" fill="#ff6008" stroke="none" /><path d="M 85.86807049272751 115.53346607816431 l -20.55678935883183 22.595512524815348 a51.54732025894364,51.54732025894364 0 0,0 -0.649423157574328,-0.6010963793260138 l 20.941642287720125 -22.239298399356958" fill="#caff1d" stroke="none" /><path d="M 85.34317274990678 115.03919595460226 l -10.843214226318691 11.126093031239126 a36.53593385984981,36.53593385984981 0 0,0 -0.44540448922470655,-0.44159763612349784 l 11.03261063567336 -10.938315384886968" fill="#ff5207" stroke="none" /><path d="M 84.83555147118756 114.52719865689866 l -10.815226331735742 10.360742175485528 a35.97711918339287,35.97711918339287 0 0,0 -0.4234064345310043,-0.4496429607750652 l 10.991488600002999 -10.173557754765973" fill="#ff4906" stroke="none" /><path d="M 84.58840730492382 114.26474011684316 l -14.109965945306067 13.059973829414988 a40.22638955713478,40.22638955713478 0 0,0 -0.4647149806376711,-0.5108031698031915 l 14.332078626785618 -12.815833084054121" fill="#ff8e0d" stroke="none" /><path d="M 84.3458050057657 113.99807769240083 l -12.577993194017438 11.247319073845286 a37.873295443914714,37.873295443914714 0 0,0 -0.4292107279561499,-0.4883630192874919 l 12.76921498593218 -11.029743776746495" fill="#ff6809" stroke="none" /><path d="M 84.1078160697243 113.72728997021213 l -13.719384306473302 11.850477405371262 a39.128853258932864,39.128853258932864 0 0,0 -0.4347130566210232,-0.5120908876291315 l 13.920791926601437 -11.613219735292576" fill="#ff7c0b" stroke="none" /><path d="M 83.8745106332314 113.45245675266167 l -13.094464477949362 10.92386798827289 a38.05273854222514,38.05273854222514 0 0,0 -0.4141464014526828,-0.5051912705093381 l 13.280057698640675 -10.697474436065058" fill="#ff6b09" stroke="none" /><path d="M 83.64595745247003 113.17365903436017 l -14.319124356682147 11.534472984113831 a39.38698967649081,39.38698967649081 0 0,0 -0.41962818031453586,-0.530186497656301 l 14.515018967638245 -11.286966542542851" fill="#ff800b" stroke="none" /><path d="M 83.4222238831116 112.89097897827486 l -14.85514559850187 11.551451067939942 a39.81784718100613,39.81784718100613 0 0,0 -0.4149551010272403,-0.5431895474823439 l 15.051252676883406 -11.294740607216728" fill="#ff870c" stroke="none" /><path d="M 82.98947788004972 112.3143062007846 l -15.879118951026413 11.495257557808133 a40.60324883740425,40.60324883740425 0 0,0 -0.40387645870307987,-0.5681028180004869 l 16.074110508259455 -11.220977513098141" fill="#ff940d" stroke="none" /><path d="M 82.78059297857968 112.02048342749411 l -17.295438502061273 12.073559305883851 a42.09272451086578,42.09272451086578 0 0,0 -0.40852044098664636,-0.5960435321808075 l 17.500148679863244 -11.774881038632993" fill="#ffab0f" stroke="none" /><path d="M 82.576782715395 111.72311816256416 l -15.609888356452478 10.503029533404318 a39.814415852757,39.814415852757 0 0,0 -0.37667387659952434,-0.5703322581278847 l 15.78788667197273 -10.233517396937373" fill="#ff870c" stroke="none" /><path d="M 82.37810715431573 111.42229804090323 l -15.392936528815188 9.97751548579491 a39.34375398465129,39.34375398465129 0 0,0 -0.3624914448120678,-0.5698967594732112 l 15.561945665253146 -9.711805051643028" fill="#ff800b" stroke="none" /><path d="M 82.18462484594161 111.11811171558189 l -15.535937718888068 9.695574169571822 a39.31309693314698,39.31309693314698 0 0,0 -0.3523802028232497,-0.5755865789114383 l 15.700085886166722 -9.427450474535828" fill="#ff7f0b" stroke="none" /><path d="M 81.99639281039703 110.81064883170644 l -16.502503097646045 9.90927895471005 a40.249062779524536,40.249062779524536 0 0,0 -0.3506005583339233,-0.5953963966542145 l 16.67017736610974 -9.624531389762277" fill="#ff8e0d" stroke="none" /><line stroke="#e1ed5e" stroke-width="0.3" x1="26.387840678322732" x2="22.057713659400548" y1="142.50000000000003" y2="145.00000000000006" /><path d="M 25.521815274538298 143.00000000000003 a86.0,86.0 0 0,1 -11.493303480769221,-40.785679425670985" fill="none" id="id105" stroke="none" /><text fill="#e1ed5e" style="font-size:6.75px; font-family:Arial;" text-anchor="middle"><textPath startOffset="21.40746469413373" xlink:href="#id105">September</textPath></text><path d="M 81.63589988554817 110.18625677009913 l -15.87487581597998 8.805526012557136 a39.153483702325744,39.153483702325744 0 0,0 -0.3209740141959894,-0.5905560340639625 l 16.0236951797913 -8.531715145018586" fill="#ff7d0b" stroke="none" /><path d="M 81.4637452351635 109.86951160357371 l -15.96576458974955 8.500870368774814 a39.08785327124295,39.08785327124295 0 0,0 -0.31026808292415875,-0.5949799593872741 l 16.10934074164866 -8.225544166283038" fill="#ff7c0b" stroke="none" /><path d="M 81.29705330413844 109.54985784667822 l -16.479223669067547 8.414409024543325 a39.50316437714026,39.50316437714026 0 0,0 -0.30319635536754697,-0.6065958139216467 l 16.62123993764683 -8.130281354457926" fill="#ff820c" stroke="none" /><path d="M 81.1358732173502 109.22738970284198 l -13.542129127545092 6.624133961026805 a36.07542410815476,36.07542410815476 0 0,0 -0.2673373461486631,-0.5586322334605262 l 13.653845731653666 -6.390689225501174" fill="#ff4b06" stroke="none" /><path d="M 80.9802524753101 108.90220220490708 l -14.359964549743752 6.721188486396618 a36.85506091251521,36.85506091251521 0 0,0 -0.26327769931383216,-0.5753092870605357 l 14.473226713912641 -6.473690217121393" fill="#ff5808" stroke="none" /><path d="M 80.68587082218212 108.24405325689762 l -14.430089111230696 6.159346975445916 a36.68964712547715,36.68964712547715 0 0,0 -0.2422812299704717,-0.5813867525442827 l 14.533696185737654 -5.910727713460352" fill="#ff5507" stroke="none" /><path d="M 80.5471966667186 107.91128576633889 l -16.54040904156132 6.726840362183103 a38.85596574034737,38.85596574034737 0 0,0 -0.24597921766631684,-0.6200283140369028 l 16.65344693419376 -6.441911030932635" fill="#ff780b" stroke="none" /><path d="M 80.41425534168474 107.57618678355246 l -16.163551262246532 6.252408860865776 a38.330695484333695,38.330695484333695 0 0,0 -0.23211849207903826,-0.615721877575467 l 16.268500438140006 -5.974018703096164" fill="#ff6f0a" stroke="none" /><path d="M 80.16572619554312 106.89939002012753 l -17.081121386661643 5.941700693939133 a39.08503566383618,39.08503566383618 0 0,0 -0.214994829406525,-0.635594011062749 l 17.180601637640535 -5.6476050084022225" fill="#ff7c0b" stroke="none" /><path d="M 80.05021161711548 106.5578916946017 l -17.061146993118985 5.608337894077263 a38.95929259895712,38.95929259895712 0 0,0 -0.20339586272398835,-0.6371346430456979 l 17.154907571620228 -5.314634217340173" fill="#ff7a0b" stroke="none" /><path d="M 79.94057633289273 106.21446072829308 l -16.90439958262788 5.237026201997771 a38.69703841577909,38.69703841577909 0 0,0 -0.19113329664026285,-0.6362205817797011 l 16.991809199271774 -4.946068016627346" fill="#ff750a" stroke="none" /><path d="M 79.83685265289637 105.86919833188381 l -17.784104935776995 5.176693758482229 a39.52221764897056,39.52221764897056 0 0,0 -0.18402581134634213,-0.6530426835225696 l 17.87034923919791 -4.8706431510566635" fill="#ff830c" stroke="none" /><path d="M 79.64726062577567 105.17358676015961 l -18.09637569971493 4.600027937540829 a39.67187913658904,39.67187913658904 0 0,0 -0.16211152745035023,-0.6614703526918146 l 18.172674753681573 -4.288701760240915" fill="#ff850c" stroke="none" /><path d="M 79.56144815229197 104.8234425847677 l -17.80861455177736 4.2027845438760565 a39.29781818075641,39.29781818075641 0 0,0 -0.1493113835860013,-0.6578935058790795 l 17.878136796921027 -3.8964567040579503" fill="#ff7f0b" stroke="none" /><path d="M 79.48165901384964 104.47187691870673 l -16.74986922717728 3.650556038567109 a38.14306502695067,38.14306502695067 0 0,0 -0.1339408062505894,-0.6409552450267503 l 16.81006774425224 -3.3624843422549495" fill="#ff6c0a" stroke="none" /><path d="M 79.407916724674 104.11899336999214 l -16.636221066282857 3.327710137800898 a37.96577455135652,37.96577455135652 0 0,0 -0.1223468919176203,-0.6401706373885147 l 16.690894250482636 -3.041636935379069" fill="#ff6a09" stroke="none" /><path d="M 79.2786578344484 103.40968896794605 l -30.89238811050977 5.083330707652005 a52.30782480872351,52.30782480872351 0 0,0 -0.13818857475623295,-0.8872697797298383 l 30.975098177404274 -4.552272745990717" fill="#bfff1e" stroke="none" /><path d="M 79.22317932658666 103.0534771498775 l -18.347002440356135 2.6963775450043617 a39.54408127709857,39.54408127709857 0 0,0 -0.09293891661005564,-0.6724597031208566 l 18.390585873521403 -2.381029533683419" fill="#ff830c" stroke="none" /><path d="M 79.17382384314188 102.69636545807758 l -24.28552073051028 3.144246871628008 a45.48821768814111,45.48821768814111 0 0,0 -0.0936145651546586,-0.775262892193837 l 24.335917381924602 -2.7268903025107716" fill="#ffde14" stroke="none" /><path d="M 79.0935383218832 101.97986365728391 l -21.353422629226408 2.0221913240575415 a42.44896071453002,42.44896071453002 0 0,0 -0.06247350456819253,-0.7260368214017411 l 21.38498975649234 -1.6553334552801384" fill="#ffb010" stroke="none" /><path d="M 79.06263194458094 101.62068470465958 l -14.95448763089035 1.1575719214207463 a35.99922241503586,35.99922241503586 0 0,0 -0.042403722080273834,-0.616540812709429 l 14.972155314135689 -0.9006876845569739" fill="#ff4906" stroke="none" /><path d="M 79.01933749520258 100.90099992219065 l -17.621869179138155 0.7567588847886373 a38.63811093559528,38.63811093559528 0 0,0 -0.022769462698976027,-0.662908062817693 l 17.63226332883398 -0.4541445574068245" fill="#ff740a" stroke="none" /><path d="M 79.00696218219943 100.54070618675478 l -23.475046640644035 0.6046339297397996 a44.482831962295464,44.482831962295464 0 0,0 -0.013108811823033835,-0.7635225698685624 l 23.481966884065734 -0.2015644439021848" fill="#ffcf13" stroke="none" /><line stroke="#e1ed5e" stroke-width="0.3" x1="15.003131293944662" x2="10.003315487706104" y1="100.72959589197737" y2="100.7725132973878" /><path d="M 14.003168132696942 100.73817937305945 a86.0,86.0 0 0,1 10.791469493833604,-42.45332614584628" fill="none" id="id106" stroke="none" /><text fill="#e1ed5e" style="font-size:6.75px; font-family:Arial;" text-anchor="middle"><textPath startOffset="22.145653131862435" xlink:href="#id106">October</textPath></text><path d="M 79.00077361379809 100.18025310272382 l -21.84839059037644 0.18754215612557143 a42.84919548747674,42.84919548747674 0 0,0 0.0,-0.7355905176987699 l 21.84839059037644 0.1875421561255634" fill="#ffb610" stroke="none" /><path d="M 79.00077361379809 99.81974689727619 l -61.07285418908973 -0.5242370007980844 a82.07510411972149,82.07510411972149 0 0,0 0.024187018851976383,-1.4087725905768926 l 61.054855738639084 1.5725565073440295" fill="#4ae7ff" stroke="none" /><path d="M 79.01933749520258 99.09900007780938 l -21.173258108481445 -0.9092708061006938 a42.19277311555055,42.19277311555055 0 0,0 0.037287181211627086,-0.7233613541549974 l 21.154529337813248 1.2726039536324032" fill="#ffac0f" stroke="none" /><path d="M 79.03789590574601 98.7389718711861 l -30.671373559854008 -1.845113669621419 a51.726822167317195,51.726822167317195 0 0,0 0.06092936580659997,-0.88589960667026 l 30.635180232882345 2.371356700446004" fill="#c7ff1e" stroke="none" /><path d="M 79.06263194458094 98.37931529534042 l -31.445786576156195 -2.4341027580482124 a52.53985335460365,52.53985335460365 0 0,0 0.07732459672298223,-0.8986290237591367 l 31.39936835673547 2.97355282918303" fill="#bcff1f" stroke="none" /><path d="M 79.0935383218832 98.0201363427161 l -21.23745228089729 -2.0112088114968496 a42.332471499262155,42.332471499262155 0 0,0 0.07472206851503836,-0.7228682304868045 l 21.19979781990059 2.375481564266567" fill="#ffae10" stroke="none" /><path d="M 79.13060592940154 97.66154086499901 l -15.53519013366991 -1.7407504577834594 a36.632413270047216,36.632413270047216 0 0,0 0.07538935603833725,-0.6243320161382724 l 15.503018691371906 2.007176150845168" fill="#ff5407" stroke="none" /><path d="M 79.17382384314186 97.30363454192245 l -18.03630921363037 -2.3351613271946734 a39.18684767830075,39.18684767830075 0 0,0 0.0920993243733316,-0.666384831938298 l 17.99356537270183 2.6444344673330384" fill="#ff7d0b" stroke="none" /><path d="M 79.2786578344484 96.59031103205396 l -19.476455959090792 -3.204843416407672 a40.738372730549365,40.738372730549365 0 0,0 0.11947048188953653,-0.6890739914937559 l 19.41857065970902 3.5387104408220202" fill="#ff960d" stroke="none" /><path d="M 79.34024301695615 96.23510406497455 l -19.254698922182975 -3.5088475513899846 a40.57180220937279,40.57180220937279 0 0,0 0.13074496591919715,-0.6841129092530766 l 19.191627663981617 3.8388630256763756" fill="#ff930d" stroke="none" /><path d="M 79.407916724674 95.88100663000787 l -20.727988123499753 -4.14617814586414 a42.13859704108076,42.13859704108076 0 0,0 0.14797126706946945,-0.7080960791290828 l 20.653759145605914 4.501390676278632" fill="#ffab0f" stroke="none" /><path d="M 79.48165901384962 95.52812308129327 l -17.888565128963826 -3.898729510489724 a39.30849131329897,39.30849131329897 0 0,0 0.14935193596934584,-0.6580721871625078 l 17.819002331436817 4.20523603159124" fill="#ff7f0b" stroke="none" /><path d="M 79.56144815229197 95.17655741523228 l -19.15364781141465 -4.520208730814779 a40.67979957859946,40.67979957859946 0 0,0 0.16623020107908903,-0.6782759465978928 l 19.073230083819265 4.848340502020789" fill="#ff950d" stroke="none" /><path d="M 79.64726062577567 94.8264132398404 l -19.112912495494577 -4.85842761589179 a40.7207439758061,40.7207439758061 0 0,0 0.1780282212588857,-0.676002153638595 l 19.026694793430963 5.185810273903169" fill="#ff950d" stroke="none" /><path d="M 79.73907114497095 94.47779374421319 l -20.088708497403694 -5.475266831486107 a41.82149744782136,41.82149744782136 0 0,0 0.19473186114985672,-0.6910346773763986 l 19.991758144179254 5.819309432765519" fill="#ffa70f" stroke="none" /><path d="M 79.94057633289273 93.78553927170692 l -24.285436163443432 -7.52369020225952 a46.42416810651357,46.42416810651357 0 0,0 0.24236794596009562,-0.7592141387092014 l 24.15270350170608 7.939473374660112" fill="#ffec16" stroke="none" /><path d="M 80.05021161711548 93.44210830539832 l -17.56456217466702 -5.7738204633481445 a39.489208937397,39.489208937397 0 0,0 0.2172180629925815,-0.6421666061171927 l 17.462858690102074 6.074488743939499" fill="#ff820c" stroke="none" /><path d="M 80.16572619554312 93.10060997987247 l -18.29023050866143 -6.362291611046259 a40.36520814770549,40.36520814770549 0 0,0 0.23327213318792261,-0.6525036735501918 l 18.178318205429566 6.675330240977372" fill="#ff900d" stroke="none" /><path d="M 80.28708602549916 92.7611449362534 l -26.077800279578994 -9.576129477832971 a48.78045937701232,48.78045937701232 0 0,0 0.29539893629487346,-0.7835807740270103 l 25.909570659469683 10.022378532054125" fill="#f0ff19" stroke="none" /><path d="M 80.41425534168474 92.42381321644754 l -16.218936966884726 -6.273833241240272 a38.39008050224815,38.39008050224815 0 0,0 0.24302991286313105,-0.6125941393043821 l 16.108848379055466 6.551328397758237" fill="#ff700a" stroke="none" /><path d="M 80.5471966667186 92.08871423366112 l -18.26310741731206 -7.427446794390965 a40.71568052134614,40.71568052134614 0 0,0 0.26886726716286796,-0.6451835634990271 l 18.132914305612715 7.739862867331256" fill="#ff950d" stroke="none" /><path d="M 80.83023694016515 91.42560881287825 l -19.57186519720023 -8.754246358632567 a42.44049291889086,42.44049291889086 0 0,0 0.3031777741449053,-0.6624981513834594 l 19.418702958200278 9.088933492230698" fill="#ffb010" stroke="none" /><path d="M 81.1358732173502 90.77261029715801 l -18.337388498283545 -8.96973561276641 a41.413622263084804,41.413622263084804 0 0,0 0.3178595824085743,-0.6359320905100817 l 18.180709002663225 9.283199559440261" fill="#ffa00e" stroke="none" /><path d="M 81.29705330413844 90.45014215332179 l -17.979524778552996 -9.180473461115229 a41.187729050907194,41.187729050907194 0 0,0 0.32693629000155644,-0.626943444243665 l 17.8192804195765 9.48776314846338" fill="#ff9d0e" stroke="none" /><path d="M 81.46374523516351 90.13048839642627 l -18.108775720852954 -9.6419030905054 a41.51570260349011,41.51570260349011 0 0,0 0.34033910796080563,-0.6261856254552687 l 17.940591263276797 9.951343549435288" fill="#ffa20f" stroke="none" /><path d="M 81.63589988554816 89.8137432299009 l -26.667654360445557 -14.792098337450168 a51.495408872697325,51.495408872697325 0 0,0 0.43542221287493343,-0.769349328799393 l 26.409798782549252 15.247704436348666" fill="#caff1d" stroke="none" /><line stroke="#e1ed5e" stroke-width="0.3" x1="26.387840678322718" x2="22.05771365940052" y1="57.49999999999999" y2="54.99999999999999" /><path d="M 25.521815274538284 56.99999999999999 a86.0,86.0 0 0,1 29.574782752854787,-30.34633250058573" fill="none" id="id107" stroke="none" /><text fill="#e1ed5e" style="font-size:6.75px; font-family:Arial;" text-anchor="middle"><textPath startOffset="21.40746469413373" xlink:href="#id107">November</textPath></text><path d="M 83.42222388311158 87.10902102172516 l -16.671529327465983 -12.963882041881194 a42.118762456933126,42.118762456933126 0 0,0 0.4487324314976113,-0.5669587682652383 l 16.44653046532681 13.248160754061114" fill="#ffab0f" stroke="none" /><path d="M 83.8745106332314 86.54754324733833 l -12.902523894690635 -10.76374432711505 a37.802776996454014,37.802776996454014 0 0,0 0.41998063751432924,-0.49473613496558766 l 12.71584869366919 10.983647244530195" fill="#ff6709" stroke="none" /><path d="M 84.10781606972428 86.27271002978789 l -13.36606562642421 -11.545289144638458 a38.661976439888754,38.661976439888754 0 0,0 0.438148697056528,-0.4985327874033645 l 13.165905865409089 11.773034209853122" fill="#ff750a" stroke="none" /><path d="M 84.58840730492382 85.73525988315684 l -11.94986877399005 -11.060620136023175 a37.283018194087475,37.283018194087475 0 0,0 0.43877525939872214,-0.4659641201944013 l 11.758237680855055 11.264125716162088" fill="#ff5f08" stroke="none" /><path d="M 84.83555147118756 85.47280134310135 l -12.394624509133607 -11.873769902000486 a38.164298075018046,38.164298075018046 0 0,0 0.45726862478521724,-0.4691978921968029 l 12.188969083197588 12.08479048626502" fill="#ff6d0a" stroke="none" /><path d="M 85.08716467003674 85.21462403516908 l -21.491163351622152 -21.307479298513268 a51.26348916206918,51.26348916206918 0 0,0 0.6249460679913852,-0.6196046807028053 l 21.12222536350079 21.673263989444745" fill="#ceff1d" stroke="none" /><path d="M 85.34317274990677 84.96080404539775 l -13.084453503564903 -13.42580197209753 a39.74713530331847,39.74713530331847 0 0,0 0.49272728226135504,-0.4720215904643298 l 12.852053735438247 13.648435692867428" fill="#ff860c" stroke="none" /><path d="M 85.60350026404147 84.71141617570332 l -11.791850988950397 -12.522537116288886 a38.20063038305408,38.20063038305408 0 0,0 0.4812737864950364,-0.44545983177936754 l 11.575147431141408 12.72311469420062" fill="#ff6d0a" stroke="none" /><path d="M 85.86807049272753 84.46653392183569 l -11.53352273580791 -12.677361862455735 a38.1387762249539,38.1387762249539 0 0,0 0.4880582383715069,-0.43642468626824255 l 11.31419947061301 12.873482078607378" fill="#ff6c0a" stroke="none" /><path d="M 86.13680546590413 84.22622945171909 l -19.670462049889938 -22.38137495586019 a50.79686262295019,50.79686262295019 0 0,0 0.6599250708194467,-0.5700275585467733 l 19.28335749930764 22.715746646871672" fill="#d4ff1c" stroke="none" /><path d="M 86.40962598614128 83.9905735841838 l -20.874792662929817 -24.590453268011796 a53.255966279846284,53.255966279846284 0 0,0 0.7020294440604461,-0.5856579307776267 l 20.44958888470746 24.945173382701302" fill="#b3ff20" stroke="none" /><path d="M 86.96720088162412 83.53348406188908 l -18.77940704437506 -23.72716732574101 a51.259619928909146,51.259619928909146 0 0,0 0.6946656225497414,-0.5401761897421348 l 18.369331477190073 24.04604456710395" fill="#ceff1d" stroke="none" /><path d="M 87.25179093698888 83.31218511350988 l -13.133997913153843 -17.192824875315395 a42.63550619643537,42.63550619643537 0 0,0 0.5854200370485351,-0.4393101097084001 l 12.836924887194554 17.415754012287795" fill="#ffb310" stroke="none" /><path d="M 87.54013794807813 83.09580414077388 l -10.227649975319915 -13.87577146857332 a38.237803162402535,38.237803162402535 0 0,0 0.531722125952566,-0.38492581394856773 l 9.987946838993382 14.049298053894969" fill="#ff6e0a" stroke="none" /><path d="M 87.83215693770416 82.88440491214696 l -10.01946866561007 -14.093637450617837 a38.29220543859573,38.29220543859573 0 0,0 0.5390173284491206,-0.37627595745282627 l 9.776056245987183 14.26355822387579" fill="#ff6f0a" stroke="none" /><path d="M 88.12776184653039 82.6780497279521 l -9.920722477362839 -14.474630578855573 a38.54809576185385,38.54809576185385 0 0,0 0.5490418347220571,-0.36941984935956396 l 9.670784354543791 14.642800102272247" fill="#ff730a" stroke="none" /><path d="M 88.4268655584334 82.4767994020092 l -10.824132598054414 -16.38911634290871 a40.640900717677425,40.640900717677425 0 0,0 0.5854503040530079,-0.37948181387725344 l 10.54119666174438 16.572511998489873" fill="#ff940d" stroke="none" /><path d="M 89.03521579738668 82.08984904055464 l -11.222675446612936 -18.33139692523932 a42.49391907983936,42.49391907983936 0 0,0 0.6254037349084477,-0.37553697350369436 l 10.906338955147053 18.521347899278936" fill="#ffb110" stroke="none" /><line stroke="#e1ed5e" stroke-width="0.3" x1="56.869717070023135" x2="54.33264160355391" y1="26.7553504044142" y2="22.446841604673864" /><path d="M 56.362301976729285 25.89364864446614 a86.0,86.0 0 0,1 42.16139366436587,-11.88097634709845" fill="none" id="id108" stroke="none" /><text fill="#e1ed5e" style="font-size:6.75px; font-family:Arial;" text-anchor="middle"><textPath startOffset="22.145653131862474" xlink:href="#id108">December</textPath></text><path d="M 89.34428304082924 81.90426304109057 l -15.527648385316446 -26.369341626449117 a51.60147124225243,51.60147124225243 0 0,0 0.7671603805388659,-0.4429202522157276 l 15.07269553691718 26.632008775941017" fill="#c9ff1d" stroke="none" /><path d="M 89.65649057296885 81.72400993836675 l -8.940849196687319 -15.7976238349231 a39.152236864574974,39.152236864574974 0 0,0 0.58776048658315,-0.32602083403710136 l 8.668344521948066 15.948777584393346" fill="#ff7d0b" stroke="none" /><path d="M 89.97174638481275 81.54914285379989 l -9.137181436179267 -16.811384700376585 a40.13402049078329,40.13402049078329 0 0,0 0.6081473422675496,-0.32380420572218976 l 8.847245278125156 16.96575937382135" fill="#ff8c0c" stroke="none" /><path d="M 90.28995756902619 81.37971332152246 l -9.08996931531721 -17.431214719501053 a40.65896204662796,40.65896204662796 0 0,0 0.6216421860263263,-0.3174149295609854 l 8.789399907577303 17.584687600734874" fill="#ff940d" stroke="none" /><path d="M 90.93487009805054 81.0573650232925 l -10.270558592615027 -21.461517323094814 a44.792458881205135,44.792458881205135 0 0,0 0.6964401599123443,-0.32596916016415584 l 9.900629718831158 21.634662714829513" fill="#ffd413" stroke="none" /><path d="M 91.26138138417902 80.90454125486306 l -7.87043432582332 -17.198319389173786 a39.913643918852046,39.913643918852046 0 0,0 0.6254783455660735,-0.27976850820833676 l 7.574042577401627 17.330891648291967" fill="#ff890c" stroke="none" /><path d="M 92.25597844496254 80.48000691201159 l -6.896887541900882 -17.384661985988906 a39.702767980508,39.702767980508 0 0,0 0.63567485003955,-0.24589268784639484 l 6.597440429367803 17.50049456197334" fill="#ff850c" stroke="none" /><path d="M 92.592206182469 80.34994680014964 l -6.153320352036905 -16.3224132922138 a38.443753238240596,38.443753238240596 0 0,0 0.6195134831882096,-0.22749393218258845 l 5.872217717194569 16.42563807340511" fill="#ff710a" stroke="none" /><path d="M 92.93061703081487 80.22567764915836 l -5.9562049865697295 -16.66056541363136 a38.69324214902197,38.69324214902197 0 0,0 0.6273726482193778,-0.21823277376825828 l 5.669326566305347 16.760356619968203" fill="#ff750a" stroke="none" /><path d="M 93.27111125876988 80.10723608172694 l -5.626894731070928 -16.634914438740662 a38.56081782545381,38.56081782545381 0 0,0 0.6288668249011827,-0.20672101622732492 l 5.340505168521985 16.729056376370014" fill="#ff730a" stroke="none" /><path d="M 93.95794788825049 79.88797359093562 l -9.007002298729294 -29.98138128373318 a52.30510044848764,52.30510044848764 0 0,0 0.8621374676960673,-0.25095565192024705 l 8.491004818651602 30.13158062995595" fill="#bfff1e" stroke="none" /><path d="M 94.30408787586887 79.78721728523814 l -4.555272239355437 -16.165054160614087 a37.79462655703392,37.79462655703392 0 0,0 0.6259844791078365,-0.17061485341017094 l 4.277106359312923 16.240869508168398" fill="#ff6709" stroke="none" /><path d="M 94.6519064749342 79.69241777938228 l -4.9636570687222745 -18.84781437826251 a40.49045916168512,40.49045916168512 0 0,0 0.6736739098079417,-0.17124527349184834 l 4.639377865688955 18.93024488358962" fill="#ff920d" stroke="none" /><path d="M 95.35216902796891 79.52079915486377 l -4.454380412343531 -19.626821985129126 a41.12594460128065,41.12594460128065 0 0,0 0.6898144447910053,-0.15034184761495087 l 4.116803550933407 19.70039529087779" fill="#ff9c0e" stroke="none" /><path d="M 95.70440661134978 79.44403061299748 l -3.9540524139006887 -18.921572183601413 a40.330298093695106,40.330298093695106 0 0,0 0.6789001007478366,-0.1357990338557924 l 3.628655827621875 18.986660614120073" fill="#ff8f0d" stroke="none" /><path d="M 96.41257539226777 79.30868818359171 l -3.6728962067587756 -21.184289286399867 a42.50033206988904,42.50033206988904 0 0,0 0.7199202021416425,-0.11846259530064186 l 3.30869850156406 21.244217880196178" fill="#ffb110" stroke="none" /><path d="M 96.76829788921471 79.25015418208739 l -2.8563504114059652 -18.339818648756218 a39.56091823542158,39.56091823542158 0 0,0 0.6719231587467621,-0.09874956539101798 l 2.541102147051518 18.386149287446123" fill="#ff830c" stroke="none" /><path d="M 97.12497278360702 79.19773525538626 l -2.4906066584965445 -18.020789086561823 a39.19208511495296,39.19208511495296 0 0,0 0.6672399826161606,-0.08638757435949729 l 2.18088885398959 18.060888257121714" fill="#ff7d0b" stroke="none" /><path d="M 97.48249496171623 79.15144685158666 l -2.2212292171121866 -18.394964333156537 a39.52858796705928,39.52858796705928 0 0,0 0.674365425191047,-0.07556405248432846 l 1.9051278903203401 18.430384146147837" fill="#ff830c" stroke="none" /><path d="M 97.84075906011542 79.11130261209362 l -1.815579728988521 -17.564086916805856 a38.65767478954759,38.65767478954759 0 0,0 0.6606788743089861,-0.06256697630229713 l 1.5138012912945193 17.592665648613334" fill="#ff750a" stroke="none" /><path d="M 98.1996594967304 79.07731436759882 l -1.4710122706546662 -17.095392368508772 a38.15856396478693,38.15856396478693 0 0,0 0.65311290494274,-0.05055506941725959 l 1.1773303709367091 17.118125204921085" fill="#ff6d0a" stroke="none" /><path d="M 98.9189461498227 79.02784411241856 l -1.8232185584196827 -35.3699529565879 a56.416912599251326,56.416912599251326 0 0,0 0.9676151706993027,-0.04155355882166327 l 1.21577762711956 35.39603908383539" fill="#89ff24" stroke="none" /><path d="M 99.27912038922189 79.0123766808444 l -0.624068538248335 -18.169074572596816 a39.17978911772674,39.17978911772674 0 0,0 0.6723749693116511,-0.017317994131255555 l 0.31208025486594004 18.17711028407812" fill="#ff7d0b" stroke="none" /><path d="M 99.63950707515114 79.00309439819443 l -0.30037752092113684 -17.495484701481455 a38.49806308123406,38.49806308123406 0 0,0 0.6608704457699847,-0.005672777947038665 l 4.285789388742352e-15 17.498063081234058" fill="#ff720a" stroke="none" /></svg>