<?xml version="1.0" encoding="utf-8" ?>
<svg baseProfile="full" height="200mm" version="1.1" viewBox="0,0,200,200" width="200mm" xmlns="http://www.w3.org/2000/svg" xmlns:ev="http://www.w3.org/2001/xml-events" xmlns:xlink="http://www.w3.org/1999/xlink"><defs /><rect fill="#1a1a1a" height="200" width="200" x="0" y="0" /><rect fill="#1a1a1a" height="200" width="180" x="10" y="0" /><text alignment-baseline="middle" fill="#e1ed5e" style="dominant-baseline: central; font-size:9.0px; font-family:Arial;" text-anchor="middle" x="100.0" y="100.0">2025</text><line stroke="#e1ed5e" stroke-width="0.3" x1="100.0" x2="100.0" y1="15.0" y2="10.0" /><path d="M 100.0 14.0 a86.0,86.0 0 0,1 42.46469731375804,11.215312516191453" fill="none" id="id109" stroke="none" /><text fill="#e1ed5e" style="font-size:6.75px; font-family:Arial;" text-anchor="middle"><textPath startOffset="22.20632615414155" xlink:href="#id109">January</textPath></text><path d="M 100.36148047927253 79.00311137660856 l 0.4597632440914873 -26.705723221197857 a47.70968054859219,47.70968054859219 0 0,0 0.8210003711248917,0.021204017399125332 l -0.9193902504112468 26.693852411656373" fill="#ff8d0d" stroke="none" /><path d="M 100.72285384407766 79.0124445844662 l 0.9032269092883712 -26.224561115364835 a47.24011098572504,47.24011098572504 0 0,0 0.812438055306669,0.03498529167035176 l -1.354505796984372 26.205128097170288" fill="#ff840c" stroke="none" /><path d="M 101.08401301168833 79.027996857942 l 1.5932017689465539 -30.823091737838055 a51.86423943912688,51.86423943912688 0 0,0 0.8911707570336351,0.05375785374604208 l -2.123534574819801 30.79110061471171" fill="#ffda14" stroke="none" /><path d="M 101.44485096284872 79.0497635885617 l 1.818037332151361 -26.361412279018303 a47.424029160699035,47.424029160699035 0 0,0 0.8139088271182071,0.06317498960653183 l -2.2715363486319093 26.326212027223306" fill="#ff870c" stroke="none" /><path d="M 101.80526077348638 79.07773832637324 l 2.288570921026912 -26.523636015148494 a47.62218669314473,47.62218669314473 0 0,0 0.8160965897085772,0.07749820472546413 l -2.7447926378257335 26.480312265907852" fill="#ff8b0c" stroke="none" /><path d="M 102.16513564639614 79.11191278185805 l 2.864322017315197 -27.633468701192687 a48.781521432035944,48.781521432035944 0 0,0 0.8344736548495838,0.09376283813607533 l -3.3395623756745056 27.580069909586012" fill="#ffa10e" stroke="none" /><path d="M 102.52436894288641 79.15227682838746 l 3.259538613323495 -26.91918662255856 a48.115810893128064,48.115810893128064 0 0,0 0.821371882432769,0.10663764387064179 l -3.7224252242641103 26.85909065552378" fill="#ff940d" stroke="none" /><path d="M 102.88285421437855 79.19881850522331 l 3.716077898958311 -26.81329164666867 a48.0695741355574,48.0695741355574 0 0,0 0.8186271813552244,0.12064436671319513 l -4.177074060742191 26.745352795794506" fill="#ff940d" stroke="none" /><path d="M 103.2404852339499 79.25152402106235 l 4.205539988603783 -26.92761704877321 a48.25404789239806,48.25404789239806 0 0,0 0.8195623604187787,0.13523481175037877 l -4.668431555161437 26.85123597408321" fill="#ff970d" stroke="none" /><path d="M 103.59715602781102 79.31037775812273 l 4.477596315732686 -25.753616359117075 a47.139962209981206,47.139962209981206 0 0,0 0.7982476453759141,0.145874654921905 l -4.920239082211501 25.67272622284443" fill="#ff820c" stroke="none" /><path d="M 104.307194497241 79.44645832069477 l 6.003515773431737 -28.648233032113108 a50.27052198892429,50.27052198892429 0 0,0 0.8454000286185083,0.1847717019628422 l -6.495758526203773 28.540647832054397" fill="#ffbd11" stroke="none" /><path d="M 105.01212808612495 79.60689891045804 l 6.780675543460989 -27.588880299364625 a49.40992567745223,49.40992567745223 0 0,0 0.8241837035973837,0.2101027772626384 l -7.254568135743398 27.46807452593312" fill="#ffad10" stroke="none" /><path d="M 105.36241919743992 79.69619591428918 l 7.073395325030504 -26.782097335614186 a48.70042705660828,48.70042705660828 0 0,0 0.8086638909688576,0.22103838885724278 l -7.533357105223073 26.656372405930647" fill="#ff9f0e" stroke="none" /><path d="M 105.71112130821622 79.79150937346287 l 7.3119133619331595 -25.872805822580098 a47.88617038823773,47.88617038823773 0 0,0 0.7912842647848212,0.2309975753339133 l -7.756187844441408 25.74310991832748" fill="#ff900d" stroke="none" /><path d="M 106.0581310904928 79.89281104454417 l 7.7270473643514945 -25.64639145339692 a47.78515737403463,47.78515737403463 0 0,0 0.785530252039859,0.24406807307411818 l -8.167362989102072 25.50958324544028" fill="#ff8e0d" stroke="none" /><path d="M 106.74666289553966 80.11325718540242 l 8.69742622067956 -25.63689353946249 a48.072043388298155,48.072043388298155 0 0,0 0.7813263576132039,0.27258942442605566 l -9.137434582356038 25.483383261864226" fill="#ff940d" stroke="none" /><path d="M 107.08798089147638 80.2323363322302 l 10.156871466537325 -28.32648989061494 a51.09239218657883,51.09239218657883 0 0,0 0.8253067832498409,0.3039674533213727 l -10.642960575559743 28.14745916948724" fill="#ffcc13" stroke="none" /><path d="M 107.4271985657038 80.35727306442388 l 9.462572474190617 -25.025684391543123 a47.754909027960366,47.754909027960366 0 0,0 0.7663908712539061,0.297347751449953 l -9.89194651044419 24.859093936202626" fill="#ff8e0d" stroke="none" /><path d="M 107.76421540070413 80.48803036053334 l 9.434462994479254 -23.709408615358132 a46.51754590246125,46.51754590246125 0 0,0 0.7414368076531616,0.3024506902112729 l -9.841183671720804 23.54349703896328" fill="#ff760a" stroke="none" /><path d="M 108.43124777332544 80.76684994638697 l 19.943563358413062 -45.494754393252435 a70.67412200264236,70.67412200264236 0 0,0 1.1099804380062772,0.4980158673802554 l -20.72372591488612 45.14471819535565" fill="#35ff68" stroke="none" /><path d="M 108.76106565485865 80.91482961587045 l 10.348522431458603 -22.543297996955896 a45.80508417832839,45.80508417832839 0 0,0 0.7137343607811953,0.3351078525196957 l -10.735035003539396 22.361825161796197" fill="#ff6809" stroke="none" /><path d="M 109.73455568895987 81.39251694778311 l 10.601782315389773 -20.265176045028767 a43.87083619806935,43.87083619806935 0 0,0 0.6661158778428327,0.35581603288991026 l -10.949043239760917 20.079681285637104" fill="#ff4206" stroke="none" /><path d="M 110.05341064243156 81.56283822128135 l 21.337645830654587 -39.13155864700952 a65.57099967174616,65.57099967174616 0 0,0 0.9862999643700051,0.548874862327594 l -22.008069884096628 38.758468387121745" fill="#48ff2c" stroke="none" /><line stroke="#e1ed5e" stroke-width="0.3" x1="143.23703022742887" x2="145.7803849466894" y1="26.81831364943548" y2="22.513508569990506" /><path d="M 143.74570117128098 25.957352633546492 a86.0,86.0 0 0,1 28.547481713284135,27.462654790039103" fill="none" id="id110" stroke="none" /><text fill="#e1ed5e" style="font-size:6.75px; font-family:Arial;" text-anchor="middle"><textPath startOffset="19.985693538727396" xlink:href="#id110">February</textPath></text><path d="M 110.68208982089419 81.91981866633111 l 13.09821678522206 -22.169644572853475 a46.74988200826024,46.74988200826024 0 0,0 0.6893112795050926,0.4153023331452696 l -13.47789013094479 21.940895630249592" fill="#ff7a0b" stroke="none" /><path d="M 110.99172775467656 82.1063720568725 l 15.156572098284324 -24.673651683603534 a49.957050353485286,49.957050353485286 0 0,0 0.7288515920134452,0.4564068000538458 l -15.579042842670031 24.409100542226746" fill="#ffb711" stroke="none" /><path d="M 111.90073688211348 82.69761687909136 l 14.205542006392795 -20.65332026659505 a46.06705131701645,46.06705131701645 0 0,0 0.6494771136271682,0.45500022344384833 l -14.558950259603614 20.405735200387266" fill="#ff6d0a" stroke="none" /><path d="M 112.19680574252982 82.90503203632743 l 15.451046754458002 -21.65609216449492 a47.60302940729768,47.60302940729768 0 0,0 0.6629394717101208,0.4816537196908067 l -15.82153154252191 21.386919209987436" fill="#ff8b0c" stroke="none" /><path d="M 112.48926042617603 83.11751280151076 l 16.972724840620444 -22.94305667969714 a49.53869720788266,49.53869720788266 0 0,0 0.6811661598369035,0.5130402295336894 l -17.36513715421573 22.6474998606576" fill="#ffaf10" stroke="none" /><path d="M 112.77801427241765 83.33499621200491 l 17.09125951203051 -22.290310406399755 a49.08859358745515,49.08859358745515 0 0,0 0.6661262421635366,0.5199220979280137 l -17.47241830935348 21.992809919248515" fill="#ffa70f" stroke="none" /><path d="M 113.06298171725822 83.55741782278167 l 16.59352446602317 -20.886532305392755 a47.67568716919444,47.67568716919444 0 0,0 0.6381654111601454,0.5160187143952697 l -16.950593275747806 20.59780749373336" fill="#ff8c0c" stroke="none" /><path d="M 113.34407831869373 83.78471172551755 l 15.390703075754507 -18.70227985478081 a45.22083840275929,45.22083840275929 0 0,0 0.5967911683673545,0.49979544071245513 l -15.710351781080979 18.434583256674532" fill="#ff5d08" stroke="none" /><path d="M 113.6212207817346 84.01681056812373 l 12.754796614550365 -14.96652419941552 a40.66422343471096,40.66422343471096 0 0,0 0.528840552058721,0.4586053154639871 l -13.01053096525585 14.744753890531861" fill="#ff0000" stroke="none" /><path d="M 113.89432698308785 84.25364557470407 l 16.52665923865689 -18.72956021221756 a45.97852860626034,45.97852860626034 0 0,0 0.5889390000755947,0.528755249225766 l -16.846609226328475 18.442305954222494" fill="#ff6b09" stroke="none" /><path d="M 114.42810811169701 84.74124197986012 l 17.208037352390164 -18.198732358317947 a46.04616555425089,46.04616555425089 0 0,0 0.5712284616323351,0.5495213275065894 l -17.518749057634917 17.899827944049058" fill="#ff6d0a" stroke="none" /><path d="M 114.68862486808459 84.99185889309783 l 18.828151001353785 -19.237712825273295 a47.91818836544287,47.91818836544287 0 0,0 0.5845202085745328,0.5820100930390031 l -19.156507010095638 18.910766881584173" fill="#ff910d" stroke="none" /><path d="M 114.94478906791727 85.2469230424477 l 19.112897672814736 -18.867716965921314 a47.85690974325978,47.85690974325978 0 0,0 0.5736806862434931,0.591228375129913 l -19.434842622761337 18.535924395241288" fill="#ff900d" stroke="none" /><path d="M 115.19652480421416 85.50635884689758 l 15.483767516715949 -14.767598051306548 a42.39693923711195,42.39693923711195 0 0,0 0.4991385156117498,0.5324461670280578 l -15.73567335429816 14.498882467400437" fill="#ff2403" stroke="none" /><path d="M 115.68641384162765 86.03803664274999 l 22.791397552583472 -20.285876727619833 a51.51171245617158,51.51171245617158 0 0,0 0.5838193659812925,0.6674064586986252 l -23.137208782142615 19.89055471271826" fill="#ffd313" stroke="none" /><path d="M 115.9244219780498 86.31012108654704 l 22.914168934980626 -19.69881221150023 a51.21758330053517,51.21758330053517 0 0,0 0.5689770755644914,0.6734893928604053 l -23.249856624032237 19.301463869010718" fill="#ffce13" stroke="none" /><path d="M 116.15771136456269 86.58626213691792 l 18.629159278475324 -15.465473638743532 a45.212113709741956,45.212113709741956 0 0,0 0.4919541028137574,0.6030775607417779 l -18.892611873365492 15.142511908393654" fill="#ff5c08" stroke="none" /><path d="M 116.82858285166822 87.43820079747576 l 17.979288538624036 -13.420750541930042 a43.43593905910366,43.43593905910366 0 0,0 0.44208972083381665,0.6030098823869048 l -18.20764087197148 13.109278215871644" fill="#ff3905" stroke="none" /><path d="M 117.04232023915458 87.72973835380427 l 21.546647690968918 -15.513322191843939 a47.550352015494894,47.550352015494894 0 0,0 0.4725313518817517,0.6683620864223239 l -21.810491662654552 15.14013360508982" fill="#ff8a0c" stroke="none" /><path d="M 117.2510076193507 88.02491185347247 l 20.281746054720482 -14.078928149004332 a45.68937911031779,45.68937911031779 0 0,0 0.44291617931651217,0.6499248401610442 l -20.521086699705727 13.72772528557288" fill="#ff6609" stroke="none" /><path d="M 117.45458315368197 88.32363383020206 l 19.038847731879002 -12.7361711025194 a43.906064203837474,43.906064203837474 0 0,0 0.41481480315392033,0.6317914040112454 l -19.255259170390847 12.40656163453048" fill="#ff4206" stroke="none" /><path d="M 117.65298651832404 88.62581576622439 l 21.028598274102972 -13.549160687310765 a46.01562912869021,46.01562912869021 0 0,0 0.42328331852589085,0.6695325581991421 l -21.258709188874818 13.185180481397417" fill="#ff6c0a" stroke="none" /><line stroke="#e1ed5e" stroke-width="0.3" x1="172.23445277983987" x2="176.4835382374775" y1="55.19839476539836" y2="52.563006222186495" /><path d="M 173.08426987136738 54.67131705675599 a86.0,86.0 0 0,1 12.851231095245387,41.99856678651699" fill="none" id="id111" stroke="none" /><text fill="#e1ed5e" style="font-size:6.75px; font-family:Arial;" text-anchor="middle"><textPath startOffset="22.20632615414155" xlink:href="#id111">March</textPath></text><path d="M 118.03404312379186 89.2402003453031 l 26.170463029384763 -15.614298864315064 a51.47457077952937,51.47457077952937 0 0,0 0.4474373765045462,0.7648155154028459 l -26.435360080359636 15.161503936558322" fill="#ffd313" stroke="none" /><path d="M 118.3937258080291 89.86733742301442 l 38.69712414330924 -21.3173179667991 a65.18026100262766,65.18026100262766 0 0,0 0.5329010907132246,0.9873847874423619 l -39.058333333240924 20.648052196024278" fill="#4dff2c" stroke="none" /><path d="M 118.73160827565052 90.50648371742162 l 25.26043783873924 -12.80244463786183 a49.31946871871586,49.31946871871586 0 0,0 0.3772704198152052,0.7605541449943864 l -25.477068271507854 12.365730904368494" fill="#ffab0f" stroke="none" /><path d="M 119.34039704204932 91.81776055985345 l 24.57159746066861 -10.395375721241342 a47.68009066991546,47.68009066991546 0 0,0 0.3132770704641949,0.7586252750433788 l -24.746896218019 9.97087587574466" fill="#ff8c0c" stroke="none" /><path d="M 119.47837535516314 92.15188598940014 l 24.598005367012963 -9.910885637723043 a47.51956866466013,47.51956866466013 0 0,0 0.29916159449083335,0.7613336268641906 l -24.764960511385496 9.486003005963068" fill="#ff890c" stroke="none" /><path d="M 119.61058180528143 92.48833698450437 l 24.64557356730831 -9.440272874074982 a47.391723104007475,47.391723104007475 0 0,0 0.28524268301657424,0.7643085767447486 l -24.80442083882651 9.014641160300899" fill="#ff870c" stroke="none" /><path d="M 119.85752413597 93.16781622104841 l 25.878696472223382 -8.90382955333618 a48.3675923642605,48.3675923642605 0 0,0 0.2640932873442847,0.7896053147313241 l -26.02812705333944 8.457051135682542" fill="#ff990e" stroke="none" /><path d="M 120.08093135843002 93.85539295169968 l 25.930558468205696 -7.9345469334126175 a48.117354176091034,48.117354176091034 0 0,0 0.23553239313760777,0.7940981402353472 l -26.063296758455007 7.487019406430741" fill="#ff940d" stroke="none" /><path d="M 120.18372546131832 94.20196356495316 l 26.275487084087214 -7.547973824461138 a48.33812594822082,48.33812594822082 0 0,0 0.22284619418176857,0.8016963276988748 l -26.401520048835344 7.094566193343312" fill="#ff990e" stroke="none" /><path d="M 120.28053869075195 94.5502522615342 l 25.808495848908095 -6.935209859584645 a47.72406394580709,47.72406394580709 0 0,0 0.2063580983016914,0.7951819315225302 l -25.924050279080088 6.489931502513264" fill="#ff8d0d" stroke="none" /><path d="M 120.37134235888165 94.90015583598534 l 25.712242958754878 -6.436906802057766 a47.50572027220572,47.50572027220572 0 0,0 0.19175842281274771,0.7949624611576299 l -25.819234181828445 5.99335910924073" fill="#ff890c" stroke="none" /><path d="M 120.45610955862082 95.25157060432595 l 26.76854604564639 -6.213720676375354 a48.480272597663685,48.480272597663685 0 0,0 0.1816985511003543,0.8145189770773538 l -26.87153898374878 5.752023529748037" fill="#ff9b0e" stroke="none" /><path d="M 120.53481517161879 95.60439243477599 l 27.068606889627304 -5.794207166206558 a48.68180477552174,48.68180477552174 0 0,0 0.1683479494727169,0.8209243891863106 l -27.164334135015018 5.327407120856835" fill="#ff9f0e" stroke="none" /><path d="M 120.67395015179393 96.31383870115 l 30.770538153239738 -5.486380979564141 a52.25582176959847,52.25582176959847 0 0,0 0.15026818101890746,0.8868913105675961 l -30.86041819577887 4.955903880680707" fill="#ffe115" stroke="none" /><path d="M 120.73433829027371 96.67025291283417 l 26.483977534331522 -4.253087116499513 a47.82330732887932,47.82330732887932 0 0,0 0.12353012280156382,0.8139091660803672 l -26.553263550572385 3.7965788380270635" fill="#ff8f0d" stroke="none" /><path d="M 120.78858239683441 97.02765380044208 l 43.25441936189537 -6.1845058287375805 a64.69431206324684,64.69431206324684 0 0,0 0.14813149343818097,1.1037516850002886 l -43.35446685439139 5.4390358016726275" fill="#54ff2b" stroke="none" /><path d="M 120.83666639777658 97.38593545837742 l 27.72116350625642 -3.4777593109596086 a48.93846302081718,48.93846302081718 0 0,0 0.09766636713092218,0.8367457897324787 l -27.77692022639093 3.000069782902277" fill="#ffa40f" stroke="none" /><path d="M 120.87857604477298 97.74499172005257 l 28.917256249295836 -3.1232327403788074 a50.08543091889844,50.08543091889844 0 0,0 0.08519978827939176,0.8579502407971631 l -28.966733163257455 2.625006968877209" fill="#ffb911" stroke="none" /><path d="M 120.91429891909075 98.10471618934814 l 32.62852776917369 -2.956844056095578 a53.762230558309156,53.762230558309156 0 0,0 0.07558845753568623,0.9223706404774284 l -32.67459071052887 2.394759498410381" fill="#fffb17" stroke="none" /><path d="M 120.94382443527127 98.46500227214037 l 31.616083281821002 -2.317180233791795 a52.700883999013605,52.700883999013605 0 0,0 0.05852159373342155,0.9053031527855433 l -31.65128546655884 1.7726180167532162" fill="#ffe815" stroke="none" /><path d="M 120.96714384426684 98.82574320788733 l 21.47331568133453 -1.2026047503308972 a42.506965023818815,42.506965023818815 0 0,0 0.03462575221440512,0.730894902917409 l -21.49083504178243 0.8327987407904884" fill="#ff2603" stroke="none" /><path d="M 120.98425023603335 99.18683210126433 l 35.74252166814877 -1.385070751324433 a56.7693482773206,56.7693482773206 0 0,0 0.029434381409398396,0.9767838211344351 l -35.76106774401381 0.7696167827649987" fill="#d0ff1d" stroke="none" /><line stroke="#e1ed5e" stroke-width="0.3" x1="184.98032266829074" x2="189.97916517819016" y1="98.17113171792111" y2="98.06355123074" /><path d="M 185.9800911702706 98.14961562048488 a86.0,86.0 0 0,1 -9.607161424134198,41.387399972396054" fill="none" id="id112" stroke="none" /><text fill="#e1ed5e" style="font-size:6.75px; font-family:Arial;" text-anchor="middle"><textPath startOffset="21.466115282336823" xlink:href="#id112">April</textPath></text><path d="M 120.99513854157772 99.54816195383933 l 28.95170462827276 -0.6230719376465943 a49.95840844249271,49.95840844249271 0 0,0 0.011102644600541561,0.8599120598555803 l -28.95814027999102 0.1246236197305513" fill="#ffb711" stroke="none" /><path d="M 120.99980553446 99.90962569577887 l 31.954921117571686 -0.13752050025904677 a52.9552170313115,52.9552170313115 0 0,0 -0.003922979746217499,0.9115623350707579 l -31.952553840535966 -0.4125513130153958" fill="#ffed16" stroke="none" /><path d="M 120.99824983174949 100.27111621757518 l 28.06927794849841 0.36241289290486567 a49.07161747486245,49.07161747486245 0 0,0 -0.018175045936417757,0.8445229671936694 l -28.058880839876984 -0.8455256758886499" fill="#ffa60f" stroke="none" /><path d="M 120.9764740272857 100.99374915477107 l 31.678627357534097 1.5007579023961692 a52.71415623249517,52.71415623249517 0 0,0 -0.05074025987350561,0.9060014254200395 l -31.648100746773064 -2.045831044151632" fill="#ffe915" stroke="none" /><path d="M 120.95626037817324 101.35467743843564 l 30.515821812491268 1.9726370344090784 a51.57951402101152,51.57951402101152 0 0,0 -0.06490039346934144,0.8855143052864831 l -30.47734486035759 -2.497624476192332" fill="#ffd413" stroke="none" /><path d="M 120.92983693683757 101.71520430193887 l 28.07226842252208 2.300527983509834 a49.16637504878897,49.16637504878897 0 0,0 -0.07638442074092713,0.8428957178650102 l -28.028509405504074 -2.7834050899234146" fill="#ffa80f" stroke="none" /><path d="M 120.89721153311464 102.0752229133903 l 26.887155558461405 2.670061563112874 a48.01940715070771,48.01940715070771 0 0,0 -0.08876204137497166,0.8218262643274332 l -26.83721121558538 -3.1324841493250988" fill="#ff930d" stroke="none" /><path d="M 120.8583938346157 102.4346265915055 l 29.18159234095672 3.406124232723103 a50.37970411427806,50.37970411427806 0 0,0 -0.10795288808251757,0.8604907338117059 l -29.118637943627352 -3.9079327208222043" fill="#ffbf11" stroke="none" /><path d="M 120.81339534386255 102.79330883721812 l 25.436943884845945 3.41382263544586 a46.665001445296745,46.665001445296745 0 0,0 -0.11369805158382276,0.7952039079638182 l -25.37441178224552 -3.8511720153900875" fill="#ff790b" stroke="none" /><path d="M 120.76222939487914 103.15116336523771 l 27.21699941395804 4.130828623159033 a48.528690528488674,48.528690528488674 0 0,0 -0.13245616210652045,0.8248046478765831 l -27.14186149749023 -4.598712500728821" fill="#ff9c0e" stroke="none" /><path d="M 120.70491114924044 103.5080841355445 l 23.41234614224571 3.9668115204880596 a44.74602167781804,44.74602167781804 0 0,0 -0.1352044888869209,0.7582985759247799 l -23.3405952110196 -4.369228847146058" fill="#ff5307" stroke="none" /><path d="M 120.64145759157962 103.86396538481128 l 61.924372774738885 11.591896154433844 a84.0,84.0 0 0,0 -0.2782802680973435,1.4189450917282203 l -61.715662573665874 -12.656104973230008" fill="#4dd2ff" stroke="none" /><path d="M 120.5718875245553 104.21870165774334 l 27.10697285017409 5.558859446559467 a48.671084103205615,48.671084103205615 0 0,0 -0.17536877928535857,0.8192645535484079 l -27.007270032164286 -6.0246378195240435" fill="#ff9f0e" stroke="none" /><path d="M 120.49622156327973 104.57218783832717 l 28.273392403248405 6.307077648203298 a49.968326607668075,49.968326607668075 0 0,0 -0.19449441610990892,0.8378768542096947 l -28.16063742120794 -6.792823159761557" fill="#ffb711" stroke="none" /><path d="M 120.41448212921028 104.9243191809786 l 28.672263854707612 6.916236129242335 a50.49462725225409,50.49462725225409 0 0,0 -0.21108842674458042,0.8431933351129083 l -28.54896411366797 -7.408757303752639" fill="#ffc111" stroke="none" /><path d="M 120.32669344350535 105.2749913415812 l 28.14743016570088 7.304555009131322 a50.07979279180705,50.07979279180705 0 0,0 -0.22371817610498182,0.8325385584909364 l -28.01752391325412 -7.7879845007978075" fill="#ffb911" stroke="none" /><path d="M 120.23288151984713 105.62410040840565 l 27.47965984075072 7.638475319573879 a49.5215359013344,49.5215359013344 0 0,0 -0.23536256741250225,0.8193279738309572 l -27.34410463645212 -8.110360768909418" fill="#ffaf10" stroke="none" /><path d="M 120.02730092923936 106.31721596034902 l 25.813383560545383 8.142321284103343 a48.06710488281665,48.06710488281665 0 0,0 -0.25568895650597195,0.786929692075955 l -25.669402353023166 -8.585449876157094" fill="#ff940d" stroke="none" /><path d="M 119.9155931802556 106.66101706037122 l 26.856842410206657 8.982603925623668 a49.319201216335614,49.319201216335614 0 0,0 -0.27620906064746825,0.8027928208368996 l -26.698242518615956 -9.443569449549868" fill="#ffab0f" stroke="none" /><path d="M 119.79798401119884 107.00284435728193 l 26.861157807627333 9.501195034645953 a49.492007753976196,49.492007753976196 0 0,0 -0.2910029634170124,0.8007151745239549 l -26.693630583205092 -9.96215800617604" fill="#ffae10" stroke="none" /><path d="M 119.67450827220406 107.3425965602758 l 28.336971301196662 10.575458615082912 a51.24606201547856,51.24606201547856 0 0,0 -0.31554328413844207,0.8237839442396554 l -28.150733737464716 -11.06166612615571" fill="#ffce13" stroke="none" /><path d="M 119.54520255179757 107.68017299344265 l 27.096150600062167 10.647273852156271 a50.112983664064046,50.112983664064046 0 0,0 -0.32238728975128816,0.8001388143734969 l -26.908860696053488 -11.112112034372581" fill="#ffba11" stroke="none" /><path d="M 119.41010516605496 108.01547362559984 l 26.730041911339416 11.038268165914614 a49.91951771182579,49.91951771182579 0 0,0 -0.3348150042411342,0.7914037672726645 l -26.536075925905973 -11.496746458853442" fill="#ffb610" stroke="none" /><path d="M 119.12269723197855 108.67885076344098 l 27.66941373517618 12.557784584797933 a51.38575998928684,51.38575998928684 0 0,0 -0.37248652396884063,0.8023028346720728 l -27.449152594367508 -13.032207486748836" fill="#ffd113" stroke="none" /><path d="M 118.97047184881838 109.00673069616215 l 44.61171816191763 21.18058710292468 a70.38443750193932,70.38443750193932 0 0,0 -0.5290454402231569,1.0899903049429764 l -44.24051946507976 -21.94536636383293" fill="#35ff63" stroke="none" /><path d="M 118.81262510543309 109.33194174019688 l 29.131935140754077 14.450802053892984 a53.51915320308787,53.51915320308787 0 0,0 -0.4164843432552895,0.8217631211225686 l -28.87887212771252 -14.950119386718248" fill="#fff717" stroke="none" /><path d="M 118.64920377521936 109.65438752849418 l 27.507818455710684 14.240347343288741 a51.97527350403622,51.97527350403622 0 0,0 -0.4181472425158139,0.7909769999372122 l -27.258618704969976 -14.711739358312087" fill="#ffdc14" stroke="none" /><line stroke="#e1ed5e" stroke-width="0.3" x1="174.80103733775053" x2="179.2010983576182" y1="140.37084112569926" y2="142.7455964860345" /><path d="M 175.68104954172406 140.8457921977663 a86.0,86.0 0 0,1 -30.038265399797805,32.042727171017184" fill="none" id="id113" stroke="none" /><text fill="#e1ed5e" style="font-size:6.75px; font-family:Arial;" text-anchor="middle"><textPath startOffset="22.206326154141568" xlink:href="#id113">May</textPath></text><path d="M 117.55443506779139 111.5257021239791 l 23.52335179954696 15.444709257354496 a49.140489049223376,49.140489049223376 0 0,0 -0.4703374141663032,0.7030906179602576 l -23.254011279969934 -15.847336789520561" fill="#ffa80f" stroke="none" /><path d="M 117.35343817320211 111.8261652097733 l 23.096588450871778 15.740054972158303 a48.94998620027403,48.94998620027403 0 0,0 -0.48050027379764004,0.6921964818093422 l -22.822227269912002 -16.135292716154666" fill="#ffa40f" stroke="none" /><path d="M 116.93607887273984 112.41649034213515 l 27.272162019875605 19.994270153877075 a54.81629282201946,54.81629282201946 0 0,0 -0.5644478916335431,0.7561701915992869 l -26.923952861546972 -20.460753224985677" fill="#f1ff19" stroke="none" /><path d="M 116.27256486870786 113.27417163493432 l 22.77783845650406 18.580779341422375 a50.395157521013964,50.395157521013964 0 0,0 -0.5541163551236717,0.6674688457356351 l -22.45462610148685 -18.97010944427178" fill="#ffbf11" stroke="none" /><path d="M 116.0416608686014 113.55231037782055 l 33.85074924046525 28.597778246670742 a65.31372411326555,65.31372411326555 0 0,0 -0.7329365864342225,0.8525708342139053 l -33.353470144460246 -29.176226180046175" fill="#4bff2c" stroke="none" /><path d="M 115.80600337817218 113.82643327865902 l 19.817881750884975 17.335857344644722 a47.33021813365647,47.33021813365647 0 0,0 -0.5416856701256226,0.6085895927564994 l -19.516537231111016 -17.674421107142088" fill="#ff860c" stroke="none" /><path d="M 115.56566222782051 114.09645910891815 l 20.54673209909834 18.607378511604153 a48.72007819300346,48.72007819300346 0 0,0 -0.568293245528833,0.6167700787424201 l -20.223392445573783 -18.958299845147906" fill="#ffa00e" stroke="none" /><path d="M 115.32070863581623 114.36230785411682 l 20.72127150305104 19.425033628002392 a49.40251791922996,49.40251791922996 0 0,0 -0.5869335507729135,0.6153974814559869 l -20.38383140089916 -19.778838226040886" fill="#ffad10" stroke="none" /><path d="M 114.81725581225074 114.88116024355365 l 30.827246380520958 30.96019931550054 a64.69042299018015,64.69042299018015 0 0,0 -0.7958463743020504,0.7789031807124921 l -30.28975005384311 -31.486252599135604" fill="#54ff2b" stroke="none" /><path d="M 114.29624159901734 115.38237550388516 l 19.533967109520432 21.01802876497548 a49.69378685710833,49.69378685710833 0 0,0 -0.6315854333742784,0.5769383186413146 l -19.16928212667929 -21.351159850203377" fill="#ffb210" stroke="none" /><path d="M 114.0293411484842 115.62618273729858 l 18.058483997403993 20.113928937604136 a48.03107436990778,48.03107436990778 0 0,0 -0.6199614288607572,0.5470438792902897 l -17.70958021563665 -20.421795958666713" fill="#ff930d" stroke="none" /><path d="M 113.75828350139079 115.86535959552629 l 18.30794425065291 21.11179922714155 a48.94438922739499,48.94438922739499 0 0,0 -0.6412519621098488,0.5464888337742321 l -17.941826811966013 -21.423812451138726" fill="#ffa40f" stroke="none" /><path d="M 113.48314897796784 116.09983520530334 l 28.581230112649497 34.128013828996785 a65.51525629112359,65.51525629112359 0 0,0 -0.8708221460429973,0.7166273409235258 l -27.989537838061807 -34.61493628877749" fill="#49ff2c" stroke="none" /><path d="M 112.63410532772338 116.77436683061366 l 29.204524567301394 38.77499795182241 a69.54281328235872,69.54281328235872 0 0,0 -0.9623898447251876,0.711952999635951 l -28.532749752157642 -39.271960900198124" fill="#33ff55" stroke="none" /><path d="M 112.04921762599082 117.19931262002967 l 15.620945987893737 22.297674571571168 a48.22499301848184,48.22499301848184 0 0,0 -0.6839753409363969,0.4704444763161922 l -15.234813762334456 -22.563259837252453" fill="#ff970d" stroke="none" /><path d="M 111.7513745106137 117.40417183066458 l 16.941998800803614 25.09165698172447 a51.27577535679232,51.27577535679232 0 0,0 -0.73574706936797,0.48761303851563975 l -16.50757703269568 -25.379568041331428" fill="#ffcf13" stroke="none" /><path d="M 111.45004920935366 117.60387380957326 l 15.454169737965778 23.760007396005964 a49.34377028110613,49.34377028110613 0 0,0 -0.7159973695366137,0.45698339748131867 l -15.042890566382233 -24.02250522231109" fill="#ffac0f" stroke="none" /><path d="M 111.1453310114006 117.79835938074945 l 18.77486396886936 29.982220887006907 a56.375543619382334,56.375543619382334 0 0,0 -0.8268971452330083,0.5079477638860465 l -18.255987623704044 -30.30095711772133" fill="#d6ff1c" stroke="none" /><line stroke="#e1ed5e" stroke-width="0.3" x1="143.8653032363475" x2="146.44561519142675" y1="172.8068346515853" y2="177.08958963109032" /><path d="M 144.38136562736335 173.6633856474863 a86.0,86.0 0 0,1 -40.68145358897372,12.25698825130547" fill="none" id="id114" stroke="none" /><text fill="#e1ed5e" style="font-size:6.75px; font-family:Arial;" text-anchor="middle"><textPath startOffset="21.466115282336833" xlink:href="#id114">June</textPath></text><path d="M 110.5260780823613 118.17145234162733 l 13.795910979359762 23.816253015532634 a48.523463943520746,48.523463943520746 0 0,0 -0.7263528916143087,0.41244212850461653 l -13.383909320824253 -24.05019830983188" fill="#ff9c0e" stroke="none" /><path d="M 110.21172684928248 118.3499491758327 l 14.923445577878628 26.816665968853176 a51.68945749929368,51.68945749929368 0 0,0 -0.7811930798648008,0.4259687536056575 l -14.459629686145178 -27.0695753742186" fill="#ffd614" stroke="none" /><path d="M 109.89434966115114 118.52300852407294 l 16.128059309849515 30.193008161623826 a55.23057170059984,55.23057170059984 0 0,0 -0.8424216463983242,0.44071519008976173 l -15.605946760924693 -30.466152770658304" fill="#eaff1a" stroke="none" /><path d="M 109.57404056367764 118.69057910512821 l 20.330630263597786 39.68974757016526 a65.59384025959815,65.59384025959815 0 0,0 -1.0093520552366841,0.5061100743006206 l -19.64442430067834 -40.03382548537518" fill="#47ff2c" stroke="none" /><path d="M 109.2508944713604 118.85261126421891 l 10.63058427397307 21.664312942839253 a45.13196588119824,45.13196588119824 0 0,0 -0.7003779023299153,0.33622395501339186 l -10.256093703642923 -21.844091174352204" fill="#ff5b08" stroke="none" /><path d="M 108.59647513512805 119.15986991738527 l 13.507651202869553 30.105925494838107 a53.99732399633532,53.99732399633532 0 0,0 -0.8513046475711132,0.37318693995772356 l -12.987425880640686 -30.333976988090285" fill="#ffff18" stroke="none" /><path d="M 107.93186726928326 119.44442032107085 l 11.170091839686801 27.382702380426984 a50.57335526047187,50.57335526047187 0 0,0 -0.8088821021828435,0.3218708818826191 l -10.697088661462091 -27.570920106715672" fill="#ffc212" stroke="none" /><path d="M 107.59598834532513 119.57807347666477 l 9.77526296337704 25.194985543717806 a48.02486008384354,48.02486008384354 0 0,0 -0.7732683494366052,0.29238392381445766 l -9.34012439318016 -25.359517717638894" fill="#ff930d" stroke="none" /><path d="M 107.2578585660854 119.70592522655815 l 9.66076966755212 26.23010671348248 a48.95262006986418,48.95262006986418 0 0,0 -0.7932199555094783,0.2844204546314632 l -9.207830151412907 -26.392514709153904" fill="#ffa40f" stroke="none" /><path d="M 106.91757812671514 119.82793768551818 l 9.784545979703784 28.045562249223185 a50.70338199437886,50.70338199437886 0 0,0 -0.826538204720072,0.28040663519003095 l -9.300338042046485 -28.20983187131134" fill="#ffc512" stroke="none" /><path d="M 106.2309692047433 120.05430185196036 l 8.026223762474256 25.832307747806738 a48.050478581028884,48.050478581028884 0 0,0 -0.7919749108103353,0.23861554395789697 l -7.580373877223675 -25.96663866087036" fill="#ff930d" stroke="none" /><path d="M 105.88484417918355 120.15858648285463 l 8.380522242723904 28.70755405878477 a50.90579898780235,50.90579898780235 0 0,0 -0.843263849075645,0.2383147868836974 l -7.885127225543654 -28.847557639006986" fill="#ffc812" stroke="none" /><path d="M 105.53697534728816 120.25689768951611 l 7.372658763156367 26.972703488397986 a48.962167847128434,48.962167847128434 0 0,0 -0.8148926477732856,0.21522055472094623 l -6.907275672571584 -27.095615392422516" fill="#ffa40f" stroke="none" /><path d="M 104.83641907484287 120.43548508189849 l 6.239048611544978 26.362063099465654 a48.09029528147359,48.09029528147359 0 0,0 -0.8071838141174743,0.18371240812826103 l -5.784344648034642 -26.4655522411716" fill="#ff940d" stroke="none" /><path d="M 104.48393922423573 120.51570834832081 l 6.4161592336004984 29.35634159389608 a51.0493243033588,51.0493243033588 0 0,0 -0.8600803250851958,0.18023819452596593 l -5.909887447085925 -29.462435769148588" fill="#ffcb12" stroke="none" /><path d="M 103.7750983002368 120.6578951692458 l 5.297065907795828 28.986326586772005 a50.46635430837243,50.46635430837243 0 0,0 -0.8558878091896565,0.1488070664589031 l -4.797329127134121 -29.073212231751913" fill="#ffc011" stroke="none" /><path d="M 103.41894727170886 120.7198165907248 l 4.883366323191836 29.594622707148062 a50.99481554910661,50.99481554910661 0 0,0 -0.8673104407637917,0.13545605370720462 l -4.373220018819527 -29.674297068202375" fill="#ffca12" stroke="none" /><path d="M 102.70371172650421 120.8252237178851 l 3.530736288002927 27.19534496437806 a48.42358267015715,48.42358267015715 0 0,0 -0.8275188522820867,0.10020100867409232 l -3.06209001266946 -27.252091501777503" fill="#ff9a0e" stroke="none" /><path d="M 102.34483914955558 120.86867818915974 l 3.097627289527411 27.568367351491208 a48.74184877133446,48.74184877133446 0 0,0 -0.8345704761595776,0.08650664220674055 l -2.622624216762231 -27.617603362153705" fill="#ffa00e" stroke="none" /><path d="M 101.98527174616119 120.90594882070398 l 2.5927289579610218 27.302790666265455 a48.425619803668276,48.425619803668276 0 0,0 -0.8305124828180409,0.07166011163181697 l -2.122372157401439 -27.343375030175935" fill="#ff9a0e" stroke="none" /><path d="M 100.90346689309514 120.98055641714683 l 1.1316534006402925 26.279566189139175 a47.30392059196742,47.30392059196742 0 0,0 -0.8138068474226744,0.02802915329342398 l -0.6791262015429658 -26.295152140858693" fill="#ff850c" stroke="none" /><line stroke="#e1ed5e" stroke-width="0.3" x1="102.19456741930631" x2="102.32365962044197" y1="184.97166512339345" y2="189.96999836594603" /><path d="M 102.22038585953345 185.97133177190398 a86.0,86.0 0 0,1 -42.740103519485714,-10.115201625700543" fill="none" id="id115" stroke="none" /><text fill="#e1ed5e" style="font-size:6.75px; font-family:Arial;" text-anchor="middle"><textPath startOffset="22.20632615414155" xlink:href="#id115">July</textPath></text><path d="M 100.54218724476979 120.99299961872073 l 0.7252977091770265 28.082871146622356 a49.09223573524777,49.09223573524777 0 0,0 -0.8449482337147716,0.014546550108544254 l -0.241789785569587 -28.091195174010057" fill="#ffa70f" stroke="none" /><path d="M 100.18074693466247 120.99922214144158 l 0.19901417305209243 23.121514270881327 a44.12237074392772,44.12237074392772 0 0,0 -0.7595222154290798,0.0 l 0.1990141730520765 -23.121514270881327" fill="#ff4706" stroke="none" /><path d="M 99.45781275523022 120.99299961872073 l -0.5830106466270465 22.57364480706037 a43.581172274472465,43.581172274472465 0 0,0 -0.7497614568061052,-0.025823300544685412 l 0.9714924551077948 -22.560264708089587" fill="#ff3c05" stroke="none" /><path d="M 98.01472825383883 120.90594882070398 l -2.635900839700671 27.75741313892604 a48.882287520964965,48.882287520964965 0 0,0 -0.8369751045662943,-0.08675589177302144 l 3.113308540872559 -27.707927878697255" fill="#ffa30f" stroke="none" /><path d="M 97.2962882734958 120.8252237178851 l -3.3173168048177764 25.55149054028515 a46.76593215107515,46.76593215107515 0 0,0 -0.7974068195141215,-0.11051331919716488 l 3.756652215518729 -25.49060265559538" fill="#ff7b0b" stroke="none" /><path d="M 96.58105272829116 120.7198165907248 l -4.249407331167148 25.752646508952257 a47.10088628535874,47.10088628535874 0 0,0 -0.7988109092908825,-0.13888351579570754 l 4.6920672119300795 -25.675684414635544" fill="#ff810b" stroke="none" /><path d="M 95.86986931433489 120.58985236759428 l -5.313369747080838 26.488628809385624 a48.01627943056941,48.01627943056941 0 0,0 -0.8089795072822838,-0.16952952131142487 l 5.768540715792509 -26.393243307347657" fill="#ff930d" stroke="none" /><path d="M 95.51606077576429 120.51570834832081 l -5.4457354042105495 24.91628760065359 a46.504458862935245,46.504458862935245 0 0,0 -0.780565938693961,-0.17765426634222672 l 5.873821492297373 -24.818856600733678" fill="#ff760a" stroke="none" /><path d="M 95.16358092515715 120.4354850818985 l -5.637059841837917 23.81845959190187 a45.47642663853374,45.47642663853374 0 0,0 -0.7602071520511251,-0.18684042222604855 l 6.046220278632253 -23.717897911361792" fill="#ff6209" stroke="none" /><path d="M 94.46302465271185 120.25689768951611 l -6.872961863829755 25.14457380918873 a47.06697521438569,47.06697521438569 0 0,0 -0.7796730327941638,-0.22034338701105546 l 7.304766064728533 -25.022541628839154" fill="#ff800b" stroke="none" /><path d="M 93.76903079525671 120.05430185196036 l -8.184484199482476 26.341667122038658 a48.58385775013841,48.58385775013841 0 0,0 -0.7964945331671782,-0.25501239705178613 l 8.636700077740594 -26.196881878327165" fill="#ff9d0e" stroke="none" /><path d="M 93.42475214034765 119.94407469862007 l -7.873649141227433 23.882391960759993 a46.14682875764905,46.14682875764905 0 0,0 -0.7522598196526717,-0.2552073740970076 l 8.283578693817331 -23.74332159976486" fill="#ff6f0a" stroke="none" /><path d="M 93.08242187328487 119.8279376855182 l -9.314716743285752 26.698885037649053 a49.27710045710572,49.27710045710572 0 0,0 -0.7984777806874777,-0.2863057236758328 l 9.772914084602956 -26.53459177293326" fill="#ffaa0f" stroke="none" /><path d="M 92.7421414339146 119.70592522655815 l -9.552906494655279 25.937245726946234 a48.64052710053876,48.64052710053876 0 0,0 -0.7831814614575545,-0.2961322145495053 l 9.997958176873118 -25.768965262290095" fill="#ff9e0e" stroke="none" /><path d="M 92.06813273071674 119.44442032107085 l -11.38471940024596 27.908846900792312 a51.141592047438394,51.141592047438394 0 0,0 -0.8122466930742056,-0.33951918358017646 l 11.863437552817626 -27.708742674192163" fill="#ffcd13" stroke="none" /><path d="M 91.7346041902142 119.30500536409082 l -10.779676704237543 25.17746534922007 a48.38806658490261,48.38806658490261 0 0,0 -0.7628708780736072,-0.3344201742389348 l 11.211468256968892 -24.988180621686684" fill="#ff9a0e" stroke="none" /><path d="M 91.07499286063937 119.00905698771935 l -10.788602372702123 22.978262551309328 a46.38492645317647,46.38492645317647 0 0,0 -0.7198219012776512,-0.34555825611818003 l 11.182536941980016 -22.789150018691586" fill="#ff730a" stroke="none" /><path d="M 90.7491055286396 118.85261126421891 l -11.443896605586202 23.32178090680395 a46.97822615546167,46.97822615546167 0 0,0 -0.7228966764825225,-0.36247540067716905 l 11.843647189751486 -23.12133766521748" fill="#ff7f0b" stroke="none" /><path d="M 90.42595943632237 118.69057910512821 l -12.387036779600667 24.182150604793957 a48.170113876318524,48.170113876318524 0 0,0 -0.7347297952818818,-0.3843759034168503 l 12.801457477409045 -23.96534528243239" fill="#ff950d" stroke="none" /><path d="M 90.10565033884886 118.52300852407294 l -12.154018751910904 22.75328855895677 a46.79597472608769,46.79597472608769 0 0,0 -0.7072368987824703,-0.3856419469696765 l 12.543878462562015 -22.540705960227328" fill="#ff7b0b" stroke="none" /><line stroke="#e1ed5e" stroke-width="0.3" x1="58.666819895761336" x2="56.23545636021788" y1="174.27360380694188" y2="178.64263932499728" /><path d="M 58.180547188652646 175.14741091055294 a86.0,86.0 0 0,1 -31.652253787137756,-30.449443065178592" fill="none" id="id116" stroke="none" /><text fill="#e1ed5e" style="font-size:6.75px; font-family:Arial;" text-anchor="middle"><textPath startOffset="22.20632615414155" xlink:href="#id116">August</textPath></text><path d="M 89.7882731507175 118.34994917583269 l -12.359776502380397 22.209884184208004 a46.41737654961124,46.41737654961124 0 0,0 -0.6948266454596634,-0.39454070315352585 l 12.740251914761268 -21.993840315259845" fill="#ff740a" stroke="none" /><path d="M 88.8546689885994 117.79835938074946 l -13.212418594703959 21.099362073400282 a45.89480036124253,45.89480036124253 0 0,0 -0.6659514695949538,-0.4250417362987491 l 13.573651866345836 -20.86880590827773" fill="#ff6a09" stroke="none" /><path d="M 88.54995079064634 117.60387380957326 l -13.619640475489394 20.939511077944566 a45.97914591944553,45.97914591944553 0 0,0 -0.6597466664693419,-0.43724411564972876 l 13.978061840698699 -20.70196894120352" fill="#ff6b09" stroke="none" /><path d="M 88.24862548938628 117.40417183066458 l -13.817097462657541 20.463575407620354 a45.691498552253606,45.691498552253606 0 0,0 -0.648042775002472,-0.4457297298162047 l 14.167297122282903 -20.222704888439047" fill="#ff6609" stroke="none" /><path d="M 87.36589467227662 116.77436683061367 l -19.064611589337826 25.312183173032622 a52.68857888952217,52.68857888952217 0 0,0 -0.7197542676146884,-0.5518768805104765 l 19.497494585446 -24.98026695069478" fill="#ffe815" stroke="none" /><path d="M 86.51685102203217 116.09983520530335 l -17.441898808327803 20.826862993245516 a48.16575152980985,48.16575152980985 0 0,0 -0.631050528212483,-0.5377949504915225 l 17.797814813117345 -20.523543652531043" fill="#ff950d" stroke="none" /><path d="M 86.24171649860922 115.8653595955263 l -17.4202057870769 20.088103942043716 a47.589386785905006,47.589386785905006 0 0,0 -0.6142603432764637,-0.5420133341160054 l 17.763408483259948 -19.785267466155425" fill="#ff8a0c" stroke="none" /><path d="M 85.97065885151581 115.62618273729859 l -17.0619082043515 19.00392132648487 a46.53933705789842,46.53933705789842 0 0,0 -0.591493810869857,-0.5403155720467169 l 17.386501564688214 -18.70741298785158" fill="#ff760a" stroke="none" /><path d="M 85.70375840098266 115.38237550388516 l -17.665547831480936 19.00765934484222 a46.94923301286396,46.94923301286396 0 0,0 -0.58723243406262,-0.5552649196066617 l 17.990116099934372 -18.700759788489627" fill="#ff7e0b" stroke="none" /><path d="M 85.18274418774928 114.88116024355367 l -19.330581706539 19.41395138351319 a48.39658550685822,48.39658550685822 0 0,0 -0.5852746002270549,-0.5928800800246129 l 19.661896931821587 -19.078330809507914" fill="#ff9a0e" stroke="none" /><path d="M 84.67929136418377 114.36230785411682 l -18.876994766455347 17.696127290259614 a46.87457927166843,46.87457927166843 0 0,0 -0.5467665031563871,-0.5934070514803799 l 19.178807677607463 -17.36856898397789" fill="#ff7d0b" stroke="none" /><path d="M 84.43433777217949 114.09645910891817 l -18.812327719535695 17.03668013353352 a46.38015256454434,46.38015256454434 0 0,0 -0.5308123438499124,-0.5963732954184036 l 19.102798913033944 -16.71033266837425" fill="#ff730a" stroke="none" /><path d="M 84.19399662182784 113.82643327865904 l -19.453332145346046 17.016964536820456 a46.845874208557134,46.845874208557134 0 0,0 -0.5256943406167407,-0.611501282398273 l 19.743368995533565 -16.67958615526065" fill="#ff7c0b" stroke="none" /><path d="M 83.95833913139862 113.55231037782056 l -19.464489291127887 16.443983099994835 a46.48079519083633,46.48079519083633 0 0,0 -0.5110762636996851,-0.6156242829872359 l 19.74466155472111 -16.10649755989384" fill="#ff750a" stroke="none" /><path d="M 83.50135304334701 112.99209946851258 l -21.351045949546624 16.813191618809352 a48.17628700817042,48.17628700817042 0 0,0 -0.5074412503787159,-0.6559362198834158 l 21.637294017143407 -16.443177404812683" fill="#ff960d" stroke="none" /><path d="M 83.28015986056508 112.70617746262583 l -20.5993729917304 15.654413359755612 a46.87266560079434,46.87266560079434 0 0,0 -0.4826517064828871,-0.6465908346484392 l 20.865785964908373 -15.297509645597863" fill="#ff7d0b" stroke="none" /><path d="M 83.06392112726016 112.41649034213515 l -20.004371486014264 14.66597358355343 a45.80454917356789,45.80454917356789 0 0,0 -0.4607069707896527,-0.63988168785646 l 20.253858249179526 -14.319458290245832" fill="#ff6809" stroke="none" /><path d="M 82.85270091963577 112.12312394758628 l -23.773656765780764 16.807952454096434 a50.115185414424545,50.115185414424545 0 0,0 -0.4919380408919493,-0.7086734383776834 l 24.059455713834847 -16.396237753531736" fill="#ffba11" stroke="none" /><path d="M 82.6465618267979 111.8261652097733 l -23.100788433458433 15.742917211182776 a48.955068745498764,48.955068745498764 0 0,0 -0.46856270439283154,-0.7004376676447015 l 23.368354243261994 -15.342942629332255" fill="#ffa40f" stroke="none" /><line stroke="#e1ed5e" stroke-width="0.3" x1="26.63291911575756" x2="22.317208475507996" y1="142.92168965132927" y2="145.44649492493687" /><path d="M 25.769776987707644 143.4266507060508 a86.0,86.0 0 0,1 -11.730757126820373,-40.83630448921669" fill="none" id="id117" stroke="none" /><text fill="#e1ed5e" style="font-size:6.75px; font-family:Arial;" text-anchor="middle"><textPath startOffset="21.46611528233685" xlink:href="#id117">September</textPath></text><line stroke="#e1ed5e" stroke-width="0.3" x1="15.007084014347285" x2="10.007500721073583" y1="101.09737516637583" y2="101.16192664675087" /><path d="M 14.007167355692545 101.11028546245083 a86.0,86.0 0 0,1 10.666146001902534,-42.60595125391555" fill="none" id="id118" stroke="none" /><text fill="#e1ed5e" style="font-size:6.75px; font-family:Arial;" text-anchor="middle"><textPath startOffset="22.20632615414155" xlink:href="#id118">October</textPath></text><line stroke="#e1ed5e" stroke-width="0.3" x1="26.266209847984243" x2="21.928928074336255" y1="57.711370442889674" y2="55.22380399835377" /><path d="M 25.398753493254645 57.213857153982495 a86.0,86.0 0 0,1 29.58750427330803,-30.492523968695096" fill="none" id="id119" stroke="none" /><text fill="#e1ed5e" style="font-size:6.75px; font-family:Arial;" text-anchor="middle"><textPath startOffset="21.46611528233685" xlink:href="#id119">November</textPath></text><line stroke="#e1ed5e" stroke-width="0.3" x1="56.762969772571076" x2="54.21961505331055" y1="26.818313649435495" y2="22.513508569990535" /><path d="M 56.25429882871897 25.957352633546506 a86.0,86.0 0 0,1 42.265352541879196,-11.944610805530505" fill="none" id="id120" stroke="none" /><text fill="#e1ed5e" style="font-size:6.75px; font-family:Arial;" text-anchor="middle"><textPath startOffset="22.20632615414155" xlink:href="#id120">December</textPath></text></svg>