<?xml version="1.0" encoding="utf-8" ?>
<svg baseProfile="full" height="200mm" version="1.1" viewBox="0,0,200,200" width="200mm" xmlns="http://www.w3.org/2000/svg" xmlns:ev="http://www.w3.org/2001/xml-events" xmlns:xlink="http://www.w3.org/1999/xlink"><defs /><rect fill="#1a1a1a" height="200" width="200" x="0" y="0" /><text alignment-baseline="middle" fill="#e1ed5e" style="dominant-baseline: central; font-size:9.0px; font-family:Arial;" text-anchor="middle" x="100.0" y="100.0">2016</text><line stroke="#e1ed5e" stroke-width="0.3" x1="100.0" x2="100.0" y1="15.0" y2="10.0" /><path d="M 100.0 14.0 a86.0,86.0 0 0,1 42.35913384403234,11.155469271406648" fill="none" id="id1" stroke="none" /><text fill="#e1ed5e" style="font-size:6.75px; font-family:Arial;" text-anchor="middle"><textPath startOffset="22.145653131862478" xlink:href="#id1">January</textPath></text><line stroke="#e1ed5e" stroke-width="0.3" x1="143.13028292997686" x2="145.6673583964461" y1="26.7553504044142" y2="22.446841604673864" /><path d="M 143.63769802327073 25.89364864446614 a86.0,86.0 0 0,1 29.32050498858742,28.57503671076993" fill="none" id="id2" stroke="none" /><text fill="#e1ed5e" style="font-size:6.75px; font-family:Arial;" text-anchor="middle"><textPath startOffset="20.669276256404974" xlink:href="#id2">February</textPath></text><line stroke="#e1ed5e" stroke-width="0.3" x1="172.87174338648825" x2="177.1583165268699" y1="56.24261187166439" y2="53.66864786411523" /><path d="M 173.72905801456457 55.72781907015455 a86.0,86.0 0 0,1 12.242430191666344,42.057860355516425" fill="none" id="id3" stroke="none" /><text fill="#e1ed5e" style="font-size:6.75px; font-family:Arial;" text-anchor="middle"><textPath startOffset="22.145653131862474" xlink:href="#id3">March</textPath></text><line stroke="#e1ed5e" stroke-width="0.3" x1="184.99686870605535" x2="189.99668451229388" y1="99.2704041080226" y2="99.22748670261217" /><path d="M 185.99683186730306 99.26182062694052 a86.0,86.0 0 0,1 -10.086455211305974,41.156179273409016" fill="none" id="id4" stroke="none" /><text fill="#e1ed5e" style="font-size:6.75px; font-family:Arial;" text-anchor="middle"><textPath startOffset="21.40746469413373" xlink:href="#id4">April</textPath></text><line stroke="#e1ed5e" stroke-width="0.3" x1="174.33088141563837" x2="178.70328620479359" y1="141.23008692659167" y2="143.65538615756765" /><path d="M 175.20536237346943 141.71514677278685 a86.0,86.0 0 0,1 -30.301960400862466,31.631185727798858" fill="none" id="id5" stroke="none" /><text fill="#e1ed5e" style="font-size:6.75px; font-family:Arial;" text-anchor="middle"><textPath startOffset="22.145653131862474" xlink:href="#id5">May</textPath></text><line stroke="#e1ed5e" stroke-width="0.3" x1="143.1302829299769" x2="145.66735839644613" y1="173.24464959558577" y2="177.55315839532614" /><path d="M 143.63769802327073 174.10635135553383 a86.0,86.0 0 0,1 -40.68552437913181,11.842963189579606" fill="none" id="id6" stroke="none" /><text fill="#e1ed5e" style="font-size:6.75px; font-family:Arial;" text-anchor="middle"><textPath startOffset="21.407464694133747" xlink:href="#id6">June</textPath></text><line stroke="#e1ed5e" stroke-width="0.3" x1="101.45913802915013" x2="101.54496967792366" y1="184.9874750549273" y2="189.98673829345242" /><path d="M 101.47630435890484 185.9873277026323 a86.0,86.0 0 0,1 -42.54439059252881,-10.42667462771756" fill="none" id="id7" stroke="none" /><text fill="#e1ed5e" style="font-size:6.75px; font-family:Arial;" text-anchor="middle"><textPath startOffset="22.145653131862474" xlink:href="#id7">July</textPath></text><path d="M 92.93061703081489 119.77432235084164 l -5.954634171841588 16.656171565268238 a38.68857595546102,38.68857595546102 0 0,0 -0.6234587528753154,-0.22894268985937177 l 6.239682076371022 -16.551498026400147" fill="#ffa60f" stroke="none" /><path d="M 92.59220618246901 119.65005319985036 l -11.67308789708829 30.964252493297042 a54.09147795916346,54.09147795916346 0 0,0 -0.8660502501233674,-0.335006841626072 l 12.202910409705186 -30.75930576353293" fill="#8dff24" stroke="none" /><path d="M 92.25597844496254 119.51999308798841 l -15.0117718661909 37.83947151798542 a61.7084622569189,61.7084622569189 0 0,0 -0.9812983655950536,-0.3990855024469245 l 15.659124692976395 -37.57619875895921" fill="#36ff2e" stroke="none" /><path d="M 91.26138138417905 119.09545874513695 l -2.826936644281897 6.177366748592168 a27.79348443270432,27.79348443270432 0 0,0 -0.4321374451483339,-0.20226214422818 l 2.932562803301721 -6.127928372793461" fill="#ff0000" stroke="none" /><line stroke="#e1ed5e" stroke-width="0.3" x1="58.13341422392154" x2="55.67067388415222" y1="173.97424548756322" y2="178.32567169271397" /><path d="M 57.64086615596768 174.84453072859336 a86.0,86.0 0 0,1 -31.369924170532247,-30.572349798747897" fill="none" id="id8" stroke="none" /><text fill="#e1ed5e" style="font-size:6.75px; font-family:Arial;" text-anchor="middle"><textPath startOffset="22.145653131862474" xlink:href="#id8">August</textPath></text><path d="M 85.60350026404147 115.28858382429668 l -14.447182132910598 15.342406773515558 a42.07392979929247,42.07392979929247 0 0,0 -0.5215715025965276,-0.4996537010627629 l 14.708426121372439 -15.092140942147212" fill="#ffd614" stroke="none" /><path d="M 85.34317274990678 115.03919595460226 l -18.403379138872562 18.88348824569682 a47.36798232808987,47.36798232808987 0 0,0 -0.577456485863436,-0.5725209900002292 l 18.724827544865963 -18.56478724546793" fill="#e1ff1b" stroke="none" /><path d="M 85.08716467003676 114.78537596483092 l -24.81328767619004 24.601209568702433 a55.94164789394714,55.94164789394714 0 0,0 -0.6702693797852916,-0.6877554311692288 l 25.23194385712614 -24.17163144546547" fill="#77ff27" stroke="none" /><path d="M 84.58840730492382 114.26474011684316 l -31.23194028289129 28.90781766004923 a63.55697376107401,63.55697376107401 0 0,0 -0.7342413315223272,-0.8070598434926328 l 31.7235793152555 -28.36742024099892" fill="#31ff3f" stroke="none" /><path d="M 84.3458050057657 113.99807769240083 l -21.33790998134326 19.08049068139948 a49.624666408796465,49.624666408796465 0 0,0 -0.5623867409542497,-0.6398928752958134 l 21.662307786256104 -18.711385528292364" fill="#c4ff1e" stroke="none" /><path d="M 84.1078160697243 113.72728997021213 l -38.10134673397804 32.91103583796977 a71.34728297406872,71.34728297406872 0 0,0 -0.7926528093736517,-0.9337430163450208 l 38.660694106858806 -32.252126039175195" fill="#3cffa1" stroke="none" /><path d="M 83.64595745247003 113.17365903436017 l -8.353040113112925 6.728617834438917 a31.726023358785074,31.726023358785074 0 0,0 -0.33800840226715123,-0.4270625744012152 l 8.467314946021638 -6.584235316123022" fill="#ff3e05" stroke="none" /><path d="M 83.4222238831116 112.89097897827486 l -31.16154053560136 24.23140239937654 a60.47407340004877,60.47407340004877 0 0,0 -0.6302205421396141,-0.824978920011931 l 31.57291305509527 -23.692902566123742" fill="#44ff2d" stroke="none" /><path d="M 83.20337586046588 112.60449989151573 l -10.258207649999923 7.6979502629482655 a33.825336737931764,33.825336737931764 0 0,0 -0.34453196262573665,-0.467423776581113 l 10.38884163220949 -7.520720177098273" fill="#ff5e08" stroke="none" /><path d="M 82.78059297857968 112.02048342749411 l -22.987095531820326 16.04677794901665 a49.034008695405674,49.034008695405674 0 0,0 -0.4758873436766796,-0.6943338564898442 l 23.25917261231233 -15.649809357456755" fill="#cbff1d" stroke="none" /><path d="M 82.576782715395 111.72311816256416 l -25.273560371220334 17.005179340919412 a51.461926699645105,51.461926699645105 0 0,0 -0.48686796006059174,-0.7371801452711221 l 25.561752770201654 -16.56881931730923" fill="#adff20" stroke="none" /><path d="M 82.37810715431573 111.42229804090323 l -24.617017064582146 15.956453046899643 a50.33608567951494,50.33608567951494 0 0,0 -0.463768669132835,-0.729121377805294 l 24.88730342534087 -15.531517994415678" fill="#bbff1f" stroke="none" /><path d="M 82.18462484594161 111.11811171558189 l -25.127252064524964 15.681263691791175 a50.618926842234885,50.618926842234885 0 0,0 -0.4537192207903251,-0.7411162488377908 l 25.392739249770692 -15.247610326828827" fill="#b7ff1f" stroke="none" /><path d="M 81.99639281039703 110.81064883170644 l -24.43276460168899 14.671173132967727 a49.49918081592979,49.49918081592979 0 0,0 -0.4311762618225571,-0.7322315567092608 l 24.681014573641317 -14.249590407964908" fill="#c5ff1e" stroke="none" /><line stroke="#e1ed5e" stroke-width="0.3" x1="26.387840678322732" x2="22.057713659400548" y1="142.50000000000003" y2="145.00000000000006" /><path d="M 25.521815274538298 143.00000000000003 a86.0,86.0 0 0,1 -11.493303480769221,-40.785679425670985" fill="none" id="id9" stroke="none" /><text fill="#e1ed5e" style="font-size:6.75px; font-family:Arial;" text-anchor="middle"><textPath startOffset="21.40746469413373" xlink:href="#id9">September</textPath></text><path d="M 81.29705330413844 109.54985784667822 l -37.47398959534909 19.134486100132534 a63.076459624218586,63.076459624218586 0 0,0 -0.4841271065013295,-0.9685785168944647 l 37.79693661506216 -18.488375727074317" fill="#30ff39" stroke="none" /><path d="M 80.9802524753101 108.90220220490708 l -16.638935160436176 7.787861804172706 a39.37130792170474,39.37130792170474 0 0,0 -0.2812527536776622,-0.6145880248263292 l 16.770172378968894 -7.501084797131687" fill="#ffb010" stroke="none" /><path d="M 80.68587082218212 108.24405325689762 l -27.198670145980955 11.609494952419679 a50.57275825417936,50.57275825417936 0 0,0 -0.3339587876361335,-0.8013795168988568 l 27.393954778153574 -11.14088292607954" fill="#b8ff1f" stroke="none" /><path d="M 80.5471966667186 107.91128576633889 l -26.617265221664915 10.825010045043411 a49.73429397698408,49.73429397698408 0 0,0 -0.31484490194878856,-0.7936148248232795 l 26.799168798579828 -10.366494203006567" fill="#c2ff1e" stroke="none" /><path d="M 80.28708602549918 107.23885506374661 l -40.1263882571694 14.73496557642379 a63.74630095228705,63.74630095228705 0 0,0 -0.36839239256653217,-1.0304590873010968 l 40.37342081977988 -14.043971532741772" fill="#31ff42" stroke="none" /><path d="M 80.16572619554312 106.89939002012753 l -27.262516599630022 9.483318462044343 a49.864825313825364,49.864825313825364 0 0,0 -0.2742911559282897,-0.8108930641576095 l 27.42129317713068 -9.01392372341257" fill="#c1ff1e" stroke="none" /><path d="M 80.05021161711548 106.5578916946017 l -27.259962565030513 8.960891146782117 a49.695001815496425,49.695001815496425 0 0,0 -0.25944407849960893,-0.81270488067638 l 27.409771359307378 -8.491617232414345" fill="#c3ff1e" stroke="none" /><path d="M 79.48165901384964 104.47187691870673 l -34.517477548524376 7.52292357581023 a56.32776012487015,56.32776012487015 0 0,0 -0.19779704646399404,-0.9465304706670671 l 34.64153230581274 -6.929276653857754" fill="#72ff27" stroke="none" /><path d="M 79.34024301695615 103.76489593502545 l -30.046209522843778 5.475420266962468 a51.5410368813911,51.5410368813911 0 0,0 -0.15115067442761682,-0.8717969233698479 l 30.13577501476363 -4.9588303106720275" fill="#acff21" stroke="none" /><path d="M 79.2786578344484 103.40968896794605 l -27.821799829762526 4.578066574550924 a49.19594366798874,49.19594366798874 0 0,0 -0.1299675022642791,-0.8344845969320115 l 27.896288824165072 -4.099793795687463" fill="#c9ff1d" stroke="none" /><path d="M 79.17382384314188 102.69636545807758 l -37.57421755162334 4.864734724099922 a58.88782744566628,58.88782744566628 0 0,0 -0.12119090699536923,-1.0036345616689406 l 37.65219054487837 -4.219006485507582" fill="#55ff2b" stroke="none" /><path d="M 79.13060592940153 102.33845913500099 l -37.64580352159534 4.218290806226663 a58.881400450781335,58.881400450781335 0 0,0 -0.10393298295425778,-1.0054573296808549 l 37.712668897031264 -3.5714289542628763" fill="#55ff2b" stroke="none" /><path d="M 79.0935383218832 101.97986365728391 l -23.057238851525803 2.1835444917603417 a44.16040003980518,44.16040003980518 0 0,0 -0.0649922850213772,-0.7553088682747142 l 23.091324759244923 -1.7874145761099653" fill="#fff316" stroke="none" /><path d="M 79.03789590574601 101.26102812881392 l -25.113977356926167 1.5107945142854602 a46.15937914076171,46.15937914076171 0 0,0 -0.04079260516780817,-0.7913656424234276 l 25.13621155155055 -1.079457078485302" fill="#f1ff19" stroke="none" /><line stroke="#e1ed5e" stroke-width="0.3" x1="15.003131293944662" x2="10.003315487706104" y1="100.72959589197737" y2="100.7725132973878" /><path d="M 14.003168132696942 100.73817937305945 a86.0,86.0 0 0,1 10.791469493833604,-42.45332614584628" fill="none" id="id10" stroke="none" /><text fill="#e1ed5e" style="font-size:6.75px; font-family:Arial;" text-anchor="middle"><textPath startOffset="22.145653131862435" xlink:href="#id10">October</textPath></text><path d="M 79.0935383218832 98.0201363427161 l -23.66932646517185 -2.2415098251577055 a44.77522621577265,44.77522621577265 0 0,0 0.07903383390052292,-0.7645806492731257 l 23.62736023878966 2.647494996713744" fill="#fffb17" stroke="none" /><path d="M 79.2786578344484 96.59031103205396 l -19.58463561220989 -3.2226443371612334 a40.84800716915623,40.84800716915623 0 0,0 0.11979199888528608,-0.6909284160854225 l 19.52642879583237 3.5583657861672484" fill="#ffc512" stroke="none" /><path d="M 79.48165901384962 95.52812308129327 l -19.896847271860032 -4.336425256316853 a41.363916994609525,41.363916994609525 0 0,0 0.15716149045715655,-0.6924825251953084 l 19.819474919845213 4.67734211545117" fill="#ffcc13" stroke="none" /><path d="M 79.64726062577567 94.8264132398404 l -35.20450729628632 -8.948848088561062 a57.32408589471206,57.32408589471206 0 0,0 0.25061686135181044,-0.9516330434240806 l 35.045700954129785 9.551861636357927" fill="#67ff28" stroke="none" /><path d="M 80.05021161711548 93.44210830539832 l -35.60331040064421 -11.703515300293695 a58.47756638135444,58.47756638135444 0 0,0 0.32166721085791433,-0.950951952383743 l 35.39715776821393 12.3129689271516" fill="#5aff2a" stroke="none" /><path d="M 80.41425534168474 92.42381321644754 l -35.36090905805226 -13.678359262499455 a58.91426382676904,58.91426382676904 0 0,0 0.37295906173931376,-0.9401004704743294 l 35.12089132134682 14.283360750187367" fill="#55ff2b" stroke="none" /><path d="M 80.83023694016515 91.42560881287825 l -20.820895453425663 -9.312921705218725 a43.808774587206905,43.808774587206905 0 0,0 0.31295222684497487,-0.6838570945409683 l 20.65795876172564 9.668967781974366" fill="#ffee16" stroke="none" /><path d="M 81.1358732173502 90.77261029715801 l -21.024182897459607 -10.283981390387728 a44.404626460246575,44.404626460246575 0 0,0 0.340816264126792,-0.681860832017945 l 20.844546720121073 10.643374078569444" fill="#fff617" stroke="none" /><path d="M 81.29705330413844 90.45014215332179 l -34.787670971202814 -17.76283266986542 a60.0602134666249,60.0602134666249 0 0,0 0.4767406171680487,-0.9142129940263409 l 34.47762228505982 18.35739190699625" fill="#48ff2c" stroke="none" /><path d="M 81.46374523516351 90.13048839642627 l -33.0135774511373 -17.577870495585717 a58.40157519786866,58.40157519786866 0 0,0 0.47876679810009,-0.8808769838758778 l 32.70696530342186 18.142002312936214" fill="#5bff2a" stroke="none" /><line stroke="#e1ed5e" stroke-width="0.3" x1="26.387840678322718" x2="22.05771365940052" y1="57.49999999999999" y2="54.99999999999999" /><path d="M 25.521815274538284 56.99999999999999 a86.0,86.0 0 0,1 29.574782752854787,-30.34633250058573" fill="none" id="id11" stroke="none" /><text fill="#e1ed5e" style="font-size:6.75px; font-family:Arial;" text-anchor="middle"><textPath startOffset="21.40746469413373" xlink:href="#id11">November</textPath></text><path d="M 81.81346652052679 89.5 l -20.83022141190312 -12.026333939441777 a45.05266787888355,45.05266787888355 0 0,0 0.39244368494473475,-0.6664551734206121 l 20.620704016828604 12.38214028115596" fill="#ffff18" stroke="none" /><path d="M 81.99639281039701 89.18935116829357 l -15.289651439686242 -9.180996382163764 a38.83435268565707,38.83435268565707 0 0,0 0.34808901214659077,-0.5685772414366057 l 15.129794463084258 9.442110739724914" fill="#ffa80f" stroke="none" /><path d="M 82.576782715395 88.27688183743585 l -31.18427282066001 -20.982170463617848 a58.58603927946747,58.58603927946747 0 0,0 0.5685921944998407,-0.8295930043588665 l 30.819490889344856 21.51439820304675" fill="#59ff2a" stroke="none" /><path d="M 82.98947788004972 87.6856937992154 l -20.461793321447153 -14.812760396222684 a46.2606978622033,46.2606978622033 0 0,0 0.47119380216040185,-0.6392648880205133 l 20.20449749970293 15.16183159351206" fill="#efff19" stroke="none" /><path d="M 84.10781606972428 86.27271002978789 l -22.46277045179665 -19.4028061139345 a50.68240120787135,50.68240120787135 0 0,0 0.5743738447373832,-0.6535319989587283 l 22.126385543100675 19.785550390704525" fill="#b6ff1f" stroke="none" /><line stroke="#e1ed5e" stroke-width="0.3" x1="56.869717070023135" x2="54.33264160355391" y1="26.7553504044142" y2="22.446841604673864" /><path d="M 56.362301976729285 25.89364864446614 a86.0,86.0 0 0,1 42.16139366436587,-11.88097634709845" fill="none" id="id12" stroke="none" /><text fill="#e1ed5e" style="font-size:6.75px; font-family:Arial;" text-anchor="middle"><textPath startOffset="22.145653131862474" xlink:href="#id12">December</textPath></text><path d="M 90.61103034731259 81.2157712731953 l -18.77620561503541 -37.564988911577494 a62.99612231176859,62.99612231176859 0 0,0 0.9714594546143026,-0.4751894997059275 l 18.128585911159053 37.88177216138064" fill="#30ff38" stroke="none" /><path d="M 93.27111125876988 80.10723608172694 l -8.421976565479161 -24.898077228674353 a47.283910267585995,47.283910267585995 0 0,0 0.7711268638929416,-0.253484716687333 l 7.9933269639384585 25.038982866763714" fill="#e2ff1b" stroke="none" /><path d="M 94.6519064749342 79.69241777938228 l -16.044280575197423 -60.922746661853175 a84.0,84.0 0 0,0 1.3975788270984877,-0.35525907265894796 l 14.996096454873559 61.18919096634739" fill="#4dd2ff" stroke="none" /></svg>