<?xml version="1.0" encoding="utf-8" ?>
<svg baseProfile="full" height="200mm" version="1.1" viewBox="0,0,200,200" width="200mm" xmlns="http://www.w3.org/2000/svg" xmlns:ev="http://www.w3.org/2001/xml-events" xmlns:xlink="http://www.w3.org/1999/xlink"><defs /><rect fill="#1a1a1a" height="200" width="200" x="0" y="0" /><rect fill="#1a1a1a" height="200" width="180" x="10" y="0" /><text alignment-baseline="middle" fill="#e1ed5e" style="dominant-baseline: central; font-size:9.0px; font-family:Arial;" text-anchor="middle" x="100.0" y="100.0">2026</text><line stroke="#e1ed5e" stroke-width="0.3" x1="100.0" x2="100.0" y1="15.0" y2="10.0" /><path d="M 100.0 14.0 a86.0,86.0 0 0,1 42.46469731375804,11.215312516191453" fill="none" id="id121" stroke="none" /><text fill="#e1ed5e" style="font-size:6.75px; font-family:Arial;" text-anchor="middle"><textPath startOffset="22.20632615414155" xlink:href="#id121">January</textPath></text><path d="M 100.0 79.0 l 0.0 -24.71629682750291 a45.71629682750291,45.71629682750291 0 0,0 0.7869308994176628,0.006773362694239361 l -0.42545042014513446 24.712634841417227" fill="#ffca12" stroke="none" /><path d="M 100.36148047927253 79.00311137660856 l 0.26637923656248935 -15.472855333551326 a36.47514814373935,36.47514814373935 0 0,0 0.6276736674508933,0.016210959012559246 l -0.5326795392082505 15.465977582396407" fill="#ff3004" stroke="none" /><path d="M 101.08401301168833 79.027996857942 l 0.808910904297627 -15.64970331873873 a36.67059510087711,36.67059510087711 0 0,0 0.6301020192396505,0.03800947453451109 l -1.0781749723768894 15.633460574823916" fill="#ff3404" stroke="none" /><path d="M 101.44485096284872 79.0497635885617 l 1.1409032397058942 -16.54301599888751 a37.58231101330027,37.58231101330027 0 0,0 0.6450015997918643,0.05006453794993606 l -1.4254950288600998 16.520926198749105" fill="#ff4406" stroke="none" /><path d="M 101.80526077348638 79.07773832637324 l 1.285426135385248 -14.897582865388676 a35.95293601874407,35.95293601874407 0 0,0 0.6161218228799097,0.05850819102481976 l -1.541673085355402 14.873249129848679" fill="#ff2703" stroke="none" /><path d="M 102.52436894288641 79.15227682838746 l 1.835563014475728 -15.15915876626382 a36.26988494000215,36.26988494000215 0 0,0 0.619153311890755,0.08038386970245358 l -2.096231054874329 15.12531657339723" fill="#ff2d04" stroke="none" /><path d="M 102.88285421437855 79.19881850522331 l 2.1157196512258536 -15.265936181480287 a36.41184859579188,36.41184859579188 0 0,0 0.6200955494185937,0.09138596489970997 l -2.378184181073103 15.227255732419609" fill="#ff2f04" stroke="none" /><path d="M 103.95276090670814 79.375362276772 l 2.881707979118136 -15.036118929577261 a36.30977182525281,36.30977182525281 0 0,0 0.6128287047358935,0.1229276729768913 l -3.1401030933211547 14.98428730052316" fill="#ff2e04" stroke="none" /><path d="M 105.36241919743992 79.69619591428918 l 4.241251057761206 -16.058709210240185 a37.609345322257994,37.609345322257994 0 0,0 0.6244980047040819,0.170698895234422 l -4.517046951688998 15.98332377417947" fill="#ff4406" stroke="none" /><path d="M 106.0581310904928 79.89281104454417 l 4.726411304606191 -15.687155619999748 a37.38370578551748,37.38370578551748 0 0,0 0.6145429552114087,0.19094148762600666 l -4.995739632528318 15.603473997491221" fill="#ff4006" stroke="none" /><path d="M 106.40334571778207 80.00007090966166 l 5.009050926100962 -15.645049907849186 a37.42736064617091,37.42736064617091 0 0,0 0.6118788489504099,0.20172683630221486 l -5.27761259729379 15.556509347287735" fill="#ff4106" stroke="none" /><path d="M 106.74666289553966 80.11325718540242 l 5.293420084342501 -15.60310415042969 a37.47656382011968,37.47656382011968 0 0,0 0.6091155075084798,0.21250844027319848 l -5.561217595914254 15.509674856984285" fill="#ff4206" stroke="none" /><path d="M 107.08798089147638 80.2323363322302 l 5.077283436351736 -14.16003130545037 a36.04278211184308,36.04278211184308 0 0,0 0.5822070819364379,0.21443178172487284 l -5.32027284406075 14.070536255919173" fill="#ff2904" stroke="none" /><path d="M 107.4271985657038 80.35727306442388 l 5.328035812578655 -14.091066994320432 a36.06473148312134,36.06473148312134 0 0,0 0.5787819837894486,0.22455841779268648 l -5.56980096136777 13.997265872637199" fill="#ff2904" stroke="none" /><path d="M 107.76421540070413 80.48803036053334 l 5.622044952473838 -14.128558362051352 a36.20603665777272,36.20603665777272 0 0,0 0.5770830708395561,0.23540667428843473 l -5.864411892901781 14.029690801579338" fill="#ff2c04" stroke="none" /><path d="M 108.43124777332544 80.76684994638697 l 6.510206269833076 -14.850918563182752 a37.215195584576215,37.215195584576215 0 0,0 0.5844874746928268,0.2622424924937254 l -6.7648758629926835 14.736655740172495" fill="#ff3d05" stroke="none" /><path d="M 108.76106565485865 80.91482961587045 l 6.157223495076744 -13.412941316281149 a35.758671888836304,35.758671888836304 0 0,0 0.5571912655721809,0.26160877030532403 l -6.387192971948523 13.304967563335822" fill="#ff2403" stroke="none" /><path d="M 109.08828744355905 81.06846463323043 l 6.517373575009076 -13.576142821184304 a36.05947582810971,36.05947582810971 0 0,0 0.5572540953697336,0.2734421644699632 l -6.750098937389241 13.461945496579508" fill="#ff2904" stroke="none" /><path d="M 109.73455568895987 81.39251694778311 l 5.909327424498984 -11.295606436981029 a33.74797534470094,33.74797534470094 0 0,0 0.5124147194427772,0.27371419708080325 l -6.1028871904700726 11.192213513398471" fill="#ff0000" stroke="none" /><path d="M 110.05341064243156 81.56283822128135 l 6.94095697276954 -12.729167359976215 a35.49857183918892,35.49857183918892 0 0,0 0.5339592245878858,0.29714773037777226 l -7.1590402864294616 12.607804232038264" fill="#ff1f03" stroke="none" /><path d="M 110.36928655335952 81.73862282372117 l 8.182026978101316 -14.409388721655914 a37.57033641185846,37.57033641185846 0 0,0 0.5596249520002943,0.32417089348980943 l -8.428848662566939 14.266413670776055" fill="#ff4406" stroke="none" /><line stroke="#e1ed5e" stroke-width="0.3" x1="143.23703022742887" x2="145.7803849466894" y1="26.81831364943548" y2="22.513508569990506" /><path d="M 143.74570117128098 25.957352633546492 a86.0,86.0 0 0,1 28.547481713284135,27.462654790039103" fill="none" id="id122" stroke="none" /><text fill="#e1ed5e" style="font-size:6.75px; font-family:Arial;" text-anchor="middle"><textPath startOffset="19.985693538727396" xlink:href="#id122">February</textPath></text><path d="M 110.99172775467656 82.1063720568725 l 7.692463792719729 -12.522697809208672 a35.69666491497522,35.69666491497522 0 0,0 0.520798783530162,0.3261241504684152 l -7.906881728622155 12.388429317417312" fill="#ff2303" stroke="none" /><path d="M 111.2981086023043 82.29822771554956 l 8.061453345285614 -12.630610699817714 a35.9839699909125,35.9839699909125 0 0,0 0.5192537833540678,0.33773710467714824 l -8.277674154423961 12.489974670981036" fill="#ff2803" stroke="none" /><path d="M 111.60114157652 82.49532879139004 l 9.010128229786382 -13.595156232645216 a37.30983395707098,37.30983395707098 0 0,0 0.5322786240957077,0.35939690303000144 l -9.242811548288632 13.438047417316545" fill="#ff3f05" stroke="none" /><path d="M 111.90073688211348 82.69761687909136 l 8.63876525044355 -12.559829490845924 a36.24393590551318,36.24393590551318 0 0,0 0.5109857524070707,0.35797817450932656 l -8.853682142434272 12.409266473572663" fill="#ff2c04" stroke="none" /><path d="M 112.19680574252982 82.90503203632743 l 9.466778532525455 -13.268578605658664 a37.29954214076051,37.29954214076051 0 0,0 0.519448847472602,0.3774016788122131 l -9.693772696351845 13.103657692029776" fill="#ff3f05" stroke="none" /><path d="M 112.48926042617603 83.11751280151076 l 9.919002837284081 -13.40811486893618 a37.67825415397658,37.67825415397658 0 0,0 0.5180828955538058,0.39020929594630005 l -10.14833188659627 13.235388983484032" fill="#ff4506" stroke="none" /><path d="M 113.06298171725822 83.55741782278167 l 9.206775891129745 -11.588714770773407 a35.8007780994051,35.8007780994051 0 0,0 0.4792131929756938,0.3874904083426029 l -9.404892482669931 11.428518265166675" fill="#ff2503" stroke="none" /><path d="M 113.34407831869373 83.78471172551755 l 10.476892744734368 -12.731177981675083 a37.48781896994736,37.48781896994736 0 0,0 0.49473649920771123,0.4143275902264193 l -10.694486780901196 12.548949234054845" fill="#ff4206" stroke="none" /><path d="M 113.6212207817346 84.01681056812373 l 9.727121426816582 -11.413839250014231 a35.996420162065334,35.996420162065334 0 0,0 0.4681355034655568,0.40596249552147723 l -9.922150728928903 11.244711761073082" fill="#ff2803" stroke="none" /><path d="M 114.16331599549186 84.49514656593476 l 10.27771289668305 -11.25120926139012 a36.238802191453104,36.238802191453104 0 0,0 0.4569404343340386,0.4246763345459465 l -10.469861214811937 11.072628340769533" fill="#ff2c04" stroke="none" /><path d="M 114.42810811169701 84.74124197986012 l 10.20845964804894 -10.7961774559797 a35.858334228534765,35.858334228534765 0 0,0 0.4448427106037941,0.42793833515243224 l -10.392785602265153 10.618856034064967" fill="#ff2603" stroke="none" /><path d="M 114.68862486808459 84.99185889309783 l 10.513943760405809 -10.742649700930151 a36.0315513502057,36.0315513502057 0 0,0 0.43952350096930826,0.4376360473760374 l -10.697303061542438 10.560077802903995" fill="#ff2903" stroke="none" /><path d="M 115.4437574822437 85.77008943001954 l 19.168707723317777 -17.662087543042507 a47.06508569255202,47.06508569255202 0 0,0 0.54384011182138,0.6005218346780543 l -19.46989147575519 17.329512921094903" fill="#ffdf14" stroke="none" /><path d="M 115.68641384162765 86.03803664274999 l 11.462059392387305 -10.202003775423124 a36.34469571377555,36.34469571377555 0 0,0 0.411920633126947,0.47089649134551087 l -11.635971889092101 10.003191727874666" fill="#ff2e04" stroke="none" /><path d="M 115.9244219780498 86.31012108654704 l 11.56938529930789 -9.945948686170414 a36.25688603456736,36.25688603456736 0 0,0 0.40277841427960603,0.4767625996553908 l -11.738874327074612 9.745327136885917" fill="#ff2d04" stroke="none" /><path d="M 116.15771136456269 86.58626213691792 l 11.873576261035472 -9.857153396869986 a36.43195665870179,36.43195665870179 0 0,0 0.39641700157715604,0.485960371059711 l -12.041491754689037 9.651308856202174" fill="#ff3004" stroke="none" /><path d="M 116.60985879189232 87.15038557335679 l 11.524882577856767 -8.915807129563545 a35.571016958502334,35.571016958502334 0 0,0 0.370487487596216,0.48751810562147163 l -11.676646005677096 8.71610424806104" fill="#ff2103" stroke="none" /><path d="M 117.04232023915458 87.72973835380427 l 12.098583258891912 -8.710831626894224 a35.90819588362188,35.90819588362188 0 0,0 0.35683749173914503,0.5047213259876271 l -12.24673337043494 8.501283800574804" fill="#ff2703" stroke="none" /><path d="M 117.65298651832404 88.62581576622439 l 15.85217472921647 -10.213883961727978 a39.85775355733692,39.85775355733692 0 0,0 0.3666389553765278,0.5799347788700839 l -16.025641280838954 9.939501535143688" fill="#ff6b09" stroke="none" /><line stroke="#e1ed5e" stroke-width="0.3" x1="172.23445277983987" x2="176.4835382374775" y1="55.19839476539836" y2="52.563006222186495" /><path d="M 173.08426987136738 54.67131705675599 a86.0,86.0 0 0,1 12.851231095245387,41.99856678651699" fill="none" id="id123" stroke="none" /><text fill="#e1ed5e" style="font-size:6.75px; font-family:Arial;" text-anchor="middle"><textPath startOffset="22.20632615414155" xlink:href="#id123">March</textPath></text><path d="M 117.84615892207809 88.93136811851018 l 15.052858805209882 -9.336157635175283 a38.713057262890175,38.713057262890175 0 0,0 0.34636056474942006,0.5693256990695306 l -15.211335168245524 9.07566416289867" fill="#ff5708" stroke="none" /><path d="M 118.03404312379186 89.2402003453031 l 13.11480808275512 -7.824795943516303 a36.27172624837049,36.27172624837049 0 0,0 0.31528822461432016,0.5389297780454858 l -13.247555981839767 7.5978867531169225" fill="#ff2d04" stroke="none" /><path d="M 118.3937258080291 89.86733742301442 l 16.51793735739962 -9.099335689632596 a39.85842423257043,39.85842423257043 0 0,0 0.32587469612603903,0.6037963201325239 l -16.672120152744125 8.813658386167614" fill="#ff6b09" stroke="none" /><path d="M 118.56541770881063 90.18545643968196 l 15.151878454235137 -8.009987894813815 a38.13882512796542,38.13882512796542 0 0,0 0.30182442698208434,0.5830287241437855 l -15.287512314377338 7.7479864484096845" fill="#ff4d07" stroke="none" /><path d="M 118.73160827565052 90.50648371742162 l 16.51209958741322 -8.368629323539459 a39.51170952503999,39.51170952503999 0 0,0 0.3022457383948155,0.6093089653189958 l -16.653705338761444 8.083160769721513" fill="#ff6509" stroke="none" /><path d="M 119.04729006885535 91.15688171328212 l 17.943337054653494 -8.33058411244558 a40.78287078033499,40.78287078033499 0 0,0 0.29013649534120306,0.6392773084344956 l -18.084075866958045 8.020484795169022" fill="#ff7a0b" stroke="none" /><path d="M 119.34039704204932 91.81776055985345 l 15.830983286259846 -6.697530331952827 a38.189442816952116,38.189442816952116 0 0,0 0.25091975707805136,0.607622094541102 l -15.943924730224094 6.424033666958422" fill="#ff4e07" stroke="none" /><path d="M 119.47837535516314 92.15188598940014 l 17.307013439901553 -6.9732414630426325 a39.659014194507435,39.659014194507435 0 0,0 0.24967511818319438,0.6353959424092495 l -17.424482107966448 6.674296515737598" fill="#ff6709" stroke="none" /><path d="M 119.61058180528143 92.48833698450437 l 16.250030145064763 -6.224432893087253 a38.40135180254856,38.40135180254856 0 0,0 0.23113117443699904,0.6193166363009573 l -16.354765908003387 5.943793119756963" fill="#ff5207" stroke="none" /><path d="M 119.97218684219823 93.5106431181261 l 30.46628143993591 -9.89909491081021 a53.03414404710405,53.03414404710405 0 0,0 0.2746272541985523,0.8706434444741159 l -30.632164177902666 9.373201299909674" fill="#c7ff1e" stroke="none" /><path d="M 120.08093135843002 93.85539295169968 l 15.351104155812743 -4.697317126946942 a37.05369698834883,37.05369698834883 0 0,0 0.1813762638386732,0.6115105946933482 l -15.429686316763119 4.432377145507064" fill="#ff3b05" stroke="none" /><path d="M 120.28053869075195 94.5502522615342 l 15.916527167143082 -4.277058871859349 a37.481173188088114,37.481173188088114 0 0,0 0.16206800053727916,0.6245141177683153 l -15.987791499550664 4.002448328542184" fill="#ff4206" stroke="none" /><path d="M 120.37134235888165 94.90015583598534 l 15.724488636222459 -3.9365320257646577 a37.20974482404211,37.20974482404211 0 0,0 0.15019837484492943,0.6226692313025415 l -15.789919811328208 3.66527756280271" fill="#ff3d05" stroke="none" /><path d="M 120.45610955862082 95.25157060432595 l 16.28411538614126 -3.779994038481018 a37.717080152948796,37.717080152948796 0 0,0 0.1413593292348151,0.6336861551806725 l -16.34676910237811 3.4991297137503814" fill="#ff4606" stroke="none" /><path d="M 120.6074358757038 95.95851677861258 l 50.46589804449361 -9.897256574241505 a72.42725496401292,72.42725496401292 0 0,0 0.22940221110130332,1.2254757846629625 l -50.62878597950478 9.02710271211598" fill="#3bff9e" stroke="none" /><path d="M 120.67395015179393 96.31383870115 l 44.6232210168058 -7.956311645063439 a66.32697595150233,66.32697595150233 0 0,0 0.1907315527954362,1.1257084212928135 l -44.75356443112146 7.187017435454788" fill="#32ff48" stroke="none" /><path d="M 120.73433829027371 96.67025291283417 l 48.77415832013331 -7.832688428335902 a70.39908428152101,70.39908428152101 0 0,0 0.1818445442639302,1.198128343285725 l -48.90175875783654 6.991960972658095" fill="#38ff82" stroke="none" /><path d="M 120.78858239683441 97.02765380044208 l 44.34509685887202 -6.340450618584123 a65.796081630757,65.796081630757 0 0,0 0.15065423100590505,1.1225490101103 l -44.44766708893576 5.576183266409159" fill="#31ff40" stroke="none" /><path d="M 120.87857604477298 97.74499172005257 l 50.15119691843531 -5.416622477405895 a71.44286224446839,71.44286224446839 0 0,0 0.12153068518385687,1.223797414564169 l -50.2370047293014 4.552549532137291" fill="#3aff91" stroke="none" /><path d="M 120.94382443527127 98.46500227214037 l 62.831473305813795 -4.6049931835789 a84.0,84.0 0 0,0 0.09327763598233796,1.442963742987859 l -62.90143153280055 3.5227703763380056" fill="#4dd2ff" stroke="none" /><line stroke="#e1ed5e" stroke-width="0.3" x1="184.98032266829074" x2="189.97916517819016" y1="98.17113171792111" y2="98.06355123074" /><path d="M 185.9800911702706 98.14961562048488 a86.0,86.0 0 0,1 -9.607161424134198,41.387399972396054" fill="none" id="id124" stroke="none" /><text fill="#e1ed5e" style="font-size:6.75px; font-family:Arial;" text-anchor="middle"><textPath startOffset="21.466115282336823" xlink:href="#id124">April</textPath></text><line stroke="#e1ed5e" stroke-width="0.3" x1="174.80103733775053" x2="179.2010983576182" y1="140.37084112569926" y2="142.7455964860345" /><path d="M 175.68104954172406 140.8457921977663 a86.0,86.0 0 0,1 -30.038265399797805,32.042727171017184" fill="none" id="id125" stroke="none" /><text fill="#e1ed5e" style="font-size:6.75px; font-family:Arial;" text-anchor="middle"><textPath startOffset="22.206326154141568" xlink:href="#id125">May</textPath></text><line stroke="#e1ed5e" stroke-width="0.3" x1="143.8653032363475" x2="146.44561519142675" y1="172.8068346515853" y2="177.08958963109032" /><path d="M 144.38136562736335 173.6633856474863 a86.0,86.0 0 0,1 -40.68145358897372,12.25698825130547" fill="none" id="id126" stroke="none" /><text fill="#e1ed5e" style="font-size:6.75px; font-family:Arial;" text-anchor="middle"><textPath startOffset="21.466115282336833" xlink:href="#id126">June</textPath></text><line stroke="#e1ed5e" stroke-width="0.3" x1="102.19456741930631" x2="102.32365962044197" y1="184.97166512339345" y2="189.96999836594603" /><path d="M 102.22038585953345 185.97133177190398 a86.0,86.0 0 0,1 -42.740103519485714,-10.115201625700543" fill="none" id="id127" stroke="none" /><text fill="#e1ed5e" style="font-size:6.75px; font-family:Arial;" text-anchor="middle"><textPath startOffset="22.20632615414155" xlink:href="#id127">July</textPath></text><line stroke="#e1ed5e" stroke-width="0.3" x1="58.666819895761336" x2="56.23545636021788" y1="174.27360380694188" y2="178.64263932499728" /><path d="M 58.180547188652646 175.14741091055294 a86.0,86.0 0 0,1 -31.652253787137756,-30.449443065178592" fill="none" id="id128" stroke="none" /><text fill="#e1ed5e" style="font-size:6.75px; font-family:Arial;" text-anchor="middle"><textPath startOffset="22.20632615414155" xlink:href="#id128">August</textPath></text><line stroke="#e1ed5e" stroke-width="0.3" x1="26.63291911575756" x2="22.317208475507996" y1="142.92168965132927" y2="145.44649492493687" /><path d="M 25.769776987707644 143.4266507060508 a86.0,86.0 0 0,1 -11.730757126820373,-40.83630448921669" fill="none" id="id129" stroke="none" /><text fill="#e1ed5e" style="font-size:6.75px; font-family:Arial;" text-anchor="middle"><textPath startOffset="21.46611528233685" xlink:href="#id129">September</textPath></text><line stroke="#e1ed5e" stroke-width="0.3" x1="15.007084014347285" x2="10.007500721073583" y1="101.09737516637583" y2="101.16192664675087" /><path d="M 14.007167355692545 101.11028546245083 a86.0,86.0 0 0,1 10.666146001902534,-42.60595125391555" fill="none" id="id130" stroke="none" /><text fill="#e1ed5e" style="font-size:6.75px; font-family:Arial;" text-anchor="middle"><textPath startOffset="22.20632615414155" xlink:href="#id130">October</textPath></text><line stroke="#e1ed5e" stroke-width="0.3" x1="26.266209847984243" x2="21.928928074336255" y1="57.711370442889674" y2="55.22380399835377" /><path d="M 25.398753493254645 57.213857153982495 a86.0,86.0 0 0,1 29.58750427330803,-30.492523968695096" fill="none" id="id131" stroke="none" /><text fill="#e1ed5e" style="font-size:6.75px; font-family:Arial;" text-anchor="middle"><textPath startOffset="21.46611528233685" xlink:href="#id131">November</textPath></text><line stroke="#e1ed5e" stroke-width="0.3" x1="56.762969772571076" x2="54.21961505331055" y1="26.818313649435495" y2="22.513508569990535" /><path d="M 56.25429882871897 25.957352633546506 a86.0,86.0 0 0,1 42.265352541879196,-11.944610805530505" fill="none" id="id132" stroke="none" /><text fill="#e1ed5e" style="font-size:6.75px; font-family:Arial;" text-anchor="middle"><textPath startOffset="22.20632615414155" xlink:href="#id132">December</textPath></text></svg>