<?xml version="1.0" encoding="utf-8" ?>
<svg baseProfile="full" height="200mm" version="1.1" viewBox="0,0,200,200" width="200mm" xmlns="http://www.w3.org/2000/svg" xmlns:ev="http://www.w3.org/2001/xml-events" xmlns:xlink="http://www.w3.org/1999/xlink"><defs /><rect fill="#1a1a1a" height="200" width="200" x="0" y="0" /><text alignment-baseline="middle" fill="#e1ed5e" style="dominant-baseline: central; font-size:9.0px; font-family:Arial;" text-anchor="middle" x="100.0" y="100.0">2022</text><line stroke="#e1ed5e" stroke-width="0.3" x1="100.0" x2="100.0" y1="15.0" y2="10.0" /><path d="M 100.0 14.0 a86.0,86.0 0 0,1 42.46469731375804,11.215312516191453" fill="none" id="id73" stroke="none" /><text fill="#e1ed5e" style="font-size:6.75px; font-family:Arial;" text-anchor="middle"><textPath startOffset="22.20632615414155" xlink:href="#id73">January</textPath></text><path d="M 102.52436894288641 79.15227682838746 l 2.036404031739881 -16.817821990285484 a37.94066344265821,37.94066344265821 0 0,0 0.6476747159444651,0.08408676651840244 l -2.3255934761921924 16.780276900602942" fill="#ff960d" stroke="none" /><path d="M 103.59715602781102 79.31037775812273 l 2.51638942979469 -14.473419088130845 a35.690543756548045,35.690543756548045 0 0,0 0.6043681662056613,0.11044441934998471 l -2.765152717103252 14.427959187430123" fill="#ff740a" stroke="none" /><path d="M 103.95276090670814 79.375362276772 l 2.1286333426363653 -11.106740977667908 a32.30888036245811,32.30888036245811 0 0,0 0.5453024987125292,0.10938255130216873 l -2.31950225081602 11.068454470288529" fill="#ff4006" stroke="none" /><path d="M 104.307194497241 79.44645832069477 l 3.1083392206355094 -14.832712979568129 a36.15490504901927,36.15490504901927 0 0,0 0.6080175131237858,0.13288907844808312 l -3.363199457912823 14.777010403024175" fill="#ff7b0b" stroke="none" /><path d="M 105.01212808612495 79.60689891045804 l 2.9796927071502504 -12.123627638507868 a33.48442692902787,33.48442692902787 0 0,0 0.5585379581292498,0.14238376189355553 l -3.1879395539645254 12.070540880445444" fill="#ff5307" stroke="none" /><path d="M 105.36241919743992 79.69619591428918 l 3.104969709242225 -11.756390977157823 a33.159505158644805,33.159505158644805 0 0,0 0.5506090210055568,0.1505022448170856 l -3.3068766194714927 11.701202191514444" fill="#ff4e07" stroke="none" /><path d="M 105.71112130821622 79.79150937346287 l 2.64310790830752 -9.352492883160538 a30.718803555197844,30.718803555197844 0 0,0 0.5076059682612388,0.14818410160760065 l -2.8037040942921863 9.305610452634234" fill="#ff2703" stroke="none" /><path d="M 107.4271985657038 80.35727306442388 l 3.4935305138159958 -9.239347153160141 a30.877767524474944,30.877767524474944 0 0,0 0.495539403951172,0.1922615900665061 l -3.6520530827668347 9.17784285920309" fill="#ff2a04" stroke="none" /><path d="M 107.76421540070413 80.48803036053334 l 3.9005583985192485 -9.802352603712164 a31.549903904195606,31.549903904195606 0 0,0 0.5028696071271704,0.20513313905105235 l -4.068711875234806 9.733758578477532" fill="#ff3405" stroke="none" /><path d="M 108.09893153111575 80.62456947434976 l 4.352318051992397 -10.412242123288408 a32.285276180035666,32.285276180035666 0 0,0 0.5109010313738713,0.21874115879748285 l -4.530902841156584 10.335781436528135" fill="#ff4006" stroke="none" /><path d="M 108.76106565485865 80.91482961587045 l 6.715700545235307 -14.629531863344479 a37.097323887959924,37.097323887959924 0 0,0 0.5780501275531619,0.27140228569219793 l -6.966528884088067 14.511764595012279" fill="#ff890c" stroke="none" /><path d="M 109.08828744355905 81.06846463323043 l 6.434449749375271 -13.403406720187983 a35.867866534375935,35.867866534375935 0 0,0 0.5542930134019027,0.27198917440818643 l -6.664214029787606 13.290662385644964" fill="#ff770a" stroke="none" /><path d="M 109.41281617654863 81.2277094730956 l 6.599427323291692 -13.161456114767962 a35.723327343245884,35.723327343245884 0 0,0 0.5473145676725336,0.28035577937501205 l -6.8250023785529805 13.045907810080449" fill="#ff750a" stroke="none" /><line stroke="#e1ed5e" stroke-width="0.3" x1="143.23703022742887" x2="145.7803849466894" y1="26.81831364943548" y2="22.513508569990506" /><path d="M 143.74570117128098 25.957352633546492 a86.0,86.0 0 0,1 28.547481713284135,27.462654790039103" fill="none" id="id74" stroke="none" /><text fill="#e1ed5e" style="font-size:6.75px; font-family:Arial;" text-anchor="middle"><textPath startOffset="19.985693538727396" xlink:href="#id74">February</textPath></text><path d="M 111.90073688211348 82.69761687909136 l 9.160612176590318 -13.318538429300869 a37.1647852241426,37.1647852241426 0 0,0 0.5239683623300126,0.36707332242429047 l -9.388511678503981 13.158880264112643" fill="#ff8a0c" stroke="none" /><path d="M 112.19680574252982 82.90503203632743 l 8.503753069512264 -11.918808035729363 a35.641441228916165,35.641441228916165 0 0,0 0.4963574485379862,0.3606247954550771 l -8.707655834404038 11.770664005457611" fill="#ff740a" stroke="none" /><path d="M 112.48926042617603 83.11751280151076 l 6.919365871975105 -9.353324517955459 a32.634530656990016,32.634530656990016 0 0,0 0.44873077369027775,0.3379747155789604 l -7.079342799423767 9.232833212870652" fill="#ff4506" stroke="none" /><path d="M 112.77801427241765 83.33499621200491 l 6.8811034694361455 -8.974290757467035 a32.30873465762834,32.30873465762834 0 0,0 0.4384255981626813,0.34219813355757817 l -7.0345616227582575 8.854514234686233" fill="#ff4006" stroke="none" /><path d="M 113.34407831869373 83.78471172551755 l 6.6569940066219235 -8.089361758890167 a31.476322965162673,31.476322965162673 0 0,0 0.4154012225731182,0.3478865776053619 l -6.795252766154159 7.973574023890985" fill="#ff3304" stroke="none" /><path d="M 113.89432698308785 84.25364557470407 l 10.94814391586139 -12.407463463911405 a37.54711469745433,37.54711469745433 0 0,0 0.48094101433753944,0.43179359129943345 l -11.16009591779492 12.217170863842675" fill="#ff900d" stroke="none" /><path d="M 114.16331599549186 84.49514656593476 l 6.663078241816797 -7.294199436908832 a30.87937027760239,30.87937027760239 0 0,0 0.389362562042326,0.3618700671533811 l -6.78764868765397 7.17842478368081" fill="#ff2a04" stroke="none" /><path d="M 114.94478906791727 85.2469230424477 l 5.173702710413262 -5.107334328731412 a28.26994248128387,28.26994248128387 0 0,0 0.3388835612188929,0.3492492985420894 l -5.260850535335265 5.017520834639208" fill="#ff0000" stroke="none" /><path d="M 115.68641384162765 86.03803664274999 l 12.801024446473454 -11.393772729789134 a38.137219258015506,38.137219258015506 0 0,0 0.43223659447253665,0.4941211471325418 l -12.995252904523838 11.171736026453644" fill="#ff990e" stroke="none" /><path d="M 116.15771136456269 86.58626213691792 l 12.380923266838101 -10.278340506102658 a37.09134998993943,37.09134998993943 0 0,0 0.40359187636299226,0.49475591918040207 l -12.556013635277504 10.063700417314156" fill="#ff890c" stroke="none" /><path d="M 116.38621287248628 86.86637796730983 l 13.904638508434036 -11.144629213110713 a38.8197006806497,38.8197006806497 0 0,0 0.4134222690376677,0.5250042979890919 l -14.094414858065669 10.903632521168584" fill="#ffa30f" stroke="none" /><path d="M 116.60985879189232 87.15038557335679 l 8.150213517393805 -6.305116889039767 a31.304391266036205,31.304391266036205 0 0,0 0.3260487403104877,0.42904192324485835 l -8.257538197928406 6.163890189913875" fill="#ff3104" stroke="none" /><path d="M 116.82858285166822 87.43820079747576 l 8.242475876587745 -6.152646827482646 a31.285595342996107,31.285595342996107 0 0,0 0.31842387688418305,0.4343298102180753 l -8.347162365985556 6.009854573593077" fill="#ff3004" stroke="none" /><path d="M 117.2510076193507 88.02491185347247 l 8.462541652177126 -5.874421046270228 a31.301622874270606,31.301622874270606 0 0,0 0.3034402191459732,0.44526107904030365 l -8.562406336991833 5.7278819439595186" fill="#ff3104" stroke="none" /><path d="M 117.65298651832404 88.62581576622439 l 8.978677345065549 -5.785147470225254 a31.68103825098698,31.68103825098698 0 0,0 0.2914239196365228,0.46096265525929914 l -9.076928860948028 5.629737167251749" fill="#ff3705" stroke="none" /><line stroke="#e1ed5e" stroke-width="0.3" x1="172.23445277983987" x2="176.4835382374775" y1="55.19839476539836" y2="52.563006222186495" /><path d="M 173.08426987136738 54.67131705675599 a86.0,86.0 0 0,1 12.851231095245387,41.99856678651699" fill="none" id="id75" stroke="none" /><text fill="#e1ed5e" style="font-size:6.75px; font-family:Arial;" text-anchor="middle"><textPath startOffset="22.20632615414155" xlink:href="#id75">March</textPath></text><path d="M 118.03404312379186 89.2402003453031 l 8.964280929143715 -5.348432749323827 a31.438585414252707,31.438585414252707 0 0,0 0.27327664836714805,0.46711837598654216 l -9.055017251981191 5.193334960983389" fill="#ff3304" stroke="none" /><path d="M 118.21658344932153 89.55222093294921 l 8.91687016149774 -5.114103293632466 a31.279330035316075,31.279330035316075 0 0,0 0.26385210958325406,0.4693634615390467 l -9.003579912373427 4.959856322158625" fill="#ff3004" stroke="none" /><path d="M 118.73160827565052 90.50648371742162 l 13.57260829298282 -6.878842218475556 a36.216246782351675,36.216246782351675 0 0,0 0.27703701971395944,0.5584897267152548 l -13.689005325650188 6.644192903261351" fill="#ff7c0b" stroke="none" /><path d="M 118.89224826269711 90.83032412892265 l 13.797277870454339 -6.696744835026461 a36.3365989717402,36.3365989717402 0 0,0 0.26827104448697076,0.5650472373357098 l -13.910507108783065 6.458255182050212" fill="#ff7e0b" stroke="none" /><path d="M 119.04729006885535 91.15688171328212 l 13.69548881976 -6.358428269310129 a36.09953721370736,36.09953721370736 0 0,0 0.25681843897253864,0.5658653877018756 l -13.802909575695885 6.12174087276619" fill="#ff7a0b" stroke="none" /><path d="M 119.196687751892 91.48605970444005 l 9.497983053747173 -4.212459029025648 a31.390211410769666,31.390211410769666 0 0,0 0.21481261903475676,0.49581714174093716 l -9.56908638262461 4.048342742698107" fill="#ff3204" stroke="none" /><path d="M 119.34039704204932 91.81776055985345 l 14.1960905553813 -6.005864915057855 a36.41425964600665,36.41425964600665 0 0,0 0.23925610091638153,0.5793776259927106 l -14.297368343183878 5.760612718611841" fill="#ff7f0b" stroke="none" /><path d="M 119.61058180528143 92.48833698450437 l 11.575967502604843 -4.4340737985895915 a33.39612980218835,33.39612980218835 0 0,0 0.2010055985143206,0.5385950703222068 l -11.650577689620789 4.234155591238052" fill="#ff5107" stroke="none" /><path d="M 119.7369772167798 92.82701384747503 l 12.770211940832505 -4.641062935337658 a34.58741249037307,34.58741249037307 0 0,0 0.19854314373689458,0.5613082034514715 l -12.848208165379209 4.420557105459571" fill="#ff6409" stroke="none" /><path d="M 119.85752413597 93.16781622104841 l 9.733737364671494 -3.348991650526074 a31.293754813463128,31.293754813463128 0 0,0 0.17086793404544662,0.5108733743147363 l -9.78994259248871 3.1809451732890235" fill="#ff3004" stroke="none" /><path d="M 119.97218684219823 93.5106431181261 l 10.140672191367502 -3.2949041280166096 a31.662533737606417,31.662533737606417 0 0,0 0.16395842447470763,0.5197930112646524 l -10.195886099610416 3.119860950325538" fill="#ff3605" stroke="none" /><path d="M 120.37134235888165 94.90015583598534 l 14.324547535876137 -3.586065113727675 a35.76660167768704,35.76660167768704 0 0,0 0.14437307944781944,0.5985196210902233 l -14.384153415584777 3.3389602609780455" fill="#ff750a" stroke="none" /><path d="M 120.45610955862082 95.25157060432595 l 21.29094852997115 -4.942218635062612 a42.857035808696494,42.857035808696494 0 0,0 0.16062329879043255,0.7200427534136686 l -21.37286621576362 4.5749977120989795" fill="#ffdc14" stroke="none" /><path d="M 120.53481517161879 95.60439243477599 l 10.494302568434462 -2.2463720942234295 a31.732034941405843,31.732034941405843 0 0,0 0.1097334628330863,0.5350993358202397 l -10.531415327182545 2.065397102239778" fill="#ff3705" stroke="none" /><path d="M 120.87857604477298 97.74499172005257 l 29.27248010395916 -3.16159899350751 a50.44272065608803,50.44272065608803 0 0,0 0.08580757001161333,0.8640705198969382 l -29.322564799653 2.6572529429061373" fill="#bdff1f" stroke="none" /><path d="M 120.91429891909075 98.10471618934814 l 29.759056304704984 -2.6968084300975796 a50.88100078403076,50.88100078403076 0 0,0 0.07153751485377145,0.8729388790965186 l -29.80106830337825 2.184155633793292" fill="#b7ff1f" stroke="none" /><line stroke="#e1ed5e" stroke-width="0.3" x1="184.98032266829074" x2="189.97916517819016" y1="98.17113171792111" y2="98.06355123074" /><path d="M 185.9800911702706 98.14961562048488 a86.0,86.0 0 0,1 -9.607161424134198,41.387399972396054" fill="none" id="id76" stroke="none" /><text fill="#e1ed5e" style="font-size:6.75px; font-family:Arial;" text-anchor="middle"><textPath startOffset="21.466115282336823" xlink:href="#id76">April</textPath></text><path d="M 120.99513854157772 99.54816195383933 l 29.791924891455206 -0.6411543847478187 a50.79882326004149,50.79882326004149 0 0,0 0.011289416503954253,0.8743777496047523 l -29.798547315076874 0.12824037708260363" fill="#b8ff1f" stroke="none" /><path d="M 120.9904718944345 100.63252640178507 l 14.96306780066258 0.45089674416174574 a35.96985991521367,35.96985991521367 0 0,0 -0.023976253354952022,0.6187205630044775 l -14.953089414456425 -0.7083945541802295" fill="#ff780b" stroke="none" /><path d="M 120.9764740272857 100.99374915477107 l 14.96560599196339 0.708987520295602 a35.98239053057373,35.98239053057373 0 0,0 -0.034635019829185994,0.6184315455404045 l -14.951184621246675 -0.9664907821714297" fill="#ff790b" stroke="none" /><path d="M 120.95626037817324 101.35467743843564 l 14.935335874091589 0.9654662701730569 a35.966508704129,35.966508704129 0 0,0 -0.04525518727581623,0.6174710749648209 l -14.916504128151436 -1.222410481634648" fill="#ff780b" stroke="none" /><path d="M 120.92983693683757 101.71520430193887 l 14.813399337063329 1.2139610234874816 a35.86305827499358,35.86305827499358 0 0,0 -0.05571651214097331,0.614827068693566 l -14.79030822864528 -1.468769480729618" fill="#ff770a" stroke="none" /><path d="M 120.89721153311464 102.0752229133903 l 15.337071740626909 1.5230664938249776 a36.41251118804943,36.41251118804943 0 0,0 -0.06730713718510847,0.6231804976379118 l -15.308582301940747 -1.7868433133476809" fill="#ff7f0b" stroke="none" /><path d="M 120.81339534386255 102.79330883721812 l 15.015762819283191 2.015224440208563 a36.15038819929646,36.15038819929646 0 0,0 -0.08807947230167902,0.6160276241325816 l -14.97884929596491 -2.273397536321554" fill="#ff7b0b" stroke="none" /><path d="M 120.76222939487914 103.15116336523771 l 14.56886848142061 2.211173172132564 a35.735712253776185,35.735712253776185 0 0,0 -0.09753849204934564,0.6073722830990367 l -14.528648235009976 -2.4616246849248054" fill="#ff750a" stroke="none" /><path d="M 120.70491114924044 103.5080841355445 l 14.899858975604294 2.524519835772648 a36.11221353389719,36.11221353389719 0 0,0 -0.10911659160631787,0.6119837936301006 l -14.854195941658787 -2.780622380135967" fill="#ff7b0b" stroke="none" /><path d="M 120.02730092923936 106.31721596034902 l 12.600384528662191 3.9745420779485365 a34.21236825854975,34.21236825854975 0 0,0 -0.18198984026503787,0.5601071353168651 l -12.530102437380908 -4.190848113243197" fill="#ff5e08" stroke="none" /><path d="M 119.67450827220406 107.3425965602758 l 14.256773327972692 5.320678583184577 a36.217266716160054,36.217266716160054 0 0,0 -0.22300475066129455,0.5821950341473338 l -14.163074297717891 -5.565297184165055" fill="#ff7c0b" stroke="none" /><path d="M 119.54520255179757 107.68017299344265 l 16.717985008936928 6.569234400623174 a38.962345708992764,38.962345708992764 0 0,0 -0.2506529070326012,0.6220999593596246 l -16.602429487646933 -6.856033727825612" fill="#ffa50f" stroke="none" /><path d="M 119.41010516605496 108.01547362559984 l 16.550176122181547 6.8344555102346485 a38.9058122350427,38.9058122350427 0 0,0 -0.2609450228200965,0.6167969520330844 l -16.43008011816914 -7.118326987933896" fill="#ffa40f" stroke="none" /><path d="M 119.26925614724726 108.34839909993367 l 13.509483002176884 5.852979215913034 a35.72289022875658,35.72289022875658 0 0,0 -0.24930990677097026,0.5621280238753202 l -13.40673201067464 -6.084655576281041" fill="#ff750a" stroke="none" /><path d="M 119.12269723197855 108.67885076344098 l 13.941563045401693 6.327389050421424 a36.310226397552164,36.310226397552164 0 0,0 -0.2632065774285642,0.566923551824754 l -13.8305818511333 -6.566432669525009" fill="#ff7e0b" stroke="none" /><path d="M 118.64920377521936 109.65438752849418 l 21.20849246831686 10.979289392309335 a44.88189582798504,44.88189582798504 0 0,0 -0.36108017744046234,0.6830276190996328 l -21.016359782651502 -11.342732026495103" fill="#fff817" stroke="none" /><line stroke="#e1ed5e" stroke-width="0.3" x1="174.80103733775053" x2="179.2010983576182" y1="140.37084112569926" y2="142.7455964860345" /><path d="M 175.68104954172406 140.8457921977663 a86.0,86.0 0 0,1 -30.038265399797805,32.042727171017184" fill="none" id="id77" stroke="none" /><text fill="#e1ed5e" style="font-size:6.75px; font-family:Arial;" text-anchor="middle"><textPath startOffset="22.206326154141568" xlink:href="#id77">May</textPath></text><path d="M 118.48025628344425 109.97397251340804 l 13.819513774081573 7.458524839551873 a36.703775142756044,36.703775142756044 0 0,0 -0.3048573450992353,0.553404633156875 l -13.689080019530827 -7.695299991106554" fill="#ff830c" stroke="none" /><path d="M 118.30583269289576 110.29060199501025 l 13.40038215090835 7.533008828904758 a36.37258806469295,36.37258806469295 0 0,0 -0.3115017789622291,0.5431296081837345 l -13.26872837579374 -7.762558282946808" fill="#ff7e0b" stroke="none" /><path d="M 117.94076556474637 110.91462005526583 l 10.576097918346635 6.434178632425224 a33.379519451594774,33.379519451594774 0 0,0 -0.30285613173427867,0.4883005158473394 l -10.463777146944395 -6.6152754796378375" fill="#ff5107" stroke="none" /><path d="M 117.75023020441432 111.22182372390056 l 12.73121828076021 8.048768139449898 a36.06209107245693,36.06209107245693 0 0,0 -0.33622771659242656,0.5218328827897651 l -12.590785700790734 -8.266722622161117" fill="#ff7a0b" stroke="none" /><path d="M 117.14729908036423 112.12312394758627 l 12.353617295923875 8.7339955393342 a36.129260998980065,36.129260998980065 0 0,0 -0.36339190521526693,0.5047195731898021 l -12.201445598333006 -8.945348717975135" fill="#ff7b0b" stroke="none" /><path d="M 116.71984013943494 112.70617746262583 l 11.932318837289323 9.067919275713551 a35.98690738029654,35.98690738029654 0 0,0 -0.3790504086631607,0.48997374970642754 l -11.774461611408093 -9.271971019533233" fill="#ff790b" stroke="none" /><path d="M 116.498646956653 112.99209946851258 l 11.903930549969049 9.373923217933864 a36.15169954276437,36.15169954276437 0 0,0 -0.3892024626377977,0.4855899147550345 l -11.740810175276398 -9.57744096626715" fill="#ff7b0b" stroke="none" /><path d="M 116.0416608686014 113.55231037782055 l 11.675829708784782 9.863970409806155 a36.28472805234273,36.28472805234273 0 0,0 -0.40717942636770726,0.47364166237348904 l -11.504307772846296 -10.063489171341173" fill="#ff7d0b" stroke="none" /><path d="M 115.80600337817218 113.82643327865902 l 11.275103341612871 9.862990683532523 a35.98020495812721,35.98020495812721 0 0,0 -0.4117868499773741,0.46264689127200437 l -11.103657641987159 -10.055611744545393" fill="#ff790b" stroke="none" /><path d="M 115.56566222782051 114.09645910891815 l 11.103765641614064 10.055709550363238 a35.98035066295697,35.98035066295697 0 0,0 -0.41969124459356266,0.455491955978813 l -10.92902798902478 -10.245352761143385" fill="#ff790b" stroke="none" /><path d="M 115.32070863581623 114.36230785411682 l 11.018532638891616 10.32925836670769 a36.10303412962179,36.10303412962179 0 0,0 -0.42892716622296595,0.44972841895656757 l -10.839098921289684 -10.517393902246763" fill="#ff7a0b" stroke="none" /><path d="M 114.55890576462653 115.13401014063108 l 10.159121550120764 10.560426109288397 a35.653680434616696,35.653680434616696 0 0,0 -0.4459497248693039,0.42167329964230515 l -9.975835990860652 -10.733734045676623" fill="#ff740a" stroke="none" /><path d="M 114.29624159901734 115.38237550388516 l 10.067191798673864 10.832030463690444 a35.7878745828332,35.7878745828332 0 0,0 -0.45484761189435946,0.4154925091327099 l -9.87924463731264 -11.003715739409737" fill="#ff760a" stroke="none" /><path d="M 113.75828350139079 115.86535959552629 l 9.869265691773851 11.380740128516353 a36.06398523524392,36.06398523524392 0 0,0 -0.47249749478244,0.40267261566783147 l -9.671902720414364 -11.548937134407131" fill="#ff7a0b" stroke="none" /><path d="M 113.48314897796784 116.09983520530334 l 9.831032074466853 11.738948857985784 a36.31182915067961,36.31182915067961 0 0,0 -0.4826531525303017,0.3971906856731097 l -9.62750879339186 -11.906434662516071" fill="#ff7e0b" stroke="none" /><path d="M 113.20401910651253 116.32954008644616 l 9.522794244148875 11.776933151218344 a36.14528853025457,36.14528853025457 0 0,0 -0.48717395676466785,0.3870404551882741 l -9.318662794666857 -11.939107520411744" fill="#ff7b0b" stroke="none" /><path d="M 112.92097659922987 116.55440617244103 l 8.962931841092965 11.483343619877868 a35.56713176573439,35.56713176573439 0 0,0 -0.48586611016550824,0.37254141488112097 l -8.763937002433963 -11.63592437658636" fill="#ff720a" stroke="none" /><path d="M 112.63410532772338 116.77436683061366 l 8.775683379683995 11.651520102267897 a35.58665621292333,35.58665621292333 0 0,0 -0.4924770070487189,0.3643227163522192 l -8.573821402216712 -11.800852767359885" fill="#ff730a" stroke="none" /><path d="M 112.04921762599082 117.19931262002967 l 8.546235757592527 12.199080893206366 a35.89482192788305,35.89482192788305 0 0,0 -0.5090964566146443,0.3501611850488872 l -8.334982416354999 -12.344382867620347" fill="#ff770b" stroke="none" /><path d="M 111.45004920935366 117.60387380957326 l 8.135797522190153 12.508378811496724 a35.92148591173063,35.92148591173063 0 0,0 -0.5212347835628158,0.33267670024002066 l -7.919280936580406 -12.646569940560553" fill="#ff780b" stroke="none" /><path d="M 111.1453310114006 117.79835938074945 l 7.8367698998616495 12.514805250674138 a35.76601885836797,35.76601885836797 0 0,0 -0.5246037020947922,0.3222544411255688 l -7.620186997834549 -12.647848158628086" fill="#ff750a" stroke="none" /><line stroke="#e1ed5e" stroke-width="0.3" x1="143.8653032363475" x2="146.44561519142675" y1="172.8068346515853" y2="177.08958963109032" /><path d="M 144.38136562736335 173.6633856474863 a86.0,86.0 0 0,1 -40.68145358897372,12.25698825130547" fill="none" id="id78" stroke="none" /><text fill="#e1ed5e" style="font-size:6.75px; font-family:Arial;" text-anchor="middle"><textPath startOffset="21.466115282336833" xlink:href="#id78">June</textPath></text><path d="M 110.5260780823613 118.17145234162733 l 7.4855535260681245 12.922512837671587 a35.93401652709069,35.93401652709069 0 0,0 -0.5379001145126177,0.30543372335091373 l -7.262004644634308 -13.049449726817128" fill="#ff780b" stroke="none" /><path d="M 110.21172684928248 118.3499491758327 l 7.369062442751704 13.241827096808064 a36.15417652487043,36.15417652487043 0 0,0 -0.5464052802222803,0.29794372502648964 l -7.140034350660775 -13.366711473594325" fill="#ff7b0b" stroke="none" /><path d="M 109.89434966115114 118.52300852407294 l 7.1184095326651 13.326228096537402 a36.10827950349345,36.10827950349345 0 0,0 -0.5507528770992869,0.28812787510985577 l -6.887965753039318 -13.446785390591975" fill="#ff7b0b" stroke="none" /><path d="M 109.2508944713604 118.85261126421891 l 6.582437577424233 13.414501397929891 a35.942467407217244,35.942467407217244 0 0,0 -0.5577711813726962,0.2677640627577659 l -6.350553728051304 -13.525819737187216" fill="#ff780b" stroke="none" /><path d="M 108.59647513512805 119.15986991738527 l 6.220212745822079 13.863643550995706 a36.19511958203529,36.19511958203529 0 0,0 -0.5706407510429604,0.25015213567139655 l -5.980651320121365 -13.968660239961558" fill="#ff7c0b" stroke="none" /><path d="M 108.2653958097858 119.30500536409082 l 6.071949342901126 14.181899733877561 a36.427081671026244,36.427081671026244 0 0,0 -0.5785462564049604,0.24183238209876415 l -5.826931626998705 -14.284317158996299" fill="#ff7f0b" stroke="none" /><path d="M 107.93186726928326 119.44442032107085 l 10.530511802148625 25.814816451848866 a48.880036356824185,48.880036356824185 0 0,0 -0.7817987625983125,0.31109386212550627 l -10.084591963508446 -25.99225715838044" fill="#d1ff1c" stroke="none" /><path d="M 107.59598834532513 119.57807347666477 l 5.42518645563342 13.982999212783993 a35.998563766678,35.998563766678 0 0,0 -0.5796279247320953,0.21916568434370548 l -5.18368831014105 -14.074313147234328" fill="#ff790b" stroke="none" /><path d="M 107.2578585660854 119.70592522655815 l 5.1421434690146794 13.961514099783743 a35.87835728211924,35.87835728211924 0 0,0 -0.5813668180877566,0.2084574569256296 l -4.901057090297188 -14.047959097749333" fill="#ff770b" stroke="none" /><path d="M 106.57524785965236 119.94407469862006 l 4.687351026108795 14.217696579473092 a35.97044273453274,35.97044273453274 0 0,0 -0.5897074114822994,0.18880569081036114 l -4.441922269535556 -14.29627511694316" fill="#ff780b" stroke="none" /><path d="M 105.88484417918355 120.15858648285463 l 7.9855155546415535 27.35445510823298 a49.49622208191387,49.49622208191387 0 0,0 -0.8199139504223999,0.23171587228845678 l -7.513470436114548 -27.487859773859956" fill="#c9ff1d" stroke="none" /><path d="M 105.18746579009965 120.34920634021253 l 3.667509915656223 14.386777484084424 a35.84688503888931,35.84688503888931 0 0,0 -0.5992348211947534,0.14727733973890456 l -3.4193218097182587 -14.447776082137358" fill="#ff770a" stroke="none" /><path d="M 104.83641907484287 120.43548508189849 l 3.4448919758566667 14.555818569890569 a35.957912119172676,35.957912119172676 0 0,0 -0.6035447377100276,0.1373648173298381 l -3.193827088753777 -14.612960120798093" fill="#ff780b" stroke="none" /><path d="M 104.48393922423573 120.51570834832081 l 3.276582424925813 14.991596907843777 a36.34548696635606,36.34548696635606 0 0,0 -0.6123496965335251,0.12832383267317857 l -3.01804126696291 -15.045776721243497" fill="#ff7e0b" stroke="none" /><path d="M 104.13013068566511 120.58985236759428 l 2.997322841645406 14.942489597652699 a36.24014237443366,36.24014237443366 0 0,0 -0.6126868664502971,0.11742289616223166 l -2.7396683606234045 -14.991869692163398" fill="#ff7d0b" stroke="none" /><path d="M 103.7750983002368 120.6578951692458 l 2.768532892091214 15.149820669263518 a36.400709096838206,36.400709096838206 0 0,0 -0.6173404754278874,0.10733255476759825 l -2.507343445191277 -15.195231802552122" fill="#ff7f0b" stroke="none" /><path d="M 102.70371172650421 120.8252237178851 l 1.9206076167751625 14.793397869132859 a35.91755188132689,35.91755188132689 0 0,0 -0.6138011619684535,0.07432277268965891 l -1.6656790317553285 -14.824266170547867" fill="#ff780b" stroke="none" /><path d="M 102.34483914955558 120.86867818915974 l 1.6668016104624361 14.834256934214993 a35.92760551458089,35.92760551458089 0 0,0 -0.6151617059550515,0.06376402606670509 l -1.4112073079017822 -14.860750328737456" fill="#ff780b" stroke="none" /><path d="M 101.98527174616119 120.90594882070398 l 1.4012208236485413 14.75558743146623 a35.821969512998955,35.821969512998955 0 0,0 -0.6143564699902777,0.05300926130796981 l -1.147020035916722 -14.777520945052864" fill="#ff760a" stroke="none" /><path d="M 101.62511606390274 120.93702456842531 l 0.7492061644661797 9.6523246681678 a30.681357413947424,30.681357413947424 0 0,0 -0.5268971444438522,0.03633791197011525 l -0.5829462592433972 -9.6637909246542" fill="#ff2703" stroke="none" /><path d="M 100.90346689309514 120.98055641714683 l 0.6635695941938187 15.409595430765314 a36.42387616477135,36.42387616477135 0 0,0 -0.6266288176883147,0.021582363486726094 l -0.39822042483085174 -15.418734592678133" fill="#ff7f0b" stroke="none" /><line stroke="#e1ed5e" stroke-width="0.3" x1="102.19456741930631" x2="102.32365962044197" y1="184.97166512339345" y2="189.96999836594603" /><path d="M 102.22038585953345 185.97133177190398 a86.0,86.0 0 0,1 -42.740103519485714,-10.115201625700543" fill="none" id="id79" stroke="none" /><text fill="#e1ed5e" style="font-size:6.75px; font-family:Arial;" text-anchor="middle"><textPath startOffset="22.20632615414155" xlink:href="#id79">July</textPath></text><path d="M 100.54218724476979 120.99299961872073 l 0.37789503345039416 14.63175382613232 a35.636632969533814,35.636632969533814 0 0,0 -0.6133578891280702,0.01055951230224629 l -0.12597745442965594 -14.636090815713725" fill="#ff730a" stroke="none" /><path d="M 100.18074693466247 120.99922214144158 l 0.1377871353618645 16.00814237375598 a37.00873535146087,37.00873535146087 0 0,0 -0.6370681400486289,0.0 l 0.13778713536185347 -16.00814237375598" fill="#ff880c" stroke="none" /><path d="M 99.45781275523022 120.99299961872073 l -0.38239423169044084 14.80595871171233 a35.81089594593657,35.81089594593657 0 0,0 -0.6160832330268532,-0.021219152228450937 l 0.6371978163919371 -14.797182761057787" fill="#ff760a" stroke="none" /><path d="M 99.09653310690486 120.98055641714683 l -0.6423317564964622 14.916404528704675 a35.93022820151672,35.93022820151672 0 0,0 -0.6176781469225564,-0.03192690482468977 l 0.8989979718325076 -14.903137817117784" fill="#ff780b" stroke="none" /><path d="M 98.01472825383883 120.90594882070398 l -1.4015376362524268 14.758923633724486 a35.82532072408362,35.82532072408362 0 0,0 -0.6134103594538367,-0.06358249184102474 l 1.6553805923118567 -14.7326117734277" fill="#ff760a" stroke="none" /><path d="M 97.2962882734958 120.8252237178851 l -1.981969062287757 15.266031773822483 a36.394152379498635,36.394152379498635 0 0,0 -0.6205574007184868,-0.08600360120766509 l 2.244455054193075 -15.229653607122215" fill="#ff7f0b" stroke="none" /><path d="M 95.86986931433489 120.58985236759428 l -2.8842455161919167 14.378767620212479 a35.66519111616838,35.66519111616838 0 0,0 -0.600888054602531,-0.12592193416708478 l 3.1313250322238346 -14.326989705318852" fill="#ff740a" stroke="none" /><path d="M 95.16358092515715 120.4354850818985 l -3.432945808999342 14.505342027055736 a35.906041199775196,35.906041199775196 0 0,0 -0.6002237057645731,-0.14752038350672392 l 3.6821227995071255 -14.444100385234982" fill="#ff780b" stroke="none" /><path d="M 94.46302465271185 120.25689768951611 l -3.899859002333096 14.267544978774618 a35.79093438425833,35.79093438425833 0 0,0 -0.5928833588903025,-0.167554759374202 l 4.144873529328013 -14.198301426061894" fill="#ff760a" stroke="none" /><path d="M 92.06813273071674 119.44442032107085 l -5.544222612294254 13.591275694251038 a35.67859596050705,35.67859596050705 0 0,0 -0.5666585732327455,-0.2368633295686595 l 5.777352645024462 -13.493827321662407" fill="#ff740a" stroke="none" /><path d="M 91.07499286063937 119.00905698771935 l -6.412849877851116 13.658502102945514 a36.089046465964046,36.089046465964046 0 0,0 -0.5600458603432531,-0.2688560468956503 l 6.647008406194611 -13.5460917795503" fill="#ff7a0b" stroke="none" /><path d="M 90.7491055286396 118.85261126421891 l -6.460163791333202 13.165316828360437 a35.66489970650884,35.66489970650884 0 0,0 -0.5488082368116474,-0.27518384300946785 l 6.68582593582761 -13.052165144441666" fill="#ff740a" stroke="none" /><path d="M 90.10565033884886 118.52300852407294 l -6.984541611739491 13.075616714756457 a35.824155085445476,35.824155085445476 0 0,0 -0.5414176003904965,-0.2952240443021078 l 7.208582023998628 -12.953452018694584" fill="#ff760a" stroke="none" /><line stroke="#e1ed5e" stroke-width="0.3" x1="58.666819895761336" x2="56.23545636021788" y1="174.27360380694188" y2="178.64263932499728" /><path d="M 58.180547188652646 175.14741091055294 a86.0,86.0 0 0,1 -31.652253787137756,-30.449443065178592" fill="none" id="id80" stroke="none" /><text fill="#e1ed5e" style="font-size:6.75px; font-family:Arial;" text-anchor="middle"><textPath startOffset="22.20632615414155" xlink:href="#id80">August</textPath></text><path d="M 89.7882731507175 118.34994917583269 l -7.132415820837675 12.816585259766553 a35.66752239344467,35.66752239344467 0 0,0 -0.533910935487847,-0.3031685633894716 l 7.351975523246729 -12.691913530582449" fill="#ff740a" stroke="none" /><path d="M 82.6465618267979 111.8261652097733 l -14.006573804274007 9.545316275596713 a37.949842846933606,37.949842846933606 0 0,0 -0.3632285982087839,-0.5429774708187537 l 14.168805507893522 -9.30280189057214" fill="#ff960d" stroke="none" /><line stroke="#e1ed5e" stroke-width="0.3" x1="26.63291911575756" x2="22.317208475507996" y1="142.92168965132927" y2="145.44649492493687" /><path d="M 25.769776987707644 143.4266507060508 a86.0,86.0 0 0,1 -11.730757126820373,-40.83630448921669" fill="none" id="id81" stroke="none" /><text fill="#e1ed5e" style="font-size:6.75px; font-family:Arial;" text-anchor="middle"><textPath startOffset="21.46611528233685" xlink:href="#id81">September</textPath></text><path d="M 81.87401531095188 110.60418214915194 l -13.059582882320012 7.640202618053771 a36.130280932788445,36.130280932788445 0 0,0 -0.309426614486468,-0.5395113840041178 l 13.189161492958856 -7.414271388191347" fill="#ff7b0b" stroke="none" /><line stroke="#e1ed5e" stroke-width="0.3" x1="15.007084014347285" x2="10.007500721073583" y1="101.09737516637583" y2="101.16192664675087" /><path d="M 14.007167355692545 101.11028546245083 a86.0,86.0 0 0,1 10.666146001902534,-42.60595125391555" fill="none" id="id82" stroke="none" /><text fill="#e1ed5e" style="font-size:6.75px; font-family:Arial;" text-anchor="middle"><textPath startOffset="22.20632615414155" xlink:href="#id82">October</textPath></text><line stroke="#e1ed5e" stroke-width="0.3" x1="26.266209847984243" x2="21.928928074336255" y1="57.711370442889674" y2="55.22380399835377" /><path d="M 25.398753493254645 57.213857153982495 a86.0,86.0 0 0,1 29.58750427330803,-30.492523968695096" fill="none" id="id83" stroke="none" /><text fill="#e1ed5e" style="font-size:6.75px; font-family:Arial;" text-anchor="middle"><textPath startOffset="21.46611528233685" xlink:href="#id83">November</textPath></text><path d="M 86.10567301691215 84.25364557470407 l -41.68298094926353 -47.23906327588782 a84.0,84.0 0 0,0 1.092424805412906,-0.9473400263212777 l 40.863662345203856 47.94956829562878" fill="#4dd2ff" stroke="none" /><line stroke="#e1ed5e" stroke-width="0.3" x1="56.762969772571076" x2="54.21961505331055" y1="26.818313649435495" y2="22.513508569990535" /><path d="M 56.25429882871897 25.957352633546506 a86.0,86.0 0 0,1 42.265352541879196,-11.944610805530505" fill="none" id="id84" stroke="none" /><text fill="#e1ed5e" style="font-size:6.75px; font-family:Arial;" text-anchor="middle"><textPath startOffset="22.20632615414155" xlink:href="#id84">December</textPath></text><path d="M 89.94658935756843 81.56283822128135 l -7.503001258213308 -13.759912227175285 a36.67259430918565,36.67259430918565 0 0,0 0.5568208739115107,-0.2974344269154855 l 7.265035337773491 13.887025380592519" fill="#ff830c" stroke="none" /><path d="M 90.26544431104013 81.39251694778311 l -5.649374797863487 -10.798710199591872 a33.18718907630076,33.18718907630076 0 0,0 0.5084585729385006,-0.26045222969721626 l 5.462655737336223 10.894354954601592" fill="#ff4e07" stroke="none" /><path d="M 91.23893434514133 80.91482961587045 l -5.14088855358613 -11.198949743813479 a33.32254886315542,33.32254886315542 0 0,0 0.5233510701587293,-0.23481236986269302 l 4.947355364960626 11.285782444192701" fill="#ff5007" stroke="none" /><path d="M 92.23578459929587 80.48803036053334 l -5.420842056843306 -13.622922623176862 a35.66183990508371,35.66183990508371 0 0,0 0.5723162102428359,-0.22204979810841802 l 5.1855426816007935 13.71421512517583" fill="#ff740a" stroke="none" /><path d="M 92.57280143429618 80.3572730644239 l -3.9723688235880763 -10.50573179091277 a32.23165680268097,32.23165680268097 0 0,0 0.5206451265286752,-0.19175799400548002 l 3.7909413712868316 10.572553052724574" fill="#ff3f05" stroke="none" /><path d="M 93.59665428221793 80.00007090966166 l -3.4452520834481337 -10.760749208957224 a32.29882672920411,32.29882672920411 0 0,0 0.5309536872001405,-0.16496989516319624 l 3.2595130235372642 10.818459239002944" fill="#ff4006" stroke="none" /><path d="M 93.94186890950719 79.89281104454417 l -3.2535442972413584 -10.798648788277717 a32.278136643377024,32.278136643377024 0 0,0 0.5333728175672342,-0.1557061514935559 l 3.067181261950703 10.85305326868997" fill="#ff4006" stroke="none" /><path d="M 94.63758080256005 79.69619591428918 l -3.932919464670655 -14.891268913417672 a36.401874735476355,36.401874735476355 0 0,0 0.607202531192355,-0.15478944512925688 l 3.6760080447933006 14.956761354715791" fill="#ff7f0b" stroke="none" /><path d="M 94.98787191387505 79.60689891045804 l -3.5021291710873 -14.24929151597836 a35.6733505866354,35.6733505866354 0 0,0 0.5975733210980726,-0.14142629828425027 l 3.256332163026693 14.30746372640348" fill="#ff740a" stroke="none" /><path d="M 95.692805502759 79.44645832069477 l -3.0934267472327246 -14.761552008355425 a36.08219833896494,36.08219833896494 0 0,0 0.6089877672189653,-0.12215721704465944 l 2.838872570546623 14.812613181477294" fill="#ff7a0b" stroke="none" /><path d="M 96.40284397218896 79.31037775812273 l -2.535956688710814 -14.585963329235089 a35.8047763430863,35.8047763430863 0 0,0 0.6081199048718209,-0.10034499487626024 l 2.2845075777001074 14.627454587050975" fill="#ff760a" stroke="none" /></svg>