<?xml version="1.0" encoding="utf-8" ?>
<svg baseProfile="full" height="200mm" version="1.1" viewBox="0,0,200,200" width="200mm" xmlns="http://www.w3.org/2000/svg" xmlns:ev="http://www.w3.org/2001/xml-events" xmlns:xlink="http://www.w3.org/1999/xlink"><defs /><rect fill="#1a1a1a" height="200" width="200" x="0" y="0" /><rect fill="#1a1a1a" height="200" width="180" x="10" y="0" /><text alignment-baseline="middle" fill="#e1ed5e" style="dominant-baseline: central; font-size:9.0px; font-family:Arial;" text-anchor="middle" x="100.0" y="100.0">2022</text><line stroke="#e1ed5e" stroke-width="0.3" x1="100.0" x2="100.0" y1="15.0" y2="10.0" /><path d="M 100.0 14.0 a86.0,86.0 0 0,1 42.46469731375804,11.215312516191453" fill="none" id="id73" stroke="none" /><text fill="#e1ed5e" style="font-size:6.75px; font-family:Arial;" text-anchor="middle"><textPath startOffset="22.20632615414155" xlink:href="#id73">January</textPath></text><path d="M 102.52436894288641 79.15227682838746 l 1.5088214753354516 -12.460734997480508 a33.55175122928546,33.55175122928546 0 0,0 0.5727527927841717,0.07435975061860395 l -1.7230889966274694 12.432916923697768" fill="#ff6e0a" stroke="none" /><path d="M 103.59715602781102 79.31037775812273 l 1.8599857227480623 -10.69800744850095 a31.858494843071412,31.858494843071412 0 0,0 0.5394779143102032,0.09858614058414164 l -2.0438587581611665 10.664405826566071" fill="#ff5507" stroke="none" /><path d="M 103.95276090670814 79.375362276772 l 1.5816628591026494 -8.25276920086832 a29.402967147541723,29.402967147541723 0 0,0 0.49625710563920805,0.09954450684676319 l -1.7234863742089828 8.224320737944348" fill="#ff3004" stroke="none" /><path d="M 104.307194497241 79.44645832069477 l 2.307112150515445 -11.009330034858051 a32.248471642471415,32.248471642471415 0 0,0 0.5423229712127338,0.11853079608747069 l -2.496277845881707 10.96798574067471" fill="#ff5b08" stroke="none" /><path d="M 105.01212808612495 79.60689891045804 l 2.2139537943934937 -9.00802668264371 a30.276105654795572,30.276105654795572 0 0,0 0.5050214617194256,0.12874121536419247 l -2.3686841447979448 8.968582471110649" fill="#ff3d05" stroke="none" /><path d="M 105.36241919743992 79.69619591428918 l 2.308794190600941 -8.741820285621928 a30.041568034398885,30.041568034398885 0 0,0 0.4988361040297327,0.13635075087432383 l -2.458928183854385 8.700782993921312" fill="#ff3a05" stroke="none" /><path d="M 105.71112130821622 79.79150937346287 l 1.9648115705833822 -6.9523783621832225 a28.22468334246227,28.22468334246227 0 0,0 0.4663924391187165,0.13615274230151722 l -2.0841942274255256 6.917527290963002" fill="#ff1e03" stroke="none" /><path d="M 107.4271985657038 80.35727306442388 l 2.5958769907274855 -6.865321081175808 a28.339701008803107,28.339701008803107 0 0,0 0.4548074447067889,0.17645822268863987 l -2.7136676004339413 6.819620154596621" fill="#ff2003" stroke="none" /><path d="M 107.76421540070413 80.48803036053334 l 2.8993799469035837 -7.286327153176433 a28.842000220582936,28.842000220582936 0 0,0 0.4597087003411617,0.18752672146720972 l -3.024372516833133 7.235339545525644" fill="#ff2703" stroke="none" /><path d="M 108.09893153111575 80.62456947434976 l 3.235008432501124 -7.739253121600739 a29.388165379781217,29.388165379781217 0 0,0 0.4650554611640784,0.19911247821632572 l -3.3677476514555176 7.682421115421623" fill="#ff3004" stroke="none" /><path d="M 108.76106565485865 80.91482961587045 l 4.944121637785832 -10.770311235446009 a32.850904728230525,32.850904728230525 0 0,0 0.5118824669332422,0.24033568181968126 l -5.128782316018672 10.683610570986325" fill="#ff6409" stroke="none" /><path d="M 109.08828744355905 81.06846463323043 l 4.777753651584879 -9.95239342840046 a32.03979460447074,32.03979460447074 0 0,0 0.4951349499159473,0.24296056957627704 l -4.9483598685112575 9.868677698689352" fill="#ff5808" stroke="none" /><path d="M 109.41281617654863 81.2277094730956 l 4.906396817104577 -9.784989397799738 a31.94617500508498,31.94617500508498 0 0,0 0.48944508426382505,0.2507127823101415 l -5.074102388957158 9.699084090177095" fill="#ff5608" stroke="none" /><line stroke="#e1ed5e" stroke-width="0.3" x1="143.23703022742887" x2="145.7803849466894" y1="26.81831364943548" y2="22.513508569990506" /><path d="M 143.74570117128098 25.957352633546492 a86.0,86.0 0 0,1 28.547481713284135,27.462654790039103" fill="none" id="id74" stroke="none" /><text fill="#e1ed5e" style="font-size:6.75px; font-family:Arial;" text-anchor="middle"><textPath startOffset="19.985693538727396" xlink:href="#id74">February</textPath></text><path d="M 111.90073688211348 82.69761687909136 l 10.15180369052395 -14.75962358983821 a38.91383841293217,38.91383841293217 0 0,0 0.5486274187306085,0.3843485672893871 l -10.40436224883821 14.582690179784887" fill="#ffba11" stroke="none" /><path d="M 112.19680574252982 82.90503203632743 l 6.317551544047111 -8.854641414657387 a31.87732191735897,31.87732191735897 0 0,0 0.44393676651569786,0.3225389406188388 l -6.469033626916598 8.744583239221873" fill="#ff5507" stroke="none" /><path d="M 112.48926042617603 83.11751280151076 l 5.141431740691265 -6.949983632513867 a29.645032841834567,29.645032841834567 0 0,0 0.4076246311923231,0.30701442126920686 l -5.260302525641971 6.860452621738813" fill="#ff3404" stroke="none" /><path d="M 112.77801427241765 83.33499621200491 l 5.111758724252875 -6.666722754166508 a29.400908851778887,29.400908851778887 0 0,0 0.3989667557848532,0.3113998811958966 l -5.225758035197158 6.577744483747388" fill="#ff3004" stroke="none" /><path d="M 113.34407831869373 83.78471172551755 l 4.951372008074137 -6.01674559663291 a28.79213143735022,28.79213143735022 0 0,0 0.37997724870209854,0.31822001822733403 l -5.054206793735353 5.930624421011757" fill="#ff2703" stroke="none" /><path d="M 113.89432698308785 84.25364557470407 l 8.135429612570427 -9.219831823269251 a33.2959551817033,33.2959551817033 0 0,0 0.4264879095892642,0.3829050562073521 l -8.292928509755681 9.078427758292602" fill="#ff6a09" stroke="none" /><path d="M 114.16331599549186 84.49514656593476 l 4.955438556808687 -5.424813549968828 a28.347446722653494,28.347446722653494 0 0,0 0.35743716222401206,0.3321988873780232 l -5.048083602827546 5.338710076516165" fill="#ff2003" stroke="none" /><path d="M 114.94478906791727 85.2469230424477 l 3.779331644805207 -3.7308502883871273 a26.310611222428577,26.310611222428577 0 0,0 0.3153962423094905,0.32504355181233086 l -3.8429921508178064 3.6652425410246825" fill="#ff0000" stroke="none" /><path d="M 115.68641384162765 86.03803664274999 l 9.507262807384953 -8.46210333889044 a33.72773503050507,33.72773503050507 0 0,0 0.38226073144526856,0.4369900964909203 l -9.65151540240807 8.297197686196572" fill="#ff700a" stroke="none" /><path d="M 116.15771136456269 86.58626213691792 l 9.201414906352024 -7.638790218394424 a32.958977894430426,32.958977894430426 0 0,0 0.3586274356427457,0.4396348315126965 l -9.331540834071179 7.479271217273626" fill="#ff6509" stroke="none" /><path d="M 116.38621287248628 86.86637796730983 l 10.341202853521708 -8.28851978785038 a34.25292559140331,34.25292559140331 0 0,0 0.36478700172552053,0.46324244749138865 l -10.482343935841191 8.109284946405952" fill="#ff780b" stroke="none" /><path d="M 116.60985879189232 87.15038557335679 l 9.05684015589963 -7.0064956833862935 a32.45064781446128,32.45064781446128 0 0,0 0.3379874967779271,0.44475192731070573 l -9.17610359290167 6.849558980194555" fill="#ff5e08" stroke="none" /><path d="M 116.82858285166822 87.43820079747576 l 9.16881017510372 -6.844114763608671 a32.44154652678263,32.44154652678263 0 0,0 0.3301891143167694,0.4503775808540833 l -9.285261901934115 6.685274739083093" fill="#ff5e08" stroke="none" /><path d="M 117.2510076193507 88.02491185347247 l 9.444586304323641 -6.55612448833984 a32.49708566404665,32.49708566404665 0 0,0 0.3150291227746305,0.4622663651197596 l -9.556039892767005 6.392580099949674" fill="#ff5e08" stroke="none" /><path d="M 117.65298651832404 88.62581576622439 l 10.012205912100317 -6.451071296775574 a32.91052425808277,32.91052425808277 0 0,0 0.30273357522569694,0.4788518143817081 l -10.121767083571969 6.277771834679659" fill="#ff6409" stroke="none" /><line stroke="#e1ed5e" stroke-width="0.3" x1="172.23445277983987" x2="176.4835382374775" y1="55.19839476539836" y2="52.563006222186495" /><path d="M 173.08426987136738 54.67131705675599 a86.0,86.0 0 0,1 12.851231095245387,41.99856678651699" fill="none" id="id75" stroke="none" /><text fill="#e1ed5e" style="font-size:6.75px; font-family:Arial;" text-anchor="middle"><textPath startOffset="22.20632615414155" xlink:href="#id75">March</textPath></text><path d="M 118.03404312379186 89.2402003453031 l 9.983339414120191 -5.9564420049022475 a32.625242673393515,32.625242673393515 0 0,0 0.2835915437183725,0.48474987576423884 l -10.084390632308892 5.783712716784113" fill="#ff6008" stroke="none" /><path d="M 118.21658344932153 89.55222093294921 l 9.941942411193251 -5.702014216796397 a32.461028969339154,32.461028969339154 0 0,0 0.2738201541763524,0.48709550060586326 l -10.038620206662035 5.53003520625574" fill="#ff5e08" stroke="none" /><path d="M 118.73160827565052 90.50648371742162 l 15.083074999563683 -7.644373936959029 a37.9096305202249,37.9096305202249 0 0,0 0.289990597890953,0.5846033498820191 l -15.212425610408044 7.38361099857806" fill="#ffac0f" stroke="none" /><path d="M 118.89224826269711 90.83032412892265 l 15.38712942690845 -7.468406484455302 a38.10382551996734,38.10382551996734 0 0,0 0.28131837762639617,0.5925282484121365 l -15.513405998376602 7.202435820402625" fill="#ffaf10" stroke="none" /><path d="M 119.04729006885535 91.15688171328212 l 15.212286571761986 -7.0626345836725895 a37.77183561819928,37.77183561819928 0 0,0 0.2687154631142999,0.5920789033879362 l -15.331604351839633 6.799733671442591" fill="#ffaa0f" stroke="none" /><path d="M 119.196687751892 91.48605970444005 l 10.635954808107513 -4.717161907974264 a32.63508277349795,32.63508277349795 0 0,0 0.22333164664784513,0.5154802320217282 l -10.715577164598038 4.533382531365933" fill="#ff6008" stroke="none" /><path d="M 119.34039704204932 91.81776055985345 l 15.726527263999804 -6.65333867532661 a38.076023404584745,38.076023404584745 0 0,0 0.2501745466402986,0.605817508356522 l -15.838723497526301 6.381646596516785" fill="#ffae10" stroke="none" /><path d="M 119.61058180528143 92.48833698450437 l 12.969259693536646 -4.967762269656915 a34.88813734689505,34.88813734689505 0 0,0 0.20998573697012457,0.5626573767398179 l -13.052850019008396 4.743781755887764" fill="#ff810b" stroke="none" /><path d="M 119.7369772167798 92.82701384747503 l 14.22567257326032 -5.170019261693153 a36.136012002105744,36.136012002105744 0 0,0 0.20743261517493303,0.5864399362759039 l -14.312558269245063 4.924381698990635" fill="#ff930d" stroke="none" /><path d="M 119.85752413597 93.16781622104841 l 10.870702198519687 -3.740176001700303 a32.49613338529941,32.49613338529941 0 0,0 0.17743307599580768,0.530502313119276 l -10.933472568287266 3.552500585658713" fill="#ff5e08" stroke="none" /><path d="M 119.97218684219823 93.5106431181261 l 11.215237175303072 -3.644051456179473 a32.79239822570387,32.79239822570387 0 0,0 0.16980921338735722,0.5383416109899999 l -11.276301872458635 3.450459678763054" fill="#ff6309" stroke="none" /><path d="M 120.37134235888165 94.90015583598534 l 15.893183738500735 -3.978763839343532 a37.38364584074655,37.38364584074655 0 0,0 0.15090033209339762,0.6255792972787027 l -15.95931687085495 3.704599310405423" fill="#ffa50f" stroke="none" /><path d="M 120.45610955862082 95.25157060432595 l 30.0578816908131 -6.977266551263655 a51.85706564575284,51.85706564575284 0 0,0 0.194354387615455,0.8712526106143905 l -30.173530465430595 6.458835771099301" fill="#9eff22" stroke="none" /><path d="M 120.53481517161879 95.60439243477599 l 11.524903876944155 -2.4669788477079244 a32.78598294618827,32.78598294618827 0 0,0 0.11337815074624268,0.5528721284693567 l -11.565661323605394 2.268231063075156" fill="#ff6309" stroke="none" /><path d="M 120.87857604477298 97.74499172005257 l 10.843882753085508 -1.1712027363623219 a31.906947740423437,31.906947740423437 0 0,0 0.05427656590451639,0.5465576115602452 l -10.862436444672252 0.9843695940976417" fill="#ff5607" stroke="none" /><path d="M 120.91429891909075 98.10471618934814 l 10.9711087073654 -0.994217630646513 a32.01606531234802,32.01606531234802 0 0,0 0.0450138502102783,0.5492829884669572 l -10.986597041395171 0.8052207249717871" fill="#ff5708" stroke="none" /><line stroke="#e1ed5e" stroke-width="0.3" x1="184.98032266829074" x2="189.97916517819016" y1="98.17113171792111" y2="98.06355123074" /><path d="M 185.9800911702706 98.14961562048488 a86.0,86.0 0 0,1 -9.607161424134198,41.387399972396054" fill="none" id="id76" stroke="none" /><text fill="#e1ed5e" style="font-size:6.75px; font-family:Arial;" text-anchor="middle"><textPath startOffset="21.466115282336823" xlink:href="#id76">April</textPath></text><path d="M 120.99513854157772 99.54816195383933 l 10.993616672837446 -0.23659449866725818 a31.996162262630044,31.996162262630044 0 0,0 0.0071107553114339375,0.5507358351978509 l -10.996060435266596 0.04732240540894464" fill="#ff5708" stroke="none" /><path d="M 120.9904718944345 100.63252640178507 l 10.922251059307785 0.3291308645504489 a31.927208945039432,31.927208945039432 0 0,0 -0.021281563297359,0.5491825862041043 l -10.914967363159223 -0.5170906977685594" fill="#ff5607" stroke="none" /><path d="M 120.9764740272857 100.99374915477107 l 10.97905994327435 0.520127049217981 a31.991373407601962,31.991373407601962 0 0,0 -0.030793447461299625,0.5498376902894455 l -10.968480144925522 -0.7090364558428499" fill="#ff5708" stroke="none" /><path d="M 120.95626037817324 101.35467743843564 l 10.928451076355474 0.7064488531363138 a31.951260790904065,31.951260790904065 0 0,0 -0.040202965005185776,0.5485375160913508 l -10.91467155268595 -0.8944595057244349" fill="#ff5608" stroke="none" /><path d="M 120.92983693683757 101.71520430193887 l 10.83280091565613 0.8877501907278679 a31.869115699051953,31.869115699051953 0 0,0 -0.04951156028448411,0.5463559420075065 l -10.81591475909457 -1.074087521283945" fill="#ff5507" stroke="none" /><path d="M 120.89721153311464 102.0752229133903 l 11.18347410025989 1.1105884470466094 a32.23848297813798,32.23848297813798 0 0,0 -0.059591605348039575,0.551744255199873 l -11.162700193410798 -1.3029290241312739" fill="#ff5a08" stroke="none" /><path d="M 120.81339534386255 102.79330883721812 l 11.033179796228424 1.480732870262282 a32.132098914803905,32.132098914803905 0 0,0 -0.07828901589544647,0.5475531948302834 l -11.006056729316377 -1.6704315370729748" fill="#ff5908" stroke="none" /><path d="M 120.76222939487914 103.15116336523771 l 10.875286235493995 1.6505839965439808 a31.99983082749786,31.99983082749786 0 0,0 -0.08734162684608274,0.5438763937446507 l -10.845262854286624 -1.8375396199818366" fill="#ff5708" stroke="none" /><path d="M 120.70491114924044 103.5080841355445 l 10.875076833456205 1.8425910759667659 a32.030069719036604,32.030069719036604 0 0,0 -0.09678199408555689,0.542804820272041 l -10.841748397031461 -2.029514646972025" fill="#ff5708" stroke="none" /><path d="M 120.02730092923936 106.31721596034902 l 9.348247998735173 2.9487199332333365 a30.80227983126904,30.80227983126904 0 0,0 -0.16385015921517715,0.5042789375800985 l -9.29610558850375 -3.1091977707912304" fill="#ff4506" stroke="none" /><path d="M 119.67450827220406 107.3425965602758 l 10.596477739478606 3.9546432329827343 a32.31037327339119,32.31037327339119 0 0,0 -0.19894838536755016,0.5193914554248151 l -10.52683507451755 -4.136458255240694" fill="#ff5c08" stroke="none" /><path d="M 119.54520255179757 107.68017299344265 l 12.434285807356106 4.885979861161413 a34.35980025085302,34.35980025085302 0 0,0 -0.22104377088230637,0.5486125116621748 l -12.348339422216409 -5.099291740666402" fill="#ff7a0b" stroke="none" /><path d="M 119.41010516605496 108.01547362559984 l 12.340269792551876 5.095959357704483 a34.351069632368194,34.351069632368194 0 0,0 -0.2303959263197016,0.5445879119633728 l -12.250722885039865 -5.307621795334019" fill="#ff790b" stroke="none" /><path d="M 119.26925614724726 108.34839909993367 l 10.184360902452893 4.412371123292347 a32.099109239982965,32.099109239982965 0 0,0 -0.22401955387163233,0.505104954545491 l -10.106900263849987 -4.587024414330526" fill="#ff5808" stroke="none" /><path d="M 119.12269723197855 108.67885076344098 l 10.43360391369678 4.7352991156707835 a32.45788585834146,32.45788585834146 0 0,0 -0.23528162435024041,0.506775687214495 l -10.350547672506709 -4.914194870164109" fill="#ff5e08" stroke="none" /><path d="M 118.64920377521936 109.65438752849418 l 7.822556037555759 4.049609214430758 a29.80861610869168,29.80861610869168 0 0,0 -0.23981385356430987,0.45363743473330687 l -7.751689675766555 -4.1836616642502" fill="#ff3605" stroke="none" /><line stroke="#e1ed5e" stroke-width="0.3" x1="174.80103733775053" x2="179.2010983576182" y1="140.37084112569926" y2="142.7455964860345" /><path d="M 175.68104954172406 140.8457921977663 a86.0,86.0 0 0,1 -30.038265399797805,32.042727171017184" fill="none" id="id77" stroke="none" /><text fill="#e1ed5e" style="font-size:6.75px; font-family:Arial;" text-anchor="middle"><textPath startOffset="22.206326154141568" xlink:href="#id77">May</textPath></text><path d="M 118.48025628344425 109.97397251340804 l 10.258480256438522 5.536600712551782 a32.65720226392113,32.65720226392113 0 0,0 -0.271246975054353,0.492392048733494 l -10.16165687193266 -5.712363279683081" fill="#ff6108" stroke="none" /><path d="M 118.30583269289576 110.29060199501025 l 9.961766923368442 5.599995383724121 a32.42789344250501,32.42789344250501 0 0,0 -0.27771866212466034,0.48422589639004066 l -9.863896265091402 -5.770641125972476" fill="#ff5d08" stroke="none" /><path d="M 117.94076556474637 110.91462005526583 l 7.788211544290865 4.738112741576958 a30.116246563719052,30.116246563719052 0 0,0 -0.27324809004127065,0.44056292523249846 l -7.705498814581632 -4.87147199817473" fill="#ff3b05" stroke="none" /><path d="M 117.75023020441432 111.22182372390056 l 9.496908128968252 6.004013903935523 a32.23563291357965,32.23563291357965 0 0,0 -0.30055143573531334,0.4664625026332351 l -9.392151829855887 -6.1665980064902115" fill="#ff5a08" stroke="none" /><path d="M 117.14729908036423 112.12312394758627 l 9.158665251864791 6.475167518944902 a32.21645860305804,32.21645860305804 0 0,0 -0.3240365273838436,0.45005839550057253 l -9.045848932105345 -6.631859519896606" fill="#ff5a08" stroke="none" /><path d="M 116.71984013943494 112.70617746262583 l 8.901105641687785 6.764360601158669 a32.17972521965517,32.17972521965517 0 0,0 -0.3389493258277866,0.43813769446134077 l -8.78334949864193 -6.916576289733262" fill="#ff5a08" stroke="none" /><path d="M 116.498646956653 112.99209946851258 l 8.65158444099582 6.812815978968975 a32.01201048414757,32.01201048414757 0 0,0 -0.3446353414084756,0.4299855785132985 l -8.533031187532488 -6.960729391060524" fill="#ff5708" stroke="none" /><path d="M 116.0416608686014 113.55231037782055 l 8.854786887335784 7.480697990662148 a32.591725205836724,32.591725205836724 0 0,0 -0.36573734146506076,0.4254351550835385 l -8.724707036299945 -7.632010244907215" fill="#ff6008" stroke="none" /><path d="M 115.80600337817218 113.82643327865902 l 8.264432245748486 7.229381033135882 a31.980199928363426,31.980199928363426 0 0,0 -0.36600752567899975,0.41121333511949604 l -8.138765870421148 -7.370568537996244" fill="#ff5708" stroke="none" /><path d="M 115.56566222782051 114.09645910891815 l 8.225210769987873 7.448854124184728 a32.09682476991091,32.09682476991091 0 0,0 -0.3743920247295982,0.4063285995210596 l -8.095772337262552 -7.589333978507122" fill="#ff5808" stroke="none" /><path d="M 115.32070863581623 114.36230785411682 l 8.094510733664041 7.588151295662458 a32.095095497708265,32.095095497708265 0 0,0 -0.38131028854974786,0.3998023130859666 l -7.962693893735328 -7.726360725330931" fill="#ff5808" stroke="none" /><path d="M 114.55890576462653 115.13401014063108 l 6.924932900364702 7.198480877041215 a30.988634672050107,30.988634672050107 0 0,0 -0.3876001842620062,0.36650016700341226 l -6.7999968817118885 -7.316615680790549" fill="#ff4806" stroke="none" /><path d="M 114.29624159901734 115.38237550388516 l 7.506037412239039 8.076296502236476 a32.02574998927371,32.02574998927371 0 0,0 -0.40703271908565386,0.3718147382321235 l -7.365905143686522 -8.204304007055184" fill="#ff5708" stroke="none" /><path d="M 113.75828350139079 115.86535959552629 l 7.328016292158479 8.450299311336103 a32.18514109116678,32.18514109116678 0 0,0 -0.42167825978184115,0.3593633611005629 l -7.181472555799591 -8.575187062659614" fill="#ff5a08" stroke="none" /><path d="M 113.48314897796784 116.09983520530334 l 7.427833917378659 8.869359983900669 a32.56884882899674,32.56884882899674 0 0,0 -0.4329018374802499,0.356248740439201 l -7.274061951353718 -8.995903843197048" fill="#ff5f08" stroke="none" /><path d="M 113.20401910651253 116.32954008644616 l 7.113436221753368 8.797256426129174 a32.31338567839106,32.31338567839106 0 0,0 -0.4355267476763354,0.3460087887020292 l -6.960951981359682 -8.91839912883633" fill="#ff5c08" stroke="none" /><path d="M 112.92097659922987 116.55440617244103 l 6.835985655712458 8.758291779615917 a32.11028238984024,32.11028238984024 0 0,0 -0.4386436922669737,0.33633327850372496 l -6.68421323495199 -8.874664399947013" fill="#ff5908" stroke="none" /><path d="M 112.63410532772338 116.77436683061366 l 6.531669267015517 8.67213098665111 a31.856728755168813,31.856728755168813 0 0,0 -0.44085924616910277,0.32613713085985796 l -6.38142505042785 -8.783278066250737" fill="#ff5507" stroke="none" /><path d="M 112.04921762599082 117.19931262002967 l 6.362819027891194 9.082424851329291 a32.08945026418073,32.08945026418073 0 0,0 -0.45512484940107767,0.3130390214680065 l -6.205537293867233 -9.190604662162391" fill="#ff5808" stroke="none" /><path d="M 111.45004920935366 117.60387380957326 l 3.1089801792898495 4.779900396233525 a26.70203521149515,26.70203521149515 0 0,0 -0.3874569548250577,0.2472933604606858 l -3.0262414224178613 -4.83270818551802" fill="#ff0601" stroke="none" /><path d="M 111.1453310114006 117.79835938074945 l 5.858657801271109 9.355890545484188 a32.038865844436884,32.038865844436884 0 0,0 -0.4699350995554703,0.28867252035741964 l -5.69674350178333 -9.455351532669987" fill="#ff5808" stroke="none" /><line stroke="#e1ed5e" stroke-width="0.3" x1="143.8653032363475" x2="146.44561519142675" y1="172.8068346515853" y2="177.08958963109032" /><path d="M 144.38136562736335 173.6633856474863 a86.0,86.0 0 0,1 -40.68145358897372,12.25698825130547" fill="none" id="id78" stroke="none" /><text fill="#e1ed5e" style="font-size:6.75px; font-family:Arial;" text-anchor="middle"><textPath startOffset="21.466115282336833" xlink:href="#id78">June</textPath></text><path d="M 110.5260780823613 118.17145234162733 l 5.614480214881548 9.692428542658401 a32.20114097482197,32.20114097482197 0 0,0 -0.4820223034275994,0.27370484389555205 l -5.446809144532749 -9.787636552348582" fill="#ff5a08" stroke="none" /><path d="M 110.21172684928248 118.3499491758327 l 5.467215972134024 9.824306574456516 a32.24310678393063,32.24310678393063 0 0,0 -0.48729650322394286,0.26571290691748367 l -5.297296657041433 -9.91696013313377" fill="#ff5b08" stroke="none" /><path d="M 109.89434966115114 118.52300852407294 l 5.344796046398025 10.005882763126822 a32.34392060299394,32.34392060299394 0 0,0 -0.49333581033807966,0.25808997947855433 l -5.171769333533449 -10.096402161550092" fill="#ff5c08" stroke="none" /><path d="M 109.2508944713604 118.85261126421891 l 4.871425815192233 9.92759105409992 a32.058383860689865,32.058383860689865 0 0,0 -0.49749624688498184,0.23882843130192635 l -4.6998169003070185 -10.009973761901406" fill="#ff5808" stroke="none" /><path d="M 108.59647513512805 119.15986991738527 l 4.572460546784252 10.191124606499274 a32.16988881757977,32.16988881757977 0 0,0 -0.5071802421933038,0.222332913524151 l -4.396359629933195 -10.26832207331788" fill="#ff5908" stroke="none" /><path d="M 108.2653958097858 119.30500536409082 l 4.515655746416627 10.546955090009133 a32.472986032015164,32.472986032015164 0 0,0 -0.5157460779532071,0.215581902412686 l -4.333438208965958 -10.623122035441792" fill="#ff5e08" stroke="none" /><path d="M 107.93186726928326 119.44442032107085 l 3.8683596320131595 9.483014287091525 a31.241668136186163,31.241668136186163 0 0,0 -0.4996865655352058,0.19883559678188803 l -3.7045519904360873 -9.548196728279482" fill="#ff4c07" stroke="none" /><path d="M 107.59598834532513 119.57807347666477 l 3.9866905626813565 10.275387114428336 a32.021673284666555,32.021673284666555 0 0,0 -0.5155943485062338,0.19495366495039848 l -3.809225993414848 -10.342489029485364" fill="#ff5708" stroke="none" /><path d="M 107.2578585660854 119.70592522655815 l 3.8116111538554933 10.348965015875667 a32.02857454470042,32.02857454470042 0 0,0 -0.5189855913559024,0.1860897684373256 l -3.6329060018698565 -10.413042325352952" fill="#ff5708" stroke="none" /><path d="M 106.57524785965236 119.94407469862006 l 3.4732427203576592 10.53505719325292 a32.092828541883605,32.092828541883605 0 0,0 -0.5261369448869888,0.16845243489571188 l -3.29138443037973 -10.593282474808337" fill="#ff5808" stroke="none" /><path d="M 105.88484417918355 120.15858648285463 l 2.946410026663517 10.09295395561126 a31.514230908407534,31.514230908407534 0 0,0 -0.5220389854375932,0.14753343179114686 l -2.7722398731213183 -10.142176180740927" fill="#ff5007" stroke="none" /><path d="M 105.18746579009965 120.34920634021253 l 2.715275215332393 10.651385062185133 a31.99202998712881,31.99202998712881 0 0,0 -0.5347950972084885,0.1314396233937759 l -2.5315268333806933 -10.69654594389294" fill="#ff5708" stroke="none" /><path d="M 104.83641907484287 120.43548508189849 l 2.54784596582876 10.76549972612961 a32.06288856578094,32.06288856578094 0 0,0 -0.5381677224618941,0.12248522150865049 l -2.362158093974004 -10.807761681215945" fill="#ff5808" stroke="none" /><path d="M 104.48393922423573 120.51570834832081 l 2.4163977968055934 11.055928721076336 a32.31691381066091,32.31691381066091 0 0,0 -0.5444761926886993,0.11410028002077856 l -2.225730142687516 -11.095884981823657" fill="#ff5c08" stroke="none" /><path d="M 104.13013068566511 120.58985236759428 l 2.2124544725996795 11.029702067046125 a32.249412539378575,32.249412539378575 0 0,0 -0.5452183744055602,0.10449239908549339 l -2.022268483622415 -11.066151664480088" fill="#ff5b08" stroke="none" /><path d="M 103.7750983002368 120.6578951692458 l 2.0434082140652547 11.181831390056214 a32.36700797769386,32.36700797769386 0 0,0 -0.548930627696573,0.09543862585717795 l -1.8506286148966318 -11.215348594434397" fill="#ff5c08" stroke="none" /><path d="M 102.70371172650421 120.8252237178851 l 1.407446905519063 10.840799479897493 a31.931781197737216,31.931781197737216 0 0,0 -0.5456876478567351,0.06607517470502149 l -1.2206318346109477 -10.863420183327865" fill="#ff5608" stroke="none" /><path d="M 102.34483914955558 120.86867818915974 l 1.2238245495875566 10.89183481526933 a31.96037463644771,31.96037463644771 0 0,0 -0.5472337580733171,0.05672301652814129 l -1.0361581949086367 -10.91128720025323" fill="#ff5608" stroke="none" /><path d="M 101.98527174616119 120.90594882070398 l 1.0356414851605211 10.905845976617144 a31.954908933965715,31.954908933965715 0 0,0 -0.5480353346961584,0.04728679469000968 l -0.847761832722821 -10.922057023585818" fill="#ff5608" stroke="none" /><path d="M 101.62511606390274 120.93702456842531 l 0.5619651825057983 7.240023709117514 a28.261800615200922,28.261800615200922 0 0,0 -0.4853456071086852,0.03347227467860559 l -0.4372568146181828 -7.248624328312404" fill="#ff1e03" stroke="none" /><path d="M 100.90346689309514 120.98055641714683 l 0.47677572976928695 11.071816989864482 a32.08207771825973,32.08207771825973 0 0,0 -0.5519334169333023,0.019009702855144334 l -0.28612196116133226 -11.07838349114572" fill="#ff5808" stroke="none" /><line stroke="#e1ed5e" stroke-width="0.3" x1="102.19456741930631" x2="102.32365962044197" y1="184.97166512339345" y2="189.96999836594603" /><path d="M 102.22038585953345 185.97133177190398 a86.0,86.0 0 0,1 -42.740103519485714,-10.115201625700543" fill="none" id="id79" stroke="none" /><text fill="#e1ed5e" style="font-size:6.75px; font-family:Arial;" text-anchor="middle"><textPath startOffset="22.20632615414155" xlink:href="#id79">July</textPath></text><path d="M 100.54218724476979 120.99299961872073 l 0.2819755324099125 10.917837521026916 a31.921478212056325,31.921478212056325 0 0,0 -0.5494147135261943,0.00945867254558716 l -0.09400112899105019 -10.921073670851664" fill="#ff5607" stroke="none" /><path d="M 100.18074693466247 120.99922214144158 l 0.09775077577557785 11.356708531975485 a32.357129210078114,32.357129210078114 0 0,0 -0.5569954208760588,0.0 l 0.09775077577557002 -11.356708531975485" fill="#ff5c08" stroke="none" /><path d="M 99.45781275523022 120.99299961872073 l -0.28197053843203684 10.917644158721748 a31.92128478527205,31.92128478527205 0 0,0 -0.5491671686341264,-0.018914427670533605 l 0.4698580587408063 -10.91117293262512" fill="#ff5607" stroke="none" /><path d="M 99.09653310690486 120.98055641714683 l -0.4719074094551494 10.958763517968539 a31.968919474855163,31.968919474855163 0 0,0 -0.5495791128738616,-0.028406962619257358 l 0.6604745907424999 -10.94901674858708" fill="#ff5608" stroke="none" /><path d="M 98.01472825383883 120.90594882070398 l -1.0394429097575018 10.945876963923578 a31.995120011714196,31.995120011714196 0 0,0 -0.5478286773287853,-0.05678468234144362 l 1.2277041836918805 -10.926362913126374" fill="#ff5708" stroke="none" /><path d="M 97.2962882734958 120.8252237178851 l -1.4731641257755117 11.346983552904323 a32.442213434967606,32.442213434967606 0 0,0 -0.5531728128417318,-0.07666471133771038 l 1.6682655298040747 -11.31994427607401" fill="#ff5e08" stroke="none" /><path d="M 95.86986931433489 120.58985236759428 l -2.1374758420274396 10.655912700146674 a31.868177328715156,31.868177328715156 0 0,0 -0.5369158689324695,-0.11251594067001237 l 2.320583172389296 -10.61754077875012" fill="#ff5507" stroke="none" /><path d="M 95.16358092515715 120.4354850818985 l -2.509822301878574 10.604837052902056 a31.897787706943618,31.897787706943618 0 0,0 -0.5332196951657597,-0.13105242790101426 l 2.691995281787544 -10.560063366687013" fill="#ff5507" stroke="none" /><path d="M 94.46302465271185 120.25689768951611 l -2.857008325999079 10.45229962712478 a31.835730896899427,31.835730896899427 0 0,0 -0.5273646914114407,-0.14903852949639523 l 3.036504185515134 -10.401572304289864" fill="#ff5507" stroke="none" /><path d="M 92.06813273071674 119.44442032107085 l -4.1215554816453235 10.103706282640182 a31.912016323033214,31.912016323033214 0 0,0 -0.5068365823197347,-0.21185773251531376 l 4.294863523462521 -10.031263507104894" fill="#ff5607" stroke="none" /><path d="M 91.07499286063937 119.00905698771935 l -4.755987615835393 10.129609781889652 a32.19055014444483,32.19055014444483 0 0,0 -0.4995472620084547,-0.23981304320118035 l 4.929647545844089 -10.04624246218891" fill="#ff5a08" stroke="none" /><path d="M 90.7491055286396 118.85261126421891 l -4.761221240934745 9.703002609766537 a31.808213883443667,31.808213883443667 0 0,0 -0.4894619057155136,-0.24542636058824238 l 4.927537054333019 -9.619608408268993" fill="#ff5407" stroke="none" /><path d="M 90.10565033884886 118.52300852407294 l -5.165635235565654 9.670479493596353 a31.963665492114625,31.963665492114625 0 0,0 -0.48307325125041456,-0.26341005321115335 l 5.331331298684709 -9.580128788625435" fill="#ff5608" stroke="none" /><line stroke="#e1ed5e" stroke-width="0.3" x1="58.666819895761336" x2="56.23545636021788" y1="174.27360380694188" y2="178.64263932499728" /><path d="M 58.180547188652646 175.14741091055294 a86.0,86.0 0 0,1 -31.652253787137756,-30.449443065178592" fill="none" id="id80" stroke="none" /><text fill="#e1ed5e" style="font-size:6.75px; font-family:Arial;" text-anchor="middle"><textPath startOffset="22.20632615414155" xlink:href="#id80">August</textPath></text><path d="M 89.7882731507175 118.34994917583269 l -5.298407868870101 9.52096707457757 a31.89595980077454,31.89595980077454 0 0,0 -0.47745401398119436,-0.2711108499228524 l 5.461510649772502 -9.428353058860084" fill="#ff5507" stroke="none" /><path d="M 82.6465618267979 111.8261652097733 l -10.357576326414886 7.058567160378283 a33.53406389464649,33.53406389464649 0 0,0 -0.32096393837057585,-0.47979753890498356 l 10.477543370196193 -6.879232707267478" fill="#ff6e0a" stroke="none" /><line stroke="#e1ed5e" stroke-width="0.3" x1="26.63291911575756" x2="22.317208475507996" y1="142.92168965132927" y2="145.44649492493687" /><path d="M 25.769776987707644 143.4266507060508 a86.0,86.0 0 0,1 -11.730757126820373,-40.83630448921669" fill="none" id="id81" stroke="none" /><text fill="#e1ed5e" style="font-size:6.75px; font-family:Arial;" text-anchor="middle"><textPath startOffset="21.46611528233685" xlink:href="#id81">September</textPath></text><path d="M 81.87401531095188 110.60418214915194 l -9.629589065457262 5.633565195125022 a32.15643502097772,32.15643502097772 0 0,0 -0.27539384044660153,-0.480172373834549 l 9.72513490205624 -5.466972975432166" fill="#ff5908" stroke="none" /><line stroke="#e1ed5e" stroke-width="0.3" x1="15.007084014347285" x2="10.007500721073583" y1="101.09737516637583" y2="101.16192664675087" /><path d="M 14.007167355692545 101.11028546245083 a86.0,86.0 0 0,1 10.666146001902534,-42.60595125391555" fill="none" id="id82" stroke="none" /><text fill="#e1ed5e" style="font-size:6.75px; font-family:Arial;" text-anchor="middle"><textPath startOffset="22.20632615414155" xlink:href="#id82">October</textPath></text><line stroke="#e1ed5e" stroke-width="0.3" x1="26.266209847984243" x2="21.928928074336255" y1="57.711370442889674" y2="55.22380399835377" /><path d="M 25.398753493254645 57.213857153982495 a86.0,86.0 0 0,1 29.58750427330803,-30.492523968695096" fill="none" id="id83" stroke="none" /><text fill="#e1ed5e" style="font-size:6.75px; font-family:Arial;" text-anchor="middle"><textPath startOffset="21.46611528233685" xlink:href="#id83">November</textPath></text><path d="M 86.10567301691215 84.25364557470407 l -41.68298094926353 -47.23906327588782 a84.0,84.0 0 0,0 1.092424805412906,-0.9473400263212777 l 40.863662345203856 47.94956829562878" fill="#4dd2ff" stroke="none" /><line stroke="#e1ed5e" stroke-width="0.3" x1="56.762969772571076" x2="54.21961505331055" y1="26.818313649435495" y2="22.513508569990535" /><path d="M 56.25429882871897 25.957352633546506 a86.0,86.0 0 0,1 42.265352541879196,-11.944610805530505" fill="none" id="id84" stroke="none" /><text fill="#e1ed5e" style="font-size:6.75px; font-family:Arial;" text-anchor="middle"><textPath startOffset="22.20632615414155" xlink:href="#id84">December</textPath></text><path d="M 89.94658935756843 81.56283822128135 l -5.564732169762903 -10.20527967256531 a32.62385380656815,32.62385380656815 0 0,0 0.4953465422647932,-0.26459696794073506 l 5.388240580969804 10.299555367007795" fill="#ff6008" stroke="none" /><path d="M 90.26544431104013 81.39251694778311 l -4.184478571393696 -7.998579142947252 a30.027022167937986,30.027022167937986 0 0,0 0.4600418795939881,-0.235651318851585 l 4.046176204210945 8.069422987111341" fill="#ff3905" stroke="none" /><path d="M 91.23893434514133 80.91482961587045 l -3.816485772164765 -8.313860904578023 a30.14799687307593,30.14799687307593 0 0,0 0.47349278386420063,-0.21244241013649978 l 3.67281086983379 8.37832364523105" fill="#ff3b05" stroke="none" /><path d="M 92.23578459929587 80.48803036053334 l -4.029318619664801 -10.125935270614372 a31.898163773932268,31.898163773932268 0 0,0 0.5119151522577444,-0.19861512599694028 l 3.8544203024073806 10.193793100501864" fill="#ff5507" stroke="none" /><path d="M 92.57280143429618 80.3572730644239 l -2.9513247335565502 -7.805374439180583 a29.3447101698451,29.3447101698451 0 0,0 0.4740116349853754,-0.17458248551385835 l 2.8165307727986053 7.855020192500763" fill="#ff2f04" stroke="none" /><path d="M 93.59665428221793 80.00007090966166 l -2.5572410533201113 -7.987174515859077 a29.386562976069186,29.386562976069186 0 0,0 0.4830795897664963,-0.15009518005139802 l 2.4193760908428863 8.030009830793" fill="#ff3004" stroke="none" /><path d="M 93.94186890950719 79.89281104454417 l -2.413883789766351 -8.011780655178189 a29.36752437804541,29.36752437804541 0 0,0 0.4852770590679836,-0.1416656807150881 l 2.2756165129749464 8.052144664811976" fill="#ff2f04" stroke="none" /><path d="M 94.63758080256005 79.69619591428918 l -2.91728246488791 -11.045748094076897 a32.42449508458671,32.42449508458671 0 0,0 0.5408577341432216,-0.13787667913290552 l 2.7267158420596895 11.094327769378665" fill="#ff5d08" stroke="none" /><path d="M 94.98787191387505 79.60689891045804 l -2.5981043482252026 -10.571039627101468 a31.885633881497956,31.885633881497956 0 0,0 0.5341243202712312,-0.1264099697435358 l 2.4157563409914373 10.614195508985874" fill="#ff5507" stroke="none" /><path d="M 95.692805502759 79.44645832069477 l -2.298737148675889 -10.969365285301501 a32.20763878973088,32.20763878973088 0 0,0 0.5435937647061833,-0.1090397953354305 l 2.1095769745025694 11.007309036714144" fill="#ff5a08" stroke="none" /><path d="M 96.40284397218896 79.31037775812273 l -1.8834929018111273 -10.833212774882885 a31.995728467775958,31.995728467775958 0 0,0 0.5434258034650622,-0.08966991382369416 l 1.6967378922071794 10.864028951646207" fill="#ff5708" stroke="none" /></svg>