<?xml version="1.0" encoding="utf-8" ?>
<svg baseProfile="full" height="200mm" version="1.1" viewBox="0,0,200,200" width="200mm" xmlns="http://www.w3.org/2000/svg" xmlns:ev="http://www.w3.org/2001/xml-events" xmlns:xlink="http://www.w3.org/1999/xlink"><defs /><rect fill="#1a1a1a" height="200" width="200" x="0" y="0" /><text alignment-baseline="middle" fill="#e1ed5e" style="dominant-baseline: central; font-size:9.0px; font-family:Arial;" text-anchor="middle" x="100.0" y="100.0">2022</text><line stroke="#e1ed5e" stroke-width="0.3" x1="100.0" x2="100.0" y1="15.0" y2="10.0" /><path d="M 100.0 14.0 a86.0,86.0 0 0,1 42.46469731375804,11.215312516191453" fill="none" id="id73" stroke="none" /><text fill="#e1ed5e" style="font-size:6.75px; font-family:Arial;" text-anchor="middle"><textPath startOffset="22.20632615414155" xlink:href="#id73">January</textPath></text><path d="M 102.52436894288641 79.15227682838746 l 1.1907202905259169 -9.833668355673245 a30.90549585531383,30.90549585531383 0 0,0 0.5275792891567531,0.06849493335952994 l -1.359814308190516 9.811715099149579" fill="#ff5708" stroke="none" /><path d="M 103.59715602781102 79.31037775812273 l 1.4648021069526964 -8.425045235082386 a29.55143452443609,29.55143452443609 0 0,0 0.5004111569189357,0.09144694037931649 l -1.6096083849745328 8.398582813352332" fill="#ff4306" stroke="none" /><path d="M 103.95276090670814 79.375362276772 l 1.2526711055754367 -6.536162532624595 a27.65511874812382,27.65511874812382 0 0,0 0.4667572873576449,0.09362712081936336 l -1.364994802400207 6.5136314557280235" fill="#ff2603" stroke="none" /><path d="M 104.307194497241 79.44645832069477 l 1.8248901663450612 -8.708210441426171 a29.89736776869354,29.89736776869354 0 0,0 0.5027844264843775,0.10988920162889156 l -1.9745173169829666 8.67550774170141" fill="#ff4806" stroke="none" /><path d="M 105.01212808612495 79.60689891045804 l 1.753694900962714 -7.135347856442496 a28.347695886337508,28.347695886337508 0 0,0 0.4728545664401957,0.12054115753171664 l -1.876258356087935 7.104103702741911" fill="#ff3104" stroke="none" /><path d="M 105.36241919743992 79.69619591428918 l 1.8297638004955379 -6.928060705534438 a28.16561656141146,28.16561656141146 0 0,0 0.4676861879180849,0.12783630210611235 l -1.9487478776373337 6.895537862602032" fill="#ff2e04" stroke="none" /><path d="M 105.71112130821622 79.79150937346287 l 1.5574164549743457 -5.510833010443246 a26.72667673989163,26.72667673989163 0 0,0 0.441638965546959,0.12892652458098286 l -1.652045638244732 5.48320815694356" fill="#ff1802" stroke="none" /><path d="M 107.4271985657038 80.35727306442388 l 2.0566852644328493 -5.439319641759086 a26.81516572783282,26.81516572783282 0 0,0 0.4303410611239818,0.16696564596658556 l -2.150009490556498 5.403111291901954" fill="#ff1a02" stroke="none" /><path d="M 107.76421540070413 80.48803036053334 l 2.297284077570486 -5.77322174378629 a27.213501704834858,27.213501704834858 0 0,0 0.43375228502819735,0.17693844793427646 l -2.396320232187071 5.732822409668434" fill="#ff2003" stroke="none" /><path d="M 108.09893153111575 80.62456947434976 l 2.562950366642316 -6.131459017622642 a27.64556275018587,27.64556275018587 0 0,0 0.43747950128160984,0.18730589132527298 l -2.6681136257142413 6.086433598334578" fill="#ff2603" stroke="none" /><path d="M 108.76106565485865 80.91482961587045 l 3.885813124635392 -8.464884123248797 a30.314172365788504,30.314172365788504 0 0,0 0.4723551287859815,0.22177706655580287 l -4.030946464720971 8.396742074052991" fill="#ff4e07" stroke="none" /><path d="M 109.08828744355905 81.06846463323043 l 3.780915139297983 -7.875909418897456 a29.736433394998805,29.736433394998805 0 0,0 0.4595393834908403,0.22549397972132473 l -3.9159257897992554 7.8096602790412994" fill="#ff4506" stroke="none" /><path d="M 109.41281617654863 81.2277094730956 l 3.88744540532658 -7.752860906610016 a29.672893635727156,29.672893635727156 0 0,0 0.45461630143759874,0.23287212698928414 l -4.020322194352934 7.684796254308231" fill="#ff4406" stroke="none" /><line stroke="#e1ed5e" stroke-width="0.3" x1="143.23703022742887" x2="145.7803849466894" y1="26.81831364943548" y2="22.513508569990506" /><path d="M 143.74570117128098 25.957352633546492 a86.0,86.0 0 0,1 28.547481713284135,27.462654790039103" fill="none" id="id74" stroke="none" /><text fill="#e1ed5e" style="font-size:6.75px; font-family:Arial;" text-anchor="middle"><textPath startOffset="19.985693538727396" xlink:href="#id74">February</textPath></text><path d="M 111.90073688211348 82.69761687909136 l 10.726734133184276 -15.595510214786087 a39.9283587250326,39.9283587250326 0 0,0 0.5629306507626471,0.39436889538717246 l -10.993595923530574 15.40855647663498" fill="#ffd413" stroke="none" /><path d="M 112.19680574252982 82.90503203632743 l 5.00215022652085 -7.010983012845371 a29.61251355267955,29.61251355267955 0 0,0 0.4123961087151449,0.2996233113654732 l -5.122091651589784 6.923840466663223" fill="#ff4406" stroke="none" /><path d="M 112.48926042617603 83.11751280151076 l 4.072802514771667 -5.505453002925344 a27.848191957863776,27.848191957863776 0 0,0 0.3829177399384778,0.28840570300438323 l -4.166966408468528 5.434530710415113" fill="#ff2904" stroke="none" /><path d="M 112.77801427241765 83.33499621200491 l 4.046588964270367 -5.27753522420081 a27.650357906792312,27.650357906792312 0 0,0 0.3752119924583737,0.29285891162776706 l -4.136833511888171 5.207097923349819" fill="#ff2603" stroke="none" /><path d="M 113.34407831869373 83.78471172551755 l 3.9271974342341305 -4.772202094895083 a27.18035537181934,27.18035537181934 0 0,0 0.35870622067011887,0.3004061439725692 l -4.008761191863367 4.703894793528694" fill="#ff1f03" stroke="none" /><path d="M 113.89432698308785 84.25364557470407 l 6.4428646747247695 -7.301658497451661 a30.73779862341712,30.73779862341712 0 0,0 0.3937204807231575,0.3534861350383314 l -6.567596143043917 7.189673353644032" fill="#ff5407" stroke="none" /><path d="M 114.16331599549186 84.49514656593476 l 3.9308718099268476 -4.303200698227306 a26.828317890721262,26.828317890721262 0 0,0 0.33828224135755497,0.31439647601134174 l -4.00436193507925 4.234899636141324" fill="#ff1a02" stroke="none" /><path d="M 114.94478906791727 85.2469230424477 l 2.93752543906867 -2.899842792721817 a25.12772866449289,25.12772866449289 0 0,0 0.3012165369916481,0.3104301190510078 l -2.9870062397634265 2.848848478120695" fill="#ff0000" stroke="none" /><path d="M 115.68641384162765 86.03803664274999 l 7.525850345757568 -6.698512982028506 a31.075142658897875,31.075142658897875 0 0,0 0.3521969901569902,0.40262204315525135 l -7.640039199492406 6.567975382670307" fill="#ff5908" stroke="none" /><path d="M 116.15771136456269 86.58626213691792 l 7.2873860335025356 -6.049810134303884 a30.471335590211858,30.471335590211858 0 0,0 0.33155933956234285,0.4064525462858297 l -7.390443865141287 5.923473418409953" fill="#ff5007" stroke="none" /><path d="M 116.38621287248628 86.86637796730983 l 8.19600614104082 -6.569135142555054 a31.503716160727624,31.503716160727624 0 0,0 0.33550845549870106,0.42606166706624904 l -8.307868677133484 6.427081081535767" fill="#ff5f08" stroke="none" /><path d="M 116.60985879189232 87.15038557335679 l 9.585758455860631 -7.415674129925042 a33.11936417372393,33.11936417372393 0 0,0 0.3449524661558546,0.45391701058752476 l -9.711986862240598 7.249572343456483" fill="#ff760a" stroke="none" /><path d="M 116.82858285166822 87.43820079747576 l 9.709155421277908 -7.247458796930276 a33.11583088391928,33.11583088391928 0 0,0 0.3370519608366416,0.45973849579456694 l -9.832469994628175 7.079257857464216" fill="#ff760a" stroke="none" /><path d="M 117.2510076193507 88.02491185347247 l 10.017838600403532 -6.954057578813681 a33.19491726225279,33.19491726225279 0 0,0 0.32179395327358556,0.4721929191407362 l -10.136057019345852 6.780586636402539" fill="#ff780b" stroke="none" /><path d="M 117.65298651832404 88.62581576622439 l 10.562297426897759 -6.8055066342890385 a33.56491334962574,33.56491334962574 0 0,0 0.30875309493063885,0.48837324896414225 l -10.677878118074354 6.62268573761069" fill="#ff7d0b" stroke="none" /><line stroke="#e1ed5e" stroke-width="0.3" x1="172.23445277983987" x2="176.4835382374775" y1="55.19839476539836" y2="52.563006222186495" /><path d="M 173.08426987136738 54.67131705675599 a86.0,86.0 0 0,1 12.851231095245387,41.99856678651699" fill="none" id="id75" stroke="none" /><text fill="#e1ed5e" style="font-size:6.75px; font-family:Arial;" text-anchor="middle"><textPath startOffset="22.20632615414155" xlink:href="#id75">March</textPath></text><path d="M 118.03404312379186 89.2402003453031 l 10.579526196870146 -6.312149834540564 a33.319480917796504,33.319480917796504 0 0,0 0.2896261377721091,0.49506495314447796 l -10.686612009112583 6.129105469042191" fill="#ff790b" stroke="none" /><path d="M 118.21658344932153 89.55222093294921 l 10.536996595697516 -6.043296360614436 a33.14700490491202,33.14700490491202 0 0,0 0.2796066015689242,0.4973889448480975 l -10.639460838558874 5.861023905831544" fill="#ff770a" stroke="none" /><path d="M 118.73160827565052 90.50648371742162 l 15.960072489723865 -8.088852052777781 a38.892832123757486,38.892832123757486 0 0,0 0.29751162136027026,0.5997652742570898 l -16.096944124037545 7.812927190021741" fill="#ffc612" stroke="none" /><path d="M 118.89224826269711 90.83032412892265 l 16.276519201492793 -7.900087025732748 a39.09244185649672,39.09244185649672 0 0,0 0.28861727583654195,0.607901589493819 l -16.41009467117109 7.618743020598389" fill="#ffc912" stroke="none" /><path d="M 119.04729006885535 91.15688171328212 l 16.094897601087265 -7.472405931999324 a38.74493108473694,38.74493108473694 0 0,0 0.27563823492735684,0.6073323134298297 l -16.22113815297797 7.194251609727432" fill="#ffc412" stroke="none" /><path d="M 119.196687751892 91.48605970444005 l 11.25501623404747 -4.991722399234926 a33.31229803650382,33.31229803650382 0 0,0 0.22796603353976305,0.5261770359283023 l -11.339272977429914 4.797246218720021" fill="#ff790b" stroke="none" /><path d="M 119.34039704204932 91.81776055985345 l 16.615061189537858 -7.029246021677312 a39.04080258650799,39.04080258650799 0 0,0 0.2565135277854931,0.6211678540030847 l -16.73359640420955 6.742203597220924" fill="#ffc812" stroke="none" /><path d="M 119.61058180528143 92.48833698450437 l 13.795748182628554 -5.284341506208304 a35.77318290256825,35.77318290256825 0 0,0 0.2153126749322256,0.5769309220913194 l -13.884665446062405 5.046087447087651" fill="#ff9c0e" stroke="none" /><path d="M 119.7369772167798 92.82701384747503 l 15.039383940707012 -5.465745416044948 a37.001794970221695,37.001794970221695 0 0,0 0.21240249467463382,0.600490454872729 l -15.131239516191455 5.206057334745604" fill="#ffad10" stroke="none" /><path d="M 119.85752413597 93.16781622104841 l 11.511964757473121 -3.9608089277051346 a33.174290120540576,33.174290120540576 0 0,0 0.18113589916293404,0.5415732830847552 l -11.578437950407825 3.7620625416980653" fill="#ff770b" stroke="none" /><path d="M 119.97218684219823 93.5106431181261 l 11.905401603013377 -3.8682994723818633 a33.51808004995428,33.51808004995428 0 0,0 0.17356701905003893,0.5502548818536999 l -11.970224105831623 3.6627944241017443" fill="#ff7c0b" stroke="none" /><path d="M 120.37134235888165 94.90015583598534 l 16.819417136301006 -4.210640850935147 a38.33846271099199,38.33846271099199 0 0,0 0.15475448220551352,0.6415572377198927 l -16.889404418767338 3.9204983815558485" fill="#ffbf11" stroke="none" /><path d="M 120.45610955862082 95.25157060432595 l 30.17632923326436 -7.004761505316827 a51.97866249115242,51.97866249115242 0 0,0 0.19481011877049273,0.8732955640225253 l -30.29243373903689 6.484287771744338" fill="#95ff23" stroke="none" /><path d="M 120.53481517161879 95.60439243477599 l 18.352139701093837 -3.9283920227180142 a39.767879355234015,39.767879355234015 0 0,0 0.13752244755926443,0.6706082944021357 l -18.4170414445681 3.611908072152467" fill="#ffd213" stroke="none" /><path d="M 120.87857604477298 97.74499172005257 l 17.2990717663351 -1.8684008902157199 a38.39967832643383,38.39967832643383 0 0,0 0.06532128012847825,0.65777637652842 l -17.328670172145806 1.570348982982865" fill="#ffc011" stroke="none" /><path d="M 120.91429891909075 98.10471618934814 l 17.502022088399794 -1.5860583826473096 a38.57374059146203,38.57374059146203 0 0,0 0.05423379057027734,0.6617896141115018 l -17.526730362789568 1.284554851328039" fill="#ffc212" stroke="none" /><line stroke="#e1ed5e" stroke-width="0.3" x1="184.98032266829074" x2="189.97916517819016" y1="98.17113171792111" y2="98.06355123074" /><path d="M 185.9800911702706 98.14961562048488 a86.0,86.0 0 0,1 -9.607161424134198,41.387399972396054" fill="none" id="id76" stroke="none" /><text fill="#e1ed5e" style="font-size:6.75px; font-family:Arial;" text-anchor="middle"><textPath startOffset="21.466115282336823" xlink:href="#id76">April</textPath></text><path d="M 120.99513854157772 99.54816195383933 l 17.553411593688292 -0.37776836681688863 a38.557476114646946,38.557476114646946 0 0,0 0.008568926980281425,0.6636728379116483 l -17.557313527786288 0.07555927084477751" fill="#ffc212" stroke="none" /><path d="M 120.9904718944345 100.63252640178507 l 17.42413993382572 0.5250586357453236 a38.43204919120271,38.43204919120271 0 0,0 -0.025617462801641868,0.6610728862733037 l -17.412520338172875 -0.8249087690326335" fill="#ffc011" stroke="none" /><path d="M 120.9764740272857 100.99374915477107 l 17.52383216057724 0.8301821066434482 a38.543485854364064,38.543485854364064 0 0,0 -0.037100214220552055,0.6624492474221673 l -17.506945595469155 -1.1317030704010387" fill="#ffc212" stroke="none" /><path d="M 120.95626037817324 101.35467743843564 l 17.433985822113236 1.1269867251612369 a38.47037380036085,38.47037380036085 0 0,0 -0.04840569834642076,0.6604572954305201 l -17.412003565102477 -1.4269171570885273" fill="#ffc111" stroke="none" /><path d="M 120.92983693683757 101.71520430193887 l 17.28138919693802 1.4162132836256434 a38.33932157383223,38.33932157383223 0 0,0 -0.05956361165758628,0.6572794912857577 l -17.254450989003356 -1.7134741634599715" fill="#ffbf11" stroke="none" /><path d="M 120.89721153311464 102.0752229133903 l 17.840859162068256 1.7717081376634303 a38.92861415073172,38.92861415073172 0 0,0 -0.07195805748023758,0.6662422433190827 l -17.807718803086967 -2.0785467028673046" fill="#ffc712" stroke="none" /><path d="M 120.81339534386255 102.79330883721812 l 8.759211903083408 1.1755498616021751 a29.837743526502166,29.837743526502166 0 0,0 -0.07269887919317826,0.5084557917545728 l -8.737678972873628 -1.3261511253371572" fill="#ff4706" stroke="none" /><path d="M 120.76222939487914 103.15116336523771 l 17.34920081776224 2.633154898412229 a38.54788516414654,38.54788516414654 0 0,0 -0.10521415003292367,0.6551686126897648 l -17.30130491336803 -2.931402740795199" fill="#ffc212" stroke="none" /><path d="M 120.70491114924044 103.5080841355445 l 17.348860506349993 2.939460202143086 a38.59611852508313,38.59611852508313 0 0,0 -0.11662195391975566,0.6540778513121599 l -17.29569211009105 -3.2376568041884637" fill="#ffc212" stroke="none" /><path d="M 120.02730092923936 106.31721596034902 l 7.384262934284368 2.329219690096632 a28.742906653665653,28.742906653665653 0 0,0 -0.15289549531100605,0.47056394882694286 l -7.3430751879571154 -2.4559825389013703" fill="#ff3705" stroke="none" /><path d="M 119.67450827220406 107.3425965602758 l 8.399016335672755 3.1345428105635817 a29.964866649212002,29.964866649212002 0 0,0 -0.18450612709337433,0.4816872763695939 l -8.343815928985874 -3.2786536537663196" fill="#ff4906" stroke="none" /><path d="M 119.54520255179757 107.68017299344265 l 9.86025496386841 3.8745295005907345 a31.594177967329014,31.594177967329014 0 0,0 -0.20325194514632572,0.5044546592824796 l -9.792100404464692 -4.043683527716027" fill="#ff6108" stroke="none" /><path d="M 119.41010516605496 108.01547362559984 l 9.810183515212566 4.051151014163338 a31.61374227790109,31.61374227790109 0 0,0 -0.21203640860388517,0.5011914353970419 l -9.73899612541637 -4.219416975226543" fill="#ff6108" stroke="none" /><path d="M 119.26925614724726 108.34839909993367 l 8.190342811431776 3.548463419272841 a29.925990589659484,29.925990589659484 0 0,0 -0.2088533675791728,0.47090920821224524 l -8.128048359121332 -3.688920963977774" fill="#ff4806" stroke="none" /><path d="M 119.12269723197855 108.67885076344098 l 8.31755543911234 3.774928897163425 a30.134101853020184,30.134101853020184 0 0,0 -0.2184369143220736,0.47049368038957734 l -8.251343907950435 -3.917542644831833" fill="#ff4b07" stroke="none" /><path d="M 118.64920377521936 109.65438752849418 l 12.479158660977262 6.460256169366778 a35.052199495441464,35.052199495441464 0 0,0 -0.28199910409311923,0.53343603080707 l -12.366107048659249 -6.674107215259982" fill="#ff920d" stroke="none" /><line stroke="#e1ed5e" stroke-width="0.3" x1="174.80103733775053" x2="179.2010983576182" y1="140.37084112569926" y2="142.7455964860345" /><path d="M 175.68104954172406 140.8457921977663 a86.0,86.0 0 0,1 -30.038265399797805,32.042727171017184" fill="none" id="id77" stroke="none" /><text fill="#e1ed5e" style="font-size:6.75px; font-family:Arial;" text-anchor="middle"><textPath startOffset="22.206326154141568" xlink:href="#id77">May</textPath></text><path d="M 118.48025628344425 109.97397251340804 l 8.116096429424859 4.380335503018564 a30.222708949691942,30.222708949691942 0 0,0 -0.25102635290986974,0.4556857460645227 l -8.03949366706348 -4.519391767480892" fill="#ff4d07" stroke="none" /><path d="M 118.30583269289576 110.29060199501025 l 7.892925535001509 4.436998667013674 a30.054569601707193,30.054569601707193 0 0,0 -0.2573930642555434,0.4487865032554923 l -7.815380474593586 -4.572205016127481" fill="#ff4a06" stroke="none" /><path d="M 117.94076556474637 110.91462005526583 l 12.424352287094832 7.558600783061411 a35.542935589197086,35.542935589197086 0 0,0 -0.3224850495117168,0.5199485812880538 l -12.292402597915153 -7.7713456957147375" fill="#ff990e" stroke="none" /><path d="M 117.75023020441432 111.22182372390056 l 15.150013624657188 9.577948023925593 a38.92372732375492,38.92372732375492 0 0,0 -0.3629084052013825,0.563241904011251 l -14.982900356078755 -9.837311527858297" fill="#ffc712" stroke="none" /><path d="M 117.14729908036423 112.12312394758627 l 14.61070250161465 10.329752607582135 a38.89347413233491,38.89347413233491 0 0,0 -0.39119465149837623,0.5433351560801327 l -14.430728057740671 -10.579721369113399" fill="#ffc612" stroke="none" /><path d="M 116.71984013943494 112.70617746262583 l 7.081088398243688 5.38124557808517 a29.893796538902976,29.893796538902976 0 0,0 -0.3148716191369257,0.40701401285587824 l -6.987409961888694 -5.502337585054301" fill="#ff4806" stroke="none" /><path d="M 116.498646956653 112.99209946851258 l 13.802054100661412 10.868628210343994 a38.56769127040516,38.56769127040516 0 0,0 -0.41521257950652296,0.5180415347870662 l -13.612923609100035 -11.104597578709312" fill="#ffc212" stroke="none" /><path d="M 116.0416608686014 113.55231037782055 l 7.1557453266286455 6.045314287931665 a30.367524540637106,30.367524540637106 0 0,0 -0.3407778392283014,0.39640161516013955 l -7.050624977829565 -6.167593002253332" fill="#ff4f07" stroke="none" /><path d="M 115.80600337817218 113.82643327865902 l 13.184217634288261 11.533004333248893 a38.51667158963184,38.51667158963184 0 0,0 -0.44081624559853727,0.4952617249908913 l -12.983742539041385 -11.75824022798065" fill="#ffc112" stroke="none" /><path d="M 115.56566222782051 114.09645910891815 l 13.121593530846635 11.883079816599851 a38.702649595934474,38.702649595934474 0 0,0 -0.4514453827908128,0.489954801473467 l -12.9151017400601 -12.107185872874652" fill="#ffc412" stroke="none" /><path d="M 115.32070863581623 114.36230785411682 l 12.912978270856339 12.105195239206973 a38.69973896990933,38.69973896990933 0 0,0 -0.4597776826826933,0.48207506212585227 l -12.70269403679468 -12.325677417915331" fill="#ffc412" stroke="none" /><path d="M 114.55890576462653 115.13401014063108 l 4.978289695617147 5.174941575590436 a28.18076518236478,28.18076518236478 0 0,0 -0.3524798653740202,0.3332917133950437 l -4.888473995852319 -5.259867925731402" fill="#ff2e04" stroke="none" /><path d="M 114.29624159901734 115.38237550388516 l 5.96050393170253 6.413343607464938 a29.755488755475202,29.755488755475202 0 0,0 -0.3781787311747617,0.34545730439697375 l -5.849225651060904 -6.514993678448494" fill="#ff4606" stroke="none" /><path d="M 113.75828350139079 115.86535959552629 l 5.797443808925431 6.685320211213969 a29.84894688898706,29.84894688898706 0 0,0 -0.3910702750942135,0.3332785725237198 l -5.68150805725417 -6.784123173960635" fill="#ff4706" stroke="none" /><path d="M 113.48314897796784 116.09983520530334 l 11.851138643610843 14.151099232762022 a39.45814445293904,39.45814445293904 0 0,0 -0.5244736566197087,0.43160611341326893 l -11.605794858446444 -14.35300046503247" fill="#ffce13" stroke="none" /><path d="M 113.20401910651253 116.32954008644616 l 11.34794503331906 14.034115054330211 a39.04805368557531,39.04805368557531 0 0,0 -0.5262980485558436,0.41812299990443025 l -11.104689492045866 -14.227371968239767" fill="#ffc812" stroke="none" /><path d="M 112.92097659922987 116.55440617244103 l 10.905196076366202 13.971780217374308 a38.723824189677714,38.723824189677714 0 0,0 -0.528988222994631,0.40560561217726976 l -10.663079124878077 -14.157425171378948" fill="#ffc412" stroke="none" /><path d="M 112.63410532772338 116.77436683061366 l 10.41985465025372 13.83449478147793 a38.31954435864738,38.31954435864738 0 0,0 -0.530296929396926,0.3923009907587759 l -10.18017275043823 -14.011805720976476" fill="#ffbf11" stroke="none" /><path d="M 112.04921762599082 117.19931262002967 l 10.150539274574362 14.489098268812914 a38.69088511657893,38.69088511657893 0 0,0 -0.5487530361819042,0.37743734208324703 l -9.899629353769575 -14.661676400261255" fill="#ffc412" stroke="none" /><path d="M 111.1453310114006 117.79835938074945 l 4.616647810192522 7.372482412241124 a29.69867426233217,29.69867426233217 0 0,0 -0.4356099717730146,0.26758722334954554 l -4.489058638487199 -7.450858102419047" fill="#ff4506" stroke="none" /><line stroke="#e1ed5e" stroke-width="0.3" x1="143.8653032363475" x2="146.44561519142675" y1="172.8068346515853" y2="177.08958963109032" /><path d="M 144.38136562736335 173.6633856474863 a86.0,86.0 0 0,1 -40.68145358897372,12.25698825130547" fill="none" id="id78" stroke="none" /><text fill="#e1ed5e" style="font-size:6.75px; font-family:Arial;" text-anchor="middle"><textPath startOffset="21.466115282336833" xlink:href="#id78">June</textPath></text><path d="M 110.5260780823613 118.17145234162733 l 4.486479663302399 7.745130783325069 a29.95072905522425,29.95072905522425 0 0,0 -0.4483356481008959,0.25457668183335086 l -4.352495248280304 -7.821210630953049" fill="#ff4906" stroke="none" /><path d="M 110.21172684928248 118.3499491758327 l 4.328813609868879 7.778655941852583 a29.90202873117721,29.90202873117721 0 0,0 -0.4519153237201858,0.2464202668227688 l -4.194275474280045 -7.852016860435123" fill="#ff4806" stroke="none" /><path d="M 109.89434966115114 118.52300852407294 l 4.167024974639692 7.801001760462927 a29.844191631009394,29.844191631009394 0 0,0 -0.45520790886452056,0.23814326346349832 l -4.032126163248677 -7.871574442871141" fill="#ff4706" stroke="none" /><path d="M 109.2508944713604 118.85261126421891 l 3.845854513276541 7.837555637674707 a29.730284950156904,29.730284950156904 0 0,0 -0.46136777342854607,0.22148456851912085 l -3.7103740718477622 -7.902594482693388" fill="#ff4506" stroke="none" /><path d="M 108.59647513512805 119.15986991738527 l 3.651969453382751 8.139529117364901 a29.921256365606347,29.921256365606347 0 0,0 -0.47172901766273045,0.20679213850540107 l -3.511319761062267 -8.201185809164757" fill="#ff4806" stroke="none" /><path d="M 108.2653958097858 119.30500536409082 l 3.6244455331305425 8.465407110461587 a30.208676504714646,30.208676504714646 0 0,0 -0.47978360881575305,0.20054958739658757 l -3.4781904648173283 -8.526541740878148" fill="#ff4c07" stroke="none" /><path d="M 107.93186726928326 119.44442032107085 l 2.7394441381808425 6.715556559444959 a28.252810082258986,28.252810082258986 0 0,0 -0.45188206901060285,0.17981320104237836 l -2.6234409931283733 -6.761716604893406" fill="#ff2f04" stroke="none" /><path d="M 107.59598834532513 119.57807347666477 l 3.198579357886244 8.24409133383942 a29.842847495540234,29.842847495540234 0 0,0 -0.48051216359770504,0.181688584481227 l -3.0561969735282637 -8.297928168427276" fill="#ff4706" stroke="none" /><path d="M 107.2578585660854 119.70592522655815 l 3.0323566780731204 8.233199009634712 a29.77386761669588,29.77386761669588 0 0,0 -0.48245070258863737,0.17298965717446507 l -2.890186414854748 -8.284176207849137" fill="#ff4606" stroke="none" /><path d="M 106.57524785965236 119.94407469862006 l 2.7461203245603825 8.329545905107018 a29.770547977307274,29.770547977307274 0 0,0 -0.48806496254918924,0.15626298842472433 l -2.602334016920253 -8.375581740191448" fill="#ff4606" stroke="none" /><path d="M 105.88484417918355 120.15858648285463 l 2.2404832627369142 7.674795498414789 a28.995139222871117,28.995139222871117 0 0,0 -0.48030977200497643,0.1357403392532426 l -2.108042322627332 -7.712224631006551" fill="#ff3a05" stroke="none" /><path d="M 105.18746579009965 120.34920634021253 l 2.158143554825624 8.465888795404032 a29.736638752940568,29.736638752940568 0 0,0 -0.49709282652369147,0.12217332255114123 l -2.0120974435587216 -8.501783376269204" fill="#ff4506" stroke="none" /><path d="M 104.83641907484287 120.43548508189849 l 2.03592715952618 8.602471881054058 a29.8401087020026,29.8401087020026 0 0,0 -0.5008589074944111,0.11399385668912439 l -1.8875481026389067 -8.636242471320866" fill="#ff4706" stroke="none" /><path d="M 104.48393922423573 120.51570834832081 l 1.930363010036569 8.832136775236307 a30.040627266235404,30.040627266235404 0 0,0 -0.5061252586100727,0.10606346890545477 l -1.7780462899971181 -8.864056224868303" fill="#ff4a06" stroke="none" /><path d="M 104.13013068566511 120.58985236759428 l 1.7645137077074722 8.796592531173763 a29.97181970305855,29.97181970305855 0 0,0 -0.5067126973716033,0.0971126944376518 l -1.6128333957641645 -8.825662423959884" fill="#ff4906" stroke="none" /><path d="M 103.7750983002368 120.6578951692458 l 1.6300086832307283 8.919648132348902 a30.067361860669443,30.067361860669443 0 0,0 -0.5099296119904514,0.08865779935885412 l -1.476230099768227 -8.946384510228762" fill="#ff4a06" stroke="none" /><path d="M 102.70371172650421 120.8252237178851 l 1.1314976761917501 8.715312365577974 a29.788455872383025,29.788455872383025 0 0,0 -0.5090599962972543,0.061640076191553324 l -0.9813102568431156 -8.733497970494879" fill="#ff4606" stroke="none" /><path d="M 102.34483914955558 120.86867818915974 l 0.981413601232308 8.734417718359513 a29.789381408010257,29.789381408010257 0 0,0 -0.5100614534096944,0.05286995516137291 l -0.8309195512170109 -8.750017041976644" fill="#ff4606" stroke="none" /><path d="M 101.98527174616119 120.90594882070398 l 0.8263454644369271 8.701849518154882 a29.74099718929184,29.74099718929184 0 0,0 -0.5100661492264902,0.04401065360168637 l -0.6764349974688953 -8.714784424035232" fill="#ff4506" stroke="none" /><path d="M 101.62511606390274 120.93702456842531 l 0.4544172884004557 5.854440887569123 a26.872050168215388,26.872050168215388 0 0,0 -0.461479142136918,0.03182630352023593 l -0.3535753854846074 -5.861395535605644" fill="#ff1b02" stroke="none" /><path d="M 100.90346689309514 120.98055641714683 l 0.3898549979536624 9.05331987434776 a30.061709974761364,30.061709974761364 0 0,0 -0.5171754289400182,0.01781256747010775 l -0.2339592173389919 -9.058689240243961" fill="#ff4a06" stroke="none" /><line stroke="#e1ed5e" stroke-width="0.3" x1="102.19456741930631" x2="102.32365962044197" y1="184.97166512339345" y2="189.96999836594603" /><path d="M 102.22038585953345 185.97133177190398 a86.0,86.0 0 0,1 -42.740103519485714,-10.115201625700543" fill="none" id="id79" stroke="none" /><text fill="#e1ed5e" style="font-size:6.75px; font-family:Arial;" text-anchor="middle"><textPath startOffset="22.20632615414155" xlink:href="#id79">July</textPath></text><path d="M 100.54218724476979 120.99299961872073 l 0.22384866327275854 8.667217733481365 a29.670107926872817,29.670107926872817 0 0,0 -0.510665381428901,0.0087915676526072 l -0.07462359195118955 -8.669786778413132" fill="#ff4406" stroke="none" /><path d="M 100.18074693466247 120.99922214144158 l 0.0811854228133148 9.432141858933077 a30.432491246744675,30.432491246744675 0 0,0 -0.523864714951534,0.0 l 0.0811854228133083 -9.432141858933077" fill="#ff5007" stroke="none" /><path d="M 99.45781275523022 120.99299961872073 l -0.22484727928780654 8.705883242169564 a29.708786329063997,29.708786329063997 0 0,0 -0.5111038036732102,-0.01760344841945965 l 0.3746714346356597 -8.70072299532401" fill="#ff4506" stroke="none" /><path d="M 99.09653310690486 120.98055641714683 l -0.37811014138066307 8.780577588134165 a29.788714926555468,29.788714926555468 0 0,0 -0.5120991197674154,-0.026469675087390756 l 0.5291973295615674 -8.772768106284571" fill="#ff4606" stroke="none" /><path d="M 98.01472825383883 120.90594882070398 l -0.8278755303015506 8.717961911191301 a29.757182068374185,29.757182068374185 0 0,0 -0.509510128031424,-0.05281280803167704 l 0.9778182549385679 -8.702419734703863" fill="#ff4606" stroke="none" /><path d="M 97.2962882734958 120.8252237178851 l -1.1668679963310453 8.987750740813544 a30.0631806944282,30.0631806944282 0 0,0 -0.5126078792694652,-0.07104278117311101 l 1.3214044667873415 -8.966333394147828" fill="#ff4a06" stroke="none" /><path d="M 95.86986931433489 120.58985236759428 l -1.721438848461313 8.58185235461917 a29.752801925410765,29.752801925410765 0 0,0 -0.5012759698862148,-0.10504725330462182 l 1.8689062797769147 -8.550949120588006" fill="#ff4606" stroke="none" /><path d="M 95.16358092515715 120.4354850818985 l -2.0178525818035977 8.526100756530836 a29.76162788255739,29.76162788255739 0 0,0 -0.4975105575650786,-0.12227599067776823 l 2.164316424111887 -8.490103507539036" fill="#ff4606" stroke="none" /><path d="M 94.46302465271185 120.25689768951611 l -2.2674869986411523 8.29554933205149 a29.599862557593962,29.599862557593962 0 0,0 -0.49032712438924697,-0.1385713430976659 l 2.409945291135013 -8.255289195615301" fill="#ff4306" stroke="none" /><path d="M 92.06813273071674 119.44442032107085 l -3.3200616578140236 8.138899980891972 a29.790022884535066,29.790022884535066 0 0,0 -0.4731344216293419,-0.19777022661340335 l 3.459667538940828 -8.080544711258597" fill="#ff4606" stroke="none" /><path d="M 91.07499286063937 119.00905698771935 l -3.7587999790979008 8.005735109499184 a29.844228170187282,29.844228170187282 0 0,0 -0.4631359949511596,-0.22233342230462338 l 3.8960486420493026 -7.939847410694998" fill="#ff4706" stroke="none" /><path d="M 90.7491055286396 118.85261126421891 l -3.8067999777704755 7.757965498766532 a29.64162917225711,29.64162917225711 0 0,0 -0.45612269699674174,-0.2287093892260303 l 3.9397765824499777 -7.691288268631199" fill="#ff4406" stroke="none" /><path d="M 90.10565033884886 118.52300852407294 l -4.143157644237136 7.756320222046187 a29.793535048654963,29.793535048654963 0 0,0 -0.4502756370588199,-0.24552617891870482 l 4.276056093164597 -7.683853391367717" fill="#ff4606" stroke="none" /><line stroke="#e1ed5e" stroke-width="0.3" x1="58.666819895761336" x2="56.23545636021788" y1="174.27360380694188" y2="178.64263932499728" /><path d="M 58.180547188652646 175.14741091055294 a86.0,86.0 0 0,1 -31.652253787137756,-30.449443065178592" fill="none" id="id80" stroke="none" /><text fill="#e1ed5e" style="font-size:6.75px; font-family:Arial;" text-anchor="middle"><textPath startOffset="22.20632615414155" xlink:href="#id80">August</textPath></text><path d="M 89.7882731507175 118.34994917583269 l -4.195357119864239 7.5388414770794405 a29.62758089963397,29.62758089963397 0 0,0 -0.4434984089972203,-0.25182997122609807 l 4.324504295782666 -7.46550834005871" fill="#ff4406" stroke="none" /><path d="M 82.6465618267979 111.8261652097733 l -8.250353436458473 5.622519399599469 a30.984040075307917,30.984040075307917 0 0,0 -0.29655694461744625,-0.44331239482845364 l 8.34591348648665 -5.479670090565194" fill="#ff5808" stroke="none" /><line stroke="#e1ed5e" stroke-width="0.3" x1="26.63291911575756" x2="22.317208475507996" y1="142.92168965132927" y2="145.44649492493687" /><path d="M 25.769776987707644 143.4266507060508 a86.0,86.0 0 0,1 -11.730757126820373,-40.83630448921669" fill="none" id="id81" stroke="none" /><text fill="#e1ed5e" style="font-size:6.75px; font-family:Arial;" text-anchor="middle"><textPath startOffset="21.46611528233685" xlink:href="#id81">September</textPath></text><path d="M 81.87401531095188 110.60418214915194 l -7.706369146127052 4.50843049555876 a29.9282736825023,29.9282736825023 0 0,0 -0.25631144192397054,-0.4469006035501832 l 7.7828325842034 -4.37511004615027" fill="#ff4806" stroke="none" /><line stroke="#e1ed5e" stroke-width="0.3" x1="15.007084014347285" x2="10.007500721073583" y1="101.09737516637583" y2="101.16192664675087" /><path d="M 14.007167355692545 101.11028546245083 a86.0,86.0 0 0,1 10.666146001902534,-42.60595125391555" fill="none" id="id82" stroke="none" /><text fill="#e1ed5e" style="font-size:6.75px; font-family:Arial;" text-anchor="middle"><textPath startOffset="22.20632615414155" xlink:href="#id82">October</textPath></text><line stroke="#e1ed5e" stroke-width="0.3" x1="26.266209847984243" x2="21.928928074336255" y1="57.711370442889674" y2="55.22380399835377" /><path d="M 25.398753493254645 57.213857153982495 a86.0,86.0 0 0,1 29.58750427330803,-30.492523968695096" fill="none" id="id83" stroke="none" /><text fill="#e1ed5e" style="font-size:6.75px; font-family:Arial;" text-anchor="middle"><textPath startOffset="21.46611528233685" xlink:href="#id83">November</textPath></text><path d="M 86.10567301691215 84.25364557470407 l -41.68298094926353 -47.23906327588782 a84.0,84.0 0 0,0 1.092424805412906,-0.9473400263212777 l 40.863662345203856 47.94956829562878" fill="#4dd2ff" stroke="none" /><line stroke="#e1ed5e" stroke-width="0.3" x1="56.762969772571076" x2="54.21961505331055" y1="26.818313649435495" y2="22.513508569990535" /><path d="M 56.25429882871897 25.957352633546506 a86.0,86.0 0 0,1 42.265352541879196,-11.944610805530505" fill="none" id="id84" stroke="none" /><text fill="#e1ed5e" style="font-size:6.75px; font-family:Arial;" text-anchor="middle"><textPath startOffset="22.20632615414155" xlink:href="#id84">December</textPath></text><path d="M 89.94658935756843 81.56283822128135 l -4.402759684134958 -8.074313828046634 a30.19667530306628,30.19667530306628 0 0,0 0.4584933094647176,-0.24491124728721045 l 4.263121328141935 8.148903801835592" fill="#ff4c07" stroke="none" /><path d="M 90.26544431104013 81.39251694778311 l -3.3030418448764034 -6.313723719204277 a28.125531042066072,28.125531042066072 0 0,0 0.4309092687514966,-0.22072846406131683 l 3.193872088536143 6.369644708578099" fill="#ff2e04" stroke="none" /><path d="M 91.23893434514133 80.91482961587045 l -3.0198252673038444 -6.578409753707426 a28.238426592341717,28.238426592341717 0 0,0 0.4435018112627452,-0.19898633494609466 l 2.906141337574325 6.62941641917005" fill="#ff2f04" stroke="none" /><path d="M 92.23578459929587 80.48803036053334 l -3.1914278358906794 -8.020262167739494 a29.631906908150206,29.631906908150206 0 0,0 0.4755453086290004,-0.18450419170841 l 3.0528993622620026 8.074009063338455" fill="#ff4406" stroke="none" /><path d="M 92.57280143429618 80.3572730644239 l -2.3381068113972945 -6.183595771164832 a27.61086984614506,27.61086984614506 0 0,0 0.44600452631455334,-0.16426723102868163 l 2.231319959310172 6.222926269999836" fill="#ff2603" stroke="none" /><path d="M 93.59665428221793 80.00007090966166 l -2.0220726261493787 -6.315652929092424 a27.631459087273054,27.631459087273054 0 0,0 0.4542278023938912,-0.14113078927142525 l 1.913059451044759 6.3495238532463745" fill="#ff2603" stroke="none" /><path d="M 93.94186890950719 79.89281104454417 l -1.9079272810591226 -6.332489967694665 a27.613668853273744,27.613668853273744 0 0,0 0.45629586745866973,-0.13320527616772893 l 1.7986411958770314 6.3643935727810925" fill="#ff2603" stroke="none" /><path d="M 94.63758080256005 79.69619591428918 l -2.3050163993808166 -8.727516380987439 a30.02677366404069,30.02677366404069 0 0,0 0.5008624721895621,-0.12768099632926283 l 2.154445038506255 8.765900373485565" fill="#ff4a06" stroke="none" /><path d="M 94.98787191387505 79.60689891045804 l -2.0524344795843565 -8.350844811347423 a29.59936604385433,29.59936604385433 0 0,0 0.49582646929302104,-0.11734610577093184 l 1.9083843233288016 8.384936829259226" fill="#ff4306" stroke="none" /><path d="M 95.692805502759 79.44645832069477 l -1.8184949510349881 -8.677693053714071 a29.866187490766094,29.866187490766094 0 0,0 0.5040752413276154,-0.10111275131665562 l 1.6688533002402364 8.707709761107937" fill="#ff4706" stroke="none" /><path d="M 96.40284397218896 79.31037775812273 l -1.4892902936230012 -8.565892984715715 a29.694395217856247,29.694395217856247 0 0,0 0.504339215027546,-0.0832202918246909 l 1.3416218724565696 8.590259539480032" fill="#ff4506" stroke="none" /></svg>