<?xml version="1.0" encoding="utf-8" ?>
<svg baseProfile="full" height="200mm" version="1.1" viewBox="0,0,200,200" width="200mm" xmlns="http://www.w3.org/2000/svg" xmlns:ev="http://www.w3.org/2001/xml-events" xmlns:xlink="http://www.w3.org/1999/xlink"><defs /><rect fill="#1a1a1a" height="200" width="200" x="0" y="0" /><rect fill="#1a1a1a" height="200" width="180" x="10" y="0" /><text alignment-baseline="middle" fill="#e1ed5e" style="dominant-baseline: central; font-size:9.0px; font-family:Arial;" text-anchor="middle" x="100.0" y="100.0">2020</text><line stroke="#e1ed5e" stroke-width="0.3" x1="100.0" x2="100.0" y1="15.0" y2="10.0" /><path d="M 100.0 14.0 a86.0,86.0 0 0,1 42.35913384403234,11.155469271406648" fill="none" id="id49" stroke="none" /><text fill="#e1ed5e" style="font-size:6.75px; font-family:Arial;" text-anchor="middle"><textPath startOffset="22.145653131862478" xlink:href="#id49">January</textPath></text><path d="M 100.0 79.0 l 0.0 -24.59397889378954 a45.59397889378954,45.59397889378954 0 0,0 0.7826812765199592,0.006718377426954561 l -0.42218835167110447 24.59035491455702" fill="#eaff1a" stroke="none" /><path d="M 100.36049292484886 79.00309439819443 l 0.32458708540076325 -18.905570461840586 a39.90835665158737,39.90835665158737 0 0,0 0.684878114026117,0.017640030787392458 l -0.6490785134976216 18.89721271370315" fill="#ffc912" stroke="none" /><path d="M 100.72087961077811 79.0123766808444 l 0.6566240760297302 -19.1168935338946 a40.12816702048273,40.12816702048273 0 0,0 0.688244382623094,0.02955617512314975 l -0.9846942192536604 19.10280479034562" fill="#ffcc13" stroke="none" /><path d="M 101.08105385017728 79.02784411241856 l 1.3162025990196207 -25.53397879462965 a46.56787950468835,46.56787950468835 0 0,0 0.7979864023322406,0.048004880389265536 l -1.7543333534843237 25.507621936415692" fill="#ddff1b" stroke="none" /><path d="M 101.44090949804482 79.04949213459386 l 1.7016514061224193 -24.74163798387174 a45.8000860408371,45.8000860408371 0 0,0 0.7839033792875655,0.060679079308321934 l -2.1261237801852184 24.708781137568362" fill="#e7ff1a" stroke="none" /><path d="M 101.80034050326958 79.07731436759882 l 1.3881177665205808 -16.132032577679606 a37.191644327277146,37.191644327277146 0 0,0 0.6356236851185274,0.06019422383617826 l -1.664841015024121 16.105826598338243" fill="#ffa40f" stroke="none" /><path d="M 102.51750503828377 79.15144685158666 l 1.9309520207802202 -15.991052736767056 a37.107214015360334,37.107214015360334 0 0,0 0.6317453323017223,0.08179208124863267 l -2.205175174972734 15.955549059318027" fill="#ffa30f" stroke="none" /><path d="M 103.58742460773223 79.30868818359171 l 4.1951406516632845 -24.19645646354847 a45.557436968862085,45.557436968862085 0 0,0 0.7694114533948833,0.14021239725258347 l -4.609886838609221 24.120875892364516" fill="#eaff1a" stroke="none" /><path d="M 103.94208987418118 79.37332000966035 l 4.6089564144496205 -24.11600752000166 a45.552480484363954,45.552480484363954 0 0,0 0.7668077116192931,0.15338301802631948 l -5.0222606115998705 24.03333510531248" fill="#eaff1a" stroke="none" /><path d="M 104.29559338865022 79.4440306129975 l 4.418467731679441 -21.143967599410242 a42.60069959378174,42.60069959378174 0 0,0 0.7145508321546626,0.1557330281094335 l -4.780780980453239 21.06500311316709" fill="#ffee16" stroke="none" /><path d="M 104.9986988182912 79.60360301121754 l 5.842462493450698 -23.839240718493382 a45.54472990321244,45.54472990321244 0 0,0 0.7577660737934058,0.19262117273710308 l -6.250833860469498 23.73543431392101" fill="#eaff1a" stroke="none" /><path d="M 105.3480935250658 79.69241777938227 l 4.617501504668308 -17.533405319183153 a39.131233334563156,39.131233334563156 0 0,0 0.6481224170535907,0.17664864684032683 l -4.917805322656592 17.451556178198686" fill="#ffbf11" stroke="none" /><path d="M 106.04205211174951 79.88797359093562 l 7.065852015357395 -23.519923315302307 a45.55836023558233,45.55836023558233 0 0,0 0.7470689570538772,0.23144387256504315 l -7.468561605282902 23.395162854930618" fill="#eaff1a" stroke="none" /><path d="M 106.38641147887787 79.99465700312896 l 5.41305906437992 -16.95633042177063 a38.799391838114296,38.799391838114296 0 0,0 0.6327575951261863,0.20799998968080155 l -5.703339397153848 16.860909510687808" fill="#ffba11" stroke="none" /><path d="M 106.72888874123014 80.10723608172694 l 11.592073045698926 -34.26990418321416 a57.17737539158278,57.17737539158278 0 0,0 0.9270745852594832,0.3224846649044366 l -12.178653403003429 34.06586108574113" fill="#60ff29" stroke="none" /><path d="M 107.06938296918511 80.22567764915836 l 4.5451942471399525 -12.713717248295666 a34.5017553308392,34.5017553308392 0 0,0 0.5559889662348153,0.20416684965105672 l -4.7627723650288925 12.633819549635886" fill="#ff7e0b" stroke="none" /><path d="M 107.40779381753099 80.34994680014964 l 6.682106856779353 -17.725082319659187 a39.94278478165532,39.94278478165532 0 0,0 0.6395177217544759,0.2473791931800169 l -6.985396841027355 17.607763238341132" fill="#ffca12" stroke="none" /><path d="M 107.74402155503746 80.48000691201159 l 9.054662887017969 -22.82366541886528 a45.55415694235596,45.55415694235596 0 0,0 0.7244098802443015,0.2946111918361324 l -9.44512722845271 22.66486697044985" fill="#eaff1a" stroke="none" /><path d="M 108.07796709384702 80.6158196554323 l 9.44562256712916 -22.666055602951616 a45.55544465646578,45.55544465646578 0 0,0 0.719266075385653,0.3070119173775268 l -9.833323717685243 22.500569035914687" fill="#eaff1a" stroke="none" /><path d="M 108.4095320186766 80.7573450057729 l 8.640471647263587 -19.771090059047005 a42.57669465905548,42.57669465905548 0 0,0 0.6672104553811129,0.2984347501175942 l -8.97859550550033 19.619851558019555" fill="#ffed16" stroke="none" /><path d="M 109.06512990194946 81.05736502329252 l 7.723956500561253 -16.14009839336492 a38.89307911372616,38.89307911372616 0 0,0 0.5997678593152278,0.29337651474178356 l -7.999884609138548 16.005128128525914" fill="#ffbc11" stroke="none" /><path d="M 109.3889696526874 81.21577127319529 l 7.237597706534982 -14.480043687566582 a37.18809703935201,37.18809703935201 0 0,0 0.5685755064576087,0.2903187048581328 l -7.485100434706169 14.353667031035616" fill="#ffa40f" stroke="none" /><path d="M 109.71004243097381 81.37971332152246 l 7.4919645825338685 -14.366829939567046 a37.20294219635378,37.20294219635378 0 0,0 0.5637329663107576,0.3001560521748747 l -7.737486364631185 14.236103419669597" fill="#ffa40f" stroke="none" /><path d="M 110.02825361518725 81.54914285379988 l 6.49964448317988 -11.958613778835943 a34.61079798979823,34.61079798979823 0 0,0 0.5195835818494787,0.28820425423849266 l -6.7039722531854595 11.845276609164305" fill="#ff7f0b" stroke="none" /><path d="M 110.34350942703115 81.72400993836675 l 8.78130898451066 -15.515731566854821 a38.82832896084607,38.82832896084607 0 0,0 0.5772617505700197,0.3332822270844755 l -9.046363202941077 15.362702442494173" fill="#ffbb11" stroke="none" /><line stroke="#e1ed5e" stroke-width="0.3" x1="143.13028292997686" x2="145.6673583964461" y1="26.7553504044142" y2="22.446841604673864" /><path d="M 143.63769802327073 25.89364864446614 a86.0,86.0 0 0,1 29.32050498858742,28.57503671076993" fill="none" id="id50" stroke="none" /><text fill="#e1ed5e" style="font-size:6.75px; font-family:Arial;" text-anchor="middle"><textPath startOffset="20.669276256404974" xlink:href="#id50">February</textPath></text><path d="M 110.65571695917076 81.90426304109057 l 12.466768791231843 -21.171298903497615 a45.569172174806205,45.569172174806205 0 0,0 0.6706637347631915,0.40271430299105265 l -12.828365282552468 20.954170599970638" fill="#eaff1a" stroke="none" /><path d="M 110.96478420261332 82.08984904055464 l 8.453322397131119 -13.807866843872258 a37.18999216577777,37.18999216577777 0 0,0 0.5416206502059242,0.33801134381858783 l -8.689107176126756 13.660719703212125" fill="#ffa40f" stroke="none" /><path d="M 111.27062007382361 82.28071324371311 l 9.351517760698647 -14.702139165632794 a38.42422969529201,38.42422969529201 0 0,0 0.5535181691563232,0.3587837898303305 l -9.602521562111978 14.539441534098568" fill="#ffb510" stroke="none" /><path d="M 111.5731344415666 82.4767994020092 l 9.639691749459704 -14.595721935268 a38.49167675885491,38.49167675885491 0 0,0 0.5482382569497095,0.36887916637178925 l -9.888826294506416 14.428093094839092" fill="#ffb610" stroke="none" /><path d="M 111.8722381534696 82.67804972795209 l 7.62883239528937 -11.130694455145475 a34.49412623215089,34.49412623215089 0 0,0 0.48555395428075004,0.33895437010841467 l -7.818781440743881 10.998095269231934" fill="#ff7e0b" stroke="none" /><path d="M 112.45986205192187 83.09580414077388 l 10.674509414005438 -14.482022118990338 a38.99094538607174,38.99094538607174 0 0,0 0.5353772648389207,0.4017570805016131 l -10.921539667755125 14.296646011224711" fill="#ffbd11" stroke="none" /><path d="M 112.7482090630111 83.31218511350987 l 14.900816417925837 -19.505647013697917 a45.54596902433698,45.54596902433698 0 0,0 0.617234754584683,0.47996547847608617 l -15.233461117145746 19.246980483601043" fill="#eaff1a" stroke="none" /><path d="M 113.03279911837588 83.53348406188908 l 8.37357242019068 -10.579735209881653 a34.49249836714415,34.49249836714415 0 0,0 0.46113058786181854,0.3714541598598919 l -8.553953778407758 10.434432756228352" fill="#ff7d0b" stroke="none" /><path d="M 113.31354834802062 83.75963576809568 l 6.185056621270918 -7.544763401811299 a30.755940764356783,30.755940764356783 0 0,0 0.40543018002716447,0.33822427580268766 l -6.3136611354599745 7.43747694209674" fill="#ff4706" stroke="none" /><path d="M 113.86319453409587 84.22622945171908 l 16.204843395641134 -18.438137102166777 a45.547135255983605,45.547135255983605 0 0,0 0.582862293870897,0.5211990572866116 l -16.51897071633541 18.15724251499678" fill="#eaff1a" stroke="none" /><path d="M 114.13192950727249 84.46653392183569 l 11.778609695690834 -12.946755364283101 a38.50297462793154,38.50297462793154 0 0,0 0.4850828953525931,0.4489854860712314 l -11.999122362357392 12.742652132079494" fill="#ffb610" stroke="none" /><path d="M 114.65682725009322 84.96080404539774 l 13.190482242320831 -13.534596798683205 a39.89905109490704,39.89905109490704 0 0,0 0.4864037837830318,0.4822465114664523 l -13.420877946233825 13.306170276988095" fill="#ffc912" stroke="none" /><path d="M 114.91283532996326 85.21462403516908 l 17.432090848928915 -17.28309951472774 a45.54757259285108,45.54757259285108 0 0,0 0.5457319257096607,0.5599690321367329 l -17.72620957578939 16.981307790523267" fill="#eaff1a" stroke="none" /><path d="M 115.16444852881244 85.47280134310134 l 14.916516563284967 -14.289685442371301 a41.65665937233494,41.65665937233494 0 0,0 0.4902476357099205,0.520626000116786 l -15.159620032731148 14.031517982310021" fill="#ffe115" stroke="none" /><path d="M 115.41159269507618 85.73525988315684 l 13.856631370310788 -12.825491128864966 a39.88119317281816,39.88119317281816 0 0,0 0.4607271027092811,0.5064197933865009 l -14.074756173861948 12.585733759920792" fill="#ffc912" stroke="none" /><path d="M 115.6541949942343 86.00192230759917 l 10.037751496458181 -8.975819283980181 a34.46557785330132,34.46557785330132 0 0,0 0.39059172396950276,0.44442168194346876 l -10.190354284386274 8.802185324225416" fill="#ff7d0b" stroke="none" /><path d="M 115.8921839302757 86.27271002978787 l 7.516700716307785 -6.492747051302723 a30.932600562327178,30.932600562327178 0 0,0 0.34365447028828044,0.4048241018927226 l -7.627049750103177 6.362756166960448" fill="#ff4906" stroke="none" /><path d="M 116.57777611688842 87.10902102172516 l 14.355565861946758 -11.162974843113656 a39.18500147277089,39.18500147277089 0 0,0 0.4083600042706899,0.5345563541225762 l -14.545077843571754 10.914897575750198" fill="#ffc011" stroke="none" /><path d="M 116.7966241395341 87.39550010848427 l 19.644586465264652 -14.741663914923311 a45.56066840238293,45.56066840238293 0 0,0 0.4640635694133673,0.6295913578983072 l -19.894752054261847 14.40226624775613" fill="#eaff1a" stroke="none" /><path d="M 117.21940702142032 87.97951657250589 l 16.73012621923626 -11.67892742810759 a41.40329554710661,41.40329554710661 0 0,0 0.40182936010327047,0.5862810452065919 l -16.928145316154858 11.39001164783095" fill="#ffde14" stroke="none" /><path d="M 117.42321728460499 88.27688183743584 l 16.633331034924595 -11.191647442275896 a41.04795934227687,41.04795934227687 0 0,0 0.38834411207076913,0.5880024820608143 l -16.82299958591609 10.904465081876022" fill="#ffd914" stroke="none" /><path d="M 117.62189284568427 88.57770195909679 l 16.47872605711512 -10.681311139902007 a40.63768876759278,40.63768876759278 0 0,0 0.37441303951154736,0.5886394864650407 l -16.65965678825256 10.396857978758295" fill="#ffd313" stroke="none" /><path d="M 117.81537515405839 88.88188828441811 l 16.036763398392715 -10.008126434489824 a39.903448760074504,39.903448760074504 0 0,0 0.3576717802551607,0.5842299729689795 l -16.206203143103277 9.73135934539629" fill="#ffc912" stroke="none" /><line stroke="#e1ed5e" stroke-width="0.3" x1="172.87174338648825" x2="177.1583165268699" y1="56.24261187166439" y2="53.66864786411523" /><path d="M 173.72905801456457 55.72781907015455 a86.0,86.0 0 0,1 12.242430191666344,42.057860355516425" fill="none" id="id51" stroke="none" /><text fill="#e1ed5e" style="font-size:6.75px; font-family:Arial;" text-anchor="middle"><textPath startOffset="22.145653131862474" xlink:href="#id51">March</textPath></text><path d="M 118.00360718960297 89.18935116829356 l 11.472957503819712 -6.88918133619985 a34.38243525549432,34.38243525549432 0 0,0 0.2994976818090976,0.5086125401591308 l -11.589528895758576 6.691217627747163" fill="#ff7c0b" stroke="none" /><path d="M 118.18653347947321 89.5 l 10.794122654770577 -6.231989620397632 a33.46397924079526,33.46397924079526 0 0,0 0.282956485084883,0.4999569967782461 l -10.899512504876835 6.045775853520268" fill="#ff6f0a" stroke="none" /><path d="M 118.36410011445183 89.81374322990088 l 14.153569245555426 -7.850746273984205 a37.18510857075754,37.18510857075754 0 0,0 0.30483758883401624,0.5608668288814073 l -14.286252184004784 7.606624611628194" fill="#ffa40f" stroke="none" /><path d="M 118.53625476483649 90.13048839642627 l 14.593187320621874 -7.770050283686472 a37.5328399733916,37.5328399733916 0 0,0 0.29792483676281123,0.571310157354871 l -14.72442022635963 7.518393883227103" fill="#ffa90f" stroke="none" /><path d="M 118.70294669586156 90.45014215332178 l 14.523438518251861 -7.41577119101591 a37.3071741497705,37.3071741497705 0 0,0 0.2863415984421358,0.5728750095167717 l -14.648600029905735 7.165364325335387" fill="#ffa50f" stroke="none" /><path d="M 118.8641267826498 90.77261029715802 l 12.122273398269757 -5.929611373960304 a34.494806533944754,34.494806533944754 0 0,0 0.25562416139722666,0.5341561823105625 l -12.222276817626897 5.720642689584638" fill="#ff7e0b" stroke="none" /><path d="M 119.0197475246899 91.09779779509293 l 12.228262283262744 -5.723444189726092 a34.50141517994227,34.50141517994227 0 0,0 0.24646420292748059,0.5385687631033629 l -12.324710951045276 5.512686444408046" fill="#ff7e0b" stroke="none" /><path d="M 119.16976305983485 91.42560881287824 l 12.581055286546796 -5.627346005109562 a34.782234041851474,34.782234041851474 0 0,0 0.23911314778091813,0.5471376762836766 l -12.675802316344685 5.410546259050036" fill="#ff820b" stroke="none" /><path d="M 119.31412917781788 91.75594674310238 l 12.750460238289266 -5.442413286493722 a34.8634086237548,34.8634086237548 0 0,0 0.23022160702279454,0.5524480476214381 l -12.842007689848543 5.222732729431006" fill="#ff830c" stroke="none" /><path d="M 119.4528033332814 92.08871423366111 l 9.951125113760199 -4.04703595274916 a31.74259703389051,31.74259703389051 0 0,0 0.20094775760484634,0.5065196179550671 l -10.019131546331169 3.8756153175805275" fill="#ff5507" stroke="none" /><path d="M 119.71291397450082 92.76114493625339 l 17.18644443365369 -6.311100453097985 a39.308573434327414,39.308573434327414 0 0,0 0.22716579941929263,0.6354231712137091 l -17.292250403116928 6.0151423255033585" fill="#ffc112" stroke="none" /><path d="M 119.83427380445688 93.10060997987247 l 14.015399839432215 -4.875283599167971 a35.839131471601455,35.839131471601455 0 0,0 0.19714010300736326,0.5828096850405844 l -14.097025364011943 4.633972239653224" fill="#ff910d" stroke="none" /><path d="M 119.94978838288452 93.4421083053983 l 12.697598677206104 -4.173952891554203 a34.36603512296372,34.36603512296372 0 0,0 0.1794157156340424,0.5620171738321507 l -12.767379108617403 3.955366684030665" fill="#ff7c0b" stroke="none" /><path d="M 120.05942366710727 93.78553927170692 l 13.235489885173894 -4.100388599200205 a34.85609537947078,34.85609537947078 0 0,0 0.1721620230030129,0.5730713819136377 l -13.303928228180535 3.872579613695844" fill="#ff830c" stroke="none" /><path d="M 120.16314734710363 94.1308016681162 l 12.844221254096162 -3.7387656133811102 a34.37730869554772,34.37730869554772 0 0,0 0.1600697658413447,0.5680311292807191 l -12.906509512012088 3.517726560197378" fill="#ff7c0b" stroke="none" /><path d="M 120.26092885502905 94.47779374421319 l 12.962768884442246 -3.533060302327534 a34.435620277878755,34.435620277878755 0 0,0 0.15055010364396224,0.5716632653754248 l -13.021508468890937 3.3100165325793105" fill="#ff7d0b" stroke="none" /><path d="M 120.35273937422433 94.82641323984039 l 14.042180392925319 -3.569467344362339 a35.48875175126986,35.48875175126986 0 0,0 0.14501797945836994,0.591722843696972 l -14.10138589889998 3.327888676057272" fill="#ff8c0c" stroke="none" /><path d="M 120.43855184770803 95.1765574152323 l 12.176456427971658 -2.873610562229397 a33.51094436106438,33.51094436106438 0 0,0 0.12732425614087164,0.5610141654585634 l -12.223991545670197 2.6641620628318075" fill="#ff6f0a" stroke="none" /><path d="M 120.51834098615036 95.52812308129327 l 49.38774796355133 -10.763829801550997 a71.5471035857449,71.5471035857449 0 0,0 0.25124034296661824,1.2022759911232586 l -49.56524601734231 9.914437359142335" fill="#3cffa8" stroke="none" /><path d="M 120.592083275326 95.88100663000786 l 13.156603469531717 -2.6316891660763133 a34.41722783295184,34.41722783295184 0 0,0 0.11091149603931413,0.5803358140148696 l -13.199841257853187 2.4054507870281294" fill="#ff7c0b" stroke="none" /><path d="M 120.65975698304385 96.23510406497455 l 13.164943111909265 -2.3990911823187404 a34.38175495370046,34.38175495370046 0 0,0 0.1008288882743295,0.581554233331968 l -13.20418681767583 2.17274391606618" fill="#ff7c0b" stroke="none" /><path d="M 120.7213421655516 96.59031103205396 l 14.447171578866167 -2.3772765855088744 a35.641455207499256,35.641455207499256 0 0,0 0.0941587977587103,0.6045670265748767 l -14.485851868763143 2.128921377002557" fill="#ff8e0d" stroke="none" /><path d="M 120.77682067341334 96.94652285012252 l 15.898509443025361 -2.336533392883829 a37.069287190352526,37.069287190352526 0 0,0 0.0871225042968341,0.6303750410649374 l -15.936276463877407 2.063270043618806" fill="#ffa20f" stroke="none" /><path d="M 120.82617615685814 97.30363454192243 l 13.27262829333811 -1.7184074598483061 a34.38340711519984,34.38340711519984 0 0,0 0.07076091060969397,0.5860018483545969 l -13.300171290207468 1.4903119345702962" fill="#ff7c0b" stroke="none" /><path d="M 120.86939407059847 97.66154086499901 l 13.306207636390738 -1.490988319750745 a34.38948123835932,34.38948123835932 0 0,0 0.060701704442981515,0.587233926338649 l -13.329841733315385 1.2623498711291645" fill="#ff7c0b" stroke="none" /><path d="M 120.9064616781168 98.02013634271609 l 24.228471965907662 -2.2944614854187835 a45.336873408694956,45.336873408694956 0 0,0 0.06672373882256612,0.7754309860093931 l -24.26428932742797 1.8782094520337285" fill="#edff1a" stroke="none" /><path d="M 120.93736805541906 98.37931529534042 l 16.095438046971502 -1.2458886995001734 a37.143585864839324,37.143585864839324 0 0,0 0.043751675353398474,0.6361397574655994 l -16.114453683489966 0.96940551788024" fill="#ffa30f" stroke="none" /><path d="M 120.96210409425399 98.7389718711861 l 18.753238795453914 -1.1281482775345077 a39.78714144981673,39.78714144981673 0 0,0 0.035161243113100635,0.6821187229925648 l -18.76984162802359 0.8060577611652122" fill="#ffc812" stroke="none" /><path d="M 120.98066250479742 99.09900007780936 l 16.987465846452565 -0.7295148760135748 a38.0031228848914,38.0031228848914 0 0,0 0.022395263847513086,0.6520136715441095 l -16.997485797296928 0.43779493990534535" fill="#ffaf10" stroke="none" /><path d="M 120.99303781780057 99.45929381324524 l 15.777307559528241 -0.4063674767706091 a36.78253998423967,36.78253998423967 0 0,0 0.010839584031774712,0.631351427419539 l -15.781958575158681 0.13546913338200373" fill="#ff9e0e" stroke="none" /><line stroke="#e1ed5e" stroke-width="0.3" x1="184.99686870605535" x2="189.99668451229388" y1="99.2704041080226" y2="99.22748670261217" /><path d="M 185.99683186730306 99.26182062694052 a86.0,86.0 0 0,1 -10.086455211305974,41.156179273409016" fill="none" id="id52" stroke="none" /><text fill="#e1ed5e" style="font-size:6.75px; font-family:Arial;" text-anchor="middle"><textPath startOffset="21.40746469413373" xlink:href="#id52">April</textPath></text><path d="M 120.99303781780057 100.54070618675476 l 13.304234558595759 0.3426698888604591 a34.30864680735293,34.30864680735293 0 0,0 -0.020218106807412355,0.5886281198081802 l -13.296391764791501 -0.57100427323275" fill="#ff7b0b" stroke="none" /><path d="M 120.98066250479742 100.90099992219065 l 13.340012357754343 0.5728775291824344 a34.352307604623284,34.352307604623284 0 0,0 -0.030358296554319025,0.5889428428696866 l -13.328212471743452 -0.8017921654288517" fill="#ff7b0b" stroke="none" /><path d="M 120.96210409425399 101.26102812881392 l 13.627077852931023 0.8197711646128852 a34.65171328340051,34.65171328340051 0 0,0 -0.04081648216548526,0.59346269269968 l -13.610997409600472 -1.0535772814669087" fill="#ff800b" stroke="none" /><path d="M 120.93736805541906 101.62068470465957 l 14.406780985991842 1.115175963166683 a35.44987736304917,35.44987736304917 0 0,0 -0.05217272786196263,0.6063261819962569 l -14.385514635432138 -1.3623231925385972" fill="#ff8b0c" stroke="none" /><path d="M 120.86939407059847 102.33845913500097 l 13.299640091743344 1.4902524126744157 a34.38287259236181,34.38287259236181 0 0,0 -0.07075981056388891,0.5859927383972917 l -13.272098194919792 -1.7183388279951157" fill="#ff7c0b" stroke="none" /><path d="M 120.82617615685814 102.69636545807757 l 13.482812316202935 1.7456199896388935 a34.59534542048051,34.59534542048051 0 0,0 -0.08130809515082431,0.5883048729290589 l -13.450859704496901 -1.9768131707680374" fill="#ff7f0b" stroke="none" /><path d="M 120.77682067341334 103.0534771498775 l 28.216324840975222 4.146828069113032 a49.51941743034418,49.51941743034418 0 0,0 -0.13082206615322675,0.8399715101218246 l -28.14098128268373 -4.630587761166307" fill="#b9ff1f" stroke="none" /><path d="M 120.7213421655516 103.40968896794604 l 24.375874067990864 4.011040801779926 a45.70367755804979,45.70367755804979 0 0,0 -0.1340318725565986,0.773060223322393 l -24.30342737794203 -4.428894058022908" fill="#e8ff1a" stroke="none" /><path d="M 120.65975698304385 103.76489593502545 l 13.110420734581815 2.389155388933729 a34.32633465399334,34.32633465399334 0 0,0 -0.11061858754281591,0.5788031929898614 l -13.06747585475684 -2.613861146956905" fill="#ff7b0b" stroke="none" /><path d="M 120.592083275326 104.11899336999214 l 18.197638489637896 3.6400373525172385 a39.55812271021159,39.55812271021159 0 0,0 -0.138909834482938,0.6647338439269865 l -18.132470944330592 -3.951887647729634" fill="#ffc512" stroke="none" /><path d="M 120.51834098615036 104.47187691870673 l 12.891111240882783 2.8095576954050947 a34.193724397175515,34.193724397175515 0 0,0 -0.12991846713263414,0.5724447377523189 l -12.840981912192484 -3.0304367670964303" fill="#ff790b" stroke="none" /><path d="M 120.43855184770803 104.8234425847677 l 16.53183902656706 3.9014689964059435 a37.985969561089014,37.985969561089014 0 0,0 -0.15522238122446397,0.633360285163302 l -16.4624291188263 -4.184685106177345" fill="#ffaf10" stroke="none" /><path d="M 120.35273937422433 105.17358676015961 l 16.814089391372836 4.274075772301876 a38.348813382143874,38.348813382143874 0 0,0 -0.16765830795891126,0.6366259037706901 l -16.738241602609193 -4.562082180445369" fill="#ffb410" stroke="none" /><path d="M 120.26092885502905 105.52220625578681 l 25.10855791557793 6.843449112688319 a47.024459194340345,47.024459194340345 0 0,0 -0.21895821568571397,0.7770054630086866 l -24.987381207817638 -7.273462499600014" fill="#d8ff1c" stroke="none" /><path d="M 120.16314734710363 105.8691983318838 l 15.384623672843755 4.478239733256978 a37.023148150833094,37.023148150833094 0 0,0 -0.182865579583582,0.6087000406272528 l -15.305481773256544 -4.7416773774749545" fill="#ffa20e" stroke="none" /><path d="M 120.05942366710727 106.21446072829308 l 15.744605422400104 4.877719006474605 a37.48286208803539,37.48286208803539 0 0,0 -0.19568782088112946,0.6129893117574571 l -15.65855288574172 -5.147277351923445" fill="#ffa80f" stroke="none" /><path d="M 119.94978838288452 106.5578916946017 l 15.17008072719195 4.986706851118237 a36.968675414338854,36.968675414338854 0 0,0 -0.203353378834068,0.6011781309954758 l -15.082241926785517 -5.246386656587873" fill="#ffa10e" stroke="none" /><path d="M 119.83427380445688 106.89939002012753 l 15.115814522479175 5.258064948113049 a37.004221183068154,37.004221183068154 0 0,0 -0.21384885668730785,0.5981733122857267 l -15.023325495747924 -5.516773216779697" fill="#ffa10e" stroke="none" /><path d="M 119.71291397450082 107.23885506374661 l 12.425817480194318 4.562932294233453 a34.23711793302686,34.23711793302686 0 0,0 -0.20732908931939895,0.5499650415973025 l -12.34565770706048 -4.775565616024914" fill="#ff7a0b" stroke="none" /><path d="M 119.58574465831526 107.57618678355244 l 14.903363568693267 5.764941189084376 a36.97951165005537,36.97951165005537 0 0,0 -0.2341002513268571,0.5900855589463195 l -14.802204642400287 -6.01992776524426" fill="#ffa10e" stroke="none" /><path d="M 119.4528033332814 107.91128576633889 l 15.995135112267134 6.50508220210339 a38.267322945836256,38.267322945836256 0 0,0 -0.25269946149349576,0.6063867155755304 l -15.881109806237154 -6.778701427120199" fill="#ffb310" stroke="none" /><path d="M 119.16976305983485 108.57439118712176 l 9.847255395713365 4.404552086470563 a31.787424062807496,31.787424062807496 0 0,0 -0.22707654436482544,0.4962032302286769 l -9.770194386493484 -4.572944298913929" fill="#ff5608" stroke="none" /><path d="M 119.0197475246899 108.90220220490707 l 15.896076405512883 7.440166397731153 a38.551105979847286,38.551105979847286 0 0,0 -0.28568341519285284,0.596968461724265 l -15.766013732360118 -7.711947361520522" fill="#ffb711" stroke="none" /><path d="M 118.8641267826498 109.22738970284198 l 12.606839573157291 6.166636972018474 a35.03423726349209,35.03423726349209 0 0,0 -0.2688962572709722,0.5379726410036774 l -12.499123402674588 -6.382141469185897" fill="#ff850c" stroke="none" /><path d="M 118.70294669586154 109.54985784667822 l 11.95124917059227 6.102392982526207 a34.41907436639232,34.41907436639232 0 0,0 -0.2732086652489886,0.5239136395277528 l -11.844732436368332 -6.306652865158463" fill="#ff7c0b" stroke="none" /><line stroke="#e1ed5e" stroke-width="0.3" x1="174.33088141563837" x2="178.70328620479359" y1="141.23008692659167" y2="143.65538615756765" /><path d="M 175.20536237346943 141.71514677278685 a86.0,86.0 0 0,1 -30.301960400862466,31.631185727798858" fill="none" id="id53" stroke="none" /><text fill="#e1ed5e" style="font-size:6.75px; font-family:Arial;" text-anchor="middle"><textPath startOffset="22.145653131862474" xlink:href="#id53">May</textPath></text><path d="M 118.36410011445183 110.18625677009912 l 14.96135210098854 8.298809807108281 a38.108836924359025,38.108836924359025 0 0,0 -0.32223133026702283,0.5693518849721054 l -14.816687405700138 -8.554418462179509" fill="#ffb110" stroke="none" /><path d="M 118.18653347947321 110.5 l 16.7280653096499 9.657953009548006 a40.31590601909602,40.31590601909602 0 0,0 -0.35118281480144264,0.5963851954294874 l -16.55980878471869 -9.943689373271042" fill="#ffcf13" stroke="none" /><path d="M 118.00360718960297 110.81064883170644 l 11.453544187491621 6.877524197534715 a34.359790924355764,34.359790924355764 0 0,0 -0.30798158983705703,0.5030647812837951 l -11.33379463319916 -7.073126094943067" fill="#ff7c0b" stroke="none" /><path d="M 117.81537515405839 111.11811171558189 l 14.873012214028513 9.281859624781104 a38.53166878573694,38.53166878573694 0 0,0 -0.355009343912906,0.5581336541158018 l -14.711485178489717 -9.535806953575579" fill="#ffb710" stroke="none" /><path d="M 117.62189284568427 111.42229804090321 l 11.235313399467667 7.282594404329436 a34.38911679096975,34.38911679096975 0 0,0 -0.3253465273079321,0.4926161093748457 l -11.108642433239009 -7.474390392043343" fill="#ff7c0b" stroke="none" /><path d="M 117.21940702142032 112.02048342749411 l 11.44382685677682 7.988679918412854 a34.95636700458752,34.95636700458752 0 0,0 -0.3477074894049428,0.48909412844991873 l -11.305004268841916 -8.183951273572276" fill="#ff840c" stroke="none" /><path d="M 117.01052211995028 112.31430620078461 l 11.40710806789235 8.257866550064335 a35.0824172083931,35.0824172083931 0 0,0 -0.3573361042377543,0.4847950537844116 l -11.263669944070768 -8.452467913117625" fill="#ff860c" stroke="none" /><path d="M 116.79662413953412 112.60449989151573 l 12.802203380471784 9.607012086465295 a37.00597053053808,37.00597053053808 0 0,0 -0.3856515941282448,0.5048303162963598 l -12.635399808989234 -9.825363316002532" fill="#ffa10e" stroke="none" /><path d="M 116.35404254752997 113.17365903436017 l 12.542695554864705 10.103507688166587 a37.10590200475789,37.10590200475789 0 0,0 -0.4038415203908191,0.4926209911640866 l -12.367407215235257 -10.317330961029166" fill="#ffa30f" stroke="none" /><path d="M 116.1254893667686 113.45245675266167 l 14.939377913949512 12.462960393204341 a40.45534359034511,40.45534359034511 0 0,0 -0.4494500759435773,0.5294510593353928 l -14.723233274498819 -12.71757823498929" fill="#ffd113" stroke="none" /><path d="M 115.89218393027572 113.72728997021213 l 12.15616840833525 10.500208744126638 a37.06321306719305,37.06321306719305 0 0,0 -0.42003022114940586,0.4779172877838057 l -11.974127123227259 -10.707338309721736" fill="#ffa20f" stroke="none" /><path d="M 115.6541949942343 113.99807769240083 l 12.044363618734025 10.77014421710361 a37.15743486564294,37.15743486564294 0 0,0 -0.42926091091538443,0.4718329365395354 l -11.85770500697676 -10.975314729200818" fill="#ffa30f" stroke="none" /><path d="M 115.41159269507618 114.26474011684316 l 13.031651877403467 12.06190242645864 a38.75706734793902,38.75706734793902 0 0,0 -0.4561230045968577,0.48438682442727976 l -12.822673039070349 -12.283830710830417" fill="#ffba11" stroke="none" /><path d="M 115.16444852881244 114.52719865689866 l 12.489969089499517 11.965107853209378 a38.29633295804594,38.29633295804594 0 0,0 -0.45885061141751005,0.47082114984694695 l -12.282731676931201 -12.177751695124062" fill="#ffb310" stroke="none" /><path d="M 114.91283532996324 114.78537596483092 l 11.433155048409091 11.335436361674738 a37.099973660554234,37.099973660554234 0 0,0 -0.452280620003208,0.44841499690660924 l -11.236882508275919 -11.530031368810008" fill="#ffa30f" stroke="none" /><path d="M 114.39649973595853 115.28858382429668 l 11.058335443488792 11.743569026204888 a37.13066013075594,37.13066013075594 0 0,0 -0.46779367819321227,0.432982844781529 l -10.855111993981613 -11.931669617118796" fill="#ffa30f" stroke="none" /><path d="M 114.13192950727249 115.5334660781643 l 11.110193040055856 12.21204837037665 a37.509709712400294,37.509709712400294 0 0,0 -0.4800081349249892,0.4292262341269679 l -10.89891987830749 -12.400970134387006" fill="#ffa80f" stroke="none" /><path d="M 113.86319453409587 115.77377054828091 l 10.600603428488297 12.061540775688146 a37.057819245827424,37.057819245827424 0 0,0 -0.48143492978574765,0.4158520258733878 l -10.391989018939693 -12.241736934026251" fill="#ffa20f" stroke="none" /><path d="M 113.59037401385872 116.0094264158162 l 11.376892293614109 13.401950515088654 a38.57970295168212,38.57970295168212 0 0,0 -0.5085643789255099,0.42426249261858306 l -11.145153580526703 -13.595275191619105" fill="#ffb711" stroke="none" /><path d="M 113.31354834802062 116.24036423190432 l 11.904744096879453 14.521852113879127 a39.777835893136405,39.777835893136405 0 0,0 -0.5317903230444396,0.4283726407827995 l -11.653703003479762 -14.724073048455331" fill="#ffc812" stroke="none" /><path d="M 113.03279911837588 116.46651593811092 l 9.996048485616877 12.629680716436305 a37.10682527147813,37.10682527147813 0 0,0 -0.5028682599247992,0.3910334004890041 l -9.777770281056847 -12.799415168546101" fill="#ffa30f" stroke="none" /><path d="M 112.7482090630111 116.68781488649013 l 8.075663497251481 10.571302750183085 a34.30296142807565,34.30296142807565 0 0,0 -0.47100744758547064,0.3534527695967612 l -7.8930030607552455 -10.70837454704386" fill="#ff7b0b" stroke="none" /><path d="M 112.45986205192187 116.90419585922612 l 7.95222300021672 10.788717768442035 a34.40277141983227,34.40277141983227 0 0,0 -0.4783934547787978,0.3463199686086139 l -7.765848535063954 -10.923638508423727" fill="#ff7c0b" stroke="none" /><path d="M 112.16784306229584 117.11559508785304 l 7.769959281994416 10.929420788784363 a34.409865995682544,34.409865995682544 0 0,0 -0.48436787144652044,0.33812639217429236 l -7.581196319374137 -11.061191996763778" fill="#ff7c0b" stroke="none" /><path d="M 111.5731344415666 117.5232005979908 l 7.56959617873442 11.461333397228943 a34.73539040404554,34.73539040404554 0 0,0 -0.5003787936374177,0.32433948863069956 l -7.371731752839993 -11.589586727563537" fill="#ff810b" stroke="none" /><path d="M 111.27062007382361 117.71928675628689 l 17.0561422187153 26.8150885177427 a52.77988293873058,52.77988293873058 0 0,0 -0.7686657848068348,0.479704299995105 l -16.593312305118754 -27.103928614579353" fill="#92ff23" stroke="none" /><path d="M 110.96478420261333 117.91015095944535 l 7.596941928368063 12.409033707638589 a35.54983313376162,35.54983313376162 0 0,0 -0.5232042348330861,0.31416911013858556 l -7.38280493697754 -12.537616818313097" fill="#ff8d0d" stroke="none" /><line stroke="#e1ed5e" stroke-width="0.3" x1="143.1302829299769" x2="145.66735839644613" y1="173.24464959558577" y2="177.55315839532614" /><path d="M 143.63769802327073 174.10635135553383 a86.0,86.0 0 0,1 -40.68552437913181,11.842963189579606" fill="none" id="id54" stroke="none" /><text fill="#e1ed5e" style="font-size:6.75px; font-family:Arial;" text-anchor="middle"><textPath startOffset="21.407464694133747" xlink:href="#id54">June</textPath></text><path d="M 110.65571695917076 118.09573695890943 l 7.378921488747785 12.5310218742161 a35.54217973858067,35.54217973858067 0 0,0 -0.5284064868116389,0.3050756274022453 l -7.1627225340757485 -12.655844398894516" fill="#ff8d0c" stroke="none" /><path d="M 110.34350942703117 118.27599006163325 l 6.573553811041619 11.614839718349891 a34.34601481303007,34.34601481303007 0 0,0 -0.5156086087373619,0.28599940365926796 l -6.373201014148163 -11.725972037442302" fill="#ff7b0b" stroke="none" /><path d="M 110.02825361518725 118.45085714620011 l 6.524961022859385 12.005193360384936 a34.663812936734196,34.663812936734196 0 0,0 -0.5252577601881699,0.2796701720392026 l -6.317914446884662 -12.115434000146708" fill="#ff800b" stroke="none" /><path d="M 109.71004243097381 118.62028667847754 l 7.411279951276018 14.21210652046272 a37.028444786228164,37.028444786228164 0 0,0 -0.566134554435214,0.28907233736302534 l -7.166218175127223 -14.337236809498581" fill="#ffa20e" stroke="none" /><path d="M 109.3889696526874 118.78422872680471 l 7.308944649509589 14.622785366938153 a37.347676402997934,37.347676402997934 0 0,0 -0.5759362960470353,0.28171930293244385 l -7.056848104200484 -14.74609841996782" fill="#ffa60f" stroke="none" /><path d="M 109.06512990194946 118.94263497670748 l 5.766324887230274 12.04940124161014 a34.35809016987111,34.35809016987111 0 0,0 -0.5342049623944465,0.2500348959904338 l -5.558631210964322 -12.146612369171107" fill="#ff7c0b" stroke="none" /><path d="M 108.73861861582097 119.09545874513695 l 5.794212956608936 12.661400999140564 a34.92422274482754,34.92422274482754 0 0,0 -0.5472901724289243,0.24479593287750032 l -5.5760093813243845 -12.759000682927915" fill="#ff840c" stroke="none" /><path d="M 108.07796709384702 119.3841803445677 l 5.145886589324592 12.348254520142667 a34.37757595696674,34.37757595696674 0 0,0 -0.5466780059959906,0.2223291858509261 l -4.93315412213816 -12.434770962572884" fill="#ff7c0b" stroke="none" /><path d="M 107.407793817531 119.65005319985036 l 4.803225778625488 12.741127035355506 a34.61643477609023,34.61643477609023 0 0,0 -0.557837002823156,0.20484547428427083 l -4.583799624148205 -12.821703358648497" fill="#ff7f0b" stroke="none" /><path d="M 107.06938296918513 119.77432235084164 l 4.500372750104953 12.588343543902957 a34.36861055118334,34.36861055118334 0 0,0 -0.5572530245481184,0.1938415287677064 l -4.2836139535118125 -12.663743505239253" fill="#ff7c0b" stroke="none" /><path d="M 106.72888874123015 119.89276391827305 l 4.28285100766492 12.661487991409508 a34.36622949490482,34.36622949490482 0 0,0 -0.5604596283230806,0.18423421197253023 l -4.0648686416941056 -12.733143124784057" fill="#ff7c0b" stroke="none" /><path d="M 106.38641147887787 120.00534299687104 l 4.18892867203974 13.121759402873097 a34.77416760629568,34.77416760629568 0 0,0 -0.5702290642533353,0.17665842173444177 l -3.96305897491478 -13.191734412414185" fill="#ff820b" stroke="none" /><path d="M 106.0420521117495 120.11202640906438 l 4.00384859094284 13.327509778067956 a34.915937640838,34.915937640838 0 0,0 -0.5755143915563932,0.16752385174545156 l -3.77447418700484 -13.394277324115926" fill="#ff840c" stroke="none" /><path d="M 105.69591212413111 120.21278271476187 l 3.6643613303895965 13.003525641793376 a34.50996754535082,34.50996754535082 0 0,0 -0.5715813602577647,0.15578704144766442 l -3.4405985691971366 -13.064513177385182" fill="#ff7e0b" stroke="none" /><path d="M 104.9986988182912 120.39639698878246 l 4.432915506265002 18.087808001686916 a39.623091531525425,39.623091531525425 0 0,0 -0.6620223232301885,0.15623546568899543 l -4.121761029294934 -18.16123961102214" fill="#ffc612" stroke="none" /><path d="M 104.64783097203109 120.47920084513623 l 3.7688457977251772 16.606229983495503 a38.02853701619067,38.02853701619067 0 0,0 -0.6378609513377494,0.1390188255257552 l -3.4832224297682917 -16.668480267154976" fill="#ffb010" stroke="none" /><path d="M 104.29559338865022 120.5559693870025 l 3.826160285502503 18.309562051744425 a39.70506789768581,39.70506789768581 0 0,0 -0.668375287812564,0.13369377650416256 l -3.5112885121589805 -18.37254522491145" fill="#ffc712" stroke="none" /><path d="M 103.58742460773223 120.69131181640829 l 2.7407250588185033 15.807773819923133 a37.043605797634235,37.043605797634235 0 0,0 -0.6274878071548637,0.10325287988021448 l -2.468959748610567 -15.852492698299018" fill="#ffa20e" stroke="none" /><path d="M 103.2317021107853 120.74984581791261 l 2.065110222092714 13.25948903595151 a34.419341627811335,34.419341627811335 0 0,0 -0.5845959542929811,0.08591547361376035 l -1.8371891621920478 -13.292985582864153" fill="#ff7c0b" stroke="none" /><path d="M 102.875027216393 120.80226474461374 l 2.530590726463643 18.310093884330524 a39.4841398901291,39.4841398901291 0 0,0 -0.6722121759184894,0.0870313243292571 l -2.215900728654378 -18.350836804860176" fill="#ffc412" stroke="none" /><path d="M 102.51750503828377 120.84855314841334 l 2.2659495239871155 18.765312626612637 a39.90162652312666,39.90162652312666 0 0,0 -0.6807295357604575,0.07627716434789525 l -1.9434840866258587 -18.801445551467506" fill="#ffc912" stroke="none" /><path d="M 102.15924093988457 120.88869738790638 l 1.920715586611709 18.58118096774877 a39.68018828922456,39.68018828922456 0 0,0 -0.6781541381889286,0.064221901960691 l -1.601461885037765 -18.611414625214646" fill="#ffc612" stroke="none" /><path d="M 101.08105385017728 120.97215588758144 l 0.8271681092066763 16.046840338872663 a37.068145255198544,37.068145255198544 0 0,0 -0.635761477296624,0.027302333348387792 l -0.5515808713092227 -16.058675240646885" fill="#ffa20f" stroke="none" /><path d="M 100.72087961077811 120.9876233191556 l 0.5777121877338379 16.819460006582368 a37.829378666037556,37.829378666037556 0 0,0 -0.6492002099150562,0.01672109453573021 l -0.2888986637480379 -16.826898818468145" fill="#ffad10" stroke="none" /><line stroke="#e1ed5e" stroke-width="0.3" x1="101.45913802915013" x2="101.54496967792366" y1="184.9874750549273" y2="189.98673829345242" /><path d="M 101.47630435890484 185.9873277026323 a86.0,86.0 0 0,1 -42.54439059252881,-10.42667462771756" fill="none" id="id55" stroke="none" /><text fill="#e1ed5e" style="font-size:6.75px; font-family:Arial;" text-anchor="middle"><textPath startOffset="22.145653131862474" xlink:href="#id55">July</textPath></text><path d="M 100.36049292484886 120.99690560180557 l 0.28835228684613556 16.795075103101023 a37.79755026068186,37.79755026068186 0 0,0 -0.6488452116949858,0.005569555775272225 l -2.0571066160260827e-15 -16.79755026068186" fill="#ffac10" stroke="none" /><path d="M 100.0 121.0 l 4.1139332583719816e-15 33.59281436277188 a54.59281436277188,54.59281436277188 0 0,0 -0.9371582535888601,-0.00804437648539436 l 0.5766653287400038 -33.58786438448092" fill="#7dff26" stroke="none" /><path d="M 99.63950707515114 120.99690560180557 l -0.29096446893514966 16.94722161405083 a37.949719194073225,37.949719194073225 0 0,0 -0.6512654062999014,-0.016774286668843705 l 0.5818431893057949 -16.93972961003194" fill="#ffae10" stroke="none" /><path d="M 99.27912038922189 120.98762331915562 l -0.5812610291811777 16.92278065319612 a37.93276024221195,37.93276024221195 0 0,0 -0.6505906223118777,-0.02793916064123157 l 0.8716774120938942 -16.91030892412906" fill="#ffae10" stroke="none" /><path d="M 98.55909050195518 120.95050786540614 l -1.1615351630290425 16.888466348515106 a37.92836257704448,37.92836257704448 0 0,0 -0.6491728327426863,-0.05025008291021995 l 1.451276990546965 -16.866038498609832" fill="#ffae10" stroke="none" /><path d="M 98.19965949673042 120.92268563240118 l -1.4588214371343788 16.953716403946203 a38.01636447337907,38.01636447337907 0 0,0 -0.6497185622861973,-0.06152902335834553 l 1.7496395628055912 -16.926175625082674" fill="#ffaf10" stroke="none" /><path d="M 97.84075906011543 120.88869738790638 l -1.7559200114599216 16.986933268649583 a38.07744585587082,38.07744585587082 0 0,0 -0.6496086575665686,-0.07279000503432992 l 2.0472645706272896 -16.954287503108283" fill="#ffb010" stroke="none" /><path d="M 97.48249496171623 120.84855314841334 l -2.0545200876600456 17.014373592381716 a38.13796841903191,38.13796841903191 0 0,0 -0.6492937875158284,-0.08406408010841213 l 2.3462916970666683 -16.976597916072908" fill="#ffb110" stroke="none" /><path d="M 97.12497278360702 120.80226474461374 l -2.3501569006936998 17.004564604069074 a38.166200943477186,38.166200943477186 0 0,0 -0.6482345567081239,-0.09526815665315502 l 2.6417165630095085 -16.961715374117038" fill="#ffb110" stroke="none" /><path d="M 96.41257539226777 120.69131181640829 l -2.9443683112209045 16.982333983691795 a38.235688912421665,38.235688912421665 0 0,0 -0.6457557521896629,-0.11767820930485887 l 3.2354587969616246 -16.92928760045557" fill="#ffb210" stroke="none" /><path d="M 96.05791012581884 120.62667999033965 l -3.228330105974085 16.891987276910683 a38.197713494428584,38.197713494428584 0 0,0 -0.6430012364267644,-0.12861825558524775 l 3.5178278279318076 -16.83407962466257" fill="#ffb210" stroke="none" /><path d="M 95.70440661134978 120.55596938700252 l -3.520695458944352 16.84780227715171 a38.21173257068067,38.21173257068067 0 0,0 -0.6409337303567805,-0.1396885234112115 l 3.8093916059202693 -16.78488229560678" fill="#ffb210" stroke="none" /><path d="M 95.35216902796893 120.47920084513623 l -3.822496398303751 16.842624428844868 a38.270943123239306,38.270943123239306 0 0,0 -0.6394306375235345,-0.1509038893761955 l 4.1110591895671735 -16.774524395822446" fill="#ffb310" stroke="none" /><path d="M 94.6519064749342 120.30758222061772 l -4.421527362450562 16.789259580603712 a38.361714819734615,38.361714819734615 0 0,0 -0.6353770431591828,-0.17317483850924262 l 4.70908580654444 -16.710884247950325" fill="#ffb410" stroke="none" /><path d="M 94.30408787586889 120.21278271476187 l -4.675549130063803 16.591874414247563 a38.23806996870019,38.23806996870019 0 0,0 -0.6302726221674827,-0.18346317462134004 l 4.959681764612892 -16.50916754532371" fill="#ffb210" stroke="none" /><path d="M 93.95794788825049 120.11202640906438 l -5.006063787294326 16.663558213894873 a38.39927719735285,38.39927719735285 0 0,0 -0.6296738473270065,-0.195074567484378 l 5.291378267492966 -16.575167058603846" fill="#ffb510" stroke="none" /><path d="M 93.61358852112213 120.00534299687104 l -10.383997278962847 32.52772357861405 a55.14498792936135,55.14498792936135 0 0,0 -0.899328785642662,-0.2956272347801973 l 10.940848802253251 -32.344675422431834" fill="#77ff27" stroke="none" /><path d="M 93.27111125876986 119.89276391827306 l -5.5878543084517185 16.51949836629545 a38.43897766632323,38.43897766632323 0 0,0 -0.6232500011368275,-0.21679870310763183 l 5.870610081633568 -16.421141230619227" fill="#ffb510" stroke="none" /><path d="M 92.93061703081489 119.77432235084164 l -5.878020351033879 16.4418690729878 a38.46099028865319,38.46099028865319 0 0,0 -0.6197912548478963,-0.22759593378356258 l 6.159400757535893 -16.338542290195516" fill="#ffb610" stroke="none" /><path d="M 92.25597844496254 119.51999308798841 l -6.4610873259493475 16.286160756019573 a38.52097832897625,38.52097832897625 0 0,0 -0.612567088740063,-0.24912570219561578 l 6.739708875879852 -16.172847797244668" fill="#ffb610" stroke="none" /><path d="M 91.92203290615298 119.3841803445677 l -6.709446486552932 16.100229079496067 a38.442306285814624,38.442306285814624 0 0,0 -0.6069581139967327,-0.25907432690478166 l 6.984839675720096 -15.982680102931884" fill="#ffb510" stroke="none" /><path d="M 91.59046798132341 119.24265499422711 l -7.007441595455738 16.034397718456063 a38.49874703821254,38.49874703821254 0 0,0 -0.6033057931965268,-0.26985100755691516 l 7.281660791507901 -15.911742959989292" fill="#ffb610" stroke="none" /><path d="M 91.26138138417905 119.09545874513695 l -7.315854064919774 15.986461433297592 a38.580917776314024,38.580917776314024 0 0,0 -0.5998621468172662,-0.2807657735259033 l 7.589204925608531 -15.858519428201161" fill="#ffb711" stroke="none" /><path d="M 90.93487009805054 118.94263497670748 l -7.587998789936087 15.855999068534768 a38.57812367966066,38.57812367966066 0 0,0 -0.5949109503027794,-0.2910007571609827 l 7.859069989500935 -15.723404561276565" fill="#ffb711" stroke="none" /><path d="M 90.6110303473126 118.78422872680471 l -7.887204670119727 15.779692769189529 a38.6410515955929,38.6410515955929 0 0,0 -0.5907899900812298,-0.3016615784808152 l 8.156921881914538 -15.641973239035877" fill="#ffb811" stroke="none" /><path d="M 90.28995756902619 118.62028667847754 l -8.136048581319011 15.601945932896104 a38.59590871227162,38.59590871227162 0 0,0 -0.5848404674821766,-0.31139460766392596 l 8.40267786458775 -15.459980857509606" fill="#ffb711" stroke="none" /><line stroke="#e1ed5e" stroke-width="0.3" x1="58.13341422392154" x2="55.67067388415222" y1="173.97424548756322" y2="178.32567169271397" /><path d="M 57.64086615596768 174.84453072859336 a86.0,86.0 0 0,1 -31.369924170532247,-30.572349798747897" fill="none" id="id56" stroke="none" /><text fill="#e1ed5e" style="font-size:6.75px; font-family:Arial;" text-anchor="middle"><textPath startOffset="22.145653131862474" xlink:href="#id56">August</textPath></text><path d="M 89.65649057296885 118.27599006163327 l -9.475453902671031 16.742219125562787 a40.237622719816606,40.237622719816606 0 0,0 -0.5982137565961073,-0.34537887340370244 l 9.761460127127538 -16.577093354882916" fill="#ffce13" stroke="none" /><path d="M 89.34428304082925 118.09573695890944 l -8.577674151034357 14.566765967142771 a37.904649200229855,37.904649200229855 0 0,0 -0.5578612115225124,-0.3349796288647641 l 8.826468119114296 -14.417372337742089" fill="#ffae10" stroke="none" /><path d="M 89.03521579738668 117.91015095944536 l -9.116444487955379 14.891026943673847 a38.46001842894768,38.46001842894768 0 0,0 -0.5601168210943297,-0.34955432242383283 l 9.37072543783942 -14.732336824408467" fill="#ffb610" stroke="none" /><path d="M 88.72937992617639 117.7192867562869 l -7.137105999415674 11.220716072878705 a34.298223612011256,34.298223612011256 0 0,0 -0.4940812109854899,-0.3202574716409551 l 7.3286728426581735 -11.096544759533854" fill="#ff7b0b" stroke="none" /><path d="M 88.4268655584334 117.5232005979908 l -9.899293908068397 14.988792690985912 a38.962737158119104,38.962737158119104 0 0,0 -0.5549475861854357,-0.3733935025094374 l 10.155137782350838 -14.816649514419353" fill="#ffbc11" stroke="none" /><path d="M 88.1277618465304 117.32195027204791 l -9.995128368182288 14.583190997208163 a38.679707315379844,38.679707315379844 0 0,0 -0.5444719692565856,-0.380083720365186 l 10.243995428612639 -14.409462461037847" fill="#ffb911" stroke="none" /><path d="M 87.83215693770417 117.11559508785305 l -10.04641209584196 14.131536759457227 a38.33870604120649,38.33870604120649 0 0,0 -0.5331252477011005,-0.38594156588885004 l 10.287518353917015 -13.956994422195312" fill="#ffb410" stroke="none" /><path d="M 87.54013794807813 116.9041958592261 l -8.052426943546006 10.92466366229274 a34.571656340158526,34.571656340158526 0 0,0 -0.4746968463851841,-0.3562213632370328 l 8.238776778841956 -10.784823271791693" fill="#ff7f0b" stroke="none" /><path d="M 86.96720088162412 116.46651593811092 l -10.580797900745255 13.36849250019472 a38.04904325597708,38.04904325597708 0 0,0 -0.5086780753730897,-0.40975505008893054 l 10.808726746473607 -13.184889156312378" fill="#ffb010" stroke="none" /><path d="M 86.68645165197938 116.24036423190432 l -10.808064397960976 13.184081198823332 a38.04799850679365,38.04799850679365 0 0,0 -0.5015553581166887,-0.41841531817539757 l 11.032794090239557 -12.996603696736063" fill="#ffb010" stroke="none" /><path d="M 86.40962598614128 116.0094264158162 l -11.223931805475397 13.221763444674933 a38.34334667130034,38.34334667130034 0 0,0 -0.49813579935700336,-0.43027783923958013 l 11.449247084595262 -13.02714147297063" fill="#ffb410" stroke="none" /><path d="M 86.13680546590413 115.77377054828092 l -11.736608637095971 13.354106169483819 a38.7786426334015,38.7786426334015 0 0,0 -0.49624654704348753,-0.44374672237434426 l 11.964120210962829 -13.150663917226092" fill="#ffba11" stroke="none" /><path d="M 85.86807049272751 115.53346607816431 l -12.120903247358315 13.322995938570212 a39.01162170130662,39.01162170130662 0 0,0 -0.4914911273775091,-0.4549168499641443 l 12.347824146049792 -13.11296134247369" fill="#ffbd11" stroke="none" /><path d="M 85.34317274990678 115.03919595460226 l -9.44268416739989 9.689025810824383 a34.52928325699797,34.52928325699797 0 0,0 -0.4209416907577469,-0.41734392014775934 l 9.607617778287599 -9.525501880447964" fill="#ff7e0b" stroke="none" /><path d="M 85.08716467003676 114.78537596483092 l -9.688796861090132 9.605987129105138 a34.64359825485944,34.64359825485944 0 0,0 -0.4150850750738771,-0.42591385402506876 l 9.852268737314818 -9.438250583012334" fill="#ff800b" stroke="none" /><path d="M 84.83555147118756 114.52719865689866 l -9.993645546134191 9.573686367788493 a34.83937939253589,34.83937939253589 0 0,0 -0.4100166368149834,-0.4354234596097612 l 10.156518016685428 -9.400721448234243" fill="#ff820c" stroke="none" /><path d="M 84.58840730492382 114.26474011684316 l -10.053134804031124 9.305031490023165 a34.698508328221166,34.698508328221166 0 0,0 -0.40085418560874453,-0.4406089693016997 l 10.211386690481747 -9.131084945163792" fill="#ff800b" stroke="none" /><path d="M 84.3458050057657 113.99807769240083 l -10.197603819651253 9.118760217077764 a34.680018697323696,34.680018697323696 0 0,0 -0.3930219405558183,-0.44718682230999074 l 10.352636824165662 -8.942361116956473" fill="#ff800b" stroke="none" /><path d="M 84.1078160697243 113.72728997021213 l -11.841899977572801 10.228751158656525 a36.64793741502553,36.64793741502553 0 0,0 -0.40715062072269365,-0.4796224074456585 l 12.015745161802606 -10.023961968761313" fill="#ff9c0e" stroke="none" /><path d="M 83.8745106332314 113.45245675266167 l -10.004262096873905 8.345911255123518 a34.028411061267036,34.028411061267036 0 0,0 -0.37034769449085575,-0.4517639695860446 l 10.14605661060339 -8.172945003838977" fill="#ff770a" stroke="none" /><path d="M 83.64595745247003 113.17365903436017 l -10.890398960665724 8.772534511818858 a34.98421078515059,34.98421078515059 0 0,0 -0.37272106429284363,-0.4709208888974764 l 11.039386455600129 -8.584293679006702" fill="#ff850c" stroke="none" /><path d="M 83.4222238831116 112.89097897827486 l -11.220043689840047 8.724773837047175 a35.21305944930726,35.21305944930726 0 0,0 -0.36696706818031183,-0.48037167204916603 l 11.368162735374653 -8.530881251757139" fill="#ff880c" stroke="none" /><path d="M 82.98947788004972 112.3143062007846 l -12.946675124237453 9.372394370832343 a36.98305893798051,36.98305893798051 0 0,0 -0.36786679153908175,-0.5174507115201571 l 13.105657014306496 -9.148766432602681" fill="#ffa10e" stroke="none" /><path d="M 82.78059297857968 112.02048342749411 l -13.466133605691043 9.400407089412019 a37.42267967577123,37.42267967577123 0 0,0 -0.3631964854187963,-0.5299145264844918 l 13.625519827925164 -9.167857827857475" fill="#ffa70f" stroke="none" /><path d="M 82.576782715395 111.72311816256416 l -12.727167797632763 8.563406489699467 a36.33990648136185,36.33990648136185 0 0,0 -0.343802443321566,-0.5205607185176389 l 12.872294679875056 -8.343665892842766" fill="#ff980e" stroke="none" /><path d="M 82.37810715431573 111.42229804090323 l -13.78364294100283 8.934390825108471 a37.42595970227735,37.42595970227735 0 0,0 -0.34482195601490684,-0.542117388259993 l 13.934982588643626 -8.696459762169805" fill="#ffa70f" stroke="none" /><path d="M 82.18462484594161 111.11811171558189 l -14.37001858753117 8.967954400598996 a37.938761475893514,37.938761475893514 0 0,0 -0.3400614427927768,-0.5554648101924179 l 14.521847994779352 -8.719952474282021" fill="#ffae10" stroke="none" /><path d="M 81.99639281039703 110.81064883170644 l -11.778550598078645 7.072681208899573 a34.7388890989854,34.7388890989854 0 0,0 -0.30260267129003693,-0.5138854911133067 l 11.898226979498453 -6.869444549492708" fill="#ff810b" stroke="none" /><line stroke="#e1ed5e" stroke-width="0.3" x1="26.387840678322732" x2="22.057713659400548" y1="142.50000000000003" y2="145.00000000000006" /><path d="M 25.521815274538298 143.00000000000003 a86.0,86.0 0 0,1 -11.493303480769221,-40.785679425670985" fill="none" id="id57" stroke="none" /><text fill="#e1ed5e" style="font-size:6.75px; font-family:Arial;" text-anchor="middle"><textPath startOffset="21.40746469413373" xlink:href="#id57">September</textPath></text><path d="M 81.81346652052679 110.50000000000001 l -42.57994671259898 24.583543696598973 a70.1670873931979,70.1670873931979 0 0,0 -0.5933015997457628,-1.0483070776894818 l 42.99568167736612 -23.84897984881037" fill="#3bff98" stroke="none" /><path d="M 81.63589988554817 110.18625677009913 l -14.307311236189419 7.936024364562235 a37.36091799148561,37.36091799148561 0 0,0 -0.3062788464225974,-0.5635185805121623 l 14.441435432227346 -7.689250950575486" fill="#ffa60f" stroke="none" /><path d="M 81.4637452351635 109.86951160357371 l -14.455997265497537 7.697004306593342 a37.37741530998676,37.37741530998676 0 0,0 -0.2966911207022376,-0.5689443441371685 l 14.585996455174724 -7.44771371935167" fill="#ffa60f" stroke="none" /><path d="M 81.29705330413844 109.54985784667822 l -15.015030082075327 7.6667813462327405 a37.85914186951902,37.85914186951902 0 0,0 -0.2905780843932494,-0.5813508193284261 l 15.144428079680313 -7.407898670740562" fill="#ffad10" stroke="none" /><path d="M 81.1358732173502 109.22738970284198 l -14.688867780228568 7.185061299860988 a37.35200117868749,37.35200117868749 0 0,0 -0.2767974352433138,-0.5784001812456497 l 14.810044473431793 -6.931848616550233" fill="#ffa60f" stroke="none" /><path d="M 80.83023694016515 108.57439118712176 l -13.865571512096711 6.2018937744112606 a36.189389709469864,36.189389709469864 0 0,0 -0.24878674783482146,-0.5692727663191167 l 13.9699921419485 -5.962958938316294" fill="#ff960d" stroke="none" /><path d="M 80.68587082218212 108.24405325689762 l -12.775487736816034 5.45309603738775 a34.890620695509284,34.890620695509284 0 0,0 -0.23040130278797952,-0.5528792520419391 l 12.867214884140498 -5.2329842759045295" fill="#ff830c" stroke="none" /><path d="M 80.41425534168474 107.57618678355246 l -23.247767907126704 8.992736045412062 a45.92645209904698,45.92645209904698 0 0,0 -0.2781159765840413,-0.7377356700548925 l 23.398714567525182 -8.592332095163025" fill="#e5ff1a" stroke="none" /><path d="M 80.28708602549918 107.23885506374661 l -29.262602197927666 10.74563285635376 a52.17320183872216,52.17320183872216 0 0,0 -0.3015109954004928,-0.8433799160918479 l 29.442753363372102 -10.24171798388099" fill="#99ff23" stroke="none" /><path d="M 80.16572619554312 106.89939002012753 l -15.66412867251616 5.448797072311607 a37.58476157815886,37.58476157815886 0 0,0 -0.20674228042876702,-0.6111968163918627 l 15.755356374517294 -5.179098581445582" fill="#ffa90f" stroke="none" /><path d="M 80.05021161711548 106.5578916946017 l -15.319625267911315 5.0358651119847 a37.12609239014001,37.12609239014001 0 0,0 -0.19382522339394742,-0.6071547516575454 l 15.403815207082516 -4.772141326635763" fill="#ffa30f" stroke="none" /><path d="M 79.94057633289273 106.21446072829308 l -15.356099006953603 4.757358725862903 a37.07613880127642,37.07613880127642 0 0,0 -0.1831273122154574,-0.6095712634348409 l 15.43550263917269 -4.493049858837338" fill="#ffa20f" stroke="none" /><path d="M 79.83685265289637 105.86919833188381 l -30.55381591164409 8.893770515795293 a52.821923586582024,52.821923586582024 0 0,0 -0.2459527304675029,-0.8727994727974009 l 30.70198713418617 -8.367963119094897" fill="#91ff24" stroke="none" /><path d="M 79.73907114497094 105.5222062557868 l -15.495401741411545 4.223340649612572 a37.060637638973425,37.060637638973425 0 0,0 -0.1620264944448485,-0.6152409905391067 l 15.565617716661126 -3.956719154700663" fill="#ffa20f" stroke="none" /><path d="M 79.64726062577567 105.17358676015961 l -15.56408712085856 3.9563300832329986 a37.05905836695196,37.05905836695196 0 0,0 -0.1514347363545331,-0.6179054015569857 l 15.629709383729386 -3.6885688570679136" fill="#ffa20f" stroke="none" /><path d="M 79.56144815229197 104.8234425847677 l -15.65621757061329 3.694824716994464 a37.086294735199075,37.086294735199075 0 0,0 -0.14090873833047554,-0.6208699004911356 l 15.71733717050143 -3.425520482564302" fill="#ffa20f" stroke="none" /><path d="M 79.48165901384964 104.47187691870673 l -15.676671878426168 3.4166576714263748 a37.044674843310304,37.044674843310304 0 0,0 -0.13008376784346154,-0.6224979199850225 l 15.733013357093997 -3.1470433001559432" fill="#ffa20e" stroke="none" /><path d="M 79.34024301695615 103.76489593502545 l -15.69027812490603 2.8592913450221173 a36.94867940089784,36.94867940089784 0 0,0 -0.10835672211072456,-0.6249727784562997 l 15.737049664508987 -2.589525533645225" fill="#ffa00e" stroke="none" /><path d="M 79.2786578344484 103.40968896794605 l -15.789097418796493 2.5980899718067403 a37.001427086414786,37.001427086414786 0 0,0 -0.0977516173099516,-0.6276355054087001 l 15.831370528244712 -2.32666628446659" fill="#ffa10e" stroke="none" /><path d="M 79.22317932658666 103.0534771498775 l -15.683847606651852 2.3049854952232494 a36.8523195110958,36.8523195110958 0 0,0 -0.08661257359675746,-0.6266854365408768 l 15.721104696803822 -2.035411750482287" fill="#ff9f0e" stroke="none" /><path d="M 79.17382384314188 102.69636545807758 l -15.941095540407607 2.063893969556923 a37.07414648888011,37.07414648888011 0 0,0 -0.07629844118824289,-0.6318605452875403 l 15.974176067855511 -1.7899397473459833" fill="#ffa20f" stroke="none" /><path d="M 79.13060592940153 102.33845913500099 l -15.87839132661945 1.7792068673026313 a36.97776230258545,36.97776230258545 0 0,0 -0.06527034190183245,-0.6314313494192304 l 15.906594061002949 -1.5063709956004694" fill="#ffa10e" stroke="none" /><path d="M 79.0935383218832 101.97986365728391 l -16.014401185114725 1.516580442340499 a37.086051770272704,37.086051770272704 0 0,0 -0.05458073850776981,-0.6343109158008822 l 16.038075546320236 -1.2414484791639548" fill="#ffa20f" stroke="none" /><path d="M 79.06263194458094 101.62068470465958 l -16.01108997802398 1.2393596255091628 a37.05898547747404,37.05898547747404 0 0,0 -0.043652023997811894,-0.6346908486258205 l 16.030005963186856 -0.9643253527289989" fill="#ffa20f" stroke="none" /><path d="M 79.03789590574601 101.26102812881392 l -16.071720517730615 0.9668347967439745 a37.10077544481129,37.10077544481129 0 0,0 -0.032787210580205506,-0.6360631260822872 l 16.085949317767394 -0.6907998772849565" fill="#ffa30f" stroke="none" /><path d="M 79.01933749520258 100.90099992219065 l -13.582656457507623 0.5832977108591476 a34.59517534503204,34.59517534503204 0 0,0 -0.02038695825208066,-0.5935440453867075 l 13.59066810275655 -0.35004740090832026" fill="#ff7f0b" stroke="none" /><path d="M 79.00696218219943 100.54070618675478 l -24.179965399184066 0.6227901364408085 a45.18798450180971,45.18798450180971 0 0,0 -0.01331661585751756,-0.7756261130866654 l 24.18709344664025 -0.20761710738509073" fill="#efff19" stroke="none" /><line stroke="#e1ed5e" stroke-width="0.3" x1="15.003131293944662" x2="10.003315487706104" y1="100.72959589197737" y2="100.7725132973878" /><path d="M 14.003168132696942 100.73817937305945 a86.0,86.0 0 0,1 10.791469493833604,-42.45332614584628" fill="none" id="id58" stroke="none" /><text fill="#e1ed5e" style="font-size:6.75px; font-family:Arial;" text-anchor="middle"><textPath startOffset="22.145653131862435" xlink:href="#id58">October</textPath></text><path d="M 79.00077361379809 100.18025310272382 l -16.00112916097709 0.1373504492644506 a37.001718644326445,37.001718644326445 0 0,0 0.0,-0.6352071039765305 l 16.00112916097709 0.13735044926444473" fill="#ffa10e" stroke="none" /><path d="M 79.00077361379809 99.81974689727619 l -14.771067350822989 -0.12679184802149437 a35.77161151856065,35.77161151856065 0 0,0 0.010541669748026606,-0.6139994139343883 l 14.766714249476296 0.3803381779249351" fill="#ff900d" stroke="none" /><path d="M 79.00696218219943 99.45929381324524 l -16.02087201139329 -0.4126408330680615 a37.02618521241284,37.02618521241284 0 0,0 0.021819553872199794,-0.6352525037676323 l 16.01142777052424 0.6875996013998323" fill="#ffa20e" stroke="none" /><path d="M 79.01933749520258 99.09900007780938 l -16.062597614689896 -0.6897970546785941 a37.077402218893596,37.077402218893596 0 0,0 0.032766554869623675,-0.6356624108151705 l 16.048389470363702 0.9654312588704765" fill="#ffa20f" stroke="none" /><path d="M 79.03789590574601 98.7389718711861 l -16.01496932143272 -0.9634207857003396 a37.04392165203853,37.04392165203853 0 0,0 0.043634280218245745,-0.6344328579651256 l 15.996071080049411 1.2381970678197902" fill="#ffa20e" stroke="none" /><path d="M 79.06263194458094 98.37931529534042 l -15.951498866705522 -1.2347468966125945 a36.999216105584736,36.999216105584736 0 0,0 0.05445293965937814,-0.6328256994630844 l 15.927952304348402 1.5083936434513596" fill="#ffa10e" stroke="none" /><path d="M 79.0935383218832 98.0201363427161 l -15.941425171328488 -1.509669537962061 a37.01274925198406,37.01274925198406 0 0,0 0.06533209821176854,-0.632028785697047 l 15.913160680635057 1.7831028459420208" fill="#ffa10e" stroke="none" /><path d="M 79.13060592940154 97.66154086499901 l -16.035601926616433 -1.7968226429422336 a37.13595676615101,37.13595676615101 0 0,0 0.07642564648496196,-0.6329139876239689 l 16.002394193871805 2.0718303074896385" fill="#ffa30f" stroke="none" /><path d="M 79.17382384314186 97.30363454192245 l -14.728302645433988 -1.9068736483429245 a35.85123112493515,35.85123112493515 0 0,0 0.08425975448867394,-0.609661609530286 l 14.693398374390107 2.1594235660732775" fill="#ff910d" stroke="none" /><path d="M 79.22317932658666 96.9465228501225 l -15.559954313855776 -2.286777447682072 a36.72709538803991,36.72709538803991 0 0,0 0.09702687858209384,-0.6229821628833693 l 15.518405943135415 2.5535477924968917" fill="#ff9d0e" stroke="none" /><path d="M 79.2786578344484 96.59031103205396 l -15.988801607287924 -2.630951220026643 a37.203816870088744,37.203816870088744 0 0,0 0.10910494532999557,-0.629288331152472 l 15.941281844465694 2.905032584099708" fill="#ffa40f" stroke="none" /><path d="M 79.34024301695615 96.23510406497455 l -15.703544200932658 -2.8617088659904066 a36.96216395431189,36.96216395431189 0 0,0 0.11911269905061962,-0.6232479736685677 l 15.652105209599878 3.130859404692289" fill="#ffa10e" stroke="none" /><path d="M 79.407916724674 95.88100663000787 l -5.051351047157111 -1.0104116807683001 a26.151415258571983,26.151415258571983 0 0,0 0.09183167744522293,-0.4394478200168468 l 5.033261658887521 1.096975952070556" fill="#ff0000" stroke="none" /><path d="M 79.48165901384962 95.52812308129327 l -15.703141114073524 -3.4224265181390305 a37.071765432601595,37.071765432601595 0 0,0 0.14085353449541613,-0.6206266622080682 l 15.642076718020446 3.691487514286107" fill="#ffa20f" stroke="none" /><path d="M 79.56144815229197 95.17655741523228 l -15.665581747246677 -3.697034637182621 a37.0959161462837,37.0959161462837 0 0,0 0.151585348602695,-0.6185199509260437 l 15.599808872127683 3.9654104127167824" fill="#ffa30f" stroke="none" /><path d="M 79.64726062577567 94.8264132398404 l -8.18108165997217 -2.079598966093949 a29.44125754771835,29.44125754771835 0 0,0 0.128715101962753,-0.48875220747221526 l 8.144177077204692 2.219731677938949" fill="#ff3304" stroke="none" /><path d="M 79.73907114497095 94.47779374421319 l -15.503910971491601 -4.225659878109766 a37.06945726580099,37.06945726580099 0 0,0 0.1726051156869934,-0.61251466364042 l 15.429087363730025 4.491182465653199" fill="#ffa20f" stroke="none" /><path d="M 79.83685265289637 94.1308016681162 l -15.376248822356786 -4.475801936336602 a37.01442570997608,37.01442570997608 0 0,0 0.18282249750433247,-0.608556634397118 l 15.297150004848824 4.739096174324444" fill="#ffa10e" stroke="none" /><path d="M 79.94057633289273 93.78553927170692 l -15.292577975945422 -4.7376797480830755 a37.00963930092641,37.00963930092641 0 0,0 0.19321725351134572,-0.6052502946595335 l 15.208996006656818 4.999499076434001" fill="#ffa10e" stroke="none" /><path d="M 80.05021161711548 93.44210830539832 l -15.281887141028134 -5.023459840103747 a37.086367624676996,37.086367624676996 0 0,0 0.20400076769413594,-0.6030920211268027 l 15.193400951761634 5.285053535704711" fill="#ffa20f" stroke="none" /><path d="M 80.16572619554312 93.10060997987247 l -15.16650615876576 -5.27569813060047 a37.05789213530534,37.05789213530534 0 0,0 0.21415902324145472,-0.5990409033401206 l 15.073706965480362 5.535273990321512" fill="#ffa20f" stroke="none" /><path d="M 80.28708602549916 92.7611449362534 l -15.0955336139792 -5.54328903798087 a37.08114387875983,37.08114387875983 0 0,0 0.22455160525906676,-0.5956498112852576 l 14.998151324905697 5.8016071294602725" fill="#ffa20f" stroke="none" /><path d="M 80.41425534168474 92.42381321644754 l -14.98208521944201 -5.795392414727664 a37.06391766547954,37.06391766547954 0 0,0 0.23463458692357425,-0.5914324337038911 l 14.880391957552305 6.051725865645138" fill="#ffa20f" stroke="none" /><path d="M 80.5471966667186 92.08871423366112 l -14.838800086970576 -6.034810813963837 a37.019017747084646,37.019017747084646 0 0,0 0.24445623915076553,-0.5866059827926989 l 14.733018003283332 6.288649306197799" fill="#ffa10e" stroke="none" /><path d="M 80.68587082218212 91.75594674310238 l -14.812256851297546 -6.32247165858191 a37.10517310997875,37.10517310997875 0 0,0 0.25508237137979395,-0.583678385036121 l 14.701540597900776 6.575812113393899" fill="#ffa30f" stroke="none" /><path d="M 80.9802524753101 91.09779779509293 l -28.79022476623662 -13.4752788942681 a52.78773636748505,52.78773636748505 0 0,0 0.39118412876785397,-0.8174243767138223 l 28.55466137950886 13.96751577304701" fill="#92ff23" stroke="none" /><path d="M 81.1358732173502 90.77261029715801 l -13.732525079065516 -6.717266161778254 a36.28737746427864,36.28737746427864 0 0,0 0.27851441185764936,-0.5572153931233603 l 13.61519075399612 6.952013411065384" fill="#ff970d" stroke="none" /><path d="M 81.29705330413844 90.45014215332179 l -14.29629543147245 -7.299790312447764 a37.05213386655015,37.05213386655015 0 0,0 0.29410913061020333,-0.5639930376875354 l 14.168878231887305 7.544129593239786" fill="#ffa20f" stroke="none" /><path d="M 81.46374523516351 90.13048839642627 l -12.973499697797019 -6.907657853800403 a35.69787166340453,35.69787166340453 0 0,0 0.29264545788997565,-0.5384346811727011 l 12.853008890291694 7.129347368447724" fill="#ff8f0d" stroke="none" /><path d="M 81.63589988554816 89.8137432299009 l -14.022051428802463 -7.777795558025383 a37.03471328132875,37.03471328132875 0 0,0 0.3131490197506648,-0.5533043125398879 l 13.88646904403043 8.017356640664376" fill="#ffa20e" stroke="none" /><line stroke="#e1ed5e" stroke-width="0.3" x1="26.387840678322718" x2="22.05771365940052" y1="57.49999999999999" y2="54.99999999999999" /><path d="M 25.521815274538284 56.99999999999999 a86.0,86.0 0 0,1 29.574782752854787,-30.34633250058573" fill="none" id="id59" stroke="none" /><text fill="#e1ed5e" style="font-size:6.75px; font-family:Arial;" text-anchor="middle"><textPath startOffset="21.40746469413373" xlink:href="#id59">November</textPath></text><path d="M 81.81346652052679 89.5 l -13.223539330561094 -7.6346139921390535 a36.2692279842781,36.2692279842781 0 0,0 0.31593311007719876,-0.5365234904861927 l 13.090532510354116 7.8604886509188185" fill="#ff970d" stroke="none" /><path d="M 81.99639281039701 89.18935116829357 l -13.79993091613263 -8.286462010917072 a37.09669363404811,37.09669363404811 0 0,0 0.33251362641483523,-0.5431360193794637 l 13.6556493252624 8.522135146421078" fill="#ffa30f" stroke="none" /><path d="M 82.18462484594161 88.88188828441811 l -13.5526719799368 -8.457869666766374 a36.97530835682901,36.97530835682901 0 0,0 0.340669905415419,-0.5355896750803243 l 13.40548438289549 8.68927301652537" fill="#ffa10e" stroke="none" /><path d="M 82.37810715431573 88.57770195909679 l -13.49001346322291 -8.744063745142228 a37.07604161530587,37.07604161530587 0 0,0 0.3507668271675854,-0.5311056833058261 l 13.337922197134596 8.974349306787115" fill="#ffa20f" stroke="none" /><path d="M 82.576782715395 88.27688183743585 l -13.32822608299636 -8.967825328471084 a37.06435500234703,37.06435500234703 0 0,0 0.35971885465709547,-0.5248405592729147 l 13.172317491523952 9.195300622814033" fill="#ffa20f" stroke="none" /><path d="M 82.78059297857968 87.97951657250589 l -12.304057802913288 -8.589187927718172 a36.00546526020073,36.00546526020073 0 0,0 0.3581427649171207,-0.5037726503031524 l 12.154799939466196 8.799137804730844" fill="#ff930d" stroke="none" /><path d="M 82.98947788004972 87.6856937992154 l -13.002273280042678 -9.412643148027803 a37.051696529682665,37.051696529682665 0 0,0 0.3773944313663025,-0.5120080268475553 l 12.838776829092557 9.634457484144221" fill="#ffa20f" stroke="none" /><path d="M 83.2033758604659 87.39550010848427 l -12.85039793550872 -9.643178179049638 a37.066225832280146,37.066225832280146 0 0,0 0.38627953477777266,-0.5056523107637505 l 12.682966423376643 9.862351403054273" fill="#ffa20f" stroke="none" /><path d="M 83.42222388311158 87.10902102172516 l -12.700075060486952 -9.875655182751917 a37.08789830371318,37.08789830371318 0 0,0 0.39513370797583436,-0.4992385320276276 l 12.528674921869555 10.092213658694227" fill="#ffa20f" stroke="none" /><path d="M 83.64595745247003 86.82634096563983 l -12.541881941883881 -10.102852299141874 a37.10485725557446,37.10485725557446 0 0,0 0.40383014987895927,-0.49260712098844195 l 12.366604972766293 10.31666170182881" fill="#ffa30f" stroke="none" /><path d="M 83.8745106332314 86.54754324733833 l -12.317537584547932 -10.275727941434917 a37.0409574799367,37.0409574799367 0 0,0 0.41151698823671634,-0.48476597739810307 l 12.139326032804101 10.485660701282578" fill="#ffa20e" stroke="none" /><path d="M 84.10781606972428 86.27271002978789 l -12.150155900913106 -10.495015283417022 a37.05526811410044,37.05526811410044 0 0,0 0.41994018253351695,-0.4778148403670866 l 11.968204654420996 10.702042401595408" fill="#ffa20f" stroke="none" /><path d="M 84.34580500576568 86.00192230759919 l -11.911751029744721 -10.651561222299557 a36.97953594654801,36.97953594654801 0 0,0 0.42720573535397216,-0.4695739385837732 l 11.727147593548882 10.85447273644099" fill="#ffa10e" stroke="none" /><path d="M 84.58840730492382 85.73525988315684 l -11.7998260990299 -10.921742876087134 a37.07856845054022,37.07856845054022 0 0,0 0.4363691374267307,-0.46340890204172835 l 11.610601127866898 11.122693238073374" fill="#ffa20f" stroke="none" /><path d="M 84.83555147118756 85.47280134310135 l -11.583810064691518 -11.097028005589726 a37.04146770628209,37.04146770628209 0 0,0 0.44381534188794686,-0.4553936387746674 l 11.391607921652769 11.294244336432124" fill="#ffa20e" stroke="none" /><path d="M 85.08716467003674 85.21462403516908 l -11.417816428938009 -11.320228840727609 a37.07837407859911,37.07837407859911 0 0,0 0.4520173025030767,-0.44815392996987846 l 11.221807206304955 11.51456278092616" fill="#ffa20f" stroke="none" /><path d="M 85.34317274990677 84.96080404539775 l -11.22011144680316 -11.512822782289062 a37.07594442933532,37.07594442933532 0 0,0 0.45961373559452984,-0.44029956181624097 l 11.02082522534333 11.70373447441087" fill="#ffa20f" stroke="none" /><path d="M 85.60350026404147 84.71141617570332 l -11.010681476297773 -11.692962164445255 a37.061147865318816,37.061147865318816 0 0,0 0.4669179221949901,-0.43217225810385423 l 10.808333782788829 11.880252168681475" fill="#ffa20f" stroke="none" /><path d="M 85.86807049272753 84.46653392183569 l -10.864889473986244 -11.9424167804063 a37.14518943335342,37.14518943335342 0 0,0 0.4753434040958219,-0.42505500305536614 l 10.65828104306703 12.127167313345065" fill="#ffa30f" stroke="none" /><path d="M 86.13680546590413 84.22622945171909 l -10.580105099391627 -12.038217440002503 a37.026768328236145,37.026768328236145 0 0,0 0.48103153323856507,-0.4155035815437459 l 10.371894086390213 12.21806515401096" fill="#ffa20e" stroke="none" /><path d="M 86.40962598614128 83.9905735841838 l -10.443358459189396 -12.302250005473788 a37.13719588727554,37.13719588727554 0 0,0 0.4895489989930793,-0.40839918637352646 l 10.230635126034407 12.479711375759196" fill="#ffa30f" stroke="none" /><path d="M 86.68645165197937 83.75963576809568 l -10.204587885689017 -12.447937977759857 a37.096110518224805,37.096110518224805 0 0,0 0.495938307181347,-0.3994927946345324 l 9.989398808152425 12.621279066187789" fill="#ffa30f" stroke="none" /><path d="M 86.96720088162412 83.53348406188908 l -15.448738297353536 -19.518976168242954 a45.89284928722613,45.89284928722613 0 0,0 0.6219356437856217,-0.48362091835181137 l 15.11139270893267 19.781298138215572" fill="#e6ff1a" stroke="none" /><path d="M 87.25179093698888 83.31218511350988 l -8.738101947027499 -11.438455945499781 a35.394189801923034,35.394189801923034 0 0,0 0.48599089711000176,-0.3646966294544136 l 8.540458061006746 11.586771602218194" fill="#ff8a0c" stroke="none" /><path d="M 87.54013794807813 83.09580414077388 l -9.581939011915603 -12.999740534334169 a37.14951420904298,37.14951420904298 0 0,0 0.5165887430677454,-0.37397041179316726 l 9.35736925847389 13.162311717500417" fill="#ffa30f" stroke="none" /><path d="M 87.83215693770416 82.88440491214696 l -8.535191716580524 -12.005816040712975 a35.730550446002546,35.730550446002546 0 0,0 0.5029583860429409,-0.3511040151747175 l 8.327838239363818 12.15056487169282" fill="#ff8f0d" stroke="none" /><path d="M 88.12776184653039 82.6780497279521 l -9.13666254564768 -13.330663706568215 a37.16122511849446,37.16122511849446 0 0,0 0.5292885891335757,-0.3561289841682923 l 8.906477668417114 13.485542364793618" fill="#ffa30f" stroke="none" /><path d="M 88.4268655584334 82.4767994020092 l -7.89381769041953 -11.952246089562017 a35.32370567678039,35.32370567678039 0 0,0 0.5088537375785772,-0.3298328449019896 l 7.687478320583927 12.085992776167913" fill="#ff890c" stroke="none" /><path d="M 88.72937992617638 82.28071324371311 l -8.652165323214463 -13.602640974555303 a37.12116020213451,37.12116020213451 0 0,0 0.5406182081312846,-0.3373857458237185 l 8.417382986293479 13.749162517220558" fill="#ffa30f" stroke="none" /><path d="M 89.03521579738668 82.08984904055464 l -8.413145865495814 -13.742241498829562 a37.113045173593434,37.113045173593434 0 0,0 0.5462107889315211,-0.32798388484270297 l 8.176002320006859 13.884639384208189" fill="#ffa30f" stroke="none" /><line stroke="#e1ed5e" stroke-width="0.3" x1="56.869717070023135" x2="54.33264160355391" y1="26.7553504044142" y2="22.446841604673864" /><path d="M 56.362301976729285 25.89364864446614 a86.0,86.0 0 0,1 42.16139366436587,-11.88097634709845" fill="none" id="id60" stroke="none" /><text fill="#e1ed5e" style="font-size:6.75px; font-family:Arial;" text-anchor="middle"><textPath startOffset="22.145653131862474" xlink:href="#id60">December</textPath></text><path d="M 89.34428304082924 81.90426304109057 l -8.170516178856891 -13.875322717150528 a37.102233234369564,37.102233234369564 0 0,0 0.5515998416652562,-0.31846631707038897 l 7.931123869331236 14.01353593149709" fill="#ffa30f" stroke="none" /><path d="M 89.65649057296885 81.72400993836675 l -7.90431736259585 -13.966171402645529 a37.047809090860596,37.047809090860596 0 0,0 0.5561684348560466,-0.30849725549086576 l 7.663404739583701 14.099801573569541" fill="#ffa20f" stroke="none" /><path d="M 89.97174638481275 81.54914285379989 l -7.686876490166486 -14.142986950963502 a37.096960895467134,37.096960895467134 0 0,0 0.5621270408222001,-0.29930098730632876 l 7.442960633557724 14.272858405992405" fill="#ffa30f" stroke="none" /><path d="M 90.28995756902619 81.37971332152246 l -7.461598311538337 -14.308598610990186 a37.13726877675346,37.13726877675346 0 0,0 0.5677983840057935,-0.28992190059702244 l 7.21487270581896 14.434578463260042" fill="#ffa30f" stroke="none" /><path d="M 90.61103034731259 81.2157712731953 l -7.20216321689078 -14.40915097165457 a37.10884188036708,37.10884188036708 0 0,0 0.5722532430815219,-0.27991773716687585 l 6.953749724547205 14.53066245891866" fill="#ffa30f" stroke="none" /><path d="M 90.93487009805054 81.0573650232925 l -6.938636320164663 -14.49908125649019 a37.07383063447582,37.07383063447582 0 0,0 0.5764297201034309,-0.26979821465124026 l 6.68871788618971 14.616055702711972" fill="#ffa20f" stroke="none" /><path d="M 91.26138138417902 80.90454125486306 l -6.710455183006838 -14.663555619214883 a37.12606809364737,37.12606809364737 0 0,0 0.581794829251857,-0.2602294269928834 l 6.457746950899362 14.776588797117611" fill="#ffa30f" stroke="none" /><path d="M 91.92203290615298 80.6158196554323 l -6.164714132655655 -14.79306973299307 a37.02618521241284,37.02618521241284 0 0,0 0.588796636705797,-0.23945846629052686 l 5.909863034759417 14.896715455862887" fill="#ffa20e" stroke="none" /><path d="M 92.25597844496254 80.48000691201159 l -5.927388102028038 -14.940890073601068 a37.073709152012626,37.073709152012626 0 0,0 0.5935813975787685,-0.2296100361642148 l 5.67003444195574 15.040439997903322" fill="#ffa20f" stroke="none" /><path d="M 92.93061703081487 80.22567764915836 l -5.4302634105805785 -15.189413220200544 a37.130903095682314,37.130903095682314 0 0,0 0.6020408658493385,-0.20942106489507445 l 5.168716772686236 15.280392717664204" fill="#ffa30f" stroke="none" /><path d="M 93.27111125876988 80.10723608172694 l -5.156268299123158 -15.243591017523757 a37.09205300395426,37.09205300395426 0 0,0 0.6049135603723046,-0.19884710240439477 l 4.8938320011030925 15.329859041330181" fill="#ffa20f" stroke="none" /><path d="M 93.61358852112211 79.99465700312896 l -4.536163756379401 -14.209468358949119 a35.915956981322594,35.915956981322594 0 0,0 0.5889522007570718,-0.1824588972836834 l 4.291570922750712 14.285243844039444" fill="#ff920d" stroke="none" /><path d="M 93.95794788825049 79.88797359093562 l -4.643151548031818 -15.455541400198971 a37.13792478205468,37.13792478205468 0 0,0 0.6121390868682179,-0.1781847667766999 l 4.377152448781976 15.532969861278191" fill="#ffa30f" stroke="none" /><path d="M 94.30408787586887 79.78721728523814 l -4.371597051204225 -15.513255715117566 a37.11744283876091,37.11744283876091 0 0,0 0.6147684270983333,-0.16755786855941304 l 4.104647223171214 15.586014077821119" fill="#ffa30f" stroke="none" /><path d="M 94.6519064749342 79.69241777938228 l -4.098830865073061 -15.563928418744814 a37.09460413568125,37.09460413568125 0 0,0 0.6171742064241441,-0.1568832698320583 l 3.8310513654235385 15.631996920412135" fill="#ffa30f" stroke="none" /><path d="M 95.00130118170881 79.60360301121753 l -7.531213074321885 -30.729919375996673 a52.63932861528659,52.63932861528659 0 0,0 0.8794975171344258,-0.20755901929614154 l 7.002583403447552 30.854674538939047" fill="#93ff23" stroke="none" /><path d="M 95.35216902796891 79.52079915486377 l -3.567116958384226 -15.717375495890417 a37.11707839137134,37.11707839137134 0 0,0 0.622572856892161,-0.1356868564972479 l 3.296781684872947 15.776293810521379" fill="#ffa30f" stroke="none" /><path d="M 95.70440661134978 79.44403061299748 l -3.2972836445475857 -15.778695869275975 a37.119532337127765,37.119532337127765 0 0,0 0.6248516731724392,-0.12498783462621689 l 3.02593548584417 15.832973100565058" fill="#ffa30f" stroke="none" /><path d="M 96.41257539226777 79.30868818359171 l -2.746153996005485 -15.839086486933756 a37.075385610004645,37.075385610004645 0 0,0 0.6280261306886202,-0.10334146081284225 l 2.4738503622637915 15.883893946242267" fill="#ffa20f" stroke="none" /><path d="M 97.12497278360702 79.19773525538626 l -2.2001224690265584 -15.91899019609413 a37.07030764304332,37.07030764304332 0 0,0 0.6311170062723426,-0.08171073186460877 l 1.926527640863422 15.954412524159133" fill="#ffa20f" stroke="none" /><path d="M 97.48249496171623 79.15144685158666 l -1.9352657183817952 -16.02677634102798 a37.14319712095711,37.14319712095711 0 0,0 0.6336701918192137,-0.07100406670288062 l 1.6598596249617823 16.05763616823783" fill="#ffa30f" stroke="none" /><path d="M 97.84075906011542 79.11130261209362 l -1.6578360913858043 -16.038060316491926 a37.12351696192039,37.12351696192039 0 0,0 0.6344593545865241,-0.0600839605242481 l 1.3822771734142647 16.064156032521357" fill="#ffa30f" stroke="none" /><path d="M 98.1996594967304 79.07731436759882 l -1.3793318814555122 -16.029927275440848 a37.089161721330356,37.089161721330356 0 0,0 0.6348092704972527,-0.0491382523509043 l 1.1039536161830423 16.051243294786804" fill="#ffa20f" stroke="none" /><path d="M 98.5590905019552 79.04949213459386 l -1.1049105301346807 -16.065156613629885 a37.103107908104526,37.103107908104526 0 0,0 0.6357982349604437,-0.03824804298892454 l 0.8289679430417533 16.081756634443504" fill="#ffa30f" stroke="none" /><path d="M 98.9189461498227 79.02784411241856 l -1.04525568853372 -20.27768111525189 a41.304603194011335,41.304603194011335 0 0,0 0.708421620908951,-0.03042267255246058 l 0.697008307023949 20.29263635623018" fill="#ffdc14" stroke="none" /><path d="M 99.27912038922189 79.0123766808444 l -2.1626388323343404 -62.96286995746683 a84.0,84.0 0 0,0 1.4415467437170244,-0.03712913059981959 l 1.081478774546572 62.990716805416696" fill="#4dd2ff" stroke="none" /></svg>