<?xml version="1.0" encoding="utf-8" ?>
<svg baseProfile="full" height="200mm" version="1.1" viewBox="0,0,200,200" width="200mm" xmlns="http://www.w3.org/2000/svg" xmlns:ev="http://www.w3.org/2001/xml-events" xmlns:xlink="http://www.w3.org/1999/xlink"><defs /><rect fill="#1a1a1a" height="200" width="200" x="0" y="0" /><rect fill="#1a1a1a" height="200" width="180" x="10" y="0" /><text alignment-baseline="middle" fill="#e1ed5e" style="dominant-baseline: central; font-size:9.0px; font-family:Arial;" text-anchor="middle" x="100.0" y="100.0">2019</text><line stroke="#e1ed5e" stroke-width="0.3" x1="100.0" x2="100.0" y1="15.0" y2="10.0" /><path d="M 100.0 14.0 a86.0,86.0 0 0,1 42.46469731375804,11.215312516191453" fill="none" id="id37" stroke="none" /><text fill="#e1ed5e" style="font-size:6.75px; font-family:Arial;" text-anchor="middle"><textPath startOffset="22.20632615414155" xlink:href="#id37">January</textPath></text><path d="M 100.0 79.0 l 0.0 -15.207762493892275 a36.207762493892275,36.207762493892275 0 0,0 0.6232571114132408,0.005364570727226265 l -0.26177663214071245 15.205509299773608" fill="#ff6509" stroke="none" /><path d="M 101.80526077348638 79.07773832637324 l 1.2968136794981613 -15.029560018634086 a36.085403543593316,36.085403543593316 0 0,0 0.6183919054356141,0.05872376271677905 l -1.5553307120240196 15.005010711402129" fill="#ff6309" stroke="none" /><path d="M 103.2404852339499 79.25152402106235 l 1.7391499464219269 -11.135588741171807 a32.27058024897794,32.27058024897794 0 0,0 0.5480939750362904,0.0904402021313852 l -1.9305731275970923 11.104002276100797" fill="#ff2603" stroke="none" /><path d="M 103.95276090670814 79.375362276772 l 2.9097540548172107 -15.182457188961981 a36.45877339746555,36.45877339746555 0 0,0 0.6153435219851509,0.12343212165891997 l -3.1706639862694868 15.130121111225854" fill="#ff6909" stroke="none" /><path d="M 104.66035177308747 79.52364482259891 l 3.4974967789063482 -15.367077371770408 a36.76006188656753,36.76006188656753 0 0,0 0.6157770970231518,0.14573454390530471 l -3.7614975628920235 15.304596915724236" fill="#ff6e0a" stroke="none" /><path d="M 105.01212808612495 79.60689891045804 l 3.7376704519275394 -15.207650334507447 a36.660230174038205,36.660230174038205 0 0,0 0.6115120366060295,0.15588803401434648 l -3.998891377218594 15.141059304324232" fill="#ff6c0a" stroke="none" /><path d="M 105.36241919743992 79.69619591428918 l 4.037234308730029 -15.286237691320101 a36.81038657399376,36.81038657399376 0 0,0 0.6112314046115619,0.16707263228041444 l -4.299763602565302 15.214478518213394" fill="#ff6f0a" stroke="none" /><path d="M 105.71112130821622 79.79150937346287 l 2.995850715627862 -10.60065402886346 a32.015851639795585,32.015851639795585 0 0,0 0.5290387479487869,0.15444091772391236 l -3.1778796813000763 10.547514782220844" fill="#ff2203" stroke="none" /><path d="M 106.0581310904928 79.89281104454417 l 4.323741378251325 -14.350677393471612 a35.98788447905507,35.98788447905507 0 0,0 0.5915973393984154,0.18381217309937514 l -4.5701240903604585 14.274125085489716" fill="#ff6209" stroke="none" /><path d="M 106.40334571778207 80.00007090966166 l 4.5262305157804406 -14.13702982032482 a35.84393394025773,35.84393394025773 0 0,0 0.585992297147548,0.19319244717122538 l -4.768905635170406 14.057023648894358" fill="#ff6008" stroke="none" /><path d="M 106.74666289553966 80.11325718540242 l 5.139439188737811 -15.149223688834915 a36.997275191390905,36.997275191390905 0 0,0 0.601325515402148,0.20979066498780397 l -5.399446708203232 15.058512170674904" fill="#ff720a" stroke="none" /><path d="M 107.4271985657038 80.35727306442388 l 5.278603231876253 -13.960332549042262 a35.92496354968491,35.92496354968491 0 0,0 0.5765389291912922,0.22368814745654583 l -5.518125326067212 13.867401697695168" fill="#ff6108" stroke="none" /><path d="M 107.76421540070413 80.48803036053334 l 5.608730854687406 -14.09509918319315 a36.17002580038593,36.17002580038593 0 0,0 0.576509098704446,0.2351725366429413 l -5.8505238229802385 13.99646576036663" fill="#ff6509" stroke="none" /><path d="M 108.09893153111575 80.62456947434976 l 5.927690086980131 -14.181074011629116 a36.37011287826427,36.37011287826427 0 0,0 0.5755418685927068,0.24641699182695337 l -6.170915713363153 14.076937491839372" fill="#ff6809" stroke="none" /><path d="M 108.43124777332544 80.76684994638697 l 6.215261533734356 -14.178098060284334 a36.480566544534355,36.480566544534355 0 0,0 0.5729496749928559,0.2570658180871372 l -6.458393327193992 14.069011911680665" fill="#ff6a09" stroke="none" /><path d="M 109.08828744355905 81.06846463323043 l 14.36072923064985 -29.914398615915932 a54.1828538342915,54.1828538342915 0 0,0 0.8373282335524566,0.4108733277275978 l -14.87352873121274 29.662770128053502" fill="#9aff23" stroke="none" /><path d="M 109.41281617654863 81.2277094730956 l 6.7021806410290194 -13.36638045377441 a35.95257007273421,35.95257007273421 0 0,0 0.5508267792920287,0.28215487058155686 l -6.931267907909803 13.249033057880354" fill="#ff6109" stroke="none" /><path d="M 109.73455568895987 81.39251694778311 l 6.979050541582299 -13.340368972395652 a36.05564979606051,36.05564979606051 0 0,0 0.5474534541959228,0.29243067571770454 l -7.207649042306533 13.218259570176192" fill="#ff6309" stroke="none" /><path d="M 110.05341064243156 81.56283822128135 l 7.260100386038261 -13.31445119551491 a36.16521243679433,36.16521243679433 0 0,0 0.5439866391607511,0.30272797573112037 l -7.4882111142710475 13.18750782222361" fill="#ff6509" stroke="none" /><path d="M 110.36928655335952 81.73862282372117 l 7.485645855630665 -13.182990138644739 a36.16001724509326,36.16001724509326 0 0,0 0.5386176927797738,0.3120021330245244 l -7.711460280875767 13.052183848230165" fill="#ff6509" stroke="none" /><line stroke="#e1ed5e" stroke-width="0.3" x1="143.23703022742887" x2="145.7803849466894" y1="26.81831364943548" y2="22.513508569990506" /><path d="M 143.74570117128098 25.957352633546492 a86.0,86.0 0 0,1 28.547481713284135,27.462654790039103" fill="none" id="id38" stroke="none" /><text fill="#e1ed5e" style="font-size:6.75px; font-family:Arial;" text-anchor="middle"><textPath startOffset="19.985693538727396" xlink:href="#id38">February</textPath></text><path d="M 110.99172775467656 82.1063720568725 l 8.689447123798784 -14.145704600314685 a37.6014291540415,37.6014291540415 0 0,0 0.5485884636299775,0.3435260455974895 l -8.931654739801024 13.99403421339425" fill="#ff7b0b" stroke="none" /><path d="M 112.19680574252982 82.90503203632743 l 8.720168416497874 -12.222134455913762 a36.01405700903395,36.01405700903395 0 0,0 0.5015466499711259,0.3643949709826394 l -8.929260382822788 12.070220250114447" fill="#ff6209" stroke="none" /><path d="M 112.48926042617603 83.11751280151076 l 8.888576356539282 -12.01522519600582 a35.9456490711097,35.9456490711097 0 0,0 0.4942592583302064,0.3722658263052813 l -9.094081768627872 11.860442780194692" fill="#ff6109" stroke="none" /><path d="M 112.77801427241765 83.33499621200491 l 9.129190958330694 -11.906231958929133 a36.00334919321324,36.00334919321324 0 0,0 0.48856106787108394,0.38132966290062975 l -9.332784581361208 11.74732390680528" fill="#ff6209" stroke="none" /><path d="M 113.06298171725822 83.55741782278167 l 9.518385530693543 -11.980942764093795 a36.301720577353635,36.301720577353635 0 0,0 0.4859185847883612,0.3929123688597029 l -9.723207514046395 11.815324297969962" fill="#ff6709" stroke="none" /><path d="M 113.34407831869373 83.78471172551755 l 9.844827624601148 -11.963113085289729 a36.493118009282064,36.493118009282064 0 0,0 0.4816091718635249,0.4033338310973873 l -10.04929433342379 11.791878096798524" fill="#ff6a09" stroke="none" /><path d="M 113.6212207817346 84.01681056812373 l 8.601328463924526 -10.092829740271481 a34.2607716031318,34.2607716031318 0 0,0 0.4455632946648637,0.38638809847975525 l -8.773785557236154 9.943276648372056" fill="#ff4606" stroke="none" /><path d="M 113.89432698308785 84.25364557470407 l 8.77676851769795 -9.946657218926159 a34.265280074090775,34.265280074090775 0 0,0 0.43890399270840375,0.39405233822336017 l -8.946683498002345 9.794105871933501" fill="#ff4606" stroke="none" /><path d="M 114.16331599549186 84.49514656593476 l 7.8255779442200915 -8.566810138290109 a32.603012802999665,32.603012802999665 0 0,0 0.41109622641761834,0.3820691395699046 l -7.971882054432557 8.430836412645563" fill="#ff2c04" stroke="none" /><path d="M 114.42810811169701 84.74124197986012 l 6.738633660680906 -7.126587881008429 a30.808029284142556,30.808029284142556 0 0,0 0.3821908504665929,0.3676672953394484 l -6.8603077547599165 7.0095374989066785" fill="#ff0e01" stroke="none" /><path d="M 114.68862486808459 84.99185889309783 l 7.59867284902579 -7.7639639767202135 a31.86365342315056,31.86365342315056 0 0,0 0.3886822515660532,0.3870131264550158 l -7.731190900759166 7.6320149996150795" fill="#ff1f03" stroke="none" /><path d="M 115.19652480421416 85.50635884689758 l 24.83729176828421 -23.688494490831797 a55.322526620647366,55.322526620647366 0 0,0 0.6513112577039526,0.6947734383544126 l -25.241370347958625 23.25745163559933" fill="#8cff24" stroke="none" /><path d="M 115.4437574822437 85.77008943001954 l 10.959852031077244 -10.098430672830675 a35.90290772289339,35.90290772289339 0 0,0 0.41486042282551083,0.45809924063180313 l -11.13205609451879 9.908278644929323" fill="#ff6008" stroke="none" /><path d="M 115.9244219780498 86.31012108654704 l 9.972780166518 -8.573382010242133 a34.15139625071187,34.15139625071187 0 0,0 0.3793884895184256,0.44907630630019846 l -10.118879269523541 8.400446754312828" fill="#ff4506" stroke="none" /><path d="M 116.15771136456269 86.58626213691792 l 11.606611537546781 -9.63552579511561 a36.08498553966335,36.08498553966335 0 0,0 0.3926416004387646,0.48133217567249864 l -11.770751630061955 9.43430944983501" fill="#ff6309" stroke="none" /><path d="M 116.38621287248628 86.86637796730983 l 10.271969440887919 -8.233028901662014 a34.16419845984317,34.16419845984317 0 0,0 0.3638420750153287,0.46204248652825486 l -10.41216559649721 8.05499402118072" fill="#ff4506" stroke="none" /><path d="M 116.82858285166822 87.43820079747576 l 15.385013964933805 -11.484238325889201 a40.19860371555782,40.19860371555782 0 0,0 0.4091402161315886,0.5580667950024639 l -15.58041679357902 11.217709087215244" fill="#ffa30f" stroke="none" /><path d="M 117.2510076193507 88.02491185347247 l 10.88950086651326 -7.559137160307645 a34.25600934407248,34.25600934407248 0 0,0 0.3320802574417342,0.48728680124422663 l -11.018005589623726 7.370572335793012" fill="#ff4606" stroke="none" /><path d="M 117.45458315368197 88.32363383020206 l 10.666493486288237 -7.1354258418594005 a33.8330972581721,33.8330972581721 0 0,0 0.3196476348706624,0.48684527767171887 l -10.787737756516826 6.950762500210007" fill="#ff4006" stroke="none" /><path d="M 117.65298651832404 88.62581576622439 l 12.509829509745387 -8.06034182540551 a35.881698313877955,35.881698313877955 0 0,0 0.3300644720985354,0.5220827297054577 l -12.646721578089878 7.843811447985847" fill="#ff6008" stroke="none" /><line stroke="#e1ed5e" stroke-width="0.3" x1="172.23445277983987" x2="176.4835382374775" y1="55.19839476539836" y2="52.563006222186495" /><path d="M 173.08426987136738 54.67131705675599 a86.0,86.0 0 0,1 12.851231095245387,41.99856678651699" fill="none" id="id39" stroke="none" /><text fill="#e1ed5e" style="font-size:6.75px; font-family:Arial;" text-anchor="middle"><textPath startOffset="22.20632615414155" xlink:href="#id39">March</textPath></text><path d="M 118.03404312379186 89.2402003453031 l 10.381983890543365 -6.19428854160627 a33.08944994779236,33.08944994779236 0 0,0 0.2876266173841823,0.4916471246474543 l -10.487070182397876 6.01466200460492" fill="#ff3304" stroke="none" /><path d="M 118.3937258080291 89.86733742301442 l 10.339170553312616 -5.695601186840111 a32.80416539235287,32.80416539235287 0 0,0 0.2682004528459485,0.49693470653403254 l -10.43567910537703 5.51678549697362" fill="#ff2f04" stroke="none" /><path d="M 119.04729006885535 91.15688171328212 l 13.618663216308937 -6.322760313589903 a36.01483552298704,36.01483552298704 0 0,0 0.2562158562895433,0.5645376766352568 l -13.725481389561827 6.087400628112583" fill="#ff6209" stroke="none" /><path d="M 119.196687751892 91.48605970444005 l 14.40644073097893 -6.389413519683298 a36.759763312331835,36.759763312331835 0 0,0 0.2515580710460131,0.5806307112140231 l -14.514289511867625 6.140483663882673" fill="#ff6e0a" stroke="none" /><path d="M 119.61058180528143 92.48833698450437 l 12.04582709031155 -4.614049432280479 a33.89927914471237,33.89927914471237 0 0,0 0.20403396842829488,0.5467095960808633 l -12.123465647241469 4.406016699170282" fill="#ff4106" stroke="none" /><path d="M 119.7369772167798 92.82701384747503 l 11.926263158698218 -4.334347633333715 a33.68945713327044,33.68945713327044 0 0,0 0.1933885841240827,0.5467355693055899 l -11.999104823632111 4.128414437601511" fill="#ff3d05" stroke="none" /><path d="M 120.18372546131832 94.20196356495316 l 60.551176383954946 -17.394109305140535 a84.0,84.0 0 0,0 0.3872529177345476,1.3931547863241924 l -60.84161607225586 16.349243215397394" fill="#4dd2ff" stroke="none" /><path d="M 120.37134235888165 94.90015583598534 l 10.4171358877054 -2.60786789239246 a31.738607686618003,31.738607686618003 0 0,0 0.12811394748643049,0.5311150222688503 l -10.460482635452651 2.4281676384642035" fill="#ff1d03" stroke="none" /><path d="M 120.45610955862082 95.25157060432595 l 10.580064808389857 -2.455925971667611 a31.8613693302475,31.8613693302475 0 0,0 0.11941279067102897,0.5353041260829793 l -10.620771986062923 2.273443676034668" fill="#ff1f03" stroke="none" /><path d="M 120.53481517161879 95.60439243477599 l 10.093733765188569 -2.160627798634448 a31.322391864618382,31.322391864618382 0 0,0 0.10831686432547429,0.5281914984024034 l -10.12942992542904 1.986560644068633" fill="#ff1702" stroke="none" /><path d="M 120.78858239683441 97.02765380044208 l 10.996324451021469 -1.5722516604151184 a32.10815586476039,32.10815586476039 0 0,0 0.07351850461201338,0.5477982531653582 l -11.021758954691318 1.3827350651850958" fill="#ff2303" stroke="none" /><path d="M 120.87857604477298 97.74499172005257 l 10.846723669635436 -1.171509571959203 a31.909805178948965,31.909805178948965 0 0,0 0.05428142666248392,0.5466065587296328 l -10.865282221980149 0.9846274825251352" fill="#ff2003" stroke="none" /><line stroke="#e1ed5e" stroke-width="0.3" x1="184.98032266829074" x2="189.97916517819016" y1="98.17113171792111" y2="98.06355123074" /><path d="M 185.9800911702706 98.14961562048488 a86.0,86.0 0 0,1 -9.607161424134198,41.387399972396054" fill="none" id="id40" stroke="none" /><text fill="#e1ed5e" style="font-size:6.75px; font-family:Arial;" text-anchor="middle"><textPath startOffset="21.466115282336823" xlink:href="#id40">April</textPath></text><path d="M 120.99824983174949 100.27111621757518 l 10.769997637195697 0.13905544729138516 a31.770895298099518,31.770895298099518 0 0,0 -0.011767239622371877,0.5467773867713868 l -10.766008334888317 -0.3244226498528867" fill="#ff1e03" stroke="none" /><path d="M 120.9764740272857 100.99374915477107 l 10.970864044999896 0.5197387729532363 a31.983168317292712,31.983168317292712 0 0,0 -0.030785549612897374,0.5496966689007489 l -10.96029214449947 -0.7085071581894086" fill="#ff2103" stroke="none" /><path d="M 120.92983693683757 101.71520430193887 l 15.029913167221936 1.2317043749544814 a36.08029792416295,36.08029792416295 0 0,0 -0.05605401362948652,0.6185513694957637 l -15.006484557315375 -1.4902371329988156" fill="#ff6309" stroke="none" /><path d="M 120.8583938346157 102.4346265915055 l 11.198099374022688 1.3070608756591793 a32.27412248129167,32.27412248129167 0 0,0 -0.06915651438288067,0.5512454633330176 l -11.173941350392958 -1.499624093279592" fill="#ff2603" stroke="none" /><path d="M 120.76222939487914 103.15116336523771 l 8.972124664721024 1.3617338491977045 a30.074874107961286,30.074874107961286 0 0,0 -0.08208757246064055,0.5111593920711156 l -8.947355337899095 -1.515972470962025" fill="#ff0200" stroke="none" /><path d="M 120.64145759157962 103.86396538481128 l 9.113531948064752 1.7060021960396392 a30.271834126066373,30.271834126066373 0 0,0 -0.10028635852857218,0.5113579815570561 l -9.082815656560516 -1.8626239046646402" fill="#ff0500" stroke="none" /><path d="M 120.5718875245553 104.21870165774334 l 9.295142997727172 1.9061661272776511 a30.488580117856262,30.488580117856262 0 0,0 -0.10985465345449649,0.5132043684421493 l -9.260954305548232 -2.0658843151359694" fill="#ff0901" stroke="none" /><path d="M 120.41448212921028 104.9243191809786 l 8.935750104918931 2.1554544151341664 a30.192040778482223,30.192040778482223 0 0,0 -0.12621521803299438,0.5041670558472519 l -8.897323572590876 -2.3089493103788143" fill="#ff0400" stroke="none" /><path d="M 120.32669344350535 105.2749913415812 l 9.382600078226178 2.434883681978092 a30.69339170634784,30.69339170634784 0 0,0 -0.1371145771222777,0.5102543493466886 l -9.339297424762123 -2.5960289645003285" fill="#ff0c01" stroke="none" /><path d="M 120.23288151984713 105.62410040840565 l 8.783610148524719 2.441565496992403 a30.116635855257694,30.116635855257694 0 0,0 -0.1431362862178487,0.4982761900409503 l -8.740281225420771 -2.5923991625379355" fill="#ff0200" stroke="none" /><path d="M 120.02730092923936 106.31721596034902 l 8.864297930518994 2.796067456209646 a30.294824959119886,30.294824959119886 0 0,0 -0.16115079533524285,0.4959711498059791 l -8.814854884167504 -2.9482375059934203" fill="#ff0500" stroke="none" /><path d="M 119.9155931802556 106.66101706037122 l 8.565475580870409 2.864829506104555 a30.03186691805933,30.03186691805933 0 0,0 -0.16819156730744925,0.4888434233229564 l -8.514893182619728 -3.011845632516812" fill="#ff0100" stroke="none" /><path d="M 119.79798401119884 107.00284435728193 l 8.58460624096802 3.036504188509536 a30.105812539213787,30.105812539213787 0 0,0 -0.17701606911035875,0.48707219681515834 l -8.531065910852435 -3.183824182330825" fill="#ff0200" stroke="none" /><line stroke="#e1ed5e" stroke-width="0.3" x1="174.80103733775053" x2="179.2010983576182" y1="140.37084112569926" y2="142.7455964860345" /><path d="M 175.68104954172406 140.8457921977663 a86.0,86.0 0 0,1 -30.038265399797805,32.042727171017184" fill="none" id="id41" stroke="none" /><text fill="#e1ed5e" style="font-size:6.75px; font-family:Arial;" text-anchor="middle"><textPath startOffset="22.206326154141568" xlink:href="#id41">May</textPath></text><path d="M 118.30583269289576 110.29060199501025 l 7.820362488321143 4.396207436947271 a29.97132706333968,29.97132706333968 0 0,0 -0.25668015928599075,0.4475434933501385 l -7.743530332882773 -4.530170776155725" fill="#ff0000" stroke="none" /><path d="M 114.81725581225074 114.88116024355365 l 6.4819616284945925 6.509917282149015 a30.18666694583507,30.18666694583507 0 0,0 -0.3713679449082157,0.36346169668404743 l -6.3689437312105825 -6.620529081755634" fill="#ff0400" stroke="none" /><path d="M 114.29624159901734 115.38237550388516 l 6.7709929552881505 7.285408227821395 a30.946030295880334,30.946030295880334 0 0,0 -0.3933099727705971,0.3592793348364939 l -6.644583433050689 -7.400880329244472" fill="#ff1001" stroke="none" /><path d="M 112.92097659922987 116.55440617244103 l 6.191507744166691 7.932584137862968 a31.062835547217855,31.062835547217855 0 0,0 -0.42433500619180414,0.3253619881749601 l -6.054044009481393 -8.0379854678653" fill="#ff1202" stroke="none" /><path d="M 112.63410532772338 116.77436683061366 l 5.687131094336264 7.550833297301332 a30.452964803055224,30.452964803055224 0 0,0 -0.42143282224201495,0.31176592685880244 l -5.556313301675685 -7.647609172899903" fill="#ff0801" stroke="none" /><path d="M 112.34349029814194 116.9893568818739 l 5.673694826258509 7.809170981133046 a30.652666180599173,30.652666180599173 0 0,0 -0.42953533264385924,0.3064620549709731 l -5.538432165765765 -7.9056772979482375" fill="#ff0b01" stroke="none" /><path d="M 111.45004920935366 117.60387380957326 l 5.901138651760054 9.072703379607855 a31.823002540960815,31.823002540960815 0 0,0 -0.4617641898922634,0.2947197536057212 l -5.74409265982086 -9.172937562037385" fill="#ff1f03" stroke="none" /><line stroke="#e1ed5e" stroke-width="0.3" x1="143.8653032363475" x2="146.44561519142675" y1="172.8068346515853" y2="177.08958963109032" /><path d="M 144.38136562736335 173.6633856474863 a86.0,86.0 0 0,1 -40.68145358897372,12.25698825130547" fill="none" id="id42" stroke="none" /><text fill="#e1ed5e" style="font-size:6.75px; font-family:Arial;" text-anchor="middle"><textPath startOffset="21.466115282336833" xlink:href="#id42">June</textPath></text><path d="M 108.2653958097858 119.30500536409082 l 5.916456308411299 13.818723676252965 a36.03201847025123,36.03201847025123 0 0,0 -0.5722717396068294,0.239209633568267 l -5.6777131093070095 -13.918518352841206" fill="#ff6309" stroke="none" /><path d="M 107.93186726928326 119.44442032107085 l 3.708131996139975 9.09022739427061 a30.81745776565119,30.81745776565119 0 0,0 -0.49290164540248355,0.1961357370362847 l -3.551109274695625 -9.152709975712964" fill="#ff0e01" stroke="none" /><path d="M 106.2309692047433 120.05430185196036 l 2.9274618116967748 9.422001762929982 a30.866313895249768,30.866313895249768 0 0,0 -0.5087430326632725,0.15328010245871124 l -2.7648438045932564 -9.470997234494419" fill="#ff0f01" stroke="none" /><path d="M 105.53697534728816 120.25689768951611 l 4.377401126266144 16.014621918837875 a37.602100946071815,37.602100946071815 0 0,0 -0.6258235071913778,0.16528567627058657 l -4.1010871762632695 -16.087598944412047" fill="#ff7b0b" stroke="none" /><path d="M 103.06178313531738 120.77559828337769 l 1.4864762631418802 10.08642099585245 a31.195366603828298,31.195366603828298 0 0,0 -0.5319128032512428,0.07371826773012066 l -1.312634868703807 -10.110513829075172" fill="#ff1402" stroke="none" /><path d="M 102.70371172650421 120.8252237178851 l 1.2912105878988391 9.945494224216958 a31.02896206724479,31.02896206724479 0 0,0 -0.5302592179577671,0.06420700670634594 l -1.1198239468896918 -9.966246759648653" fill="#ff1202" stroke="none" /><path d="M 102.34483914955558 120.86867818915974 l 1.3796805961387764 12.278927691097742 a33.3561961699614,33.3561961699614 0 0,0 -0.5711333735212935,0.05920030938895591 l -1.1681146260118804 -12.300857368942456" fill="#ff3805" stroke="none" /><path d="M 101.98527174616119 120.90594882070398 l 0.9457639849970867 9.959388937583148 a31.004193996788104,31.004193996788104 0 0,0 -0.5317303162755627,0.04587992909274121 l -0.7741893509799823 -9.974193118954553" fill="#ff1101" stroke="none" /><path d="M 101.26447882468166 120.96189622390904 l 0.5610789245324002 9.301285209288976 a30.31819274881628,30.31819274881628 0 0,0 -0.5212013964982192,0.02694015882446291 l -0.4008894596207014 -9.30956517487564" fill="#ff0600" stroke="none" /><path d="M 100.90346689309514 120.98055641714683 l 0.4047184651999793 9.398483394449128 a30.407193372723334,30.407193372723334 0 0,0 -0.5231190537265872,0.018017277925406746 l -0.24287905979873986 -9.404057470800629" fill="#ff0701" stroke="none" /><line stroke="#e1ed5e" stroke-width="0.3" x1="102.19456741930631" x2="102.32365962044197" y1="184.97166512339345" y2="189.96999836594603" /><path d="M 102.22038585953345 185.97133177190398 a86.0,86.0 0 0,1 -42.740103519485714,-10.115201625700543" fill="none" id="id43" stroke="none" /><text fill="#e1ed5e" style="font-size:6.75px; font-family:Arial;" text-anchor="middle"><textPath startOffset="22.20632615414155" xlink:href="#id43">July</textPath></text><path d="M 99.45781275523022 120.99299961872073 l -0.5064722239514183 19.61014632282508 a40.61668557418007,40.61668557418007 0 0,0 -0.6987610419229225,-0.024066743136356726 l 0.8439536175489839 -19.59852278126263" fill="#ffa90f" stroke="none" /><path d="M 97.2962882734958 120.8252237178851 l -1.9411485524694132 14.95161354612767 a36.07709538788896,36.07709538788896 0 0,0 -0.6151512557823086,-0.08525435878041568 l 2.1982283994385527 -14.91598462185465" fill="#ff6309" stroke="none" /><path d="M 96.93821686468263 120.77559828337769 l -2.221608333685723 15.074628163981497 a36.2374524731205,36.2374524731205 0 0,0 -0.6163199246471185,-0.09625649697045094 l 2.4807641219413585 -15.03415335966394" fill="#ff6609" stroke="none" /><path d="M 96.22490169976321 120.6578951692458 l -5.964400804926558 32.63808165414118 a54.17858422272108,54.17858422272108 0 0,0 -0.9159596188438567,-0.17554584095368686 l 6.525328038342109 -32.53057861483903" fill="#9aff22" stroke="none" /><path d="M 95.51606077576429 120.51570834832081 l -3.210393340386602 14.688756952540848 a36.035498202946776,36.035498202946776 0 0,0 -0.6048470011013546,-0.13766120823789474 l 3.462760490880819 -14.631319010725266" fill="#ff6309" stroke="none" /><path d="M 94.81253420990036 120.34920634021253 l -3.7271285317179 14.62064727119176 a36.088234281073206,36.088234281073206 0 0,0 -0.6006277515853871,-0.15863124821438557 l 3.9782467261147763 -14.554324673673792" fill="#ff6309" stroke="none" /><path d="M 94.46302465271185 120.25689768951611 l -4.374216751671997 16.002971957204903 a37.59002361823799,37.59002361823799 0 0,0 -0.6226856003331631,-0.175977170492498 l 4.649033520109774 -15.925305993373883" fill="#ff7b0b" stroke="none" /><path d="M 93.76903079525671 120.05430185196036 l -11.631126422610963 37.43464499548299 a60.1999457626742,60.1999457626742 0 0,0 -0.986931254893896,-0.31598422155522077 l 12.273779022595798 -37.22888792726807" fill="#51ff2b" stroke="none" /><path d="M 93.08242187328487 119.8279376855182 l -5.447722086290222 15.614871574464827 a37.53789255668581,37.53789255668581 0 0,0 -0.608257646296341,-0.21809955119138577 l 5.715699293216289 -15.518784482233484" fill="#ff7a0b" stroke="none" /><path d="M 92.40401165467489 119.57807347666478 l -6.058829077099747 15.616164146304367 a37.75034305409389,37.75034305409389 0 0,0 -0.6037878382885605,-0.24025964161586547 l 6.326737991430166 -15.509557660282436" fill="#ff7d0b" stroke="none" /><path d="M 91.7346041902142 119.30500536409082 l -5.937797198762215 13.868568355464967 a36.08623955145326,36.08623955145326 0 0,0 -0.5689241830873432,-0.24939964272493217 l 6.175642056507302 -13.764304159445583" fill="#ff6309" stroke="none" /><path d="M 91.40352486487194 119.15986991738527 l -13.580531146697512 30.268360704779433 a54.17535962097558,54.17535962097558 0 0,0 -0.847539975061901,-0.38906403334021034 l 14.099539117526833 -30.030109601105146" fill="#9aff22" stroke="none" /><path d="M 90.7491055286396 118.85261126421891 l -7.6807754248785844 15.652829436255349 a38.435750069553094,38.435750069553094 0 0,0 -0.5914458304884833,-0.29656321762095855 l 7.949075163049828 -15.518298377725088" fill="#ff880c" stroke="none" /><path d="M 90.42595943632237 118.69057910512821 l -7.02313253304481 13.71065991433932 a36.40475854609164,36.40475854609164 0 0,0 -0.5552750168399743,-0.29049364489266016 l 7.25809845241128 -13.587736850501942" fill="#ff6809" stroke="none" /><path d="M 90.10565033884886 118.52300852407294 l -7.9002144647310555 14.789829032097549 a37.76760064491701,37.76760064491701 0 0,0 -0.570789280721518,-0.3112398262955612 l 8.153626557321214 -14.651648554042222" fill="#ff7e0b" stroke="none" /><line stroke="#e1ed5e" stroke-width="0.3" x1="58.666819895761336" x2="56.23545636021788" y1="174.27360380694188" y2="178.64263932499728" /><path d="M 58.180547188652646 175.14741091055294 a86.0,86.0 0 0,1 -31.652253787137756,-30.449443065178592" fill="none" id="id44" stroke="none" /><text fill="#e1ed5e" style="font-size:6.75px; font-family:Arial;" text-anchor="middle"><textPath startOffset="22.20632615414155" xlink:href="#id44">August</textPath></text><path d="M 89.7882731507175 118.34994917583269 l -8.031363319901672 14.431947789829263 a37.51617128103907,37.51617128103907 0 0,0 -0.5615835572661821,-0.3188818002462751 l 8.278595644089062 -14.291562823788356" fill="#ff7a0b" stroke="none" /><path d="M 89.4739219176387 118.17145234162733 l -8.065325666024368 13.92338911160617 a37.09068806646331,37.09068806646331 0 0,0 -0.5497054196165503,-0.3247756512508791 l 8.3037989566693 -13.782494888061542" fill="#ff730a" stroke="none" /><path d="M 89.1626897886671 117.98757091392108 l -17.277288569243666 28.67653017946834 a54.47906933352354,54.47906933352354 0 0,0 -0.7990803106216736,-0.490860392112337 l 17.768348079797647 -28.374881320527624" fill="#96ff23" stroke="none" /><path d="M 88.54995079064634 117.60387380957326 l -9.044762198483886 13.905866207949378 a37.58857553319487,37.58857553319487 0 0,0 -0.5393518498321735,-0.35745299611130793 l 9.28278874705602 -13.748115190746752" fill="#ff7b0b" stroke="none" /><path d="M 87.65650970185807 116.9893568818739 l -9.54770633156956 13.141290376740498 a37.243528217715074,37.243528217715074 0 0,0 -0.5154061454623001,-0.38128514479230996 l 9.772497447450425 -12.974995283208422" fill="#ff750a" stroke="none" /><path d="M 87.07902340077011 116.55440617244103 l -27.83041294344311 35.65643481158979 a66.2317723295884,66.2317723295884 0 0,0 -0.8926860429495145,-0.7092037815360872 l 28.440056479109984 -35.172097116048576" fill="#34ff59" stroke="none" /><path d="M 86.51685102203217 116.09983520530335 l -9.683919552232377 11.563286083030041 a36.08270144676028,36.08270144676028 0 0,0 -0.4727427079222258,-0.402881591625348 l 9.881527736731659 -11.394880101181743" fill="#ff6309" stroke="none" /><path d="M 86.24171649860922 115.8653595955263 l -10.378041948195591 11.96743528281964 a36.840557500510634,36.840557500510634 0 0,0 -0.47551975398561785,-0.41959089515854636 l 10.582504055087798 -11.787021245888804" fill="#ff6f0a" stroke="none" /><path d="M 85.70375840098266 115.38237550388516 l -11.299545162773333 12.158009887636187 a37.59810005131351,37.59810005131351 0 0,0 -0.47027017040327834,-0.44466979890034847 l 11.507151167567427 -11.961705451989907" fill="#ff7b0b" stroke="none" /><path d="M 85.44109423537348 115.13401014063109 l -11.55658179145781 12.013088679226145 a37.66939957879724,37.66939957879724 0 0,0 -0.46342338929321447,-0.45355732411749905 l 11.761655133126819 -11.812381252186077" fill="#ff7c0b" stroke="none" /><path d="M 85.18274418774928 114.88116024355367 l -28.534956384605355 28.65802304304184 a61.441637214717794,61.441637214717794 0 0,0 -0.7430323706006865,-0.7526878685179766 l 29.024029380261577 -28.162594680543197" fill="#43ff2d" stroke="none" /><path d="M 84.67929136418377 114.36230785411682 l -11.059658555706534 10.367811614610197 a36.15940516791008,36.15940516791008 0 0,0 -0.4217798181246369,-0.4577586900485089 l 11.236484781826901 -10.175901669760345" fill="#ff6509" stroke="none" /><path d="M 84.43433777217949 114.09645910891817 l -11.461479385288495 10.379659607007305 a36.46295066462841,36.46295066462841 0 0,0 -0.41731178609298475,-0.46885421556734264 l 11.638450021029819 -10.180831221699098" fill="#ff6909" stroke="none" /><path d="M 83.95833913139862 113.55231037782056 l -12.785928663097353 10.801803823825331 a37.73794902687369,37.73794902687369 0 0,0 -0.414944923148522,-0.4998278905447433 l 12.969969586139412 -10.580114676166827" fill="#ff7d0b" stroke="none" /><path d="M 83.72743513129214 113.27417163493432 l -12.483873166994806 10.183586694812107 a37.11063397946732,37.11063397946732 0 0,0 -0.399526172145038,-0.4984703297082191 l 12.657317251194707 -9.967188531525629" fill="#ff730a" stroke="none" /><path d="M 83.50135304334701 112.99209946851258 l -37.32555470085676 29.392550835533225 a68.50914731234455,68.50914731234455 0 0,0 -0.7216074449377954,-0.9327748962445819 l 37.82596896301263 -28.74569794517539" fill="#37ff77" stroke="none" /><path d="M 83.06392112726016 112.41649034213515 l -12.554127226030257 9.203913174190559 a36.566570853126024,36.566570853126024 0 0,0 -0.36779041370044474,-0.5108287167712895 l 12.71069743210631 -8.986450851968131" fill="#ff6b09" stroke="none" /><path d="M 82.85270091963577 112.12312394758628 l -13.545605407558966 9.576729987113762 a37.58906818068377,37.58906818068377 0 0,0 -0.36897982930413575,-0.5315429639286752 l 13.708446144025237 -9.342145760998074" fill="#ff7b0b" stroke="none" /><path d="M 82.6465618267979 111.8261652097733 l -13.675643646680461 9.319791242601166 a37.54937273604825,37.54937273604825 0 0,0 -0.3593955863676516,-0.537247638186137 l 13.834042338458843 -9.083006690209208" fill="#ff7a0b" stroke="none" /><path d="M 82.44556493220864 111.52570212397912 l -18.016613840407498 11.829154490325761 a42.55289470652045,42.55289470652045 0 0,0 -0.3967452301316839,-0.6157574077204051 l 18.217563933916228 -11.517275482683909" fill="#ffc612" stroke="none" /><path d="M 82.24976979558568 111.22182372390057 l -13.392295204267107 8.466705744658434 a36.84420010618611,36.84420010618611 0 0,0 -0.3342915687322908,-0.5389844495491759 l 13.536051412667353 -8.234924963743994" fill="#ff6f0a" stroke="none" /><path d="M 82.05923443525364 110.91462005526583 l -13.8736606789656 8.440316247381476 a37.23937803583893,37.23937803583893 0 0,0 -0.3284497613971707,-0.5505006924966372 l 14.016891316061 -8.200253460998729" fill="#ff750a" stroke="none" /><line stroke="#e1ed5e" stroke-width="0.3" x1="26.63291911575756" x2="22.317208475507996" y1="142.92168965132927" y2="145.44649492493687" /><path d="M 25.769776987707644 143.4266507060508 a86.0,86.0 0 0,1 -11.730757126820373,-40.83630448921669" fill="none" id="id45" stroke="none" /><text fill="#e1ed5e" style="font-size:6.75px; font-family:Arial;" text-anchor="middle"><textPath startOffset="21.46611528233685" xlink:href="#id45">September</textPath></text><path d="M 81.69416730710424 110.29060199501025 l -14.438321322319227 8.116485095033056 a37.56328629543159,37.56328629543159 0 0,0 -0.31199634611665805,-0.5663639936665086 l 14.575894077887403 -7.866750582968725" fill="#ff7a0b" stroke="none" /><path d="M 81.51974371655577 109.97397251340807 l -14.038165170872292 7.576533106762054 a36.95223919337199,36.95223919337199 0 0,0 -0.2972851489140122,-0.5623514669117926 l 14.16650282801119 -7.333766624764134" fill="#ff710a" stroke="none" /><path d="M 81.18737489456691 109.33194174019688 l -14.028704835890919 6.958893587963119 a36.65984544435683,36.65984544435683 0 0,0 -0.2755541531618789,-0.5677231719576469 l 14.146412245667516 -6.716381460040187" fill="#ff6c0a" stroke="none" /><path d="M 81.02952815118164 109.00673069616217 l -15.803300588245213 7.503032799771483 a38.49399355998733,38.49399355998733 0 0,0 -0.27903632947782453,-0.6010194294579956 l 15.930111534562863 -7.22989330303466" fill="#ff890c" stroke="none" /><path d="M 80.87730276802145 108.67885076344099 l -38.18001095598914 17.32802717178656 a62.928197698751895,62.928197698751895 0 0,0 -0.4391756378354594,-0.9902251243366225 l 38.472627678555874 -16.66825371095724" fill="#32ff2f" stroke="none" /><path d="M 80.58989483394504 108.01547362559985 l -13.494551888637428 5.572624353515864 a35.599899755153324,35.599899755153324 0 0,0 -0.22902158998191782,-0.5684128044112223 l 13.588476092876734 -5.339512181261836" fill="#ff5c08" stroke="none" /><path d="M 80.45479744820244 107.68017299344265 l -15.087470018652795 5.928533074525543 a37.21046748183069,37.21046748183069 0 0,0 -0.22912030020954385,-0.5981608042374844 l 15.187284598455847 -5.6679487034549005" fill="#ff750a" stroke="none" /><path d="M 80.32549172779594 107.34259656027581 l -14.238439119791478 5.3138361913919105 a36.19769731363784,36.19769731363784 0 0,0 -0.21283511551003026,-0.5856308288387719 l 14.327798496306732 -5.0679575655470215" fill="#ff6509" stroke="none" /><path d="M 80.20201598880116 107.00284435728193 l -14.896481000979318 5.269109110405261 a36.80090684201048,36.80090684201048 0 0,0 -0.20610114639164337,-0.59902640522224 l 14.98497297831419 -5.011910002093724" fill="#ff6f0a" stroke="none" /><path d="M 79.97269907076064 106.31721596034903 l -44.18036884848636 13.935823514605033 a67.32614994383326,67.32614994383326 0 0,0 -0.3391097225854978,-1.1082301941666486 l 44.41370534357799 -13.173266347886337" fill="#35ff67" stroke="none" /><path d="M 79.76711848015287 105.62410040840567 l -15.339897279125678 4.264005720974718 a36.92150097580729,36.92150097580729 0 0,0 -0.1649370014709294,-0.6137919405439292 l 15.411022356938382 -3.9993228472552507" fill="#ff700a" stroke="none" /><path d="M 79.50377843672027 104.57218783832718 l -15.892889504365 3.5453010635833335 a37.28352223658629,37.28352223658629 0 0,0 -0.13433778808428526,-0.6275814225773055 l 15.951561331173727 -3.2712058215898643" fill="#ff760a" stroke="none" /><path d="M 79.4281124754447 104.21870165774334 l -15.138475582176154 3.1044653514658087 a36.45351571878048,36.45351571878048 0 0,0 -0.12076540627753117,-0.6157802048261862 l 15.189670921429352 -2.843421419571668" fill="#ff6909" stroke="none" /><path d="M 79.29508885075956 103.50808413554451 l -17.159629694099397 2.907398359151951 a38.40419077284024,38.40419077284024 0 0,0 -0.10482194477492894,-0.652726350173853 l 17.20713339323562 -2.6115927792848845" fill="#ff870c" stroke="none" /><path d="M 79.23777060512086 103.15116336523772 l -15.39614983395268 2.336732843074579 a36.572467694280974,36.572467694280974 0 0,0 -0.08910785791631719,-0.6232201507261412 l 15.434091742885597 -2.071367220368037" fill="#ff6b09" stroke="none" /><path d="M 79.18660465613746 102.79330883721812 l -15.953462907868 2.1410706032603155 a37.096495335347555,37.096495335347555 0 0,0 -0.07948982392009422,-0.6336121073785301 l 15.987954241034942 -1.866140741594377" fill="#ff730a" stroke="none" /><path d="M 79.10278846688536 102.07522291339032 l -16.55898673725516 1.6444102432147067 a37.640436497056854,37.640436497056854 0 0,0 -0.05847783033445657,-0.6452979848617276 l 16.584839163866693 -1.3591308698044129" fill="#ff7c0b" stroke="none" /><path d="M 79.07016306316243 101.71520430193888 l -14.626220837851625 1.1986217082292165 a35.675252297560114,35.675252297560114 0 0,0 -0.04488871124855311,-0.6124708007393372 l 14.644686107764512 -0.9466777709931187" fill="#ff5d08" stroke="none" /><path d="M 79.04373962182676 101.35467743843564 l -33.06655853253628 2.137524539320655 a54.13557460406935,54.13557460406935 0 0,0 -0.0521084528356434,-0.9304314298591249 l 33.098453336259446 -1.5680213931260922" fill="#9bff22" stroke="none" /><path d="M 79.0095281055655 100.63252640178507 l -14.538978342162345 0.4381172420824627 a35.54557795179262,35.54557795179262 0 0,0 -0.013165298911153528,-0.6117397083525575 l 14.544365703758507 -0.1877877179397764" fill="#ff5b08" stroke="none" /><line stroke="#e1ed5e" stroke-width="0.3" x1="15.007084014347285" x2="10.007500721073583" y1="101.09737516637583" y2="101.16192664675087" /><path d="M 14.007167355692545 101.11028546245083 a86.0,86.0 0 0,1 10.666146001902534,-42.60595125391555" fill="none" id="id46" stroke="none" /><text fill="#e1ed5e" style="font-size:6.75px; font-family:Arial;" text-anchor="middle"><textPath startOffset="22.20632615414155" xlink:href="#id46">October</textPath></text><path d="M 79.00175016825051 100.2711162175752 l -14.616155655496264 0.18871462472157963 a35.617373887100214,35.617373887100214 0 0,0 -0.0026385735760450666,-0.6131115748315544 l 14.617238526361811 0.06290642831365018" fill="#ff5c08" stroke="none" /><path d="M 79.00486145842228 99.54816195383935 l -14.552494683283815 -0.313185395344577 a35.55586433705882,35.55586433705882 0 0,0 0.01843538641883474,-0.6117807247183982 l 14.544947602409335 0.5636362674879697" fill="#ff5b08" stroke="none" /><path d="M 79.01574976396665 99.18683210126434 l -16.902365432685915 -0.6549893766972857 a37.9150515312145,37.9150515312145 0 0,0 0.030885225016192203,-0.6519382857018013 l 16.888586599436227 0.9458387690220962" fill="#ff800b" stroke="none" /><path d="M 79.05617556472873 98.46500227214037 l -18.884449924491506 -1.3840637279768158 a39.93510183108948,39.93510183108948 0 0,0 0.05614783310875544,-0.6851457811729385 l 18.85782760756325 1.7089234263575326" fill="#ff9f0e" stroke="none" /><path d="M 79.21141760316559 97.0276538004421 l -23.868635922440095 -3.4127314656866337 a45.11137733218253,45.11137733218253 0 0,0 0.1165250647193693,-0.7677545857017759 l 23.806354964281425 3.823085163780502" fill="#ffea16" stroke="none" /><path d="M 79.26566170972629 96.67025291283419 l -14.894830094449746 -2.391974917477291 a36.085672260405445,36.085672260405445 0 0,0 0.10376888445701003,-0.6124498300850382 l 14.851449348472514 2.648010535878157" fill="#ff6309" stroke="none" /><path d="M 79.32604984820605 96.31383870115002 l -31.350997267067118 -5.5898767268811715 a52.845435331635485,52.845435331635485 0 0,0 0.167379803607236,-0.8941496037792385 l 31.25013173955002 6.1287044081229824" fill="#abff21" stroke="none" /><path d="M 79.46518482838121 95.60439243477599 l -11.794817427647077 -2.5247555569458973 a33.06201097553208,33.06201097553208 0 0,0 0.12391265908450542,-0.5554761538450746 l 11.749610381560535 2.727409880340931" fill="#ff3304" stroke="none" /><path d="M 79.54389044137918 95.25157060432595 l -11.6666916952745 -2.7081621574890873 a32.97688763343144,32.97688763343144 0 0,0 0.13311230575236904,-0.551836444204591 l 11.618346589261316 2.908583833353075" fill="#ff3204" stroke="none" /><path d="M 79.71946130924805 94.55025226153421 l -11.518881416187657 -3.095331879727142 a32.92751895935817,32.92751895935817 0 0,0 0.15180092608061183,-0.5461086980953768 l 11.463893719540685 3.2931518812414615" fill="#ff3104" stroke="none" /><path d="M 79.91906864156998 93.8553929516997 l -11.872423048545365 -3.6328680698303217 a33.41580281159555,33.41580281159555 0 0,0 0.17303739577352625,-0.5485758313345389 l 11.808130169003634 3.8366940675912753" fill="#ff3905" stroke="none" /><path d="M 80.65960295795068 91.81776055985345 l -13.893484756651628 -5.877843080976589 a36.08568718911722,36.08568718911722 0 0,0 0.2469451662279574,-0.5699834908957419 l 13.79024888058099 6.116125716458931" fill="#ff6309" stroke="none" /><path d="M 80.803312248108 91.48605970444005 l -14.020442314738467 -6.2182190140203035 a36.337504699501565,36.337504699501565 0 0,0 0.2585113814018502,-0.5695955619368444 l 13.911328616373265 6.458636584799219" fill="#ff6709" stroke="none" /><path d="M 80.95270993114464 91.15688171328213 l -16.41068355021588 -7.619016420490478 a39.093091106857045,39.093091106857045 0 0,0 0.2886220692150513,-0.6079116855714205 l 16.277103287159076 7.900370521702431" fill="#ff920d" stroke="none" /><path d="M 81.10775173730289 90.83032412892265 l -14.59392032355301 -7.083408877255804 a37.22212044501581,37.22212044501581 0 0,0 0.2847314736254214,-0.5740012762788161 l 14.469828836974177 7.333569742033582" fill="#ff750a" stroke="none" /><path d="M 81.26839172434947 90.50648371742162 l -13.470056177844045 -6.826866960368723 a36.10127563912561,36.10127563912561 0 0,0 0.28569959343377394,-0.5518806781598934 l 13.350547151250156 7.057720360788952" fill="#ff6409" stroke="none" /><path d="M 81.6062741919709 89.86733742301443 l -14.119290488209247 -7.777978634487196 a37.11990432753791,37.11990432753791 0 0,0 0.3131194003609227,-0.5570044744404927 l 13.983313446555893 8.019866618862473" fill="#ff740a" stroke="none" /><line stroke="#e1ed5e" stroke-width="0.3" x1="26.266209847984243" x2="21.928928074336255" y1="57.711370442889674" y2="55.22380399835377" /><path d="M 25.398753493254645 57.213857153982495 a86.0,86.0 0 0,1 29.58750427330803,-30.492523968695096" fill="none" id="id47" stroke="none" /><text fill="#e1ed5e" style="font-size:6.75px; font-family:Arial;" text-anchor="middle"><textPath startOffset="21.46611528233685" xlink:href="#id47">November</textPath></text><path d="M 81.78341655067845 89.55222093294921 l -14.258694652364332 -8.17780633382103 a37.43736261152763,37.43736261152763 0 0,0 0.3254203980038447,-0.5562489467604425 l 14.115814579890161 8.422034692935364" fill="#ff780b" stroke="none" /><path d="M 81.96595687620814 89.24020034530311 l -14.133123242667523 -8.432361702940648 a37.45751793198625,37.45751793198625 0 0,0 0.33512742165861675,-0.5508613653843454 l 13.98588002272269 8.674390841532068" fill="#ff790b" stroke="none" /><path d="M 82.15384107792192 88.93136811851018 l -12.802592573386352 -7.940486518261263 a36.06511542427791,36.06511542427791 0 0,0 0.33175166848450344,-0.5247514692069736 l 12.664013308655887 8.159685635182452" fill="#ff6309" stroke="none" /><path d="M 82.34701348167596 88.62581576622439 l -12.408929602390335 -7.995329928736576 a35.76166774271898,35.76166774271898 0 0,0 0.3378683431127416,-0.5145966663753446 l 12.269464623919673 8.207744659089588" fill="#ff5e08" stroke="none" /><path d="M 82.54541684631803 88.32363383020206 l -12.532724816455444 -8.383854416562125 a36.07840197776629,36.07840197776629 0 0,0 0.3497466647829403,-0.5132100740972804 l 12.386553686003763 8.59834251392982" fill="#ff6309" stroke="none" /><path d="M 82.7489923806493 88.02491185347247 l -12.44080779357404 -8.636003949992052 a36.14444659870181,36.14444659870181 0 0,0 0.35918523187246215,-0.5080420379099848 l 12.2903099418977 8.848872488233823" fill="#ff6409" stroke="none" /><path d="M 82.95767976084542 87.72973835380427 l -12.23232643812874 -8.807125076354207 a36.07299778410023,36.07299778410023 0 0,0 0.3671499192940512,-0.500792077305712 l 12.078913906321056 9.01637959733142" fill="#ff6309" stroke="none" /><path d="M 83.17141714833178 87.43820079747576 l -15.447520367296555 -11.530896614485082 a40.27660401191002,40.27660401191002 0 0,0 0.41949820683194783,-0.5520104671637631 l 15.246746220240498 11.79509185752987" fill="#ffa40f" stroke="none" /><path d="M 83.84228863543731 86.58626213691792 l -12.609296591726217 -10.467930470043243 a37.388164292066946,37.388164292066946 0 0,0 0.4153458052637575,-0.4916384266214547 l 12.427240172975335 10.683427846293814" fill="#ff780b" stroke="none" /><path d="M 84.07557802195018 86.31012108654704 l -12.359955805709399 -10.625584940478543 a37.2994344333297,37.2994344333297 0 0,0 0.4227413751941531,-0.4832664700827287 l 12.175222566937403 10.836766966764214" fill="#ff760a" stroke="none" /><path d="M 84.31358615837235 86.03803664274999 l -8.866674826425696 -7.891936951113957 a32.87015548836362,32.87015548836362 0 0,0 0.37981677443765927,-0.419403168815397 l 8.729514411371992 8.04339290719891" fill="#ff3004" stroke="none" /><path d="M 84.5562425177563 85.77008943001954 l -10.806416733413837 -9.957055067409582 a35.69427059202441,35.69427059202441 0 0,0 0.42022810041797115,-0.44827003796891735 l 10.63342131102541 10.141594522256549" fill="#ff5d08" stroke="none" /><path d="M 84.80347519578584 85.50635884689758 l -10.903185362545218 -10.398881198592635 a36.06705615680992,36.06705615680992 0 0,0 0.43235080655692965,-0.44557551086575464 l 10.72257029228517 10.585020905008513" fill="#ff6309" stroke="none" /><path d="M 85.05521093208273 85.24692304244772 l -9.65353891579914 -9.529703088499886 a34.56488313822912,34.56488313822912 0 0,0 0.42163264911499004,-0.41982202452527567 l 9.488070466516838 9.694460963675272" fill="#ff4b07" stroke="none" /><path d="M 85.31137513191541 84.99185889309783 l -12.323957389329161 -12.592035888695195 a38.61928754394424,38.61928754394424 0 0,0 0.47909388214034915,-0.46088793503342557 l 12.105380263576386 12.802306910490934" fill="#ff8b0c" stroke="none" /><path d="M 85.57189188830299 84.74124197986013 l -7.457746952934317 -7.887101707950511 a31.85469313087924,31.85469313087924 0 0,0 0.4016605526281416,-0.37329970911946714 l 7.3208785165113195 8.014306003144625" fill="#ff1f03" stroke="none" /><path d="M 86.10567301691215 84.25364557470407 l -9.968569873065183 -11.297318288656495 a36.06657843803281,36.06657843803281 0 0,0 0.46904791585806316,-0.4067537305571956 l 9.772628158560346 11.46723701263337" fill="#ff6309" stroke="none" /><path d="M 86.37877921826538 84.01681056812374 l -7.698864341112575 -9.033875094318027 a32.86943180453868,32.86943180453868 0 0,0 0.4337864423364001,-0.3632836704264972 l 7.542220361817065 9.165059922138337" fill="#ff3004" stroke="none" /><path d="M 86.65592168130627 83.78471172551755 l -7.6200162660938515 -9.25959496489621 a32.99186169072451,32.99186169072451 0 0,0 0.4416142950615578,-0.35708804772412717 l 7.459498572467793 9.389389109884473" fill="#ff3204" stroke="none" /><path d="M 86.93701828274178 83.55741782278169 l -9.657736598194557 -12.156346161913849 a36.52574082639486,36.52574082639486 0 0,0 0.495649858771752,-0.3868625766391369 l 9.44705418426338 12.320787127776207" fill="#ff6a09" stroke="none" /><path d="M 87.22198572758235 83.33499621200491 l -9.679153740281231 -12.623489871549058 a36.90718434120576,36.90718434120576 0 0,0 0.5074805444033946,-0.382223824869598 l 9.460427042119447 12.788230285924511" fill="#ff700a" stroke="none" /><path d="M 87.51073957382395 83.11751280151077 l -9.054111217084179 -12.238988659068486 a36.2239867750907,36.2239867750907 0 0,0 0.5044702187006641,-0.3665190679981989 l 8.842095682029733 12.393026961883352" fill="#ff6609" stroke="none" /><path d="M 87.80319425747018 82.90503203632743 l -7.173698851798709 -10.054612219075745 a33.35140405347851,33.35140405347851 0 0,0 0.470205342447537,-0.3294088912283585 l 6.999562369767511 10.176605953068046" fill="#ff3805" stroke="none" /><path d="M 88.39885842347998 82.49532879139004 l -8.404272225473571 -12.680995321384321 a36.21313360162322,36.21313360162322 0 0,0 0.5225606467128978,-0.33988798059211567 l 8.184744552976385 12.823782226135972" fill="#ff6509" stroke="none" /><path d="M 88.70189139769569 82.29822771554957 l -6.480798212256732 -10.154054825729323 a33.04597753907532,33.04597753907532 0 0,0 0.48212640995760664,-0.3019075136850928 l 6.305052649926883 10.264106680737346" fill="#ff3304" stroke="none" /><path d="M 89.00827224532344 82.1063720568725 l -6.469559123391884 -10.531909677328695 a33.360271708278624,33.360271708278624 0 0,0 0.4918859810556766,-0.2963557998362418 l 6.2873110761185576 10.641712086623556" fill="#ff3805" stroke="none" /><line stroke="#e1ed5e" stroke-width="0.3" x1="56.762969772571076" x2="54.21961505331055" y1="26.818313649435495" y2="22.513508569990535" /><path d="M 56.25429882871897 25.957352633546506 a86.0,86.0 0 0,1 42.265352541879196,-11.944610805530505" fill="none" id="id48" stroke="none" /><text fill="#e1ed5e" style="font-size:6.75px; font-family:Arial;" text-anchor="middle"><textPath startOffset="22.20632615414155" xlink:href="#id48">December</textPath></text><path d="M 89.3179101791058 81.91981866633112 l -9.120315568578155 -15.436769589564522 a38.9296963563735,38.9296963563735 0 0,0 0.579873153543169,-0.33589995875441453 l 8.853245682569666 15.591473705708983" fill="#ff8f0d" stroke="none" /><path d="M 90.58718382345135 81.22770947309562 l -5.465920800729615 -10.900866578483319 a33.194473435197736,33.194473435197736 0 0,0 0.5129790669609902,-0.2517166003141293 l 5.277470466758198 10.993338338932277" fill="#ff3505" stroke="none" /><path d="M 90.91171255644093 81.06846463323043 l -5.412759243694291 -11.275154278535705 a33.507080659969375,33.507080659969375 0 0,0 0.5221069936992131,-0.24513623423224098 l 5.217874038695469 11.366655495407953" fill="#ff3a05" stroke="none" /><path d="M 91.56875222667455 80.76684994638697 l -6.795109905385961 -15.500833560431966 a37.9248149087217,37.9248149087217 0 0,0 0.6001443798554519,-0.2569505031969947 l 6.527281767740201 15.615503591591747" fill="#ff800b" stroke="none" /><path d="M 91.90106846888425 80.62456947434976 l -6.077877638759368 -14.540374305024127 a36.75953938165507,36.75953938165507 0 0,0 0.5859052751210058,-0.23900547292719457 l 5.826688494049982 14.642840664134898" fill="#ff6e0a" stroke="none" /><path d="M 92.23578459929587 80.48803036053334 l -5.815047845054573 -14.613586969065913 a36.728054728501135,36.728054728501135 0 0,0 0.5894272743008631,-0.22868862512660257 l 5.5626374057540335 14.711518298083067" fill="#ff6d0a" stroke="none" /><path d="M 92.57280143429618 80.3572730644239 l -4.3750810790464705 -11.570785700216677 a33.370303802597945,33.370303802597945 0 0,0 0.539037944960955,-0.19853222425746864 l 4.175260808312946 11.644381192280468" fill="#ff3805" stroke="none" /><path d="M 92.91201910852362 80.23233633223022 l -4.173341032337121 -11.639027130751717 a33.36461596340797,33.36461596340797 0 0,0 0.5422830407537395,-0.18919190491235668 l 3.9723759875200964 11.709139888836283" fill="#ff3805" stroke="none" /><path d="M 93.25333710446033 80.11325718540243 l -4.84476067789877 -14.280617112697973 a36.08004413606261,36.08004413606261 0 0,0 0.5898523298172536,-0.19446503925349498 l 4.598225525839107 14.361895876210703" fill="#ff6309" stroke="none" /><path d="M 93.59665428221793 80.00007090966166 l -3.736293525435093 -11.669775280425556 a33.25330748834124,33.25330748834124 0 0,0 0.5466441976534884,-0.16984501313854264 l 3.5348639550708763 11.732360428446624" fill="#ff3605" stroke="none" /><path d="M 93.94186890950719 79.89281104454417 l -4.834811091869135 -16.04693902063422 a37.75946449699435,37.75946449699435 0 0,0 0.6239477882848672,-0.18214746917526622 l 4.557873085860846 16.127784818728184" fill="#ff7d0b" stroke="none" /><path d="M 94.28887869178378 79.79150937346287 l -2.7059637301183113 -9.574904773459412 a30.94992668965614,30.94992668965614 0 0,0 0.5139192745263877,-0.1404735511411273 l 2.540746566368201 9.620064865426835" fill="#ff1001" stroke="none" /><path d="M 94.63758080256005 79.69619591428918 l -3.236046145779924 -12.252687553334637 a33.67281921820313,33.67281921820313 0 0,0 0.5616804411930231,-0.14318485079681248 l 3.024656815901902 12.306575400300312" fill="#ff3d05" stroke="none" /><path d="M 94.98787191387505 79.60689891045804 l -3.599448823908223 -14.64526094929558 a36.081104074599324,36.081104074599324 0 0,0 0.6044037029373163,-0.14304282898481288 l 3.346821434008373 14.705049690421262" fill="#ff6309" stroke="none" /><path d="M 95.33964822691252 79.52364482259891 l -2.843473680584993 -12.493472565200129 a33.812969964437904,33.812969964437904 0 0,0 0.5686331600437956,-0.12428118431163987 l 2.627997796387677 12.540567247607639" fill="#ff3f05" stroke="none" /><path d="M 95.692805502759 79.44645832069477 l -2.5680265227312127 -12.25438976631472 a33.52057621542275,33.52057621542275 0 0,0 0.5657532468934663,-0.11348477899661445 l 2.35670686637061 12.296778501388545" fill="#ff3a05" stroke="none" /><path d="M 96.04723909329186 79.375362276772 l -2.5846470106982005 -13.486120080677741 a34.73156345797413,34.73156345797413 0 0,0 0.5881292103514318,-0.10747685396441949 l 2.352122679243875 13.528612415992896" fill="#ff4e07" stroke="none" /><path d="M 96.40284397218896 79.31037775812273 l -2.910990560840369 -16.743031046698192 a37.99420356109698,37.99420356109698 0 0,0 0.6453058450598684,-0.10648099362871853 l 2.622355509641615 16.79065830326654" fill="#ff810b" stroke="none" /><path d="M 96.75951476605007 79.25152402106235 l -1.8625992768219626 -11.926021433037143 a33.07059498480829,33.07059498480829 0 0,0 0.5631938382022953,-0.08300013179895209 l 1.6570364581910184 11.956316048997063" fill="#ff3304" stroke="none" /><path d="M 97.11714578562143 79.19881850522333 l -2.0711188124007855 -14.944119650282703 a36.086956129618926,36.086956129618926 0 0,0 0.6160305840691175,-0.07997845000831906 l 1.8135734998238104 14.977556423455159" fill="#ff6309" stroke="none" /><path d="M 98.19473922651362 79.07773832637324 l -1.4190367671779245 -16.446077488326868 a37.507184196544685,37.507184196544685 0 0,0 0.6437122454204154,-0.04996445923559009 l 1.1357343323951752 16.46806720975092" fill="#ff7a0b" stroke="none" /><path d="M 98.91598698831166 79.02799685794201 l -1.1451471901729262 -22.1547437267573 a43.18431950016617,43.18431950016617 0 0,0 0.7426863278339758,-0.031981635558725414 l 0.7636200299496262 22.171173088840217" fill="#ffcf13" stroke="none" /><path d="M 99.27714615592234 79.0124445844662 l -0.663359305864073 -19.260173140528373 a40.27159347256492,40.27159347256492 0 0,0 0.6930038685354635,-0.017898245363706718 l 0.33172880213373046 19.26873817803444" fill="#ffa40f" stroke="none" /><path d="M 99.63851952072746 79.00311137660856 l -0.26652467099145644 -15.481303011038586 a36.48359707302665,36.48359707302665 0 0,0 0.6280051502639884,-0.005405438596623902 l 3.7923875189538834e-15 15.483597073026651" fill="#ff6a09" stroke="none" /></svg>