<?xml version="1.0" encoding="utf-8" ?>
<svg baseProfile="full" height="200mm" version="1.1" viewBox="0,0,200,200" width="200mm" xmlns="http://www.w3.org/2000/svg" xmlns:ev="http://www.w3.org/2001/xml-events" xmlns:xlink="http://www.w3.org/1999/xlink"><defs /><rect fill="#1a1a1a" height="200" width="200" x="0" y="0" /><text alignment-baseline="middle" fill="#e1ed5e" style="dominant-baseline: central; font-size:9.0px; font-family:Arial;" text-anchor="middle" x="100.0" y="100.0">2020</text><line stroke="#e1ed5e" stroke-width="0.3" x1="100.0" x2="100.0" y1="15.0" y2="10.0" /><path d="M 100.0 14.0 a86.0,86.0 0 0,1 42.35913384403234,11.155469271406648" fill="none" id="id49" stroke="none" /><text fill="#e1ed5e" style="font-size:6.75px; font-family:Arial;" text-anchor="middle"><textPath startOffset="22.145653131862478" xlink:href="#id49">January</textPath></text><path d="M 100.0 79.0 l 0.0 -30.65300601606978 a51.65300601606978,51.65300601606978 0 0,0 0.8866925340937375,0.007611188978726758 l -0.5261996092448827 30.64848922528549" fill="#a8ff21" stroke="none" /><path d="M 100.36049292484886 79.00309439819443 l 0.40455307880420327 -23.563188681534115 a44.56666128315904,44.56666128315904 0 0,0 0.7648205410842613,0.019699064133099232 l -0.808986933959206 23.55277190005097" fill="#fffc17" stroke="none" /><path d="M 100.72087961077811 79.0123766808444 l 0.818391437992092 -23.826573773754465 a44.840624621472124,44.840624621472124 0 0,0 0.7690684698677208,0.033027109194077205 l -1.227285668460649 23.809014096134554" fill="#ffff18" stroke="none" /><path d="M 101.08105385017728 79.02784411241856 l 1.640465187042311 -31.824586374823067 a52.86683893891065,52.86683893891065 0 0,0 0.9059252655747836,0.05449821436609465 l -2.186534804749557 31.79173618263228" fill="#99ff23" stroke="none" /><path d="M 101.44090949804482 79.04949213459386 l 2.1208740161314736 -30.837042726687596 a51.90989017644446,51.90989017644446 0 0,0 0.8884773336774603,0.06877376475001017 l -2.6499203445841673 30.79609119494253" fill="#a5ff21" stroke="none" /><path d="M 101.80034050326958 79.07731436759882 l 1.730097534519451 -20.106355860129497 a41.18065369241329,41.18065369241329 0 0,0 0.7037978376332242,0.06665038695971916 l -2.074994935537688 20.073693717664593" fill="#ffce13" stroke="none" /><path d="M 102.51750503828377 79.15144685158666 l 2.4066656381763707 -19.930643913303033 a41.07542294181774,41.07542294181774 0 0,0 0.6993035560436012,0.09053884587477788 l -2.7484470161107635 19.88639347122786" fill="#ffcc13" stroke="none" /><path d="M 103.58742460773223 79.30868818359171 l 5.228664795925556 -30.1575490792998 a51.6074615415674,51.6074615415674 0 0,0 0.871589242780655,0.1588325941999193 l -5.745588772257265 30.063348311168518" fill="#a8ff21" stroke="none" /><path d="M 103.94208987418118 79.37332000966035 l 5.744429126740575 -30.05728055580564 a51.60128396656842,51.60128396656842 0 0,0 0.86863024920462,0.17375037724986597 l -6.2595558614761515 29.954240781892917" fill="#a8ff21" stroke="none" /><path d="M 104.29559338865022 79.4440306129975 l 5.5070112301015754 -26.353042296542394 a47.92229579682642,47.92229579682642 0 0,0 0.803811126739865,0.17518689386699915 l -5.958584773460575 26.254623944541677" fill="#d6ff1c" stroke="none" /><path d="M 104.9986988182912 79.60360301121754 l 7.281824495898459 -29.71232887196796 a51.5916239350749,51.5916239350749 0 0,0 0.858373348420058,0.21819514852551108 l -7.790803137543911 29.58294849160718" fill="#a8ff21" stroke="none" /><path d="M 105.3480935250658 79.69241777938227 l 5.755079404315119 -21.852973894631916 a43.598084144224174,43.598084144224174 0 0,0 0.7221059309035922,0.19681318253021748 l -6.129366736153404 21.750960217957555" fill="#ffef16" stroke="none" /><path d="M 106.04205211174951 79.88797359093562 l 8.806610970545401 -29.31434372595632 a51.608612266322126,51.608612266322126 0 0,0 0.8462813837335291,0.2621801359588092 l -9.308532987150562 29.158847002190864" fill="#a8ff21" stroke="none" /><path d="M 106.38641147887787 79.99465700312896 l 6.746632286802459 -21.133729547123114 a43.18448944159567,43.18448944159567 0 0,0 0.7042717009541744,0.2315080967170938 l -7.108426725404376 21.014800529003995" fill="#ffe915" stroke="none" /><path d="M 106.72888874123014 80.10723608172694 l 7.3251558680482685 -21.65552172898575 a43.86087333952437,43.86087333952437 0 0,0 0.7111606764367899,0.24737859939256135 l -7.6958223165300765 21.5265846970246" fill="#fff216" stroke="none" /><path d="M 107.06938296918511 80.22567764915836 l 5.664958370642852 -15.845896793748464 a37.82807768401502,37.82807768401502 0 0,0 0.6095919933495808,0.2238506236868886 l -5.936139515646557 15.746315321052853" fill="#ff9e0e" stroke="none" /><path d="M 107.40779381753099 80.34994680014964 l 8.328325504605573 -22.09187286555921 a44.60957120361772,44.60957120361772 0 0,0 0.7142369141393498,0.27628218194555565 l -8.706334681238449 21.94565079547562" fill="#fffc17" stroke="none" /><path d="M 107.74402155503746 80.48000691201159 l 11.285389694277288 -28.446554191762253 a51.603373440465134,51.603373440465134 0 0,0 0.8206055403793848,0.3337331293672755 l -11.772049695847112 28.248633805815686" fill="#a8ff21" stroke="none" /><path d="M 108.07796709384702 80.6158196554323 l 11.772667067257192 -28.2501152724537 a51.60497839867566,51.60497839867566 0 0,0 0.8147809896946895,0.34778155462817084 l -12.25588313212231 28.04385906816613" fill="#a8ff21" stroke="none" /><path d="M 108.4095320186766 80.7573450057729 l 10.769157383156593 -24.641939604057434 a47.892376953203865,47.892376953203865 0 0,0 0.7505113981278683,0.33569420226300145 l -11.190582184140093 24.453441650884578" fill="#d7ff1c" stroke="none" /><path d="M 109.06512990194946 81.05736502329252 l 9.626847534595248 -20.116408788034914 a43.30125772196875,43.30125772196875 0 0,0 0.667746119396255,0.3266280881814674 l -9.97075390325357 19.948186949756227" fill="#ffeb16" stroke="none" /><path d="M 109.3889696526874 81.21577127319529 l 9.020668310662499 -18.047379327466782 a41.17623248677676,41.17623248677676 0 0,0 0.6295508268522385,0.32145313791798963 l -9.329146359228316 17.88986823787596" fill="#ffce13" stroke="none" /><path d="M 109.71004243097381 81.37971332152246 l 9.337701573720706 -17.906273989712428 a41.194734929543344,41.194734929543344 0 0,0 0.6242202564423223,0.33236212720976704 l -9.643710645949588 17.74334139478009" fill="#ffce13" stroke="none" /><path d="M 110.02825361518725 81.54914285379988 l 8.10091129644492 -14.904764360803718 a37.96398433399281,37.96398433399281 0 0,0 0.5699222239067616,0.31612625042985903 l -8.355577708507782 14.763505194940713" fill="#ffa00e" stroke="none" /><path d="M 110.34350942703115 81.72400993836675 l 10.94469171879888 -19.338221567012233 a43.220555577986836,43.220555577986836 0 0,0 0.6425610949859908,0.3709828211609425 l -11.27504528164527 19.14749184857512" fill="#ffea16" stroke="none" /><line stroke="#e1ed5e" stroke-width="0.3" x1="143.13028292997686" x2="145.6673583964461" y1="26.7553504044142" y2="22.446841604673864" /><path d="M 143.63769802327073 25.89364864446614 a86.0,86.0 0 0,1 29.32050498858742,28.57503671076993" fill="none" id="id50" stroke="none" /><text fill="#e1ed5e" style="font-size:6.75px; font-family:Arial;" text-anchor="middle"><textPath startOffset="20.669276256404974" xlink:href="#id50">February</textPath></text><path d="M 110.65571695917076 81.90426304109057 l 15.53810956774788 -26.387107001250616 a51.62208785884443,51.62208785884443 0 0,0 0.7597474473944281,0.45620651284314945 l -15.988789771699743 26.116486487871548" fill="#a8ff21" stroke="none" /><path d="M 110.96478420261332 82.08984904055464 l 10.535901629177637 -17.20960350751486 a41.17859450074697,41.17859450074697 0 0,0 0.5997091106833857,0.3742628393604854 l -10.829774868650736 17.026204871312828" fill="#ffce13" stroke="none" /><path d="M 111.27062007382361 82.28071324371311 l 11.65537839224804 -18.324190739508143 a42.71690152218678,42.71690152218678 0 0,0 0.6153560217106674,0.3988663387523171 l -11.968220046215713 18.12141055905193" fill="#ffe315" stroke="none" /><path d="M 111.5731344415666 82.4767994020092 l 12.01454756325998 -18.191556324529067 a42.80096499374167,42.80096499374167 0 0,0 0.6096155953646883,0.4101765788409695 l -12.325059446721667 17.98263007163098" fill="#ffe415" stroke="none" /><path d="M 111.8722381534696 82.67804972795209 l 9.508288444024155 -13.872876998474032 a37.818569063673436,37.818569063673436 0 0,0 0.5323502219050484,0.37162179929147 l -9.745033757102965 13.707610383377435" fill="#ff9e0e" stroke="none" /><path d="M 112.45986205192187 83.09580414077388 l 13.304305200031218 -18.04984516963883 a43.42323454596843,43.42323454596843 0 0,0 0.5962361853884167,0.4474267490666419 l -13.6121943743304 17.818799393308172" fill="#ffec16" stroke="none" /><path d="M 112.7482090630111 83.31218511350987 l 18.57181455979746 -24.311101422031346 a51.593168328824646,51.593168328824646 0 0,0 0.6991858395783005,0.5436911378438293 l -18.986410344010988 23.988709232566723" fill="#a8ff21" stroke="none" /><path d="M 113.03279911837588 83.53348406188908 l 10.43650427125138 -13.186182213030188 a37.816540154237494,37.816540154237494 0 0,0 0.5055697388634082,0.4072511942243285 l -10.661324780470048 13.005082725012452" fill="#ff9e0e" stroke="none" /><path d="M 113.31354834802062 83.75963576809568 l 7.708820871982814 -9.403508027078322 a33.15943594298865,33.15943594298865 0 0,0 0.4371134730349477,0.3646556056851445 l -7.8691086791796545 9.269790237481306" fill="#ff5908" stroke="none" /><path d="M 113.86319453409587 84.22622945171908 l 20.197104512498775 -22.98059740388562 a51.594621875883234,51.594621875883234 0 0,0 0.6602513964701696,0.5904008700357682 l -20.58862093579232 22.630501003966465" fill="#a8ff21" stroke="none" /><path d="M 114.13192950727249 84.46653392183569 l 14.680414072979511 -16.1363466962301 a42.81504623087173,42.81504623087173 0 0,0 0.5394088844049951,0.4992688104982112 l -14.955252728698472 15.881960139599514" fill="#ffe415" stroke="none" /><path d="M 114.65682725009322 84.96080404539774 l 16.4401186678591 -16.8690100486294 a44.55506318892074,44.55506318892074 0 0,0 0.5431645797849423,0.5385221753749189 l -16.727275167774003 16.58430786302582" fill="#fffc17" stroke="none" /><path d="M 114.91283532996326 85.21462403516908 l 21.726699367048166 -21.54100219769896 a51.595166956030205,51.595166956030205 0 0,0 0.6181916668078425,0.6343191098582511 l -22.09327783500682 21.164860395772966" fill="#a8ff21" stroke="none" /><path d="M 115.16444852881244 85.47280134310134 l 18.59138262774714 -17.810124003292586 a46.745679735131425,46.745679735131425 0 0,0 0.550139144979565,0.5842287074849908 l -18.894377606462967 17.4883538358631" fill="#e6ff1a" stroke="none" /><path d="M 115.41159269507618 85.73525988315684 l 17.27038177071279 -15.985207535142798 a44.532805749586146,44.532805749586146 0 0,0 0.5144648125148407,0.5654869499239951 l -17.542244284069508 15.686383009661132" fill="#fffb17" stroke="none" /><path d="M 115.6541949942343 86.00192230759917 l 12.510674191334003 -11.187122006536192 a37.78298744296846,37.78298744296846 0 0,0 0.4281872848580005,0.4871985289126556 l -12.700872540150593 10.97071119981224" fill="#ff9e0e" stroke="none" /><path d="M 115.8921839302757 86.27271002978787 l 9.368531756208077 -8.092314597970914 a33.37961804013405,33.37961804013405 0 0,0 0.3708403027056832,0.43684894412261993 l -9.506066622420873 7.930298871398742" fill="#ff5d08" stroke="none" /><path d="M 116.57777611688842 87.10902102172516 l 17.89223486897677 -13.913110054331444 a43.665098720071065,43.665098720071065 0 0,0 0.4550485958817402,0.5956732192653663 l -18.12843544221282 13.603915921825196" fill="#fff016" stroke="none" /><path d="M 116.7966241395341 87.39550010848427 l 24.484270304672776 -18.373452893591388 a51.611489078208905,51.611489078208905 0 0,0 0.5256949181000152,0.7132061190349805 l -24.796067242356617 17.950440465287535" fill="#a8ff21" stroke="none" /><path d="M 117.21940702142032 87.97951657250589 l 20.85179717615172 -14.556173861132523 a46.42989663665361,46.42989663665361 0 0,0 0.4506137834835061,0.6574589768585122 l -21.098600696450553 14.196080149203961" fill="#eaff1a" stroke="none" /><path d="M 117.42321728460499 88.27688183743584 l 20.731155315806742 -13.948846498540492 a45.987019017240684,45.987019017240684 0 0,0 0.43507127645779103,0.6587533645519221 l -20.96755103118526 13.590913255649511" fill="#f0ff19" stroke="none" /><path d="M 117.62189284568427 88.57770195909679 l 20.53846151317422 -13.31278261418724 a45.47567327492228,45.47567327492228 0 0,0 0.41898753524279947,0.6587179973815206 l -20.76396674004291 12.958250942127046" fill="#f6ff19" stroke="none" /><path d="M 117.81537515405839 88.88188828441811 l 19.987615954787696 -12.473750633471976 a44.56054427262083,44.56054427262083 0 0,0 0.3994153311147896,0.6524149261485456 l -20.19879925035789 12.128798591198874" fill="#fffc17" stroke="none" /><line stroke="#e1ed5e" stroke-width="0.3" x1="172.87174338648825" x2="177.1583165268699" y1="56.24261187166439" y2="53.66864786411523" /><path d="M 173.72905801456457 55.72781907015455 a86.0,86.0 0 0,1 12.242430191666344,42.057860355516425" fill="none" id="id51" stroke="none" /><text fill="#e1ed5e" style="font-size:6.75px; font-family:Arial;" text-anchor="middle"><textPath startOffset="22.145653131862474" xlink:href="#id51">March</textPath></text><path d="M 118.00360718960297 89.18935116829356 l 14.299460730020586 -8.586415311499486 a37.679361650583445,37.679361650583445 0 0,0 0.3282164681628544,0.5573833179142057 l -14.444750908313209 8.339680825291724" fill="#ff9c0e" stroke="none" /><path d="M 118.18653347947321 89.5 l 13.453386623765438 -7.7673163887430885 a36.53463277748617,36.53463277748617 0 0,0 0.30892056202275997,0.5458330328976734 l -13.584740550809574 7.535226585746297" fill="#ff8c0c" stroke="none" /><path d="M 118.36410011445183 89.81374322990088 l 17.640473918696667 -9.784873517470725 a41.17250777243913,41.17250777243913 0 0,0 0.33752565147732866,0.6210091824118773 l -17.805844919789337 9.480609501584246" fill="#ffce13" stroke="none" /><path d="M 118.53625476483649 90.13048839642627 l 18.188397276603904 -9.684297084240814 a41.605907053740864,41.605907053740864 0 0,0 0.3302556661350971,0.6333087856558727 l -18.351961011713946 9.370642055480443" fill="#ffd413" stroke="none" /><path d="M 118.70294669586156 90.45014215332178 l 18.101465004770432 -9.24273700948037 a41.32464569790447,41.32464569790447 0 0,0 0.3171766657182125,0.6345657996616147 l -18.257461583700383 8.930639353655005" fill="#ffd013" stroke="none" /><path d="M 118.8641267826498 90.77261029715802 l 15.108743526629508 -7.3904435676676545 a37.81941696612428,37.81941696612428 0 0,0 0.2802612253234169,0.5856381703128823 l -15.233384009912836 7.129992895289669" fill="#ff9e0e" stroke="none" /><path d="M 119.0197475246899 91.09779779509293 l 15.240844068122083 -7.133484579212017 a37.8276537327896,37.8276537327896 0 0,0 0.27022551038105924,0.590491508122679 l -15.361054043358193 6.870804088874654" fill="#ff9e0e" stroke="none" /><path d="M 119.16976305983485 91.42560881287824 l 15.680551937222685 -7.013711432951094 a38.17765575160496,38.17765575160496 0 0,0 0.262455235931033,0.6005489419902534 l -15.798641055170688 6.743500421184991" fill="#ffa30f" stroke="none" /><path d="M 119.31412917781788 91.75594674310238 l 15.89169186815209 -6.78321828010339 a38.278828683328626,38.278828683328626 0 0,0 0.2527754399901543,0.6065690363085001 l -16.005793152678727 6.5094167343536125" fill="#ffa50f" stroke="none" /><path d="M 119.4528033332814 92.08871423366111 l 12.402706341094769 -5.044072695296843 a34.389167036782816,34.389167036782816 0 0,0 0.21770197298481828,0.5487511853761291 l -12.48746698904571 4.830420492707149" fill="#ff6c09" stroke="none" /><path d="M 119.71291397450082 92.76114493625339 l 21.420534956735565 -7.865917141438393 a43.81911414382041,43.81911414382041 0 0,0 0.253232392443766,0.7083360711515038 l -21.552407519223273 7.497046113905972" fill="#fff216" stroke="none" /><path d="M 119.83427380445688 93.10060997987247 l 17.468264791600074 -6.076369266669542 a39.49493277344854,39.49493277344854 0 0,0 0.217249548064414,0.6422596861375348 l -17.56999976123685 5.775607906057846" fill="#ffb610" stroke="none" /><path d="M 119.94978838288452 93.4421083053983 l 15.825807215778482 -5.202257172299647 a37.65892114507207,37.65892114507207 0 0,0 0.19660697729818266,0.6158685561424743 l -15.912778908853921 4.929819582465786" fill="#ff9c0e" stroke="none" /><path d="M 120.05942366710727 93.78553927170692 l 16.496214493308983 -5.110569417917442 a38.26971373198208,38.26971373198208 0 0,0 0.18902264479470943,0.629194908238149 l -16.58151345810732 4.82663690608857" fill="#ffa50f" stroke="none" /><path d="M 120.16314734710363 94.1308016681162 l 16.008552055518003 -4.659856192223773 a37.67297209997174,37.67297209997174 0 0,0 0.17541523904606837,0.6224868000815741 l -16.086185786638655 4.384361468239186" fill="#ff9c0e" stroke="none" /><path d="M 120.26092885502905 94.47779374421319 l 16.156305342689716 -4.40347286504872 a37.745649452901034,37.745649452901034 0 0,0 0.16502131779207108,0.6266128225900719 l -16.22951614128652 4.125479538085849" fill="#ff9d0e" stroke="none" /><path d="M 120.35273937422433 94.82641323984039 l 17.501643061577568 -4.448849226610208 a39.0582327290346,39.0582327290346 0 0,0 0.1596039790657528,0.6512386995796637 l -17.57543456715961 4.147754702422449" fill="#ffb010" stroke="none" /><path d="M 120.43855184770803 95.1765574152323 l 15.17627520755816 -3.5815596261287563 a36.593168328824646,36.593168328824646 0 0,0 0.1390351130396289,0.6126143617525983 l -15.235521182155455 3.3205109304371314" fill="#ff8c0c" stroke="none" /><path d="M 120.51834098615036 95.52812308129327 l 61.555022958451104 -13.415630756120196 a84.0,84.0 0 0,0 0.29496915670253276,1.4115341948583824 l -61.776249825978 12.35698010997641" fill="#4dd2ff" stroke="none" /><path d="M 120.592083275326 95.88100663000786 l 16.397893445555443 -3.2800379389011134 a37.72272580449793,37.72272580449793 0 0,0 0.12156365335304428,0.6360724022535387 l -16.451783391190645 2.99806297161426" fill="#ff9d0e" stroke="none" /><path d="M 120.65975698304385 96.23510406497455 l 16.40828766070358 -2.9901366006005 a37.678513748132595,37.678513748132595 0 0,0 0.11049705456190972,0.6373176472635205 l -16.45719953275772 2.7080259204163872" fill="#ff9c0e" stroke="none" /><path d="M 120.7213421655516 96.59031103205396 l 18.00640877324673 -2.9629477113955973 a39.24855654701821,39.24855654701821 0 0,0 0.10368815966454728,0.665752365913333 l -18.054618425049544 2.653407163550823" fill="#ffb310" stroke="none" /><path d="M 120.77682067341334 96.94652285012252 l 19.815301448707867 -2.9121669355787665 a41.02815238018331,41.02815238018331 0 0,0 0.09642687121763593,0.6976968051386641 l -19.862372836480716 2.5715818222400166" fill="#ffcc13" stroke="none" /><path d="M 120.82617615685814 97.30363454192243 l 16.542502401979686 -2.141758128372251 a37.68057293979893,37.68057293979893 0 0,0 0.07754646433327057,0.6421959672525037 l -16.576830952572617 1.857468484196334" fill="#ff9c0e" stroke="none" /><path d="M 120.86939407059847 97.66154086499901 l 16.584354426373658 -1.858311505128205 a37.68814349739573,37.68814349739573 0 0,0 0.06652425291695781,0.643561801034193 l -16.61381107177228 1.5733451818110806" fill="#ff9c0e" stroke="none" /><path d="M 120.9064616781168 98.02013634271609 l 30.197451991742803 -2.859730099790506 a51.33255945411233,51.33255945411233 0 0,0 0.0755477833514023,0.877979759059744 l -30.242093397791947 2.3409292933551" fill="#acff21" stroke="none" /><path d="M 120.93736805541906 98.37931529534042 l 20.060745819769828 -1.552828599473831 a41.1207554407074,41.1207554407074 0 0,0 0.04843640969062658,0.7042547665710408 l -20.08444619062552 1.2082304087484559" fill="#ffcd13" stroke="none" /><path d="M 120.96210409425399 98.7389718711861 l 23.37332824836249 -1.4060813863273027 a44.41558323575725,44.41558323575725 0 0,0 0.0392515537245215,0.7614696561188682 l -23.394021391543586 1.004639936831704" fill="#fffa17" stroke="none" /><path d="M 120.98066250479742 99.09900007780936 l 21.172535564002683 -0.9092397769318775 a42.19204990511568,42.19204990511568 0 0,0 0.024863801134305266,0.7238824412386284 l -21.185024052133837 0.5456510711291291" fill="#ffdc14" stroke="none" /><path d="M 120.99303781780057 99.45929381324524 l 19.66424000069897 -0.5064810685565831 a40.67076149715348,40.67076149715348 0 0,0 0.011985418545689254,0.6980905434064535 l -19.670036850843328 0.1688436091810633" fill="#ffc712" stroke="none" /><line stroke="#e1ed5e" stroke-width="0.3" x1="184.99686870605535" x2="189.99668451229388" y1="99.2704041080226" y2="99.22748670261217" /><path d="M 185.99683186730306 99.26182062694052 a86.0,86.0 0 0,1 -10.086455211305974,41.156179273409016" fill="none" id="id52" stroke="none" /><text fill="#e1ed5e" style="font-size:6.75px; font-family:Arial;" text-anchor="middle"><textPath startOffset="21.40746469413373" xlink:href="#id52">April</textPath></text><path d="M 120.99303781780057 100.54070618675476 l 16.581895256762234 0.4270908017823032 a37.58739451689749,37.58739451689749 0 0,0 -0.022150274862840397,0.6448810845616886 l -16.572120294902547 -0.7116781509081025" fill="#ff9b0e" stroke="none" /><path d="M 120.98066250479742 100.90099992219065 l 16.626487353778586 0.7140129063432964 a37.6418116849033,37.6418116849033 0 0,0 -0.03326534261175312,0.6453387597603124 l -16.61178042171026 -0.9993234594803395" fill="#ff9c0e" stroke="none" /><path d="M 120.96210409425399 101.26102812881392 l 16.984274940271092 1.0217318047314712 a38.014979609964875,38.014979609964875 0 0,0 -0.044778095806729146,0.6510636855886865 l -16.964232883299296 -1.3131389144745012" fill="#ffa10e" stroke="none" /><path d="M 120.93736805541906 101.62068470465957 l 17.956067464436313 1.3899131838547993 a39.00978116041507,39.00978116041507 0 0,0 -0.05741195309630243,0.6672139209191762 l -17.92956188864227 -1.697948152149633" fill="#ffaf10" stroke="none" /><path d="M 120.86939407059847 102.33845913500097 l 16.576168886878126 1.8573942983543272 a37.67990673073041,37.67990673073041 0 0,0 -0.07754509327774407,0.6421846129459348 l -16.54184170734072 -2.1416725882236705" fill="#ff9c0e" stroke="none" /><path d="M 120.82617615685814 102.69636545807757 l 16.8044678263293 2.1756747972848185 a37.94472483546655,37.94472483546655 0 0,0 -0.08918001135399874,0.6452621371845576 l -16.764643298420093 -2.463825242669461" fill="#ffa00e" stroke="none" /><path d="M 120.77682067341334 103.0534771498775 l 35.16776113523463 5.168449818513393 a56.54552428634877,56.54552428634877 0 0,0 -0.14938387207933262,0.959151619508553 l -35.07385577101703 -5.771389619953397" fill="#6eff28" stroke="none" /><path d="M 120.7213421655516 103.40968896794604 l 30.381168402228905 4.999209699196288 a51.789730286268025,51.789730286268025 0 0,0 -0.15187999960513218,0.8760034771831444 l -30.29087358513154 -5.52000620930002" fill="#a6ff21" stroke="none" /><path d="M 120.65975698304385 103.76489593502545 l 16.340333029716604 2.977753003146811 a37.60943998061937,37.60943998061937 0 0,0 -0.12119858327048143,0.6341622013176584 l -16.28680815416396 -3.2578177694977843" fill="#ff9b0e" stroke="none" /><path d="M 120.592083275326 104.11899336999214 l 22.680849020407674 4.536805018304919 a44.13014293212743,44.13014293212743 0 0,0 -0.15496465530776518,0.7415619734843452 l -22.599626654275543 -4.925483443074673" fill="#fff617" stroke="none" /><path d="M 120.51834098615036 104.47187691870673 l 16.06699396332279 3.5017265531399984 a37.44415956716599,37.44415956716599 0 0,0 -0.14226843959816785,0.6268609951583067 l -16.004514662166958 -3.777021882237322" fill="#ff990e" stroke="none" /><path d="M 120.43855184770803 104.8234425847677 l 20.60465951143927 4.862643541120562 a42.17067065046231,42.17067065046231 0 0,0 -0.17232235985632463,0.7031340333633116 l -20.518149625066652 -5.215633399091973" fill="#ffdb14" stroke="none" /><path d="M 120.35273937422433 105.17358676015961 l 20.95644570137594 5.3270465477463205 a42.62290547906488,42.62290547906488 0 0,0 -0.1863443372211359,0.7075798004893944 l -20.861911883350075 -5.686006852608519" fill="#ffe115" stroke="none" /><path d="M 120.26092885502905 105.52220625578681 l 31.294357865591206 8.529416396094982 a53.43590261234708,53.43590261234708 0 0,0 -0.24881157784720012,0.8829445135988079 l -31.143327795669425 -9.065368833596798" fill="#92ff23" stroke="none" /><path d="M 120.16314734710363 105.8691983318838 l 19.174813641794803 5.581508794398152 a40.970646424677994,40.970646424677994 0 0,0 -0.20236315328560642,0.6736011222391182 l -19.076174168505567 -5.909847520227994" fill="#ffcb12" stroke="none" /><path d="M 120.05942366710727 106.21446072829308 l 19.62348129262427 6.079404666315291 a41.54361650583438,41.54361650583438 0 0,0 -0.2168879144408514,0.67939830288349 l -19.51622866240616 -6.415372002890165" fill="#ffd313" stroke="none" /><path d="M 119.94978838288452 106.5578916946017 l 18.90741542078427 6.215242997801518 a40.902753664149884,40.902753664149884 0 0,0 -0.22499354028779417,0.6651534231287183 l -18.797936458924113 -6.538898095404397" fill="#ffca12" stroke="none" /><path d="M 119.83427380445688 106.89939002012753 l 18.83978007366481 6.553453476700138 a40.94705656720637,40.94705656720637 0 0,0 -0.23663465819986676,0.6619092544599803 l -18.724505245420996 -6.87589768754104" fill="#ffca12" stroke="none" /><path d="M 119.71291397450082 107.23885506374661 l 15.487069401005437 5.6870664023126585 a37.498243630637546,37.498243630637546 0 0,0 -0.22707742860322305,0.6023498577914947 l -15.387161288587773 -5.952084540298312" fill="#ff9a0e" stroke="none" /><path d="M 119.58574465831526 107.57618678355244 l 18.574989232270553 7.185204871258765 a40.91625953890257,40.91625953890257 0 0,0 -0.25902198850150754,0.6529046167100978 l -18.44890856880292 -7.503010505182427" fill="#ffca12" stroke="none" /><path d="M 119.4528033332814 107.91128576633889 l 19.935732031874817 8.107688663848373 a42.521338878346185,42.521338878346185 0 0,0 -0.2807909884825029,0.6737961539878233 l -19.79361519885583 -8.448717327277475" fill="#ffe015" stroke="none" /><path d="M 119.16976305983485 108.57439118712176 l 12.273247049211701 5.489667295712294 a34.44503775184722,34.44503775184722 0 0,0 -0.24606146530624554,0.5376887087184048 l -12.1772011190504 -5.699544986645387" fill="#ff6d0a" stroke="none" /><path d="M 119.0197475246899 108.90220220490707 l 19.812269002684005 9.273142273363652 a42.87503532926878,42.87503532926878 0 0,0 -0.3177259434731332,0.6639250220283431 l -19.650163801250958 -9.6118797974571" fill="#ffe515" stroke="none" /><path d="M 118.8641267826498 109.22738970284198 l 15.71268849780139 7.685863317136268 a38.49174304518109,38.49174304518109 0 0,0 -0.29543345165018986,0.5910648063238854 l -15.578435132939468 -7.954459979623899" fill="#ffa80f" stroke="none" /><path d="M 118.70294669586154 109.54985784667822 l 14.895585391358624 7.6057920360756786 a37.72502725400735,37.72502725400735 0 0,0 -0.29945036385443585,0.5742355567013557 l -14.762826958529239 -7.860373835881537" fill="#ff9d0e" stroke="none" /><line stroke="#e1ed5e" stroke-width="0.3" x1="174.33088141563837" x2="178.70328620479359" y1="141.23008692659167" y2="143.65538615756765" /><path d="M 175.20536237346943 141.71514677278685 a86.0,86.0 0 0,1 -30.301960400862466,31.631185727798858" fill="none" id="id53" stroke="none" /><text fill="#e1ed5e" style="font-size:6.75px; font-family:Arial;" text-anchor="middle"><textPath startOffset="22.145653131862474" xlink:href="#id53">May</textPath></text><path d="M 118.36410011445183 110.18625677009912 l 18.64726394784165 10.343322975191539 a42.32380788953043,42.32380788953043 0 0,0 -0.3578712450678837,0.632324199474548 l -18.46695933775239 -10.661903944765209" fill="#ffdd14" stroke="none" /><path d="M 118.18653347947321 110.5 l 20.849228536314218 12.037307707837035 a45.07461541567408,45.07461541567408 0 0,0 -0.39263486501509254,0.6667798389760342 l -20.639519961169363 -12.393438715106619" fill="#fcff18" stroke="none" /><path d="M 118.00360718960297 110.81064883170644 l 14.275264706076404 8.57188629432924 a37.65113861186256,37.65113861186256 0 0,0 -0.33748335530869517,0.5512536980379669 l -14.126013386312303 -8.815677108491764" fill="#ff9c0e" stroke="none" /><path d="M 117.81537515405839 111.11811171558189 l 18.53716045063451 11.568559123655117 a42.85080954495902,42.85080954495902 0 0,0 -0.39480350221228666,0.6206966805964369 l -18.335839256796334 -11.885069478930225" fill="#ffe515" stroke="none" /><path d="M 117.62189284568427 111.42229804090321 l 14.00327009767739 9.076750494604887 a37.68768926393992,37.68768926393992 0 0,0 -0.35655346715688424,0.5398673937856224 l -13.845392191599778 -9.31579776672957" fill="#ff9c0e" stroke="none" /><path d="M 117.21940702142032 112.02048342749411 l 14.263153392240305 9.956788800099412 a38.39468849679008,38.39468849679008 0 0,0 -0.3819081296964214,0.5372016120834079 l -14.090130164013923 -10.200167638892323" fill="#ffa60f" stroke="none" /><path d="M 117.01052211995028 112.31430620078461 l 14.217388481184674 10.29229284664237 a38.551792708038924,38.551792708038924 0 0,0 -0.39267383817487755,0.5327374766784284 l -14.03861262342597 -10.534836632589677" fill="#ffa90f" stroke="none" /><path d="M 116.79662413953412 112.60449989151573 l 15.956182565467099 11.973816866096387 a40.94923688779424,40.94923688779424 0 0,0 -0.42674569151161656,0.5586238089094416 l -15.748284896601177 -12.245961588246706" fill="#ffca12" stroke="none" /><path d="M 116.35404254752997 113.17365903436017 l 15.632741817066695 12.592630224098617 a41.07378770137683,41.07378770137683 0 0,0 -0.4470259440508102,0.5452989663402079 l -15.414269053777257 -12.859131472137317" fill="#ffcc13" stroke="none" /><path d="M 116.1254893667686 113.45245675266167 l 18.619876151405183 15.533362924345735 a45.24840513586628,45.24840513586628 0 0,0 -0.5026999481347716,0.5921792748817206 l -18.350481639763295 -15.85070898167701" fill="#f9ff18" stroke="none" /><path d="M 115.89218393027572 113.72728997021213 l 15.150988986460924 13.087063431000136 a41.02058182258651,41.02058182258651 0 0,0 -0.4648783154170071,0.5289461864092225 l -14.924099607085331 -13.345221895220652" fill="#ffcb13" stroke="none" /><path d="M 115.6541949942343 113.99807769240083 l 15.011639721217096 13.423500805076406 a41.1380163120281,41.1380163120281 0 0,0 -0.4752465400048699,0.5223791984054028 l -14.778995480370346 -13.67921757903948" fill="#ffcd13" stroke="none" /><path d="M 115.41159269507618 114.26474011684316 l 16.24215850239047 15.033499428465735 a43.131737796261156,43.131737796261156 0 0,0 -0.5076074941506289,0.5390615681934978 l -15.981695174503582 -15.310102456603731" fill="#ffe815" stroke="none" /><path d="M 115.16444852881244 114.52719865689866 l 15.567025542891425 14.912858329725843 a42.557495861428514,42.557495861428514 0 0,0 -0.5099060794621578,0.5232085578020012 l -15.30873266227846 -15.17788957959558" fill="#ffe115" stroke="none" /><path d="M 114.91283532996324 114.78537596483092 l 14.249852453522296 14.12805957465197 a41.06639883716235,41.06639883716235 0 0,0 -0.5006347577847132,0.4963558539425831 l -14.005225775607617 -14.370595438823216" fill="#ffcc13" stroke="none" /><path d="M 114.39649973595853 115.28858382429668 l 13.782691460411737 14.636740706534884 a41.1046452941414,41.1046452941414 0 0,0 -0.5178602574061547,0.4793237230504011 l -13.529401431691614 -14.871182175717664" fill="#ffcd13" stroke="none" /><path d="M 114.13192950727249 115.5334660781643 l 13.847324809347018 15.220635659739377 a41.577078370412245,41.577078370412245 0 0,0 -0.5320578590778595,0.47576941841899084 l -13.584001923445781 -15.456100608041757" fill="#ffd313" stroke="none" /><path d="M 113.86319453409587 115.77377054828091 l 13.212191572201252 15.033048680610266 a41.01385916744054,41.01385916744054 0 0,0 -0.5328296378568621,0.46024555062252825 l -12.952182454581534 -15.257638363697513" fill="#ffcb12" stroke="none" /><path d="M 113.59037401385872 116.0094264158162 l 14.179728681819514 16.703684732762767 a42.91067751443453,42.91067751443453 0 0,0 -0.56565604164274,0.47189038819264423 l -13.89089830601488 -16.944637304867282" fill="#ffe515" stroke="none" /><path d="M 113.31354834802062 116.24036423190432 l 14.837623224665187 18.099487770302133 a44.40398514151896,44.40398514151896 0 0,0 -0.5936373629351552,0.4781922381965175 l -14.52473509137478 -18.351528302292053" fill="#fffa17" stroke="none" /><path d="M 113.03279911837588 116.46651593811092 l 12.458697134358912 15.741156835737641 a41.074938426131546,41.074938426131546 0 0,0 -0.556643761942727,0.4328495561163611 l -12.186643427780956 -15.952707443474797" fill="#ffcc13" stroke="none" /><path d="M 112.7482090630111 116.68781488649013 l 10.065201846111789 13.175672313880213 a37.58030847498688,37.58030847498688 0 0,0 -0.5160080773606601,0.3872220811207641 l -9.837540779840362 -13.346513422264993" fill="#ff9b0e" stroke="none" /><path d="M 112.45986205192187 116.90419585922612 l 9.911350274775003 13.446650177667776 a37.70470787741753,37.70470787741753 0 0,0 -0.5243090808813411,0.3795593409947396 l -9.679060183519695 -13.614810290035592" fill="#ff9c0e" stroke="none" /><path d="M 112.16784306229584 117.11559508785304 l 9.68418366317031 13.62201710579512 a37.7135502886906,37.7135502886906 0 0,0 -0.5308719330762981,0.3705898388793115 l -9.448916638920254 -13.786251760479553" fill="#ff9d0e" stroke="none" /><path d="M 111.5731344415666 117.5232005979908 l 9.434458661935231 14.284972882779718 a38.11927161141842,38.11927161141842 0 0,0 -0.549125111921503,0.3559362632061346 l -9.18784791775672 -14.444822987689745" fill="#ffa20f" stroke="none" /><path d="M 111.27062007382361 117.71928675628689 l 10.72338693452865 16.858945368306735 a40.9803670206323,40.9803670206323 0 0,0 -0.5968222023939198,0.372461195073043 l -10.432400603345016 -17.040542360221327" fill="#ffcb12" stroke="none" /><path d="M 110.96478420261333 117.91015095944535 l 9.468541371026506 15.466150741062489 a39.134362256228044,39.134362256228044 0 0,0 -0.575959498400719,0.3458471301291104 l -9.20164911606835 -15.626411871727523" fill="#ffb110" stroke="none" /><line stroke="#e1ed5e" stroke-width="0.3" x1="143.1302829299769" x2="145.66735839644613" y1="173.24464959558577" y2="177.55315839532614" /><path d="M 143.63769802327073 174.10635135553383 a86.0,86.0 0 0,1 -40.68552437913181,11.842963189579606" fill="none" id="id54" stroke="none" /><text fill="#e1ed5e" style="font-size:6.75px; font-family:Arial;" text-anchor="middle"><textPath startOffset="21.407464694133747" xlink:href="#id54">June</textPath></text><path d="M 110.65571695917076 118.09573695890943 l 9.196808932929873 15.618192182593285 a39.124823353656076,39.124823353656076 0 0,0 -0.5816697402210861,0.33582718109610504 l -8.92734672484839 -15.77376626096556" fill="#ffb110" stroke="none" /><path d="M 110.34350942703117 118.27599006163325 l 8.193029090046899 14.476297361228111 a37.633968587233014,37.633968587233014 0 0,0 -0.5649679676131516,0.3133782079776233 l -7.943316934277653 -14.614808484638878" fill="#ff9b0e" stroke="none" /><path d="M 110.02825361518725 118.45085714620011 l 8.132464874922531 14.962819391248905 a38.0300601606977,38.0300601606977 0 0,0 -0.5762662133068677,0.3068293002623616 l -7.874409845829111 -15.100219159233836" fill="#ffa10e" stroke="none" /><path d="M 109.71004243097381 118.62028667847754 l 9.237139297968904 17.713432566325285 a40.97724795090241,40.97724795090241 0 0,0 -0.6265085164822691,0.3198997125657626 l -8.931703559773052 -17.86939023056388" fill="#ffcb12" stroke="none" /><path d="M 109.3889696526874 118.78422872680471 l 9.109592444560212 18.22528716317797 a41.37512617595995,41.37512617595995 0 0,0 -0.6380433594082522,0.31209897984704865 l -8.79538883588989 -18.378979893122246" fill="#ffd013" stroke="none" /><path d="M 109.06512990194946 118.94263497670748 l 7.186929460345137 15.017918424024613 a37.649018855735456,37.649018855735456 0 0,0 -0.5853728365743855,0.2739840447240729 l -6.928067909899245 -15.139078700319219" fill="#ff9c0e" stroke="none" /><path d="M 108.73861861582097 119.09545874513695 l 7.221688096275189 15.78069179755753 a38.35462510598781,38.35462510598781 0 0,0 -0.6010472886132222,0.2688408071838234 l -6.94972740480634 -15.902336355651205" fill="#ffa60f" stroke="none" /><path d="M 108.07796709384702 119.3841803445677 l 6.413638608936562 15.390397858293499 a37.673305204506,37.673305204506 0 0,0 -0.5990872478693202,0.24364356826426778 l -6.148496899876801 -15.498228683137059" fill="#ff9c0e" stroke="none" /><path d="M 107.407793817531 119.65005319985036 l 5.986559121831555 15.880059316668115 a37.97100981144264,37.97100981144264 0 0,0 -0.6118953163257034,0.22469643578806991 l -5.7130746538517245 -15.980486601464905" fill="#ffa00e" stroke="none" /><path d="M 107.06938296918513 119.77432235084164 l 5.609094550307135 15.689635745806479 a37.66213106149311,37.66213106149311 0 0,0 -0.6106542018534429,0.21241723027287718 l -5.33893457640867 -15.783611408647946" fill="#ff9c0e" stroke="none" /><path d="M 106.72888874123015 119.89276391827305 l 5.337983669532816 15.78080022143456 a37.65916340291517,37.65916340291517 0 0,0 -0.6141622468908107,0.20188732936528514 l -5.066298684994271 -15.870108472201865" fill="#ff9c0e" stroke="none" /><path d="M 106.38641147887787 120.00534299687104 l 5.22092241924082 16.354465117446207 a38.167602051116404,38.167602051116404 0 0,0 -0.6258748231966732,0.19389762009767703 l -4.939406963172522 -16.441679325350528" fill="#ffa30f" stroke="none" /><path d="M 106.0420521117495 120.11202640906438 l 4.990245599364775 16.610904610864218 a38.34429886542577,38.34429886542577 0 0,0 -0.6320235778340212,0.18397285229716384 l -4.704362009149147 -16.6941211574639" fill="#ffa60f" stroke="none" /><path d="M 105.69591212413111 120.21278271476187 l 4.567121505249796 16.207103025068612 a37.8383130778859,37.8383130778859 0 0,0 -0.6267080497973656,0.1708120658191824 l -4.288232054517735 -16.283115585031936" fill="#ff9e0e" stroke="none" /><path d="M 104.9986988182912 120.39639698878246 l 5.52501839043958 22.54396045014223 a44.211117616182825,44.211117616182825 0 0,0 -0.7386790294639503,0.1743262396347737 l -5.137207207235751 -22.63548283342323" fill="#fff717" stroke="none" /><path d="M 104.64783097203109 120.47920084513623 l 4.6973469974182125 20.697377589311763 a42.2237251181007,42.2237251181007 0 0,0 -0.7082277569970326,0.1543549433085364 l -4.341356823802044 -20.774963990754017" fill="#ffdc14" stroke="none" /><path d="M 104.29559338865022 120.5559693870025 l 4.7687816093707305 22.820346319214316 a44.31328986150927,44.31328986150927 0 0,0 -0.7459477954156601,0.14921045056956306 l -4.376337328424111 -22.898846166446738" fill="#fff817" stroke="none" /><path d="M 103.58742460773223 120.69131181640829 l 3.4159361557218917 19.702211996495365 a40.99614406266403,40.99614406266403 0 0,0 -0.6944405110079436,0.11426992182074652 l -3.0772181416608757 -19.757947916811784" fill="#ffcb12" stroke="none" /><path d="M 103.2317021107853 120.74984581791261 l 2.5738753511592276 16.52612612803648 a37.72536035854161,37.72536035854161 0 0,0 -0.6407470915140399,0.0941677571146495 l -2.2898031540375023 -16.567874958450012" fill="#ff9d0e" stroke="none" /><path d="M 102.875027216393 120.80226474461374 l 3.1540326637463454 22.82100917525447 a44.037933540598374,44.037933540598374 0 0,0 -0.7497399008982861,0.09706884048701903 l -2.761814940957284 -22.87178961194188" fill="#fff517" stroke="none" /><path d="M 102.51750503828377 120.84855314841334 l 2.8241938683791847 23.388376615312133 a44.55827310534178,44.55827310534178 0 0,0 -0.760172835252887,0.08517895175888762 l -2.4222851315254985 -23.43341132757799" fill="#fffc17" stroke="none" /><path d="M 102.15924093988457 120.88869738790638 l 2.393907333409763 23.158881873071454 a44.28228085759277,44.28228085759277 0 0,0 -0.7568061873379726,0.0716703327893327 l -1.9960015826867752 -23.196563961365968" fill="#fff817" stroke="none" /><path d="M 101.08105385017728 120.97215588758144 l 1.0309510769815287 20.000175472647303 a41.02672911535511,41.02672911535511 0 0,0 -0.7036557597218489,0.030218005966844066 l -0.6874695566588501 -20.014926047039978" fill="#ffcc13" stroke="none" /><path d="M 100.72087961077811 120.9876233191556 l 0.7200386420854391 20.9631394332458 a41.975501675616755,41.975501675616755 0 0,0 -0.720352949480641,0.018553736710796676 l -0.3600723785340542 -20.97241088730664" fill="#ffd914" stroke="none" /><line stroke="#e1ed5e" stroke-width="0.3" x1="101.45913802915013" x2="101.54496967792366" y1="184.9874750549273" y2="189.98673829345242" /><path d="M 101.47630435890484 185.9873277026323 a86.0,86.0 0 0,1 -42.54439059252881,-10.42667462771756" fill="none" id="id55" stroke="none" /><text fill="#e1ed5e" style="font-size:6.75px; font-family:Arial;" text-anchor="middle"><textPath startOffset="22.145653131862474" xlink:href="#id55">July</textPath></text><path d="M 100.36049292484886 120.99690560180557 l 0.3593913950082334 20.93274701092394 a41.935831953809505,41.935831953809505 0 0,0 -0.7198843198570831,0.006179341079999713 l -2.563899958971969e-15 -20.935831953809505" fill="#ffd814" stroke="none" /><path d="M 100.0 121.0 l 2.5823238051124906e-15 21.086274074373158 a42.08627407437316,42.08627407437316 0 0,0 -0.722466858907676,-0.006201509071725385 l 0.3619739340588214 -21.083166963495866" fill="#ffda14" stroke="none" /><path d="M 99.63950707515114 120.99690560180557 l -0.36264712006335403 21.1223766733551 a42.125489562724596,42.125489562724596 0 0,0 -0.7229269322217993,-0.01862003337565888 l 0.7251873663558972 -21.113038922629393" fill="#ffdb14" stroke="none" /><path d="M 99.27912038922189 120.98762331915562 l -0.7244617839733445 21.091914383241196 a42.104352565914326,42.104352565914326 0 0,0 -0.7221382457534437,-0.03101172344228896 l 1.0864257903276269 -21.07637009137308" fill="#ffda14" stroke="none" /><path d="M 98.55909050195518 120.95050786540614 l -1.4476935388928331 21.04914633044393 a42.098871482214236,42.098871482214236 0 0,0 -0.7205542712228766,-0.05577545769635503 l 1.8088168048909459 -21.02119310575252" fill="#ffda14" stroke="none" /><path d="M 98.19965949673042 120.92268563240118 l -1.8182199180525294 21.130471534076726 a42.208553720676704,42.208553720676704 0 0,0 -0.7213651599637099,-0.06831403064909276 l 2.1806846414012546 -21.09614574792245" fill="#ffdc14" stroke="none" /><path d="M 97.84075906011543 120.88869738790638 l -2.1885123552988803 21.171871779152365 a42.28468324787015,42.28468324787015 0 0,0 -0.7213849485663802,-0.08083268815187508 l 2.55163320546606 -21.131183330493517" fill="#ffdd14" stroke="none" /><path d="M 97.48249496171623 120.84855314841334 l -2.5606762077478478 21.206072361826543 a42.36011628376469,42.36011628376469 0 0,0 -0.7211752875586093,-0.09337057940671606 l 2.9243293171972513 -21.15899018621943" fill="#ffde14" stroke="none" /><path d="M 97.12497278360702 120.80226474461374 l -2.92914676095226 21.193846809423754 a42.395304235474626,42.395304235474626 0 0,0 -0.7200638409960943,-0.10582458786623448 l 3.2925357075560395 -21.140441148258635" fill="#ffde14" stroke="none" /><path d="M 96.41257539226777 120.69131181640829 l -3.669749410908474 21.166139404163772 a42.48191141438204,42.48191141438204 0 0,0 -0.7174694490972472,-0.1307468337903552 l 4.032553593556778 -21.100024396442052" fill="#ffe014" stroke="none" /><path d="M 96.05791012581884 120.62667999033965 l -4.02366866246566 21.053534682558805 a42.43458028828684,42.43458028828684 0 0,0 -0.714322536520387,-0.14288451307347658 l 4.384487684517005 -20.981360772822466" fill="#ffdf14" stroke="none" /><path d="M 95.70440661134978 120.55596938700252 l -4.388061791458342 20.998464168378042 a42.452053135220254,42.452053135220254 0 0,0 -0.7120575526621902,-0.15518962944860723 l 4.747881760739668 -20.920043080795715" fill="#ffdf14" stroke="none" /><path d="M 95.35216902796893 120.47920084513623 l -4.76421507880524 20.992010693892055 a42.52585093067388,42.52585093067388 0 0,0 -0.7105216060201966,-0.16768116437073635 l 5.123868838565324 -20.907133385875092" fill="#ffe015" stroke="none" /><path d="M 94.6519064749342 120.30758222061772 l -5.510824638287339 20.925498763421302 a42.63898534340049,42.63898534340049 0 0,0 -0.7062205784622679,-0.1924835590833065 l 5.869226617684302 -20.827814710193852" fill="#ffe215" stroke="none" /><path d="M 94.30408787586889 120.21278271476187 l -5.827427771293506 20.6794853502226 a42.484879072959984,42.484879072959984 0 0,0 -0.700272167442062,-0.20383902206646665 l 6.181559951117174 -20.57640263385362" fill="#ffe015" stroke="none" /><path d="M 93.95794788825049 120.11202640906438 l -6.239368751654552 20.76882932954913 a42.685801671579114,42.685801671579114 0 0,0 -0.6999645547139022,-0.2168508083110812 l 6.594973939240087 -20.6586619334314" fill="#ffe215" stroke="none" /><path d="M 93.61358852112213 120.00534299687104 l -6.595471240112593 20.66021972133154 a42.68743691202003,42.68743691202003 0 0,0 -0.6961655490696801,-0.22884344358402617 l 6.949159526830016 -20.543955356345492" fill="#ffe215" stroke="none" /><path d="M 93.27111125876986 119.89276391827306 l -6.964490474420332 20.5892785787654 a42.735282836031814,42.735282836031814 0 0,0 -0.6929103397948706,-0.24103018493924863 l 7.316906586260224 -20.466689961257558" fill="#ffe315" stroke="none" /><path d="M 92.93061703081489 119.77432235084164 l -7.326142466045658 20.49252436078958 a42.762718536762634,42.762718536762634 0 0,0 -0.6891127551239038,-0.253051748887742 l 7.676844372823681 -20.363741762893117" fill="#ffe315" stroke="none" /><path d="M 92.25597844496254 119.51999308798841 l -8.052855112545025 20.298455397918964 a42.83748536358864,42.83748536358864 0 0,0 -0.6812089109995338,-0.27704173373682994 l 8.400118484735 -20.157226407602845" fill="#ffe415" stroke="none" /><path d="M 91.92203290615298 119.3841803445677 l -8.362400586134507 20.066717181680524 a42.739431501594865,42.739431501594865 0 0,0 -0.6748045901468956,-0.2880339531724344 l 8.705640251451833 -19.920208578848687" fill="#ffe315" stroke="none" /><path d="M 91.59046798132341 119.24265499422711 l -8.73381043020263 19.984667460701253 a42.809777122784354,42.809777122784354 0 0,0 -0.6708630418021801,-0.3000685055647123 l 9.075586874860443 -19.831795204226687" fill="#ffe415" stroke="none" /><path d="M 91.26138138417905 119.09545874513695 l -9.118204078856987 19.924921486139908 a42.912191625953895,42.912191625953895 0 0,0 -0.6672054703992042,-0.3122858493259984 l 9.458898263127681 -19.765459405243384" fill="#ffe515" stroke="none" /><path d="M 90.93487009805054 118.94263497670748 l -9.457394981199068 19.762318124186322 a42.90870916945936,42.90870916945936 0 0,0 -0.6616926515201941,-0.3236670337001446 l 9.79524788198133 -19.597057340388957" fill="#ffe515" stroke="none" /><path d="M 90.6110303473126 118.78422872680471 l -9.830313884842948 19.66721283589627 a42.98714014616223,42.98714014616223 0 0,0 -0.6572381198721862,-0.3355904670137471 l 10.166479226428716 -19.495564417209685" fill="#ffe615" stroke="none" /><path d="M 90.28995756902619 118.62028667847754 l -10.14046353325873 19.445675895258514 a42.9308757621028,42.9308757621028 0 0,0 -0.6505278483608915,-0.34636943812539994 l 10.472780197406184 -19.26873598941054" fill="#ffe615" stroke="none" /><line stroke="#e1ed5e" stroke-width="0.3" x1="58.13341422392154" x2="55.67067388415222" y1="173.97424548756322" y2="178.32567169271397" /><path d="M 57.64086615596768 174.84453072859336 a86.0,86.0 0 0,1 -31.369924170532247,-30.572349798747897" fill="none" id="id56" stroke="none" /><text fill="#e1ed5e" style="font-size:6.75px; font-family:Arial;" text-anchor="middle"><textPath startOffset="22.145653131862474" xlink:href="#id56">August</textPath></text><path d="M 89.65649057296885 118.27599006163327 l -11.80984771670726 20.86686931766976 a44.977046069366494,44.977046069366494 0 0,0 -0.668674883630763,-0.3860596240645656 l 12.166315068198424 -20.66106279632902" fill="#fdff18" stroke="none" /><path d="M 89.34428304082925 118.09573695890944 l -10.69088895664368 18.155466699951575 a42.069316025356315,42.069316025356315 0 0,0 -0.6191546446414917,-0.3717845743493354 l 11.0009763578426 -17.96926812506632" fill="#ffda14" stroke="none" /><path d="M 89.03521579738668 117.91015095944536 l -11.36239194728382 18.559613328982547 a42.761507247547144,42.761507247547144 0 0,0 -0.6227620392056477,-0.3886495717455938 l 11.67931811527918 -18.361827960395406" fill="#ffe315" stroke="none" /><path d="M 88.72937992617639 117.7192867562869 l -8.895419243962229 13.985076541373122 a37.574403440061374,37.574403440061374 0 0,0 -0.5412760428566765,-0.3508485914680761 l 9.134180919075915 -13.83031410820115" fill="#ff9b0e" stroke="none" /><path d="M 88.4268655584334 117.5232005979908 l -12.338105884749249 18.681464862378757 a43.38807687648888,43.38807687648888 0 0,0 -0.6179778498138239,-0.4158030768299082 l 12.656980022660079 -18.466912111491727" fill="#ffec16" stroke="none" /><path d="M 88.1277618465304 117.32195027204791 l -12.457550334754844 18.175938236809557 a43.03531917470828,43.03531917470828 0 0,0 -0.6057834095689307,-0.42288386738961853 l 12.76772883549754 -17.95940955361481" fill="#ffe715" stroke="none" /><path d="M 87.83215693770417 117.11559508785305 l -12.521468435167439 17.61301346051568 a42.61030807122381,42.61030807122381 0 0,0 -0.592524719553016,-0.42894220275298856 l 12.821974165094408 -17.395470486389627" fill="#ffe115" stroke="none" /><path d="M 87.54013794807813 116.9041958592261 l -10.03624068356047 13.616088003082758 a37.91519966083902,37.91519966083902 0 0,0 -0.5206064046216409,-0.3906727516234019 l 10.268500077092877 -13.441796224195341" fill="#ffa00e" stroke="none" /><path d="M 86.96720088162412 116.46651593811092 l -13.187506710769085 16.66198392720143 a42.249283320547505,42.249283320547505 0 0,0 -0.5648311307279046,-0.4549879766165437 l 13.471588611852251 -16.433147656791476" fill="#ffdc14" stroke="none" /><path d="M 86.68645165197938 116.24036423190432 l -13.470763085692779 16.43214064910559 a42.24798118464085,42.24798118464085 0 0,0 -0.5569202629406682,-0.46460269090063605 l 13.750857682795338 -16.198475774293087" fill="#ffdc14" stroke="none" /><path d="M 86.40962598614128 116.0094264158162 l -13.989084508976015 16.479106376521088 a42.61609197722777,42.61609197722777 0 0,0 -0.5536449706524276,-0.4782253393265141 l 14.269908959391305 -16.236536904729853" fill="#ffe115" stroke="none" /><path d="M 86.13680546590413 115.77377054828092 l -14.62806554054604 16.64405334818716 a43.158628416845,43.158628416845 0 0,0 -0.5522968023781402,-0.49386720631761605 l 14.91162736974755 -16.39049061198616" fill="#ffe915" stroke="none" /><path d="M 85.86807049272751 115.53346607816431 l -15.107035822304288 16.60527873186849 a43.449004724027944,43.449004724027944 0 0,0 -0.5473958626674567,-0.5066614383392833 l 15.389861456285711 -16.343499547396828" fill="#ffed16" stroke="none" /><path d="M 85.34317274990678 115.03919595460226 l -11.76900475686131 12.076035673270136 a37.86238745104373,37.86238745104373 0 0,0 -0.46157510050652895,-0.45763003788297396 l 11.974571777497802 -11.872225625158503" fill="#ff9f0e" stroke="none" /><path d="M 85.08716467003676 114.78537596483092 l -12.075750318972165 11.972539397970436 a38.004865345015546,38.004865345015546 0 0,0 -0.4553583686329575,-0.4672378011002027 l 12.279495488755932 -11.763478904802495" fill="#ffa10e" stroke="none" /><path d="M 84.83555147118756 114.52719865689866 l -12.45570220138214 11.932280949541305 a38.248879557475675,38.248879557475675 0 0,0 -0.4501422594645144,-0.47803548035305243 l 12.658700294582907 -11.716704009243761" fill="#ffa40f" stroke="none" /><path d="M 84.58840730492382 114.26474011684316 l -12.529847364638611 11.597439660949869 a38.07330318569064,38.07330318569064 0 0,0 -0.4398414709234633,-0.48346282542971414 l 12.727086536403954 -11.38063925996248" fill="#ffa20e" stroke="none" /><path d="M 84.3458050057657 113.99807769240083 l -12.709908086983043 11.365278184562728 a38.05025840836597,38.05025840836597 0 0,0 -0.4312162149860779,-0.49064489538537354 l 12.903135365927714 -11.145421011366054" fill="#ffa10e" stroke="none" /><path d="M 84.1078160697243 113.72728997021213 l -14.759296688910215 12.748728953425047 a40.502997940808335,40.502997940808335 0 0,0 -0.44997950542146786,-0.5300747259291156 l 14.975970757838795 -12.493487445046377" fill="#ffc412" stroke="none" /><path d="M 83.8745106332314 113.45245675266167 l -12.46893426908049 10.40202844028166 a37.238119271611424,37.238119271611424 0 0,0 -0.4052805050046698,-0.49437631841735996 l 12.64566159332379 -10.186449840165805" fill="#ff960d" stroke="none" /><path d="M 83.64595745247003 113.17365903436017 l -13.573381773657761 10.933755547577011 a38.42939193281383,38.42939193281383 0 0,0 -0.4094259535906102,-0.5172963174710731 l 13.759074157889932 -10.699139286191258" fill="#ffa70f" stroke="none" /><path d="M 83.4222238831116 112.89097897827486 l -13.984238508559557 10.874228447166358 a38.71462026083094,38.71462026083094 0 0,0 -0.40345800436010454,-0.5281394788833023 l 14.168848490273955 -10.632568055042185" fill="#ffab0f" stroke="none" /><path d="M 82.98947788004972 112.3143062007846 l -16.136246688069054 11.681398210301351 a40.920680744539105,40.920680744539105 0 0,0 -0.4070339221623804,-0.5725441857759752 l 16.334395708761395 -11.402676797815873" fill="#ffca12" stroke="none" /><path d="M 82.78059297857968 112.02048342749411 l -16.783680111748055 11.716312204285712 a41.46860742116526,41.46860742116526 0 0,0 -0.4024632282099837,-0.5872058777176598 l 16.982333076773365 -11.426471591498" fill="#ffd213" stroke="none" /><path d="M 82.576782715395 111.72311816256416 l -15.862661050216685 10.673106282655777 a40.119079823959304,40.119079823959304 0 0,0 -0.3795562235242509,-0.5746964987413504 l 16.043541712661664 -10.399229905575364" fill="#ffbf11" stroke="none" /><path d="M 82.37810715431573 111.42229804090323 l -17.17941175027232 11.135487140762125 a41.472695522267536,41.472695522267536 0 0,0 -0.38210632686404483,-0.6007346120042313 l 17.368035768762255 -10.838938854079222" fill="#ffd213" stroke="none" /><path d="M 82.18462484594161 111.11811171558189 l -17.91024820005267 11.177319513062475 a42.11183227681996,42.11183227681996 0 0,0 -0.3774664719037339,-0.6165631141480965 l 18.09948263641181 -10.868219282789822" fill="#ffda14" stroke="none" /><path d="M 81.99639281039703 110.81064883170644 l -14.680340415948663 8.815122619337055 a38.12363225259418,38.12363225259418 0 0,0 -0.332086409730671,-0.5639553247463992 l 14.829500535809105 -8.561816126297096" fill="#ffa30f" stroke="none" /><line stroke="#e1ed5e" stroke-width="0.3" x1="26.387840678322732" x2="22.057713659400548" y1="142.50000000000003" y2="145.00000000000006" /><path d="M 25.521815274538298 143.00000000000003 a86.0,86.0 0 0,1 -11.493303480769221,-40.785679425670985" fill="none" id="id57" stroke="none" /><text fill="#e1ed5e" style="font-size:6.75px; font-family:Arial;" text-anchor="middle"><textPath startOffset="21.40746469413373" xlink:href="#id57">September</textPath></text><path d="M 81.81346652052679 110.50000000000001 l -26.940629955941827 15.554179957201129 a52.10835991440223,52.10835991440223 0 0,0 -0.4406050535359668,-0.7785069116372388 l 27.203668374499173 -15.089416275464767" fill="#a2ff22" stroke="none" /><path d="M 81.63589988554817 110.18625677009913 l -17.83209212672141 9.891160907356523 a41.39162999152097,41.39162999152097 0 0,0 -0.3393219804781871,-0.6243142254486947 l 17.999259456814926 -9.583591848433242" fill="#ffd113" stroke="none" /><path d="M 81.4637452351635 109.86951160357371 l -18.017408775587782 9.593255338415341 a41.41219162595389,41.41219162595389 0 0,0 -0.3287180090528424,-0.6303601254529717 l 18.17943485361557 -9.282548969857867" fill="#ffd113" stroke="none" /><path d="M 81.29705330413844 109.54985784667822 l -18.71416615525954 9.55558658258865 a42.012597407841085,42.012597407841085 0 0,0 -0.3224568617331514,-0.6451297287545736 l 18.87544293020443 -9.232924997670322" fill="#ffd914" stroke="none" /><path d="M 81.1358732173502 109.22738970284198 l -18.3076497861962 8.95518891845861 a41.38051641296887,41.38051641296887 0 0,0 -0.3066507938184885,-0.6407822188374865 l 18.4586798379746 -8.639594197556018" fill="#ffd013" stroke="none" /><path d="M 80.83023694016515 108.57439118712176 l -17.28152442563381 7.729806063469452 a39.931481406710546,39.931481406710546 0 0,0 -0.2745120455237344,-0.628137281841758 l 17.41167035317451 -7.432006711851845" fill="#ffbc11" stroke="none" /><path d="M 80.68587082218212 108.24405325689762 l -15.922885196658273 6.796532857172718 a38.3127447813623,38.3127447813623 0 0,0 -0.25299940600212323,-0.6071064732052656 l 16.03721044719688 -6.52219387452617" fill="#ffa50f" stroke="none" /><path d="M 80.41425534168474 107.57618678355246 l -28.975139508528148 11.20820641878942 a52.06738805668834,52.06738805668834 0 0,0 -0.3153035302255933,-0.8363800742362626 l 29.163273722568174 -10.709158064359013" fill="#a3ff22" stroke="none" /><path d="M 80.28708602549918 107.23885506374661 l -36.47180169962007 13.392950771193242 a59.85310090039166,59.85310090039166 0 0,0 -0.3458934356006781,-0.9675255003756459 l 36.6963353052647 -12.764890314436673" fill="#49ff2c" stroke="none" /><path d="M 80.16572619554312 106.89939002012753 l -19.523178112362167 6.791174789537102 a41.67062018007833,41.67062018007833 0 0,0 -0.22921733918665485,-0.6776403340533314 l 19.63688087312119 -6.455032781009609" fill="#ffd413" stroke="none" /><path d="M 80.05021161711548 106.5578916946017 l -19.093802085834977 6.276511996713266 a41.0989522348286,41.0989522348286 0 0,0 -0.21456644331059338,-0.6721263276323106 l 19.198733244922824 -5.947816635389564" fill="#ffcd13" stroke="none" /><path d="M 79.94057633289273 106.21446072829308 l -19.139261576026463 5.929392160343029 a41.0366919691525,41.0366919691525 0 0,0 -0.20268936694847592,-0.6746869814275669 l 19.23822726297857 -5.599967575324738" fill="#ffcc13" stroke="none" /><path d="M 79.83685265289637 105.86919833188381 l -19.182256964593076 5.58367543718459 a40.97839867565712,40.97839867565712 0 0,0 -0.19080617213690426,-0.6771037919808094 l 19.275281628804557 -5.253563721300786" fill="#ffcb12" stroke="none" /><path d="M 79.73907114497094 105.5222062557868 l -19.312883240736948 5.263812207839901 a41.017371906165465,41.017371906165465 0 0,0 -0.1793250576538298,-0.68092645266098 l 19.40039777919551 -4.931505250806118" fill="#ffcb13" stroke="none" /><path d="M 79.64726062577567 105.17358676015961 l -19.39849010242036 4.9310203268297865 a41.0154035611903,41.0154035611903 0 0,0 -0.16760158240562675,-0.68387165039519 l 19.480279211342282 -4.597292851826497" fill="#ffcb13" stroke="none" /><path d="M 79.56144815229197 104.8234425847677 l -19.513318013869373 4.605089919262896 a41.04934994145435,41.04934994145435 0 0,0 -0.15596629835459522,-0.6872162882636853 l 19.589495173781632 -4.269439297060184" fill="#ffcc13" stroke="none" /><path d="M 79.48165901384964 104.47187691870673 l -19.5388114902666 4.258393024136905 a40.99747648080107,40.99747648080107 0 0,0 -0.14396417933897396,-0.6889207137565743 l 19.60903338042994 -3.922355859094921" fill="#ffcb12" stroke="none" /><path d="M 79.34024301695615 103.76489593502545 l -19.55576980177058 3.563712694849531 a40.8778313885412,40.8778313885412 0 0,0 -0.1198794622183325,-0.691432881347958 l 19.61406408148115 -3.2274867805809806" fill="#ffc912" stroke="none" /><path d="M 79.2786578344484 103.40968896794605 l -19.678934435814124 3.2381611727004067 a40.943574110711836,40.943574110711836 0 0,0 -0.10816611419945489,-0.6945040462952895 l 19.731622042151848 -2.899868944473667" fill="#ffca12" stroke="none" /><path d="M 79.22317932658666 103.0534771498775 l -19.547755046794055 2.872846827963797 a40.75773206282553,40.75773206282553 0 0,0 -0.09579131286066041,-0.6930982214706305 l 19.59419087620993 -2.5368602982930812" fill="#ffc812" stroke="none" /><path d="M 79.17382384314188 102.69636545807758 l -19.8683791513804 2.5723594599544053 a41.03420882626075,41.03420882626075 0 0,0 -0.08444823321220862,-0.6993525143506849 l 19.909609470852267 -2.2309132686803212" fill="#ffcc13" stroke="none" /><path d="M 79.13060592940153 102.33845913500099 l -19.790226988577377 2.217536212533391 a40.9140792183147,40.9140792183147 0 0,0 -0.07221843002088152,-0.6986477991735975 l 19.825377811079925 -1.877483891076862" fill="#ffca12" stroke="none" /><path d="M 79.0935383218832 101.97986365728391 l -19.959744537108463 1.890208559732323 a41.04904711915049,41.04904711915049 0 0,0 -0.06041320657917529,-0.7020930357373129 l 19.98925136638538 -1.5472944766193482" fill="#ffcc13" stroke="none" /><path d="M 79.06263194458094 101.62068470465958 l -19.95561757370367 1.5446910083508125 a41.01531271449913,41.01531271449913 0 0,0 -0.048312208006324256,-0.7024489013397897 l 19.97919374287506 -1.2018986828566796" fill="#ffcb13" stroke="none" /><path d="M 79.03789590574601 101.26102812881392 l -20.031185187484702 1.2050263590582493 a41.06739815076513,41.06739815076513 0 0,0 -0.036292649277727976,-0.7040677003287491 l 20.048919426219005 -0.8609868653527695" fill="#ffcc13" stroke="none" /><path d="M 79.01933749520258 100.90099992219065 l -16.92890979146634 0.7270002270612743 a37.94451285985384,37.94451285985384 0 0,0 -0.02236072492346726,-0.6510081084557872 l 16.938895203386654 -0.4362858540413674" fill="#ffa00e" stroke="none" /><path d="M 79.00696218219943 100.54070618675478 l -30.136995239786636 0.7762220940951414 a51.14698994629951,51.14698994629951 0 0,0 -0.015072697419286452,-0.8779090602401681 l 30.14587936880459 -0.2587661178859208" fill="#aeff20" stroke="none" /><line stroke="#e1ed5e" stroke-width="0.3" x1="15.003131293944662" x2="10.003315487706104" y1="100.72959589197737" y2="100.7725132973878" /><path d="M 14.003168132696942 100.73817937305945 a86.0,86.0 0 0,1 10.791469493833604,-42.45332614584628" fill="none" id="id58" stroke="none" /><text fill="#e1ed5e" style="font-size:6.75px; font-family:Arial;" text-anchor="middle"><textPath startOffset="22.145653131862435" xlink:href="#id58">October</textPath></text><path d="M 79.00077361379809 100.18025310272382 l -19.943202787703324 0.17118841021190961 a40.94393749747648,40.94393749747648 0 0,0 0.0,-0.702883025871447 l 19.943202787703324 0.1711884102119023" fill="#ffca12" stroke="none" /><path d="M 79.00077361379809 99.81974689727619 l -18.410100225095512 -0.15802856857671382 a39.41077845520249,39.41077845520249 0 0,0 0.011614109439039991,-0.6764636494399126 l 18.404674684057806 0.4740391339856787" fill="#ffb510" stroke="none" /><path d="M 79.00696218219943 99.45929381324524 l -19.96780953048356 -0.5142999428085778 a40.9744317034764,40.9744317034764 0 0,0 0.024146257974128286,-0.7029919550384334 l 19.95603858551258 0.8569981624111497" fill="#ffcb12" stroke="none" /><path d="M 79.01933749520258 99.09900007780938 l -20.019814745841295 -0.8597369851475932 a41.03826664513264,41.03826664513264 0 0,0 0.036266904780528915,-0.7035682639607334 l 20.002106251604197 1.2032770424850385" fill="#ffcc13" stroke="none" /><path d="M 79.03789590574601 98.7389718711861 l -19.96045264074833 -1.20077126469099 a40.99653773165906,40.99653773165906 0 0,0 0.04829009282991656,-0.7021273515284054 l 19.936898586753347 1.5432420403737204" fill="#ffcb12" stroke="none" /><path d="M 79.06263194458094 98.37931529534042 l -19.88134546419111 -1.538941877344901 a40.9408184277466,40.9408184277466 0 0,0 0.060253922923387014,-0.7002419182124027 l 19.85199791856998 1.8800048429329845" fill="#ffca12" stroke="none" /><path d="M 79.0935383218832 98.0201363427161 l -19.868789990905164 -1.881595069641778 a40.95768563007228,40.95768563007228 0 0,0 0.07229540075213907,-0.699392421176288 l 19.83356219767136 2.2223920131009787" fill="#ffcb12" stroke="none" /><path d="M 79.13060592940154 97.66154086499901 l -19.986168340251638 -2.2394918496830516 a41.11124682036581,41.11124682036581 0 0,0 0.08460677708762164,-0.7006654850747713 l 19.944779476904348 2.5822510116812594" fill="#ffcd13" stroke="none" /><path d="M 79.17382384314186 97.30363454192245 l -18.35679991215202 -2.376655264565618 a39.51001332418137,39.51001332418137 0 0,0 0.09285884802500714,-0.6718803667255383 l 18.313296547571806 2.691423939491223" fill="#ffb610" stroke="none" /><path d="M 79.22317932658666 96.9465228501225 l -19.393339127929135 -2.8501530054948536 a40.60165744740986,40.60165744740986 0 0,0 0.1072628272331189,-0.6887042959970643 l 19.34155480855775 3.182645483423368" fill="#ffc612" stroke="none" /><path d="M 79.2786578344484 96.59031103205396 l -19.927838190578594 -3.2791181908279055 a41.195825089837285,41.195825089837285 0 0,0 0.12081201936741055,-0.6968116231664216 l 19.868611353718947 3.6207228469149197" fill="#ffce13" stroke="none" /><path d="M 79.34024301695615 96.23510406497455 l -19.572304137674912 -3.566725801639001 a40.894638026406106,40.894638026406106 0 0,0 0.13178532290599537,-0.6895564966210228 l 19.508192522486755 3.9021848632933382" fill="#ffca12" stroke="none" /><path d="M 79.407916724674 95.88100663000787 l -6.295813081180092 -1.2593389407648452 a27.42052933338717,27.42052933338717 0 0,0 0.09628821921197947,-0.46077398565705713 l 6.273267151143745 1.3672293777073115" fill="#ff0000" stroke="none" /><path d="M 79.48165901384962 95.52812308129327 l -19.571801745444226 -4.265583096705174 a41.03124116768281,41.03124116768281 0 0,0 0.15589749438043868,-0.6869131252583616 l 19.495693389506126 4.6009305559025435" fill="#ffcc13" stroke="none" /><path d="M 79.56144815229197 95.17655741523228 l -19.52498916980223 -4.60784428028415 a41.06134170468769,41.06134170468769 0 0,0 0.16778929982089197,-0.6846376015081991 l 19.44301234346504 4.942337706400466" fill="#ffcc13" stroke="none" /><path d="M 79.64726062577567 94.8264132398404 l -10.196591060928766 -2.5919335742289116 a31.52086445673679,31.52086445673679 0 0,0 0.13780699672651786,-0.5232756127924476 l 10.150594583397522 2.7665896913941435" fill="#ff4006" stroke="none" /><path d="M 79.73907114497095 94.47779374421319 l -19.32348882358966 -5.26670280660735 a41.028364355796015,41.028364355796015 0 0,0 0.19103882544872397,-0.677929396508632 l 19.230231506066357 5.5976401270189955" fill="#ffcc13" stroke="none" /><path d="M 79.83685265289637 94.1308016681162 l -19.16437554458941 -5.578470416428124 a40.959775103968994,40.959775103968994 0 0,0 0.20230945740987505,-0.6734223861324456 l 19.065789767175907 5.906630406151293" fill="#ffcb12" stroke="none" /><path d="M 79.94057633289273 93.78553927170692 l -19.060091363103634 -5.90486502600335 a40.95380950458271,40.95380950458271 0 0,0 0.21380869262090435,-0.669752684389405 l 18.95591795470547 6.231186744084146" fill="#ffca12" stroke="none" /><path d="M 80.05021161711548 93.44210830539832 l -19.04676671041317 -6.2610505345708445 a41.04944078814552,41.04944078814552 0 0,0 0.22580042130156167,-0.6675388234725593 l 18.936480867539245 6.587091032517566" fill="#ffcc13" stroke="none" /><path d="M 80.16572619554312 93.10060997987247 l -18.902960213762007 -6.57543080908721 a41.01395001413171,41.01395001413171 0 0,0 0.2370212380733922,-0.6629905871684727 l 18.78729880564467 6.898956352636604" fill="#ffcb12" stroke="none" /><path d="M 80.28708602549916 92.7611449362534 l -18.814502715619344 -6.90894600519272 a41.04293010861227,41.04293010861227 0 0,0 0.24854292172210093,-0.6592896285433184 l 18.693129110082808 7.230903913930184" fill="#ffcc13" stroke="none" /><path d="M 80.41425534168474 92.42381321644754 l -18.673104923286513 -7.223158128308851 a41.021460007267734,41.021460007267734 0 0,0 0.2596879641995248,-0.6545833105166243 l 18.546358284120856 7.542642456039058" fill="#ffcb13" stroke="none" /><path d="M 80.5471966667186 92.08871423366112 l -18.494519748165896 -7.521560174754351 a40.965498445512175,40.965498445512175 0 0,0 0.27051694762255246,-0.6491421960571854 l 18.362676956006865 7.8379348802528" fill="#ffcb12" stroke="none" /><path d="M 80.68587082218212 91.75594674310238 l -18.461437262152348 -7.880089782295494 a41.07287923446522,41.07287923446522 0 0,0 0.2823586728316785,-0.6460919006980486 l 18.32344470730369 8.19584375276941" fill="#ffcc13" stroke="none" /><path d="M 80.9802524753101 91.09779779509293 l -18.07144247820859 -8.458347560424976 a40.95296160213187,40.95296160213187 0 0,0 0.3034823939649181,-0.6341614817343725 l 17.923580826283764 8.767321544224435" fill="#ffca12" stroke="none" /><path d="M 81.1358732173502 90.77261029715801 l -17.115700378628876 -8.372146733870931 a40.05360964186215,40.05360964186215 0 0,0 0.3074211561075367,-0.6150482454834383 l 16.969459309309595 8.66472683551814" fill="#ffbe11" stroke="none" /><path d="M 81.29705330413844 90.45014215332179 l -17.818362443951518 -9.098182824740615 a41.00677312552994,41.00677312552994 0 0,0 0.3254999141619583,-0.624189004177982 l 17.65955446081462 9.402718072023083" fill="#ffcb12" stroke="none" /><path d="M 81.46374523516351 90.13048839642627 l -16.1696798229941 -8.609443744906361 a39.31887188597731,39.31887188597731 0 0,0 0.32232984014520205,-0.5930506011006657 l 16.01950463323355 8.885749179481646" fill="#ffb410" stroke="none" /><path d="M 81.63589988554816 89.8137432299009 l -17.476555081262568 -9.693950501523641 a40.985060766342315,40.985060766342315 0 0,0 0.34655139641305316,-0.6123231115484132 l 17.307570319828145 9.99253038317116" fill="#ffcb12" stroke="none" /><line stroke="#e1ed5e" stroke-width="0.3" x1="26.387840678322718" x2="22.05771365940052" y1="57.49999999999999" y2="54.99999999999999" /><path d="M 25.521815274538284 56.99999999999999 a86.0,86.0 0 0,1 29.574782752854787,-30.34633250058573" fill="none" id="id59" stroke="none" /><text fill="#e1ed5e" style="font-size:6.75px; font-family:Arial;" text-anchor="middle"><textPath startOffset="21.40746469413373" xlink:href="#id59">November</textPath></text><path d="M 81.81346652052679 89.5 l -16.481319773588208 -9.515494407881457 a40.03098881576291,40.03098881576291 0 0,0 0.3487009649478003,-0.5921704717938001 l 16.31554509851063 9.79701604796883" fill="#ffbe11" stroke="none" /><path d="M 81.99639281039701 89.18935116829357 l -17.19971246703717 -10.32793314857711 a41.062310736060084,41.062310736060084 0 0,0 0.36805915876255996,-0.6011969751190082 l 17.01988534381922 10.621667239820662" fill="#ffcc13" stroke="none" /><path d="M 82.18462484594161 88.88188828441811 l -16.89153827157782 -10.541569174233608 a40.91102071304559,40.91102071304559 0 0,0 0.37693136788100434,-0.5925987169450512 l 16.708089212070924 10.82998156585733" fill="#ffca12" stroke="none" /><path d="M 82.37810715431573 88.57770195909679 l -16.813443063881518 -10.898270659751832 a41.03657084023095,41.03657084023095 0 0,0 0.3882363684024826,-0.5878393444145722 l 16.623882256558307 11.185289882505465" fill="#ffcc13" stroke="none" /><path d="M 82.576782715395 88.27688183743585 l -16.611797386261586 -11.177158642439204 a41.02200508741471,41.02200508741471 0 0,0 0.39812884062997844,-0.5808818767036885 l 16.417478808816295 11.460675254212928" fill="#ffcb13" stroke="none" /><path d="M 82.78059297857968 87.97951657250589 l -15.335312739900361 -10.705239292857303 a39.70224492267937,39.70224492267937 0 0,0 0.39491426280060893,-0.5554963670971199 l 15.14928337856978 10.966912886663945" fill="#ffb911" stroke="none" /><path d="M 82.98947788004972 87.6856937992154 l -16.205542128702703 -11.731562765408107 a41.00622804538297,41.00622804538297 0 0,0 0.4176737792091804,-0.5666546980691585 l 16.001766329909707 12.008023772746128" fill="#ffcb12" stroke="none" /><path d="M 83.2033758604659 87.39550010848427 l -16.016250437846306 -12.018892917367033 a41.02433681915452,41.02433681915452 0 0,0 0.42752833301061316,-0.5596483117547502 l 15.807570127481386 12.292062142362667" fill="#ffcb13" stroke="none" /><path d="M 83.42222388311158 87.10902102172516 l -15.828893686330236 -12.308643470697925 a41.05134856865991,41.05134856865991 0 0,0 0.43736022582112866,-0.5525903578936517 l 15.615267029867544 12.57855377250626" fill="#ffcc13" stroke="none" /><path d="M 83.64595745247003 86.82634096563983 l -15.631727760589559 -12.591813371981925 a41.07248556547019,41.07248556547019 0 0,0 0.4470117722744606,-0.5452816790773655 l 15.413269169076468 12.858297332757783" fill="#ffcc13" stroke="none" /><path d="M 83.8745106332314 86.54754324733833 l -15.352113430399708 -12.80727904047441 a40.99284329955182,40.99284329955182 0 0,0 0.4554215809088759,-0.536485477169379 l 15.129997285983716 13.068931300093347" fill="#ffcb12" stroke="none" /><path d="M 84.10781606972428 86.27271002978789 l -15.143495224391007 -13.080590497805245 a41.01067953324989,41.01067953324989 0 0,0 0.4647660946882508,-0.5288184998199748 l 14.916718065744163 13.33862127543652" fill="#ffcb12" stroke="none" /><path d="M 84.34580500576568 86.00192230759919 l -14.846356401033304 -13.275703440980514 a40.91628982113296,40.91628982113296 0 0,0 0.4726850468394009,-0.5195636687089926 l 14.616273653352039 13.528604685247165" fill="#ffca12" stroke="none" /><path d="M 84.58840730492382 85.73525988315684 l -14.706857396444994 -13.612447645517243 a41.039720192191226,41.039720192191226 0 0,0 0.4829870205045618,-0.5129154783775369 l 14.47101454220416 13.862904583839292" fill="#ffcc13" stroke="none" /><path d="M 84.83555147118756 85.47280134310135 l -14.437623173355778 -13.830916407825864 a40.99347922638995,40.99347922638995 0 0,0 0.4911666876242906,-0.503980290926037 l 14.198069684580686 14.076719390819632" fill="#ffcb12" stroke="none" /><path d="M 85.08716467003674 85.21462403516908 l -14.230734977779322 -14.109105495155731 a41.03947793434813,41.03947793434813 0 0,0 0.5003065688019364,-0.49603046997699163 l 13.986436488847408 14.351315975361397" fill="#ffcc13" stroke="none" /><path d="M 85.34317274990677 84.96080404539775 l -13.984322958278202 -14.34914730680551 a41.0364497113094,41.0364497113094 0 0,0 0.5087103305837517,-0.4873329892060057 l 13.735940141829149 14.587092426317083" fill="#ffcc13" stroke="none" /><path d="M 85.60350026404147 84.71141617570332 l -13.723297356297714 -14.573666226204901 a41.018007833003594,41.018007833003594 0 0,0 0.5167687482201818,-0.4783134384431525 l 13.471098836763579 14.80709741078042" fill="#ffcb13" stroke="none" /><path d="M 85.86807049272753 84.46653392183569 l -13.541587713329829 -14.884577033960415 a41.12275406791295,41.12275406791295 0 0,0 0.5262439148280399,-0.47057055362024 l 13.284078771678397 15.114843117464057" fill="#ffcd13" stroke="none" /><path d="M 86.13680546590413 84.22622945171909 l -13.186643229339246 -15.003979356277911 a40.97515847700569,40.97515847700569 0 0,0 0.5323268596426866,-0.45981126277594003 l 12.927136889933712 15.228134751518564" fill="#ffcb12" stroke="none" /><path d="M 86.40962598614128 83.9905735841838 l -13.016207383927721 -15.333059569478936 a41.11279121411556,41.11279121411556 0 0,0 0.5419559905861885,-0.4521189626797437 l 12.751077059179623 15.554240716070561" fill="#ffcd13" stroke="none" /><path d="M 86.68645165197937 83.75963576809568 l -12.71861276300138 -15.514639553353826 a41.06158396253079,41.06158396253079 0 0,0 0.5489527650225677,-0.4421974891748546 l 12.450409227623567 15.730685336322079" fill="#ffcc13" stroke="none" /><path d="M 86.96720088162412 83.53348406188908 l -9.686025859317724 -12.23797725574748 a36.60727984818509,36.60727984818509 0 0,0 0.49609846660705176,-0.38576916825839347 l 9.474517448075426 12.40244747562668" fill="#ff8d0d" stroke="none" /><path d="M 87.25179093698888 83.31218511350988 l -10.890840099846637 -14.2564592913631 a38.940374288367586,38.940374288367586 0 0,0 0.5346828827022563,-0.4012360032009937 l 10.644504228233627 14.441314321828095" fill="#ffae10" stroke="none" /><path d="M 87.54013794807813 83.09580414077388 l -11.942566733357307 -16.202385410150764 a41.128144304921875,41.128144304921875 0 0,0 0.5719142450055682,-0.414021808615103 l 11.66267147797777 16.405007990138945" fill="#ffcd13" stroke="none" /><path d="M 87.83215693770416 82.88440491214696 l -10.63794045552825 -14.963595476481954 a39.3596014858481,39.3596014858481 0 0,0 0.5540424480314788,-0.38676465783090447 l 10.379502916323005 15.144004950117987" fill="#ffb410" stroke="none" /><path d="M 88.12776184653039 82.6780497279521 l -11.387590970457406 -16.61483554817657 a41.14274033996851,41.14274033996851 0 0,0 0.5859974454069674,-0.3942852335048749 l 11.10069723695345 16.807870455738552" fill="#ffcd13" stroke="none" /><path d="M 88.4268655584334 82.4767994020092 l -9.838556103473353 -14.89682791349419 a38.85252553801429,38.85252553801429 0 0,0 0.5596879618261974,-0.3627829748976234 l 9.58138250939013 15.06352473009572" fill="#ffad10" stroke="none" /><path d="M 88.72937992617638 82.28071324371311 l -10.783731939019233 -16.95381773840474 a41.09280494206,41.09280494206 0 0,0 0.5984597047585667,-0.3734831176577368 l 10.49110810547097 17.136436652904013" fill="#ffcc13" stroke="none" /><path d="M 89.03521579738668 82.08984904055464 l -10.485827118207284 -17.127810557090385 a41.082690677110676,41.082690677110676 0 0,0 0.6046339981322949,-0.3630653433326232 l 10.190260363517554 17.305289900958932" fill="#ffcc13" stroke="none" /><line stroke="#e1ed5e" stroke-width="0.3" x1="56.869717070023135" x2="54.33264160355391" y1="26.7553504044142" y2="22.446841604673864" /><path d="M 56.362301976729285 25.89364864446614 a86.0,86.0 0 0,1 42.16139366436587,-11.88097634709845" fill="none" id="id60" stroke="none" /><text fill="#e1ed5e" style="font-size:6.75px; font-family:Arial;" text-anchor="middle"><textPath startOffset="22.145653131862474" xlink:href="#id60">December</textPath></text><path d="M 89.34428304082924 81.90426304109057 l -10.183422644480656 -17.29367795916611 a41.069215084588365,41.069215084588365 0 0,0 0.6105770613557038,-0.35251683073472434 l 9.885053115264553 17.46594168717701" fill="#ffcc13" stroke="none" /><path d="M 89.65649057296885 81.72400993836675 l -9.851642498146516 -17.406908328072937 a41.00138288852102,41.00138288852102 0 0,0 0.6155202023449132,-0.3414186804249983 l 9.5513781076455 17.573459923931082" fill="#ffcb12" stroke="none" /><path d="M 89.97174638481275 81.54914285379989 l -9.58063241069784 -17.627284546566564 a41.06264384059435,41.06264384059435 0 0,0 0.6222186915928651,-0.3312964066660175 l 9.276624903318412 17.789151420955157" fill="#ffcc13" stroke="none" /><path d="M 90.28995756902619 81.37971332152246 l -9.299854200933593 -17.833696662029965 a41.112882060806726,41.112882060806726 0 0,0 0.6285822507916684,-0.3209585760800884 l 8.992344728428343 17.990713189782888" fill="#ffcd13" stroke="none" /><path d="M 90.61103034731259 81.2157712731953 l -8.976504101653015 -17.959021325017034 a41.077451851253684,41.077451851253684 0 0,0 0.6334529413552386,-0.3098535763485402 l 8.666890911035724 18.11046865146279" fill="#ffcc13" stroke="none" /><path d="M 90.93487009805054 81.0573650232925 l -8.648054134869415 -18.071107034043536 a41.03381515726572,41.03381515726572 0 0,0 0.6380001791312878,-0.2986162983510059 l 8.336565241866605 18.216899563965086" fill="#ffcc13" stroke="none" /><path d="M 91.26138138417902 80.90454125486306 l -8.36365778728132 -18.27610166512222 a41.09892195259822,41.09892195259822 0 0,0 0.6440525891277645,-0.288076531098641 l 8.048691795297936 18.416981947130704" fill="#ffcd13" stroke="none" /><path d="M 91.92203290615298 80.6158196554323 l -7.683466762808436 -18.437523162877955 a40.9744317034764,40.9744317034764 0 0,0 0.6515823177444242,-0.26499285617874246 l 7.365829983873572 18.566703275635987" fill="#ffcb12" stroke="none" /><path d="M 92.25597844496254 80.48000691201159 l -7.387672565537035 -18.621760850058322 a41.033663746113774,41.033663746113774 0 0,0 0.6569836153789106,-0.25413537604407554 l 7.0669166876645955 18.745836114240436" fill="#ffcc13" stroke="none" /><path d="M 92.93061703081487 80.22567764915836 l -6.768075133845179 -18.93151070959692 a41.10494811644527,41.10494811644527 0 0,0 0.666476074954247,-0.2318349754332731 l 6.442093286845927 19.04490411759878" fill="#ffcd13" stroke="none" /><path d="M 93.27111125876988 80.10723608172694 l -6.426577979759268 -18.99903586908647 a41.05652683005612,41.05652683005612 0 0,0 0.6695679481166128,-0.22010028385526723 l 6.099487293994895 19.106557074343765" fill="#ffcc13" stroke="none" /><path d="M 93.61358852112211 79.99465700312896 l -5.653703108173667 -17.710144461496984 a39.5906851859329,39.5906851859329 0 0,0 0.6492106330860444,-0.2011271136527786 l 5.348851842216006 17.804588162956406" fill="#ffb711" stroke="none" /><path d="M 93.95794788825049 79.88797359093562 l -5.787048649183123 -19.263202817562302 a41.11369968102717,41.11369968102717 0 0,0 0.6776712142160173,-0.19726021397218738 l 5.455517422585482 19.35970672583701" fill="#ffcd13" stroke="none" /><path d="M 94.30408787586887 79.78721728523814 l -5.448593384953837 -19.335135758956334 a41.08817176081075,41.08817176081075 0 0,0 0.6805347780952636,-0.18548277997359866 l 5.115877205923895 19.42581903307407" fill="#ffcc13" stroke="none" /><path d="M 94.6519064749342 79.69241777938228 l -5.108627916959949 -19.398292302102302 a41.05970646424678,41.05970646424678 0 0,0 0.6831449571584548,-0.17365277669210621 l 4.774877666576116 19.483130310629672" fill="#ffcc13" stroke="none" /><path d="M 95.00130118170881 79.60360301121753 l -4.784226674137048 -19.521277451834923 a41.09898251705899,41.09898251705899 0 0,0 0.6866814990115118,-0.16205496402993189 l 4.44841302138563 19.600528559511087" fill="#ffcd13" stroke="none" /><path d="M 95.35216902796891 79.52079915486377 l -4.445919794335818 -19.589542941098355 a41.087717527354954,41.087717527354954 0 0,0 0.6891732537367524,-0.15020210300899417 l 4.108984123979948 19.66297650224106" fill="#ffcc13" stroke="none" /><path d="M 95.70440661134978 79.44403061299748 l -4.109609747552 -19.665970337511617 a41.090776032624056,41.090776032624056 0 0,0 0.6917016066567673,-0.13835969356466127 l 3.7714116553642563 19.733619427739146" fill="#ffcc13" stroke="none" /><path d="M 96.41257539226777 79.30868818359171 l -3.4227025779007545 -19.741238921516363 a41.0357532200105,41.0357532200105 0 0,0 0.6951114571200019,-0.11438032574816553 l 3.0833136177276796 19.797085245760197" fill="#ffcc13" stroke="none" /><path d="M 97.12497278360702 79.19773525538626 l -2.7421495143346406 -19.84082788547281 a41.02942423385957,41.02942423385957 0 0,0 0.6985204342217197,-0.0904374550762954 l 2.401151258222127 19.8849769367495" fill="#ffcc13" stroke="none" /><path d="M 97.48249496171623 79.15144685158666 l -2.412042067875023 -19.975168463846675 a41.1202709250212,41.1202709250212 0 0,0 0.7015198470896947,-0.07860676209677592 l 2.068786319184529 20.013630986450423" fill="#ffcd13" stroke="none" /><path d="M 97.84075906011542 79.11130261209362 l -2.066264263394124 -19.989232384502834 a41.09574231840756,41.09574231840756 0 0,0 0.702346660052065,-0.06651295893400024 l 1.7228180399570434 20.021757098942018" fill="#ffcc13" stroke="none" /><path d="M 98.1996594967304 79.07731436759882 l -1.7191471393467503 -19.97909566944162 a41.05292324464004,41.05292324464004 0 0,0 0.7026520699636583,-0.054389714097454925 l 1.375926074607875 20.005663150534126" fill="#ffcc13" stroke="none" /><path d="M 98.5590905019552 79.04949213459386 l -1.377118736000451 -20.023004185428984 a41.070305244882306,41.070305244882306 0 0,0 0.7037800620006558,-0.04233766088989502 l 1.0331943218673114 20.043693824143574" fill="#ffcc13" stroke="none" /><path d="M 98.9189461498227 79.02784411241856 l -1.04051175862465 -20.185650142366992 a41.21245003431986,41.21245003431986 0 0,0 0.7068410878518029,-0.030354797662371452 l 0.6938449101720269 20.20053750845519" fill="#ffce13" stroke="none" /><path d="M 99.27912038922189 79.0123766808444 l -0.8967772046665471 -26.10868984410765 a47.12408648604999,47.12408648604999 0 0,0 0.8087092074357713,-0.020829480494496948 l 0.44845468316003184 26.120237041952194" fill="#e1ff1b" stroke="none" /></svg>