<?xml version="1.0" encoding="utf-8" ?>
<svg baseProfile="full" height="200mm" version="1.1" viewBox="0,0,200,200" width="200mm" xmlns="http://www.w3.org/2000/svg" xmlns:ev="http://www.w3.org/2001/xml-events" xmlns:xlink="http://www.w3.org/1999/xlink"><defs /><rect fill="#1a1a1a" height="200" width="200" x="0" y="0" /><rect fill="#1a1a1a" height="200" width="180" x="10" y="0" /><text alignment-baseline="middle" fill="#e1ed5e" style="dominant-baseline: central; font-size:9.0px; font-family:Arial;" text-anchor="middle" x="100.0" y="100.0">2024</text><line stroke="#e1ed5e" stroke-width="0.3" x1="100.0" x2="100.0" y1="15.0" y2="10.0" /><path d="M 100.0 14.0 a86.0,86.0 0 0,1 42.35913384403234,11.155469271406648" fill="none" id="id97" stroke="none" /><text fill="#e1ed5e" style="font-size:6.75px; font-family:Arial;" text-anchor="middle"><textPath startOffset="22.145653131862478" xlink:href="#id97">January</textPath></text><path d="M 100.36049292484886 79.00309439819443 l 0.2666360462686916 -15.530212960184157 a36.53250170995779,36.53250170995779 0 0,0 0.6269441533312696,0.01614785746579947 l -0.5331935136707026 15.52334738536831" fill="#ff4c07" stroke="none" /><path d="M 101.08105385017728 79.02784411241856 l 0.7730888532787279 -14.99771722125989 a36.01762924778539,36.01762924778539 0 0,0 0.6171974908387897,0.037129068412289974 l -1.03043069624998 14.982236175022908" fill="#ff4306" stroke="none" /><path d="M 101.44090949804482 79.04949213459386 l 1.0521750653468398 -15.298394529458216 a36.33453447441737,36.33453447441737 0 0,0 0.6218932500244652,0.04813847067969028 l -1.3146373101465385 15.278078291783473" fill="#ff4806" stroke="none" /><path d="M 101.80034050326958 79.07731436759882 l 1.272344140212532 -14.78656754849913 a35.84120748043975,35.84120748043975 0 0,0 0.6125440482637222,0.05800855823022024 l -1.5259877518612672 14.762547234763726" fill="#ff4006" stroke="none" /><path d="M 102.15924093988457 79.11130261209362 l 1.1417666827033377 -11.045556927916872 a32.10441169110655,32.10441169110655 0 0,0 0.5477075290071967,0.06137177103383743 l -1.3312101133113312 11.024329396376064" fill="#ff0000" stroke="none" /><path d="M 102.87502721639298 79.19773525538626 l 2.1336600032907165 -15.438100902269872 a36.58484727157467,36.58484727157467 0 0,0 0.6213760255689513,0.0913208775000121 l -2.3983611344673497 15.399198951470977" fill="#ff4c07" stroke="none" /><path d="M 103.58742460773223 79.30868818359171 l 2.592588508399826 -14.953361562864586 a36.17644679111823,36.17644679111823 0 0,0 0.6109775781118132,0.11134046746594037 l -2.848900820062693 14.90665292146728" fill="#ff4606" stroke="none" /><path d="M 103.94208987418118 79.37332000966035 l 2.6520144435329986 -13.87646020320028 a35.127608728291875,35.127608728291875 0 0,0 0.5913206257306958,0.11828068604612064 l -2.889831554794651 13.8288901204913" fill="#ff3404" stroke="none" /><path d="M 104.29559338865022 79.4440306129975 l 3.1778860992437274 -15.207335392599042 a36.53582987171146,36.53582987171146 0 0,0 0.6128234486107664,0.13356201833932427 l -3.4384719644736284 15.150541916125999" fill="#ff4c07" stroke="none" /><path d="M 104.9986988182912 79.60360301121754 l 3.672770113900364 -14.986155400588023 a36.42964983400898,36.42964983400898 0 0,0 0.6061108010311964,0.15407099544428032 l -3.929486208156955 14.920899173308475" fill="#ff4a06" stroke="none" /><path d="M 105.3480935250658 79.69241777938227 l 3.8920771520934596 -14.77885089418909 a36.28275820362678,36.28275820362678 0 0,0 0.6009437204100356,0.1637898832757807 l -4.145202273438188 14.709860516769165" fill="#ff4706" stroke="none" /><path d="M 106.04205211174951 79.88797359093562 l 4.514601050898441 -15.027638604025267 a36.69112948968186,36.69112948968186 0 0,0 0.6016635300139007,0.18639689958035388 l -4.771905213783971 14.947925116638267" fill="#ff4e07" stroke="none" /><path d="M 106.72888874123014 80.10723608172694 l 10.81221744978628 -31.96439968515668 a54.74354595198773,54.74354595198773 0 0,0 0.8876124483066726,0.30875768520508673 l -11.35933567013797 31.774083567383002" fill="#a2ff22" stroke="none" /><path d="M 108.07796709384702 80.6158196554323 l 7.149465129037021 -17.156113638295547 a39.58620689655172,39.58620689655172 0 0,0 0.6250189387591895,0.2667834190328522 l -7.442919142966641 17.030855569603293" fill="#ff7d0b" stroke="none" /><path d="M 108.73861861582097 80.90454125486305 l 6.413630432595339 -14.01493997122718 a36.41276087282919,36.41276087282919 0 0,0 0.566151304003657,0.2649873969288945 l -6.653270450470501 13.902776342727753" fill="#ff4a06" stroke="none" /><path d="M 109.06512990194946 81.05736502329252 l 9.51315890887299 -19.878843285791298 a43.03789016232088,43.03789016232088 0 0,0 0.6636847439263108,0.3246414659209975 l -9.853003902061367 19.71260806977308" fill="#ffb410" stroke="none" /><path d="M 109.3889696526874 81.21577127319529 l 8.698517859312808 -17.40286262473531 a40.45568915469696,40.45568915469696 0 0,0 0.6185343102090662,0.3158280260241971 l -8.995979391235453 17.25097664703828" fill="#ff8b0c" stroke="none" /><path d="M 109.71004243097381 81.37971332152246 l 7.676425721203712 -14.720558495079281 a37.601878034132426,37.601878034132426 0 0,0 0.5697780065662207,0.3033746956226623 l -7.927992543556493 14.586613331734046" fill="#ff5d08" stroke="none" /><path d="M 110.34350942703115 81.72400993836675 l 11.983968199607558 -21.17452352705214 a45.33055569457652,45.33055569457652 0 0,0 0.6739305201866926,0.38909396724489154 l -12.345691187654648 20.965682662531076" fill="#ffd714" stroke="none" /><line stroke="#e1ed5e" stroke-width="0.3" x1="143.13028292997686" x2="145.6673583964461" y1="26.7553504044142" y2="22.446841604673864" /><path d="M 143.63769802327073 25.89364864446614 a86.0,86.0 0 0,1 29.32050498858742,28.57503671076993" fill="none" id="id98" stroke="none" /><text fill="#e1ed5e" style="font-size:6.75px; font-family:Arial;" text-anchor="middle"><textPath startOffset="20.669276256404974" xlink:href="#id98">February</textPath></text><path d="M 110.65571695917076 81.90426304109057 l 7.868523089066409 -13.36247242869071 a36.50707338638373,36.50707338638373 0 0,0 0.5372924065564321,0.32262865247240485 l -8.096748252180275 13.225429775682384" fill="#ff4b07" stroke="none" /><path d="M 111.27062007382361 82.28071324371311 l 11.356052701420555 -17.853601036851572 a42.15918247334969,42.15918247334969 0 0,0 0.6073218300231829,0.3936586727668398 l -11.660860163700745 17.656028522380836" fill="#ffa60f" stroke="none" /><path d="M 111.5731344415666 82.4767994020092 l 8.589285385985939 -13.005272821461176 a36.5856647148124,36.5856647148124 0 0,0 0.5210908627923316,0.35061318803299824 l -8.811272536875272 12.85590995937106" fill="#ff4c07" stroke="none" /><path d="M 111.8722381534696 82.67804972795209 l 8.90053103235426 -12.986140771797361 a36.743548037302105,36.743548037302105 0 0,0 0.5172177698818681,0.36105817253384054 l -9.12214389340989 12.831437783458393" fill="#ff4f07" stroke="none" /><path d="M 112.16784306229584 82.88440491214696 l 8.665153691260276 -12.188623833684035 a35.95484668768664,35.95484668768664 0 0,0 0.49997609532843523,0.3619441359607769 l -8.87311079696268 12.038078926350183" fill="#ff4206" stroke="none" /><path d="M 112.45986205192187 83.09580414077388 l 9.238514583317064 -12.53381934036902 a36.570702584121584,36.570702584121584 0 0,0 0.5021453706459416,0.3768192475614587 l -9.452312942873771 12.373381065543546" fill="#ff4c07" stroke="none" /><path d="M 112.7482090630111 83.31218511350987 l 9.481449032853128 -12.411521142607578 a36.61869817993761,36.61869817993761 0 0,0 0.49625320678163776,0.38588949515408827 l -9.693112184269992 12.246930595832698" fill="#ff4d07" stroke="none" /><path d="M 113.31354834802062 83.75963576809568 l 21.54159352595252 -26.277241487549322 a54.97842950803263,54.97842950803263 0 0,0 0.7247352550140276,0.6045999258352499 l -21.989503115128443 25.9035793778022" fill="#9fff22" stroke="none" /><path d="M 113.59037401385872 83.9905735841838 l 10.129581859069237 -11.932621959512272 a36.65234472749112,36.65234472749112 0 0,0 0.47616722649833876,0.411301909236146 l -10.332928565330436 11.756975917811406" fill="#ff4e07" stroke="none" /><path d="M 114.65682725009322 84.96080404539774 l 14.768345436175215 -15.153623437738375 a42.159780958577315,42.159780958577315 0 0,0 0.5139640271879403,0.5095711986508596 l -15.026301383493117 14.897872228858857" fill="#ffa60f" stroke="none" /><path d="M 114.91283532996326 85.21462403516908 l 10.773915871955644 -10.681831674239769 a36.17164431209649,36.17164431209649 0 0,0 0.4333934825238877,0.44469989295144025 l -10.955696155630344 10.495309089220587" fill="#ff4606" stroke="none" /><path d="M 115.16444852881244 85.47280134310134 l 10.994686873971155 -10.532661315385353 a36.22563935738952,36.22563935738952 0 0,0 0.4263312112549028,0.45274897230084293 l -11.173873918962318 10.342370883140015" fill="#ff4606" stroke="none" /><path d="M 115.6541949942343 86.00192230759917 l 18.063838442373363 -16.152795722325628 a45.232520894850104,45.232520894850104 0 0,0 0.5126114058207721,0.5832576810461588 l -18.338460912152726 15.84032576346817" fill="#ffd513" stroke="none" /><path d="M 116.1254893667686 86.54754324733833 l 13.375541458418484 -11.158352402229456 a38.41878117545001,38.41878117545001 0 0,0 0.41813022088686846,0.5100508824590603 l -13.56511849854398 10.9270992380719" fill="#ff6b09" stroke="none" /><path d="M 116.57777611688842 87.10902102172516 l 12.455491377514425 -9.6854654315213 a36.77807041689605,36.77807041689605 0 0,0 0.38327657083151273,0.5017213345616627 l -12.619919925700245 9.470223183718755" fill="#ff5007" stroke="none" /><path d="M 116.7966241395341 87.39550010848427 l 12.621577834482903 -9.471467309377433 a36.78014321939175,36.78014321939175 0 0,0 0.3746284930497877,0.5082555003073645 l -12.782308347116517 9.253405499801193" fill="#ff5007" stroke="none" /><path d="M 117.01052211995028 87.68569379921539 l 13.96631414740542 -10.110534391286693 a38.2418339088801,38.2418339088801 0 0,0 0.38038770038523956,0.5350629378486514 l -14.13781694632062 9.869294226728538" fill="#ff6809" stroke="none" /><path d="M 117.21940702142032 87.97951657250589 l 12.435735694079565 -8.681109322372615 a36.16605358423836,36.16605358423836 0 0,0 0.3510006142549847,0.5121203859784693 l -12.582926045149875 8.466354201324096" fill="#ff4506" stroke="none" /><path d="M 117.42321728460499 88.27688183743584 l 12.848531549732472 -8.645065438404318 a36.48618479221928,36.48618479221928 0 0,0 0.34518634453506186,0.5226561213399519 l -12.995042333188259 8.423229438725308" fill="#ff4b07" stroke="none" /><path d="M 117.81537515405839 88.88188828441811 l 13.04331121241648 -8.139990875674213 a36.3748957342809,36.3748957342809 0 0,0 0.32604384127553315,0.5325681115776494 l -13.181123018147415 7.91488564797201" fill="#ff4906" stroke="none" /><line stroke="#e1ed5e" stroke-width="0.3" x1="172.87174338648825" x2="177.1583165268699" y1="56.24261187166439" y2="53.66864786411523" /><path d="M 173.72905801456457 55.72781907015455 a86.0,86.0 0 0,1 12.242430191666344,42.057860355516425" fill="none" id="id99" stroke="none" /><text fill="#e1ed5e" style="font-size:6.75px; font-family:Arial;" text-anchor="middle"><textPath startOffset="22.145653131862474" xlink:href="#id99">March</textPath></text><path d="M 118.18653347947321 89.5 l 15.90740168309947 -9.184142643844988 a39.36828528768997,39.36828528768997 0 0,0 0.3328806639720752,0.5881682372294867 l -16.06271571209292 8.909717636516383" fill="#ff7a0b" stroke="none" /><path d="M 118.36410011445183 89.81374322990088 l 17.043818850836292 -9.453919009134987 a40.49021153429091,40.49021153429091 0 0,0 0.331932295746987,0.6107180378608339 l -17.20359649619862 9.15994613779955" fill="#ff8c0c" stroke="none" /><path d="M 118.70294669586156 90.45014215332178 l 13.425260504638253 -6.855033672436658 a36.074120414393676,36.074120414393676 0 0,0 0.276877612342963,0.5539406976454707 l -13.540958030192954 6.623561118627436" fill="#ff4406" stroke="none" /><path d="M 118.8641267826498 90.77261029715802 l 14.366012471697875 -7.027136589972797 a36.99259087800077,36.99259087800077 0 0,0 0.2741340210676129,0.5728346699879212 l -14.4845257507254 6.779489417919773" fill="#ff5307" stroke="none" /><path d="M 119.0197475246899 91.09779779509293 l 14.379896990965852 -6.730517875336517 a36.87706863186694,36.87706863186694 0 0,0 0.2634349135898341,0.5756528286262498 l -14.493316369410737 6.482676064495583" fill="#ff5107" stroke="none" /><path d="M 119.31412917781788 91.75594674310238 l 13.992792789105694 -5.972691178777407 a36.21418055486045,36.21418055486045 0 0,0 0.239141471630885,0.5738524755181612 l -14.093260105273062 5.731606193817968" fill="#ff4606" stroke="none" /><path d="M 119.4528033332814 92.08871423366111 l 19.335245353075514 -7.863475959207842 a41.873091937340476,41.873091937340476 0 0,0 0.26507925359120643,0.6681728816345549 l -19.467383281632845 7.530402060359722" fill="#ffa20e" stroke="none" /><path d="M 119.58574465831526 92.42381321644754 l 14.636635366708118 -5.661764990582135 a36.69352343059239,36.69352343059239 0 0,0 0.22220429919558263,0.5894233030751286 l -14.731670349718142 5.409673407312848" fill="#ff4e07" stroke="none" /><path d="M 119.71291397450082 92.76114493625339 l 14.148284666329781 -5.195446103638935 a36.07204761189797,36.07204761189797 0 0,0 0.2084617887784153,0.5831047245715519 l -14.235386625152138 4.951806422686467" fill="#ff4406" stroke="none" /><path d="M 119.94978838288452 93.4421083053983 l 14.450364501511398 -4.750121832356341 a36.21107135111689,36.21107135111689 0 0,0 0.1890481475995105,0.5921906297706765 l -14.529777364888165 4.5013621688942775" fill="#ff4606" stroke="none" /><path d="M 120.26092885502905 94.47779374421319 l 26.940535011339474 -7.342762616578426 a48.92326251605692,48.92326251605692 0 0,0 0.21388905392026972,0.8121715763230921 l -27.062613546064473 6.879210535882535" fill="#f3ff19" stroke="none" /><path d="M 120.35273937422433 94.82641323984039 l 15.663111891863217 -3.981501792789033 a37.16123233738718,37.16123233738718 0 0,0 0.15185225069399902,0.6196090025391158 l -15.729151669073506 3.7120369656418224" fill="#ff5608" stroke="none" /><path d="M 120.51834098615036 95.52812308129327 l 14.801301861985593 -3.225874850608123 a36.1487559014397,36.1487559014397 0 0,0 0.1269377148106354,0.6074429173389391 l -14.854497287620594 2.9713154819837797" fill="#ff4506" stroke="none" /><path d="M 120.77682067341334 96.94652285012252 l 62.330462020240034 -9.160431449632455 a84.0,84.0 0 0,0 0.19742193377914985,1.4284467671996575 l -62.478528470574396 8.089096374232712" fill="#4dd2ff" stroke="none" /><path d="M 120.86939407059847 97.66154086499901 l 15.01205149775846 -1.6821316824668002 a36.10600070066563,36.10600070066563 0 0,0 0.06373157442995064,0.6165451699860955 l -15.038715464670076 1.4241819901977735" fill="#ff4406" stroke="none" /><path d="M 120.93736805541906 98.37931529534042 l 14.717131673296251 -1.1391990691589744 a35.76115643194368,35.76115643194368 0 0,0 0.04212330258489075,0.612463574790194 l -14.734518937046207 0.8863920702144463" fill="#ff3f05" stroke="none" /><path d="M 120.96210409425399 98.7389718711861 l 15.095963666596267 -0.9081356875977367 a36.12325459186227,36.12325459186227 0 0,0 0.031923342327644114,0.6193043127668549 l -15.109328598380484 0.6488595814541511" fill="#ff4506" stroke="none" /><path d="M 120.99303781780057 99.45929381324524 l 26.17593808631163 -0.674199312658655 a47.184619138181276,47.184619138181276 0 0,0 0.013905011572739372,0.8098972136753549 l -26.183654529483032 0.2247551830142336" fill="#fff216" stroke="none" /><line stroke="#e1ed5e" stroke-width="0.3" x1="184.99686870605535" x2="189.99668451229388" y1="99.2704041080226" y2="99.22748670261217" /><path d="M 185.99683186730306 99.26182062694052 a86.0,86.0 0 0,1 -10.086455211305974,41.156179273409016" fill="none" id="id100" stroke="none" /><text fill="#e1ed5e" style="font-size:6.75px; font-family:Arial;" text-anchor="middle"><textPath startOffset="21.40746469413373" xlink:href="#id100">April</textPath></text><path d="M 120.99922638620191 99.81974689727618 l 15.299068948231602 -0.13132410670692815 a36.29963256760589,36.29963256760589 0 0,0 0.0,0.6231544188615081 l -15.299068948231602 -0.1313241067069263" fill="#ff4806" stroke="none" /><path d="M 120.99922638620191 100.18025310272382 l 14.809000586975673 0.12711745923151235 a35.8095461521779,35.8095461521779 0 0,0 -0.010552848846828342,0.6146505403952577 l -14.804636306530176 -0.381314915595841" fill="#ff3f05" stroke="none" /><path d="M 120.96210409425399 101.26102812881392 l 14.840915349816285 0.8927926142010956 a35.86774519126504,35.86774519126504 0 0,0 -0.042248854189173624,0.6142890675616617 l -14.823402534462044 -1.1474251059171008" fill="#ff4006" stroke="none" /><path d="M 120.93736805541906 101.62068470465957 l 14.79215581590234 1.14500641228252 a35.836405001418015,35.836405001418015 0 0,0 -0.05274159305382828,0.6129372578205275 l -14.77032060015077 -1.3987647174787048" fill="#ff4006" stroke="none" /><path d="M 120.9064616781168 101.97986365728391 l 61.48272543280923 5.822478021835648 a82.7578074170462,82.7578074170462 0 0,0 -0.1460778059244254,1.4131702612158497 l -61.373715234403136 -6.877052805334429" fill="#4be0ff" stroke="none" /><path d="M 120.82617615685814 102.69636545807757 l 14.685761173664233 1.9013658031124052 a35.80833458452196,35.80833458452196 0 0,0 -0.08415893641770797,0.6089321401912401 l -14.650957720691313 -2.15318625150373" fill="#ff3f05" stroke="none" /><path d="M 120.77682067341334 103.0534771498775 l 14.542757749826484 2.1372845818572315 a35.69897235707255,35.69897235707255 0 0,0 -0.09431074850321998,0.6055426593567477 l -14.503925509184997 -2.3866154231454297" fill="#ff3e05" stroke="none" /><path d="M 120.65975698304385 103.76489593502545 l 14.866135182464351 2.7091050472633755 a36.11096374889478,36.11096374889478 0 0,0 -0.11636965743582137,0.608895220840886 l -14.81743923274637 -2.963902833137576" fill="#ff4406" stroke="none" /><path d="M 120.51834098615036 104.47187691870673 l 23.003035986831726 5.013404629503271 a44.54302212101497,44.54302212101497 0 0,0 -0.16924044565017596,0.7457046304925586 l -22.913584679623884 -5.407543593934847" fill="#ffcb12" stroke="none" /><path d="M 120.35273937422433 105.17358676015961 l 14.475249110542235 3.67955171887851 a35.935592979997665,35.935592979997665 0 0,0 -0.15710787852778454,0.5965642047500486 l -14.40995175120972 -3.927496428001362" fill="#ff4206" stroke="none" /><path d="M 120.05942366710727 106.21446072829308 l 15.51855974282029 4.807689477119156 a37.24621723971106,37.24621723971106 0 0,0 -0.19445236253799203,0.6091192560940294 l -15.433742664505044 -5.073377766904568" fill="#ff5708" stroke="none" /><path d="M 119.83427380445688 106.89939002012753 l 19.523682548133653 6.7913502584835275 a41.67115426321672,41.67115426321672 0 0,0 -0.2408192474026948,0.6736142952200103 l -19.404223130687015 -7.12549951008446" fill="#ff9f0e" stroke="none" /><path d="M 119.71291397450082 107.23885506374661 l 14.348245847250187 5.268874619023864 a36.285064561333265,36.285064561333265 0 0,0 -0.2197308022863631,0.5828620586543108 l -14.255684361149383 -5.514404957872333" fill="#ff4706" stroke="none" /><path d="M 119.4528033332814 107.91128576633889 l 15.206856265594617 6.184496057641796 a37.41634761356622,37.41634761356622 0 0,0 -0.24708001932574192,0.5929021000590126 l -15.09845040173239 -6.444630667142087" fill="#ff5a08" stroke="none" /><path d="M 119.31412917781788 108.2440532568976 l 14.459887350018178 6.172066071671478 a36.72204636070934,36.72204636070934 0 0,0 -0.2524485370232677,0.5776516565901048 l -14.351804930977943 -6.4193797980374265" fill="#ff4f07" stroke="none" /><path d="M 118.8641267826498 109.22738970284198 l 14.623333054016856 7.153004981283825 a37.279046344026824,37.279046344026824 0 0,0 -0.2861257107197189,0.5724430894544775 l -14.498387430085403 -7.402979926902049" fill="#ff5808" stroke="none" /><path d="M 118.70294669586154 109.54985784667822 l 14.38214988886034 7.343628210127259 a37.14853277280083,37.14853277280083 0 0,0 -0.29487431726883584,0.5654603839991087 l -14.253967502616554 -7.589434837230871" fill="#ff5607" stroke="none" /><path d="M 118.5362547648365 109.86951160357373 l 14.46791694234131 7.703350863134187 a37.390919289992155,37.390919289992155 0 0,0 -0.3065247922823656,0.5639710931926778 l -14.333546800443605 -7.950576789801468" fill="#ff5a08" stroke="none" /><line stroke="#e1ed5e" stroke-width="0.3" x1="174.33088141563837" x2="178.70328620479359" y1="141.23008692659167" y2="143.65538615756765" /><path d="M 175.20536237346943 141.71514677278685 a86.0,86.0 0 0,1 -30.301960400862466,31.631185727798858" fill="none" id="id101" stroke="none" /><text fill="#e1ed5e" style="font-size:6.75px; font-family:Arial;" text-anchor="middle"><textPath startOffset="22.145653131862474" xlink:href="#id101">May</textPath></text><path d="M 118.00360718960297 110.81064883170644 l 13.916281074101429 8.356326937765786 a37.23240828787348,37.23240828787348 0 0,0 -0.3337300952501851,0.5451230298008345 l -13.770783014395839 -8.593987083691177" fill="#ff5708" stroke="none" /><path d="M 117.81537515405839 111.11811171558189 l 13.415684641398 8.372379435978411 a36.81383355854729,36.81383355854729 0 0,0 -0.33918216652419086,0.5332507024364519 l -13.269984783247919 -8.601443813093535" fill="#ff5007" stroke="none" /><path d="M 117.62189284568427 111.42229804090321 l 12.739698382642787 8.25771857495982 a36.181891546969624,36.181891546969624 0 0,0 -0.3423075049525527,0.5182971912896334 l -12.596066438769508 -8.475195644588515" fill="#ff4606" stroke="none" /><path d="M 117.423217284605 111.72311816256416 l 13.626079523158763 9.16823441578904 a37.42335426988973,37.42335426988973 0 0,0 -0.3632030325237967,0.5299240789063504 l -13.466686753819646 -9.400793229765435" fill="#ff5a08" stroke="none" /><path d="M 117.21940702142032 112.02048342749411 l 12.656808524160942 8.835435327150638 a36.435663880686654,36.435663880686654 0 0,0 -0.36242190760536686,0.5097918003858909 l -12.503271518025615 -9.051404354246031" fill="#ff4a06" stroke="none" /><path d="M 116.79662413953412 112.60449989151573 l 12.28766099515869 9.220889887981723 a36.36266328011611,36.36266328011611 0 0,0 -0.3789474741421264,0.496054408029388 l -12.12756154366226 -9.43046520925199" fill="#ff4906" stroke="none" /><path d="M 116.35404254752997 113.17365903436017 l 12.64198709376867 10.18348992342837 a37.23340089751931,37.23340089751931 0 0,0 -0.40522915265197035,0.49431367689684147 l -12.465311121878072 -10.399005882023703" fill="#ff5708" stroke="none" /><path d="M 115.89218393027572 113.72728997021213 l 11.157797093009687 9.63783938044798 a35.74396092954974,35.74396092954974 0 0,0 -0.40507939197759196,0.46090598867213844 l -10.99070663707351 -9.827957646931411" fill="#ff3e05" stroke="none" /><path d="M 115.6541949942343 113.99807769240083 l 10.939564498936097 9.782226031650863 a35.675354086382065,35.675354086382065 0 0,0 -0.4121391868874441,0.45301316254824586 l -10.770027611206773 -9.96857676975678" fill="#ff3d05" stroke="none" /><path d="M 115.41159269507618 114.26474011684316 l 11.022064644539169 10.201858485114817 a36.01878242663864,36.01878242663864 0 0,0 -0.4238967596507932,0.45016366906058947 l -10.845312051152117 -10.389563614119904" fill="#ff4306" stroke="none" /><path d="M 115.16444852881244 114.52719865689866 l 11.160273571569373 10.691289625961803 a36.45494678277697,36.45494678277697 0 0,0 -0.43678789399483836,0.44818285815196474 l -10.975098876423727 -10.881295176181505" fill="#ff4a06" stroke="none" /><path d="M 114.65682725009322 115.03919595460226 l 11.13586415183201 11.426377635867079 a36.95523664147607,36.95523664147607 0 0,0 -0.4581173756730761,0.43886608286051826 l -10.93807429029362 -11.615855849033178" fill="#ff5307" stroke="none" /><path d="M 114.13192950727249 115.5334660781643 l 9.873731814978692 10.852960887891143 a35.67233246584255,35.67233246584255 0 0,0 -0.4564953956359878,0.40820099766799745 l -9.685971392519326 -11.020857415442528" fill="#ff3d05" stroke="none" /><path d="M 113.31354834802062 116.24036423190432 l 9.354156046262986 11.410549411942968 a35.754689872045105,35.754689872045105 0 0,0 -0.47800483989350084,0.3850468628309863 l -9.156900436014233 -11.569444568567357" fill="#ff3f05" stroke="none" /><path d="M 113.03279911837588 116.46651593811092 l 9.157072560076017 11.569662041696573 a35.754967218857914,35.754967218857914 0 0,0 -0.48454800478001364,0.3767874592793462 l -8.957114610660772 -11.72515055259671" fill="#ff3f05" stroke="none" /><path d="M 112.45986205192187 116.90419585922612 l 9.100165209455369 12.346121843959045 a36.33752690055553,36.33752690055553 0 0,0 -0.5052975186194757,0.3657964360470239 l -8.886886680461926 -12.500519051379145" fill="#ff4806" stroke="none" /><path d="M 112.16784306229584 117.11559508785304 l 8.634823568462092 12.145960717623048 a35.902501126069765,35.902501126069765 0 0,0 -0.5053788367621852,0.35279367775842574 l -8.425049640526149 -12.292399211186597" fill="#ff4106" stroke="none" /><path d="M 111.5731344415666 117.5232005979908 l 8.5792216649048 12.990035065073103 a36.56740361676926,36.56740361676926 0 0,0 -0.526769761196652,0.34144579495597105 l -8.35496627145114 -13.135394701732968" fill="#ff4c07" stroke="none" /><path d="M 111.27062007382361 117.71928675628689 l 8.62415151530543 13.558598615552505 a37.068963431927,37.068963431927 0 0,0 -0.5398580345745522,0.3369113413021217 l -8.390129351941162 -13.704645753696175" fill="#ff5407" stroke="none" /><path d="M 110.96478420261333 117.91015095944535 l 8.097563771305172 13.226761864884253 a36.50863528685585,36.50863528685585 0 0,0 -0.5373153938075447,0.32264245565621896 l -7.86931562094019 -13.363818321076396" fill="#ff4b07" stroke="none" /><line stroke="#e1ed5e" stroke-width="0.3" x1="143.1302829299769" x2="145.66735839644613" y1="173.24464959558577" y2="177.55315839532614" /><path d="M 143.63769802327073 174.10635135553383 a86.0,86.0 0 0,1 -40.68552437913181,11.842963189579606" fill="none" id="id102" stroke="none" /><text fill="#e1ed5e" style="font-size:6.75px; font-family:Arial;" text-anchor="middle"><textPath startOffset="21.407464694133747" xlink:href="#id102">June</textPath></text><path d="M 110.02825361518725 118.45085714620011 l 7.499985381039525 13.799128360154215 a36.70559531554977,36.70559531554977 0 0,0 -0.5561967120295533,0.29614342125134663 l -7.261999853223418 -13.925842249128129" fill="#ff4e07" stroke="none" /><path d="M 109.71004243097381 118.62028667847754 l 7.498819455995758 14.37997506327917 a37.21776729559748,37.21776729559748 0 0,0 -0.5690291403435647,0.2905503335525703 l -7.250863093938611 -14.506583348504577" fill="#ff5708" stroke="none" /><path d="M 109.3889696526874 118.78422872680471 l 7.245400565926376 14.495654633277658 a37.20554943863337,37.20554943863337 0 0,0 -0.5737445645845135,0.2806472172450602 l -6.995495752079793 -14.617895600619942" fill="#ff5708" stroke="none" /><path d="M 108.73861861582097 119.09545874513695 l 6.750077381162944 14.750137272854273 a37.22128522095991,37.22128522095991 0 0,0 -0.5832869568907544,0.260896836706663 l -6.495877021416563 -14.863837860470786" fill="#ff5708" stroke="none" /><path d="M 108.07796709384702 119.3841803445677 l 6.009798593650036 14.421328834401377 a36.62345686735732,36.62345686735732 0 0,0 -0.5823923826970614,0.23685391193837105 l -5.761351749762533 -14.52237000291904" fill="#ff4d07" stroke="none" /><path d="M 107.74402155503746 119.51999308798841 l 5.692315973800819 14.348354749988864 a36.43624776871361,36.43624776871361 0 0,0 -0.5833751024047508,0.2256620219347125 l -5.44516860890254 -14.443956660061618" fill="#ff4a06" stroke="none" /><path d="M 107.06938296918513 119.77432235084164 l 5.602658679703625 15.671633470292923 a37.64301294563168,37.64301294563168 0 0,0 -0.6103442205153385,0.21230940267245035 l -5.332808687143265 -15.765501305533963" fill="#ff5e08" stroke="none" /><path d="M 106.72888874123015 119.89276391827305 l 5.504745603691502 16.273802248120898 a38.17960604240696,38.17960604240696 0 0,0 -0.62264985500436,0.20467737473752737 l -5.224573011039408 -16.365900544260445" fill="#ff6709" stroke="none" /><path d="M 106.38641147887787 120.00534299687104 l 4.700327146088116 14.723707839056825 a36.455764226014715,36.455764226014715 0 0,0 -0.5978039950977002,0.18520120579751032 l -4.446882518118792 -14.80222563266098" fill="#ff4a06" stroke="none" /><path d="M 105.3480935250658 120.30758222061773 l 4.358487746344705 16.54988789025729 a38.114181388986204,38.114181388986204 0 0,0 -0.6341377728742311,0.16119534208815603 l -4.073744680245077 -16.622268464180713" fill="#ff6609" stroke="none" /><path d="M 104.9986988182912 120.39639698878246 l 3.5852618214818297 14.629091705242379 a36.06201933503495,36.06201933503495 0 0,0 -0.6025239550416451,0.14219401280215643 l -3.3336057127003054 -14.688481861690759" fill="#ff4406" stroke="none" /><path d="M 103.94208987418118 120.62667999033965 l 3.9151841884501586 20.485898073334372 a41.856670086582255,41.856670086582255 0 0,0 -0.7069098594725329,0.12882252480229903 l -3.5629395954265686 -20.550088772068033" fill="#ffa10e" stroke="none" /><path d="M 103.2317021107853 120.74984581791261 l 3.4145275586347092 21.923716343232822 a43.18802237125269,43.18802237125269 0 0,0 -0.7335277770609272,0.10780332281166292 l -3.037674675966097 -21.97910073934337" fill="#ffb610" stroke="none" /><path d="M 102.875027216393 120.80226474461374 l 2.420902527364854 17.51644471676695 a38.682946716046914,38.682946716046914 0 0,0 -0.6585719697906748,0.08526532655957121 l -2.119852735683404 -17.555421639526916" fill="#ff6f0a" stroke="none" /><path d="M 102.15924093988457 120.88869738790638 l 1.8029440915743251 17.44184858694983 a38.53478512920608,38.53478512920608 0 0,0 -0.658578628939842,0.06236808088222226 l -1.5032658992494679 -17.470228423337236" fill="#ff6c0a" stroke="none" /><path d="M 101.80034050326958 120.92268563240118 l 1.53441762960712 17.832258750375257 a38.8981532455833,38.8981532455833 0 0,0 -0.6657715391641394,0.05153492776479661 l -1.2280770956677445 -17.855971445135108" fill="#ff720a" stroke="none" /><path d="M 101.44090949804482 120.95050786540614 l 1.245032895964416 18.102505060162066 a39.145269255793,39.145269255793 0 0,0 -0.6707926775710708,0.04035322175751521 l -0.93409586626088 -18.121210259744274" fill="#ff760a" stroke="none" /><path d="M 100.72087961077811 120.9876233191556 l 0.6884853465899216 20.044499662559087 a41.056320170828954,41.056320170828954 0 0,0 -0.704578626800739,0.01814744611393709 l -0.3442934057184387 -20.053364826023067" fill="#ff950d" stroke="none" /><line stroke="#e1ed5e" stroke-width="0.3" x1="101.45913802915013" x2="101.54496967792366" y1="184.9874750549273" y2="189.98673829345242" /><path d="M 101.47630435890484 185.9873277026323 a86.0,86.0 0 0,1 -42.54439059252881,-10.42667462771756" fill="none" id="id103" stroke="none" /><text fill="#e1ed5e" style="font-size:6.75px; font-family:Arial;" text-anchor="middle"><textPath startOffset="22.145653131862474" xlink:href="#id103">July</textPath></text><path d="M 100.36049292484886 120.99690560180557 l 0.3103956463228612 18.07899028194547 a39.08165465525583,39.08165465525583 0 0,0 -0.6708885711717113,0.0057587715047977325 l -2.214364049684689e-15 -18.081654655255832" fill="#ff750a" stroke="none" /><path d="M 100.0 121.0 l 1.9431752576093497e-15 15.867230118612682 a36.86723011861268,36.86723011861268 0 0,0 -0.63287502935878,-0.00543247096727864 l 0.27238210450992595 -15.864892045839838" fill="#ff5107" stroke="none" /><path d="M 99.27912038922189 120.98762331915562 l -0.622937170513543 18.136136035429022 a39.14683115626512,39.14683115626512 0 0,0 -0.6714133398378657,-0.028833377726436772 l 0.9341762709522474 -18.12277008927676" fill="#ff760a" stroke="none" /><path d="M 98.91894614982273 120.97215588758144 l -0.9013771684350382 17.48647626279357 a38.50969254124752,38.50969254124752 0 0,0 -0.6599014456481392,-0.03969803229034425 l 1.2014229662156237 -17.468426252678533" fill="#ff6c0a" stroke="none" /><path d="M 97.84075906011543 120.88869738790638 l -1.8435253914012473 17.83443585038775 a38.92946424102898,38.92946424102898 0 0,0 -0.6641442574988654,-0.07441874932510388 l 2.1494055505009118 -17.800161340555675" fill="#ff730a" stroke="none" /><path d="M 97.48249496171623 120.84855314841334 l -2.2063290176491 18.271569306849166 a39.40429658175267,39.40429658175267 0 0,0 -0.6708528543223502,-0.0868553329340706 l 2.5196596938622444 -18.2310023777147" fill="#ff7b0b" stroke="none" /><path d="M 96.76829788921471 120.74984581791261 l -2.794396452833296 17.94202979194859 a39.15833375039621,39.15833375039621 0 0,0 -0.6633095360939255,-0.109147331745372 l 3.101983491980285 -17.89141646170755" fill="#ff770a" stroke="none" /><path d="M 96.41257539226777 120.69131181640829 l -3.1413829414587973 18.118662016303347 a39.388969521045,39.388969521045 0 0,0 -0.6652333033490816,-0.12122766795747181 l 3.4519509783589357 -18.062066174414507" fill="#ff7a0b" stroke="none" /><path d="M 95.35216902796893 120.47920084513623 l -7.035537213808167 30.999875107774102 a52.788221727307615,52.788221727307615 0 0,0 -0.8819852221600799,-0.2081461109085273 l 7.566654589708135 -30.874532853219346" fill="#bdff1f" stroke="none" /><path d="M 95.00130118170881 120.39639698878247 l -4.2232401847639265 17.23226113808368 a38.74222594798392,38.74222594798392 0 0,0 -0.6445870797567603,-0.16385151503600234 l 4.518432557746066 -17.157224391212413" fill="#ff700a" stroke="none" /><path d="M 94.30408787586889 120.21278271476187 l -5.3083841233652285 18.83758255284543 a40.57124059523214,40.57124059523214 0 0,0 -0.6687299389188812,-0.1946575390447326 l 5.630974074665716 -18.74368131949818" fill="#ff8d0d" stroke="none" /><path d="M 93.95794788825049 120.11202640906438 l -5.384988310283184 17.924874712402755 a39.7162825517575,39.7162825517575 0 0,0 -0.6512701868673615,-0.20176516867889233 l 5.691899130022179 -17.829792955917213" fill="#ff800b" stroke="none" /><path d="M 92.93061703081489 119.77432235084164 l -6.401855630238793 17.907129579441186 a40.0170724688454,40.0170724688454 0 0,0 -0.6448672115476465,-0.23680417242190288 l 6.708311993440558 -17.794594558010562" fill="#ff840c" stroke="none" /><path d="M 92.59220618246901 119.65005319985036 l -6.147101448858831 16.305916912683834 a38.42612356738902,38.42612356738902 0 0,0 -0.6152346946765392,-0.23798599664743292 l 6.426108406028899 -16.19799102789836" fill="#ff6b09" stroke="none" /><path d="M 91.92203290615298 119.3841803445677 l -7.159909091631033 17.181175346530104 a39.61335768980531,39.61335768980531 0 0,0 -0.625447617365101,-0.26696639643890685 l 7.453791784166566 -17.05573430043179" fill="#ff7e0b" stroke="none" /><path d="M 91.59046798132341 119.24265499422711 l -7.159043834046083 16.38129330873001 a38.87732304022154,38.87732304022154 0 0,0 -0.6092383783518439,-0.2725045774374517 l 7.4391956152535625 -16.255984980382706" fill="#ff720a" stroke="none" /><path d="M 91.26138138417905 119.09545874513695 l -9.035655793453774 19.744538584940287 a42.71381771015798,42.71381771015798 0 0,0 -0.6641211217144007,-0.3108422184036155 l 9.373265629039665 -19.586520134966143" fill="#ffaf10" stroke="none" /><path d="M 90.6110303473126 118.78422872680471 l -8.288769521534753 16.58309146964929 a39.539218507582206,39.539218507582206 0 0,0 -0.6045222255953887,-0.3086733557803966 l 8.572218968843725 -16.43836016219606" fill="#ff7d0b" stroke="none" /><path d="M 90.28995756902619 118.62028667847754 l -8.839492302277243 16.95089202036481 a40.11725305707088,40.11725305707088 0 0,0 -0.6078932667943189,-0.32366892484355675 l 9.129174384858123 -16.79665262779868" fill="#ff860c" stroke="none" /><path d="M 89.97174638481275 118.45085714620012 l -7.970785592052308 14.66534772108485 a37.69149024906995,37.69149024906995 0 0,0 -0.5658314932417566,-0.3138571910873704 l 8.221361273450167 -14.52635761456433" fill="#ff5f08" stroke="none" /><line stroke="#e1ed5e" stroke-width="0.3" x1="58.13341422392154" x2="55.67067388415222" y1="173.97424548756322" y2="178.32567169271397" /><path d="M 57.64086615596768 174.84453072859336 a86.0,86.0 0 0,1 -31.369924170532247,-30.572349798747897" fill="none" id="id104" stroke="none" /><text fill="#e1ed5e" style="font-size:6.75px; font-family:Arial;" text-anchor="middle"><textPath startOffset="22.145653131862474" xlink:href="#id104">August</textPath></text><path d="M 89.65649057296885 118.27599006163327 l -8.97775222141459 15.862827943636669 a39.22715955157399,39.22715955157399 0 0,0 -0.5831911750687269,-0.3367055819149462 l 9.248735864343717 -15.706375464445552" fill="#ff780b" stroke="none" /><path d="M 89.03521579738668 117.91015095944536 l -11.364716305794488 18.5634099939274 a42.765958910965416,42.765958910965416 0 0,0 -0.6228268715084982,-0.3886900318975489 l 11.681707306092699 -18.365584165188302" fill="#ffb010" stroke="none" /><path d="M 88.4268655584334 117.5232005979908 l -11.377273996192923 17.226642920308606 a41.644601955190765,41.644601955190765 0 0,0 -0.5931454774057263,-0.399094748440171 l 11.671315761695656 -17.028798497811316" fill="#ff9e0e" stroke="none" /><path d="M 88.1277618465304 117.32195027204791 l -11.242221389383758 16.40273698496758 a40.88560590894683,40.88560590894683 0 0,0 -0.5755231336675993,-0.4017598446790299 l 11.522139614225123 -16.20733232448342" fill="#ff920d" stroke="none" /><path d="M 87.83215693770417 117.11559508785305 l -11.257787135681584 15.835487457644064 a40.42937040188179,40.42937040188179 0 0,0 -0.5621973283797473,-0.40698751032525865 l 11.527965474435284 -15.63989917594574" fill="#ff8b0c" stroke="none" /><path d="M 87.54013794807813 116.9041958592261 l -9.134765544285564 12.39306384334291 a36.39584271724806,36.39584271724806 0 0,0 -0.4997444030282062,-0.37501751670019307 l 9.346162936224536 -12.234427299378702" fill="#ff4906" stroke="none" /><path d="M 86.96720088162412 116.46651593811092 l -11.907578830703125 15.044836862683097 a40.18691089868709,40.18691089868709 0 0,0 -0.5372592512670539,-0.43277802223382233 l 12.164088852325442 -14.838210546655864" fill="#ff870c" stroke="none" /><path d="M 86.40962598614128 116.0094264158162 l -11.696643903368914 13.778617107375833 a39.07378676409255,39.07378676409255 0 0,0 -0.5076252777435574,-0.4384746246562229 l 11.931448660875335 -13.575798350254889" fill="#ff750a" stroke="none" /><path d="M 86.13680546590413 115.77377054828092 l -10.15006875164701 11.548915016952687 a36.37534824750179,36.37534824750179 0 0,0 -0.46549182074204454,-0.4162456564725408 l 10.346825599212426 -11.372973830596765" fill="#ff4906" stroke="none" /><path d="M 85.86807049272751 115.53346607816431 l -21.23479991792097 23.340764899222435 a52.55484168293212,52.55484168293212 0 0,0 -0.6621164991719808,-0.6128451468082146 l 21.63234618840692 -22.972802006281842" fill="#c0ff1e" stroke="none" /><path d="M 85.34317274990678 115.03919595460226 l -11.056845784277465 11.345297829617884 a36.84202075304873,36.84202075304873 0 0,0 -0.44913595197714656,-0.44529720622354024 l 11.249973656384574 -11.153820613165685" fill="#ff5107" stroke="none" /><path d="M 84.83555147118756 114.52719865689866 l -11.128851205693737 10.661187710255621 a36.411432527567854,36.411432527567854 0 0,0 -0.42851776830925886,-0.4550710201197696 l 11.31022480773925 -10.468575230191362" fill="#ff4a06" stroke="none" /><path d="M 84.58840730492382 114.26474011684316 l -14.266986546250003 13.205309753467235 a40.44034749678862,40.44034749678862 0 0,0 -0.4671867276892499,-0.5135200527992285 l 14.491570974781132 -12.958452125110332" fill="#ff8b0c" stroke="none" /><path d="M 84.3458050057657 113.99807769240083 l -12.969298029856096 11.597226270957572 a38.398228316901054,38.398228316901054 0 0,0 -0.4351596906197298,-0.4951318467626319 l 13.166468784434418 -11.37288214638364" fill="#ff6a09" stroke="none" /><path d="M 84.1078160697243 113.72728997021213 l -14.093135048757132 12.173314394826063 a39.62272909263801,39.62272909263801 0 0,0 -0.4401999098093979,-0.5185543868885407 l 14.300029522073643 -11.929593225487968" fill="#ff7e0b" stroke="none" /><path d="M 83.8745106332314 113.45245675266167 l -13.486532035376138 11.250944689044193 a38.563322656523695,38.563322656523695 0 0,0 -0.4197033358988333,-0.5119698269887396 l 13.6776821905136 -11.017772580356958" fill="#ff6d0a" stroke="none" /><path d="M 83.64595745247003 113.17365903436017 l -14.559253015826089 11.727903634104294 a39.695335568790355,39.695335568790355 0 0,0 -0.4229132911279258,-0.5343371278529159 l 14.758432737595577 -11.476246562336698" fill="#ff7f0b" stroke="none" /><path d="M 83.4222238831116 112.89097897827486 l -15.131983283100725 11.766721725921776 a40.16853302303855,40.16853302303855 0 0,0 -0.41860971546050885,-0.5479735550901917 l 15.331744975915528 -11.505227257590715" fill="#ff870c" stroke="none" /><path d="M 82.98947788004972 112.3143062007846 l -16.503966045748683 11.947598667553162 a41.37464132592629,41.37464132592629 0 0,0 -0.41154942270115863,-0.5788958027753918 l 16.7066305669798 -11.662525638068265" fill="#ff9a0e" stroke="none" /><path d="M 82.78059297857968 112.02048342749411 l -17.964040638367955 12.5402955232846 a42.90812104832925,42.90812104832925 0 0,0 -0.4164340687438037,-0.6075897515801308 l 18.176664443927084 -12.230071036634419" fill="#ffb210" stroke="none" /><path d="M 82.576782715395 111.72311816256416 l -16.00584719604038 10.769448311760614 a40.29166041072352,40.29166041072352 0 0,0 -0.3811889637579067,-0.5771686755559566 l 16.188360598719015 -10.493099757865597" fill="#ff890c" stroke="none" /><path d="M 82.37810715431573 111.42229804090323 l -15.821378695315849 10.255226521829234 a39.85432827853127,39.85432827853127 0 0,0 -0.36719559209665725,-0.5772924603426818 l 15.995091979038396 -9.982120386807882" fill="#ff820b" stroke="none" /><path d="M 82.18462484594161 111.11811171558189 l -15.90217818330683 9.924135306396764 a39.74480548187445,39.74480548187445 0 0,0 -0.35624979229415327,-0.5819072625012206 l 16.070195940056387 -9.649690927770985" fill="#ff800b" stroke="none" /><path d="M 81.99639281039703 110.81064883170644 l -16.77369258003348 10.072120446976992 a40.56538711776187,40.56538711776187 0 0,0 -0.35335598869532386,-0.6000757198024879 l 16.944122278858575 -9.782693558880945" fill="#ff8d0d" stroke="none" /><line stroke="#e1ed5e" stroke-width="0.3" x1="26.387840678322732" x2="22.057713659400548" y1="142.50000000000003" y2="145.00000000000006" /><path d="M 25.521815274538298 143.00000000000003 a86.0,86.0 0 0,1 -11.493303480769221,-40.785679425670985" fill="none" id="id105" stroke="none" /><text fill="#e1ed5e" style="font-size:6.75px; font-family:Arial;" text-anchor="middle"><textPath startOffset="21.40746469413373" xlink:href="#id105">September</textPath></text><path d="M 81.63589988554817 110.18625677009913 l -16.31690463989313 9.050711949907853 a39.65895934471081,39.65895934471081 0 0,0 -0.3251178228861212,-0.5981801753269053 l 16.469867812394583 -8.76927694110636" fill="#ff7f0b" stroke="none" /><path d="M 81.4637452351635 109.86951160357371 l -16.448221617950885 8.757751561791842 a39.63443604757853,39.63443604757853 0 0,0 -0.3146066990409403,-0.6032998278591808 l 16.596136385966773 -8.474105490828158" fill="#ff7e0b" stroke="none" /><path d="M 81.29705330413844 109.54985784667822 l -16.847553208442058 8.602480711799824 a39.916731311412505,39.916731311412505 0 0,0 -0.306370581765583,-0.6129463930476857 l 16.99274370341938 -8.312002462588385" fill="#ff830c" stroke="none" /><path d="M 81.1358732173502 109.22738970284198 l -13.766441353346092 6.733856311095053 a36.325133877183326,36.325133877183326 0 0,0 -0.26918782327013374,-0.5624990189367309 l 13.880008434576137 -6.496544790093218" fill="#ff4806" stroke="none" /><path d="M 80.9802524753101 108.90220220490708 l -14.789924329250235 6.922431373147627 a37.32978621356956,37.32978621356956 0 0,0 -0.26666894550833276,-0.582719772018015 l 14.906577739613624 -6.667522618914923" fill="#ff5908" stroke="none" /><path d="M 80.68587082218212 108.24405325689762 l -14.790701246185234 6.313270852534981 a37.081735982516726,37.081735982516726 0 0,0 -0.24487040097602492,-0.5875998204030016 l 14.896897491697745 -6.0584385226906985" fill="#ff5507" stroke="none" /><path d="M 80.5471966667186 107.91128576633889 l -17.183085150233453 6.988211140666488 a39.54975768646881,39.54975768646881 0 0,0 -0.2503712948384699,-0.6310992176278892 l 17.30051512003805 -6.692210905825033" fill="#ff7d0b" stroke="none" /><path d="M 80.41425534168474 107.57618678355246 l -16.654632852661965 6.442369769672567 a38.857237292094155,38.857237292094155 0 0,0 -0.23530706168075294,-0.6241799372688728 l 16.762770598157154 -6.155521552209549" fill="#ff720a" stroke="none" /><path d="M 80.16572619554312 106.89939002012753 l -17.439379186497188 6.066321353772052 a39.46434946532539,39.46434946532539 0 0,0 -0.21708131863846827,-0.6417623457321493 l 17.540945926708023 -5.766057333565741" fill="#ff7c0b" stroke="none" /><path d="M 80.05021161711548 106.5578916946017 l -17.566835977055057 5.774567907356553 a39.491602438983705,39.491602438983705 0 0,0 -0.2061749075147445,-0.6458399612712175 l 17.663375600347056 -5.472158912393944" fill="#ff7c0b" stroke="none" /><path d="M 79.94057633289273 106.21446072829308 l -17.402787368669618 5.391428012100421 a39.21879535558781,39.21879535558781 0 0,0 -0.1937103704431488,-0.6447988223216786 l 17.492774059116396 -5.091891586188019" fill="#ff780b" stroke="none" /><path d="M 79.83685265289637 105.86919833188381 l -18.338245104225 5.337995885392096 a40.09935688904459,40.09935688904459 0 0,0 -0.18671312302145512,-0.6625790046230617 l 18.427176719321032 -5.022408956866038" fill="#ff860c" stroke="none" /><path d="M 79.64726062577567 105.17358676015961 l -18.633532798648027 4.736571171553127 a40.22611897969738,40.22611897969738 0 0,0 -0.1643763222998906,-0.6707114885410769 l 18.71209664746421 -4.4160038584039505" fill="#ff880c" stroke="none" /><path d="M 79.56144815229197 104.8234425847677 l -18.27371324269862 4.312546568535395 a39.77569315850057,39.77569315850057 0 0,0 -0.1511270613363516,-0.665893717062151 l 18.345051165592636 -3.998218517534218" fill="#ff810b" stroke="none" /><path d="M 79.48165901384964 104.47187691870673 l -17.140534673783513 3.7356997543672255 a38.54290117278081,38.54290117278081 0 0,0 -0.13534484590243115,-0.6476740830288885 l 17.202137230510314 -3.4409092200529274" fill="#ff6d0a" stroke="none" /><path d="M 79.407916724674 104.11899336999214 l -17.10901258585534 3.422281683014151 a38.447931785195934,38.447931785195934 0 0,0 -0.12390067133271042,-0.6483006678529513 l 17.165239549470204 -3.128078450127885" fill="#ff6b09" stroke="none" /><path d="M 79.2786578344484 103.40968896794605 l -31.860652286057395 5.242658209270634 a53.28911007123434,53.28911007123434 0 0,0 -0.14078096723960484,-0.9039147991299744 l 31.945954745435266 -4.69495522820921" fill="#b6ff1f" stroke="none" /><path d="M 79.22317932658666 103.0534771498775 l -18.928524855036272 2.781841314138182 a40.13185025774486,40.13185025774486 0 0,0 -0.09432032719070552,-0.6824549019335284 l 18.973489698782192 -2.456498104004568" fill="#ff860c" stroke="none" /><path d="M 79.17382384314188 102.69636545807758 l -25.179801140463052 3.2600293748139353 a46.389962130690826,46.389962130690826 0 0,0 -0.0954703515134178,-0.790631465421824 l 25.23205357823613 -2.8273042324687117" fill="#ffe715" stroke="none" /><path d="M 79.0935383218832 101.97986365728391 l -22.094918032832997 2.09241170970895 a43.19377366831824,43.19377366831824 0 0,0 -0.0635696698143539,-0.7387759231466311 l 22.127581325345094 -1.7128147391866568" fill="#ffb610" stroke="none" /><path d="M 79.06263194458094 101.62068470465958 l -15.124867149387859 1.170760373707838 a36.17011160602573,36.17011160602573 0 0,0 -0.04260501358812126,-0.6194675470561171 l 15.142736124141045 -0.9109494024973775" fill="#ff4506" stroke="none" /><path d="M 79.01933749520258 100.90099992219065 l -18.239280390164005 0.7832731787470253 a39.25609120330981,39.25609120330981 0 0,0 -0.023133638853392164,-0.6735106542024802 l 18.250038716014245 -0.47005625998042516" fill="#ff780b" stroke="none" /><path d="M 79.00696218219943 100.54070618675478 l -21.512598839314617 0.5540882356591473 a42.51973332999683,42.51973332999683 0 0,0 -0.01253029895805549,-0.7298270957605159 l 21.51894056987134 -0.18471422392957915" fill="#ffac0f" stroke="none" /><line stroke="#e1ed5e" stroke-width="0.3" x1="15.003131293944662" x2="10.003315487706104" y1="100.72959589197737" y2="100.7725132973878" /><path d="M 14.003168132696942 100.73817937305945 a86.0,86.0 0 0,1 10.791469493833604,-42.45332614584628" fill="none" id="id106" stroke="none" /><text fill="#e1ed5e" style="font-size:6.75px; font-family:Arial;" text-anchor="middle"><textPath startOffset="22.145653131862435" xlink:href="#id106">October</textPath></text><path d="M 79.00077361379809 100.18025310272382 l -22.4935305604693 0.19307990685798898 a43.4943592245967,43.4943592245967 0 0,0 0.0,-0.7466660191636048 l 22.4935305604693 0.1930799068579807" fill="#ffbb11" stroke="none" /><path d="M 79.00077361379809 99.81974689727619 l -62.99576699576172 -0.5407428945531865 a83.9980877667117,83.9980877667117 0 0,0 0.024753710082169034,-1.4417795137244498 l 62.97720185408088 1.6220693242466888" fill="#4dd2ff" stroke="none" /><path d="M 79.01933749520258 99.09900007780938 l -21.759420656356458 -0.9344431480086617 a42.779475918789515,42.779475918789515 0 0,0 0.03780567033017422,-0.7334199045393298 l 21.740173396569713 1.3078348459247036" fill="#ffb010" stroke="none" /><path d="M 79.03789590574601 98.7389718711861 l -31.610604453563106 -1.9016154678709019 a52.66775103014531,52.66775103014531 0 0,0 0.06203769213478228,-0.9020144282378374 l 31.573302800263257 2.4439733202630642" fill="#beff1f" stroke="none" /><path d="M 79.06263194458094 98.37931529534042 l -31.26923307931873 -2.42043640079064 a52.36277171646398,52.36277171646398 0 0,0 0.0770639799648086,-0.895600261982184 l 31.223075476656177 2.9568577101485047" fill="#c2ff1e" stroke="none" /><path d="M 79.0935383218832 98.0201363427161 l -21.829560394296934 -2.0672820654482797 a42.927228784011476,42.927228784011476 0 0,0 0.07577188897216974,-0.7330242910892044 l 21.790856112843098 2.441710878820397" fill="#ffb210" stroke="none" /><path d="M 79.13060592940154 97.66154086499901 l -18.191669272249964 -2.038414486146596 a39.305517324791886,39.305517324791886 0 0,0 0.08089059320295086,-0.6698901515399256 l 18.153996592787347 2.350398314609958" fill="#ff790b" stroke="none" /><path d="M 79.17382384314186 97.30363454192245 l -18.024317226546962 -2.333608724378781 a39.17475560115443,39.17475560115443 0 0,0 0.09207090483459786,-0.6661792023131982 l 17.98160180515716 2.6426762348920456" fill="#ff770a" stroke="none" /><path d="M 79.2786578344484 96.59031103205396 l -19.357618380570862 -3.1852887380852195 a40.61793704018818,40.61793704018818 0 0,0 0.11911728884328214,-0.6870368678603601 l 19.300086274235344 3.5171186388661724" fill="#ff8e0d" stroke="none" /><path d="M 79.34024301695615 96.23510406497455 l -19.84987116456091 -3.6173077601817787 a41.17677627079058,41.17677627079058 0 0,0 0.13269452962440015,-0.694313850365906 l 19.784850342654348 3.9575241755809993" fill="#ff970d" stroke="none" /><path d="M 79.407916724674 95.88100663000787 l -21.19503171237581 -4.23959994395792 a42.614892481190466,42.614892481190466 0 0,0 0.14964379640649828,-0.7160997374692014 l 21.11913020514494 4.6028161327125305" fill="#ffad10" stroke="none" /><path d="M 79.48165901384962 95.52812308129327 l -18.442991047057742 -4.01956405885455 a39.87593213552876,39.87593213552876 0 0,0 0.1515079176037614,-0.6675718400490511 l 18.371272267896316 4.335570232842609" fill="#ff820c" stroke="none" /><path d="M 79.56144815229197 95.17655741523228 l -19.707178814771183 -4.650840540420139 a41.24853610930384,41.24853610930384 0 0,0 0.16855423386291202,-0.6877587934340227 l 19.624437054391972 4.98845515846228" fill="#ff980e" stroke="none" /><path d="M 79.64726062577567 94.8264132398404 l -19.81952813812328 -5.038046549049031 a41.44983150659793,41.44983150659793 0 0,0 0.18121574053225706,-0.688105683507773 l 19.7301229167863 5.377532736929588" fill="#ff9b0e" stroke="none" /><path d="M 79.73907114497095 94.47779374421319 l -20.740977971795896 -5.653045777245217 a42.49756018217306,42.49756018217306 0 0,0 0.19787978656019437,-0.7022055541270892 l 20.64087969316112 6.00825925527532" fill="#ffab0f" stroke="none" /><path d="M 79.94057633289273 93.78553927170692 l -24.789053361657444 -7.67971209762065 a46.95139966301319,46.95139966301319 0 0,0 0.24512047841476395,-0.7678364074195375 l 24.653568167465423 8.104117538731579" fill="#ffef16" stroke="none" /><path d="M 80.05021161711548 93.44210830539832 l -18.152364357265498 -5.967042716003134 a40.10795464024156,40.10795464024156 0 0,0 0.22062159389820055,-0.6522285404718462 l 18.047257341794932 6.277772930949142" fill="#ff860c" stroke="none" /><path d="M 80.16572619554312 93.10060997987247 l -18.816001032372316 -6.5451818917760205 a40.92187995262166,40.92187995262166 0 0,0 0.2364891615491587,-0.6615022744329241 l 18.700871700779214 6.867219122589866" fill="#ff930d" stroke="none" /><path d="M 80.28708602549916 92.7611449362534 l -26.891209321862668 -9.874824545048751 a49.64697712827186,49.64697712827186 0 0,0 0.30064629200393667,-0.7975000084686618 l 26.717732346044293 10.334992833711558" fill="#e8ff1a" stroke="none" /><path d="M 80.41425534168474 92.42381321644754 l -16.781503069973166 -6.491445895211217 a38.99326860517492,38.99326860517492 0 0,0 0.24684841884635725,-0.6222192688148406 l 16.667595976160676 6.77856618123964" fill="#ff740a" stroke="none" /><path d="M 80.5471966667186 92.08871423366112 l -19.00720801700527 -7.730066030406451 a41.51896384898987,41.51896384898987 0 0,0 0.27417177368948326,-0.6579124481251069 l 18.871710398779307 8.05521098797282" fill="#ff9c0e" stroke="none" /><path d="M 80.83023694016515 91.42560881287825 l -20.217214204121582 -9.04290276092051 a43.14745675057972,43.14745675057972 0 0,0 0.3082280387896163,-0.6735338910598089 l 20.05900170047692 9.38862563419499" fill="#ffb610" stroke="none" /><path d="M 81.1358732173502 90.77261029715801 l -19.016861706358096 -9.302100007672339 a42.17002819345044,42.17002819345044 0 0,0 0.3236651811468355,-0.647547177003021 l 18.854376611999516 9.62717904083913" fill="#ffa60f" stroke="none" /><path d="M 81.29705330413844 90.45014215332179 l -18.590427299898803 -9.492404641367196 a41.87366122816676,41.87366122816676 0 0,0 0.3323810213910622,-0.6373844345977859 l 18.4247382095328 9.81013531906947" fill="#ffa20e" stroke="none" /><path d="M 81.46374523516351 90.13048839642627 l -18.56252654487857 -9.88349984668224 a42.02976369217423,42.02976369217423 0 0,0 0.3445532987702707,-0.6339392618904816 l 18.39012789649295 10.200693942047339" fill="#ffa40f" stroke="none" /><path d="M 81.63589988554816 89.8137432299009 l -27.415513427485156 -15.206923155286852 a52.350612248302554,52.350612248302554 0 0,0 0.4426534312381995,-0.7821261987653231 l 27.150426631225585 15.67530612415128" fill="#c2ff1e" stroke="none" /><line stroke="#e1ed5e" stroke-width="0.3" x1="26.387840678322718" x2="22.05771365940052" y1="57.49999999999999" y2="54.99999999999999" /><path d="M 25.521815274538284 56.99999999999999 a86.0,86.0 0 0,1 29.574782752854787,-30.34633250058573" fill="none" id="id107" stroke="none" /><text fill="#e1ed5e" style="font-size:6.75px; font-family:Arial;" text-anchor="middle"><textPath startOffset="21.40746469413373" xlink:href="#id107">November</textPath></text><path d="M 83.42222388311158 87.10902102172516 l -17.195712631763755 -13.371490149797513 a42.78277488614184,42.78277488614184 0 0,0 0.45580680630167,-0.5758970097285748 l 16.963639394820525 13.66470710344077" fill="#ffb010" stroke="none" /><path d="M 83.8745106332314 86.54754324733833 l -12.933159606187862 -10.789301727242876 a37.8426734564503,37.8426734564503 0 0,0 0.42042387851499374,-0.49525827174985676 l 12.746041164165755 11.00972678144229" fill="#ff6109" stroke="none" /><path d="M 84.10781606972428 86.27271002978789 l -13.811686379343717 -11.93020573753144 a39.250821613866506,39.250821613866506 0 0,0 0.44482196545881764,-0.5061257418501857 l 13.604853349926307 12.165543757192927" fill="#ff780b" stroke="none" /><path d="M 84.58840730492382 85.73525988315684 l -12.318405079084739 -11.401731838091253 a37.78518968019618,37.78518968019618 0 0,0 0.4446852000299485,-0.4722402723420959 l 12.12086404531852 11.61151357037786" fill="#ff6008" stroke="none" /><path d="M 84.83555147118756 85.47280134310135 l -12.78628877292563 -12.24897540690916 a38.70668176434279,38.70668176434279 0 0,0 0.46376723883639,-0.4758660427099569 l 12.574134732938438 12.466664141686849" fill="#ff6f0a" stroke="none" /><path d="M 85.08716467003674 85.21462403516908 l -22.1401958613025 -21.95096455511909 a52.17744565670721,52.17744565670721 0 0,0 0.6360879845283861,-0.6306513677561606 l 21.76011595664414 22.32779593310392" fill="#c5ff1e" stroke="none" /><path d="M 85.34317274990677 84.96080404539775 l -13.483644929437224 -13.835407541887726 a40.319088550789914,40.319088550789914 0 0,0 0.4998175283144745,-0.4788138857953638 l 13.244154915257448 14.064833557988658" fill="#ff890c" stroke="none" /><path d="M 85.60350026404147 84.71141617570332 l -12.136671816189358 -12.888724885419919 a38.70361635220126,38.70361635220126 0 0,0 0.4876106966323288,-0.45132518119787024 l 11.913631348243076 13.095167812750155" fill="#ff6f0a" stroke="none" /><path d="M 85.86807049272753 84.46653392183569 l -11.767550958190128 -12.934599874564167 a38.48654138097859,38.48654138097859 0 0,0 0.4925085555084619,-0.44040418729412495 l 11.543777375858273 13.134699591741692" fill="#ff6c09" stroke="none" /><path d="M 86.13680546590413 84.22622945171909 l -20.351210280092214 -23.15594147860136 a51.82806165857565,51.82806165857565 0 0,0 0.6733218449797985,-0.5815993729916243 l 19.95070895534957 23.501884984057693" fill="#caff1d" stroke="none" /><path d="M 86.40962598614128 83.9905735841838 l -21.41168417537756 -25.222910119680733 a54.08557713160837,54.08557713160837 0 0,0 0.7129655191283292,-0.594781193554243 l 20.975544322087323 25.58675349714686" fill="#abff21" stroke="none" /><path d="M 86.96720088162412 83.53348406188908 l -19.4055747367487 -24.51830974977046 a52.268575980514825,52.268575980514825 0 0,0 0.7083389015300778,-0.5508086141793329 l 18.98182589058338 24.847819415570598" fill="#c4ff1e" stroke="none" /><path d="M 87.25179093698888 83.31218511350988 l -13.594839327247014 -17.796081079571486 a43.39464574679279,43.39464574679279 0 0,0 0.595843638017354,-0.4471321742011957 l 13.287342700318908 18.026832281036683" fill="#ffb911" stroke="none" /><path d="M 87.54013794807813 83.09580414077388 l -10.320929112997373 -14.00232253360989 a38.39501693275278,38.39501693275278 0 0,0 0.5339082881608029,-0.3865084267953092 l 10.079039814462602 14.17743173177828" fill="#ff6a09" stroke="none" /><path d="M 87.83215693770416 82.88440491214696 l -10.294691554837733 -14.48077291142324 a38.76720175833709,38.76720175833709 0 0,0 0.5457035781534036,-0.3809434790267365 l 10.044592885510564 14.655361206255103" fill="#ff700a" stroke="none" /><path d="M 88.12776184653039 82.6780497279521 l -10.109869762289298 -14.750602120298373 a38.882665615668216,38.882665615668216 0 0,0 0.5538071244919012,-0.3726261489848405 l 9.855166349700408 14.921977943340321" fill="#ff720a" stroke="none" /><path d="M 88.4268655584334 82.4767994020092 l -10.905590365600233 -16.51245378517009 a40.78870969087299,40.78870969087299 0 0,0 0.5875795582469601,-0.38086197072085387 l 10.620525175096247 16.697229597594852" fill="#ff910d" stroke="none" /><path d="M 89.03521579738668 82.08984904055464 l -11.65107784374206 -19.0311600452597 a43.31440493468796,43.31440493468796 0 0,0 0.6374792254532893,-0.38278795861884746 l 11.322665861731336 19.22836200441447" fill="#ffb811" stroke="none" /><line stroke="#e1ed5e" stroke-width="0.3" x1="56.869717070023135" x2="54.33264160355391" y1="26.7553504044142" y2="22.446841604673864" /><path d="M 56.362301976729285 25.89364864446614 a86.0,86.0 0 0,1 42.16139366436587,-11.88097634709845" fill="none" id="id108" stroke="none" /><text fill="#e1ed5e" style="font-size:6.75px; font-family:Arial;" text-anchor="middle"><textPath startOffset="22.145653131862474" xlink:href="#id108">December</textPath></text><path d="M 89.34428304082924 81.90426304109057 l -15.89215281335433 -26.98834983353691 a52.31982675208114,52.31982675208114 0 0,0 0.7778401901066043,-0.4490862431445553 l 15.426520155387326 27.257182973957637" fill="#c3ff1e" stroke="none" /><path d="M 89.65649057296885 81.72400993836675 l -9.193605087205384 -16.244219274866857 a39.66539671020803,39.66539671020803 0 0,0 0.595464135332709,-0.33029391813817893 l 8.913396763716571 16.399646108438183" fill="#ff7f0b" stroke="none" /><path d="M 89.97174638481275 81.54914285379989 l -9.39610987909153 -17.287783871616828 a40.676238259680034,40.676238259680034 0 0,0 0.6163635212362258,-0.32817885824488896 l 9.097957542068743 17.446533197584294" fill="#ff8f0d" stroke="none" /><path d="M 90.28995756902619 81.37971332152246 l -9.361754884524752 -17.95239938472708 a41.24675525082161,41.24675525082161 0 0,0 0.6306290620800562,-0.322003692508047 l 9.052198600731113 18.110461028907963" fill="#ff980e" stroke="none" /><path d="M 90.93487009805054 81.0573650232925 l -10.213980069319033 -21.34328996993944 a44.66139082128022,44.66139082128022 0 0,0 0.6944022932067992,-0.3250153356480386 l 9.846089062240711 21.51548153715802" fill="#ffcd13" stroke="none" /><path d="M 91.26138138417902 80.90454125486306 l -7.884450706046024 -17.228947709514284 a39.94732704402516,39.94732704402516 0 0,0 0.6260061867586644,-0.2800046048599137 l 7.587531116431741 17.361756065284045" fill="#ff830c" stroke="none" /><path d="M 92.25597844496254 80.48000691201159 l -7.009911531325428 -17.669556272073226 a40.009262966484826,40.009262966484826 0 0,0 0.640582093643934,-0.24779091509216986 l 6.705557175187964 17.787287075303436" fill="#ff840c" stroke="none" /><path d="M 92.592206182469 80.34994680014964 l -6.363264570810769 -16.879315275385146 a39.03891405168243,39.03891405168243 0 0,0 0.6291043820348321,-0.23101584308685966 l 6.0725710371218105 16.98606196748073" fill="#ff750a" stroke="none" /><path d="M 92.93061703081487 80.22567764915836 l -6.068856081855484 -16.97567057642503 a39.027878567972905,39.027878567972905 0 0,0 0.6327984467487265,-0.22012014814826705 l 5.776551863061753 17.077349157141885" fill="#ff740a" stroke="none" /><path d="M 93.27111125876988 80.10723608172694 l -5.826495889038415 -17.224999795470048 a39.1837474767696,39.1837474767696 0 0,0 0.6390258364069287,-0.2100604850928719 l 5.529947314983724 17.322481201964948" fill="#ff770b" stroke="none" /><path d="M 93.95794788825049 79.88797359093562 l -9.14731054751936 -30.448421811170522 a52.792761456717216,52.792761456717216 0 0,0 0.8701755141413314,-0.2532954100927194 l 8.623275020996404 30.60096091556576" fill="#bcff1f" stroke="none" /><path d="M 94.30408787586887 79.78721728523814 l -4.718356024241462 -16.743780980193492 a38.39589276479322,38.39589276479322 0 0,0 0.6359431253006059,-0.17332912671414274 l 4.4302314980061785 16.822310601051775" fill="#ff6a09" stroke="none" /><path d="M 94.6519064749342 79.69241777938228 l -5.104776667521554 -19.383668480687106 a41.04458402148708,41.04458402148708 0 0,0 0.6828933523273243,-0.1735888197279259 l 4.771278021968851 19.468442532250297" fill="#ff950d" stroke="none" /><path d="M 95.35216902796891 79.52079915486377 l -4.600378015807964 -20.270114364359106 a41.78559631650068,41.78559631650068 0 0,0 0.700878926983489,-0.1527533000110002 l 4.2517366722053564 20.34609912250382" fill="#ffa00e" stroke="none" /><path d="M 95.70440661134978 79.44403061299748 l -4.063879556523982 -19.447134818927044 a40.86721343609763,40.86721343609763 0 0,0 0.6879382655341048,-0.13760691994161364 l 3.7294448054588996 19.514031135531525" fill="#ff920d" stroke="none" /><path d="M 96.41257539226777 79.30868818359171 l -3.792386528645943 -21.873477709727684 a43.19980231219659,43.19980231219659 0 0,0 0.7317686450527717,-0.12041225207280687 l 3.4163403805400985 21.935355960296157" fill="#ffb610" stroke="none" /><path d="M 96.76829788921471 79.25015418208739 l -2.9652397544083784 -19.03896634277584 a40.268494653253924,40.268494653253924 0 0,0 0.6839410037041357,-0.10051577474253186 l 2.637973645096558 19.087063190817258" fill="#ff880c" stroke="none" /><path d="M 97.12497278360702 79.19773525538626 l -2.5630159624977646 -18.544706739660207 a39.720982850374526,39.720982850374526 0 0,0 0.6762443954906817,-0.08755337588073016 l 2.2442937451162885 18.585971711741333" fill="#ff800b" stroke="none" /><path d="M 97.48249496171623 79.15144685158666 l -2.298996551321594 -19.038989419827484 a40.17729134344294,40.17729134344294 0 0,0 0.6854324313943141,-0.07680413361297048 l 1.9718282183264804 19.075649313947427" fill="#ff870c" stroke="none" /><path d="M 97.84075906011542 79.11130261209362 l -1.864092206680796 -18.033401131506537 a39.12948968186444,39.12948968186444 0 0,0 0.6687424253020322,-0.06333060296498097 l 1.554250217993748 18.0627434899767" fill="#ff760a" stroke="none" /><path d="M 98.1996594967304 79.07731436759882 l -1.522625448867157 -17.695215735404012 a38.76060382363245,38.76060382363245 0 0,0 0.6634172759737035,-0.051352692904453164 l 1.2186391781182362 17.71874619530352" fill="#ff700a" stroke="none" /><path d="M 98.9189461498227 79.02784411241856 l -1.893982852311821 -36.742761353262274 a57.79154363311813,57.79154363311813 0 0,0 0.9911916796077543,-0.04256603555766648 l 1.2629654121032465 36.76985995724577" fill="#7bff26" stroke="none" /><path d="M 99.27912038922189 79.0123766808444 l -0.6462477318616898 -18.81479759502669 a39.82589293161837,39.82589293161837 0 0,0 0.6834629317999681,-0.017603580713243933 l 0.3231714859909779 18.823118893089976" fill="#ff810b" stroke="none" /><path d="M 99.63950707515114 79.00309439819443 l -0.31084368400701734 -18.10508623088587 a39.107754450060895,39.107754450060895 0 0,0 0.671336608855865,-0.005762617369460585 l 4.435120705402663e-15 18.107754450060895" fill="#ff760a" stroke="none" /></svg>