<?xml version="1.0" encoding="utf-8" ?>
<svg baseProfile="full" height="200mm" version="1.1" viewBox="0,0,200,200" width="200mm" xmlns="http://www.w3.org/2000/svg" xmlns:ev="http://www.w3.org/2001/xml-events" xmlns:xlink="http://www.w3.org/1999/xlink"><defs /><rect fill="#1a1a1a" height="200" width="200" x="0" y="0" /><rect fill="#1a1a1a" height="200" width="180" x="10" y="0" /><text alignment-baseline="middle" fill="#e1ed5e" style="dominant-baseline: central; font-size:9.0px; font-family:Arial;" text-anchor="middle" x="100.0" y="100.0">2019</text><line stroke="#e1ed5e" stroke-width="0.3" x1="100.0" x2="100.0" y1="15.0" y2="10.0" /><path d="M 100.0 14.0 a86.0,86.0 0 0,1 42.46469731375804,11.215312516191453" fill="none" id="id37" stroke="none" /><text fill="#e1ed5e" style="font-size:6.75px; font-family:Arial;" text-anchor="middle"><textPath startOffset="22.20632615414155" xlink:href="#id37">January</textPath></text><path d="M 100.0 79.0 l 0.0 -12.365070122438894 a33.365070122438894,33.365070122438894 0 0,0 0.5743248351819394,0.004943395177232513 l -0.21284435590941106 12.36323810387022" fill="#ff5007" stroke="none" /><path d="M 101.80526077348638 79.07773832637324 l 1.0544083713283139 -12.22017792653272 a33.265582969009046,33.265582969009046 0 0,0 0.5700689258686222,0.05413491354052597 l -1.2646024242871803 12.200217468477016" fill="#ff4f07" stroke="none" /><path d="M 103.2404852339499 79.25152402106235 l 1.4140614735126003 -9.054082459173745 a30.163840844776296,30.163840844776296 0 0,0 0.5123124314289039,0.08453594084807019 l -1.5697031110803794 9.028400255386051" fill="#ff1e03" stroke="none" /><path d="M 103.95276090670814 79.375362276772 l 2.3658518431830915 -12.344494980628365 a33.56916112040305,33.56916112040305 0 0,0 0.5665732527181443,0.11364926445083076 l -2.5779915053683613 12.301941760100325" fill="#ff5407" stroke="none" /><path d="M 104.66035177308747 79.52364482259891 l 2.8437314786807 -12.494605261963997 a33.8141316278216,33.8141316278216 0 0,0 0.566429073933286,0.1340554612106139 l -3.0583842395765095 12.443803888612514" fill="#ff5708" stroke="none" /><path d="M 105.01212808612495 79.60689891045804 l 3.039010982135822 -12.364978928309654 a33.73296083584191,33.73296083584191 0 0,0 0.5626836351967422,0.1434405872854098 l -3.2514035060175894 12.310835344855375" fill="#ff5608" stroke="none" /><path d="M 105.36241919743992 79.69619591428918 l 3.2825792320344314 -12.428876439736198 a33.855049434709045,33.855049434709045 0 0,0 0.5621584380151742,0.15365913676756912 l -3.4960355592733166 12.370530762142335" fill="#ff5808" stroke="none" /><path d="M 105.71112130821622 79.79150937346287 l 2.4358549911582847 -8.619139762555761 a29.956727068769066,29.956727068769066 0 0,0 0.49501320656439385,0.1445079291520293 l -2.5838584154461057 8.575933504485027" fill="#ff1b02" stroke="none" /><path d="M 106.0581310904928 79.89281104454417 l 3.5155313186170636 -11.668194604304297 a33.18629253612818,33.18629253612818 0 0,0 0.5455425528082173,0.1695027267225868 l -3.715859244135999 11.60595174269919" fill="#ff4e07" stroke="none" /><path d="M 106.40334571778207 80.00007090966166 l 3.6801704222054603 -11.494482842004615 a33.069249775425746,33.069249775425746 0 0,0 0.540630547783797,0.1782373916010252 l -3.8774837922316747 11.429431726144353" fill="#ff4c07" stroke="none" /><path d="M 106.74666289553966 80.11325718540242 l 4.178755815280267 -12.317473611794494 a34.00700412627721,34.00700412627721 0 0,0 0.5527239283901391,0.19283452559649095 l -4.39016174773368 12.243718233025795" fill="#ff5a08" stroke="none" /><path d="M 107.4271985657038 80.35727306442388 l 4.29190679016037 -11.35081449166512 a33.13513302438913,33.13513302438913 0 0,0 0.5317665551997445,0.20631716192838906 l -4.486656510359782 11.275254625846184" fill="#ff4d07" stroke="none" /><path d="M 107.76421540070413 80.48803036053334 l 4.560325711553533 -11.460390037844913 a33.334387314130815,33.334387314130815 0 0,0 0.5313122443537054,0.2167356049278456 l -4.756921825495626 11.380193546733489" fill="#ff5007" stroke="none" /><path d="M 108.09893153111575 80.62456947434976 l 4.819663880142289 -11.530294126812784 a33.497073360125626,33.497073360125626 0 0,0 0.530077216383766,0.22695140045446183 l -5.01742485431637 11.44562319839553" fill="#ff5207" stroke="none" /><path d="M 108.43124777332544 80.76684994638697 l 5.053481386547674 -11.527874451526962 a33.58688061015722,33.58688061015722 0 0,0 0.5275025623881539,0.23667502341294241 l -5.251166067402608 11.439179097597489" fill="#ff5407" stroke="none" /><path d="M 109.08828744355905 81.06846463323043 l 11.676367514133615 -24.322686306085185 a47.98018953731309,47.98018953731309 0 0,0 0.741473815197312,0.3638379809318968 l -12.09331259634136 24.118093165018458" fill="#ddff1b" stroke="none" /><path d="M 109.41281617654863 81.2277094730956 l 5.449383736289913 -10.867886164088587 a33.15757923194125,33.15757923194125 0 0,0 0.5080049226105706,0.2602198523793769 l -5.635649146489239 10.77247378639671" fill="#ff4d07" stroke="none" /><path d="M 109.73455568895987 81.39251694778311 l 5.674500069906311 -10.846736846997 a33.241390904279186,33.241390904279186 0 0,0 0.5047229595294362,0.26960552531761134 l -5.860368075964058 10.747452595177636" fill="#ff4f07" stroke="none" /><path d="M 110.05341064243156 81.56283822128135 l 5.903015016532695 -10.825663718804948 a33.33047368263119,33.33047368263119 0 0,0 0.5013473207696042,0.27899924121105757 l -6.088486426374335 10.722449080033712" fill="#ff5007" stroke="none" /><path d="M 110.36928655335952 81.73862282372117 l 6.086400675562322 -10.718775858922703 a33.32624959577363,33.32624959577363 0 0,0 0.496407608011144,0.28755132745408213 l -6.270005016038794 10.612420374078571" fill="#ff5007" stroke="none" /><line stroke="#e1ed5e" stroke-width="0.3" x1="143.23703022742887" x2="145.7803849466894" y1="26.81831364943548" y2="22.513508569990506" /><path d="M 143.74570117128098 25.957352633546492 a86.0,86.0 0 0,1 28.547481713284135,27.462654790039103" fill="none" id="id38" stroke="none" /><text fill="#e1ed5e" style="font-size:6.75px; font-family:Arial;" text-anchor="middle"><textPath startOffset="19.985693538727396" xlink:href="#id38">February</textPath></text><path d="M 110.99172775467656 82.1063720568725 l 7.065182866588633 -11.501536099373313 a34.4982273496754,34.4982273496754 0 0,0 0.5033141017641867,0.3151752443506093 l -7.262116120725083 11.37821651369976" fill="#ff6209" stroke="none" /><path d="M 112.19680574252982 82.90503203632743 l 7.090161619290014 -9.937526947435297 a33.20757279800763,33.20757279800763 0 0,0 0.4624623903476121,0.33599859419055406 l -7.2601693259914155 9.814009118428068" fill="#ff4e07" stroke="none" /><path d="M 112.48926042617603 83.11751280151076 l 7.227090111474432 -9.769293947428142 a33.15195193006571,33.15195193006571 0 0,0 0.455845410963032,0.3433333128708998 l -7.3941816761958465 9.643444045051396" fill="#ff4d07" stroke="none" /><path d="M 112.77801427241765 83.33499621200491 l 7.4227281236296365 -9.68067413765231 a33.19886652753987,33.19886652753987 0 0,0 0.4505045793312454,0.351625969953267 l -7.5882652581203125 9.55146977847582" fill="#ff4e07" stroke="none" /><path d="M 113.06298171725822 83.55741782278167 l 7.7391729773990185 -9.741419717098065 a33.441465206267715,33.441465206267715 0 0,0 0.44763248650027015,0.361954339997067 l -7.90570886246378 9.606759279836869" fill="#ff5207" stroke="none" /><path d="M 113.34407831869373 83.78471172551755 l 8.004595282863379 -9.726922829159331 a33.597085907735156,33.597085907735156 0 0,0 0.4433894828317071,0.37132594067265484 l -8.170842302654204 9.587695731092857" fill="#ff5407" stroke="none" /><path d="M 113.6212207817346 84.01681056812373 l 6.99353567924742 -8.206239906916945 a31.78201811845922,31.78201811845922 0 0,0 0.41332696379391015,0.35843307001054364 l -7.133756441688094 8.08464184348673" fill="#ff3805" stroke="none" /><path d="M 113.89432698308785 84.25364557470407 l 7.136181815920331 -8.087390505031925 a31.785683849008024,31.785683849008024 0 0,0 0.4071428431967028,0.3655368645943415 l -7.274335646713023 7.963354631668286" fill="#ff3805" stroke="none" /><path d="M 114.16331599549186 84.49514656593476 l 6.362791374980693 -6.965469649339987 a30.43413385093752,30.43413385093752 0 0,0 0.383748509869554,0.3566524175002983 l -6.481747768645094 6.854912645765047" fill="#ff2203" stroke="none" /><path d="M 114.42810811169701 84.74124197986012 l 5.479022819906011 -5.794459172924579 a28.974675427109283,28.974675427109283 0 0,0 0.3594470695073086,0.34578779607649096 l -5.577953133025738 5.699288290085787" fill="#ff0b01" stroke="none" /><path d="M 114.68862486808459 84.99185889309783 l 6.1783002366989725 -6.31269452286562 a29.832978317295485,29.832978317295485 0 0,0 0.3639114771083626,0.36234872557497266 l -6.286047513974658 6.205409946640528" fill="#ff1902" stroke="none" /><path d="M 115.19652480421416 85.50635884689758 l 20.19461143542002 -19.26055168153637 a48.90683038441898,48.90683038441898 0 0,0 0.5757793642798209,0.6142012807585183 l -20.523158121670303 18.910080983899796" fill="#d1ff1c" stroke="none" /><path d="M 115.4437574822437 85.77008943001954 l 8.91119511829907 -8.210793892019842 a33.11719995599757,33.11719995599757 0 0,0 0.38267138925300737,0.42255530579269346 l -9.051210148168112 8.0561857989576" fill="#ff4d07" stroke="none" /><path d="M 115.9244219780498 86.31012108654704 l 8.108630452651278 -6.970813082179307 a31.693087619782503,31.693087619782503 0 0,0 0.3520790936913381,0.41675059546778565 l -8.227420159829734 6.830203537082414" fill="#ff3605" stroke="none" /><path d="M 116.15771136456269 86.58626213691792 l 9.43705989643862 -7.834416941415523 a33.26524309995153,33.26524309995153 0 0,0 0.36195991475160766,0.44372005686339605 l -9.570518303266638 7.670812714944026" fill="#ff4f07" stroke="none" /><path d="M 116.38621287248628 86.86637796730983 l 8.351894138479587 -6.694080061416169 a31.70349679165735,31.70349679165735 0 0,0 0.33763608039792947,0.4287635346245777 l -8.465884299471481 6.549324132838553" fill="#ff3705" stroke="none" /><path d="M 116.82858285166822 87.43820079747576 l 12.509189079426434 -9.337561147437139 a36.609928238367054,36.609928238367054 0 0,0 0.372614781796771,0.5082461436178813 l -12.668066473736832 9.120852560147764" fill="#ff820b" stroke="none" /><path d="M 117.2510076193507 88.02491185347247 l 8.853994258976181 -6.146154708154908 a31.778146038839793,31.778146038839793 0 0,0 0.3080596695197064,0.4520395524535203 l -8.958478394164622 5.9928371324309815" fill="#ff3805" stroke="none" /><path d="M 117.45458315368197 88.32363383020206 l 8.672672260068635 -5.8016451087718455 a31.434286276439817,31.434286276439817 0 0,0 0.2969841982079936,0.45232730878545796 l -8.771253093634554 5.651499736008714" fill="#ff3204" stroke="none" /><path d="M 117.65298651832404 88.62581576622439 l 10.171444955816579 -6.553672305310812 a33.099955089776344,33.099955089776344 0 0,0 0.30447608994490527,0.48160805420168074 l -10.282748642007439 6.377616603394925" fill="#ff4c07" stroke="none" /><line stroke="#e1ed5e" stroke-width="0.3" x1="172.23445277983987" x2="176.4835382374775" y1="55.19839476539836" y2="52.563006222186495" /><path d="M 173.08426987136738 54.67131705675599 a86.0,86.0 0 0,1 12.851231095245387,41.99856678651699" fill="none" id="id39" stroke="none" /><text fill="#e1ed5e" style="font-size:6.75px; font-family:Arial;" text-anchor="middle"><textPath startOffset="22.20632615414155" xlink:href="#id39">March</textPath></text><path d="M 118.03404312379186 89.2402003453031 l 8.4413442719241 -5.036428745276791 a30.82964432842797,30.82964432842797 0 0,0 0.2679834910321557,0.45807065429888066 l -8.526787437426584 4.890378678624015" fill="#ff2904" stroke="none" /><path d="M 118.3937258080291 89.86733742301442 l 8.406533765299836 -4.630957913303076 a30.597686238980238,30.597686238980238 0 0,0 0.25016070999464474,0.46350980279268345 l -8.485002574512945 4.4855671271779345" fill="#ff2503" stroke="none" /><path d="M 119.04729006885535 91.15688171328212 l 11.073011280335951 -5.140886088687403 a33.208205789193876,33.208205789193876 0 0,0 0.2362490001290444,0.5205433557926772 l -11.159862597428342 4.949520724052664" fill="#ff4e07" stroke="none" /><path d="M 119.196687751892 91.48605970444005 l 11.713534448269913 -5.1950802258960325 a33.8138888642091,33.8138888642091 0 0,0 0.23139856981590343,0.5340998029100812 l -11.801223727928496 4.992681278399349" fill="#ff5708" stroke="none" /><path d="M 119.61058180528143 92.48833698450437 l 9.794175620134553 -3.751573895335429 a31.488097194925317,31.488097194925317 0 0,0 0.18952147629778118,0.5078233323282265 l -9.85730168493396 3.5824274259778695" fill="#ff3304" stroke="none" /><path d="M 119.7369772167798 92.82701384747503 l 9.696961029947003 -3.524155012463077 a31.31749590589594,31.31749590589594 0 0,0 0.17977274515272182,0.5082417590049579 l -9.756186855909533 3.3567156270315044" fill="#ff3004" stroke="none" /><path d="M 120.18372546131832 94.20196356495316 l 49.23272192634971 -14.142736734730674 a72.2238021882911,72.2238021882911 0 0,0 0.3329628348487921,1.1978444726803503 l -49.46887153176487 13.293180958631371" fill="#3dffab" stroke="none" /><path d="M 120.37134235888165 94.90015583598534 l 8.469925525085232 -2.1203953817953494 a29.731306601856872,29.731306601856872 0 0,0 0.12001140977268664,0.4975247724740334 l -8.50516973511874 1.9742853776619098" fill="#ff1702" stroke="none" /><path d="M 120.45610955862082 95.25157060432595 l 8.602399156893043 -1.9968550184410834 a29.83112117565983,29.83112117565983 0 0,0 0.11180365135937163,0.5011938465511017 l -8.635497195254452 1.8484830023400178" fill="#ff1902" stroke="none" /><path d="M 120.53481517161879 95.60439243477599 l 8.206974948084031 -1.7567550945995847 a29.392891412432338,29.392891412432338 0 0,0 0.10164440330785131,0.4956542088041757 l -8.235998647306879 1.615225229631997" fill="#ff1202" stroke="none" /><path d="M 120.78858239683441 97.02765380044208 l 8.940849975831627 -1.278360445132004 a30.031777439574476,30.031777439574476 0 0,0 0.06876419117615966,0.5123730957997977 l -8.961530166065621 1.124269007267542" fill="#ff1c02" stroke="none" /><path d="M 120.87857604477298 97.74499172005257 l 8.819213137213657 -0.9525265805671077 a29.870503212686913,29.870503212686913 0 0,0 0.05081239200359044,0.5116738531321557 l -8.834302654899476 0.8005771967305171" fill="#ff1902" stroke="none" /><line stroke="#e1ed5e" stroke-width="0.3" x1="184.98032266829074" x2="189.97916517819016" y1="98.17113171792111" y2="98.06355123074" /><path d="M 185.9800911702706 98.14961562048488 a86.0,86.0 0 0,1 -9.607161424134198,41.387399972396054" fill="none" id="id40" stroke="none" /><text fill="#e1ed5e" style="font-size:6.75px; font-family:Arial;" text-anchor="middle"><textPath startOffset="21.466115282336823" xlink:href="#id40">April</textPath></text><path d="M 120.99824983174949 100.27111621757518 l 8.75682902438214 0.1130626781787024 a29.757558891121338,29.757558891121338 0 0,0 -0.011021544176301945,0.512127849546508 l -8.75358541752083 -0.26378034351532526" fill="#ff1802" stroke="none" /><path d="M 120.9764740272857 100.99374915477107 l 8.920148725011266 0.4225872396085987 a29.930153036281077,29.930153036281077 0 0,0 -0.02880941006466358,0.5144113697715736 l -8.911552964059073 -0.5760703257155957" fill="#ff1a02" stroke="none" /><path d="M 120.92983693683757 101.71520430193887 l 12.220465063253462 1.0014695437638266 a33.26143171123523,33.26143171123523 0 0,0 -0.0516746494276923,0.5702254504554977 l -12.201415817548694 -1.211676382767895" fill="#ff4f07" stroke="none" /><path d="M 120.8583938346157 102.4346265915055 l 9.104908368567687 1.0627401229019098 a30.16672094965476,30.16672094965476 0 0,0 -0.06464080541456918,0.5152508198098885 l -9.08526605390627 -1.2193086969991933" fill="#ff1e03" stroke="none" /><path d="M 120.76222939487914 103.15116336523771 l 7.2950212545136095 1.1071934178476739 a28.37856438396593,28.37856438396593 0 0,0 -0.07745759639210242,0.48232852667267134 l -7.274881903760218 -1.23260117421355" fill="#ff0100" stroke="none" /><path d="M 120.64145759157962 103.86396538481128 l 7.409996154672064 1.3871098257575345 a28.538707892004297,28.538707892004297 0 0,0 -0.0945447533730801,0.48208166056696333 l -7.38502146832332 -1.5144552133924427" fill="#ff0400" stroke="none" /><path d="M 120.5718875245553 104.21870165774334 l 7.557659781388185 1.549858359391925 a28.714938904838426,28.714938904838426 0 0,0 -0.10346397405730891,0.483349241865209 l -7.529861768606433 -1.6797214206733033" fill="#ff0701" stroke="none" /><path d="M 120.41448212921028 104.9243191809786 l 7.265445964736011 1.7525487394716064 a28.47382981815363,28.47382981815363 0 0,0 -0.11903238555818159,0.4754752106172755 l -7.234202264882768 -1.8773517894862777" fill="#ff0300" stroke="none" /><path d="M 120.32669344350535 105.2749913415812 l 7.6287690542682896 1.979746032970534 a28.88146633808862,28.88146633808862 0 0,0 -0.12902028167839527,0.48013246484818733 l -7.593560696248118 -2.1107694309942695" fill="#ff0a01" stroke="none" /><path d="M 120.23288151984713 105.62410040840565 l 7.141744583287243 1.985178857899928 a28.412519867815906,28.412519867815906 0 0,0 -0.1350370803537151,0.4700817919119133 l -7.106514866047428 -2.1078181253164234" fill="#ff0200" stroke="none" /><path d="M 120.02730092923936 106.31721596034902 l 7.207349900491796 2.2734159727301777 a28.557401191757904,28.557401191757904 0 0,0 -0.15190871447415338,0.46752694969056136 l -7.167148935001395 -2.397141822398534" fill="#ff0400" stroke="none" /><path d="M 119.9155931802556 106.66101706037122 l 6.964384552430849 2.3293247606964984 a28.343596260343514,28.343596260343514 0 0,0 -0.15873651448855008,0.4613626140191161 l -6.923257206999069 -2.4488600778049148" fill="#ff0100" stroke="none" /><path d="M 119.79798401119884 107.00284435728193 l 6.979939237328811 2.4689093634306323 a28.40371968686266,28.40371968686266 0 0,0 -0.16700810850170272,0.4595345874681863 l -6.936406867821881 -2.58869174790495" fill="#ff0200" stroke="none" /><line stroke="#e1ed5e" stroke-width="0.3" x1="174.80103733775053" x2="179.2010983576182" y1="140.37084112569926" y2="142.7455964860345" /><path d="M 175.68104954172406 140.8457921977663 a86.0,86.0 0 0,1 -30.038265399797805,32.042727171017184" fill="none" id="id41" stroke="none" /><text fill="#e1ed5e" style="font-size:6.75px; font-family:Arial;" text-anchor="middle"><textPath startOffset="22.206326154141568" xlink:href="#id41">May</textPath></text><path d="M 118.30583269289576 110.29060199501025 l 6.35855081178562 3.574451748077479 a28.29437274379324,28.29437274379324 0 0,0 -0.24231840276627303,0.42250256030195105 l -6.296080412866968 -3.683374154237745" fill="#ff0000" stroke="none" /><path d="M 114.81725581225074 114.88116024355365 l 5.270328892858735 5.293058970205378 a28.46946048258997,28.46946048258997 0 0,0 -0.3502422129291697,0.34278572156537035 l -5.178436727553771 -5.382994794693319" fill="#ff0300" stroke="none" /><path d="M 114.29624159901734 115.38237550388516 l 5.505333393015759 5.9235922209979615 a29.086880768808328,29.086880768808328 0 0,0 -0.369681027704693,0.3376948537556706 l -5.402552815844202 -6.017479841340215" fill="#ff0d01" stroke="none" /><path d="M 112.92097659922987 116.55440617244103 l 5.03416774499154 6.449795566982036 a29.181852341650657,29.181852341650657 0 0,0 -0.3986397660078305,0.30565997370314 l -4.922399250490216 -6.535494882512548" fill="#ff0e01" stroke="none" /><path d="M 112.63410532772338 116.77436683061366 l 4.624071082462862 6.139403034567069 a28.685980939120302,28.685980939120302 0 0,0 -0.39697986662833085,0.2936762148834039 l -4.517706245415967 -6.218089198190242" fill="#ff0601" stroke="none" /><path d="M 112.34349029814194 116.9893568818739 l 4.613146372333278 6.349451263366704 a28.848353381343166,28.848353381343166 0 0,0 -0.40425152555654853,0.2884227299408913 l -4.503167518927845 -6.4279182551518135" fill="#ff0901" stroke="none" /><path d="M 111.45004920935366 117.60387380957326 l 4.798075539419617 7.376799416350365 a29.799926051453156,29.799926051453156 0 0,0 -0.4324085602635017,0.2759836018631012 l -4.6703851771091855 -7.458297447037275" fill="#ff1802" stroke="none" /><line stroke="#e1ed5e" stroke-width="0.3" x1="143.8653032363475" x2="146.44561519142675" y1="172.8068346515853" y2="177.08958963109032" /><path d="M 144.38136562736335 173.6633856474863 a86.0,86.0 0 0,1 -40.68145358897372,12.25698825130547" fill="none" id="id42" stroke="none" /><text fill="#e1ed5e" style="font-size:6.75px; font-family:Arial;" text-anchor="middle"><textPath startOffset="21.466115282336833" xlink:href="#id42">June</textPath></text><path d="M 108.2653958097858 119.30500536409082 l 4.810529961868689 11.235675683921219 a33.22217683509345,33.22217683509345 0 0,0 -0.5276449596250464,0.2205556359165427 l -4.616413542746182 -11.316816362857734" fill="#ff4e07" stroke="none" /><path d="M 107.93186726928326 119.44442032107085 l 3.014993966005508 7.391047776042895 a28.98234150126379,28.98234150126379 0 0,0 -0.4635503655824592,0.18445625705451693 l -2.8873225243811826 -7.441850877503481" fill="#ff0b01" stroke="none" /><path d="M 106.2309692047433 120.05430185196036 l 2.3802495993036814 7.660805627334215 a29.022065258696223,29.022065258696223 0 0,0 -0.4783458609268135,0.1441216839663181 l -2.248028763936622 -7.700642680406258" fill="#ff0c01" stroke="none" /><path d="M 105.53697534728816 120.25689768951611 l 3.5591607839787236 13.021108337949556 a34.49877356780354,34.49877356780354 0 0,0 -0.574173860629973,0.151644535177387 l -3.3344964805372532 -13.080444222430527" fill="#ff6209" stroke="none" /><path d="M 103.06178313531738 120.77559828337769 l 1.2086185089011083 8.20102910919638 a29.289610192882698,29.289610192882698 0 0,0 -0.49941771358828946,0.06921474439876668 l -1.0672722041259886 -8.22061841908775" fill="#ff1001" stroke="none" /><path d="M 102.70371172650421 120.8252237178851 l 1.0498526307612253 8.086444901683825 a29.1543106204194,29.1543106204194 0 0,0 -0.4982229800719248,0.060327864447010056 l -0.9105022276379201 -8.103318294856185" fill="#ff0e01" stroke="none" /><path d="M 102.34483914955558 120.86867818915974 l 1.1217854911053369 9.9837041767162 a31.046529339838457,31.046529339838457 0 0,0 -0.5315866637682708,0.05510113122631454 l -0.9497662307314633 -10.001534676398274" fill="#ff2c04" stroke="none" /><path d="M 101.98527174616119 120.90594882070398 l 0.7689782108619154 8.097742362777995 a29.134172291186715,29.134172291186715 0 0,0 -0.4996589380270392,0.043112675628136816 l -0.6294749550933345 -8.109779290684795" fill="#ff0e01" stroke="none" /><path d="M 101.26447882468166 120.96189622390904 l 0.45619993400423453 7.562653867579306 a28.57640098599577,28.57640098599577 0 0,0 -0.4912581770354895,0.02539243640188026 l -0.3259536885552654 -7.569386110743388" fill="#ff0500" stroke="none" /><path d="M 100.90346689309514 120.98055641714683 l 0.3290669619579764 7.64168340106668 a28.64876527732354,28.64876527732354 0 0,0 -0.4928674211593753,0.016975350532822002 l -0.19747918912394882 -7.6462155500255955" fill="#ff0600" stroke="none" /><line stroke="#e1ed5e" stroke-width="0.3" x1="102.19456741930631" x2="102.32365962044197" y1="184.97166512339345" y2="189.96999836594603" /><path d="M 102.22038585953345 185.97133177190398 a86.0,86.0 0 0,1 -42.740103519485714,-10.115201625700543" fill="none" id="id43" stroke="none" /><text fill="#e1ed5e" style="font-size:6.75px; font-family:Arial;" text-anchor="middle"><textPath startOffset="22.20632615414155" xlink:href="#id43">July</textPath></text><path d="M 99.45781275523022 120.99299961872073 l -0.41180052402462425 15.944543747997402 a36.94986065780482,36.94986065780482 0 0,0 -0.6356777459106032,-0.021894026871086297 l 0.6861986216098706 -15.935092922700223" fill="#ff870c" stroke="none" /><path d="M 97.2962882734958 120.8252237178851 l -1.5783017376155688 12.15680150289869 a33.25882780513048,33.25882780513048 0 0,0 -0.5670969203646508,-0.07859446576363018 l 1.7873272491670507 -12.127832471642455" fill="#ff4f07" stroke="none" /><path d="M 96.93821686468263 120.77559828337769 l -1.8063369178504203 12.256821764029047 a33.38921033867637,33.38921033867637 0 0,0 -0.5678775464479484,-0.0886907937635659 l 2.017050327906886 -12.223912662918375" fill="#ff5107" stroke="none" /><path d="M 96.22490169976321 120.6578951692458 l -4.849512492114955 26.537248229476518 a47.97671801765429,47.97671801765429 0 0,0 -0.8111089829918543,-0.1554509670460346 l 5.305589089678505 -26.449840064082018" fill="#ddff1b" stroke="none" /><path d="M 95.51606077576429 120.51570834832081 l -2.610294498643975 11.943079056013305 a33.22500612301829,33.22500612301829 0 0,0 -0.5576735806982243,-0.12692469133761358 l 2.815488228735062 -11.896377631098005" fill="#ff4e07" stroke="none" /><path d="M 94.81253420990036 120.34920634021253 l -3.030439597445294 11.88770069340166 a33.26788457435375,33.26788457435375 0 0,0 -0.5536877907705174,-0.14623397793251358 l 3.234617831027301 -11.833775366165565" fill="#ff4f07" stroke="none" /><path d="M 94.46302465271185 120.25689768951611 l -3.5565716447040567 13.011636031121164 a34.48895377967778,34.48895377967778 0 0,0 -0.5713158126014509,-0.16145955536057555 l 3.7800186254101216 -12.948487682422067" fill="#ff6209" stroke="none" /><path d="M 93.76903079525671 120.05430185196036 l -18.692907614229874 60.16290555588108 a84.0,84.0 0 0,0 -1.3771146196362385,-0.4409086133611737 l 19.725743578957054 -59.832224095860205" fill="#4dd2ff" stroke="none" /><path d="M 93.08242187328487 119.8279376855182 l -4.429413309919282 12.696080836919933 a34.44656725293469,34.44656725293469 0 0,0 -0.5581663352202993,-0.20013858920300132 l 4.647299205769308 -12.617954706676974" fill="#ff6109" stroke="none" /><path d="M 92.40401165467489 119.57807347666478 l -4.926289875206727 12.697131796352044 a34.61930570141145,34.61930570141145 0 0,0 -0.5537092927222879,-0.22033235483165195 l 5.144120243970873 -12.610452597114325" fill="#ff6409" stroke="none" /><path d="M 91.7346041902142 119.30500536409082 l -4.827881732437851 11.27620320754176 a33.26626270712405,33.26626270712405 0 0,0 -0.5244653244634716,-0.22991018562964544 l 5.021267731559067 -11.191428468617662" fill="#ff4f07" stroke="none" /><path d="M 91.40352486487194 119.15986991738527 l -11.042007001116819 24.610484465166113 a47.97409617063926,47.97409617063926 0 0,0 -0.7505250460088897,-0.3445292376937605 l 11.464000042893128 -24.41676815713828" fill="#ddff1b" stroke="none" /><path d="M 90.7491055286396 118.85261126421891 l -6.245055889153461 12.726943471901649 a35.17659385027413,35.17659385027413 0 0,0 -0.5412942306546059,-0.27141616433411825 l 6.463204027490827 -12.617559466658228" fill="#ff6c0a" stroke="none" /><path d="M 90.42595943632237 118.69057910512821 l -5.71034208912443 11.147811608302371 a33.52524292894262,33.52524292894262 0 0,0 -0.5113543002452188,-0.26751640179154473 l 5.901387291896144 -11.047865787566108" fill="#ff5307" stroke="none" /><path d="M 90.10565033884886 118.52300852407294 l -6.423476555340627 12.025258360933483 a34.63333743821414,34.63333743821414 0 0,0 -0.5234205357973784,-0.2854106097353067 l 6.629519903006646 -11.91290709943841" fill="#ff6409" stroke="none" /><line stroke="#e1ed5e" stroke-width="0.3" x1="58.666819895761336" x2="56.23545636021788" y1="174.27360380694188" y2="178.64263932499728" /><path d="M 58.180547188652646 175.14741091055294 a86.0,86.0 0 0,1 -31.652253787137756,-30.449443065178592" fill="none" id="id44" stroke="none" /><text fill="#e1ed5e" style="font-size:6.75px; font-family:Arial;" text-anchor="middle"><textPath startOffset="22.20632615414155" xlink:href="#id44">August</textPath></text><path d="M 89.7882731507175 118.34994917583269 l -6.530110571443496 11.734273631396178 a34.42890620012508,34.42890620012508 0 0,0 -0.51536995797921,-0.2926405124702788 l 6.731129296343912 -11.620129953131265" fill="#ff6108" stroke="none" /><path d="M 89.4739219176387 118.17145234162733 l -6.5577245476282435 11.320776661008262 a34.08295591412718,34.08295591412718 0 0,0 -0.5051290919428381,-0.2984391711399476 l 6.751621510599463 -11.206218917574565" fill="#ff5b08" stroke="none" /><path d="M 89.1626897886671 117.98757091392108 l -14.047752571761274 23.316204910470567 a48.221035317277654,48.221035317277654 0 0,0 -0.7072896132628695,-0.4344750487383348 l 14.447021384956452 -23.070941394903855" fill="#daff1c" stroke="none" /><path d="M 88.54995079064634 117.60387380957326 l -7.35408110627415 11.306529204648264 a34.487776376157136,34.487776376157136 0 0,0 -0.4948590288730656,-0.3279655804989838 l 7.547614833887177 -11.178265603057962" fill="#ff6209" stroke="none" /><path d="M 87.65650970185807 116.9893568818739 l -7.7630130234954535 10.684870773921407 a34.207226607367645,34.207226607367645 0 0,0 -0.4733873415428106,-0.3502006381803993 l 7.945785335456828 -10.54966018700124" fill="#ff5d08" stroke="none" /><path d="M 87.07902340077011 116.55440617244103 l -22.628247102117243 28.991399421088445 a57.77687870534373,57.77687870534373 0 0,0 -0.7787291719869319,-0.6186695512129028 l 23.12393376682153 -28.59759595587041" fill="#64ff29" stroke="none" /><path d="M 86.51685102203217 116.09983520530335 l -7.873764754775808 9.40183299942461 a33.26338595831589,33.26338595831589 0 0,0 -0.43580504014641286,-0.371402509801211 l 8.034435271499277 -9.264906099400447" fill="#ff4f07" stroke="none" /><path d="M 86.24171649860922 115.8653595955263 l -8.438139172319971 9.730437105211568 a33.8795806977525,33.8795806977525 0 0,0 -0.4373009251640086,-0.38586722235050713 l 8.604382450390567 -9.58374674108877" fill="#ff5808" stroke="none" /><path d="M 85.70375840098266 115.38237550388516 l -9.187391527548618 9.885388785516882 a34.495520535396,34.495520535396 0 0,0 -0.4314636723182966,-0.4079758327815158 l 9.356191034257732 -9.725778315989436" fill="#ff6209" stroke="none" /><path d="M 85.44109423537348 115.13401014063109 l -9.396381899340344 9.767556796429831 a34.55349248606179,34.55349248606179 0 0,0 -0.4250903061598429,-0.41604033422697556 l 9.563122157875982 -9.604366359280286" fill="#ff6309" stroke="none" /><path d="M 85.18274418774928 114.88116024355367 l -23.201094623754585 23.30115719784545 a53.88213372789422,53.88213372789422 0 0,0 -0.6516130001052469,-0.6600805288621826 l 23.598748248915363 -22.8983361750026" fill="#92ff23" stroke="none" /><path d="M 84.67929136418377 114.36230785411682 l -8.992345430596078 8.429821131305712 a33.325751930368,33.325751930368 0 0,0 -0.38872679245651953,-0.4218861587376198 l 9.136118631048326 -8.273783717766747" fill="#ff5007" stroke="none" /><path d="M 84.43433777217949 114.09645910891817 l -9.319056393923715 8.439454452240277 a33.57255755701952,33.57255755701952 0 0,0 -0.38423176683340216,-0.43168846325032484 l 9.462947010405456 -8.277791819249087" fill="#ff5407" stroke="none" /><path d="M 83.95833913139862 113.55231037782056 l -10.39593461320794 8.782689878545321 a34.60922841254409,34.60922841254409 0 0,0 -0.38054329909784307,-0.458388918234653 l 10.54557391219932 -8.602439703196907" fill="#ff6409" stroke="none" /><path d="M 83.72743513129214 113.27417163493432 l -10.150340470632655 8.280032228926487 a34.09917346178088,34.09917346178088 0 0,0 -0.3671053492115665,-0.4580203681692976 l 10.291363731899082 -8.10408402717893" fill="#ff5c08" stroke="none" /><path d="M 83.50135304334701 112.99209946851258 l -30.348521120078185 23.89838428267689 a59.628558159712995,59.628558159712995 0 0,0 -0.628068122097354,-0.8118627122457006 l 30.755396059393608 -23.372443576317934" fill="#4fff2b" stroke="none" /><path d="M 83.06392112726016 112.41649034213515 l -10.207462375758938 7.483482980840369 a33.656808668738805,33.656808668738805 0 0,0 -0.3385237197612126,-0.4701798386270848 l 10.334765887895758 -7.306669536762146" fill="#ff5507" stroke="none" /><path d="M 82.85270091963577 112.12312394758628 l -11.013609712975343 7.786611467787156 a34.48817693611777,34.48817693611777 0 0,0 -0.33854102415443493,-0.48769359487716746 l 11.146011644291912 -7.595876610722977" fill="#ff6209" stroke="none" /><path d="M 82.6465618267979 111.8261652097733 l -11.119340713573331 7.577700683288411 a34.45590151383545,34.45590151383545 0 0,0 -0.3297871049787923,-0.4929869758413013 l 11.248130923962854 -7.385176793241288" fill="#ff6109" stroke="none" /><path d="M 82.44556493220864 111.52570212397912 l -14.648880372442243 9.618004280431464 a38.52414627034714,38.52414627034714 0 0,0 -0.35918288010882354,-0.5574598063345331 l 14.812268115928111 -9.364422874175482" fill="#ff9e0e" stroke="none" /><path d="M 82.24976979558568 111.22182372390057 l -10.888956831596468 6.88407714683891 a33.88254241382504,33.88254241382504 0 0,0 -0.3074201156087582,-0.49565911105709953 l 11.005841586873183 -6.6956217044165465" fill="#ff5808" stroke="none" /><path d="M 82.05923443525364 110.91462005526583 l -11.280343654711206 6.862620474007748 a34.20385219315385,34.20385219315385 0 0,0 -0.30167655004586036,-0.5056272502796013 l 11.3968010804553 -6.6674311298420355" fill="#ff5d08" stroke="none" /><line stroke="#e1ed5e" stroke-width="0.3" x1="26.63291911575756" x2="22.317208475507996" y1="142.92168965132927" y2="145.44649492493687" /><path d="M 25.769776987707644 143.4266507060508 a86.0,86.0 0 0,1 -11.730757126820373,-40.83630448921669" fill="none" id="id45" stroke="none" /><text fill="#e1ed5e" style="font-size:6.75px; font-family:Arial;" text-anchor="middle"><textPath startOffset="21.46611528233685" xlink:href="#id45">September</textPath></text><path d="M 81.69416730710424 110.29060199501025 l -11.739455799134372 6.599321063050575 a34.4672142981781,34.4672142981781 0 0,0 -0.28628072733772625,-0.5196826759763472 l 11.851312935923614 -6.396267868676405" fill="#ff6109" stroke="none" /><path d="M 81.51974371655577 109.97397251340807 l -11.414098346020952 6.160298938632032 a33.97038642700938,33.97038642700938 0 0,0 -0.273295789594029,-0.5169726397044885 l 11.518446643839866 -5.962911283841417" fill="#ff5a08" stroke="none" /><path d="M 81.18737489456691 109.33194174019688 l -11.406406372565064 5.658110930145873 a33.73264802128485,33.73264802128485 0 0,0 -0.25355183980579804,-0.5223918895741723 l 11.50211146898558 -5.460930084606416" fill="#ff5608" stroke="none" /><path d="M 81.02952815118164 109.00673069616217 l -12.849287988164715 6.10053758647229 a35.22395024761951,35.22395024761951 0 0,0 -0.2553323487075601,-0.5499631636839727 l 12.952394953712101 -5.878454355509491" fill="#ff6d0a" stroke="none" /><path d="M 80.87730276802145 108.67885076344099 l -31.043259186609113 14.089006923189332 a55.09082071480046,55.09082071480046 0 0,0 -0.38447861548689005,-0.8668977785327839 l 31.281178886827284 -13.552560808163852" fill="#84ff25" stroke="none" /><path d="M 80.58989483394504 108.01547362559985 l -10.972099310526886 4.5309683738754005 a32.87083138137863,32.87083138137863 0 0,0 -0.21146492318145102,-0.5248385972242289 l 11.048466847965724 -4.341430408808366" fill="#ff4906" stroke="none" /><path d="M 80.45479744820244 107.68017299344265 l -12.267263170749896 4.8203492932736145 a34.180345709032075,34.180345709032075 0 0,0 -0.2104625821737763,-0.5494513899459346 l 12.348420032517181 -4.608474336494521" fill="#ff5d08" stroke="none" /><path d="M 80.32549172779594 107.34259656027581 l -11.576936332416258 4.3205538718863705 a33.35688636367155,33.35688636367155 0 0,0 -0.19613172353900465,-0.5396702679559057 l 11.649592316960486 -4.120635806924348" fill="#ff5007" stroke="none" /><path d="M 80.20201598880116 107.00284435728193 l -12.111974541203187 4.284187345713039 a33.84734169001206,33.84734169001206 0 0,0 -0.1895598919496638,-0.5509497770242748 l 12.183925264096079 -4.075064865599467" fill="#ff5808" stroke="none" /><path d="M 79.97269907076064 106.31721596034903 l -35.922007531755604 11.330886778461329 a58.66669112488932,58.66669112488932 0 0,0 -0.2954935841269286,-0.9656901300711619 l 36.11172788838866 -10.710869675838119" fill="#5aff2a" stroke="none" /><path d="M 79.76711848015287 105.62410040840567 l -12.472505774835534 3.466961675888104 a33.945393913102166,33.945393913102166 0 0,0 -0.15164203344401522,-0.564316418666278 l 12.530335884621325 -3.251754324046287" fill="#ff5908" stroke="none" /><path d="M 79.50377843672027 104.57218783832718 l -12.92213060590413 2.8826000060147723 a34.23974479326247,34.23974479326247 0 0,0 -0.12337062874342997,-0.5763465052921735 l 12.969835273372 -2.659739681306435" fill="#ff5e08" stroke="none" /><path d="M 79.4281124754447 104.21870165774334 l -12.308734581804224 2.524166969268066 a33.56488622686442,33.56488622686442 0 0,0 -0.11119578021271845,-0.5669848876907628 l 12.350360294992608 -2.3119183545093485" fill="#ff5407" stroke="none" /><path d="M 79.29508885075956 103.50808413554451 l -13.952086937696404 2.363936483043835 a35.15093373643253,35.15093373643253 0 0,0 -0.09594237401594435,-0.5974332545814429 l 13.990711066073638 -2.1234239987691788" fill="#ff6c09" stroke="none" /><path d="M 79.23777060512086 103.15116336523772 l -12.518243389772744 1.899941919373576 a33.66160325008575,33.66160325008575 0 0,0 -0.08201561307587486,-0.5736170068305928 l 12.549093053865217 -1.6841794405625825" fill="#ff5507" stroke="none" /><path d="M 79.18660465613746 102.79330883721812 l -12.97138140017253 1.740853604009071 a34.08767766639037,34.08767766639037 0 0,0 -0.07304257372702327,-0.5822211798337069 l 12.999425483146403 -1.5173146698879554" fill="#ff5c08" stroke="none" /><path d="M 79.10278846688536 102.07522291339032 l -13.463718429645938 1.3370308732512666 a34.52994329288984,34.52994329288984 0 0,0 -0.05364539716477265,-0.5919724875144262 l 13.484738423087787 -1.1050769971882741" fill="#ff6209" stroke="none" /><path d="M 79.07016306316243 101.71520430193888 l -11.892232427942426 0.9745708139829359 a32.93209874211879,32.93209874211879 0 0,0 -0.0414371132939377,-0.5653764889559553 l 11.9072460999007 -0.7697211885302199" fill="#ff4a06" stroke="none" /><path d="M 79.04373962182676 101.35467743843564 l -26.885632592352174 1.737970383726655 a47.941747919273176,47.941747919273176 0 0,0 -0.04614655572755231,-0.8239777520182082 l 26.91156549896726 -1.274920915373009" fill="#ddff1b" stroke="none" /><path d="M 79.0095281055655 100.63252640178507 l -11.821297628869404 0.3562227133922495 a32.82666361455546,32.82666361455546 0 0,0 -0.012158272945445664,-0.5649471687586649 l 11.825677964499858 -0.15268572884345571" fill="#ff4806" stroke="none" /><line stroke="#e1ed5e" stroke-width="0.3" x1="15.007084014347285" x2="10.007500721073583" y1="101.09737516637583" y2="101.16192664675087" /><path d="M 14.007167355692545 101.11028546245083 a86.0,86.0 0 0,1 10.666146001902534,-42.60595125391555" fill="none" id="id46" stroke="none" /><text fill="#e1ed5e" style="font-size:6.75px; font-family:Arial;" text-anchor="middle"><textPath startOffset="22.20632615414155" xlink:href="#id46">October</textPath></text><path d="M 79.00175016825051 100.2711162175752 l -11.884048667466871 0.15343937471072674 a32.885039182620844,32.885039182620844 0 0,0 -0.002436159266247755,-0.5660776177818185 l 11.884929124022621 0.05114772127476716" fill="#ff4906" stroke="none" /><path d="M 79.00486145842228 99.54816195383935 l -11.832287444487116 -0.254643599037974 a32.83502722985877,32.83502722985877 0 0,0 0.017024657573138882,-0.5649655022981506 l 11.826151092458334 0.45827924876111903" fill="#ff4806" stroke="none" /><path d="M 79.01574976396665 99.18683210126434 l -13.742911483144646 -0.532556289958315 a34.75322624824892,34.75322624824892 0 0,0 0.02830963349297136,-0.5975716193933522 l 13.731708241418175 0.7690390159746763" fill="#ff6609" stroke="none" /><path d="M 79.05617556472873 98.46500227214037 l -15.35449725979113 -1.1253493113948114 a36.39568112080755,36.39568112080755 0 0,0 0.051171489134896574,-0.6244217800747889 l 15.332851286836735 1.3894850086773787" fill="#ff7f0b" stroke="none" /><path d="M 79.21141760316559 97.0276538004421 l -19.407020396752543 -2.7748108177791884 a40.60438766588831,40.60438766588831 0 0,0 0.10488327292287276,-0.691049723455432 l 19.35638123039037 3.108459653626712" fill="#ffbc11" stroke="none" /><path d="M 79.26566170972629 96.67025291283419 l -12.110632228353946 -1.9448579367017558 a33.26580145626029,33.26580145626029 0 0,0 0.09565999166578157,-0.5645906858131045 l 12.075360375167941 2.153034410830688" fill="#ff4f07" stroke="none" /><path d="M 79.32604984820605 96.31383870115002 l -25.49075051450636 -4.544995868487193 a46.89276634964622,46.89276634964622 0 0,0 0.1485256384576533,-0.7934298996406988 l 25.408739152138843 4.983103845590464" fill="#ebff1a" stroke="none" /><path d="M 79.46518482838121 95.60439243477599 l -9.590085631123848 -2.05281871782199 a30.807334352438914,30.807334352438914 0 0,0 0.11546238738294716,-0.5175952427387581 l 9.553328856738863 2.2175921301107073" fill="#ff2803" stroke="none" /><path d="M 79.54389044137918 95.25157060432595 l -9.485909644293958 -2.2019422642704223 a30.738122586766377,30.738122586766377 0 0,0 0.12407545604380887,-0.5143728680025509 l 9.446601387989334 2.36490036393237" fill="#ff2703" stroke="none" /><path d="M 79.71946130924805 94.55025226153421 l -9.36572862052665 -2.51674076054372 a30.697982091607212,30.697982091607212 0 0,0 0.1415224182564056,-0.5091314366835485 l 9.321019431703883 2.677583500646211" fill="#ff2703" stroke="none" /><path d="M 79.91906864156998 93.8553929516997 l -9.65318491641898 -2.9537986569070998 a31.09499408301585,31.09499408301585 0 0,0 0.16101952803752964,-0.5104759064329211 l 9.600909904613244 3.119524729766435" fill="#ff2d04" stroke="none" /><path d="M 80.65960295795068 91.81776055985345 l -11.296462140964458 -4.779134464662864 a33.26581359444092,33.26581359444092 0 0,0 0.22764792657918123,-0.5254428012047042 l 11.212523504542595 4.972876410454167" fill="#ff4f07" stroke="none" /><path d="M 80.803312248108 91.48605970444005 l -11.399688313055702 -5.055886043454706 a33.47056042522624,33.47056042522624 0 0,0 0.23811543702223503,-0.5246558020812406 l 11.310970559070114 5.251363854378017" fill="#ff5207" stroke="none" /><path d="M 80.95270993114464 91.15688171328213 l -13.343136634141286 -6.194841110992795 a35.7110622195615,35.7110622195615 0 0,0 0.2636527422071621,-0.5553199149205075 l 13.234525698092373 6.423603441553834" fill="#ff740a" stroke="none" /><path d="M 81.10775173730289 90.83032412892265 l -11.86596964770414 -5.759351351545025 a34.18982045635116,34.18982045635116 0 0,0 0.26153582453492347,-0.5272402631300658 l 11.765073810215805 5.962751203174052" fill="#ff5d08" stroke="none" /><path d="M 81.26839172434947 90.50648371742162 l -10.952182430461143 -5.550763218154091 a33.27848819253063,33.27848819253063 0 0,0 0.26336051506148184,-0.5087286891304608 l 10.855012482239546 5.738464629544887" fill="#ff4f07" stroke="none" /><path d="M 81.6062741919709 89.86733742301443 l -11.480059412810327 -6.324089507900424 a34.1067109613965,34.1067109613965 0 0,0 0.2877020584504327,-0.5117898593249559 l 11.369499713067462 6.5207628771601645" fill="#ff5c08" stroke="none" /><line stroke="#e1ed5e" stroke-width="0.3" x1="26.266209847984243" x2="21.928928074336255" y1="57.711370442889674" y2="55.22380399835377" /><path d="M 25.398753493254645 57.213857153982495 a86.0,86.0 0 0,1 29.58750427330803,-30.492523968695096" fill="none" id="id47" stroke="none" /><text fill="#e1ed5e" style="font-size:6.75px; font-family:Arial;" text-anchor="middle"><textPath startOffset="21.46611528233685" xlink:href="#id47">November</textPath></text><path d="M 81.78341655067845 89.55222093294921 l -11.593405624380237 -6.649179904409566 a34.36482874460482,34.36482874460482 0 0,0 0.29871271551484274,-0.5105968599642603 l 11.477233234395069 6.847756176727718" fill="#ff6008" stroke="none" /><path d="M 81.96595687620814 89.24020034530311 l -11.49130649658953 -6.856152823040527 a34.38121655648123,34.38121655648123 0 0,0 0.307604163174437,-0.5056203651898998 l 11.371586535128877 7.052940961437502" fill="#ff6008" stroke="none" /><path d="M 82.15384107792192 88.93136811851018 l -10.409483642482966 -6.4562208046064615 a33.24908718153944,33.24908718153944 0 0,0 0.30584790921359634,-0.4837779428416428 l 10.296808137023408 6.634446395162319" fill="#ff4f07" stroke="none" /><path d="M 82.34701348167596 88.62581576622439 l -10.089405640020193 -6.500812677773427 a33.00236108606848,33.00236108606848 0 0,0 0.3117990228861347,-0.47489130315696565 l 9.976009981776139 6.67352204490806" fill="#ff4b07" stroke="none" /><path d="M 82.54541684631803 88.32363383020206 l -10.19006058537144 -6.816712701736651 a33.25989016229584,33.25989016229584 0 0,0 0.32242380531373244,-0.4731171492899936 l 10.071212314388966 6.991107874297061" fill="#ff4f07" stroke="none" /><path d="M 82.7489923806493 88.02491185347247 l -10.11532503937439 -7.0217294925665605 a33.313589473381576,33.313589473381576 0 0,0 0.33105360533948097,-0.4682518472080099 l 9.99295881423103 7.194807840106357" fill="#ff5007" stroke="none" /><path d="M 82.95767976084542 87.72973835380427 l -9.945813805862064 -7.160864012042953 a33.25549614090953,33.25549614090953 0 0,0 0.33847346974861664,-0.4616774323529811 l 9.821077723599814 7.3310038880674355" fill="#ff4f07" stroke="none" /><path d="M 83.17141714833178 87.43820079747576 l -12.560011549111058 -9.375497892603482 a36.673348424890435,36.673348424890435 0 0,0 0.38196874538418185,-0.5026260950525258 l 12.396766863502767 9.590308763537035" fill="#ff830c" stroke="none" /><path d="M 83.84228863543731 86.58626213691792 l -10.2523192753663 -8.511225392353653 a34.324826760731,34.324826760731 0 0,0 0.3813151322462703,-0.45135684359556616 l 10.104293529632907 8.686441185578335" fill="#ff5f08" stroke="none" /><path d="M 84.07557802195018 86.31012108654704 l -10.049586210280607 -8.639410494062819 a34.25268262212541,34.25268262212541 0 0,0 0.3882103408738882,-0.4437915285618147 l 9.899384005828875 8.811117578827577" fill="#ff5e08" stroke="none" /><path d="M 84.31358615837235 86.03803664274999 l -7.209282498043333 -6.416746305814703 a30.651341217145966,30.651341217145966 0 0,0 0.3541782319041907,-0.39109244978971597 l 7.097760625523097 6.539891542873975" fill="#ff2603" stroke="none" /><path d="M 84.5562425177563 85.77008943001954 l -8.78644052566078 -8.09584474842714 a32.94756206519177,32.94756206519177 0 0,0 0.38789114304390365,-0.41377522647141235 l 8.64578206064642 8.245889391776602" fill="#ff4a06" stroke="none" /><path d="M 84.80347519578584 85.50635884689758 l -8.865120797353766 -8.455083071369025 a33.25066514502071,33.25066514502071 0 0,0 0.39858955584013556,-0.4107815743043768 l 8.718266977810512 8.606428841223526" fill="#ff4f07" stroke="none" /><path d="M 85.05521093208273 85.24692304244772 l -7.849062981585162 -7.748375014578807 a32.029283977459265,32.029283977459265 0 0,0 0.3907026619666547,-0.38902486057127283 l 7.714524519451194 7.882335725800189" fill="#ff3c05" stroke="none" /><path d="M 85.31137513191541 84.99185889309783 l -10.020316753776594 -10.238285008101348 a35.32582380713684,35.32582380713684 0 0,0 0.43823662071210356,-0.4215832819106196 l 9.842596889452063 10.409251376774282" fill="#ff6e0a" stroke="none" /><path d="M 85.57189188830299 84.74124197986013 l -6.0637167410704444 -6.412814884555392 a29.825692916678733,29.825692916678733 0 0,0 0.37607658784248243,-0.3495222020924051 l 5.952432269433106 6.516241672722444" fill="#ff1902" stroke="none" /><path d="M 86.10567301691215 84.25364557470407 l -8.105207163143636 -9.185580909147676 a33.25027672324071,33.25027672324071 0 0,0 0.4324217509441846,-0.3749918812641026 l 7.945891613552677 9.32373778383146" fill="#ff4f07" stroke="none" /><path d="M 86.37877921826538 84.01681056812374 l -6.259763556883151 -7.345229060715493 a30.650752807033335,30.650752807033335 0 0,0 0.40450595842850856,-0.3387621072152759 l 6.132400061495532 7.451892325324581" fill="#ff2603" stroke="none" /><path d="M 86.65592168130627 83.78471172551755 l -6.195654061681778 -7.528756521040314 a30.750297636746325,30.750297636746325 0 0,0 0.41160972184854594,-0.33282643619740665 l 6.065140941268731 7.6342890545018545" fill="#ff2703" stroke="none" /><path d="M 86.93701828274178 83.55741782278169 l -7.852476017341866 -9.884036049686776 a33.62361074472898,33.62361074472898 0 0,0 0.45626830667807133,-0.3561246505701908 l 7.681175155504369 10.017739089480187" fill="#ff5407" stroke="none" /><path d="M 87.22198572758235 83.33499621200491 l -7.869889786384501 -10.263859493748017 a33.933753397882626,33.933753397882626 0 0,0 0.46659532433585293,-0.3514299247542294 l 7.692048308290259 10.3978060080081" fill="#ff5908" stroke="none" /><path d="M 87.51073957382395 83.11751280151077 l -7.361682571027103 -9.951230699315271 a33.37826169975247,33.37826169975247 0 0,0 0.46483947457437114,-0.33772564697394825 l 7.18929778009895 10.076475581105887" fill="#ff5107" stroke="none" /><path d="M 87.80319425747018 82.90503203632743 l -5.832763983220762 -8.175166149046198 a31.04263298385778,31.04263298385778 0 0,0 0.43765509389778345,-0.30660536196990873 l 5.691177749739318 8.27435635378005" fill="#ff2c04" stroke="none" /><path d="M 88.39885842347998 82.49532879139004 l -6.833313936733449 -10.310615807829134 a33.369437242437975,33.369437242437975 0 0,0 0.48152570549907403,-0.31319771336549546 l 6.654821205450087 10.426712445354164" fill="#ff5107" stroke="none" /><path d="M 88.70189139769569 82.29822771554957 l -5.269382946775703 -8.256020568289227 a30.794297946447482,30.794297946447482 0 0,0 0.44927538604449047,-0.28133620552445804 l 5.126488408358971 8.345501115136615" fill="#ff2803" stroke="none" /><path d="M 89.00827224532344 82.1063720568725 l -5.2602447108266635 -8.563245364705299 a31.04984306314913,31.04984306314913 0 0,0 0.45781948811141693,-0.2758311190099163 l 5.112063156497598 8.652523093173835" fill="#ff2c04" stroke="none" /><line stroke="#e1ed5e" stroke-width="0.3" x1="56.762969772571076" x2="54.21961505331055" y1="26.818313649435495" y2="22.513508569990535" /><path d="M 56.25429882871897 25.957352633546506 a86.0,86.0 0 0,1 42.265352541879196,-11.944610805530505" fill="none" id="id48" stroke="none" /><text fill="#e1ed5e" style="font-size:6.75px; font-family:Arial;" text-anchor="middle"><textPath startOffset="22.20632615414155" xlink:href="#id48">December</textPath></text><path d="M 89.3179101791058 81.91981866633112 l -7.415511755232363 -12.55127034733461 a35.57820983261904,35.57820983261904 0 0,0 0.5299514423179862,-0.3069820813892912 l 7.198363580449057 12.677056586113947" fill="#ff720a" stroke="none" /><path d="M 90.58718382345135 81.22770947309562 l -4.4442102519593565 -8.863235449161635 a30.915036429126022,30.915036429126022 0 0,0 0.4777532191747997,-0.23443142978962292 l 4.29098576577413 8.938422039086088" fill="#ff2a04" stroke="none" /><path d="M 90.91171255644093 81.06846463323043 l -4.400985853838738 -9.167559879463127 a31.169209931417026,31.169209931417026 0 0,0 0.4856783155302994,-0.2280324813766906 l 4.24252932700883 9.241957343479825" fill="#ff2e04" stroke="none" /><path d="M 91.56875222667455 80.76684994638697 l -5.524942311764884 -12.603359238939532 a34.76116461837778,34.76116461837778 0 0,0 0.5500809333719903,-0.23551594811743268 l 5.307177620602586 12.696594715019751" fill="#ff6609" stroke="none" /><path d="M 91.90106846888425 80.62456947434976 l -4.941777807816628 -11.822432653083592 a33.81370679149972,33.81370679149972 0 0,0 0.5389520520058992,-0.2198520742933208 l 4.737541886222348 11.905745613560489" fill="#ff5708" stroke="none" /><path d="M 92.23578459929587 80.48803036053334 l -4.728077151278155 -11.881960129600326 a33.78810736856124,33.78810736856124 0 0,0 0.5422457621906488,-0.21038293143660963 l 4.52284822408783 11.961585764927486" fill="#ff5708" stroke="none" /><path d="M 92.57280143429618 80.3572730644239 l -3.5572744087430404 -9.407930759857242 a31.05799992052924,31.05799992052924 0 0,0 0.5016867856760786,-0.1847754770734487 l 3.394805297294392 9.467769504737014" fill="#ff2c04" stroke="none" /><path d="M 92.91201910852362 80.23233633223022 l -3.3932443730907194 -9.463416244599674 a31.053375273711055,31.053375273711055 0 0,0 0.5047178959758946,-0.17608616351031944 l 3.229844473051539 9.520423261282202" fill="#ff2c04" stroke="none" /><path d="M 93.25333710446033 80.11325718540243 l -3.9391597240364713 -11.611230255675649 a33.26122536216461,33.26122536216461 0 0,0 0.5437690485760739,-0.1792721059675108 l 3.738707853217988 11.677316085902392" fill="#ff4f07" stroke="none" /><path d="M 93.59665428221793 80.00007090966166 l -3.0378914359409523 -9.488416834068698 a30.962872998969807,30.962872998969807 0 0,0 0.5089922220068763,-0.1581463610247144 l 2.8741138412233473 9.539303329975937" fill="#ff2b04" stroke="none" /><path d="M 93.94186890950719 79.89281104454417 l -3.931069952185083 -13.047384605087887 a34.62672212977343,34.62672212977343 0 0,0 0.5721814908192507,-0.16703546741971048 l 3.705898243642411 13.113118401426297" fill="#ff6409" stroke="none" /><path d="M 94.28887869178378 79.79150937346287 l -2.200154775242392 -7.785127429958874 a29.090048833951496,29.090048833951496 0 0,0 0.4830362586182798,-0.1320320562807568 l 2.06582062740039 7.821846027065926" fill="#ff0d01" stroke="none" /><path d="M 94.63758080256005 79.69619591428918 l -2.6311521848192476 -9.962368944554758 a31.303968012717633,31.303968012717633 0 0,0 0.5221667497020995,-0.1331119310267348 l 2.459276546432149 10.006183871750356" fill="#ff3004" stroke="none" /><path d="M 94.98787191387505 79.60689891045804 l -2.9266262625833637 -11.907713489882878 a33.262087172989,33.262087172989 0 0,0 0.5571816376021361,-0.13186689180371594 l 2.7212209380186936 11.956326293827464" fill="#ff4f07" stroke="none" /><path d="M 95.33964822691252 79.52364482259891 l -2.3119608466967883 -10.15814551308973 a31.4179212524267,31.4179212524267 0 0,0 0.5283555943936292,-0.11547806850353791 l 2.1367625281496383 10.196437079689137" fill="#ff3204" stroke="none" /><path d="M 95.692805502759 79.44645832069477 l -2.088001311343946 -9.963752973459105 a31.180182846702174,31.180182846702174 0 0,0 0.5262525790394217,-0.10556131662808288 l 1.9161823228373878 9.998218246164399" fill="#ff2e04" stroke="none" /><path d="M 96.04723909329186 79.375362276772 l -2.10151503496131 -10.965243607939318 a32.1648077826545,32.1648077826545 0 0,0 0.5446648845856937,-0.09953402624770936 l 1.9124550292727227 10.999793115537763" fill="#ff3e05" stroke="none" /><path d="M 96.40284397218896 79.31037775812273 l -2.366857216832851 -13.613360482039441 a34.817582881923556,34.817582881923556 0 0,0 0.5913530917533724,-0.09757832704811777 l 2.1321749189405934 13.652085072027187" fill="#ff6709" stroke="none" /><path d="M 96.75951476605007 79.25152402106235 l -1.5144351890790835 -9.69676448855896 a30.814313806298387,30.814313806298387 0 0,0 0.5247692601875265,-0.07733734782793965 l 1.3472969484629083 9.72139632054787" fill="#ff2803" stroke="none" /><path d="M 97.11714578562143 79.19881850522333 l -1.6839774659502575 -12.15070839435294 a33.26684533979406,33.26684533979406 0 0,0 0.5678892420630086,-0.07372832215015905 l 1.4745734953793912 12.177895039667234" fill="#ff4f07" stroke="none" /><path d="M 98.19473922651362 79.07773832637324 l -1.1537850580926041 -13.371914603735911 a34.42159901538872,34.42159901538872 0 0,0 0.5907562849039006,-0.04585405750044702 l 0.9234385838263693 13.38979392342482" fill="#ff6108" stroke="none" /><path d="M 98.91598698831166 79.02799685794201 l -0.9310919546967512 -18.013495399868237 a39.037542758069215,39.037542758069215 0 0,0 0.6713698308604974,-0.028910597180810644 l 0.6208812914469297 18.02685372357324" fill="#ffa60f" stroke="none" /><path d="M 99.27714615592234 79.0124445844662 l -0.5393616803705296 -15.65998887401052 a36.669274474473454,36.669274474473454 0 0,0 0.6310142429430003,-0.016297236221863173 l 0.26972080223265027 15.666952902374742" fill="#ff830c" stroke="none" /><path d="M 99.63851952072746 79.00311137660856 l -0.2167048734153291 -12.587479413562477 a33.58934466082413,33.58934466082413 0 0,0 0.5781853526878618,-0.004976623870214759 l 3.0835001284482188e-15 12.589344660824132" fill="#ff5407" stroke="none" /></svg>