<?xml version="1.0" encoding="utf-8" ?>
<svg baseProfile="full" height="200mm" version="1.1" viewBox="0,0,200,200" width="200mm" xmlns="http://www.w3.org/2000/svg" xmlns:ev="http://www.w3.org/2001/xml-events" xmlns:xlink="http://www.w3.org/1999/xlink"><defs /><rect fill="#1a1a1a" height="200" width="200" x="0" y="0" /><text alignment-baseline="middle" fill="#e1ed5e" style="dominant-baseline: central; font-size:9.0px; font-family:Arial;" text-anchor="middle" x="100.0" y="100.0">2016</text><line stroke="#e1ed5e" stroke-width="0.3" x1="100.0" x2="100.0" y1="15.0" y2="10.0" /><path d="M 100.0 14.0 a86.0,86.0 0 0,1 42.35913384403234,11.155469271406648" fill="none" id="id1" stroke="none" /><text fill="#e1ed5e" style="font-size:6.75px; font-family:Arial;" text-anchor="middle"><textPath startOffset="22.145653131862478" xlink:href="#id1">January</textPath></text><line stroke="#e1ed5e" stroke-width="0.3" x1="143.13028292997686" x2="145.6673583964461" y1="26.7553504044142" y2="22.446841604673864" /><path d="M 143.63769802327073 25.89364864446614 a86.0,86.0 0 0,1 29.32050498858742,28.57503671076993" fill="none" id="id2" stroke="none" /><text fill="#e1ed5e" style="font-size:6.75px; font-family:Arial;" text-anchor="middle"><textPath startOffset="20.669276256404974" xlink:href="#id2">February</textPath></text><line stroke="#e1ed5e" stroke-width="0.3" x1="172.87174338648825" x2="177.1583165268699" y1="56.24261187166439" y2="53.66864786411523" /><path d="M 173.72905801456457 55.72781907015455 a86.0,86.0 0 0,1 12.242430191666344,42.057860355516425" fill="none" id="id3" stroke="none" /><text fill="#e1ed5e" style="font-size:6.75px; font-family:Arial;" text-anchor="middle"><textPath startOffset="22.145653131862474" xlink:href="#id3">March</textPath></text><line stroke="#e1ed5e" stroke-width="0.3" x1="184.99686870605535" x2="189.99668451229388" y1="99.2704041080226" y2="99.22748670261217" /><path d="M 185.99683186730306 99.26182062694052 a86.0,86.0 0 0,1 -10.086455211305974,41.156179273409016" fill="none" id="id4" stroke="none" /><text fill="#e1ed5e" style="font-size:6.75px; font-family:Arial;" text-anchor="middle"><textPath startOffset="21.40746469413373" xlink:href="#id4">April</textPath></text><line stroke="#e1ed5e" stroke-width="0.3" x1="174.33088141563837" x2="178.70328620479359" y1="141.23008692659167" y2="143.65538615756765" /><path d="M 175.20536237346943 141.71514677278685 a86.0,86.0 0 0,1 -30.301960400862466,31.631185727798858" fill="none" id="id5" stroke="none" /><text fill="#e1ed5e" style="font-size:6.75px; font-family:Arial;" text-anchor="middle"><textPath startOffset="22.145653131862474" xlink:href="#id5">May</textPath></text><line stroke="#e1ed5e" stroke-width="0.3" x1="143.1302829299769" x2="145.66735839644613" y1="173.24464959558577" y2="177.55315839532614" /><path d="M 143.63769802327073 174.10635135553383 a86.0,86.0 0 0,1 -40.68552437913181,11.842963189579606" fill="none" id="id6" stroke="none" /><text fill="#e1ed5e" style="font-size:6.75px; font-family:Arial;" text-anchor="middle"><textPath startOffset="21.407464694133747" xlink:href="#id6">June</textPath></text><line stroke="#e1ed5e" stroke-width="0.3" x1="101.45913802915013" x2="101.54496967792366" y1="184.9874750549273" y2="189.98673829345242" /><path d="M 101.47630435890484 185.9873277026323 a86.0,86.0 0 0,1 -42.54439059252881,-10.42667462771756" fill="none" id="id7" stroke="none" /><text fill="#e1ed5e" style="font-size:6.75px; font-family:Arial;" text-anchor="middle"><textPath startOffset="22.145653131862474" xlink:href="#id7">July</textPath></text><path d="M 92.93061703081489 119.77432235084164 l -6.027718974289848 16.860602765113967 a38.90567847460639,38.90567847460639 0 0,0 -0.6269573170506493,-0.23022741108471764 l 6.316265442994616 -16.75464450502053" fill="#ffa80f" stroke="none" /><path d="M 92.59220618246901 119.65005319985036 l -11.81056187167542 31.32891854378012 a54.481196347315354,54.481196347315354 0 0,0 -0.8722899706906522,-0.3374204995859624 l 12.3466241048596 -31.121558156056114" fill="#89ff24" stroke="none" /><path d="M 92.25597844496254 119.51999308798841 l -15.21518398662214 38.35220294010395 a62.26006900267716,62.26006900267716 0 0,0 -0.9900701090199693,-0.4026528941341054 l 15.87130855683255 -38.08536278939055" fill="#31ff2f" stroke="none" /><path d="M 91.26138138417905 119.09545874513695 l -2.872673666657263 6.277310396700692 a27.90339625196415,27.90339625196415 0 0,0 -0.4338463713134411,-0.20306200796219076 l 2.980008751842194 -6.227072157167974" fill="#ff0000" stroke="none" /><line stroke="#e1ed5e" stroke-width="0.3" x1="58.13341422392154" x2="55.67067388415222" y1="173.97424548756322" y2="178.32567169271397" /><path d="M 57.64086615596768 174.84453072859336 a86.0,86.0 0 0,1 -31.369924170532247,-30.572349798747897" fill="none" id="id8" stroke="none" /><text fill="#e1ed5e" style="font-size:6.75px; font-family:Arial;" text-anchor="middle"><textPath startOffset="22.145653131862474" xlink:href="#id8">August</textPath></text><path d="M 85.60350026404147 115.28858382429668 l -14.55334762251957 15.455150844428863 a42.22879211462457,42.22879211462457 0 0,0 -0.5234912607671727,-0.5014927859635542 l 14.816511369152058 -15.203045928159726" fill="#ffd714" stroke="none" /><path d="M 85.34317274990678 115.03919595460226 l -18.53828426524855 19.021912789851555 a47.56127161270484,47.56127161270484 0 0,0 -0.5798128486545661,-0.5748572130594616 l 18.86208903403308 -18.700875566563433" fill="#dfff1b" stroke="none" /><path d="M 85.08716467003676 114.78537596483092 l -25.04583430379698 24.831768630238766 a56.26911608304018,56.26911608304018 0 0,0 -0.674192966384294,-0.691781376668919 l 25.468414071332084 -24.39816456150211" fill="#74ff27" stroke="none" /><path d="M 84.58840730492382 114.26474011684316 l -31.549899164164927 29.202115653705633 a63.990227911949646,63.990227911949646 0 0,0 -0.739246495956719,-0.8125613959817851 l 32.046543360963526 -28.656216682166175" fill="#32ff45" stroke="none" /><path d="M 84.3458050057657 113.99807769240083 l -21.509608213848203 19.23402429964924 a49.854998462532336,49.854998462532336 0 0,0 -0.564997049544956,-0.6428629273042983 l 21.836616327351752 -18.86194909453364" fill="#c2ff1e" stroke="none" /><path d="M 84.1078160697243 113.72728997021213 l -38.4783998539765 33.23672534264078 a71.8455225838484,71.8455225838484 0 0,0 -0.7981881431659229,-0.9402636256339174 l 39.04328256064953 -32.57129493455731" fill="#3cffa7" stroke="none" /><path d="M 83.64595745247003 113.17365903436017 l -8.419808995763683 6.782402119981157 a31.81176035815944,31.81176035815944 0 0,0 -0.3389218425002993,-0.4282166762960596 l 8.534997268905544 -6.636865499770417" fill="#ff3e05" stroke="none" /><path d="M 83.4222238831116 112.89097897827486 l -31.447495854930352 24.453762985272053 a60.83630906203188,60.83630906203188 0 0,0 -0.6339955211089836,-0.8299204886612885 l 31.86264335339363 -23.910321583369893" fill="#40ff2d" stroke="none" /><path d="M 83.20337586046588 112.60449989151573 l -10.280142952243951 7.71441092268908 a33.85276137655545,33.85276137655545 0 0,0 -0.3448112995217009,-0.46780275072869276 l 10.411056271349482 -7.536801862691507" fill="#ff5d08" stroke="none" /><path d="M 82.78059297857968 112.02048342749411 l -23.190304741318883 16.188633759269177 a49.281833338505244,49.281833338505244 0 0,0 -0.4782925439497164,-0.6978431155684859 l 23.464787022083925 -15.788155908630639" fill="#c9ff1d" stroke="none" /><path d="M 82.576782715395 111.72311816256416 l -25.40396590582462 17.092922004415275 a51.6191029651968,51.6191029651968 0 0,0 -0.48835496400091694,-0.7394316587628113 l 25.693645308746266 -16.6543104673134" fill="#acff21" stroke="none" /><path d="M 82.37810715431573 111.42229804090323 l -24.760052211152473 16.049166700804918 a50.50654058491476,50.50654058491476 0 0,0 -0.46533914573142776,-0.7315904278675114 l 25.031909048509792 -15.621762598258734" fill="#b9ff1f" stroke="none" /><path d="M 82.18462484594161 111.11811171558189 l -25.249777106399947 15.757728379834083 a50.76335410560287,50.76335410560287 0 0,0 -0.4550137844937485,-0.7432308213570936 l 25.5165588553491 -15.321960442352433" fill="#b6ff1f" stroke="none" /><path d="M 81.99639281039703 110.81064883170644 l -24.535621566370086 14.732935784938089 a49.61915656498692,49.61915656498692 0 0,0 -0.4322213436630058,-0.7340063341510562 l 24.78491662016286 -14.309578282493474" fill="#c5ff1e" stroke="none" /><line stroke="#e1ed5e" stroke-width="0.3" x1="26.387840678322732" x2="22.057713659400548" y1="142.50000000000003" y2="145.00000000000006" /><path d="M 25.521815274538298 143.00000000000003 a86.0,86.0 0 0,1 -11.493303480769221,-40.785679425670985" fill="none" id="id9" stroke="none" /><text fill="#e1ed5e" style="font-size:6.75px; font-family:Arial;" text-anchor="middle"><textPath startOffset="21.40746469413373" xlink:href="#id9">September</textPath></text><path d="M 81.29705330413844 109.54985784667822 l -37.66669492162372 19.232882812808175 a63.29283257964506,63.29283257964506 0 0,0 -0.4857878213458186,-0.9719010590522141 l 37.991302656181276 -18.583449897592207" fill="#31ff3b" stroke="none" /><path d="M 80.9802524753101 108.90220220490708 l -16.71588772138665 7.823879488260114 a39.456272444912116,39.456272444912116 0 0,0 -0.28185970598324744,-0.6159143251514841 l 16.847731892224953 -7.535776180893941" fill="#ffb010" stroke="none" /><path d="M 80.68587082218212 108.24405325689762 l -27.33457169552174 11.667503242712977 a50.72052223121821,50.72052223121821 0 0,0 -0.3349345516705998,-0.8037209953671518 l 27.530832091728822 -11.196549737904544" fill="#b7ff1f" stroke="none" /><path d="M 80.5471966667186 107.91128576633889 l -26.7804417081538 10.891372501540983 a49.91044885592658,49.91044885592658 0 0,0 -0.3159600573305885,-0.7964257448588271 l 26.96346044045051 -10.430045739468591" fill="#c1ff1e" stroke="none" /><path d="M 80.28708602549918 107.23885506374661 l -40.35219515548564 14.817884997236956 a63.986851125172436,63.986851125172436 0 0,0 -0.36978254152259266,-1.0343475813454355 l 40.60061786705217 -14.123002459510598" fill="#32ff45" stroke="none" /><path d="M 80.16572619554312 106.89939002012753 l -27.41773797938869 9.537312515417588 a50.02916956998863,50.02916956998863 0 0,0 -0.2751951634267517,-0.8135656016952069 l 27.57741856438781 -9.065245239248219" fill="#bfff1e" stroke="none" /><path d="M 80.05021161711548 106.5578916946017 l -27.392879124512728 9.004583459942253 a49.834915467488905,49.834915467488905 0 0,0 -0.26017452959498216,-0.8149930083289297 l 27.543418369884964 -8.533021417921931" fill="#c2ff1e" stroke="none" /><path d="M 79.48165901384964 104.47187691870673 l -34.64476775899441 7.550665884730941 a56.458038416944305,56.458038416944305 0 0,0 -0.19825452358244355,-0.948719664287429 l 34.76927999340122 -6.954829769158104" fill="#71ff27" stroke="none" /><path d="M 79.34024301695615 103.76489593502545 l -30.23281412745263 5.509425842048637 a51.73071465446472,51.73071465446472 0 0,0 -0.1517069287263028,-0.8750052503458411 l 30.32293587367117 -4.989627558782203" fill="#aaff21" stroke="none" /><path d="M 79.2786578344484 103.40968896794605 l -28.03176204904744 4.612615777834262 a49.408729431080545,49.408729431080545 0 0,0 -0.13052964686573404,-0.8380939685286798 l 28.106813188051444 -4.130733627374132" fill="#c7ff1e" stroke="none" /><path d="M 79.17382384314188 102.69636545807758 l -37.66717870711095 4.8767704068249635 a58.981564493242196,58.981564493242196 0 0,0 -0.1213838174542459,-1.0052321370038906 l 37.74534461082486 -4.229444592897673" fill="#55ff2b" stroke="none" /><path d="M 79.13060592940153 102.33845913500099 l -37.77378047680309 4.232630890992075 a59.010178318038584,59.010178318038584 0 0,0 -0.10416029187999777,-1.0076563373393548 l 37.84087316116475 -3.583570031369789" fill="#54ff2b" stroke="none" /><path d="M 79.0935383218832 101.97986365728391 l -23.239572292637337 2.2008116582049677 a44.343549265259725,44.343549265259725 0 0,0 -0.06526183164349694,-0.7584414086067486 l 23.273927746978572 -1.801549202222557" fill="#fff417" stroke="none" /><path d="M 79.03789590574601 101.26102812881392 l -25.284988478090995 1.5210821186766608 a46.33069942084016,46.33069942084016 0 0,0 -0.040944006696003926,-0.794302791623182 l 25.30737407424357 -1.086807533676748" fill="#efff19" stroke="none" /><line stroke="#e1ed5e" stroke-width="0.3" x1="15.003131293944662" x2="10.003315487706104" y1="100.72959589197737" y2="100.7725132973878" /><path d="M 14.003168132696942 100.73817937305945 a86.0,86.0 0 0,1 10.791469493833604,-42.45332614584628" fill="none" id="id10" stroke="none" /><text fill="#e1ed5e" style="font-size:6.75px; font-family:Arial;" text-anchor="middle"><textPath startOffset="22.145653131862435" xlink:href="#id10">October</textPath></text><path d="M 79.0935383218832 98.0201363427161 l -23.831947302426354 -2.256910187521954 a44.93857464052877,44.93857464052877 0 0,0 0.0793221641527895,-0.7673699829116856 l 23.7896927457919 2.6656846927165523" fill="#fffc17" stroke="none" /><path d="M 79.2786578344484 96.59031103205396 l -19.74355253512729 -3.24879405635231 a41.009061185570935,41.009061185570935 0 0,0 0.12026431036121503,-0.6936525831666903 l 19.68487340727384 3.587239672439593" fill="#ffc612" stroke="none" /><path d="M 79.48165901384962 95.52812308129327 l -20.073162116529087 -4.374852256084188 a41.544370752569264,41.544370752569264 0 0,0 0.15784712140364654,-0.6955035416529429 l 19.99510413356778 4.71879013167614" fill="#ffce13" stroke="none" /><path d="M 79.64726062577567 94.8264132398404 l -35.43067779744735 -9.00633974552333 a57.55744910135719,57.55744910135719 0 0,0 0.2516371088357706,-0.9555070893002032 l 35.27085120780686 9.613227339196317" fill="#65ff29" stroke="none" /><path d="M 80.05021161711548 93.44210830539832 l -35.921539020075194 -11.808123368324202 a58.81254742876164,58.81254742876164 0 0,0 0.32350983916612813,-0.9563993555633834 l 35.7135437593367 12.423024398361745" fill="#57ff2a" stroke="none" /><path d="M 80.41425534168474 92.42381321644754 l -35.554625042363305 -13.753292766724279 a59.12196773292636,59.12196773292636 0 0,0 0.3742739394773739,-0.9434148213159526 l 35.3132924279198 14.361608605253814" fill="#53ff2b" stroke="none" /><path d="M 80.83023694016515 91.42560881287825 l -20.943868851548732 -9.367926142040698 a43.9434888949698,43.9434888949698 0 0,0 0.31391457155786695,-0.6859599914142065 l 20.779969815135818 9.726075115669575" fill="#ffef16" stroke="none" /><path d="M 81.1358732173502 90.77261029715801 l -21.22587443657006 -10.382638829058562 a44.62915433636407,44.62915433636407 0 0,0 0.3425395699629349,-0.6853085980870449 l 21.044514953395378 10.745479283309377" fill="#fff817" stroke="none" /><path d="M 81.29705330413844 90.45014215332179 l -35.04216518222522 -17.892779227356506 a60.34596407685645,60.34596407685645 0 0,0 0.47900882293048136,-0.9185625776499456 l 34.729848290319794 18.49168804811094" fill="#46ff2d" stroke="none" /><path d="M 81.46374523516351 90.13048839642627 l -33.29397474185108 -17.7271662594506 a58.71924147833863,58.71924147833863 0 0,0 0.4813709755978662,-0.8856683771571615 l 32.98475841663786 18.29608947008238" fill="#58ff2a" stroke="none" /><line stroke="#e1ed5e" stroke-width="0.3" x1="26.387840678322718" x2="22.05771365940052" y1="57.49999999999999" y2="54.99999999999999" /><path d="M 25.521815274538284 56.99999999999999 a86.0,86.0 0 0,1 29.574782752854787,-30.34633250058573" fill="none" id="id11" stroke="none" /><text fill="#e1ed5e" style="font-size:6.75px; font-family:Arial;" text-anchor="middle"><textPath startOffset="21.40746469413373" xlink:href="#id11">November</textPath></text><path d="M 81.81346652052679 89.5 l -20.95612952556452 -12.099027022757344 a45.19805404551468,45.19805404551468 0 0,0 0.39371011123331984,-0.6686058421258615 l 20.74534570420142 12.456984033176777" fill="#feff18" stroke="none" /><path d="M 81.99639281039701 89.18935116829357 l -15.42165063167474 -9.260258104308022 a38.988320887838206,38.988320887838206 0 0,0 0.34946909538971926,-0.5708315036969739 l 15.260413571829629 9.523626724129539" fill="#ffa90f" stroke="none" /><path d="M 82.576782715395 88.27688183743585 l -31.44784576946724 -21.15951410646232 a58.90372067174641,58.90372067174641 0 0,0 0.5716753720317097,-0.8340914525197403 l 31.079980660620215 21.696240294052096" fill="#56ff2b" stroke="none" /><path d="M 82.98947788004972 87.6856937992154 l -20.76539144738506 -15.032542026581876 a46.63549885888868,46.63549885888868 0 0,0 0.4750113819817816,-0.6444441682356485 l 20.50427804581946 15.386792504086387" fill="#ebff1a" stroke="none" /><path d="M 84.10781606972428 86.27271002978789 l -22.618853992249967 -19.537627358691058 a50.88865066759949,50.88865066759949 0 0,0 0.5767112299507078,-0.656191514263606 l 22.280131698340664 19.923031150765965" fill="#b5ff20" stroke="none" /><line stroke="#e1ed5e" stroke-width="0.3" x1="56.869717070023135" x2="54.33264160355391" y1="26.7553504044142" y2="22.446841604673864" /><path d="M 56.362301976729285 25.89364864446614 a86.0,86.0 0 0,1 42.16139366436587,-11.88097634709845" fill="none" id="id12" stroke="none" /><text fill="#e1ed5e" style="font-size:6.75px; font-family:Arial;" text-anchor="middle"><textPath startOffset="22.145653131862474" xlink:href="#id12">December</textPath></text><path d="M 90.61103034731259 81.2157712731953 l -18.808346006931977 -37.62929122536563 a63.06800967053056,63.06800967053056 0 0,0 0.9725680252972877,-0.47573175717816085 l 18.159617732372638 37.946616732641" fill="#30ff38" stroke="none" /><path d="M 93.27111125876988 80.10723608172694 l -8.49900453121969 -25.125796722413675 a47.52430468377534,47.52430468377534 0 0,0 0.7750473220615746,-0.2547734491575565 l 8.066434471510354 25.267991092973258" fill="#e0ff1b" stroke="none" /><path d="M 94.6519064749342 79.69241777938228 l -16.044280575197423 -60.922746661853175 a84.0,84.0 0 0,0 1.3975788270984877,-0.35525907265894796 l 14.996096454873559 61.18919096634739" fill="#4dd2ff" stroke="none" /></svg>