<?xml version="1.0" encoding="utf-8" ?>
<svg baseProfile="full" height="200mm" version="1.1" viewBox="0,0,200,200" width="200mm" xmlns="http://www.w3.org/2000/svg" xmlns:ev="http://www.w3.org/2001/xml-events" xmlns:xlink="http://www.w3.org/1999/xlink"><defs /><rect fill="#1a1a1a" height="200" width="200" x="0" y="0" /><rect fill="#1a1a1a" height="200" width="180" x="10" y="0" /><text alignment-baseline="middle" fill="#e1ed5e" style="dominant-baseline: central; font-size:9.0px; font-family:Arial;" text-anchor="middle" x="100.0" y="100.0">2018</text><line stroke="#e1ed5e" stroke-width="0.3" x1="100.0" x2="100.0" y1="15.0" y2="10.0" /><path d="M 100.0 14.0 a86.0,86.0 0 0,1 42.46469731375804,11.215312516191453" fill="none" id="id25" stroke="none" /><text fill="#e1ed5e" style="font-size:6.75px; font-family:Arial;" text-anchor="middle"><textPath startOffset="22.20632615414155" xlink:href="#id25">January</textPath></text><path d="M 100.36148047927253 79.00311137660856 l 0.5086237483869139 -29.543825485636734 a50.54820337081735,50.54820337081735 0 0,0 0.8698463969983995,0.022465566137624536 l -1.0170967805801814 29.53069312735675" fill="#95ff23" stroke="none" /><path d="M 100.72285384407766 79.0124445844662 l 1.0723545162427672 -31.135062805760015 a52.15352436125208,52.15352436125208 0 0,0 0.8969392117272629,0.0386240892187268 l -1.6081345603593618 31.111990990017095" fill="#83ff25" stroke="none" /><path d="M 101.08401301168833 79.027996857942 l 1.0541630200592054 -20.39450627487429 a41.421732195598565,41.421732195598565 0 0,0 0.7117396656654319,0.04293408030965617 l -1.4050647345642493 20.373338925184328" fill="#ffff18" stroke="none" /><path d="M 101.44485096284872 79.0497635885617 l 1.1626126777964094 -16.857801310349 a37.89784404170477,37.89784404170477 0 0,0 0.6504168949831592,0.050484869080435854 l -1.45261976214191 16.8352911790801" fill="#ffd313" stroke="none" /><path d="M 101.80526077348638 79.07773832637324 l 2.6671623179380393 -30.911361262322192 a52.02621488225758,52.02621488225758 0 0,0 0.8915679747013376,0.08466512212083259 l -3.198855419729621 30.86087059568618" fill="#85ff25" stroke="none" /><path d="M 102.16513564639614 79.11191278185805 l 1.819611854938841 -17.5546558444928 a38.6487089930459,38.6487089930459 0 0,0 0.661138244603105,0.07428658514745301 l -2.121516803051671 17.520733305874746" fill="#ffdd14" stroke="none" /><path d="M 102.52436894288641 79.15227682838746 l 1.771121115410809 -14.626959669081822 a35.73379853148536,35.73379853148536 0 0,0 0.610001927047879,0.07919575730334467 l -2.022637770966534 14.59430558861434" fill="#ffb711" stroke="none" /><path d="M 102.88285421437855 79.19881850522331 l 2.0304335062649987 -14.650555573098398 a35.79058615551825,35.79058615551825 0 0,0 0.6095154198978109,0.08982672883370821 l -2.2823179065914654 14.61343436010372" fill="#ffb811" stroke="none" /><path d="M 105.36241919743992 79.69619591428918 l 3.850018989095341 -14.577381663518103 a36.07722462458753,36.07722462458753 0 0,0 0.5990573513116184,0.16374500363601227 l -4.10037422963067 14.508950119055799" fill="#ffbc11" stroke="none" /><path d="M 106.40334571778207 80.00007090966166 l 4.493943213282136 -14.036185076195018 a35.7380465834996,35.7380465834996 0 0,0 0.5842612043626714,0.19262173309696415 l -4.734887239887225 13.956749618838817" fill="#ffb711" stroke="none" /><path d="M 108.09893153111575 80.62456947434976 l 11.963487272204508 -28.620777394714654 a52.02054039487398,52.02054039487398 0 0,0 0.823203357225792,0.35245271633397035 l -12.454374387220616 28.41060515041789" fill="#85ff25" stroke="none" /><path d="M 108.43124777332544 80.76684994638697 l 6.108323415593702 -13.93415351874716 a36.21421208060096,36.21421208060096 0 0,0 0.568766414753264,0.25518891115674147 l -6.347271948813746 13.826944277073887" fill="#ffbe11" stroke="none" /><path d="M 110.36928655335952 81.73862282372117 l 7.541248347264032 -13.280911829441182 a36.27262405929326,36.27262405929326 0 0,0 0.540295015609699,0.31297374667131445 l -7.7687400953390595 13.149133925379818" fill="#ffbe11" stroke="none" /><line stroke="#e1ed5e" stroke-width="0.3" x1="143.23703022742887" x2="145.7803849466894" y1="26.81831364943548" y2="22.513508569990506" /><path d="M 143.74570117128098 25.957352633546492 a86.0,86.0 0 0,1 28.547481713284135,27.462654790039103" fill="none" id="id26" stroke="none" /><text fill="#e1ed5e" style="font-size:6.75px; font-family:Arial;" text-anchor="middle"><textPath startOffset="19.985693538727396" xlink:href="#id26">February</textPath></text><path d="M 110.68208982089419 81.91981866633111 l 7.5413443158839435 -12.764250724059263 a35.825585001522285,35.825585001522285 0 0,0 0.5282361960197979,0.31825639762678987 l -7.759942578121379 12.632547716973859" fill="#ffb811" stroke="none" /><path d="M 110.99172775467656 82.1063720568725 l 7.960092480321983 -12.95837528137175 a36.2079769275254,36.2079769275254 0 0,0 0.5282586029495604,0.33079548870447734 l -8.181970235643806 12.819435451344328" fill="#ffbd11" stroke="none" /><path d="M 111.2981086023043 82.29822771554956 l 16.816908285617732 -26.34857669360499 a52.25789337216541,52.25789337216541 0 0,0 0.7540888026102495,0.4904803335624035 l -17.267964114012262 26.05519743588306" fill="#82ff25" stroke="none" /><path d="M 111.60114157652 82.49532879139004 l 8.458900471380446 -12.763422509863648 a36.312019832471954,36.312019832471954 0 0,0 0.5180433656392928,0.34978519297540556 l -8.677348531426281 12.615925404589573" fill="#ffbf11" stroke="none" /><path d="M 111.90073688211348 82.69761687909136 l 8.723311712303564 -12.682750893874163 a36.393126305792414,36.393126305792414 0 0,0 0.513089115825915,0.3594517150013279 l -8.94033196771313 12.530714336108899" fill="#ffc011" stroke="none" /><path d="M 112.48926042617603 83.11751280151076 l 9.202702539235448 -12.43984851853366 a36.47383485725871,36.47383485725871 0 0,0 0.5015219096292863,0.3777359046931966 l -9.415470602623119 12.279596024334616" fill="#ffc111" stroke="none" /><path d="M 112.77801427241765 83.33499621200491 l 9.512210760282043 -12.40576391391956 a36.63282226074148,36.63282226074148 0 0,0 0.49710294080677336,0.3879967302158787 l -9.724346256248246 12.240188794480458" fill="#ffc312" stroke="none" /><path d="M 114.42810811169701 84.74124197986012 l 13.187025098979323 -13.946223817640202 a40.19361325370566,40.19361325370566 0 0,0 0.49862427392153874,0.4796761564530258 l -13.42513261651328 13.717164574424874" fill="#fff016" stroke="none" /><path d="M 114.94478906791727 85.2469230424477 l 23.07650840965641 -22.780482409760065 a53.426464796556694,53.426464796556694 0 0,0 0.6404452596810059,0.6600351368289611 l -23.465217933040524 22.37988307738099" fill="#76ff27" stroke="none" /><path d="M 115.4437574822437 85.77008943001954 l 14.155968740362301 -13.043339319359042 a40.248900009560344,40.248900009560344 0 0,0 0.46507864502519625,0.5135514558584913 l -14.378391026003532 12.797735076231001" fill="#fff116" stroke="none" /><path d="M 115.68641384162765 86.03803664274999 l 18.723374097386372 -16.66506224501518 a46.065694429257476,46.065694429257476 0 0,0 0.5220957182904701,0.5968456593766422 l -19.00746167925469 16.34030102943559" fill="#c8ff1d" stroke="none" /><path d="M 115.9244219780498 86.31012108654704 l 14.57005556998109 -12.525559595837164 a40.21395749191731,40.21395749191731 0 0,0 0.4467375939306922,0.5287964029232621 l -14.783503777398899 12.272904243284794" fill="#fff016" stroke="none" /><path d="M 116.15771136456269 86.58626213691792 l 23.719667743118997 -19.691489600650687 a51.82819165206571,51.82819165206571 0 0,0 0.5639438069261854,0.6913284258251848 l -24.05511004212159 19.280277005217403" fill="#87ff25" stroke="none" /><path d="M 117.04232023915458 87.72973835380427 l 14.68544530045226 -10.57334058383964 a39.09579605252131,39.09579605252131 0 0,0 0.38851425023249375,0.5495258544351038 l -14.865272170488637 10.318988229072742" fill="#ffe215" stroke="none" /><line stroke="#e1ed5e" stroke-width="0.3" x1="172.23445277983987" x2="176.4835382374775" y1="55.19839476539836" y2="52.563006222186495" /><path d="M 173.08426987136738 54.67131705675599 a86.0,86.0 0 0,1 12.851231095245387,41.99856678651699" fill="none" id="id27" stroke="none" /><text fill="#e1ed5e" style="font-size:6.75px; font-family:Arial;" text-anchor="middle"><textPath startOffset="22.20632615414155" xlink:href="#id27">March</textPath></text><path d="M 118.56541770881063 90.18545643968196 l 12.959986158975113 -6.851251649351059 a35.65949829985877,35.65949829985877 0 0,0 0.28220343979425694,0.5451272221316915 l -13.075999031929486 6.627151704959022" fill="#ffb610" stroke="none" /><path d="M 118.73160827565052 90.50648371742162 l 27.54244461839371 -13.959006754728522 a51.87782578381841,51.87782578381841 0 0,0 0.3968406315199019,0.8000064976005496 l -27.77864526286702 13.482840668629022" fill="#86ff25" stroke="none" /><path d="M 119.04729006885535 91.15688171328212 l 17.442388915625475 -8.098008053965772 a40.23056591798663,40.23056591798663 0 0,0 0.2862073016857401,0.6306198510490387 l -17.579198534274564 7.796566194074671" fill="#fff016" stroke="none" /><path d="M 119.196687751892 91.48605970444005 l 13.80364006247772 -6.122064851617522 a36.10033632148141,36.10033632148141 0 0,0 0.2470454146285992,0.5702148780260341 l -13.906976186949 5.883550829004886" fill="#ffbc11" stroke="none" /><path d="M 119.34039704204932 91.81776055985345 l 29.912174432683887 -12.654785362033886 a53.47894351499837,53.47894351499837 0 0,0 0.3513778292051337,0.8508892844596366 l -30.12557394877522 12.138021507120946" fill="#75ff27" stroke="none" /><path d="M 119.47837535516314 92.15188598940014 l 15.3040476278833 -6.16621809659507 a37.499579370738424,37.499579370738424 0 0,0 0.23608029854927357,0.6007986092987837 l -15.407921476314273 5.901870482400502" fill="#ffce13" stroke="none" /><path d="M 119.61058180528143 92.48833698450437 l 14.5678326030621 -5.580081736834665 a36.59996983781042,36.59996983781042 0 0,0 0.22028896421324534,0.5902649033090788 l -14.661726155776972 5.328493696496253" fill="#ffc212" stroke="none" /><path d="M 119.7369772167798 92.82701384747503 l 15.893214908406692 -5.776052188993944 a37.910264900786814,37.910264900786814 0 0,0 0.2176174114035172,0.6152337267135214 l -15.990285400620019 5.5016208358538075" fill="#ffd313" stroke="none" /><path d="M 119.97218684219823 93.5106431181261 l 11.466623786078951 -3.725731917389792 a33.056721750613995,33.056721750613995 0 0,0 0.1711779626180731,0.5426809200958259 l -11.529057232465231 3.5278008308675464" fill="#ff940d" stroke="none" /><path d="M 120.37134235888165 94.90015583598534 l 14.178647419103147 -3.5495398889317062 a35.61619909752045,35.61619909752045 0 0,0 0.14376597442142564,0.596002778810839 l -14.237646193785393 3.3049518784614613" fill="#ffb610" stroke="none" /><path d="M 120.45610955862082 95.25157060432595 l 19.376002023820625 -4.4977065319722955 a40.891174386517434,40.891174386517434 0 0,0 0.15325547363321115,0.6870142379191768 l -19.450551884455873 4.163514124503155" fill="#fff917" stroke="none" /><path d="M 120.67395015179393 96.31383870115 l 14.765285792254925 -2.632647590530586 a35.99814981465686,35.99814981465686 0 0,0 0.10351720266777412,0.6109643899180616 l -14.808414856442923 2.378097412296687" fill="#ffbb11" stroke="none" /><path d="M 120.73433829027371 96.67025291283417 l 32.6506629258603 -5.243400982919987 a54.06900426934314,54.06900426934314 0 0,0 0.13966308710558087,0.9202052437114066 l -32.73608190640518 4.680596626816498" fill="#6fff28" stroke="none" /><path d="M 120.78858239683441 97.02765380044208 l 30.861507468274 -4.41257045261156 a52.1753656147541,52.1753656147541 0 0,0 0.1194666823513132,0.890165547420781 l -30.932890149683146 3.880686563126115" fill="#83ff25" stroke="none" /><path d="M 120.83666639777658 97.38593545837742 l 14.656802457783677 -1.8387695453312678 a35.77169359712458,35.77169359712458 0 0,0 0.07138947862472714,0.6116214560367788 l -14.686282289411992 1.5862043509696362" fill="#ffb811" stroke="none" /><path d="M 120.87857604477298 97.74499172005257 l 23.464193719368016 -2.534270105681465 a44.60065490338309,44.60065490338309 0 0,0 0.07586969474304026,0.7639974721597201 l -23.504340539793283 2.12999710281731" fill="#d9ff1c" stroke="none" /><path d="M 120.94382443527127 98.46500227214037 l 15.176192991803868 -1.1122811801624284 a36.21689860478213,36.21689860478213 0 0,0 0.040216984338882274,0.6221389472639071 l -15.193090567147165 0.850883168645486" fill="#ffbe11" stroke="none" /><path d="M 120.96714384426684 98.82574320788733 l 2.5423712662716036 -0.1423845207370878 a23.54635523981023,23.54635523981023 0 0,0 0.019180627495497947,0.40487273126689555 l -2.544445502000598 0.09860068284719249" fill="#ff0f01" stroke="none" /><path d="M 120.98425023603335 99.18683210126433 l 32.43381417302192 -1.256853889102538 a53.45815742627221,53.45815742627221 0 0,0 0.027717559614070415,0.9198108638936251 l -32.450643427091634 0.6983728777839138" fill="#75ff27" stroke="none" /><line stroke="#e1ed5e" stroke-width="0.3" x1="184.98032266829074" x2="189.97916517819016" y1="98.17113171792111" y2="98.06355123074" /><path d="M 185.9800911702706 98.14961562048488 a86.0,86.0 0 0,1 -9.607161424134198,41.387399972396054" fill="none" id="id28" stroke="none" /><text fill="#e1ed5e" style="font-size:6.75px; font-family:Arial;" text-anchor="middle"><textPath startOffset="21.466115282336823" xlink:href="#id28">April</textPath></text><path d="M 120.99513854157772 99.54816195383933 l 14.781624436379944 -0.31811651498217713 a35.785047145521354,35.785047145521354 0 0,0 0.007952788586683884,0.6159522403191859 l -14.784910232084345 0.06362801660252845" fill="#ffb811" stroke="none" /><path d="M 120.99980553446 99.90962569577887 l 9.774993284617105 -0.04206744750154213 a30.775083804471898,30.775083804471898 0 0,0 -0.0022798514900185165,0.5297571953716133 l -9.774269135837583 -0.12619922607375583" fill="#ff750a" stroke="none" /><path d="M 120.8583938346157 102.4346265915055 l 1.5074316373245542 0.17594994025937016 a22.51766548444783,22.51766548444783 0 0,0 -0.048250522004023466,0.3846041344841411 l -1.5041796060736825 -0.20187182903090617" fill="#ff0000" stroke="none" /><path d="M 120.81339534386255 102.79330883721812 l 20.942780662046065 2.8106732867333086 a42.13054533568234,42.13054533568234 0 0,0 -0.10264996825182318,0.7179336388718367 l -20.89129664277764 -3.1707523975855545" fill="#f6ff19" stroke="none" /><path d="M 120.76222939487914 103.15116336523771 l 15.153615819862498 2.2999225234557317 a36.327156162507315,36.327156162507315 0 0,0 -0.09915280287040139,0.6174245981227309 l -15.111781262630808 -2.560426351271668" fill="#ffbf11" stroke="none" /><path d="M 120.70491114924044 103.5080841355445 l 15.08305511465323 2.555559209207204 a36.298020606059815,36.298020606059815 0 0,0 -0.10967802588094917,0.6151326151998071 l -15.036830646433092 -2.8148105751402297" fill="#ffbf11" stroke="none" /><path d="M 120.5718875245553 104.21870165774334 l 3.878665960436564 0.7954026823058913 a24.95938316656379,24.95938316656379 0 0,0 -0.0899321771496668,0.4201331916798571 l -3.864399744562454 -0.8620496934019174" fill="#ff2403" stroke="none" /><line stroke="#e1ed5e" stroke-width="0.3" x1="174.80103733775053" x2="179.2010983576182" y1="140.37084112569926" y2="142.7455964860345" /><path d="M 175.68104954172406 140.8457921977663 a86.0,86.0 0 0,1 -30.038265399797805,32.042727171017184" fill="none" id="id29" stroke="none" /><text fill="#e1ed5e" style="font-size:6.75px; font-family:Arial;" text-anchor="middle"><textPath startOffset="22.206326154141568" xlink:href="#id29">May</textPath></text><path d="M 118.30583269289576 110.29060199501025 l 16.754822291045368 9.418703349189153 a40.22071910165012,40.22071910165012 0 0,0 -0.34445790684512534,0.6005913950278502 l -16.590212388047863 -9.705714590075319" fill="#fff016" stroke="none" /><path d="M 118.12598468904814 110.60418214915192 l 14.018729459400808 8.20132882364113 a37.24150763104703,37.24150763104703 0 0,0 -0.32846854433811046,0.5505321737860436 l -13.87548003936447 -8.441423091313277" fill="#ffcb12" stroke="none" /><path d="M 117.75023020441432 111.22182372390056 l 26.09738345039882 16.498954287510212 a51.87537717240879,51.87537717240879 0 0,0 -0.48366412194470587,0.7506574580296554 l -25.80951446507706 -16.94573334546132" fill="#86ff25" stroke="none" /><path d="M 117.55443506779139 111.5257021239791 l 16.049143466684015 10.537373958641341 a40.199251442659396,40.199251442659396 0 0,0 -0.38475831927562526,0.5751614826227672 l -15.86538204199767 -10.812072355469915" fill="#fff016" stroke="none" /><path d="M 116.27256486870786 113.27417163493432 l 23.921976797406995 19.514098018213154 a51.87168598182012,51.87168598182012 0 0,0 -0.5703514183556323,0.687025025255843 l -23.58252937915782 -19.922984300582765" fill="#86ff25" stroke="none" /><path d="M 116.0416608686014 113.55231037782055 l 13.052152947443268 11.026715331500364 a38.086460943255545,38.086460943255545 0 0,0 -0.4273980859627692,0.4971605312588751 l -12.86041235190972 -11.249752961920768" fill="#ffd513" stroke="none" /><path d="M 113.75828350139079 115.86535959552629 l 4.796540083565997 5.531128445815032 a28.32121428844693,28.32121428844693 0 0,0 -0.3710544664767222,0.3162206661861993 l -4.700620140512227 -5.612873502224178" fill="#ff5307" stroke="none" /><path d="M 113.20401910651253 116.32954008644616 l 9.729463226192987 12.032522710707076 a36.473980013348964,36.473980013348964 0 0,0 -0.49160413112169116,0.3905600536312878 l -9.520901602353945 -12.19821667834349" fill="#ffc111" stroke="none" /><path d="M 112.92097659922987 116.55440617244103 l 5.874717613274413 7.526711372910812 a30.54796790562377,30.54796790562377 0 0,0 -0.4173016378583922,0.31996910125511135 l -5.744287246922528 -7.626719815993295" fill="#ff720a" stroke="none" /><path d="M 112.63410532772338 116.77436683061366 l 18.661714559862123 24.77725470820812 a52.01889651791616,52.01889651791616 0 0,0 -0.719879673826088,0.532549772804164 l -18.232449915617472 -25.094814429752052" fill="#85ff25" stroke="none" /><path d="M 112.34349029814194 116.9893568818739 l 5.615053040267202 7.728457487110471 a30.552898815285747,30.552898815285747 0 0,0 -0.4281372941112755,0.3054645915981999 l -5.481188418307042 -7.823966340552889" fill="#ff720a" stroke="none" /><path d="M 112.04921762599082 117.19931262002967 l 11.0240956637306 15.736031463538655 a40.21336439628839,40.21336439628839 0 0,0 -0.5703463681707505,0.39228943272368894 l -10.751592410936967 -15.923461685627439" fill="#fff016" stroke="none" /><path d="M 111.7513745106137 117.40417183066458 l 13.474446680259975 19.956098338501967 a45.079173038855174,45.079173038855174 0 0,0 -0.6468331141183963,0.4286857173060125 l -13.128938867401613 -20.185082076899295" fill="#d3ff1c" stroke="none" /><path d="M 111.45004920935366 117.60387380957326 l 6.47416330445565 9.953699914329055 a32.873960269315134,32.873960269315134 0 0,0 -0.47701399680221485,0.3044529018952937 l -6.301867505606505 -10.063667245048158" fill="#ff920d" stroke="none" /><line stroke="#e1ed5e" stroke-width="0.3" x1="143.8653032363475" x2="146.44561519142675" y1="172.8068346515853" y2="177.08958963109032" /><path d="M 144.38136562736335 173.6633856474863 a86.0,86.0 0 0,1 -40.68145358897372,12.25698825130547" fill="none" id="id30" stroke="none" /><text fill="#e1ed5e" style="font-size:6.75px; font-family:Arial;" text-anchor="middle"><textPath startOffset="21.466115282336833" xlink:href="#id30">June</textPath></text><path d="M 109.89434966115114 118.52300852407294 l 11.470621465763125 21.473914553574087 a45.345516282572994,45.345516282572994 0 0,0 -0.6916467330924311,0.36183688151059823 l -11.0992838301442 -21.6681808540294" fill="#d0ff1d" stroke="none" /><path d="M 109.2508944713604 118.85261126421891 l 6.531970142220337 13.31165264742833 a35.82790376771591,35.82790376771591 0 0,0 -0.5559933319050165,0.2669105869735454 l -6.301864142315088 -13.422117510901437" fill="#ffb911" stroke="none" /><path d="M 108.92500713936063 119.00905698771935 l 6.586885983213442 14.029175447302103 a36.49854285689587,36.49854285689587 0 0,0 -0.570997116016416,0.26211677032313374 l -6.344420871429606 -14.14047928795931" fill="#ffc112" stroke="none" /><path d="M 106.91757812671514 119.82793768551818 l 4.917178850081598 14.094169092422419 a35.92729882629423,35.92729882629423 0 0,0 -0.5856667524785408,0.19868996069068487 l -4.67384236466583 -14.176722040011228" fill="#ffba11" stroke="none" /><path d="M 106.57524785965236 119.94407469862006 l 2.2954709632589436 6.962634008168047 a28.331265871243737,28.331265871243737 0 0,0 -0.46446905266774957,0.14870832321496216 l -2.1752805655002536 -7.001115178042715" fill="#ff5307" stroke="none" /><path d="M 106.2309692047433 120.05430185196036 l 2.250138602314394 7.242044898121116 a28.583557083323594,28.583557083323594 0 0,0 -0.4711183060025748,0.1419440809561821 l -2.1251453218715737 -7.2797043481830235" fill="#ff5708" stroke="none" /><path d="M 105.53697534728816 120.25689768951611 l 2.510859170640083 9.185920857919335 a30.522896396724313,30.522896396724313 0 0,0 -0.5080020954156979,0.1341679705584819 l -2.352366632412888 -9.227780177781401" fill="#ff720a" stroke="none" /><path d="M 105.18746579009965 120.34920634021253 l 3.6465114507114733 14.304405452483955 a35.76187864430617,35.76187864430617 0 0,0 -0.5978138109283613,0.14692808998843337 l -3.3997443550399007 -14.36505480078642" fill="#ffb811" stroke="none" /><path d="M 104.83641907484287 120.43548508189849 l 1.6915997419580588 7.1475735986444455 a28.345019947898827,28.345019947898827 0 0,0 -0.4757642093662725,0.10828238509648273 l -1.5683153831989243 -7.175632717318613" fill="#ff5407" stroke="none" /><path d="M 104.48393922423573 120.51570834832081 l 3.153497601770733 14.42843755003944 a35.76903372803251,35.76903372803251 0 0,0 -0.6026375975904033,0.12628856791067813 l -2.9046685427509518 -14.48058209867666" fill="#ffb811" stroke="none" /><path d="M 104.13013068566511 120.58985236759428 l 2.902036742836582 14.46746184272786 a35.75565211800414,35.75565211800414 0 0,0 -0.6044959268571096,0.11585308309459673 l -2.652573201407768 -14.515272124170924" fill="#ffb811" stroke="none" /><path d="M 103.7750983002368 120.6578951692458 l 2.654514316079906 14.525894190199242 a35.76645009063239,35.76645009063239 0 0,0 -0.6065837136463008,0.10546235385092595 l -2.404081630961555 -14.569435122571175" fill="#ffb811" stroke="none" /><path d="M 103.41894727170886 120.7198165907248 l 2.3738255437246294 14.386074418681543 a35.580609894372834,35.580609894372834 0 0,0 -0.6051484669145678,0.0945117450252587 l -2.1258412132015443 -14.424804471053907" fill="#ffb510" stroke="none" /><path d="M 103.06178313531738 120.77559828337769 l 1.0695399510616554 7.25731751376215 a28.33570536502631,28.33570536502631 0 0,0 -0.48315266379856464,0.06696055670538205 l -0.9444586960762603 -7.274652635960134" fill="#ff5407" stroke="none" /><path d="M 102.70371172650421 120.8252237178851 l 0.2847263285126037 2.1930923446907604 a23.211497934543345,23.211497934543345 0 0,0 -0.39666524183843493,0.04803063667800905 l -0.24693366362278846 -2.19766851009412" fill="#ff0a01" stroke="none" /><path d="M 102.34483914955558 120.86867818915974 l 1.6495931739377383 14.681104713074124 a35.77348954159948,35.77348954159948 0 0,0 -0.6125228926109312,0.06349050227413021 l -1.3966376847212043 -14.707324583804013" fill="#ffb811" stroke="none" /><path d="M 101.98527174616119 120.90594882070398 l 1.3958328103382622 14.698848835992953 a35.7649756632982,35.7649756632982 0 0,0 -0.613379010046301,0.05292492195106655 l -1.1426094825504196 -14.720698010222684" fill="#ffb811" stroke="none" /><path d="M 101.62511606390274 120.93702456842531 l 1.143130356496924 14.727408638993914 a35.7717064766349,35.7717064766349 0 0,0 -0.6143147364742888,0.04236674093102066 l -0.8894528592437048 -14.74490372444122" fill="#ffb811" stroke="none" /><path d="M 101.26447882468166 120.96189622390904 l 0.8887210260635656 14.732771760761123 a35.759552459910424,35.759552459910424 0 0,0 -0.6147440526772271,0.031775245666624145 l -0.6349889049728589 -14.745886813189948" fill="#ffb811" stroke="none" /><path d="M 100.90346689309514 120.98055641714683 l 0.634012946435182 14.723222835885391 a35.736867478924566,35.736867478924566 0 0,0 -0.6148096626207344,0.021175287888582476 l -0.3804829321397953 -14.731954922200067" fill="#ffb711" stroke="none" /><line stroke="#e1ed5e" stroke-width="0.3" x1="102.19456741930631" x2="102.32365962044197" y1="184.97166512339345" y2="189.96999836594603" /><path d="M 102.22038585953345 185.97133177190398 a86.0,86.0 0 0,1 -42.740103519485714,-10.115201625700543" fill="none" id="id31" stroke="none" /><text fill="#e1ed5e" style="font-size:6.75px; font-family:Arial;" text-anchor="middle"><textPath startOffset="22.20632615414155" xlink:href="#id31">July</textPath></text><path d="M 100.54218724476979 120.99299961872073 l 0.3048939953423372 11.805219672199318 a32.809156272032205,32.809156272032205 0 0,0 -0.5646929341582495,0.009721700969253417 l -0.1016413712914198 -11.80871885044773" fill="#ff910d" stroke="none" /><path d="M 99.81925306533755 120.99922214144158 l -0.10167820435189556 11.812998124232896 a32.813435704331326,32.813435704331326 0 0,0 -0.5647665893647865,-0.009722969010430254 l 0.30500448360934995 -11.809497677943307" fill="#ff910d" stroke="none" /><path d="M 99.45781275523022 120.99299961872073 l -0.3050240826591762 11.810256535421969 a32.81419481486061,32.81419481486061 0 0,0 -0.5645286077520283,-0.019443506693654227 l 0.5082730420858474 -11.803256230302221" fill="#ff910d" stroke="none" /><path d="M 99.09653310690486 120.98055641714683 l -0.5093209306201418 11.827590585750848 a32.83855172200172,32.83855172200172 0 0,0 -0.5645289994125423,-0.029179700989618085 l 0.7128379984461731 -11.817071077999028" fill="#ff910d" stroke="none" /><path d="M 98.73552117531835 120.96189622390904 l -0.7106414600215054 11.780657964856301 a32.80207241842015,32.80207241842015 0 0,0 -0.5633166113194594,-0.03884961163537194 l 0.9133208321198949 -11.766680008704645" fill="#ff910d" stroke="none" /><path d="M 93.42475214034765 119.94407469862007 l -5.542168761304717 16.810534009840975 a38.700556157217264,38.700556157217264 0 0,0 -0.6308748440370513,-0.21402699988003174 l 5.830713338278994 -16.712644023062822" fill="#ffdd14" stroke="none" /><path d="M 93.08242187328487 119.8279376855182 l -3.8944554714458826 11.162724727118114 a32.822571917839575,32.822571917839575 0 0,0 -0.5318513901649927,-0.19070298614706832 l 4.086026422240602 -11.094034199931087" fill="#ff910d" stroke="none" /><path d="M 91.7346041902142 119.30500536409082 l -4.650432602716197 10.861745572364267 a32.81541536600303,32.81541536600303 0 0,0 -0.5173574085810575,-0.22679428418918793 l 4.836710685954999 -10.780086734880626" fill="#ff910d" stroke="none" /><path d="M 90.10565033884886 118.52300852407294 l -7.639201289548372 14.301191634554668 a37.21362015437928,37.21362015437928 0 0,0 -0.5624168630850181,-0.30667451664650097 l 7.884240964502031 -14.1675764661484" fill="#ffca12" stroke="none" /><line stroke="#e1ed5e" stroke-width="0.3" x1="58.666819895761336" x2="56.23545636021788" y1="174.27360380694188" y2="178.64263932499728" /><path d="M 58.180547188652646 175.14741091055294 a86.0,86.0 0 0,1 -31.652253787137756,-30.449443065178592" fill="none" id="id32" stroke="none" /><text fill="#e1ed5e" style="font-size:6.75px; font-family:Arial;" text-anchor="middle"><textPath startOffset="22.20632615414155" xlink:href="#id32">August</textPath></text><path d="M 89.4739219176387 118.17145234162733 l -5.867754762589686 10.129663221806181 a32.706435108140596,32.706435108140596 0 0,0 -0.4847282585608888,-0.2863859991841299 l 6.041250892178957 -10.027158650328301" fill="#ff8f0d" stroke="none" /><path d="M 88.54995079064634 117.60387380957326 l -6.447137784168654 9.912149538424844 a32.82439402591739,32.82439402591739 0 0,0 -0.4709914485017979,-0.3121474496882861 l 6.616803931410414 -9.799704067645239" fill="#ff910d" stroke="none" /><path d="M 88.24862548938628 117.40417183066458 l -6.615224995779265 9.797365612087614 a32.82157242847582,32.82157242847582 0 0,0 -0.46550854207965175,-0.32018101997589127 l 6.782890422481806 -9.682043802746621" fill="#ff910d" stroke="none" /><path d="M 87.95078237400918 117.19931262002967 l -6.784073183444607 9.683732101205942 a32.823633805487155,32.823633805487155 0 0,0 -0.4599570680785864,-0.3281671554564807 l 6.94975757937208 -9.565520683905241" fill="#ff910d" stroke="none" /><path d="M 87.65650970185807 116.9893568818739 l -7.3605721323927975 10.130958407349404 a33.522553268706865,33.522553268706865 0 0,0 -0.46391227665859525,-0.3431912116958662 l 7.533869379469957 -10.00275724691377" fill="#ff9a0e" stroke="none" /><path d="M 87.36589467227662 116.77436683061367 l -7.1164369327975265 9.448530033680168 a32.82871059819458,32.82871059819458 0 0,0 -0.4484578072011156,-0.3438583233398943 l 7.278023468492129 -9.324632368512907" fill="#ff910d" stroke="none" /><path d="M 86.79598089348748 116.32954008644616 l -8.173969019933821 10.108827751585455 a34.00008338627342,34.00008338627342 0 0,0 -0.45192566214668384,-0.37190405300428 l 8.346764810625194 -9.966628579723993" fill="#ffa10e" stroke="none" /><path d="M 86.51685102203217 116.09983520530335 l -7.5920332757708575 9.065425651887484 a32.82458927448694,32.82458927448694 0 0,0 -0.43005608221856306,-0.36650312313411865 l 7.746954834566477 -8.933398138530412" fill="#ff910d" stroke="none" /><path d="M 86.24171649860922 115.8653595955263 l -8.523272580637611 9.828608663924948 a34.00952434766273,34.00952434766273 0 0,0 -0.4389781737354085,-0.38734719920442007 l 8.691193107279606 -9.68043832294824" fill="#ffa10e" stroke="none" /><path d="M 85.97065885151581 115.62618273729859 l -8.885046952099803 9.896356916090127 a34.299696972174324,34.299696972174324 0 0,0 -0.43593355119160426,-0.3982149631287914 l 9.05408005275826 -9.74194918637476" fill="#ffa50f" stroke="none" /><path d="M 85.70375840098266 115.38237550388516 l -9.047273508267395 9.734625525640766 a34.28969871960436,34.28969871960436 0 0,0 -0.4288892906273882,-0.40554159420795854 l 9.2134986332856 -9.577449294686875" fill="#ffa40f" stroke="none" /><path d="M 85.44109423537348 115.13401014063109 l -10.23748293173475 10.641882914020355 a35.766710152680545,35.766710152680545 0 0,0 -0.4400157748241039,-0.43064804670969326 l 10.419148658934647 -10.464084764388092" fill="#ffb811" stroke="none" /><path d="M 85.18274418774928 114.88116024355367 l -13.551739061041326 13.610185522979684 a40.20642552763213,40.20642552763213 0 0,0 -0.48622850932136696,-0.492546912859135 l 13.784008195418226 -13.374898116139883" fill="#fff016" stroke="none" /><path d="M 84.67929136418377 114.36230785411682 l -4.816583330457163 4.515277605065397 a27.60206080175296,27.60206080175296 0 0,0 -0.32196304476712745,-0.3494272966210966 l 4.893592783220019 -4.431699053642957" fill="#ff4906" stroke="none" /><path d="M 84.43433777217949 114.09645910891817 l -4.521478285229471 4.094707493117887 a27.100032404667814,27.100032404667814 0 0,0 -0.31015490298596055,-0.3484623214342815 l 4.59129203786377 -4.016271001942741" fill="#ff4206" stroke="none" /><path d="M 83.95833913139862 113.55231037782056 l -11.276581437758855 9.526677623786606 a35.762075581366055,35.762075581366055 0 0,0 -0.3932193478022432,-0.4736580354858959 l 11.438896785454634 -9.331158331186948" fill="#ffb811" stroke="none" /><path d="M 83.72743513129214 113.27417163493432 l -4.62308643908569 3.7712335683215374 a26.966165506428162,26.966165506428162 0 0,0 -0.2903127143603556,-0.362209748785019 l 4.687317065500907 -3.691095985958259" fill="#ff4006" stroke="none" /><path d="M 83.50135304334701 112.99209946851258 l -5.079874266995848 4.000220862822577 a27.465824736245764,27.465824736245764 0 0,0 -0.28929777100670984,-0.3739563667581539 l 5.147978855220626 -3.9121865019511706" fill="#ff4706" stroke="none" /><path d="M 83.06392112726016 112.41649034213515 l -11.883985637805832 8.71260661967015 a35.735624477730674,35.735624477730674 0 0,0 -0.3594326677035046,-0.49922053857066195 l 12.032198097884944 -8.50675247564835" fill="#ffb711" stroke="none" /><path d="M 82.85270091963577 112.12312394758628 l -6.591694750025062 4.660321844547321 a29.07273431820179,29.07273431820179 0 0,0 -0.28538224184144834,-0.41111440418597744 l 6.670937899028644 -4.546166178174331" fill="#ff5e08" stroke="none" /><path d="M 82.6465618267979 111.8261652097733 l -10.346908702948651 7.051297299717348 a33.52115463190818,33.52115463190818 0 0,0 -0.3208403801933455,-0.47961283619461775 l 10.466752188552729 -6.872147549316909" fill="#ff9a0e" stroke="none" /><path d="M 82.44556493220864 111.52570212397912 l -6.0777780487387645 3.990482125736419 a28.27071754406349,28.27071754406349 0 0,0 -0.26358423828423155,-0.40908859125536456 l 6.1455671504000415 -3.885271934559606" fill="#ff5307" stroke="none" /><path d="M 82.24976979558568 111.22182372390057 l -6.8156319925428495 4.30889176683873 a29.063460033763683,29.063460033763683 0 0,0 -0.2636960395251965,-0.42516197836148695 l 6.8887926717360015 -4.19093345711198" fill="#ff5e08" stroke="none" /><path d="M 82.05923443525364 110.91462005526583 l -13.326273723686324 8.107302551922348 a36.59865141693407,36.59865141693407 0 0,0 -0.3227985793366759,-0.5410289863078631 l 13.463853178721232 -7.876711471728375" fill="#ffc212" stroke="none" /><line stroke="#e1ed5e" stroke-width="0.3" x1="26.63291911575756" x2="22.317208475507996" y1="142.92168965132927" y2="145.44649492493687" /><path d="M 25.769776987707644 143.4266507060508 a86.0,86.0 0 0,1 -11.730757126820373,-40.83630448921669" fill="none" id="id33" stroke="none" /><text fill="#e1ed5e" style="font-size:6.75px; font-family:Arial;" text-anchor="middle"><textPath startOffset="21.46611528233685" xlink:href="#id33">September</textPath></text><path d="M 81.69416730710424 110.29060199501025 l -11.323442396954233 6.36545962564722 a33.98997397852996,33.98997397852996 0 0,0 -0.2823168239992722,-0.5124870400234973 l 11.431335630405021 -6.1696020672259" fill="#ffa00e" stroke="none" /><path d="M 81.51974371655577 109.97397251340807 l -12.933241814935432 6.980195317258037 a35.69666188325313,35.69666188325313 0 0,0 -0.28718388047237764,-0.5432436737826241 l 13.051478203632696 -6.756536628389287" fill="#ffb711" stroke="none" /><path d="M 81.35079622478065 109.6543875284942 l -11.82038806254084 6.119221413870453 a34.31038859917428,34.31038859917428 0 0,0 -0.2670023497631986,-0.5268209666022838 l 11.923969082090306 -5.914846235565484" fill="#ffa50f" stroke="none" /><path d="M 81.18737489456691 109.33194174019688 l -11.888546649001094 5.897275052382279 a34.27084754146944,34.27084754146944 0 0,0 -0.257597222736877,-0.5307265766150396 l 11.988297128352691 -5.691759519801955" fill="#ffa40f" stroke="none" /><path d="M 80.73074385275274 108.34839909993369 l -15.194772037670406 6.5831301547728325 a37.559550111988244,37.559550111988244 0 0,0 -0.251915513339616,-0.5954538588952077 l 15.30583853220233 -6.320601770211465" fill="#ffcf13" stroke="none" /><path d="M 80.58989483394504 108.01547362559985 l -9.122711521178866 3.7672569502531488 a30.869958988155943,30.869958988155943 0 0,0 -0.19859289320388201,-0.4928912744473981 l 9.186207028640137 -3.609666307962945" fill="#ff770a" stroke="none" /><path d="M 80.45479744820244 107.68017299344265 l -14.531654159716288 5.7101284845593625 a36.613280882882236,36.613280882882236 0 0,0 -0.2254431743336328,-0.5885609889037674 l 14.62779161364343 -5.459143928822438" fill="#ffc312" stroke="none" /><path d="M 80.20201598880116 107.00284435728193 l -9.032235934583236 3.1948375355974035 a30.580619648897393,30.580619648897393 0 0,0 -0.17126482219752395,-0.49777574059223484 l 9.085891587723989 -3.038889091915872" fill="#ff730a" stroke="none" /><path d="M 80.0844068197444 106.66101706037122 l -14.364725797819405 4.8044606425125655 a36.14688711623582,36.14688711623582 0 0,0 -0.19228035202497346,-0.5917780739495258 l 14.445298400860628 -4.556483668585237" fill="#ffbd11" stroke="none" /><path d="M 79.76711848015287 105.62410040840567 l -14.222265686927056 3.953339527038599 a35.76149500171268,35.76149500171268 0 0,0 -0.15975498280974612,-0.5945077213474068 l 14.288208746078576 -3.7079408725156533" fill="#ffb811" stroke="none" /><path d="M 79.67330655649465 105.27499134158121 l -12.820883743059808 3.32715455782448 a34.245565952601176,34.245565952601176 0 0,0 -0.14316062981908328,-0.5718555525551319 l 12.87625568717395 -3.1059711658719564" fill="#ffa40f" stroke="none" /><path d="M 79.50377843672027 104.57218783832718 l -14.557484400948695 3.2474060123306256 a35.91529409340579,35.91529409340579 0 0,0 -0.12940786914628402,-0.604550482553487 l 14.61122630881942 -2.9963417103609746" fill="#ffba11" stroke="none" /><path d="M 79.35854240842038 103.8639653848113 l -7.09459701698175 1.328068871647213 a28.2178302668603,28.2178302668603 0 0,0 -0.08526293904291457,-0.47819984223658946 l 7.116406398363853 -1.2057502786774101" fill="#ff5207" stroke="none" /><path d="M 79.23777060512086 103.15116336523772 l -30.99187051118037 4.703755320183012 a52.34679173207238,52.34679173207238 0 0,0 -0.12754158453371106,-0.89202554517243 l 31.06824614673068 -4.169584303030181" fill="#81ff25" stroke="none" /><path d="M 79.1416061653843 102.43462659150553 l -7.296235719558441 0.8516288282585668 a28.345769349529125,28.345769349529125 0 0,0 -0.05239607277765458,-0.4851225601536369 l 7.309814093837147 -0.7259099462201478" fill="#ff5407" stroke="none" /><path d="M 79.10278846688536 102.07522291339032 l -7.308811085060376 0.7258103412181796 a28.344761407188166,28.344761407188166 0 0,0 -0.04403615639711848,-0.48593531636847964 l 7.32022183773457 -0.5998936363011337" fill="#ff5407" stroke="none" /><path d="M 79.0235259727143 100.99374915477108 l -14.968729002797378 0.7091354712511725 a35.985517043991976,35.985517043991976 0 0,0 -0.023986689850602223,-0.6189898825835963 l 14.97871782549918 -0.45136834165357936" fill="#ffbb11" stroke="none" /><line stroke="#e1ed5e" stroke-width="0.3" x1="15.007084014347285" x2="10.007500721073583" y1="101.09737516637583" y2="101.16192664675087" /><path d="M 14.007167355692545 101.11028546245083 a86.0,86.0 0 0,1 10.666146001902534,-42.60595125391555" fill="none" id="id34" stroke="none" /><text fill="#e1ed5e" style="font-size:6.75px; font-family:Arial;" text-anchor="middle"><textPath startOffset="22.20632615414155" xlink:href="#id34">October</textPath></text><path d="M 79.00175016825051 100.2711162175752 l -20.649976799413192 0.266619534853214 a41.651697939701435,41.651697939701435 0 0,0 -0.0030856028276950134,-0.7169854296155034 l 20.65150669953039 0.08887537296596475" fill="#fcff18" stroke="none" /><path d="M 79.00019446554 99.90962569577889 l -14.810699227335357 -0.0637390015589559 a35.81083637958748,35.81083637958748 0 0,0 0.007958519928199417,-0.6163961390357081 l 14.807407700289444 0.31867139865513594" fill="#ffb811" stroke="none" /><path d="M 79.00486145842228 99.54816195383935 l -20.634560344118245 -0.4440780140986751 a41.63933831007339,41.63933831007339 0 0,0 0.021589611342135384,-0.7164540939476001 l 20.623859038320468 0.7992022554712696" fill="#fcff18" stroke="none" /><path d="M 79.01574976396665 99.18683210126434 l -17.528473365470973 -0.6792519005596007 a38.541629390351375,38.541629390351375 0 0,0 0.031395629127173676,-0.6627121097860994 l 17.5141841281103 0.9808751169687092" fill="#ffdb14" stroke="none" /><path d="M 79.05617556472873 98.46500227214037 l -14.714071257670366 -1.0784117302879888 a35.75353736687659,35.75353736687659 0 0,0 0.05026864981123479,-0.6134048535179661 l 14.693328124039633 1.3315305010137333" fill="#ffb811" stroke="none" /><path d="M 79.08570108090925 98.10471618934814 l -22.009840229475557 -1.9945633379028156 a43.10003053925371,43.10003053925371 0 0,0 0.07331699876408886,-0.738292172016947 l 21.97224610502924 2.3731310406241928" fill="#ebff1a" stroke="none" /><path d="M 79.16333360222342 97.38593545837743 l -14.802439346643931 -1.8570404251281545 a35.91847209842994,35.91847209842994 0 0,0 0.0822430402962892,-0.6128061778061786 l 14.768280307289807 2.1115649449989924" fill="#ffba11" stroke="none" /><path d="M 79.21141760316559 97.0276538004421 l -14.61023609405997 -2.088967823772133 a35.7588205928837,35.7588205928837 0 0,0 0.09236691784405988,-0.6085825818908844 l 14.572113282776607 2.3401495180551093" fill="#ffb811" stroke="none" /><path d="M 79.26566170972629 96.67025291283419 l -14.474460623819864 -2.3244673847666917 a35.65991674510315,35.65991674510315 0 0,0 0.1025445709800289,-0.6052238626394831 l 14.432304191319611 2.5732770357220027" fill="#ffb610" stroke="none" /><path d="M 79.32604984820605 96.31383870115002 l -14.331589095807875 -2.5553195537430144 a35.557613267044175,35.557613267044175 0 0,0 0.11262328123574017,-0.6016380717565937 l 14.285480090662274 2.801635702962181" fill="#ffb510" stroke="none" /><path d="M 79.3925641242962 95.95851677861259 l -10.498336480775615 -2.058909754490984 a31.69832595506055,31.69832595506055 0 0,0 0.10961689281773807,-0.5345308990264003 l 10.461340292042882 2.2393163096807864" fill="#ff820b" stroke="none" /><path d="M 79.46518482838121 95.60439243477599 l -16.13117775747788 -3.4529810175619584 a37.49660491589079,37.49660491589079 0 0,0 0.14053301310702837,-0.6299819420041232 l 16.069350357368812 3.7301411291160407" fill="#ffce13" stroke="none" /><path d="M 79.54389044137918 95.25157060432595 l -14.390384220287546 -3.3404066032614823 a35.772998148061,35.772998148061 0 0,0 0.1443988990136281,-0.5986266598595087 l 14.330752521013103 3.587618494780388" fill="#ffb811" stroke="none" /><path d="M 79.62865764111835 94.90015583598534 l -14.410951800513741 -3.6076959064852274 a35.85567236951598,35.85567236951598 0 0,0 0.15503936068611998,-0.5974299012591657 l 14.346716107957313 3.855222233293257" fill="#ffb911" stroke="none" /><path d="M 79.81627453868168 94.20196356495316 l -13.972771447170384 -4.013859488157376 a35.537861256234734,35.537861256234734 0 0,0 0.1739563126858703,-0.5864942080614132 l 13.901609237372808 4.253783082965328" fill="#ffb510" stroke="none" /><path d="M 80.02781315780177 93.51064311812611 l -16.065431427759776 -5.219975099358289 a37.892194262379654,37.892194262379654 0 0,0 0.20689626376429382,-0.618593494401724 l 15.97319787022371 5.495741696682336" fill="#ffd313" stroke="none" /><path d="M 80.14247586403 93.16781622104843 l -10.650122209578907 -3.6642832059981028 a32.26286262424991,32.26286262424991 0 0,0 0.18519946160046047,-0.5235838171722165 l 10.585469667168637 3.8470646495969305" fill="#ff890c" stroke="none" /><path d="M 80.2630227832202 92.82701384747504 l -6.946952452679418 -2.5247226663946494 a28.391506809981,28.391506809981 0 0,0 0.17088362791935197,-0.4578831648292597 l 6.902464236258439 2.6439289682532507" fill="#ff5407" stroke="none" /><path d="M 80.38941819471856 92.48833698450439 l -6.924428640288734 -2.652342242425837 a28.41502740152775,28.41502740152775 0 0,0 0.1788880906081171,-0.45525067834086486 l 6.877746999798926 2.7711419256624654" fill="#ff5507" stroke="none" /><path d="M 80.52162464483688 92.15188598940014 l -6.887549666586625 -2.7750915593025933 a28.425595839541096,28.425595839541096 0 0,0 0.18676741729497806,-0.45227211523843985 l 6.838760562405447 2.893238244994344" fill="#ff5507" stroke="none" /><path d="M 80.65960295795068 91.81776055985345 l -6.866843295054856 -2.905119058101309 a28.456088356543482,28.456088356543482 0 0,0 0.1947335361129915,-0.4494718499802279 l 6.815819049099185 3.0228900526681364" fill="#ff5507" stroke="none" /><path d="M 80.95270993114464 91.15688171328213 l -57.141870206566075 -26.529354860153617 a84.0,84.0 0 0,0 0.6201672246329939,-1.3062303374378712 l 56.676744788091334 27.50902761323202" fill="#4dd2ff" stroke="none" /><path d="M 81.10775173730289 90.83032412892265 l -13.503527497563342 -6.5541680665569775 a36.01007574671509,36.01007574671509 0 0,0 0.27545990959518746,-0.5553103689523705 l 13.388707575014742 6.78563802400831" fill="#ffbb11" stroke="none" /><path d="M 81.26839172434947 90.50648371742162 l -6.668660016820873 -3.379796946478143 a28.476232595322884,28.476232595322884 0 0,0 0.22535624935624513,-0.43531654430276223 l 6.609494334304514 3.494086213041241" fill="#ff5507" stroke="none" /><path d="M 81.43458229118936 90.18545643968196 l -13.32383386470043 -7.0435984746782445 a36.071059296765696,36.071059296765696 0 0,0 0.2949099397078531,-0.5464233292211034 l 13.200615825774106 7.271902787231821" fill="#ffbc11" stroke="none" /><line stroke="#e1ed5e" stroke-width="0.3" x1="26.266209847984243" x2="21.928928074336255" y1="57.711370442889674" y2="55.22380399835377" /><path d="M 25.398753493254645 57.213857153982495 a86.0,86.0 0 0,1 29.58750427330803,-30.492523968695096" fill="none" id="id35" stroke="none" /><text fill="#e1ed5e" style="font-size:6.75px; font-family:Arial;" text-anchor="middle"><textPath startOffset="21.46611528233685" xlink:href="#id35">November</textPath></text><path d="M 81.78341655067845 89.55222093294921 l -6.476299984767689 -3.7143601378949698 a28.465851105311778,28.465851105311778 0 0,0 0.24743646320204152,-0.42294912332028567 l 6.411403847095322 3.825288673569147" fill="#ff5507" stroke="none" /><path d="M 81.96595687620814 89.24020034530311 l -12.310100620310802 -7.344676703637281 a35.33467310974089,35.33467310974089 0 0,0 0.31613461190672115,-0.5196421799753042 l 12.181850210117865 7.555486656819659" fill="#ffb210" stroke="none" /><path d="M 82.34701348167596 88.62581576622439 l -6.790946408601906 -4.375547191006866 a29.07851263199057,29.07851263199057 0 0,0 0.27472736880829274,-0.41842863065641794 l 6.714622404435693 4.491793885640951" fill="#ff5e08" stroke="none" /><path d="M 82.54541684631803 88.32363383020206 l -6.68947842187955 -4.47497364165646 a29.048261343315847,29.048261343315847 0 0,0 0.2815959678266475,-0.41320733566823226 l 6.611457988384163 4.589459000595108" fill="#ff5d08" stroke="none" /><path d="M 82.7489923806493 88.02491185347247 l -12.11777836186449 -8.411767429784073 a35.75121634713719,35.75121634713719 0 0,0 0.3552775084908963,-0.5025148403133305 l 11.971188233569716 8.61910877042919" fill="#ffb811" stroke="none" /><path d="M 82.95767976084542 87.72973835380427 l -11.839288086654003 -8.524142281646219 a35.58868548007449,35.58868548007449 0 0,0 0.36222060278976714,-0.4940684951335458 l 11.690804871350602 8.726673220451266" fill="#ffb510" stroke="none" /><path d="M 83.39014120810768 87.1503855733568 l -11.660759134081282 -9.020923095868888 a35.74280696084164,35.74280696084164 0 0,0 0.38065394880522097,-0.4833918589689037 l 11.50375110468209 9.22030734879084" fill="#ffb711" stroke="none" /><path d="M 83.6137871275137 86.86637796730984 l -12.805553059232183 -10.263707368400375 a37.41115102900972,37.41115102900972 0 0,0 0.407071639204121,-0.49902169697183374 l 12.626982927951671 10.482613234980292" fill="#ffcd13" stroke="none" /><path d="M 85.31137513191541 84.99185889309783 l -14.938093952460482 -15.263036800253175 a42.35666039666359,42.35666039666359 0 0,0 0.525458084664226,-0.5054902611270852 l 14.67315262418383 15.517910148142574" fill="#f4ff19" stroke="none" /><path d="M 85.57189188830299 84.74124197986013 l -5.652284878010137 -5.977696212612328 a29.226857015438025,29.226857015438025 0 0,0 0.36852577710204715,-0.342504546426253 l 5.548551217113234 6.074105345113228" fill="#ff6008" stroke="none" /><path d="M 86.10567301691215 84.25364557470407 l -9.629690314106684 -10.913268190415419 a35.55439308736483,35.55439308736483 0 0,0 0.4623869160718868,-0.40097737718120535 l 9.440409599388023 11.077410561016306" fill="#ffb510" stroke="none" /><path d="M 86.37877921826538 84.01681056812374 l -4.62277004133054 -5.424374984778659 a28.126980204161903,28.126980204161903 0 0,0 0.3711990748420845,-0.31086855006633946 l 4.528713429529345 5.50314469223881" fill="#ff5107" stroke="none" /><path d="M 86.93701828274178 83.55741782278169 l -9.176210932923857 -11.550242173328078 a35.751641988200426,35.751641988200426 0 0,0 0.48514543172535557,-0.37866370471096367 l 8.976032946039076 11.706484267262264" fill="#ffb811" stroke="none" /><path d="M 87.22198572758235 83.33499621200491 l -13.370027183838667 -17.437103208221085 a42.972942342588965,42.972942342588965 0 0,0 0.5908858278924527,-0.44504295522069187 l 13.067895202187824 17.664662752947635" fill="#ecff1a" stroke="none" /><path d="M 87.80319425747018 82.90503203632743 l -4.244357224178096 -5.948864998374335 a28.30777414917265,28.30777414917265 0 0,0 0.3990976396794604,-0.2795934012454022 l 4.141328444914975 6.02104324238368" fill="#ff5307" stroke="none" /><path d="M 88.09926311788651 82.69761687909137 l -4.135959896989991 -6.013237954869035 a28.29830082768496,28.29830082768496 0 0,0 0.4037160992498072,-0.27259091236330873 l 4.0318391033336445 6.083540779531009" fill="#ff5307" stroke="none" /><path d="M 88.39885842347998 82.49532879139004 l -5.8723259689906335 -8.860605194665473 a31.629888837697905,31.629888837697905 0 0,0 0.45642377564761777,-0.2968707199345034 l 5.718935167558729 8.960374838759511" fill="#ff810b" stroke="none" /><path d="M 89.00827224532344 82.1063720568725 l -2.96841081194525 -4.832328441605247 a26.67123098771514,26.67123098771514 0 0,0 0.3932583264032345,-0.23693374146050472 l 2.8847904193243665 4.8827087925243715" fill="#ff3c05" stroke="none" /><line stroke="#e1ed5e" stroke-width="0.3" x1="56.762969772571076" x2="54.21961505331055" y1="26.818313649435495" y2="22.513508569990535" /><path d="M 56.25429882871897 25.957352633546506 a86.0,86.0 0 0,1 42.265352541879196,-11.944610805530505" fill="none" id="id36" stroke="none" /><text fill="#e1ed5e" style="font-size:6.75px; font-family:Arial;" text-anchor="middle"><textPath startOffset="22.20632615414155" xlink:href="#id36">December</textPath></text><path d="M 89.3179101791058 81.91981866633112 l -3.7387330528191245 -6.328066201140836 a28.350003175935587,28.350003175935587 0 0,0 0.4222844584786287,-0.2446144149265946 l 3.6292518618751752 6.391484773457478" fill="#ff5407" stroke="none" /><path d="M 89.63071344664047 81.73862282372117 l -5.42922931691993 -9.561429691675714 a31.995338499771655,31.995338499771655 0 0,0 0.4812646044792201,-0.26782323133855623 l 5.263840623368663 9.653468320574456" fill="#ff860c" stroke="none" /><path d="M 89.94658935756843 81.56283822128135 l -7.161580571714706 -13.133773630487722 a35.9594199774609,35.9594199774609 0 0,0 0.5459923420848772,-0.29165020022950344 l 6.934443183101523 13.255102557218976" fill="#ffba11" stroke="none" /><path d="M 90.26544431104013 81.39251694778311 l -6.960743985960776 -13.305376217270895 a36.01615773496027,36.01615773496027 0 0,0 0.5518010013605853,-0.2826539049640611 l 6.730682497011427 13.423222647547462" fill="#ffbb11" stroke="none" /><path d="M 90.58718382345135 81.22770947309562 l -3.438512390779609 -6.857538952146334 a28.671323741164176,28.671323741164176 0 0,0 0.4430794460406621,-0.21741715989924507 l 3.319961677728521 6.915711272180409" fill="#ff5808" stroke="none" /><path d="M 90.91171255644093 81.06846463323043 l -6.506974835999576 -13.554481523987125 a36.03544781176936,36.03544781176936 0 0,0 0.561503985218418,-0.2636336500064898 l 6.272692639481549 13.664480156633621" fill="#ffbb11" stroke="none" /><path d="M 91.56875222667455 80.76684994638697 l -5.982044059343028 -13.646088232001926 a35.899683726962216,35.899683726962216 0 0,0 0.5680975234600241,-0.24322971174566038 l 5.746262778092697 13.747037471710373" fill="#ffb911" stroke="none" /><path d="M 91.90106846888425 80.62456947434976 l -2.8531460896517444 -6.825707024092127 a28.398021288671426,28.398021288671426 0 0,0 0.45263218081385204,-0.18464003147119581 l 2.735230039249512 6.873807941746899" fill="#ff5407" stroke="none" /><path d="M 93.25333710446033 80.11325718540243 l -4.801235104729799 -14.152319331576951 a35.94456426242721,35.94456426242721 0 0,0 0.5876374456334696,-0.19373482676137016 l 4.55691483685392 14.232867882597557" fill="#ffba11" stroke="none" /><path d="M 93.59665428221793 80.00007090966166 l -4.513603592534306 -14.097591442220283 a35.80252349642794,35.80252349642794 0 0,0 0.5885502288016546,-0.18286542100438483 l 4.270267991021922 14.173196998107194" fill="#ffb811" stroke="none" /><path d="M 93.94186890950719 79.89281104454417 l -2.1094123297817933 -7.001227221123165 a28.312099765377347,28.312099765377347 0 0,0 0.46783693216077943,-0.13657442943110668 l 1.9885851798975926 7.03649997947297" fill="#ff5307" stroke="none" /><path d="M 94.28887869178378 79.79150937346287 l -4.061614669969266 -14.371801535470377 a35.93470431921095,35.93470431921095 0 0,0 0.5966908212490607,-0.16309814157372568 l 3.813625959496483 14.4395862178704" fill="#ffba11" stroke="none" /><path d="M 95.33964822691252 79.52364482259891 l -3.2813454987023127 -14.417365718871793 a35.78606311881406,35.78606311881406 0 0,0 0.6018146935385966,-0.1315333823362725 l 3.032688081010195 14.471712599303933" fill="#ffb811" stroke="none" /><path d="M 95.692805502759 79.44645832069477 l -3.116472358745509 -14.871523577332981 a36.19455867980362,36.19455867980362 0 0,0 0.61088416145882,-0.12253761588882355 l 2.860021787819553 14.922965149299015" fill="#ffbd11" stroke="none" /><path d="M 96.04723909329186 79.375362276772 l -2.2538120099330627 -11.759895753432177 a32.97392236101899,32.97392236101899 0 0,0 0.5583660794263218,-0.10203783202900073 l 2.0510508094038475 11.796949066811914" fill="#ff930d" stroke="none" /><path d="M 96.40284397218896 79.31037775812273 l -1.2626572494073125 -7.26237653002286 a28.371323910486346,28.371323910486346 0 0,0 0.48186774390685616,-0.07951230654678271 l 1.1374602993615708 7.28303509950927" fill="#ff5407" stroke="none" /><path d="M 96.75951476605007 79.25152402106235 l -2.267518438625853 -14.518674969636912 a35.69467804150433,35.69467804150433 0 0,0 0.6078821000597293,-0.0895860199469343 l 2.0172673581374747 14.555555473744814" fill="#ffb711" stroke="none" /><path d="M 97.83486435360386 79.11191278185805 l -1.3127517862604214 -12.66473712758884 a33.732591400153275,33.732591400153275 0 0,0 0.5780720020498641,-0.05489490205676865 l 1.0945546571203209 12.68545757416079" fill="#ff9d0e" stroke="none" /><path d="M 98.19473922651362 79.07773832637324 l -1.2930403224304183 -14.985828295705796 a36.04150933197222,36.04150933197222 0 0,0 0.6185577882586559,-0.048011989233048384 l 1.0348923448094283 15.005865547127305" fill="#ffbb11" stroke="none" /><path d="M 98.55514903715128 79.0497635885617 l -1.06118230978245 -15.387068173277271 a36.423617437672576,36.423617437672576 0 0,0 0.6258582614313882,-0.03775347947431395 l 0.7961619995114386 15.403054922131892" fill="#ffc011" stroke="none" /><path d="M 98.91598698831166 79.02799685794201 l -0.7622108828235127 -14.746215088865872 a35.76590074722806,35.76590074722806 0 0,0 0.6151039496530922,-0.02648766997759433 l 0.5082661007810964 14.75715048536766" fill="#ffb811" stroke="none" /><path d="M 99.27714615592234 79.0124445844662 l -0.3917912001849751 -11.375383270863852 a32.38212831168194,32.38212831168194 0 0,0 0.5572399365496987,-0.01439186354312896 l 0.19592462844039735 11.38044192654934" fill="#ff8b0c" stroke="none" /><path d="M 99.63851952072746 79.00311137660856 l -0.14785752723695963 -8.588425128162482 a29.5896977845797,29.5896977845797 0 0,0 0.5093380065094932,-0.004384033025774641 l 2.1038691795057275e-15 8.589697784579698" fill="#ff6509" stroke="none" /></svg>