<?xml version="1.0" encoding="utf-8" ?>
<svg baseProfile="full" height="200mm" version="1.1" viewBox="0,0,200,200" width="200mm" xmlns="http://www.w3.org/2000/svg" xmlns:ev="http://www.w3.org/2001/xml-events" xmlns:xlink="http://www.w3.org/1999/xlink"><defs /><rect fill="#1a1a1a" height="200" width="200" x="0" y="0" /><rect fill="#1a1a1a" height="200" width="180" x="10" y="0" /><text alignment-baseline="middle" fill="#e1ed5e" style="dominant-baseline: central; font-size:9.0px; font-family:Arial;" text-anchor="middle" x="100.0" y="100.0">2026</text><line stroke="#e1ed5e" stroke-width="0.3" x1="100.0" x2="100.0" y1="15.0" y2="10.0" /><path d="M 100.0 14.0 a86.0,86.0 0 0,1 42.46469731375804,11.215312516191453" fill="none" id="id121" stroke="none" /><text fill="#e1ed5e" style="font-size:6.75px; font-family:Arial;" text-anchor="middle"><textPath startOffset="22.20632615414155" xlink:href="#id121">January</textPath></text><path d="M 100.0 79.0 l 0.0 -16.115247333027 a37.115247333027,37.115247333027 0 0,0 0.6388779711552872,0.005499024398707484 l -0.2773974918827588 16.112859685236852" fill="#ff7c0b" stroke="none" /><path d="M 100.36148047927253 79.00311137660856 l 0.17368165269850114 -10.08844052928124 a31.08993546209927,31.08993546209927 0 0,0 0.5350035518815817,0.013817563330876024 l -0.34731183977495067 10.083956173808003" fill="#ff1d03" stroke="none" /><path d="M 101.08401301168833 79.027996857942 l 0.527417168684966 -10.203747002638979 a31.217368632073896,31.217368632073896 0 0,0 0.5364005398960053,0.0323571454128618 l -0.7029797574205833 10.193156587845813" fill="#ff1f03" stroke="none" /><path d="M 101.44485096284872 79.0497635885617 l 0.7438791506360871 -10.786194886591716 a31.811815588618238,31.811815588618238 0 0,0 0.5459662110635248,0.04237748573335773 l -0.9294355510619532 10.771792138669893" fill="#ff2904" stroke="none" /><path d="M 101.80526077348638 79.07773832637324 l 0.8381093755525659 -9.713357717603476 a30.749448470324673,30.749448470324673 0 0,0 0.5269501838239607,0.05004026942533009 l -1.0051846864667708 9.697491903662968" fill="#ff1802" stroke="none" /><path d="M 102.52436894288641 79.15227682838746 l 1.1968035575910951 -9.883907552329187 a30.956102011251826,30.956102011251826 0 0,0 0.5284431730401153,0.06860709028122383 l -1.3667614591390564 9.861842138883826" fill="#ff1b02" stroke="none" /><path d="M 102.88285421437855 79.19881850522331 l 1.3794681988489013 -9.953527385259818 a31.048663588793914,31.048663588793914 0 0,0 0.5287602483613352,0.07792551574094878 l -1.550597427638892 9.9283073853579" fill="#ff1d02" stroke="none" /><path d="M 103.95276090670814 79.375362276772 l 1.8788994625348154 -9.803684474662765 a30.982108618376046,30.982108618376046 0 0,0 0.5229095238043115,0.10489073119775075 l -2.0473753958062524 9.769889787387806" fill="#ff1b02" stroke="none" /><path d="M 105.36241919743992 79.69619591428918 l 2.765333750209275 -10.47042251427456 a31.829442200661774,31.829442200661774 0 0,0 0.5285235085810788,0.1444654399864106 l -2.9451551480140647 10.421270533461856" fill="#ff2904" stroke="none" /><path d="M 106.0581310904928 79.89281104454417 l 3.081662584930155 -10.22816623915425 a31.682323197841058,31.682323197841058 0 0,0 0.520819114019108,0.1618210339432772 l -3.257267071659981 10.173605070328453" fill="#ff2703" stroke="none" /><path d="M 106.40334571778207 80.00007090966166 l 3.2659461545235184 -10.20071293697977 a31.710786558741304,31.710786558741304 0 0,0 0.518421797420007,0.17091551578067615 l -3.441050774185943 10.142983696939856" fill="#ff2703" stroke="none" /><path d="M 106.74666289553966 80.11325718540242 l 3.4513573975964587 -10.173363926725361 a31.7428674697001,31.7428674697001 0 0,0 0.515924376668721,0.1799958845790275 l -3.6259637783284533 10.112447188974127" fill="#ff2803" stroke="none" /><path d="M 107.08798089147638 80.2323363322302 l 3.3104343635185223 -9.232467481812169 a30.808028929294785,30.808028929294785 0 0,0 0.4976489486155504,0.1832883076073478 l -3.4688656379066494 9.174115906398496" fill="#ff1902" stroke="none" /><path d="M 107.4271985657038 80.35727306442388 l 3.4739271630444013 -9.187502132076846 a30.822340116339603,30.822340116339603 0 0,0 0.49464988158631273,0.19191646920849978 l -3.631560209630381 9.126342958977798" fill="#ff1902" stroke="none" /><path d="M 107.76421540070413 80.48803036053334 l 3.6656237606637174 -9.211946840281065 a30.914472358270345,30.914472358270345 0 0,0 0.49274155054652413,0.20100165047145077 l -3.823649180798629 9.147484303626037" fill="#ff1a02" stroke="none" /><path d="M 108.43124777332544 80.76684994638697 l 4.244712909849875 -9.682932173804579 a31.572453034634208,31.572453034634208 0 0,0 0.49586474165191097,0.22248005546892904 l -4.410759769968567 9.608431787819118" fill="#ff2503" stroke="none" /><path d="M 108.76106565485865 80.91482961587045 l 4.014564973077783 -8.745358104565433 a30.62278651431857,30.62278651431857 0 0,0 0.47716395134313677,0.224034873225658 l -4.164507135720517 8.674958248699772" fill="#ff1602" stroke="none" /><path d="M 109.08828744355905 81.06846463323043 l 4.249386057143283 -8.851766950315739 a30.818913382108313,30.818913382108313 0 0,0 0.4762677577148028,0.23370252030249153 l -4.401125081868519 8.777309269878414" fill="#ff1902" stroke="none" /><path d="M 109.73455568895987 81.39251694778311 l 3.8529345104673474 -7.3648367625172195 a29.311794323759184,29.311794323759184 0 0,0 0.445057657870188,0.2377343875114914 l -3.9791372148658466 7.297423648503974" fill="#ff0000" stroke="none" /><path d="M 110.05341064243156 81.56283822128135 l 4.5255662336767735 -8.299531348937752 a30.453198947837492,30.453198947837492 0 0,0 0.45806818849136716,0.254914450955541 l -4.667758511240176 8.220401500422032" fill="#ff1302" stroke="none" /><path d="M 110.36928655335952 81.73862282372117 l 5.334755014387146 -9.39505075488589 a31.804008041019348,31.804008041019348 0 0,0 0.47373322075856306,0.2744168588269591 l -5.495684967611037 9.30182973866888" fill="#ff2904" stroke="none" /><line stroke="#e1ed5e" stroke-width="0.3" x1="143.23703022742887" x2="145.7803849466894" y1="26.81831364943548" y2="22.513508569990506" /><path d="M 143.74570117128098 25.957352633546492 a86.0,86.0 0 0,1 28.547481713284135,27.462654790039103" fill="none" id="id122" stroke="none" /><text fill="#e1ed5e" style="font-size:6.75px; font-family:Arial;" text-anchor="middle"><textPath startOffset="19.985693538727396" xlink:href="#id122">February</textPath></text><path d="M 110.99172775467656 82.1063720568725 l 5.015555424228884 -8.164911349000885 a30.582357410916963,30.582357410916963 0 0,0 0.44618326600053027,0.2793999202366006 l -5.155357842601677 8.07736708744134" fill="#ff1502" stroke="none" /><path d="M 111.2981086023043 82.29822771554956 l 5.256139923775978 -8.235271522077117 a30.769682898674148,30.769682898674148 0 0,0 0.4440108821171333,0.2887970286951832 l -5.397117831677391 8.143575569222406" fill="#ff1802" stroke="none" /><path d="M 111.60114157652 82.49532879139004 l 5.874684461780917 -8.864163865212646 a31.63415810277578,31.63415810277578 0 0,0 0.4513069173329943,0.3047244451739068 l -6.026396073520453 8.76172750774007" fill="#ff2603" stroke="none" /><path d="M 111.90073688211348 82.69761687909136 l 5.632552466676366 -8.189121538644253 a30.939183007901065,30.939183007901065 0 0,0 0.43619660263629234,0.30558359563519866 l -5.77268020889631 8.09095310024512" fill="#ff1b02" stroke="none" /><path d="M 112.19680574252982 82.90503203632743 l 6.172424557099447 -8.651232321743517 a31.627447746183655,31.627447746183655 0 0,0 0.44045691548320093,0.3200106808526065 l -6.320426788936437 8.543702406074237" fill="#ff2603" stroke="none" /><path d="M 112.48926042617603 83.11751280151076 l 6.467278862016278 -8.742211217584474 a31.87437137732303,31.87437137732303 0 0,0 0.43827844436836827,0.3301022378332102 l -6.6168034601430294 8.629592390245415" fill="#ff2a04" stroke="none" /><path d="M 113.06298171725822 83.55741782278167 l 6.002900501672595 -7.5559460264737695 a30.650240141466213,30.650240141466213 0 0,0 0.4102703969975411,0.3317434619783567 l -6.132074297234627 7.451496467231283" fill="#ff1602" stroke="none" /><path d="M 113.34407831869373 83.78471172551755 l 6.831028088120277 -8.300842292328525 a31.750205928390304,31.750205928390304 0 0,0 0.41901572728806297,0.35091362135653736 l -6.972901352367457 8.182027513578168" fill="#ff2803" stroke="none" /><path d="M 113.6212207817346 84.01681056812373 l 6.342170460467508 -7.441925617623921 a30.777800521992347,30.777800521992347 0 0,0 0.4002670565032842,0.34710764710257636 l -6.4693313156175565 7.331652977101673" fill="#ff1802" stroke="none" /><path d="M 114.16331599549186 84.49514656593476 l 6.7011610397714305 -7.3358894056162764 a30.93583578026447,30.93583578026447 0 0,0 0.3900745439443488,0.36253177673672055 l -6.826443467510626 7.219453042804916" fill="#ff1b02" stroke="none" /><path d="M 114.42810811169701 84.74124197986012 l 6.65600730019049 -7.039204585080256 a30.687767254161507,30.687767254161507 0 0,0 0.3806989326586287,0.36623207159023174 l -6.7761894764615365 6.923589426727722" fill="#ff1702" stroke="none" /><path d="M 114.68862486808459 84.99185889309783 l 6.855185682830045 -7.004304008435406 a30.80070637192352,30.80070637192352 0 0,0 0.37571610962119234,0.3741026652442925 l -6.974737592618559 6.885265492540994" fill="#ff1802" stroke="none" /><path d="M 115.4437574822437 85.77008943001954 l 12.498169453606614 -11.515839575813239 a37.994669776931,37.994669776931 0 0,0 0.43903086876504843,0.4847888507305984 l -12.694543962987698 11.298997937813091" fill="#ff8a0c" stroke="none" /><path d="M 115.68641384162765 86.03803664274999 l 7.473365583173745 -6.651798013304127 a31.004879307096243,31.004879307096243 0 0,0 0.35140064494646256,0.40171168291742926 l -7.586758091698056 6.52217077418375" fill="#ff1c02" stroke="none" /><path d="M 115.9244219780498 86.31012108654704 l 7.54334303761757 -6.484847797299433 a30.947626608257508,30.947626608257508 0 0,0 0.3437977535938172,0.40694810086144945 l -7.653851404698504 6.354040746808876" fill="#ff1b02" stroke="none" /><path d="M 116.15771136456269 86.58626213691792 l 7.741678274442227 -6.426952471835798 a31.06177422625886,31.06177422625886 0 0,0 0.3379839166420137,0.41432831813496146 l -7.851160683160649 6.292739984092735" fill="#ff1d02" stroke="none" /><path d="M 116.60985879189232 87.15038557335679 l 7.51432686386861 -5.813186258007814 a30.500433815744856,30.500433815744856 0 0,0 0.3176751766240689,0.4180232949716337 l -7.613277980716792 5.682978187155147" fill="#ff1402" stroke="none" /><path d="M 117.04232023915458 87.72973835380427 l 7.888384856234187 -5.679540390838426 a30.72027750073165,30.72027750073165 0 0,0 0.30528258240597184,0.43180056288902074 l -7.984980058444042 5.542913327617612" fill="#ff1702" stroke="none" /><path d="M 117.65298651832404 88.62581576622439 l 10.335760179227998 -6.6595440013864575 a33.29542454691653,33.29542454691653 0 0,0 0.30627415208282277,0.4844521566983098 l -10.448861927556775 6.480644196973942" fill="#ff4106" stroke="none" /><line stroke="#e1ed5e" stroke-width="0.3" x1="172.23445277983987" x2="176.4835382374775" y1="55.19839476539836" y2="52.563006222186495" /><path d="M 173.08426987136738 54.67131705675599 a86.0,86.0 0 0,1 12.851231095245387,41.99856678651699" fill="none" id="id123" stroke="none" /><text fill="#e1ed5e" style="font-size:6.75px; font-family:Arial;" text-anchor="middle"><textPath startOffset="22.20632615414155" xlink:href="#id123">March</textPath></text><path d="M 117.84615892207809 88.93136811851018 l 9.814599023797145 -6.087258559848691 a32.54907229055092,32.54907229055092 0 0,0 0.29121221256353086,0.4786763083587868 l -9.9179270346469 5.917414478282823" fill="#ff3505" stroke="none" /><path d="M 118.03404312379186 89.2402003453031 l 8.550972560889615 -5.101837174083306 a30.957302560831696,30.957302560831696 0 0,0 0.26909314699879944,0.4599674160461413 l -8.637525382358742 4.953890345683269" fill="#ff1b02" stroke="none" /><path d="M 118.3937258080291 89.86733742301442 l 10.76984338728848 -5.932848526139182 a33.295861833187345,33.295861833187345 0 0,0 0.2722204669666336,0.5043831821653274 l -10.870371953473578 5.746584360641395" fill="#ff4106" stroke="none" /><path d="M 118.56541770881063 90.18545643968196 l 9.879160723553715 -5.222583988222728 a32.1746677854801,32.1746677854801 0 0,0 0.25462506081685155,0.4918545719690694 l -9.967595217530684 5.051756693993314" fill="#ff2f04" stroke="none" /><path d="M 118.73160827565052 90.50648371742162 l 10.766037108869801 -5.456421418162992 a33.06980073249552,33.06980073249552 0 0,0 0.2529682076810217,0.5099684703556705 l -10.858365329504231 5.270293359308372" fill="#ff3d05" stroke="none" /><path d="M 119.04729006885535 91.15688171328212 l 11.69921678128767 -5.431615599115984 a33.89860927821768,33.89860927821768 0 0,0 0.24116065163478617,0.5313655288215003 l -11.790979749885803 5.229428061452421" fill="#ff4a06" stroke="none" /><path d="M 119.34039704204932 91.81776055985345 l 30.973474016320985 -13.103783761196347 a54.63131340729803,54.63131340729803 0 0,0 0.35894935557764046,0.8692243361387464 l -31.194445058784822 12.568684854604298" fill="#90ff24" stroke="none" /><path d="M 119.47837535516314 92.15188598940014 l 33.86112574565003 -13.643128368438493 a57.506311624709696,57.506311624709696 0 0,0 0.362033586633313,0.9213359890907952 l -34.09095288216504 13.058243374451912" fill="#6dff28" stroke="none" /><path d="M 119.61058180528143 92.48833698450437 l 31.844952813447268 -12.197932557745585 a55.10118148061725,55.10118148061725 0 0,0 0.33164459558520204,0.8886426328491832 l -32.050201997534096 11.647966787867068" fill="#8aff24" stroke="none" /><path d="M 119.97218684219823 93.5106431181261 l 59.91656052659467 -19.46807064562169 a84.0,84.0 0 0,0 0.4349780649271753,1.3789993342943234 l -60.24279407529006 18.433821144900946" fill="#4dd2ff" stroke="none" /><path d="M 120.08093135843002 93.85539295169968 l 30.074476990153634 -9.202553406969642 a52.45093250508495,52.45093250508495 0 0,0 0.2567450739292791,0.8656167544763648 l -30.228427961194615 8.683507265746748" fill="#abff21" stroke="none" /><path d="M 120.28053869075195 94.5502522615342 l 20.86316321190129 -5.606309490346492 a42.60329339031391,42.60329339031391 0 0,0 0.1842159673450567,0.7098592686029462 l -20.95657551111665 5.246353796194695" fill="#ffce13" stroke="none" /><path d="M 120.37134235888165 94.90015583598534 l 20.571560127642318 -5.149967489299637 a42.206396469604314,42.206396469604314 0 0,0 0.17036752570523783,0.7062833827551076 l -20.657160453608373 4.795098874885124" fill="#ffc812" stroke="none" /><path d="M 120.45610955862082 95.25157060432595 l 21.286265765688835 -4.9411316358212645 a42.85222853829902,42.85222853829902 0 0,0 0.1606052816874097,0.7199619862736161 l -21.368165434378284 4.573991479997685" fill="#ffd113" stroke="none" /><path d="M 120.6074358757038 95.95851677861258 l 21.956248840369575 -4.306009337026763 a43.37450735884015,43.37450735884015 0 0,0 0.1373820932257016,0.7339006354217762 l -22.027116657505136 3.9274306241424246" fill="#ffd914" stroke="none" /><path d="M 120.67395015179393 96.31383870115 l 19.42276705337614 -3.463075595281016 a40.72908443360575,40.72908443360575 0 0,0 0.11712159956814823,0.6912583105248225 l -19.47950051446451 3.1282314964403555" fill="#ffb210" stroke="none" /><path d="M 120.73433829027371 96.67025291283417 l 21.19866785788919 -3.4043142136208795 a42.470278857391804,42.470278857391804 0 0,0 0.10970296819061952,0.7228054933613152 l -21.25412671951911 3.0389096078674824" fill="#ffcc13" stroke="none" /><path d="M 120.78858239683441 97.02765380044208 l 19.286866208808338 -2.7576312026866683 a40.483011523029596,40.483011523029596 0 0,0 0.09269453162928493,0.6906819279374448 l -19.33147673949546 2.4252309326845594" fill="#ffaf10" stroke="none" /><line stroke="#e1ed5e" stroke-width="0.3" x1="184.98032266829074" x2="189.97916517819016" y1="98.17113171792111" y2="98.06355123074" /><path d="M 185.9800911702706 98.14961562048488 a86.0,86.0 0 0,1 -9.607161424134198,41.387399972396054" fill="none" id="id124" stroke="none" /><text fill="#e1ed5e" style="font-size:6.75px; font-family:Arial;" text-anchor="middle"><textPath startOffset="21.466115282336823" xlink:href="#id124">April</textPath></text><line stroke="#e1ed5e" stroke-width="0.3" x1="174.80103733775053" x2="179.2010983576182" y1="140.37084112569926" y2="142.7455964860345" /><path d="M 175.68104954172406 140.8457921977663 a86.0,86.0 0 0,1 -30.038265399797805,32.042727171017184" fill="none" id="id125" stroke="none" /><text fill="#e1ed5e" style="font-size:6.75px; font-family:Arial;" text-anchor="middle"><textPath startOffset="22.206326154141568" xlink:href="#id125">May</textPath></text><line stroke="#e1ed5e" stroke-width="0.3" x1="143.8653032363475" x2="146.44561519142675" y1="172.8068346515853" y2="177.08958963109032" /><path d="M 144.38136562736335 173.6633856474863 a86.0,86.0 0 0,1 -40.68145358897372,12.25698825130547" fill="none" id="id126" stroke="none" /><text fill="#e1ed5e" style="font-size:6.75px; font-family:Arial;" text-anchor="middle"><textPath startOffset="21.466115282336833" xlink:href="#id126">June</textPath></text><line stroke="#e1ed5e" stroke-width="0.3" x1="102.19456741930631" x2="102.32365962044197" y1="184.97166512339345" y2="189.96999836594603" /><path d="M 102.22038585953345 185.97133177190398 a86.0,86.0 0 0,1 -42.740103519485714,-10.115201625700543" fill="none" id="id127" stroke="none" /><text fill="#e1ed5e" style="font-size:6.75px; font-family:Arial;" text-anchor="middle"><textPath startOffset="22.20632615414155" xlink:href="#id127">July</textPath></text><line stroke="#e1ed5e" stroke-width="0.3" x1="58.666819895761336" x2="56.23545636021788" y1="174.27360380694188" y2="178.64263932499728" /><path d="M 58.180547188652646 175.14741091055294 a86.0,86.0 0 0,1 -31.652253787137756,-30.449443065178592" fill="none" id="id128" stroke="none" /><text fill="#e1ed5e" style="font-size:6.75px; font-family:Arial;" text-anchor="middle"><textPath startOffset="22.20632615414155" xlink:href="#id128">August</textPath></text><line stroke="#e1ed5e" stroke-width="0.3" x1="26.63291911575756" x2="22.317208475507996" y1="142.92168965132927" y2="145.44649492493687" /><path d="M 25.769776987707644 143.4266507060508 a86.0,86.0 0 0,1 -11.730757126820373,-40.83630448921669" fill="none" id="id129" stroke="none" /><text fill="#e1ed5e" style="font-size:6.75px; font-family:Arial;" text-anchor="middle"><textPath startOffset="21.46611528233685" xlink:href="#id129">September</textPath></text><line stroke="#e1ed5e" stroke-width="0.3" x1="15.007084014347285" x2="10.007500721073583" y1="101.09737516637583" y2="101.16192664675087" /><path d="M 14.007167355692545 101.11028546245083 a86.0,86.0 0 0,1 10.666146001902534,-42.60595125391555" fill="none" id="id130" stroke="none" /><text fill="#e1ed5e" style="font-size:6.75px; font-family:Arial;" text-anchor="middle"><textPath startOffset="22.20632615414155" xlink:href="#id130">October</textPath></text><line stroke="#e1ed5e" stroke-width="0.3" x1="26.266209847984243" x2="21.928928074336255" y1="57.711370442889674" y2="55.22380399835377" /><path d="M 25.398753493254645 57.213857153982495 a86.0,86.0 0 0,1 29.58750427330803,-30.492523968695096" fill="none" id="id131" stroke="none" /><text fill="#e1ed5e" style="font-size:6.75px; font-family:Arial;" text-anchor="middle"><textPath startOffset="21.46611528233685" xlink:href="#id131">November</textPath></text><line stroke="#e1ed5e" stroke-width="0.3" x1="56.762969772571076" x2="54.21961505331055" y1="26.818313649435495" y2="22.513508569990535" /><path d="M 56.25429882871897 25.957352633546506 a86.0,86.0 0 0,1 42.265352541879196,-11.944610805530505" fill="none" id="id132" stroke="none" /><text fill="#e1ed5e" style="font-size:6.75px; font-family:Arial;" text-anchor="middle"><textPath startOffset="22.20632615414155" xlink:href="#id132">December</textPath></text></svg>