<?xml version="1.0" encoding="utf-8" ?>
<svg baseProfile="full" height="200mm" version="1.1" viewBox="0,0,200,200" width="200mm" xmlns="http://www.w3.org/2000/svg" xmlns:ev="http://www.w3.org/2001/xml-events" xmlns:xlink="http://www.w3.org/1999/xlink"><defs /><rect fill="#1a1a1a" height="200" width="200" x="0" y="0" /><text alignment-baseline="middle" fill="#e1ed5e" style="dominant-baseline: central; font-size:9.0px; font-family:Arial;" text-anchor="middle" x="100.0" y="100.0">2025</text><line stroke="#e1ed5e" stroke-width="0.3" x1="100.0" x2="100.0" y1="15.0" y2="10.0" /><path d="M 100.0 14.0 a86.0,86.0 0 0,1 42.46469731375804,11.215312516191453" fill="none" id="id109" stroke="none" /><text fill="#e1ed5e" style="font-size:6.75px; font-family:Arial;" text-anchor="middle"><textPath startOffset="22.20632615414155" xlink:href="#id109">January</textPath></text><path d="M 100.36148047927253 79.00311137660856 l 0.5502437061844088 -31.961354698121273 a52.96609081941854,52.96609081941854 0 0,0 0.9114540219041667,0.023540168334489995 l -1.1003243632834432 31.94714773764442" fill="#ffa60f" stroke="none" /><path d="M 100.72285384407766 79.0124445844662 l 1.0837580900593986 -31.466157589819804 a52.48481546817678,52.48481546817678 0 0,0 0.9026367746041076,0.03886943826134562 l -1.6252356970528379 31.442840425034262" fill="#ff9c0e" stroke="none" /><path d="M 101.08401301168833 79.027996857942 l 1.9116707582091073 -36.98439475860162 a58.03376757430805,58.03376757430805 0 0,0 0.9971802756967373,0.060152637411238434 l -2.5480130827454563 36.94600885181008" fill="#f2ff19" stroke="none" /><path d="M 101.44485096284872 79.0497635885617 l 2.2226666984235366 -32.22850937095562 a53.305062506146854,53.305062506146854 0 0,0 0.9148413087556645,0.07100929274461755 l -2.7770981965415427 32.18547481602254" fill="#ffad10" stroke="none" /><path d="M 101.80526077348638 79.07773832637324 l 2.733919835610731 -31.68505461119635 a52.80278295027089,52.80278295027089 0 0,0 0.9048759430242932,0.08592887406708283 l -3.2789209057252684 31.633300192614087" fill="#ffa30f" stroke="none" /><path d="M 102.16513564639614 79.11191278185805 l 3.433459480482817 -33.12420688637069 a54.30167752313996,54.30167752313996 0 0,0 0.9289033629328297,0.10437311610325956 l -4.003129546925372 33.06019781679684" fill="#ffc212" stroke="none" /><path d="M 102.52436894288641 79.15227682838746 l 3.9070930777717257 -32.26707218080915 a53.50275870506871,53.50275870506871 0 0,0 0.9133309990459884,0.11857657645135618 l -4.46193880532556 32.195037281193656" fill="#ffb110" stroke="none" /><path d="M 102.88285421437855 79.19881850522331 l 4.456152020054498 -32.15328283863659 a53.46060517191875,53.46060517191875 0 0,0 0.9104367016444943,0.1341747034596547 l -5.008957702127648 32.07181365101597" fill="#ffb010" stroke="none" /><path d="M 103.2404852339499 79.25152402106235 l 5.021595619621615 -32.15273286792836 a53.54250533446009,53.54250533446009 0 0,0 0.9093832325216853,0.15005602526228845 l -5.574308058282176 32.061530579726444" fill="#ffb210" stroke="none" /><path d="M 103.59715602781102 79.31037775812273 l 5.505793716526808 -31.667459308391557 a53.142522357425236,53.142522357425236 0 0,0 0.8998923917713612,0.16444958262880452 l -6.05008122940107 31.567994244412013" fill="#ffaa0f" stroke="none" /><path d="M 104.307194497241 79.44645832069477 l 7.2076171763876395 -34.394095771215525 a56.141194761716676,56.141194761716676 0 0,0 0.9441272097530518,0.20634963982739746 l -7.7985871102942195 34.264932633292254" fill="#ffe715" stroke="none" /><path d="M 105.01212808612495 79.60689891045804 l 8.157622826993707 -33.19133591612894 a55.179110434369115,55.179110434369115 0 0,0 0.9204167578774708,0.23463472551696776 l -8.727748473556202 33.04599819444311" fill="#ffd413" stroke="none" /><path d="M 105.36241919743992 79.69619591428918 l 8.479619136567004 -32.106502556252195 a54.207400486877354,54.207400486877354 0 0,0 0.9001064271176085,0.24603308824851122 l -9.031023452908324 31.955782927177392" fill="#ffc011" stroke="none" /><path d="M 105.71112130821622 79.79150937346287 l 8.783457989949262 -31.0797860663744 a53.29709330872987,53.29709330872987 0 0,0 0.88069584500174,0.2570992674261963 l -9.317144052674431 30.9239884700295" fill="#ffad10" stroke="none" /><path d="M 106.0581310904928 79.89281104454417 l 9.94099100450525 -32.99456243952197 a55.45960610232172,55.45960610232172 0 0,0 0.9116889166773033,0.2832661842858841 l -10.507465293893272 32.81855612035357" fill="#ffd914" stroke="none" /><path d="M 106.74666289553966 80.11325718540242 l 10.478125119240055 -30.885755321088116 a53.61473574580319,53.61473574580319 0 0,0 0.8714130551159386,0.3040189042860854 l -11.008220178419267 30.700815563629824" fill="#ffb410" stroke="none" /><path d="M 107.08798089147638 80.2323363322302 l 12.14117274538124 -33.860505980145014 a56.971404488351915,56.971404488351915 0 0,0 0.920271777524216,0.3389438621551797 l -12.722226848678032 33.646498850183505" fill="#fff817" stroke="none" /><path d="M 107.4271985657038 80.35727306442388 l 11.403611890794075 -30.159155227719527 a53.24309241070934,53.24309241070934 0 0,0 0.8544675471375004,0.3315201333395286 l -11.921062602931242 29.95839239048945" fill="#ffac0f" stroke="none" /><path d="M 107.76421540070413 80.48803036053334 l 11.275097697533253 -28.33504128908345 a51.49594059777438,51.49594059777438 0 0,0 0.8207867604187286,0.3348195283030074 l -11.76116832754037 28.136760874596863" fill="#ff870c" stroke="none" /><path d="M 108.43124777332544 80.76684994638697 l 25.2937433199763 -57.69945016083909 a84.0,84.0 0 0,0 1.3192715261328791,0.591918677933875 l -26.283196964575957 57.255511152388685" fill="#4dd2ff" stroke="none" /><path d="M 108.76106565485865 80.91482961587045 l 12.417467718508085 -27.05030375108847 a50.76428123718665,50.76428123718665 0 0,0 0.7910085194534511,0.37138910614966403 l -12.881254449261133 26.832549662298803" fill="#ff770a" stroke="none" /><path d="M 109.73455568895987 81.39251694778311 l 12.75645317831997 -24.383802805831973 a48.51902863409915,48.51902863409915 0 0,0 0.736692029410344,0.3935153688503631 l -13.174290254258626 24.160608710479856" fill="#ff4506" stroke="none" /><path d="M 110.05341064243156 81.56283822128135 l 25.730528163260455 -47.18775819179806 a74.74704273472118,74.74704273472118 0 0,0 1.1243233434762654,0.6256847233654859 l -26.538975595808754 46.73785807087239" fill="#3aff97" stroke="none" /><line stroke="#e1ed5e" stroke-width="0.3" x1="143.23703022742887" x2="145.7803849466894" y1="26.81831364943548" y2="22.513508569990506" /><path d="M 143.74570117128098 25.957352633546492 a86.0,86.0 0 0,1 28.547481713284135,27.462654790039103" fill="none" id="id110" stroke="none" /><text fill="#e1ed5e" style="font-size:6.75px; font-family:Arial;" text-anchor="middle"><textPath startOffset="19.985693538727396" xlink:href="#id110">February</textPath></text><path d="M 110.68208982089419 81.91981866633111 l 15.77660120906533 -26.702996835969614 a52.015337910970516,52.015337910970516 0 0,0 0.7669486550354427,0.4620779832117816 l -16.23391193031841 26.427472243299217" fill="#ff920d" stroke="none" /><path d="M 110.99172775467656 82.1063720568725 l 18.262301226335666 -29.72952303975502 a55.89063178351383,55.89063178351383 0 0,0 0.8154199590610807,0.5106159035572779 l -18.771340337769008 29.4107627948748" fill="#ffe215" stroke="none" /><path d="M 111.90073688211348 82.69761687909136 l 17.834606762676156 -25.929587560444368 a52.47088669602503,52.47088669602503 0 0,0 0.7397616966251191,0.518250343541512 l -18.278299598884924 25.61875237413892" fill="#ff9c0e" stroke="none" /><path d="M 112.19680574252982 82.90503203632743 l 19.093638041000187 -26.761525723304363 a53.8747056668164,53.8747056668164 0 0,0 0.750281428681978,0.5451113659100749 l -19.551464786035954 26.428895122577615" fill="#ffb911" stroke="none" /><path d="M 112.48926042617603 83.11751280151076 l 21.614397744841376 -29.217486126363543 a57.34341323288788,57.34341323288788 0 0,0 0.7884824346485151,0.5938686228220943 l -22.114126333248276 28.841100914035604" fill="#ffff18" stroke="none" /><path d="M 112.77801427241765 83.33499621200491 l 20.537973997783006 -26.78549320527881 a54.753089076166766,54.753089076166766 0 0,0 0.7429927567220643,0.5799176317773955 l -20.9959993096645 26.42799718427819" fill="#ffcb12" stroke="none" /><path d="M 113.06298171725822 83.55741782278167 l 22.456773773783212 -28.266697160174296 a57.101424579535404,57.101424579535404 0 0,0 0.7643341136396873,0.6180383640219312 l -22.94001128598739 27.875952698888234" fill="#fffa17" stroke="none" /><path d="M 113.34407831869373 83.78471172551755 l 19.226171711146723 -23.363016108366345 a51.256837249558714,51.256837249558714 0 0,0 0.676449815382303,0.5665072667274259 l -19.625479063488143 23.0286076842451" fill="#ff820b" stroke="none" /><path d="M 113.6212207817346 84.01681056812373 l 15.905750579161253 -18.663864908776223 a45.522087081232236,45.522087081232236 0 0,0 0.5920173466869784,0.5133916092111398 l -16.224661724494997 18.38730830614541" fill="#ff0000" stroke="none" /><path d="M 113.89432698308785 84.25364557470407 l 20.657858780670836 -23.411422980335242 a52.22245754847476,52.22245754847476 0 0,0 0.6689174895845029,0.6005607267838067 l -21.05778725785133 23.05236324478214" fill="#ff960d" stroke="none" /><path d="M 114.42810811169701 84.74124197986012 l 23.928783247938206 -25.306402646141574 a55.82815933430088,55.82815933430088 0 0,0 0.6925795707076743,0.666260998290708 l -24.3608460622583 24.890758561088564" fill="#ffe115" stroke="none" /><path d="M 114.68862486808459 84.99185889309783 l 22.744796267124784 -23.23955543084572 a53.51772891602924,53.51772891602924 0 0,0 0.652825057363656,0.6500216191002164 l -23.141457124655762 22.844597961095385" fill="#ffb210" stroke="none" /><path d="M 114.94478906791727 85.2469230424477 l 22.886943405863796 -22.59334915035429 a53.16009335019143,53.16009335019143 0 0,0 0.637252154339138,0.6567443610922825 l -23.272459823906043 22.196040593711892" fill="#ffaa0f" stroke="none" /><path d="M 115.19652480421416 85.50635884689758 l 19.610743036231913 -18.70368890090102 a48.09998562609963,48.09998562609963 0 0,0 0.566280393310612,0.6040684408251638 l -19.92979075151299 18.363351043197802" fill="#ff3c05" stroke="none" /><path d="M 115.68641384162765 86.03803664274999 l 27.473969656188682 -24.453680840674732 a57.78045017841352,57.78045017841352 0 0,0 0.6548674889808186,0.7486267451969966 l -27.89082900874735 23.977138539274787" fill="#f7ff19" stroke="none" /><path d="M 115.9244219780498 86.31012108654704 l 27.630619928645654 -23.75344245764097 a57.43730487055445,57.43730487055445 0 0,0 0.6380720769621457,0.7552760808299114 l -28.035402619094917 23.274307427181952" fill="#fdff18" stroke="none" /><path d="M 116.15771136456269 86.58626213691792 l 23.0034819640555 -19.096929635760205 a50.89737286090206,50.89737286090206 0 0,0 0.5538155451459706,0.6789123744617949 l -23.32879600127788 18.69813309169031" fill="#ff7a0b" stroke="none" /><path d="M 116.82858285166822 87.43820079747576 l 22.921793833433203 -17.110114026547585 a49.603577303265354,49.603577303265354 0 0,0 0.5048637629894436,0.6886336053402924 l -23.212920208936275 16.7130179775358" fill="#ff5d08" stroke="none" /><path d="M 117.04232023915458 87.72973835380427 l 26.023426828169004 -18.736548288691445 a53.06675826546133,53.06675826546133 0 0,0 0.527350607519989,0.7459000358696649 l -26.342090055492875 18.285821752489987" fill="#ffa80f" stroke="none" /><path d="M 117.2510076193507 88.02491185347247 l 24.35290914838117 -16.90499709414757 a50.6452881710137,50.6452881710137 0 0,0 0.4909591238464329,0.7204219330707198 l -24.640292737896335 16.483297137806446" fill="#ff740a" stroke="none" /><path d="M 117.45458315368197 88.32363383020206 l 23.844690350153705 -15.951073324550334 a49.68808111568103,49.68808111568103 0 0,0 0.4694420226647366,0.7149924070843272 l -24.115729008176366 15.538262853488334" fill="#ff5f08" stroke="none" /><path d="M 117.65298651832404 88.62581576622439 l 26.57573289369787 -17.123294223714627 a52.61450274650977,52.61450274650977 0 0,0 0.4839842841841457,0.7655469085020676 l -26.866544774127973 16.663299667498354" fill="#ff9f0e" stroke="none" /><line stroke="#e1ed5e" stroke-width="0.3" x1="172.23445277983987" x2="176.4835382374775" y1="55.19839476539836" y2="52.563006222186495" /><path d="M 173.08426987136738 54.67131705675599 a86.0,86.0 0 0,1 12.851231095245387,41.99856678651699" fill="none" id="id111" stroke="none" /><text fill="#e1ed5e" style="font-size:6.75px; font-family:Arial;" text-anchor="middle"><textPath startOffset="22.20632615414155" xlink:href="#id111">March</textPath></text><path d="M 118.03404312379186 89.2402003453031 l 31.41337964057982 -18.74242337613445 a57.57976017490363,57.57976017490363 0 0,0 0.5005061031546377,0.8555271717283432 l -31.731345418204786 18.198916792052213" fill="#fbff18" stroke="none" /><line stroke="#e1ed5e" stroke-width="0.3" x1="184.98032266829074" x2="189.97916517819016" y1="98.17113171792111" y2="98.06355123074" /><path d="M 185.9800911702706 98.14961562048488 a86.0,86.0 0 0,1 -9.607161424134198,41.387399972396054" fill="none" id="id112" stroke="none" /><text fill="#e1ed5e" style="font-size:6.75px; font-family:Arial;" text-anchor="middle"><textPath startOffset="21.466115282336823" xlink:href="#id112">April</textPath></text><line stroke="#e1ed5e" stroke-width="0.3" x1="174.80103733775053" x2="179.2010983576182" y1="140.37084112569926" y2="142.7455964860345" /><path d="M 175.68104954172406 140.8457921977663 a86.0,86.0 0 0,1 -30.038265399797805,32.042727171017184" fill="none" id="id113" stroke="none" /><text fill="#e1ed5e" style="font-size:6.75px; font-family:Arial;" text-anchor="middle"><textPath startOffset="22.206326154141568" xlink:href="#id113">May</textPath></text><line stroke="#e1ed5e" stroke-width="0.3" x1="143.8653032363475" x2="146.44561519142675" y1="172.8068346515853" y2="177.08958963109032" /><path d="M 144.38136562736335 173.6633856474863 a86.0,86.0 0 0,1 -40.68145358897372,12.25698825130547" fill="none" id="id114" stroke="none" /><text fill="#e1ed5e" style="font-size:6.75px; font-family:Arial;" text-anchor="middle"><textPath startOffset="21.466115282336833" xlink:href="#id114">June</textPath></text><line stroke="#e1ed5e" stroke-width="0.3" x1="102.19456741930631" x2="102.32365962044197" y1="184.97166512339345" y2="189.96999836594603" /><path d="M 102.22038585953345 185.97133177190398 a86.0,86.0 0 0,1 -42.740103519485714,-10.115201625700543" fill="none" id="id115" stroke="none" /><text fill="#e1ed5e" style="font-size:6.75px; font-family:Arial;" text-anchor="middle"><textPath startOffset="22.20632615414155" xlink:href="#id115">July</textPath></text><line stroke="#e1ed5e" stroke-width="0.3" x1="58.666819895761336" x2="56.23545636021788" y1="174.27360380694188" y2="178.64263932499728" /><path d="M 58.180547188652646 175.14741091055294 a86.0,86.0 0 0,1 -31.652253787137756,-30.449443065178592" fill="none" id="id116" stroke="none" /><text fill="#e1ed5e" style="font-size:6.75px; font-family:Arial;" text-anchor="middle"><textPath startOffset="22.20632615414155" xlink:href="#id116">August</textPath></text><line stroke="#e1ed5e" stroke-width="0.3" x1="26.63291911575756" x2="22.317208475507996" y1="142.92168965132927" y2="145.44649492493687" /><path d="M 25.769776987707644 143.4266507060508 a86.0,86.0 0 0,1 -11.730757126820373,-40.83630448921669" fill="none" id="id117" stroke="none" /><text fill="#e1ed5e" style="font-size:6.75px; font-family:Arial;" text-anchor="middle"><textPath startOffset="21.46611528233685" xlink:href="#id117">September</textPath></text><line stroke="#e1ed5e" stroke-width="0.3" x1="15.007084014347285" x2="10.007500721073583" y1="101.09737516637583" y2="101.16192664675087" /><path d="M 14.007167355692545 101.11028546245083 a86.0,86.0 0 0,1 10.666146001902534,-42.60595125391555" fill="none" id="id118" stroke="none" /><text fill="#e1ed5e" style="font-size:6.75px; font-family:Arial;" text-anchor="middle"><textPath startOffset="22.20632615414155" xlink:href="#id118">October</textPath></text><line stroke="#e1ed5e" stroke-width="0.3" x1="26.266209847984243" x2="21.928928074336255" y1="57.711370442889674" y2="55.22380399835377" /><path d="M 25.398753493254645 57.213857153982495 a86.0,86.0 0 0,1 29.58750427330803,-30.492523968695096" fill="none" id="id119" stroke="none" /><text fill="#e1ed5e" style="font-size:6.75px; font-family:Arial;" text-anchor="middle"><textPath startOffset="21.46611528233685" xlink:href="#id119">November</textPath></text><line stroke="#e1ed5e" stroke-width="0.3" x1="56.762969772571076" x2="54.21961505331055" y1="26.818313649435495" y2="22.513508569990535" /><path d="M 56.25429882871897 25.957352633546506 a86.0,86.0 0 0,1 42.265352541879196,-11.944610805530505" fill="none" id="id120" stroke="none" /><text fill="#e1ed5e" style="font-size:6.75px; font-family:Arial;" text-anchor="middle"><textPath startOffset="22.20632615414155" xlink:href="#id120">December</textPath></text></svg>