<?xml version="1.0" encoding="utf-8" ?>
<svg baseProfile="full" height="200mm" version="1.1" viewBox="0,0,200,200" width="200mm" xmlns="http://www.w3.org/2000/svg" xmlns:ev="http://www.w3.org/2001/xml-events" xmlns:xlink="http://www.w3.org/1999/xlink"><defs /><rect fill="#1a1a1a" height="200" width="200" x="0" y="0" /><text alignment-baseline="middle" fill="#e1ed5e" style="dominant-baseline: central; font-size:9.0px; font-family:Arial;" text-anchor="middle" x="100.0" y="100.0">2018</text><line stroke="#e1ed5e" stroke-width="0.3" x1="100.0" x2="100.0" y1="15.0" y2="10.0" /><path d="M 100.0 14.0 a86.0,86.0 0 0,1 42.46469731375804,11.215312516191453" fill="none" id="id25" stroke="none" /><text fill="#e1ed5e" style="font-size:6.75px; font-family:Arial;" text-anchor="middle"><textPath startOffset="22.20632615414155" xlink:href="#id25">January</textPath></text><path d="M 100.36148047927253 79.00311137660856 l 0.5079671275349995 -29.505685127620193 a50.51005736105783,50.51005736105783 0 0,0 0.8691899707174146,0.022448612583432864 l -1.015783733447282 29.4925697228944" fill="#95ff23" stroke="none" /><path d="M 100.72285384407766 79.0124445844662 l 1.0677081924203664 -31.00016004567913 a52.018541610492946,52.018541610492946 0 0,0 0.8946177708745978,0.03852412309233049 l -1.6011667956842957 30.977188196062606" fill="#85ff25" stroke="none" /><path d="M 101.08401301168833 79.027996857942 l 1.0497079481566454 -20.308315628700154 a41.33542648806093,41.33542648806093 0 0,0 0.7102566954425116,0.0428446234959936 l -1.3991266924387689 20.287237735823858" fill="#fffe18" stroke="none" /><path d="M 101.44485096284872 79.0497635885617 l 1.1572685492202968 -16.780311825300704 a37.82017049406281,37.82017049406281 0 0,0 0.649083832669007,0.05038139778852273 l -1.445942571251645 16.757905165323717" fill="#ffd213" stroke="none" /><path d="M 101.80526077348638 79.07773832637324 l 2.657106356889525 -30.79481663257848 a51.90923722167784,51.90923722167784 0 0,0 0.8895633403806513,0.08447475793729922 l -3.1867948243604203 30.744516330126004" fill="#86ff25" stroke="none" /><path d="M 102.16513564639614 79.11191278185805 l 1.8073090483524437 -17.435964852807203 a38.52938208678745,38.52938208678745 0 0,0 0.6590969970842855,0.07405722720476608 l -2.1071727489464545 17.402271672131835" fill="#ffdb14" stroke="none" /><path d="M 102.52436894288641 79.15227682838746 l 1.762032716695994 -14.551902328112059 a35.65819295348578,35.65819295348578 0 0,0 0.608711284849998,0.07902819490438062 l -2.012258730053838 14.51941581004354" fill="#ffb610" stroke="none" /><path d="M 102.88285421437855 79.19881850522331 l 2.0118279553032616 -14.51630756276367 a35.655054997457,35.655054997457 0 0,0 0.6072073176958523,0.08948657456714253 l -2.2614042534277696 14.479526504035558" fill="#ffb610" stroke="none" /><path d="M 105.36241919743992 79.69619591428918 l 3.8223302120422558 -14.472543253099321 a35.96879141623403,35.96879141623403 0 0,0 0.5972568328053751,0.16325285391327538 l -4.0708849340713416 14.404603858359751" fill="#ffba11" stroke="none" /><path d="M 106.40334571778207 80.00007090966166 l 4.4656650970405405 -13.94786244853028 a35.64530749564676,35.64530749564676 0 0,0 0.5827450652241261,0.19212188586031376 l -4.705092984507084 13.868926838410731" fill="#ffb610" stroke="none" /><path d="M 108.09893153111575 80.62456947434976 l 11.918620936178108 -28.513441683419877 a51.90420491865289,51.90420491865289 0 0,0 0.821362396830865,0.3516645131686651 l -12.407667090799288 28.30405764228842" fill="#86ff25" stroke="none" /><path d="M 108.43124777332544 80.76684994638697 l 6.071912090022905 -13.851092919986238 a36.12352113454599,36.12352113454599 0 0,0 0.5673420578150691,0.2545498437175816 l -6.309436266304754 13.744522745752125" fill="#ffbc11" stroke="none" /><path d="M 110.36928655335952 81.73862282372117 l 7.5116543177992785 -13.228793708156678 a36.21268988585116,36.21268988585116 0 0,0 0.5394022725006667,0.3124566122399825 l -7.7382533227652734 13.097532938526646" fill="#ffbe11" stroke="none" /><line stroke="#e1ed5e" stroke-width="0.3" x1="143.23703022742887" x2="145.7803849466894" y1="26.81831364943548" y2="22.513508569990506" /><path d="M 143.74570117128098 25.957352633546492 a86.0,86.0 0 0,1 28.547481713284135,27.462654790039103" fill="none" id="id26" stroke="none" /><text fill="#e1ed5e" style="font-size:6.75px; font-family:Arial;" text-anchor="middle"><textPath startOffset="19.985693538727396" xlink:href="#id26">February</textPath></text><path d="M 110.68208982089419 81.91981866633111 l 7.493647515067178 -12.683520565236202 a35.73181750527891,35.73181750527891 0 0,0 0.526853625839191,0.31742341456265755 l -7.710863207124007 12.552650541214929" fill="#ffb711" stroke="none" /><path d="M 110.99172775467656 82.1063720568725 l 7.919101089535843 -12.891644671592367 a36.12966174125792,36.12966174125792 0 0,0 0.5271160185138102,0.33008000243563146 l -8.139836260421916 12.75342032783379" fill="#ffbc11" stroke="none" /><path d="M 111.2981086023043 82.29822771554956 l 16.729516977869913 -26.21165279918635 a52.09545755858774,52.09545755858774 0 0,0 0.7517448308146498,0.48895574910472817 l -17.178228834468843 25.919798125922096" fill="#84ff25" stroke="none" /><path d="M 111.60114157652 82.49532879139004 l 8.425381066838348 -12.712845922055656 a36.251344123039296,36.251344123039296 0 0,0 0.5171777390816938,0.3492007180596411 l -8.642963500326584 12.565933291697345" fill="#ffbe11" stroke="none" /><path d="M 111.90073688211348 82.69761687909136 l 8.643444076250717 -12.566631997066635 a36.25219214568754,36.25219214568754 0 0,0 0.511102153150868,0.3580597206690381 l -8.858477368985236 12.415987433633662" fill="#ffbe11" stroke="none" /><path d="M 112.48926042617603 83.11751280151076 l 9.146395660713823 -12.363735112023544 a36.37915795817861,36.37915795817861 0 0,0 0.5002200849264479,0.3767553973166752 l -9.357861899398653 12.204463125201022" fill="#ffc011" stroke="none" /><path d="M 112.77801427241765 83.33499621200491 l 9.466103824715159 -12.34563154597147 a36.55704791691447,36.55704791691447 0 0,0 0.49607469218082795,0.3871941658535189 l -9.677211072055417 12.180858990894727" fill="#ffc212" stroke="none" /><path d="M 114.42810811169701 84.74124197986012 l 13.14065442567561 -13.897183508426085 a40.12612109660236,40.12612109660236 0 0,0 0.4977869959286744,0.47887069568726476 l -13.377924665216701 13.668929725976518" fill="#ffef16" stroke="none" /><path d="M 114.94478906791727 85.2469230424477 l 22.986766750165582 -22.691891958416132 a53.30036232426733,53.30036232426733 0 0,0 0.6389336168852621,0.658477256050794 l -23.373964630753953 22.292850506815224" fill="#77ff27" stroke="none" /><path d="M 115.4437574822437 85.77008943001954 l 14.10084193655181 -12.99254536658336 a40.173940086021574,40.173940086021574 0 0,0 0.46421247825635725,0.512595012878553 l -14.322398055424202 12.74789756643526" fill="#fff016" stroke="none" /><path d="M 115.68641384162765 86.03803664274999 l 18.64679403991735 -16.59690084323951 a45.96317378795055,45.96317378795055 0 0,0 0.5209337779675051,0.5955173607257989 l -18.9297196814627 16.27346792631076" fill="#c9ff1d" stroke="none" /><path d="M 115.9244219780498 86.31012108654704 l 14.534949643474148 -12.495379795045206 a40.16766228210298,40.16766228210298 0 0,0 0.44622329959278406,0.5281876406439636 l -14.747883556554049 12.243333204772135" fill="#fff016" stroke="none" /><path d="M 116.15771136456269 86.58626213691792 l 23.634221153201022 -19.62055392587637 a51.71713765761122,51.71713765761122 0 0,0 0.5627354257264812,0.6898470933549488 l -23.968455071003913 19.210822662913316" fill="#88ff25" stroke="none" /><path d="M 117.04232023915458 87.72973835380427 l 14.635734498526755 -10.537549415870224 a39.034541081027626,39.034541081027626 0 0,0 0.38790552930273164,0.548664861849015 l -14.814952647633369 10.284058053689416" fill="#ffe115" stroke="none" /><line stroke="#e1ed5e" stroke-width="0.3" x1="172.23445277983987" x2="176.4835382374775" y1="55.19839476539836" y2="52.563006222186495" /><path d="M 173.08426987136738 54.67131705675599 a86.0,86.0 0 0,1 12.851231095245387,41.99856678651699" fill="none" id="id27" stroke="none" /><text fill="#e1ed5e" style="font-size:6.75px; font-family:Arial;" text-anchor="middle"><textPath startOffset="22.20632615414155" xlink:href="#id27">March</textPath></text><path d="M 118.56541770881063 90.18545643968196 l 12.911332734438249 -6.825531185531433 a35.604464692142564,35.604464692142564 0 0,0 0.28176791281989505,0.5442859226426761 l -13.02691008041826 6.6022725406284115" fill="#ffb610" stroke="none" /><path d="M 118.73160827565052 90.50648371742162 l 27.30322759196368 -13.837767259322481 a51.609639652595455,51.609639652595455 0 0,0 0.3947891354891528,0.7958708067865441 l -27.53737674040624 13.365736864036988" fill="#89ff24" stroke="none" /><path d="M 119.04729006885535 91.15688171328212 l 17.417649867913763 -8.086522413519043 a40.203290646802756,40.203290646802756 0 0,0 0.28601326062292737,0.6301923072882485 l -17.55426544550004 7.785508097388732" fill="#fff016" stroke="none" /><path d="M 119.196687751892 91.48605970444005 l 13.743026911575635 -6.095182258402698 a36.03402924885538,36.03402924885538 0 0,0 0.24659165546957557,0.5691675393255574 l -13.845909276887891 5.857715574490538" fill="#ffbb11" stroke="none" /><path d="M 119.34039704204932 91.81776055985345 l 29.830647268455323 -12.620294096050879 a53.39042049010506,53.39042049010506 0 0,0 0.3507961978886332,0.8494808180921485 l -30.04346515323015 12.104938707505427" fill="#76ff27" stroke="none" /><path d="M 119.47837535516314 92.15188598940014 l 15.203733771558596 -6.125800219491654 a37.39142913005316,37.39142913005316 0 0,0 0.23539943381591938,0.5990658828178639 l -15.306926755256216 5.863185331778006" fill="#ffcd13" stroke="none" /><path d="M 119.61058180528143 92.48833698450437 l 14.481898379550731 -5.547165378976183 a36.50794713743073,36.50794713743073 0 0,0 0.21973509530459379,0.5887808100001892 l -14.57523806335695 5.29706143194666" fill="#ffc112" stroke="none" /><path d="M 119.7369772167798 92.82701384747503 l 15.799554964400153 -5.742013466953265 a37.810611402556844,37.810611402556844 0 0,0 0.21704536748931968,0.613616481535823 l -15.896053412699283 5.469199358990828" fill="#ffd213" stroke="none" /><path d="M 119.97218684219823 93.5106431181261 l 11.406507103847256 -3.706198823260539 a32.99351133020083,32.99351133020083 0 0,0 0.1708506394471856,0.54164321619499 l -11.468613227062647 3.50930544063913" fill="#ff930d" stroke="none" /><path d="M 120.37134235888165 94.90015583598534 l 14.097218402721355 -3.5291546199268344 a35.532257189623934,35.532257189623934 0 0,0 0.1434271401131803,0.5945980918528617 l -14.155878343095354 3.2859712964145666" fill="#ffb510" stroke="none" /><path d="M 120.45610955862082 95.25157060432595 l 19.30241347817264 -4.480624593085605 a40.81562925638508,40.81562925638508 0 0,0 0.15297233907244556,0.6857450012003729 l -19.376680204247123 4.147701422335269" fill="#fff817" stroke="none" /><path d="M 120.67395015179393 96.31383870115 l 14.669848976913446 -2.615631224881338 a35.901207860775,35.901207860775 0 0,0 0.10323843389941613,0.6093190808670175 l -14.712699272333085 2.362726355698483" fill="#ffb911" stroke="none" /><path d="M 120.73433829027371 96.67025291283417 l 32.48039547529156 -5.216057571250256 a53.89655524242527,53.89655524242527 0 0,0 0.13921764218213223,0.9172703182215224 l -32.565369010912995 4.656188140636651" fill="#71ff27" stroke="none" /><path d="M 120.78858239683441 97.02765380044208 l 30.71202368493027 -4.391197299462602 a52.02436159772712,52.02436159772712 0 0,0 0.1191209262895515,0.8875892631552895 l -30.783060610277655 3.861889694242649" fill="#85ff25" stroke="none" /><path d="M 120.83666639777658 97.38593545837742 l 14.571873504782316 -1.8281147812552985 a35.686098906544956,35.686098906544956 0 0,0 0.07121865751677671,0.610157965102552 l -14.60118251530268 1.5770130778278937" fill="#ffb710" stroke="none" /><path d="M 120.87857604477298 97.74499172005257 l 23.36631584390878 -2.5236987228864445 a44.50220779759215,44.50220779759215 0 0,0 0.07570222742936797,0.7623110991652282 l -23.406295197020377 2.1211120930167815" fill="#daff1c" stroke="none" /><path d="M 120.94382443527127 98.46500227214037 l 15.103323068427871 -1.106940457069702 a36.14383322956256,36.14383322956256 0 0,0 0.04013584903563651,0.6208838200340303 l -15.120139508467924 0.8467975727826363" fill="#ffbd11" stroke="none" /><path d="M 120.96714384426684 98.82574320788733 l 2.493249447209773 -0.13963347223459677 a23.497156445355422,23.497156445355422 0 0,0 0.01914055064538444,0.4040267723028399 l -2.4952836060886536 0.09669559330875711" fill="#ff0e01" stroke="none" /><path d="M 120.98425023603335 99.18683210126433 l 32.33092855801296 -1.2528669332463167 a53.35519459029353,53.35519459029353 0 0,0 0.02766417433702998,0.9180392664486309 l -32.34770442680563 0.6961575193726868" fill="#76ff27" stroke="none" /><line stroke="#e1ed5e" stroke-width="0.3" x1="184.98032266829074" x2="189.97916517819016" y1="98.17113171792111" y2="98.06355123074" /><path d="M 185.9800911702706 98.14961562048488 a86.0,86.0 0 0,1 -9.607161424134198,41.387399972396054" fill="none" id="id28" stroke="none" /><text fill="#e1ed5e" style="font-size:6.75px; font-family:Arial;" text-anchor="middle"><textPath startOffset="21.466115282336823" xlink:href="#id28">April</textPath></text><path d="M 120.99513854157772 99.54816195383933 l 14.732534237597186 -0.31706004091034784 a35.73594557982335,35.73594557982335 0 0,0 0.00794187636489238,0.6151070767157436 l -14.735809121079795 0.06341670613414153" fill="#ffb711" stroke="none" /><path d="M 120.99980553446 99.90962569577887 l 9.747590917727509 -0.041949519274178525 a30.747681183826806,30.747681183826806 0 0,0 -0.002277821474246503,0.5292854911984903 l -9.74686879896376 -0.12584545012799656" fill="#ff750a" stroke="none" /><path d="M 120.8583938346157 102.4346265915055 l 1.5043391349635615 0.17558897821492592 a22.514551987306305,22.514551987306305 0 0,0 -0.048243850448198095,0.3845509556200105 l -1.5010937752685154 -0.20145768812233136" fill="#ff0000" stroke="none" /><path d="M 120.81339534386255 102.79330883721812 l 20.914829181212358 2.8069219949745063 a42.10234325294619,42.10234325294619 0 0,0 -0.10258125461722778,0.717453055871517 l -20.86341387557853 -3.1665205228264326" fill="#f7ff19" stroke="none" /><path d="M 120.76222939487914 103.15116336523771 l 15.14516814236843 2.298640386969598 a36.31861174157826,36.31861174157826 0 0,0 -0.09912948138384653,0.6172793752036916 l -15.103356906623295 -2.5589989918664946" fill="#ffbf11" stroke="none" /><path d="M 120.70491114924044 103.5080841355445 l 15.079474301342843 2.5549525031809877 a36.29438875857319,36.29438875857319 0 0,0 -0.10966705189790596,0.6150710672750126 l -15.033260807105748 -2.8141423211892187" fill="#ffbf11" stroke="none" /><path d="M 120.5718875245553 104.21870165774334 l 3.8466016478693716 0.7888272152555221 a24.926651577733775,24.926651577733775 0 0,0 -0.08981424061952874,0.4195822314741446 l -3.8324533685253996 -0.8549232661458357" fill="#ff2303" stroke="none" /><line stroke="#e1ed5e" stroke-width="0.3" x1="174.80103733775053" x2="179.2010983576182" y1="140.37084112569926" y2="142.7455964860345" /><path d="M 175.68104954172406 140.8457921977663 a86.0,86.0 0 0,1 -30.038265399797805,32.042727171017184" fill="none" id="id29" stroke="none" /><text fill="#e1ed5e" style="font-size:6.75px; font-family:Arial;" text-anchor="middle"><textPath startOffset="22.206326154141568" xlink:href="#id29">May</textPath></text><path d="M 118.30583269289576 110.29060199501025 l 16.717935099101236 9.397967258273281 a40.17840302437452,40.17840302437452 0 0,0 -0.3440955038913787,0.5999595149309571 l -16.55368759905748 -9.684346619062554" fill="#fff016" stroke="none" /><path d="M 118.12598468904814 110.60418214915192 l 13.976525685131849 8.17663849550684 a37.19261212137667,37.19261212137667 0 0,0 -0.3280372879817565,0.549809363326975 l -13.833707521451865 -8.416009952719918" fill="#ffca12" stroke="none" /><path d="M 117.75023020441432 111.22182372390056 l 26.022108914680942 16.451365182411486 a51.786321130212656,51.786321130212656 0 0,0 -0.4828338009947587,0.7493687814763275 l -25.735070250309132 -16.896855563809268" fill="#87ff25" stroke="none" /><path d="M 117.55443506779139 111.5257021239791 l 16.000732196214642 10.505588607491125 a40.141338062027614,40.141338062027614 0 0,0 -0.38420401405361787,0.5743328715249864 l -15.817525076750302 -10.779458393221919" fill="#ffef16" stroke="none" /><path d="M 116.27256486870786 113.27417163493432 l 23.868626324978862 19.470577938033433 a51.80283636099942,51.80283636099942 0 0,0 -0.5695943872673793,0.6861131325423543 l -23.52993593781794 -19.878552327689558" fill="#87ff25" stroke="none" /><path d="M 116.0416608686014 113.55231037782055 l 13.028676620719605 11.006882069290407 a38.055728286254805,38.055728286254805 0 0,0 -0.42705321068548263,0.49675936339756477 l -12.837280900463343 -11.229518531849498" fill="#ffd513" stroke="none" /><path d="M 113.75828350139079 115.86535959552629 l 9.625187366612401 11.099281296986334 a35.69143550344981,35.69143550344981 0 0,0 -0.4676164808344152,0.39851290968998854 l -9.432705409200938 -11.263318596899268" fill="#ffb711" stroke="none" /><path d="M 113.20401910651253 116.32954008644616 l 9.68840844932043 11.981749865009673 a36.40868547633194,36.40868547633194 0 0,0 -0.49072407733744555,0.3898608856800561 l -9.480726879265633 -12.146744664694856" fill="#ffc011" stroke="none" /><path d="M 112.92097659922987 116.55440617244103 l 11.788751109344005 15.103794409899887 a40.15983450592887,40.15983450592887 0 0,0 -0.5486048946765085,0.42064683952514065 l -11.527017486174003 -15.304480591252398" fill="#fff016" stroke="none" /><path d="M 112.63410532772338 116.77436683061366 l 18.60480034181859 24.701689407256826 a51.924295551095696,51.924295551095696 0 0,0 -0.7185705089322326,0.5315812839134022 l -18.176844862467792 -25.018280639909996" fill="#86ff25" stroke="none" /><path d="M 112.34349029814194 116.9893568818739 l 11.267683879976074 15.50863637798355 a40.16972880151379,40.16972880151379 0 0,0 -0.562897782571766,0.401612622001874 l -10.999058769555424 -15.700293261829643" fill="#fff016" stroke="none" /><path d="M 112.04921762599082 117.19931262002967 l 10.995343462702909 15.69498995284982 a40.16325357247199,40.16325357247199 0 0,0 -0.5696356460812462,0.39180059158981784 l -10.723550931998778 -15.881931333804731" fill="#fff016" stroke="none" /><path d="M 111.7513745106137 117.40417183066458 l 13.454866356030657 19.92709923485844 a45.04418251000731,45.04418251000731 0 0,0 -0.6463310411828568,0.42835297074153733 l -13.109860616107836 -20.155750226691296" fill="#d3ff1c" stroke="none" /><path d="M 111.45004920935366 117.60387380957326 l 12.991665684662356 19.97403147421662 a44.827406711495684,44.827406711495684 0 0,0 -0.6504631710493476,0.4151563713634601 l -12.64592071156608 -20.19470227440389" fill="#d6ff1c" stroke="none" /><line stroke="#e1ed5e" stroke-width="0.3" x1="143.8653032363475" x2="146.44561519142675" y1="172.8068346515853" y2="177.08958963109032" /><path d="M 144.38136562736335 173.6633856474863 a86.0,86.0 0 0,1 -40.68145358897372,12.25698825130547" fill="none" id="id30" stroke="none" /><text fill="#e1ed5e" style="font-size:6.75px; font-family:Arial;" text-anchor="middle"><textPath startOffset="21.466115282336833" xlink:href="#id30">June</textPath></text><path d="M 109.89434966115114 118.52300852407294 l 11.436337775183809 21.409732761482104 a45.27275177284554,45.27275177284554 0 0,0 -0.6905368695477214,0.3612562533593967 l -11.066110003109591 -21.603418433786217" fill="#d1ff1d" stroke="none" /><path d="M 109.2508944713604 118.85261126421891 l 6.5335745577686515 13.31492232288861 a35.83154587244631,35.83154587244631 0 0,0 -0.5560498517047049,0.2669377199120984 l -6.303412038063714 -13.425414319300268" fill="#ffb911" stroke="none" /><path d="M 108.92500713936063 119.00905698771935 l 6.547192858412104 13.944634464915467 a36.40514734383773,36.40514734383773 0 0,0 -0.5695360010120675,0.2614460440878028 l -6.306188861632617 -14.055267579337345" fill="#ffc011" stroke="none" /><path d="M 106.91757812671514 119.82793768551818 l 4.908267026087535 14.06862502373512 a35.900244805299145,35.900244805299145 0 0,0 -0.585225732943666,0.19854034291969605 l -4.665371560206642 -14.151028353552938" fill="#ffb911" stroke="none" /><path d="M 106.57524785965236 119.94407469862006 l 4.606305481519606 13.971868828218923 a35.71159980226601,35.71159980226601 0 0,0 -0.5854638830749895,0.18744704702055084 l -4.365120253353676 -14.049088721899182" fill="#ffb711" stroke="none" /><path d="M 106.2309692047433 120.05430185196036 l 4.515327983189479 14.532530551836617 a36.2178392367589,36.2178392367589 0 0,0 -0.5969476443591544,0.17985542840921767 l -4.264505364390079 -14.60810134935156" fill="#ffbe11" stroke="none" /><path d="M 105.53697534728816 120.25689768951611 l 5.038530148719137 18.433347328904816 a40.10955467318885,40.10955467318885 0 0,0 -0.6675558425168701,0.17630756532934244 l -4.720483863390769 -18.51734624353774" fill="#ffef16" stroke="none" /><path d="M 105.18746579009965 120.34920634021253 l 3.6363316076311594 14.264472326033728 a35.72066840536935,35.72066840536935 0 0,0 -0.5971249195467557,0.14675877724747877 l -3.390253403341193 -14.324952361595235" fill="#ffb711" stroke="none" /><path d="M 104.83641907484287 120.43548508189849 l 3.394518787054913 14.342975031653689 a35.73918893814412,35.73918893814412 0 0,0 -0.599873522749396,0.13652926075724808 l -3.147125114912655 -14.399281025988621" fill="#ffb711" stroke="none" /><path d="M 104.48393922423573 120.51570834832081 l 3.1464930336929617 14.396389016684484 a35.736228660372774,35.736228660372774 0 0,0 -0.602084896969146,0.1261727441216862 l -2.898216675294438 -14.448417741532712" fill="#ffb711" stroke="none" /><path d="M 104.13013068566511 120.58985236759428 l 2.8923904870062915 14.419372569394431 a35.706604911546684,35.706604911546684 0 0,0 -0.6036667198710531,0.11569416360218975 l -2.643756152563534 -14.46702393134509" fill="#ffb711" stroke="none" /><path d="M 103.7750983002368 120.6578951692458 l 2.647088730148521 14.485260287836713 a35.72514327100618,35.72514327100618 0 0,0 -0.6058831676322488,0.10534055494673399 l -2.3973565910442223 -14.528679421304453" fill="#ffb711" stroke="none" /><path d="M 103.41894727170886 120.7198165907248 l 2.3713705588515497 14.371196495080868 a35.56553078427328,35.56553078427328 0 0,0 -0.6048920041842697,0.09447169082120858 l -2.1236426910587625 -14.409886493249184" fill="#ffb510" stroke="none" /><path d="M 103.06178313531738 120.77559828337769 l 2.1462359842678143 14.56319231631531 a35.72049249658962,35.72049249658962 0 0,0 -0.6090708129406713,0.08441166480768997 l -1.8952365801403124 -14.597978546615604" fill="#ffb711" stroke="none" /><path d="M 102.70371172650421 120.8252237178851 l 0.28274206360006104 2.1778086292287275 a23.19608595006478,23.19608595006478 0 0,0 -0.39640186381054376,0.04799874526673243 l -0.24521277673813696 -2.182352903220811" fill="#ff0a01" stroke="none" /><path d="M 102.34483914955558 120.86867818915974 l 1.6452992434726208 14.642889446555673 a35.73503379516393,35.73503379516393 0 0,0 -0.6118644434256253,0.06342225132383696 l -1.393002203441393 -14.669041066335268" fill="#ffb711" stroke="none" /><path d="M 101.98527174616119 120.90594882070398 l 1.3923849935896748 14.66254152409547 a35.72850501293996,35.72850501293996 0 0,0 -0.6127535285242924,0.052870952773458664 l -1.1397871473238408 -14.684336729147592" fill="#ffb711" stroke="none" /><path d="M 101.62511606390274 120.93702456842531 l 1.1400193420459113 14.687328187240116 a35.73150546889003,35.73150546889003 0 0,0 -0.6136243564530025,0.04231912828270026 l -0.8870322248139786 -14.7047756600391" fill="#ffb711" stroke="none" /><path d="M 101.26447882468166 120.96189622390904 l 0.886219055550365 14.691295347531192 a35.71800065235806,35.71800065235806 0 0,0 -0.6140297337103037,0.0317383235352762 l -0.6332012534265816 -14.70437347782867" fill="#ffb711" stroke="none" /><path d="M 100.90346689309514 120.98055641714683 l 0.6308286308654559 14.649275784840986 a35.66285189797156,35.66285189797156 0 0,0 -0.6135363139037201,0.021131431184134474 l -0.3785719652870835 -14.657964014451215" fill="#ffb610" stroke="none" /><line stroke="#e1ed5e" stroke-width="0.3" x1="102.19456741930631" x2="102.32365962044197" y1="184.97166512339345" y2="189.96999836594603" /><path d="M 102.22038585953345 185.97133177190398 a86.0,86.0 0 0,1 -42.740103519485714,-10.115201625700543" fill="none" id="id31" stroke="none" /><text fill="#e1ed5e" style="font-size:6.75px; font-family:Arial;" text-anchor="middle"><textPath startOffset="22.20632615414155" xlink:href="#id31">July</textPath></text><path d="M 100.54218724476979 120.99299961872073 l 0.30369840607832826 11.758927537506729 a32.76284870064172,32.76284870064172 0 0,0 -0.5638959140171211,0.00970797954472369 l -0.10124280216853916 -11.762412994330612" fill="#ff900d" stroke="none" /><path d="M 99.81925306533755 120.99922214144158 l -0.10141413816292207 11.782318851178259 a32.782755294847206,32.782755294847206 0 0,0 -0.5642385352353503,-0.009713878079711224 l 0.30421236329094026 -11.778827495819387" fill="#ff900d" stroke="none" /><path d="M 99.45781275523022 120.99299961872073 l -0.3041655626920633 11.777015418969816 a32.780942613737686,32.780942613737686 0 0,0 -0.5639565437745171,-0.019423803653590005 l 0.5068424581412234 -11.770034816890131" fill="#ff900d" stroke="none" /><path d="M 99.09653310690486 120.98055641714683 l -0.5087424401327137 11.814156720712708 a32.825105407223795,32.825105407223795 0 0,0 -0.5642978432186996,-0.02916775285475655 l 0.7120283517649023 -11.80364916109575" fill="#ff910d" stroke="none" /><path d="M 98.73552117531835 120.96189622390904 l -0.7089559299573784 11.752716092207384 a32.77407975404669,32.77407975404669 0 0,0 -0.56283588764336,-0.03881645811611632 l 0.9111545783796685 -11.738771289574983" fill="#ff900d" stroke="none" /><path d="M 93.42475214034765 119.94407469862007 l -5.519682313831558 16.74232800488362 a38.62873903229426,38.62873903229426 0 0,0 -0.6297041213915955,-0.21362982719535928 l 5.807056168160379 -16.644835190790136" fill="#ffdc14" stroke="none" /><path d="M 93.08242187328487 119.8279376855182 l -3.885327820325954 11.13656203053473 a32.794862700826435,32.794862700826435 0 0,0 -0.5314023947107147,-0.19054199235165734 l 4.076449775666395 -11.068032497143115" fill="#ff910d" stroke="none" /><path d="M 91.7346041902142 119.30500536409082 l -4.63942784795984 10.836042405269659 a32.78745544064653,32.78745544064653 0 0,0 -0.5169166012846932,-0.22660104722459418 l 4.825265123902276 -10.754576804750613" fill="#ff900d" stroke="none" /><path d="M 90.10565033884886 118.52300852407294 l -7.613013470497334 14.252165957059779 a37.15803851244165,37.15803851244165 0 0,0 -0.5615768466454997,-0.30621647270707963 l 7.857213129011474 -14.119008832592932" fill="#ffca12" stroke="none" /><line stroke="#e1ed5e" stroke-width="0.3" x1="58.666819895761336" x2="56.23545636021788" y1="174.27360380694188" y2="178.64263932499728" /><path d="M 58.180547188652646 175.14741091055294 a86.0,86.0 0 0,1 -31.652253787137756,-30.449443065178592" fill="none" id="id32" stroke="none" /><text fill="#e1ed5e" style="font-size:6.75px; font-family:Arial;" text-anchor="middle"><textPath startOffset="22.20632615414155" xlink:href="#id32">August</textPath></text><path d="M 89.4739219176387 118.17145234162733 l -5.853060308562696 10.104295789705795 a32.67711901033548,32.67711901033548 0 0,0 -0.48429377705931614,-0.28612929985464514 l 6.026121956650395 -10.0020479175574" fill="#ff8f0d" stroke="none" /><path d="M 88.54995079064634 117.60387380957326 l -6.434286887037088 9.892391931509138 a32.80082479622863,32.80082479622863 0 0,0 -0.4706532577762535,-0.3119233153163719 l 6.603614843553304 -9.780170595101449" fill="#ff910d" stroke="none" /><path d="M 88.24862548938628 117.40417183066458 l -6.602415938266608 9.778394976972736 a32.79868232251223,32.79868232251223 0 0,0 -0.4651838915810085,-0.3199577224026032 l 6.769756714470507 -9.66329646520503" fill="#ff910d" stroke="none" /><path d="M 87.95078237400918 117.19931262002967 l -6.771025259235442 9.665107213310165 a32.800893207973054,32.800893207973054 0 0,0 -0.45963840444064413,-0.3279397974118532 l 6.936390991524973 -9.547123154054093" fill="#ff910d" stroke="none" /><path d="M 87.65650970185807 116.9893568818739 l -7.3461444677852645 10.111100430628973 a33.498007459584805,33.498007459584805 0 0,0 -0.463572591846971,-0.34293992099294357 l 7.5191020300508 -9.983150560896263" fill="#ff9a0e" stroke="none" /><path d="M 87.36589467227662 116.77436683061367 l -7.1073270189803575 9.436434754101555 a32.81356839499158,32.81356839499158 0 0,0 -0.44825095657796055,-0.34369971910262204 l 7.268706704051804 -9.312695693171564" fill="#ff910d" stroke="none" /><path d="M 86.79598089348748 116.32954008644616 l -8.157050879593152 10.087904921297756 a33.97317635559676,33.97317635559676 0 0,0 -0.4515680166222068,-0.3716097350860187 l 8.329489024760047 -9.946000067354557" fill="#ffa00e" stroke="none" /><path d="M 86.51685102203217 116.09983520530335 l -7.574961337491623 9.0450405479789 a32.79799973635681,32.79799973635681 0 0,0 -0.4297077155565883,-0.36620623750713044 l 7.729534529625268 -8.913309920248818" fill="#ff910d" stroke="none" /><path d="M 86.24171649860922 115.8653595955263 l -8.513142254070662 9.816926881543555 a33.9940618913262,33.9940618913262 0 0,0 -0.43877859197193864,-0.38717109150313167 l 8.680863198949188 -9.668932648268134" fill="#ffa10e" stroke="none" /><path d="M 85.97065885151581 115.62618273729859 l -8.863233283269423 9.872060381298738 a34.26704490101933,34.26704490101933 0 0,0 -0.43551855821531343,-0.3978358768843382 l 9.03185139095159 -9.718031737827824" fill="#ffa40f" stroke="none" /><path d="M 85.70375840098266 115.38237550388516 l -9.02255853066088 9.708032867459917 a34.253394455568106,34.253394455568106 0 0,0 -0.4284352035216197,-0.4051122265067663 l 9.188329568573318 -9.551286004207219" fill="#ffa40f" stroke="none" /><path d="M 85.44109423537348 115.13401014063109 l -10.21327287536972 10.616716514535591 a35.73178917771958,35.73178917771958 0 0,0 -0.4395861636077111,-0.4302275817132778 l 10.394508991353225 -10.439338829899745" fill="#ffb711" stroke="none" /><path d="M 85.18274418774928 114.88116024355367 l -13.515944647042724 13.574236733454372 a40.155695304472374,40.155695304472374 0 0,0 -0.48561501333258394,-0.4919254446615003 l 13.747600285430842 -13.339570794812207" fill="#ffef16" stroke="none" /><path d="M 84.67929136418377 114.36230785411682 l -9.665392895710086 9.060765503669943 a34.248293903025335,34.248293903025335 0 0,0 -0.399487743407811,-0.43356504568162196 l 9.819927047113627 -8.893049203186978" fill="#ffa40f" stroke="none" /><path d="M 84.43433777217949 114.09645910891817 l -9.073224554469462 8.216826052509015 a33.2409000564917,33.2409000564917 0 0,0 -0.3804360075381824,-0.42742388744357745 l 9.213319411655982 -8.059427995324572" fill="#ff970d" stroke="none" /><path d="M 83.95833913139862 113.55231037782056 l -11.242122991681068 9.497566451308348 a35.71696632656003,35.71696632656003 0 0,0 -0.3927233522128845,-0.4730605768466444 l 11.403942343787488 -9.302644617347942" fill="#ffb711" stroke="none" /><path d="M 83.72743513129214 113.27417163493432 l -9.277120583499592 7.5677123979493635 a32.972269511620105,32.972269511620105 0 0,0 -0.35497331121318687,-0.4428837853801992 l 9.40601180676764 -7.406900778990904" fill="#ff930d" stroke="none" /><path d="M 83.50135304334701 112.99209946851258 l -10.19374014421301 8.027208913418217 a33.97491506975675,33.97491506975675 0 0,0 -0.3578580761440622,-0.46257980317032044 l 10.33040503757514 -7.850551116134644" fill="#ffa00e" stroke="none" /><path d="M 83.06392112726016 112.41649034213515 l -11.833495243402734 8.675590170987585 a35.67301858823097,35.67301858823097 0 0,0 -0.3588029710854742,-0.49834594504304036 l 11.981078006863815 -8.470610620493405" fill="#ffb710" stroke="none" /><path d="M 82.85270091963577 112.12312394758628 l -6.532836873297523 4.61870938234464 a29.000652096652757,29.000652096652757 0 0,0 -0.2846746721385981,-0.41009509725597953 l 6.611372452598255 -4.505573022901649" fill="#ff5d08" stroke="none" /><path d="M 82.6465618267979 111.8261652097733 l -10.304622210320247 7.022479549426363 a33.46998227422705,33.46998227422705 0 0,0 -0.3203505951941684,-0.47888067407574936 l 10.423975910925146 -6.844061961144793" fill="#ff9a0e" stroke="none" /><path d="M 82.44556493220864 111.52570212397912 l -12.196263871343266 8.007691723698226 a35.59013293843542,35.59013293843542 0 0,0 -0.33182737814809854,-0.5150034598054628 l 12.33229611286841 -7.796566663971316" fill="#ffb510" stroke="none" /><path d="M 82.24976979558568 111.22182372390057 l -13.676870303005183 8.646616177226013 a37.1808761382532,37.1808761382532 0 0,0 -0.33734626821253205,-0.5439095977488139 l 13.82368121088567 -8.409910248111936" fill="#ffca12" stroke="none" /><path d="M 82.05923443525364 110.91462005526583 l -13.270635548251553 8.073453965960551 a36.533525897071854,36.533525897071854 0 0,0 -0.32222417496721983,-0.5400662515449771 l 13.407640598917004 -7.843825620529464" fill="#ffc212" stroke="none" /><line stroke="#e1ed5e" stroke-width="0.3" x1="26.63291911575756" x2="22.317208475507996" y1="142.92168965132927" y2="145.44649492493687" /><path d="M 25.769776987707644 143.4266507060508 a86.0,86.0 0 0,1 -11.730757126820373,-40.83630448921669" fill="none" id="id33" stroke="none" /><text fill="#e1ed5e" style="font-size:6.75px; font-family:Arial;" text-anchor="middle"><textPath startOffset="21.46611528233685" xlink:href="#id33">September</textPath></text><path d="M 81.69416730710424 110.29060199501025 l -11.296307165402395 6.350205587624093 a33.95884510981645,33.95884510981645 0 0,0 -0.28205827118733307,-0.5120176915680867 l 11.403941846041244 -6.154817377658184" fill="#ffa00e" stroke="none" /><path d="M 81.51974371655577 109.97397251340807 l -12.831006339855932 6.925017845544528 a35.580486818159855,35.580486818159855 0 0,0 -0.28624923828883864,-0.5414756830004717 l 12.948308086369655 -6.70312714745793" fill="#ffb510" stroke="none" /><path d="M 81.35079622478065 109.6543875284942 l -11.801948313119178 6.10967545743227 a34.289624455968905,34.289624455968905 0 0,0 -0.26684076386303807,-0.5265021422916089 l 11.905367746768484 -5.905619103437976" fill="#ffa40f" stroke="none" /><path d="M 81.18737489456691 109.33194174019688 l -11.839918834943884 5.873153382748626 a34.2165656914098,34.2165656914098 0 0,0 -0.25718921258178923,-0.5298859548469428 l 11.939261304140391 -5.668478471936399" fill="#ffa30f" stroke="none" /><path d="M 80.73074385275274 108.34839909993369 l -15.151569411913524 6.564412630898146 a37.51246707287341,37.51246707287341 0 0,0 -0.25159972287000604,-0.5947074235080466 l 15.262320115975836 -6.302630681723941" fill="#ffce13" stroke="none" /><path d="M 80.58989483394504 108.01547362559985 l -9.058825007838779 3.740874781876001 a30.800839487325618,30.800839487325618 0 0,0 -0.19814823301978624,-0.49178766433678867 l 9.121875855115952 -3.584387749696407" fill="#ff760a" stroke="none" /><path d="M 80.45479744820244 107.68017299344265 l -29.160543712207158 11.45846504783344 a52.33103462772918,52.33103462772918 0 0,0 -0.3222239110550259,-0.8412249530266345 l 29.353461902855692 -10.954816527973648" fill="#81ff25" stroke="none" /><path d="M 80.20201598880116 107.00284435728193 l -18.124896821636895 6.4110482846092225 a40.22533289445398,40.22533289445398 0 0,0 -0.22527942746422625,-0.6547674671735425 l 18.23256708004435 -6.098108114346383" fill="#fff016" stroke="none" /><path d="M 80.0844068197444 106.66101706037122 l -14.315841474357333 4.7881106744439075 a36.09534103455941,36.09534103455941 0 0,0 -0.19200615694149709,-0.5909341882551361 l 14.39613988231508 -4.540977586210968" fill="#ffbc11" stroke="none" /><path d="M 79.76711848015287 105.62410040840567 l -14.18490149120083 3.942953463726881 a35.72271416323048,35.72271416323048 0 0,0 -0.159581739711694,-0.5938630193315405 l 14.250671307254297 -3.698199511219802" fill="#ffb711" stroke="none" /><path d="M 79.67330655649465 105.27499134158121 l -12.739269726665588 3.3059748597576153 a34.16124853279839,34.16124853279839 0 0,0 -0.14280814813020146,-0.5704475634228138 l 12.794289189090849 -3.0861994569374094" fill="#ffa30f" stroke="none" /><path d="M 79.50377843672027 104.57218783832718 l -14.52901003876656 3.241054103415544 a35.88611985736532,35.88611985736532 0 0,0 -0.1293027502598801,-0.6040594021120871 l 14.58264682775088 -2.9904808818872928" fill="#ffb911" stroke="none" /><path d="M 79.35854240842038 103.8639653848113 l -14.236644261172758 2.665020160372996 a35.48393497204326,35.48393497204326 0 0,0 -0.107218186370525,-0.6013365288929602 l 14.280408889882473 -2.419564880746822" fill="#ffb410" stroke="none" /><path d="M 79.23777060512086 103.15116336523772 l -31.00834054921328 4.706255041166067 a52.36345038621366,52.36345038621366 0 0,0 -0.12758217290742174,-0.8923094201636285 l 31.0847567731373 -4.1718001490220376" fill="#81ff25" stroke="none" /><path d="M 79.1416061653843 102.43462659150553 l -14.641278032548048 1.7089544436787183 a35.740676637011724,35.740676637011724 0 0,0 -0.06606527665923428,-0.6116824115080309 l 14.668525610708334 -1.4566757102859054" fill="#ffb711" stroke="none" /><path d="M 79.10278846688536 102.07522291339032 l -14.666527359926215 1.4564772715706162 a35.73866855730415,35.73866855730415 0 0,0 -0.055523261438182925,-0.6126945632916028 l 14.689425217641475 -1.2038013197304474" fill="#ffb711" stroke="none" /><path d="M 79.0235259727143 100.99374915477108 l -14.94493701225246 0.7080083385183986 a35.96169836975753,35.96169836975753 0 0,0 -0.02397081315357392,-0.6185801755798133 l 14.954909958257234 -0.45065091592458856" fill="#ffba11" stroke="none" /><line stroke="#e1ed5e" stroke-width="0.3" x1="15.007084014347285" x2="10.007500721073583" y1="101.09737516637583" y2="101.16192664675087" /><path d="M 14.007167355692545 101.11028546245083 a86.0,86.0 0 0,1 10.666146001902534,-42.60595125391555" fill="none" id="id34" stroke="none" /><text fill="#e1ed5e" style="font-size:6.75px; font-family:Arial;" text-anchor="middle"><textPath startOffset="22.20632615414155" xlink:href="#id34">October</textPath></text><path d="M 79.00175016825051 100.2711162175752 l -20.58828551745583 0.26582301575492434 a41.59000151588111,41.59000151588111 0 0,0 -0.0030810322898966683,-0.7159233975945617 l 20.58981084703523 0.0886098600433127" fill="#fdff18" stroke="none" /><path d="M 79.00019446554 99.90962569577889 l -14.823710732028262 -0.06379499758623156 a35.82384800477146,35.82384800477146 0 0,0 0.007961411602586113,-0.6166201024036947 l 14.820416313307959 0.3189513580503982" fill="#ffb811" stroke="none" /><path d="M 79.00486145842228 99.54816195383935 l -20.560866677985935 -0.44249204684946175 a41.56562758005302,41.56562758005302 0 0,0 0.021551393011165893,-0.7151858136041973 l 20.55020359051912 0.7963480078786535" fill="#fdff18" stroke="none" /><path d="M 79.01574976396665 99.18683210126434 l -17.380093281707936 -0.673501972896204 a38.39313793966932,38.39313793966932 0 0,0 0.03127466946387161,-0.6601588424716839 l 17.365925004010567 0.9725719219908969" fill="#ffd914" stroke="none" /><path d="M 79.05617556472873 98.46500227214037 l -14.658299340475896 -1.0743241403429684 a35.69761585814243,35.69761585814243 0 0,0 0.05019002545833152,-0.6124454372643632 l 14.637634831198067 1.3264834948151099" fill="#ffb711" stroke="none" /><path d="M 79.08570108090925 98.10471618934814 l -21.912588152677326 -1.9857502150044093 a43.002379950024604,43.002379950024604 0 0,0 0.07315088639617993,-0.7366194431413833 l 21.87516014059892 2.3626451888502227" fill="#ecff1a" stroke="none" /><path d="M 79.16333360222342 97.38593545837743 l -14.777337334193454 -1.8538912514831245 a35.893173317358304,35.893173317358304 0 0,0 0.0821851133147233,-0.6123745545096982 l 14.743236221820897 2.107984148057482" fill="#ffb911" stroke="none" /><path d="M 79.21141760316559 97.0276538004421 l -14.570950896785282 -2.0833508363032767 a35.719135869461,35.719135869461 0 0,0 0.09226441011233737,-0.6079071840158488 l 14.532930593233642 2.3338571327112176" fill="#ffb711" stroke="none" /><path d="M 79.26566170972629 96.67025291283419 l -14.317882997892971 -2.2993224350438455 a35.50133294568636,35.50133294568636 0 0,0 0.10208854334003697,-0.6025323616940061 l 14.27618259303271 2.54544058505368" fill="#ffb410" stroke="none" /><path d="M 79.32604984820605 96.31383870115002 l -14.28464526410595 -2.54694947766327 a35.509929081946396,35.509929081946396 0 0,0 0.11247224889989603,-0.6008312509792807 l 14.238687291296195 2.7924588061051234" fill="#ffb410" stroke="none" /><path d="M 79.3925641242962 95.95851677861259 l -10.50189598945511 -2.059607837197213 a31.701953271079887,31.701953271079887 0 0,0 0.10962943654360773,-0.5345920666885543 l 10.464887256996507 2.24007556004917" fill="#ff820c" stroke="none" /><path d="M 79.46518482838121 95.60439243477599 l -16.062103023586772 -3.4381951322096898 a37.42596539955767,37.42596539955767 0 0,0 0.14026826422917704,-0.6287951246967537 l 16.000540372355555 3.7141684264564025" fill="#ffcd13" stroke="none" /><path d="M 79.54389044137918 95.25157060432595 l -14.353848508999828 -3.331925653109485 a35.735491019208204,35.735491019208204 0 0,0 0.14424750023824198,-0.5979990141929884 l 14.29436820850077 3.57850989896187" fill="#ffb711" stroke="none" /><path d="M 79.62865764111835 94.90015583598534 l -14.374094088783796 -3.5984687979936294 a35.81767723239182,35.81767723239182 0 0,0 0.1548750703136455,-0.5967968234357608 l 14.310022686599844 3.845362046978254" fill="#ffb811" stroke="none" /><path d="M 79.81627453868168 94.20196356495316 l -13.906319806021964 -3.994770393961877 a35.46872216361324,35.46872216361324 0 0,0 0.17361787978108284,-0.5853531805504789 l 13.835496029129175 4.233552961258895" fill="#ffb410" stroke="none" /><path d="M 80.02781315780177 93.51064311812611 l -16.037933913167393 -5.211040615269773 a37.863281664525324,37.863281664525324 0 0,0 0.2067383972541002,-0.6181214936298738 l 15.945858222141522 5.486335211821969" fill="#ffd313" stroke="none" /><path d="M 80.14247586403 93.16781622104843 l -21.371523444673926 -7.353090687962137 a43.601105216596,43.601105216596 0 0,0 0.25028470986418994,-0.7075885784875707 l 21.241785653999926 7.719876892876319" fill="#e5ff1a" stroke="none" /><path d="M 80.2630227832202 92.82701384747504 l -13.940360779387772 -5.0663287358278195 a35.83244233155712,35.83244233155712 0 0,0 0.21566934730899337,-0.5778866267347046 l 13.851086843577152 5.305538499591866" fill="#ffb911" stroke="none" /><path d="M 80.38941819471856 92.48833698450439 l -13.895179991970789 -5.322427997074089 a35.87965949856728,35.87965949856728 0 0,0 0.2258820197028211,-0.5748451020140064 l 13.801504422386277 5.56082210398386" fill="#ffb911" stroke="none" /><path d="M 80.52162464483688 92.15188598940014 l -13.821186271749092 -5.568752200561338 a35.90087886769241,35.90087886769241 0 0,0 0.23588298597462282,-0.5712093606081603 l 13.723281598888269 5.80583613162281" fill="#ffb911" stroke="none" /><path d="M 80.65960295795068 91.81776055985345 l -13.779625360502397 -5.829673188715433 a35.962057497651465,35.962057497651465 0 0,0 0.2460991312182949,-0.568030725447471 l 13.677235519441421 6.066003058749503" fill="#ffba11" stroke="none" /><path d="M 80.95270993114464 91.15688171328213 l -57.141870206566075 -26.529354860153617 a84.0,84.0 0 0,0 0.6201672246329939,-1.3062303374378712 l 56.676744788091334 27.50902761323202" fill="#4dd2ff" stroke="none" /><path d="M 81.10775173730289 90.83032412892265 l -13.445970515738704 -6.526231800840445 a35.946097304260256,35.946097304260256 0 0,0 0.27497050501579673,-0.554323759184191 l 13.331639997769495 6.756715148523598" fill="#ffba11" stroke="none" /><path d="M 81.26839172434947 90.50648371742162 l -13.38195677216325 -6.782216595594476 a36.00250742381429,36.00250742381429 0 0,0 0.2849179579248048,-0.5503708071461507 l 13.26322938107833 7.011560125000963" fill="#ffbb11" stroke="none" /><path d="M 81.43458229118936 90.18545643968196 l -13.30401427521059 -7.033120917563904 a36.04864065874663,36.04864065874663 0 0,0 0.29472664929954706,-0.546083719931501 l 13.180979526692573 7.261085620827878" fill="#ffbb11" stroke="none" /><line stroke="#e1ed5e" stroke-width="0.3" x1="26.266209847984243" x2="21.928928074336255" y1="57.711370442889674" y2="55.22380399835377" /><path d="M 25.398753493254645 57.213857153982495 a86.0,86.0 0 0,1 29.58750427330803,-30.492523968695096" fill="none" id="id35" stroke="none" /><text fill="#e1ed5e" style="font-size:6.75px; font-family:Arial;" text-anchor="middle"><textPath startOffset="21.46611528233685" xlink:href="#id35">November</textPath></text><path d="M 81.78341655067845 89.55222093294921 l -12.995945730282912 -7.45358042220781 a35.98167101944166,35.98167101944166 0 0,0 0.31276694957097884,-0.5346201017131014 l 12.865719106241608 7.676179936274803" fill="#ffbb11" stroke="none" /><path d="M 81.96595687620814 89.24020034530311 l -12.29238378667928 -7.334106163294096 a35.31404248888077,35.31404248888077 0 0,0 0.31595003249095144,-0.5193387799476684 l 12.164317955902112 7.544612716448839" fill="#ffb210" stroke="none" /><path d="M 82.34701348167596 88.62581576622439 l -13.627332879400141 -8.78037235367472 a37.21108078060052,37.21108078060052 0 0,0 0.35156207756377955,-0.5354531634173948 l 13.474174166478441 9.013643581069783" fill="#ffca12" stroke="none" /><path d="M 82.54541684631803 88.32363383020206 l -13.423763227763533 -8.97992082904437 a37.15043025095497,37.15043025095497 0 0,0 0.36013898518925475,-0.5284595219485625 l 13.267199776905537 9.20965837426335" fill="#ffca12" stroke="none" /><path d="M 82.7489923806493 88.02491185347247 l -12.077037367425998 -8.383486357145111 a35.70162151174632,35.70162151174632 0 0,0 0.3547846600971354,-0.5018177412120071 l 11.930940087524984 8.590130598688905" fill="#ffb711" stroke="none" /><path d="M 82.95767976084542 87.72973835380427 l -11.822558705496082 -8.512097332302115 a35.56807109192861,35.56807109192861 0 0,0 0.36201079014848475,-0.4937823109266288 l 11.674285302833965 8.714342086900245" fill="#ffb510" stroke="none" /><path d="M 83.39014120810768 87.1503855733568 l -11.614150540227934 -8.984866048817057 a35.683879279204874,35.683879279204874 0 0,0 0.38002638044626286,-0.4825949108835915 l 11.4577700791877 9.183453353653697" fill="#ffb710" stroke="none" /><path d="M 83.6137871275137 86.86637796730984 l -12.776172200185517 -10.240158480031997 a37.37349754282708,37.37349754282708 0 0,0 0.40666193071024886,-0.4985194428028241 l 12.598011777398876 10.458562092442904" fill="#ffcc13" stroke="none" /><path d="M 85.31137513191541 84.99185889309783 l -14.895680217622369 -15.219700455085544 a42.296022424110035,42.296022424110035 0 0,0 0.5247058366678655,-0.5047665991505916 l 14.631491137342074 15.473850140998449" fill="#f4ff19" stroke="none" /><path d="M 85.57189188830299 84.74124197986013 l -11.342370414204419 -11.995369329456908 a37.50873259711645,37.50873259711645 0 0,0 0.4729531752649203,-0.439558432109654 l 11.134209355144643 12.18883234764121" fill="#ffce13" stroke="none" /><path d="M 86.10567301691215 84.25364557470407 l -9.462395646249123 -10.723674182965201 a35.30154255136657,35.30154255136657 0 0,0 0.45909858038633394,-0.39812576487849183 l 9.276403267216015 10.884964941263373" fill="#ffb210" stroke="none" /><path d="M 86.37877921826538 84.01681056812374 l -9.276465844341853 -10.885038369487791 a35.30163902727455,35.30163902727455 0 0,0 0.4658849137809173,-0.3901652171586593 l 9.087723393601825 11.043104744040262" fill="#ffb210" stroke="none" /><path d="M 86.93701828274178 83.55741782278169 l -9.140866106139168 -11.505753079526546 a35.69482177834758,35.69482177834758 0 0,0 0.48437438839120933,-0.37806189315857586 l 8.941459162588533 11.661393361908342" fill="#ffb711" stroke="none" /><path d="M 87.22198572758235 83.33499621200491 l -26.82953437401664 -34.990905663508535 a65.09294040863111,65.09294040863111 0 0,0 0.8950398526746739,-0.674125460912442 l 26.223248367583576 35.44754771392683" fill="#35ff68" stroke="none" /><path d="M 87.80319425747018 82.90503203632743 l -8.517119653504022 -11.937542557697352 a35.664455308975505,35.664455308975505 0 0,0 0.5028159352713264,-0.3522546955071189 l 8.310372578649034 12.082382095968413" fill="#ffb610" stroke="none" /><path d="M 88.09926311788651 82.69761687909137 l -8.299627281839243 -12.066759597631329 a35.645494194614194,35.645494194614194 0 0,0 0.5085344155364457,-0.3433647074189299 l 8.090688171896257 12.207836217348925" fill="#ffb610" stroke="none" /><path d="M 88.39885842347998 82.49532879139004 l -5.829340963267728 -8.795746198926418 a31.55207881234592,31.55207881234592 0 0,0 0.45530096596160763,-0.2961404132817391 l 5.6770729715218335 8.894785536367692" fill="#ff800b" stroke="none" /><path d="M 89.00827224532344 82.1063720568725 l -5.956682683829177 -9.696989053823767 a32.38040707996899,32.38040707996899 0 0,0 0.4774382068225239,-0.28765117751801644 l 5.788882410789004 9.798086840800401" fill="#ff8b0c" stroke="none" /><line stroke="#e1ed5e" stroke-width="0.3" x1="56.762969772571076" x2="54.21961505331055" y1="26.818313649435495" y2="22.513508569990535" /><path d="M 56.25429882871897 25.957352633546506 a86.0,86.0 0 0,1 42.265352541879196,-11.944610805530505" fill="none" id="id36" stroke="none" /><text fill="#e1ed5e" style="font-size:6.75px; font-family:Arial;" text-anchor="middle"><textPath startOffset="22.20632615414155" xlink:href="#id36">December</textPath></text><path d="M 89.3179101791058 81.91981866633112 l -7.502485310746731 -12.698479150228016 a35.749191793679614,35.749191793679614 0 0,0 0.5324982859422355,-0.3084573776038375 l 7.282790292339175 12.8257406852219" fill="#ffb811" stroke="none" /><path d="M 89.63071344664047 81.73862282372117 l -5.4281879031758535 -9.55959565525679 a31.993229416517657,31.993229416517657 0 0,0 0.4812328802604544,-0.2678055768451602 l 5.262830933843353 9.651616629662135" fill="#ff860c" stroke="none" /><path d="M 89.94658935756843 81.56283822128135 l -7.165739328631174 -13.141400462494731 a35.9681069692045,35.9681069692045 0 0,0 0.5461242416252684,-0.29172065639601 l 6.9384700404776005 13.26279984539249" fill="#ffba11" stroke="none" /><path d="M 90.26544431104013 81.39251694778311 l -6.967460451185104 -13.318214657650277 a36.030646919081,36.030646919081 0 0,0 0.5520229891241206,-0.28276761571859543 l 6.737176974472219 13.436174798681376" fill="#ffbb11" stroke="none" /><path d="M 90.58718382345135 81.22770947309562 l -6.90003231605599 -13.760962591062311 a36.393977309169756,36.393977309169756 0 0,0 0.5624233973617222,-0.2759787185073991 l 6.6621376516838415 13.87769646970454" fill="#ffc011" stroke="none" /><path d="M 90.91171255644093 81.06846463323043 l -6.478139470447175 -13.49441545035563 a35.96881890281803,35.96881890281803 0 0,0 0.5604657742295509,-0.2631461960263272 l 6.244895484918016 13.603926629021965" fill="#ffba11" stroke="none" /><path d="M 91.56875222667455 80.76684994638697 l -5.9635522082747725 -13.603905087119141 a35.85362543489518,35.85362543489518 0 0,0 0.5673686701961044,-0.24291765481534963 l 5.7284997802883595 13.704542269897278" fill="#ffb911" stroke="none" /><path d="M 91.90106846888425 80.62456947434976 l -5.725394569572361 -13.697113537568304 a35.84557382650888,35.84557382650888 0 0,0 0.571337703028242,-0.23306299450060433 l 5.488772996955738 13.793637418252485" fill="#ffb911" stroke="none" /><path d="M 93.25333710446033 80.11325718540243 l -4.79879518651818 -14.145127327661179 a35.93696965110049,35.93696965110049 0 0,0 0.5875132856083813,-0.19369389315319066 l 4.5545990786673896 14.225634945073603" fill="#ffba11" stroke="none" /><path d="M 93.59665428221793 80.00007090966166 l -4.5133829168640105 -14.096902193513063 a35.80179978271944,35.80179978271944 0 0,0 0.5885383318226954,-0.18286172455511068 l 4.270059212330587 14.1725040529507" fill="#ffb811" stroke="none" /><path d="M 93.94186890950719 79.89281104454417 l -4.232934326370446 -14.04928501298609 a35.673109499607804,35.673109499607804 0 0,0 0.5894722838374978,-0.17208312404650047 l 3.9904718248095277 14.12006646595129" fill="#ffb710" stroke="none" /><path d="M 94.28887869178378 79.79150937346287 l -4.055016091231314 -14.348452825229794 a35.910441106083674,35.910441106083674 0 0,0 0.5962879339332656,-0.16298801725116235 l 3.8074302680743264 14.416127383307252" fill="#ffba11" stroke="none" /><path d="M 95.33964822691252 79.52364482259891 l -3.2764541634519437 -14.395874483283809 a35.764022284718465,35.764022284718465 0 0,0 0.6014440325420926,-0.13145237019899206 l 3.0281674067563302 14.45014035157867" fill="#ffb811" stroke="none" /><path d="M 95.692805502759 79.44645832069477 l -3.1064541844892974 -14.823717757963207 a36.145714435710346,36.145714435710346 0 0,0 0.6100597785630656,-0.12237225243532683 l 2.8508279964590955 14.874993966475744" fill="#ffbd11" stroke="none" /><path d="M 96.04723909329186 79.375362276772 l -2.250989777107767 -11.745169962784546 a32.958928565358185,32.958928565358185 0 0,0 0.5581121810029804,-0.10199143371501297 l 2.0484824750018933 11.782176877850295" fill="#ff930d" stroke="none" /><path d="M 96.40284397218896 79.31037775812273 l -2.533757820528168 -14.57331618473902 a35.79193947099108,35.79193947099108 0 0,0 0.6079018792832067,-0.10030901878602358 l 2.2825267351060754 14.61477146646467" fill="#ffb811" stroke="none" /><path d="M 96.75951476605007 79.25152402106235 l -2.26205239639776 -14.483676493272554 a35.659255295062735,35.659255295062735 0 0,0 0.6072788489680185,-0.08949711641723718 l 2.012404567001093 14.520468093850761" fill="#ffb610" stroke="none" /><path d="M 97.83486435360386 79.11191278185805 l -1.314503304492023 -12.681634852055554 a33.74957965810601,33.74957965810601 0 0,0 0.5783631281056593,-0.05492254798368152 l 1.0960150492961274 12.702382944554415" fill="#ff9d0e" stroke="none" /><path d="M 98.19473922651362 79.07773832637324 l -1.2937379861639193 -14.993913943722351 a36.049625022856716,36.049625022856716 0 0,0 0.6186970727641261,-0.04802280039136521 l 1.0354507240374589 15.013962006302178" fill="#ffbb11" stroke="none" /><path d="M 98.55514903715128 79.0497635885617 l -1.058982990146837 -15.355178194659988 a36.39165171004015,36.39165171004015 0 0,0 0.6253090020187104,-0.03772034664657883 l 0.7945119392885037 15.371131810686872" fill="#ffc011" stroke="none" /><path d="M 98.91598698831166 79.02799685794201 l -0.7584203149671082 -14.672880359358443 a35.69246811853616,35.69246811853616 0 0,0 0.6138410512219575,-0.026433286914572245 l 0.5057384313558265 14.683761372797207" fill="#ffb711" stroke="none" /><path d="M 99.27714615592234 79.0124445844662 l -0.391316173360816 -11.361591199510027 a32.368328062310546,32.368328062310546 0 0,0 0.5570024583330088,-0.014385730181420841 l 0.1956870798329282 11.366643721833809" fill="#ff8b0c" stroke="none" /><path d="M 99.63851952072746 79.00311137660856 l -0.29670703756908007 -17.234470403911622 a38.23702425505773,38.23702425505773 0 0,0 0.6581875168416116,-0.005665227754670702 l 4.2218533161563486e-15 17.237024255057733" fill="#ffd714" stroke="none" /></svg>