<?xml version="1.0" encoding="utf-8" ?>
<svg baseProfile="full" height="200mm" version="1.1" viewBox="0,0,200,200" width="200mm" xmlns="http://www.w3.org/2000/svg" xmlns:ev="http://www.w3.org/2001/xml-events" xmlns:xlink="http://www.w3.org/1999/xlink"><defs /><rect fill="#1a1a1a" height="200" width="200" x="0" y="0" /><text alignment-baseline="middle" fill="#e1ed5e" style="dominant-baseline: central; font-size:9.0px; font-family:Arial;" text-anchor="middle" x="100.0" y="100.0">2020</text><line stroke="#e1ed5e" stroke-width="0.3" x1="100.0" x2="100.0" y1="15.0" y2="10.0" /><path d="M 100.0 14.0 a86.0,86.0 0 0,1 42.35913384403234,11.155469271406648" fill="none" id="id49" stroke="none" /><text fill="#e1ed5e" style="font-size:6.75px; font-family:Arial;" text-anchor="middle"><textPath startOffset="22.145653131862478" xlink:href="#id49">January</textPath></text><path d="M 100.0 79.0 l 0.0 -30.583163852647743 a51.58316385264774,51.58316385264774 0 0,0 0.8854936004856526,0.007600897575660635 l -0.5250006756367979 30.578657353266518" fill="#a9ff21" stroke="none" /><path d="M 100.36049292484886 79.00309439819443 l 0.40381674599279216 -23.520300986750108 a44.52376726784344,44.52376726784344 0 0,0 0.7640844252735095,0.01968010440099681 l -0.807514485337043 23.509903164999066" fill="#fffb17" stroke="none" /><path d="M 100.72087961077811 79.0123766808444 l 0.816933499437962 -23.784127483501468 a44.79815330007675,44.79815330007675 0 0,0 0.7683400376829657,0.032995827181813035 l -1.225099297721764 23.766599087893823" fill="#ffff18" stroke="none" /><path d="M 101.08105385017728 79.02784411241856 l 1.637323673813202 -31.763641857440362 a52.80581350729087,52.80581350729087 0 0,0 0.9048795348018346,0.05443530579957262 l -2.182347560747499 31.730854573816096" fill="#9aff23" stroke="none" /><path d="M 101.44090949804482 79.04949213459386 l 2.1203514066921363 -30.829444100136637 a51.902273599386035,51.902273599386035 0 0,0 0.888346970156104,0.06876367378898066 l -2.649267371623474 30.788502659352606" fill="#a5ff21" stroke="none" /><path d="M 101.80034050326958 79.07731436759882 l 1.7297102990473923 -20.101855596966562 a41.17613679969301,41.17613679969301 0 0,0 0.7037206416918218,0.06664307642380804 l -2.074530504124227 20.06920076503757" fill="#ffce13" stroke="none" /><path d="M 102.51750503828377 79.15144685158666 l 2.4062049426493632 -19.926828693458788 a41.0715800076746,41.0715800076746 0 0,0 0.6992381306062113,0.09053037524204488 l -2.747920895146366 19.882586722016345" fill="#ffcc13" stroke="none" /><path d="M 103.58742460773223 79.30868818359171 l 5.228592211159229 -30.157130429656277 a51.607036646201074,51.607036646201074 0 0,0 0.8715820667983544,0.15883128649689957 l -5.745509011508637 30.06293096922801" fill="#a8ff21" stroke="none" /><path d="M 103.94208987418118 79.37332000966035 l 5.74437448832919 -30.056994664549286 a51.600992900997696,51.600992900997696 0 0,0 0.8686253495521347,0.17374939718214616 l -6.259496323412282 29.95395587070428" fill="#a8ff21" stroke="none" /><path d="M 104.29559338865022 79.4440306129975 l 5.50692270234336 -26.352618659171924 a47.92186300844206,47.92186300844206 0 0,0 0.8038038674858353,0.1751853117463704 l -5.958488986448329 26.254201889291835" fill="#d6ff1c" stroke="none" /><path d="M 104.9986988182912 79.60360301121754 l 7.281608980349716 -29.71144949498423 a51.59071853415196,51.59071853415196 0 0,0 0.8583582845014873,0.2181913193363174 l -7.790572558076598 29.582072943812644" fill="#a8ff21" stroke="none" /><path d="M 105.3480935250658 79.69241777938227 l 5.755100680997759 -21.85305468566148 a43.59816768994628,43.59816768994628 0 0,0 0.7221073146538789,0.19681355967751138 l -6.129389396586331 21.751040631839825" fill="#ffef16" stroke="none" /><path d="M 106.04205211174951 79.88797359093562 l 8.806679304267353 -29.314571186692355 a51.60884976976209,51.60884976976209 0 0,0 0.8462852783303995,0.26218134251487507 l -9.308605215469383 29.159073256370835" fill="#a8ff21" stroke="none" /><path d="M 106.38641147887787 79.99465700312896 l 6.7464435880070575 -21.133138450834124 a43.1838689562548,43.1838689562548 0 0,0 0.7042615818055613,0.23150477035195288 l -7.108227907460361 21.014212759080152" fill="#ffe915" stroke="none" /><path d="M 106.72888874123014 80.10723608172694 l 7.325122249080981 -21.655422340482666 a43.86076841903301,43.86076841903301 0 0,0 0.7111589752548041,0.24737800763315887 l -7.695786996380804 21.526485900280914" fill="#fff216" stroke="none" /><path d="M 107.06938296918511 80.22567764915836 l 5.665000941883835 -15.846015873086186 a37.828204144282424,37.828204144282424 0 0,0 0.6095940312317891,0.2238513720254631 l -5.936184124769749 15.746433652052001" fill="#ff9e0e" stroke="none" /><path d="M 107.40779381753099 80.34994680014964 l 8.328011796648495 -22.091040717932312 a44.60868188795088,44.60868188795088 0 0,0 0.7142226754443692,0.27627667411245516 l -8.70600673458639 21.944824155681818" fill="#fffc17" stroke="none" /><path d="M 107.74402155503746 80.48000691201159 l 11.285626194163747 -28.44715032596929 a51.60401477359939,51.60401477359939 0 0,0 0.8206157389669598,0.33373727704405687 l -11.772296394321145 28.24922579234594" fill="#a8ff21" stroke="none" /><path d="M 108.07796709384702 80.6158196554323 l 11.772412635213708 -28.249504728172077 a51.604316960859556,51.604316960859556 0 0,0 0.8147705463813668,0.3477770969987112 l -12.255618256765505 28.043252981513966" fill="#a8ff21" stroke="none" /><path d="M 108.4095320186766 80.7573450057729 l 10.769348030556 -24.642375842616747 a47.89285303146585,47.89285303146585 0 0,0 0.7505188586504973,0.3356975392598794 l -11.190780292062128 24.453874552447015" fill="#d7ff1c" stroke="none" /><path d="M 109.06512990194946 81.05736502329252 l 9.62665660740694 -20.11600982364341 a43.300815425940144,43.300815425940144 0 0,0 0.6677392987755094,0.326624751874075 l -9.970556155444516 19.947791321672113" fill="#ffeb16" stroke="none" /><path d="M 109.3889696526874 81.21577127319529 l 9.020355317464604 -18.046753131405165 a41.175532425172676,41.175532425172676 0 0,0 0.6295401234844197,0.3214476727021168 l -9.328822662662603 17.889247507030213" fill="#ffce13" stroke="none" /><path d="M 109.71004243097381 81.37971332152246 l 9.33748568977389 -17.905860003779047 a41.194268035303146,41.194268035303146 0 0,0 0.6242131816342711,0.3323583602729699 l -9.643487687194721 17.742931175783504" fill="#ffce13" stroke="none" /><path d="M 110.02825361518725 81.54914285379988 l 8.100864445449444 -14.904678160248977 a37.96388622409823,37.96388622409823 0 0,0 0.5699207510632157,0.3161254334683718 l -8.35552938466876 14.76341981134746" fill="#ffa00e" stroke="none" /><path d="M 110.34350942703115 81.72400993836675 l 10.94463164603494 -19.338115424194413 a43.22043361473523,43.22043361473523 0 0,0 0.6425592817552386,0.3709817742916796 l -11.274983395650576 19.14738675262656" fill="#ffea16" stroke="none" /><line stroke="#e1ed5e" stroke-width="0.3" x1="143.13028292997686" x2="145.6673583964461" y1="26.7553504044142" y2="22.446841604673864" /><path d="M 143.63769802327073 25.89364864446614 a86.0,86.0 0 0,1 29.32050498858742,28.57503671076993" fill="none" id="id50" stroke="none" /><text fill="#e1ed5e" style="font-size:6.75px; font-family:Arial;" text-anchor="middle"><textPath startOffset="20.669276256404974" xlink:href="#id50">February</textPath></text><path d="M 110.65571695917076 81.90426304109057 l 15.538139074120805 -26.38715710952255 a51.622146009209516,51.622146009209516 0 0,0 0.7597483032217158,0.4562070267428458 l -15.988820133899955 26.116536082243787" fill="#a8ff21" stroke="none" /><path d="M 110.96478420261332 82.08984904055464 l 10.535722856081664 -17.209311495097904 a41.178252110514194,41.178252110514194 0 0,0 0.5997041242445698,0.3742597274538688 l -10.829591109115945 17.02591597080249" fill="#ffce13" stroke="none" /><path d="M 111.27062007382361 82.28071324371311 l 11.65493913610686 -18.323500155895704 a42.71608307751343,42.71608307751343 0 0,0 0.6153442316500536,0.3988586965774707 l -11.96776900001392 18.12072761761434" fill="#ffe315" stroke="none" /><path d="M 111.5731344415666 82.4767994020092 l 12.014399050526759 -18.191331457322285 a42.80069551036071,42.80069551036071 0 0,0 0.6096117571037578,0.4101739962877192 l -12.324907095727516 17.982407786977447" fill="#ffe415" stroke="none" /><path d="M 111.8722381534696 82.67804972795209 l 9.508268706871222 -13.872848201378051 a37.818534151957024,37.818534151957024 0 0,0 0.5323497304729177,0.37162145623367615 l -9.745013528517902 13.707581929339248" fill="#ff9e0e" stroke="none" /><path d="M 112.45986205192187 83.09580414077388 l 13.30374756695035 -18.0490886332681 a43.422294704528014,43.422294704528014 0 0,0 0.5962232806041196,0.44741706507592316 l -13.611623836465235 17.81805254092816" fill="#ffec16" stroke="none" /><path d="M 112.7482090630111 83.31218511350987 l 18.5714280637767 -24.31059548633348 a51.592531657712975,51.592531657712975 0 0,0 0.699177211470352,0.5436844285749018 l -18.986015219882276 23.988210006137788" fill="#a8ff21" stroke="none" /><path d="M 113.03279911837588 83.53348406188908 l 10.436428983190225 -13.186087089024385 a37.81641884113584,37.81641884113584 0 0,0 0.5055681170272256,0.4072498877879035 l -10.66124787057271 13.004988907443074" fill="#ff9e0e" stroke="none" /><path d="M 113.31354834802062 83.75963576809568 l 7.708805042608219 -9.403488717815135 a33.15941097467383,33.15941097467383 0 0,0 0.43711314389826317,0.3646553311076161 l -7.869092520668374 9.26977120279565" fill="#ff5908" stroke="none" /><path d="M 113.86319453409587 84.22622945171908 l 20.19632311922293 -22.979708321776098 a51.59343821949348,51.59343821949348 0 0,0 0.6602362493335909,0.5903873253728377 l -20.587824395379897 22.629625466519872" fill="#a8ff21" stroke="none" /><path d="M 114.13192950727249 84.46653392183569 l 14.67990781759862 -16.135790232883608 a42.81429393706831,42.81429393706831 0 0,0 0.5393994065695851,0.49926003795525153 l -14.95473699548217 15.881412448795983" fill="#ffe415" stroke="none" /><path d="M 114.65682725009322 84.96080404539774 l 16.440421395022536 -16.869320673367895 a44.55549693016117,44.55549693016117 0 0,0 0.543169867464091,0.5385274178605002 l -16.72758318261659 16.584613245278735" fill="#fffc17" stroke="none" /><path d="M 114.91283532996326 85.21462403516908 l 21.726330105719484 -21.540636092431047 a51.59464696853415,51.59464696853415 0 0,0 0.6181854365355928,0.6343127170500659 l -22.09290234340589 21.16450068331324" fill="#a8ff21" stroke="none" /><path d="M 115.16444852881244 85.47280134310134 l 18.591433505723742 -17.810172743243264 a46.74575019186492,46.74575019186492 0 0,0 0.5501399741686439,0.584229588055058 l -18.894429313628645 17.48840169524371" fill="#e6ff1a" stroke="none" /><path d="M 115.41159269507618 85.73525988315684 l 17.270845227088174 -15.985636503444853 a44.53343726016884,44.53343726016884 0 0,0 0.5144721080348076,0.5654949689784257 l -17.54271503596486 15.686803958908756" fill="#fffb17" stroke="none" /><path d="M 115.6541949942343 86.00192230759917 l 12.511041682364352 -11.187450619281593 a37.78348042977744,37.78348042977744 0 0,0 0.42819287178210297,0.4872048858067066 l -12.701245618105045 10.971033455663589" fill="#ff9e0e" stroke="none" /><path d="M 115.8921839302757 86.27271002978787 l 9.368597933685798 -8.0923717605 a33.37970548733691,33.37970548733691 0 0,0 0.3708412742251039,0.4368500885700547 l -9.506133771418014 7.930354889480395" fill="#ff5d08" stroke="none" /><path d="M 116.57777611688842 87.10902102172516 l 17.892595418944964 -13.913390420167476 a43.66555544896393,43.66555544896393 0 0,0 0.4550533556062682,0.5956794498975627 l -18.12880075190554 13.604190057029031" fill="#fff016" stroke="none" /><path d="M 116.7966241395341 87.39550010848427 l 24.484817995727422 -18.373863891169325 a51.61217382962395,51.61217382962395 0 0,0 0.5257018927164326,0.7132155814416645 l -24.796621908027678 17.950842000458785" fill="#a8ff21" stroke="none" /><path d="M 117.21940702142032 87.97951657250589 l 20.852100611290368 -14.556385682425258 a46.43026669224865,46.43026669224865 0 0,0 0.45061737496580223,0.657464216938515 l -21.098907723071495 14.196286730416695" fill="#eaff1a" stroke="none" /><path d="M 117.42321728460499 88.27688183743584 l 20.72960036898157 -13.947800260921444 a45.98514485801996,45.98514485801996 0 0,0 0.4350535455228039,0.6587265176564558 l -20.965978353425097 13.589893864925928" fill="#f0ff19" stroke="none" /><path d="M 117.62189284568427 88.57770195909679 l 20.538955125027183 -13.313102567426682 a45.47626151189563,45.47626151189563 0 0,0 0.41899295493077443,0.6587265180312035 l -20.764465771583847 12.958562374716806" fill="#f6ff19" stroke="none" /><path d="M 117.81537515405839 88.88188828441811 l 19.987692171476446 -12.473798198322717 a44.56063411358404,44.56063411358404 0 0,0 0.39941613639799817,0.6524162415181474 l -20.198876272329844 12.128844840680014" fill="#fffc17" stroke="none" /><line stroke="#e1ed5e" stroke-width="0.3" x1="172.87174338648825" x2="177.1583165268699" y1="56.24261187166439" y2="53.66864786411523" /><path d="M 173.72905801456457 55.72781907015455 a86.0,86.0 0 0,1 12.242430191666344,42.057860355516425" fill="none" id="id51" stroke="none" /><text fill="#e1ed5e" style="font-size:6.75px; font-family:Arial;" text-anchor="middle"><textPath startOffset="22.145653131862474" xlink:href="#id51">March</textPath></text><path d="M 118.00360718960297 89.18935116829356 l 14.299085215218916 -8.5861898256505 a37.67892363775901,37.67892363775901 0 0,0 0.32821265273138345,0.557376838477435 l -14.444371578080066 8.339461818879508" fill="#ff9c0e" stroke="none" /><path d="M 118.18653347947321 89.5 l 13.45383009851647 -7.7675724290099755 a36.53514485801995,36.53514485801995 0 0,0 0.30892489194738953,0.5458406834596085 l -13.585188355485235 7.535474975451249" fill="#ff8c0c" stroke="none" /><path d="M 118.36410011445183 89.81374322990088 l 17.639947835859605 -9.78458170818918 a41.171906178050655,41.171906178050655 0 0,0 0.33752071970248954,0.6210001085016507 l -17.805313905177435 9.480326766212926" fill="#ffce13" stroke="none" /><path d="M 118.53625476483649 90.13048839642627 l 18.188611076566584 -9.68441092067861 a41.60614927091328,41.60614927091328 0 0,0 0.3302575887850112,0.6333124725905939 l -18.35217673432654 9.370752204983518" fill="#ffd413" stroke="none" /><path d="M 118.70294669586156 90.45014215332178 l 18.10215221187179 -9.243087902322868 a41.32541730621642,41.32541730621642 0 0,0 0.31718258799891186,0.6345776481901921 l -18.258154713082437 8.930978397968925" fill="#ffd013" stroke="none" /><path d="M 118.8641267826498 90.77261029715802 l 15.10957921588431 -7.3908523451591 a37.82034727551803,37.82034727551803 0 0,0 0.28026811939190177,0.5856525762645042 l -15.234226593236123 7.1303872668294925" fill="#ff9e0e" stroke="none" /><path d="M 119.0197475246899 91.09779779509293 l 15.241616268742167 -7.133846008092911 a37.82850633154259,37.82850633154259 0 0,0 0.27023160100287796,0.5905048172305353 l -15.361832334600097 6.871152208647692" fill="#ff9e0e" stroke="none" /><path d="M 119.16976305983485 91.42560881287824 l 15.680715384732041 -7.013784540943061 a38.177834804297774,38.177834804297774 0 0,0 0.2624564668425652,0.600551758556727 l -15.798805733591577 6.7435707126104845" fill="#ffa30f" stroke="none" /><path d="M 119.31412917781788 91.75594674310238 l 15.891633618454266 -6.78319341677113 a38.27876534919417,38.27876534919417 0 0,0 0.2527750217612206,0.6065680327113101 l -16.00573448475197 6.509392874618542" fill="#ffa50f" stroke="none" /><path d="M 119.4528033332814 92.08871423366111 l 12.402841664778855 -5.0441277302610805 a34.38931312356101,34.38931312356101 0 0,0 0.217702897792907,0.5487535164966421 l -12.487603237537886 4.830473196550873" fill="#ff6c09" stroke="none" /><path d="M 119.71291397450082 92.76114493625339 l 21.421341304178892 -7.866213243388659 a43.819973138910214,43.819973138910214 0 0,0 0.25323735661033897,0.7083499568089148 l -21.553218830833174 7.497328330198827" fill="#fff216" stroke="none" /><path d="M 119.83427380445688 93.10060997987247 l 17.466395635236204 -6.075719077058867 a39.49295376055257,39.49295376055257 0 0,0 0.21723866211963394,0.6422275037760983 l -17.5681197189282 5.774989898808607" fill="#ffb610" stroke="none" /><path d="M 119.94978838288452 93.4421083053983 l 15.826149516884698 -5.202369693472224 a37.65928146584804,37.65928146584804 0 0,0 0.19660885843488193,0.615874448776392 l -15.913123091096836 4.929926211004445" fill="#ff9c0e" stroke="none" /><path d="M 120.05942366710727 93.78553927170692 l 16.4846550202153 -5.106988263604507 a38.25761224098235,38.25761224098235 0 0,0 0.18896287283376012,0.6289959468199255 l -16.569894213052688 4.823254713193858" fill="#ffa40f" stroke="none" /><path d="M 120.16314734710363 94.1308016681162 l 16.00904381269844 -4.659999335572052 a37.67348426707598,37.67348426707598 0 0,0 0.17541762383043802,0.6224952628399936 l -16.08667992860346 4.3844961488290455" fill="#ff9c0e" stroke="none" /><path d="M 120.26092885502905 94.47779374421319 l 16.15752709444822 -4.403805858923388 a37.746915771297004,37.746915771297004 0 0,0 0.16502685404680442,0.6266338446510484 l -16.230743429299757 4.125791509899541" fill="#ff9d0e" stroke="none" /><path d="M 120.35273937422433 94.82641323984039 l 17.44675322230311 -4.434896444111688 a39.00159727551804,39.00159727551804 0 0,0 0.15937254914417529,0.6502943865239731 l -17.520313297963575 4.134746232979619" fill="#ffaf10" stroke="none" /><path d="M 120.43855184770803 95.1765574152323 l 15.175683568542112 -3.5814200009319186 a36.59256043745203,36.59256043745203 0 0,0 0.13903280336682472,0.6126041849080599 l -15.234927233466603 3.3203814820848323" fill="#ff8c0c" stroke="none" /><path d="M 120.51834098615036 95.52812308129327 l 61.555022958451104 -13.415630756120196 a84.0,84.0 0 0,0 0.29496915670253276,1.4115341948583824 l -61.776249825978 12.35698010997641" fill="#4dd2ff" stroke="none" /><path d="M 120.592083275326 95.88100663000786 l 16.39820445783587 -3.280100150067606 a37.72304297774367,37.72304297774367 0 0,0 0.12156467546206944,0.6360777503598605 l -16.452095425580097 2.998119834674431" fill="#ff9d0e" stroke="none" /><path d="M 120.65975698304385 96.23510406497455 l 16.40809632686333 -2.9901017332011417 a37.67831926323868,37.67831926323868 0 0,0 0.11049648421011511,0.6373143576259342 l -16.457007628565677 2.7079943426546147" fill="#ff9c0e" stroke="none" /><path d="M 120.7213421655516 96.59031103205396 l 18.00693380723803 -2.963034105539067 a39.249088641596316,39.249088641596316 0 0,0 0.1036895653699394,0.6657613915503354 l -18.055144864746236 2.653484532057291" fill="#ffb310" stroke="none" /><path d="M 120.77682067341334 96.94652285012252 l 19.815514014665528 -2.9121981754544315 a41.028367229470454,41.028367229470454 0 0,0 0.0964273761695614,0.6977004587192552 l -19.8625859073903 2.5716094085350907" fill="#ffcc13" stroke="none" /><path d="M 120.82617615685814 97.30363454192243 l 16.543264239412164 -2.141856763480402 a37.68134113584037,37.68134113584037 0 0,0 0.07754804527756841,0.6422090597391987 l -16.577594370949395 1.8575540268177904" fill="#ff9c0e" stroke="none" /><path d="M 120.86939407059847 97.66154086499901 l 16.58480175953863 -1.8583616297423882 a37.688593630084426,37.688593630084426 0 0,0 0.06652504745704524,0.6435694874887902 l -16.614259199477345 1.5733876199706667" fill="#ff9c0e" stroke="none" /><path d="M 120.9064616781168 98.02013634271609 l 30.196640221785724 -2.8596532243315766 a51.33174405218726,51.33174405218726 0 0,0 0.07554658329809044,0.8779658126212005 l -30.241280427781554 2.340866364334714" fill="#acff21" stroke="none" /><path d="M 120.93736805541906 98.37931529534042 l 20.060525382299993 -1.5528115362195218 a41.12053434382195,41.12053434382195 0 0,0 0.0484361492591435,0.7042509799544336 l -20.0842254927242 1.208217132110754" fill="#ffcd13" stroke="none" /><path d="M 120.96210409425399 98.7389718711861 l 23.373932523402456 -1.4061177380131595 a44.41618860322333,44.41618860322333 0 0,0 0.03925208870823413,0.761480034659971 l -23.394626201567263 1.0046659099764579" fill="#fffa17" stroke="none" /><path d="M 120.98066250479742 99.09900007780936 l 21.17257599000775 -0.9092415129984774 a42.19209036838066,42.19209036838066 0 0,0 0.024863824979332372,0.7238831354605755 l -21.18506450198393 0.545652112973782" fill="#ffdc14" stroke="none" /><path d="M 120.99303781780057 99.45929381324524 l 19.664056077972617 -0.5064763313595712 a40.670577513430544,40.670577513430544 0 0,0 0.01198536432683906,0.6980873854302466 l -19.669852873898122 0.1688420299602581" fill="#ffc712" stroke="none" /><line stroke="#e1ed5e" stroke-width="0.3" x1="184.99686870605535" x2="189.99668451229388" y1="99.2704041080226" y2="99.22748670261217" /><path d="M 185.99683186730306 99.26182062694052 a86.0,86.0 0 0,1 -10.086455211305974,41.156179273409016" fill="none" id="id52" stroke="none" /><text fill="#e1ed5e" style="font-size:6.75px; font-family:Arial;" text-anchor="middle"><textPath startOffset="21.40746469413373" xlink:href="#id52">April</textPath></text><path d="M 120.99303781780057 100.54070618675476 l 16.58186164893839 0.4270899361639761 a37.587360897927866,37.587360897927866 0 0,0 -0.02215025505116078,0.6448805077662529 l -16.572086706890385 -0.7116767084943398" fill="#ff9b0e" stroke="none" /><path d="M 120.98066250479742 100.90099992219065 l 16.627034144187096 0.7140363878761321 a37.64235897927859,37.64235897927859 0 0,0 -0.03326582627431048,0.6453481426847139 l -16.612326728456214 -0.9993563239375766" fill="#ff9c0e" stroke="none" /><path d="M 120.96210409425399 101.26102812881392 l 16.98394960226839 1.0217122332051138 a38.0146536838066,38.0146536838066 0 0,0 -0.04477771189615256,0.6510581036131597 l -16.96390792920717 -1.3131137609726171" fill="#ffa10e" stroke="none" /><path d="M 120.93736805541906 101.62068470465957 l 17.95483756563666 1.3898179819092824 a39.00854758250192,39.00854758250192 0 0,0 -0.057410137599901684,0.6671928220990415 l -17.928333805339015 -1.6978318513839814" fill="#ffaf10" stroke="none" /><path d="M 120.86939407059847 102.33845913500097 l 16.57429098451267 1.8571838754773482 a37.67801707597852,37.67801707597852 0 0,0 -0.07754120437602663,0.642152407260976 l -16.539967693876978 -2.1414299596617328" fill="#ff9c0e" stroke="none" /><path d="M 120.82617615685814 102.69636545807757 l 16.803691336692143 2.1755742651554244 a37.9439418649271,37.9439418649271 0 0,0 -0.08917817116878456,0.645248822521035 l -16.76386864896815 -2.4637113958765444" fill="#ffa00e" stroke="none" /><path d="M 120.77682067341334 103.0534771498775 l 35.16732024938965 5.168385023476919 a56.54507866462011,56.54507866462011 0 0,0 -0.14938269482082894,0.9591440606644511 l -35.073416062430546 -5.7713172660728205" fill="#6eff28" stroke="none" /><path d="M 120.7213421655516 103.40968896794604 l 30.380699979332146 4.999132620386882 a51.78925556408288,51.78925556408288 0 0,0 -0.15187860742168396,0.8759954474389734 l -30.290406554418226 -5.519921100746443" fill="#a6ff21" stroke="none" /><path d="M 120.65975698304385 103.76489593502545 l 16.338232893090087 2.977370288294228 a37.607305257099,37.607305257099 0 0,0 -0.12119170400116829,0.6341262060737096 l -16.284714896806758 -3.2573990594012523" fill="#ff9b0e" stroke="none" /><path d="M 120.592083275326 104.11899336999214 l 22.689319001462792 4.538499251731596 a44.13878069838834,44.13878069838834 0 0,0 -0.15499498714859583,0.7417071223229698 l -22.60806630348983 -4.927322825339975" fill="#fff617" stroke="none" /><path d="M 120.51834098615036 104.47187691870673 l 16.074636007899816 3.503392101186928 a37.45198100537222,37.45198100537222 0 0,0 -0.14229815701797044,0.626991935593189 l -16.01212698932418 -3.778818370719134" fill="#ff990e" stroke="none" /><path d="M 120.43855184770803 104.8234425847677 l 20.600507371750684 4.861663647459745 a42.1664044512663,42.1664044512663 0 0,0 -0.17230492685130636,0.7030629007538094 l -20.514014918383083 -5.2145823728216545" fill="#ffdb14" stroke="none" /><path d="M 120.35273937422433 105.17358676015961 l 20.95127470184985 5.3257320998878255 a42.61757003069839,42.61757003069839 0 0,0 -0.1863210110171041,0.7074912270932766 l -20.856764210028018 -5.684603831353905" fill="#ffe115" stroke="none" /><path d="M 120.26092885502905 105.52220625578681 l 31.286458299594706 8.527263334254826 a53.42771488871834,53.42771488871834 0 0,0 -0.24877345365849085,0.8828092243025962 l -31.135466353861634 -9.063080482460432" fill="#92ff23" stroke="none" /><path d="M 120.16314734710363 105.8691983318838 l 19.171915108229577 5.580665073520995 a40.96762759017652,40.96762759017652 0 0,0 -0.2023482425892353,0.6735514893803399 l -19.07329054563671 -5.908954166492059" fill="#ffcb12" stroke="none" /><path d="M 120.05942366710727 106.21446072829308 l 19.619709708172692 6.078236219811208 a41.53966807367613,41.53966807367613 0 0,0 -0.21686730075123692,0.6793337307943704 l -19.5124776916442 -6.414138984296962" fill="#ffd313" stroke="none" /><path d="M 119.94978838288452 106.5578916946017 l 18.904166080218662 6.214174875017497 a40.89933326937836,40.89933326937836 0 0,0 -0.22497472574207564,0.6650978012674271 l -18.79470593290422 -6.537774350759085" fill="#ffca12" stroke="none" /><path d="M 119.83427380445688 106.89939002012753 l 18.837232412137684 6.552567267772693 a40.94435917114352,40.94435917114352 0 0,0 -0.23661906984141384,0.6618656510470216 l -18.721973172252326 -6.874967875200636" fill="#ffca12" stroke="none" /><path d="M 119.71291397450082 107.23885506374661 l 15.483922812233228 5.6859109313307075 a37.494891596316194,37.494891596316194 0 0,0 -0.22705712975024797,0.6022960126723296 l -15.38403499866854 -5.950875224197196" fill="#ff990e" stroke="none" /><path d="M 119.58574465831526 107.57618678355244 l 18.575267540391064 7.185312526818518 a40.916557943207984,40.916557943207984 0 0,0 -0.2590238775616865,0.6529093783757741 l -18.44918498786325 -7.503122922407856" fill="#ffca12" stroke="none" /><path d="M 119.4528033332814 107.91128576633889 l 19.93025917871693 8.105462902113807 a42.51543073676132,42.51543073676132 0 0,0 -0.28075197388513906,0.6737025331569156 l -19.788181360295305 -8.446397944712" fill="#ffe015" stroke="none" /><path d="M 119.16976305983485 108.57439118712176 l 12.26982531995569 5.48813679973872 a34.441289332310056,34.441289332310056 0 0,0 -0.24603468810801626,0.5376301957077589 l -12.173806166992618 -5.6979559776611675" fill="#ff6d0a" stroke="none" /><path d="M 119.0197475246899 108.90220220490707 l 19.80350928113949 9.26904228137655 a42.865363584036835,42.865363584036835 0 0,0 -0.3176542708936181,0.6637752539029793 l -19.641475752285963 -9.607630037344633" fill="#ffe515" stroke="none" /><path d="M 118.8641267826498 109.22738970284198 l 15.704874160737791 7.682040933297038 a38.4830439370683,38.4830439370683 0 0,0 -0.29536668388825654,0.5909312260740682 l -15.570687563637803 -7.950504015534851" fill="#ffa80f" stroke="none" /><path d="M 118.70294669586154 109.54985784667822 l 14.889512034754084 7.602690936919021 a37.71820798158096,37.71820798158096 0 0,0 -0.29939623444067676,0.5741317564132419 l -14.756807731338457 -7.857168936436766" fill="#ff9d0e" stroke="none" /><line stroke="#e1ed5e" stroke-width="0.3" x1="174.33088141563837" x2="178.70328620479359" y1="141.23008692659167" y2="143.65538615756765" /><path d="M 175.20536237346943 141.71514677278685 a86.0,86.0 0 0,1 -30.301960400862466,31.631185727798858" fill="none" id="id53" stroke="none" /><text fill="#e1ed5e" style="font-size:6.75px; font-family:Arial;" text-anchor="middle"><textPath startOffset="22.145653131862474" xlink:href="#id53">May</textPath></text><path d="M 118.36410011445183 110.18625677009912 l 18.638310799679616 10.338356814829156 a42.31356964696853,42.31356964696853 0 0,0 -0.3577846750545594,0.6321712385559825 l -18.45809275960368 -10.65678482348426" fill="#ffdd14" stroke="none" /><path d="M 118.18653347947321 110.5 l 20.839579540060413 12.031736857252492 a45.063473714504994,45.063473714504994 0 0,0 -0.3925378121552019,0.666615022002158 l -20.629968017775447 -12.387703047548198" fill="#fcff18" stroke="none" /><path d="M 118.00360718960297 110.81064883170644 l 14.270069424660083 8.568766677111299 a37.64507866462011,37.64507866462011 0 0,0 -0.3374290373941838,0.5511649738067622 l -14.120872422810493 -8.812468767042617" fill="#ff9c0e" stroke="none" /><path d="M 117.81537515405839 111.11811171558189 l 18.527973069492447 11.562825518326697 a42.83997985418266,42.83997985418266 0 0,0 -0.3947037234708396,0.6205398118420736 l -18.326751654395714 -11.879179004847442" fill="#ffe415" stroke="none" /><path d="M 117.62189284568427 111.42229804090321 l 13.998703873935153 9.07379072354272 a37.68224769762087,37.68224769762087 0 0,0 -0.3565019859072849,0.539789444612188 l -13.840877449107142 -9.312760046493969" fill="#ff9c0e" stroke="none" /><path d="M 117.21940702142032 112.02048342749411 l 14.256806721864848 9.952358331270082 a38.386948388334616,38.386948388334616 0 0,0 -0.3818311396110839,0.5370933158866482 l -14.083860483723804 -10.195628873866234" fill="#ffa60f" stroke="none" /><path d="M 117.01052211995028 112.31430620078461 l 14.211635222978602 10.288127931379796 a38.54469013814274,38.54469013814274 0 0,0 -0.39260149411027956,0.5326393280607213 l -14.032931709284494 -10.530573568709395" fill="#ffa90f" stroke="none" /><path d="M 116.79662413953412 112.60449989151573 l 15.94986416396569 11.96907541981662 a40.941337298541825,40.941337298541825 0 0,0 -0.426663367250302,0.5585160438087367 l -15.742048819361084 -12.241112376866234" fill="#ffca12" stroke="none" /><path d="M 116.35404254752997 113.17365903436017 l 15.62560989645379 12.586885253695032 a41.064629700690716,41.064629700690716 0 0,0 -0.44692627308956134,0.5451773839737558 l -15.407236804125601 -12.85326491936728" fill="#ffcc13" stroke="none" /><path d="M 116.1254893667686 113.45245675266167 l 18.611760137132237 15.526592256583193 a45.237835763622414,45.237835763622414 0 0,0 -0.5025825247059711,0.5920409503778506 l -18.342483048919153 -15.8437999894106" fill="#f9ff18" stroke="none" /><path d="M 115.89218393027572 113.72728997021213 l 15.142473507432943 13.079707963031403 a41.00932943207982,41.00932943207982 0 0,0 -0.46475079425297805,0.5288010907332946 l -14.915711649221379 -13.33772133157599" fill="#ffcb12" stroke="none" /><path d="M 115.6541949942343 113.99807769240083 l 15.003113236775528 13.415876370111844 a41.12657808902533,41.12657808902533 0 0,0 -0.4751144000430244,0.5222339534398204 l -14.770601135890624 -13.671447899109337" fill="#ffcd13" stroke="none" /><path d="M 115.41159269507618 114.26474011684316 l 16.232736074090507 15.024778169499978 a43.1188986953185,43.1188986953185 0 0,0 -0.5074563937269123,0.5389011047797343 l -15.972423846627336 -15.30122073422421" fill="#ffe815" stroke="none" /><path d="M 115.16444852881244 114.52719865689866 l 15.559343919559385 14.905499508339098 a42.54685821181888,42.54685821181888 0 0,0 -0.5097786236027999,0.5230777768620515 l -15.301178494805779 -15.170399977268886" fill="#ffe015" stroke="none" /><path d="M 114.91283532996324 114.78537596483092 l 14.246664783973475 14.124899149978317 a41.06191001534919,41.06191001534919 0 0,0 -0.5005800351821768,0.4963015990517878 l -14.002092828661333 -14.367380759258767" fill="#ffcc13" stroke="none" /><path d="M 114.39649973595853 115.28858382429668 l 13.782604481484853 14.636648337928694 a41.104518419033,41.104518419033 0 0,0 -0.5178586589596574,0.47932224355218656 l -13.529316051211227 -14.87108832761326" fill="#ffcd13" stroke="none" /><path d="M 114.13192950727249 115.5334660781643 l 13.846552381286227 15.219786625991087 a41.575930544896394,41.575930544896394 0 0,0 -0.532043170465516,0.47575628377125884 l -13.583244183997332 -15.455238439645733" fill="#ffd313" stroke="none" /><path d="M 113.86319453409587 115.77377054828091 l 13.209999216039346 15.03055418174329 a41.01053818112049,41.01053818112049 0 0,0 -0.532786493418027,0.4602082834838461 l -12.950033242858465 -15.255106597691853" fill="#ffcb12" stroke="none" /><path d="M 113.59037401385872 116.0094264158162 l 14.17739108021904 16.700931043955226 a42.90706542594014,42.90706542594014 0 0,0 -0.5656084264616672,0.4718506659151008 l -13.888608319595477 -16.941843893782195" fill="#ffe515" stroke="none" /><path d="M 113.31354834802062 116.24036423190432 l 14.830608279695497 18.09093067805321 a44.39292018419033,44.39292018419033 0 0,0 -0.5934894353996284,0.4780730782451379 l -14.517868073940615 -18.34285205009175" fill="#fff917" stroke="none" /><path d="M 113.03279911837588 116.46651593811092 l 12.45605024718374 15.737812580258792 a41.07067344589409,41.07067344589409 0 0,0 -0.5565859633254934,0.4328046115620084 l -12.184054339223016 -15.949318243441594" fill="#ffcc13" stroke="none" /><path d="M 112.7482090630111 116.68781488649013 l 10.06306249559484 13.172871835379453 a37.576784343821956,37.576784343821956 0 0,0 -0.5159596881850367,0.3871857689812634 l -9.835449818499038 -13.343676631624731" fill="#ff9b0e" stroke="none" /><path d="M 112.45986205192187 116.90419585922612 l 9.908064613170398 13.442192546671546 a37.699170184190336,37.699170184190336 0 0,0 -0.524232075567957,0.37950359508633 l -9.675851527228472 -13.610296913130952" fill="#ff9c0e" stroke="none" /><path d="M 112.16784306229584 117.11559508785304 l 9.681454524801286 13.618178230899723 a37.708840176515736,37.708840176515736 0 0,0 -0.5308056315391547,0.37054355525714855 l -9.446253802088371 -13.782366601961995" fill="#ff9d0e" stroke="none" /><path d="M 111.5731344415666 117.5232005979908 l 9.432759611062558 14.282400303206016 a38.116188603223335,38.116188603223335 0 0,0 -0.5490806998131753,0.3559074758140884 l -9.186193278992373 -14.442221620724" fill="#ffa20f" stroke="none" /><path d="M 111.27062007382361 117.71928675628689 l 10.721739578766382 16.85635545142993 a40.97729758250192,40.97729758250192 0 0,0 -0.596777500285123,0.37243329765100014 l -10.430797949691543 -17.03792454592248" fill="#ffcb12" stroke="none" /><path d="M 110.96478420261333 117.91015095944535 l 9.4656465927165 15.46142233824413 a39.12881811204912,39.12881811204912 0 0,0 -0.5758779025264985,0.3457981341510809 l -9.198835933632564 -15.621634472931134" fill="#ffb110" stroke="none" /><line stroke="#e1ed5e" stroke-width="0.3" x1="143.1302829299769" x2="145.66735839644613" y1="173.24464959558577" y2="177.55315839532614" /><path d="M 143.63769802327073 174.10635135553383 a86.0,86.0 0 0,1 -40.68552437913181,11.842963189579606" fill="none" id="id54" stroke="none" /><text fill="#e1ed5e" style="font-size:6.75px; font-family:Arial;" text-anchor="middle"><textPath startOffset="21.407464694133747" xlink:href="#id54">June</textPath></text><path d="M 110.65571695917076 118.09573695890943 l 9.193622564821 15.612781032937814 a39.11854374520338,39.11854374520338 0 0,0 -0.5815763811230947,0.3357732801957484 l -8.924253715837507 -15.768301210409733" fill="#ffb110" stroke="none" /><path d="M 110.34350942703117 118.27599006163325 l 8.190761566138598 14.472290863752086 a37.62936492709133,37.62936492709133 0 0,0 -0.5648988566314649,0.31333987328108454 l -7.941118521351037 -14.610763652466314" fill="#ff9b0e" stroke="none" /><path d="M 110.02825361518725 118.45085714620011 l 8.13160146607543 14.961230816218006 a38.0282521105142,38.0282521105142 0 0,0 -0.576238816078772,0.3068147127815557 l -7.873573834210106 -15.09861599672213" fill="#ffa10e" stroke="none" /><path d="M 109.71004243097381 118.62028667847754 l 9.236323889313054 17.71186891271203 a40.97548445894091,40.97548445894091 0 0,0 -0.6264815541363852,0.3198859453998399 l -8.930915113463087 -17.86781280978471" fill="#ffcb12" stroke="none" /><path d="M 109.3889696526874 118.78422872680471 l 9.10682318840263 18.219746795811652 a41.368932271680734,41.368932271680734 0 0,0 -0.6379478435788296,0.3120522582685188 l -8.792715095561732 -18.373392804177396" fill="#ffd013" stroke="none" /><path d="M 109.06512990194946 118.94263497670748 l 7.187446169428913 15.018998147279435 a37.650215848042976,37.650215848042976 0 0,0 -0.585391447598091,0.2739927556228927 l -6.928566007959316 -15.140167134472861" fill="#ff9c0e" stroke="none" /><path d="M 108.73861861582097 119.09545874513695 l 7.221432125902245 15.78013245609735 a38.354009976976215,38.354009976976215 0 0,0 -0.6010376490554493,0.2688364955322418 l -6.949481073991168 -15.901772702539443" fill="#ffa60f" stroke="none" /><path d="M 108.07796709384702 119.3841803445677 l 6.413823728950459 15.390842078936277 a37.673786454336145,37.673786454336145 0 0,0 -0.5990949007852169,0.24364668063853934 l -6.148674366974801 -15.498676016154107" fill="#ff9c0e" stroke="none" /><path d="M 107.407793817531 119.65005319985036 l 5.986497996822821 15.879897175320359 a37.970836531082114,37.970836531082114 0 0,0 -0.6118925239469506,0.22469541038791344 l -5.713016321221743 -15.980323434716995" fill="#ffa00e" stroke="none" /><path d="M 107.06938296918513 119.77432235084164 l 5.609559455148338 15.690936167389589 a37.6635120874904,37.6635120874904 0 0,0 -0.610676593823954,0.2124250193625811 l -5.3393770892793615 -15.78491961932076" fill="#ff9c0e" stroke="none" /><path d="M 106.72888874123015 119.89276391827305 l 5.33724687699559 15.778622025217707 a37.6568639677667,37.6568639677667 0 0,0 -0.6141247466882104,0.20187500230384176 l -5.065599392659645 -15.867917948923568" fill="#ff9c0e" stroke="none" /><path d="M 106.38641147887787 120.00534299687104 l 5.215855284370582 16.338592389635636 a38.15094013814275,38.15094013814275 0 0,0 -0.6256016000630182,0.1938129748724533 l -4.934613051435939 -16.425721952314735" fill="#ffa30f" stroke="none" /><path d="M 106.0420521117495 120.11202640906438 l 4.990605207421644 16.612101629129352 a38.34554873369148,38.34554873369148 0 0,0 -0.6320441792333553,0.183978849064262 l -4.704701015806681 -16.695324172496132" fill="#ffa60f" stroke="none" /><path d="M 105.69591212413111 120.21278271476187 l 4.567330303219713 16.207843975403737 a37.8390828856485,37.8390828856485 0 0,0 -0.6267207999620102,0.17081554093325377 l -4.2884281023230075 -16.28386001048113" fill="#ff9e0e" stroke="none" /><path d="M 104.9986988182912 120.39639698878246 l 5.525207007809891 22.544730073378933 a44.21191001534919,44.21191001534919 0 0,0 -0.7386922688634208,0.17432936409699973 l -5.137382585206591 -22.636255581122157" fill="#fff717" stroke="none" /><path d="M 104.64783097203109 120.47920084513623 l 4.697368003975887 20.697470148080846 a42.22382003069839,42.22382003069839 0 0,0 -0.7082293489867488,0.1543552902752854 l -4.341376238370002 -20.77505689648985" fill="#ffdc14" stroke="none" /><path d="M 104.29559338865022 120.5559693870025 l 4.768813329925781 22.8204981135532 a44.313444934765926,44.313444934765926 0 0,0 -0.745950405841433,0.14921097272782685 l -4.376366438553389 -22.898998482943888" fill="#fff817" stroke="none" /><path d="M 103.58742460773223 120.69131181640829 l 3.4160720835390364 19.702995992023244 a40.99693975441289,40.99693975441289 0 0,0 -0.6944539893629772,0.11427213967893819 l -3.077340591122987 -19.758734130197855" fill="#ffcb12" stroke="none" /><path d="M 103.2317021107853 120.74984581791261 l 2.5737977507222296 16.525627877564155 a37.72485610130468,37.72485610130468 0 0,0 -0.640738526947529,0.09416649841830946 l -2.2897341181670154 -16.567375449281347" fill="#ff9d0e" stroke="none" /><path d="M 102.875027216393 120.80226474461374 l 3.1541453613459556 22.821824598945 a44.03875671527245,44.03875671527245 0 0,0 -0.7497539153364975,0.09707065493662433 l -2.7619136241186824 -22.87260685008202" fill="#fff517" stroke="none" /><path d="M 102.51750503828377 120.84855314841334 l 2.8240784166027812 23.387420508984707 a44.55731005372218,44.55731005372218 0 0,0 -0.7601564054043057,0.08517711076008469 l -2.422186109597676 -23.432453380251765" fill="#fffc17" stroke="none" /><path d="M 102.15924093988457 120.88869738790638 l 2.3939113217720576 23.158920456858702 a44.28231964696853,44.28231964696853 0 0,0 -0.756806850267682,0.07167039556946542 l -1.9960049081193603 -23.19660260793335" fill="#fff817" stroke="none" /><path d="M 101.08105385017728 120.97215588758144 l 1.0309576239370535 20.000302481835448 a41.02685629316961,41.02685629316961 0 0,0 -0.7036579409681635,0.030218099638946137 l -0.6874739223680604 -20.015053149900226" fill="#ffcc13" stroke="none" /><path d="M 100.72087961077811 120.9876233191556 l 0.7200047904522913 20.962153879882074 a41.97451554105909,41.97451554105909 0 0,0 -0.7203360261584926,0.018553300826049286 l -0.36005545022305485 -20.971424898058167" fill="#ffd914" stroke="none" /><line stroke="#e1ed5e" stroke-width="0.3" x1="101.45913802915013" x2="101.54496967792366" y1="184.9874750549273" y2="189.98673829345242" /><path d="M 101.47630435890484 185.9873277026323 a86.0,86.0 0 0,1 -42.54439059252881,-10.42667462771756" fill="none" id="id55" stroke="none" /><text fill="#e1ed5e" style="font-size:6.75px; font-family:Arial;" text-anchor="middle"><textPath startOffset="22.145653131862474" xlink:href="#id55">July</textPath></text><path d="M 100.36049292484886 120.99690560180557 l 0.3594122068997444 20.933959199267534 a41.93704432079816,41.93704432079816 0 0,0 -0.719905131748594,0.006179519725057841 l -2.5640484311071736e-15 -20.937044320798158" fill="#ffd814" stroke="none" /><path d="M 100.0 121.0 l 2.582404035088254e-15 21.086929201841905 a42.086929201841905,42.086929201841905 0 0,0 -0.722478105041836,-0.0062016056062614055 l 0.36198518019298126 -21.083821994430078" fill="#ffda14" stroke="none" /><path d="M 99.63950707515114 120.99690560180557 l -0.3626387984086031 21.121891978685074 a42.12500479662317,42.12500479662317 0 0,0 -0.7229186130194781,-0.01861981910251733 l 0.7251707254988252 -21.112554442232508" fill="#ffdb14" stroke="none" /><path d="M 99.27912038922189 120.98762331915562 l -0.7244757101411584 21.092319828422312 a42.104758250191864,42.104758250191864 0 0,0 -0.7221452037070674,-0.031012022246755797 l 1.0864466744490644 -21.07677523774973" fill="#ffda14" stroke="none" /><path d="M 98.55909050195518 120.95050786540614 l -1.447662033441932 21.048688248102323 a42.09841231772832,42.09841231772832 0 0,0 -0.7205464122727463,-0.055774849363911465 l 1.8087774404899144 -21.020735631743356" fill="#ffda14" stroke="none" /><path d="M 98.19965949673042 120.92268563240118 l -1.8182592798634276 21.130928977984613 a42.20901285495012,42.20901285495012 0 0,0 -0.7213730067966239,-0.06831477375232804 l 2.180731850045067 -21.0966024487271" fill="#ffdc14" stroke="none" /><path d="M 97.84075906011543 120.88869738790638 l -2.1885928624844966 21.17265061314297 a42.28546623177283,42.28546623177283 0 0,0 -0.7213983064245686,-0.08083418492774691 l 2.5517270705098642 -21.131960667708253" fill="#ffdd14" stroke="none" /><path d="M 97.48249496171623 120.84855314841334 l -2.5606750330643937 21.20606263376243 a42.360106485034535,42.360106485034535 0 0,0 -0.7211751207365451,-0.09337055780825995 l 2.924327975691733 -21.158980479753772" fill="#ffde14" stroke="none" /><path d="M 97.12497278360702 120.80226474461374 l -2.929209785143974 21.19430282107953 a42.39576458173446,42.39576458173446 0 0,0 -0.72007165975579,-0.10582573695465598 l 3.292606550507449 -21.14089601082599" fill="#ffde14" stroke="none" /><path d="M 96.41257539226777 120.69131181640829 l -3.6699002703610684 21.167009521397 a42.48279451266309,42.48279451266309 0 0,0 -0.7174843635871115,-0.13074955170723626 l 4.032719367499237 -21.100891795758397" fill="#ffe014" stroke="none" /><path d="M 96.05791012581884 120.62667999033965 l -4.023870086699559 21.054588619264347 a42.43565330007675,42.43565330007675 0 0,0 -0.7143405990650918,-0.1428881260882886 l 4.384707171295609 -20.982411096513196" fill="#ffdf14" stroke="none" /><path d="M 95.70440661134978 120.55596938700252 l -4.38798326180211 20.998088375544917 a42.4516692248657,42.4516692248657 0 0,0 -0.7120511132500223,-0.15518822600869642 l 4.747796791671269 -20.919668691402503" fill="#ffdf14" stroke="none" /><path d="M 95.35216902796893 120.47920084513623 l -4.764316566950792 20.992457869387184 a42.5263094781274,42.5263094781274 0 0,0 -0.7105292674276931,-0.16768297244204458 l 5.123977988118374 -20.90757875329891" fill="#ffe015" stroke="none" /><path d="M 94.6519064749342 120.30758222061772 l -5.510911779112205 20.925829651326957 a42.639327513430544,42.639327513430544 0 0,0 -0.7062262457527677,-0.19248510372853353 l 5.869319425799668 -20.828144053454277" fill="#ffe215" stroke="none" /><path d="M 94.30408787586889 120.21278271476187 l -5.8276820021754565 20.68038752593463 a42.485816385264776,42.485816385264776 0 0,0 -0.7002876170263275,-0.20384351921528168 l 6.1818296315833905 -20.57730031241683" fill="#ffe015" stroke="none" /><path d="M 93.95794788825049 120.11202640906438 l -6.23956067440095 20.7694681779524 a42.686468726016884,42.686468726016884 0 0,0 -0.6999754931159988,-0.21685419705601167 l 6.595176800388583 -20.65929739308974" fill="#ffe215" stroke="none" /><path d="M 93.61358852112213 120.00534299687104 l -6.5956362985283725 20.66073676446807 a42.68797966231773,42.68797966231773 0 0,0 -0.6961744004809227,-0.228846353218713 l 6.949333436657039 -20.544469489847334" fill="#ffe215" stroke="none" /><path d="M 93.27111125876986 119.89276391827306 l -6.964632233967778 20.5896976656784 a42.735725249424405,42.735725249424405 0 0,0 -0.6929175130904205,-0.2410326801838044 l 7.317055519103221 -20.46710655292601" fill="#ffe315" stroke="none" /><path d="M 92.93061703081489 119.77432235084164 l -7.3256006289853905 20.49100874609759 a42.76110897927859,42.76110897927859 0 0,0 -0.6890868174232544,-0.253042224204789 l 7.676276598062763 -20.362235672884086" fill="#ffe315" stroke="none" /><path d="M 92.25597844496254 119.51999308798841 l -8.052660633610015 20.2979651839597 a42.836957981580966,42.836957981580966 0 0,0 -0.6812005244819762,-0.2770383230131493 l 8.399915619282433 -20.15673960436726" fill="#ffe415" stroke="none" /><path d="M 91.92203290615298 119.3841803445677 l -8.362486051877138 20.066922268350126 a42.7396536838066,42.7396536838066 0 0,0 -0.674808098138721,-0.2880354505255466 l 8.705729225186289 -19.92041216816518" fill="#ffe315" stroke="none" /><path d="M 91.59046798132341 119.24265499422711 l -8.734288073369438 19.98576040174112 a42.810969877206446,42.810969877206446 0 0,0 -0.6708817332066561,-0.30007686599218936 l 9.07608320943173 -19.832879784839076" fill="#ffe415" stroke="none" /><path d="M 91.26138138417905 119.09545874513695 l -9.118334396906537 19.92520625459684 a42.91250479662318,42.91250479662318 0 0,0 -0.6672103396257759,-0.31228812836989567 l 9.459033450403803 -19.76574189465642" fill="#ffe515" stroke="none" /><path d="M 90.93487009805054 118.94263497670748 l -9.457598544001437 19.76274349215146 a42.909180736761314,42.909180736761314 0 0,0 -0.6616999235315046,-0.32367059080528177 l 9.795458716795011 -19.597479151248958" fill="#ffe515" stroke="none" /><path d="M 90.6110303473126 118.78422872680471 l -9.830586289363586 19.6677578274141 a42.987749424405216,42.987749424405216 0 0,0 -0.6572474352368636,-0.335595223505326 l 10.166760946314032 -19.496104652235935" fill="#ffe615" stroke="none" /><path d="M 90.28995756902619 118.62028667847754 l -10.140352686248981 19.445463331501593 a42.93063603223331,42.93063603223331 0 0,0 -0.6505242157549076,-0.34636750396732086 l 10.47266571779045 -19.268525359811697" fill="#ffe615" stroke="none" /><line stroke="#e1ed5e" stroke-width="0.3" x1="58.13341422392154" x2="55.67067388415222" y1="173.97424548756322" y2="178.32567169271397" /><path d="M 57.64086615596768 174.84453072859336 a86.0,86.0 0 0,1 -31.369924170532247,-30.572349798747897" fill="none" id="id56" stroke="none" /><text fill="#e1ed5e" style="font-size:6.75px; font-family:Arial;" text-anchor="middle"><textPath startOffset="22.145653131862474" xlink:href="#id56">August</textPath></text><path d="M 89.65649057296885 118.27599006163327 l -11.809997587258444 20.86713412457338 a44.97735034535687,44.97735034535687 0 0,0 -0.6686794073096222,-0.38606223581177274 l 12.166469462428465 -20.661324991485436" fill="#fdff18" stroke="none" /><path d="M 89.34428304082925 118.09573695890944 l -10.690932754378293 18.155541078080045 a42.06940234075211,42.06940234075211 0 0,0 -0.619155914987275,-0.3717853371554781 l 11.001021425922994 -17.96934174038865" fill="#ffda14" stroke="none" /><path d="M 89.03521579738668 117.91015095944536 l -11.362341780258918 18.55953138491757 a42.76141116653876,42.76141116653876 0 0,0 -0.6227606399190331,-0.3886486984872555 l 11.679266548967664 -18.361746889588765" fill="#ffe315" stroke="none" /><path d="M 88.72937992617639 117.7192867562869 l -8.894750872919923 13.98402575108114 a37.57315809669992,37.57315809669992 0 0,0 -0.5412581031300283,-0.35083696315400437 l 9.133494608306961 -13.82927494622324" fill="#ff9b0e" stroke="none" /><path d="M 88.4268655584334 117.5232005979908 l -12.337978293906895 18.681271673581342 a43.387845356868766,43.387845356868766 0 0,0 -0.617974552272026,-0.415800858096622 l 12.656849134275927 -18.466721141427602" fill="#ffec16" stroke="none" /><path d="M 88.1277618465304 117.32195027204791 l -12.45764974315526 18.17608327663662 a43.0354950115119,43.0354950115119 0 0,0 -0.6057858847223737,-0.42288559523895186 l 12.767830719051398 -17.95955286559254" fill="#ffe715" stroke="none" /><path d="M 87.83215693770417 117.11559508785305 l -12.5211237321734 17.61252859258623 a42.609713161933996,42.609713161933996 0 0,0 -0.5925164469430287,-0.4289362140213233 l 12.821621189490383 -17.39499160719184" fill="#ffe115" stroke="none" /><path d="M 87.54013794807813 116.9041958592261 l -10.03679898989641 13.616845452853296 a37.91614063699156,37.91614063699156 0 0,0 -0.5206193249864547,-0.3906824473060308 l 10.26907130379363 -13.44254397828325" fill="#ffa00e" stroke="none" /><path d="M 86.96720088162412 116.46651593811092 l -13.187457335081858 16.661921542633593 a42.249203760552575,42.249203760552575 0 0,0 -0.5648300670894624,-0.4549871198247057 l 13.471538172526582 -16.43308612901548" fill="#ffdc14" stroke="none" /><path d="M 86.68645165197938 116.24036423190432 l -13.470388691184173 16.43168394868079 a42.247390636991554,42.247390636991554 0 0,0 -0.556912478238467,-0.46459619662518725 l 13.750475503584532 -16.19802556814373" fill="#ffdc14" stroke="none" /><path d="M 86.40962598614128 116.0094264158162 l -13.988672101083766 16.478620561061003 a42.61545471987721,42.61545471987721 0 0,0 -0.5536366917532892,-0.47821818821061934 l 14.269488272599919 -16.236058240385663" fill="#ffe115" stroke="none" /><path d="M 86.13680546590413 115.77377054828092 l -14.62797101307052 16.643945793272188 a43.158485226400614,43.158485226400614 0 0,0 -0.5522949699838434,-0.4938655677793368 l 14.911531009877734 -16.39038469560947" fill="#ffe915" stroke="none" /><path d="M 85.86807049272751 115.53346607816431 l -15.107363436712488 16.605638837492698 a43.449491557943205,43.449491557943205 0 0,0 -0.5474019960846135,-0.5066671153386371 l 15.39019520411107 -16.343853976021684" fill="#ffed16" stroke="none" /><path d="M 85.34317274990678 115.03919595460226 l -11.768979528719083 12.076009786973733 a37.86235130468151,37.86235130468151 0 0,0 -0.46157465985125345,-0.4576296009939602 l 11.974546108700299 -11.872200175751113" fill="#ff9f0e" stroke="none" /><path d="M 85.08716467003676 114.78537596483092 l -12.076048954696155 11.972835481267678 a38.00528587874136,38.00528587874136 0 0,0 -0.45536340729181346,-0.4672429712080706 l 12.27979916313878 -11.76376981799187" fill="#ffa10e" stroke="none" /><path d="M 84.83555147118756 114.52719865689866 l -12.455243569563839 11.931841590634043 a38.248244435917115,38.248244435917115 0 0,0 -0.4501347848650827,-0.47802754258748015 l 12.658234188165174 -11.716272588102074" fill="#ffa40f" stroke="none" /><path d="M 84.58840730492382 114.26474011684316 l -12.529828890240443 11.597422561322732 a38.07327801227935,38.07327801227935 0 0,0 -0.43984118010787016,-0.4834625057724339 l 12.727067771190194 -11.380622479992624" fill="#ffa20e" stroke="none" /><path d="M 84.3458050057657 113.99807769240083 l -12.709947872597116 11.365313761104161 a38.050311780506526,38.050311780506526 0 0,0 -0.43121681984221816,-0.4906455836006292 l 12.903175756397927 -11.145455899692232" fill="#ffa10e" stroke="none" /><path d="M 84.1078160697243 113.72728997021213 l -14.757365520020462 12.74706085573329 a40.50044608595549,40.50044608595549 0 0,0 -0.44995115486859594,-0.530041329049119 l 14.974011238396171 -12.491852744234615" fill="#ffc412" stroke="none" /><path d="M 83.8745106332314 113.45245675266167 l -12.464922838700245 10.398681962386993 a37.23289524174981,37.23289524174981 0 0,0 -0.40522364935508576,-0.49430696376946676 l 12.641593307293961 -10.183172716919032" fill="#ff960d" stroke="none" /><path d="M 83.64595745247003 113.17365903436017 l -13.57280416244423 10.933290264870344 a38.42865023023791,38.42865023023791 0 0,0 -0.4094180515065763,-0.517286333446037 l 13.758488644592369 -10.698683987509627" fill="#ffa70f" stroke="none" /><path d="M 83.4222238831116 112.89097897827486 l -13.984158870128292 10.874166519840516 a38.714519378357636,38.714519378357636 0 0,0 -0.403456953030114,-0.5281381026585964 l 14.1687678005127 -10.63250750394105" fill="#ffab0f" stroke="none" /><path d="M 82.98947788004972 112.3143062007846 l -16.136823583589823 11.681815838169475 a40.921392939370676,40.921392939370676 0 0,0 -0.4070410062932004,-0.5725541504931435 l 16.334979688412982 -11.403084460966827" fill="#ffca12" stroke="none" /><path d="M 82.78059297857968 112.02048342749411 l -16.78272722037346 11.71564701210097 a41.46744531849578,41.46744531849578 0 0,0 -0.4024519497123211,-0.587189422052508 l 16.981368906901107 -11.425822854978412" fill="#ffd213" stroke="none" /><path d="M 82.576782715395 111.72311816256416 l -15.816283180861785 10.641901182375252 a40.06318112049117,40.06318112049117 0 0,0 -0.3790273803682921,-0.5738957627995422 l 15.996635000150803 -10.368825541236648" fill="#ffbe11" stroke="none" /><path d="M 82.37810715431573 111.42229804090323 l -17.179063333891577 11.135261301473577 a41.47228031465848,41.47228031465848 0 0,0 -0.38210250137229934,-0.6007285976958101 l 17.367683526889767 -10.838719029099094" fill="#ffd213" stroke="none" /><path d="M 82.18462484594161 111.11811171558189 l -17.909630520496055 11.176934035335764 a42.11110418265541,42.11110418265541 0 0,0 -0.3774599456824643,-0.6165524540561171 l 18.098858430633925 -10.86784446515509" fill="#ffda14" stroke="none" /><path d="M 81.99639281039703 110.81064883170644 l -14.680694674979353 8.815335341706295 a38.12404547198772,38.12404547198772 0 0,0 -0.3320900091921264,-0.5639614374188678 l 14.82985839430125 -8.562022735993867" fill="#ffa30f" stroke="none" /><line stroke="#e1ed5e" stroke-width="0.3" x1="26.387840678322732" x2="22.057713659400548" y1="142.50000000000003" y2="145.00000000000006" /><path d="M 25.521815274538298 143.00000000000003 a86.0,86.0 0 0,1 -11.493303480769221,-40.785679425670985" fill="none" id="id57" stroke="none" /><text fill="#e1ed5e" style="font-size:6.75px; font-family:Arial;" text-anchor="middle"><textPath startOffset="21.40746469413373" xlink:href="#id57">September</textPath></text><path d="M 81.81346652052679 110.50000000000001 l -26.932521872213535 15.549498752877987 a52.098997505755946,52.098997505755946 0 0,0 -0.4405258891836518,-0.77836703581208 l 27.195481126418564 -15.084874946966785" fill="#a2ff22" stroke="none" /><path d="M 81.63589988554817 110.18625677009913 l -17.832855449302855 9.89158430952513 a41.39250287797391,41.39250287797391 0 0,0 -0.33932913626209815,-0.6243273912851183 l 18.00002993518028 -9.584002084765427" fill="#ffd113" stroke="none" /><path d="M 81.4637452351635 109.86951160357371 l -18.016567461016134 9.59280738579317 a41.411238488104374,41.411238488104374 0 0,0 -0.3287104433200486,-0.6303456171627605 l 18.178585973311133 -9.282115525525908" fill="#ffd113" stroke="none" /><path d="M 81.29705330413844 109.54985784667822 l -18.712276638572455 9.554621781904883 a42.010475825019185,42.010475825019185 0 0,0 -0.32244057807108656,-0.6450971505224511 l 18.873537129855276 -9.231992775218679" fill="#ffd914" stroke="none" /><path d="M 81.1358732173502 109.22738970284198 l -18.308101940557606 8.955410089814517 a41.38101976208749,41.38101976208749 0 0,0 -0.3066545238929334,-0.6407900132584613 l 18.45913572241045 -8.639807574490952" fill="#ffd013" stroke="none" /><path d="M 80.83023694016515 108.57439118712176 l -17.280647643179492 7.729413889829859 a39.93052091327705,39.93052091327705 0 0,0 -0.27450544253762293,-0.6281221729173382 l 17.410786967734083 -7.431629647136671" fill="#ffbc11" stroke="none" /><path d="M 80.68587082218212 108.24405325689762 l -15.922483604142165 6.796361441207758 a38.31230813507291,38.31230813507291 0 0,0 -0.25299652259472244,-0.6070995540771712 l 16.036805971273374 -6.522029377689306" fill="#ffa50f" stroke="none" /><path d="M 80.41425534168474 107.57618678355246 l -28.974463718477924 11.207945008680369 a52.06666346891788,52.06666346891788 0 0,0 -0.315299142352675,-0.836368434882036 l 29.162593544645034 -10.708908293604189" fill="#a3ff22" stroke="none" /><path d="M 80.28708602549918 107.23885506374661 l -36.45763875783916 13.387749942794107 a59.83801323867996,59.83801323867996 0 0,0 -0.3458062434073559,-0.9672816082927377 l 36.68208517129047 -12.759933378120447" fill="#49ff2c" stroke="none" /><path d="M 80.16572619554312 106.89939002012753 l -19.519368555546908 6.7898496279238545 a41.666586722947045,41.666586722947045 0 0,0 -0.2291951523723631,-0.6775747426792165 l 19.63304912949164 -6.453773210770477" fill="#ffd413" stroke="none" /><path d="M 80.05021161711548 106.5578916946017 l -19.090477659178156 6.275419191639665 a41.095452801227935,41.095452801227935 0 0,0 -0.21454817372023968,-0.6720690984007388 l 19.195390548675647 -5.9467810595475346" fill="#ffcc13" stroke="none" /><path d="M 79.94057633289273 106.21446072829308 l -19.135062178379815 5.928091176217529 a41.03229566385265,41.03229566385265 0 0,0 -0.20266765261685268,-0.6746147014797967 l 19.234006151000298 -5.598738871147009" fill="#ffcc13" stroke="none" /><path d="M 79.83685265289637 105.86919833188381 l -19.182070185318235 5.583621068459835 a40.97820414428242,40.97820414428242 0 0,0 -0.19080526634780157,-0.6771005776548298 l 19.275093943740615 -5.2535125669020095" fill="#ffcb12" stroke="none" /><path d="M 79.73907114497094 105.5222062557868 l -19.31153795909286 5.263445545345602 a41.01597755180353,41.01597755180353 0 0,0 -0.17931896163488165,-0.6809033050841046 l 19.399046401532473 -4.931161735888695" fill="#ffcb13" stroke="none" /><path d="M 79.64726062577567 105.17358676015961 l -19.398753528268266 4.931087288650205 a41.01567536454336,41.01567536454336 0 0,0 -0.1676026930779138,-0.683876182317139 l 19.480543747862473 -4.597355281724966" fill="#ffcb13" stroke="none" /><path d="M 79.56144815229197 104.8234425847677 l -19.50877812493528 4.604018517835926 a41.04468534151957,41.04468534151957 0 0,0 -0.15594857528745357,-0.6871381971597339 l 19.5849375617804 -4.2684459867371665" fill="#ffcc13" stroke="none" /><path d="M 79.48165901384964 104.47187691870673 l -19.5385823305617 4.258343079845807 a40.99724194167307,40.99724194167307 0 0,0 -0.14396335574601204,-0.6889167725661075 l 19.608803397132075 -3.922309855994291" fill="#ffcb12" stroke="none" /><path d="M 79.34024301695615 103.76489593502545 l -19.555518341149856 3.563666870347841 a40.8775757866462,40.8775757866462 0 0,0 -0.1198787126331252,-0.6914285579396768 l 19.613811871275217 -3.2274452794875716" fill="#ffc912" stroke="none" /><path d="M 79.2786578344484 103.40968896794605 l -19.675832772614932 3.2376507952013007 a40.940430736761314,40.940430736761314 0 0,0 -0.1081578099281965,-0.6944507269167283 l 19.728512074681394 -2.899411886353122" fill="#ffca12" stroke="none" /><path d="M 79.22317932658666 103.0534771498775 l -19.54733277698251 2.8727847688431596 a40.757305257099006,40.757305257099006 0 0,0 -0.0957903097557571,-0.6930909635032462 l 19.59376760329348 -2.5368054971398277" fill="#ffc812" stroke="none" /><path d="M 79.17382384314188 102.69636545807758 l -19.867980254629703 2.572307814783837 a41.0338066001535,41.0338066001535 0 0,0 -0.08444740543253208,-0.6993456591474899 l 19.909209746321896 -2.2308684787129476" fill="#ffcc13" stroke="none" /><path d="M 79.13060592940153 102.33845913500099 l -19.791188758173217 2.2176439808226642 a40.91504700690714,40.91504700690714 0 0,0 -0.07222013828791511,-0.6986643251075325 l 19.8263412889428 -1.8775751334322004" fill="#ffca12" stroke="none" /><path d="M 79.06263194458094 101.62068470465958 l -39.94509974371984 3.0920033506308875 a61.0645913277053,61.0645913277053 0 0,0 -0.07192838583435653,-1.0458229439208033 l 39.99229209071925 -2.4058369825557406" fill="#3cff2e" stroke="none" /><path d="M 79.03789590574601 101.26102812881392 l -20.032041436580123 1.2050778688775758 a41.068255947812744,41.068255947812744 0 0,0 -0.03629340734200286,-0.7040824065731635 l 20.0497764333787 -0.8610236689276817" fill="#ffcc13" stroke="none" /><path d="M 79.01933749520258 100.90099992219065 l -16.92743359534222 0.7269368328480237 a37.94303530314659,37.94303530314659 0 0,0 -0.022359854198384776,-0.650982758245055 l 16.937418136537453 -0.4362478100388487" fill="#ffa00e" stroke="none" /><path d="M 79.00696218219943 100.54070618675478 l -30.13711289069318 0.7762251243651574 a51.14710763622409,51.14710763622409 0 0,0 -0.015072732101769709,-0.8779110803209431 l 30.145997054393618 -0.258767128075162" fill="#aeff20" stroke="none" /><line stroke="#e1ed5e" stroke-width="0.3" x1="15.003131293944662" x2="10.003315487706104" y1="100.72959589197737" y2="100.7725132973878" /><path d="M 14.003168132696942 100.73817937305945 a86.0,86.0 0 0,1 10.791469493833604,-42.45332614584628" fill="none" id="id58" stroke="none" /><text fill="#e1ed5e" style="font-size:6.75px; font-family:Arial;" text-anchor="middle"><textPath startOffset="22.145653131862435" xlink:href="#id58">October</textPath></text><path d="M 79.00077361379809 100.18025310272382 l -19.943624445836427 0.17119202963985344 a40.94435917114352,40.94435917114352 0 0,0 0.0,-0.7028902647273346 l 19.943624445836427 0.1711920296398461" fill="#ffca12" stroke="none" /><path d="M 79.00696218219943 99.45929381324524 l -38.37170447562353 -0.9883189934856575 a59.38443016116654,59.38443016116654 0 0,0 0.034995281464671894,-1.0188494366427014 l 38.34908450716201 1.6468746946924975" fill="#4eff2c" stroke="none" /><path d="M 79.01933749520258 99.09900007780938 l -20.019585533765124 -0.8597271417948035 a41.03803722179586,41.03803722179586 0 0,0 0.036266702031363576,-0.7035643306810907 l 20.00187724227719 1.2032632658526061" fill="#ffcc13" stroke="none" /><path d="M 79.03789590574601 98.7389718711861 l -19.95904408636702 -1.2006865295571594 a40.995126630851885,40.995126630851885 0 0,0 0.04828843068494673,-0.7021031843053349 l 19.935491694517008 1.5431331380168194" fill="#ffcb12" stroke="none" /><path d="M 79.06263194458094 98.37931529534042 l -19.8812602154786 -1.5389352785554022 a40.94073292402149,40.94073292402149 0 0,0 0.06025379708479706,-0.7002404557772394 l 19.85191279569606 1.879996781708322" fill="#ffca12" stroke="none" /><path d="M 79.0935383218832 98.0201363427161 l -19.86966242979538 -1.8816776905117527 a40.95856197237145,40.95856197237145 0 0,0 0.07229694760511036,-0.6994073855755935 l 19.834433089708607 2.222489598370259" fill="#ffcb12" stroke="none" /><path d="M 79.13060592940154 97.66154086499901 l -19.986689173656135 -2.2395502101523803 a41.111770913277056,41.111770913277056 0 0,0 0.08460785566868023,-0.7006744172731911 l 19.945299231727788 2.5823183043490077" fill="#ffcd13" stroke="none" /><path d="M 79.22317932658666 96.9465228501225 l -37.700840659786394 -5.540725277238364 a59.10581350729087,59.10581350729087 0 0,0 0.1561477304446824,-1.002580442278702 l 37.60017143720344 6.187093901448516" fill="#51ff2b" stroke="none" /><path d="M 79.2786578344484 96.59031103205396 l -19.924214555384093 -3.2785219230356053 a41.192152724481964,41.192152724481964 0 0,0 0.12080124968690377,-0.6967495065111897 l 19.864998488204954 3.6200644624673877" fill="#ffce13" stroke="none" /><path d="M 79.34024301695615 96.23510406497455 l -19.570680192734695 -3.5664298647744412 a40.892987336914814,40.892987336914814 0 0,0 0.13178000346417792,-0.6895286630536517 l 19.506573896988357 3.9018610928614073" fill="#ffca12" stroke="none" /><path d="M 79.407916724674 95.88100663000787 l -6.294966669719285 -1.2591696347675485 a27.41966615502686,27.41966615502686 0 0,0 0.09628518812872919,-0.46075948082644 l 6.272423770766189 1.3670455668793977" fill="#ff0000" stroke="none" /><path d="M 79.48165901384962 95.52812308129327 l -19.571651030539375 -4.265550249093139 a41.03108691481197,41.03108691481197 0 0,0 0.15589690829931172,-0.686910542876777 l 19.4955432606824 4.600895125908924" fill="#ffcc13" stroke="none" /><path d="M 79.56144815229197 95.17655741523228 l -19.52554228632226 -4.607974814276819 a41.06191001534919,41.06191001534919 0 0,0 0.16779162211344295,-0.6846470772542913 l 19.443563137692518 4.942477716139228" fill="#ffcc13" stroke="none" /><path d="M 79.64726062577567 94.8264132398404 l -10.184960636195683 -2.588977165742184 a31.50886415963162,31.50886415963162 0 0,0 0.13775453227376916,-0.5230763967198676 l 10.13901662311719 2.763434066834836" fill="#ff4006" stroke="none" /><path d="M 79.73907114497095 94.47779374421319 l -19.324366252496844 -5.266941953757756 a41.02927379125096,41.02927379125096 0 0,0 0.1910430600187309,-0.6779444235037076 l 19.23110470040353 5.5978943011644775" fill="#ffcc13" stroke="none" /><path d="M 79.83685265289637 94.1308016681162 l -19.163500901498956 -5.578215820571677 a40.95886415963162,40.95886415963162 0 0,0 0.20230495805278245,-0.6734074092360209 l 19.064919623442545 5.906360833398422" fill="#ffcb12" stroke="none" /><path d="M 79.94057633289273 93.78553927170692 l -19.05943522614292 -5.904661753095693 a40.953122601688406,40.953122601688406 0 0,0 0.21380510648785436,-0.6697414508787027 l 18.95526540387781 6.230972237665788" fill="#ffca12" stroke="none" /><path d="M 80.05021161711548 93.44210830539832 l -19.047416431375503 -6.261264110756261 a41.05012471220261,41.05012471220261 0 0,0 0.22580418335866317,-0.6675499453259062 l 18.937126826444473 6.587315730556329" fill="#ffcc13" stroke="none" /><path d="M 80.16572619554312 93.10060997987247 l -18.90202107513094 -6.575104127920932 a41.01295567920184,41.01295567920184 0 0,0 0.23701549177253464,-0.662974513742266 l 18.786365413314464 6.89861359804412" fill="#ffcb12" stroke="none" /><path d="M 80.28708602549916 92.7611449362534 l -18.814448373072846 -6.908926049856923 a41.04287221795856,41.04287221795856 0 0,0 0.24854257115472736,-0.65928869862171 l 18.693075118103685 7.230883028672778" fill="#ffcc13" stroke="none" /><path d="M 80.41425534168474 92.42381321644754 l -18.673628412691784 -7.2233606252566425 a41.0220212970069,41.0220212970069 0 0,0 0.25969151746627017,-0.6545922670699883 l 18.546878220259384 7.542853909540214" fill="#ffcb13" stroke="none" /><path d="M 80.5471966667186 92.08871423366112 l -18.495372332692373 -7.521906913458966 a40.96641884113584,40.96641884113584 0 0,0 0.27052302548378127,-0.6491567807115668 l 18.363523462672113 7.8382962036117965" fill="#ffcb12" stroke="none" /><path d="M 80.68587082218212 91.75594674310238 l -18.461631975715616 -7.88017289393727 a41.073090943975444,41.073090943975444 0 0,0 0.28236012824501805,-0.6460952309685922 l 18.32363796545362 8.19593019468173" fill="#ffcc13" stroke="none" /><path d="M 80.9802524753101 91.09779779509293 l -18.072409370927527 -8.458800115038715 a40.95402916346892,40.95402916346892 0 0,0 0.3034903051405107,-0.6341780130486623 l 17.92453980782711 8.767790630152463" fill="#ffcb12" stroke="none" /><path d="M 81.1358732173502 90.77261029715801 l -17.115611884588 -8.372103447001045 a40.053511128165766,40.053511128165766 0 0,0 0.30742039999105414,-0.6150467327439708 l 16.9693715713852 8.664682035908786" fill="#ffbe11" stroke="none" /><path d="M 81.29705330413844 90.45014215332179 l -17.817678670176775 -9.09783368497915 a41.006005372217956,41.006005372217956 0 0,0 0.32549381995804755,-0.6241773177384322 l 17.658876781243787 9.402357245822069" fill="#ffcb12" stroke="none" /><path d="M 81.46374523516351 90.13048839642627 l -16.169699253153585 -8.609454090371878 a39.31889389869532,39.31889389869532 0 0,0 0.3223300206019532,-0.5930509331207625 l 16.01952388293628 8.88575985696726" fill="#ffb410" stroke="none" /><path d="M 81.63589988554816 89.8137432299009 l -17.476901263949355 -9.694142523224405 a40.98545663852648,40.98545663852648 0 0,0 0.3465547437317019,-0.6123290259397317 l 17.30791315519628 9.992728319263241" fill="#ffcb12" stroke="none" /><line stroke="#e1ed5e" stroke-width="0.3" x1="26.387840678322718" x2="22.05771365940052" y1="57.49999999999999" y2="54.99999999999999" /><path d="M 25.521815274538284 56.99999999999999 a86.0,86.0 0 0,1 29.574782752854787,-30.34633250058573" fill="none" id="id59" stroke="none" /><text fill="#e1ed5e" style="font-size:6.75px; font-family:Arial;" text-anchor="middle"><textPath startOffset="21.40746469413373" xlink:href="#id59">November</textPath></text><path d="M 81.81346652052679 89.5 l -16.482243837356616 -9.516027916346895 a40.032055832693786,40.032055832693786 0 0,0 0.3487102594929619,-0.5921862559634662 l 16.316459867733876 9.797565340603933" fill="#ffbe11" stroke="none" /><path d="M 81.99639281039701 89.18935116829357 l -17.19859171463427 -10.327260168960999 a41.06100345356869,41.06100345356869 0 0,0 0.36804744102711295,-0.6011778350787774 l 17.01877630915176 10.620975120164319" fill="#ffcc13" stroke="none" /><path d="M 82.18462484594161 88.88188828441811 l -16.891364929860213 -10.541460996181524 a40.910816385264766,40.910816385264766 0 0,0 0.3769294853185901,-0.5925957572442507 l 16.707917752915733 10.829870428104446" fill="#ffca12" stroke="none" /><path d="M 82.37810715431573 88.57770195909679 l -16.81340567632045 -10.89824642558645 a41.036526285495015,41.036526285495015 0 0,0 0.3882359468816654,-0.58783870617833 l 16.623845290518055 11.185265010103842" fill="#ffcc13" stroke="none" /><path d="M 82.576782715395 88.27688183743585 l -16.61206155281118 -11.17733638548315 a41.022323484267076,41.022323484267076 0 0,0 0.3981319307512297,-0.5808863852829436 l 16.417739885244636 11.460857505836128" fill="#ffcb13" stroke="none" /><path d="M 82.78059297857968 87.97951657250589 l -15.335414915901332 -10.70531061964137 a39.70236953184958,39.70236953184958 0 0,0 0.39491550227557276,-0.5554981105738803 l 15.149384315095787 10.966985956924772" fill="#ffb911" stroke="none" /><path d="M 82.98947788004972 87.6856937992154 l -16.208299108230452 -11.733558605973997 a41.009631619339984,41.009631619339984 0 0,0 0.4177084467137329,-0.5667017311971709 l 16.0044886419329 12.01006664644003" fill="#ffcb12" stroke="none" /><path d="M 83.2033758604659 87.39550010848427 l -16.01609030097018 -12.018772747669779 a41.02413660782808,41.02413660782808 0 0,0 0.42752624654142735,-0.5596455804996093 l 15.807412077074446 12.291939241410272" fill="#ffcb13" stroke="none" /><path d="M 83.42222388311158 87.10902102172516 l -15.829120312300418 -12.308819696423075 a41.05163564850345,41.05163564850345 0 0,0 0.4373632843638946,-0.5525942222625218 l 15.615490597294961 12.578733862600279" fill="#ffcc13" stroke="none" /><path d="M 83.64595745247003 86.82634096563983 l -15.631728542456795 -12.591814001798825 a41.0724865694551,41.0724865694551 0 0,0 0.4470117832013151,-0.5452816924063514 l 15.41326994001685 12.85829797590367" fill="#ffcc13" stroke="none" /><path d="M 83.8745106332314 86.54754324733833 l -15.352474493728092 -12.807580252344613 a40.993313507290864,40.993313507290864 0 0,0 0.4554268048146759,-0.536491630917276 l 15.130353125406302 13.069238665711445" fill="#ffcb12" stroke="none" /><path d="M 84.10781606972428 86.27271002978789 l -15.143616939699605 -13.080695632589883 a41.010840368380656,41.010840368380656 0 0,0 0.4647679174016626,-0.5288205737332465 l 14.91683795833935 13.33872848413443" fill="#ffcb12" stroke="none" /><path d="M 84.34580500576568 86.00192230759919 l -14.847232054849064 -13.276486456022116 a40.91746450498849,40.91746450498849 0 0,0 0.47269861736340724,-0.5195785850920815 l 14.617135736643792 13.529402616671856" fill="#ffca12" stroke="none" /><path d="M 84.58840730492382 85.73525988315684 l -14.706952913948653 -13.612536055092637 a41.03985034535687,41.03985034535687 0 0,0 0.4829885522472099,-0.5129171050351483 l 14.471108527965171 13.862994620072296" fill="#ffcc13" stroke="none" /><path d="M 84.83555147118756 85.47280134310135 l -14.437939933715656 -13.831219857085216 a40.9939178818112,40.9939178818112 0 0,0 0.4911719434097065,-0.5039856838248832 l 14.198381189155146 14.07702823297783" fill="#ffcb12" stroke="none" /><path d="M 85.08716467003674 85.21462403516908 l -14.230784846122118 -14.109154937275937 a41.0395481580967,41.0395481580967 0 0,0 0.5003074248898902,-0.49603131874799855 l 13.986485501102251 14.351366266252608" fill="#ffcc13" stroke="none" /><path d="M 85.34317274990677 84.96080404539775 l -13.984587312615336 -14.349418557643753 a41.03682847275518,41.03682847275518 0 0,0 0.5087150259183055,-0.4873374872302955 l 13.736199800831729 14.587368175179618" fill="#ffcc13" stroke="none" /><path d="M 85.60350026404147 84.71141617570332 l -13.72128401062179 -14.571528122867411 a41.01507099002302,41.01507099002302 0 0,0 0.5167317481621349,-0.47827919174180306 l 13.469122491145702 14.80492506074158" fill="#ffcb13" stroke="none" /><path d="M 85.86807049272753 84.46653392183569 l -13.542330875009165 -14.885393898828772 a41.123858403683805,41.123858403683805 0 0,0 0.5262580469063142,-0.4705831906117755 l 13.28480780127946 15.115672619323947" fill="#ffcd13" stroke="none" /><path d="M 86.13680546590413 84.22622945171909 l -13.184265062716753 -15.00127343921554 a40.97155602455871,40.97155602455871 0 0,0 0.5322800585497953,-0.45977083710657585 l 12.924805524404109 15.225388408786827" fill="#ffcb12" stroke="none" /><path d="M 86.40962598614128 83.9905735841838 l -13.015938212774095 -15.332742486536786 a41.11237528779739,41.11237528779739 0 0,0 0.5419505077728567,-0.4521143887218594 l 12.75081337083933 15.553919059170527" fill="#ffcd13" stroke="none" /><path d="M 86.68645165197937 83.75963576809568 l -12.718244732804552 -15.514190616354567 a41.06100345356869,41.06100345356869 0 0,0 0.5489450041919053,-0.4421912375990332 l 12.450048958257401 15.730230147747" fill="#ffcc13" stroke="none" /><path d="M 86.96720088162412 83.53348406188908 l -9.68495508544465 -12.236624367938274 a36.60555448963929,36.60555448963929 0 0,0 0.4960750847078102,-0.3857509863521191 l 9.473470056101593 12.401076405911198" fill="#ff8d0d" stroke="none" /><path d="M 87.25179093698888 83.31218511350988 l -10.890216294498105 -14.255642710137453 a38.93934669992325,38.93934669992325 0 0,0 0.5346687730805156,-0.4012254150777957 l 10.643894532506838 14.440487152479248" fill="#ffae10" stroke="none" /><path d="M 87.54013794807813 83.09580414077388 l -11.939844497653972 -16.198692174598683 a41.12355621642364,41.12355621642364 0 0,0 0.5718504445785411,-0.41397562202608396 l 11.660013042701463 16.401268567997846" fill="#ffcd13" stroke="none" /><path d="M 87.83215693770416 82.88440491214696 l -10.637816173011085 -14.963420657557236 a39.35938699155794,39.35938699155794 0 0,0 0.5540394287188556,-0.38676255011620186 l 10.379381653118465 15.143828023478566" fill="#ffb410" stroke="none" /><path d="M 88.12776184653039 82.6780497279521 l -11.387679085703525 -16.61496411095401 a41.14289620107444,41.14289620107444 0 0,0 0.585999665341983,-0.39428672717622587 l 11.100783132264551 16.808000512187345" fill="#ffcd13" stroke="none" /><path d="M 88.4268655584334 82.4767994020092 l -9.839273729997664 -14.897914491517062 a38.85382770529547,38.85382770529547 0 0,0 0.5597067201267575,-0.3627951338014151 l 9.58208137761388 15.064623467022383" fill="#ffad10" stroke="none" /><path d="M 88.72937992617638 82.28071324371311 l -10.784017755690053 -16.954267089684155 a41.09333749040675,41.09333749040675 0 0,0 0.5984674605865472,-0.3734879578680152 l 10.491386166313807 17.136890844393708" fill="#ffcc13" stroke="none" /><path d="M 89.03521579738668 82.08984904055464 l -10.48586380281959 -17.12787047864763 a41.08276093630084,41.08276093630084 0 0,0 0.6046350321710677,-0.363065964243196 l 10.190296014091087 17.30535044342675" fill="#ffcc13" stroke="none" /><line stroke="#e1ed5e" stroke-width="0.3" x1="56.869717070023135" x2="54.33264160355391" y1="26.7553504044142" y2="22.446841604673864" /><path d="M 56.362301976729285 25.89364864446614 a86.0,86.0 0 0,1 42.16139366436587,-11.88097634709845" fill="none" id="id60" stroke="none" /><text fill="#e1ed5e" style="font-size:6.75px; font-family:Arial;" text-anchor="middle"><textPath startOffset="22.145653131862474" xlink:href="#id60">December</textPath></text><path d="M 89.34428304082924 81.90426304109057 l -10.184009304641846 -17.294674236375972 a41.07037125863392,41.07037125863392 0 0,0 0.6105942502245364,-0.35252675473277195 l 9.88562258655691 17.46694788838492" fill="#ffcc13" stroke="none" /><path d="M 89.65649057296885 81.72400993836675 l -9.851686667293242 -17.406986370723 a41.001472563315424,41.001472563315424 0 0,0 0.6155215485592043,-0.3414194271473724 l 9.551420930577935 17.573538713303517" fill="#ffcb12" stroke="none" /><path d="M 89.97174638481275 81.54914285379989 l -9.57927184598082 -17.624781260730845 a41.05979470452801,41.05979470452801 0 0,0 0.6221755188804055,-0.3312734196283454 l 9.275307511313853 17.786625148081768" fill="#ffcc13" stroke="none" /><path d="M 90.28995756902619 81.37971332152246 l -9.30045823518533 -17.834854977352574 a41.1141884113584,41.1141884113584 0 0,0 0.6286022238202894,-0.32096877445081573 l 8.992928789651458 17.991881703476224" fill="#ffcd13" stroke="none" /><path d="M 90.61103034731259 81.2157712731953 l -8.976851169898922 -17.959715694000646 a41.07822812739831,41.07822812739831 0 0,0 0.6334649122634852,-0.3098594319196335 l 8.667226008373383 18.111168876017494" fill="#ffcc13" stroke="none" /><path d="M 90.93487009805054 81.0573650232925 l -8.648572225142683 -18.072189643453182 a41.03501534919417,41.03501534919417 0 0,0 0.6380188399032001,-0.29862503253449846 l 8.33706467136796 18.217990907558224" fill="#ffcc13" stroke="none" /><path d="M 91.26138138417902 80.90454125486306 l -8.363597411121486 -18.27596973231682 a41.098776861089796,41.098776861089796 0 0,0 0.6440503154291559,-0.2880755141021737 l 8.048633692836711 18.416848997328838" fill="#ffcd13" stroke="none" /><path d="M 91.92203290615298 80.6158196554323 l -7.68352299841647 -18.43765810786538 a40.9745778971604,40.9745778971604 0 0,0 0.651584642541023,-0.26499380165328035 l 7.365883894685006 18.566839166097953" fill="#ffcb12" stroke="none" /><path d="M 92.25597844496254 80.48000691201159 l -7.387725244811456 -18.62189363624251 a41.0338066001535,41.0338066001535 0 0,0 0.6569859025927473,-0.2541362607875225 l 7.066967079725179 18.745969785168075" fill="#ffcc13" stroke="none" /><path d="M 92.93061703081487 80.22567764915836 l -6.768337391669651 -18.932244291407773 a41.10572716807367,41.10572716807367 0 0,0 0.6664887065058065,-0.23183936934260535 l 6.44234291311884 19.045642093318964" fill="#ffcd13" stroke="none" /><path d="M 93.27111125876988 80.10723608172694 l -6.426753632314862 -18.99955515465567 a41.0570750191865,41.0570750191865 0 0,0 0.6695768882267377,-0.22010322264703844 l 6.099654006440363 19.107079298704736" fill="#ffcc13" stroke="none" /><path d="M 93.61358852112211 79.99465700312896 l -5.653940810845228 -17.710889061730086 a39.59146680736761,39.59146680736761 0 0,0 0.6492234501652154,-0.20113108441666902 l 5.349076727808396 17.805336733953396" fill="#ffb711" stroke="none" /><path d="M 93.95794788825049 79.88797359093562 l -5.786667599044515 -19.261934425580716 a41.11237528779739,41.11237528779739 0 0,0 0.6776493844323908,-0.19725385964032435 l 5.4551582022305 19.358431979523562" fill="#ffcd13" stroke="none" /><path d="M 94.30408787586887 79.78721728523814 l -5.448928981373333 -19.336326672256842 a41.08940905602456,41.08940905602456 0 0,0 0.680555271156592,-0.1854883654485923 l 5.116192309282064 19.427015531849573" fill="#ffcc13" stroke="none" /><path d="M 94.6519064749342 79.69241777938228 l -5.108881264315431 -19.399254303276685 a41.06070126630852,41.06070126630852 0 0,0 0.6831615085191529,-0.1736569839832721 l 4.7751144625709 19.48409651909522" fill="#ffcc13" stroke="none" /><path d="M 95.00130118170881 79.60360301121753 l -4.784465443668048 -19.522251713001708 a41.09998561013047,41.09998561013047 0 0,0 0.6866982586832064,-0.1620589192668176 l 4.448635031244936 19.60150677591476" fill="#ffcd13" stroke="none" /><path d="M 95.35216902796891 79.52079915486377 l -4.446093527355779 -19.590308440840197 a41.088502494244054,41.088502494244054 0 0,0 0.6891864201577073,-0.15020497256916035 l 4.109144690578954 19.66374487154307" fill="#ffcc13" stroke="none" /><path d="M 95.70440661134978 79.44403061299748 l -4.109701007834774 -19.666407051001286 a41.09122217958557,41.09122217958557 0 0,0 0.6917091168719514,-0.1383611958180339 l 3.7714954054318457 19.734057643482185" fill="#ffcc13" stroke="none" /><path d="M 96.41257539226777 79.30868818359171 l -3.4227830179069088 -19.741702878095765 a41.03622409823484,41.03622409823484 0 0,0 0.6951194334046553,-0.11438163824276991 l 3.0833860814491807 19.797550514834203" fill="#ffcc13" stroke="none" /><path d="M 97.12497278360702 79.19773525538626 l -2.7422944028963294 -19.84187622692903 a41.030482540291636,41.030482540291636 0 0,0 0.6985384517465149,-0.09043978780560355 l 2.401278129259021 19.88602761093503" fill="#ffcc13" stroke="none" /><path d="M 97.48249496171623 79.15144685158666 l -2.4120736468349304 -19.975429982935616 a41.12053434382195,41.12053434382195 0 0,0 0.7015243410658447,-0.07860726565617707 l 2.0688134041682864 20.013893009098762" fill="#ffcd13" stroke="none" /><path d="M 97.84075906011542 79.11130261209362 l -2.0663587797306775 -19.99014674432068 a41.09666155026861,41.09666155026861 0 0,0 0.7023623701814117,-0.06651444669958313 l 1.72289684616425 20.022672946525443" fill="#ffcc13" stroke="none" /><path d="M 98.1996594967304 79.07731436759882 l -1.719114473080827 -19.97871603791555 a41.05254221028396,41.05254221028396 0 0,0 0.7026455482702472,-0.05438920927713884 l 1.3758999300353627 20.005283014187743" fill="#ffcc13" stroke="none" /><path d="M 98.5590905019552 79.04949213459386 l -1.3771440000164066 -20.02337151867629 a41.07067344589409,41.07067344589409 0 0,0 0.7037863714870196,-0.04233804045292683 l 1.033213276396903 20.04406153695391" fill="#ffcc13" stroke="none" /><path d="M 98.9189461498227 79.02784411241856 l -1.0404002518206648 -20.183486940158964 a41.2102839600921,41.2102839600921 0 0,0 0.7068039371785902,-0.030353202252614193 l 0.6937705540412543 20.198372710837408" fill="#ffce13" stroke="none" /><path d="M 99.27912038922189 79.0123766808444 l -0.8967876520248278 -26.108994007544926 a47.12439082885649,47.12439082885649 0 0,0 0.8087144303450772,-0.02082961501811373 l 0.4484599076090067 26.120541339913085" fill="#e1ff1b" stroke="none" /></svg>