<?xml version="1.0" encoding="utf-8" ?>
<svg baseProfile="full" height="200mm" version="1.1" viewBox="0,0,200,200" width="200mm" xmlns="http://www.w3.org/2000/svg" xmlns:ev="http://www.w3.org/2001/xml-events" xmlns:xlink="http://www.w3.org/1999/xlink"><defs /><rect fill="#1a1a1a" height="200" width="200" x="0" y="0" /><rect fill="#1a1a1a" height="200" width="180" x="10" y="0" /><text alignment-baseline="middle" fill="#e1ed5e" style="dominant-baseline: central; font-size:9.0px; font-family:Arial;" text-anchor="middle" x="100.0" y="100.0">2023</text><line stroke="#e1ed5e" stroke-width="0.3" x1="100.0" x2="100.0" y1="15.0" y2="10.0" /><path d="M 100.0 14.0 a86.0,86.0 0 0,1 42.46469731375804,11.215312516191453" fill="none" id="id85" stroke="none" /><text fill="#e1ed5e" style="font-size:6.75px; font-family:Arial;" text-anchor="middle"><textPath startOffset="22.20632615414155" xlink:href="#id85">January</textPath></text><line stroke="#e1ed5e" stroke-width="0.3" x1="143.23703022742887" x2="145.7803849466894" y1="26.81831364943548" y2="22.513508569990506" /><path d="M 143.74570117128098 25.957352633546492 a86.0,86.0 0 0,1 28.547481713284135,27.462654790039103" fill="none" id="id86" stroke="none" /><text fill="#e1ed5e" style="font-size:6.75px; font-family:Arial;" text-anchor="middle"><textPath startOffset="19.985693538727396" xlink:href="#id86">February</textPath></text><path d="M 110.99172775467656 82.1063720568725 l 15.75209996500342 -25.64312202663511 a51.09482282021875,51.09482282021875 0 0,0 0.7454511964308405,0.4668014708171681 l -16.191170313806523 25.368176214494998" fill="#aaff21" stroke="none" /><path d="M 112.19680574252982 82.90503203632743 l 17.319739532778776 -24.275240477068923 a50.82047413611704,50.82047413611704 0 0,0 0.7077469374394558,0.5142082491153112 l -17.73503178657202 23.973512993136936" fill="#aeff20" stroke="none" /><path d="M 115.68641384162765 86.03803664274999 l 22.481881410976936 -20.01038654412615 a51.097351402118015,51.097351402118015 0 0,0 0.5791231134917111,0.662037830273705 l -22.822996388046498 19.620433157649497" fill="#aaff21" stroke="none" /><path d="M 115.9244219780498 86.31012108654704 l 22.74852629987755 -19.55641284400092 a50.999145523518244,50.999145523518244 0 0,0 0.566550446279181,0.670617029184875 l -23.081787359643847 19.161936865186938" fill="#acff21" stroke="none" /><path d="M 117.04232023915458 87.72973835380427 l 26.384706543435595 -18.9966652546665 a53.5119367337762,53.5119367337762 0 0,0 0.5317745660091485,0.7521574114158284 l -26.707793729248625 18.539681342918875" fill="#8dff24" stroke="none" /><path d="M 117.2510076193507 88.02491185347247 l 24.917064952588472 -17.296615695960693 a51.33204642593814,51.33204642593814 0 0,0 0.49761660854655915,0.7301909703776909 l -25.211106026803765 16.865146702312597" fill="#a7ff21" stroke="none" /><path d="M 117.45458315368197 88.32363383020206 l 24.97209851591787 -16.705260946814217 a51.04449113547879,51.04449113547879 0 0,0 0.4822570851295985,0.7345106264092114 l -25.255952236405392 16.27293225642733" fill="#abff21" stroke="none" /><line stroke="#e1ed5e" stroke-width="0.3" x1="172.23445277983987" x2="176.4835382374775" y1="55.19839476539836" y2="52.563006222186495" /><path d="M 173.08426987136738 54.67131705675599 a86.0,86.0 0 0,1 12.851231095245387,41.99856678651699" fill="none" id="id87" stroke="none" /><text fill="#e1ed5e" style="font-size:6.75px; font-family:Arial;" text-anchor="middle"><textPath startOffset="22.20632615414155" xlink:href="#id87">March</textPath></text><path d="M 117.84615892207809 88.93136811851018 l 26.654625390625483 -16.53186199204207 a52.3651321635746,52.3651321635746 0 0,0 0.46850385972331393,0.7700971605896297 l -26.93524504863502 16.07059705824536" fill="#9bff22" stroke="none" /><path d="M 118.03404312379186 89.2402003453031 l 26.037318056313822 -15.534859482616827 a51.31952820725111,51.31952820725111 0 0,0 0.4460896849990875,0.762511873759397 l -26.300867415783237 15.084368196503535" fill="#a8ff21" stroke="none" /><path d="M 118.21658344932153 89.55222093294921 l 25.6949785606492 -14.736872030977255 a50.62106210941164,50.62106210941164 0 0,0 0.42700639725444883,0.7595967340614568 l -25.944842599196082 14.292391786981005" fill="#b0ff20" stroke="none" /><path d="M 118.89224826269711 90.83032412892265 l 34.82970753133648 -16.905194358333173 a59.71555401917241,59.71555401917241 0 0,0 0.440876540517746,0.9285984318660839 l -35.115542265695986 16.303153510826547" fill="#47ff2c" stroke="none" /><path d="M 119.196687751892 91.48605970444005 l 27.93356503489983 -12.388840617873685 a51.55760833923452,51.55760833923452 0 0,0 0.35282415698287983,0.8143667994853806 l -28.142679901725387 11.9061746738017" fill="#a5ff21" stroke="none" /><path d="M 119.34039704204932 91.81776055985345 l 24.150826432647353 -10.217362348854975 a47.22321320409948,47.22321320409948 0 0,0 0.31027520465309977,0.7513560188759517 l -24.32312332418665 9.80013175952572" fill="#daff1b" stroke="none" /><path d="M 119.47837535516314 92.15188598940014 l 18.128398097200257 -7.304189004585361 a40.54456432324035,40.54456432324035 0 0,0 0.25525013908422206,0.6495837625057664 l -18.25144178616618 6.99105623718381" fill="#ffcb12" stroke="none" /><path d="M 119.7369772167798 92.82701384747503 l 28.92855002449829 -10.513468524548841 a51.77976651855207,51.77976651855207 0 0,0 0.29723292048565836,0.8403174920284885 l -29.105236025793758 10.013953406093737" fill="#a2ff22" stroke="none" /><path d="M 119.97218684219823 93.5106431181261 l 29.12230486964459 -9.46241045184701 a51.62100345318142,51.62100345318142 0 0,0 0.2673095737102844,0.8474443975897875 l -29.28086992712308 8.959715887830804" fill="#a4ff21" stroke="none" /><path d="M 120.18372546131832 94.20196356495316 l 26.830519683165377 -7.707414123937138 a48.915605294289975,48.915605294289975 0 0,0 0.22550846277339617,0.8112739243057748 l -26.959214916505136 7.244428896212411" fill="#c5ff1e" stroke="none" /><path d="M 120.28053869075195 94.5502522615342 l 28.990934372553408 -7.790388679610329 a51.01940091962362,51.01940091962362 0 0,0 0.22060708329911796,0.8500890832444082 l -29.12073778772283 7.29020317081707" fill="#abff21" stroke="none" /><path d="M 120.45610955862082 95.25157060432595 l 29.571126064941794 -6.864277093724161 a51.35736808038711,51.35736808038711 0 0,0 0.19248157793946932,0.8628571720580209 l -29.6849020298833 6.3542417521161765" fill="#a7ff21" stroke="none" /><path d="M 120.53481517161879 95.60439243477599 l 29.396527216394837 -6.29251329236642 a51.06246057658705,51.06246057658705 0 0,0 0.1765805637802126,0.861069540303121 l -29.500487076090046 5.785568095899888" fill="#abff21" stroke="none" /><path d="M 120.6074358757038 95.95851677861258 l 30.601498710311102 -6.001495981013579 a52.18444608017423,52.18444608017423 0 0,0 0.16528622162798906,0.8829656051313685 l -30.70027065584895 5.473852298419648" fill="#9dff22" stroke="none" /><path d="M 120.78858239683441 97.02765380044208 l 30.035569240593045 -4.294478015847286 a51.34102768587535,51.34102768587535 0 0,0 0.11755628683901374,0.8759308818761614 l -30.105041526489895 3.7768287919064605" fill="#a7ff21" stroke="none" /><path d="M 120.83666639777658 97.38593545837742 l 32.404963214050156 -4.065365528886689 a53.65897790481821,53.65897790481821 0 0,0 0.10708708677043587,0.9174567624673025 l -32.47014065382418 3.506965028094534" fill="#8cff24" stroke="none" /><path d="M 120.87857604477298 97.74499172005257 l 29.704125786467444 -3.2082192508455782 a50.876876669086016,50.876876669086016 0 0,0 0.08654610813954819,0.8715074980572801 l -29.75494902028922 2.696436222083863" fill="#adff20" stroke="none" /><path d="M 120.94382443527127 98.46500227214037 l 31.152887530447924 -2.283232067920307 a52.23644586313746,52.23644586313746 0 0,0 0.05800585931229571,0.8973249695601845 l -31.187573980764636 1.7466480341070871" fill="#9dff22" stroke="none" /><path d="M 120.96714384426684 98.82574320788733 l 30.368861577527493 -1.7007963622041935 a51.41645051252221,51.41645051252221 0 0,0 0.04188333074810695,0.8840909150923781 l -30.393638516509096 1.1777943404888156" fill="#a6ff21" stroke="none" /><path d="M 120.98425023603335 99.18683210126433 l 30.419340096168746 -1.17879031124264 a51.44217138254528,51.44217138254528 0 0,0 0.0266722895180107,0.8851234381806199 l -30.4351240801424 0.654996725637021" fill="#a6ff21" stroke="none" /><line stroke="#e1ed5e" stroke-width="0.3" x1="184.98032266829074" x2="189.97916517819016" y1="98.17113171792111" y2="98.06355123074" /><path d="M 185.9800911702706 98.14961562048488 a86.0,86.0 0 0,1 -9.607161424134198,41.387399972396054" fill="none" id="id88" stroke="none" /><text fill="#e1ed5e" style="font-size:6.75px; font-family:Arial;" text-anchor="middle"><textPath startOffset="21.466115282336823" xlink:href="#id88">April</textPath></text><path d="M 120.99513854157772 99.54816195383933 l 30.642198693165387 -0.6594531948511914 a51.64929394403117,51.64929394403117 0 0,0 0.011478423200562417,0.8890165265497423 l -30.649010123483663 0.1319004102409863" fill="#a4ff21" stroke="none" /><path d="M 120.99824983174949 100.27111621757518 l 32.81236617148942 0.423652669978972 a53.815101026153854,53.815101026153854 0 0,0 -0.019931927732448364,0.9261583607207545 l -32.80021218107197 -0.9884008464898414" fill="#8aff24" stroke="none" /><path d="M 120.9904718944345 100.63252640178507 l 30.327078689673804 0.9138754982120354 a51.34084491697453,51.34084491697453 0 0,0 -0.03422201554546615,0.8831181591207861 l -30.306854541277133 -1.4357709043468276" fill="#a7ff21" stroke="none" /><path d="M 120.9764740272857 100.99374915477107 l 5.817632586291799 0.2756072091942592 a26.82415729894412,26.82415729894412 0 0,0 -0.02581971920850363,0.46102843117412035 l -5.8120265161957665 -0.37570735670380284" fill="#ff0000" stroke="none" /><path d="M 120.95626037817324 101.35467743843564 l 30.68319039250106 1.9834562566916203 a51.74723193044666,51.74723193044666 0 0,0 -0.0651114260570033,0.8883936772789578 l -30.644502407779722 -2.5113230704673484" fill="#a2ff22" stroke="none" /><path d="M 120.89721153311464 102.0752229133903 l 29.546780887626223 2.9341788792136323 a50.69211455111639,50.69211455111639 0 0,0 -0.09370243899616079,0.8675682105289865 l -29.49189614712901 -3.44234341162741" fill="#afff20" stroke="none" /><path d="M 120.8583938346157 102.4346265915055 l 29.731793340719342 3.470344613032155 a50.93364038984307,50.93364038984307 0 0,0 -0.1091398545765103,0.869952024635579 l -29.667651976895986 -3.9816143919551292" fill="#acff20" stroke="none" /><path d="M 120.76222939487914 103.15116336523771 l 29.93534086219379 4.543401754057993 a51.27816262646243,51.27816262646243 0 0,0 -0.13996068196787492,0.871535300216861 l -29.852698425864627 -5.058016283968059" fill="#a8ff21" stroke="none" /><path d="M 120.70491114924044 103.5080841355445 l 30.204600108407462 5.117639853511617 a51.63507965354519,51.63507965354519 0 0,0 -0.15602045257699113,0.8750455549092115 l -30.112033213491284 -5.636804159154047" fill="#a4ff21" stroke="none" /><path d="M 120.41448212921028 104.9243191809786 l 29.540886943538524 7.125762744235453 a51.38816375002048,51.38816375002048 0 0,0 -0.21482377887640453,0.8581142100771475 l -29.41385185036706 -7.6332047937099965" fill="#a7ff21" stroke="none" /><path d="M 120.32669344350535 105.2749913415812 l 29.406067197266445 7.631184594122834 a51.3801212360933,51.3801212360933 0 0,0 -0.2295270481405055,0.8541555322885586 l -29.27035207278416 -8.13623105958694" fill="#a7ff21" stroke="none" /><path d="M 120.23288151984713 105.62410040840565 l 30.089674818244294 8.363976839783314 a52.23050814898977,52.23050814898977 0 0,0 -0.24823758535475077,0.8641476003315957 l -29.941244596003443 -8.880681915619492" fill="#9dff22" stroke="none" /><path d="M 120.13307415673323 105.97154293290107 l 29.121983403898586 8.637686069886826 a51.37596974614739,51.37596974614739 0 0,0 -0.2587715302703472,0.8456803333440328 l -28.968985101122108 -9.137693375782916" fill="#a7ff21" stroke="none" /><path d="M 119.9155931802556 106.66101706037122 l 30.169137629991827 10.090442128999337 a52.81185137171481,52.81185137171481 0 0,0 -0.2957694264846179,0.8596443999639475 l -29.99097737256398 -10.608259232052584" fill="#96ff23" stroke="none" /><path d="M 119.79798401119884 107.00284435728193 l 29.52921985071776 10.444928659886036 a52.32205867598955,52.32205867598955 0 0,0 -0.307643088606938,0.8465016523972343 l -29.34505250110559 -10.951678109289402" fill="#9cff22" stroke="none" /><path d="M 119.67450827220406 107.3425965602758 l 28.41582835532933 10.604888348543952 a51.330231749932636,51.330231749932636 0 0,0 -0.31606155214558534,0.8251369784652558 l -28.229072523590236 -11.092448893842352" fill="#a7ff21" stroke="none" /><path d="M 119.41010516605496 108.01547362559984 l 27.78119872062345 11.472347198928857 a51.05677548586243,51.05677548586243 0 0,0 -0.3424427014603951,0.8094333903136641 l -27.579605037970747 -11.948855114908683" fill="#abff21" stroke="none" /><path d="M 119.26925614724726 108.34839909993367 l 27.50387898421473 11.916046826192847 a50.974247799441926,50.974247799441926 0 0,0 -0.3557490697202623,0.8021202372075971 l -27.294688829763192 -12.387715399893132" fill="#acff21" stroke="none" /><path d="M 119.12269723197855 108.67885076344098 l 27.948463082135905 12.684431344327708 a51.69220401311181,51.69220401311181 0 0,0 -0.37470788391855014,0.8070874463822887 l -27.725980581377524 -13.163638857988827" fill="#a3ff21" stroke="none" /><path d="M 118.81262510543309 109.33194174019688 l 27.69341115863827 13.737226892651726 a51.91336966915099,51.91336966915099 0 0,0 -0.4039881870099909,0.7971070193399443 l -27.45284430184201 -14.211888123694365" fill="#a0ff22" stroke="none" /><path d="M 118.64920377521936 109.65438752849418 l 26.730246898193503 13.837811275910854 a51.09968637953075,51.09968637953075 0 0,0 -0.41110304020553884,0.7776520238431239 l -26.48809134976307 -14.295878314840111" fill="#aaff21" stroke="none" /><line stroke="#e1ed5e" stroke-width="0.3" x1="174.80103733775053" x2="179.2010983576182" y1="140.37084112569926" y2="142.7455964860345" /><path d="M 175.68104954172406 140.8457921977663 a86.0,86.0 0 0,1 -30.038265399797805,32.042727171017184" fill="none" id="id89" stroke="none" /><text fill="#e1ed5e" style="font-size:6.75px; font-family:Arial;" text-anchor="middle"><textPath startOffset="22.206326154141568" xlink:href="#id89">May</textPath></text><path d="M 118.30583269289576 110.29060199501025 l 26.734955418428072 15.029023272574518 a51.66968180064676,51.66968180064676 0 0,0 -0.44250900625181155,0.7715517515951724 l -26.472294416023882 -15.486994870028006" fill="#a3ff21" stroke="none" /><path d="M 118.12598468904814 110.60418214915192 l 26.976522786524633 15.78198185017208 a52.25385948600658,52.25385948600658 0 0,0 -0.46087686168504866,0.7724561297716962 l -26.700865049141356 -16.24400007382988" fill="#9cff22" stroke="none" /><path d="M 117.94076556474637 110.91462005526583 l 27.954211368431835 17.00649813018943 a53.720924679524266,53.720924679524266 0 0,0 -0.4874159876753991,0.7858697687618892 l -27.657330741088472 -17.48516423031659" fill="#8bff24" stroke="none" /><path d="M 117.75023020441432 111.22182372390056 l 27.122869799129877 17.147274163038613 a53.08861289247267,53.08861289247267 0 0,0 -0.4949758197335511,0.7682134641978057 l -26.823689116019274 -17.61160922715787" fill="#92ff23" stroke="none" /><path d="M 117.35343817320211 111.8261652097733 l 25.828113040838566 17.601557041839794 a52.255499252891084,52.255499252891084 0 0,0 -0.5129476767514589,0.7389393858059847 l -25.521304456924973 -18.043537689832796" fill="#9cff22" stroke="none" /><path d="M 117.14729908036423 112.12312394758627 l 25.981791513946284 18.36910159598297 a52.81944977081966,52.81944977081966 0 0,0 -0.5312635784380451,0.7378786448247828 l -25.661748143132638 -18.813613846258882" fill="#96ff23" stroke="none" /><path d="M 116.71984013943494 112.70617746262583 l 24.903964900339847 18.925671232967726 a52.27920234558006,52.27920234558006 0 0,0 -0.5506572933390227,0.7117987809908284 l -24.574500789782757 -19.351548008071806" fill="#9cff22" stroke="none" /><path d="M 116.27256486870786 113.27417163493432 l 24.1649874971972 19.712331410684907 a52.185295098561625,52.185295098561625 0 0,0 -0.573799684999702,0.6911786845648021 l -23.822091812303952 -20.12537135236348" fill="#9dff22" stroke="none" /><path d="M 116.0416608686014 113.55231037782055 l 23.430636735013294 19.79466240957561 a51.67284463034396,51.67284463034396 0 0,0 -0.5798615661393294,0.6745100030783594 l -23.08643265930319 -20.195049511815498" fill="#a3ff21" stroke="none" /><path d="M 115.80600337817218 113.82643327865902 l 22.987631860169582 20.108622688765116 a51.54157698904565,51.54157698904565 0 0,0 -0.5898839002136175,0.6627408152062906 l -22.638089110307625 -20.501337673712275" fill="#a5ff21" stroke="none" /><path d="M 115.56566222782051 114.09645910891815 l 22.74142143844543 20.594916727202236 a51.6809850565685,51.6809850565685 0 0,0 -0.6028306156155177,0.6542535727580812 l -22.38354441483419 -20.983321554761652" fill="#a3ff21" stroke="none" /><path d="M 115.07121518719521 114.62390073753431 l 22.66318994275444 21.99054528796798 a52.57854113862033,52.57854113862033 0 0,0 -0.6358482591931346,0.6441109295494651 l -22.28130105850577 -22.37739671149811" fill="#99ff23" stroke="none" /><path d="M 114.81725581225074 114.88116024355365 l 24.232524463844513 24.33703542825775 a55.343944667540676,55.343944667540676 0 0,0 -0.6808624162176449,0.6663671768117395 l -23.810012095251075 -24.75055270799206" fill="#78ff26" stroke="none" /><path d="M 114.55890576462653 115.13401014063108 l 22.794133509483615 23.694544992356636 a53.87862504489774,53.87862504489774 0 0,0 -0.6739040043613619,0.6372182990907772 l -22.382893670731445 -24.083397928193335" fill="#89ff24" stroke="none" /><path d="M 114.0293411484842 115.62618273729858 l 21.059087579890555 23.456065920793385 a52.522566490977624,52.522566490977624 0 0,0 -0.6779353948738902,0.5981991637794328 l -20.652209832110078 -23.815088226345104" fill="#99ff23" stroke="none" /><path d="M 113.75828350139079 115.86535959552629 l 20.839779705379716 24.03138435721123 a52.808864366600275,52.808864366600275 0 0,0 -0.6918829395243771,0.5896376511424902 l -20.42303128927829 -24.386546398576666" fill="#96ff23" stroke="none" /><path d="M 113.48314897796784 116.09983520530334 l 20.241746648334516 24.170079692674612 a52.526513599280264,52.526513599280264 0 0,0 -0.6981770947125063,0.5745522172937846 l -19.822699425077317 -24.514927028825575" fill="#99ff23" stroke="none" /><path d="M 113.20401910651253 116.32954008644616 l 19.292484159902784 23.85920460391309 a51.68324606998887,51.68324606998887 0 0,0 -0.6965978834359886,0.553419488346112 l -18.878928783749444 -24.187758006264325" fill="#a3ff21" stroke="none" /><path d="M 112.63410532772338 116.77436683061366 l 20.177429408509298 26.789677133247164 a54.53826856650477,54.53826856650477 0 0,0 -0.7547447872750033,0.5583421502265288 l -19.71329965081573 -27.133029232213463" fill="#81ff25" stroke="none" /><path d="M 112.04921762599082 117.19931262002967 l 18.253342114843026 26.055213470154474 a52.812869209438205,52.812869209438205 0 0,0 -0.7490452141592038,0.5152001284576208 l -17.80214001606094 -26.36555438797719" fill="#96ff23" stroke="none" /><path d="M 111.7513745106137 117.40417183066458 l 17.641666510795215 26.127887853105783 a52.526099044166344,52.526099044166344 0 0,0 -0.7536877437379955,0.4995031392130203 l -17.189304068317256 -26.42768901341012" fill="#99ff23" stroke="none" /><path d="M 111.1453310114006 117.79835938074945 l 16.29942748325995 26.029111899034465 a51.711333454190935,51.711333454190935 0 0,0 -0.7584841096727172,0.4659228897722118 l -15.848964173654924 -26.305823255635055" fill="#a3ff22" stroke="none" /><line stroke="#e1ed5e" stroke-width="0.3" x1="143.8653032363475" x2="146.44561519142675" y1="172.8068346515853" y2="177.08958963109032" /><path d="M 144.38136562736335 173.6633856474863 a86.0,86.0 0 0,1 -40.68145358897372,12.25698825130547" fill="none" id="id90" stroke="none" /><text fill="#e1ed5e" style="font-size:6.75px; font-family:Arial;" text-anchor="middle"><textPath startOffset="21.466115282336833" xlink:href="#id90">June</textPath></text><path d="M 110.8373102113329 117.98757091392108 l 16.255250858070827 26.980170524911394 a52.49861555707028,52.49861555707028 0 0,0 -0.7780598041852135,0.45969144672550744 l -15.788423182857233 -27.25598054393065" fill="#99ff23" stroke="none" /><path d="M 110.5260780823613 118.17145234162733 l 17.009168986206504 29.363386931498187 a54.93405843235094,54.93405843235094 0 0,0 -0.8223137622015437,0.4669312152489304 l -16.50120645708376 -29.651821312541745" fill="#7dff26" stroke="none" /><path d="M 110.21172684928248 118.3499491758327 l 14.943698012503956 26.85305855470537 a51.731105805540906,51.731105805540906 0 0,0 -0.7818225190232378,0.4263119740215839 l -14.47925268161207 -27.106311180486724" fill="#a3ff22" stroke="none" /><path d="M 109.57404056367764 118.69057910512821 l 14.671019109743412 28.640973620251284 a53.17987215068429,53.17987215068429 0 0,0 -0.8183270416868581,0.4103261668925072 l -14.175838160373793 -28.889267628053094" fill="#91ff23" stroke="none" /><path d="M 109.2508944713604 118.85261126421891 l 13.96452327469178 28.45862414742111 a52.70017663442253,52.70017663442253 0 0,0 -0.8178247599670683,0.39260558391301015 l -13.47258584672448 -28.69478400783368" fill="#97ff23" stroke="none" /><path d="M 108.92500713936063 119.00905698771935 l 12.830949291610946 27.328185006722865 a51.19044477124449,51.19044477124449 0 0,0 -0.8008428294406751,0.3676276641358641 l -12.358638466402851 -27.544999741192804" fill="#a9ff21" stroke="none" /><path d="M 108.2653958097858 119.30500536409082 l 12.8775372091026 30.07731639465761 a53.71812840118092,53.71812840118092 0 0,0 -0.8531680459130407,0.3566243123856283 l -12.357897703692098 -30.29452575006321" fill="#8bff24" stroke="none" /><path d="M 107.59598834532513 119.57807347666477 l 10.867847481966859 28.011037782342232 a51.04543803200575,51.04543803200575 0 0,0 -0.8219039377598656,0.310773741736451 l -10.384073323446719 -28.193959774185316" fill="#abff21" stroke="none" /><path d="M 107.2578585660854 119.70592522655815 l 10.688547060564467 29.020641176483462 a51.92640704252773,51.92640704252773 0 0,0 -0.8414066953976461,0.30169850515327334 l -10.187420804537087 -29.200327222676695" fill="#a0ff22" stroke="none" /><path d="M 106.91757812671514 119.82793768551818 l 10.287764823188269 29.48794449457224 a52.23102584886067,52.23102584886067 0 0,0 -0.851441001323956,0.28885501587302886 l -9.778654088927086 -29.66066249734339" fill="#9dff22" stroke="none" /><path d="M 106.2309692047433 120.05430185196036 l 9.458506007368534 30.4420914800787 a52.87764529529913,52.87764529529913 0 0,0 -0.8715369680654774,0.26258693915136366 l -8.93309406486281 -30.60039378833579" fill="#95ff23" stroke="none" /><path d="M 105.88484417918355 120.15858648285463 l 9.083641629386287 31.116095819999558 a53.41487257927314,53.41487257927314 0 0,0 -0.884827110952051,0.25006097985417114 l -8.54668335032963 -31.267845593192245" fill="#8fff24" stroke="none" /><path d="M 105.18746579009965 120.34920634021253 l 7.777542693197295 30.509467915092234 a52.485199742205054,52.485199742205054 0 0,0 -0.8773693794808356,0.21563604718544055 l -7.251220028973248 -30.638825220591706" fill="#9aff23" stroke="none" /><path d="M 104.48393922423573 120.51570834832081 l 6.487385423107501 29.682228198868287 a51.382903753223445,51.382903753223445 0 0,0 -0.8657004802115673,0.18141595267644184 l -5.975493481466556 -29.789500132271268" fill="#a7ff21" stroke="none" /><path d="M 103.7750983002368 120.6578951692458 l 5.883720483796657 32.19658702709571 a53.729778229080566,53.729778229080566 0 0,0 -0.9112340847078906,0.1584297258902745 l -5.328637427616717 -32.29309533150699" fill="#8bff24" stroke="none" /><path d="M 103.41894727170886 120.7198165907248 l 5.178577273209855 31.383687075166154 a52.80807251322464,52.80807251322464 0 0,0 -0.8981499816040325,0.14027255573925945 l -4.637591427997306 -31.46817793825252" fill="#96ff23" stroke="none" /><path d="M 103.06178313531738 120.77559828337769 l 4.557263397727082 30.92311553048791 a52.257122768869266,52.257122768869266 0 0,0 -0.8910372176367513,0.12348963921483565 l -4.0242975889035 -30.996979735195346" fill="#9cff22" stroke="none" /><path d="M 102.70371172650421 120.8252237178851 l 4.177186962815505 32.17460358635999 a53.44462986168474,53.44462986168474 0 0,0 -0.9133243829775216,0.11059086348137294 l -3.6227351567866037 -32.24173997856672" fill="#8eff24" stroke="none" /><path d="M 101.98527174616119 120.90594882070398 l 2.907051301960122 30.61276918661426 a51.75048917570495,51.75048917570495 0 0,0 -0.8875348922040466,0.07658024505142699 l -2.3796720920145336 -30.658273683944348" fill="#a2ff22" stroke="none" /><path d="M 101.62511606390274 120.93702456842531 l 2.5141372243522633 32.39064212327331 a53.488068319628375,53.488068319628375 0 0,0 -0.9185613947647017,0.06334937179691424 l -1.956213068808631 -32.429119839586505" fill="#8eff24" stroke="none" /><path d="M 100.90346689309514 120.98055641714683 l 1.390968454853396 32.30145162435962 a53.33138676709123,53.33138676709123 0 0,0 -0.9175021264722772,0.03160062836947004 l -0.8347459767064664 -32.32060905115519" fill="#90ff24" stroke="none" /><line stroke="#e1ed5e" stroke-width="0.3" x1="102.19456741930631" x2="102.32365962044197" y1="184.97166512339345" y2="189.96999836594603" /><path d="M 102.22038585953345 185.97133177190398 a86.0,86.0 0 0,1 -42.740103519485714,-10.115201625700543" fill="none" id="id91" stroke="none" /><text fill="#e1ed5e" style="font-size:6.75px; font-family:Arial;" text-anchor="middle"><textPath startOffset="22.20632615414155" xlink:href="#id91">July</textPath></text><path d="M 100.54218724476979 120.99299961872073 l 0.8346554902952461 32.31710549917278 a53.3278820468051,53.3278820468051 0 0,0 -0.9178498202078315,0.01580161703288278 l -0.2782459801947467 -32.32668459348482" fill="#90ff24" stroke="none" /><path d="M 100.18074693466247 120.99922214144158 l 0.2771576887112846 32.20024662838994 a53.20143939816277,53.20143939816277 0 0,0 -0.915809246747458,0.0 l 0.27715768871126245 -32.20024662838994" fill="#91ff24" stroke="none" /><path d="M 99.81925306533755 120.99922214144158 l -0.2721369963930031 31.61694139285799 a52.618112555689066,52.618112555689066 0 0,0 -0.9056336628281314,-0.015591304805024266 l 0.8163303491138023 -31.607572610773804" fill="#98ff23" stroke="none" /><path d="M 98.73552117531835 120.96189622390904 l -1.7818386788332665 29.538428595554947 a50.59212248170253,50.59212248170253 0 0,0 -0.8688287322921632,-0.059919516216895695 l 2.29003017190436 -29.503380734821764" fill="#b0ff20" stroke="none" /><path d="M 98.37488393609728 120.93702456842531 l -2.374527811853393 30.591997851397615 a51.68401399538824,51.68401399538824 0 0,0 -0.8863948248745124,-0.07648187524508164 l 2.9007669544694474 -30.546591723873867" fill="#a3ff21" stroke="none" /><path d="M 98.01472825383883 120.90594882070398 l -3.035109523720832 31.96128917405524 a53.105075852403175,53.105075852403175 0 0,0 -0.9092787729196008,-0.0942504626297046 l 3.584820893246026 -31.90430934296977" fill="#92ff23" stroke="none" /><path d="M 97.65516085044442 120.86867818915974 l -3.6448040963373765 32.4381498677263 a53.64227571327939,53.64227571327939 0 0,0 -0.9167019866005927,-0.11099984424236334 l 4.2026335059893585 -32.37060449475859" fill="#8cff24" stroke="none" /><path d="M 97.2962882734958 120.8252237178851 l -4.138198074328615 31.874293343484897 a53.14179925655847,53.14179925655847 0 0,0 -0.9061218536505955,-0.12558023231483237 l 4.686248519166042 -31.79833854567746" fill="#92ff23" stroke="none" /><path d="M 96.58105272829116 120.7198165907248 l -5.174762716784758 31.360569751843702 a52.78464258624406,52.78464258624406 0 0,0 -0.895204987979574,-0.15564286196194596 l 5.713816676236382 -31.26684831136075" fill="#96ff23" stroke="none" /><path d="M 95.86986931433489 120.58985236759428 l -6.144149048815499 30.63029513295744 a52.24044729939276,52.24044729939276 0 0,0 -0.8801483958701568,-0.1844436538771565 l 6.670488906115042 -30.51999549835374" fill="#9dff22" stroke="none" /><path d="M 95.51606077576429 120.51570834832081 l -6.8498665901914535 31.340715866466258 a53.080541506121605,53.080541506121605 0 0,0 -0.8909438733439856,-0.20277592490886906 l 7.388330612928302 -31.218163207979703" fill="#93ff23" stroke="none" /><path d="M 95.16358092515715 120.4354850818985 l -7.069106254318351 29.869333729557333 a51.69445162700442,51.69445162700442 0 0,0 -0.8641508305076617,-0.2123872494535328 l 7.582210369569223 -29.74322522178977" fill="#a3ff21" stroke="none" /><path d="M 94.81253420990036 120.34920634021253 l -7.590023638396995 29.77387483491519 a51.72608145398012,51.72608145398012 0 0,0 -0.8608933249560681,-0.22736975165856832 l 8.101407406164553 -29.63881373395304" fill="#a3ff22" stroke="none" /><path d="M 94.46302465271185 120.25689768951611 l -8.405798133802657 30.752420250265665 a52.88053941694196,52.88053941694196 0 0,0 -0.8759757846175962,-0.24755950661854512 l 8.933905086524867 -30.603171950308596" fill="#95ff23" stroke="none" /><path d="M 94.11515582081647 120.15858648285463 l -8.840417416558218 30.282929098888744 a52.54692972235664,52.54692972235664 0 0,0 -0.8660860663446331,-0.2609446271773019 l 9.360378457343097 -30.12626910260572" fill="#99ff23" stroke="none" /><path d="M 93.42475214034765 119.94407469862007 l -10.003066885786655 30.341352515336204 a52.947754531131295,52.947754531131295 0 0,0 -0.8631247118579233,-0.2928187648427124 l 10.523861330581804 -30.164670763595367" fill="#94ff23" stroke="none" /><path d="M 92.7421414339146 119.70592522655815 l -10.782386892252802 29.275427170132367 a52.19792465995053,52.19792465995053 0 0,0 -0.8404606067638312,-0.31779028612270466 l 11.284717719776918 -29.08548863390303" fill="#9dff22" stroke="none" /><path d="M 92.40401165467489 119.57807347666478 l -11.64371670843127 30.01078080898238 a53.19041943732617,53.19041943732617 0 0,0 -0.8507400402614929,-0.3385270192935017 l 12.158577824734621 -29.80590694528281" fill="#91ff24" stroke="none" /><path d="M 91.7346041902142 119.30500536409082 l -12.97438420023457 30.303516291955383 a53.96418882715153,53.96418882715153 0 0,0 -0.8507822490254988,-0.3729579357871985 l 13.494087123917813 -30.075693802873733" fill="#88ff25" stroke="none" /><path d="M 91.40352486487194 119.15986991738527 l -12.905178136435573 28.763130290972093 a52.52556560743314,52.52556560743314 0 0,0 -0.8217299686885672,-0.3772159253150846 l 13.39837610089156 -28.536727295322933" fill="#99ff23" stroke="none" /><path d="M 91.07499286063937 119.00905698771935 l -13.52429902272654 28.80492607206842 a52.82185459827018,52.82185459827018 0 0,0 -0.8197130126814007,-0.3935120599648236 l 14.018124703408182 -28.56785973560403" fill="#96ff23" stroke="none" /><path d="M 90.42595943632237 118.69057910512821 l -14.903756276048112 29.09532644950759 a53.69036513010002,53.69036513010002 0 0,0 -0.8189291618021547,-0.428425032472437 l 15.402376340376762 -28.834471998090432" fill="#8bff24" stroke="none" /><path d="M 90.10565033884886 118.52300852407294 l -14.714557311760595 27.5468201395655 a52.23052187656586,52.23052187656586 0 0,0 -0.7893702937056156,-0.43042762258122763 l 15.186550417334852 -27.289451865224507" fill="#9dff22" stroke="none" /><line stroke="#e1ed5e" stroke-width="0.3" x1="58.666819895761336" x2="56.23545636021788" y1="174.27360380694188" y2="178.64263932499728" /><path d="M 58.180547188652646 175.14741091055294 a86.0,86.0 0 0,1 -31.652253787137756,-30.449443065178592" fill="none" id="id92" stroke="none" /><text fill="#e1ed5e" style="font-size:6.75px; font-family:Arial;" text-anchor="middle"><textPath startOffset="22.20632615414155" xlink:href="#id92">August</textPath></text><path d="M 89.7882731507175 118.34994917583269 l -14.909650550979267 26.79187701334949 a51.661088588808475,51.661088588808475 0 0,0 -0.7733203285754616,-0.4391114649859675 l 15.368619646475935 -26.53126238256889" fill="#a3ff21" stroke="none" /><path d="M 89.4739219176387 118.17145234162733 l -15.661160260738898 27.03628313089278 a52.24472029393678,52.24472029393678 0 0,0 -0.7742969297432684,-0.4574682741791816 l 16.124225061510547 -26.76269628441985" fill="#9cff22" stroke="none" /><path d="M 88.54995079064634 117.60387380957326 l -17.037338124231006 26.194049030373044 a52.24738541006211,52.24738541006211 0 0,0 -0.7496885308922042,-0.4968526790092372 l 17.48570135386317 -25.89689833027249" fill="#9cff22" stroke="none" /><path d="M 88.24862548938628 117.40417183066458 l -18.34432139611006 27.16854282930709 a53.781760888513524,53.781760888513524 0 0,0 -0.7627870101667458,-0.5246518610559885 l 18.8092652908997 -26.848750178886" fill="#8aff24" stroke="none" /><path d="M 87.95078237400918 117.19931262002967 l -18.79505864567227 26.82847130766524 a53.757000812047444,53.757000812047444 0 0,0 -0.7532960131328932,-0.5374567041206821 l 19.25408198665405 -26.50097034170034" fill="#8bff24" stroke="none" /><path d="M 86.51685102203217 116.09983520530335 l -20.46683813094762 24.43885487138919 a52.87709350777192,52.87709350777192 0 0,0 -0.6927768534405353,-0.5903994639748968 l 20.884480460965214 -24.082931017191342" fill="#95ff23" stroke="none" /><path d="M 86.24171649860922 115.8653595955263 l -19.90034789111978 22.948078903649062 a51.374959614058724,51.374959614058724 0 0,0 -0.6631226510717066,-0.5851286396221957 l 20.292412895098074 -22.602127122254576" fill="#a7ff21" stroke="none" /><path d="M 85.97065885151581 115.62618273729859 l -20.131859329399777 22.42329909817466 a51.13463294126778,51.13463294126778 0 0,0 -0.6498979318986375,-0.5936663518581636 l 20.514856810765266 -22.07343997972992" fill="#aaff21" stroke="none" /><path d="M 85.70375840098266 115.38237550388516 l -21.256890277054797 22.87184824219938 a52.22461891304593,52.22461891304593 0 0,0 -0.6532159976691795,-0.617656497483047 l 21.64744210911479 -22.502557107970404" fill="#9dff22" stroke="none" /><path d="M 85.18274418774928 114.88116024355367 l -22.857427492435495 22.956007885691882 a53.39506582212628,53.39506582212628 0 0,0 -0.6457227400621832,-0.6541137265366715 l 23.249190857553213 -22.559153665174545" fill="#8fff24" stroke="none" /><path d="M 84.43433777217949 114.09645910891817 l -23.414832511002118 21.204766247823482 a52.58949972923148,52.58949972923148 0 0,0 -0.6018771838734236,-0.6762153965380157 l 23.77636854452388 -20.798576681544603" fill="#98ff23" stroke="none" /><path d="M 84.19399662182784 113.82643327865904 l -24.3682811732669 21.316357190146356 a53.375920237072776,53.375920237072776 0 0,0 -0.5989731148770883,-0.6967410519194842 l 24.73159679771477 -20.89373903906534" fill="#8fff24" stroke="none" /><path d="M 83.95833913139862 113.55231037782056 l -24.315899348759334 20.542549664245737 a52.831734289023544,52.831734289023544 0 0,0 -0.5809075609474929,-0.6997405790308956 l 24.665902909600366 -20.12094782810108" fill="#95ff23" stroke="none" /><path d="M 83.50135304334701 112.99209946851258 l -24.508709326810706 19.29973956381834 a52.19546088932351,52.19546088932351 0 0,0 -0.5497752438513951,-0.7106586131266023 l 24.837291387880168 -18.875002956578484" fill="#9dff22" stroke="none" /><path d="M 83.06392112726016 112.41649034213515 l -31.294252246557868 22.943019083901248 a59.80350948503819,59.80350948503819 0 0,0 -0.6015099852427188,-0.8354447599521102 l 31.684542024176192 -22.400940718498" fill="#46ff2c" stroke="none" /><path d="M 82.85270091963577 112.12312394758628 l -28.1901181007776 19.930386367621647 a55.523949068704,55.523949068704 0 0,0 -0.5450312615142154,-0.7851581825635685 l 28.52901026945395 -19.442186922871066" fill="#76ff27" stroke="none" /><path d="M 82.44556493220864 111.52570212397912 l -28.707348774561304 18.848362221114737 a55.34199516747173,55.34199516747173 0 0,0 -0.5159854049905717,-0.8008208070783929 l 29.02753904292892 -18.351419814114895" fill="#78ff26" stroke="none" /><path d="M 82.05923443525364 110.91462005526583 l -28.22114703339389 17.168893728735448 a54.033377843463846,54.033377843463846 0 0,0 -0.47657213939204446,-0.7987623179993102 l 28.512500048484167 -16.680569316850026" fill="#87ff25" stroke="none" /><line stroke="#e1ed5e" stroke-width="0.3" x1="26.63291911575756" x2="22.317208475507996" y1="142.92168965132927" y2="145.44649492493687" /><path d="M 25.769776987707644 143.4266507060508 a86.0,86.0 0 0,1 -11.730757126820373,-40.83630448921669" fill="none" id="id93" stroke="none" /><text fill="#e1ed5e" style="font-size:6.75px; font-family:Arial;" text-anchor="middle"><textPath startOffset="21.46611528233685" xlink:href="#id93">September</textPath></text><path d="M 81.69416730710424 110.29060199501025 l -27.997070060348715 15.738519511831681 a53.11754860490416,53.11754860490416 0 0,0 -0.4411882642286177,-0.8008848513690128 l 28.263834734028848 -15.254264142064846" fill="#92ff23" stroke="none" /><path d="M 81.51974371655577 109.97397251340807 l -28.19991465458414 15.219765858834462 a53.044913158309114,53.044913158309114 0 0,0 -0.42675262045357437,-0.8072551319740936 l 28.457719783262604 -14.732095711774242" fill="#93ff23" stroke="none" /><path d="M 81.18737489456691 109.33194174019688 l -28.69891138519729 14.236002022726145 a53.035781062531775,53.035781062531775 0 0,0 -0.39864406302930483,-0.8213248443115494 l 28.939708704841316 -13.739888222449311" fill="#93ff23" stroke="none" /><path d="M 80.87730276802145 108.67885076344099 l -30.566564262667868 13.872658567390578 a54.56732796263652,54.56732796263652 0 0,0 -0.38082516168173847,-0.8586602046858034 l 30.800830509080885 -13.34445002621208" fill="#81ff25" stroke="none" /><path d="M 80.73074385275274 108.34839909993369 l -32.83699630699385 14.226618210843364 a56.78637998153247,56.78637998153247 0 0,0 -0.3808717096209377,-0.9002682138596877 l 33.077018997807095 -13.659275471317518" fill="#68ff28" stroke="none" /><path d="M 80.45479744820244 107.68017299344265 l -36.51695529013388 14.349123938664198 a60.235001993994885,60.235001993994885 0 0,0 -0.37089192031047263,-0.9682817678538295 l 36.75854149003786 -13.718418603977211" fill="#42ff2d" stroke="none" /><path d="M 80.32549172779594 107.34259656027581 l -30.656586929543863 11.441147429167652 a53.721952519136586,53.721952519136586 0 0,0 -0.31587418035917314,-0.8691500817861634 l 30.848985370908263 -10.911749550375372" fill="#8bff24" stroke="none" /><path d="M 80.20201598880116 107.00284435728193 l -32.46894623422896 11.484754043373544 a55.44026778348327,55.44026778348327 0 0,0 -0.3104897060143033,-0.9024284226873155 l 32.66182677118649 -10.924152917596931" fill="#77ff27" stroke="none" /><path d="M 79.97269907076064 106.31721596034903 l -30.860147572271035 9.734223172212612 a53.35898343503372,53.35898343503372 0 0,0 -0.2687596139864497,-0.8783219688349161 l 31.023133958763616 -9.201574230825647" fill="#8fff24" stroke="none" /><path d="M 79.76711848015287 105.62410040840567 l -29.84269647964769 8.295324681977442 a51.97416576367797,51.97416576367797 0 0,0 -0.23218078432486167,-0.8640310718446415 l 29.981065340314323 -7.780402676957261" fill="#a0ff22" stroke="none" /><path d="M 79.67330655649465 105.27499134158121 l -30.043042885544892 7.796486503644192 a52.03819626885873,52.03819626885873 0 0,0 -0.2175411836618522,-0.8689688914030129 l 30.172795383501803 -7.278189772843787" fill="#9fff22" stroke="none" /><path d="M 79.58551787078972 104.9243191809786 l -30.0633944398757 7.2518004105418 a51.92565754259533,51.92565754259533 0 0,0 -0.20211304101026392,-0.870697690882487 l 30.18376804681652 -6.733234062310738" fill="#a0ff22" stroke="none" /><path d="M 79.50377843672027 104.57218783832718 l -31.96085098888424 7.129656251168095 a53.74641956296112,53.74641956296112 0 0,0 -0.19365592863576078,-0.9046960272079764 l 32.07884095624444 -6.578446404543955" fill="#8bff24" stroke="none" /><path d="M 79.29508885075956 103.50808413554451 l -31.615685438209542 5.356723519396374 a53.066275938921706,53.066275938921706 0 0,0 -0.1448412304475543,-0.9019264802586865 l 31.703208423018385 -4.811717809444474" fill="#93ff23" stroke="none" /><path d="M 79.23777060512086 103.15116336523772 l -32.3248444880297 4.9060659045992905 a53.69503102668012,53.69503102668012 0 0,0 -0.1308265341987261,-0.9150004754785886 l 32.404505073245026 -4.348919957140301" fill="#8bff24" stroke="none" /><path d="M 79.18660465613746 102.79330883721812 l -31.245398616265913 4.1933594512226025 a52.525532480459546,52.525532480459546 0 0,0 -0.11255093750601607,-0.8971417117781376 l 31.31295106301878 -3.654899985157056" fill="#99ff23" stroke="none" /><path d="M 79.1416061653843 102.43462659150553 l -31.56147652656482 3.6839082926524918 a52.77574516585844,52.77574516585844 0 0,0 -0.09755395066217197,-0.9032284251371883 l 31.620212778728046 -3.1400835456305214" fill="#96ff23" stroke="none" /><path d="M 79.10278846688536 102.07522291339032 l -32.40391565501409 3.217910109408253 a53.56330289220519,53.56330289220519 0 0,0 -0.08321544674245203,-0.9182755205716325 l 32.454505698033614 -2.659653200288054" fill="#8dff24" stroke="none" /><path d="M 79.0095281055655 100.63252640178507 l -36.31736557903364 1.0943866668433553 a57.333850948911845,57.333850948911845 0 0,0 -0.0212351951765601,-0.9867160777575013 l 36.33082283689521 -0.4690807732957252" fill="#62ff29" stroke="none" /><line stroke="#e1ed5e" stroke-width="0.3" x1="15.007084014347285" x2="10.007500721073583" y1="101.09737516637583" y2="101.16192664675087" /><path d="M 14.007167355692545 101.11028546245083 a86.0,86.0 0 0,1 10.666146001902534,-42.60595125391555" fill="none" id="id94" stroke="none" /><text fill="#e1ed5e" style="font-size:6.75px; font-family:Arial;" text-anchor="middle"><textPath startOffset="22.20632615414155" xlink:href="#id94">October</textPath></text><path d="M 79.00175016825051 100.2711162175752 l -31.869995465308676 0.4114853711107366 a52.872651774984675,52.872651774984675 0 0,0 -0.003916863222738427,-0.9101410704235514 l 31.872356625820917 0.13716517751649016" fill="#95ff23" stroke="none" /><path d="M 79.00019446554 99.90962569577889 l -32.04542719670881 -0.13791000024351388 a53.04572394856655,53.04572394856655 0 0,0 0.011788762671599324,-0.9130526605876238 l 32.03830542691949 0.6894989188916096" fill="#93ff23" stroke="none" /><path d="M 79.01574976396665 99.18683210126434 l -31.872899288186936 -1.2351176834654143 a52.89682154583613,52.89682154583613 0 0,0 0.043089226312655916,-0.9095454645307685 l 31.84691645364078 1.7835742546191917" fill="#95ff23" stroke="none" /><path d="M 79.08570108090925 98.10471618934814 l -31.682956263221666 -2.871155007948283 a52.81278435875872,52.81278435875872 0 0,0 0.08983925990569033,-0.9046690869274212 l 31.628839877633748 3.4160996255801344" fill="#96ff23" stroke="none" /><path d="M 79.12142395522702 97.74499172005258 l -31.65963703323756 -3.4194258984416788 a52.84376062200067,52.84376062200067 0 0,0 0.10546015969670938,-0.9035182448472114 l 31.59608652053726 3.963887881613752" fill="#95ff23" stroke="none" /><path d="M 79.3925641242962 95.95851677861259 l -29.674496064605894 -5.819694340994064 a51.239784372758166,51.239784372758166 0 0,0 0.17719377230064554,-0.8640597628253205 l 29.569922996390254 6.329629759982787" fill="#a9ff21" stroke="none" /><path d="M 79.46518482838121 95.60439243477599 l -31.22972970952487 -6.684921925219693 a52.937191468196815,52.937191468196815 0 0,0 0.1984025764235684,-0.8893998472711182 l 31.110032746099265 7.22149994204077" fill="#94ff23" stroke="none" /><path d="M 79.54389044137918 95.25157060432595 l -30.811769508271947 -7.1522647865440945 a52.63099795782162,52.63099795782162 0 0,0 0.21244677696968167,-0.8807290454706022 l 30.684089931041452 7.681579063674094" fill="#98ff23" stroke="none" /><path d="M 79.62865764111835 94.90015583598534 l -30.579857430962093 -7.655485078414521 a52.52354885294159,52.52354885294159 0 0,0 0.22711099519220032,-0.8751513088811017 l 30.443550103899586 8.180732812844486" fill="#99ff23" stroke="none" /><path d="M 79.71946130924805 94.55025226153421 l -31.808787107031026 -8.54759670062071 a53.93721825802667,53.93721825802667 0 0,0 0.24865887077269577,-0.8945582592521962 l 31.65694146569197 9.093866263291849" fill="#88ff25" stroke="none" /><path d="M 79.81627453868168 94.20196356495316 l -30.55676802074624 -8.77782719850714 a52.79255136349632,52.79255136349632 0 0,0 0.2584172836473684,-0.8712546143457975 l 30.401144839987165 9.302511199599477" fill="#96ff23" stroke="none" /><path d="M 80.2630227832202 92.82701384747504 l -31.928408350038243 -11.603703467432625 a54.971593926792714,54.971593926792714 0 0,0 0.33086463024278073,-0.8865527135058602 l 31.723939131293836 12.151579317967826" fill="#7cff26" stroke="none" /><path d="M 80.38941819471856 92.48833698450439 l -30.242876862395594 -11.584271280939943 a53.38559775616984,53.38559775616984 0 0,0 0.3360914460374843,-0.8553160709189449 l 30.03899186647642 12.103136356754652" fill="#8fff24" stroke="none" /><path d="M 80.52162464483688 92.15188598940014 l -29.266295609601393 -11.7918060630856 a52.552539500617,52.552539500617 0 0,0 0.34529098810197567,-0.8361495159244278 l 29.05898293461322 12.29383014946334" fill="#99ff23" stroke="none" /><path d="M 80.803312248108 91.48605970444005 l -14.838080985844963 -6.5808506783528955 a37.231951299621116,37.231951299621116 0 0,0 0.2648746313855582,-0.5836161397951964 l 14.722604037496053 6.835288826990163" fill="#ff9d0e" stroke="none" /><path d="M 80.95270993114464 91.15688171328213 l -16.24989767434943 -7.544368083956483 a38.91582161702466,38.91582161702466 0 0,0 0.2873132986493197,-0.6051550809818824 l 16.11762618185836 7.822965580578898" fill="#ffb410" stroke="none" /><path d="M 81.26839172434947 90.50648371742162 l -56.19482482695157 -28.480548847735136 a84.0,84.0 0 0,0 0.6647622673595439,-1.284109110958658 l 55.69625312643191 29.44363068095413" fill="#4dd2ff" stroke="none" /><line stroke="#e1ed5e" stroke-width="0.3" x1="26.266209847984243" x2="21.928928074336255" y1="57.711370442889674" y2="55.22380399835377" /><path d="M 25.398753493254645 57.213857153982495 a86.0,86.0 0 0,1 29.58750427330803,-30.492523968695096" fill="none" id="id95" stroke="none" /><text fill="#e1ed5e" style="font-size:6.75px; font-family:Arial;" text-anchor="middle"><textPath startOffset="21.46611528233685" xlink:href="#id95">November</textPath></text><path d="M 81.78341655067845 89.55222093294921 l -13.920816610555725 -7.984022733167004 a37.047858240539504,37.047858240539504 0 0,0 0.32203467159073024,-0.550461642821088 l 13.78132226449467 8.222463788341985" fill="#ff9a0e" stroke="none" /><path d="M 82.34701348167596 88.62581576622439 l -13.927112964958166 -8.973526861509109 a37.56769929329149,37.56769929329149 0 0,0 0.3549313305548054,-0.5405847668738882 l 13.77058499904544 9.211929692360664" fill="#ffa10e" stroke="none" /><path d="M 82.54541684631803 88.32363383020206 l -13.602439462008237 -9.099447552685529 a37.365399630979795,37.365399630979795 0 0,0 0.36222291406560775,-0.5315174304312934 l 13.44379208227389 9.33224300638724" fill="#ff9f0e" stroke="none" /><path d="M 82.7489923806493 88.02491185347247 l -12.605209690153346 -8.750126397006982 a36.34457634789355,36.34457634789355 0 0,0 0.3611740201133255,-0.5108550378364919 l 12.452723050236141 8.96580793517526" fill="#ff900d" stroke="none" /><path d="M 82.95767976084542 87.72973835380427 l -12.38224165001112 -8.915062191062065 a36.25772729307266,36.25772729307266 0 0,0 0.3690300908483087,-0.5033566291927399 l 12.226948946649177 9.126881263926306" fill="#ff8f0d" stroke="none" /><path d="M 84.80347519578584 85.50635884689758 l -10.869462899611689 -10.366718498050611 a36.02045525754328,36.02045525754328 0 0,0 0.4317921821907876,-0.44499979935197714 l 10.689406453717782 10.552282492952711" fill="#ff8b0c" stroke="none" /><path d="M 85.31137513191541 84.99185889309783 l -11.084581072463896 -11.325699875956369 a36.84737881267003,36.84737881267003 0 0,0 0.45711236236480746,-0.43974173042528997 l 10.887985466486661 11.514824693143972" fill="#ff970d" stroke="none" /><path d="M 85.57189188830299 84.74124197986013 l -11.172988347337688 -11.816235658482036 a37.26219830608784,37.26219830608784 0 0,0 0.46984458780593935,-0.4366693388526312 l 10.967935875736892 12.006809583409314" fill="#ff9d0e" stroke="none" /><path d="M 85.83668400450813 84.49514656593479 l -11.331047252981778 -12.404314566438396 a37.80058486221422,37.80058486221422 0 0,0 0.48418771382769893,-0.4347085101583681 l 11.115848551558107 12.597522085366043" fill="#ffa50f" stroke="none" /><path d="M 86.37877921826538 84.01681056812374 l -10.02139494453116 -11.759140853577074 a36.45010518567884,36.45010518567884 0 0,0 0.48104152044088266,-0.4028584393557074 l 9.817495887131168 11.929900450326594" fill="#ff920d" stroke="none" /><path d="M 86.65592168130627 83.78471172551755 l -9.95124848794219 -12.092432243667028 a36.6605959029805,36.6605959029805 0 0,0 0.49072232928228654,-0.39679666282909176 l 9.741622760095401 12.261935003760255" fill="#ff950d" stroke="none" /><path d="M 87.80319425747018 82.90503203632743 l -10.09391955552529 -14.147575608907088 a38.37932989511272,38.37932989511272 0 0,0 0.5410916412185134,-0.3790692735623487 l 9.848896774723116 14.31922972523338" fill="#ffad10" stroke="none" /><path d="M 88.09926311788651 82.69761687909137 l -9.033751286459934 -13.134096428285389 a36.94092692703644,36.94092692703644 0 0,0 0.5270156329338656,-0.3558433079040447 l 8.806330959119528 13.287651648488099" fill="#ff990e" stroke="none" /><path d="M 89.00827224532344 82.1063720568725 l -8.462978525740104 -13.777032365620775 a37.16875463140252,37.16875463140252 0 0,0 0.548040780253841,-0.3301884380327995 l 8.224575679268614 13.920667413112193" fill="#ff9c0e" stroke="none" /><line stroke="#e1ed5e" stroke-width="0.3" x1="56.762969772571076" x2="54.21961505331055" y1="26.818313649435495" y2="22.513508569990535" /><path d="M 56.25429882871897 25.957352633546506 a86.0,86.0 0 0,1 42.265352541879196,-11.944610805530505" fill="none" id="id96" stroke="none" /><text fill="#e1ed5e" style="font-size:6.75px; font-family:Arial;" text-anchor="middle"><textPath startOffset="22.20632615414155" xlink:href="#id96">December</textPath></text><path d="M 89.3179101791058 81.91981866633112 l -8.297327162577162 -14.043804367824846 a37.3117773147066,37.3117773147066 0 0,0 0.5557736124555509,-0.3219399490387231 l 8.054356817656291 14.184548474253615" fill="#ff9e0e" stroke="none" /><path d="M 89.63071344664047 81.73862282372117 l -8.19318998137441 -14.429047915385487 a37.59294385621142,37.59294385621142 0 0,0 0.5654621611925824,-0.3146790804907822 l 7.943603731109782 14.567942393436455" fill="#ffa20f" stroke="none" /><path d="M 89.94658935756843 81.56283822128135 l -4.342646607691705 -7.96407118952126 a30.07110850288204,30.07110850288204 0 0,0 0.45658675726327314,-0.24389283312928284 l 4.204914803900127 8.037642749152292" fill="#ff3304" stroke="none" /><path d="M 90.58718382345135 81.22770947309562 l -8.733687632938896 -17.41788201762974 a40.484863706216146,40.484863706216146 0 0,0 0.6256429297063769,-0.3070002684695065 l 8.432573436222093 17.565637446234074" fill="#ffca12" stroke="none" /><path d="M 90.91171255644093 81.06846463323043 l -6.619889122845345 -13.789689843278257 a36.29635505512923,36.29635505512923 0 0,0 0.5655694392592326,-0.2655424351904394 l 6.381541472286504 13.901597261108705" fill="#ff8f0d" stroke="none" /><path d="M 91.90106846888425 80.62456947434976 l -5.923400023410382 -14.170810703644962 a36.35898902388685,36.35898902388685 0 0,0 0.5795209577025692,-0.2364011495515506 l 5.678595196119432 14.270672739380089" fill="#ff900d" stroke="none" /><path d="M 93.25333710446033 80.11325718540243 l -3.01984981821232 -8.901434324397771 a30.399735419474517,30.399735419474517 0 0,0 0.49698816041864086,-0.1638491826492846 l 2.86617883555127 8.95209723130629" fill="#ff3805" stroke="none" /><path d="M 93.59665428221793 80.00007090966166 l -4.8198414060594885 -15.054081193863013 a36.806841296444574,36.806841296444574 0 0,0 0.6050599999927367,-0.18799508727890213 l 4.559996033356024 15.13481641602444" fill="#ff970d" stroke="none" /><path d="M 94.28887869178378 79.79150937346287 l -4.477419191217341 -15.84310310947563 a37.46363261104176,37.46363261104176 0 0,0 0.6220784651817736,-0.1700375436843417 l 4.204042836811845 15.917827193986268" fill="#ffa00e" stroke="none" /><path d="M 94.63758080256005 79.69619591428918 l -2.2840831757833517 -8.648256618712937 a29.944796168555698,29.944796168555698 0 0,0 0.49949504418974033,-0.12733240848505376 l 2.1348792429086116 8.686292023366855" fill="#ff3104" stroke="none" /><path d="M 94.98787191387505 79.60689891045804 l -3.9667220704704533 -16.13960433316917 a37.619919133846906,37.619919133846906 0 0,0 0.6301807833177279,-0.1491434310867914 l 3.6883176001901914 16.205493676396834" fill="#ffa20f" stroke="none" /><path d="M 95.692805502759 79.44645832069477 l -3.267790138380658 -15.593598304291133 a36.932318113322026,36.932318113322026 0 0,0 0.6233359102669829,-0.12503531955977007 l 2.9988878186465384 15.647537579928112" fill="#ff980e" stroke="none" /><path d="M 96.04723909329186 79.375362276772 l -3.183923325027083 -16.613012187450224 a37.915364071755036,37.915364071755036 0 0,0 0.6420423070988648,-0.11732912779117104 l 2.897485896825325 16.66535679659213" fill="#ffa60f" stroke="none" /><path d="M 96.75951476605007 79.25152402106235 l -2.544365377108778 -16.291295931699956 a37.488787654235026,37.488787654235026 0 0,0 0.6384358738703788,-0.09408885197601694 l 2.26356052280975 16.33267926783694" fill="#ffa00e" stroke="none" /><path d="M 97.11714578562143 79.19881850522333 l -1.4346178894739685 -10.35145896235832 a31.45039861144957,31.45039861144957 0 0,0 0.5368811754648377,-0.06970258516824618 l 1.256221985501273 10.374619870690703" fill="#ff4806" stroke="none" /><path d="M 97.83486435360386 79.11191278185805 l -1.6687243010911623 -16.09897227559092 a37.18522626110915,37.18522626110915 0 0,0 0.637239455944641,-0.06051356474062924 l 1.391359718056285 16.125311384846732" fill="#ff9c0e" stroke="none" /><path d="M 98.19473922651362 79.07773832637324 l -1.3203721605663963 -15.302593539764013 a36.35945154247462,36.35945154247462 0 0,0 0.6240144307291745,-0.048435529708192454 l 1.0567675404748875 15.323054331660668" fill="#ff900d" stroke="none" /><path d="M 99.27714615592234 79.0124445844662 l -0.5294489405698338 -15.372179412123618 a36.381294355781236,36.381294355781236 0 0,0 0.6260586074911534,-0.016169246778690676 l 0.2647636978838014 15.379015451044667" fill="#ff910d" stroke="none" /><path d="M 99.63851952072746 79.00311137660856 l -0.264867710992122 -15.38505713732099 a36.38733693733122,36.38733693733122 0 0,0 0.6263481902646539,-0.00539117661878869 l 3.7688105855409035e-15 15.38733693733122" fill="#ff910d" stroke="none" /></svg>