<?xml version="1.0" encoding="utf-8" ?>
<svg baseProfile="full" height="200mm" version="1.1" viewBox="0,0,200,200" width="200mm" xmlns="http://www.w3.org/2000/svg" xmlns:ev="http://www.w3.org/2001/xml-events" xmlns:xlink="http://www.w3.org/1999/xlink"><defs /><rect fill="#1a1a1a" height="200" width="200" x="0" y="0" /><rect fill="#1a1a1a" height="200" width="180" x="10" y="0" /><text alignment-baseline="middle" fill="#e1ed5e" style="dominant-baseline: central; font-size:9.0px; font-family:Arial;" text-anchor="middle" x="100.0" y="100.0">2022</text><line stroke="#e1ed5e" stroke-width="0.3" x1="100.0" x2="100.0" y1="15.0" y2="10.0" /><path d="M 100.0 14.0 a86.0,86.0 0 0,1 42.46469731375804,11.215312516191453" fill="none" id="id73" stroke="none" /><text fill="#e1ed5e" style="font-size:6.75px; font-family:Arial;" text-anchor="middle"><textPath startOffset="22.20632615414155" xlink:href="#id73">January</textPath></text><path d="M 102.52436894288641 79.15227682838746 l 1.0360982463841184 -8.55670859050863 a29.619208866192096,29.619208866192096 0 0,0 0.5056214348466517,0.06564417367544045 l -1.183234409738616 8.537606093669053" fill="#ff4906" stroke="none" /><path d="M 103.59715602781102 79.31037775812273 l 1.279841579429304 -7.361214971804643 a28.471645088570316,28.471645088570316 0 0,0 0.4821264716058207,0.08810553101111197 l -1.4063631721380256 7.3380939594427925" fill="#ff3905" stroke="none" /><path d="M 103.95276090670814 79.375362276772 l 1.0823243367822328 -5.647330529727603 a26.75011026694137,26.75011026694137 0 0,0 0.451482744241064,0.0905631911656183 l -1.179373490490422 5.627863382484777" fill="#ff1f03" stroke="none" /><path d="M 104.307194497241 79.44645832069477 l 1.5807309770074203 -7.5431049237507795 a28.70695415273661,28.70695415273661 0 0,0 0.48276522506809666,0.10551377958914102 l -1.710338926229045 7.5147776460657685" fill="#ff3c05" stroke="none" /><path d="M 105.01212808612495 79.60689891045804 l 1.5147681134190196 -6.163214254177526 a27.346631577484867,27.346631577484867 0 0,0 0.45615628409516,0.11628439355920121 l -1.6206332861992048 6.1362268644494575" fill="#ff2803" stroke="none" /><path d="M 105.36241919743992 79.69619591428918 l 1.5788535199870455 -5.978035541338525 a27.18301604163228,27.18301604163228 0 0,0 0.45137024147537635,0.12337653760487255 l -1.6815216506861326 5.949972462907359" fill="#ff2603" stroke="none" /><path d="M 105.71112130821622 79.79150937346287 l 1.3433924302205071 -4.753520695632237 a25.939702645441095,25.939702645441095 0 0,0 0.42863478891969314,0.12513024882548146 l -1.4250174368636273 4.729692117888052" fill="#ff1302" stroke="none" /><path d="M 107.4271985657038 80.35727306442388 l 1.7756826907704046 -4.696151571885022 a26.020646233745193,26.020646233745193 0 0,0 0.4175902780171495,0.16201854021643564 l -1.8562561337872212 4.66489032777804" fill="#ff1402" stroke="none" /><path d="M 107.76421540070413 80.48803036053334 l 1.9831791378599228 -4.983855950729699 a26.36393695250668,26.36393695250668 0 0,0 0.42021118853136935,0.17141469467653567 l -2.0686741959796797 4.948980369869584" fill="#ff1902" stroke="none" /><path d="M 108.09893153111575 80.62456947434976 l 2.212961182986438 -5.2941644823372815 a26.738063677186435,26.738063677186435 0 0,0 0.42311870691266007,0.18115734863576394 l -2.303763647689413 5.255287605738727" fill="#ff1f03" stroke="none" /><path d="M 108.76106565485865 80.91482961587045 l 3.407709881111841 -7.423380472515207 a29.168173864062112,29.168173864062112 0 0,0 0.4544981916629867,0.21339299514117122 l -3.5349862840744257 7.363622494734033" fill="#ff4306" stroke="none" /><path d="M 109.08828744355905 81.06846463323043 l 3.2719725000721116 -6.815746474668609 a28.560436763057126,28.560436763057126 0 0,0 0.441365826492553,0.21657629422915664 l -3.3888095935750964 6.7584150203046205" fill="#ff3a05" stroke="none" /><path d="M 109.41281617654863 81.2277094730956 l 3.3560393949782488 -6.693060329726785 a28.48732642523407,28.48732642523407 0 0,0 0.4364523101883223,0.22356782517815707 l -3.470752192755327 6.634299979236127" fill="#ff3905" stroke="none" /><line stroke="#e1ed5e" stroke-width="0.3" x1="143.23703022742887" x2="145.7803849466894" y1="26.81831364943548" y2="22.513508569990506" /><path d="M 143.74570117128098 25.957352633546492 a86.0,86.0 0 0,1 28.547481713284135,27.462654790039103" fill="none" id="id74" stroke="none" /><text fill="#e1ed5e" style="font-size:6.75px; font-family:Arial;" text-anchor="middle"><textPath startOffset="19.985693538727396" xlink:href="#id74">February</textPath></text><path d="M 111.90073688211348 82.69761687909136 l 9.293190142405367 -13.51129243946392 a37.398731853640854,37.398731853640854 0 0,0 0.5272666629011458,0.36938399275487277 l -9.524387944890163 13.349323603945113" fill="#ffb710" stroke="none" /><path d="M 112.19680574252982 82.90503203632743 l 4.324152916030333 -6.060706149627287 a28.445163361091794,28.445163361091794 0 0,0 0.39613910723966195,0.28781190841568904 l -4.4278373396237845 5.985375006394923" fill="#ff3805" stroke="none" /><path d="M 112.48926042617603 83.11751280151076 l 3.517540241207501 -4.754871470843282 a26.91454918423657,26.91454918423657 0 0,0 0.3700799808003565,0.27873656897620874 l -3.5988663757662405 4.693618312361226" fill="#ff2103" stroke="none" /><path d="M 112.77801427241765 83.33499621200491 l 3.4979560294108536 -4.562011689578651 a26.748708293133685,26.748708293133685 0 0,0 0.3629767169085744,0.2833090849884237 l -3.575965301478858 4.501124215367003" fill="#ff1f03" stroke="none" /><path d="M 113.34407831869373 83.78471172551755 l 3.383300334118936 -4.111276097655712 a26.32440722541059,26.32440722541059 0 0,0 0.3474100503114999,0.2909459261576941 l -3.453567921389553 4.052429014104199" fill="#ff1902" stroke="none" /><path d="M 113.89432698308785 84.25364557470407 l 5.567303829250125 -6.309390832343671 a29.414468765314034,29.414468765314034 0 0,0 0.37676994778906764,0.3382677792070419 l -5.675084764635184 6.212624044367332" fill="#ff4606" stroke="none" /><path d="M 114.16331599549186 84.49514656593476 l 3.3865280397734767 -3.7072971416971168 a26.021217408259435,26.021217408259435 0 0,0 0.32810539160797086,0.304938203282256 l -3.4498413151762946 3.64845435234022" fill="#ff1402" stroke="none" /><path d="M 114.94478906791727 85.2469230424477 l 2.6336005702574004 -2.5998166793715587 a24.700661931330483,24.700661931330483 0 0,0 0.2960971103954316,0.30515409993330433 l -2.677961944355941 2.55409838388814" fill="#ff0000" stroke="none" /><path d="M 115.68641384162765 86.03803664274999 l 6.509010676277561 -5.793457285499404 a29.713860642838018,29.713860642838018 0 0,0 0.3367685998813999,0.3849847260033192 l -6.607771139736809 5.680557003293137" fill="#ff4b07" stroke="none" /><path d="M 116.15771136456269 86.58626213691792 l 6.296516991906592 -5.227214824812101 a29.183513979587488,29.183513979587488 0 0,0 0.3175465214688068,0.3892744881974165 l -6.385562005451808 5.118056167006584" fill="#ff4306" stroke="none" /><path d="M 116.38621287248628 86.86637796730983 l 7.071465591929243 -5.667810922773675 a30.062544139156056,30.062544139156056 0 0,0 0.3201602535088616,0.406571009173468 l -7.167979926032069 5.545247519647169" fill="#ff5007" stroke="none" /><path d="M 116.60985879189232 87.15038557335679 l 8.228338096229562 -6.365555134052024 a31.403164902591847,31.403164902591847 0 0,0 0.32707751034792953,0.43039566402306345 l -8.336691546801605 6.2229746941479265" fill="#ff6309" stroke="none" /><path d="M 116.82858285166822 87.43820079747576 l 8.329700959430191 -6.2177565271970066 a31.394441510010687,31.394441510010687 0 0,0 0.31953170999730696,0.43584089333936843 l -8.435495281941126 6.073453190186145" fill="#ff6309" stroke="none" /><path d="M 117.2510076193507 88.02491185347247 l 8.633807342379466 -5.993308115472397 a31.510108058070234,31.510108058070234 0 0,0 0.3054612897503618,0.4482267507652302 l -8.73569309779856 5.84380334143676" fill="#ff6509" stroke="none" /><path d="M 117.65298651832404 88.62581576622439 l 9.13821415747625 -5.8879403372874375 a31.87082330844154,31.87082330844154 0 0,0 0.2931696927672417,0.4637240491037723 l -9.238211446489448 5.72976864046946" fill="#ff6a09" stroke="none" /><line stroke="#e1ed5e" stroke-width="0.3" x1="172.23445277983987" x2="176.4835382374775" y1="55.19839476539836" y2="52.563006222186495" /><path d="M 173.08426987136738 54.67131705675599 a86.0,86.0 0 0,1 12.851231095245387,41.99856678651699" fill="none" id="id75" stroke="none" /><text fill="#e1ed5e" style="font-size:6.75px; font-family:Arial;" text-anchor="middle"><textPath startOffset="22.20632615414155" xlink:href="#id75">March</textPath></text><path d="M 118.03404312379186 89.2402003453031 l 9.012999853063715 -5.377500322090137 a31.495316863506602,31.495316863506602 0 0,0 0.2737697806154612,0.4679612988500762 l -9.104229308149502 5.221559610886166" fill="#ff6509" stroke="none" /><path d="M 118.21658344932153 89.55222093294921 l 8.979152351212864 -5.149824072985303 a31.35112867898909,31.35112867898909 0 0,0 0.26445775630193225,0.4704408394716983 l -9.066467748807229 4.994499723578811" fill="#ff6309" stroke="none" /><path d="M 118.73160827565052 90.50648371742162 l 13.684023223008104 -6.9353093107162325 a36.341154024490216,36.341154024490216 0 0,0 0.27799250055963376,0.5604159177959026 l -13.801375736521146 6.69873380442138" fill="#ffa80f" stroke="none" /><path d="M 118.89224826269711 90.83032412892265 l 14.061348559718633 -6.824916061337663 a36.63013123944281,36.63013123944281 0 0,0 0.2704381765322249,0.5696117701105916 l -14.176744930092614 6.581861875586531" fill="#ffac0f" stroke="none" /><path d="M 119.04729006885535 91.15688171328212 l 13.892435897090849 -6.449865229358731 a36.31667511673696,36.31667511673696 0 0,0 0.2583631960969225,0.5692690552601389 l -14.001401410151118 6.20977416525653" fill="#ffa80f" stroke="none" /><path d="M 119.196687751892 91.48605970444005 l 9.693314411685709 -4.299090615726089 a31.603891946168538,31.603891946168538 0 0,0 0.2162748989425,0.4991922853779371 l -9.76588002047089 4.13159918576155" fill="#ff6609" stroke="none" /><path d="M 119.34039704204932 91.81776055985345 l 14.388719471759993 -6.087359411446924 a36.62341808443775,36.62341808443775 0 0,0 0.24063035465486918,0.5827054904252872 l -14.49137151330106 5.838779350568333" fill="#ffac0f" stroke="none" /><path d="M 119.61058180528143 92.48833698450437 l 11.828982221899503 -4.530988889032745 a33.66707072367375,33.66707072367375 0 0,0 0.20263634562207758,0.542964661814543 l -11.905223156023206 4.32670109018887" fill="#ff830c" stroke="none" /><path d="M 119.7369772167798 92.82701384747503 l 12.910439457021717 -4.692025654744003 a34.736613546220156,34.736613546220156 0 0,0 0.19939960695700362,0.5637295403072973 l -12.989292144788529 4.469098488010092" fill="#ff920d" stroke="none" /><path d="M 119.85752413597 93.16781622104841 l 9.858532628857867 -3.3919287344155844 a31.425730004829845,31.425730004829845 0 0,0 0.1715885355976893,0.5130278812360453 l -9.915458458227326 3.221727750257225" fill="#ff6409" stroke="none" /><path d="M 119.97218684219823 93.5106431181261 l 10.252846992140196 -3.33135193020866 a31.780481303130358,31.780481303130358 0 0,0 0.1645691935677371,0.5217293161972614 l -10.308671669476139 3.1543724475849797" fill="#ff6909" stroke="none" /><path d="M 120.37134235888165 94.90015583598534 l 14.506200674599818 -3.631540894511998 a35.95386061457954,35.95386061457954 0 0,0 0.1451289563862248,0.6016532189915462 l -14.566562431246862 3.381302443861046" fill="#ffa30f" stroke="none" /><path d="M 120.45610955862082 95.25157060432595 l 30.17237297501976 -7.003843148241563 a51.97460104325596,51.97460104325596 0 0,0 0.19479489692542842,0.8732273274758059 l -30.288462258947227 6.483437651215793" fill="#92ff23" stroke="none" /><path d="M 120.53481517161879 95.60439243477599 l 5.210619049355339 -1.1153660902924583 a26.328657653938656,26.328657653938656 0 0,0 0.09104788840200148,0.4439818388475806 l -5.229046233672337 1.0255085952814658" fill="#ff1902" stroke="none" /><path d="M 120.87857604477298 97.74499172005257 l 7.312000095517932 -0.7897387601055919 a28.35452464174724,28.35452464174724 0 0,0 0.048233577148442223,0.48570553947050227 l -7.324510798348602 0.6637576899306546" fill="#ff3705" stroke="none" /><path d="M 120.91429891909075 98.10471618934814 l 7.526184305362099 -0.682033632832626 a28.55702455167334,28.55702455167334 0 0,0 0.04015051859369128,0.48993802437733147 l -7.536809307775285 0.5523816912475258" fill="#ff3a05" stroke="none" /><line stroke="#e1ed5e" stroke-width="0.3" x1="184.98032266829074" x2="189.97916517819016" y1="98.17113171792111" y2="98.06355123074" /><path d="M 185.9800911702706 98.14961562048488 a86.0,86.0 0 0,1 -9.607161424134198,41.387399972396054" fill="none" id="id76" stroke="none" /><text fill="#e1ed5e" style="font-size:6.75px; font-family:Arial;" text-anchor="middle"><textPath startOffset="21.466115282336823" xlink:href="#id76">April</textPath></text><path d="M 120.99513854157772 99.54816195383933 l 7.461334950931023 -0.16057598283062485 a28.463062635155012,28.463062635155012 0 0,0 0.006325567177442137,0.48992214891250274 l -7.462993525226181 0.03211757585765941" fill="#ff3905" stroke="none" /><path d="M 120.9904718944345 100.63252640178507 l 7.432339292528825 0.22396594289028515 a28.435713019128873,28.435713019128873 0 0,0 -0.018954253958241792,0.48912507332806654 l -7.42738290571938 -0.35186826323235787" fill="#ff3805" stroke="none" /><path d="M 120.9764740272857 100.99374915477107 l 7.457717565474702 0.3533053513937384 a28.466081700444576,28.466081700444576 0 0,0 -0.02740016129046238,0.48924828622843214 l -7.450531053296711 -0.4816253539575939" fill="#ff3905" stroke="none" /><path d="M 120.95626037817324 101.35467743843564 l 7.403925538840153 0.47861262946373606 a28.4193789115917,28.4193789115917 0 0,0 -0.03575894245078106,0.4879023591288565 l -7.394590037725034 -0.6059881250893628" fill="#ff3805" stroke="none" /><path d="M 120.92983693683757 101.71520430193887 l 7.32000138409707 0.5998755700816676 a28.344540214524244,28.344540214524244 0 0,0 -0.044035812754263194,0.48593152429820097 l -7.308590975065732 -0.7257884829284391" fill="#ff3705" stroke="none" /><path d="M 120.89721153311464 102.0752229133903 l 7.591901967821133 0.7539230243647305 a28.629244747396275,28.629244747396275 0 0,0 -0.05292006623128679,0.48997408875593984 l -7.5777996000887935 -0.8844934350054617" fill="#ff3b05" stroke="none" /><path d="M 120.81339534386255 102.79330883721812 l 7.525434630925077 1.0099679899016996 a28.592904696158943,28.592904696158943 0 0,0 -0.06966586204623088,0.48724287689300455 l -7.5069347178622445 -1.1393563387751136" fill="#ff3a05" stroke="none" /><path d="M 120.76222939487914 103.15116336523771 l 7.364371757190612 1.1177190102221848 a28.4487090937906,28.4487090937906 0 0,0 -0.07764905218772084,0.48352072209474606 l -7.3440409506416024 -1.2443189620101358" fill="#ff3805" stroke="none" /><path d="M 120.70491114924044 103.5080841355445 l 7.4096221480647255 1.255430545953277 a28.515224962221946,28.515224962221946 0 0,0 -0.08616154625482646,0.48323970869899346 l -7.38691415947071 -1.382789005385489" fill="#ff3905" stroke="none" /><path d="M 120.02730092923936 106.31721596034902 l 6.413520102898829 2.023018064151621 a27.725016148543524,27.725016148543524 0 0,0 -0.14748091164247615,0.45389957380965024 l -6.3777469402401055 -2.1331165379390664" fill="#ff2e04" stroke="none" /><path d="M 119.67450827220406 107.3425965602758 l 7.245416063636491 2.704015080355777 a28.733547147977646,28.733547147977646 0 0,0 -0.17692438160967566,0.46189373135457074 l -7.197797402433309 -2.828332378543492" fill="#ff3c05" stroke="none" /><path d="M 119.54520255179757 107.68017299344265 l 8.498139682684217 3.339294269910341 a30.13067709906928,30.13067709906928 0 0,0 -0.19383693841613875,0.48108738469723766 l -8.439400130010684 -3.485081022450392" fill="#ff5107" stroke="none" /><path d="M 119.41010516605496 108.01547362559984 l 8.413222964819859 3.474271066739952 a30.10235574458385,30.10235574458385 0 0,0 -0.20189939382974753,0.4772305268967365 l -8.352172589797803 -3.618576119302852" fill="#ff5007" stroke="none" /><path d="M 119.26925614724726 108.34839909993367 l 6.863121726862567 2.9734453063181565 a28.47955993541054,28.47955993541054 0 0,0 -0.1987587338792604,0.4481484741244103 l -6.810921908252034 -3.0911421169352544" fill="#ff3905" stroke="none" /><path d="M 119.12269723197855 108.67885076344098 l 7.09447869016977 3.219834579267933 a28.790953895584448,28.790953895584448 0 0,0 -0.20870066610962346,0.44952266791726275 l -7.038003407220315 -3.341477314464026" fill="#ff3d05" stroke="none" /><path d="M 118.64920377521936 109.65438752849418 l 6.296099479914647 3.2593876408716387 a28.089744456216195,28.089744456216195 0 0,0 -0.2259853271657829,0.4274790742035331 l -6.239061644523971 -3.367281730161306" fill="#ff3304" stroke="none" /><line stroke="#e1ed5e" stroke-width="0.3" x1="174.80103733775053" x2="179.2010983576182" y1="140.37084112569926" y2="142.7455964860345" /><path d="M 175.68104954172406 140.8457921977663 a86.0,86.0 0 0,1 -30.038265399797805,32.042727171017184" fill="none" id="id77" stroke="none" /><text fill="#e1ed5e" style="font-size:6.75px; font-family:Arial;" text-anchor="middle"><textPath startOffset="22.206326154141568" xlink:href="#id77">May</textPath></text><path d="M 118.48025628344425 109.97397251340804 l 7.027097571367025 3.7925923185730044 a28.985227408935284,28.985227408935284 0 0,0 -0.24074797321576238,0.4370275013625196 l -6.960773188699753 -3.912990338333329" fill="#ff4006" stroke="none" /><path d="M 118.30583269289576 110.29060199501025 l 6.813951936607192 3.8304549467430866 a28.816797687891217,28.816797687891217 0 0,0 -0.24679254959275998,0.4303036124208894 l -6.747007390862052 -3.9471784050222913" fill="#ff3e05" stroke="none" /><path d="M 117.94076556474637 110.91462005526583 l 5.2930926649707875 3.220157754527089 a27.19566347730479,27.19566347730479 0 0,0 -0.24674931143414713,0.3978384567230226 l -5.236878713868677 -3.3107925426153852" fill="#ff2603" stroke="none" /><path d="M 117.75023020441432 111.22182372390056 l 6.424554204173657 4.061649564744885 a28.60078245374499,28.60078245374499 0 0,0 -0.2666616241930601,0.413864762525648 l -6.353687716603546 -4.171635927191986" fill="#ff3b05" stroke="none" /><path d="M 117.14729908036423 112.12312394758627 l 6.156128030765611 4.352376593211926 a28.53930330603015,28.53930330603015 0 0,0 -0.28705131284549207,0.39868916732507986 l -6.080296925544516 -4.457699365988137" fill="#ff3a05" stroke="none" /><path d="M 116.71984013943494 112.70617746262583 l 6.064139294304274 4.608419063157186 a28.616515715364585,28.616515715364585 0 0,0 -0.30141800910526934,0.3896234083250795 l -5.983914467980936 -4.712120465595518" fill="#ff3b05" stroke="none" /><path d="M 116.498646956653 112.99209946851258 l 5.7560286972511605 4.532668501530914 a28.326455494190174,28.326455494190174 0 0,0 -0.3049573429624652,0.38048117468073794 l -5.677153442233841 -4.631077509789901" fill="#ff3605" stroke="none" /><path d="M 116.0416608686014 113.55231037782055 l 5.937634583743299 5.016230392108161 a28.77290626450455,28.77290626450455 0 0,0 -0.32288337536420764,0.3755863109894967 l -5.850408698808313 -5.117693802259185" fill="#ff3d05" stroke="none" /><path d="M 115.80600337817218 113.82643327865902 l 5.632665058879958 4.927220737228757 a28.483610081966074,28.483610081966074 0 0,0 -0.32598969586990073,0.36625287910287213 l -5.547016513361719 -5.023447786072496" fill="#ff3905" stroke="none" /><path d="M 115.56566222782051 114.09645910891815 l 5.6299084968832425 5.098515806890772 a28.59544160114428,28.59544160114428 0 0,0 -0.33355029214994547,0.362002965145996 l -5.541311796737575 -5.194670026838103" fill="#ff3a05" stroke="none" /><path d="M 115.32070863581623 114.36230785411682 l 5.472755758996073 5.1304025740258945 a28.501472266775117,28.501472266775117 0 0,0 -0.3386157431721203,0.3550372529480671 l -5.383633464444989 -5.223846943556469" fill="#ff3905" stroke="none" /><path d="M 114.55890576462653 115.13401014063108 l 5.169897379966254 5.374118126688651 a28.45714319018922,28.45714319018922 0 0,0 -0.3559367510320173,0.3365604145526035 l -5.076624794543429 -5.462313177987176" fill="#ff3805" stroke="none" /><path d="M 114.29624159901734 115.38237550388516 l 5.122871555320024 5.512073461847573 a28.52507586812992,28.52507586812992 0 0,0 -0.36254074289027444,0.3311723728722182 l -5.027231262962885 -5.599438601306374" fill="#ff3905" stroke="none" /><path d="M 113.75828350139079 115.86535959552629 l 5.019877341900727 5.78866972370782 a28.662105826592313,28.662105826592313 0 0,0 -0.37552070604274823,0.3200268924373648 l -4.919491159280931 -5.874221006368131" fill="#ff3b05" stroke="none" /><path d="M 113.48314897796784 116.09983520530334 l 4.864301384626987 5.8083205050536195 a28.576147771124212,28.576147771124212 0 0,0 -0.3798312597162768,0.31257526796599017 l -4.763599996366019 -5.891190891876788" fill="#ff3a05" stroke="none" /><path d="M 113.20401910651253 116.32954008644616 l 4.739640675100495 5.861560163998149 a28.538042271388314,28.538042271388314 0 0,0 -0.38464185892533187,0.3055827555963502 l -4.638041323457812 -5.942276833599625" fill="#ff3a05" stroke="none" /><path d="M 112.92097659922987 116.55440617244103 l 4.534459314906493 5.809567155770939 a28.369694146703424,28.369694146703424 0 0,0 -0.38754524914835714,0.2971531712697644 l -4.433785337264642 -5.886759668868075" fill="#ff3705" stroke="none" /><path d="M 112.63410532772338 116.77436683061366 l 4.45124810759434 5.909945079135815 a28.39872019701812,28.39872019701812 0 0,0 -0.3930045195300636,0.29073534813723245 l -4.348858617645712 -5.985690376012816" fill="#ff3805" stroke="none" /><path d="M 112.04921762599082 117.19931262002967 l 4.222069534000341 6.026672940335702 a28.35844126698776,28.35844126698776 0 0,0 -0.40220792829517255,0.2766422806091168 l -4.117704721082285 -6.0984560103099135" fill="#ff3705" stroke="none" /><path d="M 111.1453310114006 117.79835938074945 l 3.939498290192751 6.291119238807358 a28.422791122975486,28.422791122975486 0 0,0 -0.41689575532646583,0.25609142311404554 l -3.8306233349339767 -6.357999128749781" fill="#ff3805" stroke="none" /><line stroke="#e1ed5e" stroke-width="0.3" x1="143.8653032363475" x2="146.44561519142675" y1="172.8068346515853" y2="177.08958963109032" /><path d="M 144.38136562736335 173.6633856474863 a86.0,86.0 0 0,1 -40.68145358897372,12.25698825130547" fill="none" id="id78" stroke="none" /><text fill="#e1ed5e" style="font-size:6.75px; font-family:Arial;" text-anchor="middle"><textPath startOffset="21.466115282336833" xlink:href="#id78">June</textPath></text><path d="M 110.5260780823613 118.17145234162733 l 3.8078593681098174 6.573610274388586 a28.5968509928028,28.5968509928028 0 0,0 -0.42806930341706156,0.24306892240276362 l -3.694141297771557 -6.638182362585979" fill="#ff3a05" stroke="none" /><path d="M 110.21172684928248 118.3499491758327 l 3.6952017847029617 6.640088003187233 a28.599031840948093,28.599031840948093 0 0,0 -0.4322228718551947,0.23568237193790706 l -3.5803561009791185 -6.70271102688491" fill="#ff3b05" stroke="none" /><path d="M 109.89434966115114 118.52300852407294 l 3.5613049053264954 6.667045675290063 a28.558597136050214,28.558597136050214 0 0,0 -0.43559897494084054,0.22788479601008008 l -3.446015027859159 -6.72735989024486" fill="#ff3a05" stroke="none" /><path d="M 109.2508944713604 118.85261126421891 l 3.2604875446163586 6.6446227876427715 a28.40147221967765,28.40147221967765 0 0,0 -0.44074666697791703,0.21158518428024362 l -3.145628209638209 -6.699762248422575" fill="#ff3805" stroke="none" /><path d="M 108.59647513512805 119.15986991738527 l 3.1343393308127574 6.9858323221244705 a28.656757556140768,28.656757556140768 0 0,0 -0.45179333134206673,0.19805291947823836 l -3.0136253248129368 -7.038749794897163" fill="#ff3b05" stroke="none" /><path d="M 108.2653958097858 119.30500536409082 l 3.0678042299671873 7.165292319743347 a28.79441061407324,28.79441061407324 0 0,0 -0.4573217974639363,0.19116054842982133 l -2.9440109730057897 -7.217037911193143" fill="#ff3d05" stroke="none" /><path d="M 107.93186726928326 119.44442032107085 l 2.338044505530012 5.731553309136983 a27.190085253477385,27.190085253477385 0 0,0 -0.43488459891751924,0.17304955690453638 l -2.239038830570627 -5.770949710447588" fill="#ff2603" stroke="none" /><path d="M 107.59598834532513 119.57807347666477 l 2.7387438615378 7.058900845727486 a28.571578375010272,28.571578375010272 0 0,0 -0.46004292802251096,0.1739488710695527 l -2.6168307127550143 -7.104997966903669" fill="#ff3a05" stroke="none" /><path d="M 107.2578585660854 119.70592522655815 l 2.5829488458646805 7.01300478056672 a28.473544058383904,28.473544058383904 0 0,0 -0.46138048012454663,0.16543462504145015 l -2.461848805110399 -7.056426946648131" fill="#ff3905" stroke="none" /><path d="M 106.57524785965236 119.94407469862006 l 2.380687664422015 7.221113732407088 a28.603430626492845,28.603430626492845 0 0,0 -0.4689309819939789,0.15013689208213676 l -2.256035337337096 -7.261023471148931" fill="#ff3b05" stroke="none" /><path d="M 105.88484417918355 120.15858648285463 l 2.083365656767654 7.136587730889868 a28.434466820188703,28.434466820188703 0 0,0 -0.47102213134797094,0.13311555923183788 l -1.9602123573150776 -7.171392083460225" fill="#ff3805" stroke="none" /><path d="M 105.18746579009965 120.34920634021253 l 1.8399212347951401 7.217577594061717 a28.448404961906395,28.448404961906395 0 0,0 -0.4755580531510559,0.11688059919458049 l -1.715409896900873 -7.248179451570327" fill="#ff3805" stroke="none" /><path d="M 104.83641907484287 120.43548508189849 l 1.7378083767207622 7.342820505857257 a28.54566040419516,28.54566040419516 0 0,0 -0.47913191022632395,0.10904886284793777 l -1.6111563171015761 -7.371646102282879" fill="#ff3a05" stroke="none" /><path d="M 104.48393922423573 120.51570834832081 l 1.6457194475163206 7.5297854230304155 a28.707532745101688,28.707532745101688 0 0,0 -0.48366524792917637,0.1013567552926795 l -1.515862738157766 -7.556998159049636" fill="#ff3c05" stroke="none" /><path d="M 104.13013068566511 120.58985236759428 l 1.5113372608825524 7.534437393766116 a28.684522571813627,28.684522571813627 0 0,0 -0.48494926064489435,0.09294167999156207 l -1.3814203856659535 -7.559336272106146" fill="#ff3c05" stroke="none" /><path d="M 103.7750983002368 120.6578951692458 l 1.3939631147045886 7.627971936931119 a28.75429487676124,28.75429487676124 0 0,0 -0.4876605569025943,0.08478603868548597 l -1.2624535863299444 -7.650836554137611" fill="#ff3d05" stroke="none" /><path d="M 102.70371172650421 120.8252237178851 l 0.962476406504747 7.413433278466892 a28.47565072802085,28.47565072802085 0 0,0 -0.4866252455739848,0.05892354031370105 l -0.8347237378793819 -7.428902347505943" fill="#ff3905" stroke="none" /><path d="M 102.34483914955558 120.86867818915974 l 0.8373203638877766 7.452011886834925 a28.498905690386444,28.498905690386444 0 0,0 -0.4879655961273366,0.050579629209546825 l -0.7089221711548374 -7.465320884500231" fill="#ff3905" stroke="none" /><path d="M 101.98527174616119 120.90594882070398 l 0.7067622918686406 7.442576227047949 a28.476058709816737,28.476058709816737 0 0,0 -0.48837211203171244,0.042138800788773065 l -0.5785458620953865 -7.453639280115386" fill="#ff3905" stroke="none" /><path d="M 101.62511606390274 120.93702456842531 l 0.3792938100311775 4.8865948689248295 a25.90129301382099,25.90129301382099 0 0,0 -0.44480813356001814,0.03067657316297646 l -0.29512291569222904 -4.892399786604091" fill="#ff1202" stroke="none" /><path d="M 100.90346689309514 120.98055641714683 l 0.3212279310278358 7.459643271049148 a28.466556442897975,28.466556442897975 0 0,0 -0.48973273812970675,0.016867385711140867 l -0.19277484122347677 -7.464067455186383" fill="#ff3905" stroke="none" /><line stroke="#e1ed5e" stroke-width="0.3" x1="102.19456741930631" x2="102.32365962044197" y1="184.97166512339345" y2="189.96999836594603" /><path d="M 102.22038585953345 185.97133177190398 a86.0,86.0 0 0,1 -42.740103519485714,-10.115201625700543" fill="none" id="id79" stroke="none" /><text fill="#e1ed5e" style="font-size:6.75px; font-family:Arial;" text-anchor="middle"><textPath startOffset="22.20632615414155" xlink:href="#id79">July</textPath></text><path d="M 100.54218724476979 120.99299961872073 l 0.1925057593630533 7.453648848980195 a28.456134362475755,28.456134362475755 0 0,0 -0.48977114421091167,0.008431854410370997 l -0.06417492525947371 -7.4558581806697255" fill="#ff3805" stroke="none" /><path d="M 100.18074693466247 120.99922214144158 l 0.06782164790487143 7.879535290668515 a28.879827166430434,28.879827166430434 0 0,0 -0.49713716513464834,0.0 l 0.067821647904866 -7.879535290668515" fill="#ff3f05" stroke="none" /><path d="M 99.45781275523022 120.99299961872073 l -0.1930420079105112 7.474411907611741 a28.47690434481185,28.47690434481185 0 0,0 -0.4899107612899264,-0.016873517188730456 l 0.32167312087508065 -7.469981591996917" fill="#ff3905" stroke="none" /><path d="M 99.09653310690486 120.98055641714683 l -0.3239517269749676 7.522896008890883 a28.529867799768894,28.529867799768894 0 0,0 -0.49045822296677966,-0.025351087913929593 l 0.4533980183552362 -7.516205114214752" fill="#ff3905" stroke="none" /><path d="M 98.01472825383883 120.90594882070398 l -0.7090589167589907 7.466760887163604 a28.500352171299134,28.500352171299134 0 0,0 -0.48799036314572236,-0.05058219641226426 l 0.8374818765103064 -7.453449322295579" fill="#ff3905" stroke="none" /><path d="M 97.2962882734958 120.8252237178851 l -1.0079599376895385 7.763768228423814 a28.828925874005332,28.828925874005332 0 0,0 -0.4915625762988337,-0.06812609394661902 l 1.1414511051752034 -7.74526756898459" fill="#ff3e05" stroke="none" /><path d="M 95.86986931433489 120.58985236759428 l -1.484425114107609 7.4002728427715665 a28.54768547747293,28.54768547747293 0 0,0 -0.48097213706467695,-0.10079238772639967 l 1.6115887126016726 -7.373624474318626" fill="#ff3a05" stroke="none" /><path d="M 95.16358092515715 120.4354850818985 l -1.735568699576079 7.333357122273234 a28.53593560175137,28.53593560175137 0 0,0 -0.47702125998924255,-0.11724021983576108 l 1.8615432443085322 -7.302395644123443" fill="#ff3a05" stroke="none" /><path d="M 94.46302465271185 120.25689768951611 l -1.9561950798347068 7.156694965664663 a28.419230554575012,28.419230554575012 0 0,0 -0.4707697398278893,-0.133044230867192 l 2.07909598776721 -7.12196194145895" fill="#ff3805" stroke="none" /><path d="M 92.06813273071674 119.44442032107085 l -2.856060254810624 7.001432849475897 a28.56155685853311,28.56155685853311 0 0,0 -0.4536235415955616,-0.18961467717690397 l 2.976155255903648 -6.95123312927902" fill="#ff3a05" stroke="none" /><path d="M 91.07499286063937 119.00905698771935 l -3.2612273477261238 6.945972763364729 a28.673469974070493,28.673469974070493 0 0,0 -0.44496764900119057,-0.21361151216007299 l 3.3803076647275563 -6.888806974705093" fill="#ff3c05" stroke="none" /><path d="M 90.7491055286396 118.85261126421891 l -3.2654838619407274 6.654804897984713 a28.412814113603325,28.412814113603325 0 0,0 -0.43721380250223935,-0.2192280769842762 l 3.379551572125727 -6.597608980091134" fill="#ff3805" stroke="none" /><path d="M 90.10565033884886 118.52300852407294 l -3.565949748295184 6.675741190290897 a28.568455459809023,28.568455459809023 0 0,0 -0.4317607649090558,-0.23543039438593852 l 3.6803333250728802 -6.613370144145192" fill="#ff3a05" stroke="none" /><line stroke="#e1ed5e" stroke-width="0.3" x1="58.666819895761336" x2="56.23545636021788" y1="174.27360380694188" y2="178.64263932499728" /><path d="M 58.180547188652646 175.14741091055294 a86.0,86.0 0 0,1 -31.652253787137756,-30.449443065178592" fill="none" id="id80" stroke="none" /><text fill="#e1ed5e" style="font-size:6.75px; font-family:Arial;" text-anchor="middle"><textPath startOffset="22.20632615414155" xlink:href="#id80">August</textPath></text><path d="M 89.7882731507175 118.34994917583269 l -3.6264504890820644 6.516545452643513 a28.457647604045956,28.457647604045956 0 0,0 -0.4259855530882666,-0.2418857145835308 l 3.7380848090915384 -6.453156572265349" fill="#ff3805" stroke="none" /><path d="M 82.6465618267979 111.8261652097733 l -7.105337684828783 4.842204552972921 a29.598416630303497,29.598416630303497 0 0,0 -0.28329475368811413,-0.423487218826797 l 7.187635543927628 -4.719180419940304" fill="#ff4906" stroke="none" /><line stroke="#e1ed5e" stroke-width="0.3" x1="26.63291911575756" x2="22.317208475507996" y1="142.92168965132927" y2="145.44649492493687" /><path d="M 25.769776987707644 143.4266507060508 a86.0,86.0 0 0,1 -11.730757126820373,-40.83630448921669" fill="none" id="id81" stroke="none" /><text fill="#e1ed5e" style="font-size:6.75px; font-family:Arial;" text-anchor="middle"><textPath startOffset="21.46611528233685" xlink:href="#id81">September</textPath></text><path d="M 81.87401531095188 110.60418214915194 l -6.616533994456547 3.870848005055753 a28.66563672358945,28.66563672358945 0 0,0 -0.2454979782742225,-0.4280464182072837 l 6.682183968883146 -3.7563817409901628" fill="#ff3b05" stroke="none" /><line stroke="#e1ed5e" stroke-width="0.3" x1="15.007084014347285" x2="10.007500721073583" y1="101.09737516637583" y2="101.16192664675087" /><path d="M 14.007167355692545 101.11028546245083 a86.0,86.0 0 0,1 10.666146001902534,-42.60595125391555" fill="none" id="id82" stroke="none" /><text fill="#e1ed5e" style="font-size:6.75px; font-family:Arial;" text-anchor="middle"><textPath startOffset="22.20632615414155" xlink:href="#id82">October</textPath></text><line stroke="#e1ed5e" stroke-width="0.3" x1="26.266209847984243" x2="21.928928074336255" y1="57.711370442889674" y2="55.22380399835377" /><path d="M 25.398753493254645 57.213857153982495 a86.0,86.0 0 0,1 29.58750427330803,-30.492523968695096" fill="none" id="id83" stroke="none" /><text fill="#e1ed5e" style="font-size:6.75px; font-family:Arial;" text-anchor="middle"><textPath startOffset="21.46611528233685" xlink:href="#id83">November</textPath></text><path d="M 86.10567301691215 84.25364557470407 l -41.68298094926353 -47.23906327588782 a84.0,84.0 0 0,0 1.092424805412906,-0.9473400263212777 l 40.863662345203856 47.94956829562878" fill="#4dd2ff" stroke="none" /><line stroke="#e1ed5e" stroke-width="0.3" x1="56.762969772571076" x2="54.21961505331055" y1="26.818313649435495" y2="22.513508569990535" /><path d="M 56.25429882871897 25.957352633546506 a86.0,86.0 0 0,1 42.265352541879196,-11.944610805530505" fill="none" id="id84" stroke="none" /><text fill="#e1ed5e" style="font-size:6.75px; font-family:Arial;" text-anchor="middle"><textPath startOffset="22.20632615414155" xlink:href="#id84">December</textPath></text><path d="M 89.94658935756843 81.56283822128135 l -3.8116762977710583 -6.990313541307301 a28.961994700122194,28.961994700122194 0 0,0 0.4397464510740443,-0.2348973247797331 l 3.6907848001687085 7.054889592588784" fill="#ff4006" stroke="none" /><path d="M 90.26544431104013 81.39251694778311 l -2.8728095418170225 -5.491339981981129 a27.197406672250857,27.197406672250857 0 0,0 0.41668954102762357,-0.21344456722392785 l 2.777859513200635 5.539977074517562" fill="#ff2603" stroke="none" /><path d="M 91.23893434514133 80.91482961587045 l -2.6139709035720093 -5.694293598423402 a27.265606392821592,27.265606392821592 0 0,0 0.42822307329519954,-0.19213121058457883 l 2.5155657118100354 5.73844513952451" fill="#ff2703" stroke="none" /><path d="M 92.23578459929587 80.48803036053334 l -2.7570449762788622 -6.92863027304968 a28.45702450457587,28.45702450457587 0 0,0 0.4566903015266101,-0.17718874188279332 l 2.6373715097525756 6.975061718823025" fill="#ff3805" stroke="none" /><path d="M 92.57280143429618 80.3572730644239 l -2.018987631194482 -5.339620635563384 a26.708577720120015,26.708577720120015 0 0,0 0.43142960076865144,-0.1588991629472695 l 1.926775704653261 5.373583066316977" fill="#ff1e03" stroke="none" /><path d="M 93.59665428221793 80.00007090966166 l -1.7526702013375361 -5.474213214532032 a26.74794425449775,26.74794425449775 0 0,0 0.4397038860271736,-0.13661813775748394 l 1.658180942599634 5.503571487172041" fill="#ff1f03" stroke="none" /><path d="M 93.94186890950719 79.89281104454417 l -1.6550801990189161 -5.493279990314578 a26.73719578863882,26.73719578863882 0 0,0 0.4418127852048483,-0.12897726730557338 l 1.5602771960906465 5.52095558653885" fill="#ff1f03" stroke="none" /><path d="M 94.63758080256005 79.69619591428918 l -2.0009168589237154 -7.576099965250421 a28.83587640023709,28.83587640023709 0 0,0 0.4809976757133833,-0.1226170173993409 l 1.8702102945253327 7.609419978818625" fill="#ff3e05" stroke="none" /><path d="M 94.98787191387505 79.60689891045804 l -1.7823203924175905 -7.251817853008059 a28.46763203126895,28.46763203126895 0 0,0 0.47686850651747903,-0.11285936848917241 l 1.6572281989375777 7.281423133638102" fill="#ff3905" stroke="none" /><path d="M 95.692805502759 79.44645832069477 l -1.5747806463436351 -7.5147104852404905 a28.677942938123586,28.677942938123586 0 0,0 0.48402029926932005,-0.09708991860686099 l 1.4451939376071787 7.540704359924562" fill="#ff3c05" stroke="none" /><path d="M 96.40284397218896 79.31037775812273 l -1.2909265293117 -7.424971846364361 a28.536358419248923,28.536358419248923 0 0,0 0.4846707433951813,-0.07997482547938274 l 1.1629265797776331 7.446092934783371" fill="#ff3a05" stroke="none" /></svg>