<?xml version="1.0" encoding="utf-8" ?>
<svg baseProfile="full" height="200mm" version="1.1" viewBox="0,0,200,200" width="200mm" xmlns="http://www.w3.org/2000/svg" xmlns:ev="http://www.w3.org/2001/xml-events" xmlns:xlink="http://www.w3.org/1999/xlink"><defs /><rect fill="#1a1a1a" height="200" width="200" x="0" y="0" /><rect fill="#1a1a1a" height="200" width="180" x="10" y="0" /><text alignment-baseline="middle" fill="#e1ed5e" style="dominant-baseline: central; font-size:9.0px; font-family:Arial;" text-anchor="middle" x="100.0" y="100.0">2019</text><line stroke="#e1ed5e" stroke-width="0.3" x1="100.0" x2="100.0" y1="15.0" y2="10.0" /><path d="M 100.0 14.0 a86.0,86.0 0 0,1 42.46469731375804,11.215312516191453" fill="none" id="id37" stroke="none" /><text fill="#e1ed5e" style="font-size:6.75px; font-family:Arial;" text-anchor="middle"><textPath startOffset="22.20632615414155" xlink:href="#id37">January</textPath></text><path d="M 100.0 79.0 l 0.0 -15.16010379939295 a36.16010379939295,36.16010379939295 0 0,0 0.6224367453309018,0.005357509577356758 l -0.2609562660583734 15.157857666424151" fill="#ff6509" stroke="none" /><path d="M 101.80526077348638 79.07773832637324 l 1.280903975893737 -14.845172817155841 a35.90033123681091,35.90033123681091 0 0,0 0.6152203400602602,0.05842258436870246 l -1.5362494430442415 14.82092468827196" fill="#ff6108" stroke="none" /><path d="M 103.2404852339499 79.25152402106235 l 1.7178135273135695 -10.998973960549375 a32.132309351588496,32.132309351588496 0 0,0 0.5457455373820149,0.09005268979623947 l -1.9068882708344597 10.967775007813511" fill="#ff2403" stroke="none" /><path d="M 103.95276090670814 79.375362276772 l 2.887677990160144 -15.067269135180673 a36.34148895534014,36.34148895534014 0 0,0 0.6133640197977149,0.12303505214231004 l -3.1466084194249846 15.015330126961155" fill="#ff6809" stroke="none" /><path d="M 104.66035177308747 79.52364482259891 l 3.4545884274681047 -15.17854940501906 a36.566712666578034,36.566712666578034 0 0,0 0.61253825532141,0.1449680147172809 l -3.7153503697520383 15.116835478160912" fill="#ff6b09" stroke="none" /><path d="M 105.01212808612495 79.60689891045804 l 3.715744538522937 -15.118439252735932 a36.56836416950187,36.56836416950187 0 0,0 0.60997966304312,0.1554973978734402 l -3.975433090251082 15.052238858693624" fill="#ff6b09" stroke="none" /><path d="M 105.36241919743992 79.69619591428918 l 3.98770429354823 -15.098701490290976 a36.616419955473084,36.616419955473084 0 0,0 0.6080106155973571,0.16619226897682243 l -4.2470127983692985 15.02782268048786" fill="#ff6c09" stroke="none" /><path d="M 105.71112130821622 79.79150937346287 l 2.9590967102666714 -10.470601989562388 a31.880705830254712,31.880705830254712 0 0,0 0.5268055613800073,0.15378898932647783 l -3.138892489370106 10.418114671317207" fill="#ff2003" stroke="none" /><path d="M 106.0581310904928 79.89281104454417 l 4.3011424531396525 -14.275670621478232 a35.90954721294838,35.90954721294838 0 0,0 0.5903095693926116,0.1834120566900287 l -4.546237395242982 14.199518429905684" fill="#ff6108" stroke="none" /><path d="M 106.40334571778207 80.00007090966166 l 4.5045887725834435 -14.069434949079733 a35.7729590738102,35.7729590738102 0 0,0 0.5848319690122867,0.192809905228159 l -4.746103563838148 13.98981131959234" fill="#ff5f08" stroke="none" /><path d="M 106.74666289553966 80.11325718540242 l 5.110691036690137 -15.064484445890823 a36.907792257035275,36.907792257035275 0 0,0 0.5998711279819193,0.2092832577745318 l -5.369244168735331 14.974280334944085" fill="#ff710a" stroke="none" /><path d="M 107.4271985657038 80.35727306442388 l 5.270950047062871 -13.94009215582443 a35.90332458586036,35.90332458586036 0 0,0 0.5761916579960142,0.22355341162795972 l -5.510124870058553 13.847296040305924" fill="#ff6108" stroke="none" /><path d="M 107.76421540070413 80.48803036053334 l 5.572144502532501 -14.003155341398061 a36.0710700971241,36.0710700971241 0 0,0 0.5749318572721622,0.2345291402605389 l -5.81236022939305 13.905165314953942" fill="#ff6309" stroke="none" /><path d="M 108.09893153111575 80.62456947434976 l 5.907040155483763 -14.131672271222973 a36.316568955864426,36.316568955864426 0 0,0 0.57469455835056,0.2460542178005832 l -6.149418471624638 14.027898525459598" fill="#ff6709" stroke="none" /><path d="M 108.43124777332544 80.76684994638697 l 6.139010819858513 -14.004156852399422 a36.29064625818496,36.29064625818496 0 0,0 0.56996686039743,0.2557275161251282 l -6.379159798722724 13.896409005757764" fill="#ff6709" stroke="none" /><path d="M 109.08828744355905 81.06846463323043 l 14.184547448166306 -29.547399699257376 a53.775756517538326,53.775756517538326 0 0,0 0.8310370537234394,0.40778627310779314 l -14.691055768900178 29.29885826601475" fill="#9fff22" stroke="none" /><path d="M 109.41281617654863 81.2277094730956 l 6.677694940247995 -13.317547811109888 a35.897942455796084,35.897942455796084 0 0,0 0.5499898334426068,0.2817261544103298 l -6.905945261279357 13.200629131387057" fill="#ff6108" stroke="none" /><path d="M 109.73455568895987 81.39251694778311 l 6.945617395738321 -13.276461926758255 a35.98352569659906,35.98352569659906 0 0,0 0.5463583529398292,0.2918457105524575 l -7.1731207952064615 13.154937489704045" fill="#ff6209" stroke="none" /><path d="M 110.05341064243156 81.56283822128135 l 7.171031272173783 -13.151105469351545 a35.97916101030036,35.97916101030036 0 0,0 0.5411881075501211,0.3011705959197107 l -7.39634346879594 13.025719475871654" fill="#ff6209" stroke="none" /><path d="M 110.36928655335952 81.73862282372117 l 7.393809681526721 -13.021257216605353 a35.97402955478702,35.97402955478702 0 0,0 0.5358473329107729,0.3103973617740427 l -7.616853746902822 12.892055697441261" fill="#ff6209" stroke="none" /><line stroke="#e1ed5e" stroke-width="0.3" x1="143.23703022742887" x2="145.7803849466894" y1="26.81831364943548" y2="22.513508569990506" /><path d="M 143.74570117128098 25.957352633546492 a86.0,86.0 0 0,1 28.547481713284135,27.462654790039103" fill="none" id="id38" stroke="none" /><text fill="#e1ed5e" style="font-size:6.75px; font-family:Arial;" text-anchor="middle"><textPath startOffset="19.985693538727396" xlink:href="#id38">February</textPath></text><path d="M 110.99172775467656 82.1063720568725 l 8.582842350567635 -13.97216080522314 a37.39775778518853,37.39775778518853 0 0,0 0.5456169871239455,0.34166530728201605 l -8.822078490063845 13.82235115661818" fill="#ff780b" stroke="none" /><path d="M 112.19680574252982 82.90503203632743 l 8.656565825624448 -12.132989455465287 a35.90454846749142,35.90454846749142 0 0,0 0.5000215887390602,0.36328694913973153 l -8.864132730717298 11.98218327150888" fill="#ff6108" stroke="none" /><path d="M 112.48926042617603 83.11751280151076 l 8.860510894537201 -11.9772874169219 a35.89845855045978,35.89845855045978 0 0,0 0.49361038002812024,0.371777104620808 l -9.065367428323704 11.822993722795244" fill="#ff6108" stroke="none" /><path d="M 112.77801427241765 83.33499621200491 l 9.069674148309767 -11.82861051922006 a35.90553642013336,35.90553642013336 0 0,0 0.4872337604416866,0.3802936783985835 l -9.271940463910884 11.670738451598254" fill="#ff6108" stroke="none" /><path d="M 113.06298171725822 83.55741782278167 l 9.401611089630755 -11.833956923882681 a36.11399442758197,36.11399442758197 0 0,0 0.4834057665644856,0.3908805112774562 l -9.603920254759732 11.670370315341096" fill="#ff6409" stroke="none" /><path d="M 113.34407831869373 83.78471172551755 l 9.801248374914781 -11.910157003979855 a36.424535959510095,36.424535959510095 0 0,0 0.48070407671142035,0.40257583993664287 l -10.004809988585318 11.739680006649392" fill="#ff6909" stroke="none" /><path d="M 113.6212207817346 84.01681056812373 l 8.495804757143226 -9.969007843389749 a34.09808443449132,34.09808443449132 0 0,0 0.4434475387298011,0.3845533357818741 l -8.666146094519792 9.821289514188203" fill="#ff4406" stroke="none" /><path d="M 113.89432698308785 84.25364557470407 l 8.669092459117776 -9.824628610877266 a34.10253759416094,34.10253759416094 0 0,0 0.4368194241868559,0.3921807920224841 l -8.83692287090062 9.673948810085484" fill="#ff4406" stroke="none" /><path d="M 114.16331599549186 84.49514656593476 l 7.729571380136003 -8.461709912798717 a32.46066352219511,32.46066352219511 0 0,0 0.40930132321264123,0.38040097265649636 l -7.8740805871434905 8.327404354067582" fill="#ff2a04" stroke="none" /><path d="M 114.42810811169701 84.74124197986012 l 6.6559620587884 -7.039156739056256 a30.68770140564994,30.68770140564994 0 0,0 0.38069811577097884,0.36623128574495983 l -6.776143418171797 6.923542366548994" fill="#ff0c01" stroke="none" /><path d="M 114.68862486808459 84.99185889309783 l 7.50545002548049 -7.6687133114798165 a31.730374827500334,31.730374827500334 0 0,0 0.387056479908455,0.3853943363775838 l -7.636342305556268 7.538383124452114" fill="#ff1e03" stroke="none" /><path d="M 115.19652480421416 85.50635884689758 l 24.532580338556752 -23.397876854588155 a54.90144745243503,54.90144745243503 0 0,0 0.6463538991125437,0.6894852738509296 l -24.93170155963976 22.972122163859172" fill="#91ff24" stroke="none" /><path d="M 115.4437574822437 85.77008943001954 l 10.915600039545032 -10.057656794921046 a35.842735072342194,35.842735072342194 0 0,0 0.41416512395326144,0.4573314742509557 l -11.08710880411433 9.868272533400543" fill="#ff6008" stroke="none" /><path d="M 115.9244219780498 86.31012108654704 l 9.965697172536265 -8.567292914506769 a34.14205569983841,34.14205569983841 0 0,0 0.37928472516685596,0.4489534820369013 l -10.111692511190236 8.394480482840763" fill="#ff4506" stroke="none" /><path d="M 116.15771136456269 86.58626213691792 l 11.46421810637514 -9.51731424175476 a35.899918361079955,35.899918361079955 0 0,0 0.3906278799924089,0.4788635925102523 l -11.626344478443958 9.318566479636406" fill="#ff6108" stroke="none" /><path d="M 116.38621287248628 86.86637796730983 l 10.216560982172624 -8.188618777135773 a34.0931889079671,34.0931889079671 0 0,0 0.3630858370859985,0.46108214115516954 l -10.356000899852585 8.011544242027565" fill="#ff4406" stroke="none" /><path d="M 116.82858285166822 87.43820079747576 l 15.536832454387598 -11.5975641713605 a40.388054503341394,40.388054503341394 0 0,0 0.4110684407238789,0.5606968911793655 l -15.734163507625103 11.328404836509641" fill="#ffa60f" stroke="none" /><path d="M 117.2510076193507 88.02491185347247 l 10.755905166587116 -7.466399372584564 a34.093380600270756,34.093380600270756 0 0,0 0.33050372251711235,0.48497343077653604 l -10.882833354772961 7.280147918537621" fill="#ff4406" stroke="none" /><path d="M 117.45458315368197 88.32363383020206 l 10.658829019835359 -7.130298643116698 a33.823875966887556,33.823875966887556 0 0,0 0.31956051414603387,0.4867125868311003 l -10.779986169339319 6.945767992307924" fill="#ff4006" stroke="none" /><path d="M 117.65298651832404 88.62581576622439 l 12.528294046004406 -8.072238907918054 a35.903663733782224,35.903663733782224 0 0,0 0.3302665250967437,0.5224023290254908 l -12.665388167347105 7.855388931178357" fill="#ff6108" stroke="none" /><line stroke="#e1ed5e" stroke-width="0.3" x1="172.23445277983987" x2="176.4835382374775" y1="55.19839476539836" y2="52.563006222186495" /><path d="M 173.08426987136738 54.67131705675599 a86.0,86.0 0 0,1 12.851231095245387,41.99856678651699" fill="none" id="id39" stroke="none" /><text fill="#e1ed5e" style="font-size:6.75px; font-family:Arial;" text-anchor="middle"><textPath startOffset="22.20632615414155" xlink:href="#id39">March</textPath></text><path d="M 118.03404312379186 89.2402003453031 l 10.254614562832105 -6.1182951307599485 a32.941132908536325,32.941132908536325 0 0,0 0.28633738687811594,0.48944341180237816 l -10.35841162418055 5.9408723066036755" fill="#ff3104" stroke="none" /><path d="M 118.3937258080291 89.86733742301442 l 10.335253641990663 -5.693443454296768 a32.79969347955937,32.79969347955937 0 0,0 0.2681638913598702,0.4968669636530568 l -10.431725632568998 5.514695507311252" fill="#ff2f04" stroke="none" /><path d="M 119.04729006885535 91.15688171328212 l 13.451585324792704 -6.245190772073372 a35.830628966088014,35.830628966088014 0 0,0 0.25490537853712075,0.5616502126182024 l -13.557093020293172 6.012718550613108" fill="#ff6008" stroke="none" /><path d="M 119.196687751892 91.48605970444005 l 14.22969814594291 -6.31102625641538 a36.56641775534164,36.56641775534164 0 0,0 0.25023494948648295,0.5775767642309741 l -14.336223805272075 6.065150347597802" fill="#ff6b09" stroke="none" /><path d="M 119.61058180528143 92.48833698450437 l 12.073275862939681 -4.624563446205142 a33.92867267474193,33.92867267474193 0 0,0 0.20421088306274615,0.5471836393447704 l -12.151091334504054 4.416056669831039" fill="#ff4106" stroke="none" /><path d="M 119.7369772167798 92.82701384747503 l 11.952260485200082 -4.343795810780158 a33.71711809931112,33.71711809931112 0 0,0 0.19354736718303645,0.5471844703952088 l -12.025260933192927 4.137413713958335" fill="#ff3e05" stroke="none" /><path d="M 120.18372546131832 94.20196356495316 l 60.551176383954946 -17.394109305140535 a84.0,84.0 0 0,0 0.3872529177345476,1.3931547863241924 l -60.84161607225586 16.349243215397394" fill="#4dd2ff" stroke="none" /><path d="M 120.37134235888165 94.90015583598534 l 10.4330230936375 -2.6118451597235937 a31.754985170177825,31.754985170177825 0 0,0 0.1281800557445324,0.531389083677954 l -10.476435949642852 2.4318708443862334" fill="#ff1e03" stroke="none" /><path d="M 120.45610955862082 95.25157060432595 l 10.450265363891228 -2.425795926849793 a31.728118756541882,31.728118756541882 0 0,0 0.1189133826669418,0.5330653779247253 l -10.490473133560208 2.2455523793751038" fill="#ff1e03" stroke="none" /><path d="M 120.53481517161879 95.60439243477599 l 10.113749927892234 -2.164912385345927 a31.34286146287208,31.34286146287208 0 0,0 0.10838765083202288,0.5285366785476505 l -10.149516874639254 1.9905000506348645" fill="#ff1702" stroke="none" /><path d="M 120.78858239683441 97.02765380044208 l 10.861418206955983 -1.5529628001075615 a31.97187763898745,31.97187763898745 0 0,0 0.07320646640551517,0.5454732060858147 l -10.886540672419335 1.3657712519570824" fill="#ff2203" stroke="none" /><path d="M 120.87857604477298 97.74499172005257 l 10.819625113785733 -1.1685827694950572 a31.882549025482206,31.882549025482206 0 0,0 0.054235061512737305,0.5461396679991153 l -10.8381373009807 0.9821675707915071" fill="#ff2003" stroke="none" /><line stroke="#e1ed5e" stroke-width="0.3" x1="184.98032266829074" x2="189.97916517819016" y1="98.17113171792111" y2="98.06355123074" /><path d="M 185.9800911702706 98.14961562048488 a86.0,86.0 0 0,1 -9.607161424134198,41.387399972396054" fill="none" id="id40" stroke="none" /><text fill="#e1ed5e" style="font-size:6.75px; font-family:Arial;" text-anchor="middle"><textPath startOffset="21.466115282336823" xlink:href="#id40">April</textPath></text><path d="M 120.99824983174949 100.27111621757518 l 10.914271267925283 0.14091821782572284 a31.91518095378975,31.91518095378975 0 0,0 -0.011820679850248603,0.5492605441714749 l -10.910228525390027 -0.32876857778731255" fill="#ff2103" stroke="none" /><path d="M 120.9764740272857 100.99374915477107 l 10.939097917213358 0.518233869765162 a31.951366562495906,31.951366562495906 0 0,0 -0.030754938683724826,0.5491500901971139 l -10.928556627642104 -0.7064556762976992" fill="#ff2103" stroke="none" /><path d="M 120.92983693683757 101.71520430193887 l 14.84552163320969 1.2165934520489015 a35.89528825466849,35.89528825466849 0 0,0 -0.05576658433615787,0.6153796111949789 l -14.822380452596457 -1.471954451792451" fill="#ff6108" stroke="none" /><path d="M 120.8583938346157 102.4346265915055 l 11.138923980166835 1.3001538247814086 a32.21454534985835,32.21454534985835 0 0,0 -0.0690288533829806,0.5502278795570358 l -11.114893617537007 -1.4916994586258394" fill="#ff2603" stroke="none" /><path d="M 120.76222939487914 103.15116336523771 l 8.960230250450078 1.3599285882216934 a30.06284347796779,30.06284347796779 0 0,0 -0.08205473557468075,0.5109549167508988 l -8.935493760514108 -1.513962734665797" fill="#ff0200" stroke="none" /><path d="M 120.64145759157962 103.86396538481128 l 9.060221966397211 1.6960228657082224 a30.217598149268152,30.217598149268152 0 0,0 -0.10010668231233491,0.5104418164014262 l -9.029685351109212 -1.8517284091775934" fill="#ff0400" stroke="none" /><path d="M 120.5718875245553 104.21870165774334 l 9.269572706336085 1.9009223969416866 a30.46247769441204,30.46247769441204 0 0,0 -0.10976060274204275,0.5127649948246599 l -9.235478064869598 -2.0602012111825156" fill="#ff0901" stroke="none" /><path d="M 120.41448212921028 104.9243191809786 l 8.826123612000165 2.1290106465189997 a30.079270033835215,30.079270033835215 0 0,0 -0.12574378967782637,0.502283933910198 l -8.788168508027278 -2.2806224198265936" fill="#ff0200" stroke="none" /><path d="M 120.32669344350535 105.2749913415812 l 9.267491494284346 2.405011790353296 a30.57447023643455,30.57447023643455 0 0,0 -0.13658332703385725,0.5082773701377924 l -9.224720090908711 -2.5641800936666366" fill="#ff0a01" stroke="none" /><path d="M 120.23288151984713 105.62410040840565 l 8.675850154742172 2.4116116308341047 a30.00479020108265,30.00479020108265 0 0,0 -0.14260471384551726,0.4964257168771208 l -8.633052804010555 -2.560594823215807" fill="#ff0100" stroke="none" /><path d="M 120.02730092923936 106.31721596034902 l 8.755548034550563 2.7617644524786202 a30.180793226965562,30.180793226965562 0 0,0 -0.1605442130442106,0.494104281474927 l -8.706711570490105 -2.9120676339313425" fill="#ff0400" stroke="none" /><path d="M 119.9155931802556 106.66101706037122 l 8.533378349720532 2.8540941891925806 a29.998021988207295,29.998021988207295 0 0,0 -0.16800202092284533,0.4882925128046015 l -8.482985497854456 -3.0005594050864826" fill="#ff0100" stroke="none" /><path d="M 119.79798401119884 107.00284435728193 l 8.479287687490586 2.9992514340109286 a29.994099668763187,29.994099668763187 0 0,0 -0.1763592200992104,0.4852648304419031 l -8.426404206386149 -3.144764061458963" fill="#ff0100" stroke="none" /><line stroke="#e1ed5e" stroke-width="0.3" x1="174.80103733775053" x2="179.2010983576182" y1="140.37084112569926" y2="142.7455964860345" /><path d="M 175.68104954172406 140.8457921977663 a86.0,86.0 0 0,1 -30.038265399797805,32.042727171017184" fill="none" id="id41" stroke="none" /><text fill="#e1ed5e" style="font-size:6.75px; font-family:Arial;" text-anchor="middle"><textPath startOffset="22.206326154141568" xlink:href="#id41">May</textPath></text><path d="M 118.30583269289576 110.29060199501025 l 7.801009424157618 4.38532813503122 a29.949125705212346,29.949125705212346 0 0,0 -0.2564900226220904,0.44721197404996116 l -7.724367405383148 -4.518959954939496" fill="#ff0000" stroke="none" /><path d="M 114.81725581225074 114.88116024355365 l 6.6430363493924975 6.671686692304275 a30.414952748666344,30.414952748666344 0 0,0 -0.37417640433837707,0.3662103653388153 l -6.527209992678326 -6.785047160565663" fill="#ff0801" stroke="none" /><path d="M 114.29624159901734 115.38237550388516 l 6.687924359753312 7.196028629676868 a30.824009379113544,30.824009379113544 0 0,0 -0.3917591424058579,0.3578626880681377 l -6.56306566788059 -7.310084084331589" fill="#ff0f01" stroke="none" /><path d="M 112.92097659922987 116.55440617244103 l 6.174365044493984 7.910620843440542 a31.03497413207155,31.03497413207155 0 0,0 -0.42395440430661413,0.3250701588790933 l -6.037281911693877 -8.015730344147007" fill="#ff1202" stroke="none" /><path d="M 112.63410532772338 116.77436683061366 l 5.617359644897662 7.458197383888568 a30.336992963324278,30.336992963324278 0 0,0 -0.41982790987849006,0.3105786510603025 l -5.488146764600608 -7.55378598368864" fill="#ff0601" stroke="none" /><path d="M 112.34349029814194 116.9893568818739 l 5.604088217032532 7.71336570264911 a30.53424434378973,30.53424434378973 0 0,0 -0.4278758892934326,0.3052780862013974 l -5.470484999890215 -7.808688050694727" fill="#ff0a01" stroke="none" /><path d="M 111.45004920935366 117.60387380957326 l 5.828741692688458 8.96139670237086 a31.69022266266461,31.69022266266461 0 0,0 -0.4598375020237469,0.29349005024995256 l -5.67362238861778 -9.060401181444622" fill="#ff1d02" stroke="none" /><line stroke="#e1ed5e" stroke-width="0.3" x1="143.8653032363475" x2="146.44561519142675" y1="172.8068346515853" y2="177.08958963109032" /><path d="M 144.38136562736335 173.6633856474863 a86.0,86.0 0 0,1 -40.68145358897372,12.25698825130547" fill="none" id="id42" stroke="none" /><text fill="#e1ed5e" style="font-size:6.75px; font-family:Arial;" text-anchor="middle"><textPath startOffset="21.466115282336833" xlink:href="#id42">June</textPath></text><path d="M 108.2653958097858 119.30500536409082 l 5.843871427681341 13.649191382326432 a35.847601107742776,35.847601107742776 0 0,0 -0.5693427656182212,0.23798532220348192 l -5.608057202565659 -13.747761747549887" fill="#ff6008" stroke="none" /><path d="M 107.93186726928326 119.44442032107085 l 3.710422798696667 9.09584313723159 a30.823522775573487,30.823522775573487 0 0,0 -0.4929986505932691,0.19617433740365725 l -3.5533030720615315 -9.158364319041317" fill="#ff0f01" stroke="none" /><path d="M 106.2309692047433 120.05430185196036 l 2.917245874761138 9.389121888824379 a30.831883509125397,30.831883509125397 0 0,0 -0.5081755460786377,0.15310912340592422 l -2.7551953542422547 -9.437946381336028" fill="#ff0f01" stroke="none" /><path d="M 105.53697534728816 120.25689768951611 l 4.32369784137828 15.818149679152501 a37.398421335470424,37.398421335470424 0 0,0 -0.6224336038337769,0.164390371983492 l -4.050773794733005 -15.890231400439578" fill="#ff780b" stroke="none" /><path d="M 103.06178313531738 120.77559828337769 l 1.4936626206042112 10.135183716515442 a31.244656021151222,31.244656021151222 0 0,0 -0.5327532380655475,0.07383474433732384 l -1.3189807913518332 -10.159393026345368" fill="#ff1602" stroke="none" /><path d="M 102.70371172650421 120.8252237178851 l 1.2890325184417215 9.928717737554965 a31.01204478344153,31.01204478344153 0 0,0 -0.5299701156133172,0.06417200043858051 l -1.117934979777024 -9.949435266718897" fill="#ff1202" stroke="none" /><path d="M 102.34483914955558 120.86867818915974 l 1.3627542560635868 12.128286081409351 a33.20460660713516,33.20460660713516 0 0,0 -0.5685378180219066,0.05893126944885831 l -1.1537838414360775 -12.149946719313968" fill="#ff3605" stroke="none" /><path d="M 101.98527174616119 120.90594882070398 l 0.9453658829050644 9.955196714539966 a30.999982913872813,30.999982913872813 0 0,0 -0.531658095064115,0.04587369754272649 l -0.7738634700994078 -9.969994664361357" fill="#ff1201" stroke="none" /><path d="M 101.26447882468166 120.96189622390904 l 0.5593981476463346 9.273422132443761 a30.29027902347868,30.29027902347868 0 0,0 -0.5207215304076523,0.026915355228806413 l -0.39968854882520266 -9.28167729443477" fill="#ff0600" stroke="none" /><path d="M 100.90346689309514 120.98055641714683 l 0.39975325629883546 9.283179949165717 a30.291783070784312,30.291783070784312 0 0,0 -0.5211335588076513,0.017948893465848048 l -0.23989934581653183 -9.28868564105766" fill="#ff0600" stroke="none" /><line stroke="#e1ed5e" stroke-width="0.3" x1="102.19456741930631" x2="102.32365962044197" y1="184.97166512339345" y2="189.96999836594603" /><path d="M 102.22038585953345 185.97133177190398 a86.0,86.0 0 0,1 -42.740103519485714,-10.115201625700543" fill="none" id="id43" stroke="none" /><text fill="#e1ed5e" style="font-size:6.75px; font-family:Arial;" text-anchor="middle"><textPath startOffset="22.20632615414155" xlink:href="#id43">July</textPath></text><path d="M 99.45781275523022 120.99299961872073 l -0.5002586690712301 19.369563099060606 a40.37602212489631,40.37602212489631 0 0,0 -0.694620717812351,-0.023924142002503902 l 0.8335997385582241 -19.35808215863201" fill="#ffa60f" stroke="none" /><path d="M 97.2962882734958 120.8252237178851 l -1.9654192455851396 15.138557519839193 a36.26560829421469,36.26560829421469 0 0,0 -0.6183655930179046,-0.08569983663216169 l 2.2257134297898755 -15.102483117714426" fill="#ff6709" stroke="none" /><path d="M 96.93821686468263 120.77559828337769 l -2.1943529687301835 14.88968805282485 a36.050514783947094,36.050514783947094 0 0,0 -0.6131405228227071,-0.09575993979317889 l 2.450329355161408 -14.849709805684565" fill="#ff6309" stroke="none" /><path d="M 96.22490169976321 120.6578951692458 l -5.89122772656954 32.237667767749016 a53.77153928685782,53.77153928685782 0 0,0 -0.9090779933888071,-0.17422696105682 l 6.445273334530042 -32.13148360834373" fill="#9fff22" stroke="none" /><path d="M 95.51606077576429 120.51570834832081 l -3.242140718815591 14.834013148956831 a36.184183301844925,36.184183301844925 0 0,0 -0.6073426440274082,-0.13822920844274875 l 3.497003512235862 -14.776007206936395" fill="#ff6509" stroke="none" /><path d="M 94.81253420990036 120.34920634021253 l -3.764704277537524 14.768048070736352 a36.24034914681711,36.24034914681711 0 0,0 -0.6031594467933843,-0.15929989192903732 l 4.018354167142397 -14.701056829503733" fill="#ff6609" stroke="none" /><path d="M 94.46302465271185 120.25689768951611 l -4.320552533657623 15.806642642782817 a37.38649217595808,37.38649217595808 0 0,0 -0.6193140648531681,-0.17502434088849375 l 4.591997766615405 -15.729929508555802" fill="#ff780b" stroke="none" /><path d="M 93.76903079525671 120.05430185196036 l -11.488432235392843 36.97538541499688 a59.719028936877756,59.719028936877756 0 0,0 -0.979046997850642,-0.3134599314266021 l 12.123200578334425 -36.77215263691057" fill="#57ff2a" stroke="none" /><path d="M 93.08242187328487 119.8279376855182 l -5.380887779186293 15.423303593267228 a37.33500067408282,37.33500067408282 0 0,0 -0.6049700206317311,-0.21692072559617515 l 5.645577360447751 -15.328395326631096" fill="#ff770b" stroke="none" /><path d="M 92.40401165467489 119.57807347666478 l -5.9844975240551905 15.42458030744335 a37.544844764342514,37.544844764342514 0 0,0 -0.6005010504582305,-0.238951760906607 l 6.249119650555279 -15.319281702130677" fill="#ff7a0b" stroke="none" /><path d="M 91.7346041902142 119.30500536409082 l -5.864950501515742 13.69842455189364 a35.90115698827283,35.90115698827283 0 0,0 -0.5660062302230388,-0.24812049793995125 l 6.099877406396524 -13.595439500659236" fill="#ff6108" stroke="none" /><path d="M 91.40352486487194 119.15986991738527 l -13.413921070978523 29.897019273841416 a53.76835424550471,53.76835424550471 0 0,0 -0.8411726278363354,-0.38614109652761314 l 13.926561694582277 -29.661691106979728" fill="#9fff22" stroke="none" /><path d="M 90.7491055286396 118.85261126421891 l -7.586545342027165 15.460795776494908 a38.221842998620005,38.221842998620005 0 0,0 -0.5881542479127188,-0.2949127497853369 l 7.8515534976226435 -15.32791518580027" fill="#ff850c" stroke="none" /><path d="M 90.42595943632237 118.69057910512821 l -6.936970612684308 13.542453379424753 a36.21576829526326,36.21576829526326 0 0,0 -0.5523923836650156,-0.28898558745717945 l 7.16905389887582 -13.421038373022856" fill="#ff6609" stroke="none" /><path d="M 90.10565033884886 118.52300852407294 l -7.8032922371725855 14.608382923083768 a37.56189063380638,37.56189063380638 0 0,0 -0.5676803442978626,-0.3095445862741661 l 8.053595393339089 -14.471897685049838" fill="#ff7b0b" stroke="none" /><line stroke="#e1ed5e" stroke-width="0.3" x1="58.666819895761336" x2="56.23545636021788" y1="174.27360380694188" y2="178.64263932499728" /><path d="M 58.180547188652646 175.14741091055294 a86.0,86.0 0 0,1 -31.652253787137756,-30.449443065178592" fill="none" id="id44" stroke="none" /><text fill="#e1ed5e" style="font-size:6.75px; font-family:Arial;" text-anchor="middle"><textPath startOffset="22.20632615414155" xlink:href="#id44">August</textPath></text><path d="M 89.7882731507175 118.34994917583269 l -7.932832118404379 14.254892276457781 a37.3135458816348,37.3135458816348 0 0,0 -0.5585504361159052,-0.31715951489754846 l 8.177031321441492 -14.1162295957656" fill="#ff770a" stroke="none" /><path d="M 89.4739219176387 118.17145234162733 l -7.966377804162471 13.7525727503688 a36.893282624204446,36.893282624204446 0 0,0 -0.5467797569467975,-0.3230471181766151 l 8.201925432137651 -13.613407059898435" fill="#ff700a" stroke="none" /><path d="M 89.1626897886671 117.98757091392108 l -17.06532555206517 28.324717808291606 a54.068337955169746,54.068337955169746 0 0,0 -0.793055843584843,-0.487159672406622 l 17.550360595582323 -28.026769669056605" fill="#9bff22" stroke="none" /><path d="M 88.54995079064634 117.60387380957326 l -8.933798312132792 13.73526482300959 a37.385061856461554,37.385061856461554 0 0,0 -0.5364316679296877,-0.35551765877899244 l 9.168904678802441 -13.579449143139279" fill="#ff780b" stroke="none" /><path d="M 87.65650970185807 116.9893568818739 l -9.430572174027251 12.980069040029642 a37.044247686117075,37.044247686117075 0 0,0 -0.5126483398629974,-0.3792449861397661 l 9.652605484308813 -12.81581410515011" fill="#ff730a" stroke="none" /><path d="M 87.07902340077011 116.55440617244103 l -27.48898099518493 35.21899085305412 a65.67685522573348,65.67685522573348 0 0,0 -0.8852067511205088,-0.7032617797648747 l 28.091145239022797 -34.74059515928412" fill="#33ff52" stroke="none" /><path d="M 86.51685102203217 116.09983520530335 l -9.565114289579128 11.421424181677057 a35.8976622901215,35.8976622901215 0 0,0 -0.47031839077096893,-0.40081553595460945 l 9.760298156927155 -11.255084255499495" fill="#ff6108" stroke="none" /><path d="M 86.24171649860922 115.8653595955263 l -10.250720981428827 11.82061515648625 a36.6462207359112,36.6462207359112 0 0,0 -0.47301135083532886,-0.41737752102544967 l 10.452674685170743 -11.642414493688511" fill="#ff6c0a" stroke="none" /><path d="M 85.70375840098266 115.38237550388516 l -11.16091891503503 12.008851734240698 a37.394469524902675,37.394469524902675 0 0,0 -0.4677231969598374,-0.4422614765355083 l 11.365977946385684 -11.81495562095926" fill="#ff780b" stroke="none" /><path d="M 85.44109423537348 115.13401014063109 l -11.414802140387561 11.865708463176828 a37.464894328154756,37.464894328154756 0 0,0 -0.4609074873292675,-0.45109498451860636 l 11.617359580092621 -11.667463375735652" fill="#ff790b" stroke="none" /><path d="M 85.18274418774928 114.88116024355367 l -29.49741859679799 29.62463619931616 a62.80570264708581,62.80570264708581 0 0,0 -0.7595284279619977,-0.7693982875326932 l 30.00298764981552 -29.112497417802803" fill="#34ff2f" stroke="none" /><path d="M 84.67929136418377 114.36230785411682 l -10.923975309632574 10.240616156679195 a35.9734249867524,35.9734249867524 0 0,0 -0.4196104603429141,-0.45540428062981425 l 11.098632177971217 -10.051060621248036" fill="#ff6209" stroke="none" /><path d="M 84.43433777217949 114.09645910891817 l -11.320866479386142 10.252318794311522 a36.273246495237416,36.273246495237416 0 0,0 -0.4151406566502258,-0.46641492862241773 l 11.495665985684706 -10.05592969594824" fill="#ff6709" stroke="none" /><path d="M 83.95833913139862 113.55231037782056 l -13.008597519582752 10.989918850023837 a38.029442907993314,38.029442907993314 0 0,0 -0.41815002329885903,-0.5036886401472978 l 13.195843542775147 -10.764368952762778" fill="#ff820c" stroke="none" /><path d="M 83.72743513129214 113.27417163493432 l -12.694626216695019 10.355506252477303 a37.38261409319944,37.38261409319944 0 0,0 -0.4024542593827577,-0.5021235687512691 l 12.870998388132637 -10.135454850147774" fill="#ff780b" stroke="none" /><path d="M 83.50135304334701 112.99209946851258 l -36.86763347319731 29.03195410574527 a67.92629068136665,67.92629068136665 0 0,0 -0.7154682109705784,-0.924839108764887 l 37.36190850138596 -28.393037002867132" fill="#36ff6f" stroke="none" /><path d="M 83.06392112726016 112.41649034213515 l -12.400109384966402 9.090996775391543 a36.37559543982968,36.37559543982968 0 0,0 -0.3658695629172253,-0.5081608230357549 l 12.554758740259235 -8.87620234690465" fill="#ff6809" stroke="none" /><path d="M 82.85270091963577 112.12312394758628 l -13.379423811402344 9.459239758561006 a37.385548460001615,37.385548460001615 0 0,0 -0.36698204975194365,-0.5286650134823027 l 13.540266768316421 -9.22753348289169" fill="#ff780b" stroke="none" /><path d="M 82.6465618267979 111.8261652097733 l -13.507866701959601 9.205453216507644 a37.346340011122365,37.346340011122365 0 0,0 -0.3574523031671707,-0.534342693469545 l 13.664322110537503 -8.97157360883228" fill="#ff770b" stroke="none" /><path d="M 82.44556493220864 111.52570212397912 l -17.79558055653038 11.684030834701728 a42.288477256258204,42.288477256258204 0 0,0 -0.3942799134269415,-0.6119311814471412 l 17.994065333334365 -11.375978053333139" fill="#ffc212" stroke="none" /><path d="M 82.24976979558568 111.22182372390057 l -13.227994464190628 8.36283363023447 a36.649818652995265,36.649818652995265 0 0,0 -0.332527923959644,-0.5361408926189484 l 13.369987027818228 -8.133896406250257" fill="#ff6d0a" stroke="none" /><path d="M 82.05923443525364 110.91462005526583 l -13.70345440122482 8.336767887315276 a37.04014841993113,37.04014841993113 0 0,0 -0.3266925644927221,-0.5475555294110043 l 13.844927841415773 -8.09965026401816" fill="#ff730a" stroke="none" /><line stroke="#e1ed5e" stroke-width="0.3" x1="26.63291911575756" x2="22.317208475507996" y1="142.92168965132927" y2="145.44649492493687" /><path d="M 25.769776987707644 143.4266507060508 a86.0,86.0 0 0,1 -11.730757126820373,-40.83630448921669" fill="none" id="id45" stroke="none" /><text fill="#e1ed5e" style="font-size:6.75px; font-family:Arial;" text-anchor="middle"><textPath startOffset="21.46611528233685" xlink:href="#id45">September</textPath></text><path d="M 81.69416730710424 110.29060199501025 l -14.261187616517766 8.01690959377703 a37.36008287473856,37.36008287473856 0 0,0 -0.31030856181908606,-0.5633001749163266 l 14.397072587788369 -7.770238900462879" fill="#ff780b" stroke="none" /><path d="M 81.51974371655577 109.97397251340807 l -13.865940702122888 7.483581900290867 a36.75653228388624,36.75653228388624 0 0,0 -0.29571066360540854,-0.5593731340681952 l 13.992703873953182 -7.243793751136546" fill="#ff6e0a" stroke="none" /><path d="M 81.18737489456691 109.33194174019688 l -13.856596429400827 6.873519770467558 a36.46772571008072,36.46772571008072 0 0,0 -0.27411008295256795,-0.564747959606999 l 13.972859768968116 -6.633982854895274" fill="#ff6a09" stroke="none" /><path d="M 81.02952815118164 109.00673069616217 l -16.152637881367088 7.668889872086265 a38.88070419185895,38.88070419185895 0 0,0 -0.2818395282449088,-0.6070572702180256 l 16.282252026451822 -7.389712534589411" fill="#ff8f0d" stroke="none" /><path d="M 80.87730276802145 108.67885076344099 l -37.711606999795116 17.11544167804067 a62.413809850597026,62.413809850597026 0 0,0 -0.4355857271186504,-0.9821308233789692 l 38.000633811645045 -16.463762518169005" fill="#38ff2e" stroke="none" /><path d="M 80.58989483394504 108.01547362559985 l -13.660478594721896 5.641144391147016 a35.779417629887334,35.779417629887334 0 0,0 -0.23017646596147184,-0.5712791118817856 l 13.755557674940755 -5.405165911422425" fill="#ff5f08" stroke="none" /><path d="M 80.45479744820244 107.68017299344265 l -15.258093817325705 5.995578697978842 a37.39379122905896,37.39379122905896 0 0,0 -0.23024910064778048,-0.6011077459852986 l 15.359037197566995 -5.732047385160385" fill="#ff780b" stroke="none" /><path d="M 80.32549172779594 107.34259656027581 l -14.063757629484263 5.24864443706046 a36.01124735282057,36.01124735282057 0 0,0 -0.211738827572056,-0.582614315270401 l 14.152020718061543 -5.005782324783943" fill="#ff6309" stroke="none" /><path d="M 80.20201598880116 107.00284435728193 l -14.713726453258756 5.204466081471173 a36.60705652371742,36.60705652371742 0 0,0 -0.20501549996993684,-0.5958710085409356 l 14.801132784171921 -4.95042236984094" fill="#ff6c09" stroke="none" /><path d="M 79.97269907076064 106.31721596034903 l -43.79070585500192 13.812912030411804 a66.9175615428258,66.9175615428258 0 0,0 -0.3370517362097302,-1.1015045756163453 l 44.02198436371778 -13.057080482243409" fill="#35ff62" stroke="none" /><path d="M 79.76711848015287 105.62410040840567 l -15.15170276599589 4.21169360531711 a36.726171172098965,36.726171172098965 0 0,0 -0.16406441744075503,-0.6105447307584235 l 15.22195525977842 -3.950257941383147" fill="#ff6e0a" stroke="none" /><path d="M 79.50377843672027 104.57218783832718 l -15.697910714867525 3.501806234679393 a37.08375104623272,37.08375104623272 0 0,0 -0.13361798431508212,-0.6242187390026022 l 15.755862737907048 -3.231073676260627" fill="#ff730a" stroke="none" /><path d="M 79.4281124754447 104.21870165774334 l -14.95275217152518 3.06637882880425 a36.26392730016721,36.26392730016721 0 0,0 -0.1201373263256282,-0.6125776386828552 l 15.003319430826474 -2.80853746305344" fill="#ff6609" stroke="none" /><path d="M 79.29508885075956 103.50808413554451 l -16.949110151692615 2.871729514131748 a38.19067088093263,38.19067088093263 0 0,0 -0.10423915498382841,-0.6490973175883537 l 16.996031061037733 -2.579552966850181" fill="#ff840c" stroke="none" /><path d="M 79.23777060512086 103.15116336523772 l -15.20726519741624 2.3080650957151994 a36.38141993674856,36.38141993674856 0 0,0 -0.08864237506796972,-0.6199645647689523 l 15.244741623500808 -2.0459550589658466" fill="#ff6809" stroke="none" /><path d="M 79.18660465613746 102.79330883721812 l -15.757740985481599 2.114803299612501 a36.8990186477524,36.8990186477524 0 0,0 -0.079066673781965,-0.6302391844365056 l 15.791809168510412 -1.8432463608885867" fill="#ff700a" stroke="none" /><path d="M 79.10278846688536 102.07522291339032 l -16.795099931812462 1.667857750109234 a37.877711076866035,37.877711076866035 0 0,0 -0.058846457903954756,-0.6493657593739002 l 16.82132098599349 -1.3785106021867677" fill="#ff800b" stroke="none" /><path d="M 79.07016306316243 101.71520430193888 l -14.830090522988003 1.215328869495504 a35.87980541475754,35.87980541475754 0 0,0 -0.045146092071995665,-0.6159825575851943 l 14.848813173724334 -0.959873175413549" fill="#ff6008" stroke="none" /><path d="M 79.04373962182676 101.35467743843564 l -32.660887961822844 2.1113007398609396 a53.729057323254544,53.729057323254544 0 0,0 -0.05171715770837935,-0.9234445925046262 l 32.692391470418755 -1.5487844310208756" fill="#a0ff22" stroke="none" /><path d="M 79.0095281055655 100.63252640178507 l -14.755231621111147 0.44463381346283165 a35.76192939356888,35.76192939356888 0 0,0 -0.01324543071839848,-0.6154631185633397 l 14.760699114514553 -0.19058087910936305" fill="#ff5f08" stroke="none" /><line stroke="#e1ed5e" stroke-width="0.3" x1="15.007084014347285" x2="10.007500721073583" y1="101.09737516637583" y2="101.16192664675087" /><path d="M 14.007167355692545 101.11028546245083 a86.0,86.0 0 0,1 10.666146001902534,-42.60595125391555" fill="none" id="id46" stroke="none" /><text fill="#e1ed5e" style="font-size:6.75px; font-family:Arial;" text-anchor="middle"><textPath startOffset="22.20632615414155" xlink:href="#id46">October</textPath></text><path d="M 79.00175016825051 100.2711162175752 l -14.767982814969615 0.19067492167639363 a35.76921370110793,35.76921370110793 0 0,0 -0.002649822033674265,-0.6157253202408451 l 14.769076934292793 0.06355987676812692" fill="#ff5f08" stroke="none" /><path d="M 79.00486145842228 99.54816195383935 l -14.757052563464368 -0.3175877017511057 a35.7604695829487,35.7604695829487 0 0,0 0.018541472344226498,-0.6153012001152298 l 14.749399396664495 0.57155904929133" fill="#ff5f08" stroke="none" /><path d="M 79.01574976396665 99.18683210126434 l -16.695002086278457 -0.6469537683350008 a37.707532547902005,37.707532547902005 0 0,0 0.030716182110119367,-0.6483700571285144 l 16.681392295934838 0.9342349320865243" fill="#ff7d0b" stroke="none" /><path d="M 79.05617556472873 98.46500227214037 l -19.32304366752569 -1.416208783484306 a40.374871971074356,40.374871971074356 0 0,0 0.05676613979369951,-0.6926906888426592 l 19.295803043912493 1.7486133895347435" fill="#ffa60f" stroke="none" /><path d="M 79.21141760316559 97.0276538004421 l -23.575808256468147 -3.37086304082426 a44.81557164096102,44.81557164096102 0 0,0 0.11576098303194643,-0.7627202420540597 l 23.514291379996898 3.7761823952704114" fill="#ffe615" stroke="none" /><path d="M 79.26566170972629 96.67025291283419 l -14.712095800551282 -2.362629443591629 a35.90059665692367,35.90059665692367 0 0,0 0.1032366763059488,-0.6093087074508986 l 14.66924726272511 2.615523939358355" fill="#ff6108" stroke="none" /><path d="M 79.32604984820605 96.31383870115002 l -30.96637372236856 -5.521298423524311 a52.45474587077457,52.45474587077457 0 0,0 0.16614235471841649,-0.8875391023340856 l 30.86674564374028 6.05351560332097" fill="#b0ff20" stroke="none" /><path d="M 79.46518482838121 95.60439243477599 l -11.650115029524024 -2.4937810898966464 a32.914030565911254,32.914030565911254 0 0,0 0.12335804532970081,-0.5529899291311143 l 11.605462597192284 2.69394918857772" fill="#ff3104" stroke="none" /><path d="M 79.54389044137918 95.25157060432595 l -11.747260633712619 -2.7268644388080974 a33.059598752197786,33.059598752197786 0 0,0 0.13344617193927946,-0.5532205350922323 l 11.698581661512526 2.9286702055597265" fill="#ff3304" stroke="none" /><path d="M 79.71946130924805 94.55025226153421 l -11.64256276428693 -3.128567296072457 a33.05558795938276,33.05558795938276 0 0,0 0.15239134386550315,-0.5482327450044723 l 11.586984649855065 3.3285113444958716" fill="#ff3304" stroke="none" /><path d="M 79.91906864156998 93.8553929516997 l -11.981111823906346 -3.6661259801948156 a33.529466079590456,33.529466079590456 0 0,0 0.1736259794445468,-0.5504418024166662 l 11.916230360693596 3.8718179490378963" fill="#ff3b05" stroke="none" /><path d="M 80.65960295795068 91.81776055985345 l -13.723035271112236 -5.805731919034005 a35.900611402485495,35.900611402485495 0 0,0 0.24567863718404534,-0.5670601672413584 l 13.62106592408551 6.041091230861963" fill="#ff6108" stroke="none" /><path d="M 80.803312248108 91.48605970444005 l -13.848435275364286 -6.141932016879171 a36.14933953926439,36.14933953926439 0 0,0 0.2571727414510096,-0.5666460462486166 l 13.740660216949925 6.379400071969858" fill="#ff6509" stroke="none" /><path d="M 80.95270993114464 91.15688171328213 l -16.209352306292715 -7.525544015839292 a38.87111957667598,38.87111957667598 0 0,0 0.2869832660267188,-0.6044599481098727 l 16.077410846424243 7.803446379589697" fill="#ff8f0d" stroke="none" /><path d="M 81.10775173730289 90.83032412892265 l -14.41487768200395 -6.996507468419882 a37.02310255046727,37.02310255046727 0 0,0 0.28320908162531105,-0.5709322269042127 l 14.292308587425227 7.243599283823056" fill="#ff720a" stroke="none" /><path d="M 81.26839172434947 90.50648371742162 l -13.528224947164484 -6.856347939820925 a36.16648862766099,36.16648862766099 0 0,0 0.28621567836377476,-0.5528775899781211 l 13.408199835640595 7.088198252059381" fill="#ff6509" stroke="none" /><path d="M 81.6062741919709 89.86733742301443 l -14.172517810973744 -7.8073002905278415 a37.18067362407524,37.18067362407524 0 0,0 0.3136320106716666,-0.5579163509847106 l 14.036028159009648 8.050100151447337" fill="#ff750a" stroke="none" /><line stroke="#e1ed5e" stroke-width="0.3" x1="26.266209847984243" x2="21.928928074336255" y1="57.711370442889674" y2="55.22380399835377" /><path d="M 25.398753493254645 57.213857153982495 a86.0,86.0 0 0,1 29.58750427330803,-30.492523968695096" fill="none" id="id47" stroke="none" /><text fill="#e1ed5e" style="font-size:6.75px; font-family:Arial;" text-anchor="middle"><textPath startOffset="21.46611528233685" xlink:href="#id47">November</textPath></text><path d="M 81.78341655067845 89.55222093294921 l -14.083764661039062 -8.077478525005947 a37.23570406078729,37.23570406078729 0 0,0 0.32366750193251215,-0.5532526791649252 l 13.942637484636224 8.318710616524765" fill="#ff760a" stroke="none" /><path d="M 81.96595687620814 89.24020034530311 l -14.187361792304294 -8.464722495451069 a37.52067678851962,37.52067678851962 0 0,0 0.3356924955319942,-0.5517901982560072 l 14.039553498486082 8.70768046691415" fill="#ff7a0b" stroke="none" /><path d="M 82.15384107792192 88.93136811851018 l -12.645526484069954 -7.843070220933683 a35.8802920182976,35.8802920182976 0 0,0 0.330051536027207,-0.5220622679472233 l 12.508647351796784 8.059580136595121" fill="#ff6008" stroke="none" /><path d="M 82.34701348167596 88.62581576622439 l -12.515440025882452 -8.063956796964186 a35.88837258617494,35.88837258617494 0 0,0 0.339065422505985,-0.5164199004181507 l 12.374777968018545 8.278194761360004" fill="#ff6108" stroke="none" /><path d="M 82.54541684631803 88.32363383020206 l -12.378969546644614 -8.28099874736394 a35.89341556831736,35.89341556831736 0 0,0 0.3479533930140076,-0.5105786690544855 l 12.234591687961865 8.49285543968884" fill="#ff6108" stroke="none" /><path d="M 82.7489923806493 88.02491185347247 l -12.288180189682656 -8.530054833828983 a35.958649933808815,35.958649933808815 0 0,0 0.35733887857504804,-0.5054305021098349 l 12.13952869130373 8.740311836270603" fill="#ff6209" stroke="none" /><path d="M 82.95767976084542 87.72973835380427 l -12.08225654674812 -8.699076594303872 a35.888077674938536,35.888077674938536 0 0,0 0.3652678078166267,-0.4982248793656644 l 11.930726126417861 8.905763917341035" fill="#ff6108" stroke="none" /><path d="M 83.17141714833178 87.43820079747576 l -15.519166757786264 -11.584377503449426 a40.36600988842057,40.36600988842057 0 0,0 0.4204294076071007,-0.5532358182297363 l 15.317461409955055 11.849798097560189" fill="#ffa50f" stroke="none" /><path d="M 83.84228863543731 86.58626213691792 l -12.61095985881249 -10.46931127380859 a37.390326022031275,37.390326022031275 0 0,0 0.4153698199617186,-0.4916668524492151 l 12.428879425363647 10.68483707588692" fill="#ff780b" stroke="none" /><path d="M 84.07557802195018 86.31012108654704 l -12.414578101181819 -10.672542538815424 a37.37146644846356,37.37146644846356 0 0,0 0.4235577659410456,-0.4841997458338371 l 12.22902847166293 10.884657840852205" fill="#ff780b" stroke="none" /><path d="M 84.31358615837235 86.03803664274999 l -8.90347960015277 -7.924695675149759 a32.91942744153736,32.91942744153736 0 0,0 0.38038611504608194,-0.4200318489353346 l 8.765749844490642 8.07678031135465" fill="#ff3104" stroke="none" /><path d="M 84.5562425177563 85.77008943001954 l -10.942428434917366 -10.082376534746228 a35.879215592284744,35.879215592284744 0 0,0 0.42240545507047295,-0.45059268810054337 l 10.767255657876436 10.269238639724822" fill="#ff6008" stroke="none" /><path d="M 84.80347519578584 85.50635884689758 l -10.769421777070614 -10.271304569580478 a35.8822089413342,35.8822089413342 0 0,0 0.4301349660859673,-0.44329189248255163 l 10.591022547281527 10.455160657613153" fill="#ff6008" stroke="none" /><path d="M 85.05521093208273 85.24692304244772 l -9.668315254206535 -9.544289875686005 a34.585646436067925,34.585646436067925 0 0,0 0.4218859259519788,-0.4200742137110353 l 9.502593528087242 9.70929994004715" fill="#ff4c07" stroke="none" /><path d="M 85.31137513191541 84.99185889309783 l -12.357018583675728 -12.625816251007672 a38.666554397547834,38.666554397547834 0 0,0 0.47968025392060887,-0.4614520242214537 l 12.137855086142691 12.83665136199144" fill="#ff8c0c" stroke="none" /><path d="M 85.57189188830299 84.74124197986013 l -7.4898733375502875 -7.9210776613549365 a31.901452835735377,31.901452835735377 0 0,0 0.40225015268537895,-0.3738476781157337 l 7.352415301070052 8.048829925545318" fill="#ff2003" stroke="none" /><path d="M 86.10567301691215 84.25364557470407 l -9.846272433928176 -11.158719360885371 a35.88173708335596,35.88173708335596 0 0,0 0.46664404346621646,-0.40466911610713807 l 9.652734591815186 11.32655347041219" fill="#ff6008" stroke="none" /><path d="M 86.37877921826538 84.01681056812374 l -7.7346214029297835 -9.075832559196513 a32.9245588970507,32.9245588970507 0 0,0 0.434513968917308,-0.3638929530154631 l 7.577249897053365 9.207626669605789" fill="#ff3104" stroke="none" /><path d="M 86.65592168130627 83.78471172551755 l -7.652676837568471 -9.299283024949665 a33.04326066970129,33.04326066970129 0 0,0 0.44230229879049243,-0.35764436555880674 l 7.491471140213479 9.429633487772605" fill="#ff3304" stroke="none" /><path d="M 86.93701828274178 83.55741782278169 l -9.539252555963959 -12.007208419610208 a36.33526632825212,36.33526632825212 0 0,0 0.4930651430077983,-0.384845164987289 l 9.331154857796735 12.169631973820719" fill="#ff6809" stroke="none" /><path d="M 87.22198572758235 83.33499621200491 l -9.560406946054691 -12.46862106850904 a36.71203017831363,36.71203017831363 0 0,0 0.5047971389202915,-0.3802027394925546 l 9.344363653376009 12.63134039750745" fill="#ff6d0a" stroke="none" /><path d="M 87.51073957382395 83.11751280151077 l -8.943032634136898 -12.088837033540411 a36.0372142871855,36.0372142871855 0 0,0 0.501869147802372,-0.3646292793722326 l 8.733618169980744 12.240985547729311" fill="#ff6309" stroke="none" /><path d="M 87.80319425747018 82.90503203632743 l -7.085689738165915 -9.931259186337211 a33.199873281790964,33.199873281790964 0 0,0 0.4680689832622255,-0.3279122350933264 l 6.91368961532003 10.05175626419448" fill="#ff3605" stroke="none" /><path d="M 88.39885842347998 82.49532879139004 l -8.30116606440198 -12.525421024041629 a36.02649426374239,36.02649426374239 0 0,0 0.519867414633675,-0.3381362275306651 l 8.084331623984017 12.666456175731827" fill="#ff6309" stroke="none" /><path d="M 88.70189139769569 82.29822771554957 l -6.401289813859061 -10.029481800926758 a32.89819383251663,32.89819383251663 0 0,0 0.4799703100870818,-0.3005573641439711 l 6.227700351399737 10.13818350639366" fill="#ff3104" stroke="none" /><path d="M 89.00827224532344 82.1063720568725 l -6.390188609545751 -10.402701014585634 a33.20863214551201,33.20863214551201 0 0,0 0.4896501067273569,-0.2950087105707978 l 6.2101764366007455 10.511156334615052" fill="#ff3605" stroke="none" /><line stroke="#e1ed5e" stroke-width="0.3" x1="56.762969772571076" x2="54.21961505331055" y1="26.818313649435495" y2="22.513508569990535" /><path d="M 56.25429882871897 25.957352633546506 a86.0,86.0 0 0,1 42.265352541879196,-11.944610805530505" fill="none" id="id48" stroke="none" /><text fill="#e1ed5e" style="font-size:6.75px; font-family:Arial;" text-anchor="middle"><textPath startOffset="22.20632615414155" xlink:href="#id48">December</textPath></text><path d="M 89.3179101791058 81.91981866633112 l -9.008424770563865 -15.24738661754436 a38.70972940255665,38.70972940255665 0 0,0 0.576596659166809,-0.33400200172854844 l 8.744631378931736 15.400192776662955" fill="#ff8c0c" stroke="none" /><path d="M 90.58718382345135 81.22770947309562 l -5.398863226276423 -10.76713144055498 a33.04486793593966,33.04486793593966 0 0,0 0.5106671010980143,-0.2505821287059245 l 5.212724858167983 10.858468729395733" fill="#ff3304" stroke="none" /><path d="M 90.91171255644093 81.06846463323043 l -5.3463538713492 -11.13682726556413 a33.35364000044939,33.35364000044939 0 0,0 0.5197160828864751,-0.24401366954704662 l 5.153859577163116 11.227205917751183" fill="#ff3805" stroke="none" /><path d="M 91.56875222667455 80.76684994638697 l -6.71174543579152 -15.310664632183595 a37.71717614533226,37.71717614533226 0 0,0 0.5968585830179925,-0.2555436964699341 l 6.4472030949832195 15.423927856616316" fill="#ff7d0b" stroke="none" /><path d="M 91.90106846888425 80.62456947434976 l -6.00331239218205 -14.361988582273389 a36.56619657191434,36.56619657191434 0 0,0 0.582823610496276,-0.23774838455077665 l 5.755204912097393 14.463197853007744" fill="#ff6b09" stroke="none" /><path d="M 92.23578459929587 80.48803036053334 l -5.7437070741150125 -14.434303051143877 a36.535098182036066,36.535098182036066 0 0,0 0.586330626463613,-0.2274871738750602 l 5.494393282651723 14.53103292890949" fill="#ff6b09" stroke="none" /><path d="M 92.57280143429618 80.3572730644239 l -4.321406257201679 -11.428831791285063 a33.21854116305502,33.21854116305502 0 0,0 0.5365864892647472,-0.1976293324358696 l 4.124037442164362 11.501524391527255" fill="#ff3605" stroke="none" /><path d="M 92.91201910852362 80.23233633223022 l -4.122141218582566 -11.496236015249476 a33.21292310400162,33.21292310400162 0 0,0 0.5398175406218115,-0.18833174032769115 l 3.9236416738974698 11.565488608749376" fill="#ff3605" stroke="none" /><path d="M 93.25333710446033 80.11325718540243 l -4.785323684259431 -14.10541816997922 a35.89503758011755,35.89503758011755 0 0,0 0.5868277617861245,-0.19346788672706416 l 4.541813100230898 14.185699780965518" fill="#ff6108" stroke="none" /><path d="M 93.59665428221793 80.00007090966166 l -3.6904555430721944 -11.526606937295757 a33.10298019507208,33.10298019507208 0 0,0 0.544172998581235,-0.16907719955761283 l 3.491497171780231 11.588424271735894" fill="#ff3404" stroke="none" /><path d="M 93.94186890950719 79.89281104454417 l -4.775496162769385 -15.850070304940726 a37.55385430261451,37.55385430261451 0 0,0 0.6205502288188867,-0.18115562839993152 l 4.5019557162270765 15.929924262259357" fill="#ff7b0b" stroke="none" /><path d="M 94.28887869178378 79.79150937346287 l -2.672766146231654 -9.457436937181438 a30.82785797074855,30.82785797074855 0 0,0 0.5118923402433957,-0.13991951343369946 l 2.5095759167645357 9.502042991441433" fill="#ff0f01" stroke="none" /><path d="M 94.63758080256005 79.69619591428918 l -3.1963453500190995 -12.102367865616184 a33.517345227774456,33.517345227774456 0 0,0 0.5590870527697926,-0.14252373834352908 l 2.9875494085643073 12.155594600128577" fill="#ff3b05" stroke="none" /><path d="M 94.98787191387505 79.60689891045804 l -3.5552896938550655 -14.46558844537589 a35.89608451500677,35.89608451500677 0 0,0 0.6013043934843026,-0.1423093225719569 l 3.3057616134082286 14.524643680088717" fill="#ff6108" stroke="none" /><path d="M 95.33964822691252 79.52364482259891 l -2.8085890829128006 -12.340198853914742 a33.65577656214014,33.65577656214014 0 0,0 0.5659896365325329,-0.12370341246184113 l 2.595756722226747 12.386715764472452" fill="#ff3d05" stroke="none" /><path d="M 95.692805502759 79.44645832069477 l -2.536521194347596 -12.104049195331063 a33.36696998833462,33.36696998833462 0 0,0 0.5631607132460829,-0.11296474113623961 l 2.3277940716343766 12.145917892544514" fill="#ff3805" stroke="none" /><path d="M 96.04723909329186 79.375362276772 l -2.5529377771264326 -13.320668268555975 a34.56310047204522,34.56310047204522 0 0,0 0.5852765313176272,-0.10695554510485719 l 2.3232661247059117 13.362639295011569" fill="#ff4c07" stroke="none" /><path d="M 96.40284397218896 79.31037775812273 l -2.8752776456001716 -16.537622462871624 a37.78571351667138,37.78571351667138 0 0,0 0.6417647826952295,-0.10589668799755997 l 2.5901836567660563 16.584665413808814" fill="#ff7e0b" stroke="none" /><path d="M 96.75951476605007 79.25152402106235 l -1.8397483438802926 -11.779709384375643 a32.92250926395773,32.92250926395773 0 0,0 0.5606719311864979,-0.08262846826057954 l 1.6367074322651458 11.809632336797192" fill="#ff3104" stroke="none" /><path d="M 97.11714578562143 79.19881850522333 l -2.0457096985428906 -14.760780657161455 a35.901864775240185,35.901864775240185 0 0,0 0.6128709400488646,-0.07956823753209966 l 1.7913240299861684 14.79380721785769" fill="#ff6108" stroke="none" /><path d="M 98.19473922651362 79.07773832637324 l -1.4016275936578562 -16.244312020834318 a37.30466905341919,37.30466905341919 0 0,0 0.6402366052116001,-0.04969468266264715 l 1.1218007990839218 16.266031965685425" fill="#ff770a" stroke="none" /><path d="M 98.91598698831166 79.02799685794201 l -1.131098177067095 -21.882942610145783 a42.91215553899475,42.91215553899475 0 0,0 0.7380056368972953,-0.03178007516089699 l 0.7542517077804757 21.89917041183087" fill="#ffcb12" stroke="none" /><path d="M 99.27714615592234 79.0124445844662 l -0.6552210126717787 -19.023883493927578 a40.03516371786638,40.03516371786638 0 0,0 0.688935324916632,-0.017793166885405175 l 0.32765905256026767 19.03234345295534" fill="#ffa00e" stroke="none" /><path d="M 99.63851952072746 79.00311137660856 l -0.2632548654783147 -15.291373689494712 a36.29363960723441,36.29363960723441 0 0,0 0.6247353447508467,-0.00537729434825785 l 3.745861358462561e-15 15.293639607234411" fill="#ff6709" stroke="none" /></svg>